<svg xmlns="http://www.w3.org/2000/svg" viewBox="0 0 600 300" width="600" height="300" role="img" aria-label="Cost per test by provider over runs ($)"><text x="300.0" y="24" text-anchor="middle" font-family="system-ui, -apple-system, sans-serif" font-size="14" font-weight="600" fill="#333">Cost per test by provider over runs ($)</text><line x1="60" y1="240.0" x2="480" y2="240.0" stroke="#eee" stroke-width="1"/><text x="54" y="244.0" text-anchor="end" font-family="system-ui, -apple-system, sans-serif" font-size="9" fill="#999">0.007327</text><line x1="60" y1="140.0" x2="480" y2="140.0" stroke="#eee" stroke-width="1"/><text x="54" y="144.0" text-anchor="end" font-family="system-ui, -apple-system, sans-serif" font-size="9" fill="#999">0.06861</text><line x1="60" y1="40.0" x2="480" y2="40.0" stroke="#eee" stroke-width="1"/><text x="54" y="44.0" text-anchor="end" font-family="system-ui, -apple-system, sans-serif" font-size="9" fill="#999">0.1299</text><polyline fill="none" stroke="#4CAF50" stroke-width="2" points="60.0,120.8 95.0,121.5 130.0,77.8 165.0,123.6 200.0,117.3 235.0,119.7 270.0,119.7 305.0,116.2 340.0,119.2 375.0,118.9 410.0,45.7 445.0,114.0 480.0,118.9"/><circle cx="60.0" cy="120.8" r="3" fill="#4CAF50"/><circle cx="95.0" cy="121.5" r="3" fill="#4CAF50"/><circle cx="130.0" cy="77.8" r="3" fill="#4CAF50"/><circle cx="165.0" cy="123.6" r="3" fill="#4CAF50"/><circle cx="200.0" cy="117.3" r="3" fill="#4CAF50"/><circle cx="235.0" cy="119.7" r="3" fill="#4CAF50"/><circle cx="270.0" cy="119.7" r="3" fill="#4CAF50"/><circle cx="305.0" cy="116.2" r="3" fill="#4CAF50"/><circle cx="340.0" cy="119.2" r="3" fill="#4CAF50"/><circle cx="375.0" cy="118.9" r="3" fill="#4CAF50"/><circle cx="410.0" cy="45.7" r="3" fill="#4CAF50"/><circle cx="445.0" cy="114.0" r="3" fill="#4CAF50"/><circle cx="480.0" cy="118.9" r="3" fill="#4CAF50"/><rect x="490" y="44" width="10" height="10" fill="#4CAF50"/><text x="504" y="53" font-family="system-ui, -apple-system, sans-serif" font-size="10" fill="#333">openai</text><polyline fill="none" stroke="#2196F3" stroke-width="2" points="60.0,122.9 95.0,130.1 130.0,122.4 165.0,125.7 200.0,133.0 235.0,118.2 270.0,125.5 305.0,120.5 340.0,120.5 375.0,119.5 410.0,121.9 445.0,134.8 480.0,133.5"/><circle cx="60.0" cy="122.9" r="3" fill="#2196F3"/><circle cx="95.0" cy="130.1" r="3" fill="#2196F3"/><circle cx="130.0" cy="122.4" r="3" fill="#2196F3"/><circle cx="165.0" cy="125.7" r="3" fill="#2196F3"/><circle cx="200.0" cy="133.0" r="3" fill="#2196F3"/><circle cx="235.0" cy="118.2" r="3" fill="#2196F3"/><circle cx="270.0" cy="125.5" r="3" fill="#2196F3"/><circle cx="305.0" cy="120.5" r="3" fill="#2196F3"/><circle cx="340.0" cy="120.5" r="3" fill="#2196F3"/><circle cx="375.0" cy="119.5" r="3" fill="#2196F3"/><circle cx="410.0" cy="121.9" r="3" fill="#2196F3"/><circle cx="445.0" cy="134.8" r="3" fill="#2196F3"/><circle cx="480.0" cy="133.5" r="3" fill="#2196F3"/><rect x="490" y="62" width="10" height="10" fill="#2196F3"/><text x="504" y="71" font-family="system-ui, -apple-system, sans-serif" font-size="10" fill="#333">gemini</text><polyline fill="none" stroke="#FF9800" stroke-width="2" points="60.0,72.7 95.0,95.8 130.0,100.8 165.0,67.0 200.0,95.0 235.0,46.5 270.0,88.5 305.0,72.4 340.0,81.2 375.0,92.8 410.0,101.4 445.0,87.4 480.0,78.8"/><circle cx="60.0" cy="72.7" r="3" fill="#FF9800"/><circle cx="95.0" cy="95.8" r="3" fill="#FF9800"/><circle cx="130.0" cy="100.8" r="3" fill="#FF9800"/><circle cx="165.0" cy="67.0" r="3" fill="#FF9800"/><circle cx="200.0" cy="95.0" r="3" fill="#FF9800"/><circle cx="235.0" cy="46.5" r="3" fill="#FF9800"/><circle cx="270.0" cy="88.5" r="3" fill="#FF9800"/><circle cx="305.0" cy="72.4" r="3" fill="#FF9800"/><circle cx="340.0" cy="81.2" r="3" fill="#FF9800"/><circle cx="375.0" cy="92.8" r="3" fill="#FF9800"/><circle cx="410.0" cy="101.4" r="3" fill="#FF9800"/><circle cx="445.0" cy="87.4" r="3" fill="#FF9800"/><circle cx="480.0" cy="78.8" r="3" fill="#FF9800"/><rect x="490" y="80" width="10" height="10" fill="#FF9800"/><text x="504" y="89" font-family="system-ui, -apple-system, sans-serif" font-size="10" fill="#333">anthropic</text><polyline fill="none" stroke="#E91E63" stroke-width="2" points="60.0,121.5 95.0,111.7 130.0,40.0 165.0,129.1 200.0,124.2 235.0,127.4 270.0,115.5 305.0,115.2 340.0,111.4 375.0,119.0 410.0,111.4 445.0,112.3 480.0,114.4"/><circle cx="60.0" cy="121.5" r="3" fill="#E91E63"/><circle cx="95.0" cy="111.7" r="3" fill="#E91E63"/><circle cx="130.0" cy="40.0" r="3" fill="#E91E63"/><circle cx="165.0" cy="129.1" r="3" fill="#E91E63"/><circle cx="200.0" cy="124.2" r="3" fill="#E91E63"/><circle cx="235.0" cy="127.4" r="3" fill="#E91E63"/><circle cx="270.0" cy="115.5" r="3" fill="#E91E63"/><circle cx="305.0" cy="115.2" r="3" fill="#E91E63"/><circle cx="340.0" cy="111.4" r="3" fill="#E91E63"/><circle cx="375.0" cy="119.0" r="3" fill="#E91E63"/><circle cx="410.0" cy="111.4" r="3" fill="#E91E63"/><circle cx="445.0" cy="112.3" r="3" fill="#E91E63"/><circle cx="480.0" cy="114.4" r="3" fill="#E91E63"/><rect x="490" y="98" width="10" height="10" fill="#E91E63"/><text x="504" y="107" font-family="system-ui, -apple-system, sans-serif" font-size="10" fill="#333">mistral</text><polyline fill="none" stroke="#9C27B0" stroke-width="2" points="60.0,179.6 95.0,190.2 130.0,193.7 165.0,177.0 200.0,184.5 235.0,194.9 270.0,190.1 305.0,183.2 340.0,186.5 375.0,193.1 410.0,186.4 445.0,183.9 480.0,188.3"/><circle cx="60.0" cy="179.6" r="3" fill="#9C27B0"/><circle cx="95.0" cy="190.2" r="3" fill="#9C27B0"/><circle cx="130.0" cy="193.7" r="3" fill="#9C27B0"/><circle cx="165.0" cy="177.0" r="3" fill="#9C27B0"/><circle cx="200.0" cy="184.5" r="3" fill="#9C27B0"/><circle cx="235.0" cy="194.9" r="3" fill="#9C27B0"/><circle cx="270.0" cy="190.1" r="3" fill="#9C27B0"/><circle cx="305.0" cy="183.2" r="3" fill="#9C27B0"/><circle cx="340.0" cy="186.5" r="3" fill="#9C27B0"/><circle cx="375.0" cy="193.1" r="3" fill="#9C27B0"/><circle cx="410.0" cy="186.4" r="3" fill="#9C27B0"/><circle cx="445.0" cy="183.9" r="3" fill="#9C27B0"/><circle cx="480.0" cy="188.3" r="3" fill="#9C27B0"/><rect x="490" y="116" width="10" height="10" fill="#9C27B0"/><text x="504" y="125" font-family="system-ui, -apple-system, sans-serif" font-size="10" fill="#333">llama</text><polyline fill="none" stroke="#00BCD4" stroke-width="2" points="340.0,239.3 375.0,239.3 410.0,240.0 445.0,238.8 480.0,239.0"/><circle cx="340.0" cy="239.3" r="3" fill="#00BCD4"/><circle cx="375.0" cy="239.3" r="3" fill="#00BCD4"/><circle cx="410.0" cy="240.0" r="3" fill="#00BCD4"/><circle cx="445.0" cy="238.8" r="3" fill="#00BCD4"/><circle cx="480.0" cy="239.0" r="3" fill="#00BCD4"/><rect x="490" y="134" width="10" height="10" fill="#00BCD4"/><text x="504" y="143" font-family="system-ui, -apple-system, sans-serif" font-size="10" fill="#333">deepseek</text><text x="60.0" y="256.0" text-anchor="middle" font-family="system-ui, -apple-system, sans-serif" font-size="9" fill="#666">71825113</text><text x="95.0" y="256.0" text-anchor="middle" font-family="system-ui, -apple-system, sans-serif" font-size="9" fill="#666">75010794</text><text x="130.0" y="256.0" text-anchor="middle" font-family="system-ui, -apple-system, sans-serif" font-size="9" fill="#666">76301827</text><text x="165.0" y="256.0" text-anchor="middle" font-family="system-ui, -apple-system, sans-serif" font-size="9" fill="#666">97386462</text><text x="200.0" y="256.0" text-anchor="middle" font-family="system-ui, -apple-system, sans-serif" font-size="9" fill="#666">00118301</text><text x="235.0" y="256.0" text-anchor="middle" font-family="system-ui, -apple-system, sans-serif" font-size="9" fill="#666">07642311</text><text x="270.0" y="256.0" text-anchor="middle" font-family="system-ui, -apple-system, sans-serif" font-size="9" fill="#666">31919473</text><text x="305.0" y="256.0" text-anchor="middle" font-family="system-ui, -apple-system, sans-serif" font-size="9" fill="#666">33376499</text><text x="340.0" y="256.0" text-anchor="middle" font-family="system-ui, -apple-system, sans-serif" font-size="9" fill="#666">49559976</text><text x="375.0" y="256.0" text-anchor="middle" font-family="system-ui, -apple-system, sans-serif" font-size="9" fill="#666">51938981</text><text x="410.0" y="256.0" text-anchor="middle" font-family="system-ui, -apple-system, sans-serif" font-size="9" fill="#666">53749546</text><text x="445.0" y="256.0" text-anchor="middle" font-family="system-ui, -apple-system, sans-serif" font-size="9" fill="#666">54994841</text><text x="480.0" y="256.0" text-anchor="middle" font-family="system-ui, -apple-system, sans-serif" font-size="9" fill="#666">73723278</text></svg>
