<svg xmlns="http://www.w3.org/2000/svg" viewBox="0 0 600 300" width="600" height="300" role="img" aria-label="Cost per test by provider over runs ($)"><text x="300.0" y="24" text-anchor="middle" font-family="system-ui, -apple-system, sans-serif" font-size="14" font-weight="600" fill="#333">Cost per test by provider over runs ($)</text><line x1="60" y1="240.0" x2="480" y2="240.0" stroke="#eee" stroke-width="1"/><text x="54" y="244.0" text-anchor="end" font-family="system-ui, -apple-system, sans-serif" font-size="9" fill="#999">0.007197</text><line x1="60" y1="140.0" x2="480" y2="140.0" stroke="#eee" stroke-width="1"/><text x="54" y="144.0" text-anchor="end" font-family="system-ui, -apple-system, sans-serif" font-size="9" fill="#999">0.08167</text><line x1="60" y1="40.0" x2="480" y2="40.0" stroke="#eee" stroke-width="1"/><text x="54" y="44.0" text-anchor="end" font-family="system-ui, -apple-system, sans-serif" font-size="9" fill="#999">0.1561</text><polyline fill="none" stroke="#4CAF50" stroke-width="2" points="60.0,141.8 72.7,142.3 85.5,106.4 98.2,144.1 110.9,138.9 123.6,140.8 136.4,140.9 149.1,137.9 161.8,140.5 174.5,140.1 187.3,80.0 200.0,136.1 212.7,140.2 225.5,140.5 238.2,135.0 250.9,93.8 263.6,133.9 276.4,140.6 289.1,113.7 301.8,136.4 314.5,134.8 327.3,140.9 340.0,121.5 352.7,138.0 365.5,40.0 378.2,126.7 390.9,138.5 403.6,109.3 416.4,137.0 429.1,84.7 441.8,137.6 454.5,142.0 467.3,140.5 480.0,140.6"/><circle cx="60.0" cy="141.8" r="3" fill="#4CAF50"/><circle cx="72.7" cy="142.3" r="3" fill="#4CAF50"/><circle cx="85.5" cy="106.4" r="3" fill="#4CAF50"/><circle cx="98.2" cy="144.1" r="3" fill="#4CAF50"/><circle cx="110.9" cy="138.9" r="3" fill="#4CAF50"/><circle cx="123.6" cy="140.8" r="3" fill="#4CAF50"/><circle cx="136.4" cy="140.9" r="3" fill="#4CAF50"/><circle cx="149.1" cy="137.9" r="3" fill="#4CAF50"/><circle cx="161.8" cy="140.5" r="3" fill="#4CAF50"/><circle cx="174.5" cy="140.1" r="3" fill="#4CAF50"/><circle cx="187.3" cy="80.0" r="3" fill="#4CAF50"/><circle cx="200.0" cy="136.1" r="3" fill="#4CAF50"/><circle cx="212.7" cy="140.2" r="3" fill="#4CAF50"/><circle cx="225.5" cy="140.5" r="3" fill="#4CAF50"/><circle cx="238.2" cy="135.0" r="3" fill="#4CAF50"/><circle cx="250.9" cy="93.8" r="3" fill="#4CAF50"/><circle cx="263.6" cy="133.9" r="3" fill="#4CAF50"/><circle cx="276.4" cy="140.6" r="3" fill="#4CAF50"/><circle cx="289.1" cy="113.7" r="3" fill="#4CAF50"/><circle cx="301.8" cy="136.4" r="3" fill="#4CAF50"/><circle cx="314.5" cy="134.8" r="3" fill="#4CAF50"/><circle cx="327.3" cy="140.9" r="3" fill="#4CAF50"/><circle cx="340.0" cy="121.5" r="3" fill="#4CAF50"/><circle cx="352.7" cy="138.0" r="3" fill="#4CAF50"/><circle cx="365.5" cy="40.0" r="3" fill="#4CAF50"/><circle cx="378.2" cy="126.7" r="3" fill="#4CAF50"/><circle cx="390.9" cy="138.5" r="3" fill="#4CAF50"/><circle cx="403.6" cy="109.3" r="3" fill="#4CAF50"/><circle cx="416.4" cy="137.0" r="3" fill="#4CAF50"/><circle cx="429.1" cy="84.7" r="3" fill="#4CAF50"/><circle cx="441.8" cy="137.6" r="3" fill="#4CAF50"/><circle cx="454.5" cy="142.0" r="3" fill="#4CAF50"/><circle cx="467.3" cy="140.5" r="3" fill="#4CAF50"/><circle cx="480.0" cy="140.6" r="3" fill="#4CAF50"/><rect x="490" y="44" width="10" height="10" fill="#4CAF50"/><text x="504" y="53" font-family="system-ui, -apple-system, sans-serif" font-size="10" fill="#333">openai</text><polyline fill="none" stroke="#2196F3" stroke-width="2" points="60.0,143.4 72.7,149.4 85.5,143.1 98.2,145.8 110.9,151.8 123.6,139.6 136.4,145.6 149.1,141.5 161.8,141.5 174.5,140.7 187.3,142.6 200.0,153.3 212.7,152.2 225.5,146.8 238.2,141.9 250.9,142.2 263.6,116.6 276.4,142.0 289.1,114.7 301.8,122.7 314.5,135.5 327.3,130.6 340.0,145.2 352.7,124.2 365.5,141.8 378.2,137.0 390.9,134.1 403.6,136.4"/><circle cx="60.0" cy="143.4" r="3" fill="#2196F3"/><circle cx="72.7" cy="149.4" r="3" fill="#2196F3"/><circle cx="85.5" cy="143.1" r="3" fill="#2196F3"/><circle cx="98.2" cy="145.8" r="3" fill="#2196F3"/><circle cx="110.9" cy="151.8" r="3" fill="#2196F3"/><circle cx="123.6" cy="139.6" r="3" fill="#2196F3"/><circle cx="136.4" cy="145.6" r="3" fill="#2196F3"/><circle cx="149.1" cy="141.5" r="3" fill="#2196F3"/><circle cx="161.8" cy="141.5" r="3" fill="#2196F3"/><circle cx="174.5" cy="140.7" r="3" fill="#2196F3"/><circle cx="187.3" cy="142.6" r="3" fill="#2196F3"/><circle cx="200.0" cy="153.3" r="3" fill="#2196F3"/><circle cx="212.7" cy="152.2" r="3" fill="#2196F3"/><circle cx="225.5" cy="146.8" r="3" fill="#2196F3"/><circle cx="238.2" cy="141.9" r="3" fill="#2196F3"/><circle cx="250.9" cy="142.2" r="3" fill="#2196F3"/><circle cx="263.6" cy="116.6" r="3" fill="#2196F3"/><circle cx="276.4" cy="142.0" r="3" fill="#2196F3"/><circle cx="289.1" cy="114.7" r="3" fill="#2196F3"/><circle cx="301.8" cy="122.7" r="3" fill="#2196F3"/><circle cx="314.5" cy="135.5" r="3" fill="#2196F3"/><circle cx="327.3" cy="130.6" r="3" fill="#2196F3"/><circle cx="340.0" cy="145.2" r="3" fill="#2196F3"/><circle cx="352.7" cy="124.2" r="3" fill="#2196F3"/><circle cx="365.5" cy="141.8" r="3" fill="#2196F3"/><circle cx="378.2" cy="137.0" r="3" fill="#2196F3"/><circle cx="390.9" cy="134.1" r="3" fill="#2196F3"/><circle cx="403.6" cy="136.4" r="3" fill="#2196F3"/><rect x="490" y="62" width="10" height="10" fill="#2196F3"/><text x="504" y="71" font-family="system-ui, -apple-system, sans-serif" font-size="10" fill="#333">gemini</text><polyline fill="none" stroke="#FF9800" stroke-width="2" points="60.0,102.1 72.7,121.1 85.5,125.3 98.2,97.5 110.9,120.5 123.6,80.6 136.4,115.2 149.1,101.9 161.8,109.2 174.5,118.7 187.3,125.8 200.0,114.2 212.7,107.2 225.5,139.1 238.2,123.1 250.9,120.9 263.6,110.3 289.1,112.2 301.8,124.4 314.5,98.5 327.3,127.8 340.0,122.4 352.7,111.2 365.5,121.0 378.2,123.4 390.9,129.2 403.6,122.2 416.4,135.4 429.1,124.0 441.8,123.6 454.5,132.5 467.3,126.8 480.0,118.3"/><circle cx="60.0" cy="102.1" r="3" fill="#FF9800"/><circle cx="72.7" cy="121.1" r="3" fill="#FF9800"/><circle cx="85.5" cy="125.3" r="3" fill="#FF9800"/><circle cx="98.2" cy="97.5" r="3" fill="#FF9800"/><circle cx="110.9" cy="120.5" r="3" fill="#FF9800"/><circle cx="123.6" cy="80.6" r="3" fill="#FF9800"/><circle cx="136.4" cy="115.2" r="3" fill="#FF9800"/><circle cx="149.1" cy="101.9" r="3" fill="#FF9800"/><circle cx="161.8" cy="109.2" r="3" fill="#FF9800"/><circle cx="174.5" cy="118.7" r="3" fill="#FF9800"/><circle cx="187.3" cy="125.8" r="3" fill="#FF9800"/><circle cx="200.0" cy="114.2" r="3" fill="#FF9800"/><circle cx="212.7" cy="107.2" r="3" fill="#FF9800"/><circle cx="225.5" cy="139.1" r="3" fill="#FF9800"/><circle cx="238.2" cy="123.1" r="3" fill="#FF9800"/><circle cx="250.9" cy="120.9" r="3" fill="#FF9800"/><circle cx="263.6" cy="110.3" r="3" fill="#FF9800"/><circle cx="289.1" cy="112.2" r="3" fill="#FF9800"/><circle cx="301.8" cy="124.4" r="3" fill="#FF9800"/><circle cx="314.5" cy="98.5" r="3" fill="#FF9800"/><circle cx="327.3" cy="127.8" r="3" fill="#FF9800"/><circle cx="340.0" cy="122.4" r="3" fill="#FF9800"/><circle cx="352.7" cy="111.2" r="3" fill="#FF9800"/><circle cx="365.5" cy="121.0" r="3" fill="#FF9800"/><circle cx="378.2" cy="123.4" r="3" fill="#FF9800"/><circle cx="390.9" cy="129.2" r="3" fill="#FF9800"/><circle cx="403.6" cy="122.2" r="3" fill="#FF9800"/><circle cx="416.4" cy="135.4" r="3" fill="#FF9800"/><circle cx="429.1" cy="124.0" r="3" fill="#FF9800"/><circle cx="441.8" cy="123.6" r="3" fill="#FF9800"/><circle cx="454.5" cy="132.5" r="3" fill="#FF9800"/><circle cx="467.3" cy="126.8" r="3" fill="#FF9800"/><circle cx="480.0" cy="118.3" r="3" fill="#FF9800"/><rect x="490" y="80" width="10" height="10" fill="#FF9800"/><text x="504" y="89" font-family="system-ui, -apple-system, sans-serif" font-size="10" fill="#333">anthropic</text><polyline fill="none" stroke="#E91E63" stroke-width="2" points="60.0,142.3 72.7,134.2 85.5,75.2 98.2,148.6 110.9,144.6 123.6,147.1 136.4,137.4 149.1,137.1 161.8,134.0 174.5,140.2 187.3,134.0 200.0,134.7 212.7,136.5 225.5,142.6 238.2,129.8 250.9,141.3 263.6,135.9 276.4,139.7 289.1,149.9 301.8,142.4 314.5,146.8 327.3,143.9 340.0,94.4 352.7,144.4 365.5,146.1 378.2,143.5 390.9,145.1 403.6,121.8 416.4,142.9 429.1,128.9 441.8,144.8 454.5,121.9 467.3,146.0 480.0,145.2"/><circle cx="60.0" cy="142.3" r="3" fill="#E91E63"/><circle cx="72.7" cy="134.2" r="3" fill="#E91E63"/><circle cx="85.5" cy="75.2" r="3" fill="#E91E63"/><circle cx="98.2" cy="148.6" r="3" fill="#E91E63"/><circle cx="110.9" cy="144.6" r="3" fill="#E91E63"/><circle cx="123.6" cy="147.1" r="3" fill="#E91E63"/><circle cx="136.4" cy="137.4" r="3" fill="#E91E63"/><circle cx="149.1" cy="137.1" r="3" fill="#E91E63"/><circle cx="161.8" cy="134.0" r="3" fill="#E91E63"/><circle cx="174.5" cy="140.2" r="3" fill="#E91E63"/><circle cx="187.3" cy="134.0" r="3" fill="#E91E63"/><circle cx="200.0" cy="134.7" r="3" fill="#E91E63"/><circle cx="212.7" cy="136.5" r="3" fill="#E91E63"/><circle cx="225.5" cy="142.6" r="3" fill="#E91E63"/><circle cx="238.2" cy="129.8" r="3" fill="#E91E63"/><circle cx="250.9" cy="141.3" r="3" fill="#E91E63"/><circle cx="263.6" cy="135.9" r="3" fill="#E91E63"/><circle cx="276.4" cy="139.7" r="3" fill="#E91E63"/><circle cx="289.1" cy="149.9" r="3" fill="#E91E63"/><circle cx="301.8" cy="142.4" r="3" fill="#E91E63"/><circle cx="314.5" cy="146.8" r="3" fill="#E91E63"/><circle cx="327.3" cy="143.9" r="3" fill="#E91E63"/><circle cx="340.0" cy="94.4" r="3" fill="#E91E63"/><circle cx="352.7" cy="144.4" r="3" fill="#E91E63"/><circle cx="365.5" cy="146.1" r="3" fill="#E91E63"/><circle cx="378.2" cy="143.5" r="3" fill="#E91E63"/><circle cx="390.9" cy="145.1" r="3" fill="#E91E63"/><circle cx="403.6" cy="121.8" r="3" fill="#E91E63"/><circle cx="416.4" cy="142.9" r="3" fill="#E91E63"/><circle cx="429.1" cy="128.9" r="3" fill="#E91E63"/><circle cx="441.8" cy="144.8" r="3" fill="#E91E63"/><circle cx="454.5" cy="121.9" r="3" fill="#E91E63"/><circle cx="467.3" cy="146.0" r="3" fill="#E91E63"/><circle cx="480.0" cy="145.2" r="3" fill="#E91E63"/><rect x="490" y="98" width="10" height="10" fill="#E91E63"/><text x="504" y="107" font-family="system-ui, -apple-system, sans-serif" font-size="10" fill="#333">mistral</text><polyline fill="none" stroke="#9C27B0" stroke-width="2" points="60.0,190.1 72.7,198.8 85.5,201.7 98.2,188.0 110.9,194.2 123.6,202.7 136.4,198.8 149.1,193.1 161.8,195.8 174.5,201.2 187.3,195.7 200.0,193.6 212.7,197.3 225.5,183.3 238.2,198.4 250.9,193.5 263.6,200.8 276.4,201.2 289.1,184.1 301.8,194.7 314.5,171.9 327.3,200.2 340.0,202.6 352.7,192.6 365.5,190.9 378.2,193.9 390.9,195.4 403.6,193.3 416.4,200.6 429.1,196.9 441.8,193.7 454.5,198.9 467.3,202.5 480.0,184.0"/><circle cx="60.0" cy="190.1" r="3" fill="#9C27B0"/><circle cx="72.7" cy="198.8" r="3" fill="#9C27B0"/><circle cx="85.5" cy="201.7" r="3" fill="#9C27B0"/><circle cx="98.2" cy="188.0" r="3" fill="#9C27B0"/><circle cx="110.9" cy="194.2" r="3" fill="#9C27B0"/><circle cx="123.6" cy="202.7" r="3" fill="#9C27B0"/><circle cx="136.4" cy="198.8" r="3" fill="#9C27B0"/><circle cx="149.1" cy="193.1" r="3" fill="#9C27B0"/><circle cx="161.8" cy="195.8" r="3" fill="#9C27B0"/><circle cx="174.5" cy="201.2" r="3" fill="#9C27B0"/><circle cx="187.3" cy="195.7" r="3" fill="#9C27B0"/><circle cx="200.0" cy="193.6" r="3" fill="#9C27B0"/><circle cx="212.7" cy="197.3" r="3" fill="#9C27B0"/><circle cx="225.5" cy="183.3" r="3" fill="#9C27B0"/><circle cx="238.2" cy="198.4" r="3" fill="#9C27B0"/><circle cx="250.9" cy="193.5" r="3" fill="#9C27B0"/><circle cx="263.6" cy="200.8" r="3" fill="#9C27B0"/><circle cx="276.4" cy="201.2" r="3" fill="#9C27B0"/><circle cx="289.1" cy="184.1" r="3" fill="#9C27B0"/><circle cx="301.8" cy="194.7" r="3" fill="#9C27B0"/><circle cx="314.5" cy="171.9" r="3" fill="#9C27B0"/><circle cx="327.3" cy="200.2" r="3" fill="#9C27B0"/><circle cx="340.0" cy="202.6" r="3" fill="#9C27B0"/><circle cx="352.7" cy="192.6" r="3" fill="#9C27B0"/><circle cx="365.5" cy="190.9" r="3" fill="#9C27B0"/><circle cx="378.2" cy="193.9" r="3" fill="#9C27B0"/><circle cx="390.9" cy="195.4" r="3" fill="#9C27B0"/><circle cx="403.6" cy="193.3" r="3" fill="#9C27B0"/><circle cx="416.4" cy="200.6" r="3" fill="#9C27B0"/><circle cx="429.1" cy="196.9" r="3" fill="#9C27B0"/><circle cx="441.8" cy="193.7" r="3" fill="#9C27B0"/><circle cx="454.5" cy="198.9" r="3" fill="#9C27B0"/><circle cx="467.3" cy="202.5" r="3" fill="#9C27B0"/><circle cx="480.0" cy="184.0" r="3" fill="#9C27B0"/><rect x="490" y="116" width="10" height="10" fill="#9C27B0"/><text x="504" y="125" font-family="system-ui, -apple-system, sans-serif" font-size="10" fill="#333">llama</text><polyline fill="none" stroke="#00BCD4" stroke-width="2" points="161.8,239.2 174.5,239.3 187.3,239.8 200.0,238.8 212.7,239.0 225.5,234.2 238.2,240.0 250.9,237.9 263.6,237.9 276.4,237.6 289.1,238.9 301.8,237.9 314.5,235.2 327.3,238.1 340.0,235.5 352.7,240.0 365.5,238.2 378.2,235.2 390.9,232.9 403.6,238.2 416.4,237.3 429.1,239.5 441.8,236.5 454.5,233.9 467.3,238.7 480.0,237.8"/><circle cx="161.8" cy="239.2" r="3" fill="#00BCD4"/><circle cx="174.5" cy="239.3" r="3" fill="#00BCD4"/><circle cx="187.3" cy="239.8" r="3" fill="#00BCD4"/><circle cx="200.0" cy="238.8" r="3" fill="#00BCD4"/><circle cx="212.7" cy="239.0" r="3" fill="#00BCD4"/><circle cx="225.5" cy="234.2" r="3" fill="#00BCD4"/><circle cx="238.2" cy="240.0" r="3" fill="#00BCD4"/><circle cx="250.9" cy="237.9" r="3" fill="#00BCD4"/><circle cx="263.6" cy="237.9" r="3" fill="#00BCD4"/><circle cx="276.4" cy="237.6" r="3" fill="#00BCD4"/><circle cx="289.1" cy="238.9" r="3" fill="#00BCD4"/><circle cx="301.8" cy="237.9" r="3" fill="#00BCD4"/><circle cx="314.5" cy="235.2" r="3" fill="#00BCD4"/><circle cx="327.3" cy="238.1" r="3" fill="#00BCD4"/><circle cx="340.0" cy="235.5" r="3" fill="#00BCD4"/><circle cx="352.7" cy="240.0" r="3" fill="#00BCD4"/><circle cx="365.5" cy="238.2" r="3" fill="#00BCD4"/><circle cx="378.2" cy="235.2" r="3" fill="#00BCD4"/><circle cx="390.9" cy="232.9" r="3" fill="#00BCD4"/><circle cx="403.6" cy="238.2" r="3" fill="#00BCD4"/><circle cx="416.4" cy="237.3" r="3" fill="#00BCD4"/><circle cx="429.1" cy="239.5" r="3" fill="#00BCD4"/><circle cx="441.8" cy="236.5" r="3" fill="#00BCD4"/><circle cx="454.5" cy="233.9" r="3" fill="#00BCD4"/><circle cx="467.3" cy="238.7" r="3" fill="#00BCD4"/><circle cx="480.0" cy="237.8" r="3" fill="#00BCD4"/><rect x="490" y="134" width="10" height="10" fill="#00BCD4"/><text x="504" y="143" font-family="system-ui, -apple-system, sans-serif" font-size="10" fill="#333">deepseek</text><text x="60.0" y="256.0" text-anchor="middle" font-family="system-ui, -apple-system, sans-serif" font-size="9" fill="#666">71825113</text><text x="98.2" y="256.0" text-anchor="middle" font-family="system-ui, -apple-system, sans-serif" font-size="9" fill="#666">97386462</text><text x="136.4" y="256.0" text-anchor="middle" font-family="system-ui, -apple-system, sans-serif" font-size="9" fill="#666">31919473</text><text x="174.5" y="256.0" text-anchor="middle" font-family="system-ui, -apple-system, sans-serif" font-size="9" fill="#666">51938981</text><text x="212.7" y="256.0" text-anchor="middle" font-family="system-ui, -apple-system, sans-serif" font-size="9" fill="#666">73723278</text><text x="250.9" y="256.0" text-anchor="middle" font-family="system-ui, -apple-system, sans-serif" font-size="9" fill="#666">75757458</text><text x="289.1" y="256.0" text-anchor="middle" font-family="system-ui, -apple-system, sans-serif" font-size="9" fill="#666">39719442</text><text x="327.3" y="256.0" text-anchor="middle" font-family="system-ui, -apple-system, sans-serif" font-size="9" fill="#666">04094958</text><text x="365.5" y="256.0" text-anchor="middle" font-family="system-ui, -apple-system, sans-serif" font-size="9" fill="#666">34092480</text><text x="403.6" y="256.0" text-anchor="middle" font-family="system-ui, -apple-system, sans-serif" font-size="9" fill="#666">68748512</text><text x="441.8" y="256.0" text-anchor="middle" font-family="system-ui, -apple-system, sans-serif" font-size="9" fill="#666">00682223</text><text x="480.0" y="256.0" text-anchor="middle" font-family="system-ui, -apple-system, sans-serif" font-size="9" fill="#666">62366017</text></svg>
