<svg xmlns="http://www.w3.org/2000/svg" viewBox="0 0 760 348" width="760" height="348" role="img" aria-label="Cost per test by provider over runs — openai highest, deepseek lowest" font-family="-apple-system,BlinkMacSystemFont,'Segoe UI',system-ui,sans-serif"><line x1="56" y1="306" x2="642" y2="306" stroke="#30363d" stroke-width="1"></line><text x="46" y="310" font-size="9.5" font-weight="400" text-anchor="end" fill="#8b949e" font-family="ui-monospace,SFMono-Regular,Menlo,monospace">$0.000</text><line x1="56" y1="235" x2="642" y2="235" stroke="#30363d" stroke-width="1"></line><text x="46" y="239" font-size="9.5" font-weight="400" text-anchor="end" fill="#8b949e" font-family="ui-monospace,SFMono-Regular,Menlo,monospace">$0.044</text><line x1="56" y1="164" x2="642" y2="164" stroke="#30363d" stroke-width="1"></line><text x="46" y="168" font-size="9.5" font-weight="400" text-anchor="end" fill="#8b949e" font-family="ui-monospace,SFMono-Regular,Menlo,monospace">$0.087</text><line x1="56" y1="93" x2="642" y2="93" stroke="#30363d" stroke-width="1"></line><text x="46" y="97" font-size="9.5" font-weight="400" text-anchor="end" fill="#8b949e" font-family="ui-monospace,SFMono-Regular,Menlo,monospace">$0.131</text><line x1="56" y1="22" x2="642" y2="22" stroke="#30363d" stroke-width="1"></line><text x="46" y="26" font-size="9.5" font-weight="400" text-anchor="end" fill="#8b949e" font-family="ui-monospace,SFMono-Regular,Menlo,monospace">$0.175</text><text x="56" y="324" font-size="9.5" font-weight="400" text-anchor="middle" fill="#8b949e" font-family="ui-monospace,SFMono-Regular,Menlo,monospace">06/06</text><text x="116.1" y="324" font-size="9.5" font-weight="400" text-anchor="middle" fill="#8b949e" font-family="ui-monospace,SFMono-Regular,Menlo,monospace">06/07</text><text x="176.21" y="324" font-size="9.5" font-weight="400" text-anchor="middle" fill="#8b949e" font-family="ui-monospace,SFMono-Regular,Menlo,monospace">06/08</text><text x="236.31" y="324" font-size="9.5" font-weight="400" text-anchor="middle" fill="#8b949e" font-family="ui-monospace,SFMono-Regular,Menlo,monospace">06/08</text><text x="296.41" y="324" font-size="9.5" font-weight="400" text-anchor="middle" fill="#8b949e" font-family="ui-monospace,SFMono-Regular,Menlo,monospace">06/09</text><text x="356.51" y="324" font-size="9.5" font-weight="400" text-anchor="middle" fill="#8b949e" font-family="ui-monospace,SFMono-Regular,Menlo,monospace">06/09</text><text x="416.62" y="324" font-size="9.5" font-weight="400" text-anchor="middle" fill="#8b949e" font-family="ui-monospace,SFMono-Regular,Menlo,monospace">06/12</text><text x="476.72" y="324" font-size="9.5" font-weight="400" text-anchor="middle" fill="#8b949e" font-family="ui-monospace,SFMono-Regular,Menlo,monospace">06/14</text><text x="536.82" y="324" font-size="9.5" font-weight="400" text-anchor="middle" fill="#8b949e" font-family="ui-monospace,SFMono-Regular,Menlo,monospace">06/14</text><text x="596.92" y="324" font-size="9.5" font-weight="400" text-anchor="middle" fill="#8b949e" font-family="ui-monospace,SFMono-Regular,Menlo,monospace">06/15</text><text x="642" y="324" font-size="9.5" font-weight="400" text-anchor="middle" fill="#8b949e" font-family="ui-monospace,SFMono-Regular,Menlo,monospace">06/16</text><polyline fill="none" stroke="#6366F1" stroke-width="2.4" stroke-linejoin="round" stroke-linecap="round" points="176.21,293.36 191.23,293.43 206.26,294.1 221.28,292.89 236.31,293.14 251.33,287.31 266.36,294.31 281.38,291.77 296.41,291.82 311.44,291.36 326.46,293.02 341.49,291.8 356.51,288.55 371.54,292.06 386.56,288.85 401.59,294.29 416.62,292.11 431.64,288.48 446.67,285.75 461.69,292.13 476.72,291.04 491.74,293.66 506.77,290.08 521.79,286.94 536.82,292.77 551.85,291.68 566.87,292.47 581.9,291.27 611.95,290.7 626.97,292.91 642,293.34"></polyline><circle cx="176.21" cy="293.36" r="2.6" fill="#6366F1"></circle><circle cx="191.23" cy="293.43" r="2.6" fill="#6366F1"></circle><circle cx="206.26" cy="294.1" r="2.6" fill="#6366F1"></circle><circle cx="221.28" cy="292.89" r="2.6" fill="#6366F1"></circle><circle cx="236.31" cy="293.14" r="2.6" fill="#6366F1"></circle><circle cx="251.33" cy="287.31" r="2.6" fill="#6366F1"></circle><circle cx="266.36" cy="294.31" r="2.6" fill="#6366F1"></circle><circle cx="281.38" cy="291.77" r="2.6" fill="#6366F1"></circle><circle cx="296.41" cy="291.82" r="2.6" fill="#6366F1"></circle><circle cx="311.44" cy="291.36" r="2.6" fill="#6366F1"></circle><circle cx="326.46" cy="293.02" r="2.6" fill="#6366F1"></circle><circle cx="341.49" cy="291.8" r="2.6" fill="#6366F1"></circle><circle cx="356.51" cy="288.55" r="2.6" fill="#6366F1"></circle><circle cx="371.54" cy="292.06" r="2.6" fill="#6366F1"></circle><circle cx="386.56" cy="288.85" r="2.6" fill="#6366F1"></circle><circle cx="401.59" cy="294.29" r="2.6" fill="#6366F1"></circle><circle cx="416.62" cy="292.11" r="2.6" fill="#6366F1"></circle><circle cx="431.64" cy="288.48" r="2.6" fill="#6366F1"></circle><circle cx="446.67" cy="285.75" r="2.6" fill="#6366F1"></circle><circle cx="461.69" cy="292.13" r="2.6" fill="#6366F1"></circle><circle cx="476.72" cy="291.04" r="2.6" fill="#6366F1"></circle><circle cx="491.74" cy="293.66" r="2.6" fill="#6366F1"></circle><circle cx="506.77" cy="290.08" r="2.6" fill="#6366F1"></circle><circle cx="521.79" cy="286.94" r="2.6" fill="#6366F1"></circle><circle cx="536.82" cy="292.77" r="2.6" fill="#6366F1"></circle><circle cx="551.85" cy="291.68" r="2.6" fill="#6366F1"></circle><circle cx="566.87" cy="292.47" r="2.6" fill="#6366F1"></circle><circle cx="581.9" cy="291.27" r="2.6" fill="#6366F1"></circle><circle cx="611.95" cy="290.7" r="2.6" fill="#6366F1"></circle><circle cx="626.97" cy="292.91" r="2.6" fill="#6366F1"></circle><circle cx="642" cy="293.34" r="2.6" fill="#6366F1"></circle><polyline fill="none" stroke="#A371F7" stroke-width="2.4" stroke-linejoin="round" stroke-linecap="round" points="56,234.02 71.03,244.52 86.05,248 101.08,231.43 116.1,238.89 131.13,249.23 146.15,244.46 161.18,237.54 176.21,240.86 191.23,247.44 206.26,240.79 221.28,238.23 236.31,242.67 251.33,225.79 266.36,243.99 281.38,238.04 296.41,246.87 311.44,247.42 326.46,226.74 341.49,239.47 356.51,211.96 371.54,246.23 386.56,249.04 401.59,237.01 416.62,234.98 431.64,238.5 446.67,240.35 461.69,237.84 476.72,246.71 491.74,242.24 506.77,238.34 521.79,244.61 536.82,248.91 551.85,226.53 566.87,244.07 581.9,245.89 611.95,225.3 626.97,246.26 642,237.6"></polyline><circle cx="56" cy="234.02" r="2.6" fill="#A371F7"></circle><circle cx="71.03" cy="244.52" r="2.6" fill="#A371F7"></circle><circle cx="86.05" cy="248" r="2.6" fill="#A371F7"></circle><circle cx="101.08" cy="231.43" r="2.6" fill="#A371F7"></circle><circle cx="116.1" cy="238.89" r="2.6" fill="#A371F7"></circle><circle cx="131.13" cy="249.23" r="2.6" fill="#A371F7"></circle><circle cx="146.15" cy="244.46" r="2.6" fill="#A371F7"></circle><circle cx="161.18" cy="237.54" r="2.6" fill="#A371F7"></circle><circle cx="176.21" cy="240.86" r="2.6" fill="#A371F7"></circle><circle cx="191.23" cy="247.44" r="2.6" fill="#A371F7"></circle><circle cx="206.26" cy="240.79" r="2.6" fill="#A371F7"></circle><circle cx="221.28" cy="238.23" r="2.6" fill="#A371F7"></circle><circle cx="236.31" cy="242.67" r="2.6" fill="#A371F7"></circle><circle cx="251.33" cy="225.79" r="2.6" fill="#A371F7"></circle><circle cx="266.36" cy="243.99" r="2.6" fill="#A371F7"></circle><circle cx="281.38" cy="238.04" r="2.6" fill="#A371F7"></circle><circle cx="296.41" cy="246.87" r="2.6" fill="#A371F7"></circle><circle cx="311.44" cy="247.42" r="2.6" fill="#A371F7"></circle><circle cx="326.46" cy="226.74" r="2.6" fill="#A371F7"></circle><circle cx="341.49" cy="239.47" r="2.6" fill="#A371F7"></circle><circle cx="356.51" cy="211.96" r="2.6" fill="#A371F7"></circle><circle cx="371.54" cy="246.23" r="2.6" fill="#A371F7"></circle><circle cx="386.56" cy="249.04" r="2.6" fill="#A371F7"></circle><circle cx="401.59" cy="237.01" r="2.6" fill="#A371F7"></circle><circle cx="416.62" cy="234.98" r="2.6" fill="#A371F7"></circle><circle cx="431.64" cy="238.5" r="2.6" fill="#A371F7"></circle><circle cx="446.67" cy="240.35" r="2.6" fill="#A371F7"></circle><circle cx="461.69" cy="237.84" r="2.6" fill="#A371F7"></circle><circle cx="476.72" cy="246.71" r="2.6" fill="#A371F7"></circle><circle cx="491.74" cy="242.24" r="2.6" fill="#A371F7"></circle><circle cx="506.77" cy="238.34" r="2.6" fill="#A371F7"></circle><circle cx="521.79" cy="244.61" r="2.6" fill="#A371F7"></circle><circle cx="536.82" cy="248.91" r="2.6" fill="#A371F7"></circle><circle cx="551.85" cy="226.53" r="2.6" fill="#A371F7"></circle><circle cx="566.87" cy="244.07" r="2.6" fill="#A371F7"></circle><circle cx="581.9" cy="245.89" r="2.6" fill="#A371F7"></circle><circle cx="611.95" cy="225.3" r="2.6" fill="#A371F7"></circle><circle cx="626.97" cy="246.26" r="2.6" fill="#A371F7"></circle><circle cx="642" cy="237.6" r="2.6" fill="#A371F7"></circle><polyline fill="none" stroke="#F0A23B" stroke-width="2.4" stroke-linejoin="round" stroke-linecap="round" points="56,176.15 71.03,166.37 86.05,95.06 101.08,183.78 116.1,178.88 131.13,182.02 146.15,170.24 161.18,169.9 176.21,166.14 191.23,173.66 206.26,166.11 221.28,167.02 236.31,169.09 251.33,176.53 266.36,161.02 281.38,174.97 296.41,168.38 311.44,173 326.46,185.38 341.49,176.24 356.51,181.63 371.54,178.09 386.56,118.27 401.59,178.67 416.62,180.72 431.64,177.62 446.67,179.5 461.69,151.31 476.72,176.94 491.74,159.91 506.77,179.22 521.79,151.49 536.82,180.65 551.85,179.71 566.87,79.16 581.9,99.74 596.92,178.4 611.95,180.3 626.97,180.24 642,176.88"></polyline><circle cx="56" cy="176.15" r="2.6" fill="#F0A23B"></circle><circle cx="71.03" cy="166.37" r="2.6" fill="#F0A23B"></circle><circle cx="86.05" cy="95.06" r="2.6" fill="#F0A23B"></circle><circle cx="101.08" cy="183.78" r="2.6" fill="#F0A23B"></circle><circle cx="116.1" cy="178.88" r="2.6" fill="#F0A23B"></circle><circle cx="131.13" cy="182.02" r="2.6" fill="#F0A23B"></circle><circle cx="146.15" cy="170.24" r="2.6" fill="#F0A23B"></circle><circle cx="161.18" cy="169.9" r="2.6" fill="#F0A23B"></circle><circle cx="176.21" cy="166.14" r="2.6" fill="#F0A23B"></circle><circle cx="191.23" cy="173.66" r="2.6" fill="#F0A23B"></circle><circle cx="206.26" cy="166.11" r="2.6" fill="#F0A23B"></circle><circle cx="221.28" cy="167.02" r="2.6" fill="#F0A23B"></circle><circle cx="236.31" cy="169.09" r="2.6" fill="#F0A23B"></circle><circle cx="251.33" cy="176.53" r="2.6" fill="#F0A23B"></circle><circle cx="266.36" cy="161.02" r="2.6" fill="#F0A23B"></circle><circle cx="281.38" cy="174.97" r="2.6" fill="#F0A23B"></circle><circle cx="296.41" cy="168.38" r="2.6" fill="#F0A23B"></circle><circle cx="311.44" cy="173" r="2.6" fill="#F0A23B"></circle><circle cx="326.46" cy="185.38" r="2.6" fill="#F0A23B"></circle><circle cx="341.49" cy="176.24" r="2.6" fill="#F0A23B"></circle><circle cx="356.51" cy="181.63" r="2.6" fill="#F0A23B"></circle><circle cx="371.54" cy="178.09" r="2.6" fill="#F0A23B"></circle><circle cx="386.56" cy="118.27" r="2.6" fill="#F0A23B"></circle><circle cx="401.59" cy="178.67" r="2.6" fill="#F0A23B"></circle><circle cx="416.62" cy="180.72" r="2.6" fill="#F0A23B"></circle><circle cx="431.64" cy="177.62" r="2.6" fill="#F0A23B"></circle><circle cx="446.67" cy="179.5" r="2.6" fill="#F0A23B"></circle><circle cx="461.69" cy="151.31" r="2.6" fill="#F0A23B"></circle><circle cx="476.72" cy="176.94" r="2.6" fill="#F0A23B"></circle><circle cx="491.74" cy="159.91" r="2.6" fill="#F0A23B"></circle><circle cx="506.77" cy="179.22" r="2.6" fill="#F0A23B"></circle><circle cx="521.79" cy="151.49" r="2.6" fill="#F0A23B"></circle><circle cx="536.82" cy="180.65" r="2.6" fill="#F0A23B"></circle><circle cx="551.85" cy="179.71" r="2.6" fill="#F0A23B"></circle><circle cx="566.87" cy="79.16" r="2.6" fill="#F0A23B"></circle><circle cx="581.9" cy="99.74" r="2.6" fill="#F0A23B"></circle><circle cx="596.92" cy="178.4" r="2.6" fill="#F0A23B"></circle><circle cx="611.95" cy="180.3" r="2.6" fill="#F0A23B"></circle><circle cx="626.97" cy="180.24" r="2.6" fill="#F0A23B"></circle><circle cx="642" cy="176.88" r="2.6" fill="#F0A23B"></circle><polyline fill="none" stroke="#1F9CF0" stroke-width="2.4" stroke-linejoin="round" stroke-linecap="round" points="56,175.5 71.03,176.2 86.05,132.71 101.08,178.27 116.1,172 131.13,174.38 146.15,174.4 161.18,170.88 176.21,173.93 191.23,173.54 206.26,100.75 221.28,168.69 236.31,173.59 251.33,174.01 266.36,167.31 281.38,117.5 296.41,166.02 311.44,174.07 326.46,141.6 341.49,169.05 356.51,167.14 371.54,174.48 386.56,150.94 401.59,171.01 416.62,52.43 431.64,157.26 446.67,171.51 461.69,136.29 476.72,169.79 491.74,106.45 506.77,170.47 521.79,175.76 536.82,174.01 551.85,174.06 566.87,151.2 581.9,173.78 596.92,169.88 611.95,177.61 626.97,137.18 642,114.15"></polyline><circle cx="56" cy="175.5" r="2.6" fill="#1F9CF0"></circle><circle cx="71.03" cy="176.2" r="2.6" fill="#1F9CF0"></circle><circle cx="86.05" cy="132.71" r="2.6" fill="#1F9CF0"></circle><circle cx="101.08" cy="178.27" r="2.6" fill="#1F9CF0"></circle><circle cx="116.1" cy="172" r="2.6" fill="#1F9CF0"></circle><circle cx="131.13" cy="174.38" r="2.6" fill="#1F9CF0"></circle><circle cx="146.15" cy="174.4" r="2.6" fill="#1F9CF0"></circle><circle cx="161.18" cy="170.88" r="2.6" fill="#1F9CF0"></circle><circle cx="176.21" cy="173.93" r="2.6" fill="#1F9CF0"></circle><circle cx="191.23" cy="173.54" r="2.6" fill="#1F9CF0"></circle><circle cx="206.26" cy="100.75" r="2.6" fill="#1F9CF0"></circle><circle cx="221.28" cy="168.69" r="2.6" fill="#1F9CF0"></circle><circle cx="236.31" cy="173.59" r="2.6" fill="#1F9CF0"></circle><circle cx="251.33" cy="174.01" r="2.6" fill="#1F9CF0"></circle><circle cx="266.36" cy="167.31" r="2.6" fill="#1F9CF0"></circle><circle cx="281.38" cy="117.5" r="2.6" fill="#1F9CF0"></circle><circle cx="296.41" cy="166.02" r="2.6" fill="#1F9CF0"></circle><circle cx="311.44" cy="174.07" r="2.6" fill="#1F9CF0"></circle><circle cx="326.46" cy="141.6" r="2.6" fill="#1F9CF0"></circle><circle cx="341.49" cy="169.05" r="2.6" fill="#1F9CF0"></circle><circle cx="356.51" cy="167.14" r="2.6" fill="#1F9CF0"></circle><circle cx="371.54" cy="174.48" r="2.6" fill="#1F9CF0"></circle><circle cx="386.56" cy="150.94" r="2.6" fill="#1F9CF0"></circle><circle cx="401.59" cy="171.01" r="2.6" fill="#1F9CF0"></circle><circle cx="416.62" cy="52.43" r="2.6" fill="#1F9CF0"></circle><circle cx="431.64" cy="157.26" r="2.6" fill="#1F9CF0"></circle><circle cx="446.67" cy="171.51" r="2.6" fill="#1F9CF0"></circle><circle cx="461.69" cy="136.29" r="2.6" fill="#1F9CF0"></circle><circle cx="476.72" cy="169.79" r="2.6" fill="#1F9CF0"></circle><circle cx="491.74" cy="106.45" r="2.6" fill="#1F9CF0"></circle><circle cx="506.77" cy="170.47" r="2.6" fill="#1F9CF0"></circle><circle cx="521.79" cy="175.76" r="2.6" fill="#1F9CF0"></circle><circle cx="536.82" cy="174.01" r="2.6" fill="#1F9CF0"></circle><circle cx="551.85" cy="174.06" r="2.6" fill="#1F9CF0"></circle><circle cx="566.87" cy="151.2" r="2.6" fill="#1F9CF0"></circle><circle cx="581.9" cy="173.78" r="2.6" fill="#1F9CF0"></circle><circle cx="596.92" cy="169.88" r="2.6" fill="#1F9CF0"></circle><circle cx="611.95" cy="177.61" r="2.6" fill="#1F9CF0"></circle><circle cx="626.97" cy="137.18" r="2.6" fill="#1F9CF0"></circle><circle cx="642" cy="114.15" r="2.6" fill="#1F9CF0"></circle><line x1="656" y1="27" x2="672" y2="27" stroke="#6366F1" stroke-width="3" stroke-linecap="round"></line><text x="678" y="30" font-size="11" font-weight="400" text-anchor="start" fill="#e6edf3">deepseek</text><line x1="656" y1="47" x2="672" y2="47" stroke="#A371F7" stroke-width="3" stroke-linecap="round"></line><text x="678" y="50" font-size="11" font-weight="400" text-anchor="start" fill="#e6edf3">llama</text><line x1="656" y1="67" x2="672" y2="67" stroke="#F0A23B" stroke-width="3" stroke-linecap="round"></line><text x="678" y="70" font-size="11" font-weight="400" text-anchor="start" fill="#e6edf3">mistral</text><line x1="656" y1="87" x2="672" y2="87" stroke="#1F9CF0" stroke-width="3" stroke-linecap="round"></line><text x="678" y="90" font-size="11" font-weight="400" text-anchor="start" fill="#e6edf3">openai</text></svg>
