<svg xmlns="http://www.w3.org/2000/svg" viewBox="0 0 760 348" width="760" height="348" role="img" aria-label="Cost per test by provider over runs — openai highest, deepseek lowest" font-family="-apple-system,BlinkMacSystemFont,'Segoe UI',system-ui,sans-serif"><line x1="56" y1="306" x2="642" y2="306" stroke="#d8dee4" stroke-width="1"></line><text x="46" y="310" font-size="9.5" font-weight="400" text-anchor="end" fill="#656d76" font-family="ui-monospace,SFMono-Regular,Menlo,monospace">$0.000</text><line x1="56" y1="235" x2="642" y2="235" stroke="#d8dee4" stroke-width="1"></line><text x="46" y="239" font-size="9.5" font-weight="400" text-anchor="end" fill="#656d76" font-family="ui-monospace,SFMono-Regular,Menlo,monospace">$0.044</text><line x1="56" y1="164" x2="642" y2="164" stroke="#d8dee4" stroke-width="1"></line><text x="46" y="168" font-size="9.5" font-weight="400" text-anchor="end" fill="#656d76" font-family="ui-monospace,SFMono-Regular,Menlo,monospace">$0.087</text><line x1="56" y1="93" x2="642" y2="93" stroke="#d8dee4" stroke-width="1"></line><text x="46" y="97" font-size="9.5" font-weight="400" text-anchor="end" fill="#656d76" font-family="ui-monospace,SFMono-Regular,Menlo,monospace">$0.131</text><line x1="56" y1="22" x2="642" y2="22" stroke="#d8dee4" stroke-width="1"></line><text x="46" y="26" font-size="9.5" font-weight="400" text-anchor="end" fill="#656d76" font-family="ui-monospace,SFMono-Regular,Menlo,monospace">$0.175</text><text x="56" y="324" font-size="9.5" font-weight="400" text-anchor="middle" fill="#656d76" font-family="ui-monospace,SFMono-Regular,Menlo,monospace">06/06</text><text x="107.4" y="324" font-size="9.5" font-weight="400" text-anchor="middle" fill="#656d76" font-family="ui-monospace,SFMono-Regular,Menlo,monospace">06/07</text><text x="158.81" y="324" font-size="9.5" font-weight="400" text-anchor="middle" fill="#656d76" font-family="ui-monospace,SFMono-Regular,Menlo,monospace">06/08</text><text x="210.21" y="324" font-size="9.5" font-weight="400" text-anchor="middle" fill="#656d76" font-family="ui-monospace,SFMono-Regular,Menlo,monospace">06/09</text><text x="261.61" y="324" font-size="9.5" font-weight="400" text-anchor="middle" fill="#656d76" font-family="ui-monospace,SFMono-Regular,Menlo,monospace">06/09</text><text x="313.02" y="324" font-size="9.5" font-weight="400" text-anchor="middle" fill="#656d76" font-family="ui-monospace,SFMono-Regular,Menlo,monospace">06/12</text><text x="364.42" y="324" font-size="9.5" font-weight="400" text-anchor="middle" fill="#656d76" font-family="ui-monospace,SFMono-Regular,Menlo,monospace">06/14</text><text x="415.82" y="324" font-size="9.5" font-weight="400" text-anchor="middle" fill="#656d76" font-family="ui-monospace,SFMono-Regular,Menlo,monospace">06/15</text><text x="467.23" y="324" font-size="9.5" font-weight="400" text-anchor="middle" fill="#656d76" font-family="ui-monospace,SFMono-Regular,Menlo,monospace">06/16</text><text x="518.63" y="324" font-size="9.5" font-weight="400" text-anchor="middle" fill="#656d76" font-family="ui-monospace,SFMono-Regular,Menlo,monospace">06/17</text><text x="570.04" y="324" font-size="9.5" font-weight="400" text-anchor="middle" fill="#656d76" font-family="ui-monospace,SFMono-Regular,Menlo,monospace">06/18</text><text x="621.44" y="324" font-size="9.5" font-weight="400" text-anchor="middle" fill="#656d76" font-family="ui-monospace,SFMono-Regular,Menlo,monospace">06/20</text><text x="642" y="324" font-size="9.5" font-weight="400" text-anchor="middle" fill="#656d76" font-family="ui-monospace,SFMono-Regular,Menlo,monospace">06/20</text><polyline fill="none" stroke="#6366F1" stroke-width="2.4" stroke-linejoin="round" stroke-linecap="round" points="138.25,293.36 148.53,293.43 158.81,294.1 169.09,292.89 179.37,293.14 189.65,287.31 199.93,294.31 210.21,291.77 220.49,291.82 230.77,291.36 241.05,293.02 251.33,291.8 261.61,288.55 271.89,292.06 282.18,288.85 292.46,294.29 302.74,292.11 313.02,288.48 323.3,285.75 333.58,292.13 343.86,291.04 354.14,293.66 364.42,290.08 374.7,286.94 384.98,292.77 395.26,291.68 405.54,292.47 415.82,291.27 436.39,290.7 446.67,292.91 456.95,293.34 467.23,290.78 477.51,290.99 487.79,291.6 498.07,292.29 508.35,292.81 518.63,293.37 539.19,293.66 549.47,293.82 559.75,292.24 570.04,291.11 580.32,291.02 590.6,284.88 600.88,291.48 611.16,288.67 621.44,290.47 631.72,288.84 642,291.75"></polyline><circle cx="138.25" cy="293.36" r="2.6" fill="#6366F1"></circle><circle cx="148.53" cy="293.43" r="2.6" fill="#6366F1"></circle><circle cx="158.81" cy="294.1" r="2.6" fill="#6366F1"></circle><circle cx="169.09" cy="292.89" r="2.6" fill="#6366F1"></circle><circle cx="179.37" cy="293.14" r="2.6" fill="#6366F1"></circle><circle cx="189.65" cy="287.31" r="2.6" fill="#6366F1"></circle><circle cx="199.93" cy="294.31" r="2.6" fill="#6366F1"></circle><circle cx="210.21" cy="291.77" r="2.6" fill="#6366F1"></circle><circle cx="220.49" cy="291.82" r="2.6" fill="#6366F1"></circle><circle cx="230.77" cy="291.36" r="2.6" fill="#6366F1"></circle><circle cx="241.05" cy="293.02" r="2.6" fill="#6366F1"></circle><circle cx="251.33" cy="291.8" r="2.6" fill="#6366F1"></circle><circle cx="261.61" cy="288.55" r="2.6" fill="#6366F1"></circle><circle cx="271.89" cy="292.06" r="2.6" fill="#6366F1"></circle><circle cx="282.18" cy="288.85" r="2.6" fill="#6366F1"></circle><circle cx="292.46" cy="294.29" r="2.6" fill="#6366F1"></circle><circle cx="302.74" cy="292.11" r="2.6" fill="#6366F1"></circle><circle cx="313.02" cy="288.48" r="2.6" fill="#6366F1"></circle><circle cx="323.3" cy="285.75" r="2.6" fill="#6366F1"></circle><circle cx="333.58" cy="292.13" r="2.6" fill="#6366F1"></circle><circle cx="343.86" cy="291.04" r="2.6" fill="#6366F1"></circle><circle cx="354.14" cy="293.66" r="2.6" fill="#6366F1"></circle><circle cx="364.42" cy="290.08" r="2.6" fill="#6366F1"></circle><circle cx="374.7" cy="286.94" r="2.6" fill="#6366F1"></circle><circle cx="384.98" cy="292.77" r="2.6" fill="#6366F1"></circle><circle cx="395.26" cy="291.68" r="2.6" fill="#6366F1"></circle><circle cx="405.54" cy="292.47" r="2.6" fill="#6366F1"></circle><circle cx="415.82" cy="291.27" r="2.6" fill="#6366F1"></circle><circle cx="436.39" cy="290.7" r="2.6" fill="#6366F1"></circle><circle cx="446.67" cy="292.91" r="2.6" fill="#6366F1"></circle><circle cx="456.95" cy="293.34" r="2.6" fill="#6366F1"></circle><circle cx="467.23" cy="290.78" r="2.6" fill="#6366F1"></circle><circle cx="477.51" cy="290.99" r="2.6" fill="#6366F1"></circle><circle cx="487.79" cy="291.6" r="2.6" fill="#6366F1"></circle><circle cx="498.07" cy="292.29" r="2.6" fill="#6366F1"></circle><circle cx="508.35" cy="292.81" r="2.6" fill="#6366F1"></circle><circle cx="518.63" cy="293.37" r="2.6" fill="#6366F1"></circle><circle cx="539.19" cy="293.66" r="2.6" fill="#6366F1"></circle><circle cx="549.47" cy="293.82" r="2.6" fill="#6366F1"></circle><circle cx="559.75" cy="292.24" r="2.6" fill="#6366F1"></circle><circle cx="570.04" cy="291.11" r="2.6" fill="#6366F1"></circle><circle cx="580.32" cy="291.02" r="2.6" fill="#6366F1"></circle><circle cx="590.6" cy="284.88" r="2.6" fill="#6366F1"></circle><circle cx="600.88" cy="291.48" r="2.6" fill="#6366F1"></circle><circle cx="611.16" cy="288.67" r="2.6" fill="#6366F1"></circle><circle cx="621.44" cy="290.47" r="2.6" fill="#6366F1"></circle><circle cx="631.72" cy="288.84" r="2.6" fill="#6366F1"></circle><circle cx="642" cy="291.75" r="2.6" fill="#6366F1"></circle><polyline fill="none" stroke="#A371F7" stroke-width="2.4" stroke-linejoin="round" stroke-linecap="round" points="56,234.02 66.28,244.52 76.56,248 86.84,231.43 97.12,238.89 107.4,249.23 117.68,244.46 127.96,237.54 138.25,240.86 148.53,247.44 158.81,240.79 169.09,238.23 179.37,242.67 189.65,225.79 199.93,243.99 210.21,238.04 220.49,246.87 230.77,247.42 241.05,226.74 251.33,239.47 261.61,211.96 271.89,246.23 282.18,249.04 292.46,237.01 302.74,234.98 313.02,238.5 323.3,240.35 333.58,237.84 343.86,246.71 354.14,242.24 364.42,238.34 374.7,244.61 384.98,248.91 395.26,226.53 405.54,244.07 415.82,245.89 436.39,225.3 446.67,246.26 456.95,237.6 477.51,238.19 487.79,247.14 498.07,247.58 508.35,243.98 518.63,241.42 528.91,243.75 539.19,244.26 549.47,242.78 559.75,233.78 570.04,238.08 580.32,239.3 590.6,245.03 600.88,240.96 611.16,244.05 621.44,243 642,244.69"></polyline><circle cx="56" cy="234.02" r="2.6" fill="#A371F7"></circle><circle cx="66.28" cy="244.52" r="2.6" fill="#A371F7"></circle><circle cx="76.56" cy="248" r="2.6" fill="#A371F7"></circle><circle cx="86.84" cy="231.43" r="2.6" fill="#A371F7"></circle><circle cx="97.12" cy="238.89" r="2.6" fill="#A371F7"></circle><circle cx="107.4" cy="249.23" r="2.6" fill="#A371F7"></circle><circle cx="117.68" cy="244.46" r="2.6" fill="#A371F7"></circle><circle cx="127.96" cy="237.54" r="2.6" fill="#A371F7"></circle><circle cx="138.25" cy="240.86" r="2.6" fill="#A371F7"></circle><circle cx="148.53" cy="247.44" r="2.6" fill="#A371F7"></circle><circle cx="158.81" cy="240.79" r="2.6" fill="#A371F7"></circle><circle cx="169.09" cy="238.23" r="2.6" fill="#A371F7"></circle><circle cx="179.37" cy="242.67" r="2.6" fill="#A371F7"></circle><circle cx="189.65" cy="225.79" r="2.6" fill="#A371F7"></circle><circle cx="199.93" cy="243.99" r="2.6" fill="#A371F7"></circle><circle cx="210.21" cy="238.04" r="2.6" fill="#A371F7"></circle><circle cx="220.49" cy="246.87" r="2.6" fill="#A371F7"></circle><circle cx="230.77" cy="247.42" r="2.6" fill="#A371F7"></circle><circle cx="241.05" cy="226.74" r="2.6" fill="#A371F7"></circle><circle cx="251.33" cy="239.47" r="2.6" fill="#A371F7"></circle><circle cx="261.61" cy="211.96" r="2.6" fill="#A371F7"></circle><circle cx="271.89" cy="246.23" r="2.6" fill="#A371F7"></circle><circle cx="282.18" cy="249.04" r="2.6" fill="#A371F7"></circle><circle cx="292.46" cy="237.01" r="2.6" fill="#A371F7"></circle><circle cx="302.74" cy="234.98" r="2.6" fill="#A371F7"></circle><circle cx="313.02" cy="238.5" r="2.6" fill="#A371F7"></circle><circle cx="323.3" cy="240.35" r="2.6" fill="#A371F7"></circle><circle cx="333.58" cy="237.84" r="2.6" fill="#A371F7"></circle><circle cx="343.86" cy="246.71" r="2.6" fill="#A371F7"></circle><circle cx="354.14" cy="242.24" r="2.6" fill="#A371F7"></circle><circle cx="364.42" cy="238.34" r="2.6" fill="#A371F7"></circle><circle cx="374.7" cy="244.61" r="2.6" fill="#A371F7"></circle><circle cx="384.98" cy="248.91" r="2.6" fill="#A371F7"></circle><circle cx="395.26" cy="226.53" r="2.6" fill="#A371F7"></circle><circle cx="405.54" cy="244.07" r="2.6" fill="#A371F7"></circle><circle cx="415.82" cy="245.89" r="2.6" fill="#A371F7"></circle><circle cx="436.39" cy="225.3" r="2.6" fill="#A371F7"></circle><circle cx="446.67" cy="246.26" r="2.6" fill="#A371F7"></circle><circle cx="456.95" cy="237.6" r="2.6" fill="#A371F7"></circle><circle cx="477.51" cy="238.19" r="2.6" fill="#A371F7"></circle><circle cx="487.79" cy="247.14" r="2.6" fill="#A371F7"></circle><circle cx="498.07" cy="247.58" r="2.6" fill="#A371F7"></circle><circle cx="508.35" cy="243.98" r="2.6" fill="#A371F7"></circle><circle cx="518.63" cy="241.42" r="2.6" fill="#A371F7"></circle><circle cx="528.91" cy="243.75" r="2.6" fill="#A371F7"></circle><circle cx="539.19" cy="244.26" r="2.6" fill="#A371F7"></circle><circle cx="549.47" cy="242.78" r="2.6" fill="#A371F7"></circle><circle cx="559.75" cy="233.78" r="2.6" fill="#A371F7"></circle><circle cx="570.04" cy="238.08" r="2.6" fill="#A371F7"></circle><circle cx="580.32" cy="239.3" r="2.6" fill="#A371F7"></circle><circle cx="590.6" cy="245.03" r="2.6" fill="#A371F7"></circle><circle cx="600.88" cy="240.96" r="2.6" fill="#A371F7"></circle><circle cx="611.16" cy="244.05" r="2.6" fill="#A371F7"></circle><circle cx="621.44" cy="243" r="2.6" fill="#A371F7"></circle><circle cx="642" cy="244.69" r="2.6" fill="#A371F7"></circle><polyline fill="none" stroke="#F0A23B" stroke-width="2.4" stroke-linejoin="round" stroke-linecap="round" points="56,176.15 66.28,166.37 76.56,95.06 86.84,183.78 97.12,178.88 107.4,182.02 117.68,170.24 127.96,169.9 138.25,166.14 148.53,173.66 158.81,166.11 169.09,167.02 179.37,169.09 189.65,176.53 199.93,161.02 210.21,174.97 220.49,168.38 230.77,173 241.05,185.38 251.33,176.24 261.61,181.63 271.89,178.09 282.18,118.27 292.46,178.67 302.74,180.72 313.02,177.62 323.3,179.5 333.58,151.31 343.86,176.94 354.14,159.91 364.42,179.22 374.7,151.49 384.98,180.65 395.26,179.71 405.54,79.16 415.82,99.74 426.11,178.4 436.39,180.3 446.67,180.24 456.95,176.88 467.23,178.65 477.51,183.45 487.79,182.56 498.07,133.59 508.35,178.99 518.63,179.14 528.91,119.51 539.19,175.85 549.47,154.88 559.75,181.28 570.04,178.3 580.32,178.34 590.6,151.77 600.88,137.32 611.16,181.99 621.44,180.58 631.72,182.99 642,178.09"></polyline><circle cx="56" cy="176.15" r="2.6" fill="#F0A23B"></circle><circle cx="66.28" cy="166.37" r="2.6" fill="#F0A23B"></circle><circle cx="76.56" cy="95.06" r="2.6" fill="#F0A23B"></circle><circle cx="86.84" cy="183.78" r="2.6" fill="#F0A23B"></circle><circle cx="97.12" cy="178.88" r="2.6" fill="#F0A23B"></circle><circle cx="107.4" cy="182.02" r="2.6" fill="#F0A23B"></circle><circle cx="117.68" cy="170.24" r="2.6" fill="#F0A23B"></circle><circle cx="127.96" cy="169.9" r="2.6" fill="#F0A23B"></circle><circle cx="138.25" cy="166.14" r="2.6" fill="#F0A23B"></circle><circle cx="148.53" cy="173.66" r="2.6" fill="#F0A23B"></circle><circle cx="158.81" cy="166.11" r="2.6" fill="#F0A23B"></circle><circle cx="169.09" cy="167.02" r="2.6" fill="#F0A23B"></circle><circle cx="179.37" cy="169.09" r="2.6" fill="#F0A23B"></circle><circle cx="189.65" cy="176.53" r="2.6" fill="#F0A23B"></circle><circle cx="199.93" cy="161.02" r="2.6" fill="#F0A23B"></circle><circle cx="210.21" cy="174.97" r="2.6" fill="#F0A23B"></circle><circle cx="220.49" cy="168.38" r="2.6" fill="#F0A23B"></circle><circle cx="230.77" cy="173" r="2.6" fill="#F0A23B"></circle><circle cx="241.05" cy="185.38" r="2.6" fill="#F0A23B"></circle><circle cx="251.33" cy="176.24" r="2.6" fill="#F0A23B"></circle><circle cx="261.61" cy="181.63" r="2.6" fill="#F0A23B"></circle><circle cx="271.89" cy="178.09" r="2.6" fill="#F0A23B"></circle><circle cx="282.18" cy="118.27" r="2.6" fill="#F0A23B"></circle><circle cx="292.46" cy="178.67" r="2.6" fill="#F0A23B"></circle><circle cx="302.74" cy="180.72" r="2.6" fill="#F0A23B"></circle><circle cx="313.02" cy="177.62" r="2.6" fill="#F0A23B"></circle><circle cx="323.3" cy="179.5" r="2.6" fill="#F0A23B"></circle><circle cx="333.58" cy="151.31" r="2.6" fill="#F0A23B"></circle><circle cx="343.86" cy="176.94" r="2.6" fill="#F0A23B"></circle><circle cx="354.14" cy="159.91" r="2.6" fill="#F0A23B"></circle><circle cx="364.42" cy="179.22" r="2.6" fill="#F0A23B"></circle><circle cx="374.7" cy="151.49" r="2.6" fill="#F0A23B"></circle><circle cx="384.98" cy="180.65" r="2.6" fill="#F0A23B"></circle><circle cx="395.26" cy="179.71" r="2.6" fill="#F0A23B"></circle><circle cx="405.54" cy="79.16" r="2.6" fill="#F0A23B"></circle><circle cx="415.82" cy="99.74" r="2.6" fill="#F0A23B"></circle><circle cx="426.11" cy="178.4" r="2.6" fill="#F0A23B"></circle><circle cx="436.39" cy="180.3" r="2.6" fill="#F0A23B"></circle><circle cx="446.67" cy="180.24" r="2.6" fill="#F0A23B"></circle><circle cx="456.95" cy="176.88" r="2.6" fill="#F0A23B"></circle><circle cx="467.23" cy="178.65" r="2.6" fill="#F0A23B"></circle><circle cx="477.51" cy="183.45" r="2.6" fill="#F0A23B"></circle><circle cx="487.79" cy="182.56" r="2.6" fill="#F0A23B"></circle><circle cx="498.07" cy="133.59" r="2.6" fill="#F0A23B"></circle><circle cx="508.35" cy="178.99" r="2.6" fill="#F0A23B"></circle><circle cx="518.63" cy="179.14" r="2.6" fill="#F0A23B"></circle><circle cx="528.91" cy="119.51" r="2.6" fill="#F0A23B"></circle><circle cx="539.19" cy="175.85" r="2.6" fill="#F0A23B"></circle><circle cx="549.47" cy="154.88" r="2.6" fill="#F0A23B"></circle><circle cx="559.75" cy="181.28" r="2.6" fill="#F0A23B"></circle><circle cx="570.04" cy="178.3" r="2.6" fill="#F0A23B"></circle><circle cx="580.32" cy="178.34" r="2.6" fill="#F0A23B"></circle><circle cx="590.6" cy="151.77" r="2.6" fill="#F0A23B"></circle><circle cx="600.88" cy="137.32" r="2.6" fill="#F0A23B"></circle><circle cx="611.16" cy="181.99" r="2.6" fill="#F0A23B"></circle><circle cx="621.44" cy="180.58" r="2.6" fill="#F0A23B"></circle><circle cx="631.72" cy="182.99" r="2.6" fill="#F0A23B"></circle><circle cx="642" cy="178.09" r="2.6" fill="#F0A23B"></circle><polyline fill="none" stroke="#1F9CF0" stroke-width="2.4" stroke-linejoin="round" stroke-linecap="round" points="56,175.5 66.28,176.2 76.56,132.71 86.84,178.27 97.12,172 107.4,174.38 117.68,174.4 127.96,170.88 138.25,173.93 148.53,173.54 158.81,100.75 169.09,168.69 179.37,173.59 189.65,174.01 199.93,167.31 210.21,117.5 220.49,166.02 230.77,174.07 241.05,141.6 251.33,169.05 261.61,167.14 271.89,174.48 282.18,150.94 292.46,171.01 302.74,52.43 313.02,157.26 323.3,171.51 333.58,136.29 343.86,169.79 354.14,106.45 364.42,170.47 374.7,175.76 384.98,174.01 395.26,174.06 405.54,151.2 415.82,173.78 426.11,169.88 436.39,177.61 446.67,137.18 456.95,114.15 467.23,168.74 477.51,168.47 487.79,130.46 498.07,174.44 508.35,175.01 518.63,171.26 528.91,176.81 539.19,171.37 549.47,161.31 559.75,135.44 570.04,169.24 580.32,176.14 590.6,170.75 600.88,171.27 611.16,166.35 621.44,173.15 631.72,132.18 642,168.56"></polyline><circle cx="56" cy="175.5" r="2.6" fill="#1F9CF0"></circle><circle cx="66.28" cy="176.2" r="2.6" fill="#1F9CF0"></circle><circle cx="76.56" cy="132.71" r="2.6" fill="#1F9CF0"></circle><circle cx="86.84" cy="178.27" r="2.6" fill="#1F9CF0"></circle><circle cx="97.12" cy="172" r="2.6" fill="#1F9CF0"></circle><circle cx="107.4" cy="174.38" r="2.6" fill="#1F9CF0"></circle><circle cx="117.68" cy="174.4" r="2.6" fill="#1F9CF0"></circle><circle cx="127.96" cy="170.88" r="2.6" fill="#1F9CF0"></circle><circle cx="138.25" cy="173.93" r="2.6" fill="#1F9CF0"></circle><circle cx="148.53" cy="173.54" r="2.6" fill="#1F9CF0"></circle><circle cx="158.81" cy="100.75" r="2.6" fill="#1F9CF0"></circle><circle cx="169.09" cy="168.69" r="2.6" fill="#1F9CF0"></circle><circle cx="179.37" cy="173.59" r="2.6" fill="#1F9CF0"></circle><circle cx="189.65" cy="174.01" r="2.6" fill="#1F9CF0"></circle><circle cx="199.93" cy="167.31" r="2.6" fill="#1F9CF0"></circle><circle cx="210.21" cy="117.5" r="2.6" fill="#1F9CF0"></circle><circle cx="220.49" cy="166.02" r="2.6" fill="#1F9CF0"></circle><circle cx="230.77" cy="174.07" r="2.6" fill="#1F9CF0"></circle><circle cx="241.05" cy="141.6" r="2.6" fill="#1F9CF0"></circle><circle cx="251.33" cy="169.05" r="2.6" fill="#1F9CF0"></circle><circle cx="261.61" cy="167.14" r="2.6" fill="#1F9CF0"></circle><circle cx="271.89" cy="174.48" r="2.6" fill="#1F9CF0"></circle><circle cx="282.18" cy="150.94" r="2.6" fill="#1F9CF0"></circle><circle cx="292.46" cy="171.01" r="2.6" fill="#1F9CF0"></circle><circle cx="302.74" cy="52.43" r="2.6" fill="#1F9CF0"></circle><circle cx="313.02" cy="157.26" r="2.6" fill="#1F9CF0"></circle><circle cx="323.3" cy="171.51" r="2.6" fill="#1F9CF0"></circle><circle cx="333.58" cy="136.29" r="2.6" fill="#1F9CF0"></circle><circle cx="343.86" cy="169.79" r="2.6" fill="#1F9CF0"></circle><circle cx="354.14" cy="106.45" r="2.6" fill="#1F9CF0"></circle><circle cx="364.42" cy="170.47" r="2.6" fill="#1F9CF0"></circle><circle cx="374.7" cy="175.76" r="2.6" fill="#1F9CF0"></circle><circle cx="384.98" cy="174.01" r="2.6" fill="#1F9CF0"></circle><circle cx="395.26" cy="174.06" r="2.6" fill="#1F9CF0"></circle><circle cx="405.54" cy="151.2" r="2.6" fill="#1F9CF0"></circle><circle cx="415.82" cy="173.78" r="2.6" fill="#1F9CF0"></circle><circle cx="426.11" cy="169.88" r="2.6" fill="#1F9CF0"></circle><circle cx="436.39" cy="177.61" r="2.6" fill="#1F9CF0"></circle><circle cx="446.67" cy="137.18" r="2.6" fill="#1F9CF0"></circle><circle cx="456.95" cy="114.15" r="2.6" fill="#1F9CF0"></circle><circle cx="467.23" cy="168.74" r="2.6" fill="#1F9CF0"></circle><circle cx="477.51" cy="168.47" r="2.6" fill="#1F9CF0"></circle><circle cx="487.79" cy="130.46" r="2.6" fill="#1F9CF0"></circle><circle cx="498.07" cy="174.44" r="2.6" fill="#1F9CF0"></circle><circle cx="508.35" cy="175.01" r="2.6" fill="#1F9CF0"></circle><circle cx="518.63" cy="171.26" r="2.6" fill="#1F9CF0"></circle><circle cx="528.91" cy="176.81" r="2.6" fill="#1F9CF0"></circle><circle cx="539.19" cy="171.37" r="2.6" fill="#1F9CF0"></circle><circle cx="549.47" cy="161.31" r="2.6" fill="#1F9CF0"></circle><circle cx="559.75" cy="135.44" r="2.6" fill="#1F9CF0"></circle><circle cx="570.04" cy="169.24" r="2.6" fill="#1F9CF0"></circle><circle cx="580.32" cy="176.14" r="2.6" fill="#1F9CF0"></circle><circle cx="590.6" cy="170.75" r="2.6" fill="#1F9CF0"></circle><circle cx="600.88" cy="171.27" r="2.6" fill="#1F9CF0"></circle><circle cx="611.16" cy="166.35" r="2.6" fill="#1F9CF0"></circle><circle cx="621.44" cy="173.15" r="2.6" fill="#1F9CF0"></circle><circle cx="631.72" cy="132.18" r="2.6" fill="#1F9CF0"></circle><circle cx="642" cy="168.56" r="2.6" fill="#1F9CF0"></circle><line x1="656" y1="27" x2="672" y2="27" stroke="#6366F1" stroke-width="3" stroke-linecap="round"></line><text x="678" y="30" font-size="11" font-weight="400" text-anchor="start" fill="#1f2328">deepseek</text><line x1="656" y1="47" x2="672" y2="47" stroke="#A371F7" stroke-width="3" stroke-linecap="round"></line><text x="678" y="50" font-size="11" font-weight="400" text-anchor="start" fill="#1f2328">llama</text><line x1="656" y1="67" x2="672" y2="67" stroke="#F0A23B" stroke-width="3" stroke-linecap="round"></line><text x="678" y="70" font-size="11" font-weight="400" text-anchor="start" fill="#1f2328">mistral</text><line x1="656" y1="87" x2="672" y2="87" stroke="#1F9CF0" stroke-width="3" stroke-linecap="round"></line><text x="678" y="90" font-size="11" font-weight="400" text-anchor="start" fill="#1f2328">openai</text></svg>
