<svg xmlns="http://www.w3.org/2000/svg" viewBox="0 0 600 300" width="600" height="300" role="img" aria-label="Cost per test by provider over runs ($)"><text x="300.0" y="24" text-anchor="middle" font-family="system-ui, -apple-system, sans-serif" font-size="14" font-weight="600" fill="#333">Cost per test by provider over runs ($)</text><line x1="60" y1="240.0" x2="480" y2="240.0" stroke="#eee" stroke-width="1"/><text x="54" y="244.0" text-anchor="end" font-family="system-ui, -apple-system, sans-serif" font-size="9" fill="#999">0.007197</text><line x1="60" y1="140.0" x2="480" y2="140.0" stroke="#eee" stroke-width="1"/><text x="54" y="144.0" text-anchor="end" font-family="system-ui, -apple-system, sans-serif" font-size="9" fill="#999">0.06855</text><line x1="60" y1="40.0" x2="480" y2="40.0" stroke="#eee" stroke-width="1"/><text x="54" y="44.0" text-anchor="end" font-family="system-ui, -apple-system, sans-serif" font-size="9" fill="#999">0.1299</text><polyline fill="none" stroke="#4CAF50" stroke-width="2" points="60.0,120.7 79.1,121.4 98.2,77.8 117.3,123.5 136.4,117.2 155.5,119.6 174.5,119.6 193.6,116.1 212.7,119.2 231.8,118.8 250.9,45.7 270.0,113.9 289.1,118.8 308.2,119.2 327.3,112.5 346.4,62.5 365.5,111.2 384.5,119.3 403.6,86.7 422.7,114.3 441.8,112.4 460.9,119.7 480.0,96.1"/><circle cx="60.0" cy="120.7" r="3" fill="#4CAF50"/><circle cx="79.1" cy="121.4" r="3" fill="#4CAF50"/><circle cx="98.2" cy="77.8" r="3" fill="#4CAF50"/><circle cx="117.3" cy="123.5" r="3" fill="#4CAF50"/><circle cx="136.4" cy="117.2" r="3" fill="#4CAF50"/><circle cx="155.5" cy="119.6" r="3" fill="#4CAF50"/><circle cx="174.5" cy="119.6" r="3" fill="#4CAF50"/><circle cx="193.6" cy="116.1" r="3" fill="#4CAF50"/><circle cx="212.7" cy="119.2" r="3" fill="#4CAF50"/><circle cx="231.8" cy="118.8" r="3" fill="#4CAF50"/><circle cx="250.9" cy="45.7" r="3" fill="#4CAF50"/><circle cx="270.0" cy="113.9" r="3" fill="#4CAF50"/><circle cx="289.1" cy="118.8" r="3" fill="#4CAF50"/><circle cx="308.2" cy="119.2" r="3" fill="#4CAF50"/><circle cx="327.3" cy="112.5" r="3" fill="#4CAF50"/><circle cx="346.4" cy="62.5" r="3" fill="#4CAF50"/><circle cx="365.5" cy="111.2" r="3" fill="#4CAF50"/><circle cx="384.5" cy="119.3" r="3" fill="#4CAF50"/><circle cx="403.6" cy="86.7" r="3" fill="#4CAF50"/><circle cx="422.7" cy="114.3" r="3" fill="#4CAF50"/><circle cx="441.8" cy="112.4" r="3" fill="#4CAF50"/><circle cx="460.9" cy="119.7" r="3" fill="#4CAF50"/><circle cx="480.0" cy="96.1" r="3" fill="#4CAF50"/><rect x="490" y="44" width="10" height="10" fill="#4CAF50"/><text x="504" y="53" font-family="system-ui, -apple-system, sans-serif" font-size="10" fill="#333">openai</text><polyline fill="none" stroke="#2196F3" stroke-width="2" points="60.0,122.8 79.1,130.0 98.2,122.3 117.3,125.6 136.4,132.9 155.5,118.1 174.5,125.4 193.6,120.4 212.7,120.4 231.8,119.4 250.9,121.8 270.0,134.7 289.1,133.4 308.2,126.9 327.3,121.0 346.4,121.3 365.5,90.2 384.5,121.1 403.6,87.9 422.7,97.6 441.8,113.2 460.9,107.2 480.0,124.9"/><circle cx="60.0" cy="122.8" r="3" fill="#2196F3"/><circle cx="79.1" cy="130.0" r="3" fill="#2196F3"/><circle cx="98.2" cy="122.3" r="3" fill="#2196F3"/><circle cx="117.3" cy="125.6" r="3" fill="#2196F3"/><circle cx="136.4" cy="132.9" r="3" fill="#2196F3"/><circle cx="155.5" cy="118.1" r="3" fill="#2196F3"/><circle cx="174.5" cy="125.4" r="3" fill="#2196F3"/><circle cx="193.6" cy="120.4" r="3" fill="#2196F3"/><circle cx="212.7" cy="120.4" r="3" fill="#2196F3"/><circle cx="231.8" cy="119.4" r="3" fill="#2196F3"/><circle cx="250.9" cy="121.8" r="3" fill="#2196F3"/><circle cx="270.0" cy="134.7" r="3" fill="#2196F3"/><circle cx="289.1" cy="133.4" r="3" fill="#2196F3"/><circle cx="308.2" cy="126.9" r="3" fill="#2196F3"/><circle cx="327.3" cy="121.0" r="3" fill="#2196F3"/><circle cx="346.4" cy="121.3" r="3" fill="#2196F3"/><circle cx="365.5" cy="90.2" r="3" fill="#2196F3"/><circle cx="384.5" cy="121.1" r="3" fill="#2196F3"/><circle cx="403.6" cy="87.9" r="3" fill="#2196F3"/><circle cx="422.7" cy="97.6" r="3" fill="#2196F3"/><circle cx="441.8" cy="113.2" r="3" fill="#2196F3"/><circle cx="460.9" cy="107.2" r="3" fill="#2196F3"/><circle cx="480.0" cy="124.9" r="3" fill="#2196F3"/><rect x="490" y="62" width="10" height="10" fill="#2196F3"/><text x="504" y="71" font-family="system-ui, -apple-system, sans-serif" font-size="10" fill="#333">gemini</text><polyline fill="none" stroke="#FF9800" stroke-width="2" points="60.0,72.6 79.1,95.7 98.2,100.7 117.3,67.0 136.4,94.9 155.5,46.5 174.5,88.5 193.6,72.3 212.7,81.2 231.8,92.7 250.9,101.3 270.0,87.3 289.1,78.7 308.2,117.6 327.3,98.1 346.4,95.4 365.5,82.5 403.6,84.8 422.7,99.7 441.8,68.3 460.9,103.8 480.0,97.3"/><circle cx="60.0" cy="72.6" r="3" fill="#FF9800"/><circle cx="79.1" cy="95.7" r="3" fill="#FF9800"/><circle cx="98.2" cy="100.7" r="3" fill="#FF9800"/><circle cx="117.3" cy="67.0" r="3" fill="#FF9800"/><circle cx="136.4" cy="94.9" r="3" fill="#FF9800"/><circle cx="155.5" cy="46.5" r="3" fill="#FF9800"/><circle cx="174.5" cy="88.5" r="3" fill="#FF9800"/><circle cx="193.6" cy="72.3" r="3" fill="#FF9800"/><circle cx="212.7" cy="81.2" r="3" fill="#FF9800"/><circle cx="231.8" cy="92.7" r="3" fill="#FF9800"/><circle cx="250.9" cy="101.3" r="3" fill="#FF9800"/><circle cx="270.0" cy="87.3" r="3" fill="#FF9800"/><circle cx="289.1" cy="78.7" r="3" fill="#FF9800"/><circle cx="308.2" cy="117.6" r="3" fill="#FF9800"/><circle cx="327.3" cy="98.1" r="3" fill="#FF9800"/><circle cx="346.4" cy="95.4" r="3" fill="#FF9800"/><circle cx="365.5" cy="82.5" r="3" fill="#FF9800"/><circle cx="403.6" cy="84.8" r="3" fill="#FF9800"/><circle cx="422.7" cy="99.7" r="3" fill="#FF9800"/><circle cx="441.8" cy="68.3" r="3" fill="#FF9800"/><circle cx="460.9" cy="103.8" r="3" fill="#FF9800"/><circle cx="480.0" cy="97.3" r="3" fill="#FF9800"/><rect x="490" y="80" width="10" height="10" fill="#FF9800"/><text x="504" y="89" font-family="system-ui, -apple-system, sans-serif" font-size="10" fill="#333">anthropic</text><polyline fill="none" stroke="#E91E63" stroke-width="2" points="60.0,121.4 79.1,111.6 98.2,40.0 117.3,129.1 136.4,124.1 155.5,127.3 174.5,115.5 193.6,115.1 212.7,111.3 231.8,118.9 250.9,111.3 270.0,112.2 289.1,114.3 308.2,121.8 327.3,106.2 346.4,120.2 365.5,113.6 384.5,118.2 403.6,130.7 422.7,121.5 441.8,126.9 460.9,123.3 480.0,63.3"/><circle cx="60.0" cy="121.4" r="3" fill="#E91E63"/><circle cx="79.1" cy="111.6" r="3" fill="#E91E63"/><circle cx="98.2" cy="40.0" r="3" fill="#E91E63"/><circle cx="117.3" cy="129.1" r="3" fill="#E91E63"/><circle cx="136.4" cy="124.1" r="3" fill="#E91E63"/><circle cx="155.5" cy="127.3" r="3" fill="#E91E63"/><circle cx="174.5" cy="115.5" r="3" fill="#E91E63"/><circle cx="193.6" cy="115.1" r="3" fill="#E91E63"/><circle cx="212.7" cy="111.3" r="3" fill="#E91E63"/><circle cx="231.8" cy="118.9" r="3" fill="#E91E63"/><circle cx="250.9" cy="111.3" r="3" fill="#E91E63"/><circle cx="270.0" cy="112.2" r="3" fill="#E91E63"/><circle cx="289.1" cy="114.3" r="3" fill="#E91E63"/><circle cx="308.2" cy="121.8" r="3" fill="#E91E63"/><circle cx="327.3" cy="106.2" r="3" fill="#E91E63"/><circle cx="346.4" cy="120.2" r="3" fill="#E91E63"/><circle cx="365.5" cy="113.6" r="3" fill="#E91E63"/><circle cx="384.5" cy="118.2" r="3" fill="#E91E63"/><circle cx="403.6" cy="130.7" r="3" fill="#E91E63"/><circle cx="422.7" cy="121.5" r="3" fill="#E91E63"/><circle cx="441.8" cy="126.9" r="3" fill="#E91E63"/><circle cx="460.9" cy="123.3" r="3" fill="#E91E63"/><circle cx="480.0" cy="63.3" r="3" fill="#E91E63"/><rect x="490" y="98" width="10" height="10" fill="#E91E63"/><text x="504" y="107" font-family="system-ui, -apple-system, sans-serif" font-size="10" fill="#333">mistral</text><polyline fill="none" stroke="#9C27B0" stroke-width="2" points="60.0,179.5 79.1,190.0 98.2,193.5 117.3,176.9 136.4,184.4 155.5,194.7 174.5,190.0 193.6,183.0 212.7,186.4 231.8,193.0 250.9,186.3 270.0,183.7 289.1,188.2 308.2,171.2 327.3,189.5 346.4,183.5 365.5,192.4 384.5,192.9 403.6,172.2 422.7,184.9 441.8,157.3 460.9,191.7 480.0,194.6"/><circle cx="60.0" cy="179.5" r="3" fill="#9C27B0"/><circle cx="79.1" cy="190.0" r="3" fill="#9C27B0"/><circle cx="98.2" cy="193.5" r="3" fill="#9C27B0"/><circle cx="117.3" cy="176.9" r="3" fill="#9C27B0"/><circle cx="136.4" cy="184.4" r="3" fill="#9C27B0"/><circle cx="155.5" cy="194.7" r="3" fill="#9C27B0"/><circle cx="174.5" cy="190.0" r="3" fill="#9C27B0"/><circle cx="193.6" cy="183.0" r="3" fill="#9C27B0"/><circle cx="212.7" cy="186.4" r="3" fill="#9C27B0"/><circle cx="231.8" cy="193.0" r="3" fill="#9C27B0"/><circle cx="250.9" cy="186.3" r="3" fill="#9C27B0"/><circle cx="270.0" cy="183.7" r="3" fill="#9C27B0"/><circle cx="289.1" cy="188.2" r="3" fill="#9C27B0"/><circle cx="308.2" cy="171.2" r="3" fill="#9C27B0"/><circle cx="327.3" cy="189.5" r="3" fill="#9C27B0"/><circle cx="346.4" cy="183.5" r="3" fill="#9C27B0"/><circle cx="365.5" cy="192.4" r="3" fill="#9C27B0"/><circle cx="384.5" cy="192.9" r="3" fill="#9C27B0"/><circle cx="403.6" cy="172.2" r="3" fill="#9C27B0"/><circle cx="422.7" cy="184.9" r="3" fill="#9C27B0"/><circle cx="441.8" cy="157.3" r="3" fill="#9C27B0"/><circle cx="460.9" cy="191.7" r="3" fill="#9C27B0"/><circle cx="480.0" cy="194.6" r="3" fill="#9C27B0"/><rect x="490" y="116" width="10" height="10" fill="#9C27B0"/><text x="504" y="125" font-family="system-ui, -apple-system, sans-serif" font-size="10" fill="#333">llama</text><polyline fill="none" stroke="#00BCD4" stroke-width="2" points="212.7,239.0 231.8,239.1 250.9,239.8 270.0,238.6 289.1,238.8 308.2,233.0 327.3,240.0 346.4,237.4 365.5,237.5 384.5,237.0 403.6,238.7 422.7,237.5 441.8,234.2 460.9,237.7 480.0,234.5"/><circle cx="212.7" cy="239.0" r="3" fill="#00BCD4"/><circle cx="231.8" cy="239.1" r="3" fill="#00BCD4"/><circle cx="250.9" cy="239.8" r="3" fill="#00BCD4"/><circle cx="270.0" cy="238.6" r="3" fill="#00BCD4"/><circle cx="289.1" cy="238.8" r="3" fill="#00BCD4"/><circle cx="308.2" cy="233.0" r="3" fill="#00BCD4"/><circle cx="327.3" cy="240.0" r="3" fill="#00BCD4"/><circle cx="346.4" cy="237.4" r="3" fill="#00BCD4"/><circle cx="365.5" cy="237.5" r="3" fill="#00BCD4"/><circle cx="384.5" cy="237.0" r="3" fill="#00BCD4"/><circle cx="403.6" cy="238.7" r="3" fill="#00BCD4"/><circle cx="422.7" cy="237.5" r="3" fill="#00BCD4"/><circle cx="441.8" cy="234.2" r="3" fill="#00BCD4"/><circle cx="460.9" cy="237.7" r="3" fill="#00BCD4"/><circle cx="480.0" cy="234.5" r="3" fill="#00BCD4"/><rect x="490" y="134" width="10" height="10" fill="#00BCD4"/><text x="504" y="143" font-family="system-ui, -apple-system, sans-serif" font-size="10" fill="#333">deepseek</text><text x="60.0" y="256.0" text-anchor="middle" font-family="system-ui, -apple-system, sans-serif" font-size="9" fill="#666">71825113</text><text x="98.2" y="256.0" text-anchor="middle" font-family="system-ui, -apple-system, sans-serif" font-size="9" fill="#666">76301827</text><text x="136.4" y="256.0" text-anchor="middle" font-family="system-ui, -apple-system, sans-serif" font-size="9" fill="#666">00118301</text><text x="174.5" y="256.0" text-anchor="middle" font-family="system-ui, -apple-system, sans-serif" font-size="9" fill="#666">31919473</text><text x="212.7" y="256.0" text-anchor="middle" font-family="system-ui, -apple-system, sans-serif" font-size="9" fill="#666">49559976</text><text x="250.9" y="256.0" text-anchor="middle" font-family="system-ui, -apple-system, sans-serif" font-size="9" fill="#666">53749546</text><text x="289.1" y="256.0" text-anchor="middle" font-family="system-ui, -apple-system, sans-serif" font-size="9" fill="#666">73723278</text><text x="327.3" y="256.0" text-anchor="middle" font-family="system-ui, -apple-system, sans-serif" font-size="9" fill="#666">75063969</text><text x="365.5" y="256.0" text-anchor="middle" font-family="system-ui, -apple-system, sans-serif" font-size="9" fill="#666">76005435</text><text x="403.6" y="256.0" text-anchor="middle" font-family="system-ui, -apple-system, sans-serif" font-size="9" fill="#666">39719442</text><text x="441.8" y="256.0" text-anchor="middle" font-family="system-ui, -apple-system, sans-serif" font-size="9" fill="#666">41747041</text><text x="480.0" y="256.0" text-anchor="middle" font-family="system-ui, -apple-system, sans-serif" font-size="9" fill="#666">11556178</text></svg>
