<svg xmlns="http://www.w3.org/2000/svg" viewBox="0 0 760 348" width="760" height="348" role="img" aria-label="Cost per test by provider over runs — mistral highest, deepseek lowest" font-family="-apple-system,BlinkMacSystemFont,'Segoe UI',system-ui,sans-serif"><line x1="56" y1="306" x2="642" y2="306" stroke="#30363d" stroke-width="1"></line><text x="46" y="310" font-size="9.5" font-weight="400" text-anchor="end" fill="#8b949e" font-family="ui-monospace,SFMono-Regular,Menlo,monospace">$0.000</text><line x1="56" y1="235" x2="642" y2="235" stroke="#30363d" stroke-width="1"></line><text x="46" y="239" font-size="9.5" font-weight="400" text-anchor="end" fill="#8b949e" font-family="ui-monospace,SFMono-Regular,Menlo,monospace">$0.039</text><line x1="56" y1="164" x2="642" y2="164" stroke="#30363d" stroke-width="1"></line><text x="46" y="168" font-size="9.5" font-weight="400" text-anchor="end" fill="#8b949e" font-family="ui-monospace,SFMono-Regular,Menlo,monospace">$0.079</text><line x1="56" y1="93" x2="642" y2="93" stroke="#30363d" stroke-width="1"></line><text x="46" y="97" font-size="9.5" font-weight="400" text-anchor="end" fill="#8b949e" font-family="ui-monospace,SFMono-Regular,Menlo,monospace">$0.118</text><line x1="56" y1="22" x2="642" y2="22" stroke="#30363d" stroke-width="1"></line><text x="46" y="26" font-size="9.5" font-weight="400" text-anchor="end" fill="#8b949e" font-family="ui-monospace,SFMono-Regular,Menlo,monospace">$0.158</text><text x="56" y="324" font-size="9.5" font-weight="400" text-anchor="middle" fill="#8b949e" font-family="ui-monospace,SFMono-Regular,Menlo,monospace">06/06</text><text x="110.51" y="324" font-size="9.5" font-weight="400" text-anchor="middle" fill="#8b949e" font-family="ui-monospace,SFMono-Regular,Menlo,monospace">06/08</text><text x="165.02" y="324" font-size="9.5" font-weight="400" text-anchor="middle" fill="#8b949e" font-family="ui-monospace,SFMono-Regular,Menlo,monospace">06/09</text><text x="219.53" y="324" font-size="9.5" font-weight="400" text-anchor="middle" fill="#8b949e" font-family="ui-monospace,SFMono-Regular,Menlo,monospace">06/12</text><text x="274.05" y="324" font-size="9.5" font-weight="400" text-anchor="middle" fill="#8b949e" font-family="ui-monospace,SFMono-Regular,Menlo,monospace">06/14</text><text x="328.56" y="324" font-size="9.5" font-weight="400" text-anchor="middle" fill="#8b949e" font-family="ui-monospace,SFMono-Regular,Menlo,monospace">06/16</text><text x="383.07" y="324" font-size="9.5" font-weight="400" text-anchor="middle" fill="#8b949e" font-family="ui-monospace,SFMono-Regular,Menlo,monospace">06/17</text><text x="437.58" y="324" font-size="9.5" font-weight="400" text-anchor="middle" fill="#8b949e" font-family="ui-monospace,SFMono-Regular,Menlo,monospace">06/20</text><text x="492.09" y="324" font-size="9.5" font-weight="400" text-anchor="middle" fill="#8b949e" font-family="ui-monospace,SFMono-Regular,Menlo,monospace">06/22</text><text x="546.6" y="324" font-size="9.5" font-weight="400" text-anchor="middle" fill="#8b949e" font-family="ui-monospace,SFMono-Regular,Menlo,monospace">06/24</text><text x="601.12" y="324" font-size="9.5" font-weight="400" text-anchor="middle" fill="#8b949e" font-family="ui-monospace,SFMono-Regular,Menlo,monospace">06/25</text><text x="642" y="324" font-size="9.5" font-weight="400" text-anchor="middle" fill="#8b949e" font-family="ui-monospace,SFMono-Regular,Menlo,monospace">06/26</text><polyline fill="none" stroke="#6366F1" stroke-width="2.4" stroke-linejoin="round" stroke-linecap="round" points="110.51,291.99 117.33,292.07 124.14,292.82 130.95,291.48 137.77,291.75 144.58,285.29 151.4,293.05 158.21,290.23 165.02,290.29 171.84,289.78 178.65,291.61 185.47,290.27 192.28,286.66 199.09,290.55 205.91,286.99 212.72,293.02 219.53,290.61 226.35,286.59 233.16,283.56 239.98,290.63 246.79,289.42 253.6,292.33 260.42,288.36 267.23,284.88 274.05,291.34 280.86,290.13 287.67,291.01 294.49,289.68 308.12,289.04 314.93,291.5 321.74,291.97 328.56,289.14 335.37,289.37 342.19,290.04 349,290.81 355.81,291.39 362.63,292 376.26,292.33 383.07,292.51 389.88,290.75 396.7,289.5 403.51,289.4 410.33,282.59 417.14,289.91 423.95,286.79 430.77,288.79 437.58,286.98 444.4,290.22 451.21,291.94 458.02,292.7 464.84,281.08 471.65,292.31 478.47,290.28 485.28,286.5 492.09,289 498.91,289.95 505.72,291.41 512.53,290.81 519.35,291 526.16,290.42 532.98,289.99 539.79,284.38 546.6,292.31 553.42,291.62 560.23,287.31 567.05,291.89 573.86,292.21 580.67,288.97 587.49,292.99 594.3,292.75 601.12,290.59 607.93,291.68 614.74,293.04 621.56,289.13 628.37,289.75 635.19,289.96 642,290.74"></polyline><circle cx="110.51" cy="291.99" r="2.6" fill="#6366F1"></circle><circle cx="117.33" cy="292.07" r="2.6" fill="#6366F1"></circle><circle cx="124.14" cy="292.82" r="2.6" fill="#6366F1"></circle><circle cx="130.95" cy="291.48" r="2.6" fill="#6366F1"></circle><circle cx="137.77" cy="291.75" r="2.6" fill="#6366F1"></circle><circle cx="144.58" cy="285.29" r="2.6" fill="#6366F1"></circle><circle cx="151.4" cy="293.05" r="2.6" fill="#6366F1"></circle><circle cx="158.21" cy="290.23" r="2.6" fill="#6366F1"></circle><circle cx="165.02" cy="290.29" r="2.6" fill="#6366F1"></circle><circle cx="171.84" cy="289.78" r="2.6" fill="#6366F1"></circle><circle cx="178.65" cy="291.61" r="2.6" fill="#6366F1"></circle><circle cx="185.47" cy="290.27" r="2.6" fill="#6366F1"></circle><circle cx="192.28" cy="286.66" r="2.6" fill="#6366F1"></circle><circle cx="199.09" cy="290.55" r="2.6" fill="#6366F1"></circle><circle cx="205.91" cy="286.99" r="2.6" fill="#6366F1"></circle><circle cx="212.72" cy="293.02" r="2.6" fill="#6366F1"></circle><circle cx="219.53" cy="290.61" r="2.6" fill="#6366F1"></circle><circle cx="226.35" cy="286.59" r="2.6" fill="#6366F1"></circle><circle cx="233.16" cy="283.56" r="2.6" fill="#6366F1"></circle><circle cx="239.98" cy="290.63" r="2.6" fill="#6366F1"></circle><circle cx="246.79" cy="289.42" r="2.6" fill="#6366F1"></circle><circle cx="253.6" cy="292.33" r="2.6" fill="#6366F1"></circle><circle cx="260.42" cy="288.36" r="2.6" fill="#6366F1"></circle><circle cx="267.23" cy="284.88" r="2.6" fill="#6366F1"></circle><circle cx="274.05" cy="291.34" r="2.6" fill="#6366F1"></circle><circle cx="280.86" cy="290.13" r="2.6" fill="#6366F1"></circle><circle cx="287.67" cy="291.01" r="2.6" fill="#6366F1"></circle><circle cx="294.49" cy="289.68" r="2.6" fill="#6366F1"></circle><circle cx="308.12" cy="289.04" r="2.6" fill="#6366F1"></circle><circle cx="314.93" cy="291.5" r="2.6" fill="#6366F1"></circle><circle cx="321.74" cy="291.97" r="2.6" fill="#6366F1"></circle><circle cx="328.56" cy="289.14" r="2.6" fill="#6366F1"></circle><circle cx="335.37" cy="289.37" r="2.6" fill="#6366F1"></circle><circle cx="342.19" cy="290.04" r="2.6" fill="#6366F1"></circle><circle cx="349" cy="290.81" r="2.6" fill="#6366F1"></circle><circle cx="355.81" cy="291.39" r="2.6" fill="#6366F1"></circle><circle cx="362.63" cy="292" r="2.6" fill="#6366F1"></circle><circle cx="376.26" cy="292.33" r="2.6" fill="#6366F1"></circle><circle cx="383.07" cy="292.51" r="2.6" fill="#6366F1"></circle><circle cx="389.88" cy="290.75" r="2.6" fill="#6366F1"></circle><circle cx="396.7" cy="289.5" r="2.6" fill="#6366F1"></circle><circle cx="403.51" cy="289.4" r="2.6" fill="#6366F1"></circle><circle cx="410.33" cy="282.59" r="2.6" fill="#6366F1"></circle><circle cx="417.14" cy="289.91" r="2.6" fill="#6366F1"></circle><circle cx="423.95" cy="286.79" r="2.6" fill="#6366F1"></circle><circle cx="430.77" cy="288.79" r="2.6" fill="#6366F1"></circle><circle cx="437.58" cy="286.98" r="2.6" fill="#6366F1"></circle><circle cx="444.4" cy="290.22" r="2.6" fill="#6366F1"></circle><circle cx="451.21" cy="291.94" r="2.6" fill="#6366F1"></circle><circle cx="458.02" cy="292.7" r="2.6" fill="#6366F1"></circle><circle cx="464.84" cy="281.08" r="2.6" fill="#6366F1"></circle><circle cx="471.65" cy="292.31" r="2.6" fill="#6366F1"></circle><circle cx="478.47" cy="290.28" r="2.6" fill="#6366F1"></circle><circle cx="485.28" cy="286.5" r="2.6" fill="#6366F1"></circle><circle cx="492.09" cy="289" r="2.6" fill="#6366F1"></circle><circle cx="498.91" cy="289.95" r="2.6" fill="#6366F1"></circle><circle cx="505.72" cy="291.41" r="2.6" fill="#6366F1"></circle><circle cx="512.53" cy="290.81" r="2.6" fill="#6366F1"></circle><circle cx="519.35" cy="291" r="2.6" fill="#6366F1"></circle><circle cx="526.16" cy="290.42" r="2.6" fill="#6366F1"></circle><circle cx="532.98" cy="289.99" r="2.6" fill="#6366F1"></circle><circle cx="539.79" cy="284.38" r="2.6" fill="#6366F1"></circle><circle cx="546.6" cy="292.31" r="2.6" fill="#6366F1"></circle><circle cx="553.42" cy="291.62" r="2.6" fill="#6366F1"></circle><circle cx="560.23" cy="287.31" r="2.6" fill="#6366F1"></circle><circle cx="567.05" cy="291.89" r="2.6" fill="#6366F1"></circle><circle cx="573.86" cy="292.21" r="2.6" fill="#6366F1"></circle><circle cx="580.67" cy="288.97" r="2.6" fill="#6366F1"></circle><circle cx="587.49" cy="292.99" r="2.6" fill="#6366F1"></circle><circle cx="594.3" cy="292.75" r="2.6" fill="#6366F1"></circle><circle cx="601.12" cy="290.59" r="2.6" fill="#6366F1"></circle><circle cx="607.93" cy="291.68" r="2.6" fill="#6366F1"></circle><circle cx="614.74" cy="293.04" r="2.6" fill="#6366F1"></circle><circle cx="621.56" cy="289.13" r="2.6" fill="#6366F1"></circle><circle cx="628.37" cy="289.75" r="2.6" fill="#6366F1"></circle><circle cx="635.19" cy="289.96" r="2.6" fill="#6366F1"></circle><circle cx="642" cy="290.74" r="2.6" fill="#6366F1"></circle><polyline fill="none" stroke="#A371F7" stroke-width="2.4" stroke-linejoin="round" stroke-linecap="round" points="56,226.25 62.81,237.88 69.63,241.73 76.44,223.38 83.26,231.64 90.07,243.09 96.88,237.81 103.7,230.14 110.51,233.83 117.33,241.12 124.14,233.75 130.95,230.9 137.77,235.83 144.58,217.13 151.4,237.29 158.21,230.7 165.02,240.49 171.84,241.09 178.65,218.17 185.47,232.28 192.28,201.8 199.09,239.78 205.91,242.88 212.72,229.56 219.53,227.31 226.35,231.21 233.16,233.26 239.98,230.48 246.79,240.31 253.6,235.36 260.42,231.03 267.23,237.98 274.05,242.74 280.86,217.94 287.67,237.38 294.49,239.39 308.12,216.58 314.93,239.81 321.74,230.21 335.37,230.86 342.19,240.78 349,241.27 355.81,237.28 362.63,234.45 369.44,237.03 376.26,237.6 383.07,235.95 389.88,225.98 396.7,230.74 403.51,232.09 410.33,238.44 417.14,233.93 423.95,237.36 430.77,236.2 444.4,238.07 451.21,232.58 464.84,227.45 471.65,236.55 478.47,232.02 485.28,240.47 492.09,213.84 498.91,238.7 505.72,238.88 512.53,241.18 519.35,233.39 526.16,234.63 532.98,239.11 546.6,240.21 553.42,229.42 560.23,240.04 567.05,237.25 573.86,239.83 580.67,241.26 587.49,237.1 594.3,241.25 601.12,240.26 607.93,198.8 614.74,231.57 621.56,237.11 628.37,236.96 642,230.13"></polyline><circle cx="56" cy="226.25" r="2.6" fill="#A371F7"></circle><circle cx="62.81" cy="237.88" r="2.6" fill="#A371F7"></circle><circle cx="69.63" cy="241.73" r="2.6" fill="#A371F7"></circle><circle cx="76.44" cy="223.38" r="2.6" fill="#A371F7"></circle><circle cx="83.26" cy="231.64" r="2.6" fill="#A371F7"></circle><circle cx="90.07" cy="243.09" r="2.6" fill="#A371F7"></circle><circle cx="96.88" cy="237.81" r="2.6" fill="#A371F7"></circle><circle cx="103.7" cy="230.14" r="2.6" fill="#A371F7"></circle><circle cx="110.51" cy="233.83" r="2.6" fill="#A371F7"></circle><circle cx="117.33" cy="241.12" r="2.6" fill="#A371F7"></circle><circle cx="124.14" cy="233.75" r="2.6" fill="#A371F7"></circle><circle cx="130.95" cy="230.9" r="2.6" fill="#A371F7"></circle><circle cx="137.77" cy="235.83" r="2.6" fill="#A371F7"></circle><circle cx="144.58" cy="217.13" r="2.6" fill="#A371F7"></circle><circle cx="151.4" cy="237.29" r="2.6" fill="#A371F7"></circle><circle cx="158.21" cy="230.7" r="2.6" fill="#A371F7"></circle><circle cx="165.02" cy="240.49" r="2.6" fill="#A371F7"></circle><circle cx="171.84" cy="241.09" r="2.6" fill="#A371F7"></circle><circle cx="178.65" cy="218.17" r="2.6" fill="#A371F7"></circle><circle cx="185.47" cy="232.28" r="2.6" fill="#A371F7"></circle><circle cx="192.28" cy="201.8" r="2.6" fill="#A371F7"></circle><circle cx="199.09" cy="239.78" r="2.6" fill="#A371F7"></circle><circle cx="205.91" cy="242.88" r="2.6" fill="#A371F7"></circle><circle cx="212.72" cy="229.56" r="2.6" fill="#A371F7"></circle><circle cx="219.53" cy="227.31" r="2.6" fill="#A371F7"></circle><circle cx="226.35" cy="231.21" r="2.6" fill="#A371F7"></circle><circle cx="233.16" cy="233.26" r="2.6" fill="#A371F7"></circle><circle cx="239.98" cy="230.48" r="2.6" fill="#A371F7"></circle><circle cx="246.79" cy="240.31" r="2.6" fill="#A371F7"></circle><circle cx="253.6" cy="235.36" r="2.6" fill="#A371F7"></circle><circle cx="260.42" cy="231.03" r="2.6" fill="#A371F7"></circle><circle cx="267.23" cy="237.98" r="2.6" fill="#A371F7"></circle><circle cx="274.05" cy="242.74" r="2.6" fill="#A371F7"></circle><circle cx="280.86" cy="217.94" r="2.6" fill="#A371F7"></circle><circle cx="287.67" cy="237.38" r="2.6" fill="#A371F7"></circle><circle cx="294.49" cy="239.39" r="2.6" fill="#A371F7"></circle><circle cx="308.12" cy="216.58" r="2.6" fill="#A371F7"></circle><circle cx="314.93" cy="239.81" r="2.6" fill="#A371F7"></circle><circle cx="321.74" cy="230.21" r="2.6" fill="#A371F7"></circle><circle cx="335.37" cy="230.86" r="2.6" fill="#A371F7"></circle><circle cx="342.19" cy="240.78" r="2.6" fill="#A371F7"></circle><circle cx="349" cy="241.27" r="2.6" fill="#A371F7"></circle><circle cx="355.81" cy="237.28" r="2.6" fill="#A371F7"></circle><circle cx="362.63" cy="234.45" r="2.6" fill="#A371F7"></circle><circle cx="369.44" cy="237.03" r="2.6" fill="#A371F7"></circle><circle cx="376.26" cy="237.6" r="2.6" fill="#A371F7"></circle><circle cx="383.07" cy="235.95" r="2.6" fill="#A371F7"></circle><circle cx="389.88" cy="225.98" r="2.6" fill="#A371F7"></circle><circle cx="396.7" cy="230.74" r="2.6" fill="#A371F7"></circle><circle cx="403.51" cy="232.09" r="2.6" fill="#A371F7"></circle><circle cx="410.33" cy="238.44" r="2.6" fill="#A371F7"></circle><circle cx="417.14" cy="233.93" r="2.6" fill="#A371F7"></circle><circle cx="423.95" cy="237.36" r="2.6" fill="#A371F7"></circle><circle cx="430.77" cy="236.2" r="2.6" fill="#A371F7"></circle><circle cx="444.4" cy="238.07" r="2.6" fill="#A371F7"></circle><circle cx="451.21" cy="232.58" r="2.6" fill="#A371F7"></circle><circle cx="464.84" cy="227.45" r="2.6" fill="#A371F7"></circle><circle cx="471.65" cy="236.55" r="2.6" fill="#A371F7"></circle><circle cx="478.47" cy="232.02" r="2.6" fill="#A371F7"></circle><circle cx="485.28" cy="240.47" r="2.6" fill="#A371F7"></circle><circle cx="492.09" cy="213.84" r="2.6" fill="#A371F7"></circle><circle cx="498.91" cy="238.7" r="2.6" fill="#A371F7"></circle><circle cx="505.72" cy="238.88" r="2.6" fill="#A371F7"></circle><circle cx="512.53" cy="241.18" r="2.6" fill="#A371F7"></circle><circle cx="519.35" cy="233.39" r="2.6" fill="#A371F7"></circle><circle cx="526.16" cy="234.63" r="2.6" fill="#A371F7"></circle><circle cx="532.98" cy="239.11" r="2.6" fill="#A371F7"></circle><circle cx="546.6" cy="240.21" r="2.6" fill="#A371F7"></circle><circle cx="553.42" cy="229.42" r="2.6" fill="#A371F7"></circle><circle cx="560.23" cy="240.04" r="2.6" fill="#A371F7"></circle><circle cx="567.05" cy="237.25" r="2.6" fill="#A371F7"></circle><circle cx="573.86" cy="239.83" r="2.6" fill="#A371F7"></circle><circle cx="580.67" cy="241.26" r="2.6" fill="#A371F7"></circle><circle cx="587.49" cy="237.1" r="2.6" fill="#A371F7"></circle><circle cx="594.3" cy="241.25" r="2.6" fill="#A371F7"></circle><circle cx="601.12" cy="240.26" r="2.6" fill="#A371F7"></circle><circle cx="607.93" cy="198.8" r="2.6" fill="#A371F7"></circle><circle cx="614.74" cy="231.57" r="2.6" fill="#A371F7"></circle><circle cx="621.56" cy="237.11" r="2.6" fill="#A371F7"></circle><circle cx="628.37" cy="236.96" r="2.6" fill="#A371F7"></circle><circle cx="642" cy="230.13" r="2.6" fill="#A371F7"></circle><polyline fill="none" stroke="#F0A23B" stroke-width="2.4" stroke-linejoin="round" stroke-linecap="round" points="56,162.13 62.81,151.29 69.63,72.27 76.44,170.58 83.26,165.15 90.07,168.63 96.88,155.58 103.7,155.2 110.51,151.03 117.33,159.37 124.14,151 130.95,152 137.77,154.31 144.58,162.54 151.4,145.36 158.21,160.82 165.02,153.52 171.84,158.63 178.65,172.35 185.47,162.23 192.28,168.2 199.09,164.28 205.91,98 212.72,164.92 219.53,167.19 226.35,163.76 233.16,165.84 239.98,134.6 246.79,163 253.6,144.13 260.42,165.52 267.23,134.8 274.05,167.11 280.86,166.07 287.67,54.66 294.49,77.46 301.3,164.62 308.12,166.72 314.93,166.65 321.74,162.93 328.56,164.9 335.37,170.21 342.19,169.23 349,114.96 355.81,165.27 362.63,165.44 369.44,99.36 376.26,161.79 383.07,138.56 389.88,167.81 396.7,164.51 403.51,164.55 410.33,135.11 417.14,119.1 423.95,168.6 430.77,167.03 437.58,169.7 444.4,164.27 451.21,168.02 458.02,163.89 464.84,99.72 471.65,166.55 478.47,163.57 485.28,163.91 492.09,164.36 498.91,166.86 505.72,166.95 512.53,52.43 519.35,166.52 526.16,165.82 532.98,164.59 546.6,164.21 553.42,164.24 560.23,161.69 567.05,156.02 573.86,164.92 580.67,166.5 587.49,158.67 594.3,169.13 601.12,164.89 607.93,168.19 614.74,134.69 621.56,120.68 628.37,164.51 642,165.95"></polyline><circle cx="56" cy="162.13" r="2.6" fill="#F0A23B"></circle><circle cx="62.81" cy="151.29" r="2.6" fill="#F0A23B"></circle><circle cx="69.63" cy="72.27" r="2.6" fill="#F0A23B"></circle><circle cx="76.44" cy="170.58" r="2.6" fill="#F0A23B"></circle><circle cx="83.26" cy="165.15" r="2.6" fill="#F0A23B"></circle><circle cx="90.07" cy="168.63" r="2.6" fill="#F0A23B"></circle><circle cx="96.88" cy="155.58" r="2.6" fill="#F0A23B"></circle><circle cx="103.7" cy="155.2" r="2.6" fill="#F0A23B"></circle><circle cx="110.51" cy="151.03" r="2.6" fill="#F0A23B"></circle><circle cx="117.33" cy="159.37" r="2.6" fill="#F0A23B"></circle><circle cx="124.14" cy="151" r="2.6" fill="#F0A23B"></circle><circle cx="130.95" cy="152" r="2.6" fill="#F0A23B"></circle><circle cx="137.77" cy="154.31" r="2.6" fill="#F0A23B"></circle><circle cx="144.58" cy="162.54" r="2.6" fill="#F0A23B"></circle><circle cx="151.4" cy="145.36" r="2.6" fill="#F0A23B"></circle><circle cx="158.21" cy="160.82" r="2.6" fill="#F0A23B"></circle><circle cx="165.02" cy="153.52" r="2.6" fill="#F0A23B"></circle><circle cx="171.84" cy="158.63" r="2.6" fill="#F0A23B"></circle><circle cx="178.65" cy="172.35" r="2.6" fill="#F0A23B"></circle><circle cx="185.47" cy="162.23" r="2.6" fill="#F0A23B"></circle><circle cx="192.28" cy="168.2" r="2.6" fill="#F0A23B"></circle><circle cx="199.09" cy="164.28" r="2.6" fill="#F0A23B"></circle><circle cx="205.91" cy="98" r="2.6" fill="#F0A23B"></circle><circle cx="212.72" cy="164.92" r="2.6" fill="#F0A23B"></circle><circle cx="219.53" cy="167.19" r="2.6" fill="#F0A23B"></circle><circle cx="226.35" cy="163.76" r="2.6" fill="#F0A23B"></circle><circle cx="233.16" cy="165.84" r="2.6" fill="#F0A23B"></circle><circle cx="239.98" cy="134.6" r="2.6" fill="#F0A23B"></circle><circle cx="246.79" cy="163" r="2.6" fill="#F0A23B"></circle><circle cx="253.6" cy="144.13" r="2.6" fill="#F0A23B"></circle><circle cx="260.42" cy="165.52" r="2.6" fill="#F0A23B"></circle><circle cx="267.23" cy="134.8" r="2.6" fill="#F0A23B"></circle><circle cx="274.05" cy="167.11" r="2.6" fill="#F0A23B"></circle><circle cx="280.86" cy="166.07" r="2.6" fill="#F0A23B"></circle><circle cx="287.67" cy="54.66" r="2.6" fill="#F0A23B"></circle><circle cx="294.49" cy="77.46" r="2.6" fill="#F0A23B"></circle><circle cx="301.3" cy="164.62" r="2.6" fill="#F0A23B"></circle><circle cx="308.12" cy="166.72" r="2.6" fill="#F0A23B"></circle><circle cx="314.93" cy="166.65" r="2.6" fill="#F0A23B"></circle><circle cx="321.74" cy="162.93" r="2.6" fill="#F0A23B"></circle><circle cx="328.56" cy="164.9" r="2.6" fill="#F0A23B"></circle><circle cx="335.37" cy="170.21" r="2.6" fill="#F0A23B"></circle><circle cx="342.19" cy="169.23" r="2.6" fill="#F0A23B"></circle><circle cx="349" cy="114.96" r="2.6" fill="#F0A23B"></circle><circle cx="355.81" cy="165.27" r="2.6" fill="#F0A23B"></circle><circle cx="362.63" cy="165.44" r="2.6" fill="#F0A23B"></circle><circle cx="369.44" cy="99.36" r="2.6" fill="#F0A23B"></circle><circle cx="376.26" cy="161.79" r="2.6" fill="#F0A23B"></circle><circle cx="383.07" cy="138.56" r="2.6" fill="#F0A23B"></circle><circle cx="389.88" cy="167.81" r="2.6" fill="#F0A23B"></circle><circle cx="396.7" cy="164.51" r="2.6" fill="#F0A23B"></circle><circle cx="403.51" cy="164.55" r="2.6" fill="#F0A23B"></circle><circle cx="410.33" cy="135.11" r="2.6" fill="#F0A23B"></circle><circle cx="417.14" cy="119.1" r="2.6" fill="#F0A23B"></circle><circle cx="423.95" cy="168.6" r="2.6" fill="#F0A23B"></circle><circle cx="430.77" cy="167.03" r="2.6" fill="#F0A23B"></circle><circle cx="437.58" cy="169.7" r="2.6" fill="#F0A23B"></circle><circle cx="444.4" cy="164.27" r="2.6" fill="#F0A23B"></circle><circle cx="451.21" cy="168.02" r="2.6" fill="#F0A23B"></circle><circle cx="458.02" cy="163.89" r="2.6" fill="#F0A23B"></circle><circle cx="464.84" cy="99.72" r="2.6" fill="#F0A23B"></circle><circle cx="471.65" cy="166.55" r="2.6" fill="#F0A23B"></circle><circle cx="478.47" cy="163.57" r="2.6" fill="#F0A23B"></circle><circle cx="485.28" cy="163.91" r="2.6" fill="#F0A23B"></circle><circle cx="492.09" cy="164.36" r="2.6" fill="#F0A23B"></circle><circle cx="498.91" cy="166.86" r="2.6" fill="#F0A23B"></circle><circle cx="505.72" cy="166.95" r="2.6" fill="#F0A23B"></circle><circle cx="512.53" cy="52.43" r="2.6" fill="#F0A23B"></circle><circle cx="519.35" cy="166.52" r="2.6" fill="#F0A23B"></circle><circle cx="526.16" cy="165.82" r="2.6" fill="#F0A23B"></circle><circle cx="532.98" cy="164.59" r="2.6" fill="#F0A23B"></circle><circle cx="546.6" cy="164.21" r="2.6" fill="#F0A23B"></circle><circle cx="553.42" cy="164.24" r="2.6" fill="#F0A23B"></circle><circle cx="560.23" cy="161.69" r="2.6" fill="#F0A23B"></circle><circle cx="567.05" cy="156.02" r="2.6" fill="#F0A23B"></circle><circle cx="573.86" cy="164.92" r="2.6" fill="#F0A23B"></circle><circle cx="580.67" cy="166.5" r="2.6" fill="#F0A23B"></circle><circle cx="587.49" cy="158.67" r="2.6" fill="#F0A23B"></circle><circle cx="594.3" cy="169.13" r="2.6" fill="#F0A23B"></circle><circle cx="601.12" cy="164.89" r="2.6" fill="#F0A23B"></circle><circle cx="607.93" cy="168.19" r="2.6" fill="#F0A23B"></circle><circle cx="614.74" cy="134.69" r="2.6" fill="#F0A23B"></circle><circle cx="621.56" cy="120.68" r="2.6" fill="#F0A23B"></circle><circle cx="628.37" cy="164.51" r="2.6" fill="#F0A23B"></circle><circle cx="642" cy="165.95" r="2.6" fill="#F0A23B"></circle><line x1="656" y1="27" x2="672" y2="27" stroke="#6366F1" stroke-width="3" stroke-linecap="round"></line><text x="678" y="30" font-size="11" font-weight="400" text-anchor="start" fill="#e6edf3">deepseek</text><line x1="656" y1="47" x2="672" y2="47" stroke="#A371F7" stroke-width="3" stroke-linecap="round"></line><text x="678" y="50" font-size="11" font-weight="400" text-anchor="start" fill="#e6edf3">llama</text><line x1="656" y1="67" x2="672" y2="67" stroke="#F0A23B" stroke-width="3" stroke-linecap="round"></line><text x="678" y="70" font-size="11" font-weight="400" text-anchor="start" fill="#e6edf3">mistral</text></svg>
