<svg xmlns="http://www.w3.org/2000/svg" viewBox="0 0 600 300" width="600" height="300" role="img" aria-label="Cost per test by provider over runs ($)"><text x="300.0" y="24" text-anchor="middle" font-family="system-ui, -apple-system, sans-serif" font-size="14" font-weight="600" fill="#333">Cost per test by provider over runs ($)</text><line x1="60" y1="240.0" x2="480" y2="240.0" stroke="#eee" stroke-width="1"/><text x="54" y="244.0" text-anchor="end" font-family="system-ui, -apple-system, sans-serif" font-size="9" fill="#999">0.007197</text><line x1="60" y1="140.0" x2="480" y2="140.0" stroke="#eee" stroke-width="1"/><text x="54" y="144.0" text-anchor="end" font-family="system-ui, -apple-system, sans-serif" font-size="9" fill="#999">0.08167</text><line x1="60" y1="40.0" x2="480" y2="40.0" stroke="#eee" stroke-width="1"/><text x="54" y="44.0" text-anchor="end" font-family="system-ui, -apple-system, sans-serif" font-size="9" fill="#999">0.1561</text><polyline fill="none" stroke="#4CAF50" stroke-width="2" points="60.0,141.8 76.8,142.3 93.6,106.4 110.4,144.1 127.2,138.9 144.0,140.8 160.8,140.9 177.6,137.9 194.4,140.5 211.2,140.1 228.0,80.0 244.8,136.1 261.6,140.2 278.4,140.5 295.2,135.0 312.0,93.8 328.8,133.9 345.6,140.6 362.4,113.7 379.2,136.4 396.0,134.8 412.8,140.9 429.6,121.5 446.4,138.0 463.2,40.0 480.0,126.7"/><circle cx="60.0" cy="141.8" r="3" fill="#4CAF50"/><circle cx="76.8" cy="142.3" r="3" fill="#4CAF50"/><circle cx="93.6" cy="106.4" r="3" fill="#4CAF50"/><circle cx="110.4" cy="144.1" r="3" fill="#4CAF50"/><circle cx="127.2" cy="138.9" r="3" fill="#4CAF50"/><circle cx="144.0" cy="140.8" r="3" fill="#4CAF50"/><circle cx="160.8" cy="140.9" r="3" fill="#4CAF50"/><circle cx="177.6" cy="137.9" r="3" fill="#4CAF50"/><circle cx="194.4" cy="140.5" r="3" fill="#4CAF50"/><circle cx="211.2" cy="140.1" r="3" fill="#4CAF50"/><circle cx="228.0" cy="80.0" r="3" fill="#4CAF50"/><circle cx="244.8" cy="136.1" r="3" fill="#4CAF50"/><circle cx="261.6" cy="140.2" r="3" fill="#4CAF50"/><circle cx="278.4" cy="140.5" r="3" fill="#4CAF50"/><circle cx="295.2" cy="135.0" r="3" fill="#4CAF50"/><circle cx="312.0" cy="93.8" r="3" fill="#4CAF50"/><circle cx="328.8" cy="133.9" r="3" fill="#4CAF50"/><circle cx="345.6" cy="140.6" r="3" fill="#4CAF50"/><circle cx="362.4" cy="113.7" r="3" fill="#4CAF50"/><circle cx="379.2" cy="136.4" r="3" fill="#4CAF50"/><circle cx="396.0" cy="134.8" r="3" fill="#4CAF50"/><circle cx="412.8" cy="140.9" r="3" fill="#4CAF50"/><circle cx="429.6" cy="121.5" r="3" fill="#4CAF50"/><circle cx="446.4" cy="138.0" r="3" fill="#4CAF50"/><circle cx="463.2" cy="40.0" r="3" fill="#4CAF50"/><circle cx="480.0" cy="126.7" r="3" fill="#4CAF50"/><rect x="490" y="44" width="10" height="10" fill="#4CAF50"/><text x="504" y="53" font-family="system-ui, -apple-system, sans-serif" font-size="10" fill="#333">openai</text><polyline fill="none" stroke="#2196F3" stroke-width="2" points="60.0,143.4 76.8,149.4 93.6,143.1 110.4,145.8 127.2,151.8 144.0,139.6 160.8,145.6 177.6,141.5 194.4,141.5 211.2,140.7 228.0,142.6 244.8,153.3 261.6,152.2 278.4,146.8 295.2,141.9 312.0,142.2 328.8,116.6 345.6,142.0 362.4,114.7 379.2,122.7 396.0,135.5 412.8,130.6 429.6,145.2 446.4,124.2 463.2,141.8 480.0,137.0"/><circle cx="60.0" cy="143.4" r="3" fill="#2196F3"/><circle cx="76.8" cy="149.4" r="3" fill="#2196F3"/><circle cx="93.6" cy="143.1" r="3" fill="#2196F3"/><circle cx="110.4" cy="145.8" r="3" fill="#2196F3"/><circle cx="127.2" cy="151.8" r="3" fill="#2196F3"/><circle cx="144.0" cy="139.6" r="3" fill="#2196F3"/><circle cx="160.8" cy="145.6" r="3" fill="#2196F3"/><circle cx="177.6" cy="141.5" r="3" fill="#2196F3"/><circle cx="194.4" cy="141.5" r="3" fill="#2196F3"/><circle cx="211.2" cy="140.7" r="3" fill="#2196F3"/><circle cx="228.0" cy="142.6" r="3" fill="#2196F3"/><circle cx="244.8" cy="153.3" r="3" fill="#2196F3"/><circle cx="261.6" cy="152.2" r="3" fill="#2196F3"/><circle cx="278.4" cy="146.8" r="3" fill="#2196F3"/><circle cx="295.2" cy="141.9" r="3" fill="#2196F3"/><circle cx="312.0" cy="142.2" r="3" fill="#2196F3"/><circle cx="328.8" cy="116.6" r="3" fill="#2196F3"/><circle cx="345.6" cy="142.0" r="3" fill="#2196F3"/><circle cx="362.4" cy="114.7" r="3" fill="#2196F3"/><circle cx="379.2" cy="122.7" r="3" fill="#2196F3"/><circle cx="396.0" cy="135.5" r="3" fill="#2196F3"/><circle cx="412.8" cy="130.6" r="3" fill="#2196F3"/><circle cx="429.6" cy="145.2" r="3" fill="#2196F3"/><circle cx="446.4" cy="124.2" r="3" fill="#2196F3"/><circle cx="463.2" cy="141.8" r="3" fill="#2196F3"/><circle cx="480.0" cy="137.0" r="3" fill="#2196F3"/><rect x="490" y="62" width="10" height="10" fill="#2196F3"/><text x="504" y="71" font-family="system-ui, -apple-system, sans-serif" font-size="10" fill="#333">gemini</text><polyline fill="none" stroke="#FF9800" stroke-width="2" points="60.0,102.1 76.8,121.1 93.6,125.3 110.4,97.5 127.2,120.5 144.0,80.6 160.8,115.2 177.6,101.9 194.4,109.2 211.2,118.7 228.0,125.8 244.8,114.2 261.6,107.2 278.4,139.1 295.2,123.1 312.0,120.9 328.8,110.3 362.4,112.2 379.2,124.4 396.0,98.5 412.8,127.8 429.6,122.4 446.4,111.2 463.2,121.0 480.0,123.4"/><circle cx="60.0" cy="102.1" r="3" fill="#FF9800"/><circle cx="76.8" cy="121.1" r="3" fill="#FF9800"/><circle cx="93.6" cy="125.3" r="3" fill="#FF9800"/><circle cx="110.4" cy="97.5" r="3" fill="#FF9800"/><circle cx="127.2" cy="120.5" r="3" fill="#FF9800"/><circle cx="144.0" cy="80.6" r="3" fill="#FF9800"/><circle cx="160.8" cy="115.2" r="3" fill="#FF9800"/><circle cx="177.6" cy="101.9" r="3" fill="#FF9800"/><circle cx="194.4" cy="109.2" r="3" fill="#FF9800"/><circle cx="211.2" cy="118.7" r="3" fill="#FF9800"/><circle cx="228.0" cy="125.8" r="3" fill="#FF9800"/><circle cx="244.8" cy="114.2" r="3" fill="#FF9800"/><circle cx="261.6" cy="107.2" r="3" fill="#FF9800"/><circle cx="278.4" cy="139.1" r="3" fill="#FF9800"/><circle cx="295.2" cy="123.1" r="3" fill="#FF9800"/><circle cx="312.0" cy="120.9" r="3" fill="#FF9800"/><circle cx="328.8" cy="110.3" r="3" fill="#FF9800"/><circle cx="362.4" cy="112.2" r="3" fill="#FF9800"/><circle cx="379.2" cy="124.4" r="3" fill="#FF9800"/><circle cx="396.0" cy="98.5" r="3" fill="#FF9800"/><circle cx="412.8" cy="127.8" r="3" fill="#FF9800"/><circle cx="429.6" cy="122.4" r="3" fill="#FF9800"/><circle cx="446.4" cy="111.2" r="3" fill="#FF9800"/><circle cx="463.2" cy="121.0" r="3" fill="#FF9800"/><circle cx="480.0" cy="123.4" r="3" fill="#FF9800"/><rect x="490" y="80" width="10" height="10" fill="#FF9800"/><text x="504" y="89" font-family="system-ui, -apple-system, sans-serif" font-size="10" fill="#333">anthropic</text><polyline fill="none" stroke="#E91E63" stroke-width="2" points="60.0,142.3 76.8,134.2 93.6,75.2 110.4,148.6 127.2,144.6 144.0,147.1 160.8,137.4 177.6,137.1 194.4,134.0 211.2,140.2 228.0,134.0 244.8,134.7 261.6,136.5 278.4,142.6 295.2,129.8 312.0,141.3 328.8,135.9 345.6,139.7 362.4,149.9 379.2,142.4 396.0,146.8 412.8,143.9 429.6,94.4 446.4,144.4 463.2,146.1 480.0,143.5"/><circle cx="60.0" cy="142.3" r="3" fill="#E91E63"/><circle cx="76.8" cy="134.2" r="3" fill="#E91E63"/><circle cx="93.6" cy="75.2" r="3" fill="#E91E63"/><circle cx="110.4" cy="148.6" r="3" fill="#E91E63"/><circle cx="127.2" cy="144.6" r="3" fill="#E91E63"/><circle cx="144.0" cy="147.1" r="3" fill="#E91E63"/><circle cx="160.8" cy="137.4" r="3" fill="#E91E63"/><circle cx="177.6" cy="137.1" r="3" fill="#E91E63"/><circle cx="194.4" cy="134.0" r="3" fill="#E91E63"/><circle cx="211.2" cy="140.2" r="3" fill="#E91E63"/><circle cx="228.0" cy="134.0" r="3" fill="#E91E63"/><circle cx="244.8" cy="134.7" r="3" fill="#E91E63"/><circle cx="261.6" cy="136.5" r="3" fill="#E91E63"/><circle cx="278.4" cy="142.6" r="3" fill="#E91E63"/><circle cx="295.2" cy="129.8" r="3" fill="#E91E63"/><circle cx="312.0" cy="141.3" r="3" fill="#E91E63"/><circle cx="328.8" cy="135.9" r="3" fill="#E91E63"/><circle cx="345.6" cy="139.7" r="3" fill="#E91E63"/><circle cx="362.4" cy="149.9" r="3" fill="#E91E63"/><circle cx="379.2" cy="142.4" r="3" fill="#E91E63"/><circle cx="396.0" cy="146.8" r="3" fill="#E91E63"/><circle cx="412.8" cy="143.9" r="3" fill="#E91E63"/><circle cx="429.6" cy="94.4" r="3" fill="#E91E63"/><circle cx="446.4" cy="144.4" r="3" fill="#E91E63"/><circle cx="463.2" cy="146.1" r="3" fill="#E91E63"/><circle cx="480.0" cy="143.5" r="3" fill="#E91E63"/><rect x="490" y="98" width="10" height="10" fill="#E91E63"/><text x="504" y="107" font-family="system-ui, -apple-system, sans-serif" font-size="10" fill="#333">mistral</text><polyline fill="none" stroke="#9C27B0" stroke-width="2" points="60.0,190.1 76.8,198.8 93.6,201.7 110.4,188.0 127.2,194.2 144.0,202.7 160.8,198.8 177.6,193.1 194.4,195.8 211.2,201.2 228.0,195.7 244.8,193.6 261.6,197.3 278.4,183.3 295.2,198.4 312.0,193.5 328.8,200.8 345.6,201.2 362.4,184.1 379.2,194.7 396.0,171.9 412.8,200.2 429.6,202.6 446.4,192.6 463.2,190.9 480.0,193.9"/><circle cx="60.0" cy="190.1" r="3" fill="#9C27B0"/><circle cx="76.8" cy="198.8" r="3" fill="#9C27B0"/><circle cx="93.6" cy="201.7" r="3" fill="#9C27B0"/><circle cx="110.4" cy="188.0" r="3" fill="#9C27B0"/><circle cx="127.2" cy="194.2" r="3" fill="#9C27B0"/><circle cx="144.0" cy="202.7" r="3" fill="#9C27B0"/><circle cx="160.8" cy="198.8" r="3" fill="#9C27B0"/><circle cx="177.6" cy="193.1" r="3" fill="#9C27B0"/><circle cx="194.4" cy="195.8" r="3" fill="#9C27B0"/><circle cx="211.2" cy="201.2" r="3" fill="#9C27B0"/><circle cx="228.0" cy="195.7" r="3" fill="#9C27B0"/><circle cx="244.8" cy="193.6" r="3" fill="#9C27B0"/><circle cx="261.6" cy="197.3" r="3" fill="#9C27B0"/><circle cx="278.4" cy="183.3" r="3" fill="#9C27B0"/><circle cx="295.2" cy="198.4" r="3" fill="#9C27B0"/><circle cx="312.0" cy="193.5" r="3" fill="#9C27B0"/><circle cx="328.8" cy="200.8" r="3" fill="#9C27B0"/><circle cx="345.6" cy="201.2" r="3" fill="#9C27B0"/><circle cx="362.4" cy="184.1" r="3" fill="#9C27B0"/><circle cx="379.2" cy="194.7" r="3" fill="#9C27B0"/><circle cx="396.0" cy="171.9" r="3" fill="#9C27B0"/><circle cx="412.8" cy="200.2" r="3" fill="#9C27B0"/><circle cx="429.6" cy="202.6" r="3" fill="#9C27B0"/><circle cx="446.4" cy="192.6" r="3" fill="#9C27B0"/><circle cx="463.2" cy="190.9" r="3" fill="#9C27B0"/><circle cx="480.0" cy="193.9" r="3" fill="#9C27B0"/><rect x="490" y="116" width="10" height="10" fill="#9C27B0"/><text x="504" y="125" font-family="system-ui, -apple-system, sans-serif" font-size="10" fill="#333">llama</text><polyline fill="none" stroke="#00BCD4" stroke-width="2" points="194.4,239.2 211.2,239.3 228.0,239.8 244.8,238.8 261.6,239.0 278.4,234.2 295.2,240.0 312.0,237.9 328.8,237.9 345.6,237.6 362.4,238.9 379.2,237.9 396.0,235.2 412.8,238.1 429.6,235.5 446.4,240.0 463.2,238.2 480.0,235.2"/><circle cx="194.4" cy="239.2" r="3" fill="#00BCD4"/><circle cx="211.2" cy="239.3" r="3" fill="#00BCD4"/><circle cx="228.0" cy="239.8" r="3" fill="#00BCD4"/><circle cx="244.8" cy="238.8" r="3" fill="#00BCD4"/><circle cx="261.6" cy="239.0" r="3" fill="#00BCD4"/><circle cx="278.4" cy="234.2" r="3" fill="#00BCD4"/><circle cx="295.2" cy="240.0" r="3" fill="#00BCD4"/><circle cx="312.0" cy="237.9" r="3" fill="#00BCD4"/><circle cx="328.8" cy="237.9" r="3" fill="#00BCD4"/><circle cx="345.6" cy="237.6" r="3" fill="#00BCD4"/><circle cx="362.4" cy="238.9" r="3" fill="#00BCD4"/><circle cx="379.2" cy="237.9" r="3" fill="#00BCD4"/><circle cx="396.0" cy="235.2" r="3" fill="#00BCD4"/><circle cx="412.8" cy="238.1" r="3" fill="#00BCD4"/><circle cx="429.6" cy="235.5" r="3" fill="#00BCD4"/><circle cx="446.4" cy="240.0" r="3" fill="#00BCD4"/><circle cx="463.2" cy="238.2" r="3" fill="#00BCD4"/><circle cx="480.0" cy="235.2" r="3" fill="#00BCD4"/><rect x="490" y="134" width="10" height="10" fill="#00BCD4"/><text x="504" y="143" font-family="system-ui, -apple-system, sans-serif" font-size="10" fill="#333">deepseek</text><text x="60.0" y="256.0" text-anchor="middle" font-family="system-ui, -apple-system, sans-serif" font-size="9" fill="#666">71825113</text><text x="93.6" y="256.0" text-anchor="middle" font-family="system-ui, -apple-system, sans-serif" font-size="9" fill="#666">76301827</text><text x="127.2" y="256.0" text-anchor="middle" font-family="system-ui, -apple-system, sans-serif" font-size="9" fill="#666">00118301</text><text x="160.8" y="256.0" text-anchor="middle" font-family="system-ui, -apple-system, sans-serif" font-size="9" fill="#666">31919473</text><text x="194.4" y="256.0" text-anchor="middle" font-family="system-ui, -apple-system, sans-serif" font-size="9" fill="#666">49559976</text><text x="228.0" y="256.0" text-anchor="middle" font-family="system-ui, -apple-system, sans-serif" font-size="9" fill="#666">53749546</text><text x="261.6" y="256.0" text-anchor="middle" font-family="system-ui, -apple-system, sans-serif" font-size="9" fill="#666">73723278</text><text x="295.2" y="256.0" text-anchor="middle" font-family="system-ui, -apple-system, sans-serif" font-size="9" fill="#666">75063969</text><text x="328.8" y="256.0" text-anchor="middle" font-family="system-ui, -apple-system, sans-serif" font-size="9" fill="#666">76005435</text><text x="362.4" y="256.0" text-anchor="middle" font-family="system-ui, -apple-system, sans-serif" font-size="9" fill="#666">39719442</text><text x="396.0" y="256.0" text-anchor="middle" font-family="system-ui, -apple-system, sans-serif" font-size="9" fill="#666">41747041</text><text x="429.6" y="256.0" text-anchor="middle" font-family="system-ui, -apple-system, sans-serif" font-size="9" fill="#666">11556178</text><text x="463.2" y="256.0" text-anchor="middle" font-family="system-ui, -apple-system, sans-serif" font-size="9" fill="#666">34092480</text></svg>
