<svg xmlns="http://www.w3.org/2000/svg" viewBox="0 0 600 300" width="600" height="300" role="img" aria-label="Cost per test by provider over runs ($)"><text x="300.0" y="24" text-anchor="middle" font-family="system-ui, -apple-system, sans-serif" font-size="14" font-weight="600" fill="#333">Cost per test by provider over runs ($)</text><line x1="60" y1="240.0" x2="480" y2="240.0" stroke="#eee" stroke-width="1"/><text x="54" y="244.0" text-anchor="end" font-family="system-ui, -apple-system, sans-serif" font-size="9" fill="#999">0.007197</text><line x1="60" y1="140.0" x2="480" y2="140.0" stroke="#eee" stroke-width="1"/><text x="54" y="144.0" text-anchor="end" font-family="system-ui, -apple-system, sans-serif" font-size="9" fill="#999">0.06855</text><line x1="60" y1="40.0" x2="480" y2="40.0" stroke="#eee" stroke-width="1"/><text x="54" y="44.0" text-anchor="end" font-family="system-ui, -apple-system, sans-serif" font-size="9" fill="#999">0.1299</text><polyline fill="none" stroke="#4CAF50" stroke-width="2" points="60.0,120.7 86.2,121.4 112.5,77.8 138.8,123.5 165.0,117.2 191.2,119.6 217.5,119.6 243.8,116.1 270.0,119.2 296.2,118.8 322.5,45.7 348.8,113.9 375.0,118.8 401.2,119.2 427.5,112.5 453.8,62.5 480.0,111.2"/><circle cx="60.0" cy="120.7" r="3" fill="#4CAF50"/><circle cx="86.2" cy="121.4" r="3" fill="#4CAF50"/><circle cx="112.5" cy="77.8" r="3" fill="#4CAF50"/><circle cx="138.8" cy="123.5" r="3" fill="#4CAF50"/><circle cx="165.0" cy="117.2" r="3" fill="#4CAF50"/><circle cx="191.2" cy="119.6" r="3" fill="#4CAF50"/><circle cx="217.5" cy="119.6" r="3" fill="#4CAF50"/><circle cx="243.8" cy="116.1" r="3" fill="#4CAF50"/><circle cx="270.0" cy="119.2" r="3" fill="#4CAF50"/><circle cx="296.2" cy="118.8" r="3" fill="#4CAF50"/><circle cx="322.5" cy="45.7" r="3" fill="#4CAF50"/><circle cx="348.8" cy="113.9" r="3" fill="#4CAF50"/><circle cx="375.0" cy="118.8" r="3" fill="#4CAF50"/><circle cx="401.2" cy="119.2" r="3" fill="#4CAF50"/><circle cx="427.5" cy="112.5" r="3" fill="#4CAF50"/><circle cx="453.8" cy="62.5" r="3" fill="#4CAF50"/><circle cx="480.0" cy="111.2" r="3" fill="#4CAF50"/><rect x="490" y="44" width="10" height="10" fill="#4CAF50"/><text x="504" y="53" font-family="system-ui, -apple-system, sans-serif" font-size="10" fill="#333">openai</text><polyline fill="none" stroke="#2196F3" stroke-width="2" points="60.0,122.8 86.2,130.0 112.5,122.3 138.8,125.6 165.0,132.9 191.2,118.1 217.5,125.4 243.8,120.4 270.0,120.4 296.2,119.4 322.5,121.8 348.8,134.7 375.0,133.4 401.2,126.9 427.5,121.0 453.8,121.3 480.0,90.2"/><circle cx="60.0" cy="122.8" r="3" fill="#2196F3"/><circle cx="86.2" cy="130.0" r="3" fill="#2196F3"/><circle cx="112.5" cy="122.3" r="3" fill="#2196F3"/><circle cx="138.8" cy="125.6" r="3" fill="#2196F3"/><circle cx="165.0" cy="132.9" r="3" fill="#2196F3"/><circle cx="191.2" cy="118.1" r="3" fill="#2196F3"/><circle cx="217.5" cy="125.4" r="3" fill="#2196F3"/><circle cx="243.8" cy="120.4" r="3" fill="#2196F3"/><circle cx="270.0" cy="120.4" r="3" fill="#2196F3"/><circle cx="296.2" cy="119.4" r="3" fill="#2196F3"/><circle cx="322.5" cy="121.8" r="3" fill="#2196F3"/><circle cx="348.8" cy="134.7" r="3" fill="#2196F3"/><circle cx="375.0" cy="133.4" r="3" fill="#2196F3"/><circle cx="401.2" cy="126.9" r="3" fill="#2196F3"/><circle cx="427.5" cy="121.0" r="3" fill="#2196F3"/><circle cx="453.8" cy="121.3" r="3" fill="#2196F3"/><circle cx="480.0" cy="90.2" r="3" fill="#2196F3"/><rect x="490" y="62" width="10" height="10" fill="#2196F3"/><text x="504" y="71" font-family="system-ui, -apple-system, sans-serif" font-size="10" fill="#333">gemini</text><polyline fill="none" stroke="#FF9800" stroke-width="2" points="60.0,72.6 86.2,95.7 112.5,100.7 138.8,67.0 165.0,94.9 191.2,46.5 217.5,88.5 243.8,72.3 270.0,81.2 296.2,92.7 322.5,101.3 348.8,87.3 375.0,78.7 401.2,117.6 427.5,98.1 453.8,95.4 480.0,82.5"/><circle cx="60.0" cy="72.6" r="3" fill="#FF9800"/><circle cx="86.2" cy="95.7" r="3" fill="#FF9800"/><circle cx="112.5" cy="100.7" r="3" fill="#FF9800"/><circle cx="138.8" cy="67.0" r="3" fill="#FF9800"/><circle cx="165.0" cy="94.9" r="3" fill="#FF9800"/><circle cx="191.2" cy="46.5" r="3" fill="#FF9800"/><circle cx="217.5" cy="88.5" r="3" fill="#FF9800"/><circle cx="243.8" cy="72.3" r="3" fill="#FF9800"/><circle cx="270.0" cy="81.2" r="3" fill="#FF9800"/><circle cx="296.2" cy="92.7" r="3" fill="#FF9800"/><circle cx="322.5" cy="101.3" r="3" fill="#FF9800"/><circle cx="348.8" cy="87.3" r="3" fill="#FF9800"/><circle cx="375.0" cy="78.7" r="3" fill="#FF9800"/><circle cx="401.2" cy="117.6" r="3" fill="#FF9800"/><circle cx="427.5" cy="98.1" r="3" fill="#FF9800"/><circle cx="453.8" cy="95.4" r="3" fill="#FF9800"/><circle cx="480.0" cy="82.5" r="3" fill="#FF9800"/><rect x="490" y="80" width="10" height="10" fill="#FF9800"/><text x="504" y="89" font-family="system-ui, -apple-system, sans-serif" font-size="10" fill="#333">anthropic</text><polyline fill="none" stroke="#E91E63" stroke-width="2" points="60.0,121.4 86.2,111.6 112.5,40.0 138.8,129.1 165.0,124.1 191.2,127.3 217.5,115.5 243.8,115.1 270.0,111.3 296.2,118.9 322.5,111.3 348.8,112.2 375.0,114.3 401.2,121.8 427.5,106.2 453.8,120.2 480.0,113.6"/><circle cx="60.0" cy="121.4" r="3" fill="#E91E63"/><circle cx="86.2" cy="111.6" r="3" fill="#E91E63"/><circle cx="112.5" cy="40.0" r="3" fill="#E91E63"/><circle cx="138.8" cy="129.1" r="3" fill="#E91E63"/><circle cx="165.0" cy="124.1" r="3" fill="#E91E63"/><circle cx="191.2" cy="127.3" r="3" fill="#E91E63"/><circle cx="217.5" cy="115.5" r="3" fill="#E91E63"/><circle cx="243.8" cy="115.1" r="3" fill="#E91E63"/><circle cx="270.0" cy="111.3" r="3" fill="#E91E63"/><circle cx="296.2" cy="118.9" r="3" fill="#E91E63"/><circle cx="322.5" cy="111.3" r="3" fill="#E91E63"/><circle cx="348.8" cy="112.2" r="3" fill="#E91E63"/><circle cx="375.0" cy="114.3" r="3" fill="#E91E63"/><circle cx="401.2" cy="121.8" r="3" fill="#E91E63"/><circle cx="427.5" cy="106.2" r="3" fill="#E91E63"/><circle cx="453.8" cy="120.2" r="3" fill="#E91E63"/><circle cx="480.0" cy="113.6" r="3" fill="#E91E63"/><rect x="490" y="98" width="10" height="10" fill="#E91E63"/><text x="504" y="107" font-family="system-ui, -apple-system, sans-serif" font-size="10" fill="#333">mistral</text><polyline fill="none" stroke="#9C27B0" stroke-width="2" points="60.0,179.5 86.2,190.0 112.5,193.5 138.8,176.9 165.0,184.4 191.2,194.7 217.5,190.0 243.8,183.0 270.0,186.4 296.2,193.0 322.5,186.3 348.8,183.7 375.0,188.2 401.2,171.2 427.5,189.5 453.8,183.5 480.0,192.4"/><circle cx="60.0" cy="179.5" r="3" fill="#9C27B0"/><circle cx="86.2" cy="190.0" r="3" fill="#9C27B0"/><circle cx="112.5" cy="193.5" r="3" fill="#9C27B0"/><circle cx="138.8" cy="176.9" r="3" fill="#9C27B0"/><circle cx="165.0" cy="184.4" r="3" fill="#9C27B0"/><circle cx="191.2" cy="194.7" r="3" fill="#9C27B0"/><circle cx="217.5" cy="190.0" r="3" fill="#9C27B0"/><circle cx="243.8" cy="183.0" r="3" fill="#9C27B0"/><circle cx="270.0" cy="186.4" r="3" fill="#9C27B0"/><circle cx="296.2" cy="193.0" r="3" fill="#9C27B0"/><circle cx="322.5" cy="186.3" r="3" fill="#9C27B0"/><circle cx="348.8" cy="183.7" r="3" fill="#9C27B0"/><circle cx="375.0" cy="188.2" r="3" fill="#9C27B0"/><circle cx="401.2" cy="171.2" r="3" fill="#9C27B0"/><circle cx="427.5" cy="189.5" r="3" fill="#9C27B0"/><circle cx="453.8" cy="183.5" r="3" fill="#9C27B0"/><circle cx="480.0" cy="192.4" r="3" fill="#9C27B0"/><rect x="490" y="116" width="10" height="10" fill="#9C27B0"/><text x="504" y="125" font-family="system-ui, -apple-system, sans-serif" font-size="10" fill="#333">llama</text><polyline fill="none" stroke="#00BCD4" stroke-width="2" points="270.0,239.0 296.2,239.1 322.5,239.8 348.8,238.6 375.0,238.8 401.2,233.0 427.5,240.0 453.8,237.4 480.0,237.5"/><circle cx="270.0" cy="239.0" r="3" fill="#00BCD4"/><circle cx="296.2" cy="239.1" r="3" fill="#00BCD4"/><circle cx="322.5" cy="239.8" r="3" fill="#00BCD4"/><circle cx="348.8" cy="238.6" r="3" fill="#00BCD4"/><circle cx="375.0" cy="238.8" r="3" fill="#00BCD4"/><circle cx="401.2" cy="233.0" r="3" fill="#00BCD4"/><circle cx="427.5" cy="240.0" r="3" fill="#00BCD4"/><circle cx="453.8" cy="237.4" r="3" fill="#00BCD4"/><circle cx="480.0" cy="237.5" r="3" fill="#00BCD4"/><rect x="490" y="134" width="10" height="10" fill="#00BCD4"/><text x="504" y="143" font-family="system-ui, -apple-system, sans-serif" font-size="10" fill="#333">deepseek</text><text x="60.0" y="256.0" text-anchor="middle" font-family="system-ui, -apple-system, sans-serif" font-size="9" fill="#666">71825113</text><text x="86.2" y="256.0" text-anchor="middle" font-family="system-ui, -apple-system, sans-serif" font-size="9" fill="#666">75010794</text><text x="112.5" y="256.0" text-anchor="middle" font-family="system-ui, -apple-system, sans-serif" font-size="9" fill="#666">76301827</text><text x="138.8" y="256.0" text-anchor="middle" font-family="system-ui, -apple-system, sans-serif" font-size="9" fill="#666">97386462</text><text x="165.0" y="256.0" text-anchor="middle" font-family="system-ui, -apple-system, sans-serif" font-size="9" fill="#666">00118301</text><text x="191.2" y="256.0" text-anchor="middle" font-family="system-ui, -apple-system, sans-serif" font-size="9" fill="#666">07642311</text><text x="217.5" y="256.0" text-anchor="middle" font-family="system-ui, -apple-system, sans-serif" font-size="9" fill="#666">31919473</text><text x="243.8" y="256.0" text-anchor="middle" font-family="system-ui, -apple-system, sans-serif" font-size="9" fill="#666">33376499</text><text x="270.0" y="256.0" text-anchor="middle" font-family="system-ui, -apple-system, sans-serif" font-size="9" fill="#666">49559976</text><text x="296.2" y="256.0" text-anchor="middle" font-family="system-ui, -apple-system, sans-serif" font-size="9" fill="#666">51938981</text><text x="322.5" y="256.0" text-anchor="middle" font-family="system-ui, -apple-system, sans-serif" font-size="9" fill="#666">53749546</text><text x="348.8" y="256.0" text-anchor="middle" font-family="system-ui, -apple-system, sans-serif" font-size="9" fill="#666">54994841</text><text x="375.0" y="256.0" text-anchor="middle" font-family="system-ui, -apple-system, sans-serif" font-size="9" fill="#666">73723278</text><text x="401.2" y="256.0" text-anchor="middle" font-family="system-ui, -apple-system, sans-serif" font-size="9" fill="#666">74446787</text><text x="427.5" y="256.0" text-anchor="middle" font-family="system-ui, -apple-system, sans-serif" font-size="9" fill="#666">75063969</text><text x="453.8" y="256.0" text-anchor="middle" font-family="system-ui, -apple-system, sans-serif" font-size="9" fill="#666">75757458</text><text x="480.0" y="256.0" text-anchor="middle" font-family="system-ui, -apple-system, sans-serif" font-size="9" fill="#666">76005435</text></svg>
