<svg xmlns="http://www.w3.org/2000/svg" viewBox="0 0 760 348" width="760" height="348" role="img" aria-label="Cost per test by provider over runs — openai highest, deepseek lowest" font-family="-apple-system,BlinkMacSystemFont,'Segoe UI',system-ui,sans-serif"><line x1="56" y1="306" x2="642" y2="306" stroke="#30363d" stroke-width="1"></line><text x="46" y="310" font-size="9.5" font-weight="400" text-anchor="end" fill="#8b949e" font-family="ui-monospace,SFMono-Regular,Menlo,monospace">$0.000</text><line x1="56" y1="235" x2="642" y2="235" stroke="#30363d" stroke-width="1"></line><text x="46" y="239" font-size="9.5" font-weight="400" text-anchor="end" fill="#8b949e" font-family="ui-monospace,SFMono-Regular,Menlo,monospace">$0.044</text><line x1="56" y1="164" x2="642" y2="164" stroke="#30363d" stroke-width="1"></line><text x="46" y="168" font-size="9.5" font-weight="400" text-anchor="end" fill="#8b949e" font-family="ui-monospace,SFMono-Regular,Menlo,monospace">$0.087</text><line x1="56" y1="93" x2="642" y2="93" stroke="#30363d" stroke-width="1"></line><text x="46" y="97" font-size="9.5" font-weight="400" text-anchor="end" fill="#8b949e" font-family="ui-monospace,SFMono-Regular,Menlo,monospace">$0.131</text><line x1="56" y1="22" x2="642" y2="22" stroke="#30363d" stroke-width="1"></line><text x="46" y="26" font-size="9.5" font-weight="400" text-anchor="end" fill="#8b949e" font-family="ui-monospace,SFMono-Regular,Menlo,monospace">$0.175</text><text x="56" y="324" font-size="9.5" font-weight="400" text-anchor="middle" fill="#8b949e" font-family="ui-monospace,SFMono-Regular,Menlo,monospace">06/06</text><text x="113.64" y="324" font-size="9.5" font-weight="400" text-anchor="middle" fill="#8b949e" font-family="ui-monospace,SFMono-Regular,Menlo,monospace">06/08</text><text x="171.28" y="324" font-size="9.5" font-weight="400" text-anchor="middle" fill="#8b949e" font-family="ui-monospace,SFMono-Regular,Menlo,monospace">06/08</text><text x="228.92" y="324" font-size="9.5" font-weight="400" text-anchor="middle" fill="#8b949e" font-family="ui-monospace,SFMono-Regular,Menlo,monospace">06/09</text><text x="286.56" y="324" font-size="9.5" font-weight="400" text-anchor="middle" fill="#8b949e" font-family="ui-monospace,SFMono-Regular,Menlo,monospace">06/12</text><text x="344.2" y="324" font-size="9.5" font-weight="400" text-anchor="middle" fill="#8b949e" font-family="ui-monospace,SFMono-Regular,Menlo,monospace">06/14</text><text x="401.84" y="324" font-size="9.5" font-weight="400" text-anchor="middle" fill="#8b949e" font-family="ui-monospace,SFMono-Regular,Menlo,monospace">06/15</text><text x="459.48" y="324" font-size="9.5" font-weight="400" text-anchor="middle" fill="#8b949e" font-family="ui-monospace,SFMono-Regular,Menlo,monospace">06/16</text><text x="517.11" y="324" font-size="9.5" font-weight="400" text-anchor="middle" fill="#8b949e" font-family="ui-monospace,SFMono-Regular,Menlo,monospace">06/17</text><text x="574.75" y="324" font-size="9.5" font-weight="400" text-anchor="middle" fill="#8b949e" font-family="ui-monospace,SFMono-Regular,Menlo,monospace">06/20</text><text x="632.39" y="324" font-size="9.5" font-weight="400" text-anchor="middle" fill="#8b949e" font-family="ui-monospace,SFMono-Regular,Menlo,monospace">06/21</text><text x="642" y="324" font-size="9.5" font-weight="400" text-anchor="middle" fill="#8b949e" font-family="ui-monospace,SFMono-Regular,Menlo,monospace">06/21</text><polyline fill="none" stroke="#6366F1" stroke-width="2.4" stroke-linejoin="round" stroke-linecap="round" points="132.85,293.36 142.46,293.43 152.07,294.1 161.67,292.89 171.28,293.14 180.89,287.31 190.49,294.31 200.1,291.77 209.7,291.82 219.31,291.36 228.92,293.02 238.52,291.8 248.13,288.55 257.74,292.06 267.34,288.85 276.95,294.29 286.56,292.11 296.16,288.48 305.77,285.75 315.38,292.13 324.98,291.04 334.59,293.66 344.2,290.08 353.8,286.94 363.41,292.77 373.02,291.68 382.62,292.47 392.23,291.27 411.44,290.7 421.05,292.91 430.66,293.34 440.26,290.78 449.87,290.99 459.48,291.6 469.08,292.29 478.69,292.81 488.3,293.37 507.51,293.66 517.11,293.82 526.72,292.24 536.33,291.11 545.93,291.02 555.54,284.88 565.15,291.48 574.75,288.67 584.36,290.47 593.97,288.84 603.57,291.75 622.79,293.31 632.39,293.99 642,283.51"></polyline><circle cx="132.85" cy="293.36" r="2.6" fill="#6366F1"></circle><circle cx="142.46" cy="293.43" r="2.6" fill="#6366F1"></circle><circle cx="152.07" cy="294.1" r="2.6" fill="#6366F1"></circle><circle cx="161.67" cy="292.89" r="2.6" fill="#6366F1"></circle><circle cx="171.28" cy="293.14" r="2.6" fill="#6366F1"></circle><circle cx="180.89" cy="287.31" r="2.6" fill="#6366F1"></circle><circle cx="190.49" cy="294.31" r="2.6" fill="#6366F1"></circle><circle cx="200.1" cy="291.77" r="2.6" fill="#6366F1"></circle><circle cx="209.7" cy="291.82" r="2.6" fill="#6366F1"></circle><circle cx="219.31" cy="291.36" r="2.6" fill="#6366F1"></circle><circle cx="228.92" cy="293.02" r="2.6" fill="#6366F1"></circle><circle cx="238.52" cy="291.8" r="2.6" fill="#6366F1"></circle><circle cx="248.13" cy="288.55" r="2.6" fill="#6366F1"></circle><circle cx="257.74" cy="292.06" r="2.6" fill="#6366F1"></circle><circle cx="267.34" cy="288.85" r="2.6" fill="#6366F1"></circle><circle cx="276.95" cy="294.29" r="2.6" fill="#6366F1"></circle><circle cx="286.56" cy="292.11" r="2.6" fill="#6366F1"></circle><circle cx="296.16" cy="288.48" r="2.6" fill="#6366F1"></circle><circle cx="305.77" cy="285.75" r="2.6" fill="#6366F1"></circle><circle cx="315.38" cy="292.13" r="2.6" fill="#6366F1"></circle><circle cx="324.98" cy="291.04" r="2.6" fill="#6366F1"></circle><circle cx="334.59" cy="293.66" r="2.6" fill="#6366F1"></circle><circle cx="344.2" cy="290.08" r="2.6" fill="#6366F1"></circle><circle cx="353.8" cy="286.94" r="2.6" fill="#6366F1"></circle><circle cx="363.41" cy="292.77" r="2.6" fill="#6366F1"></circle><circle cx="373.02" cy="291.68" r="2.6" fill="#6366F1"></circle><circle cx="382.62" cy="292.47" r="2.6" fill="#6366F1"></circle><circle cx="392.23" cy="291.27" r="2.6" fill="#6366F1"></circle><circle cx="411.44" cy="290.7" r="2.6" fill="#6366F1"></circle><circle cx="421.05" cy="292.91" r="2.6" fill="#6366F1"></circle><circle cx="430.66" cy="293.34" r="2.6" fill="#6366F1"></circle><circle cx="440.26" cy="290.78" r="2.6" fill="#6366F1"></circle><circle cx="449.87" cy="290.99" r="2.6" fill="#6366F1"></circle><circle cx="459.48" cy="291.6" r="2.6" fill="#6366F1"></circle><circle cx="469.08" cy="292.29" r="2.6" fill="#6366F1"></circle><circle cx="478.69" cy="292.81" r="2.6" fill="#6366F1"></circle><circle cx="488.3" cy="293.37" r="2.6" fill="#6366F1"></circle><circle cx="507.51" cy="293.66" r="2.6" fill="#6366F1"></circle><circle cx="517.11" cy="293.82" r="2.6" fill="#6366F1"></circle><circle cx="526.72" cy="292.24" r="2.6" fill="#6366F1"></circle><circle cx="536.33" cy="291.11" r="2.6" fill="#6366F1"></circle><circle cx="545.93" cy="291.02" r="2.6" fill="#6366F1"></circle><circle cx="555.54" cy="284.88" r="2.6" fill="#6366F1"></circle><circle cx="565.15" cy="291.48" r="2.6" fill="#6366F1"></circle><circle cx="574.75" cy="288.67" r="2.6" fill="#6366F1"></circle><circle cx="584.36" cy="290.47" r="2.6" fill="#6366F1"></circle><circle cx="593.97" cy="288.84" r="2.6" fill="#6366F1"></circle><circle cx="603.57" cy="291.75" r="2.6" fill="#6366F1"></circle><circle cx="622.79" cy="293.31" r="2.6" fill="#6366F1"></circle><circle cx="632.39" cy="293.99" r="2.6" fill="#6366F1"></circle><circle cx="642" cy="283.51" r="2.6" fill="#6366F1"></circle><polyline fill="none" stroke="#A371F7" stroke-width="2.4" stroke-linejoin="round" stroke-linecap="round" points="56,234.02 65.61,244.52 75.21,248 84.82,231.43 94.43,238.89 104.03,249.23 113.64,244.46 123.25,237.54 132.85,240.86 142.46,247.44 152.07,240.79 161.67,238.23 171.28,242.67 180.89,225.79 190.49,243.99 200.1,238.04 209.7,246.87 219.31,247.42 228.92,226.74 238.52,239.47 248.13,211.96 257.74,246.23 267.34,249.04 276.95,237.01 286.56,234.98 296.16,238.5 305.77,240.35 315.38,237.84 324.98,246.71 334.59,242.24 344.2,238.34 353.8,244.61 363.41,248.91 373.02,226.53 382.62,244.07 392.23,245.89 411.44,225.3 421.05,246.26 430.66,237.6 449.87,238.19 459.48,247.14 469.08,247.58 478.69,243.98 488.3,241.42 497.9,243.75 507.51,244.26 517.11,242.78 526.72,233.78 536.33,238.08 545.93,239.3 555.54,245.03 565.15,240.96 574.75,244.05 584.36,243 603.57,244.69 622.79,239.74 642,235.11"></polyline><circle cx="56" cy="234.02" r="2.6" fill="#A371F7"></circle><circle cx="65.61" cy="244.52" r="2.6" fill="#A371F7"></circle><circle cx="75.21" cy="248" r="2.6" fill="#A371F7"></circle><circle cx="84.82" cy="231.43" r="2.6" fill="#A371F7"></circle><circle cx="94.43" cy="238.89" r="2.6" fill="#A371F7"></circle><circle cx="104.03" cy="249.23" r="2.6" fill="#A371F7"></circle><circle cx="113.64" cy="244.46" r="2.6" fill="#A371F7"></circle><circle cx="123.25" cy="237.54" r="2.6" fill="#A371F7"></circle><circle cx="132.85" cy="240.86" r="2.6" fill="#A371F7"></circle><circle cx="142.46" cy="247.44" r="2.6" fill="#A371F7"></circle><circle cx="152.07" cy="240.79" r="2.6" fill="#A371F7"></circle><circle cx="161.67" cy="238.23" r="2.6" fill="#A371F7"></circle><circle cx="171.28" cy="242.67" r="2.6" fill="#A371F7"></circle><circle cx="180.89" cy="225.79" r="2.6" fill="#A371F7"></circle><circle cx="190.49" cy="243.99" r="2.6" fill="#A371F7"></circle><circle cx="200.1" cy="238.04" r="2.6" fill="#A371F7"></circle><circle cx="209.7" cy="246.87" r="2.6" fill="#A371F7"></circle><circle cx="219.31" cy="247.42" r="2.6" fill="#A371F7"></circle><circle cx="228.92" cy="226.74" r="2.6" fill="#A371F7"></circle><circle cx="238.52" cy="239.47" r="2.6" fill="#A371F7"></circle><circle cx="248.13" cy="211.96" r="2.6" fill="#A371F7"></circle><circle cx="257.74" cy="246.23" r="2.6" fill="#A371F7"></circle><circle cx="267.34" cy="249.04" r="2.6" fill="#A371F7"></circle><circle cx="276.95" cy="237.01" r="2.6" fill="#A371F7"></circle><circle cx="286.56" cy="234.98" r="2.6" fill="#A371F7"></circle><circle cx="296.16" cy="238.5" r="2.6" fill="#A371F7"></circle><circle cx="305.77" cy="240.35" r="2.6" fill="#A371F7"></circle><circle cx="315.38" cy="237.84" r="2.6" fill="#A371F7"></circle><circle cx="324.98" cy="246.71" r="2.6" fill="#A371F7"></circle><circle cx="334.59" cy="242.24" r="2.6" fill="#A371F7"></circle><circle cx="344.2" cy="238.34" r="2.6" fill="#A371F7"></circle><circle cx="353.8" cy="244.61" r="2.6" fill="#A371F7"></circle><circle cx="363.41" cy="248.91" r="2.6" fill="#A371F7"></circle><circle cx="373.02" cy="226.53" r="2.6" fill="#A371F7"></circle><circle cx="382.62" cy="244.07" r="2.6" fill="#A371F7"></circle><circle cx="392.23" cy="245.89" r="2.6" fill="#A371F7"></circle><circle cx="411.44" cy="225.3" r="2.6" fill="#A371F7"></circle><circle cx="421.05" cy="246.26" r="2.6" fill="#A371F7"></circle><circle cx="430.66" cy="237.6" r="2.6" fill="#A371F7"></circle><circle cx="449.87" cy="238.19" r="2.6" fill="#A371F7"></circle><circle cx="459.48" cy="247.14" r="2.6" fill="#A371F7"></circle><circle cx="469.08" cy="247.58" r="2.6" fill="#A371F7"></circle><circle cx="478.69" cy="243.98" r="2.6" fill="#A371F7"></circle><circle cx="488.3" cy="241.42" r="2.6" fill="#A371F7"></circle><circle cx="497.9" cy="243.75" r="2.6" fill="#A371F7"></circle><circle cx="507.51" cy="244.26" r="2.6" fill="#A371F7"></circle><circle cx="517.11" cy="242.78" r="2.6" fill="#A371F7"></circle><circle cx="526.72" cy="233.78" r="2.6" fill="#A371F7"></circle><circle cx="536.33" cy="238.08" r="2.6" fill="#A371F7"></circle><circle cx="545.93" cy="239.3" r="2.6" fill="#A371F7"></circle><circle cx="555.54" cy="245.03" r="2.6" fill="#A371F7"></circle><circle cx="565.15" cy="240.96" r="2.6" fill="#A371F7"></circle><circle cx="574.75" cy="244.05" r="2.6" fill="#A371F7"></circle><circle cx="584.36" cy="243" r="2.6" fill="#A371F7"></circle><circle cx="603.57" cy="244.69" r="2.6" fill="#A371F7"></circle><circle cx="622.79" cy="239.74" r="2.6" fill="#A371F7"></circle><circle cx="642" cy="235.11" r="2.6" fill="#A371F7"></circle><polyline fill="none" stroke="#F0A23B" stroke-width="2.4" stroke-linejoin="round" stroke-linecap="round" points="56,176.15 65.61,166.37 75.21,95.06 84.82,183.78 94.43,178.88 104.03,182.02 113.64,170.24 123.25,169.9 132.85,166.14 142.46,173.66 152.07,166.11 161.67,167.02 171.28,169.09 180.89,176.53 190.49,161.02 200.1,174.97 209.7,168.38 219.31,173 228.92,185.38 238.52,176.24 248.13,181.63 257.74,178.09 267.34,118.27 276.95,178.67 286.56,180.72 296.16,177.62 305.77,179.5 315.38,151.31 324.98,176.94 334.59,159.91 344.2,179.22 353.8,151.49 363.41,180.65 373.02,179.71 382.62,79.16 392.23,99.74 401.84,178.4 411.44,180.3 421.05,180.24 430.66,176.88 440.26,178.65 449.87,183.45 459.48,182.56 469.08,133.59 478.69,178.99 488.3,179.14 497.9,119.51 507.51,175.85 517.11,154.88 526.72,181.28 536.33,178.3 545.93,178.34 555.54,151.77 565.15,137.32 574.75,181.99 584.36,180.58 593.97,182.99 603.57,178.09 622.79,181.47 632.39,177.75 642,119.83"></polyline><circle cx="56" cy="176.15" r="2.6" fill="#F0A23B"></circle><circle cx="65.61" cy="166.37" r="2.6" fill="#F0A23B"></circle><circle cx="75.21" cy="95.06" r="2.6" fill="#F0A23B"></circle><circle cx="84.82" cy="183.78" r="2.6" fill="#F0A23B"></circle><circle cx="94.43" cy="178.88" r="2.6" fill="#F0A23B"></circle><circle cx="104.03" cy="182.02" r="2.6" fill="#F0A23B"></circle><circle cx="113.64" cy="170.24" r="2.6" fill="#F0A23B"></circle><circle cx="123.25" cy="169.9" r="2.6" fill="#F0A23B"></circle><circle cx="132.85" cy="166.14" r="2.6" fill="#F0A23B"></circle><circle cx="142.46" cy="173.66" r="2.6" fill="#F0A23B"></circle><circle cx="152.07" cy="166.11" r="2.6" fill="#F0A23B"></circle><circle cx="161.67" cy="167.02" r="2.6" fill="#F0A23B"></circle><circle cx="171.28" cy="169.09" r="2.6" fill="#F0A23B"></circle><circle cx="180.89" cy="176.53" r="2.6" fill="#F0A23B"></circle><circle cx="190.49" cy="161.02" r="2.6" fill="#F0A23B"></circle><circle cx="200.1" cy="174.97" r="2.6" fill="#F0A23B"></circle><circle cx="209.7" cy="168.38" r="2.6" fill="#F0A23B"></circle><circle cx="219.31" cy="173" r="2.6" fill="#F0A23B"></circle><circle cx="228.92" cy="185.38" r="2.6" fill="#F0A23B"></circle><circle cx="238.52" cy="176.24" r="2.6" fill="#F0A23B"></circle><circle cx="248.13" cy="181.63" r="2.6" fill="#F0A23B"></circle><circle cx="257.74" cy="178.09" r="2.6" fill="#F0A23B"></circle><circle cx="267.34" cy="118.27" r="2.6" fill="#F0A23B"></circle><circle cx="276.95" cy="178.67" r="2.6" fill="#F0A23B"></circle><circle cx="286.56" cy="180.72" r="2.6" fill="#F0A23B"></circle><circle cx="296.16" cy="177.62" r="2.6" fill="#F0A23B"></circle><circle cx="305.77" cy="179.5" r="2.6" fill="#F0A23B"></circle><circle cx="315.38" cy="151.31" r="2.6" fill="#F0A23B"></circle><circle cx="324.98" cy="176.94" r="2.6" fill="#F0A23B"></circle><circle cx="334.59" cy="159.91" r="2.6" fill="#F0A23B"></circle><circle cx="344.2" cy="179.22" r="2.6" fill="#F0A23B"></circle><circle cx="353.8" cy="151.49" r="2.6" fill="#F0A23B"></circle><circle cx="363.41" cy="180.65" r="2.6" fill="#F0A23B"></circle><circle cx="373.02" cy="179.71" r="2.6" fill="#F0A23B"></circle><circle cx="382.62" cy="79.16" r="2.6" fill="#F0A23B"></circle><circle cx="392.23" cy="99.74" r="2.6" fill="#F0A23B"></circle><circle cx="401.84" cy="178.4" r="2.6" fill="#F0A23B"></circle><circle cx="411.44" cy="180.3" r="2.6" fill="#F0A23B"></circle><circle cx="421.05" cy="180.24" r="2.6" fill="#F0A23B"></circle><circle cx="430.66" cy="176.88" r="2.6" fill="#F0A23B"></circle><circle cx="440.26" cy="178.65" r="2.6" fill="#F0A23B"></circle><circle cx="449.87" cy="183.45" r="2.6" fill="#F0A23B"></circle><circle cx="459.48" cy="182.56" r="2.6" fill="#F0A23B"></circle><circle cx="469.08" cy="133.59" r="2.6" fill="#F0A23B"></circle><circle cx="478.69" cy="178.99" r="2.6" fill="#F0A23B"></circle><circle cx="488.3" cy="179.14" r="2.6" fill="#F0A23B"></circle><circle cx="497.9" cy="119.51" r="2.6" fill="#F0A23B"></circle><circle cx="507.51" cy="175.85" r="2.6" fill="#F0A23B"></circle><circle cx="517.11" cy="154.88" r="2.6" fill="#F0A23B"></circle><circle cx="526.72" cy="181.28" r="2.6" fill="#F0A23B"></circle><circle cx="536.33" cy="178.3" r="2.6" fill="#F0A23B"></circle><circle cx="545.93" cy="178.34" r="2.6" fill="#F0A23B"></circle><circle cx="555.54" cy="151.77" r="2.6" fill="#F0A23B"></circle><circle cx="565.15" cy="137.32" r="2.6" fill="#F0A23B"></circle><circle cx="574.75" cy="181.99" r="2.6" fill="#F0A23B"></circle><circle cx="584.36" cy="180.58" r="2.6" fill="#F0A23B"></circle><circle cx="593.97" cy="182.99" r="2.6" fill="#F0A23B"></circle><circle cx="603.57" cy="178.09" r="2.6" fill="#F0A23B"></circle><circle cx="622.79" cy="181.47" r="2.6" fill="#F0A23B"></circle><circle cx="632.39" cy="177.75" r="2.6" fill="#F0A23B"></circle><circle cx="642" cy="119.83" r="2.6" fill="#F0A23B"></circle><polyline fill="none" stroke="#1F9CF0" stroke-width="2.4" stroke-linejoin="round" stroke-linecap="round" points="56,175.5 65.61,176.2 75.21,132.71 84.82,178.27 94.43,172 104.03,174.38 113.64,174.4 123.25,170.88 132.85,173.93 142.46,173.54 152.07,100.75 161.67,168.69 171.28,173.59 180.89,174.01 190.49,167.31 200.1,117.5 209.7,166.02 219.31,174.07 228.92,141.6 238.52,169.05 248.13,167.14 257.74,174.48 267.34,150.94 276.95,171.01 286.56,52.43 296.16,157.26 305.77,171.51 315.38,136.29 324.98,169.79 334.59,106.45 344.2,170.47 353.8,175.76 363.41,174.01 373.02,174.06 382.62,151.2 392.23,173.78 401.84,169.88 411.44,177.61 421.05,137.18 430.66,114.15 440.26,168.74 449.87,168.47 459.48,130.46 469.08,174.44 478.69,175.01 488.3,171.26 497.9,176.81 507.51,171.37 517.11,161.31 526.72,135.44 536.33,169.24 545.93,176.14 555.54,170.75 565.15,171.27 574.75,166.35 584.36,173.15 593.97,132.18 603.57,168.56 613.18,155.42 622.79,170.02 632.39,169.75 642,172.03"></polyline><circle cx="56" cy="175.5" r="2.6" fill="#1F9CF0"></circle><circle cx="65.61" cy="176.2" r="2.6" fill="#1F9CF0"></circle><circle cx="75.21" cy="132.71" r="2.6" fill="#1F9CF0"></circle><circle cx="84.82" cy="178.27" r="2.6" fill="#1F9CF0"></circle><circle cx="94.43" cy="172" r="2.6" fill="#1F9CF0"></circle><circle cx="104.03" cy="174.38" r="2.6" fill="#1F9CF0"></circle><circle cx="113.64" cy="174.4" r="2.6" fill="#1F9CF0"></circle><circle cx="123.25" cy="170.88" r="2.6" fill="#1F9CF0"></circle><circle cx="132.85" cy="173.93" r="2.6" fill="#1F9CF0"></circle><circle cx="142.46" cy="173.54" r="2.6" fill="#1F9CF0"></circle><circle cx="152.07" cy="100.75" r="2.6" fill="#1F9CF0"></circle><circle cx="161.67" cy="168.69" r="2.6" fill="#1F9CF0"></circle><circle cx="171.28" cy="173.59" r="2.6" fill="#1F9CF0"></circle><circle cx="180.89" cy="174.01" r="2.6" fill="#1F9CF0"></circle><circle cx="190.49" cy="167.31" r="2.6" fill="#1F9CF0"></circle><circle cx="200.1" cy="117.5" r="2.6" fill="#1F9CF0"></circle><circle cx="209.7" cy="166.02" r="2.6" fill="#1F9CF0"></circle><circle cx="219.31" cy="174.07" r="2.6" fill="#1F9CF0"></circle><circle cx="228.92" cy="141.6" r="2.6" fill="#1F9CF0"></circle><circle cx="238.52" cy="169.05" r="2.6" fill="#1F9CF0"></circle><circle cx="248.13" cy="167.14" r="2.6" fill="#1F9CF0"></circle><circle cx="257.74" cy="174.48" r="2.6" fill="#1F9CF0"></circle><circle cx="267.34" cy="150.94" r="2.6" fill="#1F9CF0"></circle><circle cx="276.95" cy="171.01" r="2.6" fill="#1F9CF0"></circle><circle cx="286.56" cy="52.43" r="2.6" fill="#1F9CF0"></circle><circle cx="296.16" cy="157.26" r="2.6" fill="#1F9CF0"></circle><circle cx="305.77" cy="171.51" r="2.6" fill="#1F9CF0"></circle><circle cx="315.38" cy="136.29" r="2.6" fill="#1F9CF0"></circle><circle cx="324.98" cy="169.79" r="2.6" fill="#1F9CF0"></circle><circle cx="334.59" cy="106.45" r="2.6" fill="#1F9CF0"></circle><circle cx="344.2" cy="170.47" r="2.6" fill="#1F9CF0"></circle><circle cx="353.8" cy="175.76" r="2.6" fill="#1F9CF0"></circle><circle cx="363.41" cy="174.01" r="2.6" fill="#1F9CF0"></circle><circle cx="373.02" cy="174.06" r="2.6" fill="#1F9CF0"></circle><circle cx="382.62" cy="151.2" r="2.6" fill="#1F9CF0"></circle><circle cx="392.23" cy="173.78" r="2.6" fill="#1F9CF0"></circle><circle cx="401.84" cy="169.88" r="2.6" fill="#1F9CF0"></circle><circle cx="411.44" cy="177.61" r="2.6" fill="#1F9CF0"></circle><circle cx="421.05" cy="137.18" r="2.6" fill="#1F9CF0"></circle><circle cx="430.66" cy="114.15" r="2.6" fill="#1F9CF0"></circle><circle cx="440.26" cy="168.74" r="2.6" fill="#1F9CF0"></circle><circle cx="449.87" cy="168.47" r="2.6" fill="#1F9CF0"></circle><circle cx="459.48" cy="130.46" r="2.6" fill="#1F9CF0"></circle><circle cx="469.08" cy="174.44" r="2.6" fill="#1F9CF0"></circle><circle cx="478.69" cy="175.01" r="2.6" fill="#1F9CF0"></circle><circle cx="488.3" cy="171.26" r="2.6" fill="#1F9CF0"></circle><circle cx="497.9" cy="176.81" r="2.6" fill="#1F9CF0"></circle><circle cx="507.51" cy="171.37" r="2.6" fill="#1F9CF0"></circle><circle cx="517.11" cy="161.31" r="2.6" fill="#1F9CF0"></circle><circle cx="526.72" cy="135.44" r="2.6" fill="#1F9CF0"></circle><circle cx="536.33" cy="169.24" r="2.6" fill="#1F9CF0"></circle><circle cx="545.93" cy="176.14" r="2.6" fill="#1F9CF0"></circle><circle cx="555.54" cy="170.75" r="2.6" fill="#1F9CF0"></circle><circle cx="565.15" cy="171.27" r="2.6" fill="#1F9CF0"></circle><circle cx="574.75" cy="166.35" r="2.6" fill="#1F9CF0"></circle><circle cx="584.36" cy="173.15" r="2.6" fill="#1F9CF0"></circle><circle cx="593.97" cy="132.18" r="2.6" fill="#1F9CF0"></circle><circle cx="603.57" cy="168.56" r="2.6" fill="#1F9CF0"></circle><circle cx="613.18" cy="155.42" r="2.6" fill="#1F9CF0"></circle><circle cx="622.79" cy="170.02" r="2.6" fill="#1F9CF0"></circle><circle cx="632.39" cy="169.75" r="2.6" fill="#1F9CF0"></circle><circle cx="642" cy="172.03" r="2.6" fill="#1F9CF0"></circle><line x1="656" y1="27" x2="672" y2="27" stroke="#6366F1" stroke-width="3" stroke-linecap="round"></line><text x="678" y="30" font-size="11" font-weight="400" text-anchor="start" fill="#e6edf3">deepseek</text><line x1="656" y1="47" x2="672" y2="47" stroke="#A371F7" stroke-width="3" stroke-linecap="round"></line><text x="678" y="50" font-size="11" font-weight="400" text-anchor="start" fill="#e6edf3">llama</text><line x1="656" y1="67" x2="672" y2="67" stroke="#F0A23B" stroke-width="3" stroke-linecap="round"></line><text x="678" y="70" font-size="11" font-weight="400" text-anchor="start" fill="#e6edf3">mistral</text><line x1="656" y1="87" x2="672" y2="87" stroke="#1F9CF0" stroke-width="3" stroke-linecap="round"></line><text x="678" y="90" font-size="11" font-weight="400" text-anchor="start" fill="#e6edf3">openai</text></svg>
