<svg xmlns="http://www.w3.org/2000/svg" viewBox="0 0 600 300" width="600" height="300" role="img" aria-label="Cost per test by provider over runs ($)"><text x="300.0" y="24" text-anchor="middle" font-family="system-ui, -apple-system, sans-serif" font-size="14" font-weight="600" fill="#333">Cost per test by provider over runs ($)</text><line x1="60" y1="240.0" x2="480" y2="240.0" stroke="#eee" stroke-width="1"/><text x="54" y="244.0" text-anchor="end" font-family="system-ui, -apple-system, sans-serif" font-size="9" fill="#999">0.007197</text><line x1="60" y1="140.0" x2="480" y2="140.0" stroke="#eee" stroke-width="1"/><text x="54" y="144.0" text-anchor="end" font-family="system-ui, -apple-system, sans-serif" font-size="9" fill="#999">0.06855</text><line x1="60" y1="40.0" x2="480" y2="40.0" stroke="#eee" stroke-width="1"/><text x="54" y="44.0" text-anchor="end" font-family="system-ui, -apple-system, sans-serif" font-size="9" fill="#999">0.1299</text><polyline fill="none" stroke="#4CAF50" stroke-width="2" points="60.0,120.7 90.0,121.4 120.0,77.8 150.0,123.5 180.0,117.2 210.0,119.6 240.0,119.6 270.0,116.1 300.0,119.2 330.0,118.8 360.0,45.7 390.0,113.9 420.0,118.8 450.0,119.2 480.0,112.5"/><circle cx="60.0" cy="120.7" r="3" fill="#4CAF50"/><circle cx="90.0" cy="121.4" r="3" fill="#4CAF50"/><circle cx="120.0" cy="77.8" r="3" fill="#4CAF50"/><circle cx="150.0" cy="123.5" r="3" fill="#4CAF50"/><circle cx="180.0" cy="117.2" r="3" fill="#4CAF50"/><circle cx="210.0" cy="119.6" r="3" fill="#4CAF50"/><circle cx="240.0" cy="119.6" r="3" fill="#4CAF50"/><circle cx="270.0" cy="116.1" r="3" fill="#4CAF50"/><circle cx="300.0" cy="119.2" r="3" fill="#4CAF50"/><circle cx="330.0" cy="118.8" r="3" fill="#4CAF50"/><circle cx="360.0" cy="45.7" r="3" fill="#4CAF50"/><circle cx="390.0" cy="113.9" r="3" fill="#4CAF50"/><circle cx="420.0" cy="118.8" r="3" fill="#4CAF50"/><circle cx="450.0" cy="119.2" r="3" fill="#4CAF50"/><circle cx="480.0" cy="112.5" r="3" fill="#4CAF50"/><rect x="490" y="44" width="10" height="10" fill="#4CAF50"/><text x="504" y="53" font-family="system-ui, -apple-system, sans-serif" font-size="10" fill="#333">openai</text><polyline fill="none" stroke="#2196F3" stroke-width="2" points="60.0,122.8 90.0,130.0 120.0,122.3 150.0,125.6 180.0,132.9 210.0,118.1 240.0,125.4 270.0,120.4 300.0,120.4 330.0,119.4 360.0,121.8 390.0,134.7 420.0,133.4 450.0,126.9 480.0,121.0"/><circle cx="60.0" cy="122.8" r="3" fill="#2196F3"/><circle cx="90.0" cy="130.0" r="3" fill="#2196F3"/><circle cx="120.0" cy="122.3" r="3" fill="#2196F3"/><circle cx="150.0" cy="125.6" r="3" fill="#2196F3"/><circle cx="180.0" cy="132.9" r="3" fill="#2196F3"/><circle cx="210.0" cy="118.1" r="3" fill="#2196F3"/><circle cx="240.0" cy="125.4" r="3" fill="#2196F3"/><circle cx="270.0" cy="120.4" r="3" fill="#2196F3"/><circle cx="300.0" cy="120.4" r="3" fill="#2196F3"/><circle cx="330.0" cy="119.4" r="3" fill="#2196F3"/><circle cx="360.0" cy="121.8" r="3" fill="#2196F3"/><circle cx="390.0" cy="134.7" r="3" fill="#2196F3"/><circle cx="420.0" cy="133.4" r="3" fill="#2196F3"/><circle cx="450.0" cy="126.9" r="3" fill="#2196F3"/><circle cx="480.0" cy="121.0" r="3" fill="#2196F3"/><rect x="490" y="62" width="10" height="10" fill="#2196F3"/><text x="504" y="71" font-family="system-ui, -apple-system, sans-serif" font-size="10" fill="#333">gemini</text><polyline fill="none" stroke="#FF9800" stroke-width="2" points="60.0,72.6 90.0,95.7 120.0,100.7 150.0,67.0 180.0,94.9 210.0,46.5 240.0,88.5 270.0,72.3 300.0,81.2 330.0,92.7 360.0,101.3 390.0,87.3 420.0,78.7 450.0,117.6 480.0,98.1"/><circle cx="60.0" cy="72.6" r="3" fill="#FF9800"/><circle cx="90.0" cy="95.7" r="3" fill="#FF9800"/><circle cx="120.0" cy="100.7" r="3" fill="#FF9800"/><circle cx="150.0" cy="67.0" r="3" fill="#FF9800"/><circle cx="180.0" cy="94.9" r="3" fill="#FF9800"/><circle cx="210.0" cy="46.5" r="3" fill="#FF9800"/><circle cx="240.0" cy="88.5" r="3" fill="#FF9800"/><circle cx="270.0" cy="72.3" r="3" fill="#FF9800"/><circle cx="300.0" cy="81.2" r="3" fill="#FF9800"/><circle cx="330.0" cy="92.7" r="3" fill="#FF9800"/><circle cx="360.0" cy="101.3" r="3" fill="#FF9800"/><circle cx="390.0" cy="87.3" r="3" fill="#FF9800"/><circle cx="420.0" cy="78.7" r="3" fill="#FF9800"/><circle cx="450.0" cy="117.6" r="3" fill="#FF9800"/><circle cx="480.0" cy="98.1" r="3" fill="#FF9800"/><rect x="490" y="80" width="10" height="10" fill="#FF9800"/><text x="504" y="89" font-family="system-ui, -apple-system, sans-serif" font-size="10" fill="#333">anthropic</text><polyline fill="none" stroke="#E91E63" stroke-width="2" points="60.0,121.4 90.0,111.6 120.0,40.0 150.0,129.1 180.0,124.1 210.0,127.3 240.0,115.5 270.0,115.1 300.0,111.3 330.0,118.9 360.0,111.3 390.0,112.2 420.0,114.3 450.0,121.8 480.0,106.2"/><circle cx="60.0" cy="121.4" r="3" fill="#E91E63"/><circle cx="90.0" cy="111.6" r="3" fill="#E91E63"/><circle cx="120.0" cy="40.0" r="3" fill="#E91E63"/><circle cx="150.0" cy="129.1" r="3" fill="#E91E63"/><circle cx="180.0" cy="124.1" r="3" fill="#E91E63"/><circle cx="210.0" cy="127.3" r="3" fill="#E91E63"/><circle cx="240.0" cy="115.5" r="3" fill="#E91E63"/><circle cx="270.0" cy="115.1" r="3" fill="#E91E63"/><circle cx="300.0" cy="111.3" r="3" fill="#E91E63"/><circle cx="330.0" cy="118.9" r="3" fill="#E91E63"/><circle cx="360.0" cy="111.3" r="3" fill="#E91E63"/><circle cx="390.0" cy="112.2" r="3" fill="#E91E63"/><circle cx="420.0" cy="114.3" r="3" fill="#E91E63"/><circle cx="450.0" cy="121.8" r="3" fill="#E91E63"/><circle cx="480.0" cy="106.2" r="3" fill="#E91E63"/><rect x="490" y="98" width="10" height="10" fill="#E91E63"/><text x="504" y="107" font-family="system-ui, -apple-system, sans-serif" font-size="10" fill="#333">mistral</text><polyline fill="none" stroke="#9C27B0" stroke-width="2" points="60.0,179.5 90.0,190.0 120.0,193.5 150.0,176.9 180.0,184.4 210.0,194.7 240.0,190.0 270.0,183.0 300.0,186.4 330.0,193.0 360.0,186.3 390.0,183.7 420.0,188.2 450.0,171.2 480.0,189.5"/><circle cx="60.0" cy="179.5" r="3" fill="#9C27B0"/><circle cx="90.0" cy="190.0" r="3" fill="#9C27B0"/><circle cx="120.0" cy="193.5" r="3" fill="#9C27B0"/><circle cx="150.0" cy="176.9" r="3" fill="#9C27B0"/><circle cx="180.0" cy="184.4" r="3" fill="#9C27B0"/><circle cx="210.0" cy="194.7" r="3" fill="#9C27B0"/><circle cx="240.0" cy="190.0" r="3" fill="#9C27B0"/><circle cx="270.0" cy="183.0" r="3" fill="#9C27B0"/><circle cx="300.0" cy="186.4" r="3" fill="#9C27B0"/><circle cx="330.0" cy="193.0" r="3" fill="#9C27B0"/><circle cx="360.0" cy="186.3" r="3" fill="#9C27B0"/><circle cx="390.0" cy="183.7" r="3" fill="#9C27B0"/><circle cx="420.0" cy="188.2" r="3" fill="#9C27B0"/><circle cx="450.0" cy="171.2" r="3" fill="#9C27B0"/><circle cx="480.0" cy="189.5" r="3" fill="#9C27B0"/><rect x="490" y="116" width="10" height="10" fill="#9C27B0"/><text x="504" y="125" font-family="system-ui, -apple-system, sans-serif" font-size="10" fill="#333">llama</text><polyline fill="none" stroke="#00BCD4" stroke-width="2" points="300.0,239.0 330.0,239.1 360.0,239.8 390.0,238.6 420.0,238.8 450.0,233.0 480.0,240.0"/><circle cx="300.0" cy="239.0" r="3" fill="#00BCD4"/><circle cx="330.0" cy="239.1" r="3" fill="#00BCD4"/><circle cx="360.0" cy="239.8" r="3" fill="#00BCD4"/><circle cx="390.0" cy="238.6" r="3" fill="#00BCD4"/><circle cx="420.0" cy="238.8" r="3" fill="#00BCD4"/><circle cx="450.0" cy="233.0" r="3" fill="#00BCD4"/><circle cx="480.0" cy="240.0" r="3" fill="#00BCD4"/><rect x="490" y="134" width="10" height="10" fill="#00BCD4"/><text x="504" y="143" font-family="system-ui, -apple-system, sans-serif" font-size="10" fill="#333">deepseek</text><text x="60.0" y="256.0" text-anchor="middle" font-family="system-ui, -apple-system, sans-serif" font-size="9" fill="#666">71825113</text><text x="90.0" y="256.0" text-anchor="middle" font-family="system-ui, -apple-system, sans-serif" font-size="9" fill="#666">75010794</text><text x="120.0" y="256.0" text-anchor="middle" font-family="system-ui, -apple-system, sans-serif" font-size="9" fill="#666">76301827</text><text x="150.0" y="256.0" text-anchor="middle" font-family="system-ui, -apple-system, sans-serif" font-size="9" fill="#666">97386462</text><text x="180.0" y="256.0" text-anchor="middle" font-family="system-ui, -apple-system, sans-serif" font-size="9" fill="#666">00118301</text><text x="210.0" y="256.0" text-anchor="middle" font-family="system-ui, -apple-system, sans-serif" font-size="9" fill="#666">07642311</text><text x="240.0" y="256.0" text-anchor="middle" font-family="system-ui, -apple-system, sans-serif" font-size="9" fill="#666">31919473</text><text x="270.0" y="256.0" text-anchor="middle" font-family="system-ui, -apple-system, sans-serif" font-size="9" fill="#666">33376499</text><text x="300.0" y="256.0" text-anchor="middle" font-family="system-ui, -apple-system, sans-serif" font-size="9" fill="#666">49559976</text><text x="330.0" y="256.0" text-anchor="middle" font-family="system-ui, -apple-system, sans-serif" font-size="9" fill="#666">51938981</text><text x="360.0" y="256.0" text-anchor="middle" font-family="system-ui, -apple-system, sans-serif" font-size="9" fill="#666">53749546</text><text x="390.0" y="256.0" text-anchor="middle" font-family="system-ui, -apple-system, sans-serif" font-size="9" fill="#666">54994841</text><text x="420.0" y="256.0" text-anchor="middle" font-family="system-ui, -apple-system, sans-serif" font-size="9" fill="#666">73723278</text><text x="450.0" y="256.0" text-anchor="middle" font-family="system-ui, -apple-system, sans-serif" font-size="9" fill="#666">74446787</text><text x="480.0" y="256.0" text-anchor="middle" font-family="system-ui, -apple-system, sans-serif" font-size="9" fill="#666">75063969</text></svg>
