<svg xmlns="http://www.w3.org/2000/svg" viewBox="0 0 600 300" width="600" height="300" role="img" aria-label="Cost per test by provider over runs ($)"><text x="300.0" y="24" text-anchor="middle" font-family="system-ui, -apple-system, sans-serif" font-size="14" font-weight="600" fill="#333">Cost per test by provider over runs ($)</text><line x1="60" y1="240.0" x2="480" y2="240.0" stroke="#eee" stroke-width="1"/><text x="54" y="244.0" text-anchor="end" font-family="system-ui, -apple-system, sans-serif" font-size="9" fill="#999">0.007197</text><line x1="60" y1="140.0" x2="480" y2="140.0" stroke="#eee" stroke-width="1"/><text x="54" y="144.0" text-anchor="end" font-family="system-ui, -apple-system, sans-serif" font-size="9" fill="#999">0.08167</text><line x1="60" y1="40.0" x2="480" y2="40.0" stroke="#eee" stroke-width="1"/><text x="54" y="44.0" text-anchor="end" font-family="system-ui, -apple-system, sans-serif" font-size="9" fill="#999">0.1561</text><polyline fill="none" stroke="#4CAF50" stroke-width="2" points="60.0,141.8 77.5,142.3 95.0,106.4 112.5,144.1 130.0,138.9 147.5,140.8 165.0,140.9 182.5,137.9 200.0,140.5 217.5,140.1 235.0,80.0 252.5,136.1 270.0,140.2 287.5,140.5 305.0,135.0 322.5,93.8 340.0,133.9 357.5,140.6 375.0,113.7 392.5,136.4 410.0,134.8 427.5,140.9 445.0,121.5 462.5,138.0 480.0,40.0"/><circle cx="60.0" cy="141.8" r="3" fill="#4CAF50"/><circle cx="77.5" cy="142.3" r="3" fill="#4CAF50"/><circle cx="95.0" cy="106.4" r="3" fill="#4CAF50"/><circle cx="112.5" cy="144.1" r="3" fill="#4CAF50"/><circle cx="130.0" cy="138.9" r="3" fill="#4CAF50"/><circle cx="147.5" cy="140.8" r="3" fill="#4CAF50"/><circle cx="165.0" cy="140.9" r="3" fill="#4CAF50"/><circle cx="182.5" cy="137.9" r="3" fill="#4CAF50"/><circle cx="200.0" cy="140.5" r="3" fill="#4CAF50"/><circle cx="217.5" cy="140.1" r="3" fill="#4CAF50"/><circle cx="235.0" cy="80.0" r="3" fill="#4CAF50"/><circle cx="252.5" cy="136.1" r="3" fill="#4CAF50"/><circle cx="270.0" cy="140.2" r="3" fill="#4CAF50"/><circle cx="287.5" cy="140.5" r="3" fill="#4CAF50"/><circle cx="305.0" cy="135.0" r="3" fill="#4CAF50"/><circle cx="322.5" cy="93.8" r="3" fill="#4CAF50"/><circle cx="340.0" cy="133.9" r="3" fill="#4CAF50"/><circle cx="357.5" cy="140.6" r="3" fill="#4CAF50"/><circle cx="375.0" cy="113.7" r="3" fill="#4CAF50"/><circle cx="392.5" cy="136.4" r="3" fill="#4CAF50"/><circle cx="410.0" cy="134.8" r="3" fill="#4CAF50"/><circle cx="427.5" cy="140.9" r="3" fill="#4CAF50"/><circle cx="445.0" cy="121.5" r="3" fill="#4CAF50"/><circle cx="462.5" cy="138.0" r="3" fill="#4CAF50"/><circle cx="480.0" cy="40.0" r="3" fill="#4CAF50"/><rect x="490" y="44" width="10" height="10" fill="#4CAF50"/><text x="504" y="53" font-family="system-ui, -apple-system, sans-serif" font-size="10" fill="#333">openai</text><polyline fill="none" stroke="#2196F3" stroke-width="2" points="60.0,143.4 77.5,149.4 95.0,143.1 112.5,145.8 130.0,151.8 147.5,139.6 165.0,145.6 182.5,141.5 200.0,141.5 217.5,140.7 235.0,142.6 252.5,153.3 270.0,152.2 287.5,146.8 305.0,141.9 322.5,142.2 340.0,116.6 357.5,142.0 375.0,114.7 392.5,122.7 410.0,135.5 427.5,130.6 445.0,145.2 462.5,124.2 480.0,141.8"/><circle cx="60.0" cy="143.4" r="3" fill="#2196F3"/><circle cx="77.5" cy="149.4" r="3" fill="#2196F3"/><circle cx="95.0" cy="143.1" r="3" fill="#2196F3"/><circle cx="112.5" cy="145.8" r="3" fill="#2196F3"/><circle cx="130.0" cy="151.8" r="3" fill="#2196F3"/><circle cx="147.5" cy="139.6" r="3" fill="#2196F3"/><circle cx="165.0" cy="145.6" r="3" fill="#2196F3"/><circle cx="182.5" cy="141.5" r="3" fill="#2196F3"/><circle cx="200.0" cy="141.5" r="3" fill="#2196F3"/><circle cx="217.5" cy="140.7" r="3" fill="#2196F3"/><circle cx="235.0" cy="142.6" r="3" fill="#2196F3"/><circle cx="252.5" cy="153.3" r="3" fill="#2196F3"/><circle cx="270.0" cy="152.2" r="3" fill="#2196F3"/><circle cx="287.5" cy="146.8" r="3" fill="#2196F3"/><circle cx="305.0" cy="141.9" r="3" fill="#2196F3"/><circle cx="322.5" cy="142.2" r="3" fill="#2196F3"/><circle cx="340.0" cy="116.6" r="3" fill="#2196F3"/><circle cx="357.5" cy="142.0" r="3" fill="#2196F3"/><circle cx="375.0" cy="114.7" r="3" fill="#2196F3"/><circle cx="392.5" cy="122.7" r="3" fill="#2196F3"/><circle cx="410.0" cy="135.5" r="3" fill="#2196F3"/><circle cx="427.5" cy="130.6" r="3" fill="#2196F3"/><circle cx="445.0" cy="145.2" r="3" fill="#2196F3"/><circle cx="462.5" cy="124.2" r="3" fill="#2196F3"/><circle cx="480.0" cy="141.8" r="3" fill="#2196F3"/><rect x="490" y="62" width="10" height="10" fill="#2196F3"/><text x="504" y="71" font-family="system-ui, -apple-system, sans-serif" font-size="10" fill="#333">gemini</text><polyline fill="none" stroke="#FF9800" stroke-width="2" points="60.0,102.1 77.5,121.1 95.0,125.3 112.5,97.5 130.0,120.5 147.5,80.6 165.0,115.2 182.5,101.9 200.0,109.2 217.5,118.7 235.0,125.8 252.5,114.2 270.0,107.2 287.5,139.1 305.0,123.1 322.5,120.9 340.0,110.3 375.0,112.2 392.5,124.4 410.0,98.5 427.5,127.8 445.0,122.4 462.5,111.2 480.0,121.0"/><circle cx="60.0" cy="102.1" r="3" fill="#FF9800"/><circle cx="77.5" cy="121.1" r="3" fill="#FF9800"/><circle cx="95.0" cy="125.3" r="3" fill="#FF9800"/><circle cx="112.5" cy="97.5" r="3" fill="#FF9800"/><circle cx="130.0" cy="120.5" r="3" fill="#FF9800"/><circle cx="147.5" cy="80.6" r="3" fill="#FF9800"/><circle cx="165.0" cy="115.2" r="3" fill="#FF9800"/><circle cx="182.5" cy="101.9" r="3" fill="#FF9800"/><circle cx="200.0" cy="109.2" r="3" fill="#FF9800"/><circle cx="217.5" cy="118.7" r="3" fill="#FF9800"/><circle cx="235.0" cy="125.8" r="3" fill="#FF9800"/><circle cx="252.5" cy="114.2" r="3" fill="#FF9800"/><circle cx="270.0" cy="107.2" r="3" fill="#FF9800"/><circle cx="287.5" cy="139.1" r="3" fill="#FF9800"/><circle cx="305.0" cy="123.1" r="3" fill="#FF9800"/><circle cx="322.5" cy="120.9" r="3" fill="#FF9800"/><circle cx="340.0" cy="110.3" r="3" fill="#FF9800"/><circle cx="375.0" cy="112.2" r="3" fill="#FF9800"/><circle cx="392.5" cy="124.4" r="3" fill="#FF9800"/><circle cx="410.0" cy="98.5" r="3" fill="#FF9800"/><circle cx="427.5" cy="127.8" r="3" fill="#FF9800"/><circle cx="445.0" cy="122.4" r="3" fill="#FF9800"/><circle cx="462.5" cy="111.2" r="3" fill="#FF9800"/><circle cx="480.0" cy="121.0" r="3" fill="#FF9800"/><rect x="490" y="80" width="10" height="10" fill="#FF9800"/><text x="504" y="89" font-family="system-ui, -apple-system, sans-serif" font-size="10" fill="#333">anthropic</text><polyline fill="none" stroke="#E91E63" stroke-width="2" points="60.0,142.3 77.5,134.2 95.0,75.2 112.5,148.6 130.0,144.6 147.5,147.1 165.0,137.4 182.5,137.1 200.0,134.0 217.5,140.2 235.0,134.0 252.5,134.7 270.0,136.5 287.5,142.6 305.0,129.8 322.5,141.3 340.0,135.9 357.5,139.7 375.0,149.9 392.5,142.4 410.0,146.8 427.5,143.9 445.0,94.4 462.5,144.4 480.0,146.1"/><circle cx="60.0" cy="142.3" r="3" fill="#E91E63"/><circle cx="77.5" cy="134.2" r="3" fill="#E91E63"/><circle cx="95.0" cy="75.2" r="3" fill="#E91E63"/><circle cx="112.5" cy="148.6" r="3" fill="#E91E63"/><circle cx="130.0" cy="144.6" r="3" fill="#E91E63"/><circle cx="147.5" cy="147.1" r="3" fill="#E91E63"/><circle cx="165.0" cy="137.4" r="3" fill="#E91E63"/><circle cx="182.5" cy="137.1" r="3" fill="#E91E63"/><circle cx="200.0" cy="134.0" r="3" fill="#E91E63"/><circle cx="217.5" cy="140.2" r="3" fill="#E91E63"/><circle cx="235.0" cy="134.0" r="3" fill="#E91E63"/><circle cx="252.5" cy="134.7" r="3" fill="#E91E63"/><circle cx="270.0" cy="136.5" r="3" fill="#E91E63"/><circle cx="287.5" cy="142.6" r="3" fill="#E91E63"/><circle cx="305.0" cy="129.8" r="3" fill="#E91E63"/><circle cx="322.5" cy="141.3" r="3" fill="#E91E63"/><circle cx="340.0" cy="135.9" r="3" fill="#E91E63"/><circle cx="357.5" cy="139.7" r="3" fill="#E91E63"/><circle cx="375.0" cy="149.9" r="3" fill="#E91E63"/><circle cx="392.5" cy="142.4" r="3" fill="#E91E63"/><circle cx="410.0" cy="146.8" r="3" fill="#E91E63"/><circle cx="427.5" cy="143.9" r="3" fill="#E91E63"/><circle cx="445.0" cy="94.4" r="3" fill="#E91E63"/><circle cx="462.5" cy="144.4" r="3" fill="#E91E63"/><circle cx="480.0" cy="146.1" r="3" fill="#E91E63"/><rect x="490" y="98" width="10" height="10" fill="#E91E63"/><text x="504" y="107" font-family="system-ui, -apple-system, sans-serif" font-size="10" fill="#333">mistral</text><polyline fill="none" stroke="#9C27B0" stroke-width="2" points="60.0,190.1 77.5,198.8 95.0,201.7 112.5,188.0 130.0,194.2 147.5,202.7 165.0,198.8 182.5,193.1 200.0,195.8 217.5,201.2 235.0,195.7 252.5,193.6 270.0,197.3 287.5,183.3 305.0,198.4 322.5,193.5 340.0,200.8 357.5,201.2 375.0,184.1 392.5,194.7 410.0,171.9 427.5,200.2 445.0,202.6 462.5,192.6 480.0,190.9"/><circle cx="60.0" cy="190.1" r="3" fill="#9C27B0"/><circle cx="77.5" cy="198.8" r="3" fill="#9C27B0"/><circle cx="95.0" cy="201.7" r="3" fill="#9C27B0"/><circle cx="112.5" cy="188.0" r="3" fill="#9C27B0"/><circle cx="130.0" cy="194.2" r="3" fill="#9C27B0"/><circle cx="147.5" cy="202.7" r="3" fill="#9C27B0"/><circle cx="165.0" cy="198.8" r="3" fill="#9C27B0"/><circle cx="182.5" cy="193.1" r="3" fill="#9C27B0"/><circle cx="200.0" cy="195.8" r="3" fill="#9C27B0"/><circle cx="217.5" cy="201.2" r="3" fill="#9C27B0"/><circle cx="235.0" cy="195.7" r="3" fill="#9C27B0"/><circle cx="252.5" cy="193.6" r="3" fill="#9C27B0"/><circle cx="270.0" cy="197.3" r="3" fill="#9C27B0"/><circle cx="287.5" cy="183.3" r="3" fill="#9C27B0"/><circle cx="305.0" cy="198.4" r="3" fill="#9C27B0"/><circle cx="322.5" cy="193.5" r="3" fill="#9C27B0"/><circle cx="340.0" cy="200.8" r="3" fill="#9C27B0"/><circle cx="357.5" cy="201.2" r="3" fill="#9C27B0"/><circle cx="375.0" cy="184.1" r="3" fill="#9C27B0"/><circle cx="392.5" cy="194.7" r="3" fill="#9C27B0"/><circle cx="410.0" cy="171.9" r="3" fill="#9C27B0"/><circle cx="427.5" cy="200.2" r="3" fill="#9C27B0"/><circle cx="445.0" cy="202.6" r="3" fill="#9C27B0"/><circle cx="462.5" cy="192.6" r="3" fill="#9C27B0"/><circle cx="480.0" cy="190.9" r="3" fill="#9C27B0"/><rect x="490" y="116" width="10" height="10" fill="#9C27B0"/><text x="504" y="125" font-family="system-ui, -apple-system, sans-serif" font-size="10" fill="#333">llama</text><polyline fill="none" stroke="#00BCD4" stroke-width="2" points="200.0,239.2 217.5,239.3 235.0,239.8 252.5,238.8 270.0,239.0 287.5,234.2 305.0,240.0 322.5,237.9 340.0,237.9 357.5,237.6 375.0,238.9 392.5,237.9 410.0,235.2 427.5,238.1 445.0,235.5 462.5,240.0 480.0,238.2"/><circle cx="200.0" cy="239.2" r="3" fill="#00BCD4"/><circle cx="217.5" cy="239.3" r="3" fill="#00BCD4"/><circle cx="235.0" cy="239.8" r="3" fill="#00BCD4"/><circle cx="252.5" cy="238.8" r="3" fill="#00BCD4"/><circle cx="270.0" cy="239.0" r="3" fill="#00BCD4"/><circle cx="287.5" cy="234.2" r="3" fill="#00BCD4"/><circle cx="305.0" cy="240.0" r="3" fill="#00BCD4"/><circle cx="322.5" cy="237.9" r="3" fill="#00BCD4"/><circle cx="340.0" cy="237.9" r="3" fill="#00BCD4"/><circle cx="357.5" cy="237.6" r="3" fill="#00BCD4"/><circle cx="375.0" cy="238.9" r="3" fill="#00BCD4"/><circle cx="392.5" cy="237.9" r="3" fill="#00BCD4"/><circle cx="410.0" cy="235.2" r="3" fill="#00BCD4"/><circle cx="427.5" cy="238.1" r="3" fill="#00BCD4"/><circle cx="445.0" cy="235.5" r="3" fill="#00BCD4"/><circle cx="462.5" cy="240.0" r="3" fill="#00BCD4"/><circle cx="480.0" cy="238.2" r="3" fill="#00BCD4"/><rect x="490" y="134" width="10" height="10" fill="#00BCD4"/><text x="504" y="143" font-family="system-ui, -apple-system, sans-serif" font-size="10" fill="#333">deepseek</text><text x="60.0" y="256.0" text-anchor="middle" font-family="system-ui, -apple-system, sans-serif" font-size="9" fill="#666">71825113</text><text x="95.0" y="256.0" text-anchor="middle" font-family="system-ui, -apple-system, sans-serif" font-size="9" fill="#666">76301827</text><text x="130.0" y="256.0" text-anchor="middle" font-family="system-ui, -apple-system, sans-serif" font-size="9" fill="#666">00118301</text><text x="165.0" y="256.0" text-anchor="middle" font-family="system-ui, -apple-system, sans-serif" font-size="9" fill="#666">31919473</text><text x="200.0" y="256.0" text-anchor="middle" font-family="system-ui, -apple-system, sans-serif" font-size="9" fill="#666">49559976</text><text x="235.0" y="256.0" text-anchor="middle" font-family="system-ui, -apple-system, sans-serif" font-size="9" fill="#666">53749546</text><text x="270.0" y="256.0" text-anchor="middle" font-family="system-ui, -apple-system, sans-serif" font-size="9" fill="#666">73723278</text><text x="305.0" y="256.0" text-anchor="middle" font-family="system-ui, -apple-system, sans-serif" font-size="9" fill="#666">75063969</text><text x="340.0" y="256.0" text-anchor="middle" font-family="system-ui, -apple-system, sans-serif" font-size="9" fill="#666">76005435</text><text x="375.0" y="256.0" text-anchor="middle" font-family="system-ui, -apple-system, sans-serif" font-size="9" fill="#666">39719442</text><text x="410.0" y="256.0" text-anchor="middle" font-family="system-ui, -apple-system, sans-serif" font-size="9" fill="#666">41747041</text><text x="445.0" y="256.0" text-anchor="middle" font-family="system-ui, -apple-system, sans-serif" font-size="9" fill="#666">11556178</text><text x="480.0" y="256.0" text-anchor="middle" font-family="system-ui, -apple-system, sans-serif" font-size="9" fill="#666">34092480</text></svg>
