<svg xmlns="http://www.w3.org/2000/svg" viewBox="0 0 760 348" width="760" height="348" role="img" aria-label="Cost per test by provider over runs — openai highest, deepseek lowest" font-family="-apple-system,BlinkMacSystemFont,'Segoe UI',system-ui,sans-serif"><line x1="56" y1="306" x2="642" y2="306" stroke="#30363d" stroke-width="1"></line><text x="46" y="310" font-size="9.5" font-weight="400" text-anchor="end" fill="#8b949e" font-family="ui-monospace,SFMono-Regular,Menlo,monospace">$0.000</text><line x1="56" y1="235" x2="642" y2="235" stroke="#30363d" stroke-width="1"></line><text x="46" y="239" font-size="9.5" font-weight="400" text-anchor="end" fill="#8b949e" font-family="ui-monospace,SFMono-Regular,Menlo,monospace">$0.044</text><line x1="56" y1="164" x2="642" y2="164" stroke="#30363d" stroke-width="1"></line><text x="46" y="168" font-size="9.5" font-weight="400" text-anchor="end" fill="#8b949e" font-family="ui-monospace,SFMono-Regular,Menlo,monospace">$0.087</text><line x1="56" y1="93" x2="642" y2="93" stroke="#30363d" stroke-width="1"></line><text x="46" y="97" font-size="9.5" font-weight="400" text-anchor="end" fill="#8b949e" font-family="ui-monospace,SFMono-Regular,Menlo,monospace">$0.131</text><line x1="56" y1="22" x2="642" y2="22" stroke="#30363d" stroke-width="1"></line><text x="46" y="26" font-size="9.5" font-weight="400" text-anchor="end" fill="#8b949e" font-family="ui-monospace,SFMono-Regular,Menlo,monospace">$0.175</text><text x="56" y="324" font-size="9.5" font-weight="400" text-anchor="middle" fill="#8b949e" font-family="ui-monospace,SFMono-Regular,Menlo,monospace">06/06</text><text x="113.17" y="324" font-size="9.5" font-weight="400" text-anchor="middle" fill="#8b949e" font-family="ui-monospace,SFMono-Regular,Menlo,monospace">06/07</text><text x="170.34" y="324" font-size="9.5" font-weight="400" text-anchor="middle" fill="#8b949e" font-family="ui-monospace,SFMono-Regular,Menlo,monospace">06/08</text><text x="227.51" y="324" font-size="9.5" font-weight="400" text-anchor="middle" fill="#8b949e" font-family="ui-monospace,SFMono-Regular,Menlo,monospace">06/08</text><text x="284.68" y="324" font-size="9.5" font-weight="400" text-anchor="middle" fill="#8b949e" font-family="ui-monospace,SFMono-Regular,Menlo,monospace">06/09</text><text x="341.85" y="324" font-size="9.5" font-weight="400" text-anchor="middle" fill="#8b949e" font-family="ui-monospace,SFMono-Regular,Menlo,monospace">06/09</text><text x="399.02" y="324" font-size="9.5" font-weight="400" text-anchor="middle" fill="#8b949e" font-family="ui-monospace,SFMono-Regular,Menlo,monospace">06/12</text><text x="456.2" y="324" font-size="9.5" font-weight="400" text-anchor="middle" fill="#8b949e" font-family="ui-monospace,SFMono-Regular,Menlo,monospace">06/14</text><text x="513.37" y="324" font-size="9.5" font-weight="400" text-anchor="middle" fill="#8b949e" font-family="ui-monospace,SFMono-Regular,Menlo,monospace">06/14</text><text x="570.54" y="324" font-size="9.5" font-weight="400" text-anchor="middle" fill="#8b949e" font-family="ui-monospace,SFMono-Regular,Menlo,monospace">06/15</text><text x="627.71" y="324" font-size="9.5" font-weight="400" text-anchor="middle" fill="#8b949e" font-family="ui-monospace,SFMono-Regular,Menlo,monospace">06/16</text><text x="642" y="324" font-size="9.5" font-weight="400" text-anchor="middle" fill="#8b949e" font-family="ui-monospace,SFMono-Regular,Menlo,monospace">06/16</text><polyline fill="none" stroke="#6366F1" stroke-width="2.4" stroke-linejoin="round" stroke-linecap="round" points="170.34,293.36 184.63,293.43 198.93,294.1 213.22,292.89 227.51,293.14 241.8,287.31 256.1,294.31 270.39,291.77 284.68,291.82 298.98,291.36 313.27,293.02 327.56,291.8 341.85,288.55 356.15,292.06 370.44,288.85 384.73,294.29 399.02,292.11 413.32,288.48 427.61,285.75 441.9,292.13 456.2,291.04 470.49,293.66 484.78,290.08 499.07,286.94 513.37,292.77 527.66,291.68 541.95,292.47 556.24,291.27 584.83,290.7 599.12,292.91 613.41,293.34 627.71,290.78 642,290.99"></polyline><circle cx="170.34" cy="293.36" r="2.6" fill="#6366F1"></circle><circle cx="184.63" cy="293.43" r="2.6" fill="#6366F1"></circle><circle cx="198.93" cy="294.1" r="2.6" fill="#6366F1"></circle><circle cx="213.22" cy="292.89" r="2.6" fill="#6366F1"></circle><circle cx="227.51" cy="293.14" r="2.6" fill="#6366F1"></circle><circle cx="241.8" cy="287.31" r="2.6" fill="#6366F1"></circle><circle cx="256.1" cy="294.31" r="2.6" fill="#6366F1"></circle><circle cx="270.39" cy="291.77" r="2.6" fill="#6366F1"></circle><circle cx="284.68" cy="291.82" r="2.6" fill="#6366F1"></circle><circle cx="298.98" cy="291.36" r="2.6" fill="#6366F1"></circle><circle cx="313.27" cy="293.02" r="2.6" fill="#6366F1"></circle><circle cx="327.56" cy="291.8" r="2.6" fill="#6366F1"></circle><circle cx="341.85" cy="288.55" r="2.6" fill="#6366F1"></circle><circle cx="356.15" cy="292.06" r="2.6" fill="#6366F1"></circle><circle cx="370.44" cy="288.85" r="2.6" fill="#6366F1"></circle><circle cx="384.73" cy="294.29" r="2.6" fill="#6366F1"></circle><circle cx="399.02" cy="292.11" r="2.6" fill="#6366F1"></circle><circle cx="413.32" cy="288.48" r="2.6" fill="#6366F1"></circle><circle cx="427.61" cy="285.75" r="2.6" fill="#6366F1"></circle><circle cx="441.9" cy="292.13" r="2.6" fill="#6366F1"></circle><circle cx="456.2" cy="291.04" r="2.6" fill="#6366F1"></circle><circle cx="470.49" cy="293.66" r="2.6" fill="#6366F1"></circle><circle cx="484.78" cy="290.08" r="2.6" fill="#6366F1"></circle><circle cx="499.07" cy="286.94" r="2.6" fill="#6366F1"></circle><circle cx="513.37" cy="292.77" r="2.6" fill="#6366F1"></circle><circle cx="527.66" cy="291.68" r="2.6" fill="#6366F1"></circle><circle cx="541.95" cy="292.47" r="2.6" fill="#6366F1"></circle><circle cx="556.24" cy="291.27" r="2.6" fill="#6366F1"></circle><circle cx="584.83" cy="290.7" r="2.6" fill="#6366F1"></circle><circle cx="599.12" cy="292.91" r="2.6" fill="#6366F1"></circle><circle cx="613.41" cy="293.34" r="2.6" fill="#6366F1"></circle><circle cx="627.71" cy="290.78" r="2.6" fill="#6366F1"></circle><circle cx="642" cy="290.99" r="2.6" fill="#6366F1"></circle><polyline fill="none" stroke="#A371F7" stroke-width="2.4" stroke-linejoin="round" stroke-linecap="round" points="56,234.02 70.29,244.52 84.59,248 98.88,231.43 113.17,238.89 127.46,249.23 141.76,244.46 156.05,237.54 170.34,240.86 184.63,247.44 198.93,240.79 213.22,238.23 227.51,242.67 241.8,225.79 256.1,243.99 270.39,238.04 284.68,246.87 298.98,247.42 313.27,226.74 327.56,239.47 341.85,211.96 356.15,246.23 370.44,249.04 384.73,237.01 399.02,234.98 413.32,238.5 427.61,240.35 441.9,237.84 456.2,246.71 470.49,242.24 484.78,238.34 499.07,244.61 513.37,248.91 527.66,226.53 541.95,244.07 556.24,245.89 584.83,225.3 599.12,246.26 613.41,237.6 642,238.19"></polyline><circle cx="56" cy="234.02" r="2.6" fill="#A371F7"></circle><circle cx="70.29" cy="244.52" r="2.6" fill="#A371F7"></circle><circle cx="84.59" cy="248" r="2.6" fill="#A371F7"></circle><circle cx="98.88" cy="231.43" r="2.6" fill="#A371F7"></circle><circle cx="113.17" cy="238.89" r="2.6" fill="#A371F7"></circle><circle cx="127.46" cy="249.23" r="2.6" fill="#A371F7"></circle><circle cx="141.76" cy="244.46" r="2.6" fill="#A371F7"></circle><circle cx="156.05" cy="237.54" r="2.6" fill="#A371F7"></circle><circle cx="170.34" cy="240.86" r="2.6" fill="#A371F7"></circle><circle cx="184.63" cy="247.44" r="2.6" fill="#A371F7"></circle><circle cx="198.93" cy="240.79" r="2.6" fill="#A371F7"></circle><circle cx="213.22" cy="238.23" r="2.6" fill="#A371F7"></circle><circle cx="227.51" cy="242.67" r="2.6" fill="#A371F7"></circle><circle cx="241.8" cy="225.79" r="2.6" fill="#A371F7"></circle><circle cx="256.1" cy="243.99" r="2.6" fill="#A371F7"></circle><circle cx="270.39" cy="238.04" r="2.6" fill="#A371F7"></circle><circle cx="284.68" cy="246.87" r="2.6" fill="#A371F7"></circle><circle cx="298.98" cy="247.42" r="2.6" fill="#A371F7"></circle><circle cx="313.27" cy="226.74" r="2.6" fill="#A371F7"></circle><circle cx="327.56" cy="239.47" r="2.6" fill="#A371F7"></circle><circle cx="341.85" cy="211.96" r="2.6" fill="#A371F7"></circle><circle cx="356.15" cy="246.23" r="2.6" fill="#A371F7"></circle><circle cx="370.44" cy="249.04" r="2.6" fill="#A371F7"></circle><circle cx="384.73" cy="237.01" r="2.6" fill="#A371F7"></circle><circle cx="399.02" cy="234.98" r="2.6" fill="#A371F7"></circle><circle cx="413.32" cy="238.5" r="2.6" fill="#A371F7"></circle><circle cx="427.61" cy="240.35" r="2.6" fill="#A371F7"></circle><circle cx="441.9" cy="237.84" r="2.6" fill="#A371F7"></circle><circle cx="456.2" cy="246.71" r="2.6" fill="#A371F7"></circle><circle cx="470.49" cy="242.24" r="2.6" fill="#A371F7"></circle><circle cx="484.78" cy="238.34" r="2.6" fill="#A371F7"></circle><circle cx="499.07" cy="244.61" r="2.6" fill="#A371F7"></circle><circle cx="513.37" cy="248.91" r="2.6" fill="#A371F7"></circle><circle cx="527.66" cy="226.53" r="2.6" fill="#A371F7"></circle><circle cx="541.95" cy="244.07" r="2.6" fill="#A371F7"></circle><circle cx="556.24" cy="245.89" r="2.6" fill="#A371F7"></circle><circle cx="584.83" cy="225.3" r="2.6" fill="#A371F7"></circle><circle cx="599.12" cy="246.26" r="2.6" fill="#A371F7"></circle><circle cx="613.41" cy="237.6" r="2.6" fill="#A371F7"></circle><circle cx="642" cy="238.19" r="2.6" fill="#A371F7"></circle><polyline fill="none" stroke="#F0A23B" stroke-width="2.4" stroke-linejoin="round" stroke-linecap="round" points="56,176.15 70.29,166.37 84.59,95.06 98.88,183.78 113.17,178.88 127.46,182.02 141.76,170.24 156.05,169.9 170.34,166.14 184.63,173.66 198.93,166.11 213.22,167.02 227.51,169.09 241.8,176.53 256.1,161.02 270.39,174.97 284.68,168.38 298.98,173 313.27,185.38 327.56,176.24 341.85,181.63 356.15,178.09 370.44,118.27 384.73,178.67 399.02,180.72 413.32,177.62 427.61,179.5 441.9,151.31 456.2,176.94 470.49,159.91 484.78,179.22 499.07,151.49 513.37,180.65 527.66,179.71 541.95,79.16 556.24,99.74 570.54,178.4 584.83,180.3 599.12,180.24 613.41,176.88 627.71,178.65 642,183.45"></polyline><circle cx="56" cy="176.15" r="2.6" fill="#F0A23B"></circle><circle cx="70.29" cy="166.37" r="2.6" fill="#F0A23B"></circle><circle cx="84.59" cy="95.06" r="2.6" fill="#F0A23B"></circle><circle cx="98.88" cy="183.78" r="2.6" fill="#F0A23B"></circle><circle cx="113.17" cy="178.88" r="2.6" fill="#F0A23B"></circle><circle cx="127.46" cy="182.02" r="2.6" fill="#F0A23B"></circle><circle cx="141.76" cy="170.24" r="2.6" fill="#F0A23B"></circle><circle cx="156.05" cy="169.9" r="2.6" fill="#F0A23B"></circle><circle cx="170.34" cy="166.14" r="2.6" fill="#F0A23B"></circle><circle cx="184.63" cy="173.66" r="2.6" fill="#F0A23B"></circle><circle cx="198.93" cy="166.11" r="2.6" fill="#F0A23B"></circle><circle cx="213.22" cy="167.02" r="2.6" fill="#F0A23B"></circle><circle cx="227.51" cy="169.09" r="2.6" fill="#F0A23B"></circle><circle cx="241.8" cy="176.53" r="2.6" fill="#F0A23B"></circle><circle cx="256.1" cy="161.02" r="2.6" fill="#F0A23B"></circle><circle cx="270.39" cy="174.97" r="2.6" fill="#F0A23B"></circle><circle cx="284.68" cy="168.38" r="2.6" fill="#F0A23B"></circle><circle cx="298.98" cy="173" r="2.6" fill="#F0A23B"></circle><circle cx="313.27" cy="185.38" r="2.6" fill="#F0A23B"></circle><circle cx="327.56" cy="176.24" r="2.6" fill="#F0A23B"></circle><circle cx="341.85" cy="181.63" r="2.6" fill="#F0A23B"></circle><circle cx="356.15" cy="178.09" r="2.6" fill="#F0A23B"></circle><circle cx="370.44" cy="118.27" r="2.6" fill="#F0A23B"></circle><circle cx="384.73" cy="178.67" r="2.6" fill="#F0A23B"></circle><circle cx="399.02" cy="180.72" r="2.6" fill="#F0A23B"></circle><circle cx="413.32" cy="177.62" r="2.6" fill="#F0A23B"></circle><circle cx="427.61" cy="179.5" r="2.6" fill="#F0A23B"></circle><circle cx="441.9" cy="151.31" r="2.6" fill="#F0A23B"></circle><circle cx="456.2" cy="176.94" r="2.6" fill="#F0A23B"></circle><circle cx="470.49" cy="159.91" r="2.6" fill="#F0A23B"></circle><circle cx="484.78" cy="179.22" r="2.6" fill="#F0A23B"></circle><circle cx="499.07" cy="151.49" r="2.6" fill="#F0A23B"></circle><circle cx="513.37" cy="180.65" r="2.6" fill="#F0A23B"></circle><circle cx="527.66" cy="179.71" r="2.6" fill="#F0A23B"></circle><circle cx="541.95" cy="79.16" r="2.6" fill="#F0A23B"></circle><circle cx="556.24" cy="99.74" r="2.6" fill="#F0A23B"></circle><circle cx="570.54" cy="178.4" r="2.6" fill="#F0A23B"></circle><circle cx="584.83" cy="180.3" r="2.6" fill="#F0A23B"></circle><circle cx="599.12" cy="180.24" r="2.6" fill="#F0A23B"></circle><circle cx="613.41" cy="176.88" r="2.6" fill="#F0A23B"></circle><circle cx="627.71" cy="178.65" r="2.6" fill="#F0A23B"></circle><circle cx="642" cy="183.45" r="2.6" fill="#F0A23B"></circle><polyline fill="none" stroke="#1F9CF0" stroke-width="2.4" stroke-linejoin="round" stroke-linecap="round" points="56,175.5 70.29,176.2 84.59,132.71 98.88,178.27 113.17,172 127.46,174.38 141.76,174.4 156.05,170.88 170.34,173.93 184.63,173.54 198.93,100.75 213.22,168.69 227.51,173.59 241.8,174.01 256.1,167.31 270.39,117.5 284.68,166.02 298.98,174.07 313.27,141.6 327.56,169.05 341.85,167.14 356.15,174.48 370.44,150.94 384.73,171.01 399.02,52.43 413.32,157.26 427.61,171.51 441.9,136.29 456.2,169.79 470.49,106.45 484.78,170.47 499.07,175.76 513.37,174.01 527.66,174.06 541.95,151.2 556.24,173.78 570.54,169.88 584.83,177.61 599.12,137.18 613.41,114.15 627.71,168.74 642,168.47"></polyline><circle cx="56" cy="175.5" r="2.6" fill="#1F9CF0"></circle><circle cx="70.29" cy="176.2" r="2.6" fill="#1F9CF0"></circle><circle cx="84.59" cy="132.71" r="2.6" fill="#1F9CF0"></circle><circle cx="98.88" cy="178.27" r="2.6" fill="#1F9CF0"></circle><circle cx="113.17" cy="172" r="2.6" fill="#1F9CF0"></circle><circle cx="127.46" cy="174.38" r="2.6" fill="#1F9CF0"></circle><circle cx="141.76" cy="174.4" r="2.6" fill="#1F9CF0"></circle><circle cx="156.05" cy="170.88" r="2.6" fill="#1F9CF0"></circle><circle cx="170.34" cy="173.93" r="2.6" fill="#1F9CF0"></circle><circle cx="184.63" cy="173.54" r="2.6" fill="#1F9CF0"></circle><circle cx="198.93" cy="100.75" r="2.6" fill="#1F9CF0"></circle><circle cx="213.22" cy="168.69" r="2.6" fill="#1F9CF0"></circle><circle cx="227.51" cy="173.59" r="2.6" fill="#1F9CF0"></circle><circle cx="241.8" cy="174.01" r="2.6" fill="#1F9CF0"></circle><circle cx="256.1" cy="167.31" r="2.6" fill="#1F9CF0"></circle><circle cx="270.39" cy="117.5" r="2.6" fill="#1F9CF0"></circle><circle cx="284.68" cy="166.02" r="2.6" fill="#1F9CF0"></circle><circle cx="298.98" cy="174.07" r="2.6" fill="#1F9CF0"></circle><circle cx="313.27" cy="141.6" r="2.6" fill="#1F9CF0"></circle><circle cx="327.56" cy="169.05" r="2.6" fill="#1F9CF0"></circle><circle cx="341.85" cy="167.14" r="2.6" fill="#1F9CF0"></circle><circle cx="356.15" cy="174.48" r="2.6" fill="#1F9CF0"></circle><circle cx="370.44" cy="150.94" r="2.6" fill="#1F9CF0"></circle><circle cx="384.73" cy="171.01" r="2.6" fill="#1F9CF0"></circle><circle cx="399.02" cy="52.43" r="2.6" fill="#1F9CF0"></circle><circle cx="413.32" cy="157.26" r="2.6" fill="#1F9CF0"></circle><circle cx="427.61" cy="171.51" r="2.6" fill="#1F9CF0"></circle><circle cx="441.9" cy="136.29" r="2.6" fill="#1F9CF0"></circle><circle cx="456.2" cy="169.79" r="2.6" fill="#1F9CF0"></circle><circle cx="470.49" cy="106.45" r="2.6" fill="#1F9CF0"></circle><circle cx="484.78" cy="170.47" r="2.6" fill="#1F9CF0"></circle><circle cx="499.07" cy="175.76" r="2.6" fill="#1F9CF0"></circle><circle cx="513.37" cy="174.01" r="2.6" fill="#1F9CF0"></circle><circle cx="527.66" cy="174.06" r="2.6" fill="#1F9CF0"></circle><circle cx="541.95" cy="151.2" r="2.6" fill="#1F9CF0"></circle><circle cx="556.24" cy="173.78" r="2.6" fill="#1F9CF0"></circle><circle cx="570.54" cy="169.88" r="2.6" fill="#1F9CF0"></circle><circle cx="584.83" cy="177.61" r="2.6" fill="#1F9CF0"></circle><circle cx="599.12" cy="137.18" r="2.6" fill="#1F9CF0"></circle><circle cx="613.41" cy="114.15" r="2.6" fill="#1F9CF0"></circle><circle cx="627.71" cy="168.74" r="2.6" fill="#1F9CF0"></circle><circle cx="642" cy="168.47" r="2.6" fill="#1F9CF0"></circle><line x1="656" y1="27" x2="672" y2="27" stroke="#6366F1" stroke-width="3" stroke-linecap="round"></line><text x="678" y="30" font-size="11" font-weight="400" text-anchor="start" fill="#e6edf3">deepseek</text><line x1="656" y1="47" x2="672" y2="47" stroke="#A371F7" stroke-width="3" stroke-linecap="round"></line><text x="678" y="50" font-size="11" font-weight="400" text-anchor="start" fill="#e6edf3">llama</text><line x1="656" y1="67" x2="672" y2="67" stroke="#F0A23B" stroke-width="3" stroke-linecap="round"></line><text x="678" y="70" font-size="11" font-weight="400" text-anchor="start" fill="#e6edf3">mistral</text><line x1="656" y1="87" x2="672" y2="87" stroke="#1F9CF0" stroke-width="3" stroke-linecap="round"></line><text x="678" y="90" font-size="11" font-weight="400" text-anchor="start" fill="#e6edf3">openai</text></svg>
