<svg xmlns="http://www.w3.org/2000/svg" viewBox="0 0 760 348" width="760" height="348" role="img" aria-label="Cost per test by provider over runs — openai highest, deepseek lowest" font-family="-apple-system,BlinkMacSystemFont,'Segoe UI',system-ui,sans-serif"><line x1="56" y1="306" x2="642" y2="306" stroke="#d8dee4" stroke-width="1"></line><text x="46" y="310" font-size="9.5" font-weight="400" text-anchor="end" fill="#656d76" font-family="ui-monospace,SFMono-Regular,Menlo,monospace">$0.000</text><line x1="56" y1="235" x2="642" y2="235" stroke="#d8dee4" stroke-width="1"></line><text x="46" y="239" font-size="9.5" font-weight="400" text-anchor="end" fill="#656d76" font-family="ui-monospace,SFMono-Regular,Menlo,monospace">$0.044</text><line x1="56" y1="164" x2="642" y2="164" stroke="#d8dee4" stroke-width="1"></line><text x="46" y="168" font-size="9.5" font-weight="400" text-anchor="end" fill="#656d76" font-family="ui-monospace,SFMono-Regular,Menlo,monospace">$0.087</text><line x1="56" y1="93" x2="642" y2="93" stroke="#d8dee4" stroke-width="1"></line><text x="46" y="97" font-size="9.5" font-weight="400" text-anchor="end" fill="#656d76" font-family="ui-monospace,SFMono-Regular,Menlo,monospace">$0.131</text><line x1="56" y1="22" x2="642" y2="22" stroke="#d8dee4" stroke-width="1"></line><text x="46" y="26" font-size="9.5" font-weight="400" text-anchor="end" fill="#656d76" font-family="ui-monospace,SFMono-Regular,Menlo,monospace">$0.175</text><text x="56" y="324" font-size="9.5" font-weight="400" text-anchor="middle" fill="#656d76" font-family="ui-monospace,SFMono-Regular,Menlo,monospace">06/06</text><text x="105.66" y="324" font-size="9.5" font-weight="400" text-anchor="middle" fill="#656d76" font-family="ui-monospace,SFMono-Regular,Menlo,monospace">06/07</text><text x="155.32" y="324" font-size="9.5" font-weight="400" text-anchor="middle" fill="#656d76" font-family="ui-monospace,SFMono-Regular,Menlo,monospace">06/08</text><text x="204.98" y="324" font-size="9.5" font-weight="400" text-anchor="middle" fill="#656d76" font-family="ui-monospace,SFMono-Regular,Menlo,monospace">06/09</text><text x="254.64" y="324" font-size="9.5" font-weight="400" text-anchor="middle" fill="#656d76" font-family="ui-monospace,SFMono-Regular,Menlo,monospace">06/09</text><text x="304.31" y="324" font-size="9.5" font-weight="400" text-anchor="middle" fill="#656d76" font-family="ui-monospace,SFMono-Regular,Menlo,monospace">06/12</text><text x="353.97" y="324" font-size="9.5" font-weight="400" text-anchor="middle" fill="#656d76" font-family="ui-monospace,SFMono-Regular,Menlo,monospace">06/14</text><text x="403.63" y="324" font-size="9.5" font-weight="400" text-anchor="middle" fill="#656d76" font-family="ui-monospace,SFMono-Regular,Menlo,monospace">06/15</text><text x="453.29" y="324" font-size="9.5" font-weight="400" text-anchor="middle" fill="#656d76" font-family="ui-monospace,SFMono-Regular,Menlo,monospace">06/16</text><text x="502.95" y="324" font-size="9.5" font-weight="400" text-anchor="middle" fill="#656d76" font-family="ui-monospace,SFMono-Regular,Menlo,monospace">06/17</text><text x="552.61" y="324" font-size="9.5" font-weight="400" text-anchor="middle" fill="#656d76" font-family="ui-monospace,SFMono-Regular,Menlo,monospace">06/18</text><text x="602.27" y="324" font-size="9.5" font-weight="400" text-anchor="middle" fill="#656d76" font-family="ui-monospace,SFMono-Regular,Menlo,monospace">06/20</text><text x="642" y="324" font-size="9.5" font-weight="400" text-anchor="middle" fill="#656d76" font-family="ui-monospace,SFMono-Regular,Menlo,monospace">06/21</text><polyline fill="none" stroke="#6366F1" stroke-width="2.4" stroke-linejoin="round" stroke-linecap="round" points="135.46,293.36 145.39,293.43 155.32,294.1 165.25,292.89 175.19,293.14 185.12,287.31 195.05,294.31 204.98,291.77 214.92,291.82 224.85,291.36 234.78,293.02 244.71,291.8 254.64,288.55 264.58,292.06 274.51,288.85 284.44,294.29 294.37,292.11 304.31,288.48 314.24,285.75 324.17,292.13 334.1,291.04 344.03,293.66 353.97,290.08 363.9,286.94 373.83,292.77 383.76,291.68 393.69,292.47 403.63,291.27 423.49,290.7 433.42,292.91 443.36,293.34 453.29,290.78 463.22,290.99 473.15,291.6 483.08,292.29 493.02,292.81 502.95,293.37 522.81,293.66 532.75,293.82 542.68,292.24 552.61,291.11 562.54,291.02 572.47,284.88 582.41,291.48 592.34,288.67 602.27,290.47 612.2,288.84 622.14,291.75 642,293.31"></polyline><circle cx="135.46" cy="293.36" r="2.6" fill="#6366F1"></circle><circle cx="145.39" cy="293.43" r="2.6" fill="#6366F1"></circle><circle cx="155.32" cy="294.1" r="2.6" fill="#6366F1"></circle><circle cx="165.25" cy="292.89" r="2.6" fill="#6366F1"></circle><circle cx="175.19" cy="293.14" r="2.6" fill="#6366F1"></circle><circle cx="185.12" cy="287.31" r="2.6" fill="#6366F1"></circle><circle cx="195.05" cy="294.31" r="2.6" fill="#6366F1"></circle><circle cx="204.98" cy="291.77" r="2.6" fill="#6366F1"></circle><circle cx="214.92" cy="291.82" r="2.6" fill="#6366F1"></circle><circle cx="224.85" cy="291.36" r="2.6" fill="#6366F1"></circle><circle cx="234.78" cy="293.02" r="2.6" fill="#6366F1"></circle><circle cx="244.71" cy="291.8" r="2.6" fill="#6366F1"></circle><circle cx="254.64" cy="288.55" r="2.6" fill="#6366F1"></circle><circle cx="264.58" cy="292.06" r="2.6" fill="#6366F1"></circle><circle cx="274.51" cy="288.85" r="2.6" fill="#6366F1"></circle><circle cx="284.44" cy="294.29" r="2.6" fill="#6366F1"></circle><circle cx="294.37" cy="292.11" r="2.6" fill="#6366F1"></circle><circle cx="304.31" cy="288.48" r="2.6" fill="#6366F1"></circle><circle cx="314.24" cy="285.75" r="2.6" fill="#6366F1"></circle><circle cx="324.17" cy="292.13" r="2.6" fill="#6366F1"></circle><circle cx="334.1" cy="291.04" r="2.6" fill="#6366F1"></circle><circle cx="344.03" cy="293.66" r="2.6" fill="#6366F1"></circle><circle cx="353.97" cy="290.08" r="2.6" fill="#6366F1"></circle><circle cx="363.9" cy="286.94" r="2.6" fill="#6366F1"></circle><circle cx="373.83" cy="292.77" r="2.6" fill="#6366F1"></circle><circle cx="383.76" cy="291.68" r="2.6" fill="#6366F1"></circle><circle cx="393.69" cy="292.47" r="2.6" fill="#6366F1"></circle><circle cx="403.63" cy="291.27" r="2.6" fill="#6366F1"></circle><circle cx="423.49" cy="290.7" r="2.6" fill="#6366F1"></circle><circle cx="433.42" cy="292.91" r="2.6" fill="#6366F1"></circle><circle cx="443.36" cy="293.34" r="2.6" fill="#6366F1"></circle><circle cx="453.29" cy="290.78" r="2.6" fill="#6366F1"></circle><circle cx="463.22" cy="290.99" r="2.6" fill="#6366F1"></circle><circle cx="473.15" cy="291.6" r="2.6" fill="#6366F1"></circle><circle cx="483.08" cy="292.29" r="2.6" fill="#6366F1"></circle><circle cx="493.02" cy="292.81" r="2.6" fill="#6366F1"></circle><circle cx="502.95" cy="293.37" r="2.6" fill="#6366F1"></circle><circle cx="522.81" cy="293.66" r="2.6" fill="#6366F1"></circle><circle cx="532.75" cy="293.82" r="2.6" fill="#6366F1"></circle><circle cx="542.68" cy="292.24" r="2.6" fill="#6366F1"></circle><circle cx="552.61" cy="291.11" r="2.6" fill="#6366F1"></circle><circle cx="562.54" cy="291.02" r="2.6" fill="#6366F1"></circle><circle cx="572.47" cy="284.88" r="2.6" fill="#6366F1"></circle><circle cx="582.41" cy="291.48" r="2.6" fill="#6366F1"></circle><circle cx="592.34" cy="288.67" r="2.6" fill="#6366F1"></circle><circle cx="602.27" cy="290.47" r="2.6" fill="#6366F1"></circle><circle cx="612.2" cy="288.84" r="2.6" fill="#6366F1"></circle><circle cx="622.14" cy="291.75" r="2.6" fill="#6366F1"></circle><circle cx="642" cy="293.31" r="2.6" fill="#6366F1"></circle><polyline fill="none" stroke="#A371F7" stroke-width="2.4" stroke-linejoin="round" stroke-linecap="round" points="56,234.02 65.93,244.52 75.86,248 85.8,231.43 95.73,238.89 105.66,249.23 115.59,244.46 125.53,237.54 135.46,240.86 145.39,247.44 155.32,240.79 165.25,238.23 175.19,242.67 185.12,225.79 195.05,243.99 204.98,238.04 214.92,246.87 224.85,247.42 234.78,226.74 244.71,239.47 254.64,211.96 264.58,246.23 274.51,249.04 284.44,237.01 294.37,234.98 304.31,238.5 314.24,240.35 324.17,237.84 334.1,246.71 344.03,242.24 353.97,238.34 363.9,244.61 373.83,248.91 383.76,226.53 393.69,244.07 403.63,245.89 423.49,225.3 433.42,246.26 443.36,237.6 463.22,238.19 473.15,247.14 483.08,247.58 493.02,243.98 502.95,241.42 512.88,243.75 522.81,244.26 532.75,242.78 542.68,233.78 552.61,238.08 562.54,239.3 572.47,245.03 582.41,240.96 592.34,244.05 602.27,243 622.14,244.69 642,239.74"></polyline><circle cx="56" cy="234.02" r="2.6" fill="#A371F7"></circle><circle cx="65.93" cy="244.52" r="2.6" fill="#A371F7"></circle><circle cx="75.86" cy="248" r="2.6" fill="#A371F7"></circle><circle cx="85.8" cy="231.43" r="2.6" fill="#A371F7"></circle><circle cx="95.73" cy="238.89" r="2.6" fill="#A371F7"></circle><circle cx="105.66" cy="249.23" r="2.6" fill="#A371F7"></circle><circle cx="115.59" cy="244.46" r="2.6" fill="#A371F7"></circle><circle cx="125.53" cy="237.54" r="2.6" fill="#A371F7"></circle><circle cx="135.46" cy="240.86" r="2.6" fill="#A371F7"></circle><circle cx="145.39" cy="247.44" r="2.6" fill="#A371F7"></circle><circle cx="155.32" cy="240.79" r="2.6" fill="#A371F7"></circle><circle cx="165.25" cy="238.23" r="2.6" fill="#A371F7"></circle><circle cx="175.19" cy="242.67" r="2.6" fill="#A371F7"></circle><circle cx="185.12" cy="225.79" r="2.6" fill="#A371F7"></circle><circle cx="195.05" cy="243.99" r="2.6" fill="#A371F7"></circle><circle cx="204.98" cy="238.04" r="2.6" fill="#A371F7"></circle><circle cx="214.92" cy="246.87" r="2.6" fill="#A371F7"></circle><circle cx="224.85" cy="247.42" r="2.6" fill="#A371F7"></circle><circle cx="234.78" cy="226.74" r="2.6" fill="#A371F7"></circle><circle cx="244.71" cy="239.47" r="2.6" fill="#A371F7"></circle><circle cx="254.64" cy="211.96" r="2.6" fill="#A371F7"></circle><circle cx="264.58" cy="246.23" r="2.6" fill="#A371F7"></circle><circle cx="274.51" cy="249.04" r="2.6" fill="#A371F7"></circle><circle cx="284.44" cy="237.01" r="2.6" fill="#A371F7"></circle><circle cx="294.37" cy="234.98" r="2.6" fill="#A371F7"></circle><circle cx="304.31" cy="238.5" r="2.6" fill="#A371F7"></circle><circle cx="314.24" cy="240.35" r="2.6" fill="#A371F7"></circle><circle cx="324.17" cy="237.84" r="2.6" fill="#A371F7"></circle><circle cx="334.1" cy="246.71" r="2.6" fill="#A371F7"></circle><circle cx="344.03" cy="242.24" r="2.6" fill="#A371F7"></circle><circle cx="353.97" cy="238.34" r="2.6" fill="#A371F7"></circle><circle cx="363.9" cy="244.61" r="2.6" fill="#A371F7"></circle><circle cx="373.83" cy="248.91" r="2.6" fill="#A371F7"></circle><circle cx="383.76" cy="226.53" r="2.6" fill="#A371F7"></circle><circle cx="393.69" cy="244.07" r="2.6" fill="#A371F7"></circle><circle cx="403.63" cy="245.89" r="2.6" fill="#A371F7"></circle><circle cx="423.49" cy="225.3" r="2.6" fill="#A371F7"></circle><circle cx="433.42" cy="246.26" r="2.6" fill="#A371F7"></circle><circle cx="443.36" cy="237.6" r="2.6" fill="#A371F7"></circle><circle cx="463.22" cy="238.19" r="2.6" fill="#A371F7"></circle><circle cx="473.15" cy="247.14" r="2.6" fill="#A371F7"></circle><circle cx="483.08" cy="247.58" r="2.6" fill="#A371F7"></circle><circle cx="493.02" cy="243.98" r="2.6" fill="#A371F7"></circle><circle cx="502.95" cy="241.42" r="2.6" fill="#A371F7"></circle><circle cx="512.88" cy="243.75" r="2.6" fill="#A371F7"></circle><circle cx="522.81" cy="244.26" r="2.6" fill="#A371F7"></circle><circle cx="532.75" cy="242.78" r="2.6" fill="#A371F7"></circle><circle cx="542.68" cy="233.78" r="2.6" fill="#A371F7"></circle><circle cx="552.61" cy="238.08" r="2.6" fill="#A371F7"></circle><circle cx="562.54" cy="239.3" r="2.6" fill="#A371F7"></circle><circle cx="572.47" cy="245.03" r="2.6" fill="#A371F7"></circle><circle cx="582.41" cy="240.96" r="2.6" fill="#A371F7"></circle><circle cx="592.34" cy="244.05" r="2.6" fill="#A371F7"></circle><circle cx="602.27" cy="243" r="2.6" fill="#A371F7"></circle><circle cx="622.14" cy="244.69" r="2.6" fill="#A371F7"></circle><circle cx="642" cy="239.74" r="2.6" fill="#A371F7"></circle><polyline fill="none" stroke="#F0A23B" stroke-width="2.4" stroke-linejoin="round" stroke-linecap="round" points="56,176.15 65.93,166.37 75.86,95.06 85.8,183.78 95.73,178.88 105.66,182.02 115.59,170.24 125.53,169.9 135.46,166.14 145.39,173.66 155.32,166.11 165.25,167.02 175.19,169.09 185.12,176.53 195.05,161.02 204.98,174.97 214.92,168.38 224.85,173 234.78,185.38 244.71,176.24 254.64,181.63 264.58,178.09 274.51,118.27 284.44,178.67 294.37,180.72 304.31,177.62 314.24,179.5 324.17,151.31 334.1,176.94 344.03,159.91 353.97,179.22 363.9,151.49 373.83,180.65 383.76,179.71 393.69,79.16 403.63,99.74 413.56,178.4 423.49,180.3 433.42,180.24 443.36,176.88 453.29,178.65 463.22,183.45 473.15,182.56 483.08,133.59 493.02,178.99 502.95,179.14 512.88,119.51 522.81,175.85 532.75,154.88 542.68,181.28 552.61,178.3 562.54,178.34 572.47,151.77 582.41,137.32 592.34,181.99 602.27,180.58 612.2,182.99 622.14,178.09 642,181.47"></polyline><circle cx="56" cy="176.15" r="2.6" fill="#F0A23B"></circle><circle cx="65.93" cy="166.37" r="2.6" fill="#F0A23B"></circle><circle cx="75.86" cy="95.06" r="2.6" fill="#F0A23B"></circle><circle cx="85.8" cy="183.78" r="2.6" fill="#F0A23B"></circle><circle cx="95.73" cy="178.88" r="2.6" fill="#F0A23B"></circle><circle cx="105.66" cy="182.02" r="2.6" fill="#F0A23B"></circle><circle cx="115.59" cy="170.24" r="2.6" fill="#F0A23B"></circle><circle cx="125.53" cy="169.9" r="2.6" fill="#F0A23B"></circle><circle cx="135.46" cy="166.14" r="2.6" fill="#F0A23B"></circle><circle cx="145.39" cy="173.66" r="2.6" fill="#F0A23B"></circle><circle cx="155.32" cy="166.11" r="2.6" fill="#F0A23B"></circle><circle cx="165.25" cy="167.02" r="2.6" fill="#F0A23B"></circle><circle cx="175.19" cy="169.09" r="2.6" fill="#F0A23B"></circle><circle cx="185.12" cy="176.53" r="2.6" fill="#F0A23B"></circle><circle cx="195.05" cy="161.02" r="2.6" fill="#F0A23B"></circle><circle cx="204.98" cy="174.97" r="2.6" fill="#F0A23B"></circle><circle cx="214.92" cy="168.38" r="2.6" fill="#F0A23B"></circle><circle cx="224.85" cy="173" r="2.6" fill="#F0A23B"></circle><circle cx="234.78" cy="185.38" r="2.6" fill="#F0A23B"></circle><circle cx="244.71" cy="176.24" r="2.6" fill="#F0A23B"></circle><circle cx="254.64" cy="181.63" r="2.6" fill="#F0A23B"></circle><circle cx="264.58" cy="178.09" r="2.6" fill="#F0A23B"></circle><circle cx="274.51" cy="118.27" r="2.6" fill="#F0A23B"></circle><circle cx="284.44" cy="178.67" r="2.6" fill="#F0A23B"></circle><circle cx="294.37" cy="180.72" r="2.6" fill="#F0A23B"></circle><circle cx="304.31" cy="177.62" r="2.6" fill="#F0A23B"></circle><circle cx="314.24" cy="179.5" r="2.6" fill="#F0A23B"></circle><circle cx="324.17" cy="151.31" r="2.6" fill="#F0A23B"></circle><circle cx="334.1" cy="176.94" r="2.6" fill="#F0A23B"></circle><circle cx="344.03" cy="159.91" r="2.6" fill="#F0A23B"></circle><circle cx="353.97" cy="179.22" r="2.6" fill="#F0A23B"></circle><circle cx="363.9" cy="151.49" r="2.6" fill="#F0A23B"></circle><circle cx="373.83" cy="180.65" r="2.6" fill="#F0A23B"></circle><circle cx="383.76" cy="179.71" r="2.6" fill="#F0A23B"></circle><circle cx="393.69" cy="79.16" r="2.6" fill="#F0A23B"></circle><circle cx="403.63" cy="99.74" r="2.6" fill="#F0A23B"></circle><circle cx="413.56" cy="178.4" r="2.6" fill="#F0A23B"></circle><circle cx="423.49" cy="180.3" r="2.6" fill="#F0A23B"></circle><circle cx="433.42" cy="180.24" r="2.6" fill="#F0A23B"></circle><circle cx="443.36" cy="176.88" r="2.6" fill="#F0A23B"></circle><circle cx="453.29" cy="178.65" r="2.6" fill="#F0A23B"></circle><circle cx="463.22" cy="183.45" r="2.6" fill="#F0A23B"></circle><circle cx="473.15" cy="182.56" r="2.6" fill="#F0A23B"></circle><circle cx="483.08" cy="133.59" r="2.6" fill="#F0A23B"></circle><circle cx="493.02" cy="178.99" r="2.6" fill="#F0A23B"></circle><circle cx="502.95" cy="179.14" r="2.6" fill="#F0A23B"></circle><circle cx="512.88" cy="119.51" r="2.6" fill="#F0A23B"></circle><circle cx="522.81" cy="175.85" r="2.6" fill="#F0A23B"></circle><circle cx="532.75" cy="154.88" r="2.6" fill="#F0A23B"></circle><circle cx="542.68" cy="181.28" r="2.6" fill="#F0A23B"></circle><circle cx="552.61" cy="178.3" r="2.6" fill="#F0A23B"></circle><circle cx="562.54" cy="178.34" r="2.6" fill="#F0A23B"></circle><circle cx="572.47" cy="151.77" r="2.6" fill="#F0A23B"></circle><circle cx="582.41" cy="137.32" r="2.6" fill="#F0A23B"></circle><circle cx="592.34" cy="181.99" r="2.6" fill="#F0A23B"></circle><circle cx="602.27" cy="180.58" r="2.6" fill="#F0A23B"></circle><circle cx="612.2" cy="182.99" r="2.6" fill="#F0A23B"></circle><circle cx="622.14" cy="178.09" r="2.6" fill="#F0A23B"></circle><circle cx="642" cy="181.47" r="2.6" fill="#F0A23B"></circle><polyline fill="none" stroke="#1F9CF0" stroke-width="2.4" stroke-linejoin="round" stroke-linecap="round" points="56,175.5 65.93,176.2 75.86,132.71 85.8,178.27 95.73,172 105.66,174.38 115.59,174.4 125.53,170.88 135.46,173.93 145.39,173.54 155.32,100.75 165.25,168.69 175.19,173.59 185.12,174.01 195.05,167.31 204.98,117.5 214.92,166.02 224.85,174.07 234.78,141.6 244.71,169.05 254.64,167.14 264.58,174.48 274.51,150.94 284.44,171.01 294.37,52.43 304.31,157.26 314.24,171.51 324.17,136.29 334.1,169.79 344.03,106.45 353.97,170.47 363.9,175.76 373.83,174.01 383.76,174.06 393.69,151.2 403.63,173.78 413.56,169.88 423.49,177.61 433.42,137.18 443.36,114.15 453.29,168.74 463.22,168.47 473.15,130.46 483.08,174.44 493.02,175.01 502.95,171.26 512.88,176.81 522.81,171.37 532.75,161.31 542.68,135.44 552.61,169.24 562.54,176.14 572.47,170.75 582.41,171.27 592.34,166.35 602.27,173.15 612.2,132.18 622.14,168.56 632.07,155.42 642,170.02"></polyline><circle cx="56" cy="175.5" r="2.6" fill="#1F9CF0"></circle><circle cx="65.93" cy="176.2" r="2.6" fill="#1F9CF0"></circle><circle cx="75.86" cy="132.71" r="2.6" fill="#1F9CF0"></circle><circle cx="85.8" cy="178.27" r="2.6" fill="#1F9CF0"></circle><circle cx="95.73" cy="172" r="2.6" fill="#1F9CF0"></circle><circle cx="105.66" cy="174.38" r="2.6" fill="#1F9CF0"></circle><circle cx="115.59" cy="174.4" r="2.6" fill="#1F9CF0"></circle><circle cx="125.53" cy="170.88" r="2.6" fill="#1F9CF0"></circle><circle cx="135.46" cy="173.93" r="2.6" fill="#1F9CF0"></circle><circle cx="145.39" cy="173.54" r="2.6" fill="#1F9CF0"></circle><circle cx="155.32" cy="100.75" r="2.6" fill="#1F9CF0"></circle><circle cx="165.25" cy="168.69" r="2.6" fill="#1F9CF0"></circle><circle cx="175.19" cy="173.59" r="2.6" fill="#1F9CF0"></circle><circle cx="185.12" cy="174.01" r="2.6" fill="#1F9CF0"></circle><circle cx="195.05" cy="167.31" r="2.6" fill="#1F9CF0"></circle><circle cx="204.98" cy="117.5" r="2.6" fill="#1F9CF0"></circle><circle cx="214.92" cy="166.02" r="2.6" fill="#1F9CF0"></circle><circle cx="224.85" cy="174.07" r="2.6" fill="#1F9CF0"></circle><circle cx="234.78" cy="141.6" r="2.6" fill="#1F9CF0"></circle><circle cx="244.71" cy="169.05" r="2.6" fill="#1F9CF0"></circle><circle cx="254.64" cy="167.14" r="2.6" fill="#1F9CF0"></circle><circle cx="264.58" cy="174.48" r="2.6" fill="#1F9CF0"></circle><circle cx="274.51" cy="150.94" r="2.6" fill="#1F9CF0"></circle><circle cx="284.44" cy="171.01" r="2.6" fill="#1F9CF0"></circle><circle cx="294.37" cy="52.43" r="2.6" fill="#1F9CF0"></circle><circle cx="304.31" cy="157.26" r="2.6" fill="#1F9CF0"></circle><circle cx="314.24" cy="171.51" r="2.6" fill="#1F9CF0"></circle><circle cx="324.17" cy="136.29" r="2.6" fill="#1F9CF0"></circle><circle cx="334.1" cy="169.79" r="2.6" fill="#1F9CF0"></circle><circle cx="344.03" cy="106.45" r="2.6" fill="#1F9CF0"></circle><circle cx="353.97" cy="170.47" r="2.6" fill="#1F9CF0"></circle><circle cx="363.9" cy="175.76" r="2.6" fill="#1F9CF0"></circle><circle cx="373.83" cy="174.01" r="2.6" fill="#1F9CF0"></circle><circle cx="383.76" cy="174.06" r="2.6" fill="#1F9CF0"></circle><circle cx="393.69" cy="151.2" r="2.6" fill="#1F9CF0"></circle><circle cx="403.63" cy="173.78" r="2.6" fill="#1F9CF0"></circle><circle cx="413.56" cy="169.88" r="2.6" fill="#1F9CF0"></circle><circle cx="423.49" cy="177.61" r="2.6" fill="#1F9CF0"></circle><circle cx="433.42" cy="137.18" r="2.6" fill="#1F9CF0"></circle><circle cx="443.36" cy="114.15" r="2.6" fill="#1F9CF0"></circle><circle cx="453.29" cy="168.74" r="2.6" fill="#1F9CF0"></circle><circle cx="463.22" cy="168.47" r="2.6" fill="#1F9CF0"></circle><circle cx="473.15" cy="130.46" r="2.6" fill="#1F9CF0"></circle><circle cx="483.08" cy="174.44" r="2.6" fill="#1F9CF0"></circle><circle cx="493.02" cy="175.01" r="2.6" fill="#1F9CF0"></circle><circle cx="502.95" cy="171.26" r="2.6" fill="#1F9CF0"></circle><circle cx="512.88" cy="176.81" r="2.6" fill="#1F9CF0"></circle><circle cx="522.81" cy="171.37" r="2.6" fill="#1F9CF0"></circle><circle cx="532.75" cy="161.31" r="2.6" fill="#1F9CF0"></circle><circle cx="542.68" cy="135.44" r="2.6" fill="#1F9CF0"></circle><circle cx="552.61" cy="169.24" r="2.6" fill="#1F9CF0"></circle><circle cx="562.54" cy="176.14" r="2.6" fill="#1F9CF0"></circle><circle cx="572.47" cy="170.75" r="2.6" fill="#1F9CF0"></circle><circle cx="582.41" cy="171.27" r="2.6" fill="#1F9CF0"></circle><circle cx="592.34" cy="166.35" r="2.6" fill="#1F9CF0"></circle><circle cx="602.27" cy="173.15" r="2.6" fill="#1F9CF0"></circle><circle cx="612.2" cy="132.18" r="2.6" fill="#1F9CF0"></circle><circle cx="622.14" cy="168.56" r="2.6" fill="#1F9CF0"></circle><circle cx="632.07" cy="155.42" r="2.6" fill="#1F9CF0"></circle><circle cx="642" cy="170.02" r="2.6" fill="#1F9CF0"></circle><line x1="656" y1="27" x2="672" y2="27" stroke="#6366F1" stroke-width="3" stroke-linecap="round"></line><text x="678" y="30" font-size="11" font-weight="400" text-anchor="start" fill="#1f2328">deepseek</text><line x1="656" y1="47" x2="672" y2="47" stroke="#A371F7" stroke-width="3" stroke-linecap="round"></line><text x="678" y="50" font-size="11" font-weight="400" text-anchor="start" fill="#1f2328">llama</text><line x1="656" y1="67" x2="672" y2="67" stroke="#F0A23B" stroke-width="3" stroke-linecap="round"></line><text x="678" y="70" font-size="11" font-weight="400" text-anchor="start" fill="#1f2328">mistral</text><line x1="656" y1="87" x2="672" y2="87" stroke="#1F9CF0" stroke-width="3" stroke-linecap="round"></line><text x="678" y="90" font-size="11" font-weight="400" text-anchor="start" fill="#1f2328">openai</text></svg>
