<svg xmlns="http://www.w3.org/2000/svg" viewBox="0 0 760 348" width="760" height="348" role="img" aria-label="Cost per test by provider over runs — openai highest, deepseek lowest" font-family="-apple-system,BlinkMacSystemFont,'Segoe UI',system-ui,sans-serif"><line x1="56" y1="306" x2="642" y2="306" stroke="#30363d" stroke-width="1"></line><text x="46" y="310" font-size="9.5" font-weight="400" text-anchor="end" fill="#8b949e" font-family="ui-monospace,SFMono-Regular,Menlo,monospace">$0.000</text><line x1="56" y1="235" x2="642" y2="235" stroke="#30363d" stroke-width="1"></line><text x="46" y="239" font-size="9.5" font-weight="400" text-anchor="end" fill="#8b949e" font-family="ui-monospace,SFMono-Regular,Menlo,monospace">$0.044</text><line x1="56" y1="164" x2="642" y2="164" stroke="#30363d" stroke-width="1"></line><text x="46" y="168" font-size="9.5" font-weight="400" text-anchor="end" fill="#8b949e" font-family="ui-monospace,SFMono-Regular,Menlo,monospace">$0.087</text><line x1="56" y1="93" x2="642" y2="93" stroke="#30363d" stroke-width="1"></line><text x="46" y="97" font-size="9.5" font-weight="400" text-anchor="end" fill="#8b949e" font-family="ui-monospace,SFMono-Regular,Menlo,monospace">$0.131</text><line x1="56" y1="22" x2="642" y2="22" stroke="#30363d" stroke-width="1"></line><text x="46" y="26" font-size="9.5" font-weight="400" text-anchor="end" fill="#8b949e" font-family="ui-monospace,SFMono-Regular,Menlo,monospace">$0.175</text><text x="56" y="324" font-size="9.5" font-weight="400" text-anchor="middle" fill="#8b949e" font-family="ui-monospace,SFMono-Regular,Menlo,monospace">06/06</text><text x="108.09" y="324" font-size="9.5" font-weight="400" text-anchor="middle" fill="#8b949e" font-family="ui-monospace,SFMono-Regular,Menlo,monospace">06/07</text><text x="160.18" y="324" font-size="9.5" font-weight="400" text-anchor="middle" fill="#8b949e" font-family="ui-monospace,SFMono-Regular,Menlo,monospace">06/08</text><text x="212.27" y="324" font-size="9.5" font-weight="400" text-anchor="middle" fill="#8b949e" font-family="ui-monospace,SFMono-Regular,Menlo,monospace">06/08</text><text x="264.36" y="324" font-size="9.5" font-weight="400" text-anchor="middle" fill="#8b949e" font-family="ui-monospace,SFMono-Regular,Menlo,monospace">06/09</text><text x="316.44" y="324" font-size="9.5" font-weight="400" text-anchor="middle" fill="#8b949e" font-family="ui-monospace,SFMono-Regular,Menlo,monospace">06/09</text><text x="368.53" y="324" font-size="9.5" font-weight="400" text-anchor="middle" fill="#8b949e" font-family="ui-monospace,SFMono-Regular,Menlo,monospace">06/12</text><text x="420.62" y="324" font-size="9.5" font-weight="400" text-anchor="middle" fill="#8b949e" font-family="ui-monospace,SFMono-Regular,Menlo,monospace">06/14</text><text x="472.71" y="324" font-size="9.5" font-weight="400" text-anchor="middle" fill="#8b949e" font-family="ui-monospace,SFMono-Regular,Menlo,monospace">06/14</text><text x="524.8" y="324" font-size="9.5" font-weight="400" text-anchor="middle" fill="#8b949e" font-family="ui-monospace,SFMono-Regular,Menlo,monospace">06/15</text><text x="576.89" y="324" font-size="9.5" font-weight="400" text-anchor="middle" fill="#8b949e" font-family="ui-monospace,SFMono-Regular,Menlo,monospace">06/16</text><text x="628.98" y="324" font-size="9.5" font-weight="400" text-anchor="middle" fill="#8b949e" font-family="ui-monospace,SFMono-Regular,Menlo,monospace">06/17</text><text x="642" y="324" font-size="9.5" font-weight="400" text-anchor="middle" fill="#8b949e" font-family="ui-monospace,SFMono-Regular,Menlo,monospace">06/17</text><polyline fill="none" stroke="#6366F1" stroke-width="2.4" stroke-linejoin="round" stroke-linecap="round" points="160.18,293.36 173.2,293.43 186.22,294.1 199.24,292.89 212.27,293.14 225.29,287.31 238.31,294.31 251.33,291.77 264.36,291.82 277.38,291.36 290.4,293.02 303.42,291.8 316.44,288.55 329.47,292.06 342.49,288.85 355.51,294.29 368.53,292.11 381.56,288.48 394.58,285.75 407.6,292.13 420.62,291.04 433.64,293.66 446.67,290.08 459.69,286.94 472.71,292.77 485.73,291.68 498.76,292.47 511.78,291.27 537.82,290.7 550.84,292.91 563.87,293.34 576.89,290.78 589.91,290.99 602.93,291.6 615.96,292.29 628.98,292.81 642,293.37"></polyline><circle cx="160.18" cy="293.36" r="2.6" fill="#6366F1"></circle><circle cx="173.2" cy="293.43" r="2.6" fill="#6366F1"></circle><circle cx="186.22" cy="294.1" r="2.6" fill="#6366F1"></circle><circle cx="199.24" cy="292.89" r="2.6" fill="#6366F1"></circle><circle cx="212.27" cy="293.14" r="2.6" fill="#6366F1"></circle><circle cx="225.29" cy="287.31" r="2.6" fill="#6366F1"></circle><circle cx="238.31" cy="294.31" r="2.6" fill="#6366F1"></circle><circle cx="251.33" cy="291.77" r="2.6" fill="#6366F1"></circle><circle cx="264.36" cy="291.82" r="2.6" fill="#6366F1"></circle><circle cx="277.38" cy="291.36" r="2.6" fill="#6366F1"></circle><circle cx="290.4" cy="293.02" r="2.6" fill="#6366F1"></circle><circle cx="303.42" cy="291.8" r="2.6" fill="#6366F1"></circle><circle cx="316.44" cy="288.55" r="2.6" fill="#6366F1"></circle><circle cx="329.47" cy="292.06" r="2.6" fill="#6366F1"></circle><circle cx="342.49" cy="288.85" r="2.6" fill="#6366F1"></circle><circle cx="355.51" cy="294.29" r="2.6" fill="#6366F1"></circle><circle cx="368.53" cy="292.11" r="2.6" fill="#6366F1"></circle><circle cx="381.56" cy="288.48" r="2.6" fill="#6366F1"></circle><circle cx="394.58" cy="285.75" r="2.6" fill="#6366F1"></circle><circle cx="407.6" cy="292.13" r="2.6" fill="#6366F1"></circle><circle cx="420.62" cy="291.04" r="2.6" fill="#6366F1"></circle><circle cx="433.64" cy="293.66" r="2.6" fill="#6366F1"></circle><circle cx="446.67" cy="290.08" r="2.6" fill="#6366F1"></circle><circle cx="459.69" cy="286.94" r="2.6" fill="#6366F1"></circle><circle cx="472.71" cy="292.77" r="2.6" fill="#6366F1"></circle><circle cx="485.73" cy="291.68" r="2.6" fill="#6366F1"></circle><circle cx="498.76" cy="292.47" r="2.6" fill="#6366F1"></circle><circle cx="511.78" cy="291.27" r="2.6" fill="#6366F1"></circle><circle cx="537.82" cy="290.7" r="2.6" fill="#6366F1"></circle><circle cx="550.84" cy="292.91" r="2.6" fill="#6366F1"></circle><circle cx="563.87" cy="293.34" r="2.6" fill="#6366F1"></circle><circle cx="576.89" cy="290.78" r="2.6" fill="#6366F1"></circle><circle cx="589.91" cy="290.99" r="2.6" fill="#6366F1"></circle><circle cx="602.93" cy="291.6" r="2.6" fill="#6366F1"></circle><circle cx="615.96" cy="292.29" r="2.6" fill="#6366F1"></circle><circle cx="628.98" cy="292.81" r="2.6" fill="#6366F1"></circle><circle cx="642" cy="293.37" r="2.6" fill="#6366F1"></circle><polyline fill="none" stroke="#A371F7" stroke-width="2.4" stroke-linejoin="round" stroke-linecap="round" points="56,234.02 69.02,244.52 82.04,248 95.07,231.43 108.09,238.89 121.11,249.23 134.13,244.46 147.16,237.54 160.18,240.86 173.2,247.44 186.22,240.79 199.24,238.23 212.27,242.67 225.29,225.79 238.31,243.99 251.33,238.04 264.36,246.87 277.38,247.42 290.4,226.74 303.42,239.47 316.44,211.96 329.47,246.23 342.49,249.04 355.51,237.01 368.53,234.98 381.56,238.5 394.58,240.35 407.6,237.84 420.62,246.71 433.64,242.24 446.67,238.34 459.69,244.61 472.71,248.91 485.73,226.53 498.76,244.07 511.78,245.89 537.82,225.3 550.84,246.26 563.87,237.6 589.91,238.19 602.93,247.14 615.96,247.58 628.98,243.98 642,241.42"></polyline><circle cx="56" cy="234.02" r="2.6" fill="#A371F7"></circle><circle cx="69.02" cy="244.52" r="2.6" fill="#A371F7"></circle><circle cx="82.04" cy="248" r="2.6" fill="#A371F7"></circle><circle cx="95.07" cy="231.43" r="2.6" fill="#A371F7"></circle><circle cx="108.09" cy="238.89" r="2.6" fill="#A371F7"></circle><circle cx="121.11" cy="249.23" r="2.6" fill="#A371F7"></circle><circle cx="134.13" cy="244.46" r="2.6" fill="#A371F7"></circle><circle cx="147.16" cy="237.54" r="2.6" fill="#A371F7"></circle><circle cx="160.18" cy="240.86" r="2.6" fill="#A371F7"></circle><circle cx="173.2" cy="247.44" r="2.6" fill="#A371F7"></circle><circle cx="186.22" cy="240.79" r="2.6" fill="#A371F7"></circle><circle cx="199.24" cy="238.23" r="2.6" fill="#A371F7"></circle><circle cx="212.27" cy="242.67" r="2.6" fill="#A371F7"></circle><circle cx="225.29" cy="225.79" r="2.6" fill="#A371F7"></circle><circle cx="238.31" cy="243.99" r="2.6" fill="#A371F7"></circle><circle cx="251.33" cy="238.04" r="2.6" fill="#A371F7"></circle><circle cx="264.36" cy="246.87" r="2.6" fill="#A371F7"></circle><circle cx="277.38" cy="247.42" r="2.6" fill="#A371F7"></circle><circle cx="290.4" cy="226.74" r="2.6" fill="#A371F7"></circle><circle cx="303.42" cy="239.47" r="2.6" fill="#A371F7"></circle><circle cx="316.44" cy="211.96" r="2.6" fill="#A371F7"></circle><circle cx="329.47" cy="246.23" r="2.6" fill="#A371F7"></circle><circle cx="342.49" cy="249.04" r="2.6" fill="#A371F7"></circle><circle cx="355.51" cy="237.01" r="2.6" fill="#A371F7"></circle><circle cx="368.53" cy="234.98" r="2.6" fill="#A371F7"></circle><circle cx="381.56" cy="238.5" r="2.6" fill="#A371F7"></circle><circle cx="394.58" cy="240.35" r="2.6" fill="#A371F7"></circle><circle cx="407.6" cy="237.84" r="2.6" fill="#A371F7"></circle><circle cx="420.62" cy="246.71" r="2.6" fill="#A371F7"></circle><circle cx="433.64" cy="242.24" r="2.6" fill="#A371F7"></circle><circle cx="446.67" cy="238.34" r="2.6" fill="#A371F7"></circle><circle cx="459.69" cy="244.61" r="2.6" fill="#A371F7"></circle><circle cx="472.71" cy="248.91" r="2.6" fill="#A371F7"></circle><circle cx="485.73" cy="226.53" r="2.6" fill="#A371F7"></circle><circle cx="498.76" cy="244.07" r="2.6" fill="#A371F7"></circle><circle cx="511.78" cy="245.89" r="2.6" fill="#A371F7"></circle><circle cx="537.82" cy="225.3" r="2.6" fill="#A371F7"></circle><circle cx="550.84" cy="246.26" r="2.6" fill="#A371F7"></circle><circle cx="563.87" cy="237.6" r="2.6" fill="#A371F7"></circle><circle cx="589.91" cy="238.19" r="2.6" fill="#A371F7"></circle><circle cx="602.93" cy="247.14" r="2.6" fill="#A371F7"></circle><circle cx="615.96" cy="247.58" r="2.6" fill="#A371F7"></circle><circle cx="628.98" cy="243.98" r="2.6" fill="#A371F7"></circle><circle cx="642" cy="241.42" r="2.6" fill="#A371F7"></circle><polyline fill="none" stroke="#F0A23B" stroke-width="2.4" stroke-linejoin="round" stroke-linecap="round" points="56,176.15 69.02,166.37 82.04,95.06 95.07,183.78 108.09,178.88 121.11,182.02 134.13,170.24 147.16,169.9 160.18,166.14 173.2,173.66 186.22,166.11 199.24,167.02 212.27,169.09 225.29,176.53 238.31,161.02 251.33,174.97 264.36,168.38 277.38,173 290.4,185.38 303.42,176.24 316.44,181.63 329.47,178.09 342.49,118.27 355.51,178.67 368.53,180.72 381.56,177.62 394.58,179.5 407.6,151.31 420.62,176.94 433.64,159.91 446.67,179.22 459.69,151.49 472.71,180.65 485.73,179.71 498.76,79.16 511.78,99.74 524.8,178.4 537.82,180.3 550.84,180.24 563.87,176.88 576.89,178.65 589.91,183.45 602.93,182.56 615.96,133.59 628.98,178.99 642,179.14"></polyline><circle cx="56" cy="176.15" r="2.6" fill="#F0A23B"></circle><circle cx="69.02" cy="166.37" r="2.6" fill="#F0A23B"></circle><circle cx="82.04" cy="95.06" r="2.6" fill="#F0A23B"></circle><circle cx="95.07" cy="183.78" r="2.6" fill="#F0A23B"></circle><circle cx="108.09" cy="178.88" r="2.6" fill="#F0A23B"></circle><circle cx="121.11" cy="182.02" r="2.6" fill="#F0A23B"></circle><circle cx="134.13" cy="170.24" r="2.6" fill="#F0A23B"></circle><circle cx="147.16" cy="169.9" r="2.6" fill="#F0A23B"></circle><circle cx="160.18" cy="166.14" r="2.6" fill="#F0A23B"></circle><circle cx="173.2" cy="173.66" r="2.6" fill="#F0A23B"></circle><circle cx="186.22" cy="166.11" r="2.6" fill="#F0A23B"></circle><circle cx="199.24" cy="167.02" r="2.6" fill="#F0A23B"></circle><circle cx="212.27" cy="169.09" r="2.6" fill="#F0A23B"></circle><circle cx="225.29" cy="176.53" r="2.6" fill="#F0A23B"></circle><circle cx="238.31" cy="161.02" r="2.6" fill="#F0A23B"></circle><circle cx="251.33" cy="174.97" r="2.6" fill="#F0A23B"></circle><circle cx="264.36" cy="168.38" r="2.6" fill="#F0A23B"></circle><circle cx="277.38" cy="173" r="2.6" fill="#F0A23B"></circle><circle cx="290.4" cy="185.38" r="2.6" fill="#F0A23B"></circle><circle cx="303.42" cy="176.24" r="2.6" fill="#F0A23B"></circle><circle cx="316.44" cy="181.63" r="2.6" fill="#F0A23B"></circle><circle cx="329.47" cy="178.09" r="2.6" fill="#F0A23B"></circle><circle cx="342.49" cy="118.27" r="2.6" fill="#F0A23B"></circle><circle cx="355.51" cy="178.67" r="2.6" fill="#F0A23B"></circle><circle cx="368.53" cy="180.72" r="2.6" fill="#F0A23B"></circle><circle cx="381.56" cy="177.62" r="2.6" fill="#F0A23B"></circle><circle cx="394.58" cy="179.5" r="2.6" fill="#F0A23B"></circle><circle cx="407.6" cy="151.31" r="2.6" fill="#F0A23B"></circle><circle cx="420.62" cy="176.94" r="2.6" fill="#F0A23B"></circle><circle cx="433.64" cy="159.91" r="2.6" fill="#F0A23B"></circle><circle cx="446.67" cy="179.22" r="2.6" fill="#F0A23B"></circle><circle cx="459.69" cy="151.49" r="2.6" fill="#F0A23B"></circle><circle cx="472.71" cy="180.65" r="2.6" fill="#F0A23B"></circle><circle cx="485.73" cy="179.71" r="2.6" fill="#F0A23B"></circle><circle cx="498.76" cy="79.16" r="2.6" fill="#F0A23B"></circle><circle cx="511.78" cy="99.74" r="2.6" fill="#F0A23B"></circle><circle cx="524.8" cy="178.4" r="2.6" fill="#F0A23B"></circle><circle cx="537.82" cy="180.3" r="2.6" fill="#F0A23B"></circle><circle cx="550.84" cy="180.24" r="2.6" fill="#F0A23B"></circle><circle cx="563.87" cy="176.88" r="2.6" fill="#F0A23B"></circle><circle cx="576.89" cy="178.65" r="2.6" fill="#F0A23B"></circle><circle cx="589.91" cy="183.45" r="2.6" fill="#F0A23B"></circle><circle cx="602.93" cy="182.56" r="2.6" fill="#F0A23B"></circle><circle cx="615.96" cy="133.59" r="2.6" fill="#F0A23B"></circle><circle cx="628.98" cy="178.99" r="2.6" fill="#F0A23B"></circle><circle cx="642" cy="179.14" r="2.6" fill="#F0A23B"></circle><polyline fill="none" stroke="#1F9CF0" stroke-width="2.4" stroke-linejoin="round" stroke-linecap="round" points="56,175.5 69.02,176.2 82.04,132.71 95.07,178.27 108.09,172 121.11,174.38 134.13,174.4 147.16,170.88 160.18,173.93 173.2,173.54 186.22,100.75 199.24,168.69 212.27,173.59 225.29,174.01 238.31,167.31 251.33,117.5 264.36,166.02 277.38,174.07 290.4,141.6 303.42,169.05 316.44,167.14 329.47,174.48 342.49,150.94 355.51,171.01 368.53,52.43 381.56,157.26 394.58,171.51 407.6,136.29 420.62,169.79 433.64,106.45 446.67,170.47 459.69,175.76 472.71,174.01 485.73,174.06 498.76,151.2 511.78,173.78 524.8,169.88 537.82,177.61 550.84,137.18 563.87,114.15 576.89,168.74 589.91,168.47 602.93,130.46 615.96,174.44 628.98,175.01 642,171.26"></polyline><circle cx="56" cy="175.5" r="2.6" fill="#1F9CF0"></circle><circle cx="69.02" cy="176.2" r="2.6" fill="#1F9CF0"></circle><circle cx="82.04" cy="132.71" r="2.6" fill="#1F9CF0"></circle><circle cx="95.07" cy="178.27" r="2.6" fill="#1F9CF0"></circle><circle cx="108.09" cy="172" r="2.6" fill="#1F9CF0"></circle><circle cx="121.11" cy="174.38" r="2.6" fill="#1F9CF0"></circle><circle cx="134.13" cy="174.4" r="2.6" fill="#1F9CF0"></circle><circle cx="147.16" cy="170.88" r="2.6" fill="#1F9CF0"></circle><circle cx="160.18" cy="173.93" r="2.6" fill="#1F9CF0"></circle><circle cx="173.2" cy="173.54" r="2.6" fill="#1F9CF0"></circle><circle cx="186.22" cy="100.75" r="2.6" fill="#1F9CF0"></circle><circle cx="199.24" cy="168.69" r="2.6" fill="#1F9CF0"></circle><circle cx="212.27" cy="173.59" r="2.6" fill="#1F9CF0"></circle><circle cx="225.29" cy="174.01" r="2.6" fill="#1F9CF0"></circle><circle cx="238.31" cy="167.31" r="2.6" fill="#1F9CF0"></circle><circle cx="251.33" cy="117.5" r="2.6" fill="#1F9CF0"></circle><circle cx="264.36" cy="166.02" r="2.6" fill="#1F9CF0"></circle><circle cx="277.38" cy="174.07" r="2.6" fill="#1F9CF0"></circle><circle cx="290.4" cy="141.6" r="2.6" fill="#1F9CF0"></circle><circle cx="303.42" cy="169.05" r="2.6" fill="#1F9CF0"></circle><circle cx="316.44" cy="167.14" r="2.6" fill="#1F9CF0"></circle><circle cx="329.47" cy="174.48" r="2.6" fill="#1F9CF0"></circle><circle cx="342.49" cy="150.94" r="2.6" fill="#1F9CF0"></circle><circle cx="355.51" cy="171.01" r="2.6" fill="#1F9CF0"></circle><circle cx="368.53" cy="52.43" r="2.6" fill="#1F9CF0"></circle><circle cx="381.56" cy="157.26" r="2.6" fill="#1F9CF0"></circle><circle cx="394.58" cy="171.51" r="2.6" fill="#1F9CF0"></circle><circle cx="407.6" cy="136.29" r="2.6" fill="#1F9CF0"></circle><circle cx="420.62" cy="169.79" r="2.6" fill="#1F9CF0"></circle><circle cx="433.64" cy="106.45" r="2.6" fill="#1F9CF0"></circle><circle cx="446.67" cy="170.47" r="2.6" fill="#1F9CF0"></circle><circle cx="459.69" cy="175.76" r="2.6" fill="#1F9CF0"></circle><circle cx="472.71" cy="174.01" r="2.6" fill="#1F9CF0"></circle><circle cx="485.73" cy="174.06" r="2.6" fill="#1F9CF0"></circle><circle cx="498.76" cy="151.2" r="2.6" fill="#1F9CF0"></circle><circle cx="511.78" cy="173.78" r="2.6" fill="#1F9CF0"></circle><circle cx="524.8" cy="169.88" r="2.6" fill="#1F9CF0"></circle><circle cx="537.82" cy="177.61" r="2.6" fill="#1F9CF0"></circle><circle cx="550.84" cy="137.18" r="2.6" fill="#1F9CF0"></circle><circle cx="563.87" cy="114.15" r="2.6" fill="#1F9CF0"></circle><circle cx="576.89" cy="168.74" r="2.6" fill="#1F9CF0"></circle><circle cx="589.91" cy="168.47" r="2.6" fill="#1F9CF0"></circle><circle cx="602.93" cy="130.46" r="2.6" fill="#1F9CF0"></circle><circle cx="615.96" cy="174.44" r="2.6" fill="#1F9CF0"></circle><circle cx="628.98" cy="175.01" r="2.6" fill="#1F9CF0"></circle><circle cx="642" cy="171.26" r="2.6" fill="#1F9CF0"></circle><line x1="656" y1="27" x2="672" y2="27" stroke="#6366F1" stroke-width="3" stroke-linecap="round"></line><text x="678" y="30" font-size="11" font-weight="400" text-anchor="start" fill="#e6edf3">deepseek</text><line x1="656" y1="47" x2="672" y2="47" stroke="#A371F7" stroke-width="3" stroke-linecap="round"></line><text x="678" y="50" font-size="11" font-weight="400" text-anchor="start" fill="#e6edf3">llama</text><line x1="656" y1="67" x2="672" y2="67" stroke="#F0A23B" stroke-width="3" stroke-linecap="round"></line><text x="678" y="70" font-size="11" font-weight="400" text-anchor="start" fill="#e6edf3">mistral</text><line x1="656" y1="87" x2="672" y2="87" stroke="#1F9CF0" stroke-width="3" stroke-linecap="round"></line><text x="678" y="90" font-size="11" font-weight="400" text-anchor="start" fill="#e6edf3">openai</text></svg>
