<svg xmlns="http://www.w3.org/2000/svg" viewBox="0 0 600 300" width="600" height="300" role="img" aria-label="Cost per test by provider over runs ($)"><text x="300.0" y="24" text-anchor="middle" font-family="system-ui, -apple-system, sans-serif" font-size="14" font-weight="600" fill="#333">Cost per test by provider over runs ($)</text><line x1="60" y1="240.0" x2="480" y2="240.0" stroke="#eee" stroke-width="1"/><text x="54" y="244.0" text-anchor="end" font-family="system-ui, -apple-system, sans-serif" font-size="9" fill="#999">0.007197</text><line x1="60" y1="140.0" x2="480" y2="140.0" stroke="#eee" stroke-width="1"/><text x="54" y="144.0" text-anchor="end" font-family="system-ui, -apple-system, sans-serif" font-size="9" fill="#999">0.06855</text><line x1="60" y1="40.0" x2="480" y2="40.0" stroke="#eee" stroke-width="1"/><text x="54" y="44.0" text-anchor="end" font-family="system-ui, -apple-system, sans-serif" font-size="9" fill="#999">0.1299</text><polyline fill="none" stroke="#4CAF50" stroke-width="2" points="60.0,120.7 84.7,121.4 109.4,77.8 134.1,123.5 158.8,117.2 183.5,119.6 208.2,119.6 232.9,116.1 257.6,119.2 282.4,118.8 307.1,45.7 331.8,113.9 356.5,118.8 381.2,119.2 405.9,112.5 430.6,62.5 455.3,111.2 480.0,119.3"/><circle cx="60.0" cy="120.7" r="3" fill="#4CAF50"/><circle cx="84.7" cy="121.4" r="3" fill="#4CAF50"/><circle cx="109.4" cy="77.8" r="3" fill="#4CAF50"/><circle cx="134.1" cy="123.5" r="3" fill="#4CAF50"/><circle cx="158.8" cy="117.2" r="3" fill="#4CAF50"/><circle cx="183.5" cy="119.6" r="3" fill="#4CAF50"/><circle cx="208.2" cy="119.6" r="3" fill="#4CAF50"/><circle cx="232.9" cy="116.1" r="3" fill="#4CAF50"/><circle cx="257.6" cy="119.2" r="3" fill="#4CAF50"/><circle cx="282.4" cy="118.8" r="3" fill="#4CAF50"/><circle cx="307.1" cy="45.7" r="3" fill="#4CAF50"/><circle cx="331.8" cy="113.9" r="3" fill="#4CAF50"/><circle cx="356.5" cy="118.8" r="3" fill="#4CAF50"/><circle cx="381.2" cy="119.2" r="3" fill="#4CAF50"/><circle cx="405.9" cy="112.5" r="3" fill="#4CAF50"/><circle cx="430.6" cy="62.5" r="3" fill="#4CAF50"/><circle cx="455.3" cy="111.2" r="3" fill="#4CAF50"/><circle cx="480.0" cy="119.3" r="3" fill="#4CAF50"/><rect x="490" y="44" width="10" height="10" fill="#4CAF50"/><text x="504" y="53" font-family="system-ui, -apple-system, sans-serif" font-size="10" fill="#333">openai</text><polyline fill="none" stroke="#2196F3" stroke-width="2" points="60.0,122.8 84.7,130.0 109.4,122.3 134.1,125.6 158.8,132.9 183.5,118.1 208.2,125.4 232.9,120.4 257.6,120.4 282.4,119.4 307.1,121.8 331.8,134.7 356.5,133.4 381.2,126.9 405.9,121.0 430.6,121.3 455.3,90.2 480.0,121.1"/><circle cx="60.0" cy="122.8" r="3" fill="#2196F3"/><circle cx="84.7" cy="130.0" r="3" fill="#2196F3"/><circle cx="109.4" cy="122.3" r="3" fill="#2196F3"/><circle cx="134.1" cy="125.6" r="3" fill="#2196F3"/><circle cx="158.8" cy="132.9" r="3" fill="#2196F3"/><circle cx="183.5" cy="118.1" r="3" fill="#2196F3"/><circle cx="208.2" cy="125.4" r="3" fill="#2196F3"/><circle cx="232.9" cy="120.4" r="3" fill="#2196F3"/><circle cx="257.6" cy="120.4" r="3" fill="#2196F3"/><circle cx="282.4" cy="119.4" r="3" fill="#2196F3"/><circle cx="307.1" cy="121.8" r="3" fill="#2196F3"/><circle cx="331.8" cy="134.7" r="3" fill="#2196F3"/><circle cx="356.5" cy="133.4" r="3" fill="#2196F3"/><circle cx="381.2" cy="126.9" r="3" fill="#2196F3"/><circle cx="405.9" cy="121.0" r="3" fill="#2196F3"/><circle cx="430.6" cy="121.3" r="3" fill="#2196F3"/><circle cx="455.3" cy="90.2" r="3" fill="#2196F3"/><circle cx="480.0" cy="121.1" r="3" fill="#2196F3"/><rect x="490" y="62" width="10" height="10" fill="#2196F3"/><text x="504" y="71" font-family="system-ui, -apple-system, sans-serif" font-size="10" fill="#333">gemini</text><polyline fill="none" stroke="#FF9800" stroke-width="2" points="60.0,72.6 84.7,95.7 109.4,100.7 134.1,67.0 158.8,94.9 183.5,46.5 208.2,88.5 232.9,72.3 257.6,81.2 282.4,92.7 307.1,101.3 331.8,87.3 356.5,78.7 381.2,117.6 405.9,98.1 430.6,95.4 455.3,82.5"/><circle cx="60.0" cy="72.6" r="3" fill="#FF9800"/><circle cx="84.7" cy="95.7" r="3" fill="#FF9800"/><circle cx="109.4" cy="100.7" r="3" fill="#FF9800"/><circle cx="134.1" cy="67.0" r="3" fill="#FF9800"/><circle cx="158.8" cy="94.9" r="3" fill="#FF9800"/><circle cx="183.5" cy="46.5" r="3" fill="#FF9800"/><circle cx="208.2" cy="88.5" r="3" fill="#FF9800"/><circle cx="232.9" cy="72.3" r="3" fill="#FF9800"/><circle cx="257.6" cy="81.2" r="3" fill="#FF9800"/><circle cx="282.4" cy="92.7" r="3" fill="#FF9800"/><circle cx="307.1" cy="101.3" r="3" fill="#FF9800"/><circle cx="331.8" cy="87.3" r="3" fill="#FF9800"/><circle cx="356.5" cy="78.7" r="3" fill="#FF9800"/><circle cx="381.2" cy="117.6" r="3" fill="#FF9800"/><circle cx="405.9" cy="98.1" r="3" fill="#FF9800"/><circle cx="430.6" cy="95.4" r="3" fill="#FF9800"/><circle cx="455.3" cy="82.5" r="3" fill="#FF9800"/><rect x="490" y="80" width="10" height="10" fill="#FF9800"/><text x="504" y="89" font-family="system-ui, -apple-system, sans-serif" font-size="10" fill="#333">anthropic</text><polyline fill="none" stroke="#E91E63" stroke-width="2" points="60.0,121.4 84.7,111.6 109.4,40.0 134.1,129.1 158.8,124.1 183.5,127.3 208.2,115.5 232.9,115.1 257.6,111.3 282.4,118.9 307.1,111.3 331.8,112.2 356.5,114.3 381.2,121.8 405.9,106.2 430.6,120.2 455.3,113.6 480.0,118.2"/><circle cx="60.0" cy="121.4" r="3" fill="#E91E63"/><circle cx="84.7" cy="111.6" r="3" fill="#E91E63"/><circle cx="109.4" cy="40.0" r="3" fill="#E91E63"/><circle cx="134.1" cy="129.1" r="3" fill="#E91E63"/><circle cx="158.8" cy="124.1" r="3" fill="#E91E63"/><circle cx="183.5" cy="127.3" r="3" fill="#E91E63"/><circle cx="208.2" cy="115.5" r="3" fill="#E91E63"/><circle cx="232.9" cy="115.1" r="3" fill="#E91E63"/><circle cx="257.6" cy="111.3" r="3" fill="#E91E63"/><circle cx="282.4" cy="118.9" r="3" fill="#E91E63"/><circle cx="307.1" cy="111.3" r="3" fill="#E91E63"/><circle cx="331.8" cy="112.2" r="3" fill="#E91E63"/><circle cx="356.5" cy="114.3" r="3" fill="#E91E63"/><circle cx="381.2" cy="121.8" r="3" fill="#E91E63"/><circle cx="405.9" cy="106.2" r="3" fill="#E91E63"/><circle cx="430.6" cy="120.2" r="3" fill="#E91E63"/><circle cx="455.3" cy="113.6" r="3" fill="#E91E63"/><circle cx="480.0" cy="118.2" r="3" fill="#E91E63"/><rect x="490" y="98" width="10" height="10" fill="#E91E63"/><text x="504" y="107" font-family="system-ui, -apple-system, sans-serif" font-size="10" fill="#333">mistral</text><polyline fill="none" stroke="#9C27B0" stroke-width="2" points="60.0,179.5 84.7,190.0 109.4,193.5 134.1,176.9 158.8,184.4 183.5,194.7 208.2,190.0 232.9,183.0 257.6,186.4 282.4,193.0 307.1,186.3 331.8,183.7 356.5,188.2 381.2,171.2 405.9,189.5 430.6,183.5 455.3,192.4 480.0,192.9"/><circle cx="60.0" cy="179.5" r="3" fill="#9C27B0"/><circle cx="84.7" cy="190.0" r="3" fill="#9C27B0"/><circle cx="109.4" cy="193.5" r="3" fill="#9C27B0"/><circle cx="134.1" cy="176.9" r="3" fill="#9C27B0"/><circle cx="158.8" cy="184.4" r="3" fill="#9C27B0"/><circle cx="183.5" cy="194.7" r="3" fill="#9C27B0"/><circle cx="208.2" cy="190.0" r="3" fill="#9C27B0"/><circle cx="232.9" cy="183.0" r="3" fill="#9C27B0"/><circle cx="257.6" cy="186.4" r="3" fill="#9C27B0"/><circle cx="282.4" cy="193.0" r="3" fill="#9C27B0"/><circle cx="307.1" cy="186.3" r="3" fill="#9C27B0"/><circle cx="331.8" cy="183.7" r="3" fill="#9C27B0"/><circle cx="356.5" cy="188.2" r="3" fill="#9C27B0"/><circle cx="381.2" cy="171.2" r="3" fill="#9C27B0"/><circle cx="405.9" cy="189.5" r="3" fill="#9C27B0"/><circle cx="430.6" cy="183.5" r="3" fill="#9C27B0"/><circle cx="455.3" cy="192.4" r="3" fill="#9C27B0"/><circle cx="480.0" cy="192.9" r="3" fill="#9C27B0"/><rect x="490" y="116" width="10" height="10" fill="#9C27B0"/><text x="504" y="125" font-family="system-ui, -apple-system, sans-serif" font-size="10" fill="#333">llama</text><polyline fill="none" stroke="#00BCD4" stroke-width="2" points="257.6,239.0 282.4,239.1 307.1,239.8 331.8,238.6 356.5,238.8 381.2,233.0 405.9,240.0 430.6,237.4 455.3,237.5 480.0,237.0"/><circle cx="257.6" cy="239.0" r="3" fill="#00BCD4"/><circle cx="282.4" cy="239.1" r="3" fill="#00BCD4"/><circle cx="307.1" cy="239.8" r="3" fill="#00BCD4"/><circle cx="331.8" cy="238.6" r="3" fill="#00BCD4"/><circle cx="356.5" cy="238.8" r="3" fill="#00BCD4"/><circle cx="381.2" cy="233.0" r="3" fill="#00BCD4"/><circle cx="405.9" cy="240.0" r="3" fill="#00BCD4"/><circle cx="430.6" cy="237.4" r="3" fill="#00BCD4"/><circle cx="455.3" cy="237.5" r="3" fill="#00BCD4"/><circle cx="480.0" cy="237.0" r="3" fill="#00BCD4"/><rect x="490" y="134" width="10" height="10" fill="#00BCD4"/><text x="504" y="143" font-family="system-ui, -apple-system, sans-serif" font-size="10" fill="#333">deepseek</text><text x="60.0" y="256.0" text-anchor="middle" font-family="system-ui, -apple-system, sans-serif" font-size="9" fill="#666">71825113</text><text x="84.7" y="256.0" text-anchor="middle" font-family="system-ui, -apple-system, sans-serif" font-size="9" fill="#666">75010794</text><text x="109.4" y="256.0" text-anchor="middle" font-family="system-ui, -apple-system, sans-serif" font-size="9" fill="#666">76301827</text><text x="134.1" y="256.0" text-anchor="middle" font-family="system-ui, -apple-system, sans-serif" font-size="9" fill="#666">97386462</text><text x="158.8" y="256.0" text-anchor="middle" font-family="system-ui, -apple-system, sans-serif" font-size="9" fill="#666">00118301</text><text x="183.5" y="256.0" text-anchor="middle" font-family="system-ui, -apple-system, sans-serif" font-size="9" fill="#666">07642311</text><text x="208.2" y="256.0" text-anchor="middle" font-family="system-ui, -apple-system, sans-serif" font-size="9" fill="#666">31919473</text><text x="232.9" y="256.0" text-anchor="middle" font-family="system-ui, -apple-system, sans-serif" font-size="9" fill="#666">33376499</text><text x="257.6" y="256.0" text-anchor="middle" font-family="system-ui, -apple-system, sans-serif" font-size="9" fill="#666">49559976</text><text x="282.4" y="256.0" text-anchor="middle" font-family="system-ui, -apple-system, sans-serif" font-size="9" fill="#666">51938981</text><text x="307.1" y="256.0" text-anchor="middle" font-family="system-ui, -apple-system, sans-serif" font-size="9" fill="#666">53749546</text><text x="331.8" y="256.0" text-anchor="middle" font-family="system-ui, -apple-system, sans-serif" font-size="9" fill="#666">54994841</text><text x="356.5" y="256.0" text-anchor="middle" font-family="system-ui, -apple-system, sans-serif" font-size="9" fill="#666">73723278</text><text x="381.2" y="256.0" text-anchor="middle" font-family="system-ui, -apple-system, sans-serif" font-size="9" fill="#666">74446787</text><text x="405.9" y="256.0" text-anchor="middle" font-family="system-ui, -apple-system, sans-serif" font-size="9" fill="#666">75063969</text><text x="430.6" y="256.0" text-anchor="middle" font-family="system-ui, -apple-system, sans-serif" font-size="9" fill="#666">75757458</text><text x="455.3" y="256.0" text-anchor="middle" font-family="system-ui, -apple-system, sans-serif" font-size="9" fill="#666">76005435</text><text x="480.0" y="256.0" text-anchor="middle" font-family="system-ui, -apple-system, sans-serif" font-size="9" fill="#666">37885074</text></svg>
