<svg xmlns="http://www.w3.org/2000/svg" viewBox="0 0 760 348" width="760" height="348" role="img" aria-label="Cost per test by provider over runs — anthropic highest, deepseek lowest" font-family="-apple-system,BlinkMacSystemFont,'Segoe UI',system-ui,sans-serif"><line x1="56" y1="306" x2="642" y2="306" stroke="#d8dee4" stroke-width="1"></line><text x="46" y="310" font-size="9.5" font-weight="400" text-anchor="end" fill="#656d76" font-family="ui-monospace,SFMono-Regular,Menlo,monospace">$0.000</text><line x1="56" y1="235" x2="642" y2="235" stroke="#d8dee4" stroke-width="1"></line><text x="46" y="239" font-size="9.5" font-weight="400" text-anchor="end" fill="#656d76" font-family="ui-monospace,SFMono-Regular,Menlo,monospace">$0.044</text><line x1="56" y1="164" x2="642" y2="164" stroke="#d8dee4" stroke-width="1"></line><text x="46" y="168" font-size="9.5" font-weight="400" text-anchor="end" fill="#656d76" font-family="ui-monospace,SFMono-Regular,Menlo,monospace">$0.087</text><line x1="56" y1="93" x2="642" y2="93" stroke="#d8dee4" stroke-width="1"></line><text x="46" y="97" font-size="9.5" font-weight="400" text-anchor="end" fill="#656d76" font-family="ui-monospace,SFMono-Regular,Menlo,monospace">$0.131</text><line x1="56" y1="22" x2="642" y2="22" stroke="#d8dee4" stroke-width="1"></line><text x="46" y="26" font-size="9.5" font-weight="400" text-anchor="end" fill="#656d76" font-family="ui-monospace,SFMono-Regular,Menlo,monospace">$0.175</text><text x="56" y="324" font-size="9.5" font-weight="400" text-anchor="middle" fill="#656d76" font-family="ui-monospace,SFMono-Regular,Menlo,monospace">06/06</text><text x="108.09" y="324" font-size="9.5" font-weight="400" text-anchor="middle" fill="#656d76" font-family="ui-monospace,SFMono-Regular,Menlo,monospace">06/08</text><text x="160.18" y="324" font-size="9.5" font-weight="400" text-anchor="middle" fill="#656d76" font-family="ui-monospace,SFMono-Regular,Menlo,monospace">06/09</text><text x="212.27" y="324" font-size="9.5" font-weight="400" text-anchor="middle" fill="#656d76" font-family="ui-monospace,SFMono-Regular,Menlo,monospace">06/12</text><text x="264.36" y="324" font-size="9.5" font-weight="400" text-anchor="middle" fill="#656d76" font-family="ui-monospace,SFMono-Regular,Menlo,monospace">06/14</text><text x="316.44" y="324" font-size="9.5" font-weight="400" text-anchor="middle" fill="#656d76" font-family="ui-monospace,SFMono-Regular,Menlo,monospace">06/16</text><text x="368.53" y="324" font-size="9.5" font-weight="400" text-anchor="middle" fill="#656d76" font-family="ui-monospace,SFMono-Regular,Menlo,monospace">06/17</text><text x="420.62" y="324" font-size="9.5" font-weight="400" text-anchor="middle" fill="#656d76" font-family="ui-monospace,SFMono-Regular,Menlo,monospace">06/20</text><text x="472.71" y="324" font-size="9.5" font-weight="400" text-anchor="middle" fill="#656d76" font-family="ui-monospace,SFMono-Regular,Menlo,monospace">06/22</text><text x="524.8" y="324" font-size="9.5" font-weight="400" text-anchor="middle" fill="#656d76" font-family="ui-monospace,SFMono-Regular,Menlo,monospace">06/24</text><text x="576.89" y="324" font-size="9.5" font-weight="400" text-anchor="middle" fill="#656d76" font-family="ui-monospace,SFMono-Regular,Menlo,monospace">06/25</text><text x="628.98" y="324" font-size="9.5" font-weight="400" text-anchor="middle" fill="#656d76" font-family="ui-monospace,SFMono-Regular,Menlo,monospace">06/26</text><text x="642" y="324" font-size="9.5" font-weight="400" text-anchor="middle" fill="#656d76" font-family="ui-monospace,SFMono-Regular,Menlo,monospace">06/26</text><polyline fill="none" stroke="#E8835A" stroke-width="2.4" stroke-linejoin="round" stroke-linecap="round" points="56,127.57 62.51,150.54 69.02,155.57 75.53,121.98 82.04,149.77 88.56,101.48 95.07,143.34 101.58,127.27 108.09,136.08 114.6,147.56 121.11,156.16 127.62,142.22 134.13,133.66 140.64,172.34 147.16,152.97 153.67,150.25 160.18,137.41 173.2,139.72 179.71,154.49 186.22,123.23 192.73,158.62 199.24,152.1 205.76,138.5 212.27,150.41 218.78,153.33 225.29,160.32 231.8,151.8 238.31,167.78 244.82,154.07 251.33,153.5 257.84,164.26 264.36,157.44 270.87,147.09 277.38,152.61 283.89,152.63 290.4,148.19 296.91,151.19 303.42,151.03 309.93,149.61 316.44,146 322.96,147.05 329.47,153.47 335.98,136.91 342.49,155.39 349,156.85"></polyline><circle cx="56" cy="127.57" r="2.6" fill="#E8835A"></circle><circle cx="62.51" cy="150.54" r="2.6" fill="#E8835A"></circle><circle cx="69.02" cy="155.57" r="2.6" fill="#E8835A"></circle><circle cx="75.53" cy="121.98" r="2.6" fill="#E8835A"></circle><circle cx="82.04" cy="149.77" r="2.6" fill="#E8835A"></circle><circle cx="88.56" cy="101.48" r="2.6" fill="#E8835A"></circle><circle cx="95.07" cy="143.34" r="2.6" fill="#E8835A"></circle><circle cx="101.58" cy="127.27" r="2.6" fill="#E8835A"></circle><circle cx="108.09" cy="136.08" r="2.6" fill="#E8835A"></circle><circle cx="114.6" cy="147.56" r="2.6" fill="#E8835A"></circle><circle cx="121.11" cy="156.16" r="2.6" fill="#E8835A"></circle><circle cx="127.62" cy="142.22" r="2.6" fill="#E8835A"></circle><circle cx="134.13" cy="133.66" r="2.6" fill="#E8835A"></circle><circle cx="140.64" cy="172.34" r="2.6" fill="#E8835A"></circle><circle cx="147.16" cy="152.97" r="2.6" fill="#E8835A"></circle><circle cx="153.67" cy="150.25" r="2.6" fill="#E8835A"></circle><circle cx="160.18" cy="137.41" r="2.6" fill="#E8835A"></circle><circle cx="173.2" cy="139.72" r="2.6" fill="#E8835A"></circle><circle cx="179.71" cy="154.49" r="2.6" fill="#E8835A"></circle><circle cx="186.22" cy="123.23" r="2.6" fill="#E8835A"></circle><circle cx="192.73" cy="158.62" r="2.6" fill="#E8835A"></circle><circle cx="199.24" cy="152.1" r="2.6" fill="#E8835A"></circle><circle cx="205.76" cy="138.5" r="2.6" fill="#E8835A"></circle><circle cx="212.27" cy="150.41" r="2.6" fill="#E8835A"></circle><circle cx="218.78" cy="153.33" r="2.6" fill="#E8835A"></circle><circle cx="225.29" cy="160.32" r="2.6" fill="#E8835A"></circle><circle cx="231.8" cy="151.8" r="2.6" fill="#E8835A"></circle><circle cx="238.31" cy="167.78" r="2.6" fill="#E8835A"></circle><circle cx="244.82" cy="154.07" r="2.6" fill="#E8835A"></circle><circle cx="251.33" cy="153.5" r="2.6" fill="#E8835A"></circle><circle cx="257.84" cy="164.26" r="2.6" fill="#E8835A"></circle><circle cx="264.36" cy="157.44" r="2.6" fill="#E8835A"></circle><circle cx="270.87" cy="147.09" r="2.6" fill="#E8835A"></circle><circle cx="277.38" cy="152.61" r="2.6" fill="#E8835A"></circle><circle cx="283.89" cy="152.63" r="2.6" fill="#E8835A"></circle><circle cx="290.4" cy="148.19" r="2.6" fill="#E8835A"></circle><circle cx="296.91" cy="151.19" r="2.6" fill="#E8835A"></circle><circle cx="303.42" cy="151.03" r="2.6" fill="#E8835A"></circle><circle cx="309.93" cy="149.61" r="2.6" fill="#E8835A"></circle><circle cx="316.44" cy="146" r="2.6" fill="#E8835A"></circle><circle cx="322.96" cy="147.05" r="2.6" fill="#E8835A"></circle><circle cx="329.47" cy="153.47" r="2.6" fill="#E8835A"></circle><circle cx="335.98" cy="136.91" r="2.6" fill="#E8835A"></circle><circle cx="342.49" cy="155.39" r="2.6" fill="#E8835A"></circle><circle cx="349" cy="156.85" r="2.6" fill="#E8835A"></circle><polyline fill="none" stroke="#6366F1" stroke-width="2.4" stroke-linejoin="round" stroke-linecap="round" points="108.09,293.36 114.6,293.43 121.11,294.1 127.62,292.89 134.13,293.14 140.64,287.31 147.16,294.31 153.67,291.77 160.18,291.82 166.69,291.36 173.2,293.02 179.71,291.8 186.22,288.55 192.73,292.06 199.24,288.85 205.76,294.29 212.27,292.11 218.78,288.48 225.29,285.75 231.8,292.13 238.31,291.04 244.82,293.66 251.33,290.08 257.84,286.94 264.36,292.77 270.87,291.68 277.38,292.47 283.89,291.27 296.91,290.7 303.42,292.91 309.93,293.34 316.44,290.78 322.96,290.99 329.47,291.6 335.98,292.29 342.49,292.81 349,293.37 362.02,293.66 368.53,293.82 375.04,292.24 381.56,291.11 388.07,291.02 394.58,284.88 401.09,291.48 407.6,288.67 414.11,290.47 420.62,288.84 427.13,291.75 440.16,293.31 446.67,293.99 453.18,283.51 459.69,293.65 466.2,291.81 472.71,288.4 479.22,290.65 485.73,291.51 492.24,292.83 498.76,292.29 505.27,292.47 511.78,291.94 518.29,291.55 524.8,286.48 531.31,293.64 537.82,293.02 544.33,289.13 550.84,293.27 557.36,293.55 563.87,290.63 570.38,294.26 576.89,294.04 583.4,292.1 589.91,293.08 596.42,294.3 602.93,290.77 609.44,291.33 615.96,291.53 622.47,292.23 635.49,291.66 642,292.25"></polyline><circle cx="108.09" cy="293.36" r="2.6" fill="#6366F1"></circle><circle cx="114.6" cy="293.43" r="2.6" fill="#6366F1"></circle><circle cx="121.11" cy="294.1" r="2.6" fill="#6366F1"></circle><circle cx="127.62" cy="292.89" r="2.6" fill="#6366F1"></circle><circle cx="134.13" cy="293.14" r="2.6" fill="#6366F1"></circle><circle cx="140.64" cy="287.31" r="2.6" fill="#6366F1"></circle><circle cx="147.16" cy="294.31" r="2.6" fill="#6366F1"></circle><circle cx="153.67" cy="291.77" r="2.6" fill="#6366F1"></circle><circle cx="160.18" cy="291.82" r="2.6" fill="#6366F1"></circle><circle cx="166.69" cy="291.36" r="2.6" fill="#6366F1"></circle><circle cx="173.2" cy="293.02" r="2.6" fill="#6366F1"></circle><circle cx="179.71" cy="291.8" r="2.6" fill="#6366F1"></circle><circle cx="186.22" cy="288.55" r="2.6" fill="#6366F1"></circle><circle cx="192.73" cy="292.06" r="2.6" fill="#6366F1"></circle><circle cx="199.24" cy="288.85" r="2.6" fill="#6366F1"></circle><circle cx="205.76" cy="294.29" r="2.6" fill="#6366F1"></circle><circle cx="212.27" cy="292.11" r="2.6" fill="#6366F1"></circle><circle cx="218.78" cy="288.48" r="2.6" fill="#6366F1"></circle><circle cx="225.29" cy="285.75" r="2.6" fill="#6366F1"></circle><circle cx="231.8" cy="292.13" r="2.6" fill="#6366F1"></circle><circle cx="238.31" cy="291.04" r="2.6" fill="#6366F1"></circle><circle cx="244.82" cy="293.66" r="2.6" fill="#6366F1"></circle><circle cx="251.33" cy="290.08" r="2.6" fill="#6366F1"></circle><circle cx="257.84" cy="286.94" r="2.6" fill="#6366F1"></circle><circle cx="264.36" cy="292.77" r="2.6" fill="#6366F1"></circle><circle cx="270.87" cy="291.68" r="2.6" fill="#6366F1"></circle><circle cx="277.38" cy="292.47" r="2.6" fill="#6366F1"></circle><circle cx="283.89" cy="291.27" r="2.6" fill="#6366F1"></circle><circle cx="296.91" cy="290.7" r="2.6" fill="#6366F1"></circle><circle cx="303.42" cy="292.91" r="2.6" fill="#6366F1"></circle><circle cx="309.93" cy="293.34" r="2.6" fill="#6366F1"></circle><circle cx="316.44" cy="290.78" r="2.6" fill="#6366F1"></circle><circle cx="322.96" cy="290.99" r="2.6" fill="#6366F1"></circle><circle cx="329.47" cy="291.6" r="2.6" fill="#6366F1"></circle><circle cx="335.98" cy="292.29" r="2.6" fill="#6366F1"></circle><circle cx="342.49" cy="292.81" r="2.6" fill="#6366F1"></circle><circle cx="349" cy="293.37" r="2.6" fill="#6366F1"></circle><circle cx="362.02" cy="293.66" r="2.6" fill="#6366F1"></circle><circle cx="368.53" cy="293.82" r="2.6" fill="#6366F1"></circle><circle cx="375.04" cy="292.24" r="2.6" fill="#6366F1"></circle><circle cx="381.56" cy="291.11" r="2.6" fill="#6366F1"></circle><circle cx="388.07" cy="291.02" r="2.6" fill="#6366F1"></circle><circle cx="394.58" cy="284.88" r="2.6" fill="#6366F1"></circle><circle cx="401.09" cy="291.48" r="2.6" fill="#6366F1"></circle><circle cx="407.6" cy="288.67" r="2.6" fill="#6366F1"></circle><circle cx="414.11" cy="290.47" r="2.6" fill="#6366F1"></circle><circle cx="420.62" cy="288.84" r="2.6" fill="#6366F1"></circle><circle cx="427.13" cy="291.75" r="2.6" fill="#6366F1"></circle><circle cx="440.16" cy="293.31" r="2.6" fill="#6366F1"></circle><circle cx="446.67" cy="293.99" r="2.6" fill="#6366F1"></circle><circle cx="453.18" cy="283.51" r="2.6" fill="#6366F1"></circle><circle cx="459.69" cy="293.65" r="2.6" fill="#6366F1"></circle><circle cx="466.2" cy="291.81" r="2.6" fill="#6366F1"></circle><circle cx="472.71" cy="288.4" r="2.6" fill="#6366F1"></circle><circle cx="479.22" cy="290.65" r="2.6" fill="#6366F1"></circle><circle cx="485.73" cy="291.51" r="2.6" fill="#6366F1"></circle><circle cx="492.24" cy="292.83" r="2.6" fill="#6366F1"></circle><circle cx="498.76" cy="292.29" r="2.6" fill="#6366F1"></circle><circle cx="505.27" cy="292.47" r="2.6" fill="#6366F1"></circle><circle cx="511.78" cy="291.94" r="2.6" fill="#6366F1"></circle><circle cx="518.29" cy="291.55" r="2.6" fill="#6366F1"></circle><circle cx="524.8" cy="286.48" r="2.6" fill="#6366F1"></circle><circle cx="531.31" cy="293.64" r="2.6" fill="#6366F1"></circle><circle cx="537.82" cy="293.02" r="2.6" fill="#6366F1"></circle><circle cx="544.33" cy="289.13" r="2.6" fill="#6366F1"></circle><circle cx="550.84" cy="293.27" r="2.6" fill="#6366F1"></circle><circle cx="557.36" cy="293.55" r="2.6" fill="#6366F1"></circle><circle cx="563.87" cy="290.63" r="2.6" fill="#6366F1"></circle><circle cx="570.38" cy="294.26" r="2.6" fill="#6366F1"></circle><circle cx="576.89" cy="294.04" r="2.6" fill="#6366F1"></circle><circle cx="583.4" cy="292.1" r="2.6" fill="#6366F1"></circle><circle cx="589.91" cy="293.08" r="2.6" fill="#6366F1"></circle><circle cx="596.42" cy="294.3" r="2.6" fill="#6366F1"></circle><circle cx="602.93" cy="290.77" r="2.6" fill="#6366F1"></circle><circle cx="609.44" cy="291.33" r="2.6" fill="#6366F1"></circle><circle cx="615.96" cy="291.53" r="2.6" fill="#6366F1"></circle><circle cx="622.47" cy="292.23" r="2.6" fill="#6366F1"></circle><circle cx="635.49" cy="291.66" r="2.6" fill="#6366F1"></circle><circle cx="642" cy="292.25" r="2.6" fill="#6366F1"></circle><polyline fill="none" stroke="#2DA98C" stroke-width="2.4" stroke-linejoin="round" stroke-linecap="round" points="56,177.54 62.51,184.75 69.02,177.06 75.53,180.34 82.04,187.66 88.56,172.87 95.07,180.16 101.58,175.2 108.09,175.16 114.6,174.17 121.11,176.55 127.62,189.44 134.13,188.08 140.64,181.62 147.16,175.71 153.67,176.02 160.18,145.03 166.69,175.81 173.2,142.78 179.71,152.48 186.22,167.95 192.73,161.96 199.24,179.65 205.76,154.21 212.27,175.54 218.78,169.72 225.29,166.19 231.8,168.96 296.91,183.66 303.42,171.98 309.93,158.08 316.44,184.11 322.96,159.65 329.47,153.07 335.98,175.59 342.49,147.56 349,181.96 362.02,168.35 368.53,160.07 375.04,162.84 381.56,169.17 388.07,179.86 394.58,162.19 401.09,176.21 407.6,157.24 414.11,161.18 420.62,165.58 427.13,169.62 440.16,176.54 446.67,164.19 453.18,120.01 459.69,183.3 466.2,168.8 472.71,160.75 479.22,167.62 485.73,163.1 492.24,153.1 498.76,145.23 505.27,165.61 511.78,150.54 518.29,172.34 524.8,154.82 531.31,169.79 537.82,169.77 544.33,133.01 550.84,152.52 557.36,172.51 563.87,172.15"></polyline><circle cx="56" cy="177.54" r="2.6" fill="#2DA98C"></circle><circle cx="62.51" cy="184.75" r="2.6" fill="#2DA98C"></circle><circle cx="69.02" cy="177.06" r="2.6" fill="#2DA98C"></circle><circle cx="75.53" cy="180.34" r="2.6" fill="#2DA98C"></circle><circle cx="82.04" cy="187.66" r="2.6" fill="#2DA98C"></circle><circle cx="88.56" cy="172.87" r="2.6" fill="#2DA98C"></circle><circle cx="95.07" cy="180.16" r="2.6" fill="#2DA98C"></circle><circle cx="101.58" cy="175.2" r="2.6" fill="#2DA98C"></circle><circle cx="108.09" cy="175.16" r="2.6" fill="#2DA98C"></circle><circle cx="114.6" cy="174.17" r="2.6" fill="#2DA98C"></circle><circle cx="121.11" cy="176.55" r="2.6" fill="#2DA98C"></circle><circle cx="127.62" cy="189.44" r="2.6" fill="#2DA98C"></circle><circle cx="134.13" cy="188.08" r="2.6" fill="#2DA98C"></circle><circle cx="140.64" cy="181.62" r="2.6" fill="#2DA98C"></circle><circle cx="147.16" cy="175.71" r="2.6" fill="#2DA98C"></circle><circle cx="153.67" cy="176.02" r="2.6" fill="#2DA98C"></circle><circle cx="160.18" cy="145.03" r="2.6" fill="#2DA98C"></circle><circle cx="166.69" cy="175.81" r="2.6" fill="#2DA98C"></circle><circle cx="173.2" cy="142.78" r="2.6" fill="#2DA98C"></circle><circle cx="179.71" cy="152.48" r="2.6" fill="#2DA98C"></circle><circle cx="186.22" cy="167.95" r="2.6" fill="#2DA98C"></circle><circle cx="192.73" cy="161.96" r="2.6" fill="#2DA98C"></circle><circle cx="199.24" cy="179.65" r="2.6" fill="#2DA98C"></circle><circle cx="205.76" cy="154.21" r="2.6" fill="#2DA98C"></circle><circle cx="212.27" cy="175.54" r="2.6" fill="#2DA98C"></circle><circle cx="218.78" cy="169.72" r="2.6" fill="#2DA98C"></circle><circle cx="225.29" cy="166.19" r="2.6" fill="#2DA98C"></circle><circle cx="231.8" cy="168.96" r="2.6" fill="#2DA98C"></circle><circle cx="296.91" cy="183.66" r="2.6" fill="#2DA98C"></circle><circle cx="303.42" cy="171.98" r="2.6" fill="#2DA98C"></circle><circle cx="309.93" cy="158.08" r="2.6" fill="#2DA98C"></circle><circle cx="316.44" cy="184.11" r="2.6" fill="#2DA98C"></circle><circle cx="322.96" cy="159.65" r="2.6" fill="#2DA98C"></circle><circle cx="329.47" cy="153.07" r="2.6" fill="#2DA98C"></circle><circle cx="335.98" cy="175.59" r="2.6" fill="#2DA98C"></circle><circle cx="342.49" cy="147.56" r="2.6" fill="#2DA98C"></circle><circle cx="349" cy="181.96" r="2.6" fill="#2DA98C"></circle><circle cx="362.02" cy="168.35" r="2.6" fill="#2DA98C"></circle><circle cx="368.53" cy="160.07" r="2.6" fill="#2DA98C"></circle><circle cx="375.04" cy="162.84" r="2.6" fill="#2DA98C"></circle><circle cx="381.56" cy="169.17" r="2.6" fill="#2DA98C"></circle><circle cx="388.07" cy="179.86" r="2.6" fill="#2DA98C"></circle><circle cx="394.58" cy="162.19" r="2.6" fill="#2DA98C"></circle><circle cx="401.09" cy="176.21" r="2.6" fill="#2DA98C"></circle><circle cx="407.6" cy="157.24" r="2.6" fill="#2DA98C"></circle><circle cx="414.11" cy="161.18" r="2.6" fill="#2DA98C"></circle><circle cx="420.62" cy="165.58" r="2.6" fill="#2DA98C"></circle><circle cx="427.13" cy="169.62" r="2.6" fill="#2DA98C"></circle><circle cx="440.16" cy="176.54" r="2.6" fill="#2DA98C"></circle><circle cx="446.67" cy="164.19" r="2.6" fill="#2DA98C"></circle><circle cx="453.18" cy="120.01" r="2.6" fill="#2DA98C"></circle><circle cx="459.69" cy="183.3" r="2.6" fill="#2DA98C"></circle><circle cx="466.2" cy="168.8" r="2.6" fill="#2DA98C"></circle><circle cx="472.71" cy="160.75" r="2.6" fill="#2DA98C"></circle><circle cx="479.22" cy="167.62" r="2.6" fill="#2DA98C"></circle><circle cx="485.73" cy="163.1" r="2.6" fill="#2DA98C"></circle><circle cx="492.24" cy="153.1" r="2.6" fill="#2DA98C"></circle><circle cx="498.76" cy="145.23" r="2.6" fill="#2DA98C"></circle><circle cx="505.27" cy="165.61" r="2.6" fill="#2DA98C"></circle><circle cx="511.78" cy="150.54" r="2.6" fill="#2DA98C"></circle><circle cx="518.29" cy="172.34" r="2.6" fill="#2DA98C"></circle><circle cx="524.8" cy="154.82" r="2.6" fill="#2DA98C"></circle><circle cx="531.31" cy="169.79" r="2.6" fill="#2DA98C"></circle><circle cx="537.82" cy="169.77" r="2.6" fill="#2DA98C"></circle><circle cx="544.33" cy="133.01" r="2.6" fill="#2DA98C"></circle><circle cx="550.84" cy="152.52" r="2.6" fill="#2DA98C"></circle><circle cx="557.36" cy="172.51" r="2.6" fill="#2DA98C"></circle><circle cx="563.87" cy="172.15" r="2.6" fill="#2DA98C"></circle><polyline fill="none" stroke="#A371F7" stroke-width="2.4" stroke-linejoin="round" stroke-linecap="round" points="56,234.02 62.51,244.52 69.02,248 75.53,231.43 82.04,238.89 88.56,249.23 95.07,244.46 101.58,237.54 108.09,240.86 114.6,247.44 121.11,240.79 127.62,238.23 134.13,242.67 140.64,225.79 147.16,243.99 153.67,238.04 160.18,246.87 166.69,247.42 173.2,226.74 179.71,239.47 186.22,211.96 192.73,246.23 199.24,249.04 205.76,237.01 212.27,234.98 218.78,238.5 225.29,240.35 231.8,237.84 238.31,246.71 244.82,242.24 251.33,238.34 257.84,244.61 264.36,248.91 270.87,226.53 277.38,244.07 283.89,245.89 296.91,225.3 303.42,246.26 309.93,237.6 322.96,238.19 329.47,247.14 335.98,247.58 342.49,243.98 349,241.42 355.51,243.75 362.02,244.26 368.53,242.78 375.04,233.78 381.56,238.08 388.07,239.3 394.58,245.03 401.09,240.96 407.6,244.05 414.11,243 427.13,244.69 440.16,239.74 453.18,235.11 459.69,243.32 466.2,239.23 472.71,246.86 479.22,222.82 485.73,245.26 492.24,245.42 498.76,247.5 505.27,240.47 511.78,241.59 518.29,245.63 531.31,246.62 537.82,236.88 544.33,246.47 550.84,243.95 557.36,246.28 563.87,247.57 570.38,243.81 576.89,247.56 583.4,246.67 589.91,209.25 596.42,238.83 602.93,243.83 609.44,243.69 622.47,237.52 635.49,235.81 642,247.64"></polyline><circle cx="56" cy="234.02" r="2.6" fill="#A371F7"></circle><circle cx="62.51" cy="244.52" r="2.6" fill="#A371F7"></circle><circle cx="69.02" cy="248" r="2.6" fill="#A371F7"></circle><circle cx="75.53" cy="231.43" r="2.6" fill="#A371F7"></circle><circle cx="82.04" cy="238.89" r="2.6" fill="#A371F7"></circle><circle cx="88.56" cy="249.23" r="2.6" fill="#A371F7"></circle><circle cx="95.07" cy="244.46" r="2.6" fill="#A371F7"></circle><circle cx="101.58" cy="237.54" r="2.6" fill="#A371F7"></circle><circle cx="108.09" cy="240.86" r="2.6" fill="#A371F7"></circle><circle cx="114.6" cy="247.44" r="2.6" fill="#A371F7"></circle><circle cx="121.11" cy="240.79" r="2.6" fill="#A371F7"></circle><circle cx="127.62" cy="238.23" r="2.6" fill="#A371F7"></circle><circle cx="134.13" cy="242.67" r="2.6" fill="#A371F7"></circle><circle cx="140.64" cy="225.79" r="2.6" fill="#A371F7"></circle><circle cx="147.16" cy="243.99" r="2.6" fill="#A371F7"></circle><circle cx="153.67" cy="238.04" r="2.6" fill="#A371F7"></circle><circle cx="160.18" cy="246.87" r="2.6" fill="#A371F7"></circle><circle cx="166.69" cy="247.42" r="2.6" fill="#A371F7"></circle><circle cx="173.2" cy="226.74" r="2.6" fill="#A371F7"></circle><circle cx="179.71" cy="239.47" r="2.6" fill="#A371F7"></circle><circle cx="186.22" cy="211.96" r="2.6" fill="#A371F7"></circle><circle cx="192.73" cy="246.23" r="2.6" fill="#A371F7"></circle><circle cx="199.24" cy="249.04" r="2.6" fill="#A371F7"></circle><circle cx="205.76" cy="237.01" r="2.6" fill="#A371F7"></circle><circle cx="212.27" cy="234.98" r="2.6" fill="#A371F7"></circle><circle cx="218.78" cy="238.5" r="2.6" fill="#A371F7"></circle><circle cx="225.29" cy="240.35" r="2.6" fill="#A371F7"></circle><circle cx="231.8" cy="237.84" r="2.6" fill="#A371F7"></circle><circle cx="238.31" cy="246.71" r="2.6" fill="#A371F7"></circle><circle cx="244.82" cy="242.24" r="2.6" fill="#A371F7"></circle><circle cx="251.33" cy="238.34" r="2.6" fill="#A371F7"></circle><circle cx="257.84" cy="244.61" r="2.6" fill="#A371F7"></circle><circle cx="264.36" cy="248.91" r="2.6" fill="#A371F7"></circle><circle cx="270.87" cy="226.53" r="2.6" fill="#A371F7"></circle><circle cx="277.38" cy="244.07" r="2.6" fill="#A371F7"></circle><circle cx="283.89" cy="245.89" r="2.6" fill="#A371F7"></circle><circle cx="296.91" cy="225.3" r="2.6" fill="#A371F7"></circle><circle cx="303.42" cy="246.26" r="2.6" fill="#A371F7"></circle><circle cx="309.93" cy="237.6" r="2.6" fill="#A371F7"></circle><circle cx="322.96" cy="238.19" r="2.6" fill="#A371F7"></circle><circle cx="329.47" cy="247.14" r="2.6" fill="#A371F7"></circle><circle cx="335.98" cy="247.58" r="2.6" fill="#A371F7"></circle><circle cx="342.49" cy="243.98" r="2.6" fill="#A371F7"></circle><circle cx="349" cy="241.42" r="2.6" fill="#A371F7"></circle><circle cx="355.51" cy="243.75" r="2.6" fill="#A371F7"></circle><circle cx="362.02" cy="244.26" r="2.6" fill="#A371F7"></circle><circle cx="368.53" cy="242.78" r="2.6" fill="#A371F7"></circle><circle cx="375.04" cy="233.78" r="2.6" fill="#A371F7"></circle><circle cx="381.56" cy="238.08" r="2.6" fill="#A371F7"></circle><circle cx="388.07" cy="239.3" r="2.6" fill="#A371F7"></circle><circle cx="394.58" cy="245.03" r="2.6" fill="#A371F7"></circle><circle cx="401.09" cy="240.96" r="2.6" fill="#A371F7"></circle><circle cx="407.6" cy="244.05" r="2.6" fill="#A371F7"></circle><circle cx="414.11" cy="243" r="2.6" fill="#A371F7"></circle><circle cx="427.13" cy="244.69" r="2.6" fill="#A371F7"></circle><circle cx="440.16" cy="239.74" r="2.6" fill="#A371F7"></circle><circle cx="453.18" cy="235.11" r="2.6" fill="#A371F7"></circle><circle cx="459.69" cy="243.32" r="2.6" fill="#A371F7"></circle><circle cx="466.2" cy="239.23" r="2.6" fill="#A371F7"></circle><circle cx="472.71" cy="246.86" r="2.6" fill="#A371F7"></circle><circle cx="479.22" cy="222.82" r="2.6" fill="#A371F7"></circle><circle cx="485.73" cy="245.26" r="2.6" fill="#A371F7"></circle><circle cx="492.24" cy="245.42" r="2.6" fill="#A371F7"></circle><circle cx="498.76" cy="247.5" r="2.6" fill="#A371F7"></circle><circle cx="505.27" cy="240.47" r="2.6" fill="#A371F7"></circle><circle cx="511.78" cy="241.59" r="2.6" fill="#A371F7"></circle><circle cx="518.29" cy="245.63" r="2.6" fill="#A371F7"></circle><circle cx="531.31" cy="246.62" r="2.6" fill="#A371F7"></circle><circle cx="537.82" cy="236.88" r="2.6" fill="#A371F7"></circle><circle cx="544.33" cy="246.47" r="2.6" fill="#A371F7"></circle><circle cx="550.84" cy="243.95" r="2.6" fill="#A371F7"></circle><circle cx="557.36" cy="246.28" r="2.6" fill="#A371F7"></circle><circle cx="563.87" cy="247.57" r="2.6" fill="#A371F7"></circle><circle cx="570.38" cy="243.81" r="2.6" fill="#A371F7"></circle><circle cx="576.89" cy="247.56" r="2.6" fill="#A371F7"></circle><circle cx="583.4" cy="246.67" r="2.6" fill="#A371F7"></circle><circle cx="589.91" cy="209.25" r="2.6" fill="#A371F7"></circle><circle cx="596.42" cy="238.83" r="2.6" fill="#A371F7"></circle><circle cx="602.93" cy="243.83" r="2.6" fill="#A371F7"></circle><circle cx="609.44" cy="243.69" r="2.6" fill="#A371F7"></circle><circle cx="622.47" cy="237.52" r="2.6" fill="#A371F7"></circle><circle cx="635.49" cy="235.81" r="2.6" fill="#A371F7"></circle><circle cx="642" cy="247.64" r="2.6" fill="#A371F7"></circle><polyline fill="none" stroke="#F0A23B" stroke-width="2.4" stroke-linejoin="round" stroke-linecap="round" points="56,176.15 62.51,166.37 69.02,95.06 75.53,183.78 82.04,178.88 88.56,182.02 95.07,170.24 101.58,169.9 108.09,166.14 114.6,173.66 121.11,166.11 127.62,167.02 134.13,169.09 140.64,176.53 147.16,161.02 153.67,174.97 160.18,168.38 166.69,173 173.2,185.38 179.71,176.24 186.22,181.63 192.73,178.09 199.24,118.27 205.76,178.67 212.27,180.72 218.78,177.62 225.29,179.5 231.8,151.31 238.31,176.94 244.82,159.91 251.33,179.22 257.84,151.49 264.36,180.65 270.87,179.71 277.38,79.16 283.89,99.74 290.4,178.4 296.91,180.3 303.42,180.24 309.93,176.88 316.44,178.65 322.96,183.45 329.47,182.56 335.98,133.59 342.49,178.99 349,179.14 355.51,119.51 362.02,175.85 368.53,154.88 375.04,181.28 381.56,178.3 388.07,178.34 394.58,151.77 401.09,137.32 407.6,181.99 414.11,180.58 420.62,182.99 427.13,178.09 440.16,181.47 446.67,177.75 453.18,119.83 459.69,180.14 466.2,177.45 472.71,177.76 479.22,178.17 485.73,180.42 492.24,180.5 498.76,77.15 505.27,180.12 511.78,179.48 518.29,178.37 531.31,178.03 537.82,178.06 544.33,175.76 550.84,170.64 557.36,178.67 563.87,180.1 570.38,173.03 576.89,182.47 583.4,178.65 589.91,181.62 596.42,151.39 602.93,138.74 609.44,178.31 622.47,179.61 628.98,178.84 635.49,179.96 642,178"></polyline><circle cx="56" cy="176.15" r="2.6" fill="#F0A23B"></circle><circle cx="62.51" cy="166.37" r="2.6" fill="#F0A23B"></circle><circle cx="69.02" cy="95.06" r="2.6" fill="#F0A23B"></circle><circle cx="75.53" cy="183.78" r="2.6" fill="#F0A23B"></circle><circle cx="82.04" cy="178.88" r="2.6" fill="#F0A23B"></circle><circle cx="88.56" cy="182.02" r="2.6" fill="#F0A23B"></circle><circle cx="95.07" cy="170.24" r="2.6" fill="#F0A23B"></circle><circle cx="101.58" cy="169.9" r="2.6" fill="#F0A23B"></circle><circle cx="108.09" cy="166.14" r="2.6" fill="#F0A23B"></circle><circle cx="114.6" cy="173.66" r="2.6" fill="#F0A23B"></circle><circle cx="121.11" cy="166.11" r="2.6" fill="#F0A23B"></circle><circle cx="127.62" cy="167.02" r="2.6" fill="#F0A23B"></circle><circle cx="134.13" cy="169.09" r="2.6" fill="#F0A23B"></circle><circle cx="140.64" cy="176.53" r="2.6" fill="#F0A23B"></circle><circle cx="147.16" cy="161.02" r="2.6" fill="#F0A23B"></circle><circle cx="153.67" cy="174.97" r="2.6" fill="#F0A23B"></circle><circle cx="160.18" cy="168.38" r="2.6" fill="#F0A23B"></circle><circle cx="166.69" cy="173" r="2.6" fill="#F0A23B"></circle><circle cx="173.2" cy="185.38" r="2.6" fill="#F0A23B"></circle><circle cx="179.71" cy="176.24" r="2.6" fill="#F0A23B"></circle><circle cx="186.22" cy="181.63" r="2.6" fill="#F0A23B"></circle><circle cx="192.73" cy="178.09" r="2.6" fill="#F0A23B"></circle><circle cx="199.24" cy="118.27" r="2.6" fill="#F0A23B"></circle><circle cx="205.76" cy="178.67" r="2.6" fill="#F0A23B"></circle><circle cx="212.27" cy="180.72" r="2.6" fill="#F0A23B"></circle><circle cx="218.78" cy="177.62" r="2.6" fill="#F0A23B"></circle><circle cx="225.29" cy="179.5" r="2.6" fill="#F0A23B"></circle><circle cx="231.8" cy="151.31" r="2.6" fill="#F0A23B"></circle><circle cx="238.31" cy="176.94" r="2.6" fill="#F0A23B"></circle><circle cx="244.82" cy="159.91" r="2.6" fill="#F0A23B"></circle><circle cx="251.33" cy="179.22" r="2.6" fill="#F0A23B"></circle><circle cx="257.84" cy="151.49" r="2.6" fill="#F0A23B"></circle><circle cx="264.36" cy="180.65" r="2.6" fill="#F0A23B"></circle><circle cx="270.87" cy="179.71" r="2.6" fill="#F0A23B"></circle><circle cx="277.38" cy="79.16" r="2.6" fill="#F0A23B"></circle><circle cx="283.89" cy="99.74" r="2.6" fill="#F0A23B"></circle><circle cx="290.4" cy="178.4" r="2.6" fill="#F0A23B"></circle><circle cx="296.91" cy="180.3" r="2.6" fill="#F0A23B"></circle><circle cx="303.42" cy="180.24" r="2.6" fill="#F0A23B"></circle><circle cx="309.93" cy="176.88" r="2.6" fill="#F0A23B"></circle><circle cx="316.44" cy="178.65" r="2.6" fill="#F0A23B"></circle><circle cx="322.96" cy="183.45" r="2.6" fill="#F0A23B"></circle><circle cx="329.47" cy="182.56" r="2.6" fill="#F0A23B"></circle><circle cx="335.98" cy="133.59" r="2.6" fill="#F0A23B"></circle><circle cx="342.49" cy="178.99" r="2.6" fill="#F0A23B"></circle><circle cx="349" cy="179.14" r="2.6" fill="#F0A23B"></circle><circle cx="355.51" cy="119.51" r="2.6" fill="#F0A23B"></circle><circle cx="362.02" cy="175.85" r="2.6" fill="#F0A23B"></circle><circle cx="368.53" cy="154.88" r="2.6" fill="#F0A23B"></circle><circle cx="375.04" cy="181.28" r="2.6" fill="#F0A23B"></circle><circle cx="381.56" cy="178.3" r="2.6" fill="#F0A23B"></circle><circle cx="388.07" cy="178.34" r="2.6" fill="#F0A23B"></circle><circle cx="394.58" cy="151.77" r="2.6" fill="#F0A23B"></circle><circle cx="401.09" cy="137.32" r="2.6" fill="#F0A23B"></circle><circle cx="407.6" cy="181.99" r="2.6" fill="#F0A23B"></circle><circle cx="414.11" cy="180.58" r="2.6" fill="#F0A23B"></circle><circle cx="420.62" cy="182.99" r="2.6" fill="#F0A23B"></circle><circle cx="427.13" cy="178.09" r="2.6" fill="#F0A23B"></circle><circle cx="440.16" cy="181.47" r="2.6" fill="#F0A23B"></circle><circle cx="446.67" cy="177.75" r="2.6" fill="#F0A23B"></circle><circle cx="453.18" cy="119.83" r="2.6" fill="#F0A23B"></circle><circle cx="459.69" cy="180.14" r="2.6" fill="#F0A23B"></circle><circle cx="466.2" cy="177.45" r="2.6" fill="#F0A23B"></circle><circle cx="472.71" cy="177.76" r="2.6" fill="#F0A23B"></circle><circle cx="479.22" cy="178.17" r="2.6" fill="#F0A23B"></circle><circle cx="485.73" cy="180.42" r="2.6" fill="#F0A23B"></circle><circle cx="492.24" cy="180.5" r="2.6" fill="#F0A23B"></circle><circle cx="498.76" cy="77.15" r="2.6" fill="#F0A23B"></circle><circle cx="505.27" cy="180.12" r="2.6" fill="#F0A23B"></circle><circle cx="511.78" cy="179.48" r="2.6" fill="#F0A23B"></circle><circle cx="518.29" cy="178.37" r="2.6" fill="#F0A23B"></circle><circle cx="531.31" cy="178.03" r="2.6" fill="#F0A23B"></circle><circle cx="537.82" cy="178.06" r="2.6" fill="#F0A23B"></circle><circle cx="544.33" cy="175.76" r="2.6" fill="#F0A23B"></circle><circle cx="550.84" cy="170.64" r="2.6" fill="#F0A23B"></circle><circle cx="557.36" cy="178.67" r="2.6" fill="#F0A23B"></circle><circle cx="563.87" cy="180.1" r="2.6" fill="#F0A23B"></circle><circle cx="570.38" cy="173.03" r="2.6" fill="#F0A23B"></circle><circle cx="576.89" cy="182.47" r="2.6" fill="#F0A23B"></circle><circle cx="583.4" cy="178.65" r="2.6" fill="#F0A23B"></circle><circle cx="589.91" cy="181.62" r="2.6" fill="#F0A23B"></circle><circle cx="596.42" cy="151.39" r="2.6" fill="#F0A23B"></circle><circle cx="602.93" cy="138.74" r="2.6" fill="#F0A23B"></circle><circle cx="609.44" cy="178.31" r="2.6" fill="#F0A23B"></circle><circle cx="622.47" cy="179.61" r="2.6" fill="#F0A23B"></circle><circle cx="628.98" cy="178.84" r="2.6" fill="#F0A23B"></circle><circle cx="635.49" cy="179.96" r="2.6" fill="#F0A23B"></circle><circle cx="642" cy="178" r="2.6" fill="#F0A23B"></circle><polyline fill="none" stroke="#1F9CF0" stroke-width="2.4" stroke-linejoin="round" stroke-linecap="round" points="56,175.5 62.51,176.2 69.02,132.71 75.53,178.27 82.04,172 88.56,174.38 95.07,174.4 101.58,170.88 108.09,173.93 114.6,173.54 121.11,100.75 127.62,168.69 134.13,173.59 140.64,174.01 147.16,167.31 153.67,117.5 160.18,166.02 166.69,174.07 173.2,141.6 179.71,169.05 186.22,167.14 192.73,174.48 199.24,150.94 205.76,171.01 212.27,52.43 218.78,157.26 225.29,171.51 231.8,136.29 238.31,169.79 244.82,106.45 251.33,170.47 257.84,175.76 264.36,174.01 270.87,174.06 277.38,151.2 283.89,173.78 290.4,169.88 296.91,177.61 303.42,137.18 309.93,114.15 316.44,168.74 322.96,168.47 329.47,130.46 335.98,174.44 342.49,175.01 349,171.26 355.51,176.81 362.02,171.37 368.53,161.31 375.04,135.44 381.56,169.24 388.07,176.14 394.58,170.75 401.09,171.27 407.6,166.35 414.11,173.15 420.62,132.18 427.13,168.56 433.64,155.42 440.16,170.02 446.67,169.75 453.18,172.03 459.69,163.98 511.78,170.38 518.29,170.13 524.8,171.04 531.31,151.7 537.82,172.65 544.33,168.55 550.84,174.72 557.36,166.02 563.87,173.54 570.38,166.32 576.89,109.65 583.4,153.77 589.91,175.7 596.42,171.76 602.93,175.06 609.44,177.47 615.96,174.24 622.47,70.44 628.98,178.07 635.49,170.9 642,171.05"></polyline><circle cx="56" cy="175.5" r="2.6" fill="#1F9CF0"></circle><circle cx="62.51" cy="176.2" r="2.6" fill="#1F9CF0"></circle><circle cx="69.02" cy="132.71" r="2.6" fill="#1F9CF0"></circle><circle cx="75.53" cy="178.27" r="2.6" fill="#1F9CF0"></circle><circle cx="82.04" cy="172" r="2.6" fill="#1F9CF0"></circle><circle cx="88.56" cy="174.38" r="2.6" fill="#1F9CF0"></circle><circle cx="95.07" cy="174.4" r="2.6" fill="#1F9CF0"></circle><circle cx="101.58" cy="170.88" r="2.6" fill="#1F9CF0"></circle><circle cx="108.09" cy="173.93" r="2.6" fill="#1F9CF0"></circle><circle cx="114.6" cy="173.54" r="2.6" fill="#1F9CF0"></circle><circle cx="121.11" cy="100.75" r="2.6" fill="#1F9CF0"></circle><circle cx="127.62" cy="168.69" r="2.6" fill="#1F9CF0"></circle><circle cx="134.13" cy="173.59" r="2.6" fill="#1F9CF0"></circle><circle cx="140.64" cy="174.01" r="2.6" fill="#1F9CF0"></circle><circle cx="147.16" cy="167.31" r="2.6" fill="#1F9CF0"></circle><circle cx="153.67" cy="117.5" r="2.6" fill="#1F9CF0"></circle><circle cx="160.18" cy="166.02" r="2.6" fill="#1F9CF0"></circle><circle cx="166.69" cy="174.07" r="2.6" fill="#1F9CF0"></circle><circle cx="173.2" cy="141.6" r="2.6" fill="#1F9CF0"></circle><circle cx="179.71" cy="169.05" r="2.6" fill="#1F9CF0"></circle><circle cx="186.22" cy="167.14" r="2.6" fill="#1F9CF0"></circle><circle cx="192.73" cy="174.48" r="2.6" fill="#1F9CF0"></circle><circle cx="199.24" cy="150.94" r="2.6" fill="#1F9CF0"></circle><circle cx="205.76" cy="171.01" r="2.6" fill="#1F9CF0"></circle><circle cx="212.27" cy="52.43" r="2.6" fill="#1F9CF0"></circle><circle cx="218.78" cy="157.26" r="2.6" fill="#1F9CF0"></circle><circle cx="225.29" cy="171.51" r="2.6" fill="#1F9CF0"></circle><circle cx="231.8" cy="136.29" r="2.6" fill="#1F9CF0"></circle><circle cx="238.31" cy="169.79" r="2.6" fill="#1F9CF0"></circle><circle cx="244.82" cy="106.45" r="2.6" fill="#1F9CF0"></circle><circle cx="251.33" cy="170.47" r="2.6" fill="#1F9CF0"></circle><circle cx="257.84" cy="175.76" r="2.6" fill="#1F9CF0"></circle><circle cx="264.36" cy="174.01" r="2.6" fill="#1F9CF0"></circle><circle cx="270.87" cy="174.06" r="2.6" fill="#1F9CF0"></circle><circle cx="277.38" cy="151.2" r="2.6" fill="#1F9CF0"></circle><circle cx="283.89" cy="173.78" r="2.6" fill="#1F9CF0"></circle><circle cx="290.4" cy="169.88" r="2.6" fill="#1F9CF0"></circle><circle cx="296.91" cy="177.61" r="2.6" fill="#1F9CF0"></circle><circle cx="303.42" cy="137.18" r="2.6" fill="#1F9CF0"></circle><circle cx="309.93" cy="114.15" r="2.6" fill="#1F9CF0"></circle><circle cx="316.44" cy="168.74" r="2.6" fill="#1F9CF0"></circle><circle cx="322.96" cy="168.47" r="2.6" fill="#1F9CF0"></circle><circle cx="329.47" cy="130.46" r="2.6" fill="#1F9CF0"></circle><circle cx="335.98" cy="174.44" r="2.6" fill="#1F9CF0"></circle><circle cx="342.49" cy="175.01" r="2.6" fill="#1F9CF0"></circle><circle cx="349" cy="171.26" r="2.6" fill="#1F9CF0"></circle><circle cx="355.51" cy="176.81" r="2.6" fill="#1F9CF0"></circle><circle cx="362.02" cy="171.37" r="2.6" fill="#1F9CF0"></circle><circle cx="368.53" cy="161.31" r="2.6" fill="#1F9CF0"></circle><circle cx="375.04" cy="135.44" r="2.6" fill="#1F9CF0"></circle><circle cx="381.56" cy="169.24" r="2.6" fill="#1F9CF0"></circle><circle cx="388.07" cy="176.14" r="2.6" fill="#1F9CF0"></circle><circle cx="394.58" cy="170.75" r="2.6" fill="#1F9CF0"></circle><circle cx="401.09" cy="171.27" r="2.6" fill="#1F9CF0"></circle><circle cx="407.6" cy="166.35" r="2.6" fill="#1F9CF0"></circle><circle cx="414.11" cy="173.15" r="2.6" fill="#1F9CF0"></circle><circle cx="420.62" cy="132.18" r="2.6" fill="#1F9CF0"></circle><circle cx="427.13" cy="168.56" r="2.6" fill="#1F9CF0"></circle><circle cx="433.64" cy="155.42" r="2.6" fill="#1F9CF0"></circle><circle cx="440.16" cy="170.02" r="2.6" fill="#1F9CF0"></circle><circle cx="446.67" cy="169.75" r="2.6" fill="#1F9CF0"></circle><circle cx="453.18" cy="172.03" r="2.6" fill="#1F9CF0"></circle><circle cx="459.69" cy="163.98" r="2.6" fill="#1F9CF0"></circle><circle cx="511.78" cy="170.38" r="2.6" fill="#1F9CF0"></circle><circle cx="518.29" cy="170.13" r="2.6" fill="#1F9CF0"></circle><circle cx="524.8" cy="171.04" r="2.6" fill="#1F9CF0"></circle><circle cx="531.31" cy="151.7" r="2.6" fill="#1F9CF0"></circle><circle cx="537.82" cy="172.65" r="2.6" fill="#1F9CF0"></circle><circle cx="544.33" cy="168.55" r="2.6" fill="#1F9CF0"></circle><circle cx="550.84" cy="174.72" r="2.6" fill="#1F9CF0"></circle><circle cx="557.36" cy="166.02" r="2.6" fill="#1F9CF0"></circle><circle cx="563.87" cy="173.54" r="2.6" fill="#1F9CF0"></circle><circle cx="570.38" cy="166.32" r="2.6" fill="#1F9CF0"></circle><circle cx="576.89" cy="109.65" r="2.6" fill="#1F9CF0"></circle><circle cx="583.4" cy="153.77" r="2.6" fill="#1F9CF0"></circle><circle cx="589.91" cy="175.7" r="2.6" fill="#1F9CF0"></circle><circle cx="596.42" cy="171.76" r="2.6" fill="#1F9CF0"></circle><circle cx="602.93" cy="175.06" r="2.6" fill="#1F9CF0"></circle><circle cx="609.44" cy="177.47" r="2.6" fill="#1F9CF0"></circle><circle cx="615.96" cy="174.24" r="2.6" fill="#1F9CF0"></circle><circle cx="622.47" cy="70.44" r="2.6" fill="#1F9CF0"></circle><circle cx="628.98" cy="178.07" r="2.6" fill="#1F9CF0"></circle><circle cx="635.49" cy="170.9" r="2.6" fill="#1F9CF0"></circle><circle cx="642" cy="171.05" r="2.6" fill="#1F9CF0"></circle><line x1="656" y1="27" x2="672" y2="27" stroke="#E8835A" stroke-width="3" stroke-linecap="round"></line><text x="678" y="30" font-size="11" font-weight="400" text-anchor="start" fill="#1f2328">anthropic</text><line x1="656" y1="47" x2="672" y2="47" stroke="#6366F1" stroke-width="3" stroke-linecap="round"></line><text x="678" y="50" font-size="11" font-weight="400" text-anchor="start" fill="#1f2328">deepseek</text><line x1="656" y1="67" x2="672" y2="67" stroke="#2DA98C" stroke-width="3" stroke-linecap="round"></line><text x="678" y="70" font-size="11" font-weight="400" text-anchor="start" fill="#1f2328">gemini</text><line x1="656" y1="87" x2="672" y2="87" stroke="#A371F7" stroke-width="3" stroke-linecap="round"></line><text x="678" y="90" font-size="11" font-weight="400" text-anchor="start" fill="#1f2328">llama</text><line x1="656" y1="107" x2="672" y2="107" stroke="#F0A23B" stroke-width="3" stroke-linecap="round"></line><text x="678" y="110" font-size="11" font-weight="400" text-anchor="start" fill="#1f2328">mistral</text><line x1="656" y1="127" x2="672" y2="127" stroke="#1F9CF0" stroke-width="3" stroke-linecap="round"></line><text x="678" y="130" font-size="11" font-weight="400" text-anchor="start" fill="#1f2328">openai</text></svg>
