<svg xmlns="http://www.w3.org/2000/svg" viewBox="0 0 760 348" width="760" height="348" role="img" aria-label="Cost per test by provider over runs — mistral highest, deepseek lowest" font-family="-apple-system,BlinkMacSystemFont,'Segoe UI',system-ui,sans-serif"><line x1="56" y1="306" x2="642" y2="306" stroke="#d8dee4" stroke-width="1"></line><text x="46" y="310" font-size="9.5" font-weight="400" text-anchor="end" fill="#656d76" font-family="ui-monospace,SFMono-Regular,Menlo,monospace">$0.000</text><line x1="56" y1="235" x2="642" y2="235" stroke="#d8dee4" stroke-width="1"></line><text x="46" y="239" font-size="9.5" font-weight="400" text-anchor="end" fill="#656d76" font-family="ui-monospace,SFMono-Regular,Menlo,monospace">$0.039</text><line x1="56" y1="164" x2="642" y2="164" stroke="#d8dee4" stroke-width="1"></line><text x="46" y="168" font-size="9.5" font-weight="400" text-anchor="end" fill="#656d76" font-family="ui-monospace,SFMono-Regular,Menlo,monospace">$0.079</text><line x1="56" y1="93" x2="642" y2="93" stroke="#d8dee4" stroke-width="1"></line><text x="46" y="97" font-size="9.5" font-weight="400" text-anchor="end" fill="#656d76" font-family="ui-monospace,SFMono-Regular,Menlo,monospace">$0.118</text><line x1="56" y1="22" x2="642" y2="22" stroke="#d8dee4" stroke-width="1"></line><text x="46" y="26" font-size="9.5" font-weight="400" text-anchor="end" fill="#656d76" font-family="ui-monospace,SFMono-Regular,Menlo,monospace">$0.158</text><text x="56" y="324" font-size="9.5" font-weight="400" text-anchor="middle" fill="#656d76" font-family="ui-monospace,SFMono-Regular,Menlo,monospace">06/06</text><text x="111.43" y="324" font-size="9.5" font-weight="400" text-anchor="middle" fill="#656d76" font-family="ui-monospace,SFMono-Regular,Menlo,monospace">06/08</text><text x="166.86" y="324" font-size="9.5" font-weight="400" text-anchor="middle" fill="#656d76" font-family="ui-monospace,SFMono-Regular,Menlo,monospace">06/09</text><text x="222.3" y="324" font-size="9.5" font-weight="400" text-anchor="middle" fill="#656d76" font-family="ui-monospace,SFMono-Regular,Menlo,monospace">06/10</text><text x="277.73" y="324" font-size="9.5" font-weight="400" text-anchor="middle" fill="#656d76" font-family="ui-monospace,SFMono-Regular,Menlo,monospace">06/14</text><text x="333.16" y="324" font-size="9.5" font-weight="400" text-anchor="middle" fill="#656d76" font-family="ui-monospace,SFMono-Regular,Menlo,monospace">06/15</text><text x="388.59" y="324" font-size="9.5" font-weight="400" text-anchor="middle" fill="#656d76" font-family="ui-monospace,SFMono-Regular,Menlo,monospace">06/16</text><text x="444.03" y="324" font-size="9.5" font-weight="400" text-anchor="middle" fill="#656d76" font-family="ui-monospace,SFMono-Regular,Menlo,monospace">06/18</text><text x="499.46" y="324" font-size="9.5" font-weight="400" text-anchor="middle" fill="#656d76" font-family="ui-monospace,SFMono-Regular,Menlo,monospace">06/20</text><text x="554.89" y="324" font-size="9.5" font-weight="400" text-anchor="middle" fill="#656d76" font-family="ui-monospace,SFMono-Regular,Menlo,monospace">06/22</text><text x="610.32" y="324" font-size="9.5" font-weight="400" text-anchor="middle" fill="#656d76" font-family="ui-monospace,SFMono-Regular,Menlo,monospace">06/23</text><text x="642" y="324" font-size="9.5" font-weight="400" text-anchor="middle" fill="#656d76" font-family="ui-monospace,SFMono-Regular,Menlo,monospace">06/24</text><polyline fill="none" stroke="#6366F1" stroke-width="2.4" stroke-linejoin="round" stroke-linecap="round" points="119.35,291.99 127.27,292.07 135.19,292.82 143.11,291.48 151.03,291.75 158.95,285.29 166.86,293.05 174.78,290.23 182.7,290.29 190.62,289.78 198.54,291.61 206.46,290.27 214.38,286.66 222.3,290.55 230.22,286.99 238.14,293.02 246.05,290.61 253.97,286.59 261.89,283.56 269.81,290.63 277.73,289.42 285.65,292.33 293.57,288.36 301.49,284.88 309.41,291.34 317.32,290.13 325.24,291.01 333.16,289.68 349,289.04 356.92,291.5 364.84,291.97 372.76,289.14 380.68,289.37 388.59,290.04 396.51,290.81 404.43,291.39 412.35,292 428.19,292.33 436.11,292.51 444.03,290.75 451.95,289.5 459.86,289.4 467.78,282.59 475.7,289.91 483.62,286.79 491.54,288.79 499.46,286.98 507.38,290.22 515.3,291.94 523.22,292.7 531.14,281.08 539.05,292.31 546.97,290.28 554.89,286.5 562.81,289 570.73,289.95 578.65,291.41 586.57,290.81 594.49,291 602.41,290.42 610.32,289.99 618.24,284.38 626.16,292.31 634.08,291.62 642,287.31"></polyline><circle cx="119.35" cy="291.99" r="2.6" fill="#6366F1"></circle><circle cx="127.27" cy="292.07" r="2.6" fill="#6366F1"></circle><circle cx="135.19" cy="292.82" r="2.6" fill="#6366F1"></circle><circle cx="143.11" cy="291.48" r="2.6" fill="#6366F1"></circle><circle cx="151.03" cy="291.75" r="2.6" fill="#6366F1"></circle><circle cx="158.95" cy="285.29" r="2.6" fill="#6366F1"></circle><circle cx="166.86" cy="293.05" r="2.6" fill="#6366F1"></circle><circle cx="174.78" cy="290.23" r="2.6" fill="#6366F1"></circle><circle cx="182.7" cy="290.29" r="2.6" fill="#6366F1"></circle><circle cx="190.62" cy="289.78" r="2.6" fill="#6366F1"></circle><circle cx="198.54" cy="291.61" r="2.6" fill="#6366F1"></circle><circle cx="206.46" cy="290.27" r="2.6" fill="#6366F1"></circle><circle cx="214.38" cy="286.66" r="2.6" fill="#6366F1"></circle><circle cx="222.3" cy="290.55" r="2.6" fill="#6366F1"></circle><circle cx="230.22" cy="286.99" r="2.6" fill="#6366F1"></circle><circle cx="238.14" cy="293.02" r="2.6" fill="#6366F1"></circle><circle cx="246.05" cy="290.61" r="2.6" fill="#6366F1"></circle><circle cx="253.97" cy="286.59" r="2.6" fill="#6366F1"></circle><circle cx="261.89" cy="283.56" r="2.6" fill="#6366F1"></circle><circle cx="269.81" cy="290.63" r="2.6" fill="#6366F1"></circle><circle cx="277.73" cy="289.42" r="2.6" fill="#6366F1"></circle><circle cx="285.65" cy="292.33" r="2.6" fill="#6366F1"></circle><circle cx="293.57" cy="288.36" r="2.6" fill="#6366F1"></circle><circle cx="301.49" cy="284.88" r="2.6" fill="#6366F1"></circle><circle cx="309.41" cy="291.34" r="2.6" fill="#6366F1"></circle><circle cx="317.32" cy="290.13" r="2.6" fill="#6366F1"></circle><circle cx="325.24" cy="291.01" r="2.6" fill="#6366F1"></circle><circle cx="333.16" cy="289.68" r="2.6" fill="#6366F1"></circle><circle cx="349" cy="289.04" r="2.6" fill="#6366F1"></circle><circle cx="356.92" cy="291.5" r="2.6" fill="#6366F1"></circle><circle cx="364.84" cy="291.97" r="2.6" fill="#6366F1"></circle><circle cx="372.76" cy="289.14" r="2.6" fill="#6366F1"></circle><circle cx="380.68" cy="289.37" r="2.6" fill="#6366F1"></circle><circle cx="388.59" cy="290.04" r="2.6" fill="#6366F1"></circle><circle cx="396.51" cy="290.81" r="2.6" fill="#6366F1"></circle><circle cx="404.43" cy="291.39" r="2.6" fill="#6366F1"></circle><circle cx="412.35" cy="292" r="2.6" fill="#6366F1"></circle><circle cx="428.19" cy="292.33" r="2.6" fill="#6366F1"></circle><circle cx="436.11" cy="292.51" r="2.6" fill="#6366F1"></circle><circle cx="444.03" cy="290.75" r="2.6" fill="#6366F1"></circle><circle cx="451.95" cy="289.5" r="2.6" fill="#6366F1"></circle><circle cx="459.86" cy="289.4" r="2.6" fill="#6366F1"></circle><circle cx="467.78" cy="282.59" r="2.6" fill="#6366F1"></circle><circle cx="475.7" cy="289.91" r="2.6" fill="#6366F1"></circle><circle cx="483.62" cy="286.79" r="2.6" fill="#6366F1"></circle><circle cx="491.54" cy="288.79" r="2.6" fill="#6366F1"></circle><circle cx="499.46" cy="286.98" r="2.6" fill="#6366F1"></circle><circle cx="507.38" cy="290.22" r="2.6" fill="#6366F1"></circle><circle cx="515.3" cy="291.94" r="2.6" fill="#6366F1"></circle><circle cx="523.22" cy="292.7" r="2.6" fill="#6366F1"></circle><circle cx="531.14" cy="281.08" r="2.6" fill="#6366F1"></circle><circle cx="539.05" cy="292.31" r="2.6" fill="#6366F1"></circle><circle cx="546.97" cy="290.28" r="2.6" fill="#6366F1"></circle><circle cx="554.89" cy="286.5" r="2.6" fill="#6366F1"></circle><circle cx="562.81" cy="289" r="2.6" fill="#6366F1"></circle><circle cx="570.73" cy="289.95" r="2.6" fill="#6366F1"></circle><circle cx="578.65" cy="291.41" r="2.6" fill="#6366F1"></circle><circle cx="586.57" cy="290.81" r="2.6" fill="#6366F1"></circle><circle cx="594.49" cy="291" r="2.6" fill="#6366F1"></circle><circle cx="602.41" cy="290.42" r="2.6" fill="#6366F1"></circle><circle cx="610.32" cy="289.99" r="2.6" fill="#6366F1"></circle><circle cx="618.24" cy="284.38" r="2.6" fill="#6366F1"></circle><circle cx="626.16" cy="292.31" r="2.6" fill="#6366F1"></circle><circle cx="634.08" cy="291.62" r="2.6" fill="#6366F1"></circle><circle cx="642" cy="287.31" r="2.6" fill="#6366F1"></circle><polyline fill="none" stroke="#A371F7" stroke-width="2.4" stroke-linejoin="round" stroke-linecap="round" points="56,226.25 63.92,237.88 71.84,241.73 79.76,223.38 87.68,231.64 95.59,243.09 103.51,237.81 111.43,230.14 119.35,233.83 127.27,241.12 135.19,233.75 143.11,230.9 151.03,235.83 158.95,217.13 166.86,237.29 174.78,230.7 182.7,240.49 190.62,241.09 198.54,218.17 206.46,232.28 214.38,201.8 222.3,239.78 230.22,242.88 238.14,229.56 246.05,227.31 253.97,231.21 261.89,233.26 269.81,230.48 277.73,240.31 285.65,235.36 293.57,231.03 301.49,237.98 309.41,242.74 317.32,217.94 325.24,237.38 333.16,239.39 349,216.58 356.92,239.81 364.84,230.21 380.68,230.86 388.59,240.78 396.51,241.27 404.43,237.28 412.35,234.45 420.27,237.03 428.19,237.6 436.11,235.95 444.03,225.98 451.95,230.74 459.86,232.09 467.78,238.44 475.7,233.93 483.62,237.36 491.54,236.2 507.38,238.07 515.3,232.58 531.14,227.45 539.05,236.55 546.97,232.02 554.89,240.47 562.81,213.84 570.73,238.7 578.65,238.88 586.57,241.18 594.49,233.39 602.41,234.63 610.32,239.11 626.16,240.21 634.08,229.42 642,240.04"></polyline><circle cx="56" cy="226.25" r="2.6" fill="#A371F7"></circle><circle cx="63.92" cy="237.88" r="2.6" fill="#A371F7"></circle><circle cx="71.84" cy="241.73" r="2.6" fill="#A371F7"></circle><circle cx="79.76" cy="223.38" r="2.6" fill="#A371F7"></circle><circle cx="87.68" cy="231.64" r="2.6" fill="#A371F7"></circle><circle cx="95.59" cy="243.09" r="2.6" fill="#A371F7"></circle><circle cx="103.51" cy="237.81" r="2.6" fill="#A371F7"></circle><circle cx="111.43" cy="230.14" r="2.6" fill="#A371F7"></circle><circle cx="119.35" cy="233.83" r="2.6" fill="#A371F7"></circle><circle cx="127.27" cy="241.12" r="2.6" fill="#A371F7"></circle><circle cx="135.19" cy="233.75" r="2.6" fill="#A371F7"></circle><circle cx="143.11" cy="230.9" r="2.6" fill="#A371F7"></circle><circle cx="151.03" cy="235.83" r="2.6" fill="#A371F7"></circle><circle cx="158.95" cy="217.13" r="2.6" fill="#A371F7"></circle><circle cx="166.86" cy="237.29" r="2.6" fill="#A371F7"></circle><circle cx="174.78" cy="230.7" r="2.6" fill="#A371F7"></circle><circle cx="182.7" cy="240.49" r="2.6" fill="#A371F7"></circle><circle cx="190.62" cy="241.09" r="2.6" fill="#A371F7"></circle><circle cx="198.54" cy="218.17" r="2.6" fill="#A371F7"></circle><circle cx="206.46" cy="232.28" r="2.6" fill="#A371F7"></circle><circle cx="214.38" cy="201.8" r="2.6" fill="#A371F7"></circle><circle cx="222.3" cy="239.78" r="2.6" fill="#A371F7"></circle><circle cx="230.22" cy="242.88" r="2.6" fill="#A371F7"></circle><circle cx="238.14" cy="229.56" r="2.6" fill="#A371F7"></circle><circle cx="246.05" cy="227.31" r="2.6" fill="#A371F7"></circle><circle cx="253.97" cy="231.21" r="2.6" fill="#A371F7"></circle><circle cx="261.89" cy="233.26" r="2.6" fill="#A371F7"></circle><circle cx="269.81" cy="230.48" r="2.6" fill="#A371F7"></circle><circle cx="277.73" cy="240.31" r="2.6" fill="#A371F7"></circle><circle cx="285.65" cy="235.36" r="2.6" fill="#A371F7"></circle><circle cx="293.57" cy="231.03" r="2.6" fill="#A371F7"></circle><circle cx="301.49" cy="237.98" r="2.6" fill="#A371F7"></circle><circle cx="309.41" cy="242.74" r="2.6" fill="#A371F7"></circle><circle cx="317.32" cy="217.94" r="2.6" fill="#A371F7"></circle><circle cx="325.24" cy="237.38" r="2.6" fill="#A371F7"></circle><circle cx="333.16" cy="239.39" r="2.6" fill="#A371F7"></circle><circle cx="349" cy="216.58" r="2.6" fill="#A371F7"></circle><circle cx="356.92" cy="239.81" r="2.6" fill="#A371F7"></circle><circle cx="364.84" cy="230.21" r="2.6" fill="#A371F7"></circle><circle cx="380.68" cy="230.86" r="2.6" fill="#A371F7"></circle><circle cx="388.59" cy="240.78" r="2.6" fill="#A371F7"></circle><circle cx="396.51" cy="241.27" r="2.6" fill="#A371F7"></circle><circle cx="404.43" cy="237.28" r="2.6" fill="#A371F7"></circle><circle cx="412.35" cy="234.45" r="2.6" fill="#A371F7"></circle><circle cx="420.27" cy="237.03" r="2.6" fill="#A371F7"></circle><circle cx="428.19" cy="237.6" r="2.6" fill="#A371F7"></circle><circle cx="436.11" cy="235.95" r="2.6" fill="#A371F7"></circle><circle cx="444.03" cy="225.98" r="2.6" fill="#A371F7"></circle><circle cx="451.95" cy="230.74" r="2.6" fill="#A371F7"></circle><circle cx="459.86" cy="232.09" r="2.6" fill="#A371F7"></circle><circle cx="467.78" cy="238.44" r="2.6" fill="#A371F7"></circle><circle cx="475.7" cy="233.93" r="2.6" fill="#A371F7"></circle><circle cx="483.62" cy="237.36" r="2.6" fill="#A371F7"></circle><circle cx="491.54" cy="236.2" r="2.6" fill="#A371F7"></circle><circle cx="507.38" cy="238.07" r="2.6" fill="#A371F7"></circle><circle cx="515.3" cy="232.58" r="2.6" fill="#A371F7"></circle><circle cx="531.14" cy="227.45" r="2.6" fill="#A371F7"></circle><circle cx="539.05" cy="236.55" r="2.6" fill="#A371F7"></circle><circle cx="546.97" cy="232.02" r="2.6" fill="#A371F7"></circle><circle cx="554.89" cy="240.47" r="2.6" fill="#A371F7"></circle><circle cx="562.81" cy="213.84" r="2.6" fill="#A371F7"></circle><circle cx="570.73" cy="238.7" r="2.6" fill="#A371F7"></circle><circle cx="578.65" cy="238.88" r="2.6" fill="#A371F7"></circle><circle cx="586.57" cy="241.18" r="2.6" fill="#A371F7"></circle><circle cx="594.49" cy="233.39" r="2.6" fill="#A371F7"></circle><circle cx="602.41" cy="234.63" r="2.6" fill="#A371F7"></circle><circle cx="610.32" cy="239.11" r="2.6" fill="#A371F7"></circle><circle cx="626.16" cy="240.21" r="2.6" fill="#A371F7"></circle><circle cx="634.08" cy="229.42" r="2.6" fill="#A371F7"></circle><circle cx="642" cy="240.04" r="2.6" fill="#A371F7"></circle><polyline fill="none" stroke="#F0A23B" stroke-width="2.4" stroke-linejoin="round" stroke-linecap="round" points="56,162.13 63.92,151.29 71.84,72.27 79.76,170.58 87.68,165.15 95.59,168.63 103.51,155.58 111.43,155.2 119.35,151.03 127.27,159.37 135.19,151 143.11,152 151.03,154.31 158.95,162.54 166.86,145.36 174.78,160.82 182.7,153.52 190.62,158.63 198.54,172.35 206.46,162.23 214.38,168.2 222.3,164.28 230.22,98 238.14,164.92 246.05,167.19 253.97,163.76 261.89,165.84 269.81,134.6 277.73,163 285.65,144.13 293.57,165.52 301.49,134.8 309.41,167.11 317.32,166.07 325.24,54.66 333.16,77.46 341.08,164.62 349,166.72 356.92,166.65 364.84,162.93 372.76,164.9 380.68,170.21 388.59,169.23 396.51,114.96 404.43,165.27 412.35,165.44 420.27,99.36 428.19,161.79 436.11,138.56 444.03,167.81 451.95,164.51 459.86,164.55 467.78,135.11 475.7,119.1 483.62,168.6 491.54,167.03 499.46,169.7 507.38,164.27 515.3,168.02 523.22,163.89 531.14,99.72 539.05,166.55 546.97,163.57 554.89,163.91 562.81,164.36 570.73,166.86 578.65,166.95 586.57,52.43 594.49,166.52 602.41,165.82 610.32,164.59 626.16,164.21 634.08,164.24 642,161.69"></polyline><circle cx="56" cy="162.13" r="2.6" fill="#F0A23B"></circle><circle cx="63.92" cy="151.29" r="2.6" fill="#F0A23B"></circle><circle cx="71.84" cy="72.27" r="2.6" fill="#F0A23B"></circle><circle cx="79.76" cy="170.58" r="2.6" fill="#F0A23B"></circle><circle cx="87.68" cy="165.15" r="2.6" fill="#F0A23B"></circle><circle cx="95.59" cy="168.63" r="2.6" fill="#F0A23B"></circle><circle cx="103.51" cy="155.58" r="2.6" fill="#F0A23B"></circle><circle cx="111.43" cy="155.2" r="2.6" fill="#F0A23B"></circle><circle cx="119.35" cy="151.03" r="2.6" fill="#F0A23B"></circle><circle cx="127.27" cy="159.37" r="2.6" fill="#F0A23B"></circle><circle cx="135.19" cy="151" r="2.6" fill="#F0A23B"></circle><circle cx="143.11" cy="152" r="2.6" fill="#F0A23B"></circle><circle cx="151.03" cy="154.31" r="2.6" fill="#F0A23B"></circle><circle cx="158.95" cy="162.54" r="2.6" fill="#F0A23B"></circle><circle cx="166.86" cy="145.36" r="2.6" fill="#F0A23B"></circle><circle cx="174.78" cy="160.82" r="2.6" fill="#F0A23B"></circle><circle cx="182.7" cy="153.52" r="2.6" fill="#F0A23B"></circle><circle cx="190.62" cy="158.63" r="2.6" fill="#F0A23B"></circle><circle cx="198.54" cy="172.35" r="2.6" fill="#F0A23B"></circle><circle cx="206.46" cy="162.23" r="2.6" fill="#F0A23B"></circle><circle cx="214.38" cy="168.2" r="2.6" fill="#F0A23B"></circle><circle cx="222.3" cy="164.28" r="2.6" fill="#F0A23B"></circle><circle cx="230.22" cy="98" r="2.6" fill="#F0A23B"></circle><circle cx="238.14" cy="164.92" r="2.6" fill="#F0A23B"></circle><circle cx="246.05" cy="167.19" r="2.6" fill="#F0A23B"></circle><circle cx="253.97" cy="163.76" r="2.6" fill="#F0A23B"></circle><circle cx="261.89" cy="165.84" r="2.6" fill="#F0A23B"></circle><circle cx="269.81" cy="134.6" r="2.6" fill="#F0A23B"></circle><circle cx="277.73" cy="163" r="2.6" fill="#F0A23B"></circle><circle cx="285.65" cy="144.13" r="2.6" fill="#F0A23B"></circle><circle cx="293.57" cy="165.52" r="2.6" fill="#F0A23B"></circle><circle cx="301.49" cy="134.8" r="2.6" fill="#F0A23B"></circle><circle cx="309.41" cy="167.11" r="2.6" fill="#F0A23B"></circle><circle cx="317.32" cy="166.07" r="2.6" fill="#F0A23B"></circle><circle cx="325.24" cy="54.66" r="2.6" fill="#F0A23B"></circle><circle cx="333.16" cy="77.46" r="2.6" fill="#F0A23B"></circle><circle cx="341.08" cy="164.62" r="2.6" fill="#F0A23B"></circle><circle cx="349" cy="166.72" r="2.6" fill="#F0A23B"></circle><circle cx="356.92" cy="166.65" r="2.6" fill="#F0A23B"></circle><circle cx="364.84" cy="162.93" r="2.6" fill="#F0A23B"></circle><circle cx="372.76" cy="164.9" r="2.6" fill="#F0A23B"></circle><circle cx="380.68" cy="170.21" r="2.6" fill="#F0A23B"></circle><circle cx="388.59" cy="169.23" r="2.6" fill="#F0A23B"></circle><circle cx="396.51" cy="114.96" r="2.6" fill="#F0A23B"></circle><circle cx="404.43" cy="165.27" r="2.6" fill="#F0A23B"></circle><circle cx="412.35" cy="165.44" r="2.6" fill="#F0A23B"></circle><circle cx="420.27" cy="99.36" r="2.6" fill="#F0A23B"></circle><circle cx="428.19" cy="161.79" r="2.6" fill="#F0A23B"></circle><circle cx="436.11" cy="138.56" r="2.6" fill="#F0A23B"></circle><circle cx="444.03" cy="167.81" r="2.6" fill="#F0A23B"></circle><circle cx="451.95" cy="164.51" r="2.6" fill="#F0A23B"></circle><circle cx="459.86" cy="164.55" r="2.6" fill="#F0A23B"></circle><circle cx="467.78" cy="135.11" r="2.6" fill="#F0A23B"></circle><circle cx="475.7" cy="119.1" r="2.6" fill="#F0A23B"></circle><circle cx="483.62" cy="168.6" r="2.6" fill="#F0A23B"></circle><circle cx="491.54" cy="167.03" r="2.6" fill="#F0A23B"></circle><circle cx="499.46" cy="169.7" r="2.6" fill="#F0A23B"></circle><circle cx="507.38" cy="164.27" r="2.6" fill="#F0A23B"></circle><circle cx="515.3" cy="168.02" r="2.6" fill="#F0A23B"></circle><circle cx="523.22" cy="163.89" r="2.6" fill="#F0A23B"></circle><circle cx="531.14" cy="99.72" r="2.6" fill="#F0A23B"></circle><circle cx="539.05" cy="166.55" r="2.6" fill="#F0A23B"></circle><circle cx="546.97" cy="163.57" r="2.6" fill="#F0A23B"></circle><circle cx="554.89" cy="163.91" r="2.6" fill="#F0A23B"></circle><circle cx="562.81" cy="164.36" r="2.6" fill="#F0A23B"></circle><circle cx="570.73" cy="166.86" r="2.6" fill="#F0A23B"></circle><circle cx="578.65" cy="166.95" r="2.6" fill="#F0A23B"></circle><circle cx="586.57" cy="52.43" r="2.6" fill="#F0A23B"></circle><circle cx="594.49" cy="166.52" r="2.6" fill="#F0A23B"></circle><circle cx="602.41" cy="165.82" r="2.6" fill="#F0A23B"></circle><circle cx="610.32" cy="164.59" r="2.6" fill="#F0A23B"></circle><circle cx="626.16" cy="164.21" r="2.6" fill="#F0A23B"></circle><circle cx="634.08" cy="164.24" r="2.6" fill="#F0A23B"></circle><circle cx="642" cy="161.69" r="2.6" fill="#F0A23B"></circle><line x1="656" y1="27" x2="672" y2="27" stroke="#6366F1" stroke-width="3" stroke-linecap="round"></line><text x="678" y="30" font-size="11" font-weight="400" text-anchor="start" fill="#1f2328">deepseek</text><line x1="656" y1="47" x2="672" y2="47" stroke="#A371F7" stroke-width="3" stroke-linecap="round"></line><text x="678" y="50" font-size="11" font-weight="400" text-anchor="start" fill="#1f2328">llama</text><line x1="656" y1="67" x2="672" y2="67" stroke="#F0A23B" stroke-width="3" stroke-linecap="round"></line><text x="678" y="70" font-size="11" font-weight="400" text-anchor="start" fill="#1f2328">mistral</text></svg>
