<svg xmlns="http://www.w3.org/2000/svg" viewBox="0 0 760 348" width="760" height="348" role="img" aria-label="Cost per test by provider over runs — anthropic highest, deepseek lowest" font-family="-apple-system,BlinkMacSystemFont,'Segoe UI',system-ui,sans-serif"><line x1="56" y1="306" x2="642" y2="306" stroke="#d8dee4" stroke-width="1"></line><text x="46" y="310" font-size="9.5" font-weight="400" text-anchor="end" fill="#656d76" font-family="ui-monospace,SFMono-Regular,Menlo,monospace">$0.000</text><line x1="56" y1="235" x2="642" y2="235" stroke="#d8dee4" stroke-width="1"></line><text x="46" y="239" font-size="9.5" font-weight="400" text-anchor="end" fill="#656d76" font-family="ui-monospace,SFMono-Regular,Menlo,monospace">$0.044</text><line x1="56" y1="164" x2="642" y2="164" stroke="#d8dee4" stroke-width="1"></line><text x="46" y="168" font-size="9.5" font-weight="400" text-anchor="end" fill="#656d76" font-family="ui-monospace,SFMono-Regular,Menlo,monospace">$0.087</text><line x1="56" y1="93" x2="642" y2="93" stroke="#d8dee4" stroke-width="1"></line><text x="46" y="97" font-size="9.5" font-weight="400" text-anchor="end" fill="#656d76" font-family="ui-monospace,SFMono-Regular,Menlo,monospace">$0.131</text><line x1="56" y1="22" x2="642" y2="22" stroke="#d8dee4" stroke-width="1"></line><text x="46" y="26" font-size="9.5" font-weight="400" text-anchor="end" fill="#656d76" font-family="ui-monospace,SFMono-Regular,Menlo,monospace">$0.175</text><text x="56" y="324" font-size="9.5" font-weight="400" text-anchor="middle" fill="#656d76" font-family="ui-monospace,SFMono-Regular,Menlo,monospace">06/06</text><text x="108.67" y="324" font-size="9.5" font-weight="400" text-anchor="middle" fill="#656d76" font-family="ui-monospace,SFMono-Regular,Menlo,monospace">06/08</text><text x="161.35" y="324" font-size="9.5" font-weight="400" text-anchor="middle" fill="#656d76" font-family="ui-monospace,SFMono-Regular,Menlo,monospace">06/09</text><text x="214.02" y="324" font-size="9.5" font-weight="400" text-anchor="middle" fill="#656d76" font-family="ui-monospace,SFMono-Regular,Menlo,monospace">06/12</text><text x="266.7" y="324" font-size="9.5" font-weight="400" text-anchor="middle" fill="#656d76" font-family="ui-monospace,SFMono-Regular,Menlo,monospace">06/14</text><text x="319.37" y="324" font-size="9.5" font-weight="400" text-anchor="middle" fill="#656d76" font-family="ui-monospace,SFMono-Regular,Menlo,monospace">06/16</text><text x="372.04" y="324" font-size="9.5" font-weight="400" text-anchor="middle" fill="#656d76" font-family="ui-monospace,SFMono-Regular,Menlo,monospace">06/17</text><text x="424.72" y="324" font-size="9.5" font-weight="400" text-anchor="middle" fill="#656d76" font-family="ui-monospace,SFMono-Regular,Menlo,monospace">06/20</text><text x="477.39" y="324" font-size="9.5" font-weight="400" text-anchor="middle" fill="#656d76" font-family="ui-monospace,SFMono-Regular,Menlo,monospace">06/22</text><text x="530.07" y="324" font-size="9.5" font-weight="400" text-anchor="middle" fill="#656d76" font-family="ui-monospace,SFMono-Regular,Menlo,monospace">06/24</text><text x="582.74" y="324" font-size="9.5" font-weight="400" text-anchor="middle" fill="#656d76" font-family="ui-monospace,SFMono-Regular,Menlo,monospace">06/25</text><text x="635.42" y="324" font-size="9.5" font-weight="400" text-anchor="middle" fill="#656d76" font-family="ui-monospace,SFMono-Regular,Menlo,monospace">06/26</text><text x="642" y="324" font-size="9.5" font-weight="400" text-anchor="middle" fill="#656d76" font-family="ui-monospace,SFMono-Regular,Menlo,monospace">06/26</text><polyline fill="none" stroke="#E8835A" stroke-width="2.4" stroke-linejoin="round" stroke-linecap="round" points="56,127.57 62.58,150.54 69.17,155.57 75.75,121.98 82.34,149.77 88.92,101.48 95.51,143.34 102.09,127.27 108.67,136.08 115.26,147.56 121.84,156.16 128.43,142.22 135.01,133.66 141.6,172.34 148.18,152.97 154.76,150.25 161.35,137.41 174.52,139.72 181.1,154.49 187.69,123.23 194.27,158.62 200.85,152.1 207.44,138.5 214.02,150.41 220.61,153.33 227.19,160.32 233.78,151.8 240.36,167.78 246.94,154.07 253.53,153.5 260.11,164.26 266.7,157.44 273.28,147.09 279.87,152.61 286.45,152.63 293.03,148.19 299.62,151.19 306.2,151.03 312.79,149.61 319.37,146 325.96,147.05 332.54,153.47 339.12,136.91 345.71,155.39 352.29,156.85"></polyline><circle cx="56" cy="127.57" r="2.6" fill="#E8835A"></circle><circle cx="62.58" cy="150.54" r="2.6" fill="#E8835A"></circle><circle cx="69.17" cy="155.57" r="2.6" fill="#E8835A"></circle><circle cx="75.75" cy="121.98" r="2.6" fill="#E8835A"></circle><circle cx="82.34" cy="149.77" r="2.6" fill="#E8835A"></circle><circle cx="88.92" cy="101.48" r="2.6" fill="#E8835A"></circle><circle cx="95.51" cy="143.34" r="2.6" fill="#E8835A"></circle><circle cx="102.09" cy="127.27" r="2.6" fill="#E8835A"></circle><circle cx="108.67" cy="136.08" r="2.6" fill="#E8835A"></circle><circle cx="115.26" cy="147.56" r="2.6" fill="#E8835A"></circle><circle cx="121.84" cy="156.16" r="2.6" fill="#E8835A"></circle><circle cx="128.43" cy="142.22" r="2.6" fill="#E8835A"></circle><circle cx="135.01" cy="133.66" r="2.6" fill="#E8835A"></circle><circle cx="141.6" cy="172.34" r="2.6" fill="#E8835A"></circle><circle cx="148.18" cy="152.97" r="2.6" fill="#E8835A"></circle><circle cx="154.76" cy="150.25" r="2.6" fill="#E8835A"></circle><circle cx="161.35" cy="137.41" r="2.6" fill="#E8835A"></circle><circle cx="174.52" cy="139.72" r="2.6" fill="#E8835A"></circle><circle cx="181.1" cy="154.49" r="2.6" fill="#E8835A"></circle><circle cx="187.69" cy="123.23" r="2.6" fill="#E8835A"></circle><circle cx="194.27" cy="158.62" r="2.6" fill="#E8835A"></circle><circle cx="200.85" cy="152.1" r="2.6" fill="#E8835A"></circle><circle cx="207.44" cy="138.5" r="2.6" fill="#E8835A"></circle><circle cx="214.02" cy="150.41" r="2.6" fill="#E8835A"></circle><circle cx="220.61" cy="153.33" r="2.6" fill="#E8835A"></circle><circle cx="227.19" cy="160.32" r="2.6" fill="#E8835A"></circle><circle cx="233.78" cy="151.8" r="2.6" fill="#E8835A"></circle><circle cx="240.36" cy="167.78" r="2.6" fill="#E8835A"></circle><circle cx="246.94" cy="154.07" r="2.6" fill="#E8835A"></circle><circle cx="253.53" cy="153.5" r="2.6" fill="#E8835A"></circle><circle cx="260.11" cy="164.26" r="2.6" fill="#E8835A"></circle><circle cx="266.7" cy="157.44" r="2.6" fill="#E8835A"></circle><circle cx="273.28" cy="147.09" r="2.6" fill="#E8835A"></circle><circle cx="279.87" cy="152.61" r="2.6" fill="#E8835A"></circle><circle cx="286.45" cy="152.63" r="2.6" fill="#E8835A"></circle><circle cx="293.03" cy="148.19" r="2.6" fill="#E8835A"></circle><circle cx="299.62" cy="151.19" r="2.6" fill="#E8835A"></circle><circle cx="306.2" cy="151.03" r="2.6" fill="#E8835A"></circle><circle cx="312.79" cy="149.61" r="2.6" fill="#E8835A"></circle><circle cx="319.37" cy="146" r="2.6" fill="#E8835A"></circle><circle cx="325.96" cy="147.05" r="2.6" fill="#E8835A"></circle><circle cx="332.54" cy="153.47" r="2.6" fill="#E8835A"></circle><circle cx="339.12" cy="136.91" r="2.6" fill="#E8835A"></circle><circle cx="345.71" cy="155.39" r="2.6" fill="#E8835A"></circle><circle cx="352.29" cy="156.85" r="2.6" fill="#E8835A"></circle><polyline fill="none" stroke="#6366F1" stroke-width="2.4" stroke-linejoin="round" stroke-linecap="round" points="108.67,293.36 115.26,293.43 121.84,294.1 128.43,292.89 135.01,293.14 141.6,287.31 148.18,294.31 154.76,291.77 161.35,291.82 167.93,291.36 174.52,293.02 181.1,291.8 187.69,288.55 194.27,292.06 200.85,288.85 207.44,294.29 214.02,292.11 220.61,288.48 227.19,285.75 233.78,292.13 240.36,291.04 246.94,293.66 253.53,290.08 260.11,286.94 266.7,292.77 273.28,291.68 279.87,292.47 286.45,291.27 299.62,290.7 306.2,292.91 312.79,293.34 319.37,290.78 325.96,290.99 332.54,291.6 339.12,292.29 345.71,292.81 352.29,293.37 365.46,293.66 372.04,293.82 378.63,292.24 385.21,291.11 391.8,291.02 398.38,284.88 404.97,291.48 411.55,288.67 418.13,290.47 424.72,288.84 431.3,291.75 444.47,293.31 451.06,293.99 457.64,283.51 464.22,293.65 470.81,291.81 477.39,288.4 483.98,290.65 490.56,291.51 497.15,292.83 503.73,292.29 510.31,292.47 516.9,291.94 523.48,291.55 530.07,286.48 536.65,293.64 543.24,293.02 549.82,289.13 556.4,293.27 562.99,293.55 569.57,290.63 576.16,294.26 582.74,294.04 589.33,292.1 595.91,293.08 602.49,294.3 609.08,290.77 615.66,291.33 622.25,291.53 628.83,292.23 642,291.66"></polyline><circle cx="108.67" cy="293.36" r="2.6" fill="#6366F1"></circle><circle cx="115.26" cy="293.43" r="2.6" fill="#6366F1"></circle><circle cx="121.84" cy="294.1" r="2.6" fill="#6366F1"></circle><circle cx="128.43" cy="292.89" r="2.6" fill="#6366F1"></circle><circle cx="135.01" cy="293.14" r="2.6" fill="#6366F1"></circle><circle cx="141.6" cy="287.31" r="2.6" fill="#6366F1"></circle><circle cx="148.18" cy="294.31" r="2.6" fill="#6366F1"></circle><circle cx="154.76" cy="291.77" r="2.6" fill="#6366F1"></circle><circle cx="161.35" cy="291.82" r="2.6" fill="#6366F1"></circle><circle cx="167.93" cy="291.36" r="2.6" fill="#6366F1"></circle><circle cx="174.52" cy="293.02" r="2.6" fill="#6366F1"></circle><circle cx="181.1" cy="291.8" r="2.6" fill="#6366F1"></circle><circle cx="187.69" cy="288.55" r="2.6" fill="#6366F1"></circle><circle cx="194.27" cy="292.06" r="2.6" fill="#6366F1"></circle><circle cx="200.85" cy="288.85" r="2.6" fill="#6366F1"></circle><circle cx="207.44" cy="294.29" r="2.6" fill="#6366F1"></circle><circle cx="214.02" cy="292.11" r="2.6" fill="#6366F1"></circle><circle cx="220.61" cy="288.48" r="2.6" fill="#6366F1"></circle><circle cx="227.19" cy="285.75" r="2.6" fill="#6366F1"></circle><circle cx="233.78" cy="292.13" r="2.6" fill="#6366F1"></circle><circle cx="240.36" cy="291.04" r="2.6" fill="#6366F1"></circle><circle cx="246.94" cy="293.66" r="2.6" fill="#6366F1"></circle><circle cx="253.53" cy="290.08" r="2.6" fill="#6366F1"></circle><circle cx="260.11" cy="286.94" r="2.6" fill="#6366F1"></circle><circle cx="266.7" cy="292.77" r="2.6" fill="#6366F1"></circle><circle cx="273.28" cy="291.68" r="2.6" fill="#6366F1"></circle><circle cx="279.87" cy="292.47" r="2.6" fill="#6366F1"></circle><circle cx="286.45" cy="291.27" r="2.6" fill="#6366F1"></circle><circle cx="299.62" cy="290.7" r="2.6" fill="#6366F1"></circle><circle cx="306.2" cy="292.91" r="2.6" fill="#6366F1"></circle><circle cx="312.79" cy="293.34" r="2.6" fill="#6366F1"></circle><circle cx="319.37" cy="290.78" r="2.6" fill="#6366F1"></circle><circle cx="325.96" cy="290.99" r="2.6" fill="#6366F1"></circle><circle cx="332.54" cy="291.6" r="2.6" fill="#6366F1"></circle><circle cx="339.12" cy="292.29" r="2.6" fill="#6366F1"></circle><circle cx="345.71" cy="292.81" r="2.6" fill="#6366F1"></circle><circle cx="352.29" cy="293.37" r="2.6" fill="#6366F1"></circle><circle cx="365.46" cy="293.66" r="2.6" fill="#6366F1"></circle><circle cx="372.04" cy="293.82" r="2.6" fill="#6366F1"></circle><circle cx="378.63" cy="292.24" r="2.6" fill="#6366F1"></circle><circle cx="385.21" cy="291.11" r="2.6" fill="#6366F1"></circle><circle cx="391.8" cy="291.02" r="2.6" fill="#6366F1"></circle><circle cx="398.38" cy="284.88" r="2.6" fill="#6366F1"></circle><circle cx="404.97" cy="291.48" r="2.6" fill="#6366F1"></circle><circle cx="411.55" cy="288.67" r="2.6" fill="#6366F1"></circle><circle cx="418.13" cy="290.47" r="2.6" fill="#6366F1"></circle><circle cx="424.72" cy="288.84" r="2.6" fill="#6366F1"></circle><circle cx="431.3" cy="291.75" r="2.6" fill="#6366F1"></circle><circle cx="444.47" cy="293.31" r="2.6" fill="#6366F1"></circle><circle cx="451.06" cy="293.99" r="2.6" fill="#6366F1"></circle><circle cx="457.64" cy="283.51" r="2.6" fill="#6366F1"></circle><circle cx="464.22" cy="293.65" r="2.6" fill="#6366F1"></circle><circle cx="470.81" cy="291.81" r="2.6" fill="#6366F1"></circle><circle cx="477.39" cy="288.4" r="2.6" fill="#6366F1"></circle><circle cx="483.98" cy="290.65" r="2.6" fill="#6366F1"></circle><circle cx="490.56" cy="291.51" r="2.6" fill="#6366F1"></circle><circle cx="497.15" cy="292.83" r="2.6" fill="#6366F1"></circle><circle cx="503.73" cy="292.29" r="2.6" fill="#6366F1"></circle><circle cx="510.31" cy="292.47" r="2.6" fill="#6366F1"></circle><circle cx="516.9" cy="291.94" r="2.6" fill="#6366F1"></circle><circle cx="523.48" cy="291.55" r="2.6" fill="#6366F1"></circle><circle cx="530.07" cy="286.48" r="2.6" fill="#6366F1"></circle><circle cx="536.65" cy="293.64" r="2.6" fill="#6366F1"></circle><circle cx="543.24" cy="293.02" r="2.6" fill="#6366F1"></circle><circle cx="549.82" cy="289.13" r="2.6" fill="#6366F1"></circle><circle cx="556.4" cy="293.27" r="2.6" fill="#6366F1"></circle><circle cx="562.99" cy="293.55" r="2.6" fill="#6366F1"></circle><circle cx="569.57" cy="290.63" r="2.6" fill="#6366F1"></circle><circle cx="576.16" cy="294.26" r="2.6" fill="#6366F1"></circle><circle cx="582.74" cy="294.04" r="2.6" fill="#6366F1"></circle><circle cx="589.33" cy="292.1" r="2.6" fill="#6366F1"></circle><circle cx="595.91" cy="293.08" r="2.6" fill="#6366F1"></circle><circle cx="602.49" cy="294.3" r="2.6" fill="#6366F1"></circle><circle cx="609.08" cy="290.77" r="2.6" fill="#6366F1"></circle><circle cx="615.66" cy="291.33" r="2.6" fill="#6366F1"></circle><circle cx="622.25" cy="291.53" r="2.6" fill="#6366F1"></circle><circle cx="628.83" cy="292.23" r="2.6" fill="#6366F1"></circle><circle cx="642" cy="291.66" r="2.6" fill="#6366F1"></circle><polyline fill="none" stroke="#2DA98C" stroke-width="2.4" stroke-linejoin="round" stroke-linecap="round" points="56,177.54 62.58,184.75 69.17,177.06 75.75,180.34 82.34,187.66 88.92,172.87 95.51,180.16 102.09,175.2 108.67,175.16 115.26,174.17 121.84,176.55 128.43,189.44 135.01,188.08 141.6,181.62 148.18,175.71 154.76,176.02 161.35,145.03 167.93,175.81 174.52,142.78 181.1,152.48 187.69,167.95 194.27,161.96 200.85,179.65 207.44,154.21 214.02,175.54 220.61,169.72 227.19,166.19 233.78,168.96 299.62,183.66 306.2,171.98 312.79,158.08 319.37,184.11 325.96,159.65 332.54,153.07 339.12,175.59 345.71,147.56 352.29,181.96 365.46,168.35 372.04,160.07 378.63,162.84 385.21,169.17 391.8,179.86 398.38,162.19 404.97,176.21 411.55,157.24 418.13,161.18 424.72,165.58 431.3,169.62 444.47,176.54 451.06,164.19 457.64,120.01 464.22,183.3 470.81,168.8 477.39,160.75 483.98,167.62 490.56,163.1 497.15,153.1 503.73,145.23 510.31,165.61 516.9,150.54 523.48,172.34 530.07,154.82 536.65,169.79 543.24,169.77 549.82,133.01 556.4,152.52 562.99,172.51 569.57,172.15"></polyline><circle cx="56" cy="177.54" r="2.6" fill="#2DA98C"></circle><circle cx="62.58" cy="184.75" r="2.6" fill="#2DA98C"></circle><circle cx="69.17" cy="177.06" r="2.6" fill="#2DA98C"></circle><circle cx="75.75" cy="180.34" r="2.6" fill="#2DA98C"></circle><circle cx="82.34" cy="187.66" r="2.6" fill="#2DA98C"></circle><circle cx="88.92" cy="172.87" r="2.6" fill="#2DA98C"></circle><circle cx="95.51" cy="180.16" r="2.6" fill="#2DA98C"></circle><circle cx="102.09" cy="175.2" r="2.6" fill="#2DA98C"></circle><circle cx="108.67" cy="175.16" r="2.6" fill="#2DA98C"></circle><circle cx="115.26" cy="174.17" r="2.6" fill="#2DA98C"></circle><circle cx="121.84" cy="176.55" r="2.6" fill="#2DA98C"></circle><circle cx="128.43" cy="189.44" r="2.6" fill="#2DA98C"></circle><circle cx="135.01" cy="188.08" r="2.6" fill="#2DA98C"></circle><circle cx="141.6" cy="181.62" r="2.6" fill="#2DA98C"></circle><circle cx="148.18" cy="175.71" r="2.6" fill="#2DA98C"></circle><circle cx="154.76" cy="176.02" r="2.6" fill="#2DA98C"></circle><circle cx="161.35" cy="145.03" r="2.6" fill="#2DA98C"></circle><circle cx="167.93" cy="175.81" r="2.6" fill="#2DA98C"></circle><circle cx="174.52" cy="142.78" r="2.6" fill="#2DA98C"></circle><circle cx="181.1" cy="152.48" r="2.6" fill="#2DA98C"></circle><circle cx="187.69" cy="167.95" r="2.6" fill="#2DA98C"></circle><circle cx="194.27" cy="161.96" r="2.6" fill="#2DA98C"></circle><circle cx="200.85" cy="179.65" r="2.6" fill="#2DA98C"></circle><circle cx="207.44" cy="154.21" r="2.6" fill="#2DA98C"></circle><circle cx="214.02" cy="175.54" r="2.6" fill="#2DA98C"></circle><circle cx="220.61" cy="169.72" r="2.6" fill="#2DA98C"></circle><circle cx="227.19" cy="166.19" r="2.6" fill="#2DA98C"></circle><circle cx="233.78" cy="168.96" r="2.6" fill="#2DA98C"></circle><circle cx="299.62" cy="183.66" r="2.6" fill="#2DA98C"></circle><circle cx="306.2" cy="171.98" r="2.6" fill="#2DA98C"></circle><circle cx="312.79" cy="158.08" r="2.6" fill="#2DA98C"></circle><circle cx="319.37" cy="184.11" r="2.6" fill="#2DA98C"></circle><circle cx="325.96" cy="159.65" r="2.6" fill="#2DA98C"></circle><circle cx="332.54" cy="153.07" r="2.6" fill="#2DA98C"></circle><circle cx="339.12" cy="175.59" r="2.6" fill="#2DA98C"></circle><circle cx="345.71" cy="147.56" r="2.6" fill="#2DA98C"></circle><circle cx="352.29" cy="181.96" r="2.6" fill="#2DA98C"></circle><circle cx="365.46" cy="168.35" r="2.6" fill="#2DA98C"></circle><circle cx="372.04" cy="160.07" r="2.6" fill="#2DA98C"></circle><circle cx="378.63" cy="162.84" r="2.6" fill="#2DA98C"></circle><circle cx="385.21" cy="169.17" r="2.6" fill="#2DA98C"></circle><circle cx="391.8" cy="179.86" r="2.6" fill="#2DA98C"></circle><circle cx="398.38" cy="162.19" r="2.6" fill="#2DA98C"></circle><circle cx="404.97" cy="176.21" r="2.6" fill="#2DA98C"></circle><circle cx="411.55" cy="157.24" r="2.6" fill="#2DA98C"></circle><circle cx="418.13" cy="161.18" r="2.6" fill="#2DA98C"></circle><circle cx="424.72" cy="165.58" r="2.6" fill="#2DA98C"></circle><circle cx="431.3" cy="169.62" r="2.6" fill="#2DA98C"></circle><circle cx="444.47" cy="176.54" r="2.6" fill="#2DA98C"></circle><circle cx="451.06" cy="164.19" r="2.6" fill="#2DA98C"></circle><circle cx="457.64" cy="120.01" r="2.6" fill="#2DA98C"></circle><circle cx="464.22" cy="183.3" r="2.6" fill="#2DA98C"></circle><circle cx="470.81" cy="168.8" r="2.6" fill="#2DA98C"></circle><circle cx="477.39" cy="160.75" r="2.6" fill="#2DA98C"></circle><circle cx="483.98" cy="167.62" r="2.6" fill="#2DA98C"></circle><circle cx="490.56" cy="163.1" r="2.6" fill="#2DA98C"></circle><circle cx="497.15" cy="153.1" r="2.6" fill="#2DA98C"></circle><circle cx="503.73" cy="145.23" r="2.6" fill="#2DA98C"></circle><circle cx="510.31" cy="165.61" r="2.6" fill="#2DA98C"></circle><circle cx="516.9" cy="150.54" r="2.6" fill="#2DA98C"></circle><circle cx="523.48" cy="172.34" r="2.6" fill="#2DA98C"></circle><circle cx="530.07" cy="154.82" r="2.6" fill="#2DA98C"></circle><circle cx="536.65" cy="169.79" r="2.6" fill="#2DA98C"></circle><circle cx="543.24" cy="169.77" r="2.6" fill="#2DA98C"></circle><circle cx="549.82" cy="133.01" r="2.6" fill="#2DA98C"></circle><circle cx="556.4" cy="152.52" r="2.6" fill="#2DA98C"></circle><circle cx="562.99" cy="172.51" r="2.6" fill="#2DA98C"></circle><circle cx="569.57" cy="172.15" r="2.6" fill="#2DA98C"></circle><polyline fill="none" stroke="#A371F7" stroke-width="2.4" stroke-linejoin="round" stroke-linecap="round" points="56,234.02 62.58,244.52 69.17,248 75.75,231.43 82.34,238.89 88.92,249.23 95.51,244.46 102.09,237.54 108.67,240.86 115.26,247.44 121.84,240.79 128.43,238.23 135.01,242.67 141.6,225.79 148.18,243.99 154.76,238.04 161.35,246.87 167.93,247.42 174.52,226.74 181.1,239.47 187.69,211.96 194.27,246.23 200.85,249.04 207.44,237.01 214.02,234.98 220.61,238.5 227.19,240.35 233.78,237.84 240.36,246.71 246.94,242.24 253.53,238.34 260.11,244.61 266.7,248.91 273.28,226.53 279.87,244.07 286.45,245.89 299.62,225.3 306.2,246.26 312.79,237.6 325.96,238.19 332.54,247.14 339.12,247.58 345.71,243.98 352.29,241.42 358.88,243.75 365.46,244.26 372.04,242.78 378.63,233.78 385.21,238.08 391.8,239.3 398.38,245.03 404.97,240.96 411.55,244.05 418.13,243 431.3,244.69 444.47,239.74 457.64,235.11 464.22,243.32 470.81,239.23 477.39,246.86 483.98,222.82 490.56,245.26 497.15,245.42 503.73,247.5 510.31,240.47 516.9,241.59 523.48,245.63 536.65,246.62 543.24,236.88 549.82,246.47 556.4,243.95 562.99,246.28 569.57,247.57 576.16,243.81 582.74,247.56 589.33,246.67 595.91,209.25 602.49,238.83 609.08,243.83 615.66,243.69 628.83,237.52 642,235.81"></polyline><circle cx="56" cy="234.02" r="2.6" fill="#A371F7"></circle><circle cx="62.58" cy="244.52" r="2.6" fill="#A371F7"></circle><circle cx="69.17" cy="248" r="2.6" fill="#A371F7"></circle><circle cx="75.75" cy="231.43" r="2.6" fill="#A371F7"></circle><circle cx="82.34" cy="238.89" r="2.6" fill="#A371F7"></circle><circle cx="88.92" cy="249.23" r="2.6" fill="#A371F7"></circle><circle cx="95.51" cy="244.46" r="2.6" fill="#A371F7"></circle><circle cx="102.09" cy="237.54" r="2.6" fill="#A371F7"></circle><circle cx="108.67" cy="240.86" r="2.6" fill="#A371F7"></circle><circle cx="115.26" cy="247.44" r="2.6" fill="#A371F7"></circle><circle cx="121.84" cy="240.79" r="2.6" fill="#A371F7"></circle><circle cx="128.43" cy="238.23" r="2.6" fill="#A371F7"></circle><circle cx="135.01" cy="242.67" r="2.6" fill="#A371F7"></circle><circle cx="141.6" cy="225.79" r="2.6" fill="#A371F7"></circle><circle cx="148.18" cy="243.99" r="2.6" fill="#A371F7"></circle><circle cx="154.76" cy="238.04" r="2.6" fill="#A371F7"></circle><circle cx="161.35" cy="246.87" r="2.6" fill="#A371F7"></circle><circle cx="167.93" cy="247.42" r="2.6" fill="#A371F7"></circle><circle cx="174.52" cy="226.74" r="2.6" fill="#A371F7"></circle><circle cx="181.1" cy="239.47" r="2.6" fill="#A371F7"></circle><circle cx="187.69" cy="211.96" r="2.6" fill="#A371F7"></circle><circle cx="194.27" cy="246.23" r="2.6" fill="#A371F7"></circle><circle cx="200.85" cy="249.04" r="2.6" fill="#A371F7"></circle><circle cx="207.44" cy="237.01" r="2.6" fill="#A371F7"></circle><circle cx="214.02" cy="234.98" r="2.6" fill="#A371F7"></circle><circle cx="220.61" cy="238.5" r="2.6" fill="#A371F7"></circle><circle cx="227.19" cy="240.35" r="2.6" fill="#A371F7"></circle><circle cx="233.78" cy="237.84" r="2.6" fill="#A371F7"></circle><circle cx="240.36" cy="246.71" r="2.6" fill="#A371F7"></circle><circle cx="246.94" cy="242.24" r="2.6" fill="#A371F7"></circle><circle cx="253.53" cy="238.34" r="2.6" fill="#A371F7"></circle><circle cx="260.11" cy="244.61" r="2.6" fill="#A371F7"></circle><circle cx="266.7" cy="248.91" r="2.6" fill="#A371F7"></circle><circle cx="273.28" cy="226.53" r="2.6" fill="#A371F7"></circle><circle cx="279.87" cy="244.07" r="2.6" fill="#A371F7"></circle><circle cx="286.45" cy="245.89" r="2.6" fill="#A371F7"></circle><circle cx="299.62" cy="225.3" r="2.6" fill="#A371F7"></circle><circle cx="306.2" cy="246.26" r="2.6" fill="#A371F7"></circle><circle cx="312.79" cy="237.6" r="2.6" fill="#A371F7"></circle><circle cx="325.96" cy="238.19" r="2.6" fill="#A371F7"></circle><circle cx="332.54" cy="247.14" r="2.6" fill="#A371F7"></circle><circle cx="339.12" cy="247.58" r="2.6" fill="#A371F7"></circle><circle cx="345.71" cy="243.98" r="2.6" fill="#A371F7"></circle><circle cx="352.29" cy="241.42" r="2.6" fill="#A371F7"></circle><circle cx="358.88" cy="243.75" r="2.6" fill="#A371F7"></circle><circle cx="365.46" cy="244.26" r="2.6" fill="#A371F7"></circle><circle cx="372.04" cy="242.78" r="2.6" fill="#A371F7"></circle><circle cx="378.63" cy="233.78" r="2.6" fill="#A371F7"></circle><circle cx="385.21" cy="238.08" r="2.6" fill="#A371F7"></circle><circle cx="391.8" cy="239.3" r="2.6" fill="#A371F7"></circle><circle cx="398.38" cy="245.03" r="2.6" fill="#A371F7"></circle><circle cx="404.97" cy="240.96" r="2.6" fill="#A371F7"></circle><circle cx="411.55" cy="244.05" r="2.6" fill="#A371F7"></circle><circle cx="418.13" cy="243" r="2.6" fill="#A371F7"></circle><circle cx="431.3" cy="244.69" r="2.6" fill="#A371F7"></circle><circle cx="444.47" cy="239.74" r="2.6" fill="#A371F7"></circle><circle cx="457.64" cy="235.11" r="2.6" fill="#A371F7"></circle><circle cx="464.22" cy="243.32" r="2.6" fill="#A371F7"></circle><circle cx="470.81" cy="239.23" r="2.6" fill="#A371F7"></circle><circle cx="477.39" cy="246.86" r="2.6" fill="#A371F7"></circle><circle cx="483.98" cy="222.82" r="2.6" fill="#A371F7"></circle><circle cx="490.56" cy="245.26" r="2.6" fill="#A371F7"></circle><circle cx="497.15" cy="245.42" r="2.6" fill="#A371F7"></circle><circle cx="503.73" cy="247.5" r="2.6" fill="#A371F7"></circle><circle cx="510.31" cy="240.47" r="2.6" fill="#A371F7"></circle><circle cx="516.9" cy="241.59" r="2.6" fill="#A371F7"></circle><circle cx="523.48" cy="245.63" r="2.6" fill="#A371F7"></circle><circle cx="536.65" cy="246.62" r="2.6" fill="#A371F7"></circle><circle cx="543.24" cy="236.88" r="2.6" fill="#A371F7"></circle><circle cx="549.82" cy="246.47" r="2.6" fill="#A371F7"></circle><circle cx="556.4" cy="243.95" r="2.6" fill="#A371F7"></circle><circle cx="562.99" cy="246.28" r="2.6" fill="#A371F7"></circle><circle cx="569.57" cy="247.57" r="2.6" fill="#A371F7"></circle><circle cx="576.16" cy="243.81" r="2.6" fill="#A371F7"></circle><circle cx="582.74" cy="247.56" r="2.6" fill="#A371F7"></circle><circle cx="589.33" cy="246.67" r="2.6" fill="#A371F7"></circle><circle cx="595.91" cy="209.25" r="2.6" fill="#A371F7"></circle><circle cx="602.49" cy="238.83" r="2.6" fill="#A371F7"></circle><circle cx="609.08" cy="243.83" r="2.6" fill="#A371F7"></circle><circle cx="615.66" cy="243.69" r="2.6" fill="#A371F7"></circle><circle cx="628.83" cy="237.52" r="2.6" fill="#A371F7"></circle><circle cx="642" cy="235.81" r="2.6" fill="#A371F7"></circle><polyline fill="none" stroke="#F0A23B" stroke-width="2.4" stroke-linejoin="round" stroke-linecap="round" points="56,176.15 62.58,166.37 69.17,95.06 75.75,183.78 82.34,178.88 88.92,182.02 95.51,170.24 102.09,169.9 108.67,166.14 115.26,173.66 121.84,166.11 128.43,167.02 135.01,169.09 141.6,176.53 148.18,161.02 154.76,174.97 161.35,168.38 167.93,173 174.52,185.38 181.1,176.24 187.69,181.63 194.27,178.09 200.85,118.27 207.44,178.67 214.02,180.72 220.61,177.62 227.19,179.5 233.78,151.31 240.36,176.94 246.94,159.91 253.53,179.22 260.11,151.49 266.7,180.65 273.28,179.71 279.87,79.16 286.45,99.74 293.03,178.4 299.62,180.3 306.2,180.24 312.79,176.88 319.37,178.65 325.96,183.45 332.54,182.56 339.12,133.59 345.71,178.99 352.29,179.14 358.88,119.51 365.46,175.85 372.04,154.88 378.63,181.28 385.21,178.3 391.8,178.34 398.38,151.77 404.97,137.32 411.55,181.99 418.13,180.58 424.72,182.99 431.3,178.09 444.47,181.47 451.06,177.75 457.64,119.83 464.22,180.14 470.81,177.45 477.39,177.76 483.98,178.17 490.56,180.42 497.15,180.5 503.73,77.15 510.31,180.12 516.9,179.48 523.48,178.37 536.65,178.03 543.24,178.06 549.82,175.76 556.4,170.64 562.99,178.67 569.57,180.1 576.16,173.03 582.74,182.47 589.33,178.65 595.91,181.62 602.49,151.39 609.08,138.74 615.66,178.31 628.83,179.61 635.42,178.84 642,179.96"></polyline><circle cx="56" cy="176.15" r="2.6" fill="#F0A23B"></circle><circle cx="62.58" cy="166.37" r="2.6" fill="#F0A23B"></circle><circle cx="69.17" cy="95.06" r="2.6" fill="#F0A23B"></circle><circle cx="75.75" cy="183.78" r="2.6" fill="#F0A23B"></circle><circle cx="82.34" cy="178.88" r="2.6" fill="#F0A23B"></circle><circle cx="88.92" cy="182.02" r="2.6" fill="#F0A23B"></circle><circle cx="95.51" cy="170.24" r="2.6" fill="#F0A23B"></circle><circle cx="102.09" cy="169.9" r="2.6" fill="#F0A23B"></circle><circle cx="108.67" cy="166.14" r="2.6" fill="#F0A23B"></circle><circle cx="115.26" cy="173.66" r="2.6" fill="#F0A23B"></circle><circle cx="121.84" cy="166.11" r="2.6" fill="#F0A23B"></circle><circle cx="128.43" cy="167.02" r="2.6" fill="#F0A23B"></circle><circle cx="135.01" cy="169.09" r="2.6" fill="#F0A23B"></circle><circle cx="141.6" cy="176.53" r="2.6" fill="#F0A23B"></circle><circle cx="148.18" cy="161.02" r="2.6" fill="#F0A23B"></circle><circle cx="154.76" cy="174.97" r="2.6" fill="#F0A23B"></circle><circle cx="161.35" cy="168.38" r="2.6" fill="#F0A23B"></circle><circle cx="167.93" cy="173" r="2.6" fill="#F0A23B"></circle><circle cx="174.52" cy="185.38" r="2.6" fill="#F0A23B"></circle><circle cx="181.1" cy="176.24" r="2.6" fill="#F0A23B"></circle><circle cx="187.69" cy="181.63" r="2.6" fill="#F0A23B"></circle><circle cx="194.27" cy="178.09" r="2.6" fill="#F0A23B"></circle><circle cx="200.85" cy="118.27" r="2.6" fill="#F0A23B"></circle><circle cx="207.44" cy="178.67" r="2.6" fill="#F0A23B"></circle><circle cx="214.02" cy="180.72" r="2.6" fill="#F0A23B"></circle><circle cx="220.61" cy="177.62" r="2.6" fill="#F0A23B"></circle><circle cx="227.19" cy="179.5" r="2.6" fill="#F0A23B"></circle><circle cx="233.78" cy="151.31" r="2.6" fill="#F0A23B"></circle><circle cx="240.36" cy="176.94" r="2.6" fill="#F0A23B"></circle><circle cx="246.94" cy="159.91" r="2.6" fill="#F0A23B"></circle><circle cx="253.53" cy="179.22" r="2.6" fill="#F0A23B"></circle><circle cx="260.11" cy="151.49" r="2.6" fill="#F0A23B"></circle><circle cx="266.7" cy="180.65" r="2.6" fill="#F0A23B"></circle><circle cx="273.28" cy="179.71" r="2.6" fill="#F0A23B"></circle><circle cx="279.87" cy="79.16" r="2.6" fill="#F0A23B"></circle><circle cx="286.45" cy="99.74" r="2.6" fill="#F0A23B"></circle><circle cx="293.03" cy="178.4" r="2.6" fill="#F0A23B"></circle><circle cx="299.62" cy="180.3" r="2.6" fill="#F0A23B"></circle><circle cx="306.2" cy="180.24" r="2.6" fill="#F0A23B"></circle><circle cx="312.79" cy="176.88" r="2.6" fill="#F0A23B"></circle><circle cx="319.37" cy="178.65" r="2.6" fill="#F0A23B"></circle><circle cx="325.96" cy="183.45" r="2.6" fill="#F0A23B"></circle><circle cx="332.54" cy="182.56" r="2.6" fill="#F0A23B"></circle><circle cx="339.12" cy="133.59" r="2.6" fill="#F0A23B"></circle><circle cx="345.71" cy="178.99" r="2.6" fill="#F0A23B"></circle><circle cx="352.29" cy="179.14" r="2.6" fill="#F0A23B"></circle><circle cx="358.88" cy="119.51" r="2.6" fill="#F0A23B"></circle><circle cx="365.46" cy="175.85" r="2.6" fill="#F0A23B"></circle><circle cx="372.04" cy="154.88" r="2.6" fill="#F0A23B"></circle><circle cx="378.63" cy="181.28" r="2.6" fill="#F0A23B"></circle><circle cx="385.21" cy="178.3" r="2.6" fill="#F0A23B"></circle><circle cx="391.8" cy="178.34" r="2.6" fill="#F0A23B"></circle><circle cx="398.38" cy="151.77" r="2.6" fill="#F0A23B"></circle><circle cx="404.97" cy="137.32" r="2.6" fill="#F0A23B"></circle><circle cx="411.55" cy="181.99" r="2.6" fill="#F0A23B"></circle><circle cx="418.13" cy="180.58" r="2.6" fill="#F0A23B"></circle><circle cx="424.72" cy="182.99" r="2.6" fill="#F0A23B"></circle><circle cx="431.3" cy="178.09" r="2.6" fill="#F0A23B"></circle><circle cx="444.47" cy="181.47" r="2.6" fill="#F0A23B"></circle><circle cx="451.06" cy="177.75" r="2.6" fill="#F0A23B"></circle><circle cx="457.64" cy="119.83" r="2.6" fill="#F0A23B"></circle><circle cx="464.22" cy="180.14" r="2.6" fill="#F0A23B"></circle><circle cx="470.81" cy="177.45" r="2.6" fill="#F0A23B"></circle><circle cx="477.39" cy="177.76" r="2.6" fill="#F0A23B"></circle><circle cx="483.98" cy="178.17" r="2.6" fill="#F0A23B"></circle><circle cx="490.56" cy="180.42" r="2.6" fill="#F0A23B"></circle><circle cx="497.15" cy="180.5" r="2.6" fill="#F0A23B"></circle><circle cx="503.73" cy="77.15" r="2.6" fill="#F0A23B"></circle><circle cx="510.31" cy="180.12" r="2.6" fill="#F0A23B"></circle><circle cx="516.9" cy="179.48" r="2.6" fill="#F0A23B"></circle><circle cx="523.48" cy="178.37" r="2.6" fill="#F0A23B"></circle><circle cx="536.65" cy="178.03" r="2.6" fill="#F0A23B"></circle><circle cx="543.24" cy="178.06" r="2.6" fill="#F0A23B"></circle><circle cx="549.82" cy="175.76" r="2.6" fill="#F0A23B"></circle><circle cx="556.4" cy="170.64" r="2.6" fill="#F0A23B"></circle><circle cx="562.99" cy="178.67" r="2.6" fill="#F0A23B"></circle><circle cx="569.57" cy="180.1" r="2.6" fill="#F0A23B"></circle><circle cx="576.16" cy="173.03" r="2.6" fill="#F0A23B"></circle><circle cx="582.74" cy="182.47" r="2.6" fill="#F0A23B"></circle><circle cx="589.33" cy="178.65" r="2.6" fill="#F0A23B"></circle><circle cx="595.91" cy="181.62" r="2.6" fill="#F0A23B"></circle><circle cx="602.49" cy="151.39" r="2.6" fill="#F0A23B"></circle><circle cx="609.08" cy="138.74" r="2.6" fill="#F0A23B"></circle><circle cx="615.66" cy="178.31" r="2.6" fill="#F0A23B"></circle><circle cx="628.83" cy="179.61" r="2.6" fill="#F0A23B"></circle><circle cx="635.42" cy="178.84" r="2.6" fill="#F0A23B"></circle><circle cx="642" cy="179.96" r="2.6" fill="#F0A23B"></circle><polyline fill="none" stroke="#1F9CF0" stroke-width="2.4" stroke-linejoin="round" stroke-linecap="round" points="56,175.5 62.58,176.2 69.17,132.71 75.75,178.27 82.34,172 88.92,174.38 95.51,174.4 102.09,170.88 108.67,173.93 115.26,173.54 121.84,100.75 128.43,168.69 135.01,173.59 141.6,174.01 148.18,167.31 154.76,117.5 161.35,166.02 167.93,174.07 174.52,141.6 181.1,169.05 187.69,167.14 194.27,174.48 200.85,150.94 207.44,171.01 214.02,52.43 220.61,157.26 227.19,171.51 233.78,136.29 240.36,169.79 246.94,106.45 253.53,170.47 260.11,175.76 266.7,174.01 273.28,174.06 279.87,151.2 286.45,173.78 293.03,169.88 299.62,177.61 306.2,137.18 312.79,114.15 319.37,168.74 325.96,168.47 332.54,130.46 339.12,174.44 345.71,175.01 352.29,171.26 358.88,176.81 365.46,171.37 372.04,161.31 378.63,135.44 385.21,169.24 391.8,176.14 398.38,170.75 404.97,171.27 411.55,166.35 418.13,173.15 424.72,132.18 431.3,168.56 437.89,155.42 444.47,170.02 451.06,169.75 457.64,172.03 464.22,163.98 516.9,170.38 523.48,170.13 530.07,171.04 536.65,151.7 543.24,172.65 549.82,168.55 556.4,174.72 562.99,166.02 569.57,173.54 576.16,166.32 582.74,109.65 589.33,153.77 595.91,175.7 602.49,171.76 609.08,175.06 615.66,177.47 622.25,174.24 628.83,70.44 635.42,178.07 642,170.9"></polyline><circle cx="56" cy="175.5" r="2.6" fill="#1F9CF0"></circle><circle cx="62.58" cy="176.2" r="2.6" fill="#1F9CF0"></circle><circle cx="69.17" cy="132.71" r="2.6" fill="#1F9CF0"></circle><circle cx="75.75" cy="178.27" r="2.6" fill="#1F9CF0"></circle><circle cx="82.34" cy="172" r="2.6" fill="#1F9CF0"></circle><circle cx="88.92" cy="174.38" r="2.6" fill="#1F9CF0"></circle><circle cx="95.51" cy="174.4" r="2.6" fill="#1F9CF0"></circle><circle cx="102.09" cy="170.88" r="2.6" fill="#1F9CF0"></circle><circle cx="108.67" cy="173.93" r="2.6" fill="#1F9CF0"></circle><circle cx="115.26" cy="173.54" r="2.6" fill="#1F9CF0"></circle><circle cx="121.84" cy="100.75" r="2.6" fill="#1F9CF0"></circle><circle cx="128.43" cy="168.69" r="2.6" fill="#1F9CF0"></circle><circle cx="135.01" cy="173.59" r="2.6" fill="#1F9CF0"></circle><circle cx="141.6" cy="174.01" r="2.6" fill="#1F9CF0"></circle><circle cx="148.18" cy="167.31" r="2.6" fill="#1F9CF0"></circle><circle cx="154.76" cy="117.5" r="2.6" fill="#1F9CF0"></circle><circle cx="161.35" cy="166.02" r="2.6" fill="#1F9CF0"></circle><circle cx="167.93" cy="174.07" r="2.6" fill="#1F9CF0"></circle><circle cx="174.52" cy="141.6" r="2.6" fill="#1F9CF0"></circle><circle cx="181.1" cy="169.05" r="2.6" fill="#1F9CF0"></circle><circle cx="187.69" cy="167.14" r="2.6" fill="#1F9CF0"></circle><circle cx="194.27" cy="174.48" r="2.6" fill="#1F9CF0"></circle><circle cx="200.85" cy="150.94" r="2.6" fill="#1F9CF0"></circle><circle cx="207.44" cy="171.01" r="2.6" fill="#1F9CF0"></circle><circle cx="214.02" cy="52.43" r="2.6" fill="#1F9CF0"></circle><circle cx="220.61" cy="157.26" r="2.6" fill="#1F9CF0"></circle><circle cx="227.19" cy="171.51" r="2.6" fill="#1F9CF0"></circle><circle cx="233.78" cy="136.29" r="2.6" fill="#1F9CF0"></circle><circle cx="240.36" cy="169.79" r="2.6" fill="#1F9CF0"></circle><circle cx="246.94" cy="106.45" r="2.6" fill="#1F9CF0"></circle><circle cx="253.53" cy="170.47" r="2.6" fill="#1F9CF0"></circle><circle cx="260.11" cy="175.76" r="2.6" fill="#1F9CF0"></circle><circle cx="266.7" cy="174.01" r="2.6" fill="#1F9CF0"></circle><circle cx="273.28" cy="174.06" r="2.6" fill="#1F9CF0"></circle><circle cx="279.87" cy="151.2" r="2.6" fill="#1F9CF0"></circle><circle cx="286.45" cy="173.78" r="2.6" fill="#1F9CF0"></circle><circle cx="293.03" cy="169.88" r="2.6" fill="#1F9CF0"></circle><circle cx="299.62" cy="177.61" r="2.6" fill="#1F9CF0"></circle><circle cx="306.2" cy="137.18" r="2.6" fill="#1F9CF0"></circle><circle cx="312.79" cy="114.15" r="2.6" fill="#1F9CF0"></circle><circle cx="319.37" cy="168.74" r="2.6" fill="#1F9CF0"></circle><circle cx="325.96" cy="168.47" r="2.6" fill="#1F9CF0"></circle><circle cx="332.54" cy="130.46" r="2.6" fill="#1F9CF0"></circle><circle cx="339.12" cy="174.44" r="2.6" fill="#1F9CF0"></circle><circle cx="345.71" cy="175.01" r="2.6" fill="#1F9CF0"></circle><circle cx="352.29" cy="171.26" r="2.6" fill="#1F9CF0"></circle><circle cx="358.88" cy="176.81" r="2.6" fill="#1F9CF0"></circle><circle cx="365.46" cy="171.37" r="2.6" fill="#1F9CF0"></circle><circle cx="372.04" cy="161.31" r="2.6" fill="#1F9CF0"></circle><circle cx="378.63" cy="135.44" r="2.6" fill="#1F9CF0"></circle><circle cx="385.21" cy="169.24" r="2.6" fill="#1F9CF0"></circle><circle cx="391.8" cy="176.14" r="2.6" fill="#1F9CF0"></circle><circle cx="398.38" cy="170.75" r="2.6" fill="#1F9CF0"></circle><circle cx="404.97" cy="171.27" r="2.6" fill="#1F9CF0"></circle><circle cx="411.55" cy="166.35" r="2.6" fill="#1F9CF0"></circle><circle cx="418.13" cy="173.15" r="2.6" fill="#1F9CF0"></circle><circle cx="424.72" cy="132.18" r="2.6" fill="#1F9CF0"></circle><circle cx="431.3" cy="168.56" r="2.6" fill="#1F9CF0"></circle><circle cx="437.89" cy="155.42" r="2.6" fill="#1F9CF0"></circle><circle cx="444.47" cy="170.02" r="2.6" fill="#1F9CF0"></circle><circle cx="451.06" cy="169.75" r="2.6" fill="#1F9CF0"></circle><circle cx="457.64" cy="172.03" r="2.6" fill="#1F9CF0"></circle><circle cx="464.22" cy="163.98" r="2.6" fill="#1F9CF0"></circle><circle cx="516.9" cy="170.38" r="2.6" fill="#1F9CF0"></circle><circle cx="523.48" cy="170.13" r="2.6" fill="#1F9CF0"></circle><circle cx="530.07" cy="171.04" r="2.6" fill="#1F9CF0"></circle><circle cx="536.65" cy="151.7" r="2.6" fill="#1F9CF0"></circle><circle cx="543.24" cy="172.65" r="2.6" fill="#1F9CF0"></circle><circle cx="549.82" cy="168.55" r="2.6" fill="#1F9CF0"></circle><circle cx="556.4" cy="174.72" r="2.6" fill="#1F9CF0"></circle><circle cx="562.99" cy="166.02" r="2.6" fill="#1F9CF0"></circle><circle cx="569.57" cy="173.54" r="2.6" fill="#1F9CF0"></circle><circle cx="576.16" cy="166.32" r="2.6" fill="#1F9CF0"></circle><circle cx="582.74" cy="109.65" r="2.6" fill="#1F9CF0"></circle><circle cx="589.33" cy="153.77" r="2.6" fill="#1F9CF0"></circle><circle cx="595.91" cy="175.7" r="2.6" fill="#1F9CF0"></circle><circle cx="602.49" cy="171.76" r="2.6" fill="#1F9CF0"></circle><circle cx="609.08" cy="175.06" r="2.6" fill="#1F9CF0"></circle><circle cx="615.66" cy="177.47" r="2.6" fill="#1F9CF0"></circle><circle cx="622.25" cy="174.24" r="2.6" fill="#1F9CF0"></circle><circle cx="628.83" cy="70.44" r="2.6" fill="#1F9CF0"></circle><circle cx="635.42" cy="178.07" r="2.6" fill="#1F9CF0"></circle><circle cx="642" cy="170.9" r="2.6" fill="#1F9CF0"></circle><line x1="656" y1="27" x2="672" y2="27" stroke="#E8835A" stroke-width="3" stroke-linecap="round"></line><text x="678" y="30" font-size="11" font-weight="400" text-anchor="start" fill="#1f2328">anthropic</text><line x1="656" y1="47" x2="672" y2="47" stroke="#6366F1" stroke-width="3" stroke-linecap="round"></line><text x="678" y="50" font-size="11" font-weight="400" text-anchor="start" fill="#1f2328">deepseek</text><line x1="656" y1="67" x2="672" y2="67" stroke="#2DA98C" stroke-width="3" stroke-linecap="round"></line><text x="678" y="70" font-size="11" font-weight="400" text-anchor="start" fill="#1f2328">gemini</text><line x1="656" y1="87" x2="672" y2="87" stroke="#A371F7" stroke-width="3" stroke-linecap="round"></line><text x="678" y="90" font-size="11" font-weight="400" text-anchor="start" fill="#1f2328">llama</text><line x1="656" y1="107" x2="672" y2="107" stroke="#F0A23B" stroke-width="3" stroke-linecap="round"></line><text x="678" y="110" font-size="11" font-weight="400" text-anchor="start" fill="#1f2328">mistral</text><line x1="656" y1="127" x2="672" y2="127" stroke="#1F9CF0" stroke-width="3" stroke-linecap="round"></line><text x="678" y="130" font-size="11" font-weight="400" text-anchor="start" fill="#1f2328">openai</text></svg>
