<svg xmlns="http://www.w3.org/2000/svg" viewBox="0 0 760 348" width="760" height="348" role="img" aria-label="Cost per test by provider over runs — openai highest, deepseek lowest" font-family="-apple-system,BlinkMacSystemFont,'Segoe UI',system-ui,sans-serif"><line x1="56" y1="306" x2="642" y2="306" stroke="#d8dee4" stroke-width="1"></line><text x="46" y="310" font-size="9.5" font-weight="400" text-anchor="end" fill="#656d76" font-family="ui-monospace,SFMono-Regular,Menlo,monospace">$0.000</text><line x1="56" y1="235" x2="642" y2="235" stroke="#d8dee4" stroke-width="1"></line><text x="46" y="239" font-size="9.5" font-weight="400" text-anchor="end" fill="#656d76" font-family="ui-monospace,SFMono-Regular,Menlo,monospace">$0.044</text><line x1="56" y1="164" x2="642" y2="164" stroke="#d8dee4" stroke-width="1"></line><text x="46" y="168" font-size="9.5" font-weight="400" text-anchor="end" fill="#656d76" font-family="ui-monospace,SFMono-Regular,Menlo,monospace">$0.087</text><line x1="56" y1="93" x2="642" y2="93" stroke="#d8dee4" stroke-width="1"></line><text x="46" y="97" font-size="9.5" font-weight="400" text-anchor="end" fill="#656d76" font-family="ui-monospace,SFMono-Regular,Menlo,monospace">$0.131</text><line x1="56" y1="22" x2="642" y2="22" stroke="#d8dee4" stroke-width="1"></line><text x="46" y="26" font-size="9.5" font-weight="400" text-anchor="end" fill="#656d76" font-family="ui-monospace,SFMono-Regular,Menlo,monospace">$0.175</text><text x="56" y="324" font-size="9.5" font-weight="400" text-anchor="middle" fill="#656d76" font-family="ui-monospace,SFMono-Regular,Menlo,monospace">06/06</text><text x="112.71" y="324" font-size="9.5" font-weight="400" text-anchor="middle" fill="#656d76" font-family="ui-monospace,SFMono-Regular,Menlo,monospace">06/08</text><text x="169.42" y="324" font-size="9.5" font-weight="400" text-anchor="middle" fill="#656d76" font-family="ui-monospace,SFMono-Regular,Menlo,monospace">06/08</text><text x="226.13" y="324" font-size="9.5" font-weight="400" text-anchor="middle" fill="#656d76" font-family="ui-monospace,SFMono-Regular,Menlo,monospace">06/09</text><text x="282.84" y="324" font-size="9.5" font-weight="400" text-anchor="middle" fill="#656d76" font-family="ui-monospace,SFMono-Regular,Menlo,monospace">06/12</text><text x="339.55" y="324" font-size="9.5" font-weight="400" text-anchor="middle" fill="#656d76" font-family="ui-monospace,SFMono-Regular,Menlo,monospace">06/14</text><text x="396.26" y="324" font-size="9.5" font-weight="400" text-anchor="middle" fill="#656d76" font-family="ui-monospace,SFMono-Regular,Menlo,monospace">06/15</text><text x="452.97" y="324" font-size="9.5" font-weight="400" text-anchor="middle" fill="#656d76" font-family="ui-monospace,SFMono-Regular,Menlo,monospace">06/16</text><text x="509.68" y="324" font-size="9.5" font-weight="400" text-anchor="middle" fill="#656d76" font-family="ui-monospace,SFMono-Regular,Menlo,monospace">06/17</text><text x="566.39" y="324" font-size="9.5" font-weight="400" text-anchor="middle" fill="#656d76" font-family="ui-monospace,SFMono-Regular,Menlo,monospace">06/20</text><text x="623.1" y="324" font-size="9.5" font-weight="400" text-anchor="middle" fill="#656d76" font-family="ui-monospace,SFMono-Regular,Menlo,monospace">06/21</text><text x="642" y="324" font-size="9.5" font-weight="400" text-anchor="middle" fill="#656d76" font-family="ui-monospace,SFMono-Regular,Menlo,monospace">06/21</text><polyline fill="none" stroke="#6366F1" stroke-width="2.4" stroke-linejoin="round" stroke-linecap="round" points="131.61,293.36 141.06,293.43 150.52,294.1 159.97,292.89 169.42,293.14 178.87,287.31 188.32,294.31 197.77,291.77 207.23,291.82 216.68,291.36 226.13,293.02 235.58,291.8 245.03,288.55 254.48,292.06 263.94,288.85 273.39,294.29 282.84,292.11 292.29,288.48 301.74,285.75 311.19,292.13 320.65,291.04 330.1,293.66 339.55,290.08 349,286.94 358.45,292.77 367.9,291.68 377.35,292.47 386.81,291.27 405.71,290.7 415.16,292.91 424.61,293.34 434.06,290.78 443.52,290.99 452.97,291.6 462.42,292.29 471.87,292.81 481.32,293.37 500.23,293.66 509.68,293.82 519.13,292.24 528.58,291.11 538.03,291.02 547.48,284.88 556.94,291.48 566.39,288.67 575.84,290.47 585.29,288.84 594.74,291.75 613.65,293.31 623.1,293.99 632.55,283.51 642,293.65"></polyline><circle cx="131.61" cy="293.36" r="2.6" fill="#6366F1"></circle><circle cx="141.06" cy="293.43" r="2.6" fill="#6366F1"></circle><circle cx="150.52" cy="294.1" r="2.6" fill="#6366F1"></circle><circle cx="159.97" cy="292.89" r="2.6" fill="#6366F1"></circle><circle cx="169.42" cy="293.14" r="2.6" fill="#6366F1"></circle><circle cx="178.87" cy="287.31" r="2.6" fill="#6366F1"></circle><circle cx="188.32" cy="294.31" r="2.6" fill="#6366F1"></circle><circle cx="197.77" cy="291.77" r="2.6" fill="#6366F1"></circle><circle cx="207.23" cy="291.82" r="2.6" fill="#6366F1"></circle><circle cx="216.68" cy="291.36" r="2.6" fill="#6366F1"></circle><circle cx="226.13" cy="293.02" r="2.6" fill="#6366F1"></circle><circle cx="235.58" cy="291.8" r="2.6" fill="#6366F1"></circle><circle cx="245.03" cy="288.55" r="2.6" fill="#6366F1"></circle><circle cx="254.48" cy="292.06" r="2.6" fill="#6366F1"></circle><circle cx="263.94" cy="288.85" r="2.6" fill="#6366F1"></circle><circle cx="273.39" cy="294.29" r="2.6" fill="#6366F1"></circle><circle cx="282.84" cy="292.11" r="2.6" fill="#6366F1"></circle><circle cx="292.29" cy="288.48" r="2.6" fill="#6366F1"></circle><circle cx="301.74" cy="285.75" r="2.6" fill="#6366F1"></circle><circle cx="311.19" cy="292.13" r="2.6" fill="#6366F1"></circle><circle cx="320.65" cy="291.04" r="2.6" fill="#6366F1"></circle><circle cx="330.1" cy="293.66" r="2.6" fill="#6366F1"></circle><circle cx="339.55" cy="290.08" r="2.6" fill="#6366F1"></circle><circle cx="349" cy="286.94" r="2.6" fill="#6366F1"></circle><circle cx="358.45" cy="292.77" r="2.6" fill="#6366F1"></circle><circle cx="367.9" cy="291.68" r="2.6" fill="#6366F1"></circle><circle cx="377.35" cy="292.47" r="2.6" fill="#6366F1"></circle><circle cx="386.81" cy="291.27" r="2.6" fill="#6366F1"></circle><circle cx="405.71" cy="290.7" r="2.6" fill="#6366F1"></circle><circle cx="415.16" cy="292.91" r="2.6" fill="#6366F1"></circle><circle cx="424.61" cy="293.34" r="2.6" fill="#6366F1"></circle><circle cx="434.06" cy="290.78" r="2.6" fill="#6366F1"></circle><circle cx="443.52" cy="290.99" r="2.6" fill="#6366F1"></circle><circle cx="452.97" cy="291.6" r="2.6" fill="#6366F1"></circle><circle cx="462.42" cy="292.29" r="2.6" fill="#6366F1"></circle><circle cx="471.87" cy="292.81" r="2.6" fill="#6366F1"></circle><circle cx="481.32" cy="293.37" r="2.6" fill="#6366F1"></circle><circle cx="500.23" cy="293.66" r="2.6" fill="#6366F1"></circle><circle cx="509.68" cy="293.82" r="2.6" fill="#6366F1"></circle><circle cx="519.13" cy="292.24" r="2.6" fill="#6366F1"></circle><circle cx="528.58" cy="291.11" r="2.6" fill="#6366F1"></circle><circle cx="538.03" cy="291.02" r="2.6" fill="#6366F1"></circle><circle cx="547.48" cy="284.88" r="2.6" fill="#6366F1"></circle><circle cx="556.94" cy="291.48" r="2.6" fill="#6366F1"></circle><circle cx="566.39" cy="288.67" r="2.6" fill="#6366F1"></circle><circle cx="575.84" cy="290.47" r="2.6" fill="#6366F1"></circle><circle cx="585.29" cy="288.84" r="2.6" fill="#6366F1"></circle><circle cx="594.74" cy="291.75" r="2.6" fill="#6366F1"></circle><circle cx="613.65" cy="293.31" r="2.6" fill="#6366F1"></circle><circle cx="623.1" cy="293.99" r="2.6" fill="#6366F1"></circle><circle cx="632.55" cy="283.51" r="2.6" fill="#6366F1"></circle><circle cx="642" cy="293.65" r="2.6" fill="#6366F1"></circle><polyline fill="none" stroke="#A371F7" stroke-width="2.4" stroke-linejoin="round" stroke-linecap="round" points="56,234.02 65.45,244.52 74.9,248 84.35,231.43 93.81,238.89 103.26,249.23 112.71,244.46 122.16,237.54 131.61,240.86 141.06,247.44 150.52,240.79 159.97,238.23 169.42,242.67 178.87,225.79 188.32,243.99 197.77,238.04 207.23,246.87 216.68,247.42 226.13,226.74 235.58,239.47 245.03,211.96 254.48,246.23 263.94,249.04 273.39,237.01 282.84,234.98 292.29,238.5 301.74,240.35 311.19,237.84 320.65,246.71 330.1,242.24 339.55,238.34 349,244.61 358.45,248.91 367.9,226.53 377.35,244.07 386.81,245.89 405.71,225.3 415.16,246.26 424.61,237.6 443.52,238.19 452.97,247.14 462.42,247.58 471.87,243.98 481.32,241.42 490.77,243.75 500.23,244.26 509.68,242.78 519.13,233.78 528.58,238.08 538.03,239.3 547.48,245.03 556.94,240.96 566.39,244.05 575.84,243 594.74,244.69 613.65,239.74 632.55,235.11 642,243.32"></polyline><circle cx="56" cy="234.02" r="2.6" fill="#A371F7"></circle><circle cx="65.45" cy="244.52" r="2.6" fill="#A371F7"></circle><circle cx="74.9" cy="248" r="2.6" fill="#A371F7"></circle><circle cx="84.35" cy="231.43" r="2.6" fill="#A371F7"></circle><circle cx="93.81" cy="238.89" r="2.6" fill="#A371F7"></circle><circle cx="103.26" cy="249.23" r="2.6" fill="#A371F7"></circle><circle cx="112.71" cy="244.46" r="2.6" fill="#A371F7"></circle><circle cx="122.16" cy="237.54" r="2.6" fill="#A371F7"></circle><circle cx="131.61" cy="240.86" r="2.6" fill="#A371F7"></circle><circle cx="141.06" cy="247.44" r="2.6" fill="#A371F7"></circle><circle cx="150.52" cy="240.79" r="2.6" fill="#A371F7"></circle><circle cx="159.97" cy="238.23" r="2.6" fill="#A371F7"></circle><circle cx="169.42" cy="242.67" r="2.6" fill="#A371F7"></circle><circle cx="178.87" cy="225.79" r="2.6" fill="#A371F7"></circle><circle cx="188.32" cy="243.99" r="2.6" fill="#A371F7"></circle><circle cx="197.77" cy="238.04" r="2.6" fill="#A371F7"></circle><circle cx="207.23" cy="246.87" r="2.6" fill="#A371F7"></circle><circle cx="216.68" cy="247.42" r="2.6" fill="#A371F7"></circle><circle cx="226.13" cy="226.74" r="2.6" fill="#A371F7"></circle><circle cx="235.58" cy="239.47" r="2.6" fill="#A371F7"></circle><circle cx="245.03" cy="211.96" r="2.6" fill="#A371F7"></circle><circle cx="254.48" cy="246.23" r="2.6" fill="#A371F7"></circle><circle cx="263.94" cy="249.04" r="2.6" fill="#A371F7"></circle><circle cx="273.39" cy="237.01" r="2.6" fill="#A371F7"></circle><circle cx="282.84" cy="234.98" r="2.6" fill="#A371F7"></circle><circle cx="292.29" cy="238.5" r="2.6" fill="#A371F7"></circle><circle cx="301.74" cy="240.35" r="2.6" fill="#A371F7"></circle><circle cx="311.19" cy="237.84" r="2.6" fill="#A371F7"></circle><circle cx="320.65" cy="246.71" r="2.6" fill="#A371F7"></circle><circle cx="330.1" cy="242.24" r="2.6" fill="#A371F7"></circle><circle cx="339.55" cy="238.34" r="2.6" fill="#A371F7"></circle><circle cx="349" cy="244.61" r="2.6" fill="#A371F7"></circle><circle cx="358.45" cy="248.91" r="2.6" fill="#A371F7"></circle><circle cx="367.9" cy="226.53" r="2.6" fill="#A371F7"></circle><circle cx="377.35" cy="244.07" r="2.6" fill="#A371F7"></circle><circle cx="386.81" cy="245.89" r="2.6" fill="#A371F7"></circle><circle cx="405.71" cy="225.3" r="2.6" fill="#A371F7"></circle><circle cx="415.16" cy="246.26" r="2.6" fill="#A371F7"></circle><circle cx="424.61" cy="237.6" r="2.6" fill="#A371F7"></circle><circle cx="443.52" cy="238.19" r="2.6" fill="#A371F7"></circle><circle cx="452.97" cy="247.14" r="2.6" fill="#A371F7"></circle><circle cx="462.42" cy="247.58" r="2.6" fill="#A371F7"></circle><circle cx="471.87" cy="243.98" r="2.6" fill="#A371F7"></circle><circle cx="481.32" cy="241.42" r="2.6" fill="#A371F7"></circle><circle cx="490.77" cy="243.75" r="2.6" fill="#A371F7"></circle><circle cx="500.23" cy="244.26" r="2.6" fill="#A371F7"></circle><circle cx="509.68" cy="242.78" r="2.6" fill="#A371F7"></circle><circle cx="519.13" cy="233.78" r="2.6" fill="#A371F7"></circle><circle cx="528.58" cy="238.08" r="2.6" fill="#A371F7"></circle><circle cx="538.03" cy="239.3" r="2.6" fill="#A371F7"></circle><circle cx="547.48" cy="245.03" r="2.6" fill="#A371F7"></circle><circle cx="556.94" cy="240.96" r="2.6" fill="#A371F7"></circle><circle cx="566.39" cy="244.05" r="2.6" fill="#A371F7"></circle><circle cx="575.84" cy="243" r="2.6" fill="#A371F7"></circle><circle cx="594.74" cy="244.69" r="2.6" fill="#A371F7"></circle><circle cx="613.65" cy="239.74" r="2.6" fill="#A371F7"></circle><circle cx="632.55" cy="235.11" r="2.6" fill="#A371F7"></circle><circle cx="642" cy="243.32" r="2.6" fill="#A371F7"></circle><polyline fill="none" stroke="#F0A23B" stroke-width="2.4" stroke-linejoin="round" stroke-linecap="round" points="56,176.15 65.45,166.37 74.9,95.06 84.35,183.78 93.81,178.88 103.26,182.02 112.71,170.24 122.16,169.9 131.61,166.14 141.06,173.66 150.52,166.11 159.97,167.02 169.42,169.09 178.87,176.53 188.32,161.02 197.77,174.97 207.23,168.38 216.68,173 226.13,185.38 235.58,176.24 245.03,181.63 254.48,178.09 263.94,118.27 273.39,178.67 282.84,180.72 292.29,177.62 301.74,179.5 311.19,151.31 320.65,176.94 330.1,159.91 339.55,179.22 349,151.49 358.45,180.65 367.9,179.71 377.35,79.16 386.81,99.74 396.26,178.4 405.71,180.3 415.16,180.24 424.61,176.88 434.06,178.65 443.52,183.45 452.97,182.56 462.42,133.59 471.87,178.99 481.32,179.14 490.77,119.51 500.23,175.85 509.68,154.88 519.13,181.28 528.58,178.3 538.03,178.34 547.48,151.77 556.94,137.32 566.39,181.99 575.84,180.58 585.29,182.99 594.74,178.09 613.65,181.47 623.1,177.75 632.55,119.83 642,180.14"></polyline><circle cx="56" cy="176.15" r="2.6" fill="#F0A23B"></circle><circle cx="65.45" cy="166.37" r="2.6" fill="#F0A23B"></circle><circle cx="74.9" cy="95.06" r="2.6" fill="#F0A23B"></circle><circle cx="84.35" cy="183.78" r="2.6" fill="#F0A23B"></circle><circle cx="93.81" cy="178.88" r="2.6" fill="#F0A23B"></circle><circle cx="103.26" cy="182.02" r="2.6" fill="#F0A23B"></circle><circle cx="112.71" cy="170.24" r="2.6" fill="#F0A23B"></circle><circle cx="122.16" cy="169.9" r="2.6" fill="#F0A23B"></circle><circle cx="131.61" cy="166.14" r="2.6" fill="#F0A23B"></circle><circle cx="141.06" cy="173.66" r="2.6" fill="#F0A23B"></circle><circle cx="150.52" cy="166.11" r="2.6" fill="#F0A23B"></circle><circle cx="159.97" cy="167.02" r="2.6" fill="#F0A23B"></circle><circle cx="169.42" cy="169.09" r="2.6" fill="#F0A23B"></circle><circle cx="178.87" cy="176.53" r="2.6" fill="#F0A23B"></circle><circle cx="188.32" cy="161.02" r="2.6" fill="#F0A23B"></circle><circle cx="197.77" cy="174.97" r="2.6" fill="#F0A23B"></circle><circle cx="207.23" cy="168.38" r="2.6" fill="#F0A23B"></circle><circle cx="216.68" cy="173" r="2.6" fill="#F0A23B"></circle><circle cx="226.13" cy="185.38" r="2.6" fill="#F0A23B"></circle><circle cx="235.58" cy="176.24" r="2.6" fill="#F0A23B"></circle><circle cx="245.03" cy="181.63" r="2.6" fill="#F0A23B"></circle><circle cx="254.48" cy="178.09" r="2.6" fill="#F0A23B"></circle><circle cx="263.94" cy="118.27" r="2.6" fill="#F0A23B"></circle><circle cx="273.39" cy="178.67" r="2.6" fill="#F0A23B"></circle><circle cx="282.84" cy="180.72" r="2.6" fill="#F0A23B"></circle><circle cx="292.29" cy="177.62" r="2.6" fill="#F0A23B"></circle><circle cx="301.74" cy="179.5" r="2.6" fill="#F0A23B"></circle><circle cx="311.19" cy="151.31" r="2.6" fill="#F0A23B"></circle><circle cx="320.65" cy="176.94" r="2.6" fill="#F0A23B"></circle><circle cx="330.1" cy="159.91" r="2.6" fill="#F0A23B"></circle><circle cx="339.55" cy="179.22" r="2.6" fill="#F0A23B"></circle><circle cx="349" cy="151.49" r="2.6" fill="#F0A23B"></circle><circle cx="358.45" cy="180.65" r="2.6" fill="#F0A23B"></circle><circle cx="367.9" cy="179.71" r="2.6" fill="#F0A23B"></circle><circle cx="377.35" cy="79.16" r="2.6" fill="#F0A23B"></circle><circle cx="386.81" cy="99.74" r="2.6" fill="#F0A23B"></circle><circle cx="396.26" cy="178.4" r="2.6" fill="#F0A23B"></circle><circle cx="405.71" cy="180.3" r="2.6" fill="#F0A23B"></circle><circle cx="415.16" cy="180.24" r="2.6" fill="#F0A23B"></circle><circle cx="424.61" cy="176.88" r="2.6" fill="#F0A23B"></circle><circle cx="434.06" cy="178.65" r="2.6" fill="#F0A23B"></circle><circle cx="443.52" cy="183.45" r="2.6" fill="#F0A23B"></circle><circle cx="452.97" cy="182.56" r="2.6" fill="#F0A23B"></circle><circle cx="462.42" cy="133.59" r="2.6" fill="#F0A23B"></circle><circle cx="471.87" cy="178.99" r="2.6" fill="#F0A23B"></circle><circle cx="481.32" cy="179.14" r="2.6" fill="#F0A23B"></circle><circle cx="490.77" cy="119.51" r="2.6" fill="#F0A23B"></circle><circle cx="500.23" cy="175.85" r="2.6" fill="#F0A23B"></circle><circle cx="509.68" cy="154.88" r="2.6" fill="#F0A23B"></circle><circle cx="519.13" cy="181.28" r="2.6" fill="#F0A23B"></circle><circle cx="528.58" cy="178.3" r="2.6" fill="#F0A23B"></circle><circle cx="538.03" cy="178.34" r="2.6" fill="#F0A23B"></circle><circle cx="547.48" cy="151.77" r="2.6" fill="#F0A23B"></circle><circle cx="556.94" cy="137.32" r="2.6" fill="#F0A23B"></circle><circle cx="566.39" cy="181.99" r="2.6" fill="#F0A23B"></circle><circle cx="575.84" cy="180.58" r="2.6" fill="#F0A23B"></circle><circle cx="585.29" cy="182.99" r="2.6" fill="#F0A23B"></circle><circle cx="594.74" cy="178.09" r="2.6" fill="#F0A23B"></circle><circle cx="613.65" cy="181.47" r="2.6" fill="#F0A23B"></circle><circle cx="623.1" cy="177.75" r="2.6" fill="#F0A23B"></circle><circle cx="632.55" cy="119.83" r="2.6" fill="#F0A23B"></circle><circle cx="642" cy="180.14" r="2.6" fill="#F0A23B"></circle><polyline fill="none" stroke="#1F9CF0" stroke-width="2.4" stroke-linejoin="round" stroke-linecap="round" points="56,175.5 65.45,176.2 74.9,132.71 84.35,178.27 93.81,172 103.26,174.38 112.71,174.4 122.16,170.88 131.61,173.93 141.06,173.54 150.52,100.75 159.97,168.69 169.42,173.59 178.87,174.01 188.32,167.31 197.77,117.5 207.23,166.02 216.68,174.07 226.13,141.6 235.58,169.05 245.03,167.14 254.48,174.48 263.94,150.94 273.39,171.01 282.84,52.43 292.29,157.26 301.74,171.51 311.19,136.29 320.65,169.79 330.1,106.45 339.55,170.47 349,175.76 358.45,174.01 367.9,174.06 377.35,151.2 386.81,173.78 396.26,169.88 405.71,177.61 415.16,137.18 424.61,114.15 434.06,168.74 443.52,168.47 452.97,130.46 462.42,174.44 471.87,175.01 481.32,171.26 490.77,176.81 500.23,171.37 509.68,161.31 519.13,135.44 528.58,169.24 538.03,176.14 547.48,170.75 556.94,171.27 566.39,166.35 575.84,173.15 585.29,132.18 594.74,168.56 604.19,155.42 613.65,170.02 623.1,169.75 632.55,172.03 642,163.98"></polyline><circle cx="56" cy="175.5" r="2.6" fill="#1F9CF0"></circle><circle cx="65.45" cy="176.2" r="2.6" fill="#1F9CF0"></circle><circle cx="74.9" cy="132.71" r="2.6" fill="#1F9CF0"></circle><circle cx="84.35" cy="178.27" r="2.6" fill="#1F9CF0"></circle><circle cx="93.81" cy="172" r="2.6" fill="#1F9CF0"></circle><circle cx="103.26" cy="174.38" r="2.6" fill="#1F9CF0"></circle><circle cx="112.71" cy="174.4" r="2.6" fill="#1F9CF0"></circle><circle cx="122.16" cy="170.88" r="2.6" fill="#1F9CF0"></circle><circle cx="131.61" cy="173.93" r="2.6" fill="#1F9CF0"></circle><circle cx="141.06" cy="173.54" r="2.6" fill="#1F9CF0"></circle><circle cx="150.52" cy="100.75" r="2.6" fill="#1F9CF0"></circle><circle cx="159.97" cy="168.69" r="2.6" fill="#1F9CF0"></circle><circle cx="169.42" cy="173.59" r="2.6" fill="#1F9CF0"></circle><circle cx="178.87" cy="174.01" r="2.6" fill="#1F9CF0"></circle><circle cx="188.32" cy="167.31" r="2.6" fill="#1F9CF0"></circle><circle cx="197.77" cy="117.5" r="2.6" fill="#1F9CF0"></circle><circle cx="207.23" cy="166.02" r="2.6" fill="#1F9CF0"></circle><circle cx="216.68" cy="174.07" r="2.6" fill="#1F9CF0"></circle><circle cx="226.13" cy="141.6" r="2.6" fill="#1F9CF0"></circle><circle cx="235.58" cy="169.05" r="2.6" fill="#1F9CF0"></circle><circle cx="245.03" cy="167.14" r="2.6" fill="#1F9CF0"></circle><circle cx="254.48" cy="174.48" r="2.6" fill="#1F9CF0"></circle><circle cx="263.94" cy="150.94" r="2.6" fill="#1F9CF0"></circle><circle cx="273.39" cy="171.01" r="2.6" fill="#1F9CF0"></circle><circle cx="282.84" cy="52.43" r="2.6" fill="#1F9CF0"></circle><circle cx="292.29" cy="157.26" r="2.6" fill="#1F9CF0"></circle><circle cx="301.74" cy="171.51" r="2.6" fill="#1F9CF0"></circle><circle cx="311.19" cy="136.29" r="2.6" fill="#1F9CF0"></circle><circle cx="320.65" cy="169.79" r="2.6" fill="#1F9CF0"></circle><circle cx="330.1" cy="106.45" r="2.6" fill="#1F9CF0"></circle><circle cx="339.55" cy="170.47" r="2.6" fill="#1F9CF0"></circle><circle cx="349" cy="175.76" r="2.6" fill="#1F9CF0"></circle><circle cx="358.45" cy="174.01" r="2.6" fill="#1F9CF0"></circle><circle cx="367.9" cy="174.06" r="2.6" fill="#1F9CF0"></circle><circle cx="377.35" cy="151.2" r="2.6" fill="#1F9CF0"></circle><circle cx="386.81" cy="173.78" r="2.6" fill="#1F9CF0"></circle><circle cx="396.26" cy="169.88" r="2.6" fill="#1F9CF0"></circle><circle cx="405.71" cy="177.61" r="2.6" fill="#1F9CF0"></circle><circle cx="415.16" cy="137.18" r="2.6" fill="#1F9CF0"></circle><circle cx="424.61" cy="114.15" r="2.6" fill="#1F9CF0"></circle><circle cx="434.06" cy="168.74" r="2.6" fill="#1F9CF0"></circle><circle cx="443.52" cy="168.47" r="2.6" fill="#1F9CF0"></circle><circle cx="452.97" cy="130.46" r="2.6" fill="#1F9CF0"></circle><circle cx="462.42" cy="174.44" r="2.6" fill="#1F9CF0"></circle><circle cx="471.87" cy="175.01" r="2.6" fill="#1F9CF0"></circle><circle cx="481.32" cy="171.26" r="2.6" fill="#1F9CF0"></circle><circle cx="490.77" cy="176.81" r="2.6" fill="#1F9CF0"></circle><circle cx="500.23" cy="171.37" r="2.6" fill="#1F9CF0"></circle><circle cx="509.68" cy="161.31" r="2.6" fill="#1F9CF0"></circle><circle cx="519.13" cy="135.44" r="2.6" fill="#1F9CF0"></circle><circle cx="528.58" cy="169.24" r="2.6" fill="#1F9CF0"></circle><circle cx="538.03" cy="176.14" r="2.6" fill="#1F9CF0"></circle><circle cx="547.48" cy="170.75" r="2.6" fill="#1F9CF0"></circle><circle cx="556.94" cy="171.27" r="2.6" fill="#1F9CF0"></circle><circle cx="566.39" cy="166.35" r="2.6" fill="#1F9CF0"></circle><circle cx="575.84" cy="173.15" r="2.6" fill="#1F9CF0"></circle><circle cx="585.29" cy="132.18" r="2.6" fill="#1F9CF0"></circle><circle cx="594.74" cy="168.56" r="2.6" fill="#1F9CF0"></circle><circle cx="604.19" cy="155.42" r="2.6" fill="#1F9CF0"></circle><circle cx="613.65" cy="170.02" r="2.6" fill="#1F9CF0"></circle><circle cx="623.1" cy="169.75" r="2.6" fill="#1F9CF0"></circle><circle cx="632.55" cy="172.03" r="2.6" fill="#1F9CF0"></circle><circle cx="642" cy="163.98" r="2.6" fill="#1F9CF0"></circle><line x1="656" y1="27" x2="672" y2="27" stroke="#6366F1" stroke-width="3" stroke-linecap="round"></line><text x="678" y="30" font-size="11" font-weight="400" text-anchor="start" fill="#1f2328">deepseek</text><line x1="656" y1="47" x2="672" y2="47" stroke="#A371F7" stroke-width="3" stroke-linecap="round"></line><text x="678" y="50" font-size="11" font-weight="400" text-anchor="start" fill="#1f2328">llama</text><line x1="656" y1="67" x2="672" y2="67" stroke="#F0A23B" stroke-width="3" stroke-linecap="round"></line><text x="678" y="70" font-size="11" font-weight="400" text-anchor="start" fill="#1f2328">mistral</text><line x1="656" y1="87" x2="672" y2="87" stroke="#1F9CF0" stroke-width="3" stroke-linecap="round"></line><text x="678" y="90" font-size="11" font-weight="400" text-anchor="start" fill="#1f2328">openai</text></svg>
