<svg xmlns="http://www.w3.org/2000/svg" viewBox="0 0 760 348" width="760" height="348" role="img" aria-label="Cost per test by provider over runs — mistral highest, deepseek lowest" font-family="-apple-system,BlinkMacSystemFont,'Segoe UI',system-ui,sans-serif"><line x1="56" y1="306" x2="642" y2="306" stroke="#30363d" stroke-width="1"></line><text x="46" y="310" font-size="9.5" font-weight="400" text-anchor="end" fill="#8b949e" font-family="ui-monospace,SFMono-Regular,Menlo,monospace">$0.000</text><line x1="56" y1="235" x2="642" y2="235" stroke="#30363d" stroke-width="1"></line><text x="46" y="239" font-size="9.5" font-weight="400" text-anchor="end" fill="#8b949e" font-family="ui-monospace,SFMono-Regular,Menlo,monospace">$0.039</text><line x1="56" y1="164" x2="642" y2="164" stroke="#30363d" stroke-width="1"></line><text x="46" y="168" font-size="9.5" font-weight="400" text-anchor="end" fill="#8b949e" font-family="ui-monospace,SFMono-Regular,Menlo,monospace">$0.078</text><line x1="56" y1="93" x2="642" y2="93" stroke="#30363d" stroke-width="1"></line><text x="46" y="97" font-size="9.5" font-weight="400" text-anchor="end" fill="#8b949e" font-family="ui-monospace,SFMono-Regular,Menlo,monospace">$0.117</text><line x1="56" y1="22" x2="642" y2="22" stroke="#30363d" stroke-width="1"></line><text x="46" y="26" font-size="9.5" font-weight="400" text-anchor="end" fill="#8b949e" font-family="ui-monospace,SFMono-Regular,Menlo,monospace">$0.156</text><text x="56" y="324" font-size="9.5" font-weight="400" text-anchor="middle" fill="#8b949e" font-family="ui-monospace,SFMono-Regular,Menlo,monospace">06/06</text><text x="111.81" y="324" font-size="9.5" font-weight="400" text-anchor="middle" fill="#8b949e" font-family="ui-monospace,SFMono-Regular,Menlo,monospace">06/08</text><text x="167.62" y="324" font-size="9.5" font-weight="400" text-anchor="middle" fill="#8b949e" font-family="ui-monospace,SFMono-Regular,Menlo,monospace">06/08</text><text x="223.43" y="324" font-size="9.5" font-weight="400" text-anchor="middle" fill="#8b949e" font-family="ui-monospace,SFMono-Regular,Menlo,monospace">06/09</text><text x="279.24" y="324" font-size="9.5" font-weight="400" text-anchor="middle" fill="#8b949e" font-family="ui-monospace,SFMono-Regular,Menlo,monospace">06/12</text><text x="335.05" y="324" font-size="9.5" font-weight="400" text-anchor="middle" fill="#8b949e" font-family="ui-monospace,SFMono-Regular,Menlo,monospace">06/14</text><text x="390.86" y="324" font-size="9.5" font-weight="400" text-anchor="middle" fill="#8b949e" font-family="ui-monospace,SFMono-Regular,Menlo,monospace">06/15</text><text x="446.67" y="324" font-size="9.5" font-weight="400" text-anchor="middle" fill="#8b949e" font-family="ui-monospace,SFMono-Regular,Menlo,monospace">06/16</text><text x="502.48" y="324" font-size="9.5" font-weight="400" text-anchor="middle" fill="#8b949e" font-family="ui-monospace,SFMono-Regular,Menlo,monospace">06/17</text><text x="558.29" y="324" font-size="9.5" font-weight="400" text-anchor="middle" fill="#8b949e" font-family="ui-monospace,SFMono-Regular,Menlo,monospace">06/20</text><text x="614.1" y="324" font-size="9.5" font-weight="400" text-anchor="middle" fill="#8b949e" font-family="ui-monospace,SFMono-Regular,Menlo,monospace">06/21</text><text x="642" y="324" font-size="9.5" font-weight="400" text-anchor="middle" fill="#8b949e" font-family="ui-monospace,SFMono-Regular,Menlo,monospace">06/22</text><polyline fill="none" stroke="#6366F1" stroke-width="2.4" stroke-linejoin="round" stroke-linecap="round" points="130.41,291.87 139.71,291.95 149.02,292.7 158.32,291.35 167.62,291.63 176.92,285.11 186.22,292.93 195.52,290.09 204.83,290.15 214.13,289.63 223.43,291.49 232.73,290.13 242.03,286.49 251.33,290.42 260.63,286.82 269.94,292.91 279.24,290.47 288.54,286.41 297.84,283.36 307.14,290.5 316.44,289.27 325.75,292.21 335.05,288.21 344.35,284.69 353.65,291.21 362.95,289.99 372.25,290.87 381.56,289.54 400.16,288.89 409.46,291.37 418.76,291.85 428.06,288.99 437.37,289.23 446.67,289.9 455.97,290.68 465.27,291.26 474.57,291.88 493.17,292.21 502.48,292.39 511.78,290.62 521.08,289.36 530.38,289.25 539.68,282.39 548.98,289.77 558.29,286.62 567.59,288.64 576.89,286.81 586.19,290.08 595.49,291.81 604.79,292.58 614.1,280.86 623.4,292.19 632.7,290.14 642,286.32"></polyline><circle cx="130.41" cy="291.87" r="2.6" fill="#6366F1"></circle><circle cx="139.71" cy="291.95" r="2.6" fill="#6366F1"></circle><circle cx="149.02" cy="292.7" r="2.6" fill="#6366F1"></circle><circle cx="158.32" cy="291.35" r="2.6" fill="#6366F1"></circle><circle cx="167.62" cy="291.63" r="2.6" fill="#6366F1"></circle><circle cx="176.92" cy="285.11" r="2.6" fill="#6366F1"></circle><circle cx="186.22" cy="292.93" r="2.6" fill="#6366F1"></circle><circle cx="195.52" cy="290.09" r="2.6" fill="#6366F1"></circle><circle cx="204.83" cy="290.15" r="2.6" fill="#6366F1"></circle><circle cx="214.13" cy="289.63" r="2.6" fill="#6366F1"></circle><circle cx="223.43" cy="291.49" r="2.6" fill="#6366F1"></circle><circle cx="232.73" cy="290.13" r="2.6" fill="#6366F1"></circle><circle cx="242.03" cy="286.49" r="2.6" fill="#6366F1"></circle><circle cx="251.33" cy="290.42" r="2.6" fill="#6366F1"></circle><circle cx="260.63" cy="286.82" r="2.6" fill="#6366F1"></circle><circle cx="269.94" cy="292.91" r="2.6" fill="#6366F1"></circle><circle cx="279.24" cy="290.47" r="2.6" fill="#6366F1"></circle><circle cx="288.54" cy="286.41" r="2.6" fill="#6366F1"></circle><circle cx="297.84" cy="283.36" r="2.6" fill="#6366F1"></circle><circle cx="307.14" cy="290.5" r="2.6" fill="#6366F1"></circle><circle cx="316.44" cy="289.27" r="2.6" fill="#6366F1"></circle><circle cx="325.75" cy="292.21" r="2.6" fill="#6366F1"></circle><circle cx="335.05" cy="288.21" r="2.6" fill="#6366F1"></circle><circle cx="344.35" cy="284.69" r="2.6" fill="#6366F1"></circle><circle cx="353.65" cy="291.21" r="2.6" fill="#6366F1"></circle><circle cx="362.95" cy="289.99" r="2.6" fill="#6366F1"></circle><circle cx="372.25" cy="290.87" r="2.6" fill="#6366F1"></circle><circle cx="381.56" cy="289.54" r="2.6" fill="#6366F1"></circle><circle cx="400.16" cy="288.89" r="2.6" fill="#6366F1"></circle><circle cx="409.46" cy="291.37" r="2.6" fill="#6366F1"></circle><circle cx="418.76" cy="291.85" r="2.6" fill="#6366F1"></circle><circle cx="428.06" cy="288.99" r="2.6" fill="#6366F1"></circle><circle cx="437.37" cy="289.23" r="2.6" fill="#6366F1"></circle><circle cx="446.67" cy="289.9" r="2.6" fill="#6366F1"></circle><circle cx="455.97" cy="290.68" r="2.6" fill="#6366F1"></circle><circle cx="465.27" cy="291.26" r="2.6" fill="#6366F1"></circle><circle cx="474.57" cy="291.88" r="2.6" fill="#6366F1"></circle><circle cx="493.17" cy="292.21" r="2.6" fill="#6366F1"></circle><circle cx="502.48" cy="292.39" r="2.6" fill="#6366F1"></circle><circle cx="511.78" cy="290.62" r="2.6" fill="#6366F1"></circle><circle cx="521.08" cy="289.36" r="2.6" fill="#6366F1"></circle><circle cx="530.38" cy="289.25" r="2.6" fill="#6366F1"></circle><circle cx="539.68" cy="282.39" r="2.6" fill="#6366F1"></circle><circle cx="548.98" cy="289.77" r="2.6" fill="#6366F1"></circle><circle cx="558.29" cy="286.62" r="2.6" fill="#6366F1"></circle><circle cx="567.59" cy="288.64" r="2.6" fill="#6366F1"></circle><circle cx="576.89" cy="286.81" r="2.6" fill="#6366F1"></circle><circle cx="586.19" cy="290.08" r="2.6" fill="#6366F1"></circle><circle cx="595.49" cy="291.81" r="2.6" fill="#6366F1"></circle><circle cx="604.79" cy="292.58" r="2.6" fill="#6366F1"></circle><circle cx="614.1" cy="280.86" r="2.6" fill="#6366F1"></circle><circle cx="623.4" cy="292.19" r="2.6" fill="#6366F1"></circle><circle cx="632.7" cy="290.14" r="2.6" fill="#6366F1"></circle><circle cx="642" cy="286.32" r="2.6" fill="#6366F1"></circle><polyline fill="none" stroke="#A371F7" stroke-width="2.4" stroke-linejoin="round" stroke-linecap="round" points="56,225.54 65.3,237.27 74.6,241.16 83.9,222.65 93.21,230.98 102.51,242.54 111.81,237.21 121.11,229.47 130.41,233.19 139.71,240.54 149.02,233.11 158.32,230.24 167.62,235.21 176.92,216.34 186.22,236.68 195.52,230.04 204.83,239.9 214.13,240.52 223.43,217.4 232.73,231.63 242.03,200.88 251.33,239.19 260.63,242.32 269.94,228.88 279.24,226.62 288.54,230.55 297.84,232.61 307.14,229.81 316.44,239.72 325.75,234.73 335.05,230.36 344.35,237.37 353.65,242.18 362.95,217.16 372.25,236.77 381.56,238.8 400.16,215.79 409.46,239.22 418.76,229.54 437.37,230.2 446.67,240.21 455.97,240.7 465.27,236.68 474.57,233.81 483.87,236.41 493.17,236.99 502.48,235.33 511.78,225.27 521.08,230.08 530.38,231.44 539.68,237.84 548.98,233.29 558.29,236.75 567.59,235.58 586.19,237.47 595.49,231.93 614.1,226.76 623.4,235.94 632.7,231.36 642,239.89"></polyline><circle cx="56" cy="225.54" r="2.6" fill="#A371F7"></circle><circle cx="65.3" cy="237.27" r="2.6" fill="#A371F7"></circle><circle cx="74.6" cy="241.16" r="2.6" fill="#A371F7"></circle><circle cx="83.9" cy="222.65" r="2.6" fill="#A371F7"></circle><circle cx="93.21" cy="230.98" r="2.6" fill="#A371F7"></circle><circle cx="102.51" cy="242.54" r="2.6" fill="#A371F7"></circle><circle cx="111.81" cy="237.21" r="2.6" fill="#A371F7"></circle><circle cx="121.11" cy="229.47" r="2.6" fill="#A371F7"></circle><circle cx="130.41" cy="233.19" r="2.6" fill="#A371F7"></circle><circle cx="139.71" cy="240.54" r="2.6" fill="#A371F7"></circle><circle cx="149.02" cy="233.11" r="2.6" fill="#A371F7"></circle><circle cx="158.32" cy="230.24" r="2.6" fill="#A371F7"></circle><circle cx="167.62" cy="235.21" r="2.6" fill="#A371F7"></circle><circle cx="176.92" cy="216.34" r="2.6" fill="#A371F7"></circle><circle cx="186.22" cy="236.68" r="2.6" fill="#A371F7"></circle><circle cx="195.52" cy="230.04" r="2.6" fill="#A371F7"></circle><circle cx="204.83" cy="239.9" r="2.6" fill="#A371F7"></circle><circle cx="214.13" cy="240.52" r="2.6" fill="#A371F7"></circle><circle cx="223.43" cy="217.4" r="2.6" fill="#A371F7"></circle><circle cx="232.73" cy="231.63" r="2.6" fill="#A371F7"></circle><circle cx="242.03" cy="200.88" r="2.6" fill="#A371F7"></circle><circle cx="251.33" cy="239.19" r="2.6" fill="#A371F7"></circle><circle cx="260.63" cy="242.32" r="2.6" fill="#A371F7"></circle><circle cx="269.94" cy="228.88" r="2.6" fill="#A371F7"></circle><circle cx="279.24" cy="226.62" r="2.6" fill="#A371F7"></circle><circle cx="288.54" cy="230.55" r="2.6" fill="#A371F7"></circle><circle cx="297.84" cy="232.61" r="2.6" fill="#A371F7"></circle><circle cx="307.14" cy="229.81" r="2.6" fill="#A371F7"></circle><circle cx="316.44" cy="239.72" r="2.6" fill="#A371F7"></circle><circle cx="325.75" cy="234.73" r="2.6" fill="#A371F7"></circle><circle cx="335.05" cy="230.36" r="2.6" fill="#A371F7"></circle><circle cx="344.35" cy="237.37" r="2.6" fill="#A371F7"></circle><circle cx="353.65" cy="242.18" r="2.6" fill="#A371F7"></circle><circle cx="362.95" cy="217.16" r="2.6" fill="#A371F7"></circle><circle cx="372.25" cy="236.77" r="2.6" fill="#A371F7"></circle><circle cx="381.56" cy="238.8" r="2.6" fill="#A371F7"></circle><circle cx="400.16" cy="215.79" r="2.6" fill="#A371F7"></circle><circle cx="409.46" cy="239.22" r="2.6" fill="#A371F7"></circle><circle cx="418.76" cy="229.54" r="2.6" fill="#A371F7"></circle><circle cx="437.37" cy="230.2" r="2.6" fill="#A371F7"></circle><circle cx="446.67" cy="240.21" r="2.6" fill="#A371F7"></circle><circle cx="455.97" cy="240.7" r="2.6" fill="#A371F7"></circle><circle cx="465.27" cy="236.68" r="2.6" fill="#A371F7"></circle><circle cx="474.57" cy="233.81" r="2.6" fill="#A371F7"></circle><circle cx="483.87" cy="236.41" r="2.6" fill="#A371F7"></circle><circle cx="493.17" cy="236.99" r="2.6" fill="#A371F7"></circle><circle cx="502.48" cy="235.33" r="2.6" fill="#A371F7"></circle><circle cx="511.78" cy="225.27" r="2.6" fill="#A371F7"></circle><circle cx="521.08" cy="230.08" r="2.6" fill="#A371F7"></circle><circle cx="530.38" cy="231.44" r="2.6" fill="#A371F7"></circle><circle cx="539.68" cy="237.84" r="2.6" fill="#A371F7"></circle><circle cx="548.98" cy="233.29" r="2.6" fill="#A371F7"></circle><circle cx="558.29" cy="236.75" r="2.6" fill="#A371F7"></circle><circle cx="567.59" cy="235.58" r="2.6" fill="#A371F7"></circle><circle cx="586.19" cy="237.47" r="2.6" fill="#A371F7"></circle><circle cx="595.49" cy="231.93" r="2.6" fill="#A371F7"></circle><circle cx="614.1" cy="226.76" r="2.6" fill="#A371F7"></circle><circle cx="623.4" cy="235.94" r="2.6" fill="#A371F7"></circle><circle cx="632.7" cy="231.36" r="2.6" fill="#A371F7"></circle><circle cx="642" cy="239.89" r="2.6" fill="#A371F7"></circle><polyline fill="none" stroke="#F0A23B" stroke-width="2.4" stroke-linejoin="round" stroke-linecap="round" points="56,160.85 65.3,149.92 74.6,70.2 83.9,169.38 93.21,163.91 102.51,167.41 111.81,154.25 121.11,153.87 130.41,149.66 139.71,158.07 149.02,149.63 158.32,150.64 167.62,152.96 176.92,161.27 186.22,143.94 195.52,159.53 204.83,152.17 214.13,157.33 223.43,171.16 232.73,160.95 242.03,166.98 251.33,163.02 260.63,96.15 269.94,163.67 279.24,165.96 288.54,162.5 297.84,164.6 307.14,133.08 316.44,161.73 325.75,142.7 335.05,164.28 344.35,133.29 353.65,165.88 362.95,164.83 372.25,52.43 381.56,75.44 390.86,163.37 400.16,165.49 409.46,165.42 418.76,161.66 428.06,163.65 437.37,169.01 446.67,168.02 455.97,113.27 465.27,164.02 474.57,164.19 483.87,97.53 493.17,160.51 502.48,137.07 511.78,166.58 521.08,163.26 530.38,163.3 539.68,133.59 548.98,117.45 558.29,167.38 567.59,165.8 576.89,168.5 586.19,163.02 595.49,166.8 604.79,162.64 614.1,97.89 623.4,165.31 632.7,162.3 642,162.65"></polyline><circle cx="56" cy="160.85" r="2.6" fill="#F0A23B"></circle><circle cx="65.3" cy="149.92" r="2.6" fill="#F0A23B"></circle><circle cx="74.6" cy="70.2" r="2.6" fill="#F0A23B"></circle><circle cx="83.9" cy="169.38" r="2.6" fill="#F0A23B"></circle><circle cx="93.21" cy="163.91" r="2.6" fill="#F0A23B"></circle><circle cx="102.51" cy="167.41" r="2.6" fill="#F0A23B"></circle><circle cx="111.81" cy="154.25" r="2.6" fill="#F0A23B"></circle><circle cx="121.11" cy="153.87" r="2.6" fill="#F0A23B"></circle><circle cx="130.41" cy="149.66" r="2.6" fill="#F0A23B"></circle><circle cx="139.71" cy="158.07" r="2.6" fill="#F0A23B"></circle><circle cx="149.02" cy="149.63" r="2.6" fill="#F0A23B"></circle><circle cx="158.32" cy="150.64" r="2.6" fill="#F0A23B"></circle><circle cx="167.62" cy="152.96" r="2.6" fill="#F0A23B"></circle><circle cx="176.92" cy="161.27" r="2.6" fill="#F0A23B"></circle><circle cx="186.22" cy="143.94" r="2.6" fill="#F0A23B"></circle><circle cx="195.52" cy="159.53" r="2.6" fill="#F0A23B"></circle><circle cx="204.83" cy="152.17" r="2.6" fill="#F0A23B"></circle><circle cx="214.13" cy="157.33" r="2.6" fill="#F0A23B"></circle><circle cx="223.43" cy="171.16" r="2.6" fill="#F0A23B"></circle><circle cx="232.73" cy="160.95" r="2.6" fill="#F0A23B"></circle><circle cx="242.03" cy="166.98" r="2.6" fill="#F0A23B"></circle><circle cx="251.33" cy="163.02" r="2.6" fill="#F0A23B"></circle><circle cx="260.63" cy="96.15" r="2.6" fill="#F0A23B"></circle><circle cx="269.94" cy="163.67" r="2.6" fill="#F0A23B"></circle><circle cx="279.24" cy="165.96" r="2.6" fill="#F0A23B"></circle><circle cx="288.54" cy="162.5" r="2.6" fill="#F0A23B"></circle><circle cx="297.84" cy="164.6" r="2.6" fill="#F0A23B"></circle><circle cx="307.14" cy="133.08" r="2.6" fill="#F0A23B"></circle><circle cx="316.44" cy="161.73" r="2.6" fill="#F0A23B"></circle><circle cx="325.75" cy="142.7" r="2.6" fill="#F0A23B"></circle><circle cx="335.05" cy="164.28" r="2.6" fill="#F0A23B"></circle><circle cx="344.35" cy="133.29" r="2.6" fill="#F0A23B"></circle><circle cx="353.65" cy="165.88" r="2.6" fill="#F0A23B"></circle><circle cx="362.95" cy="164.83" r="2.6" fill="#F0A23B"></circle><circle cx="372.25" cy="52.43" r="2.6" fill="#F0A23B"></circle><circle cx="381.56" cy="75.44" r="2.6" fill="#F0A23B"></circle><circle cx="390.86" cy="163.37" r="2.6" fill="#F0A23B"></circle><circle cx="400.16" cy="165.49" r="2.6" fill="#F0A23B"></circle><circle cx="409.46" cy="165.42" r="2.6" fill="#F0A23B"></circle><circle cx="418.76" cy="161.66" r="2.6" fill="#F0A23B"></circle><circle cx="428.06" cy="163.65" r="2.6" fill="#F0A23B"></circle><circle cx="437.37" cy="169.01" r="2.6" fill="#F0A23B"></circle><circle cx="446.67" cy="168.02" r="2.6" fill="#F0A23B"></circle><circle cx="455.97" cy="113.27" r="2.6" fill="#F0A23B"></circle><circle cx="465.27" cy="164.02" r="2.6" fill="#F0A23B"></circle><circle cx="474.57" cy="164.19" r="2.6" fill="#F0A23B"></circle><circle cx="483.87" cy="97.53" r="2.6" fill="#F0A23B"></circle><circle cx="493.17" cy="160.51" r="2.6" fill="#F0A23B"></circle><circle cx="502.48" cy="137.07" r="2.6" fill="#F0A23B"></circle><circle cx="511.78" cy="166.58" r="2.6" fill="#F0A23B"></circle><circle cx="521.08" cy="163.26" r="2.6" fill="#F0A23B"></circle><circle cx="530.38" cy="163.3" r="2.6" fill="#F0A23B"></circle><circle cx="539.68" cy="133.59" r="2.6" fill="#F0A23B"></circle><circle cx="548.98" cy="117.45" r="2.6" fill="#F0A23B"></circle><circle cx="558.29" cy="167.38" r="2.6" fill="#F0A23B"></circle><circle cx="567.59" cy="165.8" r="2.6" fill="#F0A23B"></circle><circle cx="576.89" cy="168.5" r="2.6" fill="#F0A23B"></circle><circle cx="586.19" cy="163.02" r="2.6" fill="#F0A23B"></circle><circle cx="595.49" cy="166.8" r="2.6" fill="#F0A23B"></circle><circle cx="604.79" cy="162.64" r="2.6" fill="#F0A23B"></circle><circle cx="614.1" cy="97.89" r="2.6" fill="#F0A23B"></circle><circle cx="623.4" cy="165.31" r="2.6" fill="#F0A23B"></circle><circle cx="632.7" cy="162.3" r="2.6" fill="#F0A23B"></circle><circle cx="642" cy="162.65" r="2.6" fill="#F0A23B"></circle><line x1="656" y1="27" x2="672" y2="27" stroke="#6366F1" stroke-width="3" stroke-linecap="round"></line><text x="678" y="30" font-size="11" font-weight="400" text-anchor="start" fill="#e6edf3">deepseek</text><line x1="656" y1="47" x2="672" y2="47" stroke="#A371F7" stroke-width="3" stroke-linecap="round"></line><text x="678" y="50" font-size="11" font-weight="400" text-anchor="start" fill="#e6edf3">llama</text><line x1="656" y1="67" x2="672" y2="67" stroke="#F0A23B" stroke-width="3" stroke-linecap="round"></line><text x="678" y="70" font-size="11" font-weight="400" text-anchor="start" fill="#e6edf3">mistral</text></svg>
