<svg xmlns="http://www.w3.org/2000/svg" viewBox="0 0 600 300" width="600" height="300" role="img" aria-label="Cost per test by provider over runs ($)"><text x="300.0" y="24" text-anchor="middle" font-family="system-ui, -apple-system, sans-serif" font-size="14" font-weight="600" fill="#333">Cost per test by provider over runs ($)</text><line x1="60" y1="240.0" x2="480" y2="240.0" stroke="#eee" stroke-width="1"/><text x="54" y="244.0" text-anchor="end" font-family="system-ui, -apple-system, sans-serif" font-size="9" fill="#999">0.007197</text><line x1="60" y1="140.0" x2="480" y2="140.0" stroke="#eee" stroke-width="1"/><text x="54" y="144.0" text-anchor="end" font-family="system-ui, -apple-system, sans-serif" font-size="9" fill="#999">0.08167</text><line x1="60" y1="40.0" x2="480" y2="40.0" stroke="#eee" stroke-width="1"/><text x="54" y="44.0" text-anchor="end" font-family="system-ui, -apple-system, sans-serif" font-size="9" fill="#999">0.1561</text><polyline fill="none" stroke="#4CAF50" stroke-width="2" points="60.0,141.8 71.7,142.3 83.3,106.4 95.0,144.1 106.7,138.9 118.3,140.8 130.0,140.9 141.7,137.9 153.3,140.5 165.0,140.1 176.7,80.0 188.3,136.1 200.0,140.2 211.7,140.5 223.3,135.0 235.0,93.8 246.7,133.9 258.3,140.6 270.0,113.7 281.7,136.4 293.3,134.8 305.0,140.9 316.7,121.5 328.3,138.0 340.0,40.0 351.7,126.7 363.3,138.5 375.0,109.3 386.7,137.0 398.3,84.7 410.0,137.6 421.7,142.0 433.3,140.5 445.0,140.6 456.7,121.7 468.3,140.3 480.0,137.1"/><circle cx="60.0" cy="141.8" r="3" fill="#4CAF50"/><circle cx="71.7" cy="142.3" r="3" fill="#4CAF50"/><circle cx="83.3" cy="106.4" r="3" fill="#4CAF50"/><circle cx="95.0" cy="144.1" r="3" fill="#4CAF50"/><circle cx="106.7" cy="138.9" r="3" fill="#4CAF50"/><circle cx="118.3" cy="140.8" r="3" fill="#4CAF50"/><circle cx="130.0" cy="140.9" r="3" fill="#4CAF50"/><circle cx="141.7" cy="137.9" r="3" fill="#4CAF50"/><circle cx="153.3" cy="140.5" r="3" fill="#4CAF50"/><circle cx="165.0" cy="140.1" r="3" fill="#4CAF50"/><circle cx="176.7" cy="80.0" r="3" fill="#4CAF50"/><circle cx="188.3" cy="136.1" r="3" fill="#4CAF50"/><circle cx="200.0" cy="140.2" r="3" fill="#4CAF50"/><circle cx="211.7" cy="140.5" r="3" fill="#4CAF50"/><circle cx="223.3" cy="135.0" r="3" fill="#4CAF50"/><circle cx="235.0" cy="93.8" r="3" fill="#4CAF50"/><circle cx="246.7" cy="133.9" r="3" fill="#4CAF50"/><circle cx="258.3" cy="140.6" r="3" fill="#4CAF50"/><circle cx="270.0" cy="113.7" r="3" fill="#4CAF50"/><circle cx="281.7" cy="136.4" r="3" fill="#4CAF50"/><circle cx="293.3" cy="134.8" r="3" fill="#4CAF50"/><circle cx="305.0" cy="140.9" r="3" fill="#4CAF50"/><circle cx="316.7" cy="121.5" r="3" fill="#4CAF50"/><circle cx="328.3" cy="138.0" r="3" fill="#4CAF50"/><circle cx="340.0" cy="40.0" r="3" fill="#4CAF50"/><circle cx="351.7" cy="126.7" r="3" fill="#4CAF50"/><circle cx="363.3" cy="138.5" r="3" fill="#4CAF50"/><circle cx="375.0" cy="109.3" r="3" fill="#4CAF50"/><circle cx="386.7" cy="137.0" r="3" fill="#4CAF50"/><circle cx="398.3" cy="84.7" r="3" fill="#4CAF50"/><circle cx="410.0" cy="137.6" r="3" fill="#4CAF50"/><circle cx="421.7" cy="142.0" r="3" fill="#4CAF50"/><circle cx="433.3" cy="140.5" r="3" fill="#4CAF50"/><circle cx="445.0" cy="140.6" r="3" fill="#4CAF50"/><circle cx="456.7" cy="121.7" r="3" fill="#4CAF50"/><circle cx="468.3" cy="140.3" r="3" fill="#4CAF50"/><circle cx="480.0" cy="137.1" r="3" fill="#4CAF50"/><rect x="490" y="44" width="10" height="10" fill="#4CAF50"/><text x="504" y="53" font-family="system-ui, -apple-system, sans-serif" font-size="10" fill="#333">openai</text><polyline fill="none" stroke="#2196F3" stroke-width="2" points="60.0,143.4 71.7,149.4 83.3,143.1 95.0,145.8 106.7,151.8 118.3,139.6 130.0,145.6 141.7,141.5 153.3,141.5 165.0,140.7 176.7,142.6 188.3,153.3 200.0,152.2 211.7,146.8 223.3,141.9 235.0,142.2 246.7,116.6 258.3,142.0 270.0,114.7 281.7,122.7 293.3,135.5 305.0,130.6 316.7,145.2 328.3,124.2 340.0,141.8 351.7,137.0 363.3,134.1 375.0,136.4"/><circle cx="60.0" cy="143.4" r="3" fill="#2196F3"/><circle cx="71.7" cy="149.4" r="3" fill="#2196F3"/><circle cx="83.3" cy="143.1" r="3" fill="#2196F3"/><circle cx="95.0" cy="145.8" r="3" fill="#2196F3"/><circle cx="106.7" cy="151.8" r="3" fill="#2196F3"/><circle cx="118.3" cy="139.6" r="3" fill="#2196F3"/><circle cx="130.0" cy="145.6" r="3" fill="#2196F3"/><circle cx="141.7" cy="141.5" r="3" fill="#2196F3"/><circle cx="153.3" cy="141.5" r="3" fill="#2196F3"/><circle cx="165.0" cy="140.7" r="3" fill="#2196F3"/><circle cx="176.7" cy="142.6" r="3" fill="#2196F3"/><circle cx="188.3" cy="153.3" r="3" fill="#2196F3"/><circle cx="200.0" cy="152.2" r="3" fill="#2196F3"/><circle cx="211.7" cy="146.8" r="3" fill="#2196F3"/><circle cx="223.3" cy="141.9" r="3" fill="#2196F3"/><circle cx="235.0" cy="142.2" r="3" fill="#2196F3"/><circle cx="246.7" cy="116.6" r="3" fill="#2196F3"/><circle cx="258.3" cy="142.0" r="3" fill="#2196F3"/><circle cx="270.0" cy="114.7" r="3" fill="#2196F3"/><circle cx="281.7" cy="122.7" r="3" fill="#2196F3"/><circle cx="293.3" cy="135.5" r="3" fill="#2196F3"/><circle cx="305.0" cy="130.6" r="3" fill="#2196F3"/><circle cx="316.7" cy="145.2" r="3" fill="#2196F3"/><circle cx="328.3" cy="124.2" r="3" fill="#2196F3"/><circle cx="340.0" cy="141.8" r="3" fill="#2196F3"/><circle cx="351.7" cy="137.0" r="3" fill="#2196F3"/><circle cx="363.3" cy="134.1" r="3" fill="#2196F3"/><circle cx="375.0" cy="136.4" r="3" fill="#2196F3"/><rect x="490" y="62" width="10" height="10" fill="#2196F3"/><text x="504" y="71" font-family="system-ui, -apple-system, sans-serif" font-size="10" fill="#333">gemini</text><polyline fill="none" stroke="#FF9800" stroke-width="2" points="60.0,102.1 71.7,121.1 83.3,125.3 95.0,97.5 106.7,120.5 118.3,80.6 130.0,115.2 141.7,101.9 153.3,109.2 165.0,118.7 176.7,125.8 188.3,114.2 200.0,107.2 211.7,139.1 223.3,123.1 235.0,120.9 246.7,110.3 270.0,112.2 281.7,124.4 293.3,98.5 305.0,127.8 316.7,122.4 328.3,111.2 340.0,121.0 351.7,123.4 363.3,129.2 375.0,122.2 386.7,135.4 398.3,124.0 410.0,123.6 421.7,132.5 433.3,126.8 445.0,118.3 456.7,122.8 468.3,122.9 480.0,119.2"/><circle cx="60.0" cy="102.1" r="3" fill="#FF9800"/><circle cx="71.7" cy="121.1" r="3" fill="#FF9800"/><circle cx="83.3" cy="125.3" r="3" fill="#FF9800"/><circle cx="95.0" cy="97.5" r="3" fill="#FF9800"/><circle cx="106.7" cy="120.5" r="3" fill="#FF9800"/><circle cx="118.3" cy="80.6" r="3" fill="#FF9800"/><circle cx="130.0" cy="115.2" r="3" fill="#FF9800"/><circle cx="141.7" cy="101.9" r="3" fill="#FF9800"/><circle cx="153.3" cy="109.2" r="3" fill="#FF9800"/><circle cx="165.0" cy="118.7" r="3" fill="#FF9800"/><circle cx="176.7" cy="125.8" r="3" fill="#FF9800"/><circle cx="188.3" cy="114.2" r="3" fill="#FF9800"/><circle cx="200.0" cy="107.2" r="3" fill="#FF9800"/><circle cx="211.7" cy="139.1" r="3" fill="#FF9800"/><circle cx="223.3" cy="123.1" r="3" fill="#FF9800"/><circle cx="235.0" cy="120.9" r="3" fill="#FF9800"/><circle cx="246.7" cy="110.3" r="3" fill="#FF9800"/><circle cx="270.0" cy="112.2" r="3" fill="#FF9800"/><circle cx="281.7" cy="124.4" r="3" fill="#FF9800"/><circle cx="293.3" cy="98.5" r="3" fill="#FF9800"/><circle cx="305.0" cy="127.8" r="3" fill="#FF9800"/><circle cx="316.7" cy="122.4" r="3" fill="#FF9800"/><circle cx="328.3" cy="111.2" r="3" fill="#FF9800"/><circle cx="340.0" cy="121.0" r="3" fill="#FF9800"/><circle cx="351.7" cy="123.4" r="3" fill="#FF9800"/><circle cx="363.3" cy="129.2" r="3" fill="#FF9800"/><circle cx="375.0" cy="122.2" r="3" fill="#FF9800"/><circle cx="386.7" cy="135.4" r="3" fill="#FF9800"/><circle cx="398.3" cy="124.0" r="3" fill="#FF9800"/><circle cx="410.0" cy="123.6" r="3" fill="#FF9800"/><circle cx="421.7" cy="132.5" r="3" fill="#FF9800"/><circle cx="433.3" cy="126.8" r="3" fill="#FF9800"/><circle cx="445.0" cy="118.3" r="3" fill="#FF9800"/><circle cx="456.7" cy="122.8" r="3" fill="#FF9800"/><circle cx="468.3" cy="122.9" r="3" fill="#FF9800"/><circle cx="480.0" cy="119.2" r="3" fill="#FF9800"/><rect x="490" y="80" width="10" height="10" fill="#FF9800"/><text x="504" y="89" font-family="system-ui, -apple-system, sans-serif" font-size="10" fill="#333">anthropic</text><polyline fill="none" stroke="#E91E63" stroke-width="2" points="60.0,142.3 71.7,134.2 83.3,75.2 95.0,148.6 106.7,144.6 118.3,147.1 130.0,137.4 141.7,137.1 153.3,134.0 165.0,140.2 176.7,134.0 188.3,134.7 200.0,136.5 211.7,142.6 223.3,129.8 235.0,141.3 246.7,135.9 258.3,139.7 270.0,149.9 281.7,142.4 293.3,146.8 305.0,143.9 316.7,94.4 328.3,144.4 340.0,146.1 351.7,143.5 363.3,145.1 375.0,121.8 386.7,142.9 398.3,128.9 410.0,144.8 421.7,121.9 433.3,146.0 445.0,145.2 456.7,62.1 468.3,79.1 480.0,144.2"/><circle cx="60.0" cy="142.3" r="3" fill="#E91E63"/><circle cx="71.7" cy="134.2" r="3" fill="#E91E63"/><circle cx="83.3" cy="75.2" r="3" fill="#E91E63"/><circle cx="95.0" cy="148.6" r="3" fill="#E91E63"/><circle cx="106.7" cy="144.6" r="3" fill="#E91E63"/><circle cx="118.3" cy="147.1" r="3" fill="#E91E63"/><circle cx="130.0" cy="137.4" r="3" fill="#E91E63"/><circle cx="141.7" cy="137.1" r="3" fill="#E91E63"/><circle cx="153.3" cy="134.0" r="3" fill="#E91E63"/><circle cx="165.0" cy="140.2" r="3" fill="#E91E63"/><circle cx="176.7" cy="134.0" r="3" fill="#E91E63"/><circle cx="188.3" cy="134.7" r="3" fill="#E91E63"/><circle cx="200.0" cy="136.5" r="3" fill="#E91E63"/><circle cx="211.7" cy="142.6" r="3" fill="#E91E63"/><circle cx="223.3" cy="129.8" r="3" fill="#E91E63"/><circle cx="235.0" cy="141.3" r="3" fill="#E91E63"/><circle cx="246.7" cy="135.9" r="3" fill="#E91E63"/><circle cx="258.3" cy="139.7" r="3" fill="#E91E63"/><circle cx="270.0" cy="149.9" r="3" fill="#E91E63"/><circle cx="281.7" cy="142.4" r="3" fill="#E91E63"/><circle cx="293.3" cy="146.8" r="3" fill="#E91E63"/><circle cx="305.0" cy="143.9" r="3" fill="#E91E63"/><circle cx="316.7" cy="94.4" r="3" fill="#E91E63"/><circle cx="328.3" cy="144.4" r="3" fill="#E91E63"/><circle cx="340.0" cy="146.1" r="3" fill="#E91E63"/><circle cx="351.7" cy="143.5" r="3" fill="#E91E63"/><circle cx="363.3" cy="145.1" r="3" fill="#E91E63"/><circle cx="375.0" cy="121.8" r="3" fill="#E91E63"/><circle cx="386.7" cy="142.9" r="3" fill="#E91E63"/><circle cx="398.3" cy="128.9" r="3" fill="#E91E63"/><circle cx="410.0" cy="144.8" r="3" fill="#E91E63"/><circle cx="421.7" cy="121.9" r="3" fill="#E91E63"/><circle cx="433.3" cy="146.0" r="3" fill="#E91E63"/><circle cx="445.0" cy="145.2" r="3" fill="#E91E63"/><circle cx="456.7" cy="62.1" r="3" fill="#E91E63"/><circle cx="468.3" cy="79.1" r="3" fill="#E91E63"/><circle cx="480.0" cy="144.2" r="3" fill="#E91E63"/><rect x="490" y="98" width="10" height="10" fill="#E91E63"/><text x="504" y="107" font-family="system-ui, -apple-system, sans-serif" font-size="10" fill="#333">mistral</text><polyline fill="none" stroke="#9C27B0" stroke-width="2" points="60.0,190.1 71.7,198.8 83.3,201.7 95.0,188.0 106.7,194.2 118.3,202.7 130.0,198.8 141.7,193.1 153.3,195.8 165.0,201.2 176.7,195.7 188.3,193.6 200.0,197.3 211.7,183.3 223.3,198.4 235.0,193.5 246.7,200.8 258.3,201.2 270.0,184.1 281.7,194.7 293.3,171.9 305.0,200.2 316.7,202.6 328.3,192.6 340.0,190.9 351.7,193.9 363.3,195.4 375.0,193.3 386.7,200.6 398.3,196.9 410.0,193.7 421.7,198.9 433.3,202.5 445.0,184.0 456.7,198.5 468.3,200.0"/><circle cx="60.0" cy="190.1" r="3" fill="#9C27B0"/><circle cx="71.7" cy="198.8" r="3" fill="#9C27B0"/><circle cx="83.3" cy="201.7" r="3" fill="#9C27B0"/><circle cx="95.0" cy="188.0" r="3" fill="#9C27B0"/><circle cx="106.7" cy="194.2" r="3" fill="#9C27B0"/><circle cx="118.3" cy="202.7" r="3" fill="#9C27B0"/><circle cx="130.0" cy="198.8" r="3" fill="#9C27B0"/><circle cx="141.7" cy="193.1" r="3" fill="#9C27B0"/><circle cx="153.3" cy="195.8" r="3" fill="#9C27B0"/><circle cx="165.0" cy="201.2" r="3" fill="#9C27B0"/><circle cx="176.7" cy="195.7" r="3" fill="#9C27B0"/><circle cx="188.3" cy="193.6" r="3" fill="#9C27B0"/><circle cx="200.0" cy="197.3" r="3" fill="#9C27B0"/><circle cx="211.7" cy="183.3" r="3" fill="#9C27B0"/><circle cx="223.3" cy="198.4" r="3" fill="#9C27B0"/><circle cx="235.0" cy="193.5" r="3" fill="#9C27B0"/><circle cx="246.7" cy="200.8" r="3" fill="#9C27B0"/><circle cx="258.3" cy="201.2" r="3" fill="#9C27B0"/><circle cx="270.0" cy="184.1" r="3" fill="#9C27B0"/><circle cx="281.7" cy="194.7" r="3" fill="#9C27B0"/><circle cx="293.3" cy="171.9" r="3" fill="#9C27B0"/><circle cx="305.0" cy="200.2" r="3" fill="#9C27B0"/><circle cx="316.7" cy="202.6" r="3" fill="#9C27B0"/><circle cx="328.3" cy="192.6" r="3" fill="#9C27B0"/><circle cx="340.0" cy="190.9" r="3" fill="#9C27B0"/><circle cx="351.7" cy="193.9" r="3" fill="#9C27B0"/><circle cx="363.3" cy="195.4" r="3" fill="#9C27B0"/><circle cx="375.0" cy="193.3" r="3" fill="#9C27B0"/><circle cx="386.7" cy="200.6" r="3" fill="#9C27B0"/><circle cx="398.3" cy="196.9" r="3" fill="#9C27B0"/><circle cx="410.0" cy="193.7" r="3" fill="#9C27B0"/><circle cx="421.7" cy="198.9" r="3" fill="#9C27B0"/><circle cx="433.3" cy="202.5" r="3" fill="#9C27B0"/><circle cx="445.0" cy="184.0" r="3" fill="#9C27B0"/><circle cx="456.7" cy="198.5" r="3" fill="#9C27B0"/><circle cx="468.3" cy="200.0" r="3" fill="#9C27B0"/><rect x="490" y="116" width="10" height="10" fill="#9C27B0"/><text x="504" y="125" font-family="system-ui, -apple-system, sans-serif" font-size="10" fill="#333">llama</text><polyline fill="none" stroke="#00BCD4" stroke-width="2" points="153.3,239.2 165.0,239.3 176.7,239.8 188.3,238.8 200.0,239.0 211.7,234.2 223.3,240.0 235.0,237.9 246.7,237.9 258.3,237.6 270.0,238.9 281.7,237.9 293.3,235.2 305.0,238.1 316.7,235.5 328.3,240.0 340.0,238.2 351.7,235.2 363.3,232.9 375.0,238.2 386.7,237.3 398.3,239.5 410.0,236.5 421.7,233.9 433.3,238.7 445.0,237.8 456.7,238.5 468.3,237.5"/><circle cx="153.3" cy="239.2" r="3" fill="#00BCD4"/><circle cx="165.0" cy="239.3" r="3" fill="#00BCD4"/><circle cx="176.7" cy="239.8" r="3" fill="#00BCD4"/><circle cx="188.3" cy="238.8" r="3" fill="#00BCD4"/><circle cx="200.0" cy="239.0" r="3" fill="#00BCD4"/><circle cx="211.7" cy="234.2" r="3" fill="#00BCD4"/><circle cx="223.3" cy="240.0" r="3" fill="#00BCD4"/><circle cx="235.0" cy="237.9" r="3" fill="#00BCD4"/><circle cx="246.7" cy="237.9" r="3" fill="#00BCD4"/><circle cx="258.3" cy="237.6" r="3" fill="#00BCD4"/><circle cx="270.0" cy="238.9" r="3" fill="#00BCD4"/><circle cx="281.7" cy="237.9" r="3" fill="#00BCD4"/><circle cx="293.3" cy="235.2" r="3" fill="#00BCD4"/><circle cx="305.0" cy="238.1" r="3" fill="#00BCD4"/><circle cx="316.7" cy="235.5" r="3" fill="#00BCD4"/><circle cx="328.3" cy="240.0" r="3" fill="#00BCD4"/><circle cx="340.0" cy="238.2" r="3" fill="#00BCD4"/><circle cx="351.7" cy="235.2" r="3" fill="#00BCD4"/><circle cx="363.3" cy="232.9" r="3" fill="#00BCD4"/><circle cx="375.0" cy="238.2" r="3" fill="#00BCD4"/><circle cx="386.7" cy="237.3" r="3" fill="#00BCD4"/><circle cx="398.3" cy="239.5" r="3" fill="#00BCD4"/><circle cx="410.0" cy="236.5" r="3" fill="#00BCD4"/><circle cx="421.7" cy="233.9" r="3" fill="#00BCD4"/><circle cx="433.3" cy="238.7" r="3" fill="#00BCD4"/><circle cx="445.0" cy="237.8" r="3" fill="#00BCD4"/><circle cx="456.7" cy="238.5" r="3" fill="#00BCD4"/><circle cx="468.3" cy="237.5" r="3" fill="#00BCD4"/><rect x="490" y="134" width="10" height="10" fill="#00BCD4"/><text x="504" y="143" font-family="system-ui, -apple-system, sans-serif" font-size="10" fill="#333">deepseek</text><text x="60.0" y="256.0" text-anchor="middle" font-family="system-ui, -apple-system, sans-serif" font-size="9" fill="#666">71825113</text><text x="95.0" y="256.0" text-anchor="middle" font-family="system-ui, -apple-system, sans-serif" font-size="9" fill="#666">97386462</text><text x="130.0" y="256.0" text-anchor="middle" font-family="system-ui, -apple-system, sans-serif" font-size="9" fill="#666">31919473</text><text x="165.0" y="256.0" text-anchor="middle" font-family="system-ui, -apple-system, sans-serif" font-size="9" fill="#666">51938981</text><text x="200.0" y="256.0" text-anchor="middle" font-family="system-ui, -apple-system, sans-serif" font-size="9" fill="#666">73723278</text><text x="235.0" y="256.0" text-anchor="middle" font-family="system-ui, -apple-system, sans-serif" font-size="9" fill="#666">75757458</text><text x="270.0" y="256.0" text-anchor="middle" font-family="system-ui, -apple-system, sans-serif" font-size="9" fill="#666">39719442</text><text x="305.0" y="256.0" text-anchor="middle" font-family="system-ui, -apple-system, sans-serif" font-size="9" fill="#666">04094958</text><text x="340.0" y="256.0" text-anchor="middle" font-family="system-ui, -apple-system, sans-serif" font-size="9" fill="#666">34092480</text><text x="375.0" y="256.0" text-anchor="middle" font-family="system-ui, -apple-system, sans-serif" font-size="9" fill="#666">68748512</text><text x="410.0" y="256.0" text-anchor="middle" font-family="system-ui, -apple-system, sans-serif" font-size="9" fill="#666">00682223</text><text x="445.0" y="256.0" text-anchor="middle" font-family="system-ui, -apple-system, sans-serif" font-size="9" fill="#666">62366017</text><text x="480.0" y="256.0" text-anchor="middle" font-family="system-ui, -apple-system, sans-serif" font-size="9" fill="#666">77201419</text></svg>
