<svg xmlns="http://www.w3.org/2000/svg" viewBox="0 0 600 300" width="600" height="300" role="img" aria-label="Cost per test by provider over runs ($)"><text x="300.0" y="24" text-anchor="middle" font-family="system-ui, -apple-system, sans-serif" font-size="14" font-weight="600" fill="#333">Cost per test by provider over runs ($)</text><line x1="60" y1="240.0" x2="480" y2="240.0" stroke="#eee" stroke-width="1"/><text x="54" y="244.0" text-anchor="end" font-family="system-ui, -apple-system, sans-serif" font-size="9" fill="#999">0.007197</text><line x1="60" y1="140.0" x2="480" y2="140.0" stroke="#eee" stroke-width="1"/><text x="54" y="144.0" text-anchor="end" font-family="system-ui, -apple-system, sans-serif" font-size="9" fill="#999">0.08167</text><line x1="60" y1="40.0" x2="480" y2="40.0" stroke="#eee" stroke-width="1"/><text x="54" y="44.0" text-anchor="end" font-family="system-ui, -apple-system, sans-serif" font-size="9" fill="#999">0.1561</text><polyline fill="none" stroke="#4CAF50" stroke-width="2" points="60.0,141.8 73.1,142.3 86.2,106.4 99.4,144.1 112.5,138.9 125.6,140.8 138.8,140.9 151.9,137.9 165.0,140.5 178.1,140.1 191.2,80.0 204.4,136.1 217.5,140.2 230.6,140.5 243.8,135.0 256.9,93.8 270.0,133.9 283.1,140.6 296.2,113.7 309.4,136.4 322.5,134.8 335.6,140.9 348.8,121.5 361.9,138.0 375.0,40.0 388.1,126.7 401.2,138.5 414.4,109.3 427.5,137.0 440.6,84.7 453.8,137.6 466.9,142.0 480.0,140.5"/><circle cx="60.0" cy="141.8" r="3" fill="#4CAF50"/><circle cx="73.1" cy="142.3" r="3" fill="#4CAF50"/><circle cx="86.2" cy="106.4" r="3" fill="#4CAF50"/><circle cx="99.4" cy="144.1" r="3" fill="#4CAF50"/><circle cx="112.5" cy="138.9" r="3" fill="#4CAF50"/><circle cx="125.6" cy="140.8" r="3" fill="#4CAF50"/><circle cx="138.8" cy="140.9" r="3" fill="#4CAF50"/><circle cx="151.9" cy="137.9" r="3" fill="#4CAF50"/><circle cx="165.0" cy="140.5" r="3" fill="#4CAF50"/><circle cx="178.1" cy="140.1" r="3" fill="#4CAF50"/><circle cx="191.2" cy="80.0" r="3" fill="#4CAF50"/><circle cx="204.4" cy="136.1" r="3" fill="#4CAF50"/><circle cx="217.5" cy="140.2" r="3" fill="#4CAF50"/><circle cx="230.6" cy="140.5" r="3" fill="#4CAF50"/><circle cx="243.8" cy="135.0" r="3" fill="#4CAF50"/><circle cx="256.9" cy="93.8" r="3" fill="#4CAF50"/><circle cx="270.0" cy="133.9" r="3" fill="#4CAF50"/><circle cx="283.1" cy="140.6" r="3" fill="#4CAF50"/><circle cx="296.2" cy="113.7" r="3" fill="#4CAF50"/><circle cx="309.4" cy="136.4" r="3" fill="#4CAF50"/><circle cx="322.5" cy="134.8" r="3" fill="#4CAF50"/><circle cx="335.6" cy="140.9" r="3" fill="#4CAF50"/><circle cx="348.8" cy="121.5" r="3" fill="#4CAF50"/><circle cx="361.9" cy="138.0" r="3" fill="#4CAF50"/><circle cx="375.0" cy="40.0" r="3" fill="#4CAF50"/><circle cx="388.1" cy="126.7" r="3" fill="#4CAF50"/><circle cx="401.2" cy="138.5" r="3" fill="#4CAF50"/><circle cx="414.4" cy="109.3" r="3" fill="#4CAF50"/><circle cx="427.5" cy="137.0" r="3" fill="#4CAF50"/><circle cx="440.6" cy="84.7" r="3" fill="#4CAF50"/><circle cx="453.8" cy="137.6" r="3" fill="#4CAF50"/><circle cx="466.9" cy="142.0" r="3" fill="#4CAF50"/><circle cx="480.0" cy="140.5" r="3" fill="#4CAF50"/><rect x="490" y="44" width="10" height="10" fill="#4CAF50"/><text x="504" y="53" font-family="system-ui, -apple-system, sans-serif" font-size="10" fill="#333">openai</text><polyline fill="none" stroke="#2196F3" stroke-width="2" points="60.0,143.4 73.1,149.4 86.2,143.1 99.4,145.8 112.5,151.8 125.6,139.6 138.8,145.6 151.9,141.5 165.0,141.5 178.1,140.7 191.2,142.6 204.4,153.3 217.5,152.2 230.6,146.8 243.8,141.9 256.9,142.2 270.0,116.6 283.1,142.0 296.2,114.7 309.4,122.7 322.5,135.5 335.6,130.6 348.8,145.2 361.9,124.2 375.0,141.8 388.1,137.0 401.2,134.1 414.4,136.4"/><circle cx="60.0" cy="143.4" r="3" fill="#2196F3"/><circle cx="73.1" cy="149.4" r="3" fill="#2196F3"/><circle cx="86.2" cy="143.1" r="3" fill="#2196F3"/><circle cx="99.4" cy="145.8" r="3" fill="#2196F3"/><circle cx="112.5" cy="151.8" r="3" fill="#2196F3"/><circle cx="125.6" cy="139.6" r="3" fill="#2196F3"/><circle cx="138.8" cy="145.6" r="3" fill="#2196F3"/><circle cx="151.9" cy="141.5" r="3" fill="#2196F3"/><circle cx="165.0" cy="141.5" r="3" fill="#2196F3"/><circle cx="178.1" cy="140.7" r="3" fill="#2196F3"/><circle cx="191.2" cy="142.6" r="3" fill="#2196F3"/><circle cx="204.4" cy="153.3" r="3" fill="#2196F3"/><circle cx="217.5" cy="152.2" r="3" fill="#2196F3"/><circle cx="230.6" cy="146.8" r="3" fill="#2196F3"/><circle cx="243.8" cy="141.9" r="3" fill="#2196F3"/><circle cx="256.9" cy="142.2" r="3" fill="#2196F3"/><circle cx="270.0" cy="116.6" r="3" fill="#2196F3"/><circle cx="283.1" cy="142.0" r="3" fill="#2196F3"/><circle cx="296.2" cy="114.7" r="3" fill="#2196F3"/><circle cx="309.4" cy="122.7" r="3" fill="#2196F3"/><circle cx="322.5" cy="135.5" r="3" fill="#2196F3"/><circle cx="335.6" cy="130.6" r="3" fill="#2196F3"/><circle cx="348.8" cy="145.2" r="3" fill="#2196F3"/><circle cx="361.9" cy="124.2" r="3" fill="#2196F3"/><circle cx="375.0" cy="141.8" r="3" fill="#2196F3"/><circle cx="388.1" cy="137.0" r="3" fill="#2196F3"/><circle cx="401.2" cy="134.1" r="3" fill="#2196F3"/><circle cx="414.4" cy="136.4" r="3" fill="#2196F3"/><rect x="490" y="62" width="10" height="10" fill="#2196F3"/><text x="504" y="71" font-family="system-ui, -apple-system, sans-serif" font-size="10" fill="#333">gemini</text><polyline fill="none" stroke="#FF9800" stroke-width="2" points="60.0,102.1 73.1,121.1 86.2,125.3 99.4,97.5 112.5,120.5 125.6,80.6 138.8,115.2 151.9,101.9 165.0,109.2 178.1,118.7 191.2,125.8 204.4,114.2 217.5,107.2 230.6,139.1 243.8,123.1 256.9,120.9 270.0,110.3 296.2,112.2 309.4,124.4 322.5,98.5 335.6,127.8 348.8,122.4 361.9,111.2 375.0,121.0 388.1,123.4 401.2,129.2 414.4,122.2 427.5,135.4 440.6,124.0 453.8,123.6 466.9,132.5 480.0,126.8"/><circle cx="60.0" cy="102.1" r="3" fill="#FF9800"/><circle cx="73.1" cy="121.1" r="3" fill="#FF9800"/><circle cx="86.2" cy="125.3" r="3" fill="#FF9800"/><circle cx="99.4" cy="97.5" r="3" fill="#FF9800"/><circle cx="112.5" cy="120.5" r="3" fill="#FF9800"/><circle cx="125.6" cy="80.6" r="3" fill="#FF9800"/><circle cx="138.8" cy="115.2" r="3" fill="#FF9800"/><circle cx="151.9" cy="101.9" r="3" fill="#FF9800"/><circle cx="165.0" cy="109.2" r="3" fill="#FF9800"/><circle cx="178.1" cy="118.7" r="3" fill="#FF9800"/><circle cx="191.2" cy="125.8" r="3" fill="#FF9800"/><circle cx="204.4" cy="114.2" r="3" fill="#FF9800"/><circle cx="217.5" cy="107.2" r="3" fill="#FF9800"/><circle cx="230.6" cy="139.1" r="3" fill="#FF9800"/><circle cx="243.8" cy="123.1" r="3" fill="#FF9800"/><circle cx="256.9" cy="120.9" r="3" fill="#FF9800"/><circle cx="270.0" cy="110.3" r="3" fill="#FF9800"/><circle cx="296.2" cy="112.2" r="3" fill="#FF9800"/><circle cx="309.4" cy="124.4" r="3" fill="#FF9800"/><circle cx="322.5" cy="98.5" r="3" fill="#FF9800"/><circle cx="335.6" cy="127.8" r="3" fill="#FF9800"/><circle cx="348.8" cy="122.4" r="3" fill="#FF9800"/><circle cx="361.9" cy="111.2" r="3" fill="#FF9800"/><circle cx="375.0" cy="121.0" r="3" fill="#FF9800"/><circle cx="388.1" cy="123.4" r="3" fill="#FF9800"/><circle cx="401.2" cy="129.2" r="3" fill="#FF9800"/><circle cx="414.4" cy="122.2" r="3" fill="#FF9800"/><circle cx="427.5" cy="135.4" r="3" fill="#FF9800"/><circle cx="440.6" cy="124.0" r="3" fill="#FF9800"/><circle cx="453.8" cy="123.6" r="3" fill="#FF9800"/><circle cx="466.9" cy="132.5" r="3" fill="#FF9800"/><circle cx="480.0" cy="126.8" r="3" fill="#FF9800"/><rect x="490" y="80" width="10" height="10" fill="#FF9800"/><text x="504" y="89" font-family="system-ui, -apple-system, sans-serif" font-size="10" fill="#333">anthropic</text><polyline fill="none" stroke="#E91E63" stroke-width="2" points="60.0,142.3 73.1,134.2 86.2,75.2 99.4,148.6 112.5,144.6 125.6,147.1 138.8,137.4 151.9,137.1 165.0,134.0 178.1,140.2 191.2,134.0 204.4,134.7 217.5,136.5 230.6,142.6 243.8,129.8 256.9,141.3 270.0,135.9 283.1,139.7 296.2,149.9 309.4,142.4 322.5,146.8 335.6,143.9 348.8,94.4 361.9,144.4 375.0,146.1 388.1,143.5 401.2,145.1 414.4,121.8 427.5,142.9 440.6,128.9 453.8,144.8 466.9,121.9 480.0,146.0"/><circle cx="60.0" cy="142.3" r="3" fill="#E91E63"/><circle cx="73.1" cy="134.2" r="3" fill="#E91E63"/><circle cx="86.2" cy="75.2" r="3" fill="#E91E63"/><circle cx="99.4" cy="148.6" r="3" fill="#E91E63"/><circle cx="112.5" cy="144.6" r="3" fill="#E91E63"/><circle cx="125.6" cy="147.1" r="3" fill="#E91E63"/><circle cx="138.8" cy="137.4" r="3" fill="#E91E63"/><circle cx="151.9" cy="137.1" r="3" fill="#E91E63"/><circle cx="165.0" cy="134.0" r="3" fill="#E91E63"/><circle cx="178.1" cy="140.2" r="3" fill="#E91E63"/><circle cx="191.2" cy="134.0" r="3" fill="#E91E63"/><circle cx="204.4" cy="134.7" r="3" fill="#E91E63"/><circle cx="217.5" cy="136.5" r="3" fill="#E91E63"/><circle cx="230.6" cy="142.6" r="3" fill="#E91E63"/><circle cx="243.8" cy="129.8" r="3" fill="#E91E63"/><circle cx="256.9" cy="141.3" r="3" fill="#E91E63"/><circle cx="270.0" cy="135.9" r="3" fill="#E91E63"/><circle cx="283.1" cy="139.7" r="3" fill="#E91E63"/><circle cx="296.2" cy="149.9" r="3" fill="#E91E63"/><circle cx="309.4" cy="142.4" r="3" fill="#E91E63"/><circle cx="322.5" cy="146.8" r="3" fill="#E91E63"/><circle cx="335.6" cy="143.9" r="3" fill="#E91E63"/><circle cx="348.8" cy="94.4" r="3" fill="#E91E63"/><circle cx="361.9" cy="144.4" r="3" fill="#E91E63"/><circle cx="375.0" cy="146.1" r="3" fill="#E91E63"/><circle cx="388.1" cy="143.5" r="3" fill="#E91E63"/><circle cx="401.2" cy="145.1" r="3" fill="#E91E63"/><circle cx="414.4" cy="121.8" r="3" fill="#E91E63"/><circle cx="427.5" cy="142.9" r="3" fill="#E91E63"/><circle cx="440.6" cy="128.9" r="3" fill="#E91E63"/><circle cx="453.8" cy="144.8" r="3" fill="#E91E63"/><circle cx="466.9" cy="121.9" r="3" fill="#E91E63"/><circle cx="480.0" cy="146.0" r="3" fill="#E91E63"/><rect x="490" y="98" width="10" height="10" fill="#E91E63"/><text x="504" y="107" font-family="system-ui, -apple-system, sans-serif" font-size="10" fill="#333">mistral</text><polyline fill="none" stroke="#9C27B0" stroke-width="2" points="60.0,190.1 73.1,198.8 86.2,201.7 99.4,188.0 112.5,194.2 125.6,202.7 138.8,198.8 151.9,193.1 165.0,195.8 178.1,201.2 191.2,195.7 204.4,193.6 217.5,197.3 230.6,183.3 243.8,198.4 256.9,193.5 270.0,200.8 283.1,201.2 296.2,184.1 309.4,194.7 322.5,171.9 335.6,200.2 348.8,202.6 361.9,192.6 375.0,190.9 388.1,193.9 401.2,195.4 414.4,193.3 427.5,200.6 440.6,196.9 453.8,193.7 466.9,198.9 480.0,202.5"/><circle cx="60.0" cy="190.1" r="3" fill="#9C27B0"/><circle cx="73.1" cy="198.8" r="3" fill="#9C27B0"/><circle cx="86.2" cy="201.7" r="3" fill="#9C27B0"/><circle cx="99.4" cy="188.0" r="3" fill="#9C27B0"/><circle cx="112.5" cy="194.2" r="3" fill="#9C27B0"/><circle cx="125.6" cy="202.7" r="3" fill="#9C27B0"/><circle cx="138.8" cy="198.8" r="3" fill="#9C27B0"/><circle cx="151.9" cy="193.1" r="3" fill="#9C27B0"/><circle cx="165.0" cy="195.8" r="3" fill="#9C27B0"/><circle cx="178.1" cy="201.2" r="3" fill="#9C27B0"/><circle cx="191.2" cy="195.7" r="3" fill="#9C27B0"/><circle cx="204.4" cy="193.6" r="3" fill="#9C27B0"/><circle cx="217.5" cy="197.3" r="3" fill="#9C27B0"/><circle cx="230.6" cy="183.3" r="3" fill="#9C27B0"/><circle cx="243.8" cy="198.4" r="3" fill="#9C27B0"/><circle cx="256.9" cy="193.5" r="3" fill="#9C27B0"/><circle cx="270.0" cy="200.8" r="3" fill="#9C27B0"/><circle cx="283.1" cy="201.2" r="3" fill="#9C27B0"/><circle cx="296.2" cy="184.1" r="3" fill="#9C27B0"/><circle cx="309.4" cy="194.7" r="3" fill="#9C27B0"/><circle cx="322.5" cy="171.9" r="3" fill="#9C27B0"/><circle cx="335.6" cy="200.2" r="3" fill="#9C27B0"/><circle cx="348.8" cy="202.6" r="3" fill="#9C27B0"/><circle cx="361.9" cy="192.6" r="3" fill="#9C27B0"/><circle cx="375.0" cy="190.9" r="3" fill="#9C27B0"/><circle cx="388.1" cy="193.9" r="3" fill="#9C27B0"/><circle cx="401.2" cy="195.4" r="3" fill="#9C27B0"/><circle cx="414.4" cy="193.3" r="3" fill="#9C27B0"/><circle cx="427.5" cy="200.6" r="3" fill="#9C27B0"/><circle cx="440.6" cy="196.9" r="3" fill="#9C27B0"/><circle cx="453.8" cy="193.7" r="3" fill="#9C27B0"/><circle cx="466.9" cy="198.9" r="3" fill="#9C27B0"/><circle cx="480.0" cy="202.5" r="3" fill="#9C27B0"/><rect x="490" y="116" width="10" height="10" fill="#9C27B0"/><text x="504" y="125" font-family="system-ui, -apple-system, sans-serif" font-size="10" fill="#333">llama</text><polyline fill="none" stroke="#00BCD4" stroke-width="2" points="165.0,239.2 178.1,239.3 191.2,239.8 204.4,238.8 217.5,239.0 230.6,234.2 243.8,240.0 256.9,237.9 270.0,237.9 283.1,237.6 296.2,238.9 309.4,237.9 322.5,235.2 335.6,238.1 348.8,235.5 361.9,240.0 375.0,238.2 388.1,235.2 401.2,232.9 414.4,238.2 427.5,237.3 440.6,239.5 453.8,236.5 466.9,233.9 480.0,238.7"/><circle cx="165.0" cy="239.2" r="3" fill="#00BCD4"/><circle cx="178.1" cy="239.3" r="3" fill="#00BCD4"/><circle cx="191.2" cy="239.8" r="3" fill="#00BCD4"/><circle cx="204.4" cy="238.8" r="3" fill="#00BCD4"/><circle cx="217.5" cy="239.0" r="3" fill="#00BCD4"/><circle cx="230.6" cy="234.2" r="3" fill="#00BCD4"/><circle cx="243.8" cy="240.0" r="3" fill="#00BCD4"/><circle cx="256.9" cy="237.9" r="3" fill="#00BCD4"/><circle cx="270.0" cy="237.9" r="3" fill="#00BCD4"/><circle cx="283.1" cy="237.6" r="3" fill="#00BCD4"/><circle cx="296.2" cy="238.9" r="3" fill="#00BCD4"/><circle cx="309.4" cy="237.9" r="3" fill="#00BCD4"/><circle cx="322.5" cy="235.2" r="3" fill="#00BCD4"/><circle cx="335.6" cy="238.1" r="3" fill="#00BCD4"/><circle cx="348.8" cy="235.5" r="3" fill="#00BCD4"/><circle cx="361.9" cy="240.0" r="3" fill="#00BCD4"/><circle cx="375.0" cy="238.2" r="3" fill="#00BCD4"/><circle cx="388.1" cy="235.2" r="3" fill="#00BCD4"/><circle cx="401.2" cy="232.9" r="3" fill="#00BCD4"/><circle cx="414.4" cy="238.2" r="3" fill="#00BCD4"/><circle cx="427.5" cy="237.3" r="3" fill="#00BCD4"/><circle cx="440.6" cy="239.5" r="3" fill="#00BCD4"/><circle cx="453.8" cy="236.5" r="3" fill="#00BCD4"/><circle cx="466.9" cy="233.9" r="3" fill="#00BCD4"/><circle cx="480.0" cy="238.7" r="3" fill="#00BCD4"/><rect x="490" y="134" width="10" height="10" fill="#00BCD4"/><text x="504" y="143" font-family="system-ui, -apple-system, sans-serif" font-size="10" fill="#333">deepseek</text><text x="60.0" y="256.0" text-anchor="middle" font-family="system-ui, -apple-system, sans-serif" font-size="9" fill="#666">71825113</text><text x="99.4" y="256.0" text-anchor="middle" font-family="system-ui, -apple-system, sans-serif" font-size="9" fill="#666">97386462</text><text x="138.8" y="256.0" text-anchor="middle" font-family="system-ui, -apple-system, sans-serif" font-size="9" fill="#666">31919473</text><text x="178.1" y="256.0" text-anchor="middle" font-family="system-ui, -apple-system, sans-serif" font-size="9" fill="#666">51938981</text><text x="217.5" y="256.0" text-anchor="middle" font-family="system-ui, -apple-system, sans-serif" font-size="9" fill="#666">73723278</text><text x="256.9" y="256.0" text-anchor="middle" font-family="system-ui, -apple-system, sans-serif" font-size="9" fill="#666">75757458</text><text x="296.2" y="256.0" text-anchor="middle" font-family="system-ui, -apple-system, sans-serif" font-size="9" fill="#666">39719442</text><text x="335.6" y="256.0" text-anchor="middle" font-family="system-ui, -apple-system, sans-serif" font-size="9" fill="#666">04094958</text><text x="375.0" y="256.0" text-anchor="middle" font-family="system-ui, -apple-system, sans-serif" font-size="9" fill="#666">34092480</text><text x="414.4" y="256.0" text-anchor="middle" font-family="system-ui, -apple-system, sans-serif" font-size="9" fill="#666">68748512</text><text x="453.8" y="256.0" text-anchor="middle" font-family="system-ui, -apple-system, sans-serif" font-size="9" fill="#666">00682223</text></svg>
