<svg xmlns="http://www.w3.org/2000/svg" viewBox="0 0 760 348" width="760" height="348" role="img" aria-label="Cost per test by provider over runs — openai highest, deepseek lowest" font-family="-apple-system,BlinkMacSystemFont,'Segoe UI',system-ui,sans-serif"><line x1="56" y1="306" x2="642" y2="306" stroke="#30363d" stroke-width="1"></line><text x="46" y="310" font-size="9.5" font-weight="400" text-anchor="end" fill="#8b949e" font-family="ui-monospace,SFMono-Regular,Menlo,monospace">$0.000</text><line x1="56" y1="235" x2="642" y2="235" stroke="#30363d" stroke-width="1"></line><text x="46" y="239" font-size="9.5" font-weight="400" text-anchor="end" fill="#8b949e" font-family="ui-monospace,SFMono-Regular,Menlo,monospace">$0.044</text><line x1="56" y1="164" x2="642" y2="164" stroke="#30363d" stroke-width="1"></line><text x="46" y="168" font-size="9.5" font-weight="400" text-anchor="end" fill="#8b949e" font-family="ui-monospace,SFMono-Regular,Menlo,monospace">$0.087</text><line x1="56" y1="93" x2="642" y2="93" stroke="#30363d" stroke-width="1"></line><text x="46" y="97" font-size="9.5" font-weight="400" text-anchor="end" fill="#8b949e" font-family="ui-monospace,SFMono-Regular,Menlo,monospace">$0.131</text><line x1="56" y1="22" x2="642" y2="22" stroke="#30363d" stroke-width="1"></line><text x="46" y="26" font-size="9.5" font-weight="400" text-anchor="end" fill="#8b949e" font-family="ui-monospace,SFMono-Regular,Menlo,monospace">$0.175</text><text x="56" y="324" font-size="9.5" font-weight="400" text-anchor="middle" fill="#8b949e" font-family="ui-monospace,SFMono-Regular,Menlo,monospace">06/06</text><text x="111.28" y="324" font-size="9.5" font-weight="400" text-anchor="middle" fill="#8b949e" font-family="ui-monospace,SFMono-Regular,Menlo,monospace">06/07</text><text x="166.57" y="324" font-size="9.5" font-weight="400" text-anchor="middle" fill="#8b949e" font-family="ui-monospace,SFMono-Regular,Menlo,monospace">06/08</text><text x="221.85" y="324" font-size="9.5" font-weight="400" text-anchor="middle" fill="#8b949e" font-family="ui-monospace,SFMono-Regular,Menlo,monospace">06/09</text><text x="277.13" y="324" font-size="9.5" font-weight="400" text-anchor="middle" fill="#8b949e" font-family="ui-monospace,SFMono-Regular,Menlo,monospace">06/09</text><text x="332.42" y="324" font-size="9.5" font-weight="400" text-anchor="middle" fill="#8b949e" font-family="ui-monospace,SFMono-Regular,Menlo,monospace">06/12</text><text x="387.7" y="324" font-size="9.5" font-weight="400" text-anchor="middle" fill="#8b949e" font-family="ui-monospace,SFMono-Regular,Menlo,monospace">06/14</text><text x="442.98" y="324" font-size="9.5" font-weight="400" text-anchor="middle" fill="#8b949e" font-family="ui-monospace,SFMono-Regular,Menlo,monospace">06/15</text><text x="498.26" y="324" font-size="9.5" font-weight="400" text-anchor="middle" fill="#8b949e" font-family="ui-monospace,SFMono-Regular,Menlo,monospace">06/16</text><text x="553.55" y="324" font-size="9.5" font-weight="400" text-anchor="middle" fill="#8b949e" font-family="ui-monospace,SFMono-Regular,Menlo,monospace">06/17</text><text x="608.83" y="324" font-size="9.5" font-weight="400" text-anchor="middle" fill="#8b949e" font-family="ui-monospace,SFMono-Regular,Menlo,monospace">06/18</text><text x="642" y="324" font-size="9.5" font-weight="400" text-anchor="middle" fill="#8b949e" font-family="ui-monospace,SFMono-Regular,Menlo,monospace">06/19</text><polyline fill="none" stroke="#6366F1" stroke-width="2.4" stroke-linejoin="round" stroke-linecap="round" points="144.45,293.36 155.51,293.43 166.57,294.1 177.62,292.89 188.68,293.14 199.74,287.31 210.79,294.31 221.85,291.77 232.91,291.82 243.96,291.36 255.02,293.02 266.08,291.8 277.13,288.55 288.19,292.06 299.25,288.85 310.3,294.29 321.36,292.11 332.42,288.48 343.47,285.75 354.53,292.13 365.58,291.04 376.64,293.66 387.7,290.08 398.75,286.94 409.81,292.77 420.87,291.68 431.92,292.47 442.98,291.27 465.09,290.7 476.15,292.91 487.21,293.34 498.26,290.78 509.32,290.99 520.38,291.6 531.43,292.29 542.49,292.81 553.55,293.37 575.66,293.66 586.72,293.82 597.77,292.24 608.83,291.11 619.89,291.02 630.94,284.88 642,291.48"></polyline><circle cx="144.45" cy="293.36" r="2.6" fill="#6366F1"></circle><circle cx="155.51" cy="293.43" r="2.6" fill="#6366F1"></circle><circle cx="166.57" cy="294.1" r="2.6" fill="#6366F1"></circle><circle cx="177.62" cy="292.89" r="2.6" fill="#6366F1"></circle><circle cx="188.68" cy="293.14" r="2.6" fill="#6366F1"></circle><circle cx="199.74" cy="287.31" r="2.6" fill="#6366F1"></circle><circle cx="210.79" cy="294.31" r="2.6" fill="#6366F1"></circle><circle cx="221.85" cy="291.77" r="2.6" fill="#6366F1"></circle><circle cx="232.91" cy="291.82" r="2.6" fill="#6366F1"></circle><circle cx="243.96" cy="291.36" r="2.6" fill="#6366F1"></circle><circle cx="255.02" cy="293.02" r="2.6" fill="#6366F1"></circle><circle cx="266.08" cy="291.8" r="2.6" fill="#6366F1"></circle><circle cx="277.13" cy="288.55" r="2.6" fill="#6366F1"></circle><circle cx="288.19" cy="292.06" r="2.6" fill="#6366F1"></circle><circle cx="299.25" cy="288.85" r="2.6" fill="#6366F1"></circle><circle cx="310.3" cy="294.29" r="2.6" fill="#6366F1"></circle><circle cx="321.36" cy="292.11" r="2.6" fill="#6366F1"></circle><circle cx="332.42" cy="288.48" r="2.6" fill="#6366F1"></circle><circle cx="343.47" cy="285.75" r="2.6" fill="#6366F1"></circle><circle cx="354.53" cy="292.13" r="2.6" fill="#6366F1"></circle><circle cx="365.58" cy="291.04" r="2.6" fill="#6366F1"></circle><circle cx="376.64" cy="293.66" r="2.6" fill="#6366F1"></circle><circle cx="387.7" cy="290.08" r="2.6" fill="#6366F1"></circle><circle cx="398.75" cy="286.94" r="2.6" fill="#6366F1"></circle><circle cx="409.81" cy="292.77" r="2.6" fill="#6366F1"></circle><circle cx="420.87" cy="291.68" r="2.6" fill="#6366F1"></circle><circle cx="431.92" cy="292.47" r="2.6" fill="#6366F1"></circle><circle cx="442.98" cy="291.27" r="2.6" fill="#6366F1"></circle><circle cx="465.09" cy="290.7" r="2.6" fill="#6366F1"></circle><circle cx="476.15" cy="292.91" r="2.6" fill="#6366F1"></circle><circle cx="487.21" cy="293.34" r="2.6" fill="#6366F1"></circle><circle cx="498.26" cy="290.78" r="2.6" fill="#6366F1"></circle><circle cx="509.32" cy="290.99" r="2.6" fill="#6366F1"></circle><circle cx="520.38" cy="291.6" r="2.6" fill="#6366F1"></circle><circle cx="531.43" cy="292.29" r="2.6" fill="#6366F1"></circle><circle cx="542.49" cy="292.81" r="2.6" fill="#6366F1"></circle><circle cx="553.55" cy="293.37" r="2.6" fill="#6366F1"></circle><circle cx="575.66" cy="293.66" r="2.6" fill="#6366F1"></circle><circle cx="586.72" cy="293.82" r="2.6" fill="#6366F1"></circle><circle cx="597.77" cy="292.24" r="2.6" fill="#6366F1"></circle><circle cx="608.83" cy="291.11" r="2.6" fill="#6366F1"></circle><circle cx="619.89" cy="291.02" r="2.6" fill="#6366F1"></circle><circle cx="630.94" cy="284.88" r="2.6" fill="#6366F1"></circle><circle cx="642" cy="291.48" r="2.6" fill="#6366F1"></circle><polyline fill="none" stroke="#A371F7" stroke-width="2.4" stroke-linejoin="round" stroke-linecap="round" points="56,234.02 67.06,244.52 78.11,248 89.17,231.43 100.23,238.89 111.28,249.23 122.34,244.46 133.4,237.54 144.45,240.86 155.51,247.44 166.57,240.79 177.62,238.23 188.68,242.67 199.74,225.79 210.79,243.99 221.85,238.04 232.91,246.87 243.96,247.42 255.02,226.74 266.08,239.47 277.13,211.96 288.19,246.23 299.25,249.04 310.3,237.01 321.36,234.98 332.42,238.5 343.47,240.35 354.53,237.84 365.58,246.71 376.64,242.24 387.7,238.34 398.75,244.61 409.81,248.91 420.87,226.53 431.92,244.07 442.98,245.89 465.09,225.3 476.15,246.26 487.21,237.6 509.32,238.19 520.38,247.14 531.43,247.58 542.49,243.98 553.55,241.42 564.6,243.75 575.66,244.26 586.72,242.78 597.77,233.78 608.83,238.08 619.89,239.3 630.94,245.03 642,240.96"></polyline><circle cx="56" cy="234.02" r="2.6" fill="#A371F7"></circle><circle cx="67.06" cy="244.52" r="2.6" fill="#A371F7"></circle><circle cx="78.11" cy="248" r="2.6" fill="#A371F7"></circle><circle cx="89.17" cy="231.43" r="2.6" fill="#A371F7"></circle><circle cx="100.23" cy="238.89" r="2.6" fill="#A371F7"></circle><circle cx="111.28" cy="249.23" r="2.6" fill="#A371F7"></circle><circle cx="122.34" cy="244.46" r="2.6" fill="#A371F7"></circle><circle cx="133.4" cy="237.54" r="2.6" fill="#A371F7"></circle><circle cx="144.45" cy="240.86" r="2.6" fill="#A371F7"></circle><circle cx="155.51" cy="247.44" r="2.6" fill="#A371F7"></circle><circle cx="166.57" cy="240.79" r="2.6" fill="#A371F7"></circle><circle cx="177.62" cy="238.23" r="2.6" fill="#A371F7"></circle><circle cx="188.68" cy="242.67" r="2.6" fill="#A371F7"></circle><circle cx="199.74" cy="225.79" r="2.6" fill="#A371F7"></circle><circle cx="210.79" cy="243.99" r="2.6" fill="#A371F7"></circle><circle cx="221.85" cy="238.04" r="2.6" fill="#A371F7"></circle><circle cx="232.91" cy="246.87" r="2.6" fill="#A371F7"></circle><circle cx="243.96" cy="247.42" r="2.6" fill="#A371F7"></circle><circle cx="255.02" cy="226.74" r="2.6" fill="#A371F7"></circle><circle cx="266.08" cy="239.47" r="2.6" fill="#A371F7"></circle><circle cx="277.13" cy="211.96" r="2.6" fill="#A371F7"></circle><circle cx="288.19" cy="246.23" r="2.6" fill="#A371F7"></circle><circle cx="299.25" cy="249.04" r="2.6" fill="#A371F7"></circle><circle cx="310.3" cy="237.01" r="2.6" fill="#A371F7"></circle><circle cx="321.36" cy="234.98" r="2.6" fill="#A371F7"></circle><circle cx="332.42" cy="238.5" r="2.6" fill="#A371F7"></circle><circle cx="343.47" cy="240.35" r="2.6" fill="#A371F7"></circle><circle cx="354.53" cy="237.84" r="2.6" fill="#A371F7"></circle><circle cx="365.58" cy="246.71" r="2.6" fill="#A371F7"></circle><circle cx="376.64" cy="242.24" r="2.6" fill="#A371F7"></circle><circle cx="387.7" cy="238.34" r="2.6" fill="#A371F7"></circle><circle cx="398.75" cy="244.61" r="2.6" fill="#A371F7"></circle><circle cx="409.81" cy="248.91" r="2.6" fill="#A371F7"></circle><circle cx="420.87" cy="226.53" r="2.6" fill="#A371F7"></circle><circle cx="431.92" cy="244.07" r="2.6" fill="#A371F7"></circle><circle cx="442.98" cy="245.89" r="2.6" fill="#A371F7"></circle><circle cx="465.09" cy="225.3" r="2.6" fill="#A371F7"></circle><circle cx="476.15" cy="246.26" r="2.6" fill="#A371F7"></circle><circle cx="487.21" cy="237.6" r="2.6" fill="#A371F7"></circle><circle cx="509.32" cy="238.19" r="2.6" fill="#A371F7"></circle><circle cx="520.38" cy="247.14" r="2.6" fill="#A371F7"></circle><circle cx="531.43" cy="247.58" r="2.6" fill="#A371F7"></circle><circle cx="542.49" cy="243.98" r="2.6" fill="#A371F7"></circle><circle cx="553.55" cy="241.42" r="2.6" fill="#A371F7"></circle><circle cx="564.6" cy="243.75" r="2.6" fill="#A371F7"></circle><circle cx="575.66" cy="244.26" r="2.6" fill="#A371F7"></circle><circle cx="586.72" cy="242.78" r="2.6" fill="#A371F7"></circle><circle cx="597.77" cy="233.78" r="2.6" fill="#A371F7"></circle><circle cx="608.83" cy="238.08" r="2.6" fill="#A371F7"></circle><circle cx="619.89" cy="239.3" r="2.6" fill="#A371F7"></circle><circle cx="630.94" cy="245.03" r="2.6" fill="#A371F7"></circle><circle cx="642" cy="240.96" r="2.6" fill="#A371F7"></circle><polyline fill="none" stroke="#F0A23B" stroke-width="2.4" stroke-linejoin="round" stroke-linecap="round" points="56,176.15 67.06,166.37 78.11,95.06 89.17,183.78 100.23,178.88 111.28,182.02 122.34,170.24 133.4,169.9 144.45,166.14 155.51,173.66 166.57,166.11 177.62,167.02 188.68,169.09 199.74,176.53 210.79,161.02 221.85,174.97 232.91,168.38 243.96,173 255.02,185.38 266.08,176.24 277.13,181.63 288.19,178.09 299.25,118.27 310.3,178.67 321.36,180.72 332.42,177.62 343.47,179.5 354.53,151.31 365.58,176.94 376.64,159.91 387.7,179.22 398.75,151.49 409.81,180.65 420.87,179.71 431.92,79.16 442.98,99.74 454.04,178.4 465.09,180.3 476.15,180.24 487.21,176.88 498.26,178.65 509.32,183.45 520.38,182.56 531.43,133.59 542.49,178.99 553.55,179.14 564.6,119.51 575.66,175.85 586.72,154.88 597.77,181.28 608.83,178.3 619.89,178.34 630.94,151.77 642,137.32"></polyline><circle cx="56" cy="176.15" r="2.6" fill="#F0A23B"></circle><circle cx="67.06" cy="166.37" r="2.6" fill="#F0A23B"></circle><circle cx="78.11" cy="95.06" r="2.6" fill="#F0A23B"></circle><circle cx="89.17" cy="183.78" r="2.6" fill="#F0A23B"></circle><circle cx="100.23" cy="178.88" r="2.6" fill="#F0A23B"></circle><circle cx="111.28" cy="182.02" r="2.6" fill="#F0A23B"></circle><circle cx="122.34" cy="170.24" r="2.6" fill="#F0A23B"></circle><circle cx="133.4" cy="169.9" r="2.6" fill="#F0A23B"></circle><circle cx="144.45" cy="166.14" r="2.6" fill="#F0A23B"></circle><circle cx="155.51" cy="173.66" r="2.6" fill="#F0A23B"></circle><circle cx="166.57" cy="166.11" r="2.6" fill="#F0A23B"></circle><circle cx="177.62" cy="167.02" r="2.6" fill="#F0A23B"></circle><circle cx="188.68" cy="169.09" r="2.6" fill="#F0A23B"></circle><circle cx="199.74" cy="176.53" r="2.6" fill="#F0A23B"></circle><circle cx="210.79" cy="161.02" r="2.6" fill="#F0A23B"></circle><circle cx="221.85" cy="174.97" r="2.6" fill="#F0A23B"></circle><circle cx="232.91" cy="168.38" r="2.6" fill="#F0A23B"></circle><circle cx="243.96" cy="173" r="2.6" fill="#F0A23B"></circle><circle cx="255.02" cy="185.38" r="2.6" fill="#F0A23B"></circle><circle cx="266.08" cy="176.24" r="2.6" fill="#F0A23B"></circle><circle cx="277.13" cy="181.63" r="2.6" fill="#F0A23B"></circle><circle cx="288.19" cy="178.09" r="2.6" fill="#F0A23B"></circle><circle cx="299.25" cy="118.27" r="2.6" fill="#F0A23B"></circle><circle cx="310.3" cy="178.67" r="2.6" fill="#F0A23B"></circle><circle cx="321.36" cy="180.72" r="2.6" fill="#F0A23B"></circle><circle cx="332.42" cy="177.62" r="2.6" fill="#F0A23B"></circle><circle cx="343.47" cy="179.5" r="2.6" fill="#F0A23B"></circle><circle cx="354.53" cy="151.31" r="2.6" fill="#F0A23B"></circle><circle cx="365.58" cy="176.94" r="2.6" fill="#F0A23B"></circle><circle cx="376.64" cy="159.91" r="2.6" fill="#F0A23B"></circle><circle cx="387.7" cy="179.22" r="2.6" fill="#F0A23B"></circle><circle cx="398.75" cy="151.49" r="2.6" fill="#F0A23B"></circle><circle cx="409.81" cy="180.65" r="2.6" fill="#F0A23B"></circle><circle cx="420.87" cy="179.71" r="2.6" fill="#F0A23B"></circle><circle cx="431.92" cy="79.16" r="2.6" fill="#F0A23B"></circle><circle cx="442.98" cy="99.74" r="2.6" fill="#F0A23B"></circle><circle cx="454.04" cy="178.4" r="2.6" fill="#F0A23B"></circle><circle cx="465.09" cy="180.3" r="2.6" fill="#F0A23B"></circle><circle cx="476.15" cy="180.24" r="2.6" fill="#F0A23B"></circle><circle cx="487.21" cy="176.88" r="2.6" fill="#F0A23B"></circle><circle cx="498.26" cy="178.65" r="2.6" fill="#F0A23B"></circle><circle cx="509.32" cy="183.45" r="2.6" fill="#F0A23B"></circle><circle cx="520.38" cy="182.56" r="2.6" fill="#F0A23B"></circle><circle cx="531.43" cy="133.59" r="2.6" fill="#F0A23B"></circle><circle cx="542.49" cy="178.99" r="2.6" fill="#F0A23B"></circle><circle cx="553.55" cy="179.14" r="2.6" fill="#F0A23B"></circle><circle cx="564.6" cy="119.51" r="2.6" fill="#F0A23B"></circle><circle cx="575.66" cy="175.85" r="2.6" fill="#F0A23B"></circle><circle cx="586.72" cy="154.88" r="2.6" fill="#F0A23B"></circle><circle cx="597.77" cy="181.28" r="2.6" fill="#F0A23B"></circle><circle cx="608.83" cy="178.3" r="2.6" fill="#F0A23B"></circle><circle cx="619.89" cy="178.34" r="2.6" fill="#F0A23B"></circle><circle cx="630.94" cy="151.77" r="2.6" fill="#F0A23B"></circle><circle cx="642" cy="137.32" r="2.6" fill="#F0A23B"></circle><polyline fill="none" stroke="#1F9CF0" stroke-width="2.4" stroke-linejoin="round" stroke-linecap="round" points="56,175.5 67.06,176.2 78.11,132.71 89.17,178.27 100.23,172 111.28,174.38 122.34,174.4 133.4,170.88 144.45,173.93 155.51,173.54 166.57,100.75 177.62,168.69 188.68,173.59 199.74,174.01 210.79,167.31 221.85,117.5 232.91,166.02 243.96,174.07 255.02,141.6 266.08,169.05 277.13,167.14 288.19,174.48 299.25,150.94 310.3,171.01 321.36,52.43 332.42,157.26 343.47,171.51 354.53,136.29 365.58,169.79 376.64,106.45 387.7,170.47 398.75,175.76 409.81,174.01 420.87,174.06 431.92,151.2 442.98,173.78 454.04,169.88 465.09,177.61 476.15,137.18 487.21,114.15 498.26,168.74 509.32,168.47 520.38,130.46 531.43,174.44 542.49,175.01 553.55,171.26 564.6,176.81 575.66,171.37 586.72,161.31 597.77,135.44 608.83,169.24 619.89,176.14 630.94,170.75 642,171.27"></polyline><circle cx="56" cy="175.5" r="2.6" fill="#1F9CF0"></circle><circle cx="67.06" cy="176.2" r="2.6" fill="#1F9CF0"></circle><circle cx="78.11" cy="132.71" r="2.6" fill="#1F9CF0"></circle><circle cx="89.17" cy="178.27" r="2.6" fill="#1F9CF0"></circle><circle cx="100.23" cy="172" r="2.6" fill="#1F9CF0"></circle><circle cx="111.28" cy="174.38" r="2.6" fill="#1F9CF0"></circle><circle cx="122.34" cy="174.4" r="2.6" fill="#1F9CF0"></circle><circle cx="133.4" cy="170.88" r="2.6" fill="#1F9CF0"></circle><circle cx="144.45" cy="173.93" r="2.6" fill="#1F9CF0"></circle><circle cx="155.51" cy="173.54" r="2.6" fill="#1F9CF0"></circle><circle cx="166.57" cy="100.75" r="2.6" fill="#1F9CF0"></circle><circle cx="177.62" cy="168.69" r="2.6" fill="#1F9CF0"></circle><circle cx="188.68" cy="173.59" r="2.6" fill="#1F9CF0"></circle><circle cx="199.74" cy="174.01" r="2.6" fill="#1F9CF0"></circle><circle cx="210.79" cy="167.31" r="2.6" fill="#1F9CF0"></circle><circle cx="221.85" cy="117.5" r="2.6" fill="#1F9CF0"></circle><circle cx="232.91" cy="166.02" r="2.6" fill="#1F9CF0"></circle><circle cx="243.96" cy="174.07" r="2.6" fill="#1F9CF0"></circle><circle cx="255.02" cy="141.6" r="2.6" fill="#1F9CF0"></circle><circle cx="266.08" cy="169.05" r="2.6" fill="#1F9CF0"></circle><circle cx="277.13" cy="167.14" r="2.6" fill="#1F9CF0"></circle><circle cx="288.19" cy="174.48" r="2.6" fill="#1F9CF0"></circle><circle cx="299.25" cy="150.94" r="2.6" fill="#1F9CF0"></circle><circle cx="310.3" cy="171.01" r="2.6" fill="#1F9CF0"></circle><circle cx="321.36" cy="52.43" r="2.6" fill="#1F9CF0"></circle><circle cx="332.42" cy="157.26" r="2.6" fill="#1F9CF0"></circle><circle cx="343.47" cy="171.51" r="2.6" fill="#1F9CF0"></circle><circle cx="354.53" cy="136.29" r="2.6" fill="#1F9CF0"></circle><circle cx="365.58" cy="169.79" r="2.6" fill="#1F9CF0"></circle><circle cx="376.64" cy="106.45" r="2.6" fill="#1F9CF0"></circle><circle cx="387.7" cy="170.47" r="2.6" fill="#1F9CF0"></circle><circle cx="398.75" cy="175.76" r="2.6" fill="#1F9CF0"></circle><circle cx="409.81" cy="174.01" r="2.6" fill="#1F9CF0"></circle><circle cx="420.87" cy="174.06" r="2.6" fill="#1F9CF0"></circle><circle cx="431.92" cy="151.2" r="2.6" fill="#1F9CF0"></circle><circle cx="442.98" cy="173.78" r="2.6" fill="#1F9CF0"></circle><circle cx="454.04" cy="169.88" r="2.6" fill="#1F9CF0"></circle><circle cx="465.09" cy="177.61" r="2.6" fill="#1F9CF0"></circle><circle cx="476.15" cy="137.18" r="2.6" fill="#1F9CF0"></circle><circle cx="487.21" cy="114.15" r="2.6" fill="#1F9CF0"></circle><circle cx="498.26" cy="168.74" r="2.6" fill="#1F9CF0"></circle><circle cx="509.32" cy="168.47" r="2.6" fill="#1F9CF0"></circle><circle cx="520.38" cy="130.46" r="2.6" fill="#1F9CF0"></circle><circle cx="531.43" cy="174.44" r="2.6" fill="#1F9CF0"></circle><circle cx="542.49" cy="175.01" r="2.6" fill="#1F9CF0"></circle><circle cx="553.55" cy="171.26" r="2.6" fill="#1F9CF0"></circle><circle cx="564.6" cy="176.81" r="2.6" fill="#1F9CF0"></circle><circle cx="575.66" cy="171.37" r="2.6" fill="#1F9CF0"></circle><circle cx="586.72" cy="161.31" r="2.6" fill="#1F9CF0"></circle><circle cx="597.77" cy="135.44" r="2.6" fill="#1F9CF0"></circle><circle cx="608.83" cy="169.24" r="2.6" fill="#1F9CF0"></circle><circle cx="619.89" cy="176.14" r="2.6" fill="#1F9CF0"></circle><circle cx="630.94" cy="170.75" r="2.6" fill="#1F9CF0"></circle><circle cx="642" cy="171.27" r="2.6" fill="#1F9CF0"></circle><line x1="656" y1="27" x2="672" y2="27" stroke="#6366F1" stroke-width="3" stroke-linecap="round"></line><text x="678" y="30" font-size="11" font-weight="400" text-anchor="start" fill="#e6edf3">deepseek</text><line x1="656" y1="47" x2="672" y2="47" stroke="#A371F7" stroke-width="3" stroke-linecap="round"></line><text x="678" y="50" font-size="11" font-weight="400" text-anchor="start" fill="#e6edf3">llama</text><line x1="656" y1="67" x2="672" y2="67" stroke="#F0A23B" stroke-width="3" stroke-linecap="round"></line><text x="678" y="70" font-size="11" font-weight="400" text-anchor="start" fill="#e6edf3">mistral</text><line x1="656" y1="87" x2="672" y2="87" stroke="#1F9CF0" stroke-width="3" stroke-linecap="round"></line><text x="678" y="90" font-size="11" font-weight="400" text-anchor="start" fill="#e6edf3">openai</text></svg>
