<svg xmlns="http://www.w3.org/2000/svg" viewBox="0 0 760 348" width="760" height="348" role="img" aria-label="Cost per test by provider over runs — mistral highest, deepseek lowest" font-family="-apple-system,BlinkMacSystemFont,'Segoe UI',system-ui,sans-serif"><line x1="56" y1="306" x2="642" y2="306" stroke="#30363d" stroke-width="1"></line><text x="46" y="310" font-size="9.5" font-weight="400" text-anchor="end" fill="#8b949e" font-family="ui-monospace,SFMono-Regular,Menlo,monospace">$0.000</text><line x1="56" y1="235" x2="642" y2="235" stroke="#30363d" stroke-width="1"></line><text x="46" y="239" font-size="9.5" font-weight="400" text-anchor="end" fill="#8b949e" font-family="ui-monospace,SFMono-Regular,Menlo,monospace">$0.039</text><line x1="56" y1="164" x2="642" y2="164" stroke="#30363d" stroke-width="1"></line><text x="46" y="168" font-size="9.5" font-weight="400" text-anchor="end" fill="#8b949e" font-family="ui-monospace,SFMono-Regular,Menlo,monospace">$0.079</text><line x1="56" y1="93" x2="642" y2="93" stroke="#30363d" stroke-width="1"></line><text x="46" y="97" font-size="9.5" font-weight="400" text-anchor="end" fill="#8b949e" font-family="ui-monospace,SFMono-Regular,Menlo,monospace">$0.118</text><line x1="56" y1="22" x2="642" y2="22" stroke="#30363d" stroke-width="1"></line><text x="46" y="26" font-size="9.5" font-weight="400" text-anchor="end" fill="#8b949e" font-family="ui-monospace,SFMono-Regular,Menlo,monospace">$0.158</text><text x="56" y="324" font-size="9.5" font-weight="400" text-anchor="middle" fill="#8b949e" font-family="ui-monospace,SFMono-Regular,Menlo,monospace">06/06</text><text x="111.15" y="324" font-size="9.5" font-weight="400" text-anchor="middle" fill="#8b949e" font-family="ui-monospace,SFMono-Regular,Menlo,monospace">06/08</text><text x="166.31" y="324" font-size="9.5" font-weight="400" text-anchor="middle" fill="#8b949e" font-family="ui-monospace,SFMono-Regular,Menlo,monospace">06/09</text><text x="221.46" y="324" font-size="9.5" font-weight="400" text-anchor="middle" fill="#8b949e" font-family="ui-monospace,SFMono-Regular,Menlo,monospace">06/12</text><text x="276.61" y="324" font-size="9.5" font-weight="400" text-anchor="middle" fill="#8b949e" font-family="ui-monospace,SFMono-Regular,Menlo,monospace">06/14</text><text x="331.76" y="324" font-size="9.5" font-weight="400" text-anchor="middle" fill="#8b949e" font-family="ui-monospace,SFMono-Regular,Menlo,monospace">06/16</text><text x="386.92" y="324" font-size="9.5" font-weight="400" text-anchor="middle" fill="#8b949e" font-family="ui-monospace,SFMono-Regular,Menlo,monospace">06/17</text><text x="442.07" y="324" font-size="9.5" font-weight="400" text-anchor="middle" fill="#8b949e" font-family="ui-monospace,SFMono-Regular,Menlo,monospace">06/20</text><text x="497.22" y="324" font-size="9.5" font-weight="400" text-anchor="middle" fill="#8b949e" font-family="ui-monospace,SFMono-Regular,Menlo,monospace">06/22</text><text x="552.38" y="324" font-size="9.5" font-weight="400" text-anchor="middle" fill="#8b949e" font-family="ui-monospace,SFMono-Regular,Menlo,monospace">06/24</text><text x="607.53" y="324" font-size="9.5" font-weight="400" text-anchor="middle" fill="#8b949e" font-family="ui-monospace,SFMono-Regular,Menlo,monospace">06/25</text><text x="642" y="324" font-size="9.5" font-weight="400" text-anchor="middle" fill="#8b949e" font-family="ui-monospace,SFMono-Regular,Menlo,monospace">06/26</text><polyline fill="none" stroke="#6366F1" stroke-width="2.4" stroke-linejoin="round" stroke-linecap="round" points="111.15,291.99 118.05,292.07 124.94,292.82 131.84,291.48 138.73,291.75 145.62,285.29 152.52,293.05 159.41,290.23 166.31,290.29 173.2,289.78 180.09,291.61 186.99,290.27 193.88,286.66 200.78,290.55 207.67,286.99 214.56,293.02 221.46,290.61 228.35,286.59 235.25,283.56 242.14,290.63 249.04,289.42 255.93,292.33 262.82,288.36 269.72,284.88 276.61,291.34 283.51,290.13 290.4,291.01 297.29,289.68 311.08,289.04 317.98,291.5 324.87,291.97 331.76,289.14 338.66,289.37 345.55,290.04 352.45,290.81 359.34,291.39 366.24,292 380.02,292.33 386.92,292.51 393.81,290.75 400.71,289.5 407.6,289.4 414.49,282.59 421.39,289.91 428.28,286.79 435.18,288.79 442.07,286.98 448.96,290.22 455.86,291.94 462.75,292.7 469.65,281.08 476.54,292.31 483.44,290.28 490.33,286.5 497.22,289 504.12,289.95 511.01,291.41 517.91,290.81 524.8,291 531.69,290.42 538.59,289.99 545.48,284.38 552.38,292.31 559.27,291.62 566.16,287.31 573.06,291.89 579.95,292.21 586.85,288.97 593.74,292.99 600.64,292.75 607.53,290.59 614.42,291.68 621.32,293.04 628.21,289.13 635.11,289.75 642,289.96"></polyline><circle cx="111.15" cy="291.99" r="2.6" fill="#6366F1"></circle><circle cx="118.05" cy="292.07" r="2.6" fill="#6366F1"></circle><circle cx="124.94" cy="292.82" r="2.6" fill="#6366F1"></circle><circle cx="131.84" cy="291.48" r="2.6" fill="#6366F1"></circle><circle cx="138.73" cy="291.75" r="2.6" fill="#6366F1"></circle><circle cx="145.62" cy="285.29" r="2.6" fill="#6366F1"></circle><circle cx="152.52" cy="293.05" r="2.6" fill="#6366F1"></circle><circle cx="159.41" cy="290.23" r="2.6" fill="#6366F1"></circle><circle cx="166.31" cy="290.29" r="2.6" fill="#6366F1"></circle><circle cx="173.2" cy="289.78" r="2.6" fill="#6366F1"></circle><circle cx="180.09" cy="291.61" r="2.6" fill="#6366F1"></circle><circle cx="186.99" cy="290.27" r="2.6" fill="#6366F1"></circle><circle cx="193.88" cy="286.66" r="2.6" fill="#6366F1"></circle><circle cx="200.78" cy="290.55" r="2.6" fill="#6366F1"></circle><circle cx="207.67" cy="286.99" r="2.6" fill="#6366F1"></circle><circle cx="214.56" cy="293.02" r="2.6" fill="#6366F1"></circle><circle cx="221.46" cy="290.61" r="2.6" fill="#6366F1"></circle><circle cx="228.35" cy="286.59" r="2.6" fill="#6366F1"></circle><circle cx="235.25" cy="283.56" r="2.6" fill="#6366F1"></circle><circle cx="242.14" cy="290.63" r="2.6" fill="#6366F1"></circle><circle cx="249.04" cy="289.42" r="2.6" fill="#6366F1"></circle><circle cx="255.93" cy="292.33" r="2.6" fill="#6366F1"></circle><circle cx="262.82" cy="288.36" r="2.6" fill="#6366F1"></circle><circle cx="269.72" cy="284.88" r="2.6" fill="#6366F1"></circle><circle cx="276.61" cy="291.34" r="2.6" fill="#6366F1"></circle><circle cx="283.51" cy="290.13" r="2.6" fill="#6366F1"></circle><circle cx="290.4" cy="291.01" r="2.6" fill="#6366F1"></circle><circle cx="297.29" cy="289.68" r="2.6" fill="#6366F1"></circle><circle cx="311.08" cy="289.04" r="2.6" fill="#6366F1"></circle><circle cx="317.98" cy="291.5" r="2.6" fill="#6366F1"></circle><circle cx="324.87" cy="291.97" r="2.6" fill="#6366F1"></circle><circle cx="331.76" cy="289.14" r="2.6" fill="#6366F1"></circle><circle cx="338.66" cy="289.37" r="2.6" fill="#6366F1"></circle><circle cx="345.55" cy="290.04" r="2.6" fill="#6366F1"></circle><circle cx="352.45" cy="290.81" r="2.6" fill="#6366F1"></circle><circle cx="359.34" cy="291.39" r="2.6" fill="#6366F1"></circle><circle cx="366.24" cy="292" r="2.6" fill="#6366F1"></circle><circle cx="380.02" cy="292.33" r="2.6" fill="#6366F1"></circle><circle cx="386.92" cy="292.51" r="2.6" fill="#6366F1"></circle><circle cx="393.81" cy="290.75" r="2.6" fill="#6366F1"></circle><circle cx="400.71" cy="289.5" r="2.6" fill="#6366F1"></circle><circle cx="407.6" cy="289.4" r="2.6" fill="#6366F1"></circle><circle cx="414.49" cy="282.59" r="2.6" fill="#6366F1"></circle><circle cx="421.39" cy="289.91" r="2.6" fill="#6366F1"></circle><circle cx="428.28" cy="286.79" r="2.6" fill="#6366F1"></circle><circle cx="435.18" cy="288.79" r="2.6" fill="#6366F1"></circle><circle cx="442.07" cy="286.98" r="2.6" fill="#6366F1"></circle><circle cx="448.96" cy="290.22" r="2.6" fill="#6366F1"></circle><circle cx="455.86" cy="291.94" r="2.6" fill="#6366F1"></circle><circle cx="462.75" cy="292.7" r="2.6" fill="#6366F1"></circle><circle cx="469.65" cy="281.08" r="2.6" fill="#6366F1"></circle><circle cx="476.54" cy="292.31" r="2.6" fill="#6366F1"></circle><circle cx="483.44" cy="290.28" r="2.6" fill="#6366F1"></circle><circle cx="490.33" cy="286.5" r="2.6" fill="#6366F1"></circle><circle cx="497.22" cy="289" r="2.6" fill="#6366F1"></circle><circle cx="504.12" cy="289.95" r="2.6" fill="#6366F1"></circle><circle cx="511.01" cy="291.41" r="2.6" fill="#6366F1"></circle><circle cx="517.91" cy="290.81" r="2.6" fill="#6366F1"></circle><circle cx="524.8" cy="291" r="2.6" fill="#6366F1"></circle><circle cx="531.69" cy="290.42" r="2.6" fill="#6366F1"></circle><circle cx="538.59" cy="289.99" r="2.6" fill="#6366F1"></circle><circle cx="545.48" cy="284.38" r="2.6" fill="#6366F1"></circle><circle cx="552.38" cy="292.31" r="2.6" fill="#6366F1"></circle><circle cx="559.27" cy="291.62" r="2.6" fill="#6366F1"></circle><circle cx="566.16" cy="287.31" r="2.6" fill="#6366F1"></circle><circle cx="573.06" cy="291.89" r="2.6" fill="#6366F1"></circle><circle cx="579.95" cy="292.21" r="2.6" fill="#6366F1"></circle><circle cx="586.85" cy="288.97" r="2.6" fill="#6366F1"></circle><circle cx="593.74" cy="292.99" r="2.6" fill="#6366F1"></circle><circle cx="600.64" cy="292.75" r="2.6" fill="#6366F1"></circle><circle cx="607.53" cy="290.59" r="2.6" fill="#6366F1"></circle><circle cx="614.42" cy="291.68" r="2.6" fill="#6366F1"></circle><circle cx="621.32" cy="293.04" r="2.6" fill="#6366F1"></circle><circle cx="628.21" cy="289.13" r="2.6" fill="#6366F1"></circle><circle cx="635.11" cy="289.75" r="2.6" fill="#6366F1"></circle><circle cx="642" cy="289.96" r="2.6" fill="#6366F1"></circle><polyline fill="none" stroke="#A371F7" stroke-width="2.4" stroke-linejoin="round" stroke-linecap="round" points="56,226.25 62.89,237.88 69.79,241.73 76.68,223.38 83.58,231.64 90.47,243.09 97.36,237.81 104.26,230.14 111.15,233.83 118.05,241.12 124.94,233.75 131.84,230.9 138.73,235.83 145.62,217.13 152.52,237.29 159.41,230.7 166.31,240.49 173.2,241.09 180.09,218.17 186.99,232.28 193.88,201.8 200.78,239.78 207.67,242.88 214.56,229.56 221.46,227.31 228.35,231.21 235.25,233.26 242.14,230.48 249.04,240.31 255.93,235.36 262.82,231.03 269.72,237.98 276.61,242.74 283.51,217.94 290.4,237.38 297.29,239.39 311.08,216.58 317.98,239.81 324.87,230.21 338.66,230.86 345.55,240.78 352.45,241.27 359.34,237.28 366.24,234.45 373.13,237.03 380.02,237.6 386.92,235.95 393.81,225.98 400.71,230.74 407.6,232.09 414.49,238.44 421.39,233.93 428.28,237.36 435.18,236.2 448.96,238.07 455.86,232.58 469.65,227.45 476.54,236.55 483.44,232.02 490.33,240.47 497.22,213.84 504.12,238.7 511.01,238.88 517.91,241.18 524.8,233.39 531.69,234.63 538.59,239.11 552.38,240.21 559.27,229.42 566.16,240.04 573.06,237.25 579.95,239.83 586.85,241.26 593.74,237.1 600.64,241.25 607.53,240.26 614.42,198.8 621.32,231.57 628.21,237.11 635.11,236.96"></polyline><circle cx="56" cy="226.25" r="2.6" fill="#A371F7"></circle><circle cx="62.89" cy="237.88" r="2.6" fill="#A371F7"></circle><circle cx="69.79" cy="241.73" r="2.6" fill="#A371F7"></circle><circle cx="76.68" cy="223.38" r="2.6" fill="#A371F7"></circle><circle cx="83.58" cy="231.64" r="2.6" fill="#A371F7"></circle><circle cx="90.47" cy="243.09" r="2.6" fill="#A371F7"></circle><circle cx="97.36" cy="237.81" r="2.6" fill="#A371F7"></circle><circle cx="104.26" cy="230.14" r="2.6" fill="#A371F7"></circle><circle cx="111.15" cy="233.83" r="2.6" fill="#A371F7"></circle><circle cx="118.05" cy="241.12" r="2.6" fill="#A371F7"></circle><circle cx="124.94" cy="233.75" r="2.6" fill="#A371F7"></circle><circle cx="131.84" cy="230.9" r="2.6" fill="#A371F7"></circle><circle cx="138.73" cy="235.83" r="2.6" fill="#A371F7"></circle><circle cx="145.62" cy="217.13" r="2.6" fill="#A371F7"></circle><circle cx="152.52" cy="237.29" r="2.6" fill="#A371F7"></circle><circle cx="159.41" cy="230.7" r="2.6" fill="#A371F7"></circle><circle cx="166.31" cy="240.49" r="2.6" fill="#A371F7"></circle><circle cx="173.2" cy="241.09" r="2.6" fill="#A371F7"></circle><circle cx="180.09" cy="218.17" r="2.6" fill="#A371F7"></circle><circle cx="186.99" cy="232.28" r="2.6" fill="#A371F7"></circle><circle cx="193.88" cy="201.8" r="2.6" fill="#A371F7"></circle><circle cx="200.78" cy="239.78" r="2.6" fill="#A371F7"></circle><circle cx="207.67" cy="242.88" r="2.6" fill="#A371F7"></circle><circle cx="214.56" cy="229.56" r="2.6" fill="#A371F7"></circle><circle cx="221.46" cy="227.31" r="2.6" fill="#A371F7"></circle><circle cx="228.35" cy="231.21" r="2.6" fill="#A371F7"></circle><circle cx="235.25" cy="233.26" r="2.6" fill="#A371F7"></circle><circle cx="242.14" cy="230.48" r="2.6" fill="#A371F7"></circle><circle cx="249.04" cy="240.31" r="2.6" fill="#A371F7"></circle><circle cx="255.93" cy="235.36" r="2.6" fill="#A371F7"></circle><circle cx="262.82" cy="231.03" r="2.6" fill="#A371F7"></circle><circle cx="269.72" cy="237.98" r="2.6" fill="#A371F7"></circle><circle cx="276.61" cy="242.74" r="2.6" fill="#A371F7"></circle><circle cx="283.51" cy="217.94" r="2.6" fill="#A371F7"></circle><circle cx="290.4" cy="237.38" r="2.6" fill="#A371F7"></circle><circle cx="297.29" cy="239.39" r="2.6" fill="#A371F7"></circle><circle cx="311.08" cy="216.58" r="2.6" fill="#A371F7"></circle><circle cx="317.98" cy="239.81" r="2.6" fill="#A371F7"></circle><circle cx="324.87" cy="230.21" r="2.6" fill="#A371F7"></circle><circle cx="338.66" cy="230.86" r="2.6" fill="#A371F7"></circle><circle cx="345.55" cy="240.78" r="2.6" fill="#A371F7"></circle><circle cx="352.45" cy="241.27" r="2.6" fill="#A371F7"></circle><circle cx="359.34" cy="237.28" r="2.6" fill="#A371F7"></circle><circle cx="366.24" cy="234.45" r="2.6" fill="#A371F7"></circle><circle cx="373.13" cy="237.03" r="2.6" fill="#A371F7"></circle><circle cx="380.02" cy="237.6" r="2.6" fill="#A371F7"></circle><circle cx="386.92" cy="235.95" r="2.6" fill="#A371F7"></circle><circle cx="393.81" cy="225.98" r="2.6" fill="#A371F7"></circle><circle cx="400.71" cy="230.74" r="2.6" fill="#A371F7"></circle><circle cx="407.6" cy="232.09" r="2.6" fill="#A371F7"></circle><circle cx="414.49" cy="238.44" r="2.6" fill="#A371F7"></circle><circle cx="421.39" cy="233.93" r="2.6" fill="#A371F7"></circle><circle cx="428.28" cy="237.36" r="2.6" fill="#A371F7"></circle><circle cx="435.18" cy="236.2" r="2.6" fill="#A371F7"></circle><circle cx="448.96" cy="238.07" r="2.6" fill="#A371F7"></circle><circle cx="455.86" cy="232.58" r="2.6" fill="#A371F7"></circle><circle cx="469.65" cy="227.45" r="2.6" fill="#A371F7"></circle><circle cx="476.54" cy="236.55" r="2.6" fill="#A371F7"></circle><circle cx="483.44" cy="232.02" r="2.6" fill="#A371F7"></circle><circle cx="490.33" cy="240.47" r="2.6" fill="#A371F7"></circle><circle cx="497.22" cy="213.84" r="2.6" fill="#A371F7"></circle><circle cx="504.12" cy="238.7" r="2.6" fill="#A371F7"></circle><circle cx="511.01" cy="238.88" r="2.6" fill="#A371F7"></circle><circle cx="517.91" cy="241.18" r="2.6" fill="#A371F7"></circle><circle cx="524.8" cy="233.39" r="2.6" fill="#A371F7"></circle><circle cx="531.69" cy="234.63" r="2.6" fill="#A371F7"></circle><circle cx="538.59" cy="239.11" r="2.6" fill="#A371F7"></circle><circle cx="552.38" cy="240.21" r="2.6" fill="#A371F7"></circle><circle cx="559.27" cy="229.42" r="2.6" fill="#A371F7"></circle><circle cx="566.16" cy="240.04" r="2.6" fill="#A371F7"></circle><circle cx="573.06" cy="237.25" r="2.6" fill="#A371F7"></circle><circle cx="579.95" cy="239.83" r="2.6" fill="#A371F7"></circle><circle cx="586.85" cy="241.26" r="2.6" fill="#A371F7"></circle><circle cx="593.74" cy="237.1" r="2.6" fill="#A371F7"></circle><circle cx="600.64" cy="241.25" r="2.6" fill="#A371F7"></circle><circle cx="607.53" cy="240.26" r="2.6" fill="#A371F7"></circle><circle cx="614.42" cy="198.8" r="2.6" fill="#A371F7"></circle><circle cx="621.32" cy="231.57" r="2.6" fill="#A371F7"></circle><circle cx="628.21" cy="237.11" r="2.6" fill="#A371F7"></circle><circle cx="635.11" cy="236.96" r="2.6" fill="#A371F7"></circle><polyline fill="none" stroke="#F0A23B" stroke-width="2.4" stroke-linejoin="round" stroke-linecap="round" points="56,162.13 62.89,151.29 69.79,72.27 76.68,170.58 83.58,165.15 90.47,168.63 97.36,155.58 104.26,155.2 111.15,151.03 118.05,159.37 124.94,151 131.84,152 138.73,154.31 145.62,162.54 152.52,145.36 159.41,160.82 166.31,153.52 173.2,158.63 180.09,172.35 186.99,162.23 193.88,168.2 200.78,164.28 207.67,98 214.56,164.92 221.46,167.19 228.35,163.76 235.25,165.84 242.14,134.6 249.04,163 255.93,144.13 262.82,165.52 269.72,134.8 276.61,167.11 283.51,166.07 290.4,54.66 297.29,77.46 304.19,164.62 311.08,166.72 317.98,166.65 324.87,162.93 331.76,164.9 338.66,170.21 345.55,169.23 352.45,114.96 359.34,165.27 366.24,165.44 373.13,99.36 380.02,161.79 386.92,138.56 393.81,167.81 400.71,164.51 407.6,164.55 414.49,135.11 421.39,119.1 428.28,168.6 435.18,167.03 442.07,169.7 448.96,164.27 455.86,168.02 462.75,163.89 469.65,99.72 476.54,166.55 483.44,163.57 490.33,163.91 497.22,164.36 504.12,166.86 511.01,166.95 517.91,52.43 524.8,166.52 531.69,165.82 538.59,164.59 552.38,164.21 559.27,164.24 566.16,161.69 573.06,156.02 579.95,164.92 586.85,166.5 593.74,158.67 600.64,169.13 607.53,164.89 614.42,168.19 621.32,134.69 628.21,120.68 635.11,164.51"></polyline><circle cx="56" cy="162.13" r="2.6" fill="#F0A23B"></circle><circle cx="62.89" cy="151.29" r="2.6" fill="#F0A23B"></circle><circle cx="69.79" cy="72.27" r="2.6" fill="#F0A23B"></circle><circle cx="76.68" cy="170.58" r="2.6" fill="#F0A23B"></circle><circle cx="83.58" cy="165.15" r="2.6" fill="#F0A23B"></circle><circle cx="90.47" cy="168.63" r="2.6" fill="#F0A23B"></circle><circle cx="97.36" cy="155.58" r="2.6" fill="#F0A23B"></circle><circle cx="104.26" cy="155.2" r="2.6" fill="#F0A23B"></circle><circle cx="111.15" cy="151.03" r="2.6" fill="#F0A23B"></circle><circle cx="118.05" cy="159.37" r="2.6" fill="#F0A23B"></circle><circle cx="124.94" cy="151" r="2.6" fill="#F0A23B"></circle><circle cx="131.84" cy="152" r="2.6" fill="#F0A23B"></circle><circle cx="138.73" cy="154.31" r="2.6" fill="#F0A23B"></circle><circle cx="145.62" cy="162.54" r="2.6" fill="#F0A23B"></circle><circle cx="152.52" cy="145.36" r="2.6" fill="#F0A23B"></circle><circle cx="159.41" cy="160.82" r="2.6" fill="#F0A23B"></circle><circle cx="166.31" cy="153.52" r="2.6" fill="#F0A23B"></circle><circle cx="173.2" cy="158.63" r="2.6" fill="#F0A23B"></circle><circle cx="180.09" cy="172.35" r="2.6" fill="#F0A23B"></circle><circle cx="186.99" cy="162.23" r="2.6" fill="#F0A23B"></circle><circle cx="193.88" cy="168.2" r="2.6" fill="#F0A23B"></circle><circle cx="200.78" cy="164.28" r="2.6" fill="#F0A23B"></circle><circle cx="207.67" cy="98" r="2.6" fill="#F0A23B"></circle><circle cx="214.56" cy="164.92" r="2.6" fill="#F0A23B"></circle><circle cx="221.46" cy="167.19" r="2.6" fill="#F0A23B"></circle><circle cx="228.35" cy="163.76" r="2.6" fill="#F0A23B"></circle><circle cx="235.25" cy="165.84" r="2.6" fill="#F0A23B"></circle><circle cx="242.14" cy="134.6" r="2.6" fill="#F0A23B"></circle><circle cx="249.04" cy="163" r="2.6" fill="#F0A23B"></circle><circle cx="255.93" cy="144.13" r="2.6" fill="#F0A23B"></circle><circle cx="262.82" cy="165.52" r="2.6" fill="#F0A23B"></circle><circle cx="269.72" cy="134.8" r="2.6" fill="#F0A23B"></circle><circle cx="276.61" cy="167.11" r="2.6" fill="#F0A23B"></circle><circle cx="283.51" cy="166.07" r="2.6" fill="#F0A23B"></circle><circle cx="290.4" cy="54.66" r="2.6" fill="#F0A23B"></circle><circle cx="297.29" cy="77.46" r="2.6" fill="#F0A23B"></circle><circle cx="304.19" cy="164.62" r="2.6" fill="#F0A23B"></circle><circle cx="311.08" cy="166.72" r="2.6" fill="#F0A23B"></circle><circle cx="317.98" cy="166.65" r="2.6" fill="#F0A23B"></circle><circle cx="324.87" cy="162.93" r="2.6" fill="#F0A23B"></circle><circle cx="331.76" cy="164.9" r="2.6" fill="#F0A23B"></circle><circle cx="338.66" cy="170.21" r="2.6" fill="#F0A23B"></circle><circle cx="345.55" cy="169.23" r="2.6" fill="#F0A23B"></circle><circle cx="352.45" cy="114.96" r="2.6" fill="#F0A23B"></circle><circle cx="359.34" cy="165.27" r="2.6" fill="#F0A23B"></circle><circle cx="366.24" cy="165.44" r="2.6" fill="#F0A23B"></circle><circle cx="373.13" cy="99.36" r="2.6" fill="#F0A23B"></circle><circle cx="380.02" cy="161.79" r="2.6" fill="#F0A23B"></circle><circle cx="386.92" cy="138.56" r="2.6" fill="#F0A23B"></circle><circle cx="393.81" cy="167.81" r="2.6" fill="#F0A23B"></circle><circle cx="400.71" cy="164.51" r="2.6" fill="#F0A23B"></circle><circle cx="407.6" cy="164.55" r="2.6" fill="#F0A23B"></circle><circle cx="414.49" cy="135.11" r="2.6" fill="#F0A23B"></circle><circle cx="421.39" cy="119.1" r="2.6" fill="#F0A23B"></circle><circle cx="428.28" cy="168.6" r="2.6" fill="#F0A23B"></circle><circle cx="435.18" cy="167.03" r="2.6" fill="#F0A23B"></circle><circle cx="442.07" cy="169.7" r="2.6" fill="#F0A23B"></circle><circle cx="448.96" cy="164.27" r="2.6" fill="#F0A23B"></circle><circle cx="455.86" cy="168.02" r="2.6" fill="#F0A23B"></circle><circle cx="462.75" cy="163.89" r="2.6" fill="#F0A23B"></circle><circle cx="469.65" cy="99.72" r="2.6" fill="#F0A23B"></circle><circle cx="476.54" cy="166.55" r="2.6" fill="#F0A23B"></circle><circle cx="483.44" cy="163.57" r="2.6" fill="#F0A23B"></circle><circle cx="490.33" cy="163.91" r="2.6" fill="#F0A23B"></circle><circle cx="497.22" cy="164.36" r="2.6" fill="#F0A23B"></circle><circle cx="504.12" cy="166.86" r="2.6" fill="#F0A23B"></circle><circle cx="511.01" cy="166.95" r="2.6" fill="#F0A23B"></circle><circle cx="517.91" cy="52.43" r="2.6" fill="#F0A23B"></circle><circle cx="524.8" cy="166.52" r="2.6" fill="#F0A23B"></circle><circle cx="531.69" cy="165.82" r="2.6" fill="#F0A23B"></circle><circle cx="538.59" cy="164.59" r="2.6" fill="#F0A23B"></circle><circle cx="552.38" cy="164.21" r="2.6" fill="#F0A23B"></circle><circle cx="559.27" cy="164.24" r="2.6" fill="#F0A23B"></circle><circle cx="566.16" cy="161.69" r="2.6" fill="#F0A23B"></circle><circle cx="573.06" cy="156.02" r="2.6" fill="#F0A23B"></circle><circle cx="579.95" cy="164.92" r="2.6" fill="#F0A23B"></circle><circle cx="586.85" cy="166.5" r="2.6" fill="#F0A23B"></circle><circle cx="593.74" cy="158.67" r="2.6" fill="#F0A23B"></circle><circle cx="600.64" cy="169.13" r="2.6" fill="#F0A23B"></circle><circle cx="607.53" cy="164.89" r="2.6" fill="#F0A23B"></circle><circle cx="614.42" cy="168.19" r="2.6" fill="#F0A23B"></circle><circle cx="621.32" cy="134.69" r="2.6" fill="#F0A23B"></circle><circle cx="628.21" cy="120.68" r="2.6" fill="#F0A23B"></circle><circle cx="635.11" cy="164.51" r="2.6" fill="#F0A23B"></circle><line x1="656" y1="27" x2="672" y2="27" stroke="#6366F1" stroke-width="3" stroke-linecap="round"></line><text x="678" y="30" font-size="11" font-weight="400" text-anchor="start" fill="#e6edf3">deepseek</text><line x1="656" y1="47" x2="672" y2="47" stroke="#A371F7" stroke-width="3" stroke-linecap="round"></line><text x="678" y="50" font-size="11" font-weight="400" text-anchor="start" fill="#e6edf3">llama</text><line x1="656" y1="67" x2="672" y2="67" stroke="#F0A23B" stroke-width="3" stroke-linecap="round"></line><text x="678" y="70" font-size="11" font-weight="400" text-anchor="start" fill="#e6edf3">mistral</text></svg>
