<svg xmlns="http://www.w3.org/2000/svg" viewBox="0 0 760 348" width="760" height="348" role="img" aria-label="Cost per test by provider over runs — openai highest, deepseek lowest" font-family="-apple-system,BlinkMacSystemFont,'Segoe UI',system-ui,sans-serif"><line x1="56" y1="306" x2="642" y2="306" stroke="#30363d" stroke-width="1"></line><text x="46" y="310" font-size="9.5" font-weight="400" text-anchor="end" fill="#8b949e" font-family="ui-monospace,SFMono-Regular,Menlo,monospace">$0.000</text><line x1="56" y1="235" x2="642" y2="235" stroke="#30363d" stroke-width="1"></line><text x="46" y="239" font-size="9.5" font-weight="400" text-anchor="end" fill="#8b949e" font-family="ui-monospace,SFMono-Regular,Menlo,monospace">$0.044</text><line x1="56" y1="164" x2="642" y2="164" stroke="#30363d" stroke-width="1"></line><text x="46" y="168" font-size="9.5" font-weight="400" text-anchor="end" fill="#8b949e" font-family="ui-monospace,SFMono-Regular,Menlo,monospace">$0.087</text><line x1="56" y1="93" x2="642" y2="93" stroke="#30363d" stroke-width="1"></line><text x="46" y="97" font-size="9.5" font-weight="400" text-anchor="end" fill="#8b949e" font-family="ui-monospace,SFMono-Regular,Menlo,monospace">$0.131</text><line x1="56" y1="22" x2="642" y2="22" stroke="#30363d" stroke-width="1"></line><text x="46" y="26" font-size="9.5" font-weight="400" text-anchor="end" fill="#8b949e" font-family="ui-monospace,SFMono-Regular,Menlo,monospace">$0.175</text><text x="56" y="324" font-size="9.5" font-weight="400" text-anchor="middle" fill="#8b949e" font-family="ui-monospace,SFMono-Regular,Menlo,monospace">06/06</text><text x="115.8" y="324" font-size="9.5" font-weight="400" text-anchor="middle" fill="#8b949e" font-family="ui-monospace,SFMono-Regular,Menlo,monospace">06/07</text><text x="175.59" y="324" font-size="9.5" font-weight="400" text-anchor="middle" fill="#8b949e" font-family="ui-monospace,SFMono-Regular,Menlo,monospace">06/08</text><text x="235.39" y="324" font-size="9.5" font-weight="400" text-anchor="middle" fill="#8b949e" font-family="ui-monospace,SFMono-Regular,Menlo,monospace">06/09</text><text x="295.18" y="324" font-size="9.5" font-weight="400" text-anchor="middle" fill="#8b949e" font-family="ui-monospace,SFMono-Regular,Menlo,monospace">06/09</text><text x="354.98" y="324" font-size="9.5" font-weight="400" text-anchor="middle" fill="#8b949e" font-family="ui-monospace,SFMono-Regular,Menlo,monospace">06/12</text><text x="414.78" y="324" font-size="9.5" font-weight="400" text-anchor="middle" fill="#8b949e" font-family="ui-monospace,SFMono-Regular,Menlo,monospace">06/14</text><text x="474.57" y="324" font-size="9.5" font-weight="400" text-anchor="middle" fill="#8b949e" font-family="ui-monospace,SFMono-Regular,Menlo,monospace">06/15</text><text x="534.37" y="324" font-size="9.5" font-weight="400" text-anchor="middle" fill="#8b949e" font-family="ui-monospace,SFMono-Regular,Menlo,monospace">06/16</text><text x="594.16" y="324" font-size="9.5" font-weight="400" text-anchor="middle" fill="#8b949e" font-family="ui-monospace,SFMono-Regular,Menlo,monospace">06/17</text><text x="642" y="324" font-size="9.5" font-weight="400" text-anchor="middle" fill="#8b949e" font-family="ui-monospace,SFMono-Regular,Menlo,monospace">06/18</text><polyline fill="none" stroke="#6366F1" stroke-width="2.4" stroke-linejoin="round" stroke-linecap="round" points="151.67,293.36 163.63,293.43 175.59,294.1 187.55,292.89 199.51,293.14 211.47,287.31 223.43,294.31 235.39,291.77 247.35,291.82 259.31,291.36 271.27,293.02 283.22,291.8 295.18,288.55 307.14,292.06 319.1,288.85 331.06,294.29 343.02,292.11 354.98,288.48 366.94,285.75 378.9,292.13 390.86,291.04 402.82,293.66 414.78,290.08 426.73,286.94 438.69,292.77 450.65,291.68 462.61,292.47 474.57,291.27 498.49,290.7 510.45,292.91 522.41,293.34 534.37,290.78 546.33,290.99 558.29,291.6 570.24,292.29 582.2,292.81 594.16,293.37 618.08,293.66 630.04,293.82 642,292.24"></polyline><circle cx="151.67" cy="293.36" r="2.6" fill="#6366F1"></circle><circle cx="163.63" cy="293.43" r="2.6" fill="#6366F1"></circle><circle cx="175.59" cy="294.1" r="2.6" fill="#6366F1"></circle><circle cx="187.55" cy="292.89" r="2.6" fill="#6366F1"></circle><circle cx="199.51" cy="293.14" r="2.6" fill="#6366F1"></circle><circle cx="211.47" cy="287.31" r="2.6" fill="#6366F1"></circle><circle cx="223.43" cy="294.31" r="2.6" fill="#6366F1"></circle><circle cx="235.39" cy="291.77" r="2.6" fill="#6366F1"></circle><circle cx="247.35" cy="291.82" r="2.6" fill="#6366F1"></circle><circle cx="259.31" cy="291.36" r="2.6" fill="#6366F1"></circle><circle cx="271.27" cy="293.02" r="2.6" fill="#6366F1"></circle><circle cx="283.22" cy="291.8" r="2.6" fill="#6366F1"></circle><circle cx="295.18" cy="288.55" r="2.6" fill="#6366F1"></circle><circle cx="307.14" cy="292.06" r="2.6" fill="#6366F1"></circle><circle cx="319.1" cy="288.85" r="2.6" fill="#6366F1"></circle><circle cx="331.06" cy="294.29" r="2.6" fill="#6366F1"></circle><circle cx="343.02" cy="292.11" r="2.6" fill="#6366F1"></circle><circle cx="354.98" cy="288.48" r="2.6" fill="#6366F1"></circle><circle cx="366.94" cy="285.75" r="2.6" fill="#6366F1"></circle><circle cx="378.9" cy="292.13" r="2.6" fill="#6366F1"></circle><circle cx="390.86" cy="291.04" r="2.6" fill="#6366F1"></circle><circle cx="402.82" cy="293.66" r="2.6" fill="#6366F1"></circle><circle cx="414.78" cy="290.08" r="2.6" fill="#6366F1"></circle><circle cx="426.73" cy="286.94" r="2.6" fill="#6366F1"></circle><circle cx="438.69" cy="292.77" r="2.6" fill="#6366F1"></circle><circle cx="450.65" cy="291.68" r="2.6" fill="#6366F1"></circle><circle cx="462.61" cy="292.47" r="2.6" fill="#6366F1"></circle><circle cx="474.57" cy="291.27" r="2.6" fill="#6366F1"></circle><circle cx="498.49" cy="290.7" r="2.6" fill="#6366F1"></circle><circle cx="510.45" cy="292.91" r="2.6" fill="#6366F1"></circle><circle cx="522.41" cy="293.34" r="2.6" fill="#6366F1"></circle><circle cx="534.37" cy="290.78" r="2.6" fill="#6366F1"></circle><circle cx="546.33" cy="290.99" r="2.6" fill="#6366F1"></circle><circle cx="558.29" cy="291.6" r="2.6" fill="#6366F1"></circle><circle cx="570.24" cy="292.29" r="2.6" fill="#6366F1"></circle><circle cx="582.2" cy="292.81" r="2.6" fill="#6366F1"></circle><circle cx="594.16" cy="293.37" r="2.6" fill="#6366F1"></circle><circle cx="618.08" cy="293.66" r="2.6" fill="#6366F1"></circle><circle cx="630.04" cy="293.82" r="2.6" fill="#6366F1"></circle><circle cx="642" cy="292.24" r="2.6" fill="#6366F1"></circle><polyline fill="none" stroke="#A371F7" stroke-width="2.4" stroke-linejoin="round" stroke-linecap="round" points="56,234.02 67.96,244.52 79.92,248 91.88,231.43 103.84,238.89 115.8,249.23 127.76,244.46 139.71,237.54 151.67,240.86 163.63,247.44 175.59,240.79 187.55,238.23 199.51,242.67 211.47,225.79 223.43,243.99 235.39,238.04 247.35,246.87 259.31,247.42 271.27,226.74 283.22,239.47 295.18,211.96 307.14,246.23 319.1,249.04 331.06,237.01 343.02,234.98 354.98,238.5 366.94,240.35 378.9,237.84 390.86,246.71 402.82,242.24 414.78,238.34 426.73,244.61 438.69,248.91 450.65,226.53 462.61,244.07 474.57,245.89 498.49,225.3 510.45,246.26 522.41,237.6 546.33,238.19 558.29,247.14 570.24,247.58 582.2,243.98 594.16,241.42 606.12,243.75 618.08,244.26 630.04,242.78 642,233.78"></polyline><circle cx="56" cy="234.02" r="2.6" fill="#A371F7"></circle><circle cx="67.96" cy="244.52" r="2.6" fill="#A371F7"></circle><circle cx="79.92" cy="248" r="2.6" fill="#A371F7"></circle><circle cx="91.88" cy="231.43" r="2.6" fill="#A371F7"></circle><circle cx="103.84" cy="238.89" r="2.6" fill="#A371F7"></circle><circle cx="115.8" cy="249.23" r="2.6" fill="#A371F7"></circle><circle cx="127.76" cy="244.46" r="2.6" fill="#A371F7"></circle><circle cx="139.71" cy="237.54" r="2.6" fill="#A371F7"></circle><circle cx="151.67" cy="240.86" r="2.6" fill="#A371F7"></circle><circle cx="163.63" cy="247.44" r="2.6" fill="#A371F7"></circle><circle cx="175.59" cy="240.79" r="2.6" fill="#A371F7"></circle><circle cx="187.55" cy="238.23" r="2.6" fill="#A371F7"></circle><circle cx="199.51" cy="242.67" r="2.6" fill="#A371F7"></circle><circle cx="211.47" cy="225.79" r="2.6" fill="#A371F7"></circle><circle cx="223.43" cy="243.99" r="2.6" fill="#A371F7"></circle><circle cx="235.39" cy="238.04" r="2.6" fill="#A371F7"></circle><circle cx="247.35" cy="246.87" r="2.6" fill="#A371F7"></circle><circle cx="259.31" cy="247.42" r="2.6" fill="#A371F7"></circle><circle cx="271.27" cy="226.74" r="2.6" fill="#A371F7"></circle><circle cx="283.22" cy="239.47" r="2.6" fill="#A371F7"></circle><circle cx="295.18" cy="211.96" r="2.6" fill="#A371F7"></circle><circle cx="307.14" cy="246.23" r="2.6" fill="#A371F7"></circle><circle cx="319.1" cy="249.04" r="2.6" fill="#A371F7"></circle><circle cx="331.06" cy="237.01" r="2.6" fill="#A371F7"></circle><circle cx="343.02" cy="234.98" r="2.6" fill="#A371F7"></circle><circle cx="354.98" cy="238.5" r="2.6" fill="#A371F7"></circle><circle cx="366.94" cy="240.35" r="2.6" fill="#A371F7"></circle><circle cx="378.9" cy="237.84" r="2.6" fill="#A371F7"></circle><circle cx="390.86" cy="246.71" r="2.6" fill="#A371F7"></circle><circle cx="402.82" cy="242.24" r="2.6" fill="#A371F7"></circle><circle cx="414.78" cy="238.34" r="2.6" fill="#A371F7"></circle><circle cx="426.73" cy="244.61" r="2.6" fill="#A371F7"></circle><circle cx="438.69" cy="248.91" r="2.6" fill="#A371F7"></circle><circle cx="450.65" cy="226.53" r="2.6" fill="#A371F7"></circle><circle cx="462.61" cy="244.07" r="2.6" fill="#A371F7"></circle><circle cx="474.57" cy="245.89" r="2.6" fill="#A371F7"></circle><circle cx="498.49" cy="225.3" r="2.6" fill="#A371F7"></circle><circle cx="510.45" cy="246.26" r="2.6" fill="#A371F7"></circle><circle cx="522.41" cy="237.6" r="2.6" fill="#A371F7"></circle><circle cx="546.33" cy="238.19" r="2.6" fill="#A371F7"></circle><circle cx="558.29" cy="247.14" r="2.6" fill="#A371F7"></circle><circle cx="570.24" cy="247.58" r="2.6" fill="#A371F7"></circle><circle cx="582.2" cy="243.98" r="2.6" fill="#A371F7"></circle><circle cx="594.16" cy="241.42" r="2.6" fill="#A371F7"></circle><circle cx="606.12" cy="243.75" r="2.6" fill="#A371F7"></circle><circle cx="618.08" cy="244.26" r="2.6" fill="#A371F7"></circle><circle cx="630.04" cy="242.78" r="2.6" fill="#A371F7"></circle><circle cx="642" cy="233.78" r="2.6" fill="#A371F7"></circle><polyline fill="none" stroke="#F0A23B" stroke-width="2.4" stroke-linejoin="round" stroke-linecap="round" points="56,176.15 67.96,166.37 79.92,95.06 91.88,183.78 103.84,178.88 115.8,182.02 127.76,170.24 139.71,169.9 151.67,166.14 163.63,173.66 175.59,166.11 187.55,167.02 199.51,169.09 211.47,176.53 223.43,161.02 235.39,174.97 247.35,168.38 259.31,173 271.27,185.38 283.22,176.24 295.18,181.63 307.14,178.09 319.1,118.27 331.06,178.67 343.02,180.72 354.98,177.62 366.94,179.5 378.9,151.31 390.86,176.94 402.82,159.91 414.78,179.22 426.73,151.49 438.69,180.65 450.65,179.71 462.61,79.16 474.57,99.74 486.53,178.4 498.49,180.3 510.45,180.24 522.41,176.88 534.37,178.65 546.33,183.45 558.29,182.56 570.24,133.59 582.2,178.99 594.16,179.14 606.12,119.51 618.08,175.85 630.04,154.88 642,181.28"></polyline><circle cx="56" cy="176.15" r="2.6" fill="#F0A23B"></circle><circle cx="67.96" cy="166.37" r="2.6" fill="#F0A23B"></circle><circle cx="79.92" cy="95.06" r="2.6" fill="#F0A23B"></circle><circle cx="91.88" cy="183.78" r="2.6" fill="#F0A23B"></circle><circle cx="103.84" cy="178.88" r="2.6" fill="#F0A23B"></circle><circle cx="115.8" cy="182.02" r="2.6" fill="#F0A23B"></circle><circle cx="127.76" cy="170.24" r="2.6" fill="#F0A23B"></circle><circle cx="139.71" cy="169.9" r="2.6" fill="#F0A23B"></circle><circle cx="151.67" cy="166.14" r="2.6" fill="#F0A23B"></circle><circle cx="163.63" cy="173.66" r="2.6" fill="#F0A23B"></circle><circle cx="175.59" cy="166.11" r="2.6" fill="#F0A23B"></circle><circle cx="187.55" cy="167.02" r="2.6" fill="#F0A23B"></circle><circle cx="199.51" cy="169.09" r="2.6" fill="#F0A23B"></circle><circle cx="211.47" cy="176.53" r="2.6" fill="#F0A23B"></circle><circle cx="223.43" cy="161.02" r="2.6" fill="#F0A23B"></circle><circle cx="235.39" cy="174.97" r="2.6" fill="#F0A23B"></circle><circle cx="247.35" cy="168.38" r="2.6" fill="#F0A23B"></circle><circle cx="259.31" cy="173" r="2.6" fill="#F0A23B"></circle><circle cx="271.27" cy="185.38" r="2.6" fill="#F0A23B"></circle><circle cx="283.22" cy="176.24" r="2.6" fill="#F0A23B"></circle><circle cx="295.18" cy="181.63" r="2.6" fill="#F0A23B"></circle><circle cx="307.14" cy="178.09" r="2.6" fill="#F0A23B"></circle><circle cx="319.1" cy="118.27" r="2.6" fill="#F0A23B"></circle><circle cx="331.06" cy="178.67" r="2.6" fill="#F0A23B"></circle><circle cx="343.02" cy="180.72" r="2.6" fill="#F0A23B"></circle><circle cx="354.98" cy="177.62" r="2.6" fill="#F0A23B"></circle><circle cx="366.94" cy="179.5" r="2.6" fill="#F0A23B"></circle><circle cx="378.9" cy="151.31" r="2.6" fill="#F0A23B"></circle><circle cx="390.86" cy="176.94" r="2.6" fill="#F0A23B"></circle><circle cx="402.82" cy="159.91" r="2.6" fill="#F0A23B"></circle><circle cx="414.78" cy="179.22" r="2.6" fill="#F0A23B"></circle><circle cx="426.73" cy="151.49" r="2.6" fill="#F0A23B"></circle><circle cx="438.69" cy="180.65" r="2.6" fill="#F0A23B"></circle><circle cx="450.65" cy="179.71" r="2.6" fill="#F0A23B"></circle><circle cx="462.61" cy="79.16" r="2.6" fill="#F0A23B"></circle><circle cx="474.57" cy="99.74" r="2.6" fill="#F0A23B"></circle><circle cx="486.53" cy="178.4" r="2.6" fill="#F0A23B"></circle><circle cx="498.49" cy="180.3" r="2.6" fill="#F0A23B"></circle><circle cx="510.45" cy="180.24" r="2.6" fill="#F0A23B"></circle><circle cx="522.41" cy="176.88" r="2.6" fill="#F0A23B"></circle><circle cx="534.37" cy="178.65" r="2.6" fill="#F0A23B"></circle><circle cx="546.33" cy="183.45" r="2.6" fill="#F0A23B"></circle><circle cx="558.29" cy="182.56" r="2.6" fill="#F0A23B"></circle><circle cx="570.24" cy="133.59" r="2.6" fill="#F0A23B"></circle><circle cx="582.2" cy="178.99" r="2.6" fill="#F0A23B"></circle><circle cx="594.16" cy="179.14" r="2.6" fill="#F0A23B"></circle><circle cx="606.12" cy="119.51" r="2.6" fill="#F0A23B"></circle><circle cx="618.08" cy="175.85" r="2.6" fill="#F0A23B"></circle><circle cx="630.04" cy="154.88" r="2.6" fill="#F0A23B"></circle><circle cx="642" cy="181.28" r="2.6" fill="#F0A23B"></circle><polyline fill="none" stroke="#1F9CF0" stroke-width="2.4" stroke-linejoin="round" stroke-linecap="round" points="56,175.5 67.96,176.2 79.92,132.71 91.88,178.27 103.84,172 115.8,174.38 127.76,174.4 139.71,170.88 151.67,173.93 163.63,173.54 175.59,100.75 187.55,168.69 199.51,173.59 211.47,174.01 223.43,167.31 235.39,117.5 247.35,166.02 259.31,174.07 271.27,141.6 283.22,169.05 295.18,167.14 307.14,174.48 319.1,150.94 331.06,171.01 343.02,52.43 354.98,157.26 366.94,171.51 378.9,136.29 390.86,169.79 402.82,106.45 414.78,170.47 426.73,175.76 438.69,174.01 450.65,174.06 462.61,151.2 474.57,173.78 486.53,169.88 498.49,177.61 510.45,137.18 522.41,114.15 534.37,168.74 546.33,168.47 558.29,130.46 570.24,174.44 582.2,175.01 594.16,171.26 606.12,176.81 618.08,171.37 630.04,161.31 642,135.44"></polyline><circle cx="56" cy="175.5" r="2.6" fill="#1F9CF0"></circle><circle cx="67.96" cy="176.2" r="2.6" fill="#1F9CF0"></circle><circle cx="79.92" cy="132.71" r="2.6" fill="#1F9CF0"></circle><circle cx="91.88" cy="178.27" r="2.6" fill="#1F9CF0"></circle><circle cx="103.84" cy="172" r="2.6" fill="#1F9CF0"></circle><circle cx="115.8" cy="174.38" r="2.6" fill="#1F9CF0"></circle><circle cx="127.76" cy="174.4" r="2.6" fill="#1F9CF0"></circle><circle cx="139.71" cy="170.88" r="2.6" fill="#1F9CF0"></circle><circle cx="151.67" cy="173.93" r="2.6" fill="#1F9CF0"></circle><circle cx="163.63" cy="173.54" r="2.6" fill="#1F9CF0"></circle><circle cx="175.59" cy="100.75" r="2.6" fill="#1F9CF0"></circle><circle cx="187.55" cy="168.69" r="2.6" fill="#1F9CF0"></circle><circle cx="199.51" cy="173.59" r="2.6" fill="#1F9CF0"></circle><circle cx="211.47" cy="174.01" r="2.6" fill="#1F9CF0"></circle><circle cx="223.43" cy="167.31" r="2.6" fill="#1F9CF0"></circle><circle cx="235.39" cy="117.5" r="2.6" fill="#1F9CF0"></circle><circle cx="247.35" cy="166.02" r="2.6" fill="#1F9CF0"></circle><circle cx="259.31" cy="174.07" r="2.6" fill="#1F9CF0"></circle><circle cx="271.27" cy="141.6" r="2.6" fill="#1F9CF0"></circle><circle cx="283.22" cy="169.05" r="2.6" fill="#1F9CF0"></circle><circle cx="295.18" cy="167.14" r="2.6" fill="#1F9CF0"></circle><circle cx="307.14" cy="174.48" r="2.6" fill="#1F9CF0"></circle><circle cx="319.1" cy="150.94" r="2.6" fill="#1F9CF0"></circle><circle cx="331.06" cy="171.01" r="2.6" fill="#1F9CF0"></circle><circle cx="343.02" cy="52.43" r="2.6" fill="#1F9CF0"></circle><circle cx="354.98" cy="157.26" r="2.6" fill="#1F9CF0"></circle><circle cx="366.94" cy="171.51" r="2.6" fill="#1F9CF0"></circle><circle cx="378.9" cy="136.29" r="2.6" fill="#1F9CF0"></circle><circle cx="390.86" cy="169.79" r="2.6" fill="#1F9CF0"></circle><circle cx="402.82" cy="106.45" r="2.6" fill="#1F9CF0"></circle><circle cx="414.78" cy="170.47" r="2.6" fill="#1F9CF0"></circle><circle cx="426.73" cy="175.76" r="2.6" fill="#1F9CF0"></circle><circle cx="438.69" cy="174.01" r="2.6" fill="#1F9CF0"></circle><circle cx="450.65" cy="174.06" r="2.6" fill="#1F9CF0"></circle><circle cx="462.61" cy="151.2" r="2.6" fill="#1F9CF0"></circle><circle cx="474.57" cy="173.78" r="2.6" fill="#1F9CF0"></circle><circle cx="486.53" cy="169.88" r="2.6" fill="#1F9CF0"></circle><circle cx="498.49" cy="177.61" r="2.6" fill="#1F9CF0"></circle><circle cx="510.45" cy="137.18" r="2.6" fill="#1F9CF0"></circle><circle cx="522.41" cy="114.15" r="2.6" fill="#1F9CF0"></circle><circle cx="534.37" cy="168.74" r="2.6" fill="#1F9CF0"></circle><circle cx="546.33" cy="168.47" r="2.6" fill="#1F9CF0"></circle><circle cx="558.29" cy="130.46" r="2.6" fill="#1F9CF0"></circle><circle cx="570.24" cy="174.44" r="2.6" fill="#1F9CF0"></circle><circle cx="582.2" cy="175.01" r="2.6" fill="#1F9CF0"></circle><circle cx="594.16" cy="171.26" r="2.6" fill="#1F9CF0"></circle><circle cx="606.12" cy="176.81" r="2.6" fill="#1F9CF0"></circle><circle cx="618.08" cy="171.37" r="2.6" fill="#1F9CF0"></circle><circle cx="630.04" cy="161.31" r="2.6" fill="#1F9CF0"></circle><circle cx="642" cy="135.44" r="2.6" fill="#1F9CF0"></circle><line x1="656" y1="27" x2="672" y2="27" stroke="#6366F1" stroke-width="3" stroke-linecap="round"></line><text x="678" y="30" font-size="11" font-weight="400" text-anchor="start" fill="#e6edf3">deepseek</text><line x1="656" y1="47" x2="672" y2="47" stroke="#A371F7" stroke-width="3" stroke-linecap="round"></line><text x="678" y="50" font-size="11" font-weight="400" text-anchor="start" fill="#e6edf3">llama</text><line x1="656" y1="67" x2="672" y2="67" stroke="#F0A23B" stroke-width="3" stroke-linecap="round"></line><text x="678" y="70" font-size="11" font-weight="400" text-anchor="start" fill="#e6edf3">mistral</text><line x1="656" y1="87" x2="672" y2="87" stroke="#1F9CF0" stroke-width="3" stroke-linecap="round"></line><text x="678" y="90" font-size="11" font-weight="400" text-anchor="start" fill="#e6edf3">openai</text></svg>
