<svg xmlns="http://www.w3.org/2000/svg" viewBox="0 0 760 348" width="760" height="348" role="img" aria-label="Cost per test by provider over runs — mistral highest, deepseek lowest" font-family="-apple-system,BlinkMacSystemFont,'Segoe UI',system-ui,sans-serif"><line x1="56" y1="306" x2="642" y2="306" stroke="#d8dee4" stroke-width="1"></line><text x="46" y="310" font-size="9.5" font-weight="400" text-anchor="end" fill="#656d76" font-family="ui-monospace,SFMono-Regular,Menlo,monospace">$0.000</text><line x1="56" y1="235" x2="642" y2="235" stroke="#d8dee4" stroke-width="1"></line><text x="46" y="239" font-size="9.5" font-weight="400" text-anchor="end" fill="#656d76" font-family="ui-monospace,SFMono-Regular,Menlo,monospace">$0.039</text><line x1="56" y1="164" x2="642" y2="164" stroke="#d8dee4" stroke-width="1"></line><text x="46" y="168" font-size="9.5" font-weight="400" text-anchor="end" fill="#656d76" font-family="ui-monospace,SFMono-Regular,Menlo,monospace">$0.078</text><line x1="56" y1="93" x2="642" y2="93" stroke="#d8dee4" stroke-width="1"></line><text x="46" y="97" font-size="9.5" font-weight="400" text-anchor="end" fill="#656d76" font-family="ui-monospace,SFMono-Regular,Menlo,monospace">$0.117</text><line x1="56" y1="22" x2="642" y2="22" stroke="#d8dee4" stroke-width="1"></line><text x="46" y="26" font-size="9.5" font-weight="400" text-anchor="end" fill="#656d76" font-family="ui-monospace,SFMono-Regular,Menlo,monospace">$0.156</text><text x="56" y="324" font-size="9.5" font-weight="400" text-anchor="middle" fill="#656d76" font-family="ui-monospace,SFMono-Regular,Menlo,monospace">06/06</text><text x="110.09" y="324" font-size="9.5" font-weight="400" text-anchor="middle" fill="#656d76" font-family="ui-monospace,SFMono-Regular,Menlo,monospace">06/08</text><text x="164.18" y="324" font-size="9.5" font-weight="400" text-anchor="middle" fill="#656d76" font-family="ui-monospace,SFMono-Regular,Menlo,monospace">06/08</text><text x="218.28" y="324" font-size="9.5" font-weight="400" text-anchor="middle" fill="#656d76" font-family="ui-monospace,SFMono-Regular,Menlo,monospace">06/09</text><text x="272.37" y="324" font-size="9.5" font-weight="400" text-anchor="middle" fill="#656d76" font-family="ui-monospace,SFMono-Regular,Menlo,monospace">06/12</text><text x="326.46" y="324" font-size="9.5" font-weight="400" text-anchor="middle" fill="#656d76" font-family="ui-monospace,SFMono-Regular,Menlo,monospace">06/14</text><text x="380.55" y="324" font-size="9.5" font-weight="400" text-anchor="middle" fill="#656d76" font-family="ui-monospace,SFMono-Regular,Menlo,monospace">06/15</text><text x="434.65" y="324" font-size="9.5" font-weight="400" text-anchor="middle" fill="#656d76" font-family="ui-monospace,SFMono-Regular,Menlo,monospace">06/16</text><text x="488.74" y="324" font-size="9.5" font-weight="400" text-anchor="middle" fill="#656d76" font-family="ui-monospace,SFMono-Regular,Menlo,monospace">06/17</text><text x="542.83" y="324" font-size="9.5" font-weight="400" text-anchor="middle" fill="#656d76" font-family="ui-monospace,SFMono-Regular,Menlo,monospace">06/20</text><text x="596.92" y="324" font-size="9.5" font-weight="400" text-anchor="middle" fill="#656d76" font-family="ui-monospace,SFMono-Regular,Menlo,monospace">06/21</text><text x="642" y="324" font-size="9.5" font-weight="400" text-anchor="middle" fill="#656d76" font-family="ui-monospace,SFMono-Regular,Menlo,monospace">06/22</text><polyline fill="none" stroke="#6366F1" stroke-width="2.4" stroke-linejoin="round" stroke-linecap="round" points="128.12,291.87 137.14,291.95 146.15,292.7 155.17,291.35 164.18,291.63 173.2,285.11 182.22,292.93 191.23,290.09 200.25,290.15 209.26,289.63 218.28,291.49 227.29,290.13 236.31,286.49 245.32,290.42 254.34,286.82 263.35,292.91 272.37,290.47 281.38,286.41 290.4,283.36 299.42,290.5 308.43,289.27 317.45,292.21 326.46,288.21 335.48,284.69 344.49,291.21 353.51,289.99 362.52,290.87 371.54,289.54 389.57,288.89 398.58,291.37 407.6,291.85 416.62,288.99 425.63,289.23 434.65,289.9 443.66,290.68 452.68,291.26 461.69,291.88 479.72,292.21 488.74,292.39 497.75,290.62 506.77,289.36 515.78,289.25 524.8,282.39 533.82,289.77 542.83,286.62 551.85,288.64 560.86,286.81 569.88,290.08 578.89,291.81 587.91,292.58 596.92,280.86 605.94,292.19 614.95,290.14 623.97,286.32 632.98,288.84 642,289.8"></polyline><circle cx="128.12" cy="291.87" r="2.6" fill="#6366F1"></circle><circle cx="137.14" cy="291.95" r="2.6" fill="#6366F1"></circle><circle cx="146.15" cy="292.7" r="2.6" fill="#6366F1"></circle><circle cx="155.17" cy="291.35" r="2.6" fill="#6366F1"></circle><circle cx="164.18" cy="291.63" r="2.6" fill="#6366F1"></circle><circle cx="173.2" cy="285.11" r="2.6" fill="#6366F1"></circle><circle cx="182.22" cy="292.93" r="2.6" fill="#6366F1"></circle><circle cx="191.23" cy="290.09" r="2.6" fill="#6366F1"></circle><circle cx="200.25" cy="290.15" r="2.6" fill="#6366F1"></circle><circle cx="209.26" cy="289.63" r="2.6" fill="#6366F1"></circle><circle cx="218.28" cy="291.49" r="2.6" fill="#6366F1"></circle><circle cx="227.29" cy="290.13" r="2.6" fill="#6366F1"></circle><circle cx="236.31" cy="286.49" r="2.6" fill="#6366F1"></circle><circle cx="245.32" cy="290.42" r="2.6" fill="#6366F1"></circle><circle cx="254.34" cy="286.82" r="2.6" fill="#6366F1"></circle><circle cx="263.35" cy="292.91" r="2.6" fill="#6366F1"></circle><circle cx="272.37" cy="290.47" r="2.6" fill="#6366F1"></circle><circle cx="281.38" cy="286.41" r="2.6" fill="#6366F1"></circle><circle cx="290.4" cy="283.36" r="2.6" fill="#6366F1"></circle><circle cx="299.42" cy="290.5" r="2.6" fill="#6366F1"></circle><circle cx="308.43" cy="289.27" r="2.6" fill="#6366F1"></circle><circle cx="317.45" cy="292.21" r="2.6" fill="#6366F1"></circle><circle cx="326.46" cy="288.21" r="2.6" fill="#6366F1"></circle><circle cx="335.48" cy="284.69" r="2.6" fill="#6366F1"></circle><circle cx="344.49" cy="291.21" r="2.6" fill="#6366F1"></circle><circle cx="353.51" cy="289.99" r="2.6" fill="#6366F1"></circle><circle cx="362.52" cy="290.87" r="2.6" fill="#6366F1"></circle><circle cx="371.54" cy="289.54" r="2.6" fill="#6366F1"></circle><circle cx="389.57" cy="288.89" r="2.6" fill="#6366F1"></circle><circle cx="398.58" cy="291.37" r="2.6" fill="#6366F1"></circle><circle cx="407.6" cy="291.85" r="2.6" fill="#6366F1"></circle><circle cx="416.62" cy="288.99" r="2.6" fill="#6366F1"></circle><circle cx="425.63" cy="289.23" r="2.6" fill="#6366F1"></circle><circle cx="434.65" cy="289.9" r="2.6" fill="#6366F1"></circle><circle cx="443.66" cy="290.68" r="2.6" fill="#6366F1"></circle><circle cx="452.68" cy="291.26" r="2.6" fill="#6366F1"></circle><circle cx="461.69" cy="291.88" r="2.6" fill="#6366F1"></circle><circle cx="479.72" cy="292.21" r="2.6" fill="#6366F1"></circle><circle cx="488.74" cy="292.39" r="2.6" fill="#6366F1"></circle><circle cx="497.75" cy="290.62" r="2.6" fill="#6366F1"></circle><circle cx="506.77" cy="289.36" r="2.6" fill="#6366F1"></circle><circle cx="515.78" cy="289.25" r="2.6" fill="#6366F1"></circle><circle cx="524.8" cy="282.39" r="2.6" fill="#6366F1"></circle><circle cx="533.82" cy="289.77" r="2.6" fill="#6366F1"></circle><circle cx="542.83" cy="286.62" r="2.6" fill="#6366F1"></circle><circle cx="551.85" cy="288.64" r="2.6" fill="#6366F1"></circle><circle cx="560.86" cy="286.81" r="2.6" fill="#6366F1"></circle><circle cx="569.88" cy="290.08" r="2.6" fill="#6366F1"></circle><circle cx="578.89" cy="291.81" r="2.6" fill="#6366F1"></circle><circle cx="587.91" cy="292.58" r="2.6" fill="#6366F1"></circle><circle cx="596.92" cy="280.86" r="2.6" fill="#6366F1"></circle><circle cx="605.94" cy="292.19" r="2.6" fill="#6366F1"></circle><circle cx="614.95" cy="290.14" r="2.6" fill="#6366F1"></circle><circle cx="623.97" cy="286.32" r="2.6" fill="#6366F1"></circle><circle cx="632.98" cy="288.84" r="2.6" fill="#6366F1"></circle><circle cx="642" cy="289.8" r="2.6" fill="#6366F1"></circle><polyline fill="none" stroke="#A371F7" stroke-width="2.4" stroke-linejoin="round" stroke-linecap="round" points="56,225.54 65.02,237.27 74.03,241.16 83.05,222.65 92.06,230.98 101.08,242.54 110.09,237.21 119.11,229.47 128.12,233.19 137.14,240.54 146.15,233.11 155.17,230.24 164.18,235.21 173.2,216.34 182.22,236.68 191.23,230.04 200.25,239.9 209.26,240.52 218.28,217.4 227.29,231.63 236.31,200.88 245.32,239.19 254.34,242.32 263.35,228.88 272.37,226.62 281.38,230.55 290.4,232.61 299.42,229.81 308.43,239.72 317.45,234.73 326.46,230.36 335.48,237.37 344.49,242.18 353.51,217.16 362.52,236.77 371.54,238.8 389.57,215.79 398.58,239.22 407.6,229.54 425.63,230.2 434.65,240.21 443.66,240.7 452.68,236.68 461.69,233.81 470.71,236.41 479.72,236.99 488.74,235.33 497.75,225.27 506.77,230.08 515.78,231.44 524.8,237.84 533.82,233.29 542.83,236.75 551.85,235.58 569.88,237.47 578.89,231.93 596.92,226.76 605.94,235.94 614.95,231.36 623.97,239.89 632.98,213.02 642,238.1"></polyline><circle cx="56" cy="225.54" r="2.6" fill="#A371F7"></circle><circle cx="65.02" cy="237.27" r="2.6" fill="#A371F7"></circle><circle cx="74.03" cy="241.16" r="2.6" fill="#A371F7"></circle><circle cx="83.05" cy="222.65" r="2.6" fill="#A371F7"></circle><circle cx="92.06" cy="230.98" r="2.6" fill="#A371F7"></circle><circle cx="101.08" cy="242.54" r="2.6" fill="#A371F7"></circle><circle cx="110.09" cy="237.21" r="2.6" fill="#A371F7"></circle><circle cx="119.11" cy="229.47" r="2.6" fill="#A371F7"></circle><circle cx="128.12" cy="233.19" r="2.6" fill="#A371F7"></circle><circle cx="137.14" cy="240.54" r="2.6" fill="#A371F7"></circle><circle cx="146.15" cy="233.11" r="2.6" fill="#A371F7"></circle><circle cx="155.17" cy="230.24" r="2.6" fill="#A371F7"></circle><circle cx="164.18" cy="235.21" r="2.6" fill="#A371F7"></circle><circle cx="173.2" cy="216.34" r="2.6" fill="#A371F7"></circle><circle cx="182.22" cy="236.68" r="2.6" fill="#A371F7"></circle><circle cx="191.23" cy="230.04" r="2.6" fill="#A371F7"></circle><circle cx="200.25" cy="239.9" r="2.6" fill="#A371F7"></circle><circle cx="209.26" cy="240.52" r="2.6" fill="#A371F7"></circle><circle cx="218.28" cy="217.4" r="2.6" fill="#A371F7"></circle><circle cx="227.29" cy="231.63" r="2.6" fill="#A371F7"></circle><circle cx="236.31" cy="200.88" r="2.6" fill="#A371F7"></circle><circle cx="245.32" cy="239.19" r="2.6" fill="#A371F7"></circle><circle cx="254.34" cy="242.32" r="2.6" fill="#A371F7"></circle><circle cx="263.35" cy="228.88" r="2.6" fill="#A371F7"></circle><circle cx="272.37" cy="226.62" r="2.6" fill="#A371F7"></circle><circle cx="281.38" cy="230.55" r="2.6" fill="#A371F7"></circle><circle cx="290.4" cy="232.61" r="2.6" fill="#A371F7"></circle><circle cx="299.42" cy="229.81" r="2.6" fill="#A371F7"></circle><circle cx="308.43" cy="239.72" r="2.6" fill="#A371F7"></circle><circle cx="317.45" cy="234.73" r="2.6" fill="#A371F7"></circle><circle cx="326.46" cy="230.36" r="2.6" fill="#A371F7"></circle><circle cx="335.48" cy="237.37" r="2.6" fill="#A371F7"></circle><circle cx="344.49" cy="242.18" r="2.6" fill="#A371F7"></circle><circle cx="353.51" cy="217.16" r="2.6" fill="#A371F7"></circle><circle cx="362.52" cy="236.77" r="2.6" fill="#A371F7"></circle><circle cx="371.54" cy="238.8" r="2.6" fill="#A371F7"></circle><circle cx="389.57" cy="215.79" r="2.6" fill="#A371F7"></circle><circle cx="398.58" cy="239.22" r="2.6" fill="#A371F7"></circle><circle cx="407.6" cy="229.54" r="2.6" fill="#A371F7"></circle><circle cx="425.63" cy="230.2" r="2.6" fill="#A371F7"></circle><circle cx="434.65" cy="240.21" r="2.6" fill="#A371F7"></circle><circle cx="443.66" cy="240.7" r="2.6" fill="#A371F7"></circle><circle cx="452.68" cy="236.68" r="2.6" fill="#A371F7"></circle><circle cx="461.69" cy="233.81" r="2.6" fill="#A371F7"></circle><circle cx="470.71" cy="236.41" r="2.6" fill="#A371F7"></circle><circle cx="479.72" cy="236.99" r="2.6" fill="#A371F7"></circle><circle cx="488.74" cy="235.33" r="2.6" fill="#A371F7"></circle><circle cx="497.75" cy="225.27" r="2.6" fill="#A371F7"></circle><circle cx="506.77" cy="230.08" r="2.6" fill="#A371F7"></circle><circle cx="515.78" cy="231.44" r="2.6" fill="#A371F7"></circle><circle cx="524.8" cy="237.84" r="2.6" fill="#A371F7"></circle><circle cx="533.82" cy="233.29" r="2.6" fill="#A371F7"></circle><circle cx="542.83" cy="236.75" r="2.6" fill="#A371F7"></circle><circle cx="551.85" cy="235.58" r="2.6" fill="#A371F7"></circle><circle cx="569.88" cy="237.47" r="2.6" fill="#A371F7"></circle><circle cx="578.89" cy="231.93" r="2.6" fill="#A371F7"></circle><circle cx="596.92" cy="226.76" r="2.6" fill="#A371F7"></circle><circle cx="605.94" cy="235.94" r="2.6" fill="#A371F7"></circle><circle cx="614.95" cy="231.36" r="2.6" fill="#A371F7"></circle><circle cx="623.97" cy="239.89" r="2.6" fill="#A371F7"></circle><circle cx="632.98" cy="213.02" r="2.6" fill="#A371F7"></circle><circle cx="642" cy="238.1" r="2.6" fill="#A371F7"></circle><polyline fill="none" stroke="#F0A23B" stroke-width="2.4" stroke-linejoin="round" stroke-linecap="round" points="56,160.85 65.02,149.92 74.03,70.2 83.05,169.38 92.06,163.91 101.08,167.41 110.09,154.25 119.11,153.87 128.12,149.66 137.14,158.07 146.15,149.63 155.17,150.64 164.18,152.96 173.2,161.27 182.22,143.94 191.23,159.53 200.25,152.17 209.26,157.33 218.28,171.16 227.29,160.95 236.31,166.98 245.32,163.02 254.34,96.15 263.35,163.67 272.37,165.96 281.38,162.5 290.4,164.6 299.42,133.08 308.43,161.73 317.45,142.7 326.46,164.28 335.48,133.29 344.49,165.88 353.51,164.83 362.52,52.43 371.54,75.44 380.55,163.37 389.57,165.49 398.58,165.42 407.6,161.66 416.62,163.65 425.63,169.01 434.65,168.02 443.66,113.27 452.68,164.02 461.69,164.19 470.71,97.53 479.72,160.51 488.74,137.07 497.75,166.58 506.77,163.26 515.78,163.3 524.8,133.59 533.82,117.45 542.83,167.38 551.85,165.8 560.86,168.5 569.88,163.02 578.89,166.8 587.91,162.64 596.92,97.89 605.94,165.31 614.95,162.3 623.97,162.65 632.98,163.11 642,165.62"></polyline><circle cx="56" cy="160.85" r="2.6" fill="#F0A23B"></circle><circle cx="65.02" cy="149.92" r="2.6" fill="#F0A23B"></circle><circle cx="74.03" cy="70.2" r="2.6" fill="#F0A23B"></circle><circle cx="83.05" cy="169.38" r="2.6" fill="#F0A23B"></circle><circle cx="92.06" cy="163.91" r="2.6" fill="#F0A23B"></circle><circle cx="101.08" cy="167.41" r="2.6" fill="#F0A23B"></circle><circle cx="110.09" cy="154.25" r="2.6" fill="#F0A23B"></circle><circle cx="119.11" cy="153.87" r="2.6" fill="#F0A23B"></circle><circle cx="128.12" cy="149.66" r="2.6" fill="#F0A23B"></circle><circle cx="137.14" cy="158.07" r="2.6" fill="#F0A23B"></circle><circle cx="146.15" cy="149.63" r="2.6" fill="#F0A23B"></circle><circle cx="155.17" cy="150.64" r="2.6" fill="#F0A23B"></circle><circle cx="164.18" cy="152.96" r="2.6" fill="#F0A23B"></circle><circle cx="173.2" cy="161.27" r="2.6" fill="#F0A23B"></circle><circle cx="182.22" cy="143.94" r="2.6" fill="#F0A23B"></circle><circle cx="191.23" cy="159.53" r="2.6" fill="#F0A23B"></circle><circle cx="200.25" cy="152.17" r="2.6" fill="#F0A23B"></circle><circle cx="209.26" cy="157.33" r="2.6" fill="#F0A23B"></circle><circle cx="218.28" cy="171.16" r="2.6" fill="#F0A23B"></circle><circle cx="227.29" cy="160.95" r="2.6" fill="#F0A23B"></circle><circle cx="236.31" cy="166.98" r="2.6" fill="#F0A23B"></circle><circle cx="245.32" cy="163.02" r="2.6" fill="#F0A23B"></circle><circle cx="254.34" cy="96.15" r="2.6" fill="#F0A23B"></circle><circle cx="263.35" cy="163.67" r="2.6" fill="#F0A23B"></circle><circle cx="272.37" cy="165.96" r="2.6" fill="#F0A23B"></circle><circle cx="281.38" cy="162.5" r="2.6" fill="#F0A23B"></circle><circle cx="290.4" cy="164.6" r="2.6" fill="#F0A23B"></circle><circle cx="299.42" cy="133.08" r="2.6" fill="#F0A23B"></circle><circle cx="308.43" cy="161.73" r="2.6" fill="#F0A23B"></circle><circle cx="317.45" cy="142.7" r="2.6" fill="#F0A23B"></circle><circle cx="326.46" cy="164.28" r="2.6" fill="#F0A23B"></circle><circle cx="335.48" cy="133.29" r="2.6" fill="#F0A23B"></circle><circle cx="344.49" cy="165.88" r="2.6" fill="#F0A23B"></circle><circle cx="353.51" cy="164.83" r="2.6" fill="#F0A23B"></circle><circle cx="362.52" cy="52.43" r="2.6" fill="#F0A23B"></circle><circle cx="371.54" cy="75.44" r="2.6" fill="#F0A23B"></circle><circle cx="380.55" cy="163.37" r="2.6" fill="#F0A23B"></circle><circle cx="389.57" cy="165.49" r="2.6" fill="#F0A23B"></circle><circle cx="398.58" cy="165.42" r="2.6" fill="#F0A23B"></circle><circle cx="407.6" cy="161.66" r="2.6" fill="#F0A23B"></circle><circle cx="416.62" cy="163.65" r="2.6" fill="#F0A23B"></circle><circle cx="425.63" cy="169.01" r="2.6" fill="#F0A23B"></circle><circle cx="434.65" cy="168.02" r="2.6" fill="#F0A23B"></circle><circle cx="443.66" cy="113.27" r="2.6" fill="#F0A23B"></circle><circle cx="452.68" cy="164.02" r="2.6" fill="#F0A23B"></circle><circle cx="461.69" cy="164.19" r="2.6" fill="#F0A23B"></circle><circle cx="470.71" cy="97.53" r="2.6" fill="#F0A23B"></circle><circle cx="479.72" cy="160.51" r="2.6" fill="#F0A23B"></circle><circle cx="488.74" cy="137.07" r="2.6" fill="#F0A23B"></circle><circle cx="497.75" cy="166.58" r="2.6" fill="#F0A23B"></circle><circle cx="506.77" cy="163.26" r="2.6" fill="#F0A23B"></circle><circle cx="515.78" cy="163.3" r="2.6" fill="#F0A23B"></circle><circle cx="524.8" cy="133.59" r="2.6" fill="#F0A23B"></circle><circle cx="533.82" cy="117.45" r="2.6" fill="#F0A23B"></circle><circle cx="542.83" cy="167.38" r="2.6" fill="#F0A23B"></circle><circle cx="551.85" cy="165.8" r="2.6" fill="#F0A23B"></circle><circle cx="560.86" cy="168.5" r="2.6" fill="#F0A23B"></circle><circle cx="569.88" cy="163.02" r="2.6" fill="#F0A23B"></circle><circle cx="578.89" cy="166.8" r="2.6" fill="#F0A23B"></circle><circle cx="587.91" cy="162.64" r="2.6" fill="#F0A23B"></circle><circle cx="596.92" cy="97.89" r="2.6" fill="#F0A23B"></circle><circle cx="605.94" cy="165.31" r="2.6" fill="#F0A23B"></circle><circle cx="614.95" cy="162.3" r="2.6" fill="#F0A23B"></circle><circle cx="623.97" cy="162.65" r="2.6" fill="#F0A23B"></circle><circle cx="632.98" cy="163.11" r="2.6" fill="#F0A23B"></circle><circle cx="642" cy="165.62" r="2.6" fill="#F0A23B"></circle><line x1="656" y1="27" x2="672" y2="27" stroke="#6366F1" stroke-width="3" stroke-linecap="round"></line><text x="678" y="30" font-size="11" font-weight="400" text-anchor="start" fill="#1f2328">deepseek</text><line x1="656" y1="47" x2="672" y2="47" stroke="#A371F7" stroke-width="3" stroke-linecap="round"></line><text x="678" y="50" font-size="11" font-weight="400" text-anchor="start" fill="#1f2328">llama</text><line x1="656" y1="67" x2="672" y2="67" stroke="#F0A23B" stroke-width="3" stroke-linecap="round"></line><text x="678" y="70" font-size="11" font-weight="400" text-anchor="start" fill="#1f2328">mistral</text></svg>
