<svg xmlns="http://www.w3.org/2000/svg" viewBox="0 0 760 348" width="760" height="348" role="img" aria-label="Cost per test by provider over runs — mistral highest, deepseek lowest" font-family="-apple-system,BlinkMacSystemFont,'Segoe UI',system-ui,sans-serif"><line x1="56" y1="306" x2="642" y2="306" stroke="#d8dee4" stroke-width="1"></line><text x="46" y="310" font-size="9.5" font-weight="400" text-anchor="end" fill="#656d76" font-family="ui-monospace,SFMono-Regular,Menlo,monospace">$0.000</text><line x1="56" y1="235" x2="642" y2="235" stroke="#d8dee4" stroke-width="1"></line><text x="46" y="239" font-size="9.5" font-weight="400" text-anchor="end" fill="#656d76" font-family="ui-monospace,SFMono-Regular,Menlo,monospace">$0.039</text><line x1="56" y1="164" x2="642" y2="164" stroke="#d8dee4" stroke-width="1"></line><text x="46" y="168" font-size="9.5" font-weight="400" text-anchor="end" fill="#656d76" font-family="ui-monospace,SFMono-Regular,Menlo,monospace">$0.079</text><line x1="56" y1="93" x2="642" y2="93" stroke="#d8dee4" stroke-width="1"></line><text x="46" y="97" font-size="9.5" font-weight="400" text-anchor="end" fill="#656d76" font-family="ui-monospace,SFMono-Regular,Menlo,monospace">$0.118</text><line x1="56" y1="22" x2="642" y2="22" stroke="#d8dee4" stroke-width="1"></line><text x="46" y="26" font-size="9.5" font-weight="400" text-anchor="end" fill="#656d76" font-family="ui-monospace,SFMono-Regular,Menlo,monospace">$0.158</text><text x="56" y="324" font-size="9.5" font-weight="400" text-anchor="middle" fill="#656d76" font-family="ui-monospace,SFMono-Regular,Menlo,monospace">06/06</text><text x="106.02" y="324" font-size="9.5" font-weight="400" text-anchor="middle" fill="#656d76" font-family="ui-monospace,SFMono-Regular,Menlo,monospace">06/08</text><text x="156.05" y="324" font-size="9.5" font-weight="400" text-anchor="middle" fill="#656d76" font-family="ui-monospace,SFMono-Regular,Menlo,monospace">06/09</text><text x="206.07" y="324" font-size="9.5" font-weight="400" text-anchor="middle" fill="#656d76" font-family="ui-monospace,SFMono-Regular,Menlo,monospace">06/10</text><text x="256.1" y="324" font-size="9.5" font-weight="400" text-anchor="middle" fill="#656d76" font-family="ui-monospace,SFMono-Regular,Menlo,monospace">06/14</text><text x="306.12" y="324" font-size="9.5" font-weight="400" text-anchor="middle" fill="#656d76" font-family="ui-monospace,SFMono-Regular,Menlo,monospace">06/15</text><text x="356.15" y="324" font-size="9.5" font-weight="400" text-anchor="middle" fill="#656d76" font-family="ui-monospace,SFMono-Regular,Menlo,monospace">06/16</text><text x="406.17" y="324" font-size="9.5" font-weight="400" text-anchor="middle" fill="#656d76" font-family="ui-monospace,SFMono-Regular,Menlo,monospace">06/18</text><text x="456.2" y="324" font-size="9.5" font-weight="400" text-anchor="middle" fill="#656d76" font-family="ui-monospace,SFMono-Regular,Menlo,monospace">06/20</text><text x="506.22" y="324" font-size="9.5" font-weight="400" text-anchor="middle" fill="#656d76" font-family="ui-monospace,SFMono-Regular,Menlo,monospace">06/22</text><text x="556.24" y="324" font-size="9.5" font-weight="400" text-anchor="middle" fill="#656d76" font-family="ui-monospace,SFMono-Regular,Menlo,monospace">06/23</text><text x="606.27" y="324" font-size="9.5" font-weight="400" text-anchor="middle" fill="#656d76" font-family="ui-monospace,SFMono-Regular,Menlo,monospace">06/24</text><text x="642" y="324" font-size="9.5" font-weight="400" text-anchor="middle" fill="#656d76" font-family="ui-monospace,SFMono-Regular,Menlo,monospace">06/25</text><polyline fill="none" stroke="#6366F1" stroke-width="2.4" stroke-linejoin="round" stroke-linecap="round" points="113.17,291.99 120.32,292.07 127.46,292.82 134.61,291.48 141.76,291.75 148.9,285.29 156.05,293.05 163.2,290.23 170.34,290.29 177.49,289.78 184.63,291.61 191.78,290.27 198.93,286.66 206.07,290.55 213.22,286.99 220.37,293.02 227.51,290.61 234.66,286.59 241.8,283.56 248.95,290.63 256.1,289.42 263.24,292.33 270.39,288.36 277.54,284.88 284.68,291.34 291.83,290.13 298.98,291.01 306.12,289.68 320.41,289.04 327.56,291.5 334.71,291.97 341.85,289.14 349,289.37 356.15,290.04 363.29,290.81 370.44,291.39 377.59,292 391.88,292.33 399.02,292.51 406.17,290.75 413.32,289.5 420.46,289.4 427.61,282.59 434.76,289.91 441.9,286.79 449.05,288.79 456.2,286.98 463.34,290.22 470.49,291.94 477.63,292.7 484.78,281.08 491.93,292.31 499.07,290.28 506.22,286.5 513.37,289 520.51,289.95 527.66,291.41 534.8,290.81 541.95,291 549.1,290.42 556.24,289.99 563.39,284.38 570.54,292.31 577.68,291.62 584.83,287.31 591.98,291.89 599.12,292.21 606.27,288.97 613.41,292.99 620.56,292.75 627.71,290.59 634.85,291.68 642,293.04"></polyline><circle cx="113.17" cy="291.99" r="2.6" fill="#6366F1"></circle><circle cx="120.32" cy="292.07" r="2.6" fill="#6366F1"></circle><circle cx="127.46" cy="292.82" r="2.6" fill="#6366F1"></circle><circle cx="134.61" cy="291.48" r="2.6" fill="#6366F1"></circle><circle cx="141.76" cy="291.75" r="2.6" fill="#6366F1"></circle><circle cx="148.9" cy="285.29" r="2.6" fill="#6366F1"></circle><circle cx="156.05" cy="293.05" r="2.6" fill="#6366F1"></circle><circle cx="163.2" cy="290.23" r="2.6" fill="#6366F1"></circle><circle cx="170.34" cy="290.29" r="2.6" fill="#6366F1"></circle><circle cx="177.49" cy="289.78" r="2.6" fill="#6366F1"></circle><circle cx="184.63" cy="291.61" r="2.6" fill="#6366F1"></circle><circle cx="191.78" cy="290.27" r="2.6" fill="#6366F1"></circle><circle cx="198.93" cy="286.66" r="2.6" fill="#6366F1"></circle><circle cx="206.07" cy="290.55" r="2.6" fill="#6366F1"></circle><circle cx="213.22" cy="286.99" r="2.6" fill="#6366F1"></circle><circle cx="220.37" cy="293.02" r="2.6" fill="#6366F1"></circle><circle cx="227.51" cy="290.61" r="2.6" fill="#6366F1"></circle><circle cx="234.66" cy="286.59" r="2.6" fill="#6366F1"></circle><circle cx="241.8" cy="283.56" r="2.6" fill="#6366F1"></circle><circle cx="248.95" cy="290.63" r="2.6" fill="#6366F1"></circle><circle cx="256.1" cy="289.42" r="2.6" fill="#6366F1"></circle><circle cx="263.24" cy="292.33" r="2.6" fill="#6366F1"></circle><circle cx="270.39" cy="288.36" r="2.6" fill="#6366F1"></circle><circle cx="277.54" cy="284.88" r="2.6" fill="#6366F1"></circle><circle cx="284.68" cy="291.34" r="2.6" fill="#6366F1"></circle><circle cx="291.83" cy="290.13" r="2.6" fill="#6366F1"></circle><circle cx="298.98" cy="291.01" r="2.6" fill="#6366F1"></circle><circle cx="306.12" cy="289.68" r="2.6" fill="#6366F1"></circle><circle cx="320.41" cy="289.04" r="2.6" fill="#6366F1"></circle><circle cx="327.56" cy="291.5" r="2.6" fill="#6366F1"></circle><circle cx="334.71" cy="291.97" r="2.6" fill="#6366F1"></circle><circle cx="341.85" cy="289.14" r="2.6" fill="#6366F1"></circle><circle cx="349" cy="289.37" r="2.6" fill="#6366F1"></circle><circle cx="356.15" cy="290.04" r="2.6" fill="#6366F1"></circle><circle cx="363.29" cy="290.81" r="2.6" fill="#6366F1"></circle><circle cx="370.44" cy="291.39" r="2.6" fill="#6366F1"></circle><circle cx="377.59" cy="292" r="2.6" fill="#6366F1"></circle><circle cx="391.88" cy="292.33" r="2.6" fill="#6366F1"></circle><circle cx="399.02" cy="292.51" r="2.6" fill="#6366F1"></circle><circle cx="406.17" cy="290.75" r="2.6" fill="#6366F1"></circle><circle cx="413.32" cy="289.5" r="2.6" fill="#6366F1"></circle><circle cx="420.46" cy="289.4" r="2.6" fill="#6366F1"></circle><circle cx="427.61" cy="282.59" r="2.6" fill="#6366F1"></circle><circle cx="434.76" cy="289.91" r="2.6" fill="#6366F1"></circle><circle cx="441.9" cy="286.79" r="2.6" fill="#6366F1"></circle><circle cx="449.05" cy="288.79" r="2.6" fill="#6366F1"></circle><circle cx="456.2" cy="286.98" r="2.6" fill="#6366F1"></circle><circle cx="463.34" cy="290.22" r="2.6" fill="#6366F1"></circle><circle cx="470.49" cy="291.94" r="2.6" fill="#6366F1"></circle><circle cx="477.63" cy="292.7" r="2.6" fill="#6366F1"></circle><circle cx="484.78" cy="281.08" r="2.6" fill="#6366F1"></circle><circle cx="491.93" cy="292.31" r="2.6" fill="#6366F1"></circle><circle cx="499.07" cy="290.28" r="2.6" fill="#6366F1"></circle><circle cx="506.22" cy="286.5" r="2.6" fill="#6366F1"></circle><circle cx="513.37" cy="289" r="2.6" fill="#6366F1"></circle><circle cx="520.51" cy="289.95" r="2.6" fill="#6366F1"></circle><circle cx="527.66" cy="291.41" r="2.6" fill="#6366F1"></circle><circle cx="534.8" cy="290.81" r="2.6" fill="#6366F1"></circle><circle cx="541.95" cy="291" r="2.6" fill="#6366F1"></circle><circle cx="549.1" cy="290.42" r="2.6" fill="#6366F1"></circle><circle cx="556.24" cy="289.99" r="2.6" fill="#6366F1"></circle><circle cx="563.39" cy="284.38" r="2.6" fill="#6366F1"></circle><circle cx="570.54" cy="292.31" r="2.6" fill="#6366F1"></circle><circle cx="577.68" cy="291.62" r="2.6" fill="#6366F1"></circle><circle cx="584.83" cy="287.31" r="2.6" fill="#6366F1"></circle><circle cx="591.98" cy="291.89" r="2.6" fill="#6366F1"></circle><circle cx="599.12" cy="292.21" r="2.6" fill="#6366F1"></circle><circle cx="606.27" cy="288.97" r="2.6" fill="#6366F1"></circle><circle cx="613.41" cy="292.99" r="2.6" fill="#6366F1"></circle><circle cx="620.56" cy="292.75" r="2.6" fill="#6366F1"></circle><circle cx="627.71" cy="290.59" r="2.6" fill="#6366F1"></circle><circle cx="634.85" cy="291.68" r="2.6" fill="#6366F1"></circle><circle cx="642" cy="293.04" r="2.6" fill="#6366F1"></circle><polyline fill="none" stroke="#A371F7" stroke-width="2.4" stroke-linejoin="round" stroke-linecap="round" points="56,226.25 63.15,237.88 70.29,241.73 77.44,223.38 84.59,231.64 91.73,243.09 98.88,237.81 106.02,230.14 113.17,233.83 120.32,241.12 127.46,233.75 134.61,230.9 141.76,235.83 148.9,217.13 156.05,237.29 163.2,230.7 170.34,240.49 177.49,241.09 184.63,218.17 191.78,232.28 198.93,201.8 206.07,239.78 213.22,242.88 220.37,229.56 227.51,227.31 234.66,231.21 241.8,233.26 248.95,230.48 256.1,240.31 263.24,235.36 270.39,231.03 277.54,237.98 284.68,242.74 291.83,217.94 298.98,237.38 306.12,239.39 320.41,216.58 327.56,239.81 334.71,230.21 349,230.86 356.15,240.78 363.29,241.27 370.44,237.28 377.59,234.45 384.73,237.03 391.88,237.6 399.02,235.95 406.17,225.98 413.32,230.74 420.46,232.09 427.61,238.44 434.76,233.93 441.9,237.36 449.05,236.2 463.34,238.07 470.49,232.58 484.78,227.45 491.93,236.55 499.07,232.02 506.22,240.47 513.37,213.84 520.51,238.7 527.66,238.88 534.8,241.18 541.95,233.39 549.1,234.63 556.24,239.11 570.54,240.21 577.68,229.42 584.83,240.04 591.98,237.25 599.12,239.83 606.27,241.26 613.41,237.1 620.56,241.25 627.71,240.26 634.85,198.8 642,231.57"></polyline><circle cx="56" cy="226.25" r="2.6" fill="#A371F7"></circle><circle cx="63.15" cy="237.88" r="2.6" fill="#A371F7"></circle><circle cx="70.29" cy="241.73" r="2.6" fill="#A371F7"></circle><circle cx="77.44" cy="223.38" r="2.6" fill="#A371F7"></circle><circle cx="84.59" cy="231.64" r="2.6" fill="#A371F7"></circle><circle cx="91.73" cy="243.09" r="2.6" fill="#A371F7"></circle><circle cx="98.88" cy="237.81" r="2.6" fill="#A371F7"></circle><circle cx="106.02" cy="230.14" r="2.6" fill="#A371F7"></circle><circle cx="113.17" cy="233.83" r="2.6" fill="#A371F7"></circle><circle cx="120.32" cy="241.12" r="2.6" fill="#A371F7"></circle><circle cx="127.46" cy="233.75" r="2.6" fill="#A371F7"></circle><circle cx="134.61" cy="230.9" r="2.6" fill="#A371F7"></circle><circle cx="141.76" cy="235.83" r="2.6" fill="#A371F7"></circle><circle cx="148.9" cy="217.13" r="2.6" fill="#A371F7"></circle><circle cx="156.05" cy="237.29" r="2.6" fill="#A371F7"></circle><circle cx="163.2" cy="230.7" r="2.6" fill="#A371F7"></circle><circle cx="170.34" cy="240.49" r="2.6" fill="#A371F7"></circle><circle cx="177.49" cy="241.09" r="2.6" fill="#A371F7"></circle><circle cx="184.63" cy="218.17" r="2.6" fill="#A371F7"></circle><circle cx="191.78" cy="232.28" r="2.6" fill="#A371F7"></circle><circle cx="198.93" cy="201.8" r="2.6" fill="#A371F7"></circle><circle cx="206.07" cy="239.78" r="2.6" fill="#A371F7"></circle><circle cx="213.22" cy="242.88" r="2.6" fill="#A371F7"></circle><circle cx="220.37" cy="229.56" r="2.6" fill="#A371F7"></circle><circle cx="227.51" cy="227.31" r="2.6" fill="#A371F7"></circle><circle cx="234.66" cy="231.21" r="2.6" fill="#A371F7"></circle><circle cx="241.8" cy="233.26" r="2.6" fill="#A371F7"></circle><circle cx="248.95" cy="230.48" r="2.6" fill="#A371F7"></circle><circle cx="256.1" cy="240.31" r="2.6" fill="#A371F7"></circle><circle cx="263.24" cy="235.36" r="2.6" fill="#A371F7"></circle><circle cx="270.39" cy="231.03" r="2.6" fill="#A371F7"></circle><circle cx="277.54" cy="237.98" r="2.6" fill="#A371F7"></circle><circle cx="284.68" cy="242.74" r="2.6" fill="#A371F7"></circle><circle cx="291.83" cy="217.94" r="2.6" fill="#A371F7"></circle><circle cx="298.98" cy="237.38" r="2.6" fill="#A371F7"></circle><circle cx="306.12" cy="239.39" r="2.6" fill="#A371F7"></circle><circle cx="320.41" cy="216.58" r="2.6" fill="#A371F7"></circle><circle cx="327.56" cy="239.81" r="2.6" fill="#A371F7"></circle><circle cx="334.71" cy="230.21" r="2.6" fill="#A371F7"></circle><circle cx="349" cy="230.86" r="2.6" fill="#A371F7"></circle><circle cx="356.15" cy="240.78" r="2.6" fill="#A371F7"></circle><circle cx="363.29" cy="241.27" r="2.6" fill="#A371F7"></circle><circle cx="370.44" cy="237.28" r="2.6" fill="#A371F7"></circle><circle cx="377.59" cy="234.45" r="2.6" fill="#A371F7"></circle><circle cx="384.73" cy="237.03" r="2.6" fill="#A371F7"></circle><circle cx="391.88" cy="237.6" r="2.6" fill="#A371F7"></circle><circle cx="399.02" cy="235.95" r="2.6" fill="#A371F7"></circle><circle cx="406.17" cy="225.98" r="2.6" fill="#A371F7"></circle><circle cx="413.32" cy="230.74" r="2.6" fill="#A371F7"></circle><circle cx="420.46" cy="232.09" r="2.6" fill="#A371F7"></circle><circle cx="427.61" cy="238.44" r="2.6" fill="#A371F7"></circle><circle cx="434.76" cy="233.93" r="2.6" fill="#A371F7"></circle><circle cx="441.9" cy="237.36" r="2.6" fill="#A371F7"></circle><circle cx="449.05" cy="236.2" r="2.6" fill="#A371F7"></circle><circle cx="463.34" cy="238.07" r="2.6" fill="#A371F7"></circle><circle cx="470.49" cy="232.58" r="2.6" fill="#A371F7"></circle><circle cx="484.78" cy="227.45" r="2.6" fill="#A371F7"></circle><circle cx="491.93" cy="236.55" r="2.6" fill="#A371F7"></circle><circle cx="499.07" cy="232.02" r="2.6" fill="#A371F7"></circle><circle cx="506.22" cy="240.47" r="2.6" fill="#A371F7"></circle><circle cx="513.37" cy="213.84" r="2.6" fill="#A371F7"></circle><circle cx="520.51" cy="238.7" r="2.6" fill="#A371F7"></circle><circle cx="527.66" cy="238.88" r="2.6" fill="#A371F7"></circle><circle cx="534.8" cy="241.18" r="2.6" fill="#A371F7"></circle><circle cx="541.95" cy="233.39" r="2.6" fill="#A371F7"></circle><circle cx="549.1" cy="234.63" r="2.6" fill="#A371F7"></circle><circle cx="556.24" cy="239.11" r="2.6" fill="#A371F7"></circle><circle cx="570.54" cy="240.21" r="2.6" fill="#A371F7"></circle><circle cx="577.68" cy="229.42" r="2.6" fill="#A371F7"></circle><circle cx="584.83" cy="240.04" r="2.6" fill="#A371F7"></circle><circle cx="591.98" cy="237.25" r="2.6" fill="#A371F7"></circle><circle cx="599.12" cy="239.83" r="2.6" fill="#A371F7"></circle><circle cx="606.27" cy="241.26" r="2.6" fill="#A371F7"></circle><circle cx="613.41" cy="237.1" r="2.6" fill="#A371F7"></circle><circle cx="620.56" cy="241.25" r="2.6" fill="#A371F7"></circle><circle cx="627.71" cy="240.26" r="2.6" fill="#A371F7"></circle><circle cx="634.85" cy="198.8" r="2.6" fill="#A371F7"></circle><circle cx="642" cy="231.57" r="2.6" fill="#A371F7"></circle><polyline fill="none" stroke="#F0A23B" stroke-width="2.4" stroke-linejoin="round" stroke-linecap="round" points="56,162.13 63.15,151.29 70.29,72.27 77.44,170.58 84.59,165.15 91.73,168.63 98.88,155.58 106.02,155.2 113.17,151.03 120.32,159.37 127.46,151 134.61,152 141.76,154.31 148.9,162.54 156.05,145.36 163.2,160.82 170.34,153.52 177.49,158.63 184.63,172.35 191.78,162.23 198.93,168.2 206.07,164.28 213.22,98 220.37,164.92 227.51,167.19 234.66,163.76 241.8,165.84 248.95,134.6 256.1,163 263.24,144.13 270.39,165.52 277.54,134.8 284.68,167.11 291.83,166.07 298.98,54.66 306.12,77.46 313.27,164.62 320.41,166.72 327.56,166.65 334.71,162.93 341.85,164.9 349,170.21 356.15,169.23 363.29,114.96 370.44,165.27 377.59,165.44 384.73,99.36 391.88,161.79 399.02,138.56 406.17,167.81 413.32,164.51 420.46,164.55 427.61,135.11 434.76,119.1 441.9,168.6 449.05,167.03 456.2,169.7 463.34,164.27 470.49,168.02 477.63,163.89 484.78,99.72 491.93,166.55 499.07,163.57 506.22,163.91 513.37,164.36 520.51,166.86 527.66,166.95 534.8,52.43 541.95,166.52 549.1,165.82 556.24,164.59 570.54,164.21 577.68,164.24 584.83,161.69 591.98,156.02 599.12,164.92 606.27,166.5 613.41,158.67 620.56,169.13 627.71,164.89 634.85,168.19 642,134.69"></polyline><circle cx="56" cy="162.13" r="2.6" fill="#F0A23B"></circle><circle cx="63.15" cy="151.29" r="2.6" fill="#F0A23B"></circle><circle cx="70.29" cy="72.27" r="2.6" fill="#F0A23B"></circle><circle cx="77.44" cy="170.58" r="2.6" fill="#F0A23B"></circle><circle cx="84.59" cy="165.15" r="2.6" fill="#F0A23B"></circle><circle cx="91.73" cy="168.63" r="2.6" fill="#F0A23B"></circle><circle cx="98.88" cy="155.58" r="2.6" fill="#F0A23B"></circle><circle cx="106.02" cy="155.2" r="2.6" fill="#F0A23B"></circle><circle cx="113.17" cy="151.03" r="2.6" fill="#F0A23B"></circle><circle cx="120.32" cy="159.37" r="2.6" fill="#F0A23B"></circle><circle cx="127.46" cy="151" r="2.6" fill="#F0A23B"></circle><circle cx="134.61" cy="152" r="2.6" fill="#F0A23B"></circle><circle cx="141.76" cy="154.31" r="2.6" fill="#F0A23B"></circle><circle cx="148.9" cy="162.54" r="2.6" fill="#F0A23B"></circle><circle cx="156.05" cy="145.36" r="2.6" fill="#F0A23B"></circle><circle cx="163.2" cy="160.82" r="2.6" fill="#F0A23B"></circle><circle cx="170.34" cy="153.52" r="2.6" fill="#F0A23B"></circle><circle cx="177.49" cy="158.63" r="2.6" fill="#F0A23B"></circle><circle cx="184.63" cy="172.35" r="2.6" fill="#F0A23B"></circle><circle cx="191.78" cy="162.23" r="2.6" fill="#F0A23B"></circle><circle cx="198.93" cy="168.2" r="2.6" fill="#F0A23B"></circle><circle cx="206.07" cy="164.28" r="2.6" fill="#F0A23B"></circle><circle cx="213.22" cy="98" r="2.6" fill="#F0A23B"></circle><circle cx="220.37" cy="164.92" r="2.6" fill="#F0A23B"></circle><circle cx="227.51" cy="167.19" r="2.6" fill="#F0A23B"></circle><circle cx="234.66" cy="163.76" r="2.6" fill="#F0A23B"></circle><circle cx="241.8" cy="165.84" r="2.6" fill="#F0A23B"></circle><circle cx="248.95" cy="134.6" r="2.6" fill="#F0A23B"></circle><circle cx="256.1" cy="163" r="2.6" fill="#F0A23B"></circle><circle cx="263.24" cy="144.13" r="2.6" fill="#F0A23B"></circle><circle cx="270.39" cy="165.52" r="2.6" fill="#F0A23B"></circle><circle cx="277.54" cy="134.8" r="2.6" fill="#F0A23B"></circle><circle cx="284.68" cy="167.11" r="2.6" fill="#F0A23B"></circle><circle cx="291.83" cy="166.07" r="2.6" fill="#F0A23B"></circle><circle cx="298.98" cy="54.66" r="2.6" fill="#F0A23B"></circle><circle cx="306.12" cy="77.46" r="2.6" fill="#F0A23B"></circle><circle cx="313.27" cy="164.62" r="2.6" fill="#F0A23B"></circle><circle cx="320.41" cy="166.72" r="2.6" fill="#F0A23B"></circle><circle cx="327.56" cy="166.65" r="2.6" fill="#F0A23B"></circle><circle cx="334.71" cy="162.93" r="2.6" fill="#F0A23B"></circle><circle cx="341.85" cy="164.9" r="2.6" fill="#F0A23B"></circle><circle cx="349" cy="170.21" r="2.6" fill="#F0A23B"></circle><circle cx="356.15" cy="169.23" r="2.6" fill="#F0A23B"></circle><circle cx="363.29" cy="114.96" r="2.6" fill="#F0A23B"></circle><circle cx="370.44" cy="165.27" r="2.6" fill="#F0A23B"></circle><circle cx="377.59" cy="165.44" r="2.6" fill="#F0A23B"></circle><circle cx="384.73" cy="99.36" r="2.6" fill="#F0A23B"></circle><circle cx="391.88" cy="161.79" r="2.6" fill="#F0A23B"></circle><circle cx="399.02" cy="138.56" r="2.6" fill="#F0A23B"></circle><circle cx="406.17" cy="167.81" r="2.6" fill="#F0A23B"></circle><circle cx="413.32" cy="164.51" r="2.6" fill="#F0A23B"></circle><circle cx="420.46" cy="164.55" r="2.6" fill="#F0A23B"></circle><circle cx="427.61" cy="135.11" r="2.6" fill="#F0A23B"></circle><circle cx="434.76" cy="119.1" r="2.6" fill="#F0A23B"></circle><circle cx="441.9" cy="168.6" r="2.6" fill="#F0A23B"></circle><circle cx="449.05" cy="167.03" r="2.6" fill="#F0A23B"></circle><circle cx="456.2" cy="169.7" r="2.6" fill="#F0A23B"></circle><circle cx="463.34" cy="164.27" r="2.6" fill="#F0A23B"></circle><circle cx="470.49" cy="168.02" r="2.6" fill="#F0A23B"></circle><circle cx="477.63" cy="163.89" r="2.6" fill="#F0A23B"></circle><circle cx="484.78" cy="99.72" r="2.6" fill="#F0A23B"></circle><circle cx="491.93" cy="166.55" r="2.6" fill="#F0A23B"></circle><circle cx="499.07" cy="163.57" r="2.6" fill="#F0A23B"></circle><circle cx="506.22" cy="163.91" r="2.6" fill="#F0A23B"></circle><circle cx="513.37" cy="164.36" r="2.6" fill="#F0A23B"></circle><circle cx="520.51" cy="166.86" r="2.6" fill="#F0A23B"></circle><circle cx="527.66" cy="166.95" r="2.6" fill="#F0A23B"></circle><circle cx="534.8" cy="52.43" r="2.6" fill="#F0A23B"></circle><circle cx="541.95" cy="166.52" r="2.6" fill="#F0A23B"></circle><circle cx="549.1" cy="165.82" r="2.6" fill="#F0A23B"></circle><circle cx="556.24" cy="164.59" r="2.6" fill="#F0A23B"></circle><circle cx="570.54" cy="164.21" r="2.6" fill="#F0A23B"></circle><circle cx="577.68" cy="164.24" r="2.6" fill="#F0A23B"></circle><circle cx="584.83" cy="161.69" r="2.6" fill="#F0A23B"></circle><circle cx="591.98" cy="156.02" r="2.6" fill="#F0A23B"></circle><circle cx="599.12" cy="164.92" r="2.6" fill="#F0A23B"></circle><circle cx="606.27" cy="166.5" r="2.6" fill="#F0A23B"></circle><circle cx="613.41" cy="158.67" r="2.6" fill="#F0A23B"></circle><circle cx="620.56" cy="169.13" r="2.6" fill="#F0A23B"></circle><circle cx="627.71" cy="164.89" r="2.6" fill="#F0A23B"></circle><circle cx="634.85" cy="168.19" r="2.6" fill="#F0A23B"></circle><circle cx="642" cy="134.69" r="2.6" fill="#F0A23B"></circle><line x1="656" y1="27" x2="672" y2="27" stroke="#6366F1" stroke-width="3" stroke-linecap="round"></line><text x="678" y="30" font-size="11" font-weight="400" text-anchor="start" fill="#1f2328">deepseek</text><line x1="656" y1="47" x2="672" y2="47" stroke="#A371F7" stroke-width="3" stroke-linecap="round"></line><text x="678" y="50" font-size="11" font-weight="400" text-anchor="start" fill="#1f2328">llama</text><line x1="656" y1="67" x2="672" y2="67" stroke="#F0A23B" stroke-width="3" stroke-linecap="round"></line><text x="678" y="70" font-size="11" font-weight="400" text-anchor="start" fill="#1f2328">mistral</text></svg>
