<svg xmlns="http://www.w3.org/2000/svg" viewBox="0 0 760 348" width="760" height="348" role="img" aria-label="Cost per test by provider over runs — mistral highest, deepseek lowest" font-family="-apple-system,BlinkMacSystemFont,'Segoe UI',system-ui,sans-serif"><line x1="56" y1="306" x2="642" y2="306" stroke="#d8dee4" stroke-width="1"></line><text x="46" y="310" font-size="9.5" font-weight="400" text-anchor="end" fill="#656d76" font-family="ui-monospace,SFMono-Regular,Menlo,monospace">$0.000</text><line x1="56" y1="235" x2="642" y2="235" stroke="#d8dee4" stroke-width="1"></line><text x="46" y="239" font-size="9.5" font-weight="400" text-anchor="end" fill="#656d76" font-family="ui-monospace,SFMono-Regular,Menlo,monospace">$0.039</text><line x1="56" y1="164" x2="642" y2="164" stroke="#d8dee4" stroke-width="1"></line><text x="46" y="168" font-size="9.5" font-weight="400" text-anchor="end" fill="#656d76" font-family="ui-monospace,SFMono-Regular,Menlo,monospace">$0.079</text><line x1="56" y1="93" x2="642" y2="93" stroke="#d8dee4" stroke-width="1"></line><text x="46" y="97" font-size="9.5" font-weight="400" text-anchor="end" fill="#656d76" font-family="ui-monospace,SFMono-Regular,Menlo,monospace">$0.118</text><line x1="56" y1="22" x2="642" y2="22" stroke="#d8dee4" stroke-width="1"></line><text x="46" y="26" font-size="9.5" font-weight="400" text-anchor="end" fill="#656d76" font-family="ui-monospace,SFMono-Regular,Menlo,monospace">$0.158</text><text x="56" y="324" font-size="9.5" font-weight="400" text-anchor="middle" fill="#656d76" font-family="ui-monospace,SFMono-Regular,Menlo,monospace">06/06</text><text x="112.97" y="324" font-size="9.5" font-weight="400" text-anchor="middle" fill="#656d76" font-family="ui-monospace,SFMono-Regular,Menlo,monospace">06/08</text><text x="169.94" y="324" font-size="9.5" font-weight="400" text-anchor="middle" fill="#656d76" font-family="ui-monospace,SFMono-Regular,Menlo,monospace">06/09</text><text x="226.92" y="324" font-size="9.5" font-weight="400" text-anchor="middle" fill="#656d76" font-family="ui-monospace,SFMono-Regular,Menlo,monospace">06/10</text><text x="283.89" y="324" font-size="9.5" font-weight="400" text-anchor="middle" fill="#656d76" font-family="ui-monospace,SFMono-Regular,Menlo,monospace">06/14</text><text x="340.86" y="324" font-size="9.5" font-weight="400" text-anchor="middle" fill="#656d76" font-family="ui-monospace,SFMono-Regular,Menlo,monospace">06/15</text><text x="397.83" y="324" font-size="9.5" font-weight="400" text-anchor="middle" fill="#656d76" font-family="ui-monospace,SFMono-Regular,Menlo,monospace">06/16</text><text x="454.81" y="324" font-size="9.5" font-weight="400" text-anchor="middle" fill="#656d76" font-family="ui-monospace,SFMono-Regular,Menlo,monospace">06/18</text><text x="511.78" y="324" font-size="9.5" font-weight="400" text-anchor="middle" fill="#656d76" font-family="ui-monospace,SFMono-Regular,Menlo,monospace">06/20</text><text x="568.75" y="324" font-size="9.5" font-weight="400" text-anchor="middle" fill="#656d76" font-family="ui-monospace,SFMono-Regular,Menlo,monospace">06/22</text><text x="625.72" y="324" font-size="9.5" font-weight="400" text-anchor="middle" fill="#656d76" font-family="ui-monospace,SFMono-Regular,Menlo,monospace">06/23</text><text x="642" y="324" font-size="9.5" font-weight="400" text-anchor="middle" fill="#656d76" font-family="ui-monospace,SFMono-Regular,Menlo,monospace">06/24</text><polyline fill="none" stroke="#6366F1" stroke-width="2.4" stroke-linejoin="round" stroke-linecap="round" points="121.11,291.99 129.25,292.07 137.39,292.82 145.53,291.48 153.67,291.75 161.81,285.29 169.94,293.05 178.08,290.23 186.22,290.29 194.36,289.78 202.5,291.61 210.64,290.27 218.78,286.66 226.92,290.55 235.06,286.99 243.19,293.02 251.33,290.61 259.47,286.59 267.61,283.56 275.75,290.63 283.89,289.42 292.03,292.33 300.17,288.36 308.31,284.88 316.44,291.34 324.58,290.13 332.72,291.01 340.86,289.68 357.14,289.04 365.28,291.5 373.42,291.97 381.56,289.14 389.69,289.37 397.83,290.04 405.97,290.81 414.11,291.39 422.25,292 438.53,292.33 446.67,292.51 454.81,290.75 462.94,289.5 471.08,289.4 479.22,282.59 487.36,289.91 495.5,286.79 503.64,288.79 511.78,286.98 519.92,290.22 528.06,291.94 536.19,292.7 544.33,281.08 552.47,292.31 560.61,290.28 568.75,286.5 576.89,289 585.03,289.95 593.17,291.41 601.31,290.81 609.44,291 617.58,290.42 625.72,289.99 633.86,284.38 642,292.31"></polyline><circle cx="121.11" cy="291.99" r="2.6" fill="#6366F1"></circle><circle cx="129.25" cy="292.07" r="2.6" fill="#6366F1"></circle><circle cx="137.39" cy="292.82" r="2.6" fill="#6366F1"></circle><circle cx="145.53" cy="291.48" r="2.6" fill="#6366F1"></circle><circle cx="153.67" cy="291.75" r="2.6" fill="#6366F1"></circle><circle cx="161.81" cy="285.29" r="2.6" fill="#6366F1"></circle><circle cx="169.94" cy="293.05" r="2.6" fill="#6366F1"></circle><circle cx="178.08" cy="290.23" r="2.6" fill="#6366F1"></circle><circle cx="186.22" cy="290.29" r="2.6" fill="#6366F1"></circle><circle cx="194.36" cy="289.78" r="2.6" fill="#6366F1"></circle><circle cx="202.5" cy="291.61" r="2.6" fill="#6366F1"></circle><circle cx="210.64" cy="290.27" r="2.6" fill="#6366F1"></circle><circle cx="218.78" cy="286.66" r="2.6" fill="#6366F1"></circle><circle cx="226.92" cy="290.55" r="2.6" fill="#6366F1"></circle><circle cx="235.06" cy="286.99" r="2.6" fill="#6366F1"></circle><circle cx="243.19" cy="293.02" r="2.6" fill="#6366F1"></circle><circle cx="251.33" cy="290.61" r="2.6" fill="#6366F1"></circle><circle cx="259.47" cy="286.59" r="2.6" fill="#6366F1"></circle><circle cx="267.61" cy="283.56" r="2.6" fill="#6366F1"></circle><circle cx="275.75" cy="290.63" r="2.6" fill="#6366F1"></circle><circle cx="283.89" cy="289.42" r="2.6" fill="#6366F1"></circle><circle cx="292.03" cy="292.33" r="2.6" fill="#6366F1"></circle><circle cx="300.17" cy="288.36" r="2.6" fill="#6366F1"></circle><circle cx="308.31" cy="284.88" r="2.6" fill="#6366F1"></circle><circle cx="316.44" cy="291.34" r="2.6" fill="#6366F1"></circle><circle cx="324.58" cy="290.13" r="2.6" fill="#6366F1"></circle><circle cx="332.72" cy="291.01" r="2.6" fill="#6366F1"></circle><circle cx="340.86" cy="289.68" r="2.6" fill="#6366F1"></circle><circle cx="357.14" cy="289.04" r="2.6" fill="#6366F1"></circle><circle cx="365.28" cy="291.5" r="2.6" fill="#6366F1"></circle><circle cx="373.42" cy="291.97" r="2.6" fill="#6366F1"></circle><circle cx="381.56" cy="289.14" r="2.6" fill="#6366F1"></circle><circle cx="389.69" cy="289.37" r="2.6" fill="#6366F1"></circle><circle cx="397.83" cy="290.04" r="2.6" fill="#6366F1"></circle><circle cx="405.97" cy="290.81" r="2.6" fill="#6366F1"></circle><circle cx="414.11" cy="291.39" r="2.6" fill="#6366F1"></circle><circle cx="422.25" cy="292" r="2.6" fill="#6366F1"></circle><circle cx="438.53" cy="292.33" r="2.6" fill="#6366F1"></circle><circle cx="446.67" cy="292.51" r="2.6" fill="#6366F1"></circle><circle cx="454.81" cy="290.75" r="2.6" fill="#6366F1"></circle><circle cx="462.94" cy="289.5" r="2.6" fill="#6366F1"></circle><circle cx="471.08" cy="289.4" r="2.6" fill="#6366F1"></circle><circle cx="479.22" cy="282.59" r="2.6" fill="#6366F1"></circle><circle cx="487.36" cy="289.91" r="2.6" fill="#6366F1"></circle><circle cx="495.5" cy="286.79" r="2.6" fill="#6366F1"></circle><circle cx="503.64" cy="288.79" r="2.6" fill="#6366F1"></circle><circle cx="511.78" cy="286.98" r="2.6" fill="#6366F1"></circle><circle cx="519.92" cy="290.22" r="2.6" fill="#6366F1"></circle><circle cx="528.06" cy="291.94" r="2.6" fill="#6366F1"></circle><circle cx="536.19" cy="292.7" r="2.6" fill="#6366F1"></circle><circle cx="544.33" cy="281.08" r="2.6" fill="#6366F1"></circle><circle cx="552.47" cy="292.31" r="2.6" fill="#6366F1"></circle><circle cx="560.61" cy="290.28" r="2.6" fill="#6366F1"></circle><circle cx="568.75" cy="286.5" r="2.6" fill="#6366F1"></circle><circle cx="576.89" cy="289" r="2.6" fill="#6366F1"></circle><circle cx="585.03" cy="289.95" r="2.6" fill="#6366F1"></circle><circle cx="593.17" cy="291.41" r="2.6" fill="#6366F1"></circle><circle cx="601.31" cy="290.81" r="2.6" fill="#6366F1"></circle><circle cx="609.44" cy="291" r="2.6" fill="#6366F1"></circle><circle cx="617.58" cy="290.42" r="2.6" fill="#6366F1"></circle><circle cx="625.72" cy="289.99" r="2.6" fill="#6366F1"></circle><circle cx="633.86" cy="284.38" r="2.6" fill="#6366F1"></circle><circle cx="642" cy="292.31" r="2.6" fill="#6366F1"></circle><polyline fill="none" stroke="#A371F7" stroke-width="2.4" stroke-linejoin="round" stroke-linecap="round" points="56,226.25 64.14,237.88 72.28,241.73 80.42,223.38 88.56,231.64 96.69,243.09 104.83,237.81 112.97,230.14 121.11,233.83 129.25,241.12 137.39,233.75 145.53,230.9 153.67,235.83 161.81,217.13 169.94,237.29 178.08,230.7 186.22,240.49 194.36,241.09 202.5,218.17 210.64,232.28 218.78,201.8 226.92,239.78 235.06,242.88 243.19,229.56 251.33,227.31 259.47,231.21 267.61,233.26 275.75,230.48 283.89,240.31 292.03,235.36 300.17,231.03 308.31,237.98 316.44,242.74 324.58,217.94 332.72,237.38 340.86,239.39 357.14,216.58 365.28,239.81 373.42,230.21 389.69,230.86 397.83,240.78 405.97,241.27 414.11,237.28 422.25,234.45 430.39,237.03 438.53,237.6 446.67,235.95 454.81,225.98 462.94,230.74 471.08,232.09 479.22,238.44 487.36,233.93 495.5,237.36 503.64,236.2 519.92,238.07 528.06,232.58 544.33,227.45 552.47,236.55 560.61,232.02 568.75,240.47 576.89,213.84 585.03,238.7 593.17,238.88 601.31,241.18 609.44,233.39 617.58,234.63 625.72,239.11 642,240.21"></polyline><circle cx="56" cy="226.25" r="2.6" fill="#A371F7"></circle><circle cx="64.14" cy="237.88" r="2.6" fill="#A371F7"></circle><circle cx="72.28" cy="241.73" r="2.6" fill="#A371F7"></circle><circle cx="80.42" cy="223.38" r="2.6" fill="#A371F7"></circle><circle cx="88.56" cy="231.64" r="2.6" fill="#A371F7"></circle><circle cx="96.69" cy="243.09" r="2.6" fill="#A371F7"></circle><circle cx="104.83" cy="237.81" r="2.6" fill="#A371F7"></circle><circle cx="112.97" cy="230.14" r="2.6" fill="#A371F7"></circle><circle cx="121.11" cy="233.83" r="2.6" fill="#A371F7"></circle><circle cx="129.25" cy="241.12" r="2.6" fill="#A371F7"></circle><circle cx="137.39" cy="233.75" r="2.6" fill="#A371F7"></circle><circle cx="145.53" cy="230.9" r="2.6" fill="#A371F7"></circle><circle cx="153.67" cy="235.83" r="2.6" fill="#A371F7"></circle><circle cx="161.81" cy="217.13" r="2.6" fill="#A371F7"></circle><circle cx="169.94" cy="237.29" r="2.6" fill="#A371F7"></circle><circle cx="178.08" cy="230.7" r="2.6" fill="#A371F7"></circle><circle cx="186.22" cy="240.49" r="2.6" fill="#A371F7"></circle><circle cx="194.36" cy="241.09" r="2.6" fill="#A371F7"></circle><circle cx="202.5" cy="218.17" r="2.6" fill="#A371F7"></circle><circle cx="210.64" cy="232.28" r="2.6" fill="#A371F7"></circle><circle cx="218.78" cy="201.8" r="2.6" fill="#A371F7"></circle><circle cx="226.92" cy="239.78" r="2.6" fill="#A371F7"></circle><circle cx="235.06" cy="242.88" r="2.6" fill="#A371F7"></circle><circle cx="243.19" cy="229.56" r="2.6" fill="#A371F7"></circle><circle cx="251.33" cy="227.31" r="2.6" fill="#A371F7"></circle><circle cx="259.47" cy="231.21" r="2.6" fill="#A371F7"></circle><circle cx="267.61" cy="233.26" r="2.6" fill="#A371F7"></circle><circle cx="275.75" cy="230.48" r="2.6" fill="#A371F7"></circle><circle cx="283.89" cy="240.31" r="2.6" fill="#A371F7"></circle><circle cx="292.03" cy="235.36" r="2.6" fill="#A371F7"></circle><circle cx="300.17" cy="231.03" r="2.6" fill="#A371F7"></circle><circle cx="308.31" cy="237.98" r="2.6" fill="#A371F7"></circle><circle cx="316.44" cy="242.74" r="2.6" fill="#A371F7"></circle><circle cx="324.58" cy="217.94" r="2.6" fill="#A371F7"></circle><circle cx="332.72" cy="237.38" r="2.6" fill="#A371F7"></circle><circle cx="340.86" cy="239.39" r="2.6" fill="#A371F7"></circle><circle cx="357.14" cy="216.58" r="2.6" fill="#A371F7"></circle><circle cx="365.28" cy="239.81" r="2.6" fill="#A371F7"></circle><circle cx="373.42" cy="230.21" r="2.6" fill="#A371F7"></circle><circle cx="389.69" cy="230.86" r="2.6" fill="#A371F7"></circle><circle cx="397.83" cy="240.78" r="2.6" fill="#A371F7"></circle><circle cx="405.97" cy="241.27" r="2.6" fill="#A371F7"></circle><circle cx="414.11" cy="237.28" r="2.6" fill="#A371F7"></circle><circle cx="422.25" cy="234.45" r="2.6" fill="#A371F7"></circle><circle cx="430.39" cy="237.03" r="2.6" fill="#A371F7"></circle><circle cx="438.53" cy="237.6" r="2.6" fill="#A371F7"></circle><circle cx="446.67" cy="235.95" r="2.6" fill="#A371F7"></circle><circle cx="454.81" cy="225.98" r="2.6" fill="#A371F7"></circle><circle cx="462.94" cy="230.74" r="2.6" fill="#A371F7"></circle><circle cx="471.08" cy="232.09" r="2.6" fill="#A371F7"></circle><circle cx="479.22" cy="238.44" r="2.6" fill="#A371F7"></circle><circle cx="487.36" cy="233.93" r="2.6" fill="#A371F7"></circle><circle cx="495.5" cy="237.36" r="2.6" fill="#A371F7"></circle><circle cx="503.64" cy="236.2" r="2.6" fill="#A371F7"></circle><circle cx="519.92" cy="238.07" r="2.6" fill="#A371F7"></circle><circle cx="528.06" cy="232.58" r="2.6" fill="#A371F7"></circle><circle cx="544.33" cy="227.45" r="2.6" fill="#A371F7"></circle><circle cx="552.47" cy="236.55" r="2.6" fill="#A371F7"></circle><circle cx="560.61" cy="232.02" r="2.6" fill="#A371F7"></circle><circle cx="568.75" cy="240.47" r="2.6" fill="#A371F7"></circle><circle cx="576.89" cy="213.84" r="2.6" fill="#A371F7"></circle><circle cx="585.03" cy="238.7" r="2.6" fill="#A371F7"></circle><circle cx="593.17" cy="238.88" r="2.6" fill="#A371F7"></circle><circle cx="601.31" cy="241.18" r="2.6" fill="#A371F7"></circle><circle cx="609.44" cy="233.39" r="2.6" fill="#A371F7"></circle><circle cx="617.58" cy="234.63" r="2.6" fill="#A371F7"></circle><circle cx="625.72" cy="239.11" r="2.6" fill="#A371F7"></circle><circle cx="642" cy="240.21" r="2.6" fill="#A371F7"></circle><polyline fill="none" stroke="#F0A23B" stroke-width="2.4" stroke-linejoin="round" stroke-linecap="round" points="56,162.13 64.14,151.29 72.28,72.27 80.42,170.58 88.56,165.15 96.69,168.63 104.83,155.58 112.97,155.2 121.11,151.03 129.25,159.37 137.39,151 145.53,152 153.67,154.31 161.81,162.54 169.94,145.36 178.08,160.82 186.22,153.52 194.36,158.63 202.5,172.35 210.64,162.23 218.78,168.2 226.92,164.28 235.06,98 243.19,164.92 251.33,167.19 259.47,163.76 267.61,165.84 275.75,134.6 283.89,163 292.03,144.13 300.17,165.52 308.31,134.8 316.44,167.11 324.58,166.07 332.72,54.66 340.86,77.46 349,164.62 357.14,166.72 365.28,166.65 373.42,162.93 381.56,164.9 389.69,170.21 397.83,169.23 405.97,114.96 414.11,165.27 422.25,165.44 430.39,99.36 438.53,161.79 446.67,138.56 454.81,167.81 462.94,164.51 471.08,164.55 479.22,135.11 487.36,119.1 495.5,168.6 503.64,167.03 511.78,169.7 519.92,164.27 528.06,168.02 536.19,163.89 544.33,99.72 552.47,166.55 560.61,163.57 568.75,163.91 576.89,164.36 585.03,166.86 593.17,166.95 601.31,52.43 609.44,166.52 617.58,165.82 625.72,164.59 642,164.21"></polyline><circle cx="56" cy="162.13" r="2.6" fill="#F0A23B"></circle><circle cx="64.14" cy="151.29" r="2.6" fill="#F0A23B"></circle><circle cx="72.28" cy="72.27" r="2.6" fill="#F0A23B"></circle><circle cx="80.42" cy="170.58" r="2.6" fill="#F0A23B"></circle><circle cx="88.56" cy="165.15" r="2.6" fill="#F0A23B"></circle><circle cx="96.69" cy="168.63" r="2.6" fill="#F0A23B"></circle><circle cx="104.83" cy="155.58" r="2.6" fill="#F0A23B"></circle><circle cx="112.97" cy="155.2" r="2.6" fill="#F0A23B"></circle><circle cx="121.11" cy="151.03" r="2.6" fill="#F0A23B"></circle><circle cx="129.25" cy="159.37" r="2.6" fill="#F0A23B"></circle><circle cx="137.39" cy="151" r="2.6" fill="#F0A23B"></circle><circle cx="145.53" cy="152" r="2.6" fill="#F0A23B"></circle><circle cx="153.67" cy="154.31" r="2.6" fill="#F0A23B"></circle><circle cx="161.81" cy="162.54" r="2.6" fill="#F0A23B"></circle><circle cx="169.94" cy="145.36" r="2.6" fill="#F0A23B"></circle><circle cx="178.08" cy="160.82" r="2.6" fill="#F0A23B"></circle><circle cx="186.22" cy="153.52" r="2.6" fill="#F0A23B"></circle><circle cx="194.36" cy="158.63" r="2.6" fill="#F0A23B"></circle><circle cx="202.5" cy="172.35" r="2.6" fill="#F0A23B"></circle><circle cx="210.64" cy="162.23" r="2.6" fill="#F0A23B"></circle><circle cx="218.78" cy="168.2" r="2.6" fill="#F0A23B"></circle><circle cx="226.92" cy="164.28" r="2.6" fill="#F0A23B"></circle><circle cx="235.06" cy="98" r="2.6" fill="#F0A23B"></circle><circle cx="243.19" cy="164.92" r="2.6" fill="#F0A23B"></circle><circle cx="251.33" cy="167.19" r="2.6" fill="#F0A23B"></circle><circle cx="259.47" cy="163.76" r="2.6" fill="#F0A23B"></circle><circle cx="267.61" cy="165.84" r="2.6" fill="#F0A23B"></circle><circle cx="275.75" cy="134.6" r="2.6" fill="#F0A23B"></circle><circle cx="283.89" cy="163" r="2.6" fill="#F0A23B"></circle><circle cx="292.03" cy="144.13" r="2.6" fill="#F0A23B"></circle><circle cx="300.17" cy="165.52" r="2.6" fill="#F0A23B"></circle><circle cx="308.31" cy="134.8" r="2.6" fill="#F0A23B"></circle><circle cx="316.44" cy="167.11" r="2.6" fill="#F0A23B"></circle><circle cx="324.58" cy="166.07" r="2.6" fill="#F0A23B"></circle><circle cx="332.72" cy="54.66" r="2.6" fill="#F0A23B"></circle><circle cx="340.86" cy="77.46" r="2.6" fill="#F0A23B"></circle><circle cx="349" cy="164.62" r="2.6" fill="#F0A23B"></circle><circle cx="357.14" cy="166.72" r="2.6" fill="#F0A23B"></circle><circle cx="365.28" cy="166.65" r="2.6" fill="#F0A23B"></circle><circle cx="373.42" cy="162.93" r="2.6" fill="#F0A23B"></circle><circle cx="381.56" cy="164.9" r="2.6" fill="#F0A23B"></circle><circle cx="389.69" cy="170.21" r="2.6" fill="#F0A23B"></circle><circle cx="397.83" cy="169.23" r="2.6" fill="#F0A23B"></circle><circle cx="405.97" cy="114.96" r="2.6" fill="#F0A23B"></circle><circle cx="414.11" cy="165.27" r="2.6" fill="#F0A23B"></circle><circle cx="422.25" cy="165.44" r="2.6" fill="#F0A23B"></circle><circle cx="430.39" cy="99.36" r="2.6" fill="#F0A23B"></circle><circle cx="438.53" cy="161.79" r="2.6" fill="#F0A23B"></circle><circle cx="446.67" cy="138.56" r="2.6" fill="#F0A23B"></circle><circle cx="454.81" cy="167.81" r="2.6" fill="#F0A23B"></circle><circle cx="462.94" cy="164.51" r="2.6" fill="#F0A23B"></circle><circle cx="471.08" cy="164.55" r="2.6" fill="#F0A23B"></circle><circle cx="479.22" cy="135.11" r="2.6" fill="#F0A23B"></circle><circle cx="487.36" cy="119.1" r="2.6" fill="#F0A23B"></circle><circle cx="495.5" cy="168.6" r="2.6" fill="#F0A23B"></circle><circle cx="503.64" cy="167.03" r="2.6" fill="#F0A23B"></circle><circle cx="511.78" cy="169.7" r="2.6" fill="#F0A23B"></circle><circle cx="519.92" cy="164.27" r="2.6" fill="#F0A23B"></circle><circle cx="528.06" cy="168.02" r="2.6" fill="#F0A23B"></circle><circle cx="536.19" cy="163.89" r="2.6" fill="#F0A23B"></circle><circle cx="544.33" cy="99.72" r="2.6" fill="#F0A23B"></circle><circle cx="552.47" cy="166.55" r="2.6" fill="#F0A23B"></circle><circle cx="560.61" cy="163.57" r="2.6" fill="#F0A23B"></circle><circle cx="568.75" cy="163.91" r="2.6" fill="#F0A23B"></circle><circle cx="576.89" cy="164.36" r="2.6" fill="#F0A23B"></circle><circle cx="585.03" cy="166.86" r="2.6" fill="#F0A23B"></circle><circle cx="593.17" cy="166.95" r="2.6" fill="#F0A23B"></circle><circle cx="601.31" cy="52.43" r="2.6" fill="#F0A23B"></circle><circle cx="609.44" cy="166.52" r="2.6" fill="#F0A23B"></circle><circle cx="617.58" cy="165.82" r="2.6" fill="#F0A23B"></circle><circle cx="625.72" cy="164.59" r="2.6" fill="#F0A23B"></circle><circle cx="642" cy="164.21" r="2.6" fill="#F0A23B"></circle><line x1="656" y1="27" x2="672" y2="27" stroke="#6366F1" stroke-width="3" stroke-linecap="round"></line><text x="678" y="30" font-size="11" font-weight="400" text-anchor="start" fill="#1f2328">deepseek</text><line x1="656" y1="47" x2="672" y2="47" stroke="#A371F7" stroke-width="3" stroke-linecap="round"></line><text x="678" y="50" font-size="11" font-weight="400" text-anchor="start" fill="#1f2328">llama</text><line x1="656" y1="67" x2="672" y2="67" stroke="#F0A23B" stroke-width="3" stroke-linecap="round"></line><text x="678" y="70" font-size="11" font-weight="400" text-anchor="start" fill="#1f2328">mistral</text></svg>
