<svg xmlns="http://www.w3.org/2000/svg" viewBox="0 0 600 300" width="600" height="300" role="img" aria-label="Cost per test by provider over runs ($)"><text x="300.0" y="24" text-anchor="middle" font-family="system-ui, -apple-system, sans-serif" font-size="14" font-weight="600" fill="#333">Cost per test by provider over runs ($)</text><line x1="60" y1="240.0" x2="480" y2="240.0" stroke="#eee" stroke-width="1"/><text x="54" y="244.0" text-anchor="end" font-family="system-ui, -apple-system, sans-serif" font-size="9" fill="#999">0.007327</text><line x1="60" y1="140.0" x2="480" y2="140.0" stroke="#eee" stroke-width="1"/><text x="54" y="144.0" text-anchor="end" font-family="system-ui, -apple-system, sans-serif" font-size="9" fill="#999">0.06861</text><line x1="60" y1="40.0" x2="480" y2="40.0" stroke="#eee" stroke-width="1"/><text x="54" y="44.0" text-anchor="end" font-family="system-ui, -apple-system, sans-serif" font-size="9" fill="#999">0.1299</text><polyline fill="none" stroke="#4CAF50" stroke-width="2" points="60.0,120.8 98.2,121.5 136.4,77.8 174.5,123.6 212.7,117.3 250.9,119.7 289.1,119.7 327.3,116.2 365.5,119.2 403.6,118.9 441.8,45.7 480.0,114.0"/><circle cx="60.0" cy="120.8" r="3" fill="#4CAF50"/><circle cx="98.2" cy="121.5" r="3" fill="#4CAF50"/><circle cx="136.4" cy="77.8" r="3" fill="#4CAF50"/><circle cx="174.5" cy="123.6" r="3" fill="#4CAF50"/><circle cx="212.7" cy="117.3" r="3" fill="#4CAF50"/><circle cx="250.9" cy="119.7" r="3" fill="#4CAF50"/><circle cx="289.1" cy="119.7" r="3" fill="#4CAF50"/><circle cx="327.3" cy="116.2" r="3" fill="#4CAF50"/><circle cx="365.5" cy="119.2" r="3" fill="#4CAF50"/><circle cx="403.6" cy="118.9" r="3" fill="#4CAF50"/><circle cx="441.8" cy="45.7" r="3" fill="#4CAF50"/><circle cx="480.0" cy="114.0" r="3" fill="#4CAF50"/><rect x="490" y="44" width="10" height="10" fill="#4CAF50"/><text x="504" y="53" font-family="system-ui, -apple-system, sans-serif" font-size="10" fill="#333">openai</text><polyline fill="none" stroke="#2196F3" stroke-width="2" points="60.0,122.9 98.2,130.1 136.4,122.4 174.5,125.7 212.7,133.0 250.9,118.2 289.1,125.5 327.3,120.5 365.5,120.5 403.6,119.5 441.8,121.9 480.0,134.8"/><circle cx="60.0" cy="122.9" r="3" fill="#2196F3"/><circle cx="98.2" cy="130.1" r="3" fill="#2196F3"/><circle cx="136.4" cy="122.4" r="3" fill="#2196F3"/><circle cx="174.5" cy="125.7" r="3" fill="#2196F3"/><circle cx="212.7" cy="133.0" r="3" fill="#2196F3"/><circle cx="250.9" cy="118.2" r="3" fill="#2196F3"/><circle cx="289.1" cy="125.5" r="3" fill="#2196F3"/><circle cx="327.3" cy="120.5" r="3" fill="#2196F3"/><circle cx="365.5" cy="120.5" r="3" fill="#2196F3"/><circle cx="403.6" cy="119.5" r="3" fill="#2196F3"/><circle cx="441.8" cy="121.9" r="3" fill="#2196F3"/><circle cx="480.0" cy="134.8" r="3" fill="#2196F3"/><rect x="490" y="62" width="10" height="10" fill="#2196F3"/><text x="504" y="71" font-family="system-ui, -apple-system, sans-serif" font-size="10" fill="#333">gemini</text><polyline fill="none" stroke="#FF9800" stroke-width="2" points="60.0,72.7 98.2,95.8 136.4,100.8 174.5,67.0 212.7,95.0 250.9,46.5 289.1,88.5 327.3,72.4 365.5,81.2 403.6,92.8 441.8,101.4 480.0,87.4"/><circle cx="60.0" cy="72.7" r="3" fill="#FF9800"/><circle cx="98.2" cy="95.8" r="3" fill="#FF9800"/><circle cx="136.4" cy="100.8" r="3" fill="#FF9800"/><circle cx="174.5" cy="67.0" r="3" fill="#FF9800"/><circle cx="212.7" cy="95.0" r="3" fill="#FF9800"/><circle cx="250.9" cy="46.5" r="3" fill="#FF9800"/><circle cx="289.1" cy="88.5" r="3" fill="#FF9800"/><circle cx="327.3" cy="72.4" r="3" fill="#FF9800"/><circle cx="365.5" cy="81.2" r="3" fill="#FF9800"/><circle cx="403.6" cy="92.8" r="3" fill="#FF9800"/><circle cx="441.8" cy="101.4" r="3" fill="#FF9800"/><circle cx="480.0" cy="87.4" r="3" fill="#FF9800"/><rect x="490" y="80" width="10" height="10" fill="#FF9800"/><text x="504" y="89" font-family="system-ui, -apple-system, sans-serif" font-size="10" fill="#333">anthropic</text><polyline fill="none" stroke="#E91E63" stroke-width="2" points="60.0,121.5 98.2,111.7 136.4,40.0 174.5,129.1 212.7,124.2 250.9,127.4 289.1,115.5 327.3,115.2 365.5,111.4 403.6,119.0 441.8,111.4 480.0,112.3"/><circle cx="60.0" cy="121.5" r="3" fill="#E91E63"/><circle cx="98.2" cy="111.7" r="3" fill="#E91E63"/><circle cx="136.4" cy="40.0" r="3" fill="#E91E63"/><circle cx="174.5" cy="129.1" r="3" fill="#E91E63"/><circle cx="212.7" cy="124.2" r="3" fill="#E91E63"/><circle cx="250.9" cy="127.4" r="3" fill="#E91E63"/><circle cx="289.1" cy="115.5" r="3" fill="#E91E63"/><circle cx="327.3" cy="115.2" r="3" fill="#E91E63"/><circle cx="365.5" cy="111.4" r="3" fill="#E91E63"/><circle cx="403.6" cy="119.0" r="3" fill="#E91E63"/><circle cx="441.8" cy="111.4" r="3" fill="#E91E63"/><circle cx="480.0" cy="112.3" r="3" fill="#E91E63"/><rect x="490" y="98" width="10" height="10" fill="#E91E63"/><text x="504" y="107" font-family="system-ui, -apple-system, sans-serif" font-size="10" fill="#333">mistral</text><polyline fill="none" stroke="#9C27B0" stroke-width="2" points="60.0,179.6 98.2,190.2 136.4,193.7 174.5,177.0 212.7,184.5 250.9,194.9 289.1,190.1 327.3,183.2 365.5,186.5 403.6,193.1 441.8,186.4 480.0,183.9"/><circle cx="60.0" cy="179.6" r="3" fill="#9C27B0"/><circle cx="98.2" cy="190.2" r="3" fill="#9C27B0"/><circle cx="136.4" cy="193.7" r="3" fill="#9C27B0"/><circle cx="174.5" cy="177.0" r="3" fill="#9C27B0"/><circle cx="212.7" cy="184.5" r="3" fill="#9C27B0"/><circle cx="250.9" cy="194.9" r="3" fill="#9C27B0"/><circle cx="289.1" cy="190.1" r="3" fill="#9C27B0"/><circle cx="327.3" cy="183.2" r="3" fill="#9C27B0"/><circle cx="365.5" cy="186.5" r="3" fill="#9C27B0"/><circle cx="403.6" cy="193.1" r="3" fill="#9C27B0"/><circle cx="441.8" cy="186.4" r="3" fill="#9C27B0"/><circle cx="480.0" cy="183.9" r="3" fill="#9C27B0"/><rect x="490" y="116" width="10" height="10" fill="#9C27B0"/><text x="504" y="125" font-family="system-ui, -apple-system, sans-serif" font-size="10" fill="#333">llama</text><polyline fill="none" stroke="#00BCD4" stroke-width="2" points="365.5,239.3 403.6,239.3 441.8,240.0 480.0,238.8"/><circle cx="365.5" cy="239.3" r="3" fill="#00BCD4"/><circle cx="403.6" cy="239.3" r="3" fill="#00BCD4"/><circle cx="441.8" cy="240.0" r="3" fill="#00BCD4"/><circle cx="480.0" cy="238.8" r="3" fill="#00BCD4"/><rect x="490" y="134" width="10" height="10" fill="#00BCD4"/><text x="504" y="143" font-family="system-ui, -apple-system, sans-serif" font-size="10" fill="#333">deepseek</text><text x="60.0" y="256.0" text-anchor="middle" font-family="system-ui, -apple-system, sans-serif" font-size="9" fill="#666">71825113</text><text x="98.2" y="256.0" text-anchor="middle" font-family="system-ui, -apple-system, sans-serif" font-size="9" fill="#666">75010794</text><text x="136.4" y="256.0" text-anchor="middle" font-family="system-ui, -apple-system, sans-serif" font-size="9" fill="#666">76301827</text><text x="174.5" y="256.0" text-anchor="middle" font-family="system-ui, -apple-system, sans-serif" font-size="9" fill="#666">97386462</text><text x="212.7" y="256.0" text-anchor="middle" font-family="system-ui, -apple-system, sans-serif" font-size="9" fill="#666">00118301</text><text x="250.9" y="256.0" text-anchor="middle" font-family="system-ui, -apple-system, sans-serif" font-size="9" fill="#666">07642311</text><text x="289.1" y="256.0" text-anchor="middle" font-family="system-ui, -apple-system, sans-serif" font-size="9" fill="#666">31919473</text><text x="327.3" y="256.0" text-anchor="middle" font-family="system-ui, -apple-system, sans-serif" font-size="9" fill="#666">33376499</text><text x="365.5" y="256.0" text-anchor="middle" font-family="system-ui, -apple-system, sans-serif" font-size="9" fill="#666">49559976</text><text x="403.6" y="256.0" text-anchor="middle" font-family="system-ui, -apple-system, sans-serif" font-size="9" fill="#666">51938981</text><text x="441.8" y="256.0" text-anchor="middle" font-family="system-ui, -apple-system, sans-serif" font-size="9" fill="#666">53749546</text><text x="480.0" y="256.0" text-anchor="middle" font-family="system-ui, -apple-system, sans-serif" font-size="9" fill="#666">54994841</text></svg>
