<svg xmlns="http://www.w3.org/2000/svg" viewBox="0 0 760 348" width="760" height="348" role="img" aria-label="Cost per test by provider over runs — openai highest, deepseek lowest" font-family="-apple-system,BlinkMacSystemFont,'Segoe UI',system-ui,sans-serif"><line x1="56" y1="306" x2="642" y2="306" stroke="#d8dee4" stroke-width="1"></line><text x="46" y="310" font-size="9.5" font-weight="400" text-anchor="end" fill="#656d76" font-family="ui-monospace,SFMono-Regular,Menlo,monospace">$0.000</text><line x1="56" y1="235" x2="642" y2="235" stroke="#d8dee4" stroke-width="1"></line><text x="46" y="239" font-size="9.5" font-weight="400" text-anchor="end" fill="#656d76" font-family="ui-monospace,SFMono-Regular,Menlo,monospace">$0.044</text><line x1="56" y1="164" x2="642" y2="164" stroke="#d8dee4" stroke-width="1"></line><text x="46" y="168" font-size="9.5" font-weight="400" text-anchor="end" fill="#656d76" font-family="ui-monospace,SFMono-Regular,Menlo,monospace">$0.087</text><line x1="56" y1="93" x2="642" y2="93" stroke="#d8dee4" stroke-width="1"></line><text x="46" y="97" font-size="9.5" font-weight="400" text-anchor="end" fill="#656d76" font-family="ui-monospace,SFMono-Regular,Menlo,monospace">$0.131</text><line x1="56" y1="22" x2="642" y2="22" stroke="#d8dee4" stroke-width="1"></line><text x="46" y="26" font-size="9.5" font-weight="400" text-anchor="end" fill="#656d76" font-family="ui-monospace,SFMono-Regular,Menlo,monospace">$0.175</text><text x="56" y="324" font-size="9.5" font-weight="400" text-anchor="middle" fill="#656d76" font-family="ui-monospace,SFMono-Regular,Menlo,monospace">06/06</text><text x="106.52" y="324" font-size="9.5" font-weight="400" text-anchor="middle" fill="#656d76" font-family="ui-monospace,SFMono-Regular,Menlo,monospace">06/07</text><text x="157.03" y="324" font-size="9.5" font-weight="400" text-anchor="middle" fill="#656d76" font-family="ui-monospace,SFMono-Regular,Menlo,monospace">06/08</text><text x="207.55" y="324" font-size="9.5" font-weight="400" text-anchor="middle" fill="#656d76" font-family="ui-monospace,SFMono-Regular,Menlo,monospace">06/09</text><text x="258.07" y="324" font-size="9.5" font-weight="400" text-anchor="middle" fill="#656d76" font-family="ui-monospace,SFMono-Regular,Menlo,monospace">06/09</text><text x="308.59" y="324" font-size="9.5" font-weight="400" text-anchor="middle" fill="#656d76" font-family="ui-monospace,SFMono-Regular,Menlo,monospace">06/12</text><text x="359.1" y="324" font-size="9.5" font-weight="400" text-anchor="middle" fill="#656d76" font-family="ui-monospace,SFMono-Regular,Menlo,monospace">06/14</text><text x="409.62" y="324" font-size="9.5" font-weight="400" text-anchor="middle" fill="#656d76" font-family="ui-monospace,SFMono-Regular,Menlo,monospace">06/15</text><text x="460.14" y="324" font-size="9.5" font-weight="400" text-anchor="middle" fill="#656d76" font-family="ui-monospace,SFMono-Regular,Menlo,monospace">06/16</text><text x="510.66" y="324" font-size="9.5" font-weight="400" text-anchor="middle" fill="#656d76" font-family="ui-monospace,SFMono-Regular,Menlo,monospace">06/17</text><text x="561.17" y="324" font-size="9.5" font-weight="400" text-anchor="middle" fill="#656d76" font-family="ui-monospace,SFMono-Regular,Menlo,monospace">06/18</text><text x="611.69" y="324" font-size="9.5" font-weight="400" text-anchor="middle" fill="#656d76" font-family="ui-monospace,SFMono-Regular,Menlo,monospace">06/20</text><text x="642" y="324" font-size="9.5" font-weight="400" text-anchor="middle" fill="#656d76" font-family="ui-monospace,SFMono-Regular,Menlo,monospace">06/21</text><polyline fill="none" stroke="#6366F1" stroke-width="2.4" stroke-linejoin="round" stroke-linecap="round" points="136.83,293.36 146.93,293.43 157.03,294.1 167.14,292.89 177.24,293.14 187.34,287.31 197.45,294.31 207.55,291.77 217.66,291.82 227.76,291.36 237.86,293.02 247.97,291.8 258.07,288.55 268.17,292.06 278.28,288.85 288.38,294.29 298.48,292.11 308.59,288.48 318.69,285.75 328.79,292.13 338.9,291.04 349,293.66 359.1,290.08 369.21,286.94 379.31,292.77 389.41,291.68 399.52,292.47 409.62,291.27 429.83,290.7 439.93,292.91 450.03,293.34 460.14,290.78 470.24,290.99 480.34,291.6 490.45,292.29 500.55,292.81 510.66,293.37 530.86,293.66 540.97,293.82 551.07,292.24 561.17,291.11 571.28,291.02 581.38,284.88 591.48,291.48 601.59,288.67 611.69,290.47 621.79,288.84 631.9,291.75"></polyline><circle cx="136.83" cy="293.36" r="2.6" fill="#6366F1"></circle><circle cx="146.93" cy="293.43" r="2.6" fill="#6366F1"></circle><circle cx="157.03" cy="294.1" r="2.6" fill="#6366F1"></circle><circle cx="167.14" cy="292.89" r="2.6" fill="#6366F1"></circle><circle cx="177.24" cy="293.14" r="2.6" fill="#6366F1"></circle><circle cx="187.34" cy="287.31" r="2.6" fill="#6366F1"></circle><circle cx="197.45" cy="294.31" r="2.6" fill="#6366F1"></circle><circle cx="207.55" cy="291.77" r="2.6" fill="#6366F1"></circle><circle cx="217.66" cy="291.82" r="2.6" fill="#6366F1"></circle><circle cx="227.76" cy="291.36" r="2.6" fill="#6366F1"></circle><circle cx="237.86" cy="293.02" r="2.6" fill="#6366F1"></circle><circle cx="247.97" cy="291.8" r="2.6" fill="#6366F1"></circle><circle cx="258.07" cy="288.55" r="2.6" fill="#6366F1"></circle><circle cx="268.17" cy="292.06" r="2.6" fill="#6366F1"></circle><circle cx="278.28" cy="288.85" r="2.6" fill="#6366F1"></circle><circle cx="288.38" cy="294.29" r="2.6" fill="#6366F1"></circle><circle cx="298.48" cy="292.11" r="2.6" fill="#6366F1"></circle><circle cx="308.59" cy="288.48" r="2.6" fill="#6366F1"></circle><circle cx="318.69" cy="285.75" r="2.6" fill="#6366F1"></circle><circle cx="328.79" cy="292.13" r="2.6" fill="#6366F1"></circle><circle cx="338.9" cy="291.04" r="2.6" fill="#6366F1"></circle><circle cx="349" cy="293.66" r="2.6" fill="#6366F1"></circle><circle cx="359.1" cy="290.08" r="2.6" fill="#6366F1"></circle><circle cx="369.21" cy="286.94" r="2.6" fill="#6366F1"></circle><circle cx="379.31" cy="292.77" r="2.6" fill="#6366F1"></circle><circle cx="389.41" cy="291.68" r="2.6" fill="#6366F1"></circle><circle cx="399.52" cy="292.47" r="2.6" fill="#6366F1"></circle><circle cx="409.62" cy="291.27" r="2.6" fill="#6366F1"></circle><circle cx="429.83" cy="290.7" r="2.6" fill="#6366F1"></circle><circle cx="439.93" cy="292.91" r="2.6" fill="#6366F1"></circle><circle cx="450.03" cy="293.34" r="2.6" fill="#6366F1"></circle><circle cx="460.14" cy="290.78" r="2.6" fill="#6366F1"></circle><circle cx="470.24" cy="290.99" r="2.6" fill="#6366F1"></circle><circle cx="480.34" cy="291.6" r="2.6" fill="#6366F1"></circle><circle cx="490.45" cy="292.29" r="2.6" fill="#6366F1"></circle><circle cx="500.55" cy="292.81" r="2.6" fill="#6366F1"></circle><circle cx="510.66" cy="293.37" r="2.6" fill="#6366F1"></circle><circle cx="530.86" cy="293.66" r="2.6" fill="#6366F1"></circle><circle cx="540.97" cy="293.82" r="2.6" fill="#6366F1"></circle><circle cx="551.07" cy="292.24" r="2.6" fill="#6366F1"></circle><circle cx="561.17" cy="291.11" r="2.6" fill="#6366F1"></circle><circle cx="571.28" cy="291.02" r="2.6" fill="#6366F1"></circle><circle cx="581.38" cy="284.88" r="2.6" fill="#6366F1"></circle><circle cx="591.48" cy="291.48" r="2.6" fill="#6366F1"></circle><circle cx="601.59" cy="288.67" r="2.6" fill="#6366F1"></circle><circle cx="611.69" cy="290.47" r="2.6" fill="#6366F1"></circle><circle cx="621.79" cy="288.84" r="2.6" fill="#6366F1"></circle><circle cx="631.9" cy="291.75" r="2.6" fill="#6366F1"></circle><polyline fill="none" stroke="#A371F7" stroke-width="2.4" stroke-linejoin="round" stroke-linecap="round" points="56,234.02 66.1,244.52 76.21,248 86.31,231.43 96.41,238.89 106.52,249.23 116.62,244.46 126.72,237.54 136.83,240.86 146.93,247.44 157.03,240.79 167.14,238.23 177.24,242.67 187.34,225.79 197.45,243.99 207.55,238.04 217.66,246.87 227.76,247.42 237.86,226.74 247.97,239.47 258.07,211.96 268.17,246.23 278.28,249.04 288.38,237.01 298.48,234.98 308.59,238.5 318.69,240.35 328.79,237.84 338.9,246.71 349,242.24 359.1,238.34 369.21,244.61 379.31,248.91 389.41,226.53 399.52,244.07 409.62,245.89 429.83,225.3 439.93,246.26 450.03,237.6 470.24,238.19 480.34,247.14 490.45,247.58 500.55,243.98 510.66,241.42 520.76,243.75 530.86,244.26 540.97,242.78 551.07,233.78 561.17,238.08 571.28,239.3 581.38,245.03 591.48,240.96 601.59,244.05 611.69,243 631.9,244.69"></polyline><circle cx="56" cy="234.02" r="2.6" fill="#A371F7"></circle><circle cx="66.1" cy="244.52" r="2.6" fill="#A371F7"></circle><circle cx="76.21" cy="248" r="2.6" fill="#A371F7"></circle><circle cx="86.31" cy="231.43" r="2.6" fill="#A371F7"></circle><circle cx="96.41" cy="238.89" r="2.6" fill="#A371F7"></circle><circle cx="106.52" cy="249.23" r="2.6" fill="#A371F7"></circle><circle cx="116.62" cy="244.46" r="2.6" fill="#A371F7"></circle><circle cx="126.72" cy="237.54" r="2.6" fill="#A371F7"></circle><circle cx="136.83" cy="240.86" r="2.6" fill="#A371F7"></circle><circle cx="146.93" cy="247.44" r="2.6" fill="#A371F7"></circle><circle cx="157.03" cy="240.79" r="2.6" fill="#A371F7"></circle><circle cx="167.14" cy="238.23" r="2.6" fill="#A371F7"></circle><circle cx="177.24" cy="242.67" r="2.6" fill="#A371F7"></circle><circle cx="187.34" cy="225.79" r="2.6" fill="#A371F7"></circle><circle cx="197.45" cy="243.99" r="2.6" fill="#A371F7"></circle><circle cx="207.55" cy="238.04" r="2.6" fill="#A371F7"></circle><circle cx="217.66" cy="246.87" r="2.6" fill="#A371F7"></circle><circle cx="227.76" cy="247.42" r="2.6" fill="#A371F7"></circle><circle cx="237.86" cy="226.74" r="2.6" fill="#A371F7"></circle><circle cx="247.97" cy="239.47" r="2.6" fill="#A371F7"></circle><circle cx="258.07" cy="211.96" r="2.6" fill="#A371F7"></circle><circle cx="268.17" cy="246.23" r="2.6" fill="#A371F7"></circle><circle cx="278.28" cy="249.04" r="2.6" fill="#A371F7"></circle><circle cx="288.38" cy="237.01" r="2.6" fill="#A371F7"></circle><circle cx="298.48" cy="234.98" r="2.6" fill="#A371F7"></circle><circle cx="308.59" cy="238.5" r="2.6" fill="#A371F7"></circle><circle cx="318.69" cy="240.35" r="2.6" fill="#A371F7"></circle><circle cx="328.79" cy="237.84" r="2.6" fill="#A371F7"></circle><circle cx="338.9" cy="246.71" r="2.6" fill="#A371F7"></circle><circle cx="349" cy="242.24" r="2.6" fill="#A371F7"></circle><circle cx="359.1" cy="238.34" r="2.6" fill="#A371F7"></circle><circle cx="369.21" cy="244.61" r="2.6" fill="#A371F7"></circle><circle cx="379.31" cy="248.91" r="2.6" fill="#A371F7"></circle><circle cx="389.41" cy="226.53" r="2.6" fill="#A371F7"></circle><circle cx="399.52" cy="244.07" r="2.6" fill="#A371F7"></circle><circle cx="409.62" cy="245.89" r="2.6" fill="#A371F7"></circle><circle cx="429.83" cy="225.3" r="2.6" fill="#A371F7"></circle><circle cx="439.93" cy="246.26" r="2.6" fill="#A371F7"></circle><circle cx="450.03" cy="237.6" r="2.6" fill="#A371F7"></circle><circle cx="470.24" cy="238.19" r="2.6" fill="#A371F7"></circle><circle cx="480.34" cy="247.14" r="2.6" fill="#A371F7"></circle><circle cx="490.45" cy="247.58" r="2.6" fill="#A371F7"></circle><circle cx="500.55" cy="243.98" r="2.6" fill="#A371F7"></circle><circle cx="510.66" cy="241.42" r="2.6" fill="#A371F7"></circle><circle cx="520.76" cy="243.75" r="2.6" fill="#A371F7"></circle><circle cx="530.86" cy="244.26" r="2.6" fill="#A371F7"></circle><circle cx="540.97" cy="242.78" r="2.6" fill="#A371F7"></circle><circle cx="551.07" cy="233.78" r="2.6" fill="#A371F7"></circle><circle cx="561.17" cy="238.08" r="2.6" fill="#A371F7"></circle><circle cx="571.28" cy="239.3" r="2.6" fill="#A371F7"></circle><circle cx="581.38" cy="245.03" r="2.6" fill="#A371F7"></circle><circle cx="591.48" cy="240.96" r="2.6" fill="#A371F7"></circle><circle cx="601.59" cy="244.05" r="2.6" fill="#A371F7"></circle><circle cx="611.69" cy="243" r="2.6" fill="#A371F7"></circle><circle cx="631.9" cy="244.69" r="2.6" fill="#A371F7"></circle><polyline fill="none" stroke="#F0A23B" stroke-width="2.4" stroke-linejoin="round" stroke-linecap="round" points="56,176.15 66.1,166.37 76.21,95.06 86.31,183.78 96.41,178.88 106.52,182.02 116.62,170.24 126.72,169.9 136.83,166.14 146.93,173.66 157.03,166.11 167.14,167.02 177.24,169.09 187.34,176.53 197.45,161.02 207.55,174.97 217.66,168.38 227.76,173 237.86,185.38 247.97,176.24 258.07,181.63 268.17,178.09 278.28,118.27 288.38,178.67 298.48,180.72 308.59,177.62 318.69,179.5 328.79,151.31 338.9,176.94 349,159.91 359.1,179.22 369.21,151.49 379.31,180.65 389.41,179.71 399.52,79.16 409.62,99.74 419.72,178.4 429.83,180.3 439.93,180.24 450.03,176.88 460.14,178.65 470.24,183.45 480.34,182.56 490.45,133.59 500.55,178.99 510.66,179.14 520.76,119.51 530.86,175.85 540.97,154.88 551.07,181.28 561.17,178.3 571.28,178.34 581.38,151.77 591.48,137.32 601.59,181.99 611.69,180.58 621.79,182.99 631.9,178.09"></polyline><circle cx="56" cy="176.15" r="2.6" fill="#F0A23B"></circle><circle cx="66.1" cy="166.37" r="2.6" fill="#F0A23B"></circle><circle cx="76.21" cy="95.06" r="2.6" fill="#F0A23B"></circle><circle cx="86.31" cy="183.78" r="2.6" fill="#F0A23B"></circle><circle cx="96.41" cy="178.88" r="2.6" fill="#F0A23B"></circle><circle cx="106.52" cy="182.02" r="2.6" fill="#F0A23B"></circle><circle cx="116.62" cy="170.24" r="2.6" fill="#F0A23B"></circle><circle cx="126.72" cy="169.9" r="2.6" fill="#F0A23B"></circle><circle cx="136.83" cy="166.14" r="2.6" fill="#F0A23B"></circle><circle cx="146.93" cy="173.66" r="2.6" fill="#F0A23B"></circle><circle cx="157.03" cy="166.11" r="2.6" fill="#F0A23B"></circle><circle cx="167.14" cy="167.02" r="2.6" fill="#F0A23B"></circle><circle cx="177.24" cy="169.09" r="2.6" fill="#F0A23B"></circle><circle cx="187.34" cy="176.53" r="2.6" fill="#F0A23B"></circle><circle cx="197.45" cy="161.02" r="2.6" fill="#F0A23B"></circle><circle cx="207.55" cy="174.97" r="2.6" fill="#F0A23B"></circle><circle cx="217.66" cy="168.38" r="2.6" fill="#F0A23B"></circle><circle cx="227.76" cy="173" r="2.6" fill="#F0A23B"></circle><circle cx="237.86" cy="185.38" r="2.6" fill="#F0A23B"></circle><circle cx="247.97" cy="176.24" r="2.6" fill="#F0A23B"></circle><circle cx="258.07" cy="181.63" r="2.6" fill="#F0A23B"></circle><circle cx="268.17" cy="178.09" r="2.6" fill="#F0A23B"></circle><circle cx="278.28" cy="118.27" r="2.6" fill="#F0A23B"></circle><circle cx="288.38" cy="178.67" r="2.6" fill="#F0A23B"></circle><circle cx="298.48" cy="180.72" r="2.6" fill="#F0A23B"></circle><circle cx="308.59" cy="177.62" r="2.6" fill="#F0A23B"></circle><circle cx="318.69" cy="179.5" r="2.6" fill="#F0A23B"></circle><circle cx="328.79" cy="151.31" r="2.6" fill="#F0A23B"></circle><circle cx="338.9" cy="176.94" r="2.6" fill="#F0A23B"></circle><circle cx="349" cy="159.91" r="2.6" fill="#F0A23B"></circle><circle cx="359.1" cy="179.22" r="2.6" fill="#F0A23B"></circle><circle cx="369.21" cy="151.49" r="2.6" fill="#F0A23B"></circle><circle cx="379.31" cy="180.65" r="2.6" fill="#F0A23B"></circle><circle cx="389.41" cy="179.71" r="2.6" fill="#F0A23B"></circle><circle cx="399.52" cy="79.16" r="2.6" fill="#F0A23B"></circle><circle cx="409.62" cy="99.74" r="2.6" fill="#F0A23B"></circle><circle cx="419.72" cy="178.4" r="2.6" fill="#F0A23B"></circle><circle cx="429.83" cy="180.3" r="2.6" fill="#F0A23B"></circle><circle cx="439.93" cy="180.24" r="2.6" fill="#F0A23B"></circle><circle cx="450.03" cy="176.88" r="2.6" fill="#F0A23B"></circle><circle cx="460.14" cy="178.65" r="2.6" fill="#F0A23B"></circle><circle cx="470.24" cy="183.45" r="2.6" fill="#F0A23B"></circle><circle cx="480.34" cy="182.56" r="2.6" fill="#F0A23B"></circle><circle cx="490.45" cy="133.59" r="2.6" fill="#F0A23B"></circle><circle cx="500.55" cy="178.99" r="2.6" fill="#F0A23B"></circle><circle cx="510.66" cy="179.14" r="2.6" fill="#F0A23B"></circle><circle cx="520.76" cy="119.51" r="2.6" fill="#F0A23B"></circle><circle cx="530.86" cy="175.85" r="2.6" fill="#F0A23B"></circle><circle cx="540.97" cy="154.88" r="2.6" fill="#F0A23B"></circle><circle cx="551.07" cy="181.28" r="2.6" fill="#F0A23B"></circle><circle cx="561.17" cy="178.3" r="2.6" fill="#F0A23B"></circle><circle cx="571.28" cy="178.34" r="2.6" fill="#F0A23B"></circle><circle cx="581.38" cy="151.77" r="2.6" fill="#F0A23B"></circle><circle cx="591.48" cy="137.32" r="2.6" fill="#F0A23B"></circle><circle cx="601.59" cy="181.99" r="2.6" fill="#F0A23B"></circle><circle cx="611.69" cy="180.58" r="2.6" fill="#F0A23B"></circle><circle cx="621.79" cy="182.99" r="2.6" fill="#F0A23B"></circle><circle cx="631.9" cy="178.09" r="2.6" fill="#F0A23B"></circle><polyline fill="none" stroke="#1F9CF0" stroke-width="2.4" stroke-linejoin="round" stroke-linecap="round" points="56,175.5 66.1,176.2 76.21,132.71 86.31,178.27 96.41,172 106.52,174.38 116.62,174.4 126.72,170.88 136.83,173.93 146.93,173.54 157.03,100.75 167.14,168.69 177.24,173.59 187.34,174.01 197.45,167.31 207.55,117.5 217.66,166.02 227.76,174.07 237.86,141.6 247.97,169.05 258.07,167.14 268.17,174.48 278.28,150.94 288.38,171.01 298.48,52.43 308.59,157.26 318.69,171.51 328.79,136.29 338.9,169.79 349,106.45 359.1,170.47 369.21,175.76 379.31,174.01 389.41,174.06 399.52,151.2 409.62,173.78 419.72,169.88 429.83,177.61 439.93,137.18 450.03,114.15 460.14,168.74 470.24,168.47 480.34,130.46 490.45,174.44 500.55,175.01 510.66,171.26 520.76,176.81 530.86,171.37 540.97,161.31 551.07,135.44 561.17,169.24 571.28,176.14 581.38,170.75 591.48,171.27 601.59,166.35 611.69,173.15 621.79,132.18 631.9,168.56 642,155.42"></polyline><circle cx="56" cy="175.5" r="2.6" fill="#1F9CF0"></circle><circle cx="66.1" cy="176.2" r="2.6" fill="#1F9CF0"></circle><circle cx="76.21" cy="132.71" r="2.6" fill="#1F9CF0"></circle><circle cx="86.31" cy="178.27" r="2.6" fill="#1F9CF0"></circle><circle cx="96.41" cy="172" r="2.6" fill="#1F9CF0"></circle><circle cx="106.52" cy="174.38" r="2.6" fill="#1F9CF0"></circle><circle cx="116.62" cy="174.4" r="2.6" fill="#1F9CF0"></circle><circle cx="126.72" cy="170.88" r="2.6" fill="#1F9CF0"></circle><circle cx="136.83" cy="173.93" r="2.6" fill="#1F9CF0"></circle><circle cx="146.93" cy="173.54" r="2.6" fill="#1F9CF0"></circle><circle cx="157.03" cy="100.75" r="2.6" fill="#1F9CF0"></circle><circle cx="167.14" cy="168.69" r="2.6" fill="#1F9CF0"></circle><circle cx="177.24" cy="173.59" r="2.6" fill="#1F9CF0"></circle><circle cx="187.34" cy="174.01" r="2.6" fill="#1F9CF0"></circle><circle cx="197.45" cy="167.31" r="2.6" fill="#1F9CF0"></circle><circle cx="207.55" cy="117.5" r="2.6" fill="#1F9CF0"></circle><circle cx="217.66" cy="166.02" r="2.6" fill="#1F9CF0"></circle><circle cx="227.76" cy="174.07" r="2.6" fill="#1F9CF0"></circle><circle cx="237.86" cy="141.6" r="2.6" fill="#1F9CF0"></circle><circle cx="247.97" cy="169.05" r="2.6" fill="#1F9CF0"></circle><circle cx="258.07" cy="167.14" r="2.6" fill="#1F9CF0"></circle><circle cx="268.17" cy="174.48" r="2.6" fill="#1F9CF0"></circle><circle cx="278.28" cy="150.94" r="2.6" fill="#1F9CF0"></circle><circle cx="288.38" cy="171.01" r="2.6" fill="#1F9CF0"></circle><circle cx="298.48" cy="52.43" r="2.6" fill="#1F9CF0"></circle><circle cx="308.59" cy="157.26" r="2.6" fill="#1F9CF0"></circle><circle cx="318.69" cy="171.51" r="2.6" fill="#1F9CF0"></circle><circle cx="328.79" cy="136.29" r="2.6" fill="#1F9CF0"></circle><circle cx="338.9" cy="169.79" r="2.6" fill="#1F9CF0"></circle><circle cx="349" cy="106.45" r="2.6" fill="#1F9CF0"></circle><circle cx="359.1" cy="170.47" r="2.6" fill="#1F9CF0"></circle><circle cx="369.21" cy="175.76" r="2.6" fill="#1F9CF0"></circle><circle cx="379.31" cy="174.01" r="2.6" fill="#1F9CF0"></circle><circle cx="389.41" cy="174.06" r="2.6" fill="#1F9CF0"></circle><circle cx="399.52" cy="151.2" r="2.6" fill="#1F9CF0"></circle><circle cx="409.62" cy="173.78" r="2.6" fill="#1F9CF0"></circle><circle cx="419.72" cy="169.88" r="2.6" fill="#1F9CF0"></circle><circle cx="429.83" cy="177.61" r="2.6" fill="#1F9CF0"></circle><circle cx="439.93" cy="137.18" r="2.6" fill="#1F9CF0"></circle><circle cx="450.03" cy="114.15" r="2.6" fill="#1F9CF0"></circle><circle cx="460.14" cy="168.74" r="2.6" fill="#1F9CF0"></circle><circle cx="470.24" cy="168.47" r="2.6" fill="#1F9CF0"></circle><circle cx="480.34" cy="130.46" r="2.6" fill="#1F9CF0"></circle><circle cx="490.45" cy="174.44" r="2.6" fill="#1F9CF0"></circle><circle cx="500.55" cy="175.01" r="2.6" fill="#1F9CF0"></circle><circle cx="510.66" cy="171.26" r="2.6" fill="#1F9CF0"></circle><circle cx="520.76" cy="176.81" r="2.6" fill="#1F9CF0"></circle><circle cx="530.86" cy="171.37" r="2.6" fill="#1F9CF0"></circle><circle cx="540.97" cy="161.31" r="2.6" fill="#1F9CF0"></circle><circle cx="551.07" cy="135.44" r="2.6" fill="#1F9CF0"></circle><circle cx="561.17" cy="169.24" r="2.6" fill="#1F9CF0"></circle><circle cx="571.28" cy="176.14" r="2.6" fill="#1F9CF0"></circle><circle cx="581.38" cy="170.75" r="2.6" fill="#1F9CF0"></circle><circle cx="591.48" cy="171.27" r="2.6" fill="#1F9CF0"></circle><circle cx="601.59" cy="166.35" r="2.6" fill="#1F9CF0"></circle><circle cx="611.69" cy="173.15" r="2.6" fill="#1F9CF0"></circle><circle cx="621.79" cy="132.18" r="2.6" fill="#1F9CF0"></circle><circle cx="631.9" cy="168.56" r="2.6" fill="#1F9CF0"></circle><circle cx="642" cy="155.42" r="2.6" fill="#1F9CF0"></circle><line x1="656" y1="27" x2="672" y2="27" stroke="#6366F1" stroke-width="3" stroke-linecap="round"></line><text x="678" y="30" font-size="11" font-weight="400" text-anchor="start" fill="#1f2328">deepseek</text><line x1="656" y1="47" x2="672" y2="47" stroke="#A371F7" stroke-width="3" stroke-linecap="round"></line><text x="678" y="50" font-size="11" font-weight="400" text-anchor="start" fill="#1f2328">llama</text><line x1="656" y1="67" x2="672" y2="67" stroke="#F0A23B" stroke-width="3" stroke-linecap="round"></line><text x="678" y="70" font-size="11" font-weight="400" text-anchor="start" fill="#1f2328">mistral</text><line x1="656" y1="87" x2="672" y2="87" stroke="#1F9CF0" stroke-width="3" stroke-linecap="round"></line><text x="678" y="90" font-size="11" font-weight="400" text-anchor="start" fill="#1f2328">openai</text></svg>
