<svg xmlns="http://www.w3.org/2000/svg" viewBox="0 0 760 348" width="760" height="348" role="img" aria-label="Cost per test by provider over runs — openai highest, deepseek lowest" font-family="-apple-system,BlinkMacSystemFont,'Segoe UI',system-ui,sans-serif"><line x1="56" y1="306" x2="642" y2="306" stroke="#d8dee4" stroke-width="1"></line><text x="46" y="310" font-size="9.5" font-weight="400" text-anchor="end" fill="#656d76" font-family="ui-monospace,SFMono-Regular,Menlo,monospace">$0.000</text><line x1="56" y1="235" x2="642" y2="235" stroke="#d8dee4" stroke-width="1"></line><text x="46" y="239" font-size="9.5" font-weight="400" text-anchor="end" fill="#656d76" font-family="ui-monospace,SFMono-Regular,Menlo,monospace">$0.044</text><line x1="56" y1="164" x2="642" y2="164" stroke="#d8dee4" stroke-width="1"></line><text x="46" y="168" font-size="9.5" font-weight="400" text-anchor="end" fill="#656d76" font-family="ui-monospace,SFMono-Regular,Menlo,monospace">$0.087</text><line x1="56" y1="93" x2="642" y2="93" stroke="#d8dee4" stroke-width="1"></line><text x="46" y="97" font-size="9.5" font-weight="400" text-anchor="end" fill="#656d76" font-family="ui-monospace,SFMono-Regular,Menlo,monospace">$0.131</text><line x1="56" y1="22" x2="642" y2="22" stroke="#d8dee4" stroke-width="1"></line><text x="46" y="26" font-size="9.5" font-weight="400" text-anchor="end" fill="#656d76" font-family="ui-monospace,SFMono-Regular,Menlo,monospace">$0.175</text><text x="56" y="324" font-size="9.5" font-weight="400" text-anchor="middle" fill="#656d76" font-family="ui-monospace,SFMono-Regular,Menlo,monospace">06/06</text><text x="105.87" y="324" font-size="9.5" font-weight="400" text-anchor="middle" fill="#656d76" font-family="ui-monospace,SFMono-Regular,Menlo,monospace">06/07</text><text x="155.74" y="324" font-size="9.5" font-weight="400" text-anchor="middle" fill="#656d76" font-family="ui-monospace,SFMono-Regular,Menlo,monospace">06/08</text><text x="205.62" y="324" font-size="9.5" font-weight="400" text-anchor="middle" fill="#656d76" font-family="ui-monospace,SFMono-Regular,Menlo,monospace">06/08</text><text x="255.49" y="324" font-size="9.5" font-weight="400" text-anchor="middle" fill="#656d76" font-family="ui-monospace,SFMono-Regular,Menlo,monospace">06/09</text><text x="305.36" y="324" font-size="9.5" font-weight="400" text-anchor="middle" fill="#656d76" font-family="ui-monospace,SFMono-Regular,Menlo,monospace">06/09</text><text x="355.23" y="324" font-size="9.5" font-weight="400" text-anchor="middle" fill="#656d76" font-family="ui-monospace,SFMono-Regular,Menlo,monospace">06/12</text><text x="405.11" y="324" font-size="9.5" font-weight="400" text-anchor="middle" fill="#656d76" font-family="ui-monospace,SFMono-Regular,Menlo,monospace">06/14</text><text x="454.98" y="324" font-size="9.5" font-weight="400" text-anchor="middle" fill="#656d76" font-family="ui-monospace,SFMono-Regular,Menlo,monospace">06/14</text><text x="504.85" y="324" font-size="9.5" font-weight="400" text-anchor="middle" fill="#656d76" font-family="ui-monospace,SFMono-Regular,Menlo,monospace">06/15</text><text x="554.72" y="324" font-size="9.5" font-weight="400" text-anchor="middle" fill="#656d76" font-family="ui-monospace,SFMono-Regular,Menlo,monospace">06/16</text><text x="604.6" y="324" font-size="9.5" font-weight="400" text-anchor="middle" fill="#656d76" font-family="ui-monospace,SFMono-Regular,Menlo,monospace">06/17</text><text x="642" y="324" font-size="9.5" font-weight="400" text-anchor="middle" fill="#656d76" font-family="ui-monospace,SFMono-Regular,Menlo,monospace">06/17</text><polyline fill="none" stroke="#6366F1" stroke-width="2.4" stroke-linejoin="round" stroke-linecap="round" points="155.74,293.36 168.21,293.43 180.68,294.1 193.15,292.89 205.62,293.14 218.09,287.31 230.55,294.31 243.02,291.77 255.49,291.82 267.96,291.36 280.43,293.02 292.89,291.8 305.36,288.55 317.83,292.06 330.3,288.85 342.77,294.29 355.23,292.11 367.7,288.48 380.17,285.75 392.64,292.13 405.11,291.04 417.57,293.66 430.04,290.08 442.51,286.94 454.98,292.77 467.45,291.68 479.91,292.47 492.38,291.27 517.32,290.7 529.79,292.91 542.26,293.34 554.72,290.78 567.19,290.99 579.66,291.6 592.13,292.29 604.6,292.81 617.06,293.37 642,293.66"></polyline><circle cx="155.74" cy="293.36" r="2.6" fill="#6366F1"></circle><circle cx="168.21" cy="293.43" r="2.6" fill="#6366F1"></circle><circle cx="180.68" cy="294.1" r="2.6" fill="#6366F1"></circle><circle cx="193.15" cy="292.89" r="2.6" fill="#6366F1"></circle><circle cx="205.62" cy="293.14" r="2.6" fill="#6366F1"></circle><circle cx="218.09" cy="287.31" r="2.6" fill="#6366F1"></circle><circle cx="230.55" cy="294.31" r="2.6" fill="#6366F1"></circle><circle cx="243.02" cy="291.77" r="2.6" fill="#6366F1"></circle><circle cx="255.49" cy="291.82" r="2.6" fill="#6366F1"></circle><circle cx="267.96" cy="291.36" r="2.6" fill="#6366F1"></circle><circle cx="280.43" cy="293.02" r="2.6" fill="#6366F1"></circle><circle cx="292.89" cy="291.8" r="2.6" fill="#6366F1"></circle><circle cx="305.36" cy="288.55" r="2.6" fill="#6366F1"></circle><circle cx="317.83" cy="292.06" r="2.6" fill="#6366F1"></circle><circle cx="330.3" cy="288.85" r="2.6" fill="#6366F1"></circle><circle cx="342.77" cy="294.29" r="2.6" fill="#6366F1"></circle><circle cx="355.23" cy="292.11" r="2.6" fill="#6366F1"></circle><circle cx="367.7" cy="288.48" r="2.6" fill="#6366F1"></circle><circle cx="380.17" cy="285.75" r="2.6" fill="#6366F1"></circle><circle cx="392.64" cy="292.13" r="2.6" fill="#6366F1"></circle><circle cx="405.11" cy="291.04" r="2.6" fill="#6366F1"></circle><circle cx="417.57" cy="293.66" r="2.6" fill="#6366F1"></circle><circle cx="430.04" cy="290.08" r="2.6" fill="#6366F1"></circle><circle cx="442.51" cy="286.94" r="2.6" fill="#6366F1"></circle><circle cx="454.98" cy="292.77" r="2.6" fill="#6366F1"></circle><circle cx="467.45" cy="291.68" r="2.6" fill="#6366F1"></circle><circle cx="479.91" cy="292.47" r="2.6" fill="#6366F1"></circle><circle cx="492.38" cy="291.27" r="2.6" fill="#6366F1"></circle><circle cx="517.32" cy="290.7" r="2.6" fill="#6366F1"></circle><circle cx="529.79" cy="292.91" r="2.6" fill="#6366F1"></circle><circle cx="542.26" cy="293.34" r="2.6" fill="#6366F1"></circle><circle cx="554.72" cy="290.78" r="2.6" fill="#6366F1"></circle><circle cx="567.19" cy="290.99" r="2.6" fill="#6366F1"></circle><circle cx="579.66" cy="291.6" r="2.6" fill="#6366F1"></circle><circle cx="592.13" cy="292.29" r="2.6" fill="#6366F1"></circle><circle cx="604.6" cy="292.81" r="2.6" fill="#6366F1"></circle><circle cx="617.06" cy="293.37" r="2.6" fill="#6366F1"></circle><circle cx="642" cy="293.66" r="2.6" fill="#6366F1"></circle><polyline fill="none" stroke="#A371F7" stroke-width="2.4" stroke-linejoin="round" stroke-linecap="round" points="56,234.02 68.47,244.52 80.94,248 93.4,231.43 105.87,238.89 118.34,249.23 130.81,244.46 143.28,237.54 155.74,240.86 168.21,247.44 180.68,240.79 193.15,238.23 205.62,242.67 218.09,225.79 230.55,243.99 243.02,238.04 255.49,246.87 267.96,247.42 280.43,226.74 292.89,239.47 305.36,211.96 317.83,246.23 330.3,249.04 342.77,237.01 355.23,234.98 367.7,238.5 380.17,240.35 392.64,237.84 405.11,246.71 417.57,242.24 430.04,238.34 442.51,244.61 454.98,248.91 467.45,226.53 479.91,244.07 492.38,245.89 517.32,225.3 529.79,246.26 542.26,237.6 567.19,238.19 579.66,247.14 592.13,247.58 604.6,243.98 617.06,241.42 629.53,243.75 642,244.26"></polyline><circle cx="56" cy="234.02" r="2.6" fill="#A371F7"></circle><circle cx="68.47" cy="244.52" r="2.6" fill="#A371F7"></circle><circle cx="80.94" cy="248" r="2.6" fill="#A371F7"></circle><circle cx="93.4" cy="231.43" r="2.6" fill="#A371F7"></circle><circle cx="105.87" cy="238.89" r="2.6" fill="#A371F7"></circle><circle cx="118.34" cy="249.23" r="2.6" fill="#A371F7"></circle><circle cx="130.81" cy="244.46" r="2.6" fill="#A371F7"></circle><circle cx="143.28" cy="237.54" r="2.6" fill="#A371F7"></circle><circle cx="155.74" cy="240.86" r="2.6" fill="#A371F7"></circle><circle cx="168.21" cy="247.44" r="2.6" fill="#A371F7"></circle><circle cx="180.68" cy="240.79" r="2.6" fill="#A371F7"></circle><circle cx="193.15" cy="238.23" r="2.6" fill="#A371F7"></circle><circle cx="205.62" cy="242.67" r="2.6" fill="#A371F7"></circle><circle cx="218.09" cy="225.79" r="2.6" fill="#A371F7"></circle><circle cx="230.55" cy="243.99" r="2.6" fill="#A371F7"></circle><circle cx="243.02" cy="238.04" r="2.6" fill="#A371F7"></circle><circle cx="255.49" cy="246.87" r="2.6" fill="#A371F7"></circle><circle cx="267.96" cy="247.42" r="2.6" fill="#A371F7"></circle><circle cx="280.43" cy="226.74" r="2.6" fill="#A371F7"></circle><circle cx="292.89" cy="239.47" r="2.6" fill="#A371F7"></circle><circle cx="305.36" cy="211.96" r="2.6" fill="#A371F7"></circle><circle cx="317.83" cy="246.23" r="2.6" fill="#A371F7"></circle><circle cx="330.3" cy="249.04" r="2.6" fill="#A371F7"></circle><circle cx="342.77" cy="237.01" r="2.6" fill="#A371F7"></circle><circle cx="355.23" cy="234.98" r="2.6" fill="#A371F7"></circle><circle cx="367.7" cy="238.5" r="2.6" fill="#A371F7"></circle><circle cx="380.17" cy="240.35" r="2.6" fill="#A371F7"></circle><circle cx="392.64" cy="237.84" r="2.6" fill="#A371F7"></circle><circle cx="405.11" cy="246.71" r="2.6" fill="#A371F7"></circle><circle cx="417.57" cy="242.24" r="2.6" fill="#A371F7"></circle><circle cx="430.04" cy="238.34" r="2.6" fill="#A371F7"></circle><circle cx="442.51" cy="244.61" r="2.6" fill="#A371F7"></circle><circle cx="454.98" cy="248.91" r="2.6" fill="#A371F7"></circle><circle cx="467.45" cy="226.53" r="2.6" fill="#A371F7"></circle><circle cx="479.91" cy="244.07" r="2.6" fill="#A371F7"></circle><circle cx="492.38" cy="245.89" r="2.6" fill="#A371F7"></circle><circle cx="517.32" cy="225.3" r="2.6" fill="#A371F7"></circle><circle cx="529.79" cy="246.26" r="2.6" fill="#A371F7"></circle><circle cx="542.26" cy="237.6" r="2.6" fill="#A371F7"></circle><circle cx="567.19" cy="238.19" r="2.6" fill="#A371F7"></circle><circle cx="579.66" cy="247.14" r="2.6" fill="#A371F7"></circle><circle cx="592.13" cy="247.58" r="2.6" fill="#A371F7"></circle><circle cx="604.6" cy="243.98" r="2.6" fill="#A371F7"></circle><circle cx="617.06" cy="241.42" r="2.6" fill="#A371F7"></circle><circle cx="629.53" cy="243.75" r="2.6" fill="#A371F7"></circle><circle cx="642" cy="244.26" r="2.6" fill="#A371F7"></circle><polyline fill="none" stroke="#F0A23B" stroke-width="2.4" stroke-linejoin="round" stroke-linecap="round" points="56,176.15 68.47,166.37 80.94,95.06 93.4,183.78 105.87,178.88 118.34,182.02 130.81,170.24 143.28,169.9 155.74,166.14 168.21,173.66 180.68,166.11 193.15,167.02 205.62,169.09 218.09,176.53 230.55,161.02 243.02,174.97 255.49,168.38 267.96,173 280.43,185.38 292.89,176.24 305.36,181.63 317.83,178.09 330.3,118.27 342.77,178.67 355.23,180.72 367.7,177.62 380.17,179.5 392.64,151.31 405.11,176.94 417.57,159.91 430.04,179.22 442.51,151.49 454.98,180.65 467.45,179.71 479.91,79.16 492.38,99.74 504.85,178.4 517.32,180.3 529.79,180.24 542.26,176.88 554.72,178.65 567.19,183.45 579.66,182.56 592.13,133.59 604.6,178.99 617.06,179.14 629.53,119.51 642,175.85"></polyline><circle cx="56" cy="176.15" r="2.6" fill="#F0A23B"></circle><circle cx="68.47" cy="166.37" r="2.6" fill="#F0A23B"></circle><circle cx="80.94" cy="95.06" r="2.6" fill="#F0A23B"></circle><circle cx="93.4" cy="183.78" r="2.6" fill="#F0A23B"></circle><circle cx="105.87" cy="178.88" r="2.6" fill="#F0A23B"></circle><circle cx="118.34" cy="182.02" r="2.6" fill="#F0A23B"></circle><circle cx="130.81" cy="170.24" r="2.6" fill="#F0A23B"></circle><circle cx="143.28" cy="169.9" r="2.6" fill="#F0A23B"></circle><circle cx="155.74" cy="166.14" r="2.6" fill="#F0A23B"></circle><circle cx="168.21" cy="173.66" r="2.6" fill="#F0A23B"></circle><circle cx="180.68" cy="166.11" r="2.6" fill="#F0A23B"></circle><circle cx="193.15" cy="167.02" r="2.6" fill="#F0A23B"></circle><circle cx="205.62" cy="169.09" r="2.6" fill="#F0A23B"></circle><circle cx="218.09" cy="176.53" r="2.6" fill="#F0A23B"></circle><circle cx="230.55" cy="161.02" r="2.6" fill="#F0A23B"></circle><circle cx="243.02" cy="174.97" r="2.6" fill="#F0A23B"></circle><circle cx="255.49" cy="168.38" r="2.6" fill="#F0A23B"></circle><circle cx="267.96" cy="173" r="2.6" fill="#F0A23B"></circle><circle cx="280.43" cy="185.38" r="2.6" fill="#F0A23B"></circle><circle cx="292.89" cy="176.24" r="2.6" fill="#F0A23B"></circle><circle cx="305.36" cy="181.63" r="2.6" fill="#F0A23B"></circle><circle cx="317.83" cy="178.09" r="2.6" fill="#F0A23B"></circle><circle cx="330.3" cy="118.27" r="2.6" fill="#F0A23B"></circle><circle cx="342.77" cy="178.67" r="2.6" fill="#F0A23B"></circle><circle cx="355.23" cy="180.72" r="2.6" fill="#F0A23B"></circle><circle cx="367.7" cy="177.62" r="2.6" fill="#F0A23B"></circle><circle cx="380.17" cy="179.5" r="2.6" fill="#F0A23B"></circle><circle cx="392.64" cy="151.31" r="2.6" fill="#F0A23B"></circle><circle cx="405.11" cy="176.94" r="2.6" fill="#F0A23B"></circle><circle cx="417.57" cy="159.91" r="2.6" fill="#F0A23B"></circle><circle cx="430.04" cy="179.22" r="2.6" fill="#F0A23B"></circle><circle cx="442.51" cy="151.49" r="2.6" fill="#F0A23B"></circle><circle cx="454.98" cy="180.65" r="2.6" fill="#F0A23B"></circle><circle cx="467.45" cy="179.71" r="2.6" fill="#F0A23B"></circle><circle cx="479.91" cy="79.16" r="2.6" fill="#F0A23B"></circle><circle cx="492.38" cy="99.74" r="2.6" fill="#F0A23B"></circle><circle cx="504.85" cy="178.4" r="2.6" fill="#F0A23B"></circle><circle cx="517.32" cy="180.3" r="2.6" fill="#F0A23B"></circle><circle cx="529.79" cy="180.24" r="2.6" fill="#F0A23B"></circle><circle cx="542.26" cy="176.88" r="2.6" fill="#F0A23B"></circle><circle cx="554.72" cy="178.65" r="2.6" fill="#F0A23B"></circle><circle cx="567.19" cy="183.45" r="2.6" fill="#F0A23B"></circle><circle cx="579.66" cy="182.56" r="2.6" fill="#F0A23B"></circle><circle cx="592.13" cy="133.59" r="2.6" fill="#F0A23B"></circle><circle cx="604.6" cy="178.99" r="2.6" fill="#F0A23B"></circle><circle cx="617.06" cy="179.14" r="2.6" fill="#F0A23B"></circle><circle cx="629.53" cy="119.51" r="2.6" fill="#F0A23B"></circle><circle cx="642" cy="175.85" r="2.6" fill="#F0A23B"></circle><polyline fill="none" stroke="#1F9CF0" stroke-width="2.4" stroke-linejoin="round" stroke-linecap="round" points="56,175.5 68.47,176.2 80.94,132.71 93.4,178.27 105.87,172 118.34,174.38 130.81,174.4 143.28,170.88 155.74,173.93 168.21,173.54 180.68,100.75 193.15,168.69 205.62,173.59 218.09,174.01 230.55,167.31 243.02,117.5 255.49,166.02 267.96,174.07 280.43,141.6 292.89,169.05 305.36,167.14 317.83,174.48 330.3,150.94 342.77,171.01 355.23,52.43 367.7,157.26 380.17,171.51 392.64,136.29 405.11,169.79 417.57,106.45 430.04,170.47 442.51,175.76 454.98,174.01 467.45,174.06 479.91,151.2 492.38,173.78 504.85,169.88 517.32,177.61 529.79,137.18 542.26,114.15 554.72,168.74 567.19,168.47 579.66,130.46 592.13,174.44 604.6,175.01 617.06,171.26 629.53,176.81 642,171.37"></polyline><circle cx="56" cy="175.5" r="2.6" fill="#1F9CF0"></circle><circle cx="68.47" cy="176.2" r="2.6" fill="#1F9CF0"></circle><circle cx="80.94" cy="132.71" r="2.6" fill="#1F9CF0"></circle><circle cx="93.4" cy="178.27" r="2.6" fill="#1F9CF0"></circle><circle cx="105.87" cy="172" r="2.6" fill="#1F9CF0"></circle><circle cx="118.34" cy="174.38" r="2.6" fill="#1F9CF0"></circle><circle cx="130.81" cy="174.4" r="2.6" fill="#1F9CF0"></circle><circle cx="143.28" cy="170.88" r="2.6" fill="#1F9CF0"></circle><circle cx="155.74" cy="173.93" r="2.6" fill="#1F9CF0"></circle><circle cx="168.21" cy="173.54" r="2.6" fill="#1F9CF0"></circle><circle cx="180.68" cy="100.75" r="2.6" fill="#1F9CF0"></circle><circle cx="193.15" cy="168.69" r="2.6" fill="#1F9CF0"></circle><circle cx="205.62" cy="173.59" r="2.6" fill="#1F9CF0"></circle><circle cx="218.09" cy="174.01" r="2.6" fill="#1F9CF0"></circle><circle cx="230.55" cy="167.31" r="2.6" fill="#1F9CF0"></circle><circle cx="243.02" cy="117.5" r="2.6" fill="#1F9CF0"></circle><circle cx="255.49" cy="166.02" r="2.6" fill="#1F9CF0"></circle><circle cx="267.96" cy="174.07" r="2.6" fill="#1F9CF0"></circle><circle cx="280.43" cy="141.6" r="2.6" fill="#1F9CF0"></circle><circle cx="292.89" cy="169.05" r="2.6" fill="#1F9CF0"></circle><circle cx="305.36" cy="167.14" r="2.6" fill="#1F9CF0"></circle><circle cx="317.83" cy="174.48" r="2.6" fill="#1F9CF0"></circle><circle cx="330.3" cy="150.94" r="2.6" fill="#1F9CF0"></circle><circle cx="342.77" cy="171.01" r="2.6" fill="#1F9CF0"></circle><circle cx="355.23" cy="52.43" r="2.6" fill="#1F9CF0"></circle><circle cx="367.7" cy="157.26" r="2.6" fill="#1F9CF0"></circle><circle cx="380.17" cy="171.51" r="2.6" fill="#1F9CF0"></circle><circle cx="392.64" cy="136.29" r="2.6" fill="#1F9CF0"></circle><circle cx="405.11" cy="169.79" r="2.6" fill="#1F9CF0"></circle><circle cx="417.57" cy="106.45" r="2.6" fill="#1F9CF0"></circle><circle cx="430.04" cy="170.47" r="2.6" fill="#1F9CF0"></circle><circle cx="442.51" cy="175.76" r="2.6" fill="#1F9CF0"></circle><circle cx="454.98" cy="174.01" r="2.6" fill="#1F9CF0"></circle><circle cx="467.45" cy="174.06" r="2.6" fill="#1F9CF0"></circle><circle cx="479.91" cy="151.2" r="2.6" fill="#1F9CF0"></circle><circle cx="492.38" cy="173.78" r="2.6" fill="#1F9CF0"></circle><circle cx="504.85" cy="169.88" r="2.6" fill="#1F9CF0"></circle><circle cx="517.32" cy="177.61" r="2.6" fill="#1F9CF0"></circle><circle cx="529.79" cy="137.18" r="2.6" fill="#1F9CF0"></circle><circle cx="542.26" cy="114.15" r="2.6" fill="#1F9CF0"></circle><circle cx="554.72" cy="168.74" r="2.6" fill="#1F9CF0"></circle><circle cx="567.19" cy="168.47" r="2.6" fill="#1F9CF0"></circle><circle cx="579.66" cy="130.46" r="2.6" fill="#1F9CF0"></circle><circle cx="592.13" cy="174.44" r="2.6" fill="#1F9CF0"></circle><circle cx="604.6" cy="175.01" r="2.6" fill="#1F9CF0"></circle><circle cx="617.06" cy="171.26" r="2.6" fill="#1F9CF0"></circle><circle cx="629.53" cy="176.81" r="2.6" fill="#1F9CF0"></circle><circle cx="642" cy="171.37" r="2.6" fill="#1F9CF0"></circle><line x1="656" y1="27" x2="672" y2="27" stroke="#6366F1" stroke-width="3" stroke-linecap="round"></line><text x="678" y="30" font-size="11" font-weight="400" text-anchor="start" fill="#1f2328">deepseek</text><line x1="656" y1="47" x2="672" y2="47" stroke="#A371F7" stroke-width="3" stroke-linecap="round"></line><text x="678" y="50" font-size="11" font-weight="400" text-anchor="start" fill="#1f2328">llama</text><line x1="656" y1="67" x2="672" y2="67" stroke="#F0A23B" stroke-width="3" stroke-linecap="round"></line><text x="678" y="70" font-size="11" font-weight="400" text-anchor="start" fill="#1f2328">mistral</text><line x1="656" y1="87" x2="672" y2="87" stroke="#1F9CF0" stroke-width="3" stroke-linecap="round"></line><text x="678" y="90" font-size="11" font-weight="400" text-anchor="start" fill="#1f2328">openai</text></svg>
