<svg xmlns="http://www.w3.org/2000/svg" viewBox="0 0 600 300" width="600" height="300" role="img" aria-label="Cost per test by provider over runs ($)"><text x="300.0" y="24" text-anchor="middle" font-family="system-ui, -apple-system, sans-serif" font-size="14" font-weight="600" fill="#333">Cost per test by provider over runs ($)</text><line x1="60" y1="240.0" x2="480" y2="240.0" stroke="#eee" stroke-width="1"/><text x="54" y="244.0" text-anchor="end" font-family="system-ui, -apple-system, sans-serif" font-size="9" fill="#999">0.007197</text><line x1="60" y1="140.0" x2="480" y2="140.0" stroke="#eee" stroke-width="1"/><text x="54" y="144.0" text-anchor="end" font-family="system-ui, -apple-system, sans-serif" font-size="9" fill="#999">0.08167</text><line x1="60" y1="40.0" x2="480" y2="40.0" stroke="#eee" stroke-width="1"/><text x="54" y="44.0" text-anchor="end" font-family="system-ui, -apple-system, sans-serif" font-size="9" fill="#999">0.1561</text><polyline fill="none" stroke="#4CAF50" stroke-width="2" points="60.0,141.8 71.4,142.3 82.7,106.4 94.1,144.1 105.4,138.9 116.8,140.8 128.1,140.9 139.5,137.9 150.8,140.5 162.2,140.1 173.5,80.0 184.9,136.1 196.2,140.2 207.6,140.5 218.9,135.0 230.3,93.8 241.6,133.9 253.0,140.6 264.3,113.7 275.7,136.4 287.0,134.8 298.4,140.9 309.7,121.5 321.1,138.0 332.4,40.0 343.8,126.7 355.1,138.5 366.5,109.3 377.8,137.0 389.2,84.7 400.5,137.6 411.9,142.0 423.2,140.5 434.6,140.6 445.9,121.7 457.3,140.3 468.6,137.1 480.0,143.5"/><circle cx="60.0" cy="141.8" r="3" fill="#4CAF50"/><circle cx="71.4" cy="142.3" r="3" fill="#4CAF50"/><circle cx="82.7" cy="106.4" r="3" fill="#4CAF50"/><circle cx="94.1" cy="144.1" r="3" fill="#4CAF50"/><circle cx="105.4" cy="138.9" r="3" fill="#4CAF50"/><circle cx="116.8" cy="140.8" r="3" fill="#4CAF50"/><circle cx="128.1" cy="140.9" r="3" fill="#4CAF50"/><circle cx="139.5" cy="137.9" r="3" fill="#4CAF50"/><circle cx="150.8" cy="140.5" r="3" fill="#4CAF50"/><circle cx="162.2" cy="140.1" r="3" fill="#4CAF50"/><circle cx="173.5" cy="80.0" r="3" fill="#4CAF50"/><circle cx="184.9" cy="136.1" r="3" fill="#4CAF50"/><circle cx="196.2" cy="140.2" r="3" fill="#4CAF50"/><circle cx="207.6" cy="140.5" r="3" fill="#4CAF50"/><circle cx="218.9" cy="135.0" r="3" fill="#4CAF50"/><circle cx="230.3" cy="93.8" r="3" fill="#4CAF50"/><circle cx="241.6" cy="133.9" r="3" fill="#4CAF50"/><circle cx="253.0" cy="140.6" r="3" fill="#4CAF50"/><circle cx="264.3" cy="113.7" r="3" fill="#4CAF50"/><circle cx="275.7" cy="136.4" r="3" fill="#4CAF50"/><circle cx="287.0" cy="134.8" r="3" fill="#4CAF50"/><circle cx="298.4" cy="140.9" r="3" fill="#4CAF50"/><circle cx="309.7" cy="121.5" r="3" fill="#4CAF50"/><circle cx="321.1" cy="138.0" r="3" fill="#4CAF50"/><circle cx="332.4" cy="40.0" r="3" fill="#4CAF50"/><circle cx="343.8" cy="126.7" r="3" fill="#4CAF50"/><circle cx="355.1" cy="138.5" r="3" fill="#4CAF50"/><circle cx="366.5" cy="109.3" r="3" fill="#4CAF50"/><circle cx="377.8" cy="137.0" r="3" fill="#4CAF50"/><circle cx="389.2" cy="84.7" r="3" fill="#4CAF50"/><circle cx="400.5" cy="137.6" r="3" fill="#4CAF50"/><circle cx="411.9" cy="142.0" r="3" fill="#4CAF50"/><circle cx="423.2" cy="140.5" r="3" fill="#4CAF50"/><circle cx="434.6" cy="140.6" r="3" fill="#4CAF50"/><circle cx="445.9" cy="121.7" r="3" fill="#4CAF50"/><circle cx="457.3" cy="140.3" r="3" fill="#4CAF50"/><circle cx="468.6" cy="137.1" r="3" fill="#4CAF50"/><circle cx="480.0" cy="143.5" r="3" fill="#4CAF50"/><rect x="490" y="44" width="10" height="10" fill="#4CAF50"/><text x="504" y="53" font-family="system-ui, -apple-system, sans-serif" font-size="10" fill="#333">openai</text><polyline fill="none" stroke="#2196F3" stroke-width="2" points="60.0,143.4 71.4,149.4 82.7,143.1 94.1,145.8 105.4,151.8 116.8,139.6 128.1,145.6 139.5,141.5 150.8,141.5 162.2,140.7 173.5,142.6 184.9,153.3 196.2,152.2 207.6,146.8 218.9,141.9 230.3,142.2 241.6,116.6 253.0,142.0 264.3,114.7 275.7,122.7 287.0,135.5 298.4,130.6 309.7,145.2 321.1,124.2 332.4,141.8 343.8,137.0 355.1,134.1 366.5,136.4 480.0,148.5"/><circle cx="60.0" cy="143.4" r="3" fill="#2196F3"/><circle cx="71.4" cy="149.4" r="3" fill="#2196F3"/><circle cx="82.7" cy="143.1" r="3" fill="#2196F3"/><circle cx="94.1" cy="145.8" r="3" fill="#2196F3"/><circle cx="105.4" cy="151.8" r="3" fill="#2196F3"/><circle cx="116.8" cy="139.6" r="3" fill="#2196F3"/><circle cx="128.1" cy="145.6" r="3" fill="#2196F3"/><circle cx="139.5" cy="141.5" r="3" fill="#2196F3"/><circle cx="150.8" cy="141.5" r="3" fill="#2196F3"/><circle cx="162.2" cy="140.7" r="3" fill="#2196F3"/><circle cx="173.5" cy="142.6" r="3" fill="#2196F3"/><circle cx="184.9" cy="153.3" r="3" fill="#2196F3"/><circle cx="196.2" cy="152.2" r="3" fill="#2196F3"/><circle cx="207.6" cy="146.8" r="3" fill="#2196F3"/><circle cx="218.9" cy="141.9" r="3" fill="#2196F3"/><circle cx="230.3" cy="142.2" r="3" fill="#2196F3"/><circle cx="241.6" cy="116.6" r="3" fill="#2196F3"/><circle cx="253.0" cy="142.0" r="3" fill="#2196F3"/><circle cx="264.3" cy="114.7" r="3" fill="#2196F3"/><circle cx="275.7" cy="122.7" r="3" fill="#2196F3"/><circle cx="287.0" cy="135.5" r="3" fill="#2196F3"/><circle cx="298.4" cy="130.6" r="3" fill="#2196F3"/><circle cx="309.7" cy="145.2" r="3" fill="#2196F3"/><circle cx="321.1" cy="124.2" r="3" fill="#2196F3"/><circle cx="332.4" cy="141.8" r="3" fill="#2196F3"/><circle cx="343.8" cy="137.0" r="3" fill="#2196F3"/><circle cx="355.1" cy="134.1" r="3" fill="#2196F3"/><circle cx="366.5" cy="136.4" r="3" fill="#2196F3"/><circle cx="480.0" cy="148.5" r="3" fill="#2196F3"/><rect x="490" y="62" width="10" height="10" fill="#2196F3"/><text x="504" y="71" font-family="system-ui, -apple-system, sans-serif" font-size="10" fill="#333">gemini</text><polyline fill="none" stroke="#FF9800" stroke-width="2" points="60.0,102.1 71.4,121.1 82.7,125.3 94.1,97.5 105.4,120.5 116.8,80.6 128.1,115.2 139.5,101.9 150.8,109.2 162.2,118.7 173.5,125.8 184.9,114.2 196.2,107.2 207.6,139.1 218.9,123.1 230.3,120.9 241.6,110.3 264.3,112.2 275.7,124.4 287.0,98.5 298.4,127.8 309.7,122.4 321.1,111.2 332.4,121.0 343.8,123.4 355.1,129.2 366.5,122.2 377.8,135.4 389.2,124.0 400.5,123.6 411.9,132.5 423.2,126.8 434.6,118.3 445.9,122.8 457.3,122.9 468.6,119.2 480.0,121.7"/><circle cx="60.0" cy="102.1" r="3" fill="#FF9800"/><circle cx="71.4" cy="121.1" r="3" fill="#FF9800"/><circle cx="82.7" cy="125.3" r="3" fill="#FF9800"/><circle cx="94.1" cy="97.5" r="3" fill="#FF9800"/><circle cx="105.4" cy="120.5" r="3" fill="#FF9800"/><circle cx="116.8" cy="80.6" r="3" fill="#FF9800"/><circle cx="128.1" cy="115.2" r="3" fill="#FF9800"/><circle cx="139.5" cy="101.9" r="3" fill="#FF9800"/><circle cx="150.8" cy="109.2" r="3" fill="#FF9800"/><circle cx="162.2" cy="118.7" r="3" fill="#FF9800"/><circle cx="173.5" cy="125.8" r="3" fill="#FF9800"/><circle cx="184.9" cy="114.2" r="3" fill="#FF9800"/><circle cx="196.2" cy="107.2" r="3" fill="#FF9800"/><circle cx="207.6" cy="139.1" r="3" fill="#FF9800"/><circle cx="218.9" cy="123.1" r="3" fill="#FF9800"/><circle cx="230.3" cy="120.9" r="3" fill="#FF9800"/><circle cx="241.6" cy="110.3" r="3" fill="#FF9800"/><circle cx="264.3" cy="112.2" r="3" fill="#FF9800"/><circle cx="275.7" cy="124.4" r="3" fill="#FF9800"/><circle cx="287.0" cy="98.5" r="3" fill="#FF9800"/><circle cx="298.4" cy="127.8" r="3" fill="#FF9800"/><circle cx="309.7" cy="122.4" r="3" fill="#FF9800"/><circle cx="321.1" cy="111.2" r="3" fill="#FF9800"/><circle cx="332.4" cy="121.0" r="3" fill="#FF9800"/><circle cx="343.8" cy="123.4" r="3" fill="#FF9800"/><circle cx="355.1" cy="129.2" r="3" fill="#FF9800"/><circle cx="366.5" cy="122.2" r="3" fill="#FF9800"/><circle cx="377.8" cy="135.4" r="3" fill="#FF9800"/><circle cx="389.2" cy="124.0" r="3" fill="#FF9800"/><circle cx="400.5" cy="123.6" r="3" fill="#FF9800"/><circle cx="411.9" cy="132.5" r="3" fill="#FF9800"/><circle cx="423.2" cy="126.8" r="3" fill="#FF9800"/><circle cx="434.6" cy="118.3" r="3" fill="#FF9800"/><circle cx="445.9" cy="122.8" r="3" fill="#FF9800"/><circle cx="457.3" cy="122.9" r="3" fill="#FF9800"/><circle cx="468.6" cy="119.2" r="3" fill="#FF9800"/><circle cx="480.0" cy="121.7" r="3" fill="#FF9800"/><rect x="490" y="80" width="10" height="10" fill="#FF9800"/><text x="504" y="89" font-family="system-ui, -apple-system, sans-serif" font-size="10" fill="#333">anthropic</text><polyline fill="none" stroke="#E91E63" stroke-width="2" points="60.0,142.3 71.4,134.2 82.7,75.2 94.1,148.6 105.4,144.6 116.8,147.1 128.1,137.4 139.5,137.1 150.8,134.0 162.2,140.2 173.5,134.0 184.9,134.7 196.2,136.5 207.6,142.6 218.9,129.8 230.3,141.3 241.6,135.9 253.0,139.7 264.3,149.9 275.7,142.4 287.0,146.8 298.4,143.9 309.7,94.4 321.1,144.4 332.4,146.1 343.8,143.5 355.1,145.1 366.5,121.8 377.8,142.9 389.2,128.9 400.5,144.8 411.9,121.9 423.2,146.0 434.6,145.2 445.9,62.1 457.3,79.1 468.6,144.2 480.0,145.7"/><circle cx="60.0" cy="142.3" r="3" fill="#E91E63"/><circle cx="71.4" cy="134.2" r="3" fill="#E91E63"/><circle cx="82.7" cy="75.2" r="3" fill="#E91E63"/><circle cx="94.1" cy="148.6" r="3" fill="#E91E63"/><circle cx="105.4" cy="144.6" r="3" fill="#E91E63"/><circle cx="116.8" cy="147.1" r="3" fill="#E91E63"/><circle cx="128.1" cy="137.4" r="3" fill="#E91E63"/><circle cx="139.5" cy="137.1" r="3" fill="#E91E63"/><circle cx="150.8" cy="134.0" r="3" fill="#E91E63"/><circle cx="162.2" cy="140.2" r="3" fill="#E91E63"/><circle cx="173.5" cy="134.0" r="3" fill="#E91E63"/><circle cx="184.9" cy="134.7" r="3" fill="#E91E63"/><circle cx="196.2" cy="136.5" r="3" fill="#E91E63"/><circle cx="207.6" cy="142.6" r="3" fill="#E91E63"/><circle cx="218.9" cy="129.8" r="3" fill="#E91E63"/><circle cx="230.3" cy="141.3" r="3" fill="#E91E63"/><circle cx="241.6" cy="135.9" r="3" fill="#E91E63"/><circle cx="253.0" cy="139.7" r="3" fill="#E91E63"/><circle cx="264.3" cy="149.9" r="3" fill="#E91E63"/><circle cx="275.7" cy="142.4" r="3" fill="#E91E63"/><circle cx="287.0" cy="146.8" r="3" fill="#E91E63"/><circle cx="298.4" cy="143.9" r="3" fill="#E91E63"/><circle cx="309.7" cy="94.4" r="3" fill="#E91E63"/><circle cx="321.1" cy="144.4" r="3" fill="#E91E63"/><circle cx="332.4" cy="146.1" r="3" fill="#E91E63"/><circle cx="343.8" cy="143.5" r="3" fill="#E91E63"/><circle cx="355.1" cy="145.1" r="3" fill="#E91E63"/><circle cx="366.5" cy="121.8" r="3" fill="#E91E63"/><circle cx="377.8" cy="142.9" r="3" fill="#E91E63"/><circle cx="389.2" cy="128.9" r="3" fill="#E91E63"/><circle cx="400.5" cy="144.8" r="3" fill="#E91E63"/><circle cx="411.9" cy="121.9" r="3" fill="#E91E63"/><circle cx="423.2" cy="146.0" r="3" fill="#E91E63"/><circle cx="434.6" cy="145.2" r="3" fill="#E91E63"/><circle cx="445.9" cy="62.1" r="3" fill="#E91E63"/><circle cx="457.3" cy="79.1" r="3" fill="#E91E63"/><circle cx="468.6" cy="144.2" r="3" fill="#E91E63"/><circle cx="480.0" cy="145.7" r="3" fill="#E91E63"/><rect x="490" y="98" width="10" height="10" fill="#E91E63"/><text x="504" y="107" font-family="system-ui, -apple-system, sans-serif" font-size="10" fill="#333">mistral</text><polyline fill="none" stroke="#9C27B0" stroke-width="2" points="60.0,190.1 71.4,198.8 82.7,201.7 94.1,188.0 105.4,194.2 116.8,202.7 128.1,198.8 139.5,193.1 150.8,195.8 162.2,201.2 173.5,195.7 184.9,193.6 196.2,197.3 207.6,183.3 218.9,198.4 230.3,193.5 241.6,200.8 253.0,201.2 264.3,184.1 275.7,194.7 287.0,171.9 298.4,200.2 309.7,202.6 321.1,192.6 332.4,190.9 343.8,193.9 355.1,195.4 366.5,193.3 377.8,200.6 389.2,196.9 400.5,193.7 411.9,198.9 423.2,202.5 434.6,184.0 445.9,198.5 457.3,200.0 480.0,182.9"/><circle cx="60.0" cy="190.1" r="3" fill="#9C27B0"/><circle cx="71.4" cy="198.8" r="3" fill="#9C27B0"/><circle cx="82.7" cy="201.7" r="3" fill="#9C27B0"/><circle cx="94.1" cy="188.0" r="3" fill="#9C27B0"/><circle cx="105.4" cy="194.2" r="3" fill="#9C27B0"/><circle cx="116.8" cy="202.7" r="3" fill="#9C27B0"/><circle cx="128.1" cy="198.8" r="3" fill="#9C27B0"/><circle cx="139.5" cy="193.1" r="3" fill="#9C27B0"/><circle cx="150.8" cy="195.8" r="3" fill="#9C27B0"/><circle cx="162.2" cy="201.2" r="3" fill="#9C27B0"/><circle cx="173.5" cy="195.7" r="3" fill="#9C27B0"/><circle cx="184.9" cy="193.6" r="3" fill="#9C27B0"/><circle cx="196.2" cy="197.3" r="3" fill="#9C27B0"/><circle cx="207.6" cy="183.3" r="3" fill="#9C27B0"/><circle cx="218.9" cy="198.4" r="3" fill="#9C27B0"/><circle cx="230.3" cy="193.5" r="3" fill="#9C27B0"/><circle cx="241.6" cy="200.8" r="3" fill="#9C27B0"/><circle cx="253.0" cy="201.2" r="3" fill="#9C27B0"/><circle cx="264.3" cy="184.1" r="3" fill="#9C27B0"/><circle cx="275.7" cy="194.7" r="3" fill="#9C27B0"/><circle cx="287.0" cy="171.9" r="3" fill="#9C27B0"/><circle cx="298.4" cy="200.2" r="3" fill="#9C27B0"/><circle cx="309.7" cy="202.6" r="3" fill="#9C27B0"/><circle cx="321.1" cy="192.6" r="3" fill="#9C27B0"/><circle cx="332.4" cy="190.9" r="3" fill="#9C27B0"/><circle cx="343.8" cy="193.9" r="3" fill="#9C27B0"/><circle cx="355.1" cy="195.4" r="3" fill="#9C27B0"/><circle cx="366.5" cy="193.3" r="3" fill="#9C27B0"/><circle cx="377.8" cy="200.6" r="3" fill="#9C27B0"/><circle cx="389.2" cy="196.9" r="3" fill="#9C27B0"/><circle cx="400.5" cy="193.7" r="3" fill="#9C27B0"/><circle cx="411.9" cy="198.9" r="3" fill="#9C27B0"/><circle cx="423.2" cy="202.5" r="3" fill="#9C27B0"/><circle cx="434.6" cy="184.0" r="3" fill="#9C27B0"/><circle cx="445.9" cy="198.5" r="3" fill="#9C27B0"/><circle cx="457.3" cy="200.0" r="3" fill="#9C27B0"/><circle cx="480.0" cy="182.9" r="3" fill="#9C27B0"/><rect x="490" y="116" width="10" height="10" fill="#9C27B0"/><text x="504" y="125" font-family="system-ui, -apple-system, sans-serif" font-size="10" fill="#333">llama</text><polyline fill="none" stroke="#00BCD4" stroke-width="2" points="150.8,239.2 162.2,239.3 173.5,239.8 184.9,238.8 196.2,239.0 207.6,234.2 218.9,240.0 230.3,237.9 241.6,237.9 253.0,237.6 264.3,238.9 275.7,237.9 287.0,235.2 298.4,238.1 309.7,235.5 321.1,240.0 332.4,238.2 343.8,235.2 355.1,232.9 366.5,238.2 377.8,237.3 389.2,239.5 400.5,236.5 411.9,233.9 423.2,238.7 434.6,237.8 445.9,238.5 457.3,237.5 480.0,237.0"/><circle cx="150.8" cy="239.2" r="3" fill="#00BCD4"/><circle cx="162.2" cy="239.3" r="3" fill="#00BCD4"/><circle cx="173.5" cy="239.8" r="3" fill="#00BCD4"/><circle cx="184.9" cy="238.8" r="3" fill="#00BCD4"/><circle cx="196.2" cy="239.0" r="3" fill="#00BCD4"/><circle cx="207.6" cy="234.2" r="3" fill="#00BCD4"/><circle cx="218.9" cy="240.0" r="3" fill="#00BCD4"/><circle cx="230.3" cy="237.9" r="3" fill="#00BCD4"/><circle cx="241.6" cy="237.9" r="3" fill="#00BCD4"/><circle cx="253.0" cy="237.6" r="3" fill="#00BCD4"/><circle cx="264.3" cy="238.9" r="3" fill="#00BCD4"/><circle cx="275.7" cy="237.9" r="3" fill="#00BCD4"/><circle cx="287.0" cy="235.2" r="3" fill="#00BCD4"/><circle cx="298.4" cy="238.1" r="3" fill="#00BCD4"/><circle cx="309.7" cy="235.5" r="3" fill="#00BCD4"/><circle cx="321.1" cy="240.0" r="3" fill="#00BCD4"/><circle cx="332.4" cy="238.2" r="3" fill="#00BCD4"/><circle cx="343.8" cy="235.2" r="3" fill="#00BCD4"/><circle cx="355.1" cy="232.9" r="3" fill="#00BCD4"/><circle cx="366.5" cy="238.2" r="3" fill="#00BCD4"/><circle cx="377.8" cy="237.3" r="3" fill="#00BCD4"/><circle cx="389.2" cy="239.5" r="3" fill="#00BCD4"/><circle cx="400.5" cy="236.5" r="3" fill="#00BCD4"/><circle cx="411.9" cy="233.9" r="3" fill="#00BCD4"/><circle cx="423.2" cy="238.7" r="3" fill="#00BCD4"/><circle cx="434.6" cy="237.8" r="3" fill="#00BCD4"/><circle cx="445.9" cy="238.5" r="3" fill="#00BCD4"/><circle cx="457.3" cy="237.5" r="3" fill="#00BCD4"/><circle cx="480.0" cy="237.0" r="3" fill="#00BCD4"/><rect x="490" y="134" width="10" height="10" fill="#00BCD4"/><text x="504" y="143" font-family="system-ui, -apple-system, sans-serif" font-size="10" fill="#333">deepseek</text><text x="60.0" y="256.0" text-anchor="middle" font-family="system-ui, -apple-system, sans-serif" font-size="9" fill="#666">71825113</text><text x="94.1" y="256.0" text-anchor="middle" font-family="system-ui, -apple-system, sans-serif" font-size="9" fill="#666">97386462</text><text x="128.1" y="256.0" text-anchor="middle" font-family="system-ui, -apple-system, sans-serif" font-size="9" fill="#666">31919473</text><text x="162.2" y="256.0" text-anchor="middle" font-family="system-ui, -apple-system, sans-serif" font-size="9" fill="#666">51938981</text><text x="196.2" y="256.0" text-anchor="middle" font-family="system-ui, -apple-system, sans-serif" font-size="9" fill="#666">73723278</text><text x="230.3" y="256.0" text-anchor="middle" font-family="system-ui, -apple-system, sans-serif" font-size="9" fill="#666">75757458</text><text x="264.3" y="256.0" text-anchor="middle" font-family="system-ui, -apple-system, sans-serif" font-size="9" fill="#666">39719442</text><text x="298.4" y="256.0" text-anchor="middle" font-family="system-ui, -apple-system, sans-serif" font-size="9" fill="#666">04094958</text><text x="332.4" y="256.0" text-anchor="middle" font-family="system-ui, -apple-system, sans-serif" font-size="9" fill="#666">34092480</text><text x="366.5" y="256.0" text-anchor="middle" font-family="system-ui, -apple-system, sans-serif" font-size="9" fill="#666">68748512</text><text x="400.5" y="256.0" text-anchor="middle" font-family="system-ui, -apple-system, sans-serif" font-size="9" fill="#666">00682223</text><text x="434.6" y="256.0" text-anchor="middle" font-family="system-ui, -apple-system, sans-serif" font-size="9" fill="#666">62366017</text><text x="468.6" y="256.0" text-anchor="middle" font-family="system-ui, -apple-system, sans-serif" font-size="9" fill="#666">77201419</text></svg>
