<svg xmlns="http://www.w3.org/2000/svg" viewBox="0 0 600 300" width="600" height="300" role="img" aria-label="Cost per test by provider over runs ($)"><text x="300.0" y="24" text-anchor="middle" font-family="system-ui, -apple-system, sans-serif" font-size="14" font-weight="600" fill="#333">Cost per test by provider over runs ($)</text><line x1="60" y1="240.0" x2="480" y2="240.0" stroke="#eee" stroke-width="1"/><text x="54" y="244.0" text-anchor="end" font-family="system-ui, -apple-system, sans-serif" font-size="9" fill="#999">0.007197</text><line x1="60" y1="140.0" x2="480" y2="140.0" stroke="#eee" stroke-width="1"/><text x="54" y="144.0" text-anchor="end" font-family="system-ui, -apple-system, sans-serif" font-size="9" fill="#999">0.06855</text><line x1="60" y1="40.0" x2="480" y2="40.0" stroke="#eee" stroke-width="1"/><text x="54" y="44.0" text-anchor="end" font-family="system-ui, -apple-system, sans-serif" font-size="9" fill="#999">0.1299</text><polyline fill="none" stroke="#4CAF50" stroke-width="2" points="60.0,120.7 78.3,121.4 96.5,77.8 114.8,123.5 133.0,117.2 151.3,119.6 169.6,119.6 187.8,116.1 206.1,119.2 224.3,118.8 242.6,45.7 260.9,113.9 279.1,118.8 297.4,119.2 315.7,112.5 333.9,62.5 352.2,111.2 370.4,119.3 388.7,86.7 407.0,114.3 425.2,112.4 443.5,119.7 461.7,96.1 480.0,116.2"/><circle cx="60.0" cy="120.7" r="3" fill="#4CAF50"/><circle cx="78.3" cy="121.4" r="3" fill="#4CAF50"/><circle cx="96.5" cy="77.8" r="3" fill="#4CAF50"/><circle cx="114.8" cy="123.5" r="3" fill="#4CAF50"/><circle cx="133.0" cy="117.2" r="3" fill="#4CAF50"/><circle cx="151.3" cy="119.6" r="3" fill="#4CAF50"/><circle cx="169.6" cy="119.6" r="3" fill="#4CAF50"/><circle cx="187.8" cy="116.1" r="3" fill="#4CAF50"/><circle cx="206.1" cy="119.2" r="3" fill="#4CAF50"/><circle cx="224.3" cy="118.8" r="3" fill="#4CAF50"/><circle cx="242.6" cy="45.7" r="3" fill="#4CAF50"/><circle cx="260.9" cy="113.9" r="3" fill="#4CAF50"/><circle cx="279.1" cy="118.8" r="3" fill="#4CAF50"/><circle cx="297.4" cy="119.2" r="3" fill="#4CAF50"/><circle cx="315.7" cy="112.5" r="3" fill="#4CAF50"/><circle cx="333.9" cy="62.5" r="3" fill="#4CAF50"/><circle cx="352.2" cy="111.2" r="3" fill="#4CAF50"/><circle cx="370.4" cy="119.3" r="3" fill="#4CAF50"/><circle cx="388.7" cy="86.7" r="3" fill="#4CAF50"/><circle cx="407.0" cy="114.3" r="3" fill="#4CAF50"/><circle cx="425.2" cy="112.4" r="3" fill="#4CAF50"/><circle cx="443.5" cy="119.7" r="3" fill="#4CAF50"/><circle cx="461.7" cy="96.1" r="3" fill="#4CAF50"/><circle cx="480.0" cy="116.2" r="3" fill="#4CAF50"/><rect x="490" y="44" width="10" height="10" fill="#4CAF50"/><text x="504" y="53" font-family="system-ui, -apple-system, sans-serif" font-size="10" fill="#333">openai</text><polyline fill="none" stroke="#2196F3" stroke-width="2" points="60.0,122.8 78.3,130.0 96.5,122.3 114.8,125.6 133.0,132.9 151.3,118.1 169.6,125.4 187.8,120.4 206.1,120.4 224.3,119.4 242.6,121.8 260.9,134.7 279.1,133.4 297.4,126.9 315.7,121.0 333.9,121.3 352.2,90.2 370.4,121.1 388.7,87.9 407.0,97.6 425.2,113.2 443.5,107.2 461.7,124.9 480.0,99.4"/><circle cx="60.0" cy="122.8" r="3" fill="#2196F3"/><circle cx="78.3" cy="130.0" r="3" fill="#2196F3"/><circle cx="96.5" cy="122.3" r="3" fill="#2196F3"/><circle cx="114.8" cy="125.6" r="3" fill="#2196F3"/><circle cx="133.0" cy="132.9" r="3" fill="#2196F3"/><circle cx="151.3" cy="118.1" r="3" fill="#2196F3"/><circle cx="169.6" cy="125.4" r="3" fill="#2196F3"/><circle cx="187.8" cy="120.4" r="3" fill="#2196F3"/><circle cx="206.1" cy="120.4" r="3" fill="#2196F3"/><circle cx="224.3" cy="119.4" r="3" fill="#2196F3"/><circle cx="242.6" cy="121.8" r="3" fill="#2196F3"/><circle cx="260.9" cy="134.7" r="3" fill="#2196F3"/><circle cx="279.1" cy="133.4" r="3" fill="#2196F3"/><circle cx="297.4" cy="126.9" r="3" fill="#2196F3"/><circle cx="315.7" cy="121.0" r="3" fill="#2196F3"/><circle cx="333.9" cy="121.3" r="3" fill="#2196F3"/><circle cx="352.2" cy="90.2" r="3" fill="#2196F3"/><circle cx="370.4" cy="121.1" r="3" fill="#2196F3"/><circle cx="388.7" cy="87.9" r="3" fill="#2196F3"/><circle cx="407.0" cy="97.6" r="3" fill="#2196F3"/><circle cx="425.2" cy="113.2" r="3" fill="#2196F3"/><circle cx="443.5" cy="107.2" r="3" fill="#2196F3"/><circle cx="461.7" cy="124.9" r="3" fill="#2196F3"/><circle cx="480.0" cy="99.4" r="3" fill="#2196F3"/><rect x="490" y="62" width="10" height="10" fill="#2196F3"/><text x="504" y="71" font-family="system-ui, -apple-system, sans-serif" font-size="10" fill="#333">gemini</text><polyline fill="none" stroke="#FF9800" stroke-width="2" points="60.0,72.6 78.3,95.7 96.5,100.7 114.8,67.0 133.0,94.9 151.3,46.5 169.6,88.5 187.8,72.3 206.1,81.2 224.3,92.7 242.6,101.3 260.9,87.3 279.1,78.7 297.4,117.6 315.7,98.1 333.9,95.4 352.2,82.5 388.7,84.8 407.0,99.7 425.2,68.3 443.5,103.8 461.7,97.3 480.0,83.6"/><circle cx="60.0" cy="72.6" r="3" fill="#FF9800"/><circle cx="78.3" cy="95.7" r="3" fill="#FF9800"/><circle cx="96.5" cy="100.7" r="3" fill="#FF9800"/><circle cx="114.8" cy="67.0" r="3" fill="#FF9800"/><circle cx="133.0" cy="94.9" r="3" fill="#FF9800"/><circle cx="151.3" cy="46.5" r="3" fill="#FF9800"/><circle cx="169.6" cy="88.5" r="3" fill="#FF9800"/><circle cx="187.8" cy="72.3" r="3" fill="#FF9800"/><circle cx="206.1" cy="81.2" r="3" fill="#FF9800"/><circle cx="224.3" cy="92.7" r="3" fill="#FF9800"/><circle cx="242.6" cy="101.3" r="3" fill="#FF9800"/><circle cx="260.9" cy="87.3" r="3" fill="#FF9800"/><circle cx="279.1" cy="78.7" r="3" fill="#FF9800"/><circle cx="297.4" cy="117.6" r="3" fill="#FF9800"/><circle cx="315.7" cy="98.1" r="3" fill="#FF9800"/><circle cx="333.9" cy="95.4" r="3" fill="#FF9800"/><circle cx="352.2" cy="82.5" r="3" fill="#FF9800"/><circle cx="388.7" cy="84.8" r="3" fill="#FF9800"/><circle cx="407.0" cy="99.7" r="3" fill="#FF9800"/><circle cx="425.2" cy="68.3" r="3" fill="#FF9800"/><circle cx="443.5" cy="103.8" r="3" fill="#FF9800"/><circle cx="461.7" cy="97.3" r="3" fill="#FF9800"/><circle cx="480.0" cy="83.6" r="3" fill="#FF9800"/><rect x="490" y="80" width="10" height="10" fill="#FF9800"/><text x="504" y="89" font-family="system-ui, -apple-system, sans-serif" font-size="10" fill="#333">anthropic</text><polyline fill="none" stroke="#E91E63" stroke-width="2" points="60.0,121.4 78.3,111.6 96.5,40.0 114.8,129.1 133.0,124.1 151.3,127.3 169.6,115.5 187.8,115.1 206.1,111.3 224.3,118.9 242.6,111.3 260.9,112.2 279.1,114.3 297.4,121.8 315.7,106.2 333.9,120.2 352.2,113.6 370.4,118.2 388.7,130.7 407.0,121.5 425.2,126.9 443.5,123.3 461.7,63.3 480.0,123.9"/><circle cx="60.0" cy="121.4" r="3" fill="#E91E63"/><circle cx="78.3" cy="111.6" r="3" fill="#E91E63"/><circle cx="96.5" cy="40.0" r="3" fill="#E91E63"/><circle cx="114.8" cy="129.1" r="3" fill="#E91E63"/><circle cx="133.0" cy="124.1" r="3" fill="#E91E63"/><circle cx="151.3" cy="127.3" r="3" fill="#E91E63"/><circle cx="169.6" cy="115.5" r="3" fill="#E91E63"/><circle cx="187.8" cy="115.1" r="3" fill="#E91E63"/><circle cx="206.1" cy="111.3" r="3" fill="#E91E63"/><circle cx="224.3" cy="118.9" r="3" fill="#E91E63"/><circle cx="242.6" cy="111.3" r="3" fill="#E91E63"/><circle cx="260.9" cy="112.2" r="3" fill="#E91E63"/><circle cx="279.1" cy="114.3" r="3" fill="#E91E63"/><circle cx="297.4" cy="121.8" r="3" fill="#E91E63"/><circle cx="315.7" cy="106.2" r="3" fill="#E91E63"/><circle cx="333.9" cy="120.2" r="3" fill="#E91E63"/><circle cx="352.2" cy="113.6" r="3" fill="#E91E63"/><circle cx="370.4" cy="118.2" r="3" fill="#E91E63"/><circle cx="388.7" cy="130.7" r="3" fill="#E91E63"/><circle cx="407.0" cy="121.5" r="3" fill="#E91E63"/><circle cx="425.2" cy="126.9" r="3" fill="#E91E63"/><circle cx="443.5" cy="123.3" r="3" fill="#E91E63"/><circle cx="461.7" cy="63.3" r="3" fill="#E91E63"/><circle cx="480.0" cy="123.9" r="3" fill="#E91E63"/><rect x="490" y="98" width="10" height="10" fill="#E91E63"/><text x="504" y="107" font-family="system-ui, -apple-system, sans-serif" font-size="10" fill="#333">mistral</text><polyline fill="none" stroke="#9C27B0" stroke-width="2" points="60.0,179.5 78.3,190.0 96.5,193.5 114.8,176.9 133.0,184.4 151.3,194.7 169.6,190.0 187.8,183.0 206.1,186.4 224.3,193.0 242.6,186.3 260.9,183.7 279.1,188.2 297.4,171.2 315.7,189.5 333.9,183.5 352.2,192.4 370.4,192.9 388.7,172.2 407.0,184.9 425.2,157.3 443.5,191.7 461.7,194.6 480.0,182.5"/><circle cx="60.0" cy="179.5" r="3" fill="#9C27B0"/><circle cx="78.3" cy="190.0" r="3" fill="#9C27B0"/><circle cx="96.5" cy="193.5" r="3" fill="#9C27B0"/><circle cx="114.8" cy="176.9" r="3" fill="#9C27B0"/><circle cx="133.0" cy="184.4" r="3" fill="#9C27B0"/><circle cx="151.3" cy="194.7" r="3" fill="#9C27B0"/><circle cx="169.6" cy="190.0" r="3" fill="#9C27B0"/><circle cx="187.8" cy="183.0" r="3" fill="#9C27B0"/><circle cx="206.1" cy="186.4" r="3" fill="#9C27B0"/><circle cx="224.3" cy="193.0" r="3" fill="#9C27B0"/><circle cx="242.6" cy="186.3" r="3" fill="#9C27B0"/><circle cx="260.9" cy="183.7" r="3" fill="#9C27B0"/><circle cx="279.1" cy="188.2" r="3" fill="#9C27B0"/><circle cx="297.4" cy="171.2" r="3" fill="#9C27B0"/><circle cx="315.7" cy="189.5" r="3" fill="#9C27B0"/><circle cx="333.9" cy="183.5" r="3" fill="#9C27B0"/><circle cx="352.2" cy="192.4" r="3" fill="#9C27B0"/><circle cx="370.4" cy="192.9" r="3" fill="#9C27B0"/><circle cx="388.7" cy="172.2" r="3" fill="#9C27B0"/><circle cx="407.0" cy="184.9" r="3" fill="#9C27B0"/><circle cx="425.2" cy="157.3" r="3" fill="#9C27B0"/><circle cx="443.5" cy="191.7" r="3" fill="#9C27B0"/><circle cx="461.7" cy="194.6" r="3" fill="#9C27B0"/><circle cx="480.0" cy="182.5" r="3" fill="#9C27B0"/><rect x="490" y="116" width="10" height="10" fill="#9C27B0"/><text x="504" y="125" font-family="system-ui, -apple-system, sans-serif" font-size="10" fill="#333">llama</text><polyline fill="none" stroke="#00BCD4" stroke-width="2" points="206.1,239.0 224.3,239.1 242.6,239.8 260.9,238.6 279.1,238.8 297.4,233.0 315.7,240.0 333.9,237.4 352.2,237.5 370.4,237.0 388.7,238.7 407.0,237.5 425.2,234.2 443.5,237.7 461.7,234.5 480.0,240.0"/><circle cx="206.1" cy="239.0" r="3" fill="#00BCD4"/><circle cx="224.3" cy="239.1" r="3" fill="#00BCD4"/><circle cx="242.6" cy="239.8" r="3" fill="#00BCD4"/><circle cx="260.9" cy="238.6" r="3" fill="#00BCD4"/><circle cx="279.1" cy="238.8" r="3" fill="#00BCD4"/><circle cx="297.4" cy="233.0" r="3" fill="#00BCD4"/><circle cx="315.7" cy="240.0" r="3" fill="#00BCD4"/><circle cx="333.9" cy="237.4" r="3" fill="#00BCD4"/><circle cx="352.2" cy="237.5" r="3" fill="#00BCD4"/><circle cx="370.4" cy="237.0" r="3" fill="#00BCD4"/><circle cx="388.7" cy="238.7" r="3" fill="#00BCD4"/><circle cx="407.0" cy="237.5" r="3" fill="#00BCD4"/><circle cx="425.2" cy="234.2" r="3" fill="#00BCD4"/><circle cx="443.5" cy="237.7" r="3" fill="#00BCD4"/><circle cx="461.7" cy="234.5" r="3" fill="#00BCD4"/><circle cx="480.0" cy="240.0" r="3" fill="#00BCD4"/><rect x="490" y="134" width="10" height="10" fill="#00BCD4"/><text x="504" y="143" font-family="system-ui, -apple-system, sans-serif" font-size="10" fill="#333">deepseek</text><text x="60.0" y="256.0" text-anchor="middle" font-family="system-ui, -apple-system, sans-serif" font-size="9" fill="#666">71825113</text><text x="96.5" y="256.0" text-anchor="middle" font-family="system-ui, -apple-system, sans-serif" font-size="9" fill="#666">76301827</text><text x="133.0" y="256.0" text-anchor="middle" font-family="system-ui, -apple-system, sans-serif" font-size="9" fill="#666">00118301</text><text x="169.6" y="256.0" text-anchor="middle" font-family="system-ui, -apple-system, sans-serif" font-size="9" fill="#666">31919473</text><text x="206.1" y="256.0" text-anchor="middle" font-family="system-ui, -apple-system, sans-serif" font-size="9" fill="#666">49559976</text><text x="242.6" y="256.0" text-anchor="middle" font-family="system-ui, -apple-system, sans-serif" font-size="9" fill="#666">53749546</text><text x="279.1" y="256.0" text-anchor="middle" font-family="system-ui, -apple-system, sans-serif" font-size="9" fill="#666">73723278</text><text x="315.7" y="256.0" text-anchor="middle" font-family="system-ui, -apple-system, sans-serif" font-size="9" fill="#666">75063969</text><text x="352.2" y="256.0" text-anchor="middle" font-family="system-ui, -apple-system, sans-serif" font-size="9" fill="#666">76005435</text><text x="388.7" y="256.0" text-anchor="middle" font-family="system-ui, -apple-system, sans-serif" font-size="9" fill="#666">39719442</text><text x="425.2" y="256.0" text-anchor="middle" font-family="system-ui, -apple-system, sans-serif" font-size="9" fill="#666">41747041</text><text x="461.7" y="256.0" text-anchor="middle" font-family="system-ui, -apple-system, sans-serif" font-size="9" fill="#666">11556178</text></svg>
