<svg xmlns="http://www.w3.org/2000/svg" viewBox="0 0 600 300" width="600" height="300" role="img" aria-label="Cost per test by provider over runs ($)"><text x="300.0" y="24" text-anchor="middle" font-family="system-ui, -apple-system, sans-serif" font-size="14" font-weight="600" fill="#333">Cost per test by provider over runs ($)</text><line x1="60" y1="240.0" x2="480" y2="240.0" stroke="#eee" stroke-width="1"/><text x="54" y="244.0" text-anchor="end" font-family="system-ui, -apple-system, sans-serif" font-size="9" fill="#999">0.007327</text><line x1="60" y1="140.0" x2="480" y2="140.0" stroke="#eee" stroke-width="1"/><text x="54" y="144.0" text-anchor="end" font-family="system-ui, -apple-system, sans-serif" font-size="9" fill="#999">0.06861</text><line x1="60" y1="40.0" x2="480" y2="40.0" stroke="#eee" stroke-width="1"/><text x="54" y="44.0" text-anchor="end" font-family="system-ui, -apple-system, sans-serif" font-size="9" fill="#999">0.1299</text><polyline fill="none" stroke="#4CAF50" stroke-width="2" points="60.0,120.8 92.3,121.5 124.6,77.8 156.9,123.6 189.2,117.3 221.5,119.7 253.8,119.7 286.2,116.2 318.5,119.2 350.8,118.9 383.1,45.7 415.4,114.0 447.7,118.9 480.0,119.3"/><circle cx="60.0" cy="120.8" r="3" fill="#4CAF50"/><circle cx="92.3" cy="121.5" r="3" fill="#4CAF50"/><circle cx="124.6" cy="77.8" r="3" fill="#4CAF50"/><circle cx="156.9" cy="123.6" r="3" fill="#4CAF50"/><circle cx="189.2" cy="117.3" r="3" fill="#4CAF50"/><circle cx="221.5" cy="119.7" r="3" fill="#4CAF50"/><circle cx="253.8" cy="119.7" r="3" fill="#4CAF50"/><circle cx="286.2" cy="116.2" r="3" fill="#4CAF50"/><circle cx="318.5" cy="119.2" r="3" fill="#4CAF50"/><circle cx="350.8" cy="118.9" r="3" fill="#4CAF50"/><circle cx="383.1" cy="45.7" r="3" fill="#4CAF50"/><circle cx="415.4" cy="114.0" r="3" fill="#4CAF50"/><circle cx="447.7" cy="118.9" r="3" fill="#4CAF50"/><circle cx="480.0" cy="119.3" r="3" fill="#4CAF50"/><rect x="490" y="44" width="10" height="10" fill="#4CAF50"/><text x="504" y="53" font-family="system-ui, -apple-system, sans-serif" font-size="10" fill="#333">openai</text><polyline fill="none" stroke="#2196F3" stroke-width="2" points="60.0,122.9 92.3,130.1 124.6,122.4 156.9,125.7 189.2,133.0 221.5,118.2 253.8,125.5 286.2,120.5 318.5,120.5 350.8,119.5 383.1,121.9 415.4,134.8 447.7,133.5 480.0,127.0"/><circle cx="60.0" cy="122.9" r="3" fill="#2196F3"/><circle cx="92.3" cy="130.1" r="3" fill="#2196F3"/><circle cx="124.6" cy="122.4" r="3" fill="#2196F3"/><circle cx="156.9" cy="125.7" r="3" fill="#2196F3"/><circle cx="189.2" cy="133.0" r="3" fill="#2196F3"/><circle cx="221.5" cy="118.2" r="3" fill="#2196F3"/><circle cx="253.8" cy="125.5" r="3" fill="#2196F3"/><circle cx="286.2" cy="120.5" r="3" fill="#2196F3"/><circle cx="318.5" cy="120.5" r="3" fill="#2196F3"/><circle cx="350.8" cy="119.5" r="3" fill="#2196F3"/><circle cx="383.1" cy="121.9" r="3" fill="#2196F3"/><circle cx="415.4" cy="134.8" r="3" fill="#2196F3"/><circle cx="447.7" cy="133.5" r="3" fill="#2196F3"/><circle cx="480.0" cy="127.0" r="3" fill="#2196F3"/><rect x="490" y="62" width="10" height="10" fill="#2196F3"/><text x="504" y="71" font-family="system-ui, -apple-system, sans-serif" font-size="10" fill="#333">gemini</text><polyline fill="none" stroke="#FF9800" stroke-width="2" points="60.0,72.7 92.3,95.8 124.6,100.8 156.9,67.0 189.2,95.0 221.5,46.5 253.8,88.5 286.2,72.4 318.5,81.2 350.8,92.8 383.1,101.4 415.4,87.4 447.7,78.8 480.0,117.7"/><circle cx="60.0" cy="72.7" r="3" fill="#FF9800"/><circle cx="92.3" cy="95.8" r="3" fill="#FF9800"/><circle cx="124.6" cy="100.8" r="3" fill="#FF9800"/><circle cx="156.9" cy="67.0" r="3" fill="#FF9800"/><circle cx="189.2" cy="95.0" r="3" fill="#FF9800"/><circle cx="221.5" cy="46.5" r="3" fill="#FF9800"/><circle cx="253.8" cy="88.5" r="3" fill="#FF9800"/><circle cx="286.2" cy="72.4" r="3" fill="#FF9800"/><circle cx="318.5" cy="81.2" r="3" fill="#FF9800"/><circle cx="350.8" cy="92.8" r="3" fill="#FF9800"/><circle cx="383.1" cy="101.4" r="3" fill="#FF9800"/><circle cx="415.4" cy="87.4" r="3" fill="#FF9800"/><circle cx="447.7" cy="78.8" r="3" fill="#FF9800"/><circle cx="480.0" cy="117.7" r="3" fill="#FF9800"/><rect x="490" y="80" width="10" height="10" fill="#FF9800"/><text x="504" y="89" font-family="system-ui, -apple-system, sans-serif" font-size="10" fill="#333">anthropic</text><polyline fill="none" stroke="#E91E63" stroke-width="2" points="60.0,121.5 92.3,111.7 124.6,40.0 156.9,129.1 189.2,124.2 221.5,127.4 253.8,115.5 286.2,115.2 318.5,111.4 350.8,119.0 383.1,111.4 415.4,112.3 447.7,114.4 480.0,121.9"/><circle cx="60.0" cy="121.5" r="3" fill="#E91E63"/><circle cx="92.3" cy="111.7" r="3" fill="#E91E63"/><circle cx="124.6" cy="40.0" r="3" fill="#E91E63"/><circle cx="156.9" cy="129.1" r="3" fill="#E91E63"/><circle cx="189.2" cy="124.2" r="3" fill="#E91E63"/><circle cx="221.5" cy="127.4" r="3" fill="#E91E63"/><circle cx="253.8" cy="115.5" r="3" fill="#E91E63"/><circle cx="286.2" cy="115.2" r="3" fill="#E91E63"/><circle cx="318.5" cy="111.4" r="3" fill="#E91E63"/><circle cx="350.8" cy="119.0" r="3" fill="#E91E63"/><circle cx="383.1" cy="111.4" r="3" fill="#E91E63"/><circle cx="415.4" cy="112.3" r="3" fill="#E91E63"/><circle cx="447.7" cy="114.4" r="3" fill="#E91E63"/><circle cx="480.0" cy="121.9" r="3" fill="#E91E63"/><rect x="490" y="98" width="10" height="10" fill="#E91E63"/><text x="504" y="107" font-family="system-ui, -apple-system, sans-serif" font-size="10" fill="#333">mistral</text><polyline fill="none" stroke="#9C27B0" stroke-width="2" points="60.0,179.6 92.3,190.2 124.6,193.7 156.9,177.0 189.2,184.5 221.5,194.9 253.8,190.1 286.2,183.2 318.5,186.5 350.8,193.1 383.1,186.4 415.4,183.9 447.7,188.3 480.0,171.4"/><circle cx="60.0" cy="179.6" r="3" fill="#9C27B0"/><circle cx="92.3" cy="190.2" r="3" fill="#9C27B0"/><circle cx="124.6" cy="193.7" r="3" fill="#9C27B0"/><circle cx="156.9" cy="177.0" r="3" fill="#9C27B0"/><circle cx="189.2" cy="184.5" r="3" fill="#9C27B0"/><circle cx="221.5" cy="194.9" r="3" fill="#9C27B0"/><circle cx="253.8" cy="190.1" r="3" fill="#9C27B0"/><circle cx="286.2" cy="183.2" r="3" fill="#9C27B0"/><circle cx="318.5" cy="186.5" r="3" fill="#9C27B0"/><circle cx="350.8" cy="193.1" r="3" fill="#9C27B0"/><circle cx="383.1" cy="186.4" r="3" fill="#9C27B0"/><circle cx="415.4" cy="183.9" r="3" fill="#9C27B0"/><circle cx="447.7" cy="188.3" r="3" fill="#9C27B0"/><circle cx="480.0" cy="171.4" r="3" fill="#9C27B0"/><rect x="490" y="116" width="10" height="10" fill="#9C27B0"/><text x="504" y="125" font-family="system-ui, -apple-system, sans-serif" font-size="10" fill="#333">llama</text><polyline fill="none" stroke="#00BCD4" stroke-width="2" points="318.5,239.3 350.8,239.3 383.1,240.0 415.4,238.8 447.7,239.0 480.0,233.2"/><circle cx="318.5" cy="239.3" r="3" fill="#00BCD4"/><circle cx="350.8" cy="239.3" r="3" fill="#00BCD4"/><circle cx="383.1" cy="240.0" r="3" fill="#00BCD4"/><circle cx="415.4" cy="238.8" r="3" fill="#00BCD4"/><circle cx="447.7" cy="239.0" r="3" fill="#00BCD4"/><circle cx="480.0" cy="233.2" r="3" fill="#00BCD4"/><rect x="490" y="134" width="10" height="10" fill="#00BCD4"/><text x="504" y="143" font-family="system-ui, -apple-system, sans-serif" font-size="10" fill="#333">deepseek</text><text x="60.0" y="256.0" text-anchor="middle" font-family="system-ui, -apple-system, sans-serif" font-size="9" fill="#666">71825113</text><text x="92.3" y="256.0" text-anchor="middle" font-family="system-ui, -apple-system, sans-serif" font-size="9" fill="#666">75010794</text><text x="124.6" y="256.0" text-anchor="middle" font-family="system-ui, -apple-system, sans-serif" font-size="9" fill="#666">76301827</text><text x="156.9" y="256.0" text-anchor="middle" font-family="system-ui, -apple-system, sans-serif" font-size="9" fill="#666">97386462</text><text x="189.2" y="256.0" text-anchor="middle" font-family="system-ui, -apple-system, sans-serif" font-size="9" fill="#666">00118301</text><text x="221.5" y="256.0" text-anchor="middle" font-family="system-ui, -apple-system, sans-serif" font-size="9" fill="#666">07642311</text><text x="253.8" y="256.0" text-anchor="middle" font-family="system-ui, -apple-system, sans-serif" font-size="9" fill="#666">31919473</text><text x="286.2" y="256.0" text-anchor="middle" font-family="system-ui, -apple-system, sans-serif" font-size="9" fill="#666">33376499</text><text x="318.5" y="256.0" text-anchor="middle" font-family="system-ui, -apple-system, sans-serif" font-size="9" fill="#666">49559976</text><text x="350.8" y="256.0" text-anchor="middle" font-family="system-ui, -apple-system, sans-serif" font-size="9" fill="#666">51938981</text><text x="383.1" y="256.0" text-anchor="middle" font-family="system-ui, -apple-system, sans-serif" font-size="9" fill="#666">53749546</text><text x="415.4" y="256.0" text-anchor="middle" font-family="system-ui, -apple-system, sans-serif" font-size="9" fill="#666">54994841</text><text x="447.7" y="256.0" text-anchor="middle" font-family="system-ui, -apple-system, sans-serif" font-size="9" fill="#666">73723278</text><text x="480.0" y="256.0" text-anchor="middle" font-family="system-ui, -apple-system, sans-serif" font-size="9" fill="#666">74446787</text></svg>
