<svg xmlns="http://www.w3.org/2000/svg" viewBox="0 0 600 300" width="600" height="300" role="img" aria-label="Cost per test by provider over runs ($)"><text x="300.0" y="24" text-anchor="middle" font-family="system-ui, -apple-system, sans-serif" font-size="14" font-weight="600" fill="#333">Cost per test by provider over runs ($)</text><line x1="60" y1="240.0" x2="480" y2="240.0" stroke="#eee" stroke-width="1"/><text x="54" y="244.0" text-anchor="end" font-family="system-ui, -apple-system, sans-serif" font-size="9" fill="#999">0.007197</text><line x1="60" y1="140.0" x2="480" y2="140.0" stroke="#eee" stroke-width="1"/><text x="54" y="144.0" text-anchor="end" font-family="system-ui, -apple-system, sans-serif" font-size="9" fill="#999">0.06855</text><line x1="60" y1="40.0" x2="480" y2="40.0" stroke="#eee" stroke-width="1"/><text x="54" y="44.0" text-anchor="end" font-family="system-ui, -apple-system, sans-serif" font-size="9" fill="#999">0.1299</text><polyline fill="none" stroke="#4CAF50" stroke-width="2" points="60.0,120.7 83.3,121.4 106.7,77.8 130.0,123.5 153.3,117.2 176.7,119.6 200.0,119.6 223.3,116.1 246.7,119.2 270.0,118.8 293.3,45.7 316.7,113.9 340.0,118.8 363.3,119.2 386.7,112.5 410.0,62.5 433.3,111.2 456.7,119.3 480.0,86.7"/><circle cx="60.0" cy="120.7" r="3" fill="#4CAF50"/><circle cx="83.3" cy="121.4" r="3" fill="#4CAF50"/><circle cx="106.7" cy="77.8" r="3" fill="#4CAF50"/><circle cx="130.0" cy="123.5" r="3" fill="#4CAF50"/><circle cx="153.3" cy="117.2" r="3" fill="#4CAF50"/><circle cx="176.7" cy="119.6" r="3" fill="#4CAF50"/><circle cx="200.0" cy="119.6" r="3" fill="#4CAF50"/><circle cx="223.3" cy="116.1" r="3" fill="#4CAF50"/><circle cx="246.7" cy="119.2" r="3" fill="#4CAF50"/><circle cx="270.0" cy="118.8" r="3" fill="#4CAF50"/><circle cx="293.3" cy="45.7" r="3" fill="#4CAF50"/><circle cx="316.7" cy="113.9" r="3" fill="#4CAF50"/><circle cx="340.0" cy="118.8" r="3" fill="#4CAF50"/><circle cx="363.3" cy="119.2" r="3" fill="#4CAF50"/><circle cx="386.7" cy="112.5" r="3" fill="#4CAF50"/><circle cx="410.0" cy="62.5" r="3" fill="#4CAF50"/><circle cx="433.3" cy="111.2" r="3" fill="#4CAF50"/><circle cx="456.7" cy="119.3" r="3" fill="#4CAF50"/><circle cx="480.0" cy="86.7" r="3" fill="#4CAF50"/><rect x="490" y="44" width="10" height="10" fill="#4CAF50"/><text x="504" y="53" font-family="system-ui, -apple-system, sans-serif" font-size="10" fill="#333">openai</text><polyline fill="none" stroke="#2196F3" stroke-width="2" points="60.0,122.8 83.3,130.0 106.7,122.3 130.0,125.6 153.3,132.9 176.7,118.1 200.0,125.4 223.3,120.4 246.7,120.4 270.0,119.4 293.3,121.8 316.7,134.7 340.0,133.4 363.3,126.9 386.7,121.0 410.0,121.3 433.3,90.2 456.7,121.1 480.0,87.9"/><circle cx="60.0" cy="122.8" r="3" fill="#2196F3"/><circle cx="83.3" cy="130.0" r="3" fill="#2196F3"/><circle cx="106.7" cy="122.3" r="3" fill="#2196F3"/><circle cx="130.0" cy="125.6" r="3" fill="#2196F3"/><circle cx="153.3" cy="132.9" r="3" fill="#2196F3"/><circle cx="176.7" cy="118.1" r="3" fill="#2196F3"/><circle cx="200.0" cy="125.4" r="3" fill="#2196F3"/><circle cx="223.3" cy="120.4" r="3" fill="#2196F3"/><circle cx="246.7" cy="120.4" r="3" fill="#2196F3"/><circle cx="270.0" cy="119.4" r="3" fill="#2196F3"/><circle cx="293.3" cy="121.8" r="3" fill="#2196F3"/><circle cx="316.7" cy="134.7" r="3" fill="#2196F3"/><circle cx="340.0" cy="133.4" r="3" fill="#2196F3"/><circle cx="363.3" cy="126.9" r="3" fill="#2196F3"/><circle cx="386.7" cy="121.0" r="3" fill="#2196F3"/><circle cx="410.0" cy="121.3" r="3" fill="#2196F3"/><circle cx="433.3" cy="90.2" r="3" fill="#2196F3"/><circle cx="456.7" cy="121.1" r="3" fill="#2196F3"/><circle cx="480.0" cy="87.9" r="3" fill="#2196F3"/><rect x="490" y="62" width="10" height="10" fill="#2196F3"/><text x="504" y="71" font-family="system-ui, -apple-system, sans-serif" font-size="10" fill="#333">gemini</text><polyline fill="none" stroke="#FF9800" stroke-width="2" points="60.0,72.6 83.3,95.7 106.7,100.7 130.0,67.0 153.3,94.9 176.7,46.5 200.0,88.5 223.3,72.3 246.7,81.2 270.0,92.7 293.3,101.3 316.7,87.3 340.0,78.7 363.3,117.6 386.7,98.1 410.0,95.4 433.3,82.5 480.0,84.8"/><circle cx="60.0" cy="72.6" r="3" fill="#FF9800"/><circle cx="83.3" cy="95.7" r="3" fill="#FF9800"/><circle cx="106.7" cy="100.7" r="3" fill="#FF9800"/><circle cx="130.0" cy="67.0" r="3" fill="#FF9800"/><circle cx="153.3" cy="94.9" r="3" fill="#FF9800"/><circle cx="176.7" cy="46.5" r="3" fill="#FF9800"/><circle cx="200.0" cy="88.5" r="3" fill="#FF9800"/><circle cx="223.3" cy="72.3" r="3" fill="#FF9800"/><circle cx="246.7" cy="81.2" r="3" fill="#FF9800"/><circle cx="270.0" cy="92.7" r="3" fill="#FF9800"/><circle cx="293.3" cy="101.3" r="3" fill="#FF9800"/><circle cx="316.7" cy="87.3" r="3" fill="#FF9800"/><circle cx="340.0" cy="78.7" r="3" fill="#FF9800"/><circle cx="363.3" cy="117.6" r="3" fill="#FF9800"/><circle cx="386.7" cy="98.1" r="3" fill="#FF9800"/><circle cx="410.0" cy="95.4" r="3" fill="#FF9800"/><circle cx="433.3" cy="82.5" r="3" fill="#FF9800"/><circle cx="480.0" cy="84.8" r="3" fill="#FF9800"/><rect x="490" y="80" width="10" height="10" fill="#FF9800"/><text x="504" y="89" font-family="system-ui, -apple-system, sans-serif" font-size="10" fill="#333">anthropic</text><polyline fill="none" stroke="#E91E63" stroke-width="2" points="60.0,121.4 83.3,111.6 106.7,40.0 130.0,129.1 153.3,124.1 176.7,127.3 200.0,115.5 223.3,115.1 246.7,111.3 270.0,118.9 293.3,111.3 316.7,112.2 340.0,114.3 363.3,121.8 386.7,106.2 410.0,120.2 433.3,113.6 456.7,118.2 480.0,130.7"/><circle cx="60.0" cy="121.4" r="3" fill="#E91E63"/><circle cx="83.3" cy="111.6" r="3" fill="#E91E63"/><circle cx="106.7" cy="40.0" r="3" fill="#E91E63"/><circle cx="130.0" cy="129.1" r="3" fill="#E91E63"/><circle cx="153.3" cy="124.1" r="3" fill="#E91E63"/><circle cx="176.7" cy="127.3" r="3" fill="#E91E63"/><circle cx="200.0" cy="115.5" r="3" fill="#E91E63"/><circle cx="223.3" cy="115.1" r="3" fill="#E91E63"/><circle cx="246.7" cy="111.3" r="3" fill="#E91E63"/><circle cx="270.0" cy="118.9" r="3" fill="#E91E63"/><circle cx="293.3" cy="111.3" r="3" fill="#E91E63"/><circle cx="316.7" cy="112.2" r="3" fill="#E91E63"/><circle cx="340.0" cy="114.3" r="3" fill="#E91E63"/><circle cx="363.3" cy="121.8" r="3" fill="#E91E63"/><circle cx="386.7" cy="106.2" r="3" fill="#E91E63"/><circle cx="410.0" cy="120.2" r="3" fill="#E91E63"/><circle cx="433.3" cy="113.6" r="3" fill="#E91E63"/><circle cx="456.7" cy="118.2" r="3" fill="#E91E63"/><circle cx="480.0" cy="130.7" r="3" fill="#E91E63"/><rect x="490" y="98" width="10" height="10" fill="#E91E63"/><text x="504" y="107" font-family="system-ui, -apple-system, sans-serif" font-size="10" fill="#333">mistral</text><polyline fill="none" stroke="#9C27B0" stroke-width="2" points="60.0,179.5 83.3,190.0 106.7,193.5 130.0,176.9 153.3,184.4 176.7,194.7 200.0,190.0 223.3,183.0 246.7,186.4 270.0,193.0 293.3,186.3 316.7,183.7 340.0,188.2 363.3,171.2 386.7,189.5 410.0,183.5 433.3,192.4 456.7,192.9 480.0,172.2"/><circle cx="60.0" cy="179.5" r="3" fill="#9C27B0"/><circle cx="83.3" cy="190.0" r="3" fill="#9C27B0"/><circle cx="106.7" cy="193.5" r="3" fill="#9C27B0"/><circle cx="130.0" cy="176.9" r="3" fill="#9C27B0"/><circle cx="153.3" cy="184.4" r="3" fill="#9C27B0"/><circle cx="176.7" cy="194.7" r="3" fill="#9C27B0"/><circle cx="200.0" cy="190.0" r="3" fill="#9C27B0"/><circle cx="223.3" cy="183.0" r="3" fill="#9C27B0"/><circle cx="246.7" cy="186.4" r="3" fill="#9C27B0"/><circle cx="270.0" cy="193.0" r="3" fill="#9C27B0"/><circle cx="293.3" cy="186.3" r="3" fill="#9C27B0"/><circle cx="316.7" cy="183.7" r="3" fill="#9C27B0"/><circle cx="340.0" cy="188.2" r="3" fill="#9C27B0"/><circle cx="363.3" cy="171.2" r="3" fill="#9C27B0"/><circle cx="386.7" cy="189.5" r="3" fill="#9C27B0"/><circle cx="410.0" cy="183.5" r="3" fill="#9C27B0"/><circle cx="433.3" cy="192.4" r="3" fill="#9C27B0"/><circle cx="456.7" cy="192.9" r="3" fill="#9C27B0"/><circle cx="480.0" cy="172.2" r="3" fill="#9C27B0"/><rect x="490" y="116" width="10" height="10" fill="#9C27B0"/><text x="504" y="125" font-family="system-ui, -apple-system, sans-serif" font-size="10" fill="#333">llama</text><polyline fill="none" stroke="#00BCD4" stroke-width="2" points="246.7,239.0 270.0,239.1 293.3,239.8 316.7,238.6 340.0,238.8 363.3,233.0 386.7,240.0 410.0,237.4 433.3,237.5 456.7,237.0 480.0,238.7"/><circle cx="246.7" cy="239.0" r="3" fill="#00BCD4"/><circle cx="270.0" cy="239.1" r="3" fill="#00BCD4"/><circle cx="293.3" cy="239.8" r="3" fill="#00BCD4"/><circle cx="316.7" cy="238.6" r="3" fill="#00BCD4"/><circle cx="340.0" cy="238.8" r="3" fill="#00BCD4"/><circle cx="363.3" cy="233.0" r="3" fill="#00BCD4"/><circle cx="386.7" cy="240.0" r="3" fill="#00BCD4"/><circle cx="410.0" cy="237.4" r="3" fill="#00BCD4"/><circle cx="433.3" cy="237.5" r="3" fill="#00BCD4"/><circle cx="456.7" cy="237.0" r="3" fill="#00BCD4"/><circle cx="480.0" cy="238.7" r="3" fill="#00BCD4"/><rect x="490" y="134" width="10" height="10" fill="#00BCD4"/><text x="504" y="143" font-family="system-ui, -apple-system, sans-serif" font-size="10" fill="#333">deepseek</text><text x="60.0" y="256.0" text-anchor="middle" font-family="system-ui, -apple-system, sans-serif" font-size="9" fill="#666">71825113</text><text x="83.3" y="256.0" text-anchor="middle" font-family="system-ui, -apple-system, sans-serif" font-size="9" fill="#666">75010794</text><text x="106.7" y="256.0" text-anchor="middle" font-family="system-ui, -apple-system, sans-serif" font-size="9" fill="#666">76301827</text><text x="130.0" y="256.0" text-anchor="middle" font-family="system-ui, -apple-system, sans-serif" font-size="9" fill="#666">97386462</text><text x="153.3" y="256.0" text-anchor="middle" font-family="system-ui, -apple-system, sans-serif" font-size="9" fill="#666">00118301</text><text x="176.7" y="256.0" text-anchor="middle" font-family="system-ui, -apple-system, sans-serif" font-size="9" fill="#666">07642311</text><text x="200.0" y="256.0" text-anchor="middle" font-family="system-ui, -apple-system, sans-serif" font-size="9" fill="#666">31919473</text><text x="223.3" y="256.0" text-anchor="middle" font-family="system-ui, -apple-system, sans-serif" font-size="9" fill="#666">33376499</text><text x="246.7" y="256.0" text-anchor="middle" font-family="system-ui, -apple-system, sans-serif" font-size="9" fill="#666">49559976</text><text x="270.0" y="256.0" text-anchor="middle" font-family="system-ui, -apple-system, sans-serif" font-size="9" fill="#666">51938981</text><text x="293.3" y="256.0" text-anchor="middle" font-family="system-ui, -apple-system, sans-serif" font-size="9" fill="#666">53749546</text><text x="316.7" y="256.0" text-anchor="middle" font-family="system-ui, -apple-system, sans-serif" font-size="9" fill="#666">54994841</text><text x="340.0" y="256.0" text-anchor="middle" font-family="system-ui, -apple-system, sans-serif" font-size="9" fill="#666">73723278</text><text x="363.3" y="256.0" text-anchor="middle" font-family="system-ui, -apple-system, sans-serif" font-size="9" fill="#666">74446787</text><text x="386.7" y="256.0" text-anchor="middle" font-family="system-ui, -apple-system, sans-serif" font-size="9" fill="#666">75063969</text><text x="410.0" y="256.0" text-anchor="middle" font-family="system-ui, -apple-system, sans-serif" font-size="9" fill="#666">75757458</text><text x="433.3" y="256.0" text-anchor="middle" font-family="system-ui, -apple-system, sans-serif" font-size="9" fill="#666">76005435</text><text x="456.7" y="256.0" text-anchor="middle" font-family="system-ui, -apple-system, sans-serif" font-size="9" fill="#666">37885074</text><text x="480.0" y="256.0" text-anchor="middle" font-family="system-ui, -apple-system, sans-serif" font-size="9" fill="#666">39719442</text></svg>
