<svg xmlns="http://www.w3.org/2000/svg" viewBox="0 0 760 348" width="760" height="348" role="img" aria-label="Cost per test by provider over runs — mistral highest, deepseek lowest" font-family="-apple-system,BlinkMacSystemFont,'Segoe UI',system-ui,sans-serif"><line x1="56" y1="306" x2="642" y2="306" stroke="#d8dee4" stroke-width="1"></line><text x="46" y="310" font-size="9.5" font-weight="400" text-anchor="end" fill="#656d76" font-family="ui-monospace,SFMono-Regular,Menlo,monospace">$0.000</text><line x1="56" y1="235" x2="642" y2="235" stroke="#d8dee4" stroke-width="1"></line><text x="46" y="239" font-size="9.5" font-weight="400" text-anchor="end" fill="#656d76" font-family="ui-monospace,SFMono-Regular,Menlo,monospace">$0.039</text><line x1="56" y1="164" x2="642" y2="164" stroke="#d8dee4" stroke-width="1"></line><text x="46" y="168" font-size="9.5" font-weight="400" text-anchor="end" fill="#656d76" font-family="ui-monospace,SFMono-Regular,Menlo,monospace">$0.079</text><line x1="56" y1="93" x2="642" y2="93" stroke="#d8dee4" stroke-width="1"></line><text x="46" y="97" font-size="9.5" font-weight="400" text-anchor="end" fill="#656d76" font-family="ui-monospace,SFMono-Regular,Menlo,monospace">$0.118</text><line x1="56" y1="22" x2="642" y2="22" stroke="#d8dee4" stroke-width="1"></line><text x="46" y="26" font-size="9.5" font-weight="400" text-anchor="end" fill="#656d76" font-family="ui-monospace,SFMono-Regular,Menlo,monospace">$0.158</text><text x="56" y="324" font-size="9.5" font-weight="400" text-anchor="middle" fill="#656d76" font-family="ui-monospace,SFMono-Regular,Menlo,monospace">06/06</text><text x="108.59" y="324" font-size="9.5" font-weight="400" text-anchor="middle" fill="#656d76" font-family="ui-monospace,SFMono-Regular,Menlo,monospace">06/08</text><text x="161.18" y="324" font-size="9.5" font-weight="400" text-anchor="middle" fill="#656d76" font-family="ui-monospace,SFMono-Regular,Menlo,monospace">06/09</text><text x="213.77" y="324" font-size="9.5" font-weight="400" text-anchor="middle" fill="#656d76" font-family="ui-monospace,SFMono-Regular,Menlo,monospace">06/10</text><text x="266.36" y="324" font-size="9.5" font-weight="400" text-anchor="middle" fill="#656d76" font-family="ui-monospace,SFMono-Regular,Menlo,monospace">06/14</text><text x="318.95" y="324" font-size="9.5" font-weight="400" text-anchor="middle" fill="#656d76" font-family="ui-monospace,SFMono-Regular,Menlo,monospace">06/15</text><text x="371.54" y="324" font-size="9.5" font-weight="400" text-anchor="middle" fill="#656d76" font-family="ui-monospace,SFMono-Regular,Menlo,monospace">06/16</text><text x="424.13" y="324" font-size="9.5" font-weight="400" text-anchor="middle" fill="#656d76" font-family="ui-monospace,SFMono-Regular,Menlo,monospace">06/18</text><text x="476.72" y="324" font-size="9.5" font-weight="400" text-anchor="middle" fill="#656d76" font-family="ui-monospace,SFMono-Regular,Menlo,monospace">06/20</text><text x="529.31" y="324" font-size="9.5" font-weight="400" text-anchor="middle" fill="#656d76" font-family="ui-monospace,SFMono-Regular,Menlo,monospace">06/22</text><text x="581.9" y="324" font-size="9.5" font-weight="400" text-anchor="middle" fill="#656d76" font-family="ui-monospace,SFMono-Regular,Menlo,monospace">06/23</text><text x="634.49" y="324" font-size="9.5" font-weight="400" text-anchor="middle" fill="#656d76" font-family="ui-monospace,SFMono-Regular,Menlo,monospace">06/24</text><text x="642" y="324" font-size="9.5" font-weight="400" text-anchor="middle" fill="#656d76" font-family="ui-monospace,SFMono-Regular,Menlo,monospace">06/25</text><polyline fill="none" stroke="#6366F1" stroke-width="2.4" stroke-linejoin="round" stroke-linecap="round" points="116.1,291.99 123.62,292.07 131.13,292.82 138.64,291.48 146.15,291.75 153.67,285.29 161.18,293.05 168.69,290.23 176.21,290.29 183.72,289.78 191.23,291.61 198.74,290.27 206.26,286.66 213.77,290.55 221.28,286.99 228.79,293.02 236.31,290.61 243.82,286.59 251.33,283.56 258.85,290.63 266.36,289.42 273.87,292.33 281.38,288.36 288.9,284.88 296.41,291.34 303.92,290.13 311.44,291.01 318.95,289.68 333.97,289.04 341.49,291.5 349,291.97 356.51,289.14 364.03,289.37 371.54,290.04 379.05,290.81 386.56,291.39 394.08,292 409.1,292.33 416.62,292.51 424.13,290.75 431.64,289.5 439.15,289.4 446.67,282.59 454.18,289.91 461.69,286.79 469.21,288.79 476.72,286.98 484.23,290.22 491.74,291.94 499.26,292.7 506.77,281.08 514.28,292.31 521.79,290.28 529.31,286.5 536.82,289 544.33,289.95 551.85,291.41 559.36,290.81 566.87,291 574.38,290.42 581.9,289.99 589.41,284.38 596.92,292.31 604.44,291.62 611.95,287.31 619.46,291.89 626.97,292.21 634.49,288.97 642,292.99"></polyline><circle cx="116.1" cy="291.99" r="2.6" fill="#6366F1"></circle><circle cx="123.62" cy="292.07" r="2.6" fill="#6366F1"></circle><circle cx="131.13" cy="292.82" r="2.6" fill="#6366F1"></circle><circle cx="138.64" cy="291.48" r="2.6" fill="#6366F1"></circle><circle cx="146.15" cy="291.75" r="2.6" fill="#6366F1"></circle><circle cx="153.67" cy="285.29" r="2.6" fill="#6366F1"></circle><circle cx="161.18" cy="293.05" r="2.6" fill="#6366F1"></circle><circle cx="168.69" cy="290.23" r="2.6" fill="#6366F1"></circle><circle cx="176.21" cy="290.29" r="2.6" fill="#6366F1"></circle><circle cx="183.72" cy="289.78" r="2.6" fill="#6366F1"></circle><circle cx="191.23" cy="291.61" r="2.6" fill="#6366F1"></circle><circle cx="198.74" cy="290.27" r="2.6" fill="#6366F1"></circle><circle cx="206.26" cy="286.66" r="2.6" fill="#6366F1"></circle><circle cx="213.77" cy="290.55" r="2.6" fill="#6366F1"></circle><circle cx="221.28" cy="286.99" r="2.6" fill="#6366F1"></circle><circle cx="228.79" cy="293.02" r="2.6" fill="#6366F1"></circle><circle cx="236.31" cy="290.61" r="2.6" fill="#6366F1"></circle><circle cx="243.82" cy="286.59" r="2.6" fill="#6366F1"></circle><circle cx="251.33" cy="283.56" r="2.6" fill="#6366F1"></circle><circle cx="258.85" cy="290.63" r="2.6" fill="#6366F1"></circle><circle cx="266.36" cy="289.42" r="2.6" fill="#6366F1"></circle><circle cx="273.87" cy="292.33" r="2.6" fill="#6366F1"></circle><circle cx="281.38" cy="288.36" r="2.6" fill="#6366F1"></circle><circle cx="288.9" cy="284.88" r="2.6" fill="#6366F1"></circle><circle cx="296.41" cy="291.34" r="2.6" fill="#6366F1"></circle><circle cx="303.92" cy="290.13" r="2.6" fill="#6366F1"></circle><circle cx="311.44" cy="291.01" r="2.6" fill="#6366F1"></circle><circle cx="318.95" cy="289.68" r="2.6" fill="#6366F1"></circle><circle cx="333.97" cy="289.04" r="2.6" fill="#6366F1"></circle><circle cx="341.49" cy="291.5" r="2.6" fill="#6366F1"></circle><circle cx="349" cy="291.97" r="2.6" fill="#6366F1"></circle><circle cx="356.51" cy="289.14" r="2.6" fill="#6366F1"></circle><circle cx="364.03" cy="289.37" r="2.6" fill="#6366F1"></circle><circle cx="371.54" cy="290.04" r="2.6" fill="#6366F1"></circle><circle cx="379.05" cy="290.81" r="2.6" fill="#6366F1"></circle><circle cx="386.56" cy="291.39" r="2.6" fill="#6366F1"></circle><circle cx="394.08" cy="292" r="2.6" fill="#6366F1"></circle><circle cx="409.1" cy="292.33" r="2.6" fill="#6366F1"></circle><circle cx="416.62" cy="292.51" r="2.6" fill="#6366F1"></circle><circle cx="424.13" cy="290.75" r="2.6" fill="#6366F1"></circle><circle cx="431.64" cy="289.5" r="2.6" fill="#6366F1"></circle><circle cx="439.15" cy="289.4" r="2.6" fill="#6366F1"></circle><circle cx="446.67" cy="282.59" r="2.6" fill="#6366F1"></circle><circle cx="454.18" cy="289.91" r="2.6" fill="#6366F1"></circle><circle cx="461.69" cy="286.79" r="2.6" fill="#6366F1"></circle><circle cx="469.21" cy="288.79" r="2.6" fill="#6366F1"></circle><circle cx="476.72" cy="286.98" r="2.6" fill="#6366F1"></circle><circle cx="484.23" cy="290.22" r="2.6" fill="#6366F1"></circle><circle cx="491.74" cy="291.94" r="2.6" fill="#6366F1"></circle><circle cx="499.26" cy="292.7" r="2.6" fill="#6366F1"></circle><circle cx="506.77" cy="281.08" r="2.6" fill="#6366F1"></circle><circle cx="514.28" cy="292.31" r="2.6" fill="#6366F1"></circle><circle cx="521.79" cy="290.28" r="2.6" fill="#6366F1"></circle><circle cx="529.31" cy="286.5" r="2.6" fill="#6366F1"></circle><circle cx="536.82" cy="289" r="2.6" fill="#6366F1"></circle><circle cx="544.33" cy="289.95" r="2.6" fill="#6366F1"></circle><circle cx="551.85" cy="291.41" r="2.6" fill="#6366F1"></circle><circle cx="559.36" cy="290.81" r="2.6" fill="#6366F1"></circle><circle cx="566.87" cy="291" r="2.6" fill="#6366F1"></circle><circle cx="574.38" cy="290.42" r="2.6" fill="#6366F1"></circle><circle cx="581.9" cy="289.99" r="2.6" fill="#6366F1"></circle><circle cx="589.41" cy="284.38" r="2.6" fill="#6366F1"></circle><circle cx="596.92" cy="292.31" r="2.6" fill="#6366F1"></circle><circle cx="604.44" cy="291.62" r="2.6" fill="#6366F1"></circle><circle cx="611.95" cy="287.31" r="2.6" fill="#6366F1"></circle><circle cx="619.46" cy="291.89" r="2.6" fill="#6366F1"></circle><circle cx="626.97" cy="292.21" r="2.6" fill="#6366F1"></circle><circle cx="634.49" cy="288.97" r="2.6" fill="#6366F1"></circle><circle cx="642" cy="292.99" r="2.6" fill="#6366F1"></circle><polyline fill="none" stroke="#A371F7" stroke-width="2.4" stroke-linejoin="round" stroke-linecap="round" points="56,226.25 63.51,237.88 71.03,241.73 78.54,223.38 86.05,231.64 93.56,243.09 101.08,237.81 108.59,230.14 116.1,233.83 123.62,241.12 131.13,233.75 138.64,230.9 146.15,235.83 153.67,217.13 161.18,237.29 168.69,230.7 176.21,240.49 183.72,241.09 191.23,218.17 198.74,232.28 206.26,201.8 213.77,239.78 221.28,242.88 228.79,229.56 236.31,227.31 243.82,231.21 251.33,233.26 258.85,230.48 266.36,240.31 273.87,235.36 281.38,231.03 288.9,237.98 296.41,242.74 303.92,217.94 311.44,237.38 318.95,239.39 333.97,216.58 341.49,239.81 349,230.21 364.03,230.86 371.54,240.78 379.05,241.27 386.56,237.28 394.08,234.45 401.59,237.03 409.1,237.6 416.62,235.95 424.13,225.98 431.64,230.74 439.15,232.09 446.67,238.44 454.18,233.93 461.69,237.36 469.21,236.2 484.23,238.07 491.74,232.58 506.77,227.45 514.28,236.55 521.79,232.02 529.31,240.47 536.82,213.84 544.33,238.7 551.85,238.88 559.36,241.18 566.87,233.39 574.38,234.63 581.9,239.11 596.92,240.21 604.44,229.42 611.95,240.04 619.46,237.25 626.97,239.83 634.49,241.26 642,237.1"></polyline><circle cx="56" cy="226.25" r="2.6" fill="#A371F7"></circle><circle cx="63.51" cy="237.88" r="2.6" fill="#A371F7"></circle><circle cx="71.03" cy="241.73" r="2.6" fill="#A371F7"></circle><circle cx="78.54" cy="223.38" r="2.6" fill="#A371F7"></circle><circle cx="86.05" cy="231.64" r="2.6" fill="#A371F7"></circle><circle cx="93.56" cy="243.09" r="2.6" fill="#A371F7"></circle><circle cx="101.08" cy="237.81" r="2.6" fill="#A371F7"></circle><circle cx="108.59" cy="230.14" r="2.6" fill="#A371F7"></circle><circle cx="116.1" cy="233.83" r="2.6" fill="#A371F7"></circle><circle cx="123.62" cy="241.12" r="2.6" fill="#A371F7"></circle><circle cx="131.13" cy="233.75" r="2.6" fill="#A371F7"></circle><circle cx="138.64" cy="230.9" r="2.6" fill="#A371F7"></circle><circle cx="146.15" cy="235.83" r="2.6" fill="#A371F7"></circle><circle cx="153.67" cy="217.13" r="2.6" fill="#A371F7"></circle><circle cx="161.18" cy="237.29" r="2.6" fill="#A371F7"></circle><circle cx="168.69" cy="230.7" r="2.6" fill="#A371F7"></circle><circle cx="176.21" cy="240.49" r="2.6" fill="#A371F7"></circle><circle cx="183.72" cy="241.09" r="2.6" fill="#A371F7"></circle><circle cx="191.23" cy="218.17" r="2.6" fill="#A371F7"></circle><circle cx="198.74" cy="232.28" r="2.6" fill="#A371F7"></circle><circle cx="206.26" cy="201.8" r="2.6" fill="#A371F7"></circle><circle cx="213.77" cy="239.78" r="2.6" fill="#A371F7"></circle><circle cx="221.28" cy="242.88" r="2.6" fill="#A371F7"></circle><circle cx="228.79" cy="229.56" r="2.6" fill="#A371F7"></circle><circle cx="236.31" cy="227.31" r="2.6" fill="#A371F7"></circle><circle cx="243.82" cy="231.21" r="2.6" fill="#A371F7"></circle><circle cx="251.33" cy="233.26" r="2.6" fill="#A371F7"></circle><circle cx="258.85" cy="230.48" r="2.6" fill="#A371F7"></circle><circle cx="266.36" cy="240.31" r="2.6" fill="#A371F7"></circle><circle cx="273.87" cy="235.36" r="2.6" fill="#A371F7"></circle><circle cx="281.38" cy="231.03" r="2.6" fill="#A371F7"></circle><circle cx="288.9" cy="237.98" r="2.6" fill="#A371F7"></circle><circle cx="296.41" cy="242.74" r="2.6" fill="#A371F7"></circle><circle cx="303.92" cy="217.94" r="2.6" fill="#A371F7"></circle><circle cx="311.44" cy="237.38" r="2.6" fill="#A371F7"></circle><circle cx="318.95" cy="239.39" r="2.6" fill="#A371F7"></circle><circle cx="333.97" cy="216.58" r="2.6" fill="#A371F7"></circle><circle cx="341.49" cy="239.81" r="2.6" fill="#A371F7"></circle><circle cx="349" cy="230.21" r="2.6" fill="#A371F7"></circle><circle cx="364.03" cy="230.86" r="2.6" fill="#A371F7"></circle><circle cx="371.54" cy="240.78" r="2.6" fill="#A371F7"></circle><circle cx="379.05" cy="241.27" r="2.6" fill="#A371F7"></circle><circle cx="386.56" cy="237.28" r="2.6" fill="#A371F7"></circle><circle cx="394.08" cy="234.45" r="2.6" fill="#A371F7"></circle><circle cx="401.59" cy="237.03" r="2.6" fill="#A371F7"></circle><circle cx="409.1" cy="237.6" r="2.6" fill="#A371F7"></circle><circle cx="416.62" cy="235.95" r="2.6" fill="#A371F7"></circle><circle cx="424.13" cy="225.98" r="2.6" fill="#A371F7"></circle><circle cx="431.64" cy="230.74" r="2.6" fill="#A371F7"></circle><circle cx="439.15" cy="232.09" r="2.6" fill="#A371F7"></circle><circle cx="446.67" cy="238.44" r="2.6" fill="#A371F7"></circle><circle cx="454.18" cy="233.93" r="2.6" fill="#A371F7"></circle><circle cx="461.69" cy="237.36" r="2.6" fill="#A371F7"></circle><circle cx="469.21" cy="236.2" r="2.6" fill="#A371F7"></circle><circle cx="484.23" cy="238.07" r="2.6" fill="#A371F7"></circle><circle cx="491.74" cy="232.58" r="2.6" fill="#A371F7"></circle><circle cx="506.77" cy="227.45" r="2.6" fill="#A371F7"></circle><circle cx="514.28" cy="236.55" r="2.6" fill="#A371F7"></circle><circle cx="521.79" cy="232.02" r="2.6" fill="#A371F7"></circle><circle cx="529.31" cy="240.47" r="2.6" fill="#A371F7"></circle><circle cx="536.82" cy="213.84" r="2.6" fill="#A371F7"></circle><circle cx="544.33" cy="238.7" r="2.6" fill="#A371F7"></circle><circle cx="551.85" cy="238.88" r="2.6" fill="#A371F7"></circle><circle cx="559.36" cy="241.18" r="2.6" fill="#A371F7"></circle><circle cx="566.87" cy="233.39" r="2.6" fill="#A371F7"></circle><circle cx="574.38" cy="234.63" r="2.6" fill="#A371F7"></circle><circle cx="581.9" cy="239.11" r="2.6" fill="#A371F7"></circle><circle cx="596.92" cy="240.21" r="2.6" fill="#A371F7"></circle><circle cx="604.44" cy="229.42" r="2.6" fill="#A371F7"></circle><circle cx="611.95" cy="240.04" r="2.6" fill="#A371F7"></circle><circle cx="619.46" cy="237.25" r="2.6" fill="#A371F7"></circle><circle cx="626.97" cy="239.83" r="2.6" fill="#A371F7"></circle><circle cx="634.49" cy="241.26" r="2.6" fill="#A371F7"></circle><circle cx="642" cy="237.1" r="2.6" fill="#A371F7"></circle><polyline fill="none" stroke="#F0A23B" stroke-width="2.4" stroke-linejoin="round" stroke-linecap="round" points="56,162.13 63.51,151.29 71.03,72.27 78.54,170.58 86.05,165.15 93.56,168.63 101.08,155.58 108.59,155.2 116.1,151.03 123.62,159.37 131.13,151 138.64,152 146.15,154.31 153.67,162.54 161.18,145.36 168.69,160.82 176.21,153.52 183.72,158.63 191.23,172.35 198.74,162.23 206.26,168.2 213.77,164.28 221.28,98 228.79,164.92 236.31,167.19 243.82,163.76 251.33,165.84 258.85,134.6 266.36,163 273.87,144.13 281.38,165.52 288.9,134.8 296.41,167.11 303.92,166.07 311.44,54.66 318.95,77.46 326.46,164.62 333.97,166.72 341.49,166.65 349,162.93 356.51,164.9 364.03,170.21 371.54,169.23 379.05,114.96 386.56,165.27 394.08,165.44 401.59,99.36 409.1,161.79 416.62,138.56 424.13,167.81 431.64,164.51 439.15,164.55 446.67,135.11 454.18,119.1 461.69,168.6 469.21,167.03 476.72,169.7 484.23,164.27 491.74,168.02 499.26,163.89 506.77,99.72 514.28,166.55 521.79,163.57 529.31,163.91 536.82,164.36 544.33,166.86 551.85,166.95 559.36,52.43 566.87,166.52 574.38,165.82 581.9,164.59 596.92,164.21 604.44,164.24 611.95,161.69 619.46,156.02 626.97,164.92 634.49,166.5 642,158.67"></polyline><circle cx="56" cy="162.13" r="2.6" fill="#F0A23B"></circle><circle cx="63.51" cy="151.29" r="2.6" fill="#F0A23B"></circle><circle cx="71.03" cy="72.27" r="2.6" fill="#F0A23B"></circle><circle cx="78.54" cy="170.58" r="2.6" fill="#F0A23B"></circle><circle cx="86.05" cy="165.15" r="2.6" fill="#F0A23B"></circle><circle cx="93.56" cy="168.63" r="2.6" fill="#F0A23B"></circle><circle cx="101.08" cy="155.58" r="2.6" fill="#F0A23B"></circle><circle cx="108.59" cy="155.2" r="2.6" fill="#F0A23B"></circle><circle cx="116.1" cy="151.03" r="2.6" fill="#F0A23B"></circle><circle cx="123.62" cy="159.37" r="2.6" fill="#F0A23B"></circle><circle cx="131.13" cy="151" r="2.6" fill="#F0A23B"></circle><circle cx="138.64" cy="152" r="2.6" fill="#F0A23B"></circle><circle cx="146.15" cy="154.31" r="2.6" fill="#F0A23B"></circle><circle cx="153.67" cy="162.54" r="2.6" fill="#F0A23B"></circle><circle cx="161.18" cy="145.36" r="2.6" fill="#F0A23B"></circle><circle cx="168.69" cy="160.82" r="2.6" fill="#F0A23B"></circle><circle cx="176.21" cy="153.52" r="2.6" fill="#F0A23B"></circle><circle cx="183.72" cy="158.63" r="2.6" fill="#F0A23B"></circle><circle cx="191.23" cy="172.35" r="2.6" fill="#F0A23B"></circle><circle cx="198.74" cy="162.23" r="2.6" fill="#F0A23B"></circle><circle cx="206.26" cy="168.2" r="2.6" fill="#F0A23B"></circle><circle cx="213.77" cy="164.28" r="2.6" fill="#F0A23B"></circle><circle cx="221.28" cy="98" r="2.6" fill="#F0A23B"></circle><circle cx="228.79" cy="164.92" r="2.6" fill="#F0A23B"></circle><circle cx="236.31" cy="167.19" r="2.6" fill="#F0A23B"></circle><circle cx="243.82" cy="163.76" r="2.6" fill="#F0A23B"></circle><circle cx="251.33" cy="165.84" r="2.6" fill="#F0A23B"></circle><circle cx="258.85" cy="134.6" r="2.6" fill="#F0A23B"></circle><circle cx="266.36" cy="163" r="2.6" fill="#F0A23B"></circle><circle cx="273.87" cy="144.13" r="2.6" fill="#F0A23B"></circle><circle cx="281.38" cy="165.52" r="2.6" fill="#F0A23B"></circle><circle cx="288.9" cy="134.8" r="2.6" fill="#F0A23B"></circle><circle cx="296.41" cy="167.11" r="2.6" fill="#F0A23B"></circle><circle cx="303.92" cy="166.07" r="2.6" fill="#F0A23B"></circle><circle cx="311.44" cy="54.66" r="2.6" fill="#F0A23B"></circle><circle cx="318.95" cy="77.46" r="2.6" fill="#F0A23B"></circle><circle cx="326.46" cy="164.62" r="2.6" fill="#F0A23B"></circle><circle cx="333.97" cy="166.72" r="2.6" fill="#F0A23B"></circle><circle cx="341.49" cy="166.65" r="2.6" fill="#F0A23B"></circle><circle cx="349" cy="162.93" r="2.6" fill="#F0A23B"></circle><circle cx="356.51" cy="164.9" r="2.6" fill="#F0A23B"></circle><circle cx="364.03" cy="170.21" r="2.6" fill="#F0A23B"></circle><circle cx="371.54" cy="169.23" r="2.6" fill="#F0A23B"></circle><circle cx="379.05" cy="114.96" r="2.6" fill="#F0A23B"></circle><circle cx="386.56" cy="165.27" r="2.6" fill="#F0A23B"></circle><circle cx="394.08" cy="165.44" r="2.6" fill="#F0A23B"></circle><circle cx="401.59" cy="99.36" r="2.6" fill="#F0A23B"></circle><circle cx="409.1" cy="161.79" r="2.6" fill="#F0A23B"></circle><circle cx="416.62" cy="138.56" r="2.6" fill="#F0A23B"></circle><circle cx="424.13" cy="167.81" r="2.6" fill="#F0A23B"></circle><circle cx="431.64" cy="164.51" r="2.6" fill="#F0A23B"></circle><circle cx="439.15" cy="164.55" r="2.6" fill="#F0A23B"></circle><circle cx="446.67" cy="135.11" r="2.6" fill="#F0A23B"></circle><circle cx="454.18" cy="119.1" r="2.6" fill="#F0A23B"></circle><circle cx="461.69" cy="168.6" r="2.6" fill="#F0A23B"></circle><circle cx="469.21" cy="167.03" r="2.6" fill="#F0A23B"></circle><circle cx="476.72" cy="169.7" r="2.6" fill="#F0A23B"></circle><circle cx="484.23" cy="164.27" r="2.6" fill="#F0A23B"></circle><circle cx="491.74" cy="168.02" r="2.6" fill="#F0A23B"></circle><circle cx="499.26" cy="163.89" r="2.6" fill="#F0A23B"></circle><circle cx="506.77" cy="99.72" r="2.6" fill="#F0A23B"></circle><circle cx="514.28" cy="166.55" r="2.6" fill="#F0A23B"></circle><circle cx="521.79" cy="163.57" r="2.6" fill="#F0A23B"></circle><circle cx="529.31" cy="163.91" r="2.6" fill="#F0A23B"></circle><circle cx="536.82" cy="164.36" r="2.6" fill="#F0A23B"></circle><circle cx="544.33" cy="166.86" r="2.6" fill="#F0A23B"></circle><circle cx="551.85" cy="166.95" r="2.6" fill="#F0A23B"></circle><circle cx="559.36" cy="52.43" r="2.6" fill="#F0A23B"></circle><circle cx="566.87" cy="166.52" r="2.6" fill="#F0A23B"></circle><circle cx="574.38" cy="165.82" r="2.6" fill="#F0A23B"></circle><circle cx="581.9" cy="164.59" r="2.6" fill="#F0A23B"></circle><circle cx="596.92" cy="164.21" r="2.6" fill="#F0A23B"></circle><circle cx="604.44" cy="164.24" r="2.6" fill="#F0A23B"></circle><circle cx="611.95" cy="161.69" r="2.6" fill="#F0A23B"></circle><circle cx="619.46" cy="156.02" r="2.6" fill="#F0A23B"></circle><circle cx="626.97" cy="164.92" r="2.6" fill="#F0A23B"></circle><circle cx="634.49" cy="166.5" r="2.6" fill="#F0A23B"></circle><circle cx="642" cy="158.67" r="2.6" fill="#F0A23B"></circle><line x1="656" y1="27" x2="672" y2="27" stroke="#6366F1" stroke-width="3" stroke-linecap="round"></line><text x="678" y="30" font-size="11" font-weight="400" text-anchor="start" fill="#1f2328">deepseek</text><line x1="656" y1="47" x2="672" y2="47" stroke="#A371F7" stroke-width="3" stroke-linecap="round"></line><text x="678" y="50" font-size="11" font-weight="400" text-anchor="start" fill="#1f2328">llama</text><line x1="656" y1="67" x2="672" y2="67" stroke="#F0A23B" stroke-width="3" stroke-linecap="round"></line><text x="678" y="70" font-size="11" font-weight="400" text-anchor="start" fill="#1f2328">mistral</text></svg>
