<svg xmlns="http://www.w3.org/2000/svg" viewBox="0 0 760 348" width="760" height="348" role="img" aria-label="Cost per test by provider over runs — mistral highest, deepseek lowest" font-family="-apple-system,BlinkMacSystemFont,'Segoe UI',system-ui,sans-serif"><line x1="56" y1="306" x2="642" y2="306" stroke="#d8dee4" stroke-width="1"></line><text x="46" y="310" font-size="9.5" font-weight="400" text-anchor="end" fill="#656d76" font-family="ui-monospace,SFMono-Regular,Menlo,monospace">$0.000</text><line x1="56" y1="235" x2="642" y2="235" stroke="#d8dee4" stroke-width="1"></line><text x="46" y="239" font-size="9.5" font-weight="400" text-anchor="end" fill="#656d76" font-family="ui-monospace,SFMono-Regular,Menlo,monospace">$0.039</text><line x1="56" y1="164" x2="642" y2="164" stroke="#d8dee4" stroke-width="1"></line><text x="46" y="168" font-size="9.5" font-weight="400" text-anchor="end" fill="#656d76" font-family="ui-monospace,SFMono-Regular,Menlo,monospace">$0.079</text><line x1="56" y1="93" x2="642" y2="93" stroke="#d8dee4" stroke-width="1"></line><text x="46" y="97" font-size="9.5" font-weight="400" text-anchor="end" fill="#656d76" font-family="ui-monospace,SFMono-Regular,Menlo,monospace">$0.118</text><line x1="56" y1="22" x2="642" y2="22" stroke="#d8dee4" stroke-width="1"></line><text x="46" y="26" font-size="9.5" font-weight="400" text-anchor="end" fill="#656d76" font-family="ui-monospace,SFMono-Regular,Menlo,monospace">$0.158</text><text x="56" y="324" font-size="9.5" font-weight="400" text-anchor="middle" fill="#656d76" font-family="ui-monospace,SFMono-Regular,Menlo,monospace">06/06</text><text x="105.52" y="324" font-size="9.5" font-weight="400" text-anchor="middle" fill="#656d76" font-family="ui-monospace,SFMono-Regular,Menlo,monospace">06/08</text><text x="155.04" y="324" font-size="9.5" font-weight="400" text-anchor="middle" fill="#656d76" font-family="ui-monospace,SFMono-Regular,Menlo,monospace">06/08</text><text x="204.56" y="324" font-size="9.5" font-weight="400" text-anchor="middle" fill="#656d76" font-family="ui-monospace,SFMono-Regular,Menlo,monospace">06/09</text><text x="254.08" y="324" font-size="9.5" font-weight="400" text-anchor="middle" fill="#656d76" font-family="ui-monospace,SFMono-Regular,Menlo,monospace">06/12</text><text x="303.61" y="324" font-size="9.5" font-weight="400" text-anchor="middle" fill="#656d76" font-family="ui-monospace,SFMono-Regular,Menlo,monospace">06/14</text><text x="353.13" y="324" font-size="9.5" font-weight="400" text-anchor="middle" fill="#656d76" font-family="ui-monospace,SFMono-Regular,Menlo,monospace">06/15</text><text x="402.65" y="324" font-size="9.5" font-weight="400" text-anchor="middle" fill="#656d76" font-family="ui-monospace,SFMono-Regular,Menlo,monospace">06/16</text><text x="452.17" y="324" font-size="9.5" font-weight="400" text-anchor="middle" fill="#656d76" font-family="ui-monospace,SFMono-Regular,Menlo,monospace">06/17</text><text x="501.69" y="324" font-size="9.5" font-weight="400" text-anchor="middle" fill="#656d76" font-family="ui-monospace,SFMono-Regular,Menlo,monospace">06/20</text><text x="551.21" y="324" font-size="9.5" font-weight="400" text-anchor="middle" fill="#656d76" font-family="ui-monospace,SFMono-Regular,Menlo,monospace">06/21</text><text x="600.73" y="324" font-size="9.5" font-weight="400" text-anchor="middle" fill="#656d76" font-family="ui-monospace,SFMono-Regular,Menlo,monospace">06/22</text><text x="642" y="324" font-size="9.5" font-weight="400" text-anchor="middle" fill="#656d76" font-family="ui-monospace,SFMono-Regular,Menlo,monospace">06/24</text><polyline fill="none" stroke="#6366F1" stroke-width="2.4" stroke-linejoin="round" stroke-linecap="round" points="122.03,291.99 130.28,292.07 138.54,292.82 146.79,291.48 155.04,291.75 163.3,285.29 171.55,293.05 179.8,290.23 188.06,290.29 196.31,289.78 204.56,291.61 212.82,290.27 221.07,286.66 229.32,290.55 237.58,286.99 245.83,293.02 254.08,290.61 262.34,286.59 270.59,283.56 278.85,290.63 287.1,289.42 295.35,292.33 303.61,288.36 311.86,284.88 320.11,291.34 328.37,290.13 336.62,291.01 344.87,289.68 361.38,289.04 369.63,291.5 377.89,291.97 386.14,289.14 394.39,289.37 402.65,290.04 410.9,290.81 419.15,291.39 427.41,292 443.92,292.33 452.17,292.51 460.42,290.75 468.68,289.5 476.93,289.4 485.18,282.59 493.44,289.91 501.69,286.79 509.94,288.79 518.2,286.98 526.45,290.22 534.7,291.94 542.96,292.7 551.21,281.08 559.46,292.31 567.72,290.28 575.97,286.5 584.23,289 592.48,289.95 600.73,291.41 608.99,290.81 617.24,291 625.49,290.42 633.75,289.99 642,284.38"></polyline><circle cx="122.03" cy="291.99" r="2.6" fill="#6366F1"></circle><circle cx="130.28" cy="292.07" r="2.6" fill="#6366F1"></circle><circle cx="138.54" cy="292.82" r="2.6" fill="#6366F1"></circle><circle cx="146.79" cy="291.48" r="2.6" fill="#6366F1"></circle><circle cx="155.04" cy="291.75" r="2.6" fill="#6366F1"></circle><circle cx="163.3" cy="285.29" r="2.6" fill="#6366F1"></circle><circle cx="171.55" cy="293.05" r="2.6" fill="#6366F1"></circle><circle cx="179.8" cy="290.23" r="2.6" fill="#6366F1"></circle><circle cx="188.06" cy="290.29" r="2.6" fill="#6366F1"></circle><circle cx="196.31" cy="289.78" r="2.6" fill="#6366F1"></circle><circle cx="204.56" cy="291.61" r="2.6" fill="#6366F1"></circle><circle cx="212.82" cy="290.27" r="2.6" fill="#6366F1"></circle><circle cx="221.07" cy="286.66" r="2.6" fill="#6366F1"></circle><circle cx="229.32" cy="290.55" r="2.6" fill="#6366F1"></circle><circle cx="237.58" cy="286.99" r="2.6" fill="#6366F1"></circle><circle cx="245.83" cy="293.02" r="2.6" fill="#6366F1"></circle><circle cx="254.08" cy="290.61" r="2.6" fill="#6366F1"></circle><circle cx="262.34" cy="286.59" r="2.6" fill="#6366F1"></circle><circle cx="270.59" cy="283.56" r="2.6" fill="#6366F1"></circle><circle cx="278.85" cy="290.63" r="2.6" fill="#6366F1"></circle><circle cx="287.1" cy="289.42" r="2.6" fill="#6366F1"></circle><circle cx="295.35" cy="292.33" r="2.6" fill="#6366F1"></circle><circle cx="303.61" cy="288.36" r="2.6" fill="#6366F1"></circle><circle cx="311.86" cy="284.88" r="2.6" fill="#6366F1"></circle><circle cx="320.11" cy="291.34" r="2.6" fill="#6366F1"></circle><circle cx="328.37" cy="290.13" r="2.6" fill="#6366F1"></circle><circle cx="336.62" cy="291.01" r="2.6" fill="#6366F1"></circle><circle cx="344.87" cy="289.68" r="2.6" fill="#6366F1"></circle><circle cx="361.38" cy="289.04" r="2.6" fill="#6366F1"></circle><circle cx="369.63" cy="291.5" r="2.6" fill="#6366F1"></circle><circle cx="377.89" cy="291.97" r="2.6" fill="#6366F1"></circle><circle cx="386.14" cy="289.14" r="2.6" fill="#6366F1"></circle><circle cx="394.39" cy="289.37" r="2.6" fill="#6366F1"></circle><circle cx="402.65" cy="290.04" r="2.6" fill="#6366F1"></circle><circle cx="410.9" cy="290.81" r="2.6" fill="#6366F1"></circle><circle cx="419.15" cy="291.39" r="2.6" fill="#6366F1"></circle><circle cx="427.41" cy="292" r="2.6" fill="#6366F1"></circle><circle cx="443.92" cy="292.33" r="2.6" fill="#6366F1"></circle><circle cx="452.17" cy="292.51" r="2.6" fill="#6366F1"></circle><circle cx="460.42" cy="290.75" r="2.6" fill="#6366F1"></circle><circle cx="468.68" cy="289.5" r="2.6" fill="#6366F1"></circle><circle cx="476.93" cy="289.4" r="2.6" fill="#6366F1"></circle><circle cx="485.18" cy="282.59" r="2.6" fill="#6366F1"></circle><circle cx="493.44" cy="289.91" r="2.6" fill="#6366F1"></circle><circle cx="501.69" cy="286.79" r="2.6" fill="#6366F1"></circle><circle cx="509.94" cy="288.79" r="2.6" fill="#6366F1"></circle><circle cx="518.2" cy="286.98" r="2.6" fill="#6366F1"></circle><circle cx="526.45" cy="290.22" r="2.6" fill="#6366F1"></circle><circle cx="534.7" cy="291.94" r="2.6" fill="#6366F1"></circle><circle cx="542.96" cy="292.7" r="2.6" fill="#6366F1"></circle><circle cx="551.21" cy="281.08" r="2.6" fill="#6366F1"></circle><circle cx="559.46" cy="292.31" r="2.6" fill="#6366F1"></circle><circle cx="567.72" cy="290.28" r="2.6" fill="#6366F1"></circle><circle cx="575.97" cy="286.5" r="2.6" fill="#6366F1"></circle><circle cx="584.23" cy="289" r="2.6" fill="#6366F1"></circle><circle cx="592.48" cy="289.95" r="2.6" fill="#6366F1"></circle><circle cx="600.73" cy="291.41" r="2.6" fill="#6366F1"></circle><circle cx="608.99" cy="290.81" r="2.6" fill="#6366F1"></circle><circle cx="617.24" cy="291" r="2.6" fill="#6366F1"></circle><circle cx="625.49" cy="290.42" r="2.6" fill="#6366F1"></circle><circle cx="633.75" cy="289.99" r="2.6" fill="#6366F1"></circle><circle cx="642" cy="284.38" r="2.6" fill="#6366F1"></circle><polyline fill="none" stroke="#A371F7" stroke-width="2.4" stroke-linejoin="round" stroke-linecap="round" points="56,226.25 64.25,237.88 72.51,241.73 80.76,223.38 89.01,231.64 97.27,243.09 105.52,237.81 113.77,230.14 122.03,233.83 130.28,241.12 138.54,233.75 146.79,230.9 155.04,235.83 163.3,217.13 171.55,237.29 179.8,230.7 188.06,240.49 196.31,241.09 204.56,218.17 212.82,232.28 221.07,201.8 229.32,239.78 237.58,242.88 245.83,229.56 254.08,227.31 262.34,231.21 270.59,233.26 278.85,230.48 287.1,240.31 295.35,235.36 303.61,231.03 311.86,237.98 320.11,242.74 328.37,217.94 336.62,237.38 344.87,239.39 361.38,216.58 369.63,239.81 377.89,230.21 394.39,230.86 402.65,240.78 410.9,241.27 419.15,237.28 427.41,234.45 435.66,237.03 443.92,237.6 452.17,235.95 460.42,225.98 468.68,230.74 476.93,232.09 485.18,238.44 493.44,233.93 501.69,237.36 509.94,236.2 526.45,238.07 534.7,232.58 551.21,227.45 559.46,236.55 567.72,232.02 575.97,240.47 584.23,213.84 592.48,238.7 600.73,238.88 608.99,241.18 617.24,233.39 625.49,234.63 633.75,239.11"></polyline><circle cx="56" cy="226.25" r="2.6" fill="#A371F7"></circle><circle cx="64.25" cy="237.88" r="2.6" fill="#A371F7"></circle><circle cx="72.51" cy="241.73" r="2.6" fill="#A371F7"></circle><circle cx="80.76" cy="223.38" r="2.6" fill="#A371F7"></circle><circle cx="89.01" cy="231.64" r="2.6" fill="#A371F7"></circle><circle cx="97.27" cy="243.09" r="2.6" fill="#A371F7"></circle><circle cx="105.52" cy="237.81" r="2.6" fill="#A371F7"></circle><circle cx="113.77" cy="230.14" r="2.6" fill="#A371F7"></circle><circle cx="122.03" cy="233.83" r="2.6" fill="#A371F7"></circle><circle cx="130.28" cy="241.12" r="2.6" fill="#A371F7"></circle><circle cx="138.54" cy="233.75" r="2.6" fill="#A371F7"></circle><circle cx="146.79" cy="230.9" r="2.6" fill="#A371F7"></circle><circle cx="155.04" cy="235.83" r="2.6" fill="#A371F7"></circle><circle cx="163.3" cy="217.13" r="2.6" fill="#A371F7"></circle><circle cx="171.55" cy="237.29" r="2.6" fill="#A371F7"></circle><circle cx="179.8" cy="230.7" r="2.6" fill="#A371F7"></circle><circle cx="188.06" cy="240.49" r="2.6" fill="#A371F7"></circle><circle cx="196.31" cy="241.09" r="2.6" fill="#A371F7"></circle><circle cx="204.56" cy="218.17" r="2.6" fill="#A371F7"></circle><circle cx="212.82" cy="232.28" r="2.6" fill="#A371F7"></circle><circle cx="221.07" cy="201.8" r="2.6" fill="#A371F7"></circle><circle cx="229.32" cy="239.78" r="2.6" fill="#A371F7"></circle><circle cx="237.58" cy="242.88" r="2.6" fill="#A371F7"></circle><circle cx="245.83" cy="229.56" r="2.6" fill="#A371F7"></circle><circle cx="254.08" cy="227.31" r="2.6" fill="#A371F7"></circle><circle cx="262.34" cy="231.21" r="2.6" fill="#A371F7"></circle><circle cx="270.59" cy="233.26" r="2.6" fill="#A371F7"></circle><circle cx="278.85" cy="230.48" r="2.6" fill="#A371F7"></circle><circle cx="287.1" cy="240.31" r="2.6" fill="#A371F7"></circle><circle cx="295.35" cy="235.36" r="2.6" fill="#A371F7"></circle><circle cx="303.61" cy="231.03" r="2.6" fill="#A371F7"></circle><circle cx="311.86" cy="237.98" r="2.6" fill="#A371F7"></circle><circle cx="320.11" cy="242.74" r="2.6" fill="#A371F7"></circle><circle cx="328.37" cy="217.94" r="2.6" fill="#A371F7"></circle><circle cx="336.62" cy="237.38" r="2.6" fill="#A371F7"></circle><circle cx="344.87" cy="239.39" r="2.6" fill="#A371F7"></circle><circle cx="361.38" cy="216.58" r="2.6" fill="#A371F7"></circle><circle cx="369.63" cy="239.81" r="2.6" fill="#A371F7"></circle><circle cx="377.89" cy="230.21" r="2.6" fill="#A371F7"></circle><circle cx="394.39" cy="230.86" r="2.6" fill="#A371F7"></circle><circle cx="402.65" cy="240.78" r="2.6" fill="#A371F7"></circle><circle cx="410.9" cy="241.27" r="2.6" fill="#A371F7"></circle><circle cx="419.15" cy="237.28" r="2.6" fill="#A371F7"></circle><circle cx="427.41" cy="234.45" r="2.6" fill="#A371F7"></circle><circle cx="435.66" cy="237.03" r="2.6" fill="#A371F7"></circle><circle cx="443.92" cy="237.6" r="2.6" fill="#A371F7"></circle><circle cx="452.17" cy="235.95" r="2.6" fill="#A371F7"></circle><circle cx="460.42" cy="225.98" r="2.6" fill="#A371F7"></circle><circle cx="468.68" cy="230.74" r="2.6" fill="#A371F7"></circle><circle cx="476.93" cy="232.09" r="2.6" fill="#A371F7"></circle><circle cx="485.18" cy="238.44" r="2.6" fill="#A371F7"></circle><circle cx="493.44" cy="233.93" r="2.6" fill="#A371F7"></circle><circle cx="501.69" cy="237.36" r="2.6" fill="#A371F7"></circle><circle cx="509.94" cy="236.2" r="2.6" fill="#A371F7"></circle><circle cx="526.45" cy="238.07" r="2.6" fill="#A371F7"></circle><circle cx="534.7" cy="232.58" r="2.6" fill="#A371F7"></circle><circle cx="551.21" cy="227.45" r="2.6" fill="#A371F7"></circle><circle cx="559.46" cy="236.55" r="2.6" fill="#A371F7"></circle><circle cx="567.72" cy="232.02" r="2.6" fill="#A371F7"></circle><circle cx="575.97" cy="240.47" r="2.6" fill="#A371F7"></circle><circle cx="584.23" cy="213.84" r="2.6" fill="#A371F7"></circle><circle cx="592.48" cy="238.7" r="2.6" fill="#A371F7"></circle><circle cx="600.73" cy="238.88" r="2.6" fill="#A371F7"></circle><circle cx="608.99" cy="241.18" r="2.6" fill="#A371F7"></circle><circle cx="617.24" cy="233.39" r="2.6" fill="#A371F7"></circle><circle cx="625.49" cy="234.63" r="2.6" fill="#A371F7"></circle><circle cx="633.75" cy="239.11" r="2.6" fill="#A371F7"></circle><polyline fill="none" stroke="#F0A23B" stroke-width="2.4" stroke-linejoin="round" stroke-linecap="round" points="56,162.13 64.25,151.29 72.51,72.27 80.76,170.58 89.01,165.15 97.27,168.63 105.52,155.58 113.77,155.2 122.03,151.03 130.28,159.37 138.54,151 146.79,152 155.04,154.31 163.3,162.54 171.55,145.36 179.8,160.82 188.06,153.52 196.31,158.63 204.56,172.35 212.82,162.23 221.07,168.2 229.32,164.28 237.58,98 245.83,164.92 254.08,167.19 262.34,163.76 270.59,165.84 278.85,134.6 287.1,163 295.35,144.13 303.61,165.52 311.86,134.8 320.11,167.11 328.37,166.07 336.62,54.66 344.87,77.46 353.13,164.62 361.38,166.72 369.63,166.65 377.89,162.93 386.14,164.9 394.39,170.21 402.65,169.23 410.9,114.96 419.15,165.27 427.41,165.44 435.66,99.36 443.92,161.79 452.17,138.56 460.42,167.81 468.68,164.51 476.93,164.55 485.18,135.11 493.44,119.1 501.69,168.6 509.94,167.03 518.2,169.7 526.45,164.27 534.7,168.02 542.96,163.89 551.21,99.72 559.46,166.55 567.72,163.57 575.97,163.91 584.23,164.36 592.48,166.86 600.73,166.95 608.99,52.43 617.24,166.52 625.49,165.82 633.75,164.59"></polyline><circle cx="56" cy="162.13" r="2.6" fill="#F0A23B"></circle><circle cx="64.25" cy="151.29" r="2.6" fill="#F0A23B"></circle><circle cx="72.51" cy="72.27" r="2.6" fill="#F0A23B"></circle><circle cx="80.76" cy="170.58" r="2.6" fill="#F0A23B"></circle><circle cx="89.01" cy="165.15" r="2.6" fill="#F0A23B"></circle><circle cx="97.27" cy="168.63" r="2.6" fill="#F0A23B"></circle><circle cx="105.52" cy="155.58" r="2.6" fill="#F0A23B"></circle><circle cx="113.77" cy="155.2" r="2.6" fill="#F0A23B"></circle><circle cx="122.03" cy="151.03" r="2.6" fill="#F0A23B"></circle><circle cx="130.28" cy="159.37" r="2.6" fill="#F0A23B"></circle><circle cx="138.54" cy="151" r="2.6" fill="#F0A23B"></circle><circle cx="146.79" cy="152" r="2.6" fill="#F0A23B"></circle><circle cx="155.04" cy="154.31" r="2.6" fill="#F0A23B"></circle><circle cx="163.3" cy="162.54" r="2.6" fill="#F0A23B"></circle><circle cx="171.55" cy="145.36" r="2.6" fill="#F0A23B"></circle><circle cx="179.8" cy="160.82" r="2.6" fill="#F0A23B"></circle><circle cx="188.06" cy="153.52" r="2.6" fill="#F0A23B"></circle><circle cx="196.31" cy="158.63" r="2.6" fill="#F0A23B"></circle><circle cx="204.56" cy="172.35" r="2.6" fill="#F0A23B"></circle><circle cx="212.82" cy="162.23" r="2.6" fill="#F0A23B"></circle><circle cx="221.07" cy="168.2" r="2.6" fill="#F0A23B"></circle><circle cx="229.32" cy="164.28" r="2.6" fill="#F0A23B"></circle><circle cx="237.58" cy="98" r="2.6" fill="#F0A23B"></circle><circle cx="245.83" cy="164.92" r="2.6" fill="#F0A23B"></circle><circle cx="254.08" cy="167.19" r="2.6" fill="#F0A23B"></circle><circle cx="262.34" cy="163.76" r="2.6" fill="#F0A23B"></circle><circle cx="270.59" cy="165.84" r="2.6" fill="#F0A23B"></circle><circle cx="278.85" cy="134.6" r="2.6" fill="#F0A23B"></circle><circle cx="287.1" cy="163" r="2.6" fill="#F0A23B"></circle><circle cx="295.35" cy="144.13" r="2.6" fill="#F0A23B"></circle><circle cx="303.61" cy="165.52" r="2.6" fill="#F0A23B"></circle><circle cx="311.86" cy="134.8" r="2.6" fill="#F0A23B"></circle><circle cx="320.11" cy="167.11" r="2.6" fill="#F0A23B"></circle><circle cx="328.37" cy="166.07" r="2.6" fill="#F0A23B"></circle><circle cx="336.62" cy="54.66" r="2.6" fill="#F0A23B"></circle><circle cx="344.87" cy="77.46" r="2.6" fill="#F0A23B"></circle><circle cx="353.13" cy="164.62" r="2.6" fill="#F0A23B"></circle><circle cx="361.38" cy="166.72" r="2.6" fill="#F0A23B"></circle><circle cx="369.63" cy="166.65" r="2.6" fill="#F0A23B"></circle><circle cx="377.89" cy="162.93" r="2.6" fill="#F0A23B"></circle><circle cx="386.14" cy="164.9" r="2.6" fill="#F0A23B"></circle><circle cx="394.39" cy="170.21" r="2.6" fill="#F0A23B"></circle><circle cx="402.65" cy="169.23" r="2.6" fill="#F0A23B"></circle><circle cx="410.9" cy="114.96" r="2.6" fill="#F0A23B"></circle><circle cx="419.15" cy="165.27" r="2.6" fill="#F0A23B"></circle><circle cx="427.41" cy="165.44" r="2.6" fill="#F0A23B"></circle><circle cx="435.66" cy="99.36" r="2.6" fill="#F0A23B"></circle><circle cx="443.92" cy="161.79" r="2.6" fill="#F0A23B"></circle><circle cx="452.17" cy="138.56" r="2.6" fill="#F0A23B"></circle><circle cx="460.42" cy="167.81" r="2.6" fill="#F0A23B"></circle><circle cx="468.68" cy="164.51" r="2.6" fill="#F0A23B"></circle><circle cx="476.93" cy="164.55" r="2.6" fill="#F0A23B"></circle><circle cx="485.18" cy="135.11" r="2.6" fill="#F0A23B"></circle><circle cx="493.44" cy="119.1" r="2.6" fill="#F0A23B"></circle><circle cx="501.69" cy="168.6" r="2.6" fill="#F0A23B"></circle><circle cx="509.94" cy="167.03" r="2.6" fill="#F0A23B"></circle><circle cx="518.2" cy="169.7" r="2.6" fill="#F0A23B"></circle><circle cx="526.45" cy="164.27" r="2.6" fill="#F0A23B"></circle><circle cx="534.7" cy="168.02" r="2.6" fill="#F0A23B"></circle><circle cx="542.96" cy="163.89" r="2.6" fill="#F0A23B"></circle><circle cx="551.21" cy="99.72" r="2.6" fill="#F0A23B"></circle><circle cx="559.46" cy="166.55" r="2.6" fill="#F0A23B"></circle><circle cx="567.72" cy="163.57" r="2.6" fill="#F0A23B"></circle><circle cx="575.97" cy="163.91" r="2.6" fill="#F0A23B"></circle><circle cx="584.23" cy="164.36" r="2.6" fill="#F0A23B"></circle><circle cx="592.48" cy="166.86" r="2.6" fill="#F0A23B"></circle><circle cx="600.73" cy="166.95" r="2.6" fill="#F0A23B"></circle><circle cx="608.99" cy="52.43" r="2.6" fill="#F0A23B"></circle><circle cx="617.24" cy="166.52" r="2.6" fill="#F0A23B"></circle><circle cx="625.49" cy="165.82" r="2.6" fill="#F0A23B"></circle><circle cx="633.75" cy="164.59" r="2.6" fill="#F0A23B"></circle><line x1="656" y1="27" x2="672" y2="27" stroke="#6366F1" stroke-width="3" stroke-linecap="round"></line><text x="678" y="30" font-size="11" font-weight="400" text-anchor="start" fill="#1f2328">deepseek</text><line x1="656" y1="47" x2="672" y2="47" stroke="#A371F7" stroke-width="3" stroke-linecap="round"></line><text x="678" y="50" font-size="11" font-weight="400" text-anchor="start" fill="#1f2328">llama</text><line x1="656" y1="67" x2="672" y2="67" stroke="#F0A23B" stroke-width="3" stroke-linecap="round"></line><text x="678" y="70" font-size="11" font-weight="400" text-anchor="start" fill="#1f2328">mistral</text></svg>
