<svg xmlns="http://www.w3.org/2000/svg" viewBox="0 0 600 300" width="600" height="300" role="img" aria-label="Cost per test by provider over runs ($)"><text x="300.0" y="24" text-anchor="middle" font-family="system-ui, -apple-system, sans-serif" font-size="14" font-weight="600" fill="#333">Cost per test by provider over runs ($)</text><line x1="60" y1="240.0" x2="480" y2="240.0" stroke="#eee" stroke-width="1"/><text x="54" y="244.0" text-anchor="end" font-family="system-ui, -apple-system, sans-serif" font-size="9" fill="#999">0.007197</text><line x1="60" y1="140.0" x2="480" y2="140.0" stroke="#eee" stroke-width="1"/><text x="54" y="144.0" text-anchor="end" font-family="system-ui, -apple-system, sans-serif" font-size="9" fill="#999">0.08167</text><line x1="60" y1="40.0" x2="480" y2="40.0" stroke="#eee" stroke-width="1"/><text x="54" y="44.0" text-anchor="end" font-family="system-ui, -apple-system, sans-serif" font-size="9" fill="#999">0.1561</text><polyline fill="none" stroke="#4CAF50" stroke-width="2" points="60.0,141.8 72.0,142.3 84.0,106.4 96.0,144.1 108.0,138.9 120.0,140.8 132.0,140.9 144.0,137.9 156.0,140.5 168.0,140.1 180.0,80.0 192.0,136.1 204.0,140.2 216.0,140.5 228.0,135.0 240.0,93.8 252.0,133.9 264.0,140.6 276.0,113.7 288.0,136.4 300.0,134.8 312.0,140.9 324.0,121.5 336.0,138.0 348.0,40.0 360.0,126.7 372.0,138.5 384.0,109.3 396.0,137.0 408.0,84.7 420.0,137.6 432.0,142.0 444.0,140.5 456.0,140.6 468.0,121.7 480.0,140.3"/><circle cx="60.0" cy="141.8" r="3" fill="#4CAF50"/><circle cx="72.0" cy="142.3" r="3" fill="#4CAF50"/><circle cx="84.0" cy="106.4" r="3" fill="#4CAF50"/><circle cx="96.0" cy="144.1" r="3" fill="#4CAF50"/><circle cx="108.0" cy="138.9" r="3" fill="#4CAF50"/><circle cx="120.0" cy="140.8" r="3" fill="#4CAF50"/><circle cx="132.0" cy="140.9" r="3" fill="#4CAF50"/><circle cx="144.0" cy="137.9" r="3" fill="#4CAF50"/><circle cx="156.0" cy="140.5" r="3" fill="#4CAF50"/><circle cx="168.0" cy="140.1" r="3" fill="#4CAF50"/><circle cx="180.0" cy="80.0" r="3" fill="#4CAF50"/><circle cx="192.0" cy="136.1" r="3" fill="#4CAF50"/><circle cx="204.0" cy="140.2" r="3" fill="#4CAF50"/><circle cx="216.0" cy="140.5" r="3" fill="#4CAF50"/><circle cx="228.0" cy="135.0" r="3" fill="#4CAF50"/><circle cx="240.0" cy="93.8" r="3" fill="#4CAF50"/><circle cx="252.0" cy="133.9" r="3" fill="#4CAF50"/><circle cx="264.0" cy="140.6" r="3" fill="#4CAF50"/><circle cx="276.0" cy="113.7" r="3" fill="#4CAF50"/><circle cx="288.0" cy="136.4" r="3" fill="#4CAF50"/><circle cx="300.0" cy="134.8" r="3" fill="#4CAF50"/><circle cx="312.0" cy="140.9" r="3" fill="#4CAF50"/><circle cx="324.0" cy="121.5" r="3" fill="#4CAF50"/><circle cx="336.0" cy="138.0" r="3" fill="#4CAF50"/><circle cx="348.0" cy="40.0" r="3" fill="#4CAF50"/><circle cx="360.0" cy="126.7" r="3" fill="#4CAF50"/><circle cx="372.0" cy="138.5" r="3" fill="#4CAF50"/><circle cx="384.0" cy="109.3" r="3" fill="#4CAF50"/><circle cx="396.0" cy="137.0" r="3" fill="#4CAF50"/><circle cx="408.0" cy="84.7" r="3" fill="#4CAF50"/><circle cx="420.0" cy="137.6" r="3" fill="#4CAF50"/><circle cx="432.0" cy="142.0" r="3" fill="#4CAF50"/><circle cx="444.0" cy="140.5" r="3" fill="#4CAF50"/><circle cx="456.0" cy="140.6" r="3" fill="#4CAF50"/><circle cx="468.0" cy="121.7" r="3" fill="#4CAF50"/><circle cx="480.0" cy="140.3" r="3" fill="#4CAF50"/><rect x="490" y="44" width="10" height="10" fill="#4CAF50"/><text x="504" y="53" font-family="system-ui, -apple-system, sans-serif" font-size="10" fill="#333">openai</text><polyline fill="none" stroke="#2196F3" stroke-width="2" points="60.0,143.4 72.0,149.4 84.0,143.1 96.0,145.8 108.0,151.8 120.0,139.6 132.0,145.6 144.0,141.5 156.0,141.5 168.0,140.7 180.0,142.6 192.0,153.3 204.0,152.2 216.0,146.8 228.0,141.9 240.0,142.2 252.0,116.6 264.0,142.0 276.0,114.7 288.0,122.7 300.0,135.5 312.0,130.6 324.0,145.2 336.0,124.2 348.0,141.8 360.0,137.0 372.0,134.1 384.0,136.4"/><circle cx="60.0" cy="143.4" r="3" fill="#2196F3"/><circle cx="72.0" cy="149.4" r="3" fill="#2196F3"/><circle cx="84.0" cy="143.1" r="3" fill="#2196F3"/><circle cx="96.0" cy="145.8" r="3" fill="#2196F3"/><circle cx="108.0" cy="151.8" r="3" fill="#2196F3"/><circle cx="120.0" cy="139.6" r="3" fill="#2196F3"/><circle cx="132.0" cy="145.6" r="3" fill="#2196F3"/><circle cx="144.0" cy="141.5" r="3" fill="#2196F3"/><circle cx="156.0" cy="141.5" r="3" fill="#2196F3"/><circle cx="168.0" cy="140.7" r="3" fill="#2196F3"/><circle cx="180.0" cy="142.6" r="3" fill="#2196F3"/><circle cx="192.0" cy="153.3" r="3" fill="#2196F3"/><circle cx="204.0" cy="152.2" r="3" fill="#2196F3"/><circle cx="216.0" cy="146.8" r="3" fill="#2196F3"/><circle cx="228.0" cy="141.9" r="3" fill="#2196F3"/><circle cx="240.0" cy="142.2" r="3" fill="#2196F3"/><circle cx="252.0" cy="116.6" r="3" fill="#2196F3"/><circle cx="264.0" cy="142.0" r="3" fill="#2196F3"/><circle cx="276.0" cy="114.7" r="3" fill="#2196F3"/><circle cx="288.0" cy="122.7" r="3" fill="#2196F3"/><circle cx="300.0" cy="135.5" r="3" fill="#2196F3"/><circle cx="312.0" cy="130.6" r="3" fill="#2196F3"/><circle cx="324.0" cy="145.2" r="3" fill="#2196F3"/><circle cx="336.0" cy="124.2" r="3" fill="#2196F3"/><circle cx="348.0" cy="141.8" r="3" fill="#2196F3"/><circle cx="360.0" cy="137.0" r="3" fill="#2196F3"/><circle cx="372.0" cy="134.1" r="3" fill="#2196F3"/><circle cx="384.0" cy="136.4" r="3" fill="#2196F3"/><rect x="490" y="62" width="10" height="10" fill="#2196F3"/><text x="504" y="71" font-family="system-ui, -apple-system, sans-serif" font-size="10" fill="#333">gemini</text><polyline fill="none" stroke="#FF9800" stroke-width="2" points="60.0,102.1 72.0,121.1 84.0,125.3 96.0,97.5 108.0,120.5 120.0,80.6 132.0,115.2 144.0,101.9 156.0,109.2 168.0,118.7 180.0,125.8 192.0,114.2 204.0,107.2 216.0,139.1 228.0,123.1 240.0,120.9 252.0,110.3 276.0,112.2 288.0,124.4 300.0,98.5 312.0,127.8 324.0,122.4 336.0,111.2 348.0,121.0 360.0,123.4 372.0,129.2 384.0,122.2 396.0,135.4 408.0,124.0 420.0,123.6 432.0,132.5 444.0,126.8 456.0,118.3 468.0,122.8 480.0,122.9"/><circle cx="60.0" cy="102.1" r="3" fill="#FF9800"/><circle cx="72.0" cy="121.1" r="3" fill="#FF9800"/><circle cx="84.0" cy="125.3" r="3" fill="#FF9800"/><circle cx="96.0" cy="97.5" r="3" fill="#FF9800"/><circle cx="108.0" cy="120.5" r="3" fill="#FF9800"/><circle cx="120.0" cy="80.6" r="3" fill="#FF9800"/><circle cx="132.0" cy="115.2" r="3" fill="#FF9800"/><circle cx="144.0" cy="101.9" r="3" fill="#FF9800"/><circle cx="156.0" cy="109.2" r="3" fill="#FF9800"/><circle cx="168.0" cy="118.7" r="3" fill="#FF9800"/><circle cx="180.0" cy="125.8" r="3" fill="#FF9800"/><circle cx="192.0" cy="114.2" r="3" fill="#FF9800"/><circle cx="204.0" cy="107.2" r="3" fill="#FF9800"/><circle cx="216.0" cy="139.1" r="3" fill="#FF9800"/><circle cx="228.0" cy="123.1" r="3" fill="#FF9800"/><circle cx="240.0" cy="120.9" r="3" fill="#FF9800"/><circle cx="252.0" cy="110.3" r="3" fill="#FF9800"/><circle cx="276.0" cy="112.2" r="3" fill="#FF9800"/><circle cx="288.0" cy="124.4" r="3" fill="#FF9800"/><circle cx="300.0" cy="98.5" r="3" fill="#FF9800"/><circle cx="312.0" cy="127.8" r="3" fill="#FF9800"/><circle cx="324.0" cy="122.4" r="3" fill="#FF9800"/><circle cx="336.0" cy="111.2" r="3" fill="#FF9800"/><circle cx="348.0" cy="121.0" r="3" fill="#FF9800"/><circle cx="360.0" cy="123.4" r="3" fill="#FF9800"/><circle cx="372.0" cy="129.2" r="3" fill="#FF9800"/><circle cx="384.0" cy="122.2" r="3" fill="#FF9800"/><circle cx="396.0" cy="135.4" r="3" fill="#FF9800"/><circle cx="408.0" cy="124.0" r="3" fill="#FF9800"/><circle cx="420.0" cy="123.6" r="3" fill="#FF9800"/><circle cx="432.0" cy="132.5" r="3" fill="#FF9800"/><circle cx="444.0" cy="126.8" r="3" fill="#FF9800"/><circle cx="456.0" cy="118.3" r="3" fill="#FF9800"/><circle cx="468.0" cy="122.8" r="3" fill="#FF9800"/><circle cx="480.0" cy="122.9" r="3" fill="#FF9800"/><rect x="490" y="80" width="10" height="10" fill="#FF9800"/><text x="504" y="89" font-family="system-ui, -apple-system, sans-serif" font-size="10" fill="#333">anthropic</text><polyline fill="none" stroke="#E91E63" stroke-width="2" points="60.0,142.3 72.0,134.2 84.0,75.2 96.0,148.6 108.0,144.6 120.0,147.1 132.0,137.4 144.0,137.1 156.0,134.0 168.0,140.2 180.0,134.0 192.0,134.7 204.0,136.5 216.0,142.6 228.0,129.8 240.0,141.3 252.0,135.9 264.0,139.7 276.0,149.9 288.0,142.4 300.0,146.8 312.0,143.9 324.0,94.4 336.0,144.4 348.0,146.1 360.0,143.5 372.0,145.1 384.0,121.8 396.0,142.9 408.0,128.9 420.0,144.8 432.0,121.9 444.0,146.0 456.0,145.2 468.0,62.1 480.0,79.1"/><circle cx="60.0" cy="142.3" r="3" fill="#E91E63"/><circle cx="72.0" cy="134.2" r="3" fill="#E91E63"/><circle cx="84.0" cy="75.2" r="3" fill="#E91E63"/><circle cx="96.0" cy="148.6" r="3" fill="#E91E63"/><circle cx="108.0" cy="144.6" r="3" fill="#E91E63"/><circle cx="120.0" cy="147.1" r="3" fill="#E91E63"/><circle cx="132.0" cy="137.4" r="3" fill="#E91E63"/><circle cx="144.0" cy="137.1" r="3" fill="#E91E63"/><circle cx="156.0" cy="134.0" r="3" fill="#E91E63"/><circle cx="168.0" cy="140.2" r="3" fill="#E91E63"/><circle cx="180.0" cy="134.0" r="3" fill="#E91E63"/><circle cx="192.0" cy="134.7" r="3" fill="#E91E63"/><circle cx="204.0" cy="136.5" r="3" fill="#E91E63"/><circle cx="216.0" cy="142.6" r="3" fill="#E91E63"/><circle cx="228.0" cy="129.8" r="3" fill="#E91E63"/><circle cx="240.0" cy="141.3" r="3" fill="#E91E63"/><circle cx="252.0" cy="135.9" r="3" fill="#E91E63"/><circle cx="264.0" cy="139.7" r="3" fill="#E91E63"/><circle cx="276.0" cy="149.9" r="3" fill="#E91E63"/><circle cx="288.0" cy="142.4" r="3" fill="#E91E63"/><circle cx="300.0" cy="146.8" r="3" fill="#E91E63"/><circle cx="312.0" cy="143.9" r="3" fill="#E91E63"/><circle cx="324.0" cy="94.4" r="3" fill="#E91E63"/><circle cx="336.0" cy="144.4" r="3" fill="#E91E63"/><circle cx="348.0" cy="146.1" r="3" fill="#E91E63"/><circle cx="360.0" cy="143.5" r="3" fill="#E91E63"/><circle cx="372.0" cy="145.1" r="3" fill="#E91E63"/><circle cx="384.0" cy="121.8" r="3" fill="#E91E63"/><circle cx="396.0" cy="142.9" r="3" fill="#E91E63"/><circle cx="408.0" cy="128.9" r="3" fill="#E91E63"/><circle cx="420.0" cy="144.8" r="3" fill="#E91E63"/><circle cx="432.0" cy="121.9" r="3" fill="#E91E63"/><circle cx="444.0" cy="146.0" r="3" fill="#E91E63"/><circle cx="456.0" cy="145.2" r="3" fill="#E91E63"/><circle cx="468.0" cy="62.1" r="3" fill="#E91E63"/><circle cx="480.0" cy="79.1" r="3" fill="#E91E63"/><rect x="490" y="98" width="10" height="10" fill="#E91E63"/><text x="504" y="107" font-family="system-ui, -apple-system, sans-serif" font-size="10" fill="#333">mistral</text><polyline fill="none" stroke="#9C27B0" stroke-width="2" points="60.0,190.1 72.0,198.8 84.0,201.7 96.0,188.0 108.0,194.2 120.0,202.7 132.0,198.8 144.0,193.1 156.0,195.8 168.0,201.2 180.0,195.7 192.0,193.6 204.0,197.3 216.0,183.3 228.0,198.4 240.0,193.5 252.0,200.8 264.0,201.2 276.0,184.1 288.0,194.7 300.0,171.9 312.0,200.2 324.0,202.6 336.0,192.6 348.0,190.9 360.0,193.9 372.0,195.4 384.0,193.3 396.0,200.6 408.0,196.9 420.0,193.7 432.0,198.9 444.0,202.5 456.0,184.0 468.0,198.5 480.0,200.0"/><circle cx="60.0" cy="190.1" r="3" fill="#9C27B0"/><circle cx="72.0" cy="198.8" r="3" fill="#9C27B0"/><circle cx="84.0" cy="201.7" r="3" fill="#9C27B0"/><circle cx="96.0" cy="188.0" r="3" fill="#9C27B0"/><circle cx="108.0" cy="194.2" r="3" fill="#9C27B0"/><circle cx="120.0" cy="202.7" r="3" fill="#9C27B0"/><circle cx="132.0" cy="198.8" r="3" fill="#9C27B0"/><circle cx="144.0" cy="193.1" r="3" fill="#9C27B0"/><circle cx="156.0" cy="195.8" r="3" fill="#9C27B0"/><circle cx="168.0" cy="201.2" r="3" fill="#9C27B0"/><circle cx="180.0" cy="195.7" r="3" fill="#9C27B0"/><circle cx="192.0" cy="193.6" r="3" fill="#9C27B0"/><circle cx="204.0" cy="197.3" r="3" fill="#9C27B0"/><circle cx="216.0" cy="183.3" r="3" fill="#9C27B0"/><circle cx="228.0" cy="198.4" r="3" fill="#9C27B0"/><circle cx="240.0" cy="193.5" r="3" fill="#9C27B0"/><circle cx="252.0" cy="200.8" r="3" fill="#9C27B0"/><circle cx="264.0" cy="201.2" r="3" fill="#9C27B0"/><circle cx="276.0" cy="184.1" r="3" fill="#9C27B0"/><circle cx="288.0" cy="194.7" r="3" fill="#9C27B0"/><circle cx="300.0" cy="171.9" r="3" fill="#9C27B0"/><circle cx="312.0" cy="200.2" r="3" fill="#9C27B0"/><circle cx="324.0" cy="202.6" r="3" fill="#9C27B0"/><circle cx="336.0" cy="192.6" r="3" fill="#9C27B0"/><circle cx="348.0" cy="190.9" r="3" fill="#9C27B0"/><circle cx="360.0" cy="193.9" r="3" fill="#9C27B0"/><circle cx="372.0" cy="195.4" r="3" fill="#9C27B0"/><circle cx="384.0" cy="193.3" r="3" fill="#9C27B0"/><circle cx="396.0" cy="200.6" r="3" fill="#9C27B0"/><circle cx="408.0" cy="196.9" r="3" fill="#9C27B0"/><circle cx="420.0" cy="193.7" r="3" fill="#9C27B0"/><circle cx="432.0" cy="198.9" r="3" fill="#9C27B0"/><circle cx="444.0" cy="202.5" r="3" fill="#9C27B0"/><circle cx="456.0" cy="184.0" r="3" fill="#9C27B0"/><circle cx="468.0" cy="198.5" r="3" fill="#9C27B0"/><circle cx="480.0" cy="200.0" r="3" fill="#9C27B0"/><rect x="490" y="116" width="10" height="10" fill="#9C27B0"/><text x="504" y="125" font-family="system-ui, -apple-system, sans-serif" font-size="10" fill="#333">llama</text><polyline fill="none" stroke="#00BCD4" stroke-width="2" points="156.0,239.2 168.0,239.3 180.0,239.8 192.0,238.8 204.0,239.0 216.0,234.2 228.0,240.0 240.0,237.9 252.0,237.9 264.0,237.6 276.0,238.9 288.0,237.9 300.0,235.2 312.0,238.1 324.0,235.5 336.0,240.0 348.0,238.2 360.0,235.2 372.0,232.9 384.0,238.2 396.0,237.3 408.0,239.5 420.0,236.5 432.0,233.9 444.0,238.7 456.0,237.8 468.0,238.5 480.0,237.5"/><circle cx="156.0" cy="239.2" r="3" fill="#00BCD4"/><circle cx="168.0" cy="239.3" r="3" fill="#00BCD4"/><circle cx="180.0" cy="239.8" r="3" fill="#00BCD4"/><circle cx="192.0" cy="238.8" r="3" fill="#00BCD4"/><circle cx="204.0" cy="239.0" r="3" fill="#00BCD4"/><circle cx="216.0" cy="234.2" r="3" fill="#00BCD4"/><circle cx="228.0" cy="240.0" r="3" fill="#00BCD4"/><circle cx="240.0" cy="237.9" r="3" fill="#00BCD4"/><circle cx="252.0" cy="237.9" r="3" fill="#00BCD4"/><circle cx="264.0" cy="237.6" r="3" fill="#00BCD4"/><circle cx="276.0" cy="238.9" r="3" fill="#00BCD4"/><circle cx="288.0" cy="237.9" r="3" fill="#00BCD4"/><circle cx="300.0" cy="235.2" r="3" fill="#00BCD4"/><circle cx="312.0" cy="238.1" r="3" fill="#00BCD4"/><circle cx="324.0" cy="235.5" r="3" fill="#00BCD4"/><circle cx="336.0" cy="240.0" r="3" fill="#00BCD4"/><circle cx="348.0" cy="238.2" r="3" fill="#00BCD4"/><circle cx="360.0" cy="235.2" r="3" fill="#00BCD4"/><circle cx="372.0" cy="232.9" r="3" fill="#00BCD4"/><circle cx="384.0" cy="238.2" r="3" fill="#00BCD4"/><circle cx="396.0" cy="237.3" r="3" fill="#00BCD4"/><circle cx="408.0" cy="239.5" r="3" fill="#00BCD4"/><circle cx="420.0" cy="236.5" r="3" fill="#00BCD4"/><circle cx="432.0" cy="233.9" r="3" fill="#00BCD4"/><circle cx="444.0" cy="238.7" r="3" fill="#00BCD4"/><circle cx="456.0" cy="237.8" r="3" fill="#00BCD4"/><circle cx="468.0" cy="238.5" r="3" fill="#00BCD4"/><circle cx="480.0" cy="237.5" r="3" fill="#00BCD4"/><rect x="490" y="134" width="10" height="10" fill="#00BCD4"/><text x="504" y="143" font-family="system-ui, -apple-system, sans-serif" font-size="10" fill="#333">deepseek</text><text x="60.0" y="256.0" text-anchor="middle" font-family="system-ui, -apple-system, sans-serif" font-size="9" fill="#666">71825113</text><text x="96.0" y="256.0" text-anchor="middle" font-family="system-ui, -apple-system, sans-serif" font-size="9" fill="#666">97386462</text><text x="132.0" y="256.0" text-anchor="middle" font-family="system-ui, -apple-system, sans-serif" font-size="9" fill="#666">31919473</text><text x="168.0" y="256.0" text-anchor="middle" font-family="system-ui, -apple-system, sans-serif" font-size="9" fill="#666">51938981</text><text x="204.0" y="256.0" text-anchor="middle" font-family="system-ui, -apple-system, sans-serif" font-size="9" fill="#666">73723278</text><text x="240.0" y="256.0" text-anchor="middle" font-family="system-ui, -apple-system, sans-serif" font-size="9" fill="#666">75757458</text><text x="276.0" y="256.0" text-anchor="middle" font-family="system-ui, -apple-system, sans-serif" font-size="9" fill="#666">39719442</text><text x="312.0" y="256.0" text-anchor="middle" font-family="system-ui, -apple-system, sans-serif" font-size="9" fill="#666">04094958</text><text x="348.0" y="256.0" text-anchor="middle" font-family="system-ui, -apple-system, sans-serif" font-size="9" fill="#666">34092480</text><text x="384.0" y="256.0" text-anchor="middle" font-family="system-ui, -apple-system, sans-serif" font-size="9" fill="#666">68748512</text><text x="420.0" y="256.0" text-anchor="middle" font-family="system-ui, -apple-system, sans-serif" font-size="9" fill="#666">00682223</text><text x="456.0" y="256.0" text-anchor="middle" font-family="system-ui, -apple-system, sans-serif" font-size="9" fill="#666">62366017</text></svg>
