<svg xmlns="http://www.w3.org/2000/svg" viewBox="0 0 600 300" width="600" height="300" role="img" aria-label="Cost per test by provider over runs ($)"><text x="300.0" y="24" text-anchor="middle" font-family="system-ui, -apple-system, sans-serif" font-size="14" font-weight="600" fill="#333">Cost per test by provider over runs ($)</text><line x1="60" y1="240.0" x2="480" y2="240.0" stroke="#eee" stroke-width="1"/><text x="54" y="244.0" text-anchor="end" font-family="system-ui, -apple-system, sans-serif" font-size="9" fill="#999">0.007197</text><line x1="60" y1="140.0" x2="480" y2="140.0" stroke="#eee" stroke-width="1"/><text x="54" y="144.0" text-anchor="end" font-family="system-ui, -apple-system, sans-serif" font-size="9" fill="#999">0.08167</text><line x1="60" y1="40.0" x2="480" y2="40.0" stroke="#eee" stroke-width="1"/><text x="54" y="44.0" text-anchor="end" font-family="system-ui, -apple-system, sans-serif" font-size="9" fill="#999">0.1561</text><polyline fill="none" stroke="#4CAF50" stroke-width="2" points="60.0,141.8 72.4,142.3 84.7,106.4 97.1,144.1 109.4,138.9 121.8,140.8 134.1,140.9 146.5,137.9 158.8,140.5 171.2,140.1 183.5,80.0 195.9,136.1 208.2,140.2 220.6,140.5 232.9,135.0 245.3,93.8 257.6,133.9 270.0,140.6 282.4,113.7 294.7,136.4 307.1,134.8 319.4,140.9 331.8,121.5 344.1,138.0 356.5,40.0 368.8,126.7 381.2,138.5 393.5,109.3 405.9,137.0 418.2,84.7 430.6,137.6 442.9,142.0 455.3,140.5 467.6,140.6 480.0,121.7"/><circle cx="60.0" cy="141.8" r="3" fill="#4CAF50"/><circle cx="72.4" cy="142.3" r="3" fill="#4CAF50"/><circle cx="84.7" cy="106.4" r="3" fill="#4CAF50"/><circle cx="97.1" cy="144.1" r="3" fill="#4CAF50"/><circle cx="109.4" cy="138.9" r="3" fill="#4CAF50"/><circle cx="121.8" cy="140.8" r="3" fill="#4CAF50"/><circle cx="134.1" cy="140.9" r="3" fill="#4CAF50"/><circle cx="146.5" cy="137.9" r="3" fill="#4CAF50"/><circle cx="158.8" cy="140.5" r="3" fill="#4CAF50"/><circle cx="171.2" cy="140.1" r="3" fill="#4CAF50"/><circle cx="183.5" cy="80.0" r="3" fill="#4CAF50"/><circle cx="195.9" cy="136.1" r="3" fill="#4CAF50"/><circle cx="208.2" cy="140.2" r="3" fill="#4CAF50"/><circle cx="220.6" cy="140.5" r="3" fill="#4CAF50"/><circle cx="232.9" cy="135.0" r="3" fill="#4CAF50"/><circle cx="245.3" cy="93.8" r="3" fill="#4CAF50"/><circle cx="257.6" cy="133.9" r="3" fill="#4CAF50"/><circle cx="270.0" cy="140.6" r="3" fill="#4CAF50"/><circle cx="282.4" cy="113.7" r="3" fill="#4CAF50"/><circle cx="294.7" cy="136.4" r="3" fill="#4CAF50"/><circle cx="307.1" cy="134.8" r="3" fill="#4CAF50"/><circle cx="319.4" cy="140.9" r="3" fill="#4CAF50"/><circle cx="331.8" cy="121.5" r="3" fill="#4CAF50"/><circle cx="344.1" cy="138.0" r="3" fill="#4CAF50"/><circle cx="356.5" cy="40.0" r="3" fill="#4CAF50"/><circle cx="368.8" cy="126.7" r="3" fill="#4CAF50"/><circle cx="381.2" cy="138.5" r="3" fill="#4CAF50"/><circle cx="393.5" cy="109.3" r="3" fill="#4CAF50"/><circle cx="405.9" cy="137.0" r="3" fill="#4CAF50"/><circle cx="418.2" cy="84.7" r="3" fill="#4CAF50"/><circle cx="430.6" cy="137.6" r="3" fill="#4CAF50"/><circle cx="442.9" cy="142.0" r="3" fill="#4CAF50"/><circle cx="455.3" cy="140.5" r="3" fill="#4CAF50"/><circle cx="467.6" cy="140.6" r="3" fill="#4CAF50"/><circle cx="480.0" cy="121.7" r="3" fill="#4CAF50"/><rect x="490" y="44" width="10" height="10" fill="#4CAF50"/><text x="504" y="53" font-family="system-ui, -apple-system, sans-serif" font-size="10" fill="#333">openai</text><polyline fill="none" stroke="#2196F3" stroke-width="2" points="60.0,143.4 72.4,149.4 84.7,143.1 97.1,145.8 109.4,151.8 121.8,139.6 134.1,145.6 146.5,141.5 158.8,141.5 171.2,140.7 183.5,142.6 195.9,153.3 208.2,152.2 220.6,146.8 232.9,141.9 245.3,142.2 257.6,116.6 270.0,142.0 282.4,114.7 294.7,122.7 307.1,135.5 319.4,130.6 331.8,145.2 344.1,124.2 356.5,141.8 368.8,137.0 381.2,134.1 393.5,136.4"/><circle cx="60.0" cy="143.4" r="3" fill="#2196F3"/><circle cx="72.4" cy="149.4" r="3" fill="#2196F3"/><circle cx="84.7" cy="143.1" r="3" fill="#2196F3"/><circle cx="97.1" cy="145.8" r="3" fill="#2196F3"/><circle cx="109.4" cy="151.8" r="3" fill="#2196F3"/><circle cx="121.8" cy="139.6" r="3" fill="#2196F3"/><circle cx="134.1" cy="145.6" r="3" fill="#2196F3"/><circle cx="146.5" cy="141.5" r="3" fill="#2196F3"/><circle cx="158.8" cy="141.5" r="3" fill="#2196F3"/><circle cx="171.2" cy="140.7" r="3" fill="#2196F3"/><circle cx="183.5" cy="142.6" r="3" fill="#2196F3"/><circle cx="195.9" cy="153.3" r="3" fill="#2196F3"/><circle cx="208.2" cy="152.2" r="3" fill="#2196F3"/><circle cx="220.6" cy="146.8" r="3" fill="#2196F3"/><circle cx="232.9" cy="141.9" r="3" fill="#2196F3"/><circle cx="245.3" cy="142.2" r="3" fill="#2196F3"/><circle cx="257.6" cy="116.6" r="3" fill="#2196F3"/><circle cx="270.0" cy="142.0" r="3" fill="#2196F3"/><circle cx="282.4" cy="114.7" r="3" fill="#2196F3"/><circle cx="294.7" cy="122.7" r="3" fill="#2196F3"/><circle cx="307.1" cy="135.5" r="3" fill="#2196F3"/><circle cx="319.4" cy="130.6" r="3" fill="#2196F3"/><circle cx="331.8" cy="145.2" r="3" fill="#2196F3"/><circle cx="344.1" cy="124.2" r="3" fill="#2196F3"/><circle cx="356.5" cy="141.8" r="3" fill="#2196F3"/><circle cx="368.8" cy="137.0" r="3" fill="#2196F3"/><circle cx="381.2" cy="134.1" r="3" fill="#2196F3"/><circle cx="393.5" cy="136.4" r="3" fill="#2196F3"/><rect x="490" y="62" width="10" height="10" fill="#2196F3"/><text x="504" y="71" font-family="system-ui, -apple-system, sans-serif" font-size="10" fill="#333">gemini</text><polyline fill="none" stroke="#FF9800" stroke-width="2" points="60.0,102.1 72.4,121.1 84.7,125.3 97.1,97.5 109.4,120.5 121.8,80.6 134.1,115.2 146.5,101.9 158.8,109.2 171.2,118.7 183.5,125.8 195.9,114.2 208.2,107.2 220.6,139.1 232.9,123.1 245.3,120.9 257.6,110.3 282.4,112.2 294.7,124.4 307.1,98.5 319.4,127.8 331.8,122.4 344.1,111.2 356.5,121.0 368.8,123.4 381.2,129.2 393.5,122.2 405.9,135.4 418.2,124.0 430.6,123.6 442.9,132.5 455.3,126.8 467.6,118.3 480.0,122.8"/><circle cx="60.0" cy="102.1" r="3" fill="#FF9800"/><circle cx="72.4" cy="121.1" r="3" fill="#FF9800"/><circle cx="84.7" cy="125.3" r="3" fill="#FF9800"/><circle cx="97.1" cy="97.5" r="3" fill="#FF9800"/><circle cx="109.4" cy="120.5" r="3" fill="#FF9800"/><circle cx="121.8" cy="80.6" r="3" fill="#FF9800"/><circle cx="134.1" cy="115.2" r="3" fill="#FF9800"/><circle cx="146.5" cy="101.9" r="3" fill="#FF9800"/><circle cx="158.8" cy="109.2" r="3" fill="#FF9800"/><circle cx="171.2" cy="118.7" r="3" fill="#FF9800"/><circle cx="183.5" cy="125.8" r="3" fill="#FF9800"/><circle cx="195.9" cy="114.2" r="3" fill="#FF9800"/><circle cx="208.2" cy="107.2" r="3" fill="#FF9800"/><circle cx="220.6" cy="139.1" r="3" fill="#FF9800"/><circle cx="232.9" cy="123.1" r="3" fill="#FF9800"/><circle cx="245.3" cy="120.9" r="3" fill="#FF9800"/><circle cx="257.6" cy="110.3" r="3" fill="#FF9800"/><circle cx="282.4" cy="112.2" r="3" fill="#FF9800"/><circle cx="294.7" cy="124.4" r="3" fill="#FF9800"/><circle cx="307.1" cy="98.5" r="3" fill="#FF9800"/><circle cx="319.4" cy="127.8" r="3" fill="#FF9800"/><circle cx="331.8" cy="122.4" r="3" fill="#FF9800"/><circle cx="344.1" cy="111.2" r="3" fill="#FF9800"/><circle cx="356.5" cy="121.0" r="3" fill="#FF9800"/><circle cx="368.8" cy="123.4" r="3" fill="#FF9800"/><circle cx="381.2" cy="129.2" r="3" fill="#FF9800"/><circle cx="393.5" cy="122.2" r="3" fill="#FF9800"/><circle cx="405.9" cy="135.4" r="3" fill="#FF9800"/><circle cx="418.2" cy="124.0" r="3" fill="#FF9800"/><circle cx="430.6" cy="123.6" r="3" fill="#FF9800"/><circle cx="442.9" cy="132.5" r="3" fill="#FF9800"/><circle cx="455.3" cy="126.8" r="3" fill="#FF9800"/><circle cx="467.6" cy="118.3" r="3" fill="#FF9800"/><circle cx="480.0" cy="122.8" r="3" fill="#FF9800"/><rect x="490" y="80" width="10" height="10" fill="#FF9800"/><text x="504" y="89" font-family="system-ui, -apple-system, sans-serif" font-size="10" fill="#333">anthropic</text><polyline fill="none" stroke="#E91E63" stroke-width="2" points="60.0,142.3 72.4,134.2 84.7,75.2 97.1,148.6 109.4,144.6 121.8,147.1 134.1,137.4 146.5,137.1 158.8,134.0 171.2,140.2 183.5,134.0 195.9,134.7 208.2,136.5 220.6,142.6 232.9,129.8 245.3,141.3 257.6,135.9 270.0,139.7 282.4,149.9 294.7,142.4 307.1,146.8 319.4,143.9 331.8,94.4 344.1,144.4 356.5,146.1 368.8,143.5 381.2,145.1 393.5,121.8 405.9,142.9 418.2,128.9 430.6,144.8 442.9,121.9 455.3,146.0 467.6,145.2 480.0,62.1"/><circle cx="60.0" cy="142.3" r="3" fill="#E91E63"/><circle cx="72.4" cy="134.2" r="3" fill="#E91E63"/><circle cx="84.7" cy="75.2" r="3" fill="#E91E63"/><circle cx="97.1" cy="148.6" r="3" fill="#E91E63"/><circle cx="109.4" cy="144.6" r="3" fill="#E91E63"/><circle cx="121.8" cy="147.1" r="3" fill="#E91E63"/><circle cx="134.1" cy="137.4" r="3" fill="#E91E63"/><circle cx="146.5" cy="137.1" r="3" fill="#E91E63"/><circle cx="158.8" cy="134.0" r="3" fill="#E91E63"/><circle cx="171.2" cy="140.2" r="3" fill="#E91E63"/><circle cx="183.5" cy="134.0" r="3" fill="#E91E63"/><circle cx="195.9" cy="134.7" r="3" fill="#E91E63"/><circle cx="208.2" cy="136.5" r="3" fill="#E91E63"/><circle cx="220.6" cy="142.6" r="3" fill="#E91E63"/><circle cx="232.9" cy="129.8" r="3" fill="#E91E63"/><circle cx="245.3" cy="141.3" r="3" fill="#E91E63"/><circle cx="257.6" cy="135.9" r="3" fill="#E91E63"/><circle cx="270.0" cy="139.7" r="3" fill="#E91E63"/><circle cx="282.4" cy="149.9" r="3" fill="#E91E63"/><circle cx="294.7" cy="142.4" r="3" fill="#E91E63"/><circle cx="307.1" cy="146.8" r="3" fill="#E91E63"/><circle cx="319.4" cy="143.9" r="3" fill="#E91E63"/><circle cx="331.8" cy="94.4" r="3" fill="#E91E63"/><circle cx="344.1" cy="144.4" r="3" fill="#E91E63"/><circle cx="356.5" cy="146.1" r="3" fill="#E91E63"/><circle cx="368.8" cy="143.5" r="3" fill="#E91E63"/><circle cx="381.2" cy="145.1" r="3" fill="#E91E63"/><circle cx="393.5" cy="121.8" r="3" fill="#E91E63"/><circle cx="405.9" cy="142.9" r="3" fill="#E91E63"/><circle cx="418.2" cy="128.9" r="3" fill="#E91E63"/><circle cx="430.6" cy="144.8" r="3" fill="#E91E63"/><circle cx="442.9" cy="121.9" r="3" fill="#E91E63"/><circle cx="455.3" cy="146.0" r="3" fill="#E91E63"/><circle cx="467.6" cy="145.2" r="3" fill="#E91E63"/><circle cx="480.0" cy="62.1" r="3" fill="#E91E63"/><rect x="490" y="98" width="10" height="10" fill="#E91E63"/><text x="504" y="107" font-family="system-ui, -apple-system, sans-serif" font-size="10" fill="#333">mistral</text><polyline fill="none" stroke="#9C27B0" stroke-width="2" points="60.0,190.1 72.4,198.8 84.7,201.7 97.1,188.0 109.4,194.2 121.8,202.7 134.1,198.8 146.5,193.1 158.8,195.8 171.2,201.2 183.5,195.7 195.9,193.6 208.2,197.3 220.6,183.3 232.9,198.4 245.3,193.5 257.6,200.8 270.0,201.2 282.4,184.1 294.7,194.7 307.1,171.9 319.4,200.2 331.8,202.6 344.1,192.6 356.5,190.9 368.8,193.9 381.2,195.4 393.5,193.3 405.9,200.6 418.2,196.9 430.6,193.7 442.9,198.9 455.3,202.5 467.6,184.0 480.0,198.5"/><circle cx="60.0" cy="190.1" r="3" fill="#9C27B0"/><circle cx="72.4" cy="198.8" r="3" fill="#9C27B0"/><circle cx="84.7" cy="201.7" r="3" fill="#9C27B0"/><circle cx="97.1" cy="188.0" r="3" fill="#9C27B0"/><circle cx="109.4" cy="194.2" r="3" fill="#9C27B0"/><circle cx="121.8" cy="202.7" r="3" fill="#9C27B0"/><circle cx="134.1" cy="198.8" r="3" fill="#9C27B0"/><circle cx="146.5" cy="193.1" r="3" fill="#9C27B0"/><circle cx="158.8" cy="195.8" r="3" fill="#9C27B0"/><circle cx="171.2" cy="201.2" r="3" fill="#9C27B0"/><circle cx="183.5" cy="195.7" r="3" fill="#9C27B0"/><circle cx="195.9" cy="193.6" r="3" fill="#9C27B0"/><circle cx="208.2" cy="197.3" r="3" fill="#9C27B0"/><circle cx="220.6" cy="183.3" r="3" fill="#9C27B0"/><circle cx="232.9" cy="198.4" r="3" fill="#9C27B0"/><circle cx="245.3" cy="193.5" r="3" fill="#9C27B0"/><circle cx="257.6" cy="200.8" r="3" fill="#9C27B0"/><circle cx="270.0" cy="201.2" r="3" fill="#9C27B0"/><circle cx="282.4" cy="184.1" r="3" fill="#9C27B0"/><circle cx="294.7" cy="194.7" r="3" fill="#9C27B0"/><circle cx="307.1" cy="171.9" r="3" fill="#9C27B0"/><circle cx="319.4" cy="200.2" r="3" fill="#9C27B0"/><circle cx="331.8" cy="202.6" r="3" fill="#9C27B0"/><circle cx="344.1" cy="192.6" r="3" fill="#9C27B0"/><circle cx="356.5" cy="190.9" r="3" fill="#9C27B0"/><circle cx="368.8" cy="193.9" r="3" fill="#9C27B0"/><circle cx="381.2" cy="195.4" r="3" fill="#9C27B0"/><circle cx="393.5" cy="193.3" r="3" fill="#9C27B0"/><circle cx="405.9" cy="200.6" r="3" fill="#9C27B0"/><circle cx="418.2" cy="196.9" r="3" fill="#9C27B0"/><circle cx="430.6" cy="193.7" r="3" fill="#9C27B0"/><circle cx="442.9" cy="198.9" r="3" fill="#9C27B0"/><circle cx="455.3" cy="202.5" r="3" fill="#9C27B0"/><circle cx="467.6" cy="184.0" r="3" fill="#9C27B0"/><circle cx="480.0" cy="198.5" r="3" fill="#9C27B0"/><rect x="490" y="116" width="10" height="10" fill="#9C27B0"/><text x="504" y="125" font-family="system-ui, -apple-system, sans-serif" font-size="10" fill="#333">llama</text><polyline fill="none" stroke="#00BCD4" stroke-width="2" points="158.8,239.2 171.2,239.3 183.5,239.8 195.9,238.8 208.2,239.0 220.6,234.2 232.9,240.0 245.3,237.9 257.6,237.9 270.0,237.6 282.4,238.9 294.7,237.9 307.1,235.2 319.4,238.1 331.8,235.5 344.1,240.0 356.5,238.2 368.8,235.2 381.2,232.9 393.5,238.2 405.9,237.3 418.2,239.5 430.6,236.5 442.9,233.9 455.3,238.7 467.6,237.8 480.0,238.5"/><circle cx="158.8" cy="239.2" r="3" fill="#00BCD4"/><circle cx="171.2" cy="239.3" r="3" fill="#00BCD4"/><circle cx="183.5" cy="239.8" r="3" fill="#00BCD4"/><circle cx="195.9" cy="238.8" r="3" fill="#00BCD4"/><circle cx="208.2" cy="239.0" r="3" fill="#00BCD4"/><circle cx="220.6" cy="234.2" r="3" fill="#00BCD4"/><circle cx="232.9" cy="240.0" r="3" fill="#00BCD4"/><circle cx="245.3" cy="237.9" r="3" fill="#00BCD4"/><circle cx="257.6" cy="237.9" r="3" fill="#00BCD4"/><circle cx="270.0" cy="237.6" r="3" fill="#00BCD4"/><circle cx="282.4" cy="238.9" r="3" fill="#00BCD4"/><circle cx="294.7" cy="237.9" r="3" fill="#00BCD4"/><circle cx="307.1" cy="235.2" r="3" fill="#00BCD4"/><circle cx="319.4" cy="238.1" r="3" fill="#00BCD4"/><circle cx="331.8" cy="235.5" r="3" fill="#00BCD4"/><circle cx="344.1" cy="240.0" r="3" fill="#00BCD4"/><circle cx="356.5" cy="238.2" r="3" fill="#00BCD4"/><circle cx="368.8" cy="235.2" r="3" fill="#00BCD4"/><circle cx="381.2" cy="232.9" r="3" fill="#00BCD4"/><circle cx="393.5" cy="238.2" r="3" fill="#00BCD4"/><circle cx="405.9" cy="237.3" r="3" fill="#00BCD4"/><circle cx="418.2" cy="239.5" r="3" fill="#00BCD4"/><circle cx="430.6" cy="236.5" r="3" fill="#00BCD4"/><circle cx="442.9" cy="233.9" r="3" fill="#00BCD4"/><circle cx="455.3" cy="238.7" r="3" fill="#00BCD4"/><circle cx="467.6" cy="237.8" r="3" fill="#00BCD4"/><circle cx="480.0" cy="238.5" r="3" fill="#00BCD4"/><rect x="490" y="134" width="10" height="10" fill="#00BCD4"/><text x="504" y="143" font-family="system-ui, -apple-system, sans-serif" font-size="10" fill="#333">deepseek</text><text x="60.0" y="256.0" text-anchor="middle" font-family="system-ui, -apple-system, sans-serif" font-size="9" fill="#666">71825113</text><text x="97.1" y="256.0" text-anchor="middle" font-family="system-ui, -apple-system, sans-serif" font-size="9" fill="#666">97386462</text><text x="134.1" y="256.0" text-anchor="middle" font-family="system-ui, -apple-system, sans-serif" font-size="9" fill="#666">31919473</text><text x="171.2" y="256.0" text-anchor="middle" font-family="system-ui, -apple-system, sans-serif" font-size="9" fill="#666">51938981</text><text x="208.2" y="256.0" text-anchor="middle" font-family="system-ui, -apple-system, sans-serif" font-size="9" fill="#666">73723278</text><text x="245.3" y="256.0" text-anchor="middle" font-family="system-ui, -apple-system, sans-serif" font-size="9" fill="#666">75757458</text><text x="282.4" y="256.0" text-anchor="middle" font-family="system-ui, -apple-system, sans-serif" font-size="9" fill="#666">39719442</text><text x="319.4" y="256.0" text-anchor="middle" font-family="system-ui, -apple-system, sans-serif" font-size="9" fill="#666">04094958</text><text x="356.5" y="256.0" text-anchor="middle" font-family="system-ui, -apple-system, sans-serif" font-size="9" fill="#666">34092480</text><text x="393.5" y="256.0" text-anchor="middle" font-family="system-ui, -apple-system, sans-serif" font-size="9" fill="#666">68748512</text><text x="430.6" y="256.0" text-anchor="middle" font-family="system-ui, -apple-system, sans-serif" font-size="9" fill="#666">00682223</text><text x="467.6" y="256.0" text-anchor="middle" font-family="system-ui, -apple-system, sans-serif" font-size="9" fill="#666">62366017</text></svg>
