<svg xmlns="http://www.w3.org/2000/svg" viewBox="0 0 760 348" width="760" height="348" role="img" aria-label="Cost per test by provider over runs — mistral highest, deepseek lowest" font-family="-apple-system,BlinkMacSystemFont,'Segoe UI',system-ui,sans-serif"><line x1="56" y1="306" x2="642" y2="306" stroke="#d8dee4" stroke-width="1"></line><text x="46" y="310" font-size="9.5" font-weight="400" text-anchor="end" fill="#656d76" font-family="ui-monospace,SFMono-Regular,Menlo,monospace">$0.000</text><line x1="56" y1="235" x2="642" y2="235" stroke="#d8dee4" stroke-width="1"></line><text x="46" y="239" font-size="9.5" font-weight="400" text-anchor="end" fill="#656d76" font-family="ui-monospace,SFMono-Regular,Menlo,monospace">$0.039</text><line x1="56" y1="164" x2="642" y2="164" stroke="#d8dee4" stroke-width="1"></line><text x="46" y="168" font-size="9.5" font-weight="400" text-anchor="end" fill="#656d76" font-family="ui-monospace,SFMono-Regular,Menlo,monospace">$0.079</text><line x1="56" y1="93" x2="642" y2="93" stroke="#d8dee4" stroke-width="1"></line><text x="46" y="97" font-size="9.5" font-weight="400" text-anchor="end" fill="#656d76" font-family="ui-monospace,SFMono-Regular,Menlo,monospace">$0.118</text><line x1="56" y1="22" x2="642" y2="22" stroke="#d8dee4" stroke-width="1"></line><text x="46" y="26" font-size="9.5" font-weight="400" text-anchor="end" fill="#656d76" font-family="ui-monospace,SFMono-Regular,Menlo,monospace">$0.158</text><text x="56" y="324" font-size="9.5" font-weight="400" text-anchor="middle" fill="#656d76" font-family="ui-monospace,SFMono-Regular,Menlo,monospace">06/06</text><text x="107.28" y="324" font-size="9.5" font-weight="400" text-anchor="middle" fill="#656d76" font-family="ui-monospace,SFMono-Regular,Menlo,monospace">06/08</text><text x="158.55" y="324" font-size="9.5" font-weight="400" text-anchor="middle" fill="#656d76" font-family="ui-monospace,SFMono-Regular,Menlo,monospace">06/09</text><text x="209.83" y="324" font-size="9.5" font-weight="400" text-anchor="middle" fill="#656d76" font-family="ui-monospace,SFMono-Regular,Menlo,monospace">06/10</text><text x="261.1" y="324" font-size="9.5" font-weight="400" text-anchor="middle" fill="#656d76" font-family="ui-monospace,SFMono-Regular,Menlo,monospace">06/14</text><text x="312.38" y="324" font-size="9.5" font-weight="400" text-anchor="middle" fill="#656d76" font-family="ui-monospace,SFMono-Regular,Menlo,monospace">06/15</text><text x="363.65" y="324" font-size="9.5" font-weight="400" text-anchor="middle" fill="#656d76" font-family="ui-monospace,SFMono-Regular,Menlo,monospace">06/16</text><text x="414.93" y="324" font-size="9.5" font-weight="400" text-anchor="middle" fill="#656d76" font-family="ui-monospace,SFMono-Regular,Menlo,monospace">06/18</text><text x="466.2" y="324" font-size="9.5" font-weight="400" text-anchor="middle" fill="#656d76" font-family="ui-monospace,SFMono-Regular,Menlo,monospace">06/20</text><text x="517.47" y="324" font-size="9.5" font-weight="400" text-anchor="middle" fill="#656d76" font-family="ui-monospace,SFMono-Regular,Menlo,monospace">06/22</text><text x="568.75" y="324" font-size="9.5" font-weight="400" text-anchor="middle" fill="#656d76" font-family="ui-monospace,SFMono-Regular,Menlo,monospace">06/23</text><text x="620.02" y="324" font-size="9.5" font-weight="400" text-anchor="middle" fill="#656d76" font-family="ui-monospace,SFMono-Regular,Menlo,monospace">06/24</text><text x="642" y="324" font-size="9.5" font-weight="400" text-anchor="middle" fill="#656d76" font-family="ui-monospace,SFMono-Regular,Menlo,monospace">06/25</text><polyline fill="none" stroke="#6366F1" stroke-width="2.4" stroke-linejoin="round" stroke-linecap="round" points="114.6,291.99 121.92,292.07 129.25,292.82 136.57,291.48 143.9,291.75 151.23,285.29 158.55,293.05 165.88,290.23 173.2,290.29 180.52,289.78 187.85,291.61 195.17,290.27 202.5,286.66 209.83,290.55 217.15,286.99 224.47,293.02 231.8,290.61 239.12,286.59 246.45,283.56 253.78,290.63 261.1,289.42 268.42,292.33 275.75,288.36 283.08,284.88 290.4,291.34 297.73,290.13 305.05,291.01 312.38,289.68 327.03,289.04 334.35,291.5 341.68,291.97 349,289.14 356.32,289.37 363.65,290.04 370.97,290.81 378.3,291.39 385.62,292 400.28,292.33 407.6,292.51 414.93,290.75 422.25,289.5 429.57,289.4 436.9,282.59 444.22,289.91 451.55,286.79 458.88,288.79 466.2,286.98 473.53,290.22 480.85,291.94 488.18,292.7 495.5,281.08 502.82,292.31 510.15,290.28 517.47,286.5 524.8,289 532.12,289.95 539.45,291.41 546.78,290.81 554.1,291 561.42,290.42 568.75,289.99 576.07,284.38 583.4,292.31 590.73,291.62 598.05,287.31 605.38,291.89 612.7,292.21 620.02,288.97 627.35,292.99 634.68,292.75 642,290.59"></polyline><circle cx="114.6" cy="291.99" r="2.6" fill="#6366F1"></circle><circle cx="121.92" cy="292.07" r="2.6" fill="#6366F1"></circle><circle cx="129.25" cy="292.82" r="2.6" fill="#6366F1"></circle><circle cx="136.57" cy="291.48" r="2.6" fill="#6366F1"></circle><circle cx="143.9" cy="291.75" r="2.6" fill="#6366F1"></circle><circle cx="151.23" cy="285.29" r="2.6" fill="#6366F1"></circle><circle cx="158.55" cy="293.05" r="2.6" fill="#6366F1"></circle><circle cx="165.88" cy="290.23" r="2.6" fill="#6366F1"></circle><circle cx="173.2" cy="290.29" r="2.6" fill="#6366F1"></circle><circle cx="180.52" cy="289.78" r="2.6" fill="#6366F1"></circle><circle cx="187.85" cy="291.61" r="2.6" fill="#6366F1"></circle><circle cx="195.17" cy="290.27" r="2.6" fill="#6366F1"></circle><circle cx="202.5" cy="286.66" r="2.6" fill="#6366F1"></circle><circle cx="209.83" cy="290.55" r="2.6" fill="#6366F1"></circle><circle cx="217.15" cy="286.99" r="2.6" fill="#6366F1"></circle><circle cx="224.47" cy="293.02" r="2.6" fill="#6366F1"></circle><circle cx="231.8" cy="290.61" r="2.6" fill="#6366F1"></circle><circle cx="239.12" cy="286.59" r="2.6" fill="#6366F1"></circle><circle cx="246.45" cy="283.56" r="2.6" fill="#6366F1"></circle><circle cx="253.78" cy="290.63" r="2.6" fill="#6366F1"></circle><circle cx="261.1" cy="289.42" r="2.6" fill="#6366F1"></circle><circle cx="268.42" cy="292.33" r="2.6" fill="#6366F1"></circle><circle cx="275.75" cy="288.36" r="2.6" fill="#6366F1"></circle><circle cx="283.08" cy="284.88" r="2.6" fill="#6366F1"></circle><circle cx="290.4" cy="291.34" r="2.6" fill="#6366F1"></circle><circle cx="297.73" cy="290.13" r="2.6" fill="#6366F1"></circle><circle cx="305.05" cy="291.01" r="2.6" fill="#6366F1"></circle><circle cx="312.38" cy="289.68" r="2.6" fill="#6366F1"></circle><circle cx="327.03" cy="289.04" r="2.6" fill="#6366F1"></circle><circle cx="334.35" cy="291.5" r="2.6" fill="#6366F1"></circle><circle cx="341.68" cy="291.97" r="2.6" fill="#6366F1"></circle><circle cx="349" cy="289.14" r="2.6" fill="#6366F1"></circle><circle cx="356.32" cy="289.37" r="2.6" fill="#6366F1"></circle><circle cx="363.65" cy="290.04" r="2.6" fill="#6366F1"></circle><circle cx="370.97" cy="290.81" r="2.6" fill="#6366F1"></circle><circle cx="378.3" cy="291.39" r="2.6" fill="#6366F1"></circle><circle cx="385.62" cy="292" r="2.6" fill="#6366F1"></circle><circle cx="400.28" cy="292.33" r="2.6" fill="#6366F1"></circle><circle cx="407.6" cy="292.51" r="2.6" fill="#6366F1"></circle><circle cx="414.93" cy="290.75" r="2.6" fill="#6366F1"></circle><circle cx="422.25" cy="289.5" r="2.6" fill="#6366F1"></circle><circle cx="429.57" cy="289.4" r="2.6" fill="#6366F1"></circle><circle cx="436.9" cy="282.59" r="2.6" fill="#6366F1"></circle><circle cx="444.22" cy="289.91" r="2.6" fill="#6366F1"></circle><circle cx="451.55" cy="286.79" r="2.6" fill="#6366F1"></circle><circle cx="458.88" cy="288.79" r="2.6" fill="#6366F1"></circle><circle cx="466.2" cy="286.98" r="2.6" fill="#6366F1"></circle><circle cx="473.53" cy="290.22" r="2.6" fill="#6366F1"></circle><circle cx="480.85" cy="291.94" r="2.6" fill="#6366F1"></circle><circle cx="488.18" cy="292.7" r="2.6" fill="#6366F1"></circle><circle cx="495.5" cy="281.08" r="2.6" fill="#6366F1"></circle><circle cx="502.82" cy="292.31" r="2.6" fill="#6366F1"></circle><circle cx="510.15" cy="290.28" r="2.6" fill="#6366F1"></circle><circle cx="517.47" cy="286.5" r="2.6" fill="#6366F1"></circle><circle cx="524.8" cy="289" r="2.6" fill="#6366F1"></circle><circle cx="532.12" cy="289.95" r="2.6" fill="#6366F1"></circle><circle cx="539.45" cy="291.41" r="2.6" fill="#6366F1"></circle><circle cx="546.78" cy="290.81" r="2.6" fill="#6366F1"></circle><circle cx="554.1" cy="291" r="2.6" fill="#6366F1"></circle><circle cx="561.42" cy="290.42" r="2.6" fill="#6366F1"></circle><circle cx="568.75" cy="289.99" r="2.6" fill="#6366F1"></circle><circle cx="576.07" cy="284.38" r="2.6" fill="#6366F1"></circle><circle cx="583.4" cy="292.31" r="2.6" fill="#6366F1"></circle><circle cx="590.73" cy="291.62" r="2.6" fill="#6366F1"></circle><circle cx="598.05" cy="287.31" r="2.6" fill="#6366F1"></circle><circle cx="605.38" cy="291.89" r="2.6" fill="#6366F1"></circle><circle cx="612.7" cy="292.21" r="2.6" fill="#6366F1"></circle><circle cx="620.02" cy="288.97" r="2.6" fill="#6366F1"></circle><circle cx="627.35" cy="292.99" r="2.6" fill="#6366F1"></circle><circle cx="634.68" cy="292.75" r="2.6" fill="#6366F1"></circle><circle cx="642" cy="290.59" r="2.6" fill="#6366F1"></circle><polyline fill="none" stroke="#A371F7" stroke-width="2.4" stroke-linejoin="round" stroke-linecap="round" points="56,226.25 63.33,237.88 70.65,241.73 77.97,223.38 85.3,231.64 92.62,243.09 99.95,237.81 107.28,230.14 114.6,233.83 121.92,241.12 129.25,233.75 136.57,230.9 143.9,235.83 151.23,217.13 158.55,237.29 165.88,230.7 173.2,240.49 180.52,241.09 187.85,218.17 195.17,232.28 202.5,201.8 209.83,239.78 217.15,242.88 224.47,229.56 231.8,227.31 239.12,231.21 246.45,233.26 253.78,230.48 261.1,240.31 268.42,235.36 275.75,231.03 283.08,237.98 290.4,242.74 297.73,217.94 305.05,237.38 312.38,239.39 327.03,216.58 334.35,239.81 341.68,230.21 356.32,230.86 363.65,240.78 370.97,241.27 378.3,237.28 385.62,234.45 392.95,237.03 400.28,237.6 407.6,235.95 414.93,225.98 422.25,230.74 429.57,232.09 436.9,238.44 444.22,233.93 451.55,237.36 458.88,236.2 473.53,238.07 480.85,232.58 495.5,227.45 502.82,236.55 510.15,232.02 517.47,240.47 524.8,213.84 532.12,238.7 539.45,238.88 546.78,241.18 554.1,233.39 561.42,234.63 568.75,239.11 583.4,240.21 590.73,229.42 598.05,240.04 605.38,237.25 612.7,239.83 620.02,241.26 627.35,237.1 634.68,241.25 642,240.26"></polyline><circle cx="56" cy="226.25" r="2.6" fill="#A371F7"></circle><circle cx="63.33" cy="237.88" r="2.6" fill="#A371F7"></circle><circle cx="70.65" cy="241.73" r="2.6" fill="#A371F7"></circle><circle cx="77.97" cy="223.38" r="2.6" fill="#A371F7"></circle><circle cx="85.3" cy="231.64" r="2.6" fill="#A371F7"></circle><circle cx="92.62" cy="243.09" r="2.6" fill="#A371F7"></circle><circle cx="99.95" cy="237.81" r="2.6" fill="#A371F7"></circle><circle cx="107.28" cy="230.14" r="2.6" fill="#A371F7"></circle><circle cx="114.6" cy="233.83" r="2.6" fill="#A371F7"></circle><circle cx="121.92" cy="241.12" r="2.6" fill="#A371F7"></circle><circle cx="129.25" cy="233.75" r="2.6" fill="#A371F7"></circle><circle cx="136.57" cy="230.9" r="2.6" fill="#A371F7"></circle><circle cx="143.9" cy="235.83" r="2.6" fill="#A371F7"></circle><circle cx="151.23" cy="217.13" r="2.6" fill="#A371F7"></circle><circle cx="158.55" cy="237.29" r="2.6" fill="#A371F7"></circle><circle cx="165.88" cy="230.7" r="2.6" fill="#A371F7"></circle><circle cx="173.2" cy="240.49" r="2.6" fill="#A371F7"></circle><circle cx="180.52" cy="241.09" r="2.6" fill="#A371F7"></circle><circle cx="187.85" cy="218.17" r="2.6" fill="#A371F7"></circle><circle cx="195.17" cy="232.28" r="2.6" fill="#A371F7"></circle><circle cx="202.5" cy="201.8" r="2.6" fill="#A371F7"></circle><circle cx="209.83" cy="239.78" r="2.6" fill="#A371F7"></circle><circle cx="217.15" cy="242.88" r="2.6" fill="#A371F7"></circle><circle cx="224.47" cy="229.56" r="2.6" fill="#A371F7"></circle><circle cx="231.8" cy="227.31" r="2.6" fill="#A371F7"></circle><circle cx="239.12" cy="231.21" r="2.6" fill="#A371F7"></circle><circle cx="246.45" cy="233.26" r="2.6" fill="#A371F7"></circle><circle cx="253.78" cy="230.48" r="2.6" fill="#A371F7"></circle><circle cx="261.1" cy="240.31" r="2.6" fill="#A371F7"></circle><circle cx="268.42" cy="235.36" r="2.6" fill="#A371F7"></circle><circle cx="275.75" cy="231.03" r="2.6" fill="#A371F7"></circle><circle cx="283.08" cy="237.98" r="2.6" fill="#A371F7"></circle><circle cx="290.4" cy="242.74" r="2.6" fill="#A371F7"></circle><circle cx="297.73" cy="217.94" r="2.6" fill="#A371F7"></circle><circle cx="305.05" cy="237.38" r="2.6" fill="#A371F7"></circle><circle cx="312.38" cy="239.39" r="2.6" fill="#A371F7"></circle><circle cx="327.03" cy="216.58" r="2.6" fill="#A371F7"></circle><circle cx="334.35" cy="239.81" r="2.6" fill="#A371F7"></circle><circle cx="341.68" cy="230.21" r="2.6" fill="#A371F7"></circle><circle cx="356.32" cy="230.86" r="2.6" fill="#A371F7"></circle><circle cx="363.65" cy="240.78" r="2.6" fill="#A371F7"></circle><circle cx="370.97" cy="241.27" r="2.6" fill="#A371F7"></circle><circle cx="378.3" cy="237.28" r="2.6" fill="#A371F7"></circle><circle cx="385.62" cy="234.45" r="2.6" fill="#A371F7"></circle><circle cx="392.95" cy="237.03" r="2.6" fill="#A371F7"></circle><circle cx="400.28" cy="237.6" r="2.6" fill="#A371F7"></circle><circle cx="407.6" cy="235.95" r="2.6" fill="#A371F7"></circle><circle cx="414.93" cy="225.98" r="2.6" fill="#A371F7"></circle><circle cx="422.25" cy="230.74" r="2.6" fill="#A371F7"></circle><circle cx="429.57" cy="232.09" r="2.6" fill="#A371F7"></circle><circle cx="436.9" cy="238.44" r="2.6" fill="#A371F7"></circle><circle cx="444.22" cy="233.93" r="2.6" fill="#A371F7"></circle><circle cx="451.55" cy="237.36" r="2.6" fill="#A371F7"></circle><circle cx="458.88" cy="236.2" r="2.6" fill="#A371F7"></circle><circle cx="473.53" cy="238.07" r="2.6" fill="#A371F7"></circle><circle cx="480.85" cy="232.58" r="2.6" fill="#A371F7"></circle><circle cx="495.5" cy="227.45" r="2.6" fill="#A371F7"></circle><circle cx="502.82" cy="236.55" r="2.6" fill="#A371F7"></circle><circle cx="510.15" cy="232.02" r="2.6" fill="#A371F7"></circle><circle cx="517.47" cy="240.47" r="2.6" fill="#A371F7"></circle><circle cx="524.8" cy="213.84" r="2.6" fill="#A371F7"></circle><circle cx="532.12" cy="238.7" r="2.6" fill="#A371F7"></circle><circle cx="539.45" cy="238.88" r="2.6" fill="#A371F7"></circle><circle cx="546.78" cy="241.18" r="2.6" fill="#A371F7"></circle><circle cx="554.1" cy="233.39" r="2.6" fill="#A371F7"></circle><circle cx="561.42" cy="234.63" r="2.6" fill="#A371F7"></circle><circle cx="568.75" cy="239.11" r="2.6" fill="#A371F7"></circle><circle cx="583.4" cy="240.21" r="2.6" fill="#A371F7"></circle><circle cx="590.73" cy="229.42" r="2.6" fill="#A371F7"></circle><circle cx="598.05" cy="240.04" r="2.6" fill="#A371F7"></circle><circle cx="605.38" cy="237.25" r="2.6" fill="#A371F7"></circle><circle cx="612.7" cy="239.83" r="2.6" fill="#A371F7"></circle><circle cx="620.02" cy="241.26" r="2.6" fill="#A371F7"></circle><circle cx="627.35" cy="237.1" r="2.6" fill="#A371F7"></circle><circle cx="634.68" cy="241.25" r="2.6" fill="#A371F7"></circle><circle cx="642" cy="240.26" r="2.6" fill="#A371F7"></circle><polyline fill="none" stroke="#F0A23B" stroke-width="2.4" stroke-linejoin="round" stroke-linecap="round" points="56,162.13 63.33,151.29 70.65,72.27 77.97,170.58 85.3,165.15 92.62,168.63 99.95,155.58 107.28,155.2 114.6,151.03 121.92,159.37 129.25,151 136.57,152 143.9,154.31 151.23,162.54 158.55,145.36 165.88,160.82 173.2,153.52 180.52,158.63 187.85,172.35 195.17,162.23 202.5,168.2 209.83,164.28 217.15,98 224.47,164.92 231.8,167.19 239.12,163.76 246.45,165.84 253.78,134.6 261.1,163 268.42,144.13 275.75,165.52 283.08,134.8 290.4,167.11 297.73,166.07 305.05,54.66 312.38,77.46 319.7,164.62 327.03,166.72 334.35,166.65 341.68,162.93 349,164.9 356.32,170.21 363.65,169.23 370.97,114.96 378.3,165.27 385.62,165.44 392.95,99.36 400.28,161.79 407.6,138.56 414.93,167.81 422.25,164.51 429.57,164.55 436.9,135.11 444.22,119.1 451.55,168.6 458.88,167.03 466.2,169.7 473.53,164.27 480.85,168.02 488.18,163.89 495.5,99.72 502.82,166.55 510.15,163.57 517.47,163.91 524.8,164.36 532.12,166.86 539.45,166.95 546.78,52.43 554.1,166.52 561.42,165.82 568.75,164.59 583.4,164.21 590.73,164.24 598.05,161.69 605.38,156.02 612.7,164.92 620.02,166.5 627.35,158.67 634.68,169.13 642,164.89"></polyline><circle cx="56" cy="162.13" r="2.6" fill="#F0A23B"></circle><circle cx="63.33" cy="151.29" r="2.6" fill="#F0A23B"></circle><circle cx="70.65" cy="72.27" r="2.6" fill="#F0A23B"></circle><circle cx="77.97" cy="170.58" r="2.6" fill="#F0A23B"></circle><circle cx="85.3" cy="165.15" r="2.6" fill="#F0A23B"></circle><circle cx="92.62" cy="168.63" r="2.6" fill="#F0A23B"></circle><circle cx="99.95" cy="155.58" r="2.6" fill="#F0A23B"></circle><circle cx="107.28" cy="155.2" r="2.6" fill="#F0A23B"></circle><circle cx="114.6" cy="151.03" r="2.6" fill="#F0A23B"></circle><circle cx="121.92" cy="159.37" r="2.6" fill="#F0A23B"></circle><circle cx="129.25" cy="151" r="2.6" fill="#F0A23B"></circle><circle cx="136.57" cy="152" r="2.6" fill="#F0A23B"></circle><circle cx="143.9" cy="154.31" r="2.6" fill="#F0A23B"></circle><circle cx="151.23" cy="162.54" r="2.6" fill="#F0A23B"></circle><circle cx="158.55" cy="145.36" r="2.6" fill="#F0A23B"></circle><circle cx="165.88" cy="160.82" r="2.6" fill="#F0A23B"></circle><circle cx="173.2" cy="153.52" r="2.6" fill="#F0A23B"></circle><circle cx="180.52" cy="158.63" r="2.6" fill="#F0A23B"></circle><circle cx="187.85" cy="172.35" r="2.6" fill="#F0A23B"></circle><circle cx="195.17" cy="162.23" r="2.6" fill="#F0A23B"></circle><circle cx="202.5" cy="168.2" r="2.6" fill="#F0A23B"></circle><circle cx="209.83" cy="164.28" r="2.6" fill="#F0A23B"></circle><circle cx="217.15" cy="98" r="2.6" fill="#F0A23B"></circle><circle cx="224.47" cy="164.92" r="2.6" fill="#F0A23B"></circle><circle cx="231.8" cy="167.19" r="2.6" fill="#F0A23B"></circle><circle cx="239.12" cy="163.76" r="2.6" fill="#F0A23B"></circle><circle cx="246.45" cy="165.84" r="2.6" fill="#F0A23B"></circle><circle cx="253.78" cy="134.6" r="2.6" fill="#F0A23B"></circle><circle cx="261.1" cy="163" r="2.6" fill="#F0A23B"></circle><circle cx="268.42" cy="144.13" r="2.6" fill="#F0A23B"></circle><circle cx="275.75" cy="165.52" r="2.6" fill="#F0A23B"></circle><circle cx="283.08" cy="134.8" r="2.6" fill="#F0A23B"></circle><circle cx="290.4" cy="167.11" r="2.6" fill="#F0A23B"></circle><circle cx="297.73" cy="166.07" r="2.6" fill="#F0A23B"></circle><circle cx="305.05" cy="54.66" r="2.6" fill="#F0A23B"></circle><circle cx="312.38" cy="77.46" r="2.6" fill="#F0A23B"></circle><circle cx="319.7" cy="164.62" r="2.6" fill="#F0A23B"></circle><circle cx="327.03" cy="166.72" r="2.6" fill="#F0A23B"></circle><circle cx="334.35" cy="166.65" r="2.6" fill="#F0A23B"></circle><circle cx="341.68" cy="162.93" r="2.6" fill="#F0A23B"></circle><circle cx="349" cy="164.9" r="2.6" fill="#F0A23B"></circle><circle cx="356.32" cy="170.21" r="2.6" fill="#F0A23B"></circle><circle cx="363.65" cy="169.23" r="2.6" fill="#F0A23B"></circle><circle cx="370.97" cy="114.96" r="2.6" fill="#F0A23B"></circle><circle cx="378.3" cy="165.27" r="2.6" fill="#F0A23B"></circle><circle cx="385.62" cy="165.44" r="2.6" fill="#F0A23B"></circle><circle cx="392.95" cy="99.36" r="2.6" fill="#F0A23B"></circle><circle cx="400.28" cy="161.79" r="2.6" fill="#F0A23B"></circle><circle cx="407.6" cy="138.56" r="2.6" fill="#F0A23B"></circle><circle cx="414.93" cy="167.81" r="2.6" fill="#F0A23B"></circle><circle cx="422.25" cy="164.51" r="2.6" fill="#F0A23B"></circle><circle cx="429.57" cy="164.55" r="2.6" fill="#F0A23B"></circle><circle cx="436.9" cy="135.11" r="2.6" fill="#F0A23B"></circle><circle cx="444.22" cy="119.1" r="2.6" fill="#F0A23B"></circle><circle cx="451.55" cy="168.6" r="2.6" fill="#F0A23B"></circle><circle cx="458.88" cy="167.03" r="2.6" fill="#F0A23B"></circle><circle cx="466.2" cy="169.7" r="2.6" fill="#F0A23B"></circle><circle cx="473.53" cy="164.27" r="2.6" fill="#F0A23B"></circle><circle cx="480.85" cy="168.02" r="2.6" fill="#F0A23B"></circle><circle cx="488.18" cy="163.89" r="2.6" fill="#F0A23B"></circle><circle cx="495.5" cy="99.72" r="2.6" fill="#F0A23B"></circle><circle cx="502.82" cy="166.55" r="2.6" fill="#F0A23B"></circle><circle cx="510.15" cy="163.57" r="2.6" fill="#F0A23B"></circle><circle cx="517.47" cy="163.91" r="2.6" fill="#F0A23B"></circle><circle cx="524.8" cy="164.36" r="2.6" fill="#F0A23B"></circle><circle cx="532.12" cy="166.86" r="2.6" fill="#F0A23B"></circle><circle cx="539.45" cy="166.95" r="2.6" fill="#F0A23B"></circle><circle cx="546.78" cy="52.43" r="2.6" fill="#F0A23B"></circle><circle cx="554.1" cy="166.52" r="2.6" fill="#F0A23B"></circle><circle cx="561.42" cy="165.82" r="2.6" fill="#F0A23B"></circle><circle cx="568.75" cy="164.59" r="2.6" fill="#F0A23B"></circle><circle cx="583.4" cy="164.21" r="2.6" fill="#F0A23B"></circle><circle cx="590.73" cy="164.24" r="2.6" fill="#F0A23B"></circle><circle cx="598.05" cy="161.69" r="2.6" fill="#F0A23B"></circle><circle cx="605.38" cy="156.02" r="2.6" fill="#F0A23B"></circle><circle cx="612.7" cy="164.92" r="2.6" fill="#F0A23B"></circle><circle cx="620.02" cy="166.5" r="2.6" fill="#F0A23B"></circle><circle cx="627.35" cy="158.67" r="2.6" fill="#F0A23B"></circle><circle cx="634.68" cy="169.13" r="2.6" fill="#F0A23B"></circle><circle cx="642" cy="164.89" r="2.6" fill="#F0A23B"></circle><line x1="656" y1="27" x2="672" y2="27" stroke="#6366F1" stroke-width="3" stroke-linecap="round"></line><text x="678" y="30" font-size="11" font-weight="400" text-anchor="start" fill="#1f2328">deepseek</text><line x1="656" y1="47" x2="672" y2="47" stroke="#A371F7" stroke-width="3" stroke-linecap="round"></line><text x="678" y="50" font-size="11" font-weight="400" text-anchor="start" fill="#1f2328">llama</text><line x1="656" y1="67" x2="672" y2="67" stroke="#F0A23B" stroke-width="3" stroke-linecap="round"></line><text x="678" y="70" font-size="11" font-weight="400" text-anchor="start" fill="#1f2328">mistral</text></svg>
