<svg xmlns="http://www.w3.org/2000/svg" viewBox="0 0 600 300" width="600" height="300" role="img" aria-label="Cost per test by provider over runs ($)"><text x="300.0" y="24" text-anchor="middle" font-family="system-ui, -apple-system, sans-serif" font-size="14" font-weight="600" fill="#333">Cost per test by provider over runs ($)</text><line x1="60" y1="240.0" x2="480" y2="240.0" stroke="#eee" stroke-width="1"/><text x="54" y="244.0" text-anchor="end" font-family="system-ui, -apple-system, sans-serif" font-size="9" fill="#999">0.007197</text><line x1="60" y1="140.0" x2="480" y2="140.0" stroke="#eee" stroke-width="1"/><text x="54" y="144.0" text-anchor="end" font-family="system-ui, -apple-system, sans-serif" font-size="9" fill="#999">0.08167</text><line x1="60" y1="40.0" x2="480" y2="40.0" stroke="#eee" stroke-width="1"/><text x="54" y="44.0" text-anchor="end" font-family="system-ui, -apple-system, sans-serif" font-size="9" fill="#999">0.1561</text><polyline fill="none" stroke="#4CAF50" stroke-width="2" points="60.0,141.8 74.5,142.3 89.0,106.4 103.4,144.1 117.9,138.9 132.4,140.8 146.9,140.9 161.4,137.9 175.9,140.5 190.3,140.1 204.8,80.0 219.3,136.1 233.8,140.2 248.3,140.5 262.8,135.0 277.2,93.8 291.7,133.9 306.2,140.6 320.7,113.7 335.2,136.4 349.7,134.8 364.1,140.9 378.6,121.5 393.1,138.0 407.6,40.0 422.1,126.7 436.6,138.5 451.0,109.3 465.5,137.0 480.0,84.7"/><circle cx="60.0" cy="141.8" r="3" fill="#4CAF50"/><circle cx="74.5" cy="142.3" r="3" fill="#4CAF50"/><circle cx="89.0" cy="106.4" r="3" fill="#4CAF50"/><circle cx="103.4" cy="144.1" r="3" fill="#4CAF50"/><circle cx="117.9" cy="138.9" r="3" fill="#4CAF50"/><circle cx="132.4" cy="140.8" r="3" fill="#4CAF50"/><circle cx="146.9" cy="140.9" r="3" fill="#4CAF50"/><circle cx="161.4" cy="137.9" r="3" fill="#4CAF50"/><circle cx="175.9" cy="140.5" r="3" fill="#4CAF50"/><circle cx="190.3" cy="140.1" r="3" fill="#4CAF50"/><circle cx="204.8" cy="80.0" r="3" fill="#4CAF50"/><circle cx="219.3" cy="136.1" r="3" fill="#4CAF50"/><circle cx="233.8" cy="140.2" r="3" fill="#4CAF50"/><circle cx="248.3" cy="140.5" r="3" fill="#4CAF50"/><circle cx="262.8" cy="135.0" r="3" fill="#4CAF50"/><circle cx="277.2" cy="93.8" r="3" fill="#4CAF50"/><circle cx="291.7" cy="133.9" r="3" fill="#4CAF50"/><circle cx="306.2" cy="140.6" r="3" fill="#4CAF50"/><circle cx="320.7" cy="113.7" r="3" fill="#4CAF50"/><circle cx="335.2" cy="136.4" r="3" fill="#4CAF50"/><circle cx="349.7" cy="134.8" r="3" fill="#4CAF50"/><circle cx="364.1" cy="140.9" r="3" fill="#4CAF50"/><circle cx="378.6" cy="121.5" r="3" fill="#4CAF50"/><circle cx="393.1" cy="138.0" r="3" fill="#4CAF50"/><circle cx="407.6" cy="40.0" r="3" fill="#4CAF50"/><circle cx="422.1" cy="126.7" r="3" fill="#4CAF50"/><circle cx="436.6" cy="138.5" r="3" fill="#4CAF50"/><circle cx="451.0" cy="109.3" r="3" fill="#4CAF50"/><circle cx="465.5" cy="137.0" r="3" fill="#4CAF50"/><circle cx="480.0" cy="84.7" r="3" fill="#4CAF50"/><rect x="490" y="44" width="10" height="10" fill="#4CAF50"/><text x="504" y="53" font-family="system-ui, -apple-system, sans-serif" font-size="10" fill="#333">openai</text><polyline fill="none" stroke="#2196F3" stroke-width="2" points="60.0,143.4 74.5,149.4 89.0,143.1 103.4,145.8 117.9,151.8 132.4,139.6 146.9,145.6 161.4,141.5 175.9,141.5 190.3,140.7 204.8,142.6 219.3,153.3 233.8,152.2 248.3,146.8 262.8,141.9 277.2,142.2 291.7,116.6 306.2,142.0 320.7,114.7 335.2,122.7 349.7,135.5 364.1,130.6 378.6,145.2 393.1,124.2 407.6,141.8 422.1,137.0 436.6,134.1 451.0,136.4"/><circle cx="60.0" cy="143.4" r="3" fill="#2196F3"/><circle cx="74.5" cy="149.4" r="3" fill="#2196F3"/><circle cx="89.0" cy="143.1" r="3" fill="#2196F3"/><circle cx="103.4" cy="145.8" r="3" fill="#2196F3"/><circle cx="117.9" cy="151.8" r="3" fill="#2196F3"/><circle cx="132.4" cy="139.6" r="3" fill="#2196F3"/><circle cx="146.9" cy="145.6" r="3" fill="#2196F3"/><circle cx="161.4" cy="141.5" r="3" fill="#2196F3"/><circle cx="175.9" cy="141.5" r="3" fill="#2196F3"/><circle cx="190.3" cy="140.7" r="3" fill="#2196F3"/><circle cx="204.8" cy="142.6" r="3" fill="#2196F3"/><circle cx="219.3" cy="153.3" r="3" fill="#2196F3"/><circle cx="233.8" cy="152.2" r="3" fill="#2196F3"/><circle cx="248.3" cy="146.8" r="3" fill="#2196F3"/><circle cx="262.8" cy="141.9" r="3" fill="#2196F3"/><circle cx="277.2" cy="142.2" r="3" fill="#2196F3"/><circle cx="291.7" cy="116.6" r="3" fill="#2196F3"/><circle cx="306.2" cy="142.0" r="3" fill="#2196F3"/><circle cx="320.7" cy="114.7" r="3" fill="#2196F3"/><circle cx="335.2" cy="122.7" r="3" fill="#2196F3"/><circle cx="349.7" cy="135.5" r="3" fill="#2196F3"/><circle cx="364.1" cy="130.6" r="3" fill="#2196F3"/><circle cx="378.6" cy="145.2" r="3" fill="#2196F3"/><circle cx="393.1" cy="124.2" r="3" fill="#2196F3"/><circle cx="407.6" cy="141.8" r="3" fill="#2196F3"/><circle cx="422.1" cy="137.0" r="3" fill="#2196F3"/><circle cx="436.6" cy="134.1" r="3" fill="#2196F3"/><circle cx="451.0" cy="136.4" r="3" fill="#2196F3"/><rect x="490" y="62" width="10" height="10" fill="#2196F3"/><text x="504" y="71" font-family="system-ui, -apple-system, sans-serif" font-size="10" fill="#333">gemini</text><polyline fill="none" stroke="#FF9800" stroke-width="2" points="60.0,102.1 74.5,121.1 89.0,125.3 103.4,97.5 117.9,120.5 132.4,80.6 146.9,115.2 161.4,101.9 175.9,109.2 190.3,118.7 204.8,125.8 219.3,114.2 233.8,107.2 248.3,139.1 262.8,123.1 277.2,120.9 291.7,110.3 320.7,112.2 335.2,124.4 349.7,98.5 364.1,127.8 378.6,122.4 393.1,111.2 407.6,121.0 422.1,123.4 436.6,129.2 451.0,122.2 465.5,135.4 480.0,124.0"/><circle cx="60.0" cy="102.1" r="3" fill="#FF9800"/><circle cx="74.5" cy="121.1" r="3" fill="#FF9800"/><circle cx="89.0" cy="125.3" r="3" fill="#FF9800"/><circle cx="103.4" cy="97.5" r="3" fill="#FF9800"/><circle cx="117.9" cy="120.5" r="3" fill="#FF9800"/><circle cx="132.4" cy="80.6" r="3" fill="#FF9800"/><circle cx="146.9" cy="115.2" r="3" fill="#FF9800"/><circle cx="161.4" cy="101.9" r="3" fill="#FF9800"/><circle cx="175.9" cy="109.2" r="3" fill="#FF9800"/><circle cx="190.3" cy="118.7" r="3" fill="#FF9800"/><circle cx="204.8" cy="125.8" r="3" fill="#FF9800"/><circle cx="219.3" cy="114.2" r="3" fill="#FF9800"/><circle cx="233.8" cy="107.2" r="3" fill="#FF9800"/><circle cx="248.3" cy="139.1" r="3" fill="#FF9800"/><circle cx="262.8" cy="123.1" r="3" fill="#FF9800"/><circle cx="277.2" cy="120.9" r="3" fill="#FF9800"/><circle cx="291.7" cy="110.3" r="3" fill="#FF9800"/><circle cx="320.7" cy="112.2" r="3" fill="#FF9800"/><circle cx="335.2" cy="124.4" r="3" fill="#FF9800"/><circle cx="349.7" cy="98.5" r="3" fill="#FF9800"/><circle cx="364.1" cy="127.8" r="3" fill="#FF9800"/><circle cx="378.6" cy="122.4" r="3" fill="#FF9800"/><circle cx="393.1" cy="111.2" r="3" fill="#FF9800"/><circle cx="407.6" cy="121.0" r="3" fill="#FF9800"/><circle cx="422.1" cy="123.4" r="3" fill="#FF9800"/><circle cx="436.6" cy="129.2" r="3" fill="#FF9800"/><circle cx="451.0" cy="122.2" r="3" fill="#FF9800"/><circle cx="465.5" cy="135.4" r="3" fill="#FF9800"/><circle cx="480.0" cy="124.0" r="3" fill="#FF9800"/><rect x="490" y="80" width="10" height="10" fill="#FF9800"/><text x="504" y="89" font-family="system-ui, -apple-system, sans-serif" font-size="10" fill="#333">anthropic</text><polyline fill="none" stroke="#E91E63" stroke-width="2" points="60.0,142.3 74.5,134.2 89.0,75.2 103.4,148.6 117.9,144.6 132.4,147.1 146.9,137.4 161.4,137.1 175.9,134.0 190.3,140.2 204.8,134.0 219.3,134.7 233.8,136.5 248.3,142.6 262.8,129.8 277.2,141.3 291.7,135.9 306.2,139.7 320.7,149.9 335.2,142.4 349.7,146.8 364.1,143.9 378.6,94.4 393.1,144.4 407.6,146.1 422.1,143.5 436.6,145.1 451.0,121.8 465.5,142.9 480.0,128.9"/><circle cx="60.0" cy="142.3" r="3" fill="#E91E63"/><circle cx="74.5" cy="134.2" r="3" fill="#E91E63"/><circle cx="89.0" cy="75.2" r="3" fill="#E91E63"/><circle cx="103.4" cy="148.6" r="3" fill="#E91E63"/><circle cx="117.9" cy="144.6" r="3" fill="#E91E63"/><circle cx="132.4" cy="147.1" r="3" fill="#E91E63"/><circle cx="146.9" cy="137.4" r="3" fill="#E91E63"/><circle cx="161.4" cy="137.1" r="3" fill="#E91E63"/><circle cx="175.9" cy="134.0" r="3" fill="#E91E63"/><circle cx="190.3" cy="140.2" r="3" fill="#E91E63"/><circle cx="204.8" cy="134.0" r="3" fill="#E91E63"/><circle cx="219.3" cy="134.7" r="3" fill="#E91E63"/><circle cx="233.8" cy="136.5" r="3" fill="#E91E63"/><circle cx="248.3" cy="142.6" r="3" fill="#E91E63"/><circle cx="262.8" cy="129.8" r="3" fill="#E91E63"/><circle cx="277.2" cy="141.3" r="3" fill="#E91E63"/><circle cx="291.7" cy="135.9" r="3" fill="#E91E63"/><circle cx="306.2" cy="139.7" r="3" fill="#E91E63"/><circle cx="320.7" cy="149.9" r="3" fill="#E91E63"/><circle cx="335.2" cy="142.4" r="3" fill="#E91E63"/><circle cx="349.7" cy="146.8" r="3" fill="#E91E63"/><circle cx="364.1" cy="143.9" r="3" fill="#E91E63"/><circle cx="378.6" cy="94.4" r="3" fill="#E91E63"/><circle cx="393.1" cy="144.4" r="3" fill="#E91E63"/><circle cx="407.6" cy="146.1" r="3" fill="#E91E63"/><circle cx="422.1" cy="143.5" r="3" fill="#E91E63"/><circle cx="436.6" cy="145.1" r="3" fill="#E91E63"/><circle cx="451.0" cy="121.8" r="3" fill="#E91E63"/><circle cx="465.5" cy="142.9" r="3" fill="#E91E63"/><circle cx="480.0" cy="128.9" r="3" fill="#E91E63"/><rect x="490" y="98" width="10" height="10" fill="#E91E63"/><text x="504" y="107" font-family="system-ui, -apple-system, sans-serif" font-size="10" fill="#333">mistral</text><polyline fill="none" stroke="#9C27B0" stroke-width="2" points="60.0,190.1 74.5,198.8 89.0,201.7 103.4,188.0 117.9,194.2 132.4,202.7 146.9,198.8 161.4,193.1 175.9,195.8 190.3,201.2 204.8,195.7 219.3,193.6 233.8,197.3 248.3,183.3 262.8,198.4 277.2,193.5 291.7,200.8 306.2,201.2 320.7,184.1 335.2,194.7 349.7,171.9 364.1,200.2 378.6,202.6 393.1,192.6 407.6,190.9 422.1,193.9 436.6,195.4 451.0,193.3 465.5,200.6 480.0,196.9"/><circle cx="60.0" cy="190.1" r="3" fill="#9C27B0"/><circle cx="74.5" cy="198.8" r="3" fill="#9C27B0"/><circle cx="89.0" cy="201.7" r="3" fill="#9C27B0"/><circle cx="103.4" cy="188.0" r="3" fill="#9C27B0"/><circle cx="117.9" cy="194.2" r="3" fill="#9C27B0"/><circle cx="132.4" cy="202.7" r="3" fill="#9C27B0"/><circle cx="146.9" cy="198.8" r="3" fill="#9C27B0"/><circle cx="161.4" cy="193.1" r="3" fill="#9C27B0"/><circle cx="175.9" cy="195.8" r="3" fill="#9C27B0"/><circle cx="190.3" cy="201.2" r="3" fill="#9C27B0"/><circle cx="204.8" cy="195.7" r="3" fill="#9C27B0"/><circle cx="219.3" cy="193.6" r="3" fill="#9C27B0"/><circle cx="233.8" cy="197.3" r="3" fill="#9C27B0"/><circle cx="248.3" cy="183.3" r="3" fill="#9C27B0"/><circle cx="262.8" cy="198.4" r="3" fill="#9C27B0"/><circle cx="277.2" cy="193.5" r="3" fill="#9C27B0"/><circle cx="291.7" cy="200.8" r="3" fill="#9C27B0"/><circle cx="306.2" cy="201.2" r="3" fill="#9C27B0"/><circle cx="320.7" cy="184.1" r="3" fill="#9C27B0"/><circle cx="335.2" cy="194.7" r="3" fill="#9C27B0"/><circle cx="349.7" cy="171.9" r="3" fill="#9C27B0"/><circle cx="364.1" cy="200.2" r="3" fill="#9C27B0"/><circle cx="378.6" cy="202.6" r="3" fill="#9C27B0"/><circle cx="393.1" cy="192.6" r="3" fill="#9C27B0"/><circle cx="407.6" cy="190.9" r="3" fill="#9C27B0"/><circle cx="422.1" cy="193.9" r="3" fill="#9C27B0"/><circle cx="436.6" cy="195.4" r="3" fill="#9C27B0"/><circle cx="451.0" cy="193.3" r="3" fill="#9C27B0"/><circle cx="465.5" cy="200.6" r="3" fill="#9C27B0"/><circle cx="480.0" cy="196.9" r="3" fill="#9C27B0"/><rect x="490" y="116" width="10" height="10" fill="#9C27B0"/><text x="504" y="125" font-family="system-ui, -apple-system, sans-serif" font-size="10" fill="#333">llama</text><polyline fill="none" stroke="#00BCD4" stroke-width="2" points="175.9,239.2 190.3,239.3 204.8,239.8 219.3,238.8 233.8,239.0 248.3,234.2 262.8,240.0 277.2,237.9 291.7,237.9 306.2,237.6 320.7,238.9 335.2,237.9 349.7,235.2 364.1,238.1 378.6,235.5 393.1,240.0 407.6,238.2 422.1,235.2 436.6,232.9 451.0,238.2 465.5,237.3 480.0,239.5"/><circle cx="175.9" cy="239.2" r="3" fill="#00BCD4"/><circle cx="190.3" cy="239.3" r="3" fill="#00BCD4"/><circle cx="204.8" cy="239.8" r="3" fill="#00BCD4"/><circle cx="219.3" cy="238.8" r="3" fill="#00BCD4"/><circle cx="233.8" cy="239.0" r="3" fill="#00BCD4"/><circle cx="248.3" cy="234.2" r="3" fill="#00BCD4"/><circle cx="262.8" cy="240.0" r="3" fill="#00BCD4"/><circle cx="277.2" cy="237.9" r="3" fill="#00BCD4"/><circle cx="291.7" cy="237.9" r="3" fill="#00BCD4"/><circle cx="306.2" cy="237.6" r="3" fill="#00BCD4"/><circle cx="320.7" cy="238.9" r="3" fill="#00BCD4"/><circle cx="335.2" cy="237.9" r="3" fill="#00BCD4"/><circle cx="349.7" cy="235.2" r="3" fill="#00BCD4"/><circle cx="364.1" cy="238.1" r="3" fill="#00BCD4"/><circle cx="378.6" cy="235.5" r="3" fill="#00BCD4"/><circle cx="393.1" cy="240.0" r="3" fill="#00BCD4"/><circle cx="407.6" cy="238.2" r="3" fill="#00BCD4"/><circle cx="422.1" cy="235.2" r="3" fill="#00BCD4"/><circle cx="436.6" cy="232.9" r="3" fill="#00BCD4"/><circle cx="451.0" cy="238.2" r="3" fill="#00BCD4"/><circle cx="465.5" cy="237.3" r="3" fill="#00BCD4"/><circle cx="480.0" cy="239.5" r="3" fill="#00BCD4"/><rect x="490" y="134" width="10" height="10" fill="#00BCD4"/><text x="504" y="143" font-family="system-ui, -apple-system, sans-serif" font-size="10" fill="#333">deepseek</text><text x="60.0" y="256.0" text-anchor="middle" font-family="system-ui, -apple-system, sans-serif" font-size="9" fill="#666">71825113</text><text x="103.4" y="256.0" text-anchor="middle" font-family="system-ui, -apple-system, sans-serif" font-size="9" fill="#666">97386462</text><text x="146.9" y="256.0" text-anchor="middle" font-family="system-ui, -apple-system, sans-serif" font-size="9" fill="#666">31919473</text><text x="190.3" y="256.0" text-anchor="middle" font-family="system-ui, -apple-system, sans-serif" font-size="9" fill="#666">51938981</text><text x="233.8" y="256.0" text-anchor="middle" font-family="system-ui, -apple-system, sans-serif" font-size="9" fill="#666">73723278</text><text x="277.2" y="256.0" text-anchor="middle" font-family="system-ui, -apple-system, sans-serif" font-size="9" fill="#666">75757458</text><text x="320.7" y="256.0" text-anchor="middle" font-family="system-ui, -apple-system, sans-serif" font-size="9" fill="#666">39719442</text><text x="364.1" y="256.0" text-anchor="middle" font-family="system-ui, -apple-system, sans-serif" font-size="9" fill="#666">04094958</text><text x="407.6" y="256.0" text-anchor="middle" font-family="system-ui, -apple-system, sans-serif" font-size="9" fill="#666">34092480</text><text x="451.0" y="256.0" text-anchor="middle" font-family="system-ui, -apple-system, sans-serif" font-size="9" fill="#666">68748512</text></svg>
