<svg xmlns="http://www.w3.org/2000/svg" viewBox="0 0 760 348" width="760" height="348" role="img" aria-label="Cost per test by provider over runs — mistral highest, deepseek lowest" font-family="-apple-system,BlinkMacSystemFont,'Segoe UI',system-ui,sans-serif"><line x1="56" y1="306" x2="642" y2="306" stroke="#30363d" stroke-width="1"></line><text x="46" y="310" font-size="9.5" font-weight="400" text-anchor="end" fill="#8b949e" font-family="ui-monospace,SFMono-Regular,Menlo,monospace">$0.000</text><line x1="56" y1="235" x2="642" y2="235" stroke="#30363d" stroke-width="1"></line><text x="46" y="239" font-size="9.5" font-weight="400" text-anchor="end" fill="#8b949e" font-family="ui-monospace,SFMono-Regular,Menlo,monospace">$0.039</text><line x1="56" y1="164" x2="642" y2="164" stroke="#30363d" stroke-width="1"></line><text x="46" y="168" font-size="9.5" font-weight="400" text-anchor="end" fill="#8b949e" font-family="ui-monospace,SFMono-Regular,Menlo,monospace">$0.079</text><line x1="56" y1="93" x2="642" y2="93" stroke="#30363d" stroke-width="1"></line><text x="46" y="97" font-size="9.5" font-weight="400" text-anchor="end" fill="#8b949e" font-family="ui-monospace,SFMono-Regular,Menlo,monospace">$0.118</text><line x1="56" y1="22" x2="642" y2="22" stroke="#30363d" stroke-width="1"></line><text x="46" y="26" font-size="9.5" font-weight="400" text-anchor="end" fill="#8b949e" font-family="ui-monospace,SFMono-Regular,Menlo,monospace">$0.158</text><text x="56" y="324" font-size="9.5" font-weight="400" text-anchor="middle" fill="#8b949e" font-family="ui-monospace,SFMono-Regular,Menlo,monospace">06/06</text><text x="105.42" y="324" font-size="9.5" font-weight="400" text-anchor="middle" fill="#8b949e" font-family="ui-monospace,SFMono-Regular,Menlo,monospace">06/08</text><text x="154.84" y="324" font-size="9.5" font-weight="400" text-anchor="middle" fill="#8b949e" font-family="ui-monospace,SFMono-Regular,Menlo,monospace">06/09</text><text x="204.27" y="324" font-size="9.5" font-weight="400" text-anchor="middle" fill="#8b949e" font-family="ui-monospace,SFMono-Regular,Menlo,monospace">06/10</text><text x="253.69" y="324" font-size="9.5" font-weight="400" text-anchor="middle" fill="#8b949e" font-family="ui-monospace,SFMono-Regular,Menlo,monospace">06/14</text><text x="303.11" y="324" font-size="9.5" font-weight="400" text-anchor="middle" fill="#8b949e" font-family="ui-monospace,SFMono-Regular,Menlo,monospace">06/15</text><text x="352.53" y="324" font-size="9.5" font-weight="400" text-anchor="middle" fill="#8b949e" font-family="ui-monospace,SFMono-Regular,Menlo,monospace">06/16</text><text x="401.95" y="324" font-size="9.5" font-weight="400" text-anchor="middle" fill="#8b949e" font-family="ui-monospace,SFMono-Regular,Menlo,monospace">06/18</text><text x="451.37" y="324" font-size="9.5" font-weight="400" text-anchor="middle" fill="#8b949e" font-family="ui-monospace,SFMono-Regular,Menlo,monospace">06/20</text><text x="500.8" y="324" font-size="9.5" font-weight="400" text-anchor="middle" fill="#8b949e" font-family="ui-monospace,SFMono-Regular,Menlo,monospace">06/22</text><text x="550.22" y="324" font-size="9.5" font-weight="400" text-anchor="middle" fill="#8b949e" font-family="ui-monospace,SFMono-Regular,Menlo,monospace">06/23</text><text x="599.64" y="324" font-size="9.5" font-weight="400" text-anchor="middle" fill="#8b949e" font-family="ui-monospace,SFMono-Regular,Menlo,monospace">06/24</text><text x="642" y="324" font-size="9.5" font-weight="400" text-anchor="middle" fill="#8b949e" font-family="ui-monospace,SFMono-Regular,Menlo,monospace">06/25</text><polyline fill="none" stroke="#6366F1" stroke-width="2.4" stroke-linejoin="round" stroke-linecap="round" points="112.48,291.99 119.54,292.07 126.6,292.82 133.66,291.48 140.72,291.75 147.78,285.29 154.84,293.05 161.9,290.23 168.96,290.29 176.02,289.78 183.08,291.61 190.14,290.27 197.2,286.66 204.27,290.55 211.33,286.99 218.39,293.02 225.45,290.61 232.51,286.59 239.57,283.56 246.63,290.63 253.69,289.42 260.75,292.33 267.81,288.36 274.87,284.88 281.93,291.34 288.99,290.13 296.05,291.01 303.11,289.68 317.23,289.04 324.29,291.5 331.35,291.97 338.41,289.14 345.47,289.37 352.53,290.04 359.59,290.81 366.65,291.39 373.71,292 387.83,292.33 394.89,292.51 401.95,290.75 409.01,289.5 416.07,289.4 423.13,282.59 430.19,289.91 437.25,286.79 444.31,288.79 451.37,286.98 458.43,290.22 465.49,291.94 472.55,292.7 479.61,281.08 486.67,292.31 493.73,290.28 500.8,286.5 507.86,289 514.92,289.95 521.98,291.41 529.04,290.81 536.1,291 543.16,290.42 550.22,289.99 557.28,284.38 564.34,292.31 571.4,291.62 578.46,287.31 585.52,291.89 592.58,292.21 599.64,288.97 606.7,292.99 613.76,292.75 620.82,290.59 627.88,291.68 634.94,293.04 642,289.13"></polyline><circle cx="112.48" cy="291.99" r="2.6" fill="#6366F1"></circle><circle cx="119.54" cy="292.07" r="2.6" fill="#6366F1"></circle><circle cx="126.6" cy="292.82" r="2.6" fill="#6366F1"></circle><circle cx="133.66" cy="291.48" r="2.6" fill="#6366F1"></circle><circle cx="140.72" cy="291.75" r="2.6" fill="#6366F1"></circle><circle cx="147.78" cy="285.29" r="2.6" fill="#6366F1"></circle><circle cx="154.84" cy="293.05" r="2.6" fill="#6366F1"></circle><circle cx="161.9" cy="290.23" r="2.6" fill="#6366F1"></circle><circle cx="168.96" cy="290.29" r="2.6" fill="#6366F1"></circle><circle cx="176.02" cy="289.78" r="2.6" fill="#6366F1"></circle><circle cx="183.08" cy="291.61" r="2.6" fill="#6366F1"></circle><circle cx="190.14" cy="290.27" r="2.6" fill="#6366F1"></circle><circle cx="197.2" cy="286.66" r="2.6" fill="#6366F1"></circle><circle cx="204.27" cy="290.55" r="2.6" fill="#6366F1"></circle><circle cx="211.33" cy="286.99" r="2.6" fill="#6366F1"></circle><circle cx="218.39" cy="293.02" r="2.6" fill="#6366F1"></circle><circle cx="225.45" cy="290.61" r="2.6" fill="#6366F1"></circle><circle cx="232.51" cy="286.59" r="2.6" fill="#6366F1"></circle><circle cx="239.57" cy="283.56" r="2.6" fill="#6366F1"></circle><circle cx="246.63" cy="290.63" r="2.6" fill="#6366F1"></circle><circle cx="253.69" cy="289.42" r="2.6" fill="#6366F1"></circle><circle cx="260.75" cy="292.33" r="2.6" fill="#6366F1"></circle><circle cx="267.81" cy="288.36" r="2.6" fill="#6366F1"></circle><circle cx="274.87" cy="284.88" r="2.6" fill="#6366F1"></circle><circle cx="281.93" cy="291.34" r="2.6" fill="#6366F1"></circle><circle cx="288.99" cy="290.13" r="2.6" fill="#6366F1"></circle><circle cx="296.05" cy="291.01" r="2.6" fill="#6366F1"></circle><circle cx="303.11" cy="289.68" r="2.6" fill="#6366F1"></circle><circle cx="317.23" cy="289.04" r="2.6" fill="#6366F1"></circle><circle cx="324.29" cy="291.5" r="2.6" fill="#6366F1"></circle><circle cx="331.35" cy="291.97" r="2.6" fill="#6366F1"></circle><circle cx="338.41" cy="289.14" r="2.6" fill="#6366F1"></circle><circle cx="345.47" cy="289.37" r="2.6" fill="#6366F1"></circle><circle cx="352.53" cy="290.04" r="2.6" fill="#6366F1"></circle><circle cx="359.59" cy="290.81" r="2.6" fill="#6366F1"></circle><circle cx="366.65" cy="291.39" r="2.6" fill="#6366F1"></circle><circle cx="373.71" cy="292" r="2.6" fill="#6366F1"></circle><circle cx="387.83" cy="292.33" r="2.6" fill="#6366F1"></circle><circle cx="394.89" cy="292.51" r="2.6" fill="#6366F1"></circle><circle cx="401.95" cy="290.75" r="2.6" fill="#6366F1"></circle><circle cx="409.01" cy="289.5" r="2.6" fill="#6366F1"></circle><circle cx="416.07" cy="289.4" r="2.6" fill="#6366F1"></circle><circle cx="423.13" cy="282.59" r="2.6" fill="#6366F1"></circle><circle cx="430.19" cy="289.91" r="2.6" fill="#6366F1"></circle><circle cx="437.25" cy="286.79" r="2.6" fill="#6366F1"></circle><circle cx="444.31" cy="288.79" r="2.6" fill="#6366F1"></circle><circle cx="451.37" cy="286.98" r="2.6" fill="#6366F1"></circle><circle cx="458.43" cy="290.22" r="2.6" fill="#6366F1"></circle><circle cx="465.49" cy="291.94" r="2.6" fill="#6366F1"></circle><circle cx="472.55" cy="292.7" r="2.6" fill="#6366F1"></circle><circle cx="479.61" cy="281.08" r="2.6" fill="#6366F1"></circle><circle cx="486.67" cy="292.31" r="2.6" fill="#6366F1"></circle><circle cx="493.73" cy="290.28" r="2.6" fill="#6366F1"></circle><circle cx="500.8" cy="286.5" r="2.6" fill="#6366F1"></circle><circle cx="507.86" cy="289" r="2.6" fill="#6366F1"></circle><circle cx="514.92" cy="289.95" r="2.6" fill="#6366F1"></circle><circle cx="521.98" cy="291.41" r="2.6" fill="#6366F1"></circle><circle cx="529.04" cy="290.81" r="2.6" fill="#6366F1"></circle><circle cx="536.1" cy="291" r="2.6" fill="#6366F1"></circle><circle cx="543.16" cy="290.42" r="2.6" fill="#6366F1"></circle><circle cx="550.22" cy="289.99" r="2.6" fill="#6366F1"></circle><circle cx="557.28" cy="284.38" r="2.6" fill="#6366F1"></circle><circle cx="564.34" cy="292.31" r="2.6" fill="#6366F1"></circle><circle cx="571.4" cy="291.62" r="2.6" fill="#6366F1"></circle><circle cx="578.46" cy="287.31" r="2.6" fill="#6366F1"></circle><circle cx="585.52" cy="291.89" r="2.6" fill="#6366F1"></circle><circle cx="592.58" cy="292.21" r="2.6" fill="#6366F1"></circle><circle cx="599.64" cy="288.97" r="2.6" fill="#6366F1"></circle><circle cx="606.7" cy="292.99" r="2.6" fill="#6366F1"></circle><circle cx="613.76" cy="292.75" r="2.6" fill="#6366F1"></circle><circle cx="620.82" cy="290.59" r="2.6" fill="#6366F1"></circle><circle cx="627.88" cy="291.68" r="2.6" fill="#6366F1"></circle><circle cx="634.94" cy="293.04" r="2.6" fill="#6366F1"></circle><circle cx="642" cy="289.13" r="2.6" fill="#6366F1"></circle><polyline fill="none" stroke="#A371F7" stroke-width="2.4" stroke-linejoin="round" stroke-linecap="round" points="56,226.25 63.06,237.88 70.12,241.73 77.18,223.38 84.24,231.64 91.3,243.09 98.36,237.81 105.42,230.14 112.48,233.83 119.54,241.12 126.6,233.75 133.66,230.9 140.72,235.83 147.78,217.13 154.84,237.29 161.9,230.7 168.96,240.49 176.02,241.09 183.08,218.17 190.14,232.28 197.2,201.8 204.27,239.78 211.33,242.88 218.39,229.56 225.45,227.31 232.51,231.21 239.57,233.26 246.63,230.48 253.69,240.31 260.75,235.36 267.81,231.03 274.87,237.98 281.93,242.74 288.99,217.94 296.05,237.38 303.11,239.39 317.23,216.58 324.29,239.81 331.35,230.21 345.47,230.86 352.53,240.78 359.59,241.27 366.65,237.28 373.71,234.45 380.77,237.03 387.83,237.6 394.89,235.95 401.95,225.98 409.01,230.74 416.07,232.09 423.13,238.44 430.19,233.93 437.25,237.36 444.31,236.2 458.43,238.07 465.49,232.58 479.61,227.45 486.67,236.55 493.73,232.02 500.8,240.47 507.86,213.84 514.92,238.7 521.98,238.88 529.04,241.18 536.1,233.39 543.16,234.63 550.22,239.11 564.34,240.21 571.4,229.42 578.46,240.04 585.52,237.25 592.58,239.83 599.64,241.26 606.7,237.1 613.76,241.25 620.82,240.26 627.88,198.8 634.94,231.57 642,237.11"></polyline><circle cx="56" cy="226.25" r="2.6" fill="#A371F7"></circle><circle cx="63.06" cy="237.88" r="2.6" fill="#A371F7"></circle><circle cx="70.12" cy="241.73" r="2.6" fill="#A371F7"></circle><circle cx="77.18" cy="223.38" r="2.6" fill="#A371F7"></circle><circle cx="84.24" cy="231.64" r="2.6" fill="#A371F7"></circle><circle cx="91.3" cy="243.09" r="2.6" fill="#A371F7"></circle><circle cx="98.36" cy="237.81" r="2.6" fill="#A371F7"></circle><circle cx="105.42" cy="230.14" r="2.6" fill="#A371F7"></circle><circle cx="112.48" cy="233.83" r="2.6" fill="#A371F7"></circle><circle cx="119.54" cy="241.12" r="2.6" fill="#A371F7"></circle><circle cx="126.6" cy="233.75" r="2.6" fill="#A371F7"></circle><circle cx="133.66" cy="230.9" r="2.6" fill="#A371F7"></circle><circle cx="140.72" cy="235.83" r="2.6" fill="#A371F7"></circle><circle cx="147.78" cy="217.13" r="2.6" fill="#A371F7"></circle><circle cx="154.84" cy="237.29" r="2.6" fill="#A371F7"></circle><circle cx="161.9" cy="230.7" r="2.6" fill="#A371F7"></circle><circle cx="168.96" cy="240.49" r="2.6" fill="#A371F7"></circle><circle cx="176.02" cy="241.09" r="2.6" fill="#A371F7"></circle><circle cx="183.08" cy="218.17" r="2.6" fill="#A371F7"></circle><circle cx="190.14" cy="232.28" r="2.6" fill="#A371F7"></circle><circle cx="197.2" cy="201.8" r="2.6" fill="#A371F7"></circle><circle cx="204.27" cy="239.78" r="2.6" fill="#A371F7"></circle><circle cx="211.33" cy="242.88" r="2.6" fill="#A371F7"></circle><circle cx="218.39" cy="229.56" r="2.6" fill="#A371F7"></circle><circle cx="225.45" cy="227.31" r="2.6" fill="#A371F7"></circle><circle cx="232.51" cy="231.21" r="2.6" fill="#A371F7"></circle><circle cx="239.57" cy="233.26" r="2.6" fill="#A371F7"></circle><circle cx="246.63" cy="230.48" r="2.6" fill="#A371F7"></circle><circle cx="253.69" cy="240.31" r="2.6" fill="#A371F7"></circle><circle cx="260.75" cy="235.36" r="2.6" fill="#A371F7"></circle><circle cx="267.81" cy="231.03" r="2.6" fill="#A371F7"></circle><circle cx="274.87" cy="237.98" r="2.6" fill="#A371F7"></circle><circle cx="281.93" cy="242.74" r="2.6" fill="#A371F7"></circle><circle cx="288.99" cy="217.94" r="2.6" fill="#A371F7"></circle><circle cx="296.05" cy="237.38" r="2.6" fill="#A371F7"></circle><circle cx="303.11" cy="239.39" r="2.6" fill="#A371F7"></circle><circle cx="317.23" cy="216.58" r="2.6" fill="#A371F7"></circle><circle cx="324.29" cy="239.81" r="2.6" fill="#A371F7"></circle><circle cx="331.35" cy="230.21" r="2.6" fill="#A371F7"></circle><circle cx="345.47" cy="230.86" r="2.6" fill="#A371F7"></circle><circle cx="352.53" cy="240.78" r="2.6" fill="#A371F7"></circle><circle cx="359.59" cy="241.27" r="2.6" fill="#A371F7"></circle><circle cx="366.65" cy="237.28" r="2.6" fill="#A371F7"></circle><circle cx="373.71" cy="234.45" r="2.6" fill="#A371F7"></circle><circle cx="380.77" cy="237.03" r="2.6" fill="#A371F7"></circle><circle cx="387.83" cy="237.6" r="2.6" fill="#A371F7"></circle><circle cx="394.89" cy="235.95" r="2.6" fill="#A371F7"></circle><circle cx="401.95" cy="225.98" r="2.6" fill="#A371F7"></circle><circle cx="409.01" cy="230.74" r="2.6" fill="#A371F7"></circle><circle cx="416.07" cy="232.09" r="2.6" fill="#A371F7"></circle><circle cx="423.13" cy="238.44" r="2.6" fill="#A371F7"></circle><circle cx="430.19" cy="233.93" r="2.6" fill="#A371F7"></circle><circle cx="437.25" cy="237.36" r="2.6" fill="#A371F7"></circle><circle cx="444.31" cy="236.2" r="2.6" fill="#A371F7"></circle><circle cx="458.43" cy="238.07" r="2.6" fill="#A371F7"></circle><circle cx="465.49" cy="232.58" r="2.6" fill="#A371F7"></circle><circle cx="479.61" cy="227.45" r="2.6" fill="#A371F7"></circle><circle cx="486.67" cy="236.55" r="2.6" fill="#A371F7"></circle><circle cx="493.73" cy="232.02" r="2.6" fill="#A371F7"></circle><circle cx="500.8" cy="240.47" r="2.6" fill="#A371F7"></circle><circle cx="507.86" cy="213.84" r="2.6" fill="#A371F7"></circle><circle cx="514.92" cy="238.7" r="2.6" fill="#A371F7"></circle><circle cx="521.98" cy="238.88" r="2.6" fill="#A371F7"></circle><circle cx="529.04" cy="241.18" r="2.6" fill="#A371F7"></circle><circle cx="536.1" cy="233.39" r="2.6" fill="#A371F7"></circle><circle cx="543.16" cy="234.63" r="2.6" fill="#A371F7"></circle><circle cx="550.22" cy="239.11" r="2.6" fill="#A371F7"></circle><circle cx="564.34" cy="240.21" r="2.6" fill="#A371F7"></circle><circle cx="571.4" cy="229.42" r="2.6" fill="#A371F7"></circle><circle cx="578.46" cy="240.04" r="2.6" fill="#A371F7"></circle><circle cx="585.52" cy="237.25" r="2.6" fill="#A371F7"></circle><circle cx="592.58" cy="239.83" r="2.6" fill="#A371F7"></circle><circle cx="599.64" cy="241.26" r="2.6" fill="#A371F7"></circle><circle cx="606.7" cy="237.1" r="2.6" fill="#A371F7"></circle><circle cx="613.76" cy="241.25" r="2.6" fill="#A371F7"></circle><circle cx="620.82" cy="240.26" r="2.6" fill="#A371F7"></circle><circle cx="627.88" cy="198.8" r="2.6" fill="#A371F7"></circle><circle cx="634.94" cy="231.57" r="2.6" fill="#A371F7"></circle><circle cx="642" cy="237.11" r="2.6" fill="#A371F7"></circle><polyline fill="none" stroke="#F0A23B" stroke-width="2.4" stroke-linejoin="round" stroke-linecap="round" points="56,162.13 63.06,151.29 70.12,72.27 77.18,170.58 84.24,165.15 91.3,168.63 98.36,155.58 105.42,155.2 112.48,151.03 119.54,159.37 126.6,151 133.66,152 140.72,154.31 147.78,162.54 154.84,145.36 161.9,160.82 168.96,153.52 176.02,158.63 183.08,172.35 190.14,162.23 197.2,168.2 204.27,164.28 211.33,98 218.39,164.92 225.45,167.19 232.51,163.76 239.57,165.84 246.63,134.6 253.69,163 260.75,144.13 267.81,165.52 274.87,134.8 281.93,167.11 288.99,166.07 296.05,54.66 303.11,77.46 310.17,164.62 317.23,166.72 324.29,166.65 331.35,162.93 338.41,164.9 345.47,170.21 352.53,169.23 359.59,114.96 366.65,165.27 373.71,165.44 380.77,99.36 387.83,161.79 394.89,138.56 401.95,167.81 409.01,164.51 416.07,164.55 423.13,135.11 430.19,119.1 437.25,168.6 444.31,167.03 451.37,169.7 458.43,164.27 465.49,168.02 472.55,163.89 479.61,99.72 486.67,166.55 493.73,163.57 500.8,163.91 507.86,164.36 514.92,166.86 521.98,166.95 529.04,52.43 536.1,166.52 543.16,165.82 550.22,164.59 564.34,164.21 571.4,164.24 578.46,161.69 585.52,156.02 592.58,164.92 599.64,166.5 606.7,158.67 613.76,169.13 620.82,164.89 627.88,168.19 634.94,134.69 642,120.68"></polyline><circle cx="56" cy="162.13" r="2.6" fill="#F0A23B"></circle><circle cx="63.06" cy="151.29" r="2.6" fill="#F0A23B"></circle><circle cx="70.12" cy="72.27" r="2.6" fill="#F0A23B"></circle><circle cx="77.18" cy="170.58" r="2.6" fill="#F0A23B"></circle><circle cx="84.24" cy="165.15" r="2.6" fill="#F0A23B"></circle><circle cx="91.3" cy="168.63" r="2.6" fill="#F0A23B"></circle><circle cx="98.36" cy="155.58" r="2.6" fill="#F0A23B"></circle><circle cx="105.42" cy="155.2" r="2.6" fill="#F0A23B"></circle><circle cx="112.48" cy="151.03" r="2.6" fill="#F0A23B"></circle><circle cx="119.54" cy="159.37" r="2.6" fill="#F0A23B"></circle><circle cx="126.6" cy="151" r="2.6" fill="#F0A23B"></circle><circle cx="133.66" cy="152" r="2.6" fill="#F0A23B"></circle><circle cx="140.72" cy="154.31" r="2.6" fill="#F0A23B"></circle><circle cx="147.78" cy="162.54" r="2.6" fill="#F0A23B"></circle><circle cx="154.84" cy="145.36" r="2.6" fill="#F0A23B"></circle><circle cx="161.9" cy="160.82" r="2.6" fill="#F0A23B"></circle><circle cx="168.96" cy="153.52" r="2.6" fill="#F0A23B"></circle><circle cx="176.02" cy="158.63" r="2.6" fill="#F0A23B"></circle><circle cx="183.08" cy="172.35" r="2.6" fill="#F0A23B"></circle><circle cx="190.14" cy="162.23" r="2.6" fill="#F0A23B"></circle><circle cx="197.2" cy="168.2" r="2.6" fill="#F0A23B"></circle><circle cx="204.27" cy="164.28" r="2.6" fill="#F0A23B"></circle><circle cx="211.33" cy="98" r="2.6" fill="#F0A23B"></circle><circle cx="218.39" cy="164.92" r="2.6" fill="#F0A23B"></circle><circle cx="225.45" cy="167.19" r="2.6" fill="#F0A23B"></circle><circle cx="232.51" cy="163.76" r="2.6" fill="#F0A23B"></circle><circle cx="239.57" cy="165.84" r="2.6" fill="#F0A23B"></circle><circle cx="246.63" cy="134.6" r="2.6" fill="#F0A23B"></circle><circle cx="253.69" cy="163" r="2.6" fill="#F0A23B"></circle><circle cx="260.75" cy="144.13" r="2.6" fill="#F0A23B"></circle><circle cx="267.81" cy="165.52" r="2.6" fill="#F0A23B"></circle><circle cx="274.87" cy="134.8" r="2.6" fill="#F0A23B"></circle><circle cx="281.93" cy="167.11" r="2.6" fill="#F0A23B"></circle><circle cx="288.99" cy="166.07" r="2.6" fill="#F0A23B"></circle><circle cx="296.05" cy="54.66" r="2.6" fill="#F0A23B"></circle><circle cx="303.11" cy="77.46" r="2.6" fill="#F0A23B"></circle><circle cx="310.17" cy="164.62" r="2.6" fill="#F0A23B"></circle><circle cx="317.23" cy="166.72" r="2.6" fill="#F0A23B"></circle><circle cx="324.29" cy="166.65" r="2.6" fill="#F0A23B"></circle><circle cx="331.35" cy="162.93" r="2.6" fill="#F0A23B"></circle><circle cx="338.41" cy="164.9" r="2.6" fill="#F0A23B"></circle><circle cx="345.47" cy="170.21" r="2.6" fill="#F0A23B"></circle><circle cx="352.53" cy="169.23" r="2.6" fill="#F0A23B"></circle><circle cx="359.59" cy="114.96" r="2.6" fill="#F0A23B"></circle><circle cx="366.65" cy="165.27" r="2.6" fill="#F0A23B"></circle><circle cx="373.71" cy="165.44" r="2.6" fill="#F0A23B"></circle><circle cx="380.77" cy="99.36" r="2.6" fill="#F0A23B"></circle><circle cx="387.83" cy="161.79" r="2.6" fill="#F0A23B"></circle><circle cx="394.89" cy="138.56" r="2.6" fill="#F0A23B"></circle><circle cx="401.95" cy="167.81" r="2.6" fill="#F0A23B"></circle><circle cx="409.01" cy="164.51" r="2.6" fill="#F0A23B"></circle><circle cx="416.07" cy="164.55" r="2.6" fill="#F0A23B"></circle><circle cx="423.13" cy="135.11" r="2.6" fill="#F0A23B"></circle><circle cx="430.19" cy="119.1" r="2.6" fill="#F0A23B"></circle><circle cx="437.25" cy="168.6" r="2.6" fill="#F0A23B"></circle><circle cx="444.31" cy="167.03" r="2.6" fill="#F0A23B"></circle><circle cx="451.37" cy="169.7" r="2.6" fill="#F0A23B"></circle><circle cx="458.43" cy="164.27" r="2.6" fill="#F0A23B"></circle><circle cx="465.49" cy="168.02" r="2.6" fill="#F0A23B"></circle><circle cx="472.55" cy="163.89" r="2.6" fill="#F0A23B"></circle><circle cx="479.61" cy="99.72" r="2.6" fill="#F0A23B"></circle><circle cx="486.67" cy="166.55" r="2.6" fill="#F0A23B"></circle><circle cx="493.73" cy="163.57" r="2.6" fill="#F0A23B"></circle><circle cx="500.8" cy="163.91" r="2.6" fill="#F0A23B"></circle><circle cx="507.86" cy="164.36" r="2.6" fill="#F0A23B"></circle><circle cx="514.92" cy="166.86" r="2.6" fill="#F0A23B"></circle><circle cx="521.98" cy="166.95" r="2.6" fill="#F0A23B"></circle><circle cx="529.04" cy="52.43" r="2.6" fill="#F0A23B"></circle><circle cx="536.1" cy="166.52" r="2.6" fill="#F0A23B"></circle><circle cx="543.16" cy="165.82" r="2.6" fill="#F0A23B"></circle><circle cx="550.22" cy="164.59" r="2.6" fill="#F0A23B"></circle><circle cx="564.34" cy="164.21" r="2.6" fill="#F0A23B"></circle><circle cx="571.4" cy="164.24" r="2.6" fill="#F0A23B"></circle><circle cx="578.46" cy="161.69" r="2.6" fill="#F0A23B"></circle><circle cx="585.52" cy="156.02" r="2.6" fill="#F0A23B"></circle><circle cx="592.58" cy="164.92" r="2.6" fill="#F0A23B"></circle><circle cx="599.64" cy="166.5" r="2.6" fill="#F0A23B"></circle><circle cx="606.7" cy="158.67" r="2.6" fill="#F0A23B"></circle><circle cx="613.76" cy="169.13" r="2.6" fill="#F0A23B"></circle><circle cx="620.82" cy="164.89" r="2.6" fill="#F0A23B"></circle><circle cx="627.88" cy="168.19" r="2.6" fill="#F0A23B"></circle><circle cx="634.94" cy="134.69" r="2.6" fill="#F0A23B"></circle><circle cx="642" cy="120.68" r="2.6" fill="#F0A23B"></circle><line x1="656" y1="27" x2="672" y2="27" stroke="#6366F1" stroke-width="3" stroke-linecap="round"></line><text x="678" y="30" font-size="11" font-weight="400" text-anchor="start" fill="#e6edf3">deepseek</text><line x1="656" y1="47" x2="672" y2="47" stroke="#A371F7" stroke-width="3" stroke-linecap="round"></line><text x="678" y="50" font-size="11" font-weight="400" text-anchor="start" fill="#e6edf3">llama</text><line x1="656" y1="67" x2="672" y2="67" stroke="#F0A23B" stroke-width="3" stroke-linecap="round"></line><text x="678" y="70" font-size="11" font-weight="400" text-anchor="start" fill="#e6edf3">mistral</text></svg>
