<svg xmlns="http://www.w3.org/2000/svg" viewBox="0 0 760 348" width="760" height="348" role="img" aria-label="Cost per test by provider over runs — openai highest, deepseek lowest" font-family="-apple-system,BlinkMacSystemFont,'Segoe UI',system-ui,sans-serif"><line x1="56" y1="306" x2="642" y2="306" stroke="#30363d" stroke-width="1"></line><text x="46" y="310" font-size="9.5" font-weight="400" text-anchor="end" fill="#8b949e" font-family="ui-monospace,SFMono-Regular,Menlo,monospace">$0.000</text><line x1="56" y1="235" x2="642" y2="235" stroke="#30363d" stroke-width="1"></line><text x="46" y="239" font-size="9.5" font-weight="400" text-anchor="end" fill="#8b949e" font-family="ui-monospace,SFMono-Regular,Menlo,monospace">$0.044</text><line x1="56" y1="164" x2="642" y2="164" stroke="#30363d" stroke-width="1"></line><text x="46" y="168" font-size="9.5" font-weight="400" text-anchor="end" fill="#8b949e" font-family="ui-monospace,SFMono-Regular,Menlo,monospace">$0.087</text><line x1="56" y1="93" x2="642" y2="93" stroke="#30363d" stroke-width="1"></line><text x="46" y="97" font-size="9.5" font-weight="400" text-anchor="end" fill="#8b949e" font-family="ui-monospace,SFMono-Regular,Menlo,monospace">$0.131</text><line x1="56" y1="22" x2="642" y2="22" stroke="#30363d" stroke-width="1"></line><text x="46" y="26" font-size="9.5" font-weight="400" text-anchor="end" fill="#8b949e" font-family="ui-monospace,SFMono-Regular,Menlo,monospace">$0.175</text><text x="56" y="324" font-size="9.5" font-weight="400" text-anchor="middle" fill="#8b949e" font-family="ui-monospace,SFMono-Regular,Menlo,monospace">06/06</text><text x="114.6" y="324" font-size="9.5" font-weight="400" text-anchor="middle" fill="#8b949e" font-family="ui-monospace,SFMono-Regular,Menlo,monospace">06/07</text><text x="173.2" y="324" font-size="9.5" font-weight="400" text-anchor="middle" fill="#8b949e" font-family="ui-monospace,SFMono-Regular,Menlo,monospace">06/08</text><text x="231.8" y="324" font-size="9.5" font-weight="400" text-anchor="middle" fill="#8b949e" font-family="ui-monospace,SFMono-Regular,Menlo,monospace">06/08</text><text x="290.4" y="324" font-size="9.5" font-weight="400" text-anchor="middle" fill="#8b949e" font-family="ui-monospace,SFMono-Regular,Menlo,monospace">06/09</text><text x="349" y="324" font-size="9.5" font-weight="400" text-anchor="middle" fill="#8b949e" font-family="ui-monospace,SFMono-Regular,Menlo,monospace">06/09</text><text x="407.6" y="324" font-size="9.5" font-weight="400" text-anchor="middle" fill="#8b949e" font-family="ui-monospace,SFMono-Regular,Menlo,monospace">06/12</text><text x="466.2" y="324" font-size="9.5" font-weight="400" text-anchor="middle" fill="#8b949e" font-family="ui-monospace,SFMono-Regular,Menlo,monospace">06/14</text><text x="524.8" y="324" font-size="9.5" font-weight="400" text-anchor="middle" fill="#8b949e" font-family="ui-monospace,SFMono-Regular,Menlo,monospace">06/14</text><text x="583.4" y="324" font-size="9.5" font-weight="400" text-anchor="middle" fill="#8b949e" font-family="ui-monospace,SFMono-Regular,Menlo,monospace">06/15</text><text x="642" y="324" font-size="9.5" font-weight="400" text-anchor="middle" fill="#8b949e" font-family="ui-monospace,SFMono-Regular,Menlo,monospace">06/16</text><polyline fill="none" stroke="#6366F1" stroke-width="2.4" stroke-linejoin="round" stroke-linecap="round" points="173.2,293.36 187.85,293.43 202.5,294.1 217.15,292.89 231.8,293.14 246.45,287.31 261.1,294.31 275.75,291.77 290.4,291.82 305.05,291.36 319.7,293.02 334.35,291.8 349,288.55 363.65,292.06 378.3,288.85 392.95,294.29 407.6,292.11 422.25,288.48 436.9,285.75 451.55,292.13 466.2,291.04 480.85,293.66 495.5,290.08 510.15,286.94 524.8,292.77 539.45,291.68 554.1,292.47 568.75,291.27 598.05,290.7 612.7,292.91 627.35,293.34 642,290.78"></polyline><circle cx="173.2" cy="293.36" r="2.6" fill="#6366F1"></circle><circle cx="187.85" cy="293.43" r="2.6" fill="#6366F1"></circle><circle cx="202.5" cy="294.1" r="2.6" fill="#6366F1"></circle><circle cx="217.15" cy="292.89" r="2.6" fill="#6366F1"></circle><circle cx="231.8" cy="293.14" r="2.6" fill="#6366F1"></circle><circle cx="246.45" cy="287.31" r="2.6" fill="#6366F1"></circle><circle cx="261.1" cy="294.31" r="2.6" fill="#6366F1"></circle><circle cx="275.75" cy="291.77" r="2.6" fill="#6366F1"></circle><circle cx="290.4" cy="291.82" r="2.6" fill="#6366F1"></circle><circle cx="305.05" cy="291.36" r="2.6" fill="#6366F1"></circle><circle cx="319.7" cy="293.02" r="2.6" fill="#6366F1"></circle><circle cx="334.35" cy="291.8" r="2.6" fill="#6366F1"></circle><circle cx="349" cy="288.55" r="2.6" fill="#6366F1"></circle><circle cx="363.65" cy="292.06" r="2.6" fill="#6366F1"></circle><circle cx="378.3" cy="288.85" r="2.6" fill="#6366F1"></circle><circle cx="392.95" cy="294.29" r="2.6" fill="#6366F1"></circle><circle cx="407.6" cy="292.11" r="2.6" fill="#6366F1"></circle><circle cx="422.25" cy="288.48" r="2.6" fill="#6366F1"></circle><circle cx="436.9" cy="285.75" r="2.6" fill="#6366F1"></circle><circle cx="451.55" cy="292.13" r="2.6" fill="#6366F1"></circle><circle cx="466.2" cy="291.04" r="2.6" fill="#6366F1"></circle><circle cx="480.85" cy="293.66" r="2.6" fill="#6366F1"></circle><circle cx="495.5" cy="290.08" r="2.6" fill="#6366F1"></circle><circle cx="510.15" cy="286.94" r="2.6" fill="#6366F1"></circle><circle cx="524.8" cy="292.77" r="2.6" fill="#6366F1"></circle><circle cx="539.45" cy="291.68" r="2.6" fill="#6366F1"></circle><circle cx="554.1" cy="292.47" r="2.6" fill="#6366F1"></circle><circle cx="568.75" cy="291.27" r="2.6" fill="#6366F1"></circle><circle cx="598.05" cy="290.7" r="2.6" fill="#6366F1"></circle><circle cx="612.7" cy="292.91" r="2.6" fill="#6366F1"></circle><circle cx="627.35" cy="293.34" r="2.6" fill="#6366F1"></circle><circle cx="642" cy="290.78" r="2.6" fill="#6366F1"></circle><polyline fill="none" stroke="#A371F7" stroke-width="2.4" stroke-linejoin="round" stroke-linecap="round" points="56,234.02 70.65,244.52 85.3,248 99.95,231.43 114.6,238.89 129.25,249.23 143.9,244.46 158.55,237.54 173.2,240.86 187.85,247.44 202.5,240.79 217.15,238.23 231.8,242.67 246.45,225.79 261.1,243.99 275.75,238.04 290.4,246.87 305.05,247.42 319.7,226.74 334.35,239.47 349,211.96 363.65,246.23 378.3,249.04 392.95,237.01 407.6,234.98 422.25,238.5 436.9,240.35 451.55,237.84 466.2,246.71 480.85,242.24 495.5,238.34 510.15,244.61 524.8,248.91 539.45,226.53 554.1,244.07 568.75,245.89 598.05,225.3 612.7,246.26 627.35,237.6"></polyline><circle cx="56" cy="234.02" r="2.6" fill="#A371F7"></circle><circle cx="70.65" cy="244.52" r="2.6" fill="#A371F7"></circle><circle cx="85.3" cy="248" r="2.6" fill="#A371F7"></circle><circle cx="99.95" cy="231.43" r="2.6" fill="#A371F7"></circle><circle cx="114.6" cy="238.89" r="2.6" fill="#A371F7"></circle><circle cx="129.25" cy="249.23" r="2.6" fill="#A371F7"></circle><circle cx="143.9" cy="244.46" r="2.6" fill="#A371F7"></circle><circle cx="158.55" cy="237.54" r="2.6" fill="#A371F7"></circle><circle cx="173.2" cy="240.86" r="2.6" fill="#A371F7"></circle><circle cx="187.85" cy="247.44" r="2.6" fill="#A371F7"></circle><circle cx="202.5" cy="240.79" r="2.6" fill="#A371F7"></circle><circle cx="217.15" cy="238.23" r="2.6" fill="#A371F7"></circle><circle cx="231.8" cy="242.67" r="2.6" fill="#A371F7"></circle><circle cx="246.45" cy="225.79" r="2.6" fill="#A371F7"></circle><circle cx="261.1" cy="243.99" r="2.6" fill="#A371F7"></circle><circle cx="275.75" cy="238.04" r="2.6" fill="#A371F7"></circle><circle cx="290.4" cy="246.87" r="2.6" fill="#A371F7"></circle><circle cx="305.05" cy="247.42" r="2.6" fill="#A371F7"></circle><circle cx="319.7" cy="226.74" r="2.6" fill="#A371F7"></circle><circle cx="334.35" cy="239.47" r="2.6" fill="#A371F7"></circle><circle cx="349" cy="211.96" r="2.6" fill="#A371F7"></circle><circle cx="363.65" cy="246.23" r="2.6" fill="#A371F7"></circle><circle cx="378.3" cy="249.04" r="2.6" fill="#A371F7"></circle><circle cx="392.95" cy="237.01" r="2.6" fill="#A371F7"></circle><circle cx="407.6" cy="234.98" r="2.6" fill="#A371F7"></circle><circle cx="422.25" cy="238.5" r="2.6" fill="#A371F7"></circle><circle cx="436.9" cy="240.35" r="2.6" fill="#A371F7"></circle><circle cx="451.55" cy="237.84" r="2.6" fill="#A371F7"></circle><circle cx="466.2" cy="246.71" r="2.6" fill="#A371F7"></circle><circle cx="480.85" cy="242.24" r="2.6" fill="#A371F7"></circle><circle cx="495.5" cy="238.34" r="2.6" fill="#A371F7"></circle><circle cx="510.15" cy="244.61" r="2.6" fill="#A371F7"></circle><circle cx="524.8" cy="248.91" r="2.6" fill="#A371F7"></circle><circle cx="539.45" cy="226.53" r="2.6" fill="#A371F7"></circle><circle cx="554.1" cy="244.07" r="2.6" fill="#A371F7"></circle><circle cx="568.75" cy="245.89" r="2.6" fill="#A371F7"></circle><circle cx="598.05" cy="225.3" r="2.6" fill="#A371F7"></circle><circle cx="612.7" cy="246.26" r="2.6" fill="#A371F7"></circle><circle cx="627.35" cy="237.6" r="2.6" fill="#A371F7"></circle><polyline fill="none" stroke="#F0A23B" stroke-width="2.4" stroke-linejoin="round" stroke-linecap="round" points="56,176.15 70.65,166.37 85.3,95.06 99.95,183.78 114.6,178.88 129.25,182.02 143.9,170.24 158.55,169.9 173.2,166.14 187.85,173.66 202.5,166.11 217.15,167.02 231.8,169.09 246.45,176.53 261.1,161.02 275.75,174.97 290.4,168.38 305.05,173 319.7,185.38 334.35,176.24 349,181.63 363.65,178.09 378.3,118.27 392.95,178.67 407.6,180.72 422.25,177.62 436.9,179.5 451.55,151.31 466.2,176.94 480.85,159.91 495.5,179.22 510.15,151.49 524.8,180.65 539.45,179.71 554.1,79.16 568.75,99.74 583.4,178.4 598.05,180.3 612.7,180.24 627.35,176.88 642,178.65"></polyline><circle cx="56" cy="176.15" r="2.6" fill="#F0A23B"></circle><circle cx="70.65" cy="166.37" r="2.6" fill="#F0A23B"></circle><circle cx="85.3" cy="95.06" r="2.6" fill="#F0A23B"></circle><circle cx="99.95" cy="183.78" r="2.6" fill="#F0A23B"></circle><circle cx="114.6" cy="178.88" r="2.6" fill="#F0A23B"></circle><circle cx="129.25" cy="182.02" r="2.6" fill="#F0A23B"></circle><circle cx="143.9" cy="170.24" r="2.6" fill="#F0A23B"></circle><circle cx="158.55" cy="169.9" r="2.6" fill="#F0A23B"></circle><circle cx="173.2" cy="166.14" r="2.6" fill="#F0A23B"></circle><circle cx="187.85" cy="173.66" r="2.6" fill="#F0A23B"></circle><circle cx="202.5" cy="166.11" r="2.6" fill="#F0A23B"></circle><circle cx="217.15" cy="167.02" r="2.6" fill="#F0A23B"></circle><circle cx="231.8" cy="169.09" r="2.6" fill="#F0A23B"></circle><circle cx="246.45" cy="176.53" r="2.6" fill="#F0A23B"></circle><circle cx="261.1" cy="161.02" r="2.6" fill="#F0A23B"></circle><circle cx="275.75" cy="174.97" r="2.6" fill="#F0A23B"></circle><circle cx="290.4" cy="168.38" r="2.6" fill="#F0A23B"></circle><circle cx="305.05" cy="173" r="2.6" fill="#F0A23B"></circle><circle cx="319.7" cy="185.38" r="2.6" fill="#F0A23B"></circle><circle cx="334.35" cy="176.24" r="2.6" fill="#F0A23B"></circle><circle cx="349" cy="181.63" r="2.6" fill="#F0A23B"></circle><circle cx="363.65" cy="178.09" r="2.6" fill="#F0A23B"></circle><circle cx="378.3" cy="118.27" r="2.6" fill="#F0A23B"></circle><circle cx="392.95" cy="178.67" r="2.6" fill="#F0A23B"></circle><circle cx="407.6" cy="180.72" r="2.6" fill="#F0A23B"></circle><circle cx="422.25" cy="177.62" r="2.6" fill="#F0A23B"></circle><circle cx="436.9" cy="179.5" r="2.6" fill="#F0A23B"></circle><circle cx="451.55" cy="151.31" r="2.6" fill="#F0A23B"></circle><circle cx="466.2" cy="176.94" r="2.6" fill="#F0A23B"></circle><circle cx="480.85" cy="159.91" r="2.6" fill="#F0A23B"></circle><circle cx="495.5" cy="179.22" r="2.6" fill="#F0A23B"></circle><circle cx="510.15" cy="151.49" r="2.6" fill="#F0A23B"></circle><circle cx="524.8" cy="180.65" r="2.6" fill="#F0A23B"></circle><circle cx="539.45" cy="179.71" r="2.6" fill="#F0A23B"></circle><circle cx="554.1" cy="79.16" r="2.6" fill="#F0A23B"></circle><circle cx="568.75" cy="99.74" r="2.6" fill="#F0A23B"></circle><circle cx="583.4" cy="178.4" r="2.6" fill="#F0A23B"></circle><circle cx="598.05" cy="180.3" r="2.6" fill="#F0A23B"></circle><circle cx="612.7" cy="180.24" r="2.6" fill="#F0A23B"></circle><circle cx="627.35" cy="176.88" r="2.6" fill="#F0A23B"></circle><circle cx="642" cy="178.65" r="2.6" fill="#F0A23B"></circle><polyline fill="none" stroke="#1F9CF0" stroke-width="2.4" stroke-linejoin="round" stroke-linecap="round" points="56,175.5 70.65,176.2 85.3,132.71 99.95,178.27 114.6,172 129.25,174.38 143.9,174.4 158.55,170.88 173.2,173.93 187.85,173.54 202.5,100.75 217.15,168.69 231.8,173.59 246.45,174.01 261.1,167.31 275.75,117.5 290.4,166.02 305.05,174.07 319.7,141.6 334.35,169.05 349,167.14 363.65,174.48 378.3,150.94 392.95,171.01 407.6,52.43 422.25,157.26 436.9,171.51 451.55,136.29 466.2,169.79 480.85,106.45 495.5,170.47 510.15,175.76 524.8,174.01 539.45,174.06 554.1,151.2 568.75,173.78 583.4,169.88 598.05,177.61 612.7,137.18 627.35,114.15 642,168.74"></polyline><circle cx="56" cy="175.5" r="2.6" fill="#1F9CF0"></circle><circle cx="70.65" cy="176.2" r="2.6" fill="#1F9CF0"></circle><circle cx="85.3" cy="132.71" r="2.6" fill="#1F9CF0"></circle><circle cx="99.95" cy="178.27" r="2.6" fill="#1F9CF0"></circle><circle cx="114.6" cy="172" r="2.6" fill="#1F9CF0"></circle><circle cx="129.25" cy="174.38" r="2.6" fill="#1F9CF0"></circle><circle cx="143.9" cy="174.4" r="2.6" fill="#1F9CF0"></circle><circle cx="158.55" cy="170.88" r="2.6" fill="#1F9CF0"></circle><circle cx="173.2" cy="173.93" r="2.6" fill="#1F9CF0"></circle><circle cx="187.85" cy="173.54" r="2.6" fill="#1F9CF0"></circle><circle cx="202.5" cy="100.75" r="2.6" fill="#1F9CF0"></circle><circle cx="217.15" cy="168.69" r="2.6" fill="#1F9CF0"></circle><circle cx="231.8" cy="173.59" r="2.6" fill="#1F9CF0"></circle><circle cx="246.45" cy="174.01" r="2.6" fill="#1F9CF0"></circle><circle cx="261.1" cy="167.31" r="2.6" fill="#1F9CF0"></circle><circle cx="275.75" cy="117.5" r="2.6" fill="#1F9CF0"></circle><circle cx="290.4" cy="166.02" r="2.6" fill="#1F9CF0"></circle><circle cx="305.05" cy="174.07" r="2.6" fill="#1F9CF0"></circle><circle cx="319.7" cy="141.6" r="2.6" fill="#1F9CF0"></circle><circle cx="334.35" cy="169.05" r="2.6" fill="#1F9CF0"></circle><circle cx="349" cy="167.14" r="2.6" fill="#1F9CF0"></circle><circle cx="363.65" cy="174.48" r="2.6" fill="#1F9CF0"></circle><circle cx="378.3" cy="150.94" r="2.6" fill="#1F9CF0"></circle><circle cx="392.95" cy="171.01" r="2.6" fill="#1F9CF0"></circle><circle cx="407.6" cy="52.43" r="2.6" fill="#1F9CF0"></circle><circle cx="422.25" cy="157.26" r="2.6" fill="#1F9CF0"></circle><circle cx="436.9" cy="171.51" r="2.6" fill="#1F9CF0"></circle><circle cx="451.55" cy="136.29" r="2.6" fill="#1F9CF0"></circle><circle cx="466.2" cy="169.79" r="2.6" fill="#1F9CF0"></circle><circle cx="480.85" cy="106.45" r="2.6" fill="#1F9CF0"></circle><circle cx="495.5" cy="170.47" r="2.6" fill="#1F9CF0"></circle><circle cx="510.15" cy="175.76" r="2.6" fill="#1F9CF0"></circle><circle cx="524.8" cy="174.01" r="2.6" fill="#1F9CF0"></circle><circle cx="539.45" cy="174.06" r="2.6" fill="#1F9CF0"></circle><circle cx="554.1" cy="151.2" r="2.6" fill="#1F9CF0"></circle><circle cx="568.75" cy="173.78" r="2.6" fill="#1F9CF0"></circle><circle cx="583.4" cy="169.88" r="2.6" fill="#1F9CF0"></circle><circle cx="598.05" cy="177.61" r="2.6" fill="#1F9CF0"></circle><circle cx="612.7" cy="137.18" r="2.6" fill="#1F9CF0"></circle><circle cx="627.35" cy="114.15" r="2.6" fill="#1F9CF0"></circle><circle cx="642" cy="168.74" r="2.6" fill="#1F9CF0"></circle><line x1="656" y1="27" x2="672" y2="27" stroke="#6366F1" stroke-width="3" stroke-linecap="round"></line><text x="678" y="30" font-size="11" font-weight="400" text-anchor="start" fill="#e6edf3">deepseek</text><line x1="656" y1="47" x2="672" y2="47" stroke="#A371F7" stroke-width="3" stroke-linecap="round"></line><text x="678" y="50" font-size="11" font-weight="400" text-anchor="start" fill="#e6edf3">llama</text><line x1="656" y1="67" x2="672" y2="67" stroke="#F0A23B" stroke-width="3" stroke-linecap="round"></line><text x="678" y="70" font-size="11" font-weight="400" text-anchor="start" fill="#e6edf3">mistral</text><line x1="656" y1="87" x2="672" y2="87" stroke="#1F9CF0" stroke-width="3" stroke-linecap="round"></line><text x="678" y="90" font-size="11" font-weight="400" text-anchor="start" fill="#e6edf3">openai</text></svg>
