<svg xmlns="http://www.w3.org/2000/svg" viewBox="0 0 760 348" width="760" height="348" role="img" aria-label="Cost per test by provider over runs — openai highest, deepseek lowest" font-family="-apple-system,BlinkMacSystemFont,'Segoe UI',system-ui,sans-serif"><line x1="56" y1="306" x2="642" y2="306" stroke="#d8dee4" stroke-width="1"></line><text x="46" y="310" font-size="9.5" font-weight="400" text-anchor="end" fill="#656d76" font-family="ui-monospace,SFMono-Regular,Menlo,monospace">$0.000</text><line x1="56" y1="235" x2="642" y2="235" stroke="#d8dee4" stroke-width="1"></line><text x="46" y="239" font-size="9.5" font-weight="400" text-anchor="end" fill="#656d76" font-family="ui-monospace,SFMono-Regular,Menlo,monospace">$0.044</text><line x1="56" y1="164" x2="642" y2="164" stroke="#d8dee4" stroke-width="1"></line><text x="46" y="168" font-size="9.5" font-weight="400" text-anchor="end" fill="#656d76" font-family="ui-monospace,SFMono-Regular,Menlo,monospace">$0.087</text><line x1="56" y1="93" x2="642" y2="93" stroke="#d8dee4" stroke-width="1"></line><text x="46" y="97" font-size="9.5" font-weight="400" text-anchor="end" fill="#656d76" font-family="ui-monospace,SFMono-Regular,Menlo,monospace">$0.131</text><line x1="56" y1="22" x2="642" y2="22" stroke="#d8dee4" stroke-width="1"></line><text x="46" y="26" font-size="9.5" font-weight="400" text-anchor="end" fill="#656d76" font-family="ui-monospace,SFMono-Regular,Menlo,monospace">$0.175</text><text x="56" y="324" font-size="9.5" font-weight="400" text-anchor="middle" fill="#656d76" font-family="ui-monospace,SFMono-Regular,Menlo,monospace">06/06</text><text x="109.27" y="324" font-size="9.5" font-weight="400" text-anchor="middle" fill="#656d76" font-family="ui-monospace,SFMono-Regular,Menlo,monospace">06/07</text><text x="162.55" y="324" font-size="9.5" font-weight="400" text-anchor="middle" fill="#656d76" font-family="ui-monospace,SFMono-Regular,Menlo,monospace">06/08</text><text x="215.82" y="324" font-size="9.5" font-weight="400" text-anchor="middle" fill="#656d76" font-family="ui-monospace,SFMono-Regular,Menlo,monospace">06/09</text><text x="269.09" y="324" font-size="9.5" font-weight="400" text-anchor="middle" fill="#656d76" font-family="ui-monospace,SFMono-Regular,Menlo,monospace">06/09</text><text x="322.36" y="324" font-size="9.5" font-weight="400" text-anchor="middle" fill="#656d76" font-family="ui-monospace,SFMono-Regular,Menlo,monospace">06/12</text><text x="375.64" y="324" font-size="9.5" font-weight="400" text-anchor="middle" fill="#656d76" font-family="ui-monospace,SFMono-Regular,Menlo,monospace">06/14</text><text x="428.91" y="324" font-size="9.5" font-weight="400" text-anchor="middle" fill="#656d76" font-family="ui-monospace,SFMono-Regular,Menlo,monospace">06/15</text><text x="482.18" y="324" font-size="9.5" font-weight="400" text-anchor="middle" fill="#656d76" font-family="ui-monospace,SFMono-Regular,Menlo,monospace">06/16</text><text x="535.45" y="324" font-size="9.5" font-weight="400" text-anchor="middle" fill="#656d76" font-family="ui-monospace,SFMono-Regular,Menlo,monospace">06/17</text><text x="588.73" y="324" font-size="9.5" font-weight="400" text-anchor="middle" fill="#656d76" font-family="ui-monospace,SFMono-Regular,Menlo,monospace">06/18</text><text x="642" y="324" font-size="9.5" font-weight="400" text-anchor="middle" fill="#656d76" font-family="ui-monospace,SFMono-Regular,Menlo,monospace">06/20</text><polyline fill="none" stroke="#6366F1" stroke-width="2.4" stroke-linejoin="round" stroke-linecap="round" points="141.24,293.36 151.89,293.43 162.55,294.1 173.2,292.89 183.85,293.14 194.51,287.31 205.16,294.31 215.82,291.77 226.47,291.82 237.13,291.36 247.78,293.02 258.44,291.8 269.09,288.55 279.75,292.06 290.4,288.85 301.05,294.29 311.71,292.11 322.36,288.48 333.02,285.75 343.67,292.13 354.33,291.04 364.98,293.66 375.64,290.08 386.29,286.94 396.95,292.77 407.6,291.68 418.25,292.47 428.91,291.27 450.22,290.7 460.87,292.91 471.53,293.34 482.18,290.78 492.84,290.99 503.49,291.6 514.15,292.29 524.8,292.81 535.45,293.37 556.76,293.66 567.42,293.82 578.07,292.24 588.73,291.11 599.38,291.02 610.04,284.88 620.69,291.48 631.35,288.67 642,290.47"></polyline><circle cx="141.24" cy="293.36" r="2.6" fill="#6366F1"></circle><circle cx="151.89" cy="293.43" r="2.6" fill="#6366F1"></circle><circle cx="162.55" cy="294.1" r="2.6" fill="#6366F1"></circle><circle cx="173.2" cy="292.89" r="2.6" fill="#6366F1"></circle><circle cx="183.85" cy="293.14" r="2.6" fill="#6366F1"></circle><circle cx="194.51" cy="287.31" r="2.6" fill="#6366F1"></circle><circle cx="205.16" cy="294.31" r="2.6" fill="#6366F1"></circle><circle cx="215.82" cy="291.77" r="2.6" fill="#6366F1"></circle><circle cx="226.47" cy="291.82" r="2.6" fill="#6366F1"></circle><circle cx="237.13" cy="291.36" r="2.6" fill="#6366F1"></circle><circle cx="247.78" cy="293.02" r="2.6" fill="#6366F1"></circle><circle cx="258.44" cy="291.8" r="2.6" fill="#6366F1"></circle><circle cx="269.09" cy="288.55" r="2.6" fill="#6366F1"></circle><circle cx="279.75" cy="292.06" r="2.6" fill="#6366F1"></circle><circle cx="290.4" cy="288.85" r="2.6" fill="#6366F1"></circle><circle cx="301.05" cy="294.29" r="2.6" fill="#6366F1"></circle><circle cx="311.71" cy="292.11" r="2.6" fill="#6366F1"></circle><circle cx="322.36" cy="288.48" r="2.6" fill="#6366F1"></circle><circle cx="333.02" cy="285.75" r="2.6" fill="#6366F1"></circle><circle cx="343.67" cy="292.13" r="2.6" fill="#6366F1"></circle><circle cx="354.33" cy="291.04" r="2.6" fill="#6366F1"></circle><circle cx="364.98" cy="293.66" r="2.6" fill="#6366F1"></circle><circle cx="375.64" cy="290.08" r="2.6" fill="#6366F1"></circle><circle cx="386.29" cy="286.94" r="2.6" fill="#6366F1"></circle><circle cx="396.95" cy="292.77" r="2.6" fill="#6366F1"></circle><circle cx="407.6" cy="291.68" r="2.6" fill="#6366F1"></circle><circle cx="418.25" cy="292.47" r="2.6" fill="#6366F1"></circle><circle cx="428.91" cy="291.27" r="2.6" fill="#6366F1"></circle><circle cx="450.22" cy="290.7" r="2.6" fill="#6366F1"></circle><circle cx="460.87" cy="292.91" r="2.6" fill="#6366F1"></circle><circle cx="471.53" cy="293.34" r="2.6" fill="#6366F1"></circle><circle cx="482.18" cy="290.78" r="2.6" fill="#6366F1"></circle><circle cx="492.84" cy="290.99" r="2.6" fill="#6366F1"></circle><circle cx="503.49" cy="291.6" r="2.6" fill="#6366F1"></circle><circle cx="514.15" cy="292.29" r="2.6" fill="#6366F1"></circle><circle cx="524.8" cy="292.81" r="2.6" fill="#6366F1"></circle><circle cx="535.45" cy="293.37" r="2.6" fill="#6366F1"></circle><circle cx="556.76" cy="293.66" r="2.6" fill="#6366F1"></circle><circle cx="567.42" cy="293.82" r="2.6" fill="#6366F1"></circle><circle cx="578.07" cy="292.24" r="2.6" fill="#6366F1"></circle><circle cx="588.73" cy="291.11" r="2.6" fill="#6366F1"></circle><circle cx="599.38" cy="291.02" r="2.6" fill="#6366F1"></circle><circle cx="610.04" cy="284.88" r="2.6" fill="#6366F1"></circle><circle cx="620.69" cy="291.48" r="2.6" fill="#6366F1"></circle><circle cx="631.35" cy="288.67" r="2.6" fill="#6366F1"></circle><circle cx="642" cy="290.47" r="2.6" fill="#6366F1"></circle><polyline fill="none" stroke="#A371F7" stroke-width="2.4" stroke-linejoin="round" stroke-linecap="round" points="56,234.02 66.65,244.52 77.31,248 87.96,231.43 98.62,238.89 109.27,249.23 119.93,244.46 130.58,237.54 141.24,240.86 151.89,247.44 162.55,240.79 173.2,238.23 183.85,242.67 194.51,225.79 205.16,243.99 215.82,238.04 226.47,246.87 237.13,247.42 247.78,226.74 258.44,239.47 269.09,211.96 279.75,246.23 290.4,249.04 301.05,237.01 311.71,234.98 322.36,238.5 333.02,240.35 343.67,237.84 354.33,246.71 364.98,242.24 375.64,238.34 386.29,244.61 396.95,248.91 407.6,226.53 418.25,244.07 428.91,245.89 450.22,225.3 460.87,246.26 471.53,237.6 492.84,238.19 503.49,247.14 514.15,247.58 524.8,243.98 535.45,241.42 546.11,243.75 556.76,244.26 567.42,242.78 578.07,233.78 588.73,238.08 599.38,239.3 610.04,245.03 620.69,240.96 631.35,244.05 642,243"></polyline><circle cx="56" cy="234.02" r="2.6" fill="#A371F7"></circle><circle cx="66.65" cy="244.52" r="2.6" fill="#A371F7"></circle><circle cx="77.31" cy="248" r="2.6" fill="#A371F7"></circle><circle cx="87.96" cy="231.43" r="2.6" fill="#A371F7"></circle><circle cx="98.62" cy="238.89" r="2.6" fill="#A371F7"></circle><circle cx="109.27" cy="249.23" r="2.6" fill="#A371F7"></circle><circle cx="119.93" cy="244.46" r="2.6" fill="#A371F7"></circle><circle cx="130.58" cy="237.54" r="2.6" fill="#A371F7"></circle><circle cx="141.24" cy="240.86" r="2.6" fill="#A371F7"></circle><circle cx="151.89" cy="247.44" r="2.6" fill="#A371F7"></circle><circle cx="162.55" cy="240.79" r="2.6" fill="#A371F7"></circle><circle cx="173.2" cy="238.23" r="2.6" fill="#A371F7"></circle><circle cx="183.85" cy="242.67" r="2.6" fill="#A371F7"></circle><circle cx="194.51" cy="225.79" r="2.6" fill="#A371F7"></circle><circle cx="205.16" cy="243.99" r="2.6" fill="#A371F7"></circle><circle cx="215.82" cy="238.04" r="2.6" fill="#A371F7"></circle><circle cx="226.47" cy="246.87" r="2.6" fill="#A371F7"></circle><circle cx="237.13" cy="247.42" r="2.6" fill="#A371F7"></circle><circle cx="247.78" cy="226.74" r="2.6" fill="#A371F7"></circle><circle cx="258.44" cy="239.47" r="2.6" fill="#A371F7"></circle><circle cx="269.09" cy="211.96" r="2.6" fill="#A371F7"></circle><circle cx="279.75" cy="246.23" r="2.6" fill="#A371F7"></circle><circle cx="290.4" cy="249.04" r="2.6" fill="#A371F7"></circle><circle cx="301.05" cy="237.01" r="2.6" fill="#A371F7"></circle><circle cx="311.71" cy="234.98" r="2.6" fill="#A371F7"></circle><circle cx="322.36" cy="238.5" r="2.6" fill="#A371F7"></circle><circle cx="333.02" cy="240.35" r="2.6" fill="#A371F7"></circle><circle cx="343.67" cy="237.84" r="2.6" fill="#A371F7"></circle><circle cx="354.33" cy="246.71" r="2.6" fill="#A371F7"></circle><circle cx="364.98" cy="242.24" r="2.6" fill="#A371F7"></circle><circle cx="375.64" cy="238.34" r="2.6" fill="#A371F7"></circle><circle cx="386.29" cy="244.61" r="2.6" fill="#A371F7"></circle><circle cx="396.95" cy="248.91" r="2.6" fill="#A371F7"></circle><circle cx="407.6" cy="226.53" r="2.6" fill="#A371F7"></circle><circle cx="418.25" cy="244.07" r="2.6" fill="#A371F7"></circle><circle cx="428.91" cy="245.89" r="2.6" fill="#A371F7"></circle><circle cx="450.22" cy="225.3" r="2.6" fill="#A371F7"></circle><circle cx="460.87" cy="246.26" r="2.6" fill="#A371F7"></circle><circle cx="471.53" cy="237.6" r="2.6" fill="#A371F7"></circle><circle cx="492.84" cy="238.19" r="2.6" fill="#A371F7"></circle><circle cx="503.49" cy="247.14" r="2.6" fill="#A371F7"></circle><circle cx="514.15" cy="247.58" r="2.6" fill="#A371F7"></circle><circle cx="524.8" cy="243.98" r="2.6" fill="#A371F7"></circle><circle cx="535.45" cy="241.42" r="2.6" fill="#A371F7"></circle><circle cx="546.11" cy="243.75" r="2.6" fill="#A371F7"></circle><circle cx="556.76" cy="244.26" r="2.6" fill="#A371F7"></circle><circle cx="567.42" cy="242.78" r="2.6" fill="#A371F7"></circle><circle cx="578.07" cy="233.78" r="2.6" fill="#A371F7"></circle><circle cx="588.73" cy="238.08" r="2.6" fill="#A371F7"></circle><circle cx="599.38" cy="239.3" r="2.6" fill="#A371F7"></circle><circle cx="610.04" cy="245.03" r="2.6" fill="#A371F7"></circle><circle cx="620.69" cy="240.96" r="2.6" fill="#A371F7"></circle><circle cx="631.35" cy="244.05" r="2.6" fill="#A371F7"></circle><circle cx="642" cy="243" r="2.6" fill="#A371F7"></circle><polyline fill="none" stroke="#F0A23B" stroke-width="2.4" stroke-linejoin="round" stroke-linecap="round" points="56,176.15 66.65,166.37 77.31,95.06 87.96,183.78 98.62,178.88 109.27,182.02 119.93,170.24 130.58,169.9 141.24,166.14 151.89,173.66 162.55,166.11 173.2,167.02 183.85,169.09 194.51,176.53 205.16,161.02 215.82,174.97 226.47,168.38 237.13,173 247.78,185.38 258.44,176.24 269.09,181.63 279.75,178.09 290.4,118.27 301.05,178.67 311.71,180.72 322.36,177.62 333.02,179.5 343.67,151.31 354.33,176.94 364.98,159.91 375.64,179.22 386.29,151.49 396.95,180.65 407.6,179.71 418.25,79.16 428.91,99.74 439.56,178.4 450.22,180.3 460.87,180.24 471.53,176.88 482.18,178.65 492.84,183.45 503.49,182.56 514.15,133.59 524.8,178.99 535.45,179.14 546.11,119.51 556.76,175.85 567.42,154.88 578.07,181.28 588.73,178.3 599.38,178.34 610.04,151.77 620.69,137.32 631.35,181.99 642,180.58"></polyline><circle cx="56" cy="176.15" r="2.6" fill="#F0A23B"></circle><circle cx="66.65" cy="166.37" r="2.6" fill="#F0A23B"></circle><circle cx="77.31" cy="95.06" r="2.6" fill="#F0A23B"></circle><circle cx="87.96" cy="183.78" r="2.6" fill="#F0A23B"></circle><circle cx="98.62" cy="178.88" r="2.6" fill="#F0A23B"></circle><circle cx="109.27" cy="182.02" r="2.6" fill="#F0A23B"></circle><circle cx="119.93" cy="170.24" r="2.6" fill="#F0A23B"></circle><circle cx="130.58" cy="169.9" r="2.6" fill="#F0A23B"></circle><circle cx="141.24" cy="166.14" r="2.6" fill="#F0A23B"></circle><circle cx="151.89" cy="173.66" r="2.6" fill="#F0A23B"></circle><circle cx="162.55" cy="166.11" r="2.6" fill="#F0A23B"></circle><circle cx="173.2" cy="167.02" r="2.6" fill="#F0A23B"></circle><circle cx="183.85" cy="169.09" r="2.6" fill="#F0A23B"></circle><circle cx="194.51" cy="176.53" r="2.6" fill="#F0A23B"></circle><circle cx="205.16" cy="161.02" r="2.6" fill="#F0A23B"></circle><circle cx="215.82" cy="174.97" r="2.6" fill="#F0A23B"></circle><circle cx="226.47" cy="168.38" r="2.6" fill="#F0A23B"></circle><circle cx="237.13" cy="173" r="2.6" fill="#F0A23B"></circle><circle cx="247.78" cy="185.38" r="2.6" fill="#F0A23B"></circle><circle cx="258.44" cy="176.24" r="2.6" fill="#F0A23B"></circle><circle cx="269.09" cy="181.63" r="2.6" fill="#F0A23B"></circle><circle cx="279.75" cy="178.09" r="2.6" fill="#F0A23B"></circle><circle cx="290.4" cy="118.27" r="2.6" fill="#F0A23B"></circle><circle cx="301.05" cy="178.67" r="2.6" fill="#F0A23B"></circle><circle cx="311.71" cy="180.72" r="2.6" fill="#F0A23B"></circle><circle cx="322.36" cy="177.62" r="2.6" fill="#F0A23B"></circle><circle cx="333.02" cy="179.5" r="2.6" fill="#F0A23B"></circle><circle cx="343.67" cy="151.31" r="2.6" fill="#F0A23B"></circle><circle cx="354.33" cy="176.94" r="2.6" fill="#F0A23B"></circle><circle cx="364.98" cy="159.91" r="2.6" fill="#F0A23B"></circle><circle cx="375.64" cy="179.22" r="2.6" fill="#F0A23B"></circle><circle cx="386.29" cy="151.49" r="2.6" fill="#F0A23B"></circle><circle cx="396.95" cy="180.65" r="2.6" fill="#F0A23B"></circle><circle cx="407.6" cy="179.71" r="2.6" fill="#F0A23B"></circle><circle cx="418.25" cy="79.16" r="2.6" fill="#F0A23B"></circle><circle cx="428.91" cy="99.74" r="2.6" fill="#F0A23B"></circle><circle cx="439.56" cy="178.4" r="2.6" fill="#F0A23B"></circle><circle cx="450.22" cy="180.3" r="2.6" fill="#F0A23B"></circle><circle cx="460.87" cy="180.24" r="2.6" fill="#F0A23B"></circle><circle cx="471.53" cy="176.88" r="2.6" fill="#F0A23B"></circle><circle cx="482.18" cy="178.65" r="2.6" fill="#F0A23B"></circle><circle cx="492.84" cy="183.45" r="2.6" fill="#F0A23B"></circle><circle cx="503.49" cy="182.56" r="2.6" fill="#F0A23B"></circle><circle cx="514.15" cy="133.59" r="2.6" fill="#F0A23B"></circle><circle cx="524.8" cy="178.99" r="2.6" fill="#F0A23B"></circle><circle cx="535.45" cy="179.14" r="2.6" fill="#F0A23B"></circle><circle cx="546.11" cy="119.51" r="2.6" fill="#F0A23B"></circle><circle cx="556.76" cy="175.85" r="2.6" fill="#F0A23B"></circle><circle cx="567.42" cy="154.88" r="2.6" fill="#F0A23B"></circle><circle cx="578.07" cy="181.28" r="2.6" fill="#F0A23B"></circle><circle cx="588.73" cy="178.3" r="2.6" fill="#F0A23B"></circle><circle cx="599.38" cy="178.34" r="2.6" fill="#F0A23B"></circle><circle cx="610.04" cy="151.77" r="2.6" fill="#F0A23B"></circle><circle cx="620.69" cy="137.32" r="2.6" fill="#F0A23B"></circle><circle cx="631.35" cy="181.99" r="2.6" fill="#F0A23B"></circle><circle cx="642" cy="180.58" r="2.6" fill="#F0A23B"></circle><polyline fill="none" stroke="#1F9CF0" stroke-width="2.4" stroke-linejoin="round" stroke-linecap="round" points="56,175.5 66.65,176.2 77.31,132.71 87.96,178.27 98.62,172 109.27,174.38 119.93,174.4 130.58,170.88 141.24,173.93 151.89,173.54 162.55,100.75 173.2,168.69 183.85,173.59 194.51,174.01 205.16,167.31 215.82,117.5 226.47,166.02 237.13,174.07 247.78,141.6 258.44,169.05 269.09,167.14 279.75,174.48 290.4,150.94 301.05,171.01 311.71,52.43 322.36,157.26 333.02,171.51 343.67,136.29 354.33,169.79 364.98,106.45 375.64,170.47 386.29,175.76 396.95,174.01 407.6,174.06 418.25,151.2 428.91,173.78 439.56,169.88 450.22,177.61 460.87,137.18 471.53,114.15 482.18,168.74 492.84,168.47 503.49,130.46 514.15,174.44 524.8,175.01 535.45,171.26 546.11,176.81 556.76,171.37 567.42,161.31 578.07,135.44 588.73,169.24 599.38,176.14 610.04,170.75 620.69,171.27 631.35,166.35 642,173.15"></polyline><circle cx="56" cy="175.5" r="2.6" fill="#1F9CF0"></circle><circle cx="66.65" cy="176.2" r="2.6" fill="#1F9CF0"></circle><circle cx="77.31" cy="132.71" r="2.6" fill="#1F9CF0"></circle><circle cx="87.96" cy="178.27" r="2.6" fill="#1F9CF0"></circle><circle cx="98.62" cy="172" r="2.6" fill="#1F9CF0"></circle><circle cx="109.27" cy="174.38" r="2.6" fill="#1F9CF0"></circle><circle cx="119.93" cy="174.4" r="2.6" fill="#1F9CF0"></circle><circle cx="130.58" cy="170.88" r="2.6" fill="#1F9CF0"></circle><circle cx="141.24" cy="173.93" r="2.6" fill="#1F9CF0"></circle><circle cx="151.89" cy="173.54" r="2.6" fill="#1F9CF0"></circle><circle cx="162.55" cy="100.75" r="2.6" fill="#1F9CF0"></circle><circle cx="173.2" cy="168.69" r="2.6" fill="#1F9CF0"></circle><circle cx="183.85" cy="173.59" r="2.6" fill="#1F9CF0"></circle><circle cx="194.51" cy="174.01" r="2.6" fill="#1F9CF0"></circle><circle cx="205.16" cy="167.31" r="2.6" fill="#1F9CF0"></circle><circle cx="215.82" cy="117.5" r="2.6" fill="#1F9CF0"></circle><circle cx="226.47" cy="166.02" r="2.6" fill="#1F9CF0"></circle><circle cx="237.13" cy="174.07" r="2.6" fill="#1F9CF0"></circle><circle cx="247.78" cy="141.6" r="2.6" fill="#1F9CF0"></circle><circle cx="258.44" cy="169.05" r="2.6" fill="#1F9CF0"></circle><circle cx="269.09" cy="167.14" r="2.6" fill="#1F9CF0"></circle><circle cx="279.75" cy="174.48" r="2.6" fill="#1F9CF0"></circle><circle cx="290.4" cy="150.94" r="2.6" fill="#1F9CF0"></circle><circle cx="301.05" cy="171.01" r="2.6" fill="#1F9CF0"></circle><circle cx="311.71" cy="52.43" r="2.6" fill="#1F9CF0"></circle><circle cx="322.36" cy="157.26" r="2.6" fill="#1F9CF0"></circle><circle cx="333.02" cy="171.51" r="2.6" fill="#1F9CF0"></circle><circle cx="343.67" cy="136.29" r="2.6" fill="#1F9CF0"></circle><circle cx="354.33" cy="169.79" r="2.6" fill="#1F9CF0"></circle><circle cx="364.98" cy="106.45" r="2.6" fill="#1F9CF0"></circle><circle cx="375.64" cy="170.47" r="2.6" fill="#1F9CF0"></circle><circle cx="386.29" cy="175.76" r="2.6" fill="#1F9CF0"></circle><circle cx="396.95" cy="174.01" r="2.6" fill="#1F9CF0"></circle><circle cx="407.6" cy="174.06" r="2.6" fill="#1F9CF0"></circle><circle cx="418.25" cy="151.2" r="2.6" fill="#1F9CF0"></circle><circle cx="428.91" cy="173.78" r="2.6" fill="#1F9CF0"></circle><circle cx="439.56" cy="169.88" r="2.6" fill="#1F9CF0"></circle><circle cx="450.22" cy="177.61" r="2.6" fill="#1F9CF0"></circle><circle cx="460.87" cy="137.18" r="2.6" fill="#1F9CF0"></circle><circle cx="471.53" cy="114.15" r="2.6" fill="#1F9CF0"></circle><circle cx="482.18" cy="168.74" r="2.6" fill="#1F9CF0"></circle><circle cx="492.84" cy="168.47" r="2.6" fill="#1F9CF0"></circle><circle cx="503.49" cy="130.46" r="2.6" fill="#1F9CF0"></circle><circle cx="514.15" cy="174.44" r="2.6" fill="#1F9CF0"></circle><circle cx="524.8" cy="175.01" r="2.6" fill="#1F9CF0"></circle><circle cx="535.45" cy="171.26" r="2.6" fill="#1F9CF0"></circle><circle cx="546.11" cy="176.81" r="2.6" fill="#1F9CF0"></circle><circle cx="556.76" cy="171.37" r="2.6" fill="#1F9CF0"></circle><circle cx="567.42" cy="161.31" r="2.6" fill="#1F9CF0"></circle><circle cx="578.07" cy="135.44" r="2.6" fill="#1F9CF0"></circle><circle cx="588.73" cy="169.24" r="2.6" fill="#1F9CF0"></circle><circle cx="599.38" cy="176.14" r="2.6" fill="#1F9CF0"></circle><circle cx="610.04" cy="170.75" r="2.6" fill="#1F9CF0"></circle><circle cx="620.69" cy="171.27" r="2.6" fill="#1F9CF0"></circle><circle cx="631.35" cy="166.35" r="2.6" fill="#1F9CF0"></circle><circle cx="642" cy="173.15" r="2.6" fill="#1F9CF0"></circle><line x1="656" y1="27" x2="672" y2="27" stroke="#6366F1" stroke-width="3" stroke-linecap="round"></line><text x="678" y="30" font-size="11" font-weight="400" text-anchor="start" fill="#1f2328">deepseek</text><line x1="656" y1="47" x2="672" y2="47" stroke="#A371F7" stroke-width="3" stroke-linecap="round"></line><text x="678" y="50" font-size="11" font-weight="400" text-anchor="start" fill="#1f2328">llama</text><line x1="656" y1="67" x2="672" y2="67" stroke="#F0A23B" stroke-width="3" stroke-linecap="round"></line><text x="678" y="70" font-size="11" font-weight="400" text-anchor="start" fill="#1f2328">mistral</text><line x1="656" y1="87" x2="672" y2="87" stroke="#1F9CF0" stroke-width="3" stroke-linecap="round"></line><text x="678" y="90" font-size="11" font-weight="400" text-anchor="start" fill="#1f2328">openai</text></svg>
