<svg xmlns="http://www.w3.org/2000/svg" viewBox="0 0 760 348" width="760" height="348" role="img" aria-label="Cost per test by provider over runs — mistral highest, deepseek lowest" font-family="-apple-system,BlinkMacSystemFont,'Segoe UI',system-ui,sans-serif"><line x1="56" y1="306" x2="642" y2="306" stroke="#30363d" stroke-width="1"></line><text x="46" y="310" font-size="9.5" font-weight="400" text-anchor="end" fill="#8b949e" font-family="ui-monospace,SFMono-Regular,Menlo,monospace">$0.000</text><line x1="56" y1="235" x2="642" y2="235" stroke="#30363d" stroke-width="1"></line><text x="46" y="239" font-size="9.5" font-weight="400" text-anchor="end" fill="#8b949e" font-family="ui-monospace,SFMono-Regular,Menlo,monospace">$0.039</text><line x1="56" y1="164" x2="642" y2="164" stroke="#30363d" stroke-width="1"></line><text x="46" y="168" font-size="9.5" font-weight="400" text-anchor="end" fill="#8b949e" font-family="ui-monospace,SFMono-Regular,Menlo,monospace">$0.079</text><line x1="56" y1="93" x2="642" y2="93" stroke="#30363d" stroke-width="1"></line><text x="46" y="97" font-size="9.5" font-weight="400" text-anchor="end" fill="#8b949e" font-family="ui-monospace,SFMono-Regular,Menlo,monospace">$0.118</text><line x1="56" y1="22" x2="642" y2="22" stroke="#30363d" stroke-width="1"></line><text x="46" y="26" font-size="9.5" font-weight="400" text-anchor="end" fill="#8b949e" font-family="ui-monospace,SFMono-Regular,Menlo,monospace">$0.158</text><text x="56" y="324" font-size="9.5" font-weight="400" text-anchor="middle" fill="#8b949e" font-family="ui-monospace,SFMono-Regular,Menlo,monospace">06/06</text><text x="110.69" y="324" font-size="9.5" font-weight="400" text-anchor="middle" fill="#8b949e" font-family="ui-monospace,SFMono-Regular,Menlo,monospace">06/08</text><text x="165.39" y="324" font-size="9.5" font-weight="400" text-anchor="middle" fill="#8b949e" font-family="ui-monospace,SFMono-Regular,Menlo,monospace">06/09</text><text x="220.08" y="324" font-size="9.5" font-weight="400" text-anchor="middle" fill="#8b949e" font-family="ui-monospace,SFMono-Regular,Menlo,monospace">06/10</text><text x="274.77" y="324" font-size="9.5" font-weight="400" text-anchor="middle" fill="#8b949e" font-family="ui-monospace,SFMono-Regular,Menlo,monospace">06/14</text><text x="329.47" y="324" font-size="9.5" font-weight="400" text-anchor="middle" fill="#8b949e" font-family="ui-monospace,SFMono-Regular,Menlo,monospace">06/15</text><text x="384.16" y="324" font-size="9.5" font-weight="400" text-anchor="middle" fill="#8b949e" font-family="ui-monospace,SFMono-Regular,Menlo,monospace">06/16</text><text x="438.85" y="324" font-size="9.5" font-weight="400" text-anchor="middle" fill="#8b949e" font-family="ui-monospace,SFMono-Regular,Menlo,monospace">06/18</text><text x="493.55" y="324" font-size="9.5" font-weight="400" text-anchor="middle" fill="#8b949e" font-family="ui-monospace,SFMono-Regular,Menlo,monospace">06/20</text><text x="548.24" y="324" font-size="9.5" font-weight="400" text-anchor="middle" fill="#8b949e" font-family="ui-monospace,SFMono-Regular,Menlo,monospace">06/22</text><text x="602.93" y="324" font-size="9.5" font-weight="400" text-anchor="middle" fill="#8b949e" font-family="ui-monospace,SFMono-Regular,Menlo,monospace">06/23</text><text x="642" y="324" font-size="9.5" font-weight="400" text-anchor="middle" fill="#8b949e" font-family="ui-monospace,SFMono-Regular,Menlo,monospace">06/24</text><polyline fill="none" stroke="#6366F1" stroke-width="2.4" stroke-linejoin="round" stroke-linecap="round" points="118.51,291.99 126.32,292.07 134.13,292.82 141.95,291.48 149.76,291.75 157.57,285.29 165.39,293.05 173.2,290.23 181.01,290.29 188.83,289.78 196.64,291.61 204.45,290.27 212.27,286.66 220.08,290.55 227.89,286.99 235.71,293.02 243.52,290.61 251.33,286.59 259.15,283.56 266.96,290.63 274.77,289.42 282.59,292.33 290.4,288.36 298.21,284.88 306.03,291.34 313.84,290.13 321.65,291.01 329.47,289.68 345.09,289.04 352.91,291.5 360.72,291.97 368.53,289.14 376.35,289.37 384.16,290.04 391.97,290.81 399.79,291.39 407.6,292 423.23,292.33 431.04,292.51 438.85,290.75 446.67,289.5 454.48,289.4 462.29,282.59 470.11,289.91 477.92,286.79 485.73,288.79 493.55,286.98 501.36,290.22 509.17,291.94 516.99,292.7 524.8,281.08 532.61,292.31 540.43,290.28 548.24,286.5 556.05,289 563.87,289.95 571.68,291.41 579.49,290.81 587.31,291 595.12,290.42 602.93,289.99 610.75,284.38 618.56,292.31 626.37,291.62 634.19,287.31 642,291.89"></polyline><circle cx="118.51" cy="291.99" r="2.6" fill="#6366F1"></circle><circle cx="126.32" cy="292.07" r="2.6" fill="#6366F1"></circle><circle cx="134.13" cy="292.82" r="2.6" fill="#6366F1"></circle><circle cx="141.95" cy="291.48" r="2.6" fill="#6366F1"></circle><circle cx="149.76" cy="291.75" r="2.6" fill="#6366F1"></circle><circle cx="157.57" cy="285.29" r="2.6" fill="#6366F1"></circle><circle cx="165.39" cy="293.05" r="2.6" fill="#6366F1"></circle><circle cx="173.2" cy="290.23" r="2.6" fill="#6366F1"></circle><circle cx="181.01" cy="290.29" r="2.6" fill="#6366F1"></circle><circle cx="188.83" cy="289.78" r="2.6" fill="#6366F1"></circle><circle cx="196.64" cy="291.61" r="2.6" fill="#6366F1"></circle><circle cx="204.45" cy="290.27" r="2.6" fill="#6366F1"></circle><circle cx="212.27" cy="286.66" r="2.6" fill="#6366F1"></circle><circle cx="220.08" cy="290.55" r="2.6" fill="#6366F1"></circle><circle cx="227.89" cy="286.99" r="2.6" fill="#6366F1"></circle><circle cx="235.71" cy="293.02" r="2.6" fill="#6366F1"></circle><circle cx="243.52" cy="290.61" r="2.6" fill="#6366F1"></circle><circle cx="251.33" cy="286.59" r="2.6" fill="#6366F1"></circle><circle cx="259.15" cy="283.56" r="2.6" fill="#6366F1"></circle><circle cx="266.96" cy="290.63" r="2.6" fill="#6366F1"></circle><circle cx="274.77" cy="289.42" r="2.6" fill="#6366F1"></circle><circle cx="282.59" cy="292.33" r="2.6" fill="#6366F1"></circle><circle cx="290.4" cy="288.36" r="2.6" fill="#6366F1"></circle><circle cx="298.21" cy="284.88" r="2.6" fill="#6366F1"></circle><circle cx="306.03" cy="291.34" r="2.6" fill="#6366F1"></circle><circle cx="313.84" cy="290.13" r="2.6" fill="#6366F1"></circle><circle cx="321.65" cy="291.01" r="2.6" fill="#6366F1"></circle><circle cx="329.47" cy="289.68" r="2.6" fill="#6366F1"></circle><circle cx="345.09" cy="289.04" r="2.6" fill="#6366F1"></circle><circle cx="352.91" cy="291.5" r="2.6" fill="#6366F1"></circle><circle cx="360.72" cy="291.97" r="2.6" fill="#6366F1"></circle><circle cx="368.53" cy="289.14" r="2.6" fill="#6366F1"></circle><circle cx="376.35" cy="289.37" r="2.6" fill="#6366F1"></circle><circle cx="384.16" cy="290.04" r="2.6" fill="#6366F1"></circle><circle cx="391.97" cy="290.81" r="2.6" fill="#6366F1"></circle><circle cx="399.79" cy="291.39" r="2.6" fill="#6366F1"></circle><circle cx="407.6" cy="292" r="2.6" fill="#6366F1"></circle><circle cx="423.23" cy="292.33" r="2.6" fill="#6366F1"></circle><circle cx="431.04" cy="292.51" r="2.6" fill="#6366F1"></circle><circle cx="438.85" cy="290.75" r="2.6" fill="#6366F1"></circle><circle cx="446.67" cy="289.5" r="2.6" fill="#6366F1"></circle><circle cx="454.48" cy="289.4" r="2.6" fill="#6366F1"></circle><circle cx="462.29" cy="282.59" r="2.6" fill="#6366F1"></circle><circle cx="470.11" cy="289.91" r="2.6" fill="#6366F1"></circle><circle cx="477.92" cy="286.79" r="2.6" fill="#6366F1"></circle><circle cx="485.73" cy="288.79" r="2.6" fill="#6366F1"></circle><circle cx="493.55" cy="286.98" r="2.6" fill="#6366F1"></circle><circle cx="501.36" cy="290.22" r="2.6" fill="#6366F1"></circle><circle cx="509.17" cy="291.94" r="2.6" fill="#6366F1"></circle><circle cx="516.99" cy="292.7" r="2.6" fill="#6366F1"></circle><circle cx="524.8" cy="281.08" r="2.6" fill="#6366F1"></circle><circle cx="532.61" cy="292.31" r="2.6" fill="#6366F1"></circle><circle cx="540.43" cy="290.28" r="2.6" fill="#6366F1"></circle><circle cx="548.24" cy="286.5" r="2.6" fill="#6366F1"></circle><circle cx="556.05" cy="289" r="2.6" fill="#6366F1"></circle><circle cx="563.87" cy="289.95" r="2.6" fill="#6366F1"></circle><circle cx="571.68" cy="291.41" r="2.6" fill="#6366F1"></circle><circle cx="579.49" cy="290.81" r="2.6" fill="#6366F1"></circle><circle cx="587.31" cy="291" r="2.6" fill="#6366F1"></circle><circle cx="595.12" cy="290.42" r="2.6" fill="#6366F1"></circle><circle cx="602.93" cy="289.99" r="2.6" fill="#6366F1"></circle><circle cx="610.75" cy="284.38" r="2.6" fill="#6366F1"></circle><circle cx="618.56" cy="292.31" r="2.6" fill="#6366F1"></circle><circle cx="626.37" cy="291.62" r="2.6" fill="#6366F1"></circle><circle cx="634.19" cy="287.31" r="2.6" fill="#6366F1"></circle><circle cx="642" cy="291.89" r="2.6" fill="#6366F1"></circle><polyline fill="none" stroke="#A371F7" stroke-width="2.4" stroke-linejoin="round" stroke-linecap="round" points="56,226.25 63.81,237.88 71.63,241.73 79.44,223.38 87.25,231.64 95.07,243.09 102.88,237.81 110.69,230.14 118.51,233.83 126.32,241.12 134.13,233.75 141.95,230.9 149.76,235.83 157.57,217.13 165.39,237.29 173.2,230.7 181.01,240.49 188.83,241.09 196.64,218.17 204.45,232.28 212.27,201.8 220.08,239.78 227.89,242.88 235.71,229.56 243.52,227.31 251.33,231.21 259.15,233.26 266.96,230.48 274.77,240.31 282.59,235.36 290.4,231.03 298.21,237.98 306.03,242.74 313.84,217.94 321.65,237.38 329.47,239.39 345.09,216.58 352.91,239.81 360.72,230.21 376.35,230.86 384.16,240.78 391.97,241.27 399.79,237.28 407.6,234.45 415.41,237.03 423.23,237.6 431.04,235.95 438.85,225.98 446.67,230.74 454.48,232.09 462.29,238.44 470.11,233.93 477.92,237.36 485.73,236.2 501.36,238.07 509.17,232.58 524.8,227.45 532.61,236.55 540.43,232.02 548.24,240.47 556.05,213.84 563.87,238.7 571.68,238.88 579.49,241.18 587.31,233.39 595.12,234.63 602.93,239.11 618.56,240.21 626.37,229.42 634.19,240.04 642,237.25"></polyline><circle cx="56" cy="226.25" r="2.6" fill="#A371F7"></circle><circle cx="63.81" cy="237.88" r="2.6" fill="#A371F7"></circle><circle cx="71.63" cy="241.73" r="2.6" fill="#A371F7"></circle><circle cx="79.44" cy="223.38" r="2.6" fill="#A371F7"></circle><circle cx="87.25" cy="231.64" r="2.6" fill="#A371F7"></circle><circle cx="95.07" cy="243.09" r="2.6" fill="#A371F7"></circle><circle cx="102.88" cy="237.81" r="2.6" fill="#A371F7"></circle><circle cx="110.69" cy="230.14" r="2.6" fill="#A371F7"></circle><circle cx="118.51" cy="233.83" r="2.6" fill="#A371F7"></circle><circle cx="126.32" cy="241.12" r="2.6" fill="#A371F7"></circle><circle cx="134.13" cy="233.75" r="2.6" fill="#A371F7"></circle><circle cx="141.95" cy="230.9" r="2.6" fill="#A371F7"></circle><circle cx="149.76" cy="235.83" r="2.6" fill="#A371F7"></circle><circle cx="157.57" cy="217.13" r="2.6" fill="#A371F7"></circle><circle cx="165.39" cy="237.29" r="2.6" fill="#A371F7"></circle><circle cx="173.2" cy="230.7" r="2.6" fill="#A371F7"></circle><circle cx="181.01" cy="240.49" r="2.6" fill="#A371F7"></circle><circle cx="188.83" cy="241.09" r="2.6" fill="#A371F7"></circle><circle cx="196.64" cy="218.17" r="2.6" fill="#A371F7"></circle><circle cx="204.45" cy="232.28" r="2.6" fill="#A371F7"></circle><circle cx="212.27" cy="201.8" r="2.6" fill="#A371F7"></circle><circle cx="220.08" cy="239.78" r="2.6" fill="#A371F7"></circle><circle cx="227.89" cy="242.88" r="2.6" fill="#A371F7"></circle><circle cx="235.71" cy="229.56" r="2.6" fill="#A371F7"></circle><circle cx="243.52" cy="227.31" r="2.6" fill="#A371F7"></circle><circle cx="251.33" cy="231.21" r="2.6" fill="#A371F7"></circle><circle cx="259.15" cy="233.26" r="2.6" fill="#A371F7"></circle><circle cx="266.96" cy="230.48" r="2.6" fill="#A371F7"></circle><circle cx="274.77" cy="240.31" r="2.6" fill="#A371F7"></circle><circle cx="282.59" cy="235.36" r="2.6" fill="#A371F7"></circle><circle cx="290.4" cy="231.03" r="2.6" fill="#A371F7"></circle><circle cx="298.21" cy="237.98" r="2.6" fill="#A371F7"></circle><circle cx="306.03" cy="242.74" r="2.6" fill="#A371F7"></circle><circle cx="313.84" cy="217.94" r="2.6" fill="#A371F7"></circle><circle cx="321.65" cy="237.38" r="2.6" fill="#A371F7"></circle><circle cx="329.47" cy="239.39" r="2.6" fill="#A371F7"></circle><circle cx="345.09" cy="216.58" r="2.6" fill="#A371F7"></circle><circle cx="352.91" cy="239.81" r="2.6" fill="#A371F7"></circle><circle cx="360.72" cy="230.21" r="2.6" fill="#A371F7"></circle><circle cx="376.35" cy="230.86" r="2.6" fill="#A371F7"></circle><circle cx="384.16" cy="240.78" r="2.6" fill="#A371F7"></circle><circle cx="391.97" cy="241.27" r="2.6" fill="#A371F7"></circle><circle cx="399.79" cy="237.28" r="2.6" fill="#A371F7"></circle><circle cx="407.6" cy="234.45" r="2.6" fill="#A371F7"></circle><circle cx="415.41" cy="237.03" r="2.6" fill="#A371F7"></circle><circle cx="423.23" cy="237.6" r="2.6" fill="#A371F7"></circle><circle cx="431.04" cy="235.95" r="2.6" fill="#A371F7"></circle><circle cx="438.85" cy="225.98" r="2.6" fill="#A371F7"></circle><circle cx="446.67" cy="230.74" r="2.6" fill="#A371F7"></circle><circle cx="454.48" cy="232.09" r="2.6" fill="#A371F7"></circle><circle cx="462.29" cy="238.44" r="2.6" fill="#A371F7"></circle><circle cx="470.11" cy="233.93" r="2.6" fill="#A371F7"></circle><circle cx="477.92" cy="237.36" r="2.6" fill="#A371F7"></circle><circle cx="485.73" cy="236.2" r="2.6" fill="#A371F7"></circle><circle cx="501.36" cy="238.07" r="2.6" fill="#A371F7"></circle><circle cx="509.17" cy="232.58" r="2.6" fill="#A371F7"></circle><circle cx="524.8" cy="227.45" r="2.6" fill="#A371F7"></circle><circle cx="532.61" cy="236.55" r="2.6" fill="#A371F7"></circle><circle cx="540.43" cy="232.02" r="2.6" fill="#A371F7"></circle><circle cx="548.24" cy="240.47" r="2.6" fill="#A371F7"></circle><circle cx="556.05" cy="213.84" r="2.6" fill="#A371F7"></circle><circle cx="563.87" cy="238.7" r="2.6" fill="#A371F7"></circle><circle cx="571.68" cy="238.88" r="2.6" fill="#A371F7"></circle><circle cx="579.49" cy="241.18" r="2.6" fill="#A371F7"></circle><circle cx="587.31" cy="233.39" r="2.6" fill="#A371F7"></circle><circle cx="595.12" cy="234.63" r="2.6" fill="#A371F7"></circle><circle cx="602.93" cy="239.11" r="2.6" fill="#A371F7"></circle><circle cx="618.56" cy="240.21" r="2.6" fill="#A371F7"></circle><circle cx="626.37" cy="229.42" r="2.6" fill="#A371F7"></circle><circle cx="634.19" cy="240.04" r="2.6" fill="#A371F7"></circle><circle cx="642" cy="237.25" r="2.6" fill="#A371F7"></circle><polyline fill="none" stroke="#F0A23B" stroke-width="2.4" stroke-linejoin="round" stroke-linecap="round" points="56,162.13 63.81,151.29 71.63,72.27 79.44,170.58 87.25,165.15 95.07,168.63 102.88,155.58 110.69,155.2 118.51,151.03 126.32,159.37 134.13,151 141.95,152 149.76,154.31 157.57,162.54 165.39,145.36 173.2,160.82 181.01,153.52 188.83,158.63 196.64,172.35 204.45,162.23 212.27,168.2 220.08,164.28 227.89,98 235.71,164.92 243.52,167.19 251.33,163.76 259.15,165.84 266.96,134.6 274.77,163 282.59,144.13 290.4,165.52 298.21,134.8 306.03,167.11 313.84,166.07 321.65,54.66 329.47,77.46 337.28,164.62 345.09,166.72 352.91,166.65 360.72,162.93 368.53,164.9 376.35,170.21 384.16,169.23 391.97,114.96 399.79,165.27 407.6,165.44 415.41,99.36 423.23,161.79 431.04,138.56 438.85,167.81 446.67,164.51 454.48,164.55 462.29,135.11 470.11,119.1 477.92,168.6 485.73,167.03 493.55,169.7 501.36,164.27 509.17,168.02 516.99,163.89 524.8,99.72 532.61,166.55 540.43,163.57 548.24,163.91 556.05,164.36 563.87,166.86 571.68,166.95 579.49,52.43 587.31,166.52 595.12,165.82 602.93,164.59 618.56,164.21 626.37,164.24 634.19,161.69 642,156.02"></polyline><circle cx="56" cy="162.13" r="2.6" fill="#F0A23B"></circle><circle cx="63.81" cy="151.29" r="2.6" fill="#F0A23B"></circle><circle cx="71.63" cy="72.27" r="2.6" fill="#F0A23B"></circle><circle cx="79.44" cy="170.58" r="2.6" fill="#F0A23B"></circle><circle cx="87.25" cy="165.15" r="2.6" fill="#F0A23B"></circle><circle cx="95.07" cy="168.63" r="2.6" fill="#F0A23B"></circle><circle cx="102.88" cy="155.58" r="2.6" fill="#F0A23B"></circle><circle cx="110.69" cy="155.2" r="2.6" fill="#F0A23B"></circle><circle cx="118.51" cy="151.03" r="2.6" fill="#F0A23B"></circle><circle cx="126.32" cy="159.37" r="2.6" fill="#F0A23B"></circle><circle cx="134.13" cy="151" r="2.6" fill="#F0A23B"></circle><circle cx="141.95" cy="152" r="2.6" fill="#F0A23B"></circle><circle cx="149.76" cy="154.31" r="2.6" fill="#F0A23B"></circle><circle cx="157.57" cy="162.54" r="2.6" fill="#F0A23B"></circle><circle cx="165.39" cy="145.36" r="2.6" fill="#F0A23B"></circle><circle cx="173.2" cy="160.82" r="2.6" fill="#F0A23B"></circle><circle cx="181.01" cy="153.52" r="2.6" fill="#F0A23B"></circle><circle cx="188.83" cy="158.63" r="2.6" fill="#F0A23B"></circle><circle cx="196.64" cy="172.35" r="2.6" fill="#F0A23B"></circle><circle cx="204.45" cy="162.23" r="2.6" fill="#F0A23B"></circle><circle cx="212.27" cy="168.2" r="2.6" fill="#F0A23B"></circle><circle cx="220.08" cy="164.28" r="2.6" fill="#F0A23B"></circle><circle cx="227.89" cy="98" r="2.6" fill="#F0A23B"></circle><circle cx="235.71" cy="164.92" r="2.6" fill="#F0A23B"></circle><circle cx="243.52" cy="167.19" r="2.6" fill="#F0A23B"></circle><circle cx="251.33" cy="163.76" r="2.6" fill="#F0A23B"></circle><circle cx="259.15" cy="165.84" r="2.6" fill="#F0A23B"></circle><circle cx="266.96" cy="134.6" r="2.6" fill="#F0A23B"></circle><circle cx="274.77" cy="163" r="2.6" fill="#F0A23B"></circle><circle cx="282.59" cy="144.13" r="2.6" fill="#F0A23B"></circle><circle cx="290.4" cy="165.52" r="2.6" fill="#F0A23B"></circle><circle cx="298.21" cy="134.8" r="2.6" fill="#F0A23B"></circle><circle cx="306.03" cy="167.11" r="2.6" fill="#F0A23B"></circle><circle cx="313.84" cy="166.07" r="2.6" fill="#F0A23B"></circle><circle cx="321.65" cy="54.66" r="2.6" fill="#F0A23B"></circle><circle cx="329.47" cy="77.46" r="2.6" fill="#F0A23B"></circle><circle cx="337.28" cy="164.62" r="2.6" fill="#F0A23B"></circle><circle cx="345.09" cy="166.72" r="2.6" fill="#F0A23B"></circle><circle cx="352.91" cy="166.65" r="2.6" fill="#F0A23B"></circle><circle cx="360.72" cy="162.93" r="2.6" fill="#F0A23B"></circle><circle cx="368.53" cy="164.9" r="2.6" fill="#F0A23B"></circle><circle cx="376.35" cy="170.21" r="2.6" fill="#F0A23B"></circle><circle cx="384.16" cy="169.23" r="2.6" fill="#F0A23B"></circle><circle cx="391.97" cy="114.96" r="2.6" fill="#F0A23B"></circle><circle cx="399.79" cy="165.27" r="2.6" fill="#F0A23B"></circle><circle cx="407.6" cy="165.44" r="2.6" fill="#F0A23B"></circle><circle cx="415.41" cy="99.36" r="2.6" fill="#F0A23B"></circle><circle cx="423.23" cy="161.79" r="2.6" fill="#F0A23B"></circle><circle cx="431.04" cy="138.56" r="2.6" fill="#F0A23B"></circle><circle cx="438.85" cy="167.81" r="2.6" fill="#F0A23B"></circle><circle cx="446.67" cy="164.51" r="2.6" fill="#F0A23B"></circle><circle cx="454.48" cy="164.55" r="2.6" fill="#F0A23B"></circle><circle cx="462.29" cy="135.11" r="2.6" fill="#F0A23B"></circle><circle cx="470.11" cy="119.1" r="2.6" fill="#F0A23B"></circle><circle cx="477.92" cy="168.6" r="2.6" fill="#F0A23B"></circle><circle cx="485.73" cy="167.03" r="2.6" fill="#F0A23B"></circle><circle cx="493.55" cy="169.7" r="2.6" fill="#F0A23B"></circle><circle cx="501.36" cy="164.27" r="2.6" fill="#F0A23B"></circle><circle cx="509.17" cy="168.02" r="2.6" fill="#F0A23B"></circle><circle cx="516.99" cy="163.89" r="2.6" fill="#F0A23B"></circle><circle cx="524.8" cy="99.72" r="2.6" fill="#F0A23B"></circle><circle cx="532.61" cy="166.55" r="2.6" fill="#F0A23B"></circle><circle cx="540.43" cy="163.57" r="2.6" fill="#F0A23B"></circle><circle cx="548.24" cy="163.91" r="2.6" fill="#F0A23B"></circle><circle cx="556.05" cy="164.36" r="2.6" fill="#F0A23B"></circle><circle cx="563.87" cy="166.86" r="2.6" fill="#F0A23B"></circle><circle cx="571.68" cy="166.95" r="2.6" fill="#F0A23B"></circle><circle cx="579.49" cy="52.43" r="2.6" fill="#F0A23B"></circle><circle cx="587.31" cy="166.52" r="2.6" fill="#F0A23B"></circle><circle cx="595.12" cy="165.82" r="2.6" fill="#F0A23B"></circle><circle cx="602.93" cy="164.59" r="2.6" fill="#F0A23B"></circle><circle cx="618.56" cy="164.21" r="2.6" fill="#F0A23B"></circle><circle cx="626.37" cy="164.24" r="2.6" fill="#F0A23B"></circle><circle cx="634.19" cy="161.69" r="2.6" fill="#F0A23B"></circle><circle cx="642" cy="156.02" r="2.6" fill="#F0A23B"></circle><line x1="656" y1="27" x2="672" y2="27" stroke="#6366F1" stroke-width="3" stroke-linecap="round"></line><text x="678" y="30" font-size="11" font-weight="400" text-anchor="start" fill="#e6edf3">deepseek</text><line x1="656" y1="47" x2="672" y2="47" stroke="#A371F7" stroke-width="3" stroke-linecap="round"></line><text x="678" y="50" font-size="11" font-weight="400" text-anchor="start" fill="#e6edf3">llama</text><line x1="656" y1="67" x2="672" y2="67" stroke="#F0A23B" stroke-width="3" stroke-linecap="round"></line><text x="678" y="70" font-size="11" font-weight="400" text-anchor="start" fill="#e6edf3">mistral</text></svg>
