<svg xmlns="http://www.w3.org/2000/svg" viewBox="0 0 760 348" width="760" height="348" role="img" aria-label="Cost per test by provider over runs — mistral highest, deepseek lowest" font-family="-apple-system,BlinkMacSystemFont,'Segoe UI',system-ui,sans-serif"><line x1="56" y1="306" x2="642" y2="306" stroke="#d8dee4" stroke-width="1"></line><text x="46" y="310" font-size="9.5" font-weight="400" text-anchor="end" fill="#656d76" font-family="ui-monospace,SFMono-Regular,Menlo,monospace">$0.000</text><line x1="56" y1="235" x2="642" y2="235" stroke="#d8dee4" stroke-width="1"></line><text x="46" y="239" font-size="9.5" font-weight="400" text-anchor="end" fill="#656d76" font-family="ui-monospace,SFMono-Regular,Menlo,monospace">$0.039</text><line x1="56" y1="164" x2="642" y2="164" stroke="#d8dee4" stroke-width="1"></line><text x="46" y="168" font-size="9.5" font-weight="400" text-anchor="end" fill="#656d76" font-family="ui-monospace,SFMono-Regular,Menlo,monospace">$0.079</text><line x1="56" y1="93" x2="642" y2="93" stroke="#d8dee4" stroke-width="1"></line><text x="46" y="97" font-size="9.5" font-weight="400" text-anchor="end" fill="#656d76" font-family="ui-monospace,SFMono-Regular,Menlo,monospace">$0.118</text><line x1="56" y1="22" x2="642" y2="22" stroke="#d8dee4" stroke-width="1"></line><text x="46" y="26" font-size="9.5" font-weight="400" text-anchor="end" fill="#656d76" font-family="ui-monospace,SFMono-Regular,Menlo,monospace">$0.158</text><text x="56" y="324" font-size="9.5" font-weight="400" text-anchor="middle" fill="#656d76" font-family="ui-monospace,SFMono-Regular,Menlo,monospace">06/06</text><text x="107.92" y="324" font-size="9.5" font-weight="400" text-anchor="middle" fill="#656d76" font-family="ui-monospace,SFMono-Regular,Menlo,monospace">06/08</text><text x="159.85" y="324" font-size="9.5" font-weight="400" text-anchor="middle" fill="#656d76" font-family="ui-monospace,SFMono-Regular,Menlo,monospace">06/09</text><text x="211.77" y="324" font-size="9.5" font-weight="400" text-anchor="middle" fill="#656d76" font-family="ui-monospace,SFMono-Regular,Menlo,monospace">06/10</text><text x="263.7" y="324" font-size="9.5" font-weight="400" text-anchor="middle" fill="#656d76" font-family="ui-monospace,SFMono-Regular,Menlo,monospace">06/14</text><text x="315.62" y="324" font-size="9.5" font-weight="400" text-anchor="middle" fill="#656d76" font-family="ui-monospace,SFMono-Regular,Menlo,monospace">06/15</text><text x="367.54" y="324" font-size="9.5" font-weight="400" text-anchor="middle" fill="#656d76" font-family="ui-monospace,SFMono-Regular,Menlo,monospace">06/16</text><text x="419.47" y="324" font-size="9.5" font-weight="400" text-anchor="middle" fill="#656d76" font-family="ui-monospace,SFMono-Regular,Menlo,monospace">06/18</text><text x="471.39" y="324" font-size="9.5" font-weight="400" text-anchor="middle" fill="#656d76" font-family="ui-monospace,SFMono-Regular,Menlo,monospace">06/20</text><text x="523.32" y="324" font-size="9.5" font-weight="400" text-anchor="middle" fill="#656d76" font-family="ui-monospace,SFMono-Regular,Menlo,monospace">06/22</text><text x="575.24" y="324" font-size="9.5" font-weight="400" text-anchor="middle" fill="#656d76" font-family="ui-monospace,SFMono-Regular,Menlo,monospace">06/23</text><text x="627.16" y="324" font-size="9.5" font-weight="400" text-anchor="middle" fill="#656d76" font-family="ui-monospace,SFMono-Regular,Menlo,monospace">06/24</text><text x="642" y="324" font-size="9.5" font-weight="400" text-anchor="middle" fill="#656d76" font-family="ui-monospace,SFMono-Regular,Menlo,monospace">06/25</text><polyline fill="none" stroke="#6366F1" stroke-width="2.4" stroke-linejoin="round" stroke-linecap="round" points="115.34,291.99 122.76,292.07 130.18,292.82 137.59,291.48 145.01,291.75 152.43,285.29 159.85,293.05 167.27,290.23 174.68,290.29 182.1,289.78 189.52,291.61 196.94,290.27 204.35,286.66 211.77,290.55 219.19,286.99 226.61,293.02 234.03,290.61 241.44,286.59 248.86,283.56 256.28,290.63 263.7,289.42 271.11,292.33 278.53,288.36 285.95,284.88 293.37,291.34 300.78,290.13 308.2,291.01 315.62,289.68 330.46,289.04 337.87,291.5 345.29,291.97 352.71,289.14 360.13,289.37 367.54,290.04 374.96,290.81 382.38,291.39 389.8,292 404.63,292.33 412.05,292.51 419.47,290.75 426.89,289.5 434.3,289.4 441.72,282.59 449.14,289.91 456.56,286.79 463.97,288.79 471.39,286.98 478.81,290.22 486.23,291.94 493.65,292.7 501.06,281.08 508.48,292.31 515.9,290.28 523.32,286.5 530.73,289 538.15,289.95 545.57,291.41 552.99,290.81 560.41,291 567.82,290.42 575.24,289.99 582.66,284.38 590.08,292.31 597.49,291.62 604.91,287.31 612.33,291.89 619.75,292.21 627.16,288.97 634.58,292.99 642,290.59"></polyline><circle cx="115.34" cy="291.99" r="2.6" fill="#6366F1"></circle><circle cx="122.76" cy="292.07" r="2.6" fill="#6366F1"></circle><circle cx="130.18" cy="292.82" r="2.6" fill="#6366F1"></circle><circle cx="137.59" cy="291.48" r="2.6" fill="#6366F1"></circle><circle cx="145.01" cy="291.75" r="2.6" fill="#6366F1"></circle><circle cx="152.43" cy="285.29" r="2.6" fill="#6366F1"></circle><circle cx="159.85" cy="293.05" r="2.6" fill="#6366F1"></circle><circle cx="167.27" cy="290.23" r="2.6" fill="#6366F1"></circle><circle cx="174.68" cy="290.29" r="2.6" fill="#6366F1"></circle><circle cx="182.1" cy="289.78" r="2.6" fill="#6366F1"></circle><circle cx="189.52" cy="291.61" r="2.6" fill="#6366F1"></circle><circle cx="196.94" cy="290.27" r="2.6" fill="#6366F1"></circle><circle cx="204.35" cy="286.66" r="2.6" fill="#6366F1"></circle><circle cx="211.77" cy="290.55" r="2.6" fill="#6366F1"></circle><circle cx="219.19" cy="286.99" r="2.6" fill="#6366F1"></circle><circle cx="226.61" cy="293.02" r="2.6" fill="#6366F1"></circle><circle cx="234.03" cy="290.61" r="2.6" fill="#6366F1"></circle><circle cx="241.44" cy="286.59" r="2.6" fill="#6366F1"></circle><circle cx="248.86" cy="283.56" r="2.6" fill="#6366F1"></circle><circle cx="256.28" cy="290.63" r="2.6" fill="#6366F1"></circle><circle cx="263.7" cy="289.42" r="2.6" fill="#6366F1"></circle><circle cx="271.11" cy="292.33" r="2.6" fill="#6366F1"></circle><circle cx="278.53" cy="288.36" r="2.6" fill="#6366F1"></circle><circle cx="285.95" cy="284.88" r="2.6" fill="#6366F1"></circle><circle cx="293.37" cy="291.34" r="2.6" fill="#6366F1"></circle><circle cx="300.78" cy="290.13" r="2.6" fill="#6366F1"></circle><circle cx="308.2" cy="291.01" r="2.6" fill="#6366F1"></circle><circle cx="315.62" cy="289.68" r="2.6" fill="#6366F1"></circle><circle cx="330.46" cy="289.04" r="2.6" fill="#6366F1"></circle><circle cx="337.87" cy="291.5" r="2.6" fill="#6366F1"></circle><circle cx="345.29" cy="291.97" r="2.6" fill="#6366F1"></circle><circle cx="352.71" cy="289.14" r="2.6" fill="#6366F1"></circle><circle cx="360.13" cy="289.37" r="2.6" fill="#6366F1"></circle><circle cx="367.54" cy="290.04" r="2.6" fill="#6366F1"></circle><circle cx="374.96" cy="290.81" r="2.6" fill="#6366F1"></circle><circle cx="382.38" cy="291.39" r="2.6" fill="#6366F1"></circle><circle cx="389.8" cy="292" r="2.6" fill="#6366F1"></circle><circle cx="404.63" cy="292.33" r="2.6" fill="#6366F1"></circle><circle cx="412.05" cy="292.51" r="2.6" fill="#6366F1"></circle><circle cx="419.47" cy="290.75" r="2.6" fill="#6366F1"></circle><circle cx="426.89" cy="289.5" r="2.6" fill="#6366F1"></circle><circle cx="434.3" cy="289.4" r="2.6" fill="#6366F1"></circle><circle cx="441.72" cy="282.59" r="2.6" fill="#6366F1"></circle><circle cx="449.14" cy="289.91" r="2.6" fill="#6366F1"></circle><circle cx="456.56" cy="286.79" r="2.6" fill="#6366F1"></circle><circle cx="463.97" cy="288.79" r="2.6" fill="#6366F1"></circle><circle cx="471.39" cy="286.98" r="2.6" fill="#6366F1"></circle><circle cx="478.81" cy="290.22" r="2.6" fill="#6366F1"></circle><circle cx="486.23" cy="291.94" r="2.6" fill="#6366F1"></circle><circle cx="493.65" cy="292.7" r="2.6" fill="#6366F1"></circle><circle cx="501.06" cy="281.08" r="2.6" fill="#6366F1"></circle><circle cx="508.48" cy="292.31" r="2.6" fill="#6366F1"></circle><circle cx="515.9" cy="290.28" r="2.6" fill="#6366F1"></circle><circle cx="523.32" cy="286.5" r="2.6" fill="#6366F1"></circle><circle cx="530.73" cy="289" r="2.6" fill="#6366F1"></circle><circle cx="538.15" cy="289.95" r="2.6" fill="#6366F1"></circle><circle cx="545.57" cy="291.41" r="2.6" fill="#6366F1"></circle><circle cx="552.99" cy="290.81" r="2.6" fill="#6366F1"></circle><circle cx="560.41" cy="291" r="2.6" fill="#6366F1"></circle><circle cx="567.82" cy="290.42" r="2.6" fill="#6366F1"></circle><circle cx="575.24" cy="289.99" r="2.6" fill="#6366F1"></circle><circle cx="582.66" cy="284.38" r="2.6" fill="#6366F1"></circle><circle cx="590.08" cy="292.31" r="2.6" fill="#6366F1"></circle><circle cx="597.49" cy="291.62" r="2.6" fill="#6366F1"></circle><circle cx="604.91" cy="287.31" r="2.6" fill="#6366F1"></circle><circle cx="612.33" cy="291.89" r="2.6" fill="#6366F1"></circle><circle cx="619.75" cy="292.21" r="2.6" fill="#6366F1"></circle><circle cx="627.16" cy="288.97" r="2.6" fill="#6366F1"></circle><circle cx="634.58" cy="292.99" r="2.6" fill="#6366F1"></circle><circle cx="642" cy="290.59" r="2.6" fill="#6366F1"></circle><polyline fill="none" stroke="#A371F7" stroke-width="2.4" stroke-linejoin="round" stroke-linecap="round" points="56,226.25 63.42,237.88 70.84,241.73 78.25,223.38 85.67,231.64 93.09,243.09 100.51,237.81 107.92,230.14 115.34,233.83 122.76,241.12 130.18,233.75 137.59,230.9 145.01,235.83 152.43,217.13 159.85,237.29 167.27,230.7 174.68,240.49 182.1,241.09 189.52,218.17 196.94,232.28 204.35,201.8 211.77,239.78 219.19,242.88 226.61,229.56 234.03,227.31 241.44,231.21 248.86,233.26 256.28,230.48 263.7,240.31 271.11,235.36 278.53,231.03 285.95,237.98 293.37,242.74 300.78,217.94 308.2,237.38 315.62,239.39 330.46,216.58 337.87,239.81 345.29,230.21 360.13,230.86 367.54,240.78 374.96,241.27 382.38,237.28 389.8,234.45 397.22,237.03 404.63,237.6 412.05,235.95 419.47,225.98 426.89,230.74 434.3,232.09 441.72,238.44 449.14,233.93 456.56,237.36 463.97,236.2 478.81,238.07 486.23,232.58 501.06,227.45 508.48,236.55 515.9,232.02 523.32,240.47 530.73,213.84 538.15,238.7 545.57,238.88 552.99,241.18 560.41,233.39 567.82,234.63 575.24,239.11 590.08,240.21 597.49,229.42 604.91,240.04 612.33,237.25 619.75,239.83 627.16,241.26 634.58,237.1 642,240.26"></polyline><circle cx="56" cy="226.25" r="2.6" fill="#A371F7"></circle><circle cx="63.42" cy="237.88" r="2.6" fill="#A371F7"></circle><circle cx="70.84" cy="241.73" r="2.6" fill="#A371F7"></circle><circle cx="78.25" cy="223.38" r="2.6" fill="#A371F7"></circle><circle cx="85.67" cy="231.64" r="2.6" fill="#A371F7"></circle><circle cx="93.09" cy="243.09" r="2.6" fill="#A371F7"></circle><circle cx="100.51" cy="237.81" r="2.6" fill="#A371F7"></circle><circle cx="107.92" cy="230.14" r="2.6" fill="#A371F7"></circle><circle cx="115.34" cy="233.83" r="2.6" fill="#A371F7"></circle><circle cx="122.76" cy="241.12" r="2.6" fill="#A371F7"></circle><circle cx="130.18" cy="233.75" r="2.6" fill="#A371F7"></circle><circle cx="137.59" cy="230.9" r="2.6" fill="#A371F7"></circle><circle cx="145.01" cy="235.83" r="2.6" fill="#A371F7"></circle><circle cx="152.43" cy="217.13" r="2.6" fill="#A371F7"></circle><circle cx="159.85" cy="237.29" r="2.6" fill="#A371F7"></circle><circle cx="167.27" cy="230.7" r="2.6" fill="#A371F7"></circle><circle cx="174.68" cy="240.49" r="2.6" fill="#A371F7"></circle><circle cx="182.1" cy="241.09" r="2.6" fill="#A371F7"></circle><circle cx="189.52" cy="218.17" r="2.6" fill="#A371F7"></circle><circle cx="196.94" cy="232.28" r="2.6" fill="#A371F7"></circle><circle cx="204.35" cy="201.8" r="2.6" fill="#A371F7"></circle><circle cx="211.77" cy="239.78" r="2.6" fill="#A371F7"></circle><circle cx="219.19" cy="242.88" r="2.6" fill="#A371F7"></circle><circle cx="226.61" cy="229.56" r="2.6" fill="#A371F7"></circle><circle cx="234.03" cy="227.31" r="2.6" fill="#A371F7"></circle><circle cx="241.44" cy="231.21" r="2.6" fill="#A371F7"></circle><circle cx="248.86" cy="233.26" r="2.6" fill="#A371F7"></circle><circle cx="256.28" cy="230.48" r="2.6" fill="#A371F7"></circle><circle cx="263.7" cy="240.31" r="2.6" fill="#A371F7"></circle><circle cx="271.11" cy="235.36" r="2.6" fill="#A371F7"></circle><circle cx="278.53" cy="231.03" r="2.6" fill="#A371F7"></circle><circle cx="285.95" cy="237.98" r="2.6" fill="#A371F7"></circle><circle cx="293.37" cy="242.74" r="2.6" fill="#A371F7"></circle><circle cx="300.78" cy="217.94" r="2.6" fill="#A371F7"></circle><circle cx="308.2" cy="237.38" r="2.6" fill="#A371F7"></circle><circle cx="315.62" cy="239.39" r="2.6" fill="#A371F7"></circle><circle cx="330.46" cy="216.58" r="2.6" fill="#A371F7"></circle><circle cx="337.87" cy="239.81" r="2.6" fill="#A371F7"></circle><circle cx="345.29" cy="230.21" r="2.6" fill="#A371F7"></circle><circle cx="360.13" cy="230.86" r="2.6" fill="#A371F7"></circle><circle cx="367.54" cy="240.78" r="2.6" fill="#A371F7"></circle><circle cx="374.96" cy="241.27" r="2.6" fill="#A371F7"></circle><circle cx="382.38" cy="237.28" r="2.6" fill="#A371F7"></circle><circle cx="389.8" cy="234.45" r="2.6" fill="#A371F7"></circle><circle cx="397.22" cy="237.03" r="2.6" fill="#A371F7"></circle><circle cx="404.63" cy="237.6" r="2.6" fill="#A371F7"></circle><circle cx="412.05" cy="235.95" r="2.6" fill="#A371F7"></circle><circle cx="419.47" cy="225.98" r="2.6" fill="#A371F7"></circle><circle cx="426.89" cy="230.74" r="2.6" fill="#A371F7"></circle><circle cx="434.3" cy="232.09" r="2.6" fill="#A371F7"></circle><circle cx="441.72" cy="238.44" r="2.6" fill="#A371F7"></circle><circle cx="449.14" cy="233.93" r="2.6" fill="#A371F7"></circle><circle cx="456.56" cy="237.36" r="2.6" fill="#A371F7"></circle><circle cx="463.97" cy="236.2" r="2.6" fill="#A371F7"></circle><circle cx="478.81" cy="238.07" r="2.6" fill="#A371F7"></circle><circle cx="486.23" cy="232.58" r="2.6" fill="#A371F7"></circle><circle cx="501.06" cy="227.45" r="2.6" fill="#A371F7"></circle><circle cx="508.48" cy="236.55" r="2.6" fill="#A371F7"></circle><circle cx="515.9" cy="232.02" r="2.6" fill="#A371F7"></circle><circle cx="523.32" cy="240.47" r="2.6" fill="#A371F7"></circle><circle cx="530.73" cy="213.84" r="2.6" fill="#A371F7"></circle><circle cx="538.15" cy="238.7" r="2.6" fill="#A371F7"></circle><circle cx="545.57" cy="238.88" r="2.6" fill="#A371F7"></circle><circle cx="552.99" cy="241.18" r="2.6" fill="#A371F7"></circle><circle cx="560.41" cy="233.39" r="2.6" fill="#A371F7"></circle><circle cx="567.82" cy="234.63" r="2.6" fill="#A371F7"></circle><circle cx="575.24" cy="239.11" r="2.6" fill="#A371F7"></circle><circle cx="590.08" cy="240.21" r="2.6" fill="#A371F7"></circle><circle cx="597.49" cy="229.42" r="2.6" fill="#A371F7"></circle><circle cx="604.91" cy="240.04" r="2.6" fill="#A371F7"></circle><circle cx="612.33" cy="237.25" r="2.6" fill="#A371F7"></circle><circle cx="619.75" cy="239.83" r="2.6" fill="#A371F7"></circle><circle cx="627.16" cy="241.26" r="2.6" fill="#A371F7"></circle><circle cx="634.58" cy="237.1" r="2.6" fill="#A371F7"></circle><circle cx="642" cy="240.26" r="2.6" fill="#A371F7"></circle><polyline fill="none" stroke="#F0A23B" stroke-width="2.4" stroke-linejoin="round" stroke-linecap="round" points="56,162.13 63.42,151.29 70.84,72.27 78.25,170.58 85.67,165.15 93.09,168.63 100.51,155.58 107.92,155.2 115.34,151.03 122.76,159.37 130.18,151 137.59,152 145.01,154.31 152.43,162.54 159.85,145.36 167.27,160.82 174.68,153.52 182.1,158.63 189.52,172.35 196.94,162.23 204.35,168.2 211.77,164.28 219.19,98 226.61,164.92 234.03,167.19 241.44,163.76 248.86,165.84 256.28,134.6 263.7,163 271.11,144.13 278.53,165.52 285.95,134.8 293.37,167.11 300.78,166.07 308.2,54.66 315.62,77.46 323.04,164.62 330.46,166.72 337.87,166.65 345.29,162.93 352.71,164.9 360.13,170.21 367.54,169.23 374.96,114.96 382.38,165.27 389.8,165.44 397.22,99.36 404.63,161.79 412.05,138.56 419.47,167.81 426.89,164.51 434.3,164.55 441.72,135.11 449.14,119.1 456.56,168.6 463.97,167.03 471.39,169.7 478.81,164.27 486.23,168.02 493.65,163.89 501.06,99.72 508.48,166.55 515.9,163.57 523.32,163.91 530.73,164.36 538.15,166.86 545.57,166.95 552.99,52.43 560.41,166.52 567.82,165.82 575.24,164.59 590.08,164.21 597.49,164.24 604.91,161.69 612.33,156.02 619.75,164.92 627.16,166.5 634.58,158.67 642,164.89"></polyline><circle cx="56" cy="162.13" r="2.6" fill="#F0A23B"></circle><circle cx="63.42" cy="151.29" r="2.6" fill="#F0A23B"></circle><circle cx="70.84" cy="72.27" r="2.6" fill="#F0A23B"></circle><circle cx="78.25" cy="170.58" r="2.6" fill="#F0A23B"></circle><circle cx="85.67" cy="165.15" r="2.6" fill="#F0A23B"></circle><circle cx="93.09" cy="168.63" r="2.6" fill="#F0A23B"></circle><circle cx="100.51" cy="155.58" r="2.6" fill="#F0A23B"></circle><circle cx="107.92" cy="155.2" r="2.6" fill="#F0A23B"></circle><circle cx="115.34" cy="151.03" r="2.6" fill="#F0A23B"></circle><circle cx="122.76" cy="159.37" r="2.6" fill="#F0A23B"></circle><circle cx="130.18" cy="151" r="2.6" fill="#F0A23B"></circle><circle cx="137.59" cy="152" r="2.6" fill="#F0A23B"></circle><circle cx="145.01" cy="154.31" r="2.6" fill="#F0A23B"></circle><circle cx="152.43" cy="162.54" r="2.6" fill="#F0A23B"></circle><circle cx="159.85" cy="145.36" r="2.6" fill="#F0A23B"></circle><circle cx="167.27" cy="160.82" r="2.6" fill="#F0A23B"></circle><circle cx="174.68" cy="153.52" r="2.6" fill="#F0A23B"></circle><circle cx="182.1" cy="158.63" r="2.6" fill="#F0A23B"></circle><circle cx="189.52" cy="172.35" r="2.6" fill="#F0A23B"></circle><circle cx="196.94" cy="162.23" r="2.6" fill="#F0A23B"></circle><circle cx="204.35" cy="168.2" r="2.6" fill="#F0A23B"></circle><circle cx="211.77" cy="164.28" r="2.6" fill="#F0A23B"></circle><circle cx="219.19" cy="98" r="2.6" fill="#F0A23B"></circle><circle cx="226.61" cy="164.92" r="2.6" fill="#F0A23B"></circle><circle cx="234.03" cy="167.19" r="2.6" fill="#F0A23B"></circle><circle cx="241.44" cy="163.76" r="2.6" fill="#F0A23B"></circle><circle cx="248.86" cy="165.84" r="2.6" fill="#F0A23B"></circle><circle cx="256.28" cy="134.6" r="2.6" fill="#F0A23B"></circle><circle cx="263.7" cy="163" r="2.6" fill="#F0A23B"></circle><circle cx="271.11" cy="144.13" r="2.6" fill="#F0A23B"></circle><circle cx="278.53" cy="165.52" r="2.6" fill="#F0A23B"></circle><circle cx="285.95" cy="134.8" r="2.6" fill="#F0A23B"></circle><circle cx="293.37" cy="167.11" r="2.6" fill="#F0A23B"></circle><circle cx="300.78" cy="166.07" r="2.6" fill="#F0A23B"></circle><circle cx="308.2" cy="54.66" r="2.6" fill="#F0A23B"></circle><circle cx="315.62" cy="77.46" r="2.6" fill="#F0A23B"></circle><circle cx="323.04" cy="164.62" r="2.6" fill="#F0A23B"></circle><circle cx="330.46" cy="166.72" r="2.6" fill="#F0A23B"></circle><circle cx="337.87" cy="166.65" r="2.6" fill="#F0A23B"></circle><circle cx="345.29" cy="162.93" r="2.6" fill="#F0A23B"></circle><circle cx="352.71" cy="164.9" r="2.6" fill="#F0A23B"></circle><circle cx="360.13" cy="170.21" r="2.6" fill="#F0A23B"></circle><circle cx="367.54" cy="169.23" r="2.6" fill="#F0A23B"></circle><circle cx="374.96" cy="114.96" r="2.6" fill="#F0A23B"></circle><circle cx="382.38" cy="165.27" r="2.6" fill="#F0A23B"></circle><circle cx="389.8" cy="165.44" r="2.6" fill="#F0A23B"></circle><circle cx="397.22" cy="99.36" r="2.6" fill="#F0A23B"></circle><circle cx="404.63" cy="161.79" r="2.6" fill="#F0A23B"></circle><circle cx="412.05" cy="138.56" r="2.6" fill="#F0A23B"></circle><circle cx="419.47" cy="167.81" r="2.6" fill="#F0A23B"></circle><circle cx="426.89" cy="164.51" r="2.6" fill="#F0A23B"></circle><circle cx="434.3" cy="164.55" r="2.6" fill="#F0A23B"></circle><circle cx="441.72" cy="135.11" r="2.6" fill="#F0A23B"></circle><circle cx="449.14" cy="119.1" r="2.6" fill="#F0A23B"></circle><circle cx="456.56" cy="168.6" r="2.6" fill="#F0A23B"></circle><circle cx="463.97" cy="167.03" r="2.6" fill="#F0A23B"></circle><circle cx="471.39" cy="169.7" r="2.6" fill="#F0A23B"></circle><circle cx="478.81" cy="164.27" r="2.6" fill="#F0A23B"></circle><circle cx="486.23" cy="168.02" r="2.6" fill="#F0A23B"></circle><circle cx="493.65" cy="163.89" r="2.6" fill="#F0A23B"></circle><circle cx="501.06" cy="99.72" r="2.6" fill="#F0A23B"></circle><circle cx="508.48" cy="166.55" r="2.6" fill="#F0A23B"></circle><circle cx="515.9" cy="163.57" r="2.6" fill="#F0A23B"></circle><circle cx="523.32" cy="163.91" r="2.6" fill="#F0A23B"></circle><circle cx="530.73" cy="164.36" r="2.6" fill="#F0A23B"></circle><circle cx="538.15" cy="166.86" r="2.6" fill="#F0A23B"></circle><circle cx="545.57" cy="166.95" r="2.6" fill="#F0A23B"></circle><circle cx="552.99" cy="52.43" r="2.6" fill="#F0A23B"></circle><circle cx="560.41" cy="166.52" r="2.6" fill="#F0A23B"></circle><circle cx="567.82" cy="165.82" r="2.6" fill="#F0A23B"></circle><circle cx="575.24" cy="164.59" r="2.6" fill="#F0A23B"></circle><circle cx="590.08" cy="164.21" r="2.6" fill="#F0A23B"></circle><circle cx="597.49" cy="164.24" r="2.6" fill="#F0A23B"></circle><circle cx="604.91" cy="161.69" r="2.6" fill="#F0A23B"></circle><circle cx="612.33" cy="156.02" r="2.6" fill="#F0A23B"></circle><circle cx="619.75" cy="164.92" r="2.6" fill="#F0A23B"></circle><circle cx="627.16" cy="166.5" r="2.6" fill="#F0A23B"></circle><circle cx="634.58" cy="158.67" r="2.6" fill="#F0A23B"></circle><circle cx="642" cy="164.89" r="2.6" fill="#F0A23B"></circle><line x1="656" y1="27" x2="672" y2="27" stroke="#6366F1" stroke-width="3" stroke-linecap="round"></line><text x="678" y="30" font-size="11" font-weight="400" text-anchor="start" fill="#1f2328">deepseek</text><line x1="656" y1="47" x2="672" y2="47" stroke="#A371F7" stroke-width="3" stroke-linecap="round"></line><text x="678" y="50" font-size="11" font-weight="400" text-anchor="start" fill="#1f2328">llama</text><line x1="656" y1="67" x2="672" y2="67" stroke="#F0A23B" stroke-width="3" stroke-linecap="round"></line><text x="678" y="70" font-size="11" font-weight="400" text-anchor="start" fill="#1f2328">mistral</text></svg>
