<svg xmlns="http://www.w3.org/2000/svg" viewBox="0 0 760 348" width="760" height="348" role="img" aria-label="Cost per test by provider over runs — openai highest, deepseek lowest" font-family="-apple-system,BlinkMacSystemFont,'Segoe UI',system-ui,sans-serif"><line x1="56" y1="306" x2="642" y2="306" stroke="#d8dee4" stroke-width="1"></line><text x="46" y="310" font-size="9.5" font-weight="400" text-anchor="end" fill="#656d76" font-family="ui-monospace,SFMono-Regular,Menlo,monospace">$0.000</text><line x1="56" y1="235" x2="642" y2="235" stroke="#d8dee4" stroke-width="1"></line><text x="46" y="239" font-size="9.5" font-weight="400" text-anchor="end" fill="#656d76" font-family="ui-monospace,SFMono-Regular,Menlo,monospace">$0.044</text><line x1="56" y1="164" x2="642" y2="164" stroke="#d8dee4" stroke-width="1"></line><text x="46" y="168" font-size="9.5" font-weight="400" text-anchor="end" fill="#656d76" font-family="ui-monospace,SFMono-Regular,Menlo,monospace">$0.087</text><line x1="56" y1="93" x2="642" y2="93" stroke="#d8dee4" stroke-width="1"></line><text x="46" y="97" font-size="9.5" font-weight="400" text-anchor="end" fill="#656d76" font-family="ui-monospace,SFMono-Regular,Menlo,monospace">$0.131</text><line x1="56" y1="22" x2="642" y2="22" stroke="#d8dee4" stroke-width="1"></line><text x="46" y="26" font-size="9.5" font-weight="400" text-anchor="end" fill="#656d76" font-family="ui-monospace,SFMono-Regular,Menlo,monospace">$0.175</text><text x="56" y="324" font-size="9.5" font-weight="400" text-anchor="middle" fill="#656d76" font-family="ui-monospace,SFMono-Regular,Menlo,monospace">06/06</text><text x="117.68" y="324" font-size="9.5" font-weight="400" text-anchor="middle" fill="#656d76" font-family="ui-monospace,SFMono-Regular,Menlo,monospace">06/07</text><text x="179.37" y="324" font-size="9.5" font-weight="400" text-anchor="middle" fill="#656d76" font-family="ui-monospace,SFMono-Regular,Menlo,monospace">06/08</text><text x="241.05" y="324" font-size="9.5" font-weight="400" text-anchor="middle" fill="#656d76" font-family="ui-monospace,SFMono-Regular,Menlo,monospace">06/08</text><text x="302.74" y="324" font-size="9.5" font-weight="400" text-anchor="middle" fill="#656d76" font-family="ui-monospace,SFMono-Regular,Menlo,monospace">06/09</text><text x="364.42" y="324" font-size="9.5" font-weight="400" text-anchor="middle" fill="#656d76" font-family="ui-monospace,SFMono-Regular,Menlo,monospace">06/09</text><text x="426.11" y="324" font-size="9.5" font-weight="400" text-anchor="middle" fill="#656d76" font-family="ui-monospace,SFMono-Regular,Menlo,monospace">06/12</text><text x="487.79" y="324" font-size="9.5" font-weight="400" text-anchor="middle" fill="#656d76" font-family="ui-monospace,SFMono-Regular,Menlo,monospace">06/14</text><text x="549.47" y="324" font-size="9.5" font-weight="400" text-anchor="middle" fill="#656d76" font-family="ui-monospace,SFMono-Regular,Menlo,monospace">06/14</text><text x="611.16" y="324" font-size="9.5" font-weight="400" text-anchor="middle" fill="#656d76" font-family="ui-monospace,SFMono-Regular,Menlo,monospace">06/15</text><text x="642" y="324" font-size="9.5" font-weight="400" text-anchor="middle" fill="#656d76" font-family="ui-monospace,SFMono-Regular,Menlo,monospace">06/16</text><polyline fill="none" stroke="#6366F1" stroke-width="2.4" stroke-linejoin="round" stroke-linecap="round" points="179.37,293.36 194.79,293.43 210.21,294.1 225.63,292.89 241.05,293.14 256.47,287.31 271.89,294.31 287.32,291.77 302.74,291.82 318.16,291.36 333.58,293.02 349,291.8 364.42,288.55 379.84,292.06 395.26,288.85 410.68,294.29 426.11,292.11 441.53,288.48 456.95,285.75 472.37,292.13 487.79,291.04 503.21,293.66 518.63,290.08 534.05,286.94 549.47,292.77 564.89,291.68 580.32,292.47 595.74,291.27 626.58,290.7 642,292.91"></polyline><circle cx="179.37" cy="293.36" r="2.6" fill="#6366F1"></circle><circle cx="194.79" cy="293.43" r="2.6" fill="#6366F1"></circle><circle cx="210.21" cy="294.1" r="2.6" fill="#6366F1"></circle><circle cx="225.63" cy="292.89" r="2.6" fill="#6366F1"></circle><circle cx="241.05" cy="293.14" r="2.6" fill="#6366F1"></circle><circle cx="256.47" cy="287.31" r="2.6" fill="#6366F1"></circle><circle cx="271.89" cy="294.31" r="2.6" fill="#6366F1"></circle><circle cx="287.32" cy="291.77" r="2.6" fill="#6366F1"></circle><circle cx="302.74" cy="291.82" r="2.6" fill="#6366F1"></circle><circle cx="318.16" cy="291.36" r="2.6" fill="#6366F1"></circle><circle cx="333.58" cy="293.02" r="2.6" fill="#6366F1"></circle><circle cx="349" cy="291.8" r="2.6" fill="#6366F1"></circle><circle cx="364.42" cy="288.55" r="2.6" fill="#6366F1"></circle><circle cx="379.84" cy="292.06" r="2.6" fill="#6366F1"></circle><circle cx="395.26" cy="288.85" r="2.6" fill="#6366F1"></circle><circle cx="410.68" cy="294.29" r="2.6" fill="#6366F1"></circle><circle cx="426.11" cy="292.11" r="2.6" fill="#6366F1"></circle><circle cx="441.53" cy="288.48" r="2.6" fill="#6366F1"></circle><circle cx="456.95" cy="285.75" r="2.6" fill="#6366F1"></circle><circle cx="472.37" cy="292.13" r="2.6" fill="#6366F1"></circle><circle cx="487.79" cy="291.04" r="2.6" fill="#6366F1"></circle><circle cx="503.21" cy="293.66" r="2.6" fill="#6366F1"></circle><circle cx="518.63" cy="290.08" r="2.6" fill="#6366F1"></circle><circle cx="534.05" cy="286.94" r="2.6" fill="#6366F1"></circle><circle cx="549.47" cy="292.77" r="2.6" fill="#6366F1"></circle><circle cx="564.89" cy="291.68" r="2.6" fill="#6366F1"></circle><circle cx="580.32" cy="292.47" r="2.6" fill="#6366F1"></circle><circle cx="595.74" cy="291.27" r="2.6" fill="#6366F1"></circle><circle cx="626.58" cy="290.7" r="2.6" fill="#6366F1"></circle><circle cx="642" cy="292.91" r="2.6" fill="#6366F1"></circle><polyline fill="none" stroke="#A371F7" stroke-width="2.4" stroke-linejoin="round" stroke-linecap="round" points="56,234.02 71.42,244.52 86.84,248 102.26,231.43 117.68,238.89 133.11,249.23 148.53,244.46 163.95,237.54 179.37,240.86 194.79,247.44 210.21,240.79 225.63,238.23 241.05,242.67 256.47,225.79 271.89,243.99 287.32,238.04 302.74,246.87 318.16,247.42 333.58,226.74 349,239.47 364.42,211.96 379.84,246.23 395.26,249.04 410.68,237.01 426.11,234.98 441.53,238.5 456.95,240.35 472.37,237.84 487.79,246.71 503.21,242.24 518.63,238.34 534.05,244.61 549.47,248.91 564.89,226.53 580.32,244.07 595.74,245.89 626.58,225.3 642,246.26"></polyline><circle cx="56" cy="234.02" r="2.6" fill="#A371F7"></circle><circle cx="71.42" cy="244.52" r="2.6" fill="#A371F7"></circle><circle cx="86.84" cy="248" r="2.6" fill="#A371F7"></circle><circle cx="102.26" cy="231.43" r="2.6" fill="#A371F7"></circle><circle cx="117.68" cy="238.89" r="2.6" fill="#A371F7"></circle><circle cx="133.11" cy="249.23" r="2.6" fill="#A371F7"></circle><circle cx="148.53" cy="244.46" r="2.6" fill="#A371F7"></circle><circle cx="163.95" cy="237.54" r="2.6" fill="#A371F7"></circle><circle cx="179.37" cy="240.86" r="2.6" fill="#A371F7"></circle><circle cx="194.79" cy="247.44" r="2.6" fill="#A371F7"></circle><circle cx="210.21" cy="240.79" r="2.6" fill="#A371F7"></circle><circle cx="225.63" cy="238.23" r="2.6" fill="#A371F7"></circle><circle cx="241.05" cy="242.67" r="2.6" fill="#A371F7"></circle><circle cx="256.47" cy="225.79" r="2.6" fill="#A371F7"></circle><circle cx="271.89" cy="243.99" r="2.6" fill="#A371F7"></circle><circle cx="287.32" cy="238.04" r="2.6" fill="#A371F7"></circle><circle cx="302.74" cy="246.87" r="2.6" fill="#A371F7"></circle><circle cx="318.16" cy="247.42" r="2.6" fill="#A371F7"></circle><circle cx="333.58" cy="226.74" r="2.6" fill="#A371F7"></circle><circle cx="349" cy="239.47" r="2.6" fill="#A371F7"></circle><circle cx="364.42" cy="211.96" r="2.6" fill="#A371F7"></circle><circle cx="379.84" cy="246.23" r="2.6" fill="#A371F7"></circle><circle cx="395.26" cy="249.04" r="2.6" fill="#A371F7"></circle><circle cx="410.68" cy="237.01" r="2.6" fill="#A371F7"></circle><circle cx="426.11" cy="234.98" r="2.6" fill="#A371F7"></circle><circle cx="441.53" cy="238.5" r="2.6" fill="#A371F7"></circle><circle cx="456.95" cy="240.35" r="2.6" fill="#A371F7"></circle><circle cx="472.37" cy="237.84" r="2.6" fill="#A371F7"></circle><circle cx="487.79" cy="246.71" r="2.6" fill="#A371F7"></circle><circle cx="503.21" cy="242.24" r="2.6" fill="#A371F7"></circle><circle cx="518.63" cy="238.34" r="2.6" fill="#A371F7"></circle><circle cx="534.05" cy="244.61" r="2.6" fill="#A371F7"></circle><circle cx="549.47" cy="248.91" r="2.6" fill="#A371F7"></circle><circle cx="564.89" cy="226.53" r="2.6" fill="#A371F7"></circle><circle cx="580.32" cy="244.07" r="2.6" fill="#A371F7"></circle><circle cx="595.74" cy="245.89" r="2.6" fill="#A371F7"></circle><circle cx="626.58" cy="225.3" r="2.6" fill="#A371F7"></circle><circle cx="642" cy="246.26" r="2.6" fill="#A371F7"></circle><polyline fill="none" stroke="#F0A23B" stroke-width="2.4" stroke-linejoin="round" stroke-linecap="round" points="56,176.15 71.42,166.37 86.84,95.06 102.26,183.78 117.68,178.88 133.11,182.02 148.53,170.24 163.95,169.9 179.37,166.14 194.79,173.66 210.21,166.11 225.63,167.02 241.05,169.09 256.47,176.53 271.89,161.02 287.32,174.97 302.74,168.38 318.16,173 333.58,185.38 349,176.24 364.42,181.63 379.84,178.09 395.26,118.27 410.68,178.67 426.11,180.72 441.53,177.62 456.95,179.5 472.37,151.31 487.79,176.94 503.21,159.91 518.63,179.22 534.05,151.49 549.47,180.65 564.89,179.71 580.32,79.16 595.74,99.74 611.16,178.4 626.58,180.3 642,180.24"></polyline><circle cx="56" cy="176.15" r="2.6" fill="#F0A23B"></circle><circle cx="71.42" cy="166.37" r="2.6" fill="#F0A23B"></circle><circle cx="86.84" cy="95.06" r="2.6" fill="#F0A23B"></circle><circle cx="102.26" cy="183.78" r="2.6" fill="#F0A23B"></circle><circle cx="117.68" cy="178.88" r="2.6" fill="#F0A23B"></circle><circle cx="133.11" cy="182.02" r="2.6" fill="#F0A23B"></circle><circle cx="148.53" cy="170.24" r="2.6" fill="#F0A23B"></circle><circle cx="163.95" cy="169.9" r="2.6" fill="#F0A23B"></circle><circle cx="179.37" cy="166.14" r="2.6" fill="#F0A23B"></circle><circle cx="194.79" cy="173.66" r="2.6" fill="#F0A23B"></circle><circle cx="210.21" cy="166.11" r="2.6" fill="#F0A23B"></circle><circle cx="225.63" cy="167.02" r="2.6" fill="#F0A23B"></circle><circle cx="241.05" cy="169.09" r="2.6" fill="#F0A23B"></circle><circle cx="256.47" cy="176.53" r="2.6" fill="#F0A23B"></circle><circle cx="271.89" cy="161.02" r="2.6" fill="#F0A23B"></circle><circle cx="287.32" cy="174.97" r="2.6" fill="#F0A23B"></circle><circle cx="302.74" cy="168.38" r="2.6" fill="#F0A23B"></circle><circle cx="318.16" cy="173" r="2.6" fill="#F0A23B"></circle><circle cx="333.58" cy="185.38" r="2.6" fill="#F0A23B"></circle><circle cx="349" cy="176.24" r="2.6" fill="#F0A23B"></circle><circle cx="364.42" cy="181.63" r="2.6" fill="#F0A23B"></circle><circle cx="379.84" cy="178.09" r="2.6" fill="#F0A23B"></circle><circle cx="395.26" cy="118.27" r="2.6" fill="#F0A23B"></circle><circle cx="410.68" cy="178.67" r="2.6" fill="#F0A23B"></circle><circle cx="426.11" cy="180.72" r="2.6" fill="#F0A23B"></circle><circle cx="441.53" cy="177.62" r="2.6" fill="#F0A23B"></circle><circle cx="456.95" cy="179.5" r="2.6" fill="#F0A23B"></circle><circle cx="472.37" cy="151.31" r="2.6" fill="#F0A23B"></circle><circle cx="487.79" cy="176.94" r="2.6" fill="#F0A23B"></circle><circle cx="503.21" cy="159.91" r="2.6" fill="#F0A23B"></circle><circle cx="518.63" cy="179.22" r="2.6" fill="#F0A23B"></circle><circle cx="534.05" cy="151.49" r="2.6" fill="#F0A23B"></circle><circle cx="549.47" cy="180.65" r="2.6" fill="#F0A23B"></circle><circle cx="564.89" cy="179.71" r="2.6" fill="#F0A23B"></circle><circle cx="580.32" cy="79.16" r="2.6" fill="#F0A23B"></circle><circle cx="595.74" cy="99.74" r="2.6" fill="#F0A23B"></circle><circle cx="611.16" cy="178.4" r="2.6" fill="#F0A23B"></circle><circle cx="626.58" cy="180.3" r="2.6" fill="#F0A23B"></circle><circle cx="642" cy="180.24" r="2.6" fill="#F0A23B"></circle><polyline fill="none" stroke="#1F9CF0" stroke-width="2.4" stroke-linejoin="round" stroke-linecap="round" points="56,175.5 71.42,176.2 86.84,132.71 102.26,178.27 117.68,172 133.11,174.38 148.53,174.4 163.95,170.88 179.37,173.93 194.79,173.54 210.21,100.75 225.63,168.69 241.05,173.59 256.47,174.01 271.89,167.31 287.32,117.5 302.74,166.02 318.16,174.07 333.58,141.6 349,169.05 364.42,167.14 379.84,174.48 395.26,150.94 410.68,171.01 426.11,52.43 441.53,157.26 456.95,171.51 472.37,136.29 487.79,169.79 503.21,106.45 518.63,170.47 534.05,175.76 549.47,174.01 564.89,174.06 580.32,151.2 595.74,173.78 611.16,169.88 626.58,177.61 642,137.18"></polyline><circle cx="56" cy="175.5" r="2.6" fill="#1F9CF0"></circle><circle cx="71.42" cy="176.2" r="2.6" fill="#1F9CF0"></circle><circle cx="86.84" cy="132.71" r="2.6" fill="#1F9CF0"></circle><circle cx="102.26" cy="178.27" r="2.6" fill="#1F9CF0"></circle><circle cx="117.68" cy="172" r="2.6" fill="#1F9CF0"></circle><circle cx="133.11" cy="174.38" r="2.6" fill="#1F9CF0"></circle><circle cx="148.53" cy="174.4" r="2.6" fill="#1F9CF0"></circle><circle cx="163.95" cy="170.88" r="2.6" fill="#1F9CF0"></circle><circle cx="179.37" cy="173.93" r="2.6" fill="#1F9CF0"></circle><circle cx="194.79" cy="173.54" r="2.6" fill="#1F9CF0"></circle><circle cx="210.21" cy="100.75" r="2.6" fill="#1F9CF0"></circle><circle cx="225.63" cy="168.69" r="2.6" fill="#1F9CF0"></circle><circle cx="241.05" cy="173.59" r="2.6" fill="#1F9CF0"></circle><circle cx="256.47" cy="174.01" r="2.6" fill="#1F9CF0"></circle><circle cx="271.89" cy="167.31" r="2.6" fill="#1F9CF0"></circle><circle cx="287.32" cy="117.5" r="2.6" fill="#1F9CF0"></circle><circle cx="302.74" cy="166.02" r="2.6" fill="#1F9CF0"></circle><circle cx="318.16" cy="174.07" r="2.6" fill="#1F9CF0"></circle><circle cx="333.58" cy="141.6" r="2.6" fill="#1F9CF0"></circle><circle cx="349" cy="169.05" r="2.6" fill="#1F9CF0"></circle><circle cx="364.42" cy="167.14" r="2.6" fill="#1F9CF0"></circle><circle cx="379.84" cy="174.48" r="2.6" fill="#1F9CF0"></circle><circle cx="395.26" cy="150.94" r="2.6" fill="#1F9CF0"></circle><circle cx="410.68" cy="171.01" r="2.6" fill="#1F9CF0"></circle><circle cx="426.11" cy="52.43" r="2.6" fill="#1F9CF0"></circle><circle cx="441.53" cy="157.26" r="2.6" fill="#1F9CF0"></circle><circle cx="456.95" cy="171.51" r="2.6" fill="#1F9CF0"></circle><circle cx="472.37" cy="136.29" r="2.6" fill="#1F9CF0"></circle><circle cx="487.79" cy="169.79" r="2.6" fill="#1F9CF0"></circle><circle cx="503.21" cy="106.45" r="2.6" fill="#1F9CF0"></circle><circle cx="518.63" cy="170.47" r="2.6" fill="#1F9CF0"></circle><circle cx="534.05" cy="175.76" r="2.6" fill="#1F9CF0"></circle><circle cx="549.47" cy="174.01" r="2.6" fill="#1F9CF0"></circle><circle cx="564.89" cy="174.06" r="2.6" fill="#1F9CF0"></circle><circle cx="580.32" cy="151.2" r="2.6" fill="#1F9CF0"></circle><circle cx="595.74" cy="173.78" r="2.6" fill="#1F9CF0"></circle><circle cx="611.16" cy="169.88" r="2.6" fill="#1F9CF0"></circle><circle cx="626.58" cy="177.61" r="2.6" fill="#1F9CF0"></circle><circle cx="642" cy="137.18" r="2.6" fill="#1F9CF0"></circle><line x1="656" y1="27" x2="672" y2="27" stroke="#6366F1" stroke-width="3" stroke-linecap="round"></line><text x="678" y="30" font-size="11" font-weight="400" text-anchor="start" fill="#1f2328">deepseek</text><line x1="656" y1="47" x2="672" y2="47" stroke="#A371F7" stroke-width="3" stroke-linecap="round"></line><text x="678" y="50" font-size="11" font-weight="400" text-anchor="start" fill="#1f2328">llama</text><line x1="656" y1="67" x2="672" y2="67" stroke="#F0A23B" stroke-width="3" stroke-linecap="round"></line><text x="678" y="70" font-size="11" font-weight="400" text-anchor="start" fill="#1f2328">mistral</text><line x1="656" y1="87" x2="672" y2="87" stroke="#1F9CF0" stroke-width="3" stroke-linecap="round"></line><text x="678" y="90" font-size="11" font-weight="400" text-anchor="start" fill="#1f2328">openai</text></svg>
