<svg xmlns="http://www.w3.org/2000/svg" viewBox="0 0 760 348" width="760" height="348" role="img" aria-label="Cost per test by provider over runs — mistral highest, deepseek lowest" font-family="-apple-system,BlinkMacSystemFont,'Segoe UI',system-ui,sans-serif"><line x1="56" y1="306" x2="642" y2="306" stroke="#d8dee4" stroke-width="1"></line><text x="46" y="310" font-size="9.5" font-weight="400" text-anchor="end" fill="#656d76" font-family="ui-monospace,SFMono-Regular,Menlo,monospace">$0.000</text><line x1="56" y1="235" x2="642" y2="235" stroke="#d8dee4" stroke-width="1"></line><text x="46" y="239" font-size="9.5" font-weight="400" text-anchor="end" fill="#656d76" font-family="ui-monospace,SFMono-Regular,Menlo,monospace">$0.039</text><line x1="56" y1="164" x2="642" y2="164" stroke="#d8dee4" stroke-width="1"></line><text x="46" y="168" font-size="9.5" font-weight="400" text-anchor="end" fill="#656d76" font-family="ui-monospace,SFMono-Regular,Menlo,monospace">$0.079</text><line x1="56" y1="93" x2="642" y2="93" stroke="#d8dee4" stroke-width="1"></line><text x="46" y="97" font-size="9.5" font-weight="400" text-anchor="end" fill="#656d76" font-family="ui-monospace,SFMono-Regular,Menlo,monospace">$0.118</text><line x1="56" y1="22" x2="642" y2="22" stroke="#d8dee4" stroke-width="1"></line><text x="46" y="26" font-size="9.5" font-weight="400" text-anchor="end" fill="#656d76" font-family="ui-monospace,SFMono-Regular,Menlo,monospace">$0.158</text><text x="56" y="324" font-size="9.5" font-weight="400" text-anchor="middle" fill="#656d76" font-family="ui-monospace,SFMono-Regular,Menlo,monospace">06/06</text><text x="107.71" y="324" font-size="9.5" font-weight="400" text-anchor="middle" fill="#656d76" font-family="ui-monospace,SFMono-Regular,Menlo,monospace">06/08</text><text x="159.41" y="324" font-size="9.5" font-weight="400" text-anchor="middle" fill="#656d76" font-family="ui-monospace,SFMono-Regular,Menlo,monospace">06/08</text><text x="211.12" y="324" font-size="9.5" font-weight="400" text-anchor="middle" fill="#656d76" font-family="ui-monospace,SFMono-Regular,Menlo,monospace">06/09</text><text x="262.82" y="324" font-size="9.5" font-weight="400" text-anchor="middle" fill="#656d76" font-family="ui-monospace,SFMono-Regular,Menlo,monospace">06/12</text><text x="314.53" y="324" font-size="9.5" font-weight="400" text-anchor="middle" fill="#656d76" font-family="ui-monospace,SFMono-Regular,Menlo,monospace">06/14</text><text x="366.24" y="324" font-size="9.5" font-weight="400" text-anchor="middle" fill="#656d76" font-family="ui-monospace,SFMono-Regular,Menlo,monospace">06/15</text><text x="417.94" y="324" font-size="9.5" font-weight="400" text-anchor="middle" fill="#656d76" font-family="ui-monospace,SFMono-Regular,Menlo,monospace">06/16</text><text x="469.65" y="324" font-size="9.5" font-weight="400" text-anchor="middle" fill="#656d76" font-family="ui-monospace,SFMono-Regular,Menlo,monospace">06/17</text><text x="521.35" y="324" font-size="9.5" font-weight="400" text-anchor="middle" fill="#656d76" font-family="ui-monospace,SFMono-Regular,Menlo,monospace">06/20</text><text x="573.06" y="324" font-size="9.5" font-weight="400" text-anchor="middle" fill="#656d76" font-family="ui-monospace,SFMono-Regular,Menlo,monospace">06/21</text><text x="624.76" y="324" font-size="9.5" font-weight="400" text-anchor="middle" fill="#656d76" font-family="ui-monospace,SFMono-Regular,Menlo,monospace">06/22</text><text x="642" y="324" font-size="9.5" font-weight="400" text-anchor="middle" fill="#656d76" font-family="ui-monospace,SFMono-Regular,Menlo,monospace">06/22</text><polyline fill="none" stroke="#6366F1" stroke-width="2.4" stroke-linejoin="round" stroke-linecap="round" points="124.94,291.99 133.56,292.07 142.18,292.82 150.79,291.48 159.41,291.75 168.03,285.29 176.65,293.05 185.26,290.23 193.88,290.29 202.5,289.78 211.12,291.61 219.74,290.27 228.35,286.66 236.97,290.55 245.59,286.99 254.21,293.02 262.82,290.61 271.44,286.59 280.06,283.56 288.68,290.63 297.29,289.42 305.91,292.33 314.53,288.36 323.15,284.88 331.76,291.34 340.38,290.13 349,291.01 357.62,289.68 374.85,289.04 383.47,291.5 392.09,291.97 400.71,289.14 409.32,289.37 417.94,290.04 426.56,290.81 435.18,291.39 443.79,292 461.03,292.33 469.65,292.51 478.26,290.75 486.88,289.5 495.5,289.4 504.12,282.59 512.74,289.91 521.35,286.79 529.97,288.79 538.59,286.98 547.21,290.22 555.82,291.94 564.44,292.7 573.06,281.08 581.68,292.31 590.29,290.28 598.91,286.5 607.53,289 616.15,289.95 624.76,291.41 633.38,290.81 642,291"></polyline><circle cx="124.94" cy="291.99" r="2.6" fill="#6366F1"></circle><circle cx="133.56" cy="292.07" r="2.6" fill="#6366F1"></circle><circle cx="142.18" cy="292.82" r="2.6" fill="#6366F1"></circle><circle cx="150.79" cy="291.48" r="2.6" fill="#6366F1"></circle><circle cx="159.41" cy="291.75" r="2.6" fill="#6366F1"></circle><circle cx="168.03" cy="285.29" r="2.6" fill="#6366F1"></circle><circle cx="176.65" cy="293.05" r="2.6" fill="#6366F1"></circle><circle cx="185.26" cy="290.23" r="2.6" fill="#6366F1"></circle><circle cx="193.88" cy="290.29" r="2.6" fill="#6366F1"></circle><circle cx="202.5" cy="289.78" r="2.6" fill="#6366F1"></circle><circle cx="211.12" cy="291.61" r="2.6" fill="#6366F1"></circle><circle cx="219.74" cy="290.27" r="2.6" fill="#6366F1"></circle><circle cx="228.35" cy="286.66" r="2.6" fill="#6366F1"></circle><circle cx="236.97" cy="290.55" r="2.6" fill="#6366F1"></circle><circle cx="245.59" cy="286.99" r="2.6" fill="#6366F1"></circle><circle cx="254.21" cy="293.02" r="2.6" fill="#6366F1"></circle><circle cx="262.82" cy="290.61" r="2.6" fill="#6366F1"></circle><circle cx="271.44" cy="286.59" r="2.6" fill="#6366F1"></circle><circle cx="280.06" cy="283.56" r="2.6" fill="#6366F1"></circle><circle cx="288.68" cy="290.63" r="2.6" fill="#6366F1"></circle><circle cx="297.29" cy="289.42" r="2.6" fill="#6366F1"></circle><circle cx="305.91" cy="292.33" r="2.6" fill="#6366F1"></circle><circle cx="314.53" cy="288.36" r="2.6" fill="#6366F1"></circle><circle cx="323.15" cy="284.88" r="2.6" fill="#6366F1"></circle><circle cx="331.76" cy="291.34" r="2.6" fill="#6366F1"></circle><circle cx="340.38" cy="290.13" r="2.6" fill="#6366F1"></circle><circle cx="349" cy="291.01" r="2.6" fill="#6366F1"></circle><circle cx="357.62" cy="289.68" r="2.6" fill="#6366F1"></circle><circle cx="374.85" cy="289.04" r="2.6" fill="#6366F1"></circle><circle cx="383.47" cy="291.5" r="2.6" fill="#6366F1"></circle><circle cx="392.09" cy="291.97" r="2.6" fill="#6366F1"></circle><circle cx="400.71" cy="289.14" r="2.6" fill="#6366F1"></circle><circle cx="409.32" cy="289.37" r="2.6" fill="#6366F1"></circle><circle cx="417.94" cy="290.04" r="2.6" fill="#6366F1"></circle><circle cx="426.56" cy="290.81" r="2.6" fill="#6366F1"></circle><circle cx="435.18" cy="291.39" r="2.6" fill="#6366F1"></circle><circle cx="443.79" cy="292" r="2.6" fill="#6366F1"></circle><circle cx="461.03" cy="292.33" r="2.6" fill="#6366F1"></circle><circle cx="469.65" cy="292.51" r="2.6" fill="#6366F1"></circle><circle cx="478.26" cy="290.75" r="2.6" fill="#6366F1"></circle><circle cx="486.88" cy="289.5" r="2.6" fill="#6366F1"></circle><circle cx="495.5" cy="289.4" r="2.6" fill="#6366F1"></circle><circle cx="504.12" cy="282.59" r="2.6" fill="#6366F1"></circle><circle cx="512.74" cy="289.91" r="2.6" fill="#6366F1"></circle><circle cx="521.35" cy="286.79" r="2.6" fill="#6366F1"></circle><circle cx="529.97" cy="288.79" r="2.6" fill="#6366F1"></circle><circle cx="538.59" cy="286.98" r="2.6" fill="#6366F1"></circle><circle cx="547.21" cy="290.22" r="2.6" fill="#6366F1"></circle><circle cx="555.82" cy="291.94" r="2.6" fill="#6366F1"></circle><circle cx="564.44" cy="292.7" r="2.6" fill="#6366F1"></circle><circle cx="573.06" cy="281.08" r="2.6" fill="#6366F1"></circle><circle cx="581.68" cy="292.31" r="2.6" fill="#6366F1"></circle><circle cx="590.29" cy="290.28" r="2.6" fill="#6366F1"></circle><circle cx="598.91" cy="286.5" r="2.6" fill="#6366F1"></circle><circle cx="607.53" cy="289" r="2.6" fill="#6366F1"></circle><circle cx="616.15" cy="289.95" r="2.6" fill="#6366F1"></circle><circle cx="624.76" cy="291.41" r="2.6" fill="#6366F1"></circle><circle cx="633.38" cy="290.81" r="2.6" fill="#6366F1"></circle><circle cx="642" cy="291" r="2.6" fill="#6366F1"></circle><polyline fill="none" stroke="#A371F7" stroke-width="2.4" stroke-linejoin="round" stroke-linecap="round" points="56,226.25 64.62,237.88 73.24,241.73 81.85,223.38 90.47,231.64 99.09,243.09 107.71,237.81 116.32,230.14 124.94,233.83 133.56,241.12 142.18,233.75 150.79,230.9 159.41,235.83 168.03,217.13 176.65,237.29 185.26,230.7 193.88,240.49 202.5,241.09 211.12,218.17 219.74,232.28 228.35,201.8 236.97,239.78 245.59,242.88 254.21,229.56 262.82,227.31 271.44,231.21 280.06,233.26 288.68,230.48 297.29,240.31 305.91,235.36 314.53,231.03 323.15,237.98 331.76,242.74 340.38,217.94 349,237.38 357.62,239.39 374.85,216.58 383.47,239.81 392.09,230.21 409.32,230.86 417.94,240.78 426.56,241.27 435.18,237.28 443.79,234.45 452.41,237.03 461.03,237.6 469.65,235.95 478.26,225.98 486.88,230.74 495.5,232.09 504.12,238.44 512.74,233.93 521.35,237.36 529.97,236.2 547.21,238.07 555.82,232.58 573.06,227.45 581.68,236.55 590.29,232.02 598.91,240.47 607.53,213.84 616.15,238.7 624.76,238.88 633.38,241.18 642,233.39"></polyline><circle cx="56" cy="226.25" r="2.6" fill="#A371F7"></circle><circle cx="64.62" cy="237.88" r="2.6" fill="#A371F7"></circle><circle cx="73.24" cy="241.73" r="2.6" fill="#A371F7"></circle><circle cx="81.85" cy="223.38" r="2.6" fill="#A371F7"></circle><circle cx="90.47" cy="231.64" r="2.6" fill="#A371F7"></circle><circle cx="99.09" cy="243.09" r="2.6" fill="#A371F7"></circle><circle cx="107.71" cy="237.81" r="2.6" fill="#A371F7"></circle><circle cx="116.32" cy="230.14" r="2.6" fill="#A371F7"></circle><circle cx="124.94" cy="233.83" r="2.6" fill="#A371F7"></circle><circle cx="133.56" cy="241.12" r="2.6" fill="#A371F7"></circle><circle cx="142.18" cy="233.75" r="2.6" fill="#A371F7"></circle><circle cx="150.79" cy="230.9" r="2.6" fill="#A371F7"></circle><circle cx="159.41" cy="235.83" r="2.6" fill="#A371F7"></circle><circle cx="168.03" cy="217.13" r="2.6" fill="#A371F7"></circle><circle cx="176.65" cy="237.29" r="2.6" fill="#A371F7"></circle><circle cx="185.26" cy="230.7" r="2.6" fill="#A371F7"></circle><circle cx="193.88" cy="240.49" r="2.6" fill="#A371F7"></circle><circle cx="202.5" cy="241.09" r="2.6" fill="#A371F7"></circle><circle cx="211.12" cy="218.17" r="2.6" fill="#A371F7"></circle><circle cx="219.74" cy="232.28" r="2.6" fill="#A371F7"></circle><circle cx="228.35" cy="201.8" r="2.6" fill="#A371F7"></circle><circle cx="236.97" cy="239.78" r="2.6" fill="#A371F7"></circle><circle cx="245.59" cy="242.88" r="2.6" fill="#A371F7"></circle><circle cx="254.21" cy="229.56" r="2.6" fill="#A371F7"></circle><circle cx="262.82" cy="227.31" r="2.6" fill="#A371F7"></circle><circle cx="271.44" cy="231.21" r="2.6" fill="#A371F7"></circle><circle cx="280.06" cy="233.26" r="2.6" fill="#A371F7"></circle><circle cx="288.68" cy="230.48" r="2.6" fill="#A371F7"></circle><circle cx="297.29" cy="240.31" r="2.6" fill="#A371F7"></circle><circle cx="305.91" cy="235.36" r="2.6" fill="#A371F7"></circle><circle cx="314.53" cy="231.03" r="2.6" fill="#A371F7"></circle><circle cx="323.15" cy="237.98" r="2.6" fill="#A371F7"></circle><circle cx="331.76" cy="242.74" r="2.6" fill="#A371F7"></circle><circle cx="340.38" cy="217.94" r="2.6" fill="#A371F7"></circle><circle cx="349" cy="237.38" r="2.6" fill="#A371F7"></circle><circle cx="357.62" cy="239.39" r="2.6" fill="#A371F7"></circle><circle cx="374.85" cy="216.58" r="2.6" fill="#A371F7"></circle><circle cx="383.47" cy="239.81" r="2.6" fill="#A371F7"></circle><circle cx="392.09" cy="230.21" r="2.6" fill="#A371F7"></circle><circle cx="409.32" cy="230.86" r="2.6" fill="#A371F7"></circle><circle cx="417.94" cy="240.78" r="2.6" fill="#A371F7"></circle><circle cx="426.56" cy="241.27" r="2.6" fill="#A371F7"></circle><circle cx="435.18" cy="237.28" r="2.6" fill="#A371F7"></circle><circle cx="443.79" cy="234.45" r="2.6" fill="#A371F7"></circle><circle cx="452.41" cy="237.03" r="2.6" fill="#A371F7"></circle><circle cx="461.03" cy="237.6" r="2.6" fill="#A371F7"></circle><circle cx="469.65" cy="235.95" r="2.6" fill="#A371F7"></circle><circle cx="478.26" cy="225.98" r="2.6" fill="#A371F7"></circle><circle cx="486.88" cy="230.74" r="2.6" fill="#A371F7"></circle><circle cx="495.5" cy="232.09" r="2.6" fill="#A371F7"></circle><circle cx="504.12" cy="238.44" r="2.6" fill="#A371F7"></circle><circle cx="512.74" cy="233.93" r="2.6" fill="#A371F7"></circle><circle cx="521.35" cy="237.36" r="2.6" fill="#A371F7"></circle><circle cx="529.97" cy="236.2" r="2.6" fill="#A371F7"></circle><circle cx="547.21" cy="238.07" r="2.6" fill="#A371F7"></circle><circle cx="555.82" cy="232.58" r="2.6" fill="#A371F7"></circle><circle cx="573.06" cy="227.45" r="2.6" fill="#A371F7"></circle><circle cx="581.68" cy="236.55" r="2.6" fill="#A371F7"></circle><circle cx="590.29" cy="232.02" r="2.6" fill="#A371F7"></circle><circle cx="598.91" cy="240.47" r="2.6" fill="#A371F7"></circle><circle cx="607.53" cy="213.84" r="2.6" fill="#A371F7"></circle><circle cx="616.15" cy="238.7" r="2.6" fill="#A371F7"></circle><circle cx="624.76" cy="238.88" r="2.6" fill="#A371F7"></circle><circle cx="633.38" cy="241.18" r="2.6" fill="#A371F7"></circle><circle cx="642" cy="233.39" r="2.6" fill="#A371F7"></circle><polyline fill="none" stroke="#F0A23B" stroke-width="2.4" stroke-linejoin="round" stroke-linecap="round" points="56,162.13 64.62,151.29 73.24,72.27 81.85,170.58 90.47,165.15 99.09,168.63 107.71,155.58 116.32,155.2 124.94,151.03 133.56,159.37 142.18,151 150.79,152 159.41,154.31 168.03,162.54 176.65,145.36 185.26,160.82 193.88,153.52 202.5,158.63 211.12,172.35 219.74,162.23 228.35,168.2 236.97,164.28 245.59,98 254.21,164.92 262.82,167.19 271.44,163.76 280.06,165.84 288.68,134.6 297.29,163 305.91,144.13 314.53,165.52 323.15,134.8 331.76,167.11 340.38,166.07 349,54.66 357.62,77.46 366.24,164.62 374.85,166.72 383.47,166.65 392.09,162.93 400.71,164.9 409.32,170.21 417.94,169.23 426.56,114.96 435.18,165.27 443.79,165.44 452.41,99.36 461.03,161.79 469.65,138.56 478.26,167.81 486.88,164.51 495.5,164.55 504.12,135.11 512.74,119.1 521.35,168.6 529.97,167.03 538.59,169.7 547.21,164.27 555.82,168.02 564.44,163.89 573.06,99.72 581.68,166.55 590.29,163.57 598.91,163.91 607.53,164.36 616.15,166.86 624.76,166.95 633.38,52.43 642,166.52"></polyline><circle cx="56" cy="162.13" r="2.6" fill="#F0A23B"></circle><circle cx="64.62" cy="151.29" r="2.6" fill="#F0A23B"></circle><circle cx="73.24" cy="72.27" r="2.6" fill="#F0A23B"></circle><circle cx="81.85" cy="170.58" r="2.6" fill="#F0A23B"></circle><circle cx="90.47" cy="165.15" r="2.6" fill="#F0A23B"></circle><circle cx="99.09" cy="168.63" r="2.6" fill="#F0A23B"></circle><circle cx="107.71" cy="155.58" r="2.6" fill="#F0A23B"></circle><circle cx="116.32" cy="155.2" r="2.6" fill="#F0A23B"></circle><circle cx="124.94" cy="151.03" r="2.6" fill="#F0A23B"></circle><circle cx="133.56" cy="159.37" r="2.6" fill="#F0A23B"></circle><circle cx="142.18" cy="151" r="2.6" fill="#F0A23B"></circle><circle cx="150.79" cy="152" r="2.6" fill="#F0A23B"></circle><circle cx="159.41" cy="154.31" r="2.6" fill="#F0A23B"></circle><circle cx="168.03" cy="162.54" r="2.6" fill="#F0A23B"></circle><circle cx="176.65" cy="145.36" r="2.6" fill="#F0A23B"></circle><circle cx="185.26" cy="160.82" r="2.6" fill="#F0A23B"></circle><circle cx="193.88" cy="153.52" r="2.6" fill="#F0A23B"></circle><circle cx="202.5" cy="158.63" r="2.6" fill="#F0A23B"></circle><circle cx="211.12" cy="172.35" r="2.6" fill="#F0A23B"></circle><circle cx="219.74" cy="162.23" r="2.6" fill="#F0A23B"></circle><circle cx="228.35" cy="168.2" r="2.6" fill="#F0A23B"></circle><circle cx="236.97" cy="164.28" r="2.6" fill="#F0A23B"></circle><circle cx="245.59" cy="98" r="2.6" fill="#F0A23B"></circle><circle cx="254.21" cy="164.92" r="2.6" fill="#F0A23B"></circle><circle cx="262.82" cy="167.19" r="2.6" fill="#F0A23B"></circle><circle cx="271.44" cy="163.76" r="2.6" fill="#F0A23B"></circle><circle cx="280.06" cy="165.84" r="2.6" fill="#F0A23B"></circle><circle cx="288.68" cy="134.6" r="2.6" fill="#F0A23B"></circle><circle cx="297.29" cy="163" r="2.6" fill="#F0A23B"></circle><circle cx="305.91" cy="144.13" r="2.6" fill="#F0A23B"></circle><circle cx="314.53" cy="165.52" r="2.6" fill="#F0A23B"></circle><circle cx="323.15" cy="134.8" r="2.6" fill="#F0A23B"></circle><circle cx="331.76" cy="167.11" r="2.6" fill="#F0A23B"></circle><circle cx="340.38" cy="166.07" r="2.6" fill="#F0A23B"></circle><circle cx="349" cy="54.66" r="2.6" fill="#F0A23B"></circle><circle cx="357.62" cy="77.46" r="2.6" fill="#F0A23B"></circle><circle cx="366.24" cy="164.62" r="2.6" fill="#F0A23B"></circle><circle cx="374.85" cy="166.72" r="2.6" fill="#F0A23B"></circle><circle cx="383.47" cy="166.65" r="2.6" fill="#F0A23B"></circle><circle cx="392.09" cy="162.93" r="2.6" fill="#F0A23B"></circle><circle cx="400.71" cy="164.9" r="2.6" fill="#F0A23B"></circle><circle cx="409.32" cy="170.21" r="2.6" fill="#F0A23B"></circle><circle cx="417.94" cy="169.23" r="2.6" fill="#F0A23B"></circle><circle cx="426.56" cy="114.96" r="2.6" fill="#F0A23B"></circle><circle cx="435.18" cy="165.27" r="2.6" fill="#F0A23B"></circle><circle cx="443.79" cy="165.44" r="2.6" fill="#F0A23B"></circle><circle cx="452.41" cy="99.36" r="2.6" fill="#F0A23B"></circle><circle cx="461.03" cy="161.79" r="2.6" fill="#F0A23B"></circle><circle cx="469.65" cy="138.56" r="2.6" fill="#F0A23B"></circle><circle cx="478.26" cy="167.81" r="2.6" fill="#F0A23B"></circle><circle cx="486.88" cy="164.51" r="2.6" fill="#F0A23B"></circle><circle cx="495.5" cy="164.55" r="2.6" fill="#F0A23B"></circle><circle cx="504.12" cy="135.11" r="2.6" fill="#F0A23B"></circle><circle cx="512.74" cy="119.1" r="2.6" fill="#F0A23B"></circle><circle cx="521.35" cy="168.6" r="2.6" fill="#F0A23B"></circle><circle cx="529.97" cy="167.03" r="2.6" fill="#F0A23B"></circle><circle cx="538.59" cy="169.7" r="2.6" fill="#F0A23B"></circle><circle cx="547.21" cy="164.27" r="2.6" fill="#F0A23B"></circle><circle cx="555.82" cy="168.02" r="2.6" fill="#F0A23B"></circle><circle cx="564.44" cy="163.89" r="2.6" fill="#F0A23B"></circle><circle cx="573.06" cy="99.72" r="2.6" fill="#F0A23B"></circle><circle cx="581.68" cy="166.55" r="2.6" fill="#F0A23B"></circle><circle cx="590.29" cy="163.57" r="2.6" fill="#F0A23B"></circle><circle cx="598.91" cy="163.91" r="2.6" fill="#F0A23B"></circle><circle cx="607.53" cy="164.36" r="2.6" fill="#F0A23B"></circle><circle cx="616.15" cy="166.86" r="2.6" fill="#F0A23B"></circle><circle cx="624.76" cy="166.95" r="2.6" fill="#F0A23B"></circle><circle cx="633.38" cy="52.43" r="2.6" fill="#F0A23B"></circle><circle cx="642" cy="166.52" r="2.6" fill="#F0A23B"></circle><line x1="656" y1="27" x2="672" y2="27" stroke="#6366F1" stroke-width="3" stroke-linecap="round"></line><text x="678" y="30" font-size="11" font-weight="400" text-anchor="start" fill="#1f2328">deepseek</text><line x1="656" y1="47" x2="672" y2="47" stroke="#A371F7" stroke-width="3" stroke-linecap="round"></line><text x="678" y="50" font-size="11" font-weight="400" text-anchor="start" fill="#1f2328">llama</text><line x1="656" y1="67" x2="672" y2="67" stroke="#F0A23B" stroke-width="3" stroke-linecap="round"></line><text x="678" y="70" font-size="11" font-weight="400" text-anchor="start" fill="#1f2328">mistral</text></svg>
