<svg xmlns="http://www.w3.org/2000/svg" viewBox="0 0 760 348" width="760" height="348" role="img" aria-label="Cost per test by provider over runs — anthropic highest, deepseek lowest" font-family="-apple-system,BlinkMacSystemFont,'Segoe UI',system-ui,sans-serif"><line x1="56" y1="306" x2="642" y2="306" stroke="#30363d" stroke-width="1"></line><text x="46" y="310" font-size="9.5" font-weight="400" text-anchor="end" fill="#8b949e" font-family="ui-monospace,SFMono-Regular,Menlo,monospace">$0.000</text><line x1="56" y1="235" x2="642" y2="235" stroke="#30363d" stroke-width="1"></line><text x="46" y="239" font-size="9.5" font-weight="400" text-anchor="end" fill="#8b949e" font-family="ui-monospace,SFMono-Regular,Menlo,monospace">$0.044</text><line x1="56" y1="164" x2="642" y2="164" stroke="#30363d" stroke-width="1"></line><text x="46" y="168" font-size="9.5" font-weight="400" text-anchor="end" fill="#8b949e" font-family="ui-monospace,SFMono-Regular,Menlo,monospace">$0.087</text><line x1="56" y1="93" x2="642" y2="93" stroke="#30363d" stroke-width="1"></line><text x="46" y="97" font-size="9.5" font-weight="400" text-anchor="end" fill="#8b949e" font-family="ui-monospace,SFMono-Regular,Menlo,monospace">$0.131</text><line x1="56" y1="22" x2="642" y2="22" stroke="#30363d" stroke-width="1"></line><text x="46" y="26" font-size="9.5" font-weight="400" text-anchor="end" fill="#8b949e" font-family="ui-monospace,SFMono-Regular,Menlo,monospace">$0.175</text><text x="56" y="324" font-size="9.5" font-weight="400" text-anchor="middle" fill="#8b949e" font-family="ui-monospace,SFMono-Regular,Menlo,monospace">06/06</text><text x="107.52" y="324" font-size="9.5" font-weight="400" text-anchor="middle" fill="#8b949e" font-family="ui-monospace,SFMono-Regular,Menlo,monospace">06/08</text><text x="159.03" y="324" font-size="9.5" font-weight="400" text-anchor="middle" fill="#8b949e" font-family="ui-monospace,SFMono-Regular,Menlo,monospace">06/09</text><text x="210.55" y="324" font-size="9.5" font-weight="400" text-anchor="middle" fill="#8b949e" font-family="ui-monospace,SFMono-Regular,Menlo,monospace">06/12</text><text x="262.07" y="324" font-size="9.5" font-weight="400" text-anchor="middle" fill="#8b949e" font-family="ui-monospace,SFMono-Regular,Menlo,monospace">06/14</text><text x="313.58" y="324" font-size="9.5" font-weight="400" text-anchor="middle" fill="#8b949e" font-family="ui-monospace,SFMono-Regular,Menlo,monospace">06/16</text><text x="365.1" y="324" font-size="9.5" font-weight="400" text-anchor="middle" fill="#8b949e" font-family="ui-monospace,SFMono-Regular,Menlo,monospace">06/17</text><text x="416.62" y="324" font-size="9.5" font-weight="400" text-anchor="middle" fill="#8b949e" font-family="ui-monospace,SFMono-Regular,Menlo,monospace">06/20</text><text x="468.13" y="324" font-size="9.5" font-weight="400" text-anchor="middle" fill="#8b949e" font-family="ui-monospace,SFMono-Regular,Menlo,monospace">06/22</text><text x="519.65" y="324" font-size="9.5" font-weight="400" text-anchor="middle" fill="#8b949e" font-family="ui-monospace,SFMono-Regular,Menlo,monospace">06/24</text><text x="571.16" y="324" font-size="9.5" font-weight="400" text-anchor="middle" fill="#8b949e" font-family="ui-monospace,SFMono-Regular,Menlo,monospace">06/25</text><text x="622.68" y="324" font-size="9.5" font-weight="400" text-anchor="middle" fill="#8b949e" font-family="ui-monospace,SFMono-Regular,Menlo,monospace">06/26</text><text x="642" y="324" font-size="9.5" font-weight="400" text-anchor="middle" fill="#8b949e" font-family="ui-monospace,SFMono-Regular,Menlo,monospace">06/27</text><polyline fill="none" stroke="#E8835A" stroke-width="2.4" stroke-linejoin="round" stroke-linecap="round" points="56,127.57 62.44,150.54 68.88,155.57 75.32,121.98 81.76,149.77 88.2,101.48 94.64,143.34 101.08,127.27 107.52,136.08 113.96,147.56 120.4,156.16 126.84,142.22 133.27,133.66 139.71,172.34 146.15,152.97 152.59,150.25 159.03,137.41 171.91,139.72 178.35,154.49 184.79,123.23 191.23,158.62 197.67,152.1 204.11,138.5 210.55,150.41 216.99,153.33 223.43,160.32 229.87,151.8 236.31,167.78 242.75,154.07 249.19,153.5 255.63,164.26 262.07,157.44 268.51,147.09 274.95,152.61 281.38,152.63 287.82,148.19 294.26,151.19 300.7,151.03 307.14,149.61 313.58,146 320.02,147.05 326.46,153.47 332.9,136.91 339.34,155.39 345.78,156.85"></polyline><circle cx="56" cy="127.57" r="2.6" fill="#E8835A"></circle><circle cx="62.44" cy="150.54" r="2.6" fill="#E8835A"></circle><circle cx="68.88" cy="155.57" r="2.6" fill="#E8835A"></circle><circle cx="75.32" cy="121.98" r="2.6" fill="#E8835A"></circle><circle cx="81.76" cy="149.77" r="2.6" fill="#E8835A"></circle><circle cx="88.2" cy="101.48" r="2.6" fill="#E8835A"></circle><circle cx="94.64" cy="143.34" r="2.6" fill="#E8835A"></circle><circle cx="101.08" cy="127.27" r="2.6" fill="#E8835A"></circle><circle cx="107.52" cy="136.08" r="2.6" fill="#E8835A"></circle><circle cx="113.96" cy="147.56" r="2.6" fill="#E8835A"></circle><circle cx="120.4" cy="156.16" r="2.6" fill="#E8835A"></circle><circle cx="126.84" cy="142.22" r="2.6" fill="#E8835A"></circle><circle cx="133.27" cy="133.66" r="2.6" fill="#E8835A"></circle><circle cx="139.71" cy="172.34" r="2.6" fill="#E8835A"></circle><circle cx="146.15" cy="152.97" r="2.6" fill="#E8835A"></circle><circle cx="152.59" cy="150.25" r="2.6" fill="#E8835A"></circle><circle cx="159.03" cy="137.41" r="2.6" fill="#E8835A"></circle><circle cx="171.91" cy="139.72" r="2.6" fill="#E8835A"></circle><circle cx="178.35" cy="154.49" r="2.6" fill="#E8835A"></circle><circle cx="184.79" cy="123.23" r="2.6" fill="#E8835A"></circle><circle cx="191.23" cy="158.62" r="2.6" fill="#E8835A"></circle><circle cx="197.67" cy="152.1" r="2.6" fill="#E8835A"></circle><circle cx="204.11" cy="138.5" r="2.6" fill="#E8835A"></circle><circle cx="210.55" cy="150.41" r="2.6" fill="#E8835A"></circle><circle cx="216.99" cy="153.33" r="2.6" fill="#E8835A"></circle><circle cx="223.43" cy="160.32" r="2.6" fill="#E8835A"></circle><circle cx="229.87" cy="151.8" r="2.6" fill="#E8835A"></circle><circle cx="236.31" cy="167.78" r="2.6" fill="#E8835A"></circle><circle cx="242.75" cy="154.07" r="2.6" fill="#E8835A"></circle><circle cx="249.19" cy="153.5" r="2.6" fill="#E8835A"></circle><circle cx="255.63" cy="164.26" r="2.6" fill="#E8835A"></circle><circle cx="262.07" cy="157.44" r="2.6" fill="#E8835A"></circle><circle cx="268.51" cy="147.09" r="2.6" fill="#E8835A"></circle><circle cx="274.95" cy="152.61" r="2.6" fill="#E8835A"></circle><circle cx="281.38" cy="152.63" r="2.6" fill="#E8835A"></circle><circle cx="287.82" cy="148.19" r="2.6" fill="#E8835A"></circle><circle cx="294.26" cy="151.19" r="2.6" fill="#E8835A"></circle><circle cx="300.7" cy="151.03" r="2.6" fill="#E8835A"></circle><circle cx="307.14" cy="149.61" r="2.6" fill="#E8835A"></circle><circle cx="313.58" cy="146" r="2.6" fill="#E8835A"></circle><circle cx="320.02" cy="147.05" r="2.6" fill="#E8835A"></circle><circle cx="326.46" cy="153.47" r="2.6" fill="#E8835A"></circle><circle cx="332.9" cy="136.91" r="2.6" fill="#E8835A"></circle><circle cx="339.34" cy="155.39" r="2.6" fill="#E8835A"></circle><circle cx="345.78" cy="156.85" r="2.6" fill="#E8835A"></circle><polyline fill="none" stroke="#6366F1" stroke-width="2.4" stroke-linejoin="round" stroke-linecap="round" points="107.52,293.36 113.96,293.43 120.4,294.1 126.84,292.89 133.27,293.14 139.71,287.31 146.15,294.31 152.59,291.77 159.03,291.82 165.47,291.36 171.91,293.02 178.35,291.8 184.79,288.55 191.23,292.06 197.67,288.85 204.11,294.29 210.55,292.11 216.99,288.48 223.43,285.75 229.87,292.13 236.31,291.04 242.75,293.66 249.19,290.08 255.63,286.94 262.07,292.77 268.51,291.68 274.95,292.47 281.38,291.27 294.26,290.7 300.7,292.91 307.14,293.34 313.58,290.78 320.02,290.99 326.46,291.6 332.9,292.29 339.34,292.81 345.78,293.37 358.66,293.66 365.1,293.82 371.54,292.24 377.98,291.11 384.42,291.02 390.86,284.88 397.3,291.48 403.74,288.67 410.18,290.47 416.62,288.84 423.05,291.75 435.93,293.31 442.37,293.99 448.81,283.51 455.25,293.65 461.69,291.81 468.13,288.4 474.57,290.65 481.01,291.51 487.45,292.83 493.89,292.29 500.33,292.47 506.77,291.94 513.21,291.55 519.65,286.48 526.09,293.64 532.53,293.02 538.97,289.13 545.41,293.27 551.85,293.55 558.29,290.63 564.73,294.26 571.16,294.04 577.6,292.1 584.04,293.08 590.48,294.3 596.92,290.77 603.36,291.33 609.8,291.53 616.24,292.23 629.12,291.66 635.56,292.25 642,294.13"></polyline><circle cx="107.52" cy="293.36" r="2.6" fill="#6366F1"></circle><circle cx="113.96" cy="293.43" r="2.6" fill="#6366F1"></circle><circle cx="120.4" cy="294.1" r="2.6" fill="#6366F1"></circle><circle cx="126.84" cy="292.89" r="2.6" fill="#6366F1"></circle><circle cx="133.27" cy="293.14" r="2.6" fill="#6366F1"></circle><circle cx="139.71" cy="287.31" r="2.6" fill="#6366F1"></circle><circle cx="146.15" cy="294.31" r="2.6" fill="#6366F1"></circle><circle cx="152.59" cy="291.77" r="2.6" fill="#6366F1"></circle><circle cx="159.03" cy="291.82" r="2.6" fill="#6366F1"></circle><circle cx="165.47" cy="291.36" r="2.6" fill="#6366F1"></circle><circle cx="171.91" cy="293.02" r="2.6" fill="#6366F1"></circle><circle cx="178.35" cy="291.8" r="2.6" fill="#6366F1"></circle><circle cx="184.79" cy="288.55" r="2.6" fill="#6366F1"></circle><circle cx="191.23" cy="292.06" r="2.6" fill="#6366F1"></circle><circle cx="197.67" cy="288.85" r="2.6" fill="#6366F1"></circle><circle cx="204.11" cy="294.29" r="2.6" fill="#6366F1"></circle><circle cx="210.55" cy="292.11" r="2.6" fill="#6366F1"></circle><circle cx="216.99" cy="288.48" r="2.6" fill="#6366F1"></circle><circle cx="223.43" cy="285.75" r="2.6" fill="#6366F1"></circle><circle cx="229.87" cy="292.13" r="2.6" fill="#6366F1"></circle><circle cx="236.31" cy="291.04" r="2.6" fill="#6366F1"></circle><circle cx="242.75" cy="293.66" r="2.6" fill="#6366F1"></circle><circle cx="249.19" cy="290.08" r="2.6" fill="#6366F1"></circle><circle cx="255.63" cy="286.94" r="2.6" fill="#6366F1"></circle><circle cx="262.07" cy="292.77" r="2.6" fill="#6366F1"></circle><circle cx="268.51" cy="291.68" r="2.6" fill="#6366F1"></circle><circle cx="274.95" cy="292.47" r="2.6" fill="#6366F1"></circle><circle cx="281.38" cy="291.27" r="2.6" fill="#6366F1"></circle><circle cx="294.26" cy="290.7" r="2.6" fill="#6366F1"></circle><circle cx="300.7" cy="292.91" r="2.6" fill="#6366F1"></circle><circle cx="307.14" cy="293.34" r="2.6" fill="#6366F1"></circle><circle cx="313.58" cy="290.78" r="2.6" fill="#6366F1"></circle><circle cx="320.02" cy="290.99" r="2.6" fill="#6366F1"></circle><circle cx="326.46" cy="291.6" r="2.6" fill="#6366F1"></circle><circle cx="332.9" cy="292.29" r="2.6" fill="#6366F1"></circle><circle cx="339.34" cy="292.81" r="2.6" fill="#6366F1"></circle><circle cx="345.78" cy="293.37" r="2.6" fill="#6366F1"></circle><circle cx="358.66" cy="293.66" r="2.6" fill="#6366F1"></circle><circle cx="365.1" cy="293.82" r="2.6" fill="#6366F1"></circle><circle cx="371.54" cy="292.24" r="2.6" fill="#6366F1"></circle><circle cx="377.98" cy="291.11" r="2.6" fill="#6366F1"></circle><circle cx="384.42" cy="291.02" r="2.6" fill="#6366F1"></circle><circle cx="390.86" cy="284.88" r="2.6" fill="#6366F1"></circle><circle cx="397.3" cy="291.48" r="2.6" fill="#6366F1"></circle><circle cx="403.74" cy="288.67" r="2.6" fill="#6366F1"></circle><circle cx="410.18" cy="290.47" r="2.6" fill="#6366F1"></circle><circle cx="416.62" cy="288.84" r="2.6" fill="#6366F1"></circle><circle cx="423.05" cy="291.75" r="2.6" fill="#6366F1"></circle><circle cx="435.93" cy="293.31" r="2.6" fill="#6366F1"></circle><circle cx="442.37" cy="293.99" r="2.6" fill="#6366F1"></circle><circle cx="448.81" cy="283.51" r="2.6" fill="#6366F1"></circle><circle cx="455.25" cy="293.65" r="2.6" fill="#6366F1"></circle><circle cx="461.69" cy="291.81" r="2.6" fill="#6366F1"></circle><circle cx="468.13" cy="288.4" r="2.6" fill="#6366F1"></circle><circle cx="474.57" cy="290.65" r="2.6" fill="#6366F1"></circle><circle cx="481.01" cy="291.51" r="2.6" fill="#6366F1"></circle><circle cx="487.45" cy="292.83" r="2.6" fill="#6366F1"></circle><circle cx="493.89" cy="292.29" r="2.6" fill="#6366F1"></circle><circle cx="500.33" cy="292.47" r="2.6" fill="#6366F1"></circle><circle cx="506.77" cy="291.94" r="2.6" fill="#6366F1"></circle><circle cx="513.21" cy="291.55" r="2.6" fill="#6366F1"></circle><circle cx="519.65" cy="286.48" r="2.6" fill="#6366F1"></circle><circle cx="526.09" cy="293.64" r="2.6" fill="#6366F1"></circle><circle cx="532.53" cy="293.02" r="2.6" fill="#6366F1"></circle><circle cx="538.97" cy="289.13" r="2.6" fill="#6366F1"></circle><circle cx="545.41" cy="293.27" r="2.6" fill="#6366F1"></circle><circle cx="551.85" cy="293.55" r="2.6" fill="#6366F1"></circle><circle cx="558.29" cy="290.63" r="2.6" fill="#6366F1"></circle><circle cx="564.73" cy="294.26" r="2.6" fill="#6366F1"></circle><circle cx="571.16" cy="294.04" r="2.6" fill="#6366F1"></circle><circle cx="577.6" cy="292.1" r="2.6" fill="#6366F1"></circle><circle cx="584.04" cy="293.08" r="2.6" fill="#6366F1"></circle><circle cx="590.48" cy="294.3" r="2.6" fill="#6366F1"></circle><circle cx="596.92" cy="290.77" r="2.6" fill="#6366F1"></circle><circle cx="603.36" cy="291.33" r="2.6" fill="#6366F1"></circle><circle cx="609.8" cy="291.53" r="2.6" fill="#6366F1"></circle><circle cx="616.24" cy="292.23" r="2.6" fill="#6366F1"></circle><circle cx="629.12" cy="291.66" r="2.6" fill="#6366F1"></circle><circle cx="635.56" cy="292.25" r="2.6" fill="#6366F1"></circle><circle cx="642" cy="294.13" r="2.6" fill="#6366F1"></circle><polyline fill="none" stroke="#2DA98C" stroke-width="2.4" stroke-linejoin="round" stroke-linecap="round" points="56,177.54 62.44,184.75 68.88,177.06 75.32,180.34 81.76,187.66 88.2,172.87 94.64,180.16 101.08,175.2 107.52,175.16 113.96,174.17 120.4,176.55 126.84,189.44 133.27,188.08 139.71,181.62 146.15,175.71 152.59,176.02 159.03,145.03 165.47,175.81 171.91,142.78 178.35,152.48 184.79,167.95 191.23,161.96 197.67,179.65 204.11,154.21 210.55,175.54 216.99,169.72 223.43,166.19 229.87,168.96 294.26,183.66 300.7,171.98 307.14,158.08 313.58,184.11 320.02,159.65 326.46,153.07 332.9,175.59 339.34,147.56 345.78,181.96 358.66,168.35 365.1,160.07 371.54,162.84 377.98,169.17 384.42,179.86 390.86,162.19 397.3,176.21 403.74,157.24 410.18,161.18 416.62,165.58 423.05,169.62 435.93,176.54 442.37,164.19 448.81,120.01 455.25,183.3 461.69,168.8 468.13,160.75 474.57,167.62 481.01,163.1 487.45,153.1 493.89,145.23 500.33,165.61 506.77,150.54 513.21,172.34 519.65,154.82 526.09,169.79 532.53,169.77 538.97,133.01 545.41,152.52 551.85,172.51 558.29,172.15"></polyline><circle cx="56" cy="177.54" r="2.6" fill="#2DA98C"></circle><circle cx="62.44" cy="184.75" r="2.6" fill="#2DA98C"></circle><circle cx="68.88" cy="177.06" r="2.6" fill="#2DA98C"></circle><circle cx="75.32" cy="180.34" r="2.6" fill="#2DA98C"></circle><circle cx="81.76" cy="187.66" r="2.6" fill="#2DA98C"></circle><circle cx="88.2" cy="172.87" r="2.6" fill="#2DA98C"></circle><circle cx="94.64" cy="180.16" r="2.6" fill="#2DA98C"></circle><circle cx="101.08" cy="175.2" r="2.6" fill="#2DA98C"></circle><circle cx="107.52" cy="175.16" r="2.6" fill="#2DA98C"></circle><circle cx="113.96" cy="174.17" r="2.6" fill="#2DA98C"></circle><circle cx="120.4" cy="176.55" r="2.6" fill="#2DA98C"></circle><circle cx="126.84" cy="189.44" r="2.6" fill="#2DA98C"></circle><circle cx="133.27" cy="188.08" r="2.6" fill="#2DA98C"></circle><circle cx="139.71" cy="181.62" r="2.6" fill="#2DA98C"></circle><circle cx="146.15" cy="175.71" r="2.6" fill="#2DA98C"></circle><circle cx="152.59" cy="176.02" r="2.6" fill="#2DA98C"></circle><circle cx="159.03" cy="145.03" r="2.6" fill="#2DA98C"></circle><circle cx="165.47" cy="175.81" r="2.6" fill="#2DA98C"></circle><circle cx="171.91" cy="142.78" r="2.6" fill="#2DA98C"></circle><circle cx="178.35" cy="152.48" r="2.6" fill="#2DA98C"></circle><circle cx="184.79" cy="167.95" r="2.6" fill="#2DA98C"></circle><circle cx="191.23" cy="161.96" r="2.6" fill="#2DA98C"></circle><circle cx="197.67" cy="179.65" r="2.6" fill="#2DA98C"></circle><circle cx="204.11" cy="154.21" r="2.6" fill="#2DA98C"></circle><circle cx="210.55" cy="175.54" r="2.6" fill="#2DA98C"></circle><circle cx="216.99" cy="169.72" r="2.6" fill="#2DA98C"></circle><circle cx="223.43" cy="166.19" r="2.6" fill="#2DA98C"></circle><circle cx="229.87" cy="168.96" r="2.6" fill="#2DA98C"></circle><circle cx="294.26" cy="183.66" r="2.6" fill="#2DA98C"></circle><circle cx="300.7" cy="171.98" r="2.6" fill="#2DA98C"></circle><circle cx="307.14" cy="158.08" r="2.6" fill="#2DA98C"></circle><circle cx="313.58" cy="184.11" r="2.6" fill="#2DA98C"></circle><circle cx="320.02" cy="159.65" r="2.6" fill="#2DA98C"></circle><circle cx="326.46" cy="153.07" r="2.6" fill="#2DA98C"></circle><circle cx="332.9" cy="175.59" r="2.6" fill="#2DA98C"></circle><circle cx="339.34" cy="147.56" r="2.6" fill="#2DA98C"></circle><circle cx="345.78" cy="181.96" r="2.6" fill="#2DA98C"></circle><circle cx="358.66" cy="168.35" r="2.6" fill="#2DA98C"></circle><circle cx="365.1" cy="160.07" r="2.6" fill="#2DA98C"></circle><circle cx="371.54" cy="162.84" r="2.6" fill="#2DA98C"></circle><circle cx="377.98" cy="169.17" r="2.6" fill="#2DA98C"></circle><circle cx="384.42" cy="179.86" r="2.6" fill="#2DA98C"></circle><circle cx="390.86" cy="162.19" r="2.6" fill="#2DA98C"></circle><circle cx="397.3" cy="176.21" r="2.6" fill="#2DA98C"></circle><circle cx="403.74" cy="157.24" r="2.6" fill="#2DA98C"></circle><circle cx="410.18" cy="161.18" r="2.6" fill="#2DA98C"></circle><circle cx="416.62" cy="165.58" r="2.6" fill="#2DA98C"></circle><circle cx="423.05" cy="169.62" r="2.6" fill="#2DA98C"></circle><circle cx="435.93" cy="176.54" r="2.6" fill="#2DA98C"></circle><circle cx="442.37" cy="164.19" r="2.6" fill="#2DA98C"></circle><circle cx="448.81" cy="120.01" r="2.6" fill="#2DA98C"></circle><circle cx="455.25" cy="183.3" r="2.6" fill="#2DA98C"></circle><circle cx="461.69" cy="168.8" r="2.6" fill="#2DA98C"></circle><circle cx="468.13" cy="160.75" r="2.6" fill="#2DA98C"></circle><circle cx="474.57" cy="167.62" r="2.6" fill="#2DA98C"></circle><circle cx="481.01" cy="163.1" r="2.6" fill="#2DA98C"></circle><circle cx="487.45" cy="153.1" r="2.6" fill="#2DA98C"></circle><circle cx="493.89" cy="145.23" r="2.6" fill="#2DA98C"></circle><circle cx="500.33" cy="165.61" r="2.6" fill="#2DA98C"></circle><circle cx="506.77" cy="150.54" r="2.6" fill="#2DA98C"></circle><circle cx="513.21" cy="172.34" r="2.6" fill="#2DA98C"></circle><circle cx="519.65" cy="154.82" r="2.6" fill="#2DA98C"></circle><circle cx="526.09" cy="169.79" r="2.6" fill="#2DA98C"></circle><circle cx="532.53" cy="169.77" r="2.6" fill="#2DA98C"></circle><circle cx="538.97" cy="133.01" r="2.6" fill="#2DA98C"></circle><circle cx="545.41" cy="152.52" r="2.6" fill="#2DA98C"></circle><circle cx="551.85" cy="172.51" r="2.6" fill="#2DA98C"></circle><circle cx="558.29" cy="172.15" r="2.6" fill="#2DA98C"></circle><polyline fill="none" stroke="#A371F7" stroke-width="2.4" stroke-linejoin="round" stroke-linecap="round" points="56,234.02 62.44,244.52 68.88,248 75.32,231.43 81.76,238.89 88.2,249.23 94.64,244.46 101.08,237.54 107.52,240.86 113.96,247.44 120.4,240.79 126.84,238.23 133.27,242.67 139.71,225.79 146.15,243.99 152.59,238.04 159.03,246.87 165.47,247.42 171.91,226.74 178.35,239.47 184.79,211.96 191.23,246.23 197.67,249.04 204.11,237.01 210.55,234.98 216.99,238.5 223.43,240.35 229.87,237.84 236.31,246.71 242.75,242.24 249.19,238.34 255.63,244.61 262.07,248.91 268.51,226.53 274.95,244.07 281.38,245.89 294.26,225.3 300.7,246.26 307.14,237.6 320.02,238.19 326.46,247.14 332.9,247.58 339.34,243.98 345.78,241.42 352.22,243.75 358.66,244.26 365.1,242.78 371.54,233.78 377.98,238.08 384.42,239.3 390.86,245.03 397.3,240.96 403.74,244.05 410.18,243 423.05,244.69 435.93,239.74 448.81,235.11 455.25,243.32 461.69,239.23 468.13,246.86 474.57,222.82 481.01,245.26 487.45,245.42 493.89,247.5 500.33,240.47 506.77,241.59 513.21,245.63 526.09,246.62 532.53,236.88 538.97,246.47 545.41,243.95 551.85,246.28 558.29,247.57 564.73,243.81 571.16,247.56 577.6,246.67 584.04,209.25 590.48,238.83 596.92,243.83 603.36,243.69 616.24,237.52 629.12,235.81 635.56,247.64 642,243.45"></polyline><circle cx="56" cy="234.02" r="2.6" fill="#A371F7"></circle><circle cx="62.44" cy="244.52" r="2.6" fill="#A371F7"></circle><circle cx="68.88" cy="248" r="2.6" fill="#A371F7"></circle><circle cx="75.32" cy="231.43" r="2.6" fill="#A371F7"></circle><circle cx="81.76" cy="238.89" r="2.6" fill="#A371F7"></circle><circle cx="88.2" cy="249.23" r="2.6" fill="#A371F7"></circle><circle cx="94.64" cy="244.46" r="2.6" fill="#A371F7"></circle><circle cx="101.08" cy="237.54" r="2.6" fill="#A371F7"></circle><circle cx="107.52" cy="240.86" r="2.6" fill="#A371F7"></circle><circle cx="113.96" cy="247.44" r="2.6" fill="#A371F7"></circle><circle cx="120.4" cy="240.79" r="2.6" fill="#A371F7"></circle><circle cx="126.84" cy="238.23" r="2.6" fill="#A371F7"></circle><circle cx="133.27" cy="242.67" r="2.6" fill="#A371F7"></circle><circle cx="139.71" cy="225.79" r="2.6" fill="#A371F7"></circle><circle cx="146.15" cy="243.99" r="2.6" fill="#A371F7"></circle><circle cx="152.59" cy="238.04" r="2.6" fill="#A371F7"></circle><circle cx="159.03" cy="246.87" r="2.6" fill="#A371F7"></circle><circle cx="165.47" cy="247.42" r="2.6" fill="#A371F7"></circle><circle cx="171.91" cy="226.74" r="2.6" fill="#A371F7"></circle><circle cx="178.35" cy="239.47" r="2.6" fill="#A371F7"></circle><circle cx="184.79" cy="211.96" r="2.6" fill="#A371F7"></circle><circle cx="191.23" cy="246.23" r="2.6" fill="#A371F7"></circle><circle cx="197.67" cy="249.04" r="2.6" fill="#A371F7"></circle><circle cx="204.11" cy="237.01" r="2.6" fill="#A371F7"></circle><circle cx="210.55" cy="234.98" r="2.6" fill="#A371F7"></circle><circle cx="216.99" cy="238.5" r="2.6" fill="#A371F7"></circle><circle cx="223.43" cy="240.35" r="2.6" fill="#A371F7"></circle><circle cx="229.87" cy="237.84" r="2.6" fill="#A371F7"></circle><circle cx="236.31" cy="246.71" r="2.6" fill="#A371F7"></circle><circle cx="242.75" cy="242.24" r="2.6" fill="#A371F7"></circle><circle cx="249.19" cy="238.34" r="2.6" fill="#A371F7"></circle><circle cx="255.63" cy="244.61" r="2.6" fill="#A371F7"></circle><circle cx="262.07" cy="248.91" r="2.6" fill="#A371F7"></circle><circle cx="268.51" cy="226.53" r="2.6" fill="#A371F7"></circle><circle cx="274.95" cy="244.07" r="2.6" fill="#A371F7"></circle><circle cx="281.38" cy="245.89" r="2.6" fill="#A371F7"></circle><circle cx="294.26" cy="225.3" r="2.6" fill="#A371F7"></circle><circle cx="300.7" cy="246.26" r="2.6" fill="#A371F7"></circle><circle cx="307.14" cy="237.6" r="2.6" fill="#A371F7"></circle><circle cx="320.02" cy="238.19" r="2.6" fill="#A371F7"></circle><circle cx="326.46" cy="247.14" r="2.6" fill="#A371F7"></circle><circle cx="332.9" cy="247.58" r="2.6" fill="#A371F7"></circle><circle cx="339.34" cy="243.98" r="2.6" fill="#A371F7"></circle><circle cx="345.78" cy="241.42" r="2.6" fill="#A371F7"></circle><circle cx="352.22" cy="243.75" r="2.6" fill="#A371F7"></circle><circle cx="358.66" cy="244.26" r="2.6" fill="#A371F7"></circle><circle cx="365.1" cy="242.78" r="2.6" fill="#A371F7"></circle><circle cx="371.54" cy="233.78" r="2.6" fill="#A371F7"></circle><circle cx="377.98" cy="238.08" r="2.6" fill="#A371F7"></circle><circle cx="384.42" cy="239.3" r="2.6" fill="#A371F7"></circle><circle cx="390.86" cy="245.03" r="2.6" fill="#A371F7"></circle><circle cx="397.3" cy="240.96" r="2.6" fill="#A371F7"></circle><circle cx="403.74" cy="244.05" r="2.6" fill="#A371F7"></circle><circle cx="410.18" cy="243" r="2.6" fill="#A371F7"></circle><circle cx="423.05" cy="244.69" r="2.6" fill="#A371F7"></circle><circle cx="435.93" cy="239.74" r="2.6" fill="#A371F7"></circle><circle cx="448.81" cy="235.11" r="2.6" fill="#A371F7"></circle><circle cx="455.25" cy="243.32" r="2.6" fill="#A371F7"></circle><circle cx="461.69" cy="239.23" r="2.6" fill="#A371F7"></circle><circle cx="468.13" cy="246.86" r="2.6" fill="#A371F7"></circle><circle cx="474.57" cy="222.82" r="2.6" fill="#A371F7"></circle><circle cx="481.01" cy="245.26" r="2.6" fill="#A371F7"></circle><circle cx="487.45" cy="245.42" r="2.6" fill="#A371F7"></circle><circle cx="493.89" cy="247.5" r="2.6" fill="#A371F7"></circle><circle cx="500.33" cy="240.47" r="2.6" fill="#A371F7"></circle><circle cx="506.77" cy="241.59" r="2.6" fill="#A371F7"></circle><circle cx="513.21" cy="245.63" r="2.6" fill="#A371F7"></circle><circle cx="526.09" cy="246.62" r="2.6" fill="#A371F7"></circle><circle cx="532.53" cy="236.88" r="2.6" fill="#A371F7"></circle><circle cx="538.97" cy="246.47" r="2.6" fill="#A371F7"></circle><circle cx="545.41" cy="243.95" r="2.6" fill="#A371F7"></circle><circle cx="551.85" cy="246.28" r="2.6" fill="#A371F7"></circle><circle cx="558.29" cy="247.57" r="2.6" fill="#A371F7"></circle><circle cx="564.73" cy="243.81" r="2.6" fill="#A371F7"></circle><circle cx="571.16" cy="247.56" r="2.6" fill="#A371F7"></circle><circle cx="577.6" cy="246.67" r="2.6" fill="#A371F7"></circle><circle cx="584.04" cy="209.25" r="2.6" fill="#A371F7"></circle><circle cx="590.48" cy="238.83" r="2.6" fill="#A371F7"></circle><circle cx="596.92" cy="243.83" r="2.6" fill="#A371F7"></circle><circle cx="603.36" cy="243.69" r="2.6" fill="#A371F7"></circle><circle cx="616.24" cy="237.52" r="2.6" fill="#A371F7"></circle><circle cx="629.12" cy="235.81" r="2.6" fill="#A371F7"></circle><circle cx="635.56" cy="247.64" r="2.6" fill="#A371F7"></circle><circle cx="642" cy="243.45" r="2.6" fill="#A371F7"></circle><polyline fill="none" stroke="#F0A23B" stroke-width="2.4" stroke-linejoin="round" stroke-linecap="round" points="56,176.15 62.44,166.37 68.88,95.06 75.32,183.78 81.76,178.88 88.2,182.02 94.64,170.24 101.08,169.9 107.52,166.14 113.96,173.66 120.4,166.11 126.84,167.02 133.27,169.09 139.71,176.53 146.15,161.02 152.59,174.97 159.03,168.38 165.47,173 171.91,185.38 178.35,176.24 184.79,181.63 191.23,178.09 197.67,118.27 204.11,178.67 210.55,180.72 216.99,177.62 223.43,179.5 229.87,151.31 236.31,176.94 242.75,159.91 249.19,179.22 255.63,151.49 262.07,180.65 268.51,179.71 274.95,79.16 281.38,99.74 287.82,178.4 294.26,180.3 300.7,180.24 307.14,176.88 313.58,178.65 320.02,183.45 326.46,182.56 332.9,133.59 339.34,178.99 345.78,179.14 352.22,119.51 358.66,175.85 365.1,154.88 371.54,181.28 377.98,178.3 384.42,178.34 390.86,151.77 397.3,137.32 403.74,181.99 410.18,180.58 416.62,182.99 423.05,178.09 435.93,181.47 442.37,177.75 448.81,119.83 455.25,180.14 461.69,177.45 468.13,177.76 474.57,178.17 481.01,180.42 487.45,180.5 493.89,77.15 500.33,180.12 506.77,179.48 513.21,178.37 526.09,178.03 532.53,178.06 538.97,175.76 545.41,170.64 551.85,178.67 558.29,180.1 564.73,173.03 571.16,182.47 577.6,178.65 584.04,181.62 590.48,151.39 596.92,138.74 603.36,178.31 616.24,179.61 622.68,178.84 629.12,179.96 635.56,178 642,136.19"></polyline><circle cx="56" cy="176.15" r="2.6" fill="#F0A23B"></circle><circle cx="62.44" cy="166.37" r="2.6" fill="#F0A23B"></circle><circle cx="68.88" cy="95.06" r="2.6" fill="#F0A23B"></circle><circle cx="75.32" cy="183.78" r="2.6" fill="#F0A23B"></circle><circle cx="81.76" cy="178.88" r="2.6" fill="#F0A23B"></circle><circle cx="88.2" cy="182.02" r="2.6" fill="#F0A23B"></circle><circle cx="94.64" cy="170.24" r="2.6" fill="#F0A23B"></circle><circle cx="101.08" cy="169.9" r="2.6" fill="#F0A23B"></circle><circle cx="107.52" cy="166.14" r="2.6" fill="#F0A23B"></circle><circle cx="113.96" cy="173.66" r="2.6" fill="#F0A23B"></circle><circle cx="120.4" cy="166.11" r="2.6" fill="#F0A23B"></circle><circle cx="126.84" cy="167.02" r="2.6" fill="#F0A23B"></circle><circle cx="133.27" cy="169.09" r="2.6" fill="#F0A23B"></circle><circle cx="139.71" cy="176.53" r="2.6" fill="#F0A23B"></circle><circle cx="146.15" cy="161.02" r="2.6" fill="#F0A23B"></circle><circle cx="152.59" cy="174.97" r="2.6" fill="#F0A23B"></circle><circle cx="159.03" cy="168.38" r="2.6" fill="#F0A23B"></circle><circle cx="165.47" cy="173" r="2.6" fill="#F0A23B"></circle><circle cx="171.91" cy="185.38" r="2.6" fill="#F0A23B"></circle><circle cx="178.35" cy="176.24" r="2.6" fill="#F0A23B"></circle><circle cx="184.79" cy="181.63" r="2.6" fill="#F0A23B"></circle><circle cx="191.23" cy="178.09" r="2.6" fill="#F0A23B"></circle><circle cx="197.67" cy="118.27" r="2.6" fill="#F0A23B"></circle><circle cx="204.11" cy="178.67" r="2.6" fill="#F0A23B"></circle><circle cx="210.55" cy="180.72" r="2.6" fill="#F0A23B"></circle><circle cx="216.99" cy="177.62" r="2.6" fill="#F0A23B"></circle><circle cx="223.43" cy="179.5" r="2.6" fill="#F0A23B"></circle><circle cx="229.87" cy="151.31" r="2.6" fill="#F0A23B"></circle><circle cx="236.31" cy="176.94" r="2.6" fill="#F0A23B"></circle><circle cx="242.75" cy="159.91" r="2.6" fill="#F0A23B"></circle><circle cx="249.19" cy="179.22" r="2.6" fill="#F0A23B"></circle><circle cx="255.63" cy="151.49" r="2.6" fill="#F0A23B"></circle><circle cx="262.07" cy="180.65" r="2.6" fill="#F0A23B"></circle><circle cx="268.51" cy="179.71" r="2.6" fill="#F0A23B"></circle><circle cx="274.95" cy="79.16" r="2.6" fill="#F0A23B"></circle><circle cx="281.38" cy="99.74" r="2.6" fill="#F0A23B"></circle><circle cx="287.82" cy="178.4" r="2.6" fill="#F0A23B"></circle><circle cx="294.26" cy="180.3" r="2.6" fill="#F0A23B"></circle><circle cx="300.7" cy="180.24" r="2.6" fill="#F0A23B"></circle><circle cx="307.14" cy="176.88" r="2.6" fill="#F0A23B"></circle><circle cx="313.58" cy="178.65" r="2.6" fill="#F0A23B"></circle><circle cx="320.02" cy="183.45" r="2.6" fill="#F0A23B"></circle><circle cx="326.46" cy="182.56" r="2.6" fill="#F0A23B"></circle><circle cx="332.9" cy="133.59" r="2.6" fill="#F0A23B"></circle><circle cx="339.34" cy="178.99" r="2.6" fill="#F0A23B"></circle><circle cx="345.78" cy="179.14" r="2.6" fill="#F0A23B"></circle><circle cx="352.22" cy="119.51" r="2.6" fill="#F0A23B"></circle><circle cx="358.66" cy="175.85" r="2.6" fill="#F0A23B"></circle><circle cx="365.1" cy="154.88" r="2.6" fill="#F0A23B"></circle><circle cx="371.54" cy="181.28" r="2.6" fill="#F0A23B"></circle><circle cx="377.98" cy="178.3" r="2.6" fill="#F0A23B"></circle><circle cx="384.42" cy="178.34" r="2.6" fill="#F0A23B"></circle><circle cx="390.86" cy="151.77" r="2.6" fill="#F0A23B"></circle><circle cx="397.3" cy="137.32" r="2.6" fill="#F0A23B"></circle><circle cx="403.74" cy="181.99" r="2.6" fill="#F0A23B"></circle><circle cx="410.18" cy="180.58" r="2.6" fill="#F0A23B"></circle><circle cx="416.62" cy="182.99" r="2.6" fill="#F0A23B"></circle><circle cx="423.05" cy="178.09" r="2.6" fill="#F0A23B"></circle><circle cx="435.93" cy="181.47" r="2.6" fill="#F0A23B"></circle><circle cx="442.37" cy="177.75" r="2.6" fill="#F0A23B"></circle><circle cx="448.81" cy="119.83" r="2.6" fill="#F0A23B"></circle><circle cx="455.25" cy="180.14" r="2.6" fill="#F0A23B"></circle><circle cx="461.69" cy="177.45" r="2.6" fill="#F0A23B"></circle><circle cx="468.13" cy="177.76" r="2.6" fill="#F0A23B"></circle><circle cx="474.57" cy="178.17" r="2.6" fill="#F0A23B"></circle><circle cx="481.01" cy="180.42" r="2.6" fill="#F0A23B"></circle><circle cx="487.45" cy="180.5" r="2.6" fill="#F0A23B"></circle><circle cx="493.89" cy="77.15" r="2.6" fill="#F0A23B"></circle><circle cx="500.33" cy="180.12" r="2.6" fill="#F0A23B"></circle><circle cx="506.77" cy="179.48" r="2.6" fill="#F0A23B"></circle><circle cx="513.21" cy="178.37" r="2.6" fill="#F0A23B"></circle><circle cx="526.09" cy="178.03" r="2.6" fill="#F0A23B"></circle><circle cx="532.53" cy="178.06" r="2.6" fill="#F0A23B"></circle><circle cx="538.97" cy="175.76" r="2.6" fill="#F0A23B"></circle><circle cx="545.41" cy="170.64" r="2.6" fill="#F0A23B"></circle><circle cx="551.85" cy="178.67" r="2.6" fill="#F0A23B"></circle><circle cx="558.29" cy="180.1" r="2.6" fill="#F0A23B"></circle><circle cx="564.73" cy="173.03" r="2.6" fill="#F0A23B"></circle><circle cx="571.16" cy="182.47" r="2.6" fill="#F0A23B"></circle><circle cx="577.6" cy="178.65" r="2.6" fill="#F0A23B"></circle><circle cx="584.04" cy="181.62" r="2.6" fill="#F0A23B"></circle><circle cx="590.48" cy="151.39" r="2.6" fill="#F0A23B"></circle><circle cx="596.92" cy="138.74" r="2.6" fill="#F0A23B"></circle><circle cx="603.36" cy="178.31" r="2.6" fill="#F0A23B"></circle><circle cx="616.24" cy="179.61" r="2.6" fill="#F0A23B"></circle><circle cx="622.68" cy="178.84" r="2.6" fill="#F0A23B"></circle><circle cx="629.12" cy="179.96" r="2.6" fill="#F0A23B"></circle><circle cx="635.56" cy="178" r="2.6" fill="#F0A23B"></circle><circle cx="642" cy="136.19" r="2.6" fill="#F0A23B"></circle><polyline fill="none" stroke="#1F9CF0" stroke-width="2.4" stroke-linejoin="round" stroke-linecap="round" points="56,175.5 62.44,176.2 68.88,132.71 75.32,178.27 81.76,172 88.2,174.38 94.64,174.4 101.08,170.88 107.52,173.93 113.96,173.54 120.4,100.75 126.84,168.69 133.27,173.59 139.71,174.01 146.15,167.31 152.59,117.5 159.03,166.02 165.47,174.07 171.91,141.6 178.35,169.05 184.79,167.14 191.23,174.48 197.67,150.94 204.11,171.01 210.55,52.43 216.99,157.26 223.43,171.51 229.87,136.29 236.31,169.79 242.75,106.45 249.19,170.47 255.63,175.76 262.07,174.01 268.51,174.06 274.95,151.2 281.38,173.78 287.82,169.88 294.26,177.61 300.7,137.18 307.14,114.15 313.58,168.74 320.02,168.47 326.46,130.46 332.9,174.44 339.34,175.01 345.78,171.26 352.22,176.81 358.66,171.37 365.1,161.31 371.54,135.44 377.98,169.24 384.42,176.14 390.86,170.75 397.3,171.27 403.74,166.35 410.18,173.15 416.62,132.18 423.05,168.56 429.49,155.42 435.93,170.02 442.37,169.75 448.81,172.03 455.25,163.98 506.77,170.38 513.21,170.13 519.65,171.04 526.09,151.7 532.53,172.65 538.97,168.55 545.41,174.72 551.85,166.02 558.29,173.54 564.73,166.32 571.16,109.65 577.6,153.77 584.04,175.7 590.48,171.76 596.92,175.06 603.36,177.47 609.8,174.24 616.24,70.44 622.68,178.07 629.12,170.9 635.56,171.05 642,151.56"></polyline><circle cx="56" cy="175.5" r="2.6" fill="#1F9CF0"></circle><circle cx="62.44" cy="176.2" r="2.6" fill="#1F9CF0"></circle><circle cx="68.88" cy="132.71" r="2.6" fill="#1F9CF0"></circle><circle cx="75.32" cy="178.27" r="2.6" fill="#1F9CF0"></circle><circle cx="81.76" cy="172" r="2.6" fill="#1F9CF0"></circle><circle cx="88.2" cy="174.38" r="2.6" fill="#1F9CF0"></circle><circle cx="94.64" cy="174.4" r="2.6" fill="#1F9CF0"></circle><circle cx="101.08" cy="170.88" r="2.6" fill="#1F9CF0"></circle><circle cx="107.52" cy="173.93" r="2.6" fill="#1F9CF0"></circle><circle cx="113.96" cy="173.54" r="2.6" fill="#1F9CF0"></circle><circle cx="120.4" cy="100.75" r="2.6" fill="#1F9CF0"></circle><circle cx="126.84" cy="168.69" r="2.6" fill="#1F9CF0"></circle><circle cx="133.27" cy="173.59" r="2.6" fill="#1F9CF0"></circle><circle cx="139.71" cy="174.01" r="2.6" fill="#1F9CF0"></circle><circle cx="146.15" cy="167.31" r="2.6" fill="#1F9CF0"></circle><circle cx="152.59" cy="117.5" r="2.6" fill="#1F9CF0"></circle><circle cx="159.03" cy="166.02" r="2.6" fill="#1F9CF0"></circle><circle cx="165.47" cy="174.07" r="2.6" fill="#1F9CF0"></circle><circle cx="171.91" cy="141.6" r="2.6" fill="#1F9CF0"></circle><circle cx="178.35" cy="169.05" r="2.6" fill="#1F9CF0"></circle><circle cx="184.79" cy="167.14" r="2.6" fill="#1F9CF0"></circle><circle cx="191.23" cy="174.48" r="2.6" fill="#1F9CF0"></circle><circle cx="197.67" cy="150.94" r="2.6" fill="#1F9CF0"></circle><circle cx="204.11" cy="171.01" r="2.6" fill="#1F9CF0"></circle><circle cx="210.55" cy="52.43" r="2.6" fill="#1F9CF0"></circle><circle cx="216.99" cy="157.26" r="2.6" fill="#1F9CF0"></circle><circle cx="223.43" cy="171.51" r="2.6" fill="#1F9CF0"></circle><circle cx="229.87" cy="136.29" r="2.6" fill="#1F9CF0"></circle><circle cx="236.31" cy="169.79" r="2.6" fill="#1F9CF0"></circle><circle cx="242.75" cy="106.45" r="2.6" fill="#1F9CF0"></circle><circle cx="249.19" cy="170.47" r="2.6" fill="#1F9CF0"></circle><circle cx="255.63" cy="175.76" r="2.6" fill="#1F9CF0"></circle><circle cx="262.07" cy="174.01" r="2.6" fill="#1F9CF0"></circle><circle cx="268.51" cy="174.06" r="2.6" fill="#1F9CF0"></circle><circle cx="274.95" cy="151.2" r="2.6" fill="#1F9CF0"></circle><circle cx="281.38" cy="173.78" r="2.6" fill="#1F9CF0"></circle><circle cx="287.82" cy="169.88" r="2.6" fill="#1F9CF0"></circle><circle cx="294.26" cy="177.61" r="2.6" fill="#1F9CF0"></circle><circle cx="300.7" cy="137.18" r="2.6" fill="#1F9CF0"></circle><circle cx="307.14" cy="114.15" r="2.6" fill="#1F9CF0"></circle><circle cx="313.58" cy="168.74" r="2.6" fill="#1F9CF0"></circle><circle cx="320.02" cy="168.47" r="2.6" fill="#1F9CF0"></circle><circle cx="326.46" cy="130.46" r="2.6" fill="#1F9CF0"></circle><circle cx="332.9" cy="174.44" r="2.6" fill="#1F9CF0"></circle><circle cx="339.34" cy="175.01" r="2.6" fill="#1F9CF0"></circle><circle cx="345.78" cy="171.26" r="2.6" fill="#1F9CF0"></circle><circle cx="352.22" cy="176.81" r="2.6" fill="#1F9CF0"></circle><circle cx="358.66" cy="171.37" r="2.6" fill="#1F9CF0"></circle><circle cx="365.1" cy="161.31" r="2.6" fill="#1F9CF0"></circle><circle cx="371.54" cy="135.44" r="2.6" fill="#1F9CF0"></circle><circle cx="377.98" cy="169.24" r="2.6" fill="#1F9CF0"></circle><circle cx="384.42" cy="176.14" r="2.6" fill="#1F9CF0"></circle><circle cx="390.86" cy="170.75" r="2.6" fill="#1F9CF0"></circle><circle cx="397.3" cy="171.27" r="2.6" fill="#1F9CF0"></circle><circle cx="403.74" cy="166.35" r="2.6" fill="#1F9CF0"></circle><circle cx="410.18" cy="173.15" r="2.6" fill="#1F9CF0"></circle><circle cx="416.62" cy="132.18" r="2.6" fill="#1F9CF0"></circle><circle cx="423.05" cy="168.56" r="2.6" fill="#1F9CF0"></circle><circle cx="429.49" cy="155.42" r="2.6" fill="#1F9CF0"></circle><circle cx="435.93" cy="170.02" r="2.6" fill="#1F9CF0"></circle><circle cx="442.37" cy="169.75" r="2.6" fill="#1F9CF0"></circle><circle cx="448.81" cy="172.03" r="2.6" fill="#1F9CF0"></circle><circle cx="455.25" cy="163.98" r="2.6" fill="#1F9CF0"></circle><circle cx="506.77" cy="170.38" r="2.6" fill="#1F9CF0"></circle><circle cx="513.21" cy="170.13" r="2.6" fill="#1F9CF0"></circle><circle cx="519.65" cy="171.04" r="2.6" fill="#1F9CF0"></circle><circle cx="526.09" cy="151.7" r="2.6" fill="#1F9CF0"></circle><circle cx="532.53" cy="172.65" r="2.6" fill="#1F9CF0"></circle><circle cx="538.97" cy="168.55" r="2.6" fill="#1F9CF0"></circle><circle cx="545.41" cy="174.72" r="2.6" fill="#1F9CF0"></circle><circle cx="551.85" cy="166.02" r="2.6" fill="#1F9CF0"></circle><circle cx="558.29" cy="173.54" r="2.6" fill="#1F9CF0"></circle><circle cx="564.73" cy="166.32" r="2.6" fill="#1F9CF0"></circle><circle cx="571.16" cy="109.65" r="2.6" fill="#1F9CF0"></circle><circle cx="577.6" cy="153.77" r="2.6" fill="#1F9CF0"></circle><circle cx="584.04" cy="175.7" r="2.6" fill="#1F9CF0"></circle><circle cx="590.48" cy="171.76" r="2.6" fill="#1F9CF0"></circle><circle cx="596.92" cy="175.06" r="2.6" fill="#1F9CF0"></circle><circle cx="603.36" cy="177.47" r="2.6" fill="#1F9CF0"></circle><circle cx="609.8" cy="174.24" r="2.6" fill="#1F9CF0"></circle><circle cx="616.24" cy="70.44" r="2.6" fill="#1F9CF0"></circle><circle cx="622.68" cy="178.07" r="2.6" fill="#1F9CF0"></circle><circle cx="629.12" cy="170.9" r="2.6" fill="#1F9CF0"></circle><circle cx="635.56" cy="171.05" r="2.6" fill="#1F9CF0"></circle><circle cx="642" cy="151.56" r="2.6" fill="#1F9CF0"></circle><line x1="656" y1="27" x2="672" y2="27" stroke="#E8835A" stroke-width="3" stroke-linecap="round"></line><text x="678" y="30" font-size="11" font-weight="400" text-anchor="start" fill="#e6edf3">anthropic</text><line x1="656" y1="47" x2="672" y2="47" stroke="#6366F1" stroke-width="3" stroke-linecap="round"></line><text x="678" y="50" font-size="11" font-weight="400" text-anchor="start" fill="#e6edf3">deepseek</text><line x1="656" y1="67" x2="672" y2="67" stroke="#2DA98C" stroke-width="3" stroke-linecap="round"></line><text x="678" y="70" font-size="11" font-weight="400" text-anchor="start" fill="#e6edf3">gemini</text><line x1="656" y1="87" x2="672" y2="87" stroke="#A371F7" stroke-width="3" stroke-linecap="round"></line><text x="678" y="90" font-size="11" font-weight="400" text-anchor="start" fill="#e6edf3">llama</text><line x1="656" y1="107" x2="672" y2="107" stroke="#F0A23B" stroke-width="3" stroke-linecap="round"></line><text x="678" y="110" font-size="11" font-weight="400" text-anchor="start" fill="#e6edf3">mistral</text><line x1="656" y1="127" x2="672" y2="127" stroke="#1F9CF0" stroke-width="3" stroke-linecap="round"></line><text x="678" y="130" font-size="11" font-weight="400" text-anchor="start" fill="#e6edf3">openai</text></svg>
