<svg xmlns="http://www.w3.org/2000/svg" viewBox="0 0 760 348" width="760" height="348" role="img" aria-label="Cost per test by provider over runs — anthropic highest, deepseek lowest" font-family="-apple-system,BlinkMacSystemFont,'Segoe UI',system-ui,sans-serif"><line x1="56" y1="306" x2="642" y2="306" stroke="#d8dee4" stroke-width="1"></line><text x="46" y="310" font-size="9.5" font-weight="400" text-anchor="end" fill="#656d76" font-family="ui-monospace,SFMono-Regular,Menlo,monospace">$0.000</text><line x1="56" y1="235" x2="642" y2="235" stroke="#d8dee4" stroke-width="1"></line><text x="46" y="239" font-size="9.5" font-weight="400" text-anchor="end" fill="#656d76" font-family="ui-monospace,SFMono-Regular,Menlo,monospace">$0.044</text><line x1="56" y1="164" x2="642" y2="164" stroke="#d8dee4" stroke-width="1"></line><text x="46" y="168" font-size="9.5" font-weight="400" text-anchor="end" fill="#656d76" font-family="ui-monospace,SFMono-Regular,Menlo,monospace">$0.087</text><line x1="56" y1="93" x2="642" y2="93" stroke="#d8dee4" stroke-width="1"></line><text x="46" y="97" font-size="9.5" font-weight="400" text-anchor="end" fill="#656d76" font-family="ui-monospace,SFMono-Regular,Menlo,monospace">$0.131</text><line x1="56" y1="22" x2="642" y2="22" stroke="#d8dee4" stroke-width="1"></line><text x="46" y="26" font-size="9.5" font-weight="400" text-anchor="end" fill="#656d76" font-family="ui-monospace,SFMono-Regular,Menlo,monospace">$0.175</text><text x="56" y="324" font-size="9.5" font-weight="400" text-anchor="middle" fill="#656d76" font-family="ui-monospace,SFMono-Regular,Menlo,monospace">06/06</text><text x="109.27" y="324" font-size="9.5" font-weight="400" text-anchor="middle" fill="#656d76" font-family="ui-monospace,SFMono-Regular,Menlo,monospace">06/08</text><text x="162.55" y="324" font-size="9.5" font-weight="400" text-anchor="middle" fill="#656d76" font-family="ui-monospace,SFMono-Regular,Menlo,monospace">06/09</text><text x="215.82" y="324" font-size="9.5" font-weight="400" text-anchor="middle" fill="#656d76" font-family="ui-monospace,SFMono-Regular,Menlo,monospace">06/12</text><text x="269.09" y="324" font-size="9.5" font-weight="400" text-anchor="middle" fill="#656d76" font-family="ui-monospace,SFMono-Regular,Menlo,monospace">06/14</text><text x="322.36" y="324" font-size="9.5" font-weight="400" text-anchor="middle" fill="#656d76" font-family="ui-monospace,SFMono-Regular,Menlo,monospace">06/16</text><text x="375.64" y="324" font-size="9.5" font-weight="400" text-anchor="middle" fill="#656d76" font-family="ui-monospace,SFMono-Regular,Menlo,monospace">06/17</text><text x="428.91" y="324" font-size="9.5" font-weight="400" text-anchor="middle" fill="#656d76" font-family="ui-monospace,SFMono-Regular,Menlo,monospace">06/20</text><text x="482.18" y="324" font-size="9.5" font-weight="400" text-anchor="middle" fill="#656d76" font-family="ui-monospace,SFMono-Regular,Menlo,monospace">06/22</text><text x="535.45" y="324" font-size="9.5" font-weight="400" text-anchor="middle" fill="#656d76" font-family="ui-monospace,SFMono-Regular,Menlo,monospace">06/24</text><text x="588.73" y="324" font-size="9.5" font-weight="400" text-anchor="middle" fill="#656d76" font-family="ui-monospace,SFMono-Regular,Menlo,monospace">06/25</text><text x="642" y="324" font-size="9.5" font-weight="400" text-anchor="middle" fill="#656d76" font-family="ui-monospace,SFMono-Regular,Menlo,monospace">06/26</text><polyline fill="none" stroke="#E8835A" stroke-width="2.4" stroke-linejoin="round" stroke-linecap="round" points="56,127.57 62.66,150.54 69.32,155.57 75.98,121.98 82.64,149.77 89.3,101.48 95.95,143.34 102.61,127.27 109.27,136.08 115.93,147.56 122.59,156.16 129.25,142.22 135.91,133.66 142.57,172.34 149.23,152.97 155.89,150.25 162.55,137.41 175.86,139.72 182.52,154.49 189.18,123.23 195.84,158.62 202.5,152.1 209.16,138.5 215.82,150.41 222.48,153.33 229.14,160.32 235.8,151.8 242.45,167.78 249.11,154.07 255.77,153.5 262.43,164.26 269.09,157.44 275.75,147.09 282.41,152.61 289.07,152.63 295.73,148.19 302.39,151.19 309.05,151.03 315.7,149.61 322.36,146 329.02,147.05 335.68,153.47 342.34,136.91 349,155.39 355.66,156.85"></polyline><circle cx="56" cy="127.57" r="2.6" fill="#E8835A"></circle><circle cx="62.66" cy="150.54" r="2.6" fill="#E8835A"></circle><circle cx="69.32" cy="155.57" r="2.6" fill="#E8835A"></circle><circle cx="75.98" cy="121.98" r="2.6" fill="#E8835A"></circle><circle cx="82.64" cy="149.77" r="2.6" fill="#E8835A"></circle><circle cx="89.3" cy="101.48" r="2.6" fill="#E8835A"></circle><circle cx="95.95" cy="143.34" r="2.6" fill="#E8835A"></circle><circle cx="102.61" cy="127.27" r="2.6" fill="#E8835A"></circle><circle cx="109.27" cy="136.08" r="2.6" fill="#E8835A"></circle><circle cx="115.93" cy="147.56" r="2.6" fill="#E8835A"></circle><circle cx="122.59" cy="156.16" r="2.6" fill="#E8835A"></circle><circle cx="129.25" cy="142.22" r="2.6" fill="#E8835A"></circle><circle cx="135.91" cy="133.66" r="2.6" fill="#E8835A"></circle><circle cx="142.57" cy="172.34" r="2.6" fill="#E8835A"></circle><circle cx="149.23" cy="152.97" r="2.6" fill="#E8835A"></circle><circle cx="155.89" cy="150.25" r="2.6" fill="#E8835A"></circle><circle cx="162.55" cy="137.41" r="2.6" fill="#E8835A"></circle><circle cx="175.86" cy="139.72" r="2.6" fill="#E8835A"></circle><circle cx="182.52" cy="154.49" r="2.6" fill="#E8835A"></circle><circle cx="189.18" cy="123.23" r="2.6" fill="#E8835A"></circle><circle cx="195.84" cy="158.62" r="2.6" fill="#E8835A"></circle><circle cx="202.5" cy="152.1" r="2.6" fill="#E8835A"></circle><circle cx="209.16" cy="138.5" r="2.6" fill="#E8835A"></circle><circle cx="215.82" cy="150.41" r="2.6" fill="#E8835A"></circle><circle cx="222.48" cy="153.33" r="2.6" fill="#E8835A"></circle><circle cx="229.14" cy="160.32" r="2.6" fill="#E8835A"></circle><circle cx="235.8" cy="151.8" r="2.6" fill="#E8835A"></circle><circle cx="242.45" cy="167.78" r="2.6" fill="#E8835A"></circle><circle cx="249.11" cy="154.07" r="2.6" fill="#E8835A"></circle><circle cx="255.77" cy="153.5" r="2.6" fill="#E8835A"></circle><circle cx="262.43" cy="164.26" r="2.6" fill="#E8835A"></circle><circle cx="269.09" cy="157.44" r="2.6" fill="#E8835A"></circle><circle cx="275.75" cy="147.09" r="2.6" fill="#E8835A"></circle><circle cx="282.41" cy="152.61" r="2.6" fill="#E8835A"></circle><circle cx="289.07" cy="152.63" r="2.6" fill="#E8835A"></circle><circle cx="295.73" cy="148.19" r="2.6" fill="#E8835A"></circle><circle cx="302.39" cy="151.19" r="2.6" fill="#E8835A"></circle><circle cx="309.05" cy="151.03" r="2.6" fill="#E8835A"></circle><circle cx="315.7" cy="149.61" r="2.6" fill="#E8835A"></circle><circle cx="322.36" cy="146" r="2.6" fill="#E8835A"></circle><circle cx="329.02" cy="147.05" r="2.6" fill="#E8835A"></circle><circle cx="335.68" cy="153.47" r="2.6" fill="#E8835A"></circle><circle cx="342.34" cy="136.91" r="2.6" fill="#E8835A"></circle><circle cx="349" cy="155.39" r="2.6" fill="#E8835A"></circle><circle cx="355.66" cy="156.85" r="2.6" fill="#E8835A"></circle><polyline fill="none" stroke="#6366F1" stroke-width="2.4" stroke-linejoin="round" stroke-linecap="round" points="109.27,293.36 115.93,293.43 122.59,294.1 129.25,292.89 135.91,293.14 142.57,287.31 149.23,294.31 155.89,291.77 162.55,291.82 169.2,291.36 175.86,293.02 182.52,291.8 189.18,288.55 195.84,292.06 202.5,288.85 209.16,294.29 215.82,292.11 222.48,288.48 229.14,285.75 235.8,292.13 242.45,291.04 249.11,293.66 255.77,290.08 262.43,286.94 269.09,292.77 275.75,291.68 282.41,292.47 289.07,291.27 302.39,290.7 309.05,292.91 315.7,293.34 322.36,290.78 329.02,290.99 335.68,291.6 342.34,292.29 349,292.81 355.66,293.37 368.98,293.66 375.64,293.82 382.3,292.24 388.95,291.11 395.61,291.02 402.27,284.88 408.93,291.48 415.59,288.67 422.25,290.47 428.91,288.84 435.57,291.75 448.89,293.31 455.55,293.99 462.2,283.51 468.86,293.65 475.52,291.81 482.18,288.4 488.84,290.65 495.5,291.51 502.16,292.83 508.82,292.29 515.48,292.47 522.14,291.94 528.8,291.55 535.45,286.48 542.11,293.64 548.77,293.02 555.43,289.13 562.09,293.27 568.75,293.55 575.41,290.63 582.07,294.26 588.73,294.04 595.39,292.1 602.05,293.08 608.7,294.3 615.36,290.77 622.02,291.33 628.68,291.53 635.34,292.23"></polyline><circle cx="109.27" cy="293.36" r="2.6" fill="#6366F1"></circle><circle cx="115.93" cy="293.43" r="2.6" fill="#6366F1"></circle><circle cx="122.59" cy="294.1" r="2.6" fill="#6366F1"></circle><circle cx="129.25" cy="292.89" r="2.6" fill="#6366F1"></circle><circle cx="135.91" cy="293.14" r="2.6" fill="#6366F1"></circle><circle cx="142.57" cy="287.31" r="2.6" fill="#6366F1"></circle><circle cx="149.23" cy="294.31" r="2.6" fill="#6366F1"></circle><circle cx="155.89" cy="291.77" r="2.6" fill="#6366F1"></circle><circle cx="162.55" cy="291.82" r="2.6" fill="#6366F1"></circle><circle cx="169.2" cy="291.36" r="2.6" fill="#6366F1"></circle><circle cx="175.86" cy="293.02" r="2.6" fill="#6366F1"></circle><circle cx="182.52" cy="291.8" r="2.6" fill="#6366F1"></circle><circle cx="189.18" cy="288.55" r="2.6" fill="#6366F1"></circle><circle cx="195.84" cy="292.06" r="2.6" fill="#6366F1"></circle><circle cx="202.5" cy="288.85" r="2.6" fill="#6366F1"></circle><circle cx="209.16" cy="294.29" r="2.6" fill="#6366F1"></circle><circle cx="215.82" cy="292.11" r="2.6" fill="#6366F1"></circle><circle cx="222.48" cy="288.48" r="2.6" fill="#6366F1"></circle><circle cx="229.14" cy="285.75" r="2.6" fill="#6366F1"></circle><circle cx="235.8" cy="292.13" r="2.6" fill="#6366F1"></circle><circle cx="242.45" cy="291.04" r="2.6" fill="#6366F1"></circle><circle cx="249.11" cy="293.66" r="2.6" fill="#6366F1"></circle><circle cx="255.77" cy="290.08" r="2.6" fill="#6366F1"></circle><circle cx="262.43" cy="286.94" r="2.6" fill="#6366F1"></circle><circle cx="269.09" cy="292.77" r="2.6" fill="#6366F1"></circle><circle cx="275.75" cy="291.68" r="2.6" fill="#6366F1"></circle><circle cx="282.41" cy="292.47" r="2.6" fill="#6366F1"></circle><circle cx="289.07" cy="291.27" r="2.6" fill="#6366F1"></circle><circle cx="302.39" cy="290.7" r="2.6" fill="#6366F1"></circle><circle cx="309.05" cy="292.91" r="2.6" fill="#6366F1"></circle><circle cx="315.7" cy="293.34" r="2.6" fill="#6366F1"></circle><circle cx="322.36" cy="290.78" r="2.6" fill="#6366F1"></circle><circle cx="329.02" cy="290.99" r="2.6" fill="#6366F1"></circle><circle cx="335.68" cy="291.6" r="2.6" fill="#6366F1"></circle><circle cx="342.34" cy="292.29" r="2.6" fill="#6366F1"></circle><circle cx="349" cy="292.81" r="2.6" fill="#6366F1"></circle><circle cx="355.66" cy="293.37" r="2.6" fill="#6366F1"></circle><circle cx="368.98" cy="293.66" r="2.6" fill="#6366F1"></circle><circle cx="375.64" cy="293.82" r="2.6" fill="#6366F1"></circle><circle cx="382.3" cy="292.24" r="2.6" fill="#6366F1"></circle><circle cx="388.95" cy="291.11" r="2.6" fill="#6366F1"></circle><circle cx="395.61" cy="291.02" r="2.6" fill="#6366F1"></circle><circle cx="402.27" cy="284.88" r="2.6" fill="#6366F1"></circle><circle cx="408.93" cy="291.48" r="2.6" fill="#6366F1"></circle><circle cx="415.59" cy="288.67" r="2.6" fill="#6366F1"></circle><circle cx="422.25" cy="290.47" r="2.6" fill="#6366F1"></circle><circle cx="428.91" cy="288.84" r="2.6" fill="#6366F1"></circle><circle cx="435.57" cy="291.75" r="2.6" fill="#6366F1"></circle><circle cx="448.89" cy="293.31" r="2.6" fill="#6366F1"></circle><circle cx="455.55" cy="293.99" r="2.6" fill="#6366F1"></circle><circle cx="462.2" cy="283.51" r="2.6" fill="#6366F1"></circle><circle cx="468.86" cy="293.65" r="2.6" fill="#6366F1"></circle><circle cx="475.52" cy="291.81" r="2.6" fill="#6366F1"></circle><circle cx="482.18" cy="288.4" r="2.6" fill="#6366F1"></circle><circle cx="488.84" cy="290.65" r="2.6" fill="#6366F1"></circle><circle cx="495.5" cy="291.51" r="2.6" fill="#6366F1"></circle><circle cx="502.16" cy="292.83" r="2.6" fill="#6366F1"></circle><circle cx="508.82" cy="292.29" r="2.6" fill="#6366F1"></circle><circle cx="515.48" cy="292.47" r="2.6" fill="#6366F1"></circle><circle cx="522.14" cy="291.94" r="2.6" fill="#6366F1"></circle><circle cx="528.8" cy="291.55" r="2.6" fill="#6366F1"></circle><circle cx="535.45" cy="286.48" r="2.6" fill="#6366F1"></circle><circle cx="542.11" cy="293.64" r="2.6" fill="#6366F1"></circle><circle cx="548.77" cy="293.02" r="2.6" fill="#6366F1"></circle><circle cx="555.43" cy="289.13" r="2.6" fill="#6366F1"></circle><circle cx="562.09" cy="293.27" r="2.6" fill="#6366F1"></circle><circle cx="568.75" cy="293.55" r="2.6" fill="#6366F1"></circle><circle cx="575.41" cy="290.63" r="2.6" fill="#6366F1"></circle><circle cx="582.07" cy="294.26" r="2.6" fill="#6366F1"></circle><circle cx="588.73" cy="294.04" r="2.6" fill="#6366F1"></circle><circle cx="595.39" cy="292.1" r="2.6" fill="#6366F1"></circle><circle cx="602.05" cy="293.08" r="2.6" fill="#6366F1"></circle><circle cx="608.7" cy="294.3" r="2.6" fill="#6366F1"></circle><circle cx="615.36" cy="290.77" r="2.6" fill="#6366F1"></circle><circle cx="622.02" cy="291.33" r="2.6" fill="#6366F1"></circle><circle cx="628.68" cy="291.53" r="2.6" fill="#6366F1"></circle><circle cx="635.34" cy="292.23" r="2.6" fill="#6366F1"></circle><polyline fill="none" stroke="#2DA98C" stroke-width="2.4" stroke-linejoin="round" stroke-linecap="round" points="56,177.54 62.66,184.75 69.32,177.06 75.98,180.34 82.64,187.66 89.3,172.87 95.95,180.16 102.61,175.2 109.27,175.16 115.93,174.17 122.59,176.55 129.25,189.44 135.91,188.08 142.57,181.62 149.23,175.71 155.89,176.02 162.55,145.03 169.2,175.81 175.86,142.78 182.52,152.48 189.18,167.95 195.84,161.96 202.5,179.65 209.16,154.21 215.82,175.54 222.48,169.72 229.14,166.19 235.8,168.96 302.39,183.66 309.05,171.98 315.7,158.08 322.36,184.11 329.02,159.65 335.68,153.07 342.34,175.59 349,147.56 355.66,181.96 368.98,168.35 375.64,160.07 382.3,162.84 388.95,169.17 395.61,179.86 402.27,162.19 408.93,176.21 415.59,157.24 422.25,161.18 428.91,165.58 435.57,169.62 448.89,176.54 455.55,164.19 462.2,120.01 468.86,183.3 475.52,168.8 482.18,160.75 488.84,167.62 495.5,163.1 502.16,153.1 508.82,145.23 515.48,165.61 522.14,150.54 528.8,172.34 535.45,154.82 542.11,169.79 548.77,169.77 555.43,133.01 562.09,152.52 568.75,172.51 575.41,172.15"></polyline><circle cx="56" cy="177.54" r="2.6" fill="#2DA98C"></circle><circle cx="62.66" cy="184.75" r="2.6" fill="#2DA98C"></circle><circle cx="69.32" cy="177.06" r="2.6" fill="#2DA98C"></circle><circle cx="75.98" cy="180.34" r="2.6" fill="#2DA98C"></circle><circle cx="82.64" cy="187.66" r="2.6" fill="#2DA98C"></circle><circle cx="89.3" cy="172.87" r="2.6" fill="#2DA98C"></circle><circle cx="95.95" cy="180.16" r="2.6" fill="#2DA98C"></circle><circle cx="102.61" cy="175.2" r="2.6" fill="#2DA98C"></circle><circle cx="109.27" cy="175.16" r="2.6" fill="#2DA98C"></circle><circle cx="115.93" cy="174.17" r="2.6" fill="#2DA98C"></circle><circle cx="122.59" cy="176.55" r="2.6" fill="#2DA98C"></circle><circle cx="129.25" cy="189.44" r="2.6" fill="#2DA98C"></circle><circle cx="135.91" cy="188.08" r="2.6" fill="#2DA98C"></circle><circle cx="142.57" cy="181.62" r="2.6" fill="#2DA98C"></circle><circle cx="149.23" cy="175.71" r="2.6" fill="#2DA98C"></circle><circle cx="155.89" cy="176.02" r="2.6" fill="#2DA98C"></circle><circle cx="162.55" cy="145.03" r="2.6" fill="#2DA98C"></circle><circle cx="169.2" cy="175.81" r="2.6" fill="#2DA98C"></circle><circle cx="175.86" cy="142.78" r="2.6" fill="#2DA98C"></circle><circle cx="182.52" cy="152.48" r="2.6" fill="#2DA98C"></circle><circle cx="189.18" cy="167.95" r="2.6" fill="#2DA98C"></circle><circle cx="195.84" cy="161.96" r="2.6" fill="#2DA98C"></circle><circle cx="202.5" cy="179.65" r="2.6" fill="#2DA98C"></circle><circle cx="209.16" cy="154.21" r="2.6" fill="#2DA98C"></circle><circle cx="215.82" cy="175.54" r="2.6" fill="#2DA98C"></circle><circle cx="222.48" cy="169.72" r="2.6" fill="#2DA98C"></circle><circle cx="229.14" cy="166.19" r="2.6" fill="#2DA98C"></circle><circle cx="235.8" cy="168.96" r="2.6" fill="#2DA98C"></circle><circle cx="302.39" cy="183.66" r="2.6" fill="#2DA98C"></circle><circle cx="309.05" cy="171.98" r="2.6" fill="#2DA98C"></circle><circle cx="315.7" cy="158.08" r="2.6" fill="#2DA98C"></circle><circle cx="322.36" cy="184.11" r="2.6" fill="#2DA98C"></circle><circle cx="329.02" cy="159.65" r="2.6" fill="#2DA98C"></circle><circle cx="335.68" cy="153.07" r="2.6" fill="#2DA98C"></circle><circle cx="342.34" cy="175.59" r="2.6" fill="#2DA98C"></circle><circle cx="349" cy="147.56" r="2.6" fill="#2DA98C"></circle><circle cx="355.66" cy="181.96" r="2.6" fill="#2DA98C"></circle><circle cx="368.98" cy="168.35" r="2.6" fill="#2DA98C"></circle><circle cx="375.64" cy="160.07" r="2.6" fill="#2DA98C"></circle><circle cx="382.3" cy="162.84" r="2.6" fill="#2DA98C"></circle><circle cx="388.95" cy="169.17" r="2.6" fill="#2DA98C"></circle><circle cx="395.61" cy="179.86" r="2.6" fill="#2DA98C"></circle><circle cx="402.27" cy="162.19" r="2.6" fill="#2DA98C"></circle><circle cx="408.93" cy="176.21" r="2.6" fill="#2DA98C"></circle><circle cx="415.59" cy="157.24" r="2.6" fill="#2DA98C"></circle><circle cx="422.25" cy="161.18" r="2.6" fill="#2DA98C"></circle><circle cx="428.91" cy="165.58" r="2.6" fill="#2DA98C"></circle><circle cx="435.57" cy="169.62" r="2.6" fill="#2DA98C"></circle><circle cx="448.89" cy="176.54" r="2.6" fill="#2DA98C"></circle><circle cx="455.55" cy="164.19" r="2.6" fill="#2DA98C"></circle><circle cx="462.2" cy="120.01" r="2.6" fill="#2DA98C"></circle><circle cx="468.86" cy="183.3" r="2.6" fill="#2DA98C"></circle><circle cx="475.52" cy="168.8" r="2.6" fill="#2DA98C"></circle><circle cx="482.18" cy="160.75" r="2.6" fill="#2DA98C"></circle><circle cx="488.84" cy="167.62" r="2.6" fill="#2DA98C"></circle><circle cx="495.5" cy="163.1" r="2.6" fill="#2DA98C"></circle><circle cx="502.16" cy="153.1" r="2.6" fill="#2DA98C"></circle><circle cx="508.82" cy="145.23" r="2.6" fill="#2DA98C"></circle><circle cx="515.48" cy="165.61" r="2.6" fill="#2DA98C"></circle><circle cx="522.14" cy="150.54" r="2.6" fill="#2DA98C"></circle><circle cx="528.8" cy="172.34" r="2.6" fill="#2DA98C"></circle><circle cx="535.45" cy="154.82" r="2.6" fill="#2DA98C"></circle><circle cx="542.11" cy="169.79" r="2.6" fill="#2DA98C"></circle><circle cx="548.77" cy="169.77" r="2.6" fill="#2DA98C"></circle><circle cx="555.43" cy="133.01" r="2.6" fill="#2DA98C"></circle><circle cx="562.09" cy="152.52" r="2.6" fill="#2DA98C"></circle><circle cx="568.75" cy="172.51" r="2.6" fill="#2DA98C"></circle><circle cx="575.41" cy="172.15" r="2.6" fill="#2DA98C"></circle><polyline fill="none" stroke="#A371F7" stroke-width="2.4" stroke-linejoin="round" stroke-linecap="round" points="56,234.02 62.66,244.52 69.32,248 75.98,231.43 82.64,238.89 89.3,249.23 95.95,244.46 102.61,237.54 109.27,240.86 115.93,247.44 122.59,240.79 129.25,238.23 135.91,242.67 142.57,225.79 149.23,243.99 155.89,238.04 162.55,246.87 169.2,247.42 175.86,226.74 182.52,239.47 189.18,211.96 195.84,246.23 202.5,249.04 209.16,237.01 215.82,234.98 222.48,238.5 229.14,240.35 235.8,237.84 242.45,246.71 249.11,242.24 255.77,238.34 262.43,244.61 269.09,248.91 275.75,226.53 282.41,244.07 289.07,245.89 302.39,225.3 309.05,246.26 315.7,237.6 329.02,238.19 335.68,247.14 342.34,247.58 349,243.98 355.66,241.42 362.32,243.75 368.98,244.26 375.64,242.78 382.3,233.78 388.95,238.08 395.61,239.3 402.27,245.03 408.93,240.96 415.59,244.05 422.25,243 435.57,244.69 448.89,239.74 462.2,235.11 468.86,243.32 475.52,239.23 482.18,246.86 488.84,222.82 495.5,245.26 502.16,245.42 508.82,247.5 515.48,240.47 522.14,241.59 528.8,245.63 542.11,246.62 548.77,236.88 555.43,246.47 562.09,243.95 568.75,246.28 575.41,247.57 582.07,243.81 588.73,247.56 595.39,246.67 602.05,209.25 608.7,238.83 615.36,243.83 622.02,243.69 635.34,237.52"></polyline><circle cx="56" cy="234.02" r="2.6" fill="#A371F7"></circle><circle cx="62.66" cy="244.52" r="2.6" fill="#A371F7"></circle><circle cx="69.32" cy="248" r="2.6" fill="#A371F7"></circle><circle cx="75.98" cy="231.43" r="2.6" fill="#A371F7"></circle><circle cx="82.64" cy="238.89" r="2.6" fill="#A371F7"></circle><circle cx="89.3" cy="249.23" r="2.6" fill="#A371F7"></circle><circle cx="95.95" cy="244.46" r="2.6" fill="#A371F7"></circle><circle cx="102.61" cy="237.54" r="2.6" fill="#A371F7"></circle><circle cx="109.27" cy="240.86" r="2.6" fill="#A371F7"></circle><circle cx="115.93" cy="247.44" r="2.6" fill="#A371F7"></circle><circle cx="122.59" cy="240.79" r="2.6" fill="#A371F7"></circle><circle cx="129.25" cy="238.23" r="2.6" fill="#A371F7"></circle><circle cx="135.91" cy="242.67" r="2.6" fill="#A371F7"></circle><circle cx="142.57" cy="225.79" r="2.6" fill="#A371F7"></circle><circle cx="149.23" cy="243.99" r="2.6" fill="#A371F7"></circle><circle cx="155.89" cy="238.04" r="2.6" fill="#A371F7"></circle><circle cx="162.55" cy="246.87" r="2.6" fill="#A371F7"></circle><circle cx="169.2" cy="247.42" r="2.6" fill="#A371F7"></circle><circle cx="175.86" cy="226.74" r="2.6" fill="#A371F7"></circle><circle cx="182.52" cy="239.47" r="2.6" fill="#A371F7"></circle><circle cx="189.18" cy="211.96" r="2.6" fill="#A371F7"></circle><circle cx="195.84" cy="246.23" r="2.6" fill="#A371F7"></circle><circle cx="202.5" cy="249.04" r="2.6" fill="#A371F7"></circle><circle cx="209.16" cy="237.01" r="2.6" fill="#A371F7"></circle><circle cx="215.82" cy="234.98" r="2.6" fill="#A371F7"></circle><circle cx="222.48" cy="238.5" r="2.6" fill="#A371F7"></circle><circle cx="229.14" cy="240.35" r="2.6" fill="#A371F7"></circle><circle cx="235.8" cy="237.84" r="2.6" fill="#A371F7"></circle><circle cx="242.45" cy="246.71" r="2.6" fill="#A371F7"></circle><circle cx="249.11" cy="242.24" r="2.6" fill="#A371F7"></circle><circle cx="255.77" cy="238.34" r="2.6" fill="#A371F7"></circle><circle cx="262.43" cy="244.61" r="2.6" fill="#A371F7"></circle><circle cx="269.09" cy="248.91" r="2.6" fill="#A371F7"></circle><circle cx="275.75" cy="226.53" r="2.6" fill="#A371F7"></circle><circle cx="282.41" cy="244.07" r="2.6" fill="#A371F7"></circle><circle cx="289.07" cy="245.89" r="2.6" fill="#A371F7"></circle><circle cx="302.39" cy="225.3" r="2.6" fill="#A371F7"></circle><circle cx="309.05" cy="246.26" r="2.6" fill="#A371F7"></circle><circle cx="315.7" cy="237.6" r="2.6" fill="#A371F7"></circle><circle cx="329.02" cy="238.19" r="2.6" fill="#A371F7"></circle><circle cx="335.68" cy="247.14" r="2.6" fill="#A371F7"></circle><circle cx="342.34" cy="247.58" r="2.6" fill="#A371F7"></circle><circle cx="349" cy="243.98" r="2.6" fill="#A371F7"></circle><circle cx="355.66" cy="241.42" r="2.6" fill="#A371F7"></circle><circle cx="362.32" cy="243.75" r="2.6" fill="#A371F7"></circle><circle cx="368.98" cy="244.26" r="2.6" fill="#A371F7"></circle><circle cx="375.64" cy="242.78" r="2.6" fill="#A371F7"></circle><circle cx="382.3" cy="233.78" r="2.6" fill="#A371F7"></circle><circle cx="388.95" cy="238.08" r="2.6" fill="#A371F7"></circle><circle cx="395.61" cy="239.3" r="2.6" fill="#A371F7"></circle><circle cx="402.27" cy="245.03" r="2.6" fill="#A371F7"></circle><circle cx="408.93" cy="240.96" r="2.6" fill="#A371F7"></circle><circle cx="415.59" cy="244.05" r="2.6" fill="#A371F7"></circle><circle cx="422.25" cy="243" r="2.6" fill="#A371F7"></circle><circle cx="435.57" cy="244.69" r="2.6" fill="#A371F7"></circle><circle cx="448.89" cy="239.74" r="2.6" fill="#A371F7"></circle><circle cx="462.2" cy="235.11" r="2.6" fill="#A371F7"></circle><circle cx="468.86" cy="243.32" r="2.6" fill="#A371F7"></circle><circle cx="475.52" cy="239.23" r="2.6" fill="#A371F7"></circle><circle cx="482.18" cy="246.86" r="2.6" fill="#A371F7"></circle><circle cx="488.84" cy="222.82" r="2.6" fill="#A371F7"></circle><circle cx="495.5" cy="245.26" r="2.6" fill="#A371F7"></circle><circle cx="502.16" cy="245.42" r="2.6" fill="#A371F7"></circle><circle cx="508.82" cy="247.5" r="2.6" fill="#A371F7"></circle><circle cx="515.48" cy="240.47" r="2.6" fill="#A371F7"></circle><circle cx="522.14" cy="241.59" r="2.6" fill="#A371F7"></circle><circle cx="528.8" cy="245.63" r="2.6" fill="#A371F7"></circle><circle cx="542.11" cy="246.62" r="2.6" fill="#A371F7"></circle><circle cx="548.77" cy="236.88" r="2.6" fill="#A371F7"></circle><circle cx="555.43" cy="246.47" r="2.6" fill="#A371F7"></circle><circle cx="562.09" cy="243.95" r="2.6" fill="#A371F7"></circle><circle cx="568.75" cy="246.28" r="2.6" fill="#A371F7"></circle><circle cx="575.41" cy="247.57" r="2.6" fill="#A371F7"></circle><circle cx="582.07" cy="243.81" r="2.6" fill="#A371F7"></circle><circle cx="588.73" cy="247.56" r="2.6" fill="#A371F7"></circle><circle cx="595.39" cy="246.67" r="2.6" fill="#A371F7"></circle><circle cx="602.05" cy="209.25" r="2.6" fill="#A371F7"></circle><circle cx="608.7" cy="238.83" r="2.6" fill="#A371F7"></circle><circle cx="615.36" cy="243.83" r="2.6" fill="#A371F7"></circle><circle cx="622.02" cy="243.69" r="2.6" fill="#A371F7"></circle><circle cx="635.34" cy="237.52" r="2.6" fill="#A371F7"></circle><polyline fill="none" stroke="#F0A23B" stroke-width="2.4" stroke-linejoin="round" stroke-linecap="round" points="56,176.15 62.66,166.37 69.32,95.06 75.98,183.78 82.64,178.88 89.3,182.02 95.95,170.24 102.61,169.9 109.27,166.14 115.93,173.66 122.59,166.11 129.25,167.02 135.91,169.09 142.57,176.53 149.23,161.02 155.89,174.97 162.55,168.38 169.2,173 175.86,185.38 182.52,176.24 189.18,181.63 195.84,178.09 202.5,118.27 209.16,178.67 215.82,180.72 222.48,177.62 229.14,179.5 235.8,151.31 242.45,176.94 249.11,159.91 255.77,179.22 262.43,151.49 269.09,180.65 275.75,179.71 282.41,79.16 289.07,99.74 295.73,178.4 302.39,180.3 309.05,180.24 315.7,176.88 322.36,178.65 329.02,183.45 335.68,182.56 342.34,133.59 349,178.99 355.66,179.14 362.32,119.51 368.98,175.85 375.64,154.88 382.3,181.28 388.95,178.3 395.61,178.34 402.27,151.77 408.93,137.32 415.59,181.99 422.25,180.58 428.91,182.99 435.57,178.09 448.89,181.47 455.55,177.75 462.2,119.83 468.86,180.14 475.52,177.45 482.18,177.76 488.84,178.17 495.5,180.42 502.16,180.5 508.82,77.15 515.48,180.12 522.14,179.48 528.8,178.37 542.11,178.03 548.77,178.06 555.43,175.76 562.09,170.64 568.75,178.67 575.41,180.1 582.07,173.03 588.73,182.47 595.39,178.65 602.05,181.62 608.7,151.39 615.36,138.74 622.02,178.31 635.34,179.61 642,178.84"></polyline><circle cx="56" cy="176.15" r="2.6" fill="#F0A23B"></circle><circle cx="62.66" cy="166.37" r="2.6" fill="#F0A23B"></circle><circle cx="69.32" cy="95.06" r="2.6" fill="#F0A23B"></circle><circle cx="75.98" cy="183.78" r="2.6" fill="#F0A23B"></circle><circle cx="82.64" cy="178.88" r="2.6" fill="#F0A23B"></circle><circle cx="89.3" cy="182.02" r="2.6" fill="#F0A23B"></circle><circle cx="95.95" cy="170.24" r="2.6" fill="#F0A23B"></circle><circle cx="102.61" cy="169.9" r="2.6" fill="#F0A23B"></circle><circle cx="109.27" cy="166.14" r="2.6" fill="#F0A23B"></circle><circle cx="115.93" cy="173.66" r="2.6" fill="#F0A23B"></circle><circle cx="122.59" cy="166.11" r="2.6" fill="#F0A23B"></circle><circle cx="129.25" cy="167.02" r="2.6" fill="#F0A23B"></circle><circle cx="135.91" cy="169.09" r="2.6" fill="#F0A23B"></circle><circle cx="142.57" cy="176.53" r="2.6" fill="#F0A23B"></circle><circle cx="149.23" cy="161.02" r="2.6" fill="#F0A23B"></circle><circle cx="155.89" cy="174.97" r="2.6" fill="#F0A23B"></circle><circle cx="162.55" cy="168.38" r="2.6" fill="#F0A23B"></circle><circle cx="169.2" cy="173" r="2.6" fill="#F0A23B"></circle><circle cx="175.86" cy="185.38" r="2.6" fill="#F0A23B"></circle><circle cx="182.52" cy="176.24" r="2.6" fill="#F0A23B"></circle><circle cx="189.18" cy="181.63" r="2.6" fill="#F0A23B"></circle><circle cx="195.84" cy="178.09" r="2.6" fill="#F0A23B"></circle><circle cx="202.5" cy="118.27" r="2.6" fill="#F0A23B"></circle><circle cx="209.16" cy="178.67" r="2.6" fill="#F0A23B"></circle><circle cx="215.82" cy="180.72" r="2.6" fill="#F0A23B"></circle><circle cx="222.48" cy="177.62" r="2.6" fill="#F0A23B"></circle><circle cx="229.14" cy="179.5" r="2.6" fill="#F0A23B"></circle><circle cx="235.8" cy="151.31" r="2.6" fill="#F0A23B"></circle><circle cx="242.45" cy="176.94" r="2.6" fill="#F0A23B"></circle><circle cx="249.11" cy="159.91" r="2.6" fill="#F0A23B"></circle><circle cx="255.77" cy="179.22" r="2.6" fill="#F0A23B"></circle><circle cx="262.43" cy="151.49" r="2.6" fill="#F0A23B"></circle><circle cx="269.09" cy="180.65" r="2.6" fill="#F0A23B"></circle><circle cx="275.75" cy="179.71" r="2.6" fill="#F0A23B"></circle><circle cx="282.41" cy="79.16" r="2.6" fill="#F0A23B"></circle><circle cx="289.07" cy="99.74" r="2.6" fill="#F0A23B"></circle><circle cx="295.73" cy="178.4" r="2.6" fill="#F0A23B"></circle><circle cx="302.39" cy="180.3" r="2.6" fill="#F0A23B"></circle><circle cx="309.05" cy="180.24" r="2.6" fill="#F0A23B"></circle><circle cx="315.7" cy="176.88" r="2.6" fill="#F0A23B"></circle><circle cx="322.36" cy="178.65" r="2.6" fill="#F0A23B"></circle><circle cx="329.02" cy="183.45" r="2.6" fill="#F0A23B"></circle><circle cx="335.68" cy="182.56" r="2.6" fill="#F0A23B"></circle><circle cx="342.34" cy="133.59" r="2.6" fill="#F0A23B"></circle><circle cx="349" cy="178.99" r="2.6" fill="#F0A23B"></circle><circle cx="355.66" cy="179.14" r="2.6" fill="#F0A23B"></circle><circle cx="362.32" cy="119.51" r="2.6" fill="#F0A23B"></circle><circle cx="368.98" cy="175.85" r="2.6" fill="#F0A23B"></circle><circle cx="375.64" cy="154.88" r="2.6" fill="#F0A23B"></circle><circle cx="382.3" cy="181.28" r="2.6" fill="#F0A23B"></circle><circle cx="388.95" cy="178.3" r="2.6" fill="#F0A23B"></circle><circle cx="395.61" cy="178.34" r="2.6" fill="#F0A23B"></circle><circle cx="402.27" cy="151.77" r="2.6" fill="#F0A23B"></circle><circle cx="408.93" cy="137.32" r="2.6" fill="#F0A23B"></circle><circle cx="415.59" cy="181.99" r="2.6" fill="#F0A23B"></circle><circle cx="422.25" cy="180.58" r="2.6" fill="#F0A23B"></circle><circle cx="428.91" cy="182.99" r="2.6" fill="#F0A23B"></circle><circle cx="435.57" cy="178.09" r="2.6" fill="#F0A23B"></circle><circle cx="448.89" cy="181.47" r="2.6" fill="#F0A23B"></circle><circle cx="455.55" cy="177.75" r="2.6" fill="#F0A23B"></circle><circle cx="462.2" cy="119.83" r="2.6" fill="#F0A23B"></circle><circle cx="468.86" cy="180.14" r="2.6" fill="#F0A23B"></circle><circle cx="475.52" cy="177.45" r="2.6" fill="#F0A23B"></circle><circle cx="482.18" cy="177.76" r="2.6" fill="#F0A23B"></circle><circle cx="488.84" cy="178.17" r="2.6" fill="#F0A23B"></circle><circle cx="495.5" cy="180.42" r="2.6" fill="#F0A23B"></circle><circle cx="502.16" cy="180.5" r="2.6" fill="#F0A23B"></circle><circle cx="508.82" cy="77.15" r="2.6" fill="#F0A23B"></circle><circle cx="515.48" cy="180.12" r="2.6" fill="#F0A23B"></circle><circle cx="522.14" cy="179.48" r="2.6" fill="#F0A23B"></circle><circle cx="528.8" cy="178.37" r="2.6" fill="#F0A23B"></circle><circle cx="542.11" cy="178.03" r="2.6" fill="#F0A23B"></circle><circle cx="548.77" cy="178.06" r="2.6" fill="#F0A23B"></circle><circle cx="555.43" cy="175.76" r="2.6" fill="#F0A23B"></circle><circle cx="562.09" cy="170.64" r="2.6" fill="#F0A23B"></circle><circle cx="568.75" cy="178.67" r="2.6" fill="#F0A23B"></circle><circle cx="575.41" cy="180.1" r="2.6" fill="#F0A23B"></circle><circle cx="582.07" cy="173.03" r="2.6" fill="#F0A23B"></circle><circle cx="588.73" cy="182.47" r="2.6" fill="#F0A23B"></circle><circle cx="595.39" cy="178.65" r="2.6" fill="#F0A23B"></circle><circle cx="602.05" cy="181.62" r="2.6" fill="#F0A23B"></circle><circle cx="608.7" cy="151.39" r="2.6" fill="#F0A23B"></circle><circle cx="615.36" cy="138.74" r="2.6" fill="#F0A23B"></circle><circle cx="622.02" cy="178.31" r="2.6" fill="#F0A23B"></circle><circle cx="635.34" cy="179.61" r="2.6" fill="#F0A23B"></circle><circle cx="642" cy="178.84" r="2.6" fill="#F0A23B"></circle><polyline fill="none" stroke="#1F9CF0" stroke-width="2.4" stroke-linejoin="round" stroke-linecap="round" points="56,175.5 62.66,176.2 69.32,132.71 75.98,178.27 82.64,172 89.3,174.38 95.95,174.4 102.61,170.88 109.27,173.93 115.93,173.54 122.59,100.75 129.25,168.69 135.91,173.59 142.57,174.01 149.23,167.31 155.89,117.5 162.55,166.02 169.2,174.07 175.86,141.6 182.52,169.05 189.18,167.14 195.84,174.48 202.5,150.94 209.16,171.01 215.82,52.43 222.48,157.26 229.14,171.51 235.8,136.29 242.45,169.79 249.11,106.45 255.77,170.47 262.43,175.76 269.09,174.01 275.75,174.06 282.41,151.2 289.07,173.78 295.73,169.88 302.39,177.61 309.05,137.18 315.7,114.15 322.36,168.74 329.02,168.47 335.68,130.46 342.34,174.44 349,175.01 355.66,171.26 362.32,176.81 368.98,171.37 375.64,161.31 382.3,135.44 388.95,169.24 395.61,176.14 402.27,170.75 408.93,171.27 415.59,166.35 422.25,173.15 428.91,132.18 435.57,168.56 442.23,155.42 448.89,170.02 455.55,169.75 462.2,172.03 468.86,163.98 522.14,170.38 528.8,170.13 535.45,171.04 542.11,151.7 548.77,172.65 555.43,168.55 562.09,174.72 568.75,166.02 575.41,173.54 582.07,166.32 588.73,109.65 595.39,153.77 602.05,175.7 608.7,171.76 615.36,175.06 622.02,177.47 628.68,174.24 635.34,70.44 642,178.07"></polyline><circle cx="56" cy="175.5" r="2.6" fill="#1F9CF0"></circle><circle cx="62.66" cy="176.2" r="2.6" fill="#1F9CF0"></circle><circle cx="69.32" cy="132.71" r="2.6" fill="#1F9CF0"></circle><circle cx="75.98" cy="178.27" r="2.6" fill="#1F9CF0"></circle><circle cx="82.64" cy="172" r="2.6" fill="#1F9CF0"></circle><circle cx="89.3" cy="174.38" r="2.6" fill="#1F9CF0"></circle><circle cx="95.95" cy="174.4" r="2.6" fill="#1F9CF0"></circle><circle cx="102.61" cy="170.88" r="2.6" fill="#1F9CF0"></circle><circle cx="109.27" cy="173.93" r="2.6" fill="#1F9CF0"></circle><circle cx="115.93" cy="173.54" r="2.6" fill="#1F9CF0"></circle><circle cx="122.59" cy="100.75" r="2.6" fill="#1F9CF0"></circle><circle cx="129.25" cy="168.69" r="2.6" fill="#1F9CF0"></circle><circle cx="135.91" cy="173.59" r="2.6" fill="#1F9CF0"></circle><circle cx="142.57" cy="174.01" r="2.6" fill="#1F9CF0"></circle><circle cx="149.23" cy="167.31" r="2.6" fill="#1F9CF0"></circle><circle cx="155.89" cy="117.5" r="2.6" fill="#1F9CF0"></circle><circle cx="162.55" cy="166.02" r="2.6" fill="#1F9CF0"></circle><circle cx="169.2" cy="174.07" r="2.6" fill="#1F9CF0"></circle><circle cx="175.86" cy="141.6" r="2.6" fill="#1F9CF0"></circle><circle cx="182.52" cy="169.05" r="2.6" fill="#1F9CF0"></circle><circle cx="189.18" cy="167.14" r="2.6" fill="#1F9CF0"></circle><circle cx="195.84" cy="174.48" r="2.6" fill="#1F9CF0"></circle><circle cx="202.5" cy="150.94" r="2.6" fill="#1F9CF0"></circle><circle cx="209.16" cy="171.01" r="2.6" fill="#1F9CF0"></circle><circle cx="215.82" cy="52.43" r="2.6" fill="#1F9CF0"></circle><circle cx="222.48" cy="157.26" r="2.6" fill="#1F9CF0"></circle><circle cx="229.14" cy="171.51" r="2.6" fill="#1F9CF0"></circle><circle cx="235.8" cy="136.29" r="2.6" fill="#1F9CF0"></circle><circle cx="242.45" cy="169.79" r="2.6" fill="#1F9CF0"></circle><circle cx="249.11" cy="106.45" r="2.6" fill="#1F9CF0"></circle><circle cx="255.77" cy="170.47" r="2.6" fill="#1F9CF0"></circle><circle cx="262.43" cy="175.76" r="2.6" fill="#1F9CF0"></circle><circle cx="269.09" cy="174.01" r="2.6" fill="#1F9CF0"></circle><circle cx="275.75" cy="174.06" r="2.6" fill="#1F9CF0"></circle><circle cx="282.41" cy="151.2" r="2.6" fill="#1F9CF0"></circle><circle cx="289.07" cy="173.78" r="2.6" fill="#1F9CF0"></circle><circle cx="295.73" cy="169.88" r="2.6" fill="#1F9CF0"></circle><circle cx="302.39" cy="177.61" r="2.6" fill="#1F9CF0"></circle><circle cx="309.05" cy="137.18" r="2.6" fill="#1F9CF0"></circle><circle cx="315.7" cy="114.15" r="2.6" fill="#1F9CF0"></circle><circle cx="322.36" cy="168.74" r="2.6" fill="#1F9CF0"></circle><circle cx="329.02" cy="168.47" r="2.6" fill="#1F9CF0"></circle><circle cx="335.68" cy="130.46" r="2.6" fill="#1F9CF0"></circle><circle cx="342.34" cy="174.44" r="2.6" fill="#1F9CF0"></circle><circle cx="349" cy="175.01" r="2.6" fill="#1F9CF0"></circle><circle cx="355.66" cy="171.26" r="2.6" fill="#1F9CF0"></circle><circle cx="362.32" cy="176.81" r="2.6" fill="#1F9CF0"></circle><circle cx="368.98" cy="171.37" r="2.6" fill="#1F9CF0"></circle><circle cx="375.64" cy="161.31" r="2.6" fill="#1F9CF0"></circle><circle cx="382.3" cy="135.44" r="2.6" fill="#1F9CF0"></circle><circle cx="388.95" cy="169.24" r="2.6" fill="#1F9CF0"></circle><circle cx="395.61" cy="176.14" r="2.6" fill="#1F9CF0"></circle><circle cx="402.27" cy="170.75" r="2.6" fill="#1F9CF0"></circle><circle cx="408.93" cy="171.27" r="2.6" fill="#1F9CF0"></circle><circle cx="415.59" cy="166.35" r="2.6" fill="#1F9CF0"></circle><circle cx="422.25" cy="173.15" r="2.6" fill="#1F9CF0"></circle><circle cx="428.91" cy="132.18" r="2.6" fill="#1F9CF0"></circle><circle cx="435.57" cy="168.56" r="2.6" fill="#1F9CF0"></circle><circle cx="442.23" cy="155.42" r="2.6" fill="#1F9CF0"></circle><circle cx="448.89" cy="170.02" r="2.6" fill="#1F9CF0"></circle><circle cx="455.55" cy="169.75" r="2.6" fill="#1F9CF0"></circle><circle cx="462.2" cy="172.03" r="2.6" fill="#1F9CF0"></circle><circle cx="468.86" cy="163.98" r="2.6" fill="#1F9CF0"></circle><circle cx="522.14" cy="170.38" r="2.6" fill="#1F9CF0"></circle><circle cx="528.8" cy="170.13" r="2.6" fill="#1F9CF0"></circle><circle cx="535.45" cy="171.04" r="2.6" fill="#1F9CF0"></circle><circle cx="542.11" cy="151.7" r="2.6" fill="#1F9CF0"></circle><circle cx="548.77" cy="172.65" r="2.6" fill="#1F9CF0"></circle><circle cx="555.43" cy="168.55" r="2.6" fill="#1F9CF0"></circle><circle cx="562.09" cy="174.72" r="2.6" fill="#1F9CF0"></circle><circle cx="568.75" cy="166.02" r="2.6" fill="#1F9CF0"></circle><circle cx="575.41" cy="173.54" r="2.6" fill="#1F9CF0"></circle><circle cx="582.07" cy="166.32" r="2.6" fill="#1F9CF0"></circle><circle cx="588.73" cy="109.65" r="2.6" fill="#1F9CF0"></circle><circle cx="595.39" cy="153.77" r="2.6" fill="#1F9CF0"></circle><circle cx="602.05" cy="175.7" r="2.6" fill="#1F9CF0"></circle><circle cx="608.7" cy="171.76" r="2.6" fill="#1F9CF0"></circle><circle cx="615.36" cy="175.06" r="2.6" fill="#1F9CF0"></circle><circle cx="622.02" cy="177.47" r="2.6" fill="#1F9CF0"></circle><circle cx="628.68" cy="174.24" r="2.6" fill="#1F9CF0"></circle><circle cx="635.34" cy="70.44" r="2.6" fill="#1F9CF0"></circle><circle cx="642" cy="178.07" r="2.6" fill="#1F9CF0"></circle><line x1="656" y1="27" x2="672" y2="27" stroke="#E8835A" stroke-width="3" stroke-linecap="round"></line><text x="678" y="30" font-size="11" font-weight="400" text-anchor="start" fill="#1f2328">anthropic</text><line x1="656" y1="47" x2="672" y2="47" stroke="#6366F1" stroke-width="3" stroke-linecap="round"></line><text x="678" y="50" font-size="11" font-weight="400" text-anchor="start" fill="#1f2328">deepseek</text><line x1="656" y1="67" x2="672" y2="67" stroke="#2DA98C" stroke-width="3" stroke-linecap="round"></line><text x="678" y="70" font-size="11" font-weight="400" text-anchor="start" fill="#1f2328">gemini</text><line x1="656" y1="87" x2="672" y2="87" stroke="#A371F7" stroke-width="3" stroke-linecap="round"></line><text x="678" y="90" font-size="11" font-weight="400" text-anchor="start" fill="#1f2328">llama</text><line x1="656" y1="107" x2="672" y2="107" stroke="#F0A23B" stroke-width="3" stroke-linecap="round"></line><text x="678" y="110" font-size="11" font-weight="400" text-anchor="start" fill="#1f2328">mistral</text><line x1="656" y1="127" x2="672" y2="127" stroke="#1F9CF0" stroke-width="3" stroke-linecap="round"></line><text x="678" y="130" font-size="11" font-weight="400" text-anchor="start" fill="#1f2328">openai</text></svg>
