<svg xmlns="http://www.w3.org/2000/svg" viewBox="0 0 600 300" width="600" height="300" role="img" aria-label="Cost per test by provider over runs ($)"><text x="300.0" y="24" text-anchor="middle" font-family="system-ui, -apple-system, sans-serif" font-size="14" font-weight="600" fill="#333">Cost per test by provider over runs ($)</text><line x1="60" y1="240.0" x2="480" y2="240.0" stroke="#eee" stroke-width="1"/><text x="54" y="244.0" text-anchor="end" font-family="system-ui, -apple-system, sans-serif" font-size="9" fill="#999">0.007197</text><line x1="60" y1="140.0" x2="480" y2="140.0" stroke="#eee" stroke-width="1"/><text x="54" y="144.0" text-anchor="end" font-family="system-ui, -apple-system, sans-serif" font-size="9" fill="#999">0.08167</text><line x1="60" y1="40.0" x2="480" y2="40.0" stroke="#eee" stroke-width="1"/><text x="54" y="44.0" text-anchor="end" font-family="system-ui, -apple-system, sans-serif" font-size="9" fill="#999">0.1561</text><polyline fill="none" stroke="#4CAF50" stroke-width="2" points="60.0,141.8 75.6,142.3 91.1,106.4 106.7,144.1 122.2,138.9 137.8,140.8 153.3,140.9 168.9,137.9 184.4,140.5 200.0,140.1 215.6,80.0 231.1,136.1 246.7,140.2 262.2,140.5 277.8,135.0 293.3,93.8 308.9,133.9 324.4,140.6 340.0,113.7 355.6,136.4 371.1,134.8 386.7,140.9 402.2,121.5 417.8,138.0 433.3,40.0 448.9,126.7 464.4,138.5 480.0,109.3"/><circle cx="60.0" cy="141.8" r="3" fill="#4CAF50"/><circle cx="75.6" cy="142.3" r="3" fill="#4CAF50"/><circle cx="91.1" cy="106.4" r="3" fill="#4CAF50"/><circle cx="106.7" cy="144.1" r="3" fill="#4CAF50"/><circle cx="122.2" cy="138.9" r="3" fill="#4CAF50"/><circle cx="137.8" cy="140.8" r="3" fill="#4CAF50"/><circle cx="153.3" cy="140.9" r="3" fill="#4CAF50"/><circle cx="168.9" cy="137.9" r="3" fill="#4CAF50"/><circle cx="184.4" cy="140.5" r="3" fill="#4CAF50"/><circle cx="200.0" cy="140.1" r="3" fill="#4CAF50"/><circle cx="215.6" cy="80.0" r="3" fill="#4CAF50"/><circle cx="231.1" cy="136.1" r="3" fill="#4CAF50"/><circle cx="246.7" cy="140.2" r="3" fill="#4CAF50"/><circle cx="262.2" cy="140.5" r="3" fill="#4CAF50"/><circle cx="277.8" cy="135.0" r="3" fill="#4CAF50"/><circle cx="293.3" cy="93.8" r="3" fill="#4CAF50"/><circle cx="308.9" cy="133.9" r="3" fill="#4CAF50"/><circle cx="324.4" cy="140.6" r="3" fill="#4CAF50"/><circle cx="340.0" cy="113.7" r="3" fill="#4CAF50"/><circle cx="355.6" cy="136.4" r="3" fill="#4CAF50"/><circle cx="371.1" cy="134.8" r="3" fill="#4CAF50"/><circle cx="386.7" cy="140.9" r="3" fill="#4CAF50"/><circle cx="402.2" cy="121.5" r="3" fill="#4CAF50"/><circle cx="417.8" cy="138.0" r="3" fill="#4CAF50"/><circle cx="433.3" cy="40.0" r="3" fill="#4CAF50"/><circle cx="448.9" cy="126.7" r="3" fill="#4CAF50"/><circle cx="464.4" cy="138.5" r="3" fill="#4CAF50"/><circle cx="480.0" cy="109.3" r="3" fill="#4CAF50"/><rect x="490" y="44" width="10" height="10" fill="#4CAF50"/><text x="504" y="53" font-family="system-ui, -apple-system, sans-serif" font-size="10" fill="#333">openai</text><polyline fill="none" stroke="#2196F3" stroke-width="2" points="60.0,143.4 75.6,149.4 91.1,143.1 106.7,145.8 122.2,151.8 137.8,139.6 153.3,145.6 168.9,141.5 184.4,141.5 200.0,140.7 215.6,142.6 231.1,153.3 246.7,152.2 262.2,146.8 277.8,141.9 293.3,142.2 308.9,116.6 324.4,142.0 340.0,114.7 355.6,122.7 371.1,135.5 386.7,130.6 402.2,145.2 417.8,124.2 433.3,141.8 448.9,137.0 464.4,134.1 480.0,136.4"/><circle cx="60.0" cy="143.4" r="3" fill="#2196F3"/><circle cx="75.6" cy="149.4" r="3" fill="#2196F3"/><circle cx="91.1" cy="143.1" r="3" fill="#2196F3"/><circle cx="106.7" cy="145.8" r="3" fill="#2196F3"/><circle cx="122.2" cy="151.8" r="3" fill="#2196F3"/><circle cx="137.8" cy="139.6" r="3" fill="#2196F3"/><circle cx="153.3" cy="145.6" r="3" fill="#2196F3"/><circle cx="168.9" cy="141.5" r="3" fill="#2196F3"/><circle cx="184.4" cy="141.5" r="3" fill="#2196F3"/><circle cx="200.0" cy="140.7" r="3" fill="#2196F3"/><circle cx="215.6" cy="142.6" r="3" fill="#2196F3"/><circle cx="231.1" cy="153.3" r="3" fill="#2196F3"/><circle cx="246.7" cy="152.2" r="3" fill="#2196F3"/><circle cx="262.2" cy="146.8" r="3" fill="#2196F3"/><circle cx="277.8" cy="141.9" r="3" fill="#2196F3"/><circle cx="293.3" cy="142.2" r="3" fill="#2196F3"/><circle cx="308.9" cy="116.6" r="3" fill="#2196F3"/><circle cx="324.4" cy="142.0" r="3" fill="#2196F3"/><circle cx="340.0" cy="114.7" r="3" fill="#2196F3"/><circle cx="355.6" cy="122.7" r="3" fill="#2196F3"/><circle cx="371.1" cy="135.5" r="3" fill="#2196F3"/><circle cx="386.7" cy="130.6" r="3" fill="#2196F3"/><circle cx="402.2" cy="145.2" r="3" fill="#2196F3"/><circle cx="417.8" cy="124.2" r="3" fill="#2196F3"/><circle cx="433.3" cy="141.8" r="3" fill="#2196F3"/><circle cx="448.9" cy="137.0" r="3" fill="#2196F3"/><circle cx="464.4" cy="134.1" r="3" fill="#2196F3"/><circle cx="480.0" cy="136.4" r="3" fill="#2196F3"/><rect x="490" y="62" width="10" height="10" fill="#2196F3"/><text x="504" y="71" font-family="system-ui, -apple-system, sans-serif" font-size="10" fill="#333">gemini</text><polyline fill="none" stroke="#FF9800" stroke-width="2" points="60.0,102.1 75.6,121.1 91.1,125.3 106.7,97.5 122.2,120.5 137.8,80.6 153.3,115.2 168.9,101.9 184.4,109.2 200.0,118.7 215.6,125.8 231.1,114.2 246.7,107.2 262.2,139.1 277.8,123.1 293.3,120.9 308.9,110.3 340.0,112.2 355.6,124.4 371.1,98.5 386.7,127.8 402.2,122.4 417.8,111.2 433.3,121.0 448.9,123.4 464.4,129.2 480.0,122.2"/><circle cx="60.0" cy="102.1" r="3" fill="#FF9800"/><circle cx="75.6" cy="121.1" r="3" fill="#FF9800"/><circle cx="91.1" cy="125.3" r="3" fill="#FF9800"/><circle cx="106.7" cy="97.5" r="3" fill="#FF9800"/><circle cx="122.2" cy="120.5" r="3" fill="#FF9800"/><circle cx="137.8" cy="80.6" r="3" fill="#FF9800"/><circle cx="153.3" cy="115.2" r="3" fill="#FF9800"/><circle cx="168.9" cy="101.9" r="3" fill="#FF9800"/><circle cx="184.4" cy="109.2" r="3" fill="#FF9800"/><circle cx="200.0" cy="118.7" r="3" fill="#FF9800"/><circle cx="215.6" cy="125.8" r="3" fill="#FF9800"/><circle cx="231.1" cy="114.2" r="3" fill="#FF9800"/><circle cx="246.7" cy="107.2" r="3" fill="#FF9800"/><circle cx="262.2" cy="139.1" r="3" fill="#FF9800"/><circle cx="277.8" cy="123.1" r="3" fill="#FF9800"/><circle cx="293.3" cy="120.9" r="3" fill="#FF9800"/><circle cx="308.9" cy="110.3" r="3" fill="#FF9800"/><circle cx="340.0" cy="112.2" r="3" fill="#FF9800"/><circle cx="355.6" cy="124.4" r="3" fill="#FF9800"/><circle cx="371.1" cy="98.5" r="3" fill="#FF9800"/><circle cx="386.7" cy="127.8" r="3" fill="#FF9800"/><circle cx="402.2" cy="122.4" r="3" fill="#FF9800"/><circle cx="417.8" cy="111.2" r="3" fill="#FF9800"/><circle cx="433.3" cy="121.0" r="3" fill="#FF9800"/><circle cx="448.9" cy="123.4" r="3" fill="#FF9800"/><circle cx="464.4" cy="129.2" r="3" fill="#FF9800"/><circle cx="480.0" cy="122.2" r="3" fill="#FF9800"/><rect x="490" y="80" width="10" height="10" fill="#FF9800"/><text x="504" y="89" font-family="system-ui, -apple-system, sans-serif" font-size="10" fill="#333">anthropic</text><polyline fill="none" stroke="#E91E63" stroke-width="2" points="60.0,142.3 75.6,134.2 91.1,75.2 106.7,148.6 122.2,144.6 137.8,147.1 153.3,137.4 168.9,137.1 184.4,134.0 200.0,140.2 215.6,134.0 231.1,134.7 246.7,136.5 262.2,142.6 277.8,129.8 293.3,141.3 308.9,135.9 324.4,139.7 340.0,149.9 355.6,142.4 371.1,146.8 386.7,143.9 402.2,94.4 417.8,144.4 433.3,146.1 448.9,143.5 464.4,145.1 480.0,121.8"/><circle cx="60.0" cy="142.3" r="3" fill="#E91E63"/><circle cx="75.6" cy="134.2" r="3" fill="#E91E63"/><circle cx="91.1" cy="75.2" r="3" fill="#E91E63"/><circle cx="106.7" cy="148.6" r="3" fill="#E91E63"/><circle cx="122.2" cy="144.6" r="3" fill="#E91E63"/><circle cx="137.8" cy="147.1" r="3" fill="#E91E63"/><circle cx="153.3" cy="137.4" r="3" fill="#E91E63"/><circle cx="168.9" cy="137.1" r="3" fill="#E91E63"/><circle cx="184.4" cy="134.0" r="3" fill="#E91E63"/><circle cx="200.0" cy="140.2" r="3" fill="#E91E63"/><circle cx="215.6" cy="134.0" r="3" fill="#E91E63"/><circle cx="231.1" cy="134.7" r="3" fill="#E91E63"/><circle cx="246.7" cy="136.5" r="3" fill="#E91E63"/><circle cx="262.2" cy="142.6" r="3" fill="#E91E63"/><circle cx="277.8" cy="129.8" r="3" fill="#E91E63"/><circle cx="293.3" cy="141.3" r="3" fill="#E91E63"/><circle cx="308.9" cy="135.9" r="3" fill="#E91E63"/><circle cx="324.4" cy="139.7" r="3" fill="#E91E63"/><circle cx="340.0" cy="149.9" r="3" fill="#E91E63"/><circle cx="355.6" cy="142.4" r="3" fill="#E91E63"/><circle cx="371.1" cy="146.8" r="3" fill="#E91E63"/><circle cx="386.7" cy="143.9" r="3" fill="#E91E63"/><circle cx="402.2" cy="94.4" r="3" fill="#E91E63"/><circle cx="417.8" cy="144.4" r="3" fill="#E91E63"/><circle cx="433.3" cy="146.1" r="3" fill="#E91E63"/><circle cx="448.9" cy="143.5" r="3" fill="#E91E63"/><circle cx="464.4" cy="145.1" r="3" fill="#E91E63"/><circle cx="480.0" cy="121.8" r="3" fill="#E91E63"/><rect x="490" y="98" width="10" height="10" fill="#E91E63"/><text x="504" y="107" font-family="system-ui, -apple-system, sans-serif" font-size="10" fill="#333">mistral</text><polyline fill="none" stroke="#9C27B0" stroke-width="2" points="60.0,190.1 75.6,198.8 91.1,201.7 106.7,188.0 122.2,194.2 137.8,202.7 153.3,198.8 168.9,193.1 184.4,195.8 200.0,201.2 215.6,195.7 231.1,193.6 246.7,197.3 262.2,183.3 277.8,198.4 293.3,193.5 308.9,200.8 324.4,201.2 340.0,184.1 355.6,194.7 371.1,171.9 386.7,200.2 402.2,202.6 417.8,192.6 433.3,190.9 448.9,193.9 464.4,195.4 480.0,193.3"/><circle cx="60.0" cy="190.1" r="3" fill="#9C27B0"/><circle cx="75.6" cy="198.8" r="3" fill="#9C27B0"/><circle cx="91.1" cy="201.7" r="3" fill="#9C27B0"/><circle cx="106.7" cy="188.0" r="3" fill="#9C27B0"/><circle cx="122.2" cy="194.2" r="3" fill="#9C27B0"/><circle cx="137.8" cy="202.7" r="3" fill="#9C27B0"/><circle cx="153.3" cy="198.8" r="3" fill="#9C27B0"/><circle cx="168.9" cy="193.1" r="3" fill="#9C27B0"/><circle cx="184.4" cy="195.8" r="3" fill="#9C27B0"/><circle cx="200.0" cy="201.2" r="3" fill="#9C27B0"/><circle cx="215.6" cy="195.7" r="3" fill="#9C27B0"/><circle cx="231.1" cy="193.6" r="3" fill="#9C27B0"/><circle cx="246.7" cy="197.3" r="3" fill="#9C27B0"/><circle cx="262.2" cy="183.3" r="3" fill="#9C27B0"/><circle cx="277.8" cy="198.4" r="3" fill="#9C27B0"/><circle cx="293.3" cy="193.5" r="3" fill="#9C27B0"/><circle cx="308.9" cy="200.8" r="3" fill="#9C27B0"/><circle cx="324.4" cy="201.2" r="3" fill="#9C27B0"/><circle cx="340.0" cy="184.1" r="3" fill="#9C27B0"/><circle cx="355.6" cy="194.7" r="3" fill="#9C27B0"/><circle cx="371.1" cy="171.9" r="3" fill="#9C27B0"/><circle cx="386.7" cy="200.2" r="3" fill="#9C27B0"/><circle cx="402.2" cy="202.6" r="3" fill="#9C27B0"/><circle cx="417.8" cy="192.6" r="3" fill="#9C27B0"/><circle cx="433.3" cy="190.9" r="3" fill="#9C27B0"/><circle cx="448.9" cy="193.9" r="3" fill="#9C27B0"/><circle cx="464.4" cy="195.4" r="3" fill="#9C27B0"/><circle cx="480.0" cy="193.3" r="3" fill="#9C27B0"/><rect x="490" y="116" width="10" height="10" fill="#9C27B0"/><text x="504" y="125" font-family="system-ui, -apple-system, sans-serif" font-size="10" fill="#333">llama</text><polyline fill="none" stroke="#00BCD4" stroke-width="2" points="184.4,239.2 200.0,239.3 215.6,239.8 231.1,238.8 246.7,239.0 262.2,234.2 277.8,240.0 293.3,237.9 308.9,237.9 324.4,237.6 340.0,238.9 355.6,237.9 371.1,235.2 386.7,238.1 402.2,235.5 417.8,240.0 433.3,238.2 448.9,235.2 464.4,232.9 480.0,238.2"/><circle cx="184.4" cy="239.2" r="3" fill="#00BCD4"/><circle cx="200.0" cy="239.3" r="3" fill="#00BCD4"/><circle cx="215.6" cy="239.8" r="3" fill="#00BCD4"/><circle cx="231.1" cy="238.8" r="3" fill="#00BCD4"/><circle cx="246.7" cy="239.0" r="3" fill="#00BCD4"/><circle cx="262.2" cy="234.2" r="3" fill="#00BCD4"/><circle cx="277.8" cy="240.0" r="3" fill="#00BCD4"/><circle cx="293.3" cy="237.9" r="3" fill="#00BCD4"/><circle cx="308.9" cy="237.9" r="3" fill="#00BCD4"/><circle cx="324.4" cy="237.6" r="3" fill="#00BCD4"/><circle cx="340.0" cy="238.9" r="3" fill="#00BCD4"/><circle cx="355.6" cy="237.9" r="3" fill="#00BCD4"/><circle cx="371.1" cy="235.2" r="3" fill="#00BCD4"/><circle cx="386.7" cy="238.1" r="3" fill="#00BCD4"/><circle cx="402.2" cy="235.5" r="3" fill="#00BCD4"/><circle cx="417.8" cy="240.0" r="3" fill="#00BCD4"/><circle cx="433.3" cy="238.2" r="3" fill="#00BCD4"/><circle cx="448.9" cy="235.2" r="3" fill="#00BCD4"/><circle cx="464.4" cy="232.9" r="3" fill="#00BCD4"/><circle cx="480.0" cy="238.2" r="3" fill="#00BCD4"/><rect x="490" y="134" width="10" height="10" fill="#00BCD4"/><text x="504" y="143" font-family="system-ui, -apple-system, sans-serif" font-size="10" fill="#333">deepseek</text><text x="60.0" y="256.0" text-anchor="middle" font-family="system-ui, -apple-system, sans-serif" font-size="9" fill="#666">71825113</text><text x="91.1" y="256.0" text-anchor="middle" font-family="system-ui, -apple-system, sans-serif" font-size="9" fill="#666">76301827</text><text x="122.2" y="256.0" text-anchor="middle" font-family="system-ui, -apple-system, sans-serif" font-size="9" fill="#666">00118301</text><text x="153.3" y="256.0" text-anchor="middle" font-family="system-ui, -apple-system, sans-serif" font-size="9" fill="#666">31919473</text><text x="184.4" y="256.0" text-anchor="middle" font-family="system-ui, -apple-system, sans-serif" font-size="9" fill="#666">49559976</text><text x="215.6" y="256.0" text-anchor="middle" font-family="system-ui, -apple-system, sans-serif" font-size="9" fill="#666">53749546</text><text x="246.7" y="256.0" text-anchor="middle" font-family="system-ui, -apple-system, sans-serif" font-size="9" fill="#666">73723278</text><text x="277.8" y="256.0" text-anchor="middle" font-family="system-ui, -apple-system, sans-serif" font-size="9" fill="#666">75063969</text><text x="308.9" y="256.0" text-anchor="middle" font-family="system-ui, -apple-system, sans-serif" font-size="9" fill="#666">76005435</text><text x="340.0" y="256.0" text-anchor="middle" font-family="system-ui, -apple-system, sans-serif" font-size="9" fill="#666">39719442</text><text x="371.1" y="256.0" text-anchor="middle" font-family="system-ui, -apple-system, sans-serif" font-size="9" fill="#666">41747041</text><text x="402.2" y="256.0" text-anchor="middle" font-family="system-ui, -apple-system, sans-serif" font-size="9" fill="#666">11556178</text><text x="433.3" y="256.0" text-anchor="middle" font-family="system-ui, -apple-system, sans-serif" font-size="9" fill="#666">34092480</text><text x="464.4" y="256.0" text-anchor="middle" font-family="system-ui, -apple-system, sans-serif" font-size="9" fill="#666">68273696</text></svg>
