<svg xmlns="http://www.w3.org/2000/svg" viewBox="0 0 760 348" width="760" height="348" role="img" aria-label="Cost per test by provider over runs — openai highest, deepseek lowest" font-family="-apple-system,BlinkMacSystemFont,'Segoe UI',system-ui,sans-serif"><line x1="56" y1="306" x2="642" y2="306" stroke="#d8dee4" stroke-width="1"></line><text x="46" y="310" font-size="9.5" font-weight="400" text-anchor="end" fill="#656d76" font-family="ui-monospace,SFMono-Regular,Menlo,monospace">$0.000</text><line x1="56" y1="235" x2="642" y2="235" stroke="#d8dee4" stroke-width="1"></line><text x="46" y="239" font-size="9.5" font-weight="400" text-anchor="end" fill="#656d76" font-family="ui-monospace,SFMono-Regular,Menlo,monospace">$0.044</text><line x1="56" y1="164" x2="642" y2="164" stroke="#d8dee4" stroke-width="1"></line><text x="46" y="168" font-size="9.5" font-weight="400" text-anchor="end" fill="#656d76" font-family="ui-monospace,SFMono-Regular,Menlo,monospace">$0.087</text><line x1="56" y1="93" x2="642" y2="93" stroke="#d8dee4" stroke-width="1"></line><text x="46" y="97" font-size="9.5" font-weight="400" text-anchor="end" fill="#656d76" font-family="ui-monospace,SFMono-Regular,Menlo,monospace">$0.131</text><line x1="56" y1="22" x2="642" y2="22" stroke="#d8dee4" stroke-width="1"></line><text x="46" y="26" font-size="9.5" font-weight="400" text-anchor="end" fill="#656d76" font-family="ui-monospace,SFMono-Regular,Menlo,monospace">$0.175</text><text x="56" y="324" font-size="9.5" font-weight="400" text-anchor="middle" fill="#656d76" font-family="ui-monospace,SFMono-Regular,Menlo,monospace">06/06</text><text x="111.81" y="324" font-size="9.5" font-weight="400" text-anchor="middle" fill="#656d76" font-family="ui-monospace,SFMono-Regular,Menlo,monospace">06/07</text><text x="167.62" y="324" font-size="9.5" font-weight="400" text-anchor="middle" fill="#656d76" font-family="ui-monospace,SFMono-Regular,Menlo,monospace">06/08</text><text x="223.43" y="324" font-size="9.5" font-weight="400" text-anchor="middle" fill="#656d76" font-family="ui-monospace,SFMono-Regular,Menlo,monospace">06/08</text><text x="279.24" y="324" font-size="9.5" font-weight="400" text-anchor="middle" fill="#656d76" font-family="ui-monospace,SFMono-Regular,Menlo,monospace">06/09</text><text x="335.05" y="324" font-size="9.5" font-weight="400" text-anchor="middle" fill="#656d76" font-family="ui-monospace,SFMono-Regular,Menlo,monospace">06/09</text><text x="390.86" y="324" font-size="9.5" font-weight="400" text-anchor="middle" fill="#656d76" font-family="ui-monospace,SFMono-Regular,Menlo,monospace">06/12</text><text x="446.67" y="324" font-size="9.5" font-weight="400" text-anchor="middle" fill="#656d76" font-family="ui-monospace,SFMono-Regular,Menlo,monospace">06/14</text><text x="502.48" y="324" font-size="9.5" font-weight="400" text-anchor="middle" fill="#656d76" font-family="ui-monospace,SFMono-Regular,Menlo,monospace">06/14</text><text x="558.29" y="324" font-size="9.5" font-weight="400" text-anchor="middle" fill="#656d76" font-family="ui-monospace,SFMono-Regular,Menlo,monospace">06/15</text><text x="614.1" y="324" font-size="9.5" font-weight="400" text-anchor="middle" fill="#656d76" font-family="ui-monospace,SFMono-Regular,Menlo,monospace">06/16</text><text x="642" y="324" font-size="9.5" font-weight="400" text-anchor="middle" fill="#656d76" font-family="ui-monospace,SFMono-Regular,Menlo,monospace">06/16</text><polyline fill="none" stroke="#6366F1" stroke-width="2.4" stroke-linejoin="round" stroke-linecap="round" points="167.62,293.36 181.57,293.43 195.52,294.1 209.48,292.89 223.43,293.14 237.38,287.31 251.33,294.31 265.29,291.77 279.24,291.82 293.19,291.36 307.14,293.02 321.1,291.8 335.05,288.55 349,292.06 362.95,288.85 376.9,294.29 390.86,292.11 404.81,288.48 418.76,285.75 432.71,292.13 446.67,291.04 460.62,293.66 474.57,290.08 488.52,286.94 502.48,292.77 516.43,291.68 530.38,292.47 544.33,291.27 572.24,290.7 586.19,292.91 600.14,293.34 614.1,290.78 628.05,290.99 642,291.6"></polyline><circle cx="167.62" cy="293.36" r="2.6" fill="#6366F1"></circle><circle cx="181.57" cy="293.43" r="2.6" fill="#6366F1"></circle><circle cx="195.52" cy="294.1" r="2.6" fill="#6366F1"></circle><circle cx="209.48" cy="292.89" r="2.6" fill="#6366F1"></circle><circle cx="223.43" cy="293.14" r="2.6" fill="#6366F1"></circle><circle cx="237.38" cy="287.31" r="2.6" fill="#6366F1"></circle><circle cx="251.33" cy="294.31" r="2.6" fill="#6366F1"></circle><circle cx="265.29" cy="291.77" r="2.6" fill="#6366F1"></circle><circle cx="279.24" cy="291.82" r="2.6" fill="#6366F1"></circle><circle cx="293.19" cy="291.36" r="2.6" fill="#6366F1"></circle><circle cx="307.14" cy="293.02" r="2.6" fill="#6366F1"></circle><circle cx="321.1" cy="291.8" r="2.6" fill="#6366F1"></circle><circle cx="335.05" cy="288.55" r="2.6" fill="#6366F1"></circle><circle cx="349" cy="292.06" r="2.6" fill="#6366F1"></circle><circle cx="362.95" cy="288.85" r="2.6" fill="#6366F1"></circle><circle cx="376.9" cy="294.29" r="2.6" fill="#6366F1"></circle><circle cx="390.86" cy="292.11" r="2.6" fill="#6366F1"></circle><circle cx="404.81" cy="288.48" r="2.6" fill="#6366F1"></circle><circle cx="418.76" cy="285.75" r="2.6" fill="#6366F1"></circle><circle cx="432.71" cy="292.13" r="2.6" fill="#6366F1"></circle><circle cx="446.67" cy="291.04" r="2.6" fill="#6366F1"></circle><circle cx="460.62" cy="293.66" r="2.6" fill="#6366F1"></circle><circle cx="474.57" cy="290.08" r="2.6" fill="#6366F1"></circle><circle cx="488.52" cy="286.94" r="2.6" fill="#6366F1"></circle><circle cx="502.48" cy="292.77" r="2.6" fill="#6366F1"></circle><circle cx="516.43" cy="291.68" r="2.6" fill="#6366F1"></circle><circle cx="530.38" cy="292.47" r="2.6" fill="#6366F1"></circle><circle cx="544.33" cy="291.27" r="2.6" fill="#6366F1"></circle><circle cx="572.24" cy="290.7" r="2.6" fill="#6366F1"></circle><circle cx="586.19" cy="292.91" r="2.6" fill="#6366F1"></circle><circle cx="600.14" cy="293.34" r="2.6" fill="#6366F1"></circle><circle cx="614.1" cy="290.78" r="2.6" fill="#6366F1"></circle><circle cx="628.05" cy="290.99" r="2.6" fill="#6366F1"></circle><circle cx="642" cy="291.6" r="2.6" fill="#6366F1"></circle><polyline fill="none" stroke="#A371F7" stroke-width="2.4" stroke-linejoin="round" stroke-linecap="round" points="56,234.02 69.95,244.52 83.9,248 97.86,231.43 111.81,238.89 125.76,249.23 139.71,244.46 153.67,237.54 167.62,240.86 181.57,247.44 195.52,240.79 209.48,238.23 223.43,242.67 237.38,225.79 251.33,243.99 265.29,238.04 279.24,246.87 293.19,247.42 307.14,226.74 321.1,239.47 335.05,211.96 349,246.23 362.95,249.04 376.9,237.01 390.86,234.98 404.81,238.5 418.76,240.35 432.71,237.84 446.67,246.71 460.62,242.24 474.57,238.34 488.52,244.61 502.48,248.91 516.43,226.53 530.38,244.07 544.33,245.89 572.24,225.3 586.19,246.26 600.14,237.6 628.05,238.19 642,247.14"></polyline><circle cx="56" cy="234.02" r="2.6" fill="#A371F7"></circle><circle cx="69.95" cy="244.52" r="2.6" fill="#A371F7"></circle><circle cx="83.9" cy="248" r="2.6" fill="#A371F7"></circle><circle cx="97.86" cy="231.43" r="2.6" fill="#A371F7"></circle><circle cx="111.81" cy="238.89" r="2.6" fill="#A371F7"></circle><circle cx="125.76" cy="249.23" r="2.6" fill="#A371F7"></circle><circle cx="139.71" cy="244.46" r="2.6" fill="#A371F7"></circle><circle cx="153.67" cy="237.54" r="2.6" fill="#A371F7"></circle><circle cx="167.62" cy="240.86" r="2.6" fill="#A371F7"></circle><circle cx="181.57" cy="247.44" r="2.6" fill="#A371F7"></circle><circle cx="195.52" cy="240.79" r="2.6" fill="#A371F7"></circle><circle cx="209.48" cy="238.23" r="2.6" fill="#A371F7"></circle><circle cx="223.43" cy="242.67" r="2.6" fill="#A371F7"></circle><circle cx="237.38" cy="225.79" r="2.6" fill="#A371F7"></circle><circle cx="251.33" cy="243.99" r="2.6" fill="#A371F7"></circle><circle cx="265.29" cy="238.04" r="2.6" fill="#A371F7"></circle><circle cx="279.24" cy="246.87" r="2.6" fill="#A371F7"></circle><circle cx="293.19" cy="247.42" r="2.6" fill="#A371F7"></circle><circle cx="307.14" cy="226.74" r="2.6" fill="#A371F7"></circle><circle cx="321.1" cy="239.47" r="2.6" fill="#A371F7"></circle><circle cx="335.05" cy="211.96" r="2.6" fill="#A371F7"></circle><circle cx="349" cy="246.23" r="2.6" fill="#A371F7"></circle><circle cx="362.95" cy="249.04" r="2.6" fill="#A371F7"></circle><circle cx="376.9" cy="237.01" r="2.6" fill="#A371F7"></circle><circle cx="390.86" cy="234.98" r="2.6" fill="#A371F7"></circle><circle cx="404.81" cy="238.5" r="2.6" fill="#A371F7"></circle><circle cx="418.76" cy="240.35" r="2.6" fill="#A371F7"></circle><circle cx="432.71" cy="237.84" r="2.6" fill="#A371F7"></circle><circle cx="446.67" cy="246.71" r="2.6" fill="#A371F7"></circle><circle cx="460.62" cy="242.24" r="2.6" fill="#A371F7"></circle><circle cx="474.57" cy="238.34" r="2.6" fill="#A371F7"></circle><circle cx="488.52" cy="244.61" r="2.6" fill="#A371F7"></circle><circle cx="502.48" cy="248.91" r="2.6" fill="#A371F7"></circle><circle cx="516.43" cy="226.53" r="2.6" fill="#A371F7"></circle><circle cx="530.38" cy="244.07" r="2.6" fill="#A371F7"></circle><circle cx="544.33" cy="245.89" r="2.6" fill="#A371F7"></circle><circle cx="572.24" cy="225.3" r="2.6" fill="#A371F7"></circle><circle cx="586.19" cy="246.26" r="2.6" fill="#A371F7"></circle><circle cx="600.14" cy="237.6" r="2.6" fill="#A371F7"></circle><circle cx="628.05" cy="238.19" r="2.6" fill="#A371F7"></circle><circle cx="642" cy="247.14" r="2.6" fill="#A371F7"></circle><polyline fill="none" stroke="#F0A23B" stroke-width="2.4" stroke-linejoin="round" stroke-linecap="round" points="56,176.15 69.95,166.37 83.9,95.06 97.86,183.78 111.81,178.88 125.76,182.02 139.71,170.24 153.67,169.9 167.62,166.14 181.57,173.66 195.52,166.11 209.48,167.02 223.43,169.09 237.38,176.53 251.33,161.02 265.29,174.97 279.24,168.38 293.19,173 307.14,185.38 321.1,176.24 335.05,181.63 349,178.09 362.95,118.27 376.9,178.67 390.86,180.72 404.81,177.62 418.76,179.5 432.71,151.31 446.67,176.94 460.62,159.91 474.57,179.22 488.52,151.49 502.48,180.65 516.43,179.71 530.38,79.16 544.33,99.74 558.29,178.4 572.24,180.3 586.19,180.24 600.14,176.88 614.1,178.65 628.05,183.45 642,182.56"></polyline><circle cx="56" cy="176.15" r="2.6" fill="#F0A23B"></circle><circle cx="69.95" cy="166.37" r="2.6" fill="#F0A23B"></circle><circle cx="83.9" cy="95.06" r="2.6" fill="#F0A23B"></circle><circle cx="97.86" cy="183.78" r="2.6" fill="#F0A23B"></circle><circle cx="111.81" cy="178.88" r="2.6" fill="#F0A23B"></circle><circle cx="125.76" cy="182.02" r="2.6" fill="#F0A23B"></circle><circle cx="139.71" cy="170.24" r="2.6" fill="#F0A23B"></circle><circle cx="153.67" cy="169.9" r="2.6" fill="#F0A23B"></circle><circle cx="167.62" cy="166.14" r="2.6" fill="#F0A23B"></circle><circle cx="181.57" cy="173.66" r="2.6" fill="#F0A23B"></circle><circle cx="195.52" cy="166.11" r="2.6" fill="#F0A23B"></circle><circle cx="209.48" cy="167.02" r="2.6" fill="#F0A23B"></circle><circle cx="223.43" cy="169.09" r="2.6" fill="#F0A23B"></circle><circle cx="237.38" cy="176.53" r="2.6" fill="#F0A23B"></circle><circle cx="251.33" cy="161.02" r="2.6" fill="#F0A23B"></circle><circle cx="265.29" cy="174.97" r="2.6" fill="#F0A23B"></circle><circle cx="279.24" cy="168.38" r="2.6" fill="#F0A23B"></circle><circle cx="293.19" cy="173" r="2.6" fill="#F0A23B"></circle><circle cx="307.14" cy="185.38" r="2.6" fill="#F0A23B"></circle><circle cx="321.1" cy="176.24" r="2.6" fill="#F0A23B"></circle><circle cx="335.05" cy="181.63" r="2.6" fill="#F0A23B"></circle><circle cx="349" cy="178.09" r="2.6" fill="#F0A23B"></circle><circle cx="362.95" cy="118.27" r="2.6" fill="#F0A23B"></circle><circle cx="376.9" cy="178.67" r="2.6" fill="#F0A23B"></circle><circle cx="390.86" cy="180.72" r="2.6" fill="#F0A23B"></circle><circle cx="404.81" cy="177.62" r="2.6" fill="#F0A23B"></circle><circle cx="418.76" cy="179.5" r="2.6" fill="#F0A23B"></circle><circle cx="432.71" cy="151.31" r="2.6" fill="#F0A23B"></circle><circle cx="446.67" cy="176.94" r="2.6" fill="#F0A23B"></circle><circle cx="460.62" cy="159.91" r="2.6" fill="#F0A23B"></circle><circle cx="474.57" cy="179.22" r="2.6" fill="#F0A23B"></circle><circle cx="488.52" cy="151.49" r="2.6" fill="#F0A23B"></circle><circle cx="502.48" cy="180.65" r="2.6" fill="#F0A23B"></circle><circle cx="516.43" cy="179.71" r="2.6" fill="#F0A23B"></circle><circle cx="530.38" cy="79.16" r="2.6" fill="#F0A23B"></circle><circle cx="544.33" cy="99.74" r="2.6" fill="#F0A23B"></circle><circle cx="558.29" cy="178.4" r="2.6" fill="#F0A23B"></circle><circle cx="572.24" cy="180.3" r="2.6" fill="#F0A23B"></circle><circle cx="586.19" cy="180.24" r="2.6" fill="#F0A23B"></circle><circle cx="600.14" cy="176.88" r="2.6" fill="#F0A23B"></circle><circle cx="614.1" cy="178.65" r="2.6" fill="#F0A23B"></circle><circle cx="628.05" cy="183.45" r="2.6" fill="#F0A23B"></circle><circle cx="642" cy="182.56" r="2.6" fill="#F0A23B"></circle><polyline fill="none" stroke="#1F9CF0" stroke-width="2.4" stroke-linejoin="round" stroke-linecap="round" points="56,175.5 69.95,176.2 83.9,132.71 97.86,178.27 111.81,172 125.76,174.38 139.71,174.4 153.67,170.88 167.62,173.93 181.57,173.54 195.52,100.75 209.48,168.69 223.43,173.59 237.38,174.01 251.33,167.31 265.29,117.5 279.24,166.02 293.19,174.07 307.14,141.6 321.1,169.05 335.05,167.14 349,174.48 362.95,150.94 376.9,171.01 390.86,52.43 404.81,157.26 418.76,171.51 432.71,136.29 446.67,169.79 460.62,106.45 474.57,170.47 488.52,175.76 502.48,174.01 516.43,174.06 530.38,151.2 544.33,173.78 558.29,169.88 572.24,177.61 586.19,137.18 600.14,114.15 614.1,168.74 628.05,168.47 642,130.46"></polyline><circle cx="56" cy="175.5" r="2.6" fill="#1F9CF0"></circle><circle cx="69.95" cy="176.2" r="2.6" fill="#1F9CF0"></circle><circle cx="83.9" cy="132.71" r="2.6" fill="#1F9CF0"></circle><circle cx="97.86" cy="178.27" r="2.6" fill="#1F9CF0"></circle><circle cx="111.81" cy="172" r="2.6" fill="#1F9CF0"></circle><circle cx="125.76" cy="174.38" r="2.6" fill="#1F9CF0"></circle><circle cx="139.71" cy="174.4" r="2.6" fill="#1F9CF0"></circle><circle cx="153.67" cy="170.88" r="2.6" fill="#1F9CF0"></circle><circle cx="167.62" cy="173.93" r="2.6" fill="#1F9CF0"></circle><circle cx="181.57" cy="173.54" r="2.6" fill="#1F9CF0"></circle><circle cx="195.52" cy="100.75" r="2.6" fill="#1F9CF0"></circle><circle cx="209.48" cy="168.69" r="2.6" fill="#1F9CF0"></circle><circle cx="223.43" cy="173.59" r="2.6" fill="#1F9CF0"></circle><circle cx="237.38" cy="174.01" r="2.6" fill="#1F9CF0"></circle><circle cx="251.33" cy="167.31" r="2.6" fill="#1F9CF0"></circle><circle cx="265.29" cy="117.5" r="2.6" fill="#1F9CF0"></circle><circle cx="279.24" cy="166.02" r="2.6" fill="#1F9CF0"></circle><circle cx="293.19" cy="174.07" r="2.6" fill="#1F9CF0"></circle><circle cx="307.14" cy="141.6" r="2.6" fill="#1F9CF0"></circle><circle cx="321.1" cy="169.05" r="2.6" fill="#1F9CF0"></circle><circle cx="335.05" cy="167.14" r="2.6" fill="#1F9CF0"></circle><circle cx="349" cy="174.48" r="2.6" fill="#1F9CF0"></circle><circle cx="362.95" cy="150.94" r="2.6" fill="#1F9CF0"></circle><circle cx="376.9" cy="171.01" r="2.6" fill="#1F9CF0"></circle><circle cx="390.86" cy="52.43" r="2.6" fill="#1F9CF0"></circle><circle cx="404.81" cy="157.26" r="2.6" fill="#1F9CF0"></circle><circle cx="418.76" cy="171.51" r="2.6" fill="#1F9CF0"></circle><circle cx="432.71" cy="136.29" r="2.6" fill="#1F9CF0"></circle><circle cx="446.67" cy="169.79" r="2.6" fill="#1F9CF0"></circle><circle cx="460.62" cy="106.45" r="2.6" fill="#1F9CF0"></circle><circle cx="474.57" cy="170.47" r="2.6" fill="#1F9CF0"></circle><circle cx="488.52" cy="175.76" r="2.6" fill="#1F9CF0"></circle><circle cx="502.48" cy="174.01" r="2.6" fill="#1F9CF0"></circle><circle cx="516.43" cy="174.06" r="2.6" fill="#1F9CF0"></circle><circle cx="530.38" cy="151.2" r="2.6" fill="#1F9CF0"></circle><circle cx="544.33" cy="173.78" r="2.6" fill="#1F9CF0"></circle><circle cx="558.29" cy="169.88" r="2.6" fill="#1F9CF0"></circle><circle cx="572.24" cy="177.61" r="2.6" fill="#1F9CF0"></circle><circle cx="586.19" cy="137.18" r="2.6" fill="#1F9CF0"></circle><circle cx="600.14" cy="114.15" r="2.6" fill="#1F9CF0"></circle><circle cx="614.1" cy="168.74" r="2.6" fill="#1F9CF0"></circle><circle cx="628.05" cy="168.47" r="2.6" fill="#1F9CF0"></circle><circle cx="642" cy="130.46" r="2.6" fill="#1F9CF0"></circle><line x1="656" y1="27" x2="672" y2="27" stroke="#6366F1" stroke-width="3" stroke-linecap="round"></line><text x="678" y="30" font-size="11" font-weight="400" text-anchor="start" fill="#1f2328">deepseek</text><line x1="656" y1="47" x2="672" y2="47" stroke="#A371F7" stroke-width="3" stroke-linecap="round"></line><text x="678" y="50" font-size="11" font-weight="400" text-anchor="start" fill="#1f2328">llama</text><line x1="656" y1="67" x2="672" y2="67" stroke="#F0A23B" stroke-width="3" stroke-linecap="round"></line><text x="678" y="70" font-size="11" font-weight="400" text-anchor="start" fill="#1f2328">mistral</text><line x1="656" y1="87" x2="672" y2="87" stroke="#1F9CF0" stroke-width="3" stroke-linecap="round"></line><text x="678" y="90" font-size="11" font-weight="400" text-anchor="start" fill="#1f2328">openai</text></svg>
