<svg xmlns="http://www.w3.org/2000/svg" viewBox="0 0 600 300" width="600" height="300" role="img" aria-label="Cost per test by provider over runs ($)"><text x="300.0" y="24" text-anchor="middle" font-family="system-ui, -apple-system, sans-serif" font-size="14" font-weight="600" fill="#333">Cost per test by provider over runs ($)</text><line x1="60" y1="240.0" x2="480" y2="240.0" stroke="#eee" stroke-width="1"/><text x="54" y="244.0" text-anchor="end" font-family="system-ui, -apple-system, sans-serif" font-size="9" fill="#999">0.007197</text><line x1="60" y1="140.0" x2="480" y2="140.0" stroke="#eee" stroke-width="1"/><text x="54" y="144.0" text-anchor="end" font-family="system-ui, -apple-system, sans-serif" font-size="9" fill="#999">0.08167</text><line x1="60" y1="40.0" x2="480" y2="40.0" stroke="#eee" stroke-width="1"/><text x="54" y="44.0" text-anchor="end" font-family="system-ui, -apple-system, sans-serif" font-size="9" fill="#999">0.1561</text><polyline fill="none" stroke="#4CAF50" stroke-width="2" points="60.0,141.8 74.0,142.3 88.0,106.4 102.0,144.1 116.0,138.9 130.0,140.8 144.0,140.9 158.0,137.9 172.0,140.5 186.0,140.1 200.0,80.0 214.0,136.1 228.0,140.2 242.0,140.5 256.0,135.0 270.0,93.8 284.0,133.9 298.0,140.6 312.0,113.7 326.0,136.4 340.0,134.8 354.0,140.9 368.0,121.5 382.0,138.0 396.0,40.0 410.0,126.7 424.0,138.5 438.0,109.3 452.0,137.0 466.0,84.7 480.0,137.6"/><circle cx="60.0" cy="141.8" r="3" fill="#4CAF50"/><circle cx="74.0" cy="142.3" r="3" fill="#4CAF50"/><circle cx="88.0" cy="106.4" r="3" fill="#4CAF50"/><circle cx="102.0" cy="144.1" r="3" fill="#4CAF50"/><circle cx="116.0" cy="138.9" r="3" fill="#4CAF50"/><circle cx="130.0" cy="140.8" r="3" fill="#4CAF50"/><circle cx="144.0" cy="140.9" r="3" fill="#4CAF50"/><circle cx="158.0" cy="137.9" r="3" fill="#4CAF50"/><circle cx="172.0" cy="140.5" r="3" fill="#4CAF50"/><circle cx="186.0" cy="140.1" r="3" fill="#4CAF50"/><circle cx="200.0" cy="80.0" r="3" fill="#4CAF50"/><circle cx="214.0" cy="136.1" r="3" fill="#4CAF50"/><circle cx="228.0" cy="140.2" r="3" fill="#4CAF50"/><circle cx="242.0" cy="140.5" r="3" fill="#4CAF50"/><circle cx="256.0" cy="135.0" r="3" fill="#4CAF50"/><circle cx="270.0" cy="93.8" r="3" fill="#4CAF50"/><circle cx="284.0" cy="133.9" r="3" fill="#4CAF50"/><circle cx="298.0" cy="140.6" r="3" fill="#4CAF50"/><circle cx="312.0" cy="113.7" r="3" fill="#4CAF50"/><circle cx="326.0" cy="136.4" r="3" fill="#4CAF50"/><circle cx="340.0" cy="134.8" r="3" fill="#4CAF50"/><circle cx="354.0" cy="140.9" r="3" fill="#4CAF50"/><circle cx="368.0" cy="121.5" r="3" fill="#4CAF50"/><circle cx="382.0" cy="138.0" r="3" fill="#4CAF50"/><circle cx="396.0" cy="40.0" r="3" fill="#4CAF50"/><circle cx="410.0" cy="126.7" r="3" fill="#4CAF50"/><circle cx="424.0" cy="138.5" r="3" fill="#4CAF50"/><circle cx="438.0" cy="109.3" r="3" fill="#4CAF50"/><circle cx="452.0" cy="137.0" r="3" fill="#4CAF50"/><circle cx="466.0" cy="84.7" r="3" fill="#4CAF50"/><circle cx="480.0" cy="137.6" r="3" fill="#4CAF50"/><rect x="490" y="44" width="10" height="10" fill="#4CAF50"/><text x="504" y="53" font-family="system-ui, -apple-system, sans-serif" font-size="10" fill="#333">openai</text><polyline fill="none" stroke="#2196F3" stroke-width="2" points="60.0,143.4 74.0,149.4 88.0,143.1 102.0,145.8 116.0,151.8 130.0,139.6 144.0,145.6 158.0,141.5 172.0,141.5 186.0,140.7 200.0,142.6 214.0,153.3 228.0,152.2 242.0,146.8 256.0,141.9 270.0,142.2 284.0,116.6 298.0,142.0 312.0,114.7 326.0,122.7 340.0,135.5 354.0,130.6 368.0,145.2 382.0,124.2 396.0,141.8 410.0,137.0 424.0,134.1 438.0,136.4"/><circle cx="60.0" cy="143.4" r="3" fill="#2196F3"/><circle cx="74.0" cy="149.4" r="3" fill="#2196F3"/><circle cx="88.0" cy="143.1" r="3" fill="#2196F3"/><circle cx="102.0" cy="145.8" r="3" fill="#2196F3"/><circle cx="116.0" cy="151.8" r="3" fill="#2196F3"/><circle cx="130.0" cy="139.6" r="3" fill="#2196F3"/><circle cx="144.0" cy="145.6" r="3" fill="#2196F3"/><circle cx="158.0" cy="141.5" r="3" fill="#2196F3"/><circle cx="172.0" cy="141.5" r="3" fill="#2196F3"/><circle cx="186.0" cy="140.7" r="3" fill="#2196F3"/><circle cx="200.0" cy="142.6" r="3" fill="#2196F3"/><circle cx="214.0" cy="153.3" r="3" fill="#2196F3"/><circle cx="228.0" cy="152.2" r="3" fill="#2196F3"/><circle cx="242.0" cy="146.8" r="3" fill="#2196F3"/><circle cx="256.0" cy="141.9" r="3" fill="#2196F3"/><circle cx="270.0" cy="142.2" r="3" fill="#2196F3"/><circle cx="284.0" cy="116.6" r="3" fill="#2196F3"/><circle cx="298.0" cy="142.0" r="3" fill="#2196F3"/><circle cx="312.0" cy="114.7" r="3" fill="#2196F3"/><circle cx="326.0" cy="122.7" r="3" fill="#2196F3"/><circle cx="340.0" cy="135.5" r="3" fill="#2196F3"/><circle cx="354.0" cy="130.6" r="3" fill="#2196F3"/><circle cx="368.0" cy="145.2" r="3" fill="#2196F3"/><circle cx="382.0" cy="124.2" r="3" fill="#2196F3"/><circle cx="396.0" cy="141.8" r="3" fill="#2196F3"/><circle cx="410.0" cy="137.0" r="3" fill="#2196F3"/><circle cx="424.0" cy="134.1" r="3" fill="#2196F3"/><circle cx="438.0" cy="136.4" r="3" fill="#2196F3"/><rect x="490" y="62" width="10" height="10" fill="#2196F3"/><text x="504" y="71" font-family="system-ui, -apple-system, sans-serif" font-size="10" fill="#333">gemini</text><polyline fill="none" stroke="#FF9800" stroke-width="2" points="60.0,102.1 74.0,121.1 88.0,125.3 102.0,97.5 116.0,120.5 130.0,80.6 144.0,115.2 158.0,101.9 172.0,109.2 186.0,118.7 200.0,125.8 214.0,114.2 228.0,107.2 242.0,139.1 256.0,123.1 270.0,120.9 284.0,110.3 312.0,112.2 326.0,124.4 340.0,98.5 354.0,127.8 368.0,122.4 382.0,111.2 396.0,121.0 410.0,123.4 424.0,129.2 438.0,122.2 452.0,135.4 466.0,124.0 480.0,123.6"/><circle cx="60.0" cy="102.1" r="3" fill="#FF9800"/><circle cx="74.0" cy="121.1" r="3" fill="#FF9800"/><circle cx="88.0" cy="125.3" r="3" fill="#FF9800"/><circle cx="102.0" cy="97.5" r="3" fill="#FF9800"/><circle cx="116.0" cy="120.5" r="3" fill="#FF9800"/><circle cx="130.0" cy="80.6" r="3" fill="#FF9800"/><circle cx="144.0" cy="115.2" r="3" fill="#FF9800"/><circle cx="158.0" cy="101.9" r="3" fill="#FF9800"/><circle cx="172.0" cy="109.2" r="3" fill="#FF9800"/><circle cx="186.0" cy="118.7" r="3" fill="#FF9800"/><circle cx="200.0" cy="125.8" r="3" fill="#FF9800"/><circle cx="214.0" cy="114.2" r="3" fill="#FF9800"/><circle cx="228.0" cy="107.2" r="3" fill="#FF9800"/><circle cx="242.0" cy="139.1" r="3" fill="#FF9800"/><circle cx="256.0" cy="123.1" r="3" fill="#FF9800"/><circle cx="270.0" cy="120.9" r="3" fill="#FF9800"/><circle cx="284.0" cy="110.3" r="3" fill="#FF9800"/><circle cx="312.0" cy="112.2" r="3" fill="#FF9800"/><circle cx="326.0" cy="124.4" r="3" fill="#FF9800"/><circle cx="340.0" cy="98.5" r="3" fill="#FF9800"/><circle cx="354.0" cy="127.8" r="3" fill="#FF9800"/><circle cx="368.0" cy="122.4" r="3" fill="#FF9800"/><circle cx="382.0" cy="111.2" r="3" fill="#FF9800"/><circle cx="396.0" cy="121.0" r="3" fill="#FF9800"/><circle cx="410.0" cy="123.4" r="3" fill="#FF9800"/><circle cx="424.0" cy="129.2" r="3" fill="#FF9800"/><circle cx="438.0" cy="122.2" r="3" fill="#FF9800"/><circle cx="452.0" cy="135.4" r="3" fill="#FF9800"/><circle cx="466.0" cy="124.0" r="3" fill="#FF9800"/><circle cx="480.0" cy="123.6" r="3" fill="#FF9800"/><rect x="490" y="80" width="10" height="10" fill="#FF9800"/><text x="504" y="89" font-family="system-ui, -apple-system, sans-serif" font-size="10" fill="#333">anthropic</text><polyline fill="none" stroke="#E91E63" stroke-width="2" points="60.0,142.3 74.0,134.2 88.0,75.2 102.0,148.6 116.0,144.6 130.0,147.1 144.0,137.4 158.0,137.1 172.0,134.0 186.0,140.2 200.0,134.0 214.0,134.7 228.0,136.5 242.0,142.6 256.0,129.8 270.0,141.3 284.0,135.9 298.0,139.7 312.0,149.9 326.0,142.4 340.0,146.8 354.0,143.9 368.0,94.4 382.0,144.4 396.0,146.1 410.0,143.5 424.0,145.1 438.0,121.8 452.0,142.9 466.0,128.9 480.0,144.8"/><circle cx="60.0" cy="142.3" r="3" fill="#E91E63"/><circle cx="74.0" cy="134.2" r="3" fill="#E91E63"/><circle cx="88.0" cy="75.2" r="3" fill="#E91E63"/><circle cx="102.0" cy="148.6" r="3" fill="#E91E63"/><circle cx="116.0" cy="144.6" r="3" fill="#E91E63"/><circle cx="130.0" cy="147.1" r="3" fill="#E91E63"/><circle cx="144.0" cy="137.4" r="3" fill="#E91E63"/><circle cx="158.0" cy="137.1" r="3" fill="#E91E63"/><circle cx="172.0" cy="134.0" r="3" fill="#E91E63"/><circle cx="186.0" cy="140.2" r="3" fill="#E91E63"/><circle cx="200.0" cy="134.0" r="3" fill="#E91E63"/><circle cx="214.0" cy="134.7" r="3" fill="#E91E63"/><circle cx="228.0" cy="136.5" r="3" fill="#E91E63"/><circle cx="242.0" cy="142.6" r="3" fill="#E91E63"/><circle cx="256.0" cy="129.8" r="3" fill="#E91E63"/><circle cx="270.0" cy="141.3" r="3" fill="#E91E63"/><circle cx="284.0" cy="135.9" r="3" fill="#E91E63"/><circle cx="298.0" cy="139.7" r="3" fill="#E91E63"/><circle cx="312.0" cy="149.9" r="3" fill="#E91E63"/><circle cx="326.0" cy="142.4" r="3" fill="#E91E63"/><circle cx="340.0" cy="146.8" r="3" fill="#E91E63"/><circle cx="354.0" cy="143.9" r="3" fill="#E91E63"/><circle cx="368.0" cy="94.4" r="3" fill="#E91E63"/><circle cx="382.0" cy="144.4" r="3" fill="#E91E63"/><circle cx="396.0" cy="146.1" r="3" fill="#E91E63"/><circle cx="410.0" cy="143.5" r="3" fill="#E91E63"/><circle cx="424.0" cy="145.1" r="3" fill="#E91E63"/><circle cx="438.0" cy="121.8" r="3" fill="#E91E63"/><circle cx="452.0" cy="142.9" r="3" fill="#E91E63"/><circle cx="466.0" cy="128.9" r="3" fill="#E91E63"/><circle cx="480.0" cy="144.8" r="3" fill="#E91E63"/><rect x="490" y="98" width="10" height="10" fill="#E91E63"/><text x="504" y="107" font-family="system-ui, -apple-system, sans-serif" font-size="10" fill="#333">mistral</text><polyline fill="none" stroke="#9C27B0" stroke-width="2" points="60.0,190.1 74.0,198.8 88.0,201.7 102.0,188.0 116.0,194.2 130.0,202.7 144.0,198.8 158.0,193.1 172.0,195.8 186.0,201.2 200.0,195.7 214.0,193.6 228.0,197.3 242.0,183.3 256.0,198.4 270.0,193.5 284.0,200.8 298.0,201.2 312.0,184.1 326.0,194.7 340.0,171.9 354.0,200.2 368.0,202.6 382.0,192.6 396.0,190.9 410.0,193.9 424.0,195.4 438.0,193.3 452.0,200.6 466.0,196.9 480.0,193.7"/><circle cx="60.0" cy="190.1" r="3" fill="#9C27B0"/><circle cx="74.0" cy="198.8" r="3" fill="#9C27B0"/><circle cx="88.0" cy="201.7" r="3" fill="#9C27B0"/><circle cx="102.0" cy="188.0" r="3" fill="#9C27B0"/><circle cx="116.0" cy="194.2" r="3" fill="#9C27B0"/><circle cx="130.0" cy="202.7" r="3" fill="#9C27B0"/><circle cx="144.0" cy="198.8" r="3" fill="#9C27B0"/><circle cx="158.0" cy="193.1" r="3" fill="#9C27B0"/><circle cx="172.0" cy="195.8" r="3" fill="#9C27B0"/><circle cx="186.0" cy="201.2" r="3" fill="#9C27B0"/><circle cx="200.0" cy="195.7" r="3" fill="#9C27B0"/><circle cx="214.0" cy="193.6" r="3" fill="#9C27B0"/><circle cx="228.0" cy="197.3" r="3" fill="#9C27B0"/><circle cx="242.0" cy="183.3" r="3" fill="#9C27B0"/><circle cx="256.0" cy="198.4" r="3" fill="#9C27B0"/><circle cx="270.0" cy="193.5" r="3" fill="#9C27B0"/><circle cx="284.0" cy="200.8" r="3" fill="#9C27B0"/><circle cx="298.0" cy="201.2" r="3" fill="#9C27B0"/><circle cx="312.0" cy="184.1" r="3" fill="#9C27B0"/><circle cx="326.0" cy="194.7" r="3" fill="#9C27B0"/><circle cx="340.0" cy="171.9" r="3" fill="#9C27B0"/><circle cx="354.0" cy="200.2" r="3" fill="#9C27B0"/><circle cx="368.0" cy="202.6" r="3" fill="#9C27B0"/><circle cx="382.0" cy="192.6" r="3" fill="#9C27B0"/><circle cx="396.0" cy="190.9" r="3" fill="#9C27B0"/><circle cx="410.0" cy="193.9" r="3" fill="#9C27B0"/><circle cx="424.0" cy="195.4" r="3" fill="#9C27B0"/><circle cx="438.0" cy="193.3" r="3" fill="#9C27B0"/><circle cx="452.0" cy="200.6" r="3" fill="#9C27B0"/><circle cx="466.0" cy="196.9" r="3" fill="#9C27B0"/><circle cx="480.0" cy="193.7" r="3" fill="#9C27B0"/><rect x="490" y="116" width="10" height="10" fill="#9C27B0"/><text x="504" y="125" font-family="system-ui, -apple-system, sans-serif" font-size="10" fill="#333">llama</text><polyline fill="none" stroke="#00BCD4" stroke-width="2" points="172.0,239.2 186.0,239.3 200.0,239.8 214.0,238.8 228.0,239.0 242.0,234.2 256.0,240.0 270.0,237.9 284.0,237.9 298.0,237.6 312.0,238.9 326.0,237.9 340.0,235.2 354.0,238.1 368.0,235.5 382.0,240.0 396.0,238.2 410.0,235.2 424.0,232.9 438.0,238.2 452.0,237.3 466.0,239.5 480.0,236.5"/><circle cx="172.0" cy="239.2" r="3" fill="#00BCD4"/><circle cx="186.0" cy="239.3" r="3" fill="#00BCD4"/><circle cx="200.0" cy="239.8" r="3" fill="#00BCD4"/><circle cx="214.0" cy="238.8" r="3" fill="#00BCD4"/><circle cx="228.0" cy="239.0" r="3" fill="#00BCD4"/><circle cx="242.0" cy="234.2" r="3" fill="#00BCD4"/><circle cx="256.0" cy="240.0" r="3" fill="#00BCD4"/><circle cx="270.0" cy="237.9" r="3" fill="#00BCD4"/><circle cx="284.0" cy="237.9" r="3" fill="#00BCD4"/><circle cx="298.0" cy="237.6" r="3" fill="#00BCD4"/><circle cx="312.0" cy="238.9" r="3" fill="#00BCD4"/><circle cx="326.0" cy="237.9" r="3" fill="#00BCD4"/><circle cx="340.0" cy="235.2" r="3" fill="#00BCD4"/><circle cx="354.0" cy="238.1" r="3" fill="#00BCD4"/><circle cx="368.0" cy="235.5" r="3" fill="#00BCD4"/><circle cx="382.0" cy="240.0" r="3" fill="#00BCD4"/><circle cx="396.0" cy="238.2" r="3" fill="#00BCD4"/><circle cx="410.0" cy="235.2" r="3" fill="#00BCD4"/><circle cx="424.0" cy="232.9" r="3" fill="#00BCD4"/><circle cx="438.0" cy="238.2" r="3" fill="#00BCD4"/><circle cx="452.0" cy="237.3" r="3" fill="#00BCD4"/><circle cx="466.0" cy="239.5" r="3" fill="#00BCD4"/><circle cx="480.0" cy="236.5" r="3" fill="#00BCD4"/><rect x="490" y="134" width="10" height="10" fill="#00BCD4"/><text x="504" y="143" font-family="system-ui, -apple-system, sans-serif" font-size="10" fill="#333">deepseek</text><text x="60.0" y="256.0" text-anchor="middle" font-family="system-ui, -apple-system, sans-serif" font-size="9" fill="#666">71825113</text><text x="102.0" y="256.0" text-anchor="middle" font-family="system-ui, -apple-system, sans-serif" font-size="9" fill="#666">97386462</text><text x="144.0" y="256.0" text-anchor="middle" font-family="system-ui, -apple-system, sans-serif" font-size="9" fill="#666">31919473</text><text x="186.0" y="256.0" text-anchor="middle" font-family="system-ui, -apple-system, sans-serif" font-size="9" fill="#666">51938981</text><text x="228.0" y="256.0" text-anchor="middle" font-family="system-ui, -apple-system, sans-serif" font-size="9" fill="#666">73723278</text><text x="270.0" y="256.0" text-anchor="middle" font-family="system-ui, -apple-system, sans-serif" font-size="9" fill="#666">75757458</text><text x="312.0" y="256.0" text-anchor="middle" font-family="system-ui, -apple-system, sans-serif" font-size="9" fill="#666">39719442</text><text x="354.0" y="256.0" text-anchor="middle" font-family="system-ui, -apple-system, sans-serif" font-size="9" fill="#666">04094958</text><text x="396.0" y="256.0" text-anchor="middle" font-family="system-ui, -apple-system, sans-serif" font-size="9" fill="#666">34092480</text><text x="438.0" y="256.0" text-anchor="middle" font-family="system-ui, -apple-system, sans-serif" font-size="9" fill="#666">68748512</text><text x="480.0" y="256.0" text-anchor="middle" font-family="system-ui, -apple-system, sans-serif" font-size="9" fill="#666">00682223</text></svg>
