<svg xmlns="http://www.w3.org/2000/svg" viewBox="0 0 600 300" width="600" height="300" role="img" aria-label="Cost per test by provider over runs ($)"><text x="300.0" y="24" text-anchor="middle" font-family="system-ui, -apple-system, sans-serif" font-size="14" font-weight="600" fill="#333">Cost per test by provider over runs ($)</text><line x1="60" y1="240.0" x2="480" y2="240.0" stroke="#eee" stroke-width="1"/><text x="54" y="244.0" text-anchor="end" font-family="system-ui, -apple-system, sans-serif" font-size="9" fill="#999">0.007197</text><line x1="60" y1="140.0" x2="480" y2="140.0" stroke="#eee" stroke-width="1"/><text x="54" y="144.0" text-anchor="end" font-family="system-ui, -apple-system, sans-serif" font-size="9" fill="#999">0.06855</text><line x1="60" y1="40.0" x2="480" y2="40.0" stroke="#eee" stroke-width="1"/><text x="54" y="44.0" text-anchor="end" font-family="system-ui, -apple-system, sans-serif" font-size="9" fill="#999">0.1299</text><polyline fill="none" stroke="#4CAF50" stroke-width="2" points="60.0,120.7 80.0,121.4 100.0,77.8 120.0,123.5 140.0,117.2 160.0,119.6 180.0,119.6 200.0,116.1 220.0,119.2 240.0,118.8 260.0,45.7 280.0,113.9 300.0,118.8 320.0,119.2 340.0,112.5 360.0,62.5 380.0,111.2 400.0,119.3 420.0,86.7 440.0,114.3 460.0,112.4 480.0,119.7"/><circle cx="60.0" cy="120.7" r="3" fill="#4CAF50"/><circle cx="80.0" cy="121.4" r="3" fill="#4CAF50"/><circle cx="100.0" cy="77.8" r="3" fill="#4CAF50"/><circle cx="120.0" cy="123.5" r="3" fill="#4CAF50"/><circle cx="140.0" cy="117.2" r="3" fill="#4CAF50"/><circle cx="160.0" cy="119.6" r="3" fill="#4CAF50"/><circle cx="180.0" cy="119.6" r="3" fill="#4CAF50"/><circle cx="200.0" cy="116.1" r="3" fill="#4CAF50"/><circle cx="220.0" cy="119.2" r="3" fill="#4CAF50"/><circle cx="240.0" cy="118.8" r="3" fill="#4CAF50"/><circle cx="260.0" cy="45.7" r="3" fill="#4CAF50"/><circle cx="280.0" cy="113.9" r="3" fill="#4CAF50"/><circle cx="300.0" cy="118.8" r="3" fill="#4CAF50"/><circle cx="320.0" cy="119.2" r="3" fill="#4CAF50"/><circle cx="340.0" cy="112.5" r="3" fill="#4CAF50"/><circle cx="360.0" cy="62.5" r="3" fill="#4CAF50"/><circle cx="380.0" cy="111.2" r="3" fill="#4CAF50"/><circle cx="400.0" cy="119.3" r="3" fill="#4CAF50"/><circle cx="420.0" cy="86.7" r="3" fill="#4CAF50"/><circle cx="440.0" cy="114.3" r="3" fill="#4CAF50"/><circle cx="460.0" cy="112.4" r="3" fill="#4CAF50"/><circle cx="480.0" cy="119.7" r="3" fill="#4CAF50"/><rect x="490" y="44" width="10" height="10" fill="#4CAF50"/><text x="504" y="53" font-family="system-ui, -apple-system, sans-serif" font-size="10" fill="#333">openai</text><polyline fill="none" stroke="#2196F3" stroke-width="2" points="60.0,122.8 80.0,130.0 100.0,122.3 120.0,125.6 140.0,132.9 160.0,118.1 180.0,125.4 200.0,120.4 220.0,120.4 240.0,119.4 260.0,121.8 280.0,134.7 300.0,133.4 320.0,126.9 340.0,121.0 360.0,121.3 380.0,90.2 400.0,121.1 420.0,87.9 440.0,97.6 460.0,113.2 480.0,107.2"/><circle cx="60.0" cy="122.8" r="3" fill="#2196F3"/><circle cx="80.0" cy="130.0" r="3" fill="#2196F3"/><circle cx="100.0" cy="122.3" r="3" fill="#2196F3"/><circle cx="120.0" cy="125.6" r="3" fill="#2196F3"/><circle cx="140.0" cy="132.9" r="3" fill="#2196F3"/><circle cx="160.0" cy="118.1" r="3" fill="#2196F3"/><circle cx="180.0" cy="125.4" r="3" fill="#2196F3"/><circle cx="200.0" cy="120.4" r="3" fill="#2196F3"/><circle cx="220.0" cy="120.4" r="3" fill="#2196F3"/><circle cx="240.0" cy="119.4" r="3" fill="#2196F3"/><circle cx="260.0" cy="121.8" r="3" fill="#2196F3"/><circle cx="280.0" cy="134.7" r="3" fill="#2196F3"/><circle cx="300.0" cy="133.4" r="3" fill="#2196F3"/><circle cx="320.0" cy="126.9" r="3" fill="#2196F3"/><circle cx="340.0" cy="121.0" r="3" fill="#2196F3"/><circle cx="360.0" cy="121.3" r="3" fill="#2196F3"/><circle cx="380.0" cy="90.2" r="3" fill="#2196F3"/><circle cx="400.0" cy="121.1" r="3" fill="#2196F3"/><circle cx="420.0" cy="87.9" r="3" fill="#2196F3"/><circle cx="440.0" cy="97.6" r="3" fill="#2196F3"/><circle cx="460.0" cy="113.2" r="3" fill="#2196F3"/><circle cx="480.0" cy="107.2" r="3" fill="#2196F3"/><rect x="490" y="62" width="10" height="10" fill="#2196F3"/><text x="504" y="71" font-family="system-ui, -apple-system, sans-serif" font-size="10" fill="#333">gemini</text><polyline fill="none" stroke="#FF9800" stroke-width="2" points="60.0,72.6 80.0,95.7 100.0,100.7 120.0,67.0 140.0,94.9 160.0,46.5 180.0,88.5 200.0,72.3 220.0,81.2 240.0,92.7 260.0,101.3 280.0,87.3 300.0,78.7 320.0,117.6 340.0,98.1 360.0,95.4 380.0,82.5 420.0,84.8 440.0,99.7 460.0,68.3 480.0,103.8"/><circle cx="60.0" cy="72.6" r="3" fill="#FF9800"/><circle cx="80.0" cy="95.7" r="3" fill="#FF9800"/><circle cx="100.0" cy="100.7" r="3" fill="#FF9800"/><circle cx="120.0" cy="67.0" r="3" fill="#FF9800"/><circle cx="140.0" cy="94.9" r="3" fill="#FF9800"/><circle cx="160.0" cy="46.5" r="3" fill="#FF9800"/><circle cx="180.0" cy="88.5" r="3" fill="#FF9800"/><circle cx="200.0" cy="72.3" r="3" fill="#FF9800"/><circle cx="220.0" cy="81.2" r="3" fill="#FF9800"/><circle cx="240.0" cy="92.7" r="3" fill="#FF9800"/><circle cx="260.0" cy="101.3" r="3" fill="#FF9800"/><circle cx="280.0" cy="87.3" r="3" fill="#FF9800"/><circle cx="300.0" cy="78.7" r="3" fill="#FF9800"/><circle cx="320.0" cy="117.6" r="3" fill="#FF9800"/><circle cx="340.0" cy="98.1" r="3" fill="#FF9800"/><circle cx="360.0" cy="95.4" r="3" fill="#FF9800"/><circle cx="380.0" cy="82.5" r="3" fill="#FF9800"/><circle cx="420.0" cy="84.8" r="3" fill="#FF9800"/><circle cx="440.0" cy="99.7" r="3" fill="#FF9800"/><circle cx="460.0" cy="68.3" r="3" fill="#FF9800"/><circle cx="480.0" cy="103.8" r="3" fill="#FF9800"/><rect x="490" y="80" width="10" height="10" fill="#FF9800"/><text x="504" y="89" font-family="system-ui, -apple-system, sans-serif" font-size="10" fill="#333">anthropic</text><polyline fill="none" stroke="#E91E63" stroke-width="2" points="60.0,121.4 80.0,111.6 100.0,40.0 120.0,129.1 140.0,124.1 160.0,127.3 180.0,115.5 200.0,115.1 220.0,111.3 240.0,118.9 260.0,111.3 280.0,112.2 300.0,114.3 320.0,121.8 340.0,106.2 360.0,120.2 380.0,113.6 400.0,118.2 420.0,130.7 440.0,121.5 460.0,126.9 480.0,123.3"/><circle cx="60.0" cy="121.4" r="3" fill="#E91E63"/><circle cx="80.0" cy="111.6" r="3" fill="#E91E63"/><circle cx="100.0" cy="40.0" r="3" fill="#E91E63"/><circle cx="120.0" cy="129.1" r="3" fill="#E91E63"/><circle cx="140.0" cy="124.1" r="3" fill="#E91E63"/><circle cx="160.0" cy="127.3" r="3" fill="#E91E63"/><circle cx="180.0" cy="115.5" r="3" fill="#E91E63"/><circle cx="200.0" cy="115.1" r="3" fill="#E91E63"/><circle cx="220.0" cy="111.3" r="3" fill="#E91E63"/><circle cx="240.0" cy="118.9" r="3" fill="#E91E63"/><circle cx="260.0" cy="111.3" r="3" fill="#E91E63"/><circle cx="280.0" cy="112.2" r="3" fill="#E91E63"/><circle cx="300.0" cy="114.3" r="3" fill="#E91E63"/><circle cx="320.0" cy="121.8" r="3" fill="#E91E63"/><circle cx="340.0" cy="106.2" r="3" fill="#E91E63"/><circle cx="360.0" cy="120.2" r="3" fill="#E91E63"/><circle cx="380.0" cy="113.6" r="3" fill="#E91E63"/><circle cx="400.0" cy="118.2" r="3" fill="#E91E63"/><circle cx="420.0" cy="130.7" r="3" fill="#E91E63"/><circle cx="440.0" cy="121.5" r="3" fill="#E91E63"/><circle cx="460.0" cy="126.9" r="3" fill="#E91E63"/><circle cx="480.0" cy="123.3" r="3" fill="#E91E63"/><rect x="490" y="98" width="10" height="10" fill="#E91E63"/><text x="504" y="107" font-family="system-ui, -apple-system, sans-serif" font-size="10" fill="#333">mistral</text><polyline fill="none" stroke="#9C27B0" stroke-width="2" points="60.0,179.5 80.0,190.0 100.0,193.5 120.0,176.9 140.0,184.4 160.0,194.7 180.0,190.0 200.0,183.0 220.0,186.4 240.0,193.0 260.0,186.3 280.0,183.7 300.0,188.2 320.0,171.2 340.0,189.5 360.0,183.5 380.0,192.4 400.0,192.9 420.0,172.2 440.0,184.9 460.0,157.3 480.0,191.7"/><circle cx="60.0" cy="179.5" r="3" fill="#9C27B0"/><circle cx="80.0" cy="190.0" r="3" fill="#9C27B0"/><circle cx="100.0" cy="193.5" r="3" fill="#9C27B0"/><circle cx="120.0" cy="176.9" r="3" fill="#9C27B0"/><circle cx="140.0" cy="184.4" r="3" fill="#9C27B0"/><circle cx="160.0" cy="194.7" r="3" fill="#9C27B0"/><circle cx="180.0" cy="190.0" r="3" fill="#9C27B0"/><circle cx="200.0" cy="183.0" r="3" fill="#9C27B0"/><circle cx="220.0" cy="186.4" r="3" fill="#9C27B0"/><circle cx="240.0" cy="193.0" r="3" fill="#9C27B0"/><circle cx="260.0" cy="186.3" r="3" fill="#9C27B0"/><circle cx="280.0" cy="183.7" r="3" fill="#9C27B0"/><circle cx="300.0" cy="188.2" r="3" fill="#9C27B0"/><circle cx="320.0" cy="171.2" r="3" fill="#9C27B0"/><circle cx="340.0" cy="189.5" r="3" fill="#9C27B0"/><circle cx="360.0" cy="183.5" r="3" fill="#9C27B0"/><circle cx="380.0" cy="192.4" r="3" fill="#9C27B0"/><circle cx="400.0" cy="192.9" r="3" fill="#9C27B0"/><circle cx="420.0" cy="172.2" r="3" fill="#9C27B0"/><circle cx="440.0" cy="184.9" r="3" fill="#9C27B0"/><circle cx="460.0" cy="157.3" r="3" fill="#9C27B0"/><circle cx="480.0" cy="191.7" r="3" fill="#9C27B0"/><rect x="490" y="116" width="10" height="10" fill="#9C27B0"/><text x="504" y="125" font-family="system-ui, -apple-system, sans-serif" font-size="10" fill="#333">llama</text><polyline fill="none" stroke="#00BCD4" stroke-width="2" points="220.0,239.0 240.0,239.1 260.0,239.8 280.0,238.6 300.0,238.8 320.0,233.0 340.0,240.0 360.0,237.4 380.0,237.5 400.0,237.0 420.0,238.7 440.0,237.5 460.0,234.2 480.0,237.7"/><circle cx="220.0" cy="239.0" r="3" fill="#00BCD4"/><circle cx="240.0" cy="239.1" r="3" fill="#00BCD4"/><circle cx="260.0" cy="239.8" r="3" fill="#00BCD4"/><circle cx="280.0" cy="238.6" r="3" fill="#00BCD4"/><circle cx="300.0" cy="238.8" r="3" fill="#00BCD4"/><circle cx="320.0" cy="233.0" r="3" fill="#00BCD4"/><circle cx="340.0" cy="240.0" r="3" fill="#00BCD4"/><circle cx="360.0" cy="237.4" r="3" fill="#00BCD4"/><circle cx="380.0" cy="237.5" r="3" fill="#00BCD4"/><circle cx="400.0" cy="237.0" r="3" fill="#00BCD4"/><circle cx="420.0" cy="238.7" r="3" fill="#00BCD4"/><circle cx="440.0" cy="237.5" r="3" fill="#00BCD4"/><circle cx="460.0" cy="234.2" r="3" fill="#00BCD4"/><circle cx="480.0" cy="237.7" r="3" fill="#00BCD4"/><rect x="490" y="134" width="10" height="10" fill="#00BCD4"/><text x="504" y="143" font-family="system-ui, -apple-system, sans-serif" font-size="10" fill="#333">deepseek</text><text x="60.0" y="256.0" text-anchor="middle" font-family="system-ui, -apple-system, sans-serif" font-size="9" fill="#666">71825113</text><text x="100.0" y="256.0" text-anchor="middle" font-family="system-ui, -apple-system, sans-serif" font-size="9" fill="#666">76301827</text><text x="140.0" y="256.0" text-anchor="middle" font-family="system-ui, -apple-system, sans-serif" font-size="9" fill="#666">00118301</text><text x="180.0" y="256.0" text-anchor="middle" font-family="system-ui, -apple-system, sans-serif" font-size="9" fill="#666">31919473</text><text x="220.0" y="256.0" text-anchor="middle" font-family="system-ui, -apple-system, sans-serif" font-size="9" fill="#666">49559976</text><text x="260.0" y="256.0" text-anchor="middle" font-family="system-ui, -apple-system, sans-serif" font-size="9" fill="#666">53749546</text><text x="300.0" y="256.0" text-anchor="middle" font-family="system-ui, -apple-system, sans-serif" font-size="9" fill="#666">73723278</text><text x="340.0" y="256.0" text-anchor="middle" font-family="system-ui, -apple-system, sans-serif" font-size="9" fill="#666">75063969</text><text x="380.0" y="256.0" text-anchor="middle" font-family="system-ui, -apple-system, sans-serif" font-size="9" fill="#666">76005435</text><text x="420.0" y="256.0" text-anchor="middle" font-family="system-ui, -apple-system, sans-serif" font-size="9" fill="#666">39719442</text><text x="460.0" y="256.0" text-anchor="middle" font-family="system-ui, -apple-system, sans-serif" font-size="9" fill="#666">41747041</text></svg>
