<svg xmlns="http://www.w3.org/2000/svg" viewBox="0 0 600 300" width="600" height="300" role="img" aria-label="Cost per test by provider over runs ($)"><text x="300.0" y="24" text-anchor="middle" font-family="system-ui, -apple-system, sans-serif" font-size="14" font-weight="600" fill="#333">Cost per test by provider over runs ($)</text><line x1="60" y1="240.0" x2="480" y2="240.0" stroke="#eee" stroke-width="1"/><text x="54" y="244.0" text-anchor="end" font-family="system-ui, -apple-system, sans-serif" font-size="9" fill="#999">0.007197</text><line x1="60" y1="140.0" x2="480" y2="140.0" stroke="#eee" stroke-width="1"/><text x="54" y="144.0" text-anchor="end" font-family="system-ui, -apple-system, sans-serif" font-size="9" fill="#999">0.06855</text><line x1="60" y1="40.0" x2="480" y2="40.0" stroke="#eee" stroke-width="1"/><text x="54" y="44.0" text-anchor="end" font-family="system-ui, -apple-system, sans-serif" font-size="9" fill="#999">0.1299</text><polyline fill="none" stroke="#4CAF50" stroke-width="2" points="60.0,120.7 82.1,121.4 104.2,77.8 126.3,123.5 148.4,117.2 170.5,119.6 192.6,119.6 214.7,116.1 236.8,119.2 258.9,118.8 281.1,45.7 303.2,113.9 325.3,118.8 347.4,119.2 369.5,112.5 391.6,62.5 413.7,111.2 435.8,119.3 457.9,86.7 480.0,114.3"/><circle cx="60.0" cy="120.7" r="3" fill="#4CAF50"/><circle cx="82.1" cy="121.4" r="3" fill="#4CAF50"/><circle cx="104.2" cy="77.8" r="3" fill="#4CAF50"/><circle cx="126.3" cy="123.5" r="3" fill="#4CAF50"/><circle cx="148.4" cy="117.2" r="3" fill="#4CAF50"/><circle cx="170.5" cy="119.6" r="3" fill="#4CAF50"/><circle cx="192.6" cy="119.6" r="3" fill="#4CAF50"/><circle cx="214.7" cy="116.1" r="3" fill="#4CAF50"/><circle cx="236.8" cy="119.2" r="3" fill="#4CAF50"/><circle cx="258.9" cy="118.8" r="3" fill="#4CAF50"/><circle cx="281.1" cy="45.7" r="3" fill="#4CAF50"/><circle cx="303.2" cy="113.9" r="3" fill="#4CAF50"/><circle cx="325.3" cy="118.8" r="3" fill="#4CAF50"/><circle cx="347.4" cy="119.2" r="3" fill="#4CAF50"/><circle cx="369.5" cy="112.5" r="3" fill="#4CAF50"/><circle cx="391.6" cy="62.5" r="3" fill="#4CAF50"/><circle cx="413.7" cy="111.2" r="3" fill="#4CAF50"/><circle cx="435.8" cy="119.3" r="3" fill="#4CAF50"/><circle cx="457.9" cy="86.7" r="3" fill="#4CAF50"/><circle cx="480.0" cy="114.3" r="3" fill="#4CAF50"/><rect x="490" y="44" width="10" height="10" fill="#4CAF50"/><text x="504" y="53" font-family="system-ui, -apple-system, sans-serif" font-size="10" fill="#333">openai</text><polyline fill="none" stroke="#2196F3" stroke-width="2" points="60.0,122.8 82.1,130.0 104.2,122.3 126.3,125.6 148.4,132.9 170.5,118.1 192.6,125.4 214.7,120.4 236.8,120.4 258.9,119.4 281.1,121.8 303.2,134.7 325.3,133.4 347.4,126.9 369.5,121.0 391.6,121.3 413.7,90.2 435.8,121.1 457.9,87.9 480.0,97.6"/><circle cx="60.0" cy="122.8" r="3" fill="#2196F3"/><circle cx="82.1" cy="130.0" r="3" fill="#2196F3"/><circle cx="104.2" cy="122.3" r="3" fill="#2196F3"/><circle cx="126.3" cy="125.6" r="3" fill="#2196F3"/><circle cx="148.4" cy="132.9" r="3" fill="#2196F3"/><circle cx="170.5" cy="118.1" r="3" fill="#2196F3"/><circle cx="192.6" cy="125.4" r="3" fill="#2196F3"/><circle cx="214.7" cy="120.4" r="3" fill="#2196F3"/><circle cx="236.8" cy="120.4" r="3" fill="#2196F3"/><circle cx="258.9" cy="119.4" r="3" fill="#2196F3"/><circle cx="281.1" cy="121.8" r="3" fill="#2196F3"/><circle cx="303.2" cy="134.7" r="3" fill="#2196F3"/><circle cx="325.3" cy="133.4" r="3" fill="#2196F3"/><circle cx="347.4" cy="126.9" r="3" fill="#2196F3"/><circle cx="369.5" cy="121.0" r="3" fill="#2196F3"/><circle cx="391.6" cy="121.3" r="3" fill="#2196F3"/><circle cx="413.7" cy="90.2" r="3" fill="#2196F3"/><circle cx="435.8" cy="121.1" r="3" fill="#2196F3"/><circle cx="457.9" cy="87.9" r="3" fill="#2196F3"/><circle cx="480.0" cy="97.6" r="3" fill="#2196F3"/><rect x="490" y="62" width="10" height="10" fill="#2196F3"/><text x="504" y="71" font-family="system-ui, -apple-system, sans-serif" font-size="10" fill="#333">gemini</text><polyline fill="none" stroke="#FF9800" stroke-width="2" points="60.0,72.6 82.1,95.7 104.2,100.7 126.3,67.0 148.4,94.9 170.5,46.5 192.6,88.5 214.7,72.3 236.8,81.2 258.9,92.7 281.1,101.3 303.2,87.3 325.3,78.7 347.4,117.6 369.5,98.1 391.6,95.4 413.7,82.5 457.9,84.8 480.0,99.7"/><circle cx="60.0" cy="72.6" r="3" fill="#FF9800"/><circle cx="82.1" cy="95.7" r="3" fill="#FF9800"/><circle cx="104.2" cy="100.7" r="3" fill="#FF9800"/><circle cx="126.3" cy="67.0" r="3" fill="#FF9800"/><circle cx="148.4" cy="94.9" r="3" fill="#FF9800"/><circle cx="170.5" cy="46.5" r="3" fill="#FF9800"/><circle cx="192.6" cy="88.5" r="3" fill="#FF9800"/><circle cx="214.7" cy="72.3" r="3" fill="#FF9800"/><circle cx="236.8" cy="81.2" r="3" fill="#FF9800"/><circle cx="258.9" cy="92.7" r="3" fill="#FF9800"/><circle cx="281.1" cy="101.3" r="3" fill="#FF9800"/><circle cx="303.2" cy="87.3" r="3" fill="#FF9800"/><circle cx="325.3" cy="78.7" r="3" fill="#FF9800"/><circle cx="347.4" cy="117.6" r="3" fill="#FF9800"/><circle cx="369.5" cy="98.1" r="3" fill="#FF9800"/><circle cx="391.6" cy="95.4" r="3" fill="#FF9800"/><circle cx="413.7" cy="82.5" r="3" fill="#FF9800"/><circle cx="457.9" cy="84.8" r="3" fill="#FF9800"/><circle cx="480.0" cy="99.7" r="3" fill="#FF9800"/><rect x="490" y="80" width="10" height="10" fill="#FF9800"/><text x="504" y="89" font-family="system-ui, -apple-system, sans-serif" font-size="10" fill="#333">anthropic</text><polyline fill="none" stroke="#E91E63" stroke-width="2" points="60.0,121.4 82.1,111.6 104.2,40.0 126.3,129.1 148.4,124.1 170.5,127.3 192.6,115.5 214.7,115.1 236.8,111.3 258.9,118.9 281.1,111.3 303.2,112.2 325.3,114.3 347.4,121.8 369.5,106.2 391.6,120.2 413.7,113.6 435.8,118.2 457.9,130.7 480.0,121.5"/><circle cx="60.0" cy="121.4" r="3" fill="#E91E63"/><circle cx="82.1" cy="111.6" r="3" fill="#E91E63"/><circle cx="104.2" cy="40.0" r="3" fill="#E91E63"/><circle cx="126.3" cy="129.1" r="3" fill="#E91E63"/><circle cx="148.4" cy="124.1" r="3" fill="#E91E63"/><circle cx="170.5" cy="127.3" r="3" fill="#E91E63"/><circle cx="192.6" cy="115.5" r="3" fill="#E91E63"/><circle cx="214.7" cy="115.1" r="3" fill="#E91E63"/><circle cx="236.8" cy="111.3" r="3" fill="#E91E63"/><circle cx="258.9" cy="118.9" r="3" fill="#E91E63"/><circle cx="281.1" cy="111.3" r="3" fill="#E91E63"/><circle cx="303.2" cy="112.2" r="3" fill="#E91E63"/><circle cx="325.3" cy="114.3" r="3" fill="#E91E63"/><circle cx="347.4" cy="121.8" r="3" fill="#E91E63"/><circle cx="369.5" cy="106.2" r="3" fill="#E91E63"/><circle cx="391.6" cy="120.2" r="3" fill="#E91E63"/><circle cx="413.7" cy="113.6" r="3" fill="#E91E63"/><circle cx="435.8" cy="118.2" r="3" fill="#E91E63"/><circle cx="457.9" cy="130.7" r="3" fill="#E91E63"/><circle cx="480.0" cy="121.5" r="3" fill="#E91E63"/><rect x="490" y="98" width="10" height="10" fill="#E91E63"/><text x="504" y="107" font-family="system-ui, -apple-system, sans-serif" font-size="10" fill="#333">mistral</text><polyline fill="none" stroke="#9C27B0" stroke-width="2" points="60.0,179.5 82.1,190.0 104.2,193.5 126.3,176.9 148.4,184.4 170.5,194.7 192.6,190.0 214.7,183.0 236.8,186.4 258.9,193.0 281.1,186.3 303.2,183.7 325.3,188.2 347.4,171.2 369.5,189.5 391.6,183.5 413.7,192.4 435.8,192.9 457.9,172.2 480.0,184.9"/><circle cx="60.0" cy="179.5" r="3" fill="#9C27B0"/><circle cx="82.1" cy="190.0" r="3" fill="#9C27B0"/><circle cx="104.2" cy="193.5" r="3" fill="#9C27B0"/><circle cx="126.3" cy="176.9" r="3" fill="#9C27B0"/><circle cx="148.4" cy="184.4" r="3" fill="#9C27B0"/><circle cx="170.5" cy="194.7" r="3" fill="#9C27B0"/><circle cx="192.6" cy="190.0" r="3" fill="#9C27B0"/><circle cx="214.7" cy="183.0" r="3" fill="#9C27B0"/><circle cx="236.8" cy="186.4" r="3" fill="#9C27B0"/><circle cx="258.9" cy="193.0" r="3" fill="#9C27B0"/><circle cx="281.1" cy="186.3" r="3" fill="#9C27B0"/><circle cx="303.2" cy="183.7" r="3" fill="#9C27B0"/><circle cx="325.3" cy="188.2" r="3" fill="#9C27B0"/><circle cx="347.4" cy="171.2" r="3" fill="#9C27B0"/><circle cx="369.5" cy="189.5" r="3" fill="#9C27B0"/><circle cx="391.6" cy="183.5" r="3" fill="#9C27B0"/><circle cx="413.7" cy="192.4" r="3" fill="#9C27B0"/><circle cx="435.8" cy="192.9" r="3" fill="#9C27B0"/><circle cx="457.9" cy="172.2" r="3" fill="#9C27B0"/><circle cx="480.0" cy="184.9" r="3" fill="#9C27B0"/><rect x="490" y="116" width="10" height="10" fill="#9C27B0"/><text x="504" y="125" font-family="system-ui, -apple-system, sans-serif" font-size="10" fill="#333">llama</text><polyline fill="none" stroke="#00BCD4" stroke-width="2" points="236.8,239.0 258.9,239.1 281.1,239.8 303.2,238.6 325.3,238.8 347.4,233.0 369.5,240.0 391.6,237.4 413.7,237.5 435.8,237.0 457.9,238.7 480.0,237.5"/><circle cx="236.8" cy="239.0" r="3" fill="#00BCD4"/><circle cx="258.9" cy="239.1" r="3" fill="#00BCD4"/><circle cx="281.1" cy="239.8" r="3" fill="#00BCD4"/><circle cx="303.2" cy="238.6" r="3" fill="#00BCD4"/><circle cx="325.3" cy="238.8" r="3" fill="#00BCD4"/><circle cx="347.4" cy="233.0" r="3" fill="#00BCD4"/><circle cx="369.5" cy="240.0" r="3" fill="#00BCD4"/><circle cx="391.6" cy="237.4" r="3" fill="#00BCD4"/><circle cx="413.7" cy="237.5" r="3" fill="#00BCD4"/><circle cx="435.8" cy="237.0" r="3" fill="#00BCD4"/><circle cx="457.9" cy="238.7" r="3" fill="#00BCD4"/><circle cx="480.0" cy="237.5" r="3" fill="#00BCD4"/><rect x="490" y="134" width="10" height="10" fill="#00BCD4"/><text x="504" y="143" font-family="system-ui, -apple-system, sans-serif" font-size="10" fill="#333">deepseek</text><text x="60.0" y="256.0" text-anchor="middle" font-family="system-ui, -apple-system, sans-serif" font-size="9" fill="#666">71825113</text><text x="104.2" y="256.0" text-anchor="middle" font-family="system-ui, -apple-system, sans-serif" font-size="9" fill="#666">76301827</text><text x="148.4" y="256.0" text-anchor="middle" font-family="system-ui, -apple-system, sans-serif" font-size="9" fill="#666">00118301</text><text x="192.6" y="256.0" text-anchor="middle" font-family="system-ui, -apple-system, sans-serif" font-size="9" fill="#666">31919473</text><text x="236.8" y="256.0" text-anchor="middle" font-family="system-ui, -apple-system, sans-serif" font-size="9" fill="#666">49559976</text><text x="281.1" y="256.0" text-anchor="middle" font-family="system-ui, -apple-system, sans-serif" font-size="9" fill="#666">53749546</text><text x="325.3" y="256.0" text-anchor="middle" font-family="system-ui, -apple-system, sans-serif" font-size="9" fill="#666">73723278</text><text x="369.5" y="256.0" text-anchor="middle" font-family="system-ui, -apple-system, sans-serif" font-size="9" fill="#666">75063969</text><text x="413.7" y="256.0" text-anchor="middle" font-family="system-ui, -apple-system, sans-serif" font-size="9" fill="#666">76005435</text><text x="457.9" y="256.0" text-anchor="middle" font-family="system-ui, -apple-system, sans-serif" font-size="9" fill="#666">39719442</text></svg>
