<svg xmlns="http://www.w3.org/2000/svg" viewBox="0 0 760 348" width="760" height="348" role="img" aria-label="Cost per test by provider over runs — mistral highest, deepseek lowest" font-family="-apple-system,BlinkMacSystemFont,'Segoe UI',system-ui,sans-serif"><line x1="56" y1="306" x2="642" y2="306" stroke="#d8dee4" stroke-width="1"></line><text x="46" y="310" font-size="9.5" font-weight="400" text-anchor="end" fill="#656d76" font-family="ui-monospace,SFMono-Regular,Menlo,monospace">$0.000</text><line x1="56" y1="235" x2="642" y2="235" stroke="#d8dee4" stroke-width="1"></line><text x="46" y="239" font-size="9.5" font-weight="400" text-anchor="end" fill="#656d76" font-family="ui-monospace,SFMono-Regular,Menlo,monospace">$0.039</text><line x1="56" y1="164" x2="642" y2="164" stroke="#d8dee4" stroke-width="1"></line><text x="46" y="168" font-size="9.5" font-weight="400" text-anchor="end" fill="#656d76" font-family="ui-monospace,SFMono-Regular,Menlo,monospace">$0.079</text><line x1="56" y1="93" x2="642" y2="93" stroke="#d8dee4" stroke-width="1"></line><text x="46" y="97" font-size="9.5" font-weight="400" text-anchor="end" fill="#656d76" font-family="ui-monospace,SFMono-Regular,Menlo,monospace">$0.118</text><line x1="56" y1="22" x2="642" y2="22" stroke="#d8dee4" stroke-width="1"></line><text x="46" y="26" font-size="9.5" font-weight="400" text-anchor="end" fill="#656d76" font-family="ui-monospace,SFMono-Regular,Menlo,monospace">$0.158</text><text x="56" y="324" font-size="9.5" font-weight="400" text-anchor="middle" fill="#656d76" font-family="ui-monospace,SFMono-Regular,Menlo,monospace">06/06</text><text x="106.96" y="324" font-size="9.5" font-weight="400" text-anchor="middle" fill="#656d76" font-family="ui-monospace,SFMono-Regular,Menlo,monospace">06/08</text><text x="157.91" y="324" font-size="9.5" font-weight="400" text-anchor="middle" fill="#656d76" font-family="ui-monospace,SFMono-Regular,Menlo,monospace">06/08</text><text x="208.87" y="324" font-size="9.5" font-weight="400" text-anchor="middle" fill="#656d76" font-family="ui-monospace,SFMono-Regular,Menlo,monospace">06/09</text><text x="259.83" y="324" font-size="9.5" font-weight="400" text-anchor="middle" fill="#656d76" font-family="ui-monospace,SFMono-Regular,Menlo,monospace">06/12</text><text x="310.78" y="324" font-size="9.5" font-weight="400" text-anchor="middle" fill="#656d76" font-family="ui-monospace,SFMono-Regular,Menlo,monospace">06/14</text><text x="361.74" y="324" font-size="9.5" font-weight="400" text-anchor="middle" fill="#656d76" font-family="ui-monospace,SFMono-Regular,Menlo,monospace">06/15</text><text x="412.7" y="324" font-size="9.5" font-weight="400" text-anchor="middle" fill="#656d76" font-family="ui-monospace,SFMono-Regular,Menlo,monospace">06/16</text><text x="463.65" y="324" font-size="9.5" font-weight="400" text-anchor="middle" fill="#656d76" font-family="ui-monospace,SFMono-Regular,Menlo,monospace">06/17</text><text x="514.61" y="324" font-size="9.5" font-weight="400" text-anchor="middle" fill="#656d76" font-family="ui-monospace,SFMono-Regular,Menlo,monospace">06/20</text><text x="565.57" y="324" font-size="9.5" font-weight="400" text-anchor="middle" fill="#656d76" font-family="ui-monospace,SFMono-Regular,Menlo,monospace">06/21</text><text x="616.52" y="324" font-size="9.5" font-weight="400" text-anchor="middle" fill="#656d76" font-family="ui-monospace,SFMono-Regular,Menlo,monospace">06/22</text><text x="642" y="324" font-size="9.5" font-weight="400" text-anchor="middle" fill="#656d76" font-family="ui-monospace,SFMono-Regular,Menlo,monospace">06/23</text><polyline fill="none" stroke="#6366F1" stroke-width="2.4" stroke-linejoin="round" stroke-linecap="round" points="123.94,291.99 132.43,292.07 140.93,292.82 149.42,291.48 157.91,291.75 166.41,285.29 174.9,293.05 183.39,290.23 191.88,290.29 200.38,289.78 208.87,291.61 217.36,290.27 225.86,286.66 234.35,290.55 242.84,286.99 251.33,293.02 259.83,290.61 268.32,286.59 276.81,283.56 285.3,290.63 293.8,289.42 302.29,292.33 310.78,288.36 319.28,284.88 327.77,291.34 336.26,290.13 344.75,291.01 353.25,289.68 370.23,289.04 378.72,291.5 387.22,291.97 395.71,289.14 404.2,289.37 412.7,290.04 421.19,290.81 429.68,291.39 438.17,292 455.16,292.33 463.65,292.51 472.14,290.75 480.64,289.5 489.13,289.4 497.62,282.59 506.12,289.91 514.61,286.79 523.1,288.79 531.59,286.98 540.09,290.22 548.58,291.94 557.07,292.7 565.57,281.08 574.06,292.31 582.55,290.28 591.04,286.5 599.54,289 608.03,289.95 616.52,291.41 625.01,290.81 633.51,291 642,290.42"></polyline><circle cx="123.94" cy="291.99" r="2.6" fill="#6366F1"></circle><circle cx="132.43" cy="292.07" r="2.6" fill="#6366F1"></circle><circle cx="140.93" cy="292.82" r="2.6" fill="#6366F1"></circle><circle cx="149.42" cy="291.48" r="2.6" fill="#6366F1"></circle><circle cx="157.91" cy="291.75" r="2.6" fill="#6366F1"></circle><circle cx="166.41" cy="285.29" r="2.6" fill="#6366F1"></circle><circle cx="174.9" cy="293.05" r="2.6" fill="#6366F1"></circle><circle cx="183.39" cy="290.23" r="2.6" fill="#6366F1"></circle><circle cx="191.88" cy="290.29" r="2.6" fill="#6366F1"></circle><circle cx="200.38" cy="289.78" r="2.6" fill="#6366F1"></circle><circle cx="208.87" cy="291.61" r="2.6" fill="#6366F1"></circle><circle cx="217.36" cy="290.27" r="2.6" fill="#6366F1"></circle><circle cx="225.86" cy="286.66" r="2.6" fill="#6366F1"></circle><circle cx="234.35" cy="290.55" r="2.6" fill="#6366F1"></circle><circle cx="242.84" cy="286.99" r="2.6" fill="#6366F1"></circle><circle cx="251.33" cy="293.02" r="2.6" fill="#6366F1"></circle><circle cx="259.83" cy="290.61" r="2.6" fill="#6366F1"></circle><circle cx="268.32" cy="286.59" r="2.6" fill="#6366F1"></circle><circle cx="276.81" cy="283.56" r="2.6" fill="#6366F1"></circle><circle cx="285.3" cy="290.63" r="2.6" fill="#6366F1"></circle><circle cx="293.8" cy="289.42" r="2.6" fill="#6366F1"></circle><circle cx="302.29" cy="292.33" r="2.6" fill="#6366F1"></circle><circle cx="310.78" cy="288.36" r="2.6" fill="#6366F1"></circle><circle cx="319.28" cy="284.88" r="2.6" fill="#6366F1"></circle><circle cx="327.77" cy="291.34" r="2.6" fill="#6366F1"></circle><circle cx="336.26" cy="290.13" r="2.6" fill="#6366F1"></circle><circle cx="344.75" cy="291.01" r="2.6" fill="#6366F1"></circle><circle cx="353.25" cy="289.68" r="2.6" fill="#6366F1"></circle><circle cx="370.23" cy="289.04" r="2.6" fill="#6366F1"></circle><circle cx="378.72" cy="291.5" r="2.6" fill="#6366F1"></circle><circle cx="387.22" cy="291.97" r="2.6" fill="#6366F1"></circle><circle cx="395.71" cy="289.14" r="2.6" fill="#6366F1"></circle><circle cx="404.2" cy="289.37" r="2.6" fill="#6366F1"></circle><circle cx="412.7" cy="290.04" r="2.6" fill="#6366F1"></circle><circle cx="421.19" cy="290.81" r="2.6" fill="#6366F1"></circle><circle cx="429.68" cy="291.39" r="2.6" fill="#6366F1"></circle><circle cx="438.17" cy="292" r="2.6" fill="#6366F1"></circle><circle cx="455.16" cy="292.33" r="2.6" fill="#6366F1"></circle><circle cx="463.65" cy="292.51" r="2.6" fill="#6366F1"></circle><circle cx="472.14" cy="290.75" r="2.6" fill="#6366F1"></circle><circle cx="480.64" cy="289.5" r="2.6" fill="#6366F1"></circle><circle cx="489.13" cy="289.4" r="2.6" fill="#6366F1"></circle><circle cx="497.62" cy="282.59" r="2.6" fill="#6366F1"></circle><circle cx="506.12" cy="289.91" r="2.6" fill="#6366F1"></circle><circle cx="514.61" cy="286.79" r="2.6" fill="#6366F1"></circle><circle cx="523.1" cy="288.79" r="2.6" fill="#6366F1"></circle><circle cx="531.59" cy="286.98" r="2.6" fill="#6366F1"></circle><circle cx="540.09" cy="290.22" r="2.6" fill="#6366F1"></circle><circle cx="548.58" cy="291.94" r="2.6" fill="#6366F1"></circle><circle cx="557.07" cy="292.7" r="2.6" fill="#6366F1"></circle><circle cx="565.57" cy="281.08" r="2.6" fill="#6366F1"></circle><circle cx="574.06" cy="292.31" r="2.6" fill="#6366F1"></circle><circle cx="582.55" cy="290.28" r="2.6" fill="#6366F1"></circle><circle cx="591.04" cy="286.5" r="2.6" fill="#6366F1"></circle><circle cx="599.54" cy="289" r="2.6" fill="#6366F1"></circle><circle cx="608.03" cy="289.95" r="2.6" fill="#6366F1"></circle><circle cx="616.52" cy="291.41" r="2.6" fill="#6366F1"></circle><circle cx="625.01" cy="290.81" r="2.6" fill="#6366F1"></circle><circle cx="633.51" cy="291" r="2.6" fill="#6366F1"></circle><circle cx="642" cy="290.42" r="2.6" fill="#6366F1"></circle><polyline fill="none" stroke="#A371F7" stroke-width="2.4" stroke-linejoin="round" stroke-linecap="round" points="56,226.25 64.49,237.88 72.99,241.73 81.48,223.38 89.97,231.64 98.46,243.09 106.96,237.81 115.45,230.14 123.94,233.83 132.43,241.12 140.93,233.75 149.42,230.9 157.91,235.83 166.41,217.13 174.9,237.29 183.39,230.7 191.88,240.49 200.38,241.09 208.87,218.17 217.36,232.28 225.86,201.8 234.35,239.78 242.84,242.88 251.33,229.56 259.83,227.31 268.32,231.21 276.81,233.26 285.3,230.48 293.8,240.31 302.29,235.36 310.78,231.03 319.28,237.98 327.77,242.74 336.26,217.94 344.75,237.38 353.25,239.39 370.23,216.58 378.72,239.81 387.22,230.21 404.2,230.86 412.7,240.78 421.19,241.27 429.68,237.28 438.17,234.45 446.67,237.03 455.16,237.6 463.65,235.95 472.14,225.98 480.64,230.74 489.13,232.09 497.62,238.44 506.12,233.93 514.61,237.36 523.1,236.2 540.09,238.07 548.58,232.58 565.57,227.45 574.06,236.55 582.55,232.02 591.04,240.47 599.54,213.84 608.03,238.7 616.52,238.88 625.01,241.18 633.51,233.39 642,234.63"></polyline><circle cx="56" cy="226.25" r="2.6" fill="#A371F7"></circle><circle cx="64.49" cy="237.88" r="2.6" fill="#A371F7"></circle><circle cx="72.99" cy="241.73" r="2.6" fill="#A371F7"></circle><circle cx="81.48" cy="223.38" r="2.6" fill="#A371F7"></circle><circle cx="89.97" cy="231.64" r="2.6" fill="#A371F7"></circle><circle cx="98.46" cy="243.09" r="2.6" fill="#A371F7"></circle><circle cx="106.96" cy="237.81" r="2.6" fill="#A371F7"></circle><circle cx="115.45" cy="230.14" r="2.6" fill="#A371F7"></circle><circle cx="123.94" cy="233.83" r="2.6" fill="#A371F7"></circle><circle cx="132.43" cy="241.12" r="2.6" fill="#A371F7"></circle><circle cx="140.93" cy="233.75" r="2.6" fill="#A371F7"></circle><circle cx="149.42" cy="230.9" r="2.6" fill="#A371F7"></circle><circle cx="157.91" cy="235.83" r="2.6" fill="#A371F7"></circle><circle cx="166.41" cy="217.13" r="2.6" fill="#A371F7"></circle><circle cx="174.9" cy="237.29" r="2.6" fill="#A371F7"></circle><circle cx="183.39" cy="230.7" r="2.6" fill="#A371F7"></circle><circle cx="191.88" cy="240.49" r="2.6" fill="#A371F7"></circle><circle cx="200.38" cy="241.09" r="2.6" fill="#A371F7"></circle><circle cx="208.87" cy="218.17" r="2.6" fill="#A371F7"></circle><circle cx="217.36" cy="232.28" r="2.6" fill="#A371F7"></circle><circle cx="225.86" cy="201.8" r="2.6" fill="#A371F7"></circle><circle cx="234.35" cy="239.78" r="2.6" fill="#A371F7"></circle><circle cx="242.84" cy="242.88" r="2.6" fill="#A371F7"></circle><circle cx="251.33" cy="229.56" r="2.6" fill="#A371F7"></circle><circle cx="259.83" cy="227.31" r="2.6" fill="#A371F7"></circle><circle cx="268.32" cy="231.21" r="2.6" fill="#A371F7"></circle><circle cx="276.81" cy="233.26" r="2.6" fill="#A371F7"></circle><circle cx="285.3" cy="230.48" r="2.6" fill="#A371F7"></circle><circle cx="293.8" cy="240.31" r="2.6" fill="#A371F7"></circle><circle cx="302.29" cy="235.36" r="2.6" fill="#A371F7"></circle><circle cx="310.78" cy="231.03" r="2.6" fill="#A371F7"></circle><circle cx="319.28" cy="237.98" r="2.6" fill="#A371F7"></circle><circle cx="327.77" cy="242.74" r="2.6" fill="#A371F7"></circle><circle cx="336.26" cy="217.94" r="2.6" fill="#A371F7"></circle><circle cx="344.75" cy="237.38" r="2.6" fill="#A371F7"></circle><circle cx="353.25" cy="239.39" r="2.6" fill="#A371F7"></circle><circle cx="370.23" cy="216.58" r="2.6" fill="#A371F7"></circle><circle cx="378.72" cy="239.81" r="2.6" fill="#A371F7"></circle><circle cx="387.22" cy="230.21" r="2.6" fill="#A371F7"></circle><circle cx="404.2" cy="230.86" r="2.6" fill="#A371F7"></circle><circle cx="412.7" cy="240.78" r="2.6" fill="#A371F7"></circle><circle cx="421.19" cy="241.27" r="2.6" fill="#A371F7"></circle><circle cx="429.68" cy="237.28" r="2.6" fill="#A371F7"></circle><circle cx="438.17" cy="234.45" r="2.6" fill="#A371F7"></circle><circle cx="446.67" cy="237.03" r="2.6" fill="#A371F7"></circle><circle cx="455.16" cy="237.6" r="2.6" fill="#A371F7"></circle><circle cx="463.65" cy="235.95" r="2.6" fill="#A371F7"></circle><circle cx="472.14" cy="225.98" r="2.6" fill="#A371F7"></circle><circle cx="480.64" cy="230.74" r="2.6" fill="#A371F7"></circle><circle cx="489.13" cy="232.09" r="2.6" fill="#A371F7"></circle><circle cx="497.62" cy="238.44" r="2.6" fill="#A371F7"></circle><circle cx="506.12" cy="233.93" r="2.6" fill="#A371F7"></circle><circle cx="514.61" cy="237.36" r="2.6" fill="#A371F7"></circle><circle cx="523.1" cy="236.2" r="2.6" fill="#A371F7"></circle><circle cx="540.09" cy="238.07" r="2.6" fill="#A371F7"></circle><circle cx="548.58" cy="232.58" r="2.6" fill="#A371F7"></circle><circle cx="565.57" cy="227.45" r="2.6" fill="#A371F7"></circle><circle cx="574.06" cy="236.55" r="2.6" fill="#A371F7"></circle><circle cx="582.55" cy="232.02" r="2.6" fill="#A371F7"></circle><circle cx="591.04" cy="240.47" r="2.6" fill="#A371F7"></circle><circle cx="599.54" cy="213.84" r="2.6" fill="#A371F7"></circle><circle cx="608.03" cy="238.7" r="2.6" fill="#A371F7"></circle><circle cx="616.52" cy="238.88" r="2.6" fill="#A371F7"></circle><circle cx="625.01" cy="241.18" r="2.6" fill="#A371F7"></circle><circle cx="633.51" cy="233.39" r="2.6" fill="#A371F7"></circle><circle cx="642" cy="234.63" r="2.6" fill="#A371F7"></circle><polyline fill="none" stroke="#F0A23B" stroke-width="2.4" stroke-linejoin="round" stroke-linecap="round" points="56,162.13 64.49,151.29 72.99,72.27 81.48,170.58 89.97,165.15 98.46,168.63 106.96,155.58 115.45,155.2 123.94,151.03 132.43,159.37 140.93,151 149.42,152 157.91,154.31 166.41,162.54 174.9,145.36 183.39,160.82 191.88,153.52 200.38,158.63 208.87,172.35 217.36,162.23 225.86,168.2 234.35,164.28 242.84,98 251.33,164.92 259.83,167.19 268.32,163.76 276.81,165.84 285.3,134.6 293.8,163 302.29,144.13 310.78,165.52 319.28,134.8 327.77,167.11 336.26,166.07 344.75,54.66 353.25,77.46 361.74,164.62 370.23,166.72 378.72,166.65 387.22,162.93 395.71,164.9 404.2,170.21 412.7,169.23 421.19,114.96 429.68,165.27 438.17,165.44 446.67,99.36 455.16,161.79 463.65,138.56 472.14,167.81 480.64,164.51 489.13,164.55 497.62,135.11 506.12,119.1 514.61,168.6 523.1,167.03 531.59,169.7 540.09,164.27 548.58,168.02 557.07,163.89 565.57,99.72 574.06,166.55 582.55,163.57 591.04,163.91 599.54,164.36 608.03,166.86 616.52,166.95 625.01,52.43 633.51,166.52 642,165.82"></polyline><circle cx="56" cy="162.13" r="2.6" fill="#F0A23B"></circle><circle cx="64.49" cy="151.29" r="2.6" fill="#F0A23B"></circle><circle cx="72.99" cy="72.27" r="2.6" fill="#F0A23B"></circle><circle cx="81.48" cy="170.58" r="2.6" fill="#F0A23B"></circle><circle cx="89.97" cy="165.15" r="2.6" fill="#F0A23B"></circle><circle cx="98.46" cy="168.63" r="2.6" fill="#F0A23B"></circle><circle cx="106.96" cy="155.58" r="2.6" fill="#F0A23B"></circle><circle cx="115.45" cy="155.2" r="2.6" fill="#F0A23B"></circle><circle cx="123.94" cy="151.03" r="2.6" fill="#F0A23B"></circle><circle cx="132.43" cy="159.37" r="2.6" fill="#F0A23B"></circle><circle cx="140.93" cy="151" r="2.6" fill="#F0A23B"></circle><circle cx="149.42" cy="152" r="2.6" fill="#F0A23B"></circle><circle cx="157.91" cy="154.31" r="2.6" fill="#F0A23B"></circle><circle cx="166.41" cy="162.54" r="2.6" fill="#F0A23B"></circle><circle cx="174.9" cy="145.36" r="2.6" fill="#F0A23B"></circle><circle cx="183.39" cy="160.82" r="2.6" fill="#F0A23B"></circle><circle cx="191.88" cy="153.52" r="2.6" fill="#F0A23B"></circle><circle cx="200.38" cy="158.63" r="2.6" fill="#F0A23B"></circle><circle cx="208.87" cy="172.35" r="2.6" fill="#F0A23B"></circle><circle cx="217.36" cy="162.23" r="2.6" fill="#F0A23B"></circle><circle cx="225.86" cy="168.2" r="2.6" fill="#F0A23B"></circle><circle cx="234.35" cy="164.28" r="2.6" fill="#F0A23B"></circle><circle cx="242.84" cy="98" r="2.6" fill="#F0A23B"></circle><circle cx="251.33" cy="164.92" r="2.6" fill="#F0A23B"></circle><circle cx="259.83" cy="167.19" r="2.6" fill="#F0A23B"></circle><circle cx="268.32" cy="163.76" r="2.6" fill="#F0A23B"></circle><circle cx="276.81" cy="165.84" r="2.6" fill="#F0A23B"></circle><circle cx="285.3" cy="134.6" r="2.6" fill="#F0A23B"></circle><circle cx="293.8" cy="163" r="2.6" fill="#F0A23B"></circle><circle cx="302.29" cy="144.13" r="2.6" fill="#F0A23B"></circle><circle cx="310.78" cy="165.52" r="2.6" fill="#F0A23B"></circle><circle cx="319.28" cy="134.8" r="2.6" fill="#F0A23B"></circle><circle cx="327.77" cy="167.11" r="2.6" fill="#F0A23B"></circle><circle cx="336.26" cy="166.07" r="2.6" fill="#F0A23B"></circle><circle cx="344.75" cy="54.66" r="2.6" fill="#F0A23B"></circle><circle cx="353.25" cy="77.46" r="2.6" fill="#F0A23B"></circle><circle cx="361.74" cy="164.62" r="2.6" fill="#F0A23B"></circle><circle cx="370.23" cy="166.72" r="2.6" fill="#F0A23B"></circle><circle cx="378.72" cy="166.65" r="2.6" fill="#F0A23B"></circle><circle cx="387.22" cy="162.93" r="2.6" fill="#F0A23B"></circle><circle cx="395.71" cy="164.9" r="2.6" fill="#F0A23B"></circle><circle cx="404.2" cy="170.21" r="2.6" fill="#F0A23B"></circle><circle cx="412.7" cy="169.23" r="2.6" fill="#F0A23B"></circle><circle cx="421.19" cy="114.96" r="2.6" fill="#F0A23B"></circle><circle cx="429.68" cy="165.27" r="2.6" fill="#F0A23B"></circle><circle cx="438.17" cy="165.44" r="2.6" fill="#F0A23B"></circle><circle cx="446.67" cy="99.36" r="2.6" fill="#F0A23B"></circle><circle cx="455.16" cy="161.79" r="2.6" fill="#F0A23B"></circle><circle cx="463.65" cy="138.56" r="2.6" fill="#F0A23B"></circle><circle cx="472.14" cy="167.81" r="2.6" fill="#F0A23B"></circle><circle cx="480.64" cy="164.51" r="2.6" fill="#F0A23B"></circle><circle cx="489.13" cy="164.55" r="2.6" fill="#F0A23B"></circle><circle cx="497.62" cy="135.11" r="2.6" fill="#F0A23B"></circle><circle cx="506.12" cy="119.1" r="2.6" fill="#F0A23B"></circle><circle cx="514.61" cy="168.6" r="2.6" fill="#F0A23B"></circle><circle cx="523.1" cy="167.03" r="2.6" fill="#F0A23B"></circle><circle cx="531.59" cy="169.7" r="2.6" fill="#F0A23B"></circle><circle cx="540.09" cy="164.27" r="2.6" fill="#F0A23B"></circle><circle cx="548.58" cy="168.02" r="2.6" fill="#F0A23B"></circle><circle cx="557.07" cy="163.89" r="2.6" fill="#F0A23B"></circle><circle cx="565.57" cy="99.72" r="2.6" fill="#F0A23B"></circle><circle cx="574.06" cy="166.55" r="2.6" fill="#F0A23B"></circle><circle cx="582.55" cy="163.57" r="2.6" fill="#F0A23B"></circle><circle cx="591.04" cy="163.91" r="2.6" fill="#F0A23B"></circle><circle cx="599.54" cy="164.36" r="2.6" fill="#F0A23B"></circle><circle cx="608.03" cy="166.86" r="2.6" fill="#F0A23B"></circle><circle cx="616.52" cy="166.95" r="2.6" fill="#F0A23B"></circle><circle cx="625.01" cy="52.43" r="2.6" fill="#F0A23B"></circle><circle cx="633.51" cy="166.52" r="2.6" fill="#F0A23B"></circle><circle cx="642" cy="165.82" r="2.6" fill="#F0A23B"></circle><line x1="656" y1="27" x2="672" y2="27" stroke="#6366F1" stroke-width="3" stroke-linecap="round"></line><text x="678" y="30" font-size="11" font-weight="400" text-anchor="start" fill="#1f2328">deepseek</text><line x1="656" y1="47" x2="672" y2="47" stroke="#A371F7" stroke-width="3" stroke-linecap="round"></line><text x="678" y="50" font-size="11" font-weight="400" text-anchor="start" fill="#1f2328">llama</text><line x1="656" y1="67" x2="672" y2="67" stroke="#F0A23B" stroke-width="3" stroke-linecap="round"></line><text x="678" y="70" font-size="11" font-weight="400" text-anchor="start" fill="#1f2328">mistral</text></svg>
