<svg xmlns="http://www.w3.org/2000/svg" viewBox="0 0 760 348" width="760" height="348" role="img" aria-label="Cost per test by provider over runs — openai highest, deepseek lowest" font-family="-apple-system,BlinkMacSystemFont,'Segoe UI',system-ui,sans-serif"><line x1="56" y1="306" x2="642" y2="306" stroke="#d8dee4" stroke-width="1"></line><text x="46" y="310" font-size="9.5" font-weight="400" text-anchor="end" fill="#656d76" font-family="ui-monospace,SFMono-Regular,Menlo,monospace">$0.000</text><line x1="56" y1="235" x2="642" y2="235" stroke="#d8dee4" stroke-width="1"></line><text x="46" y="239" font-size="9.5" font-weight="400" text-anchor="end" fill="#656d76" font-family="ui-monospace,SFMono-Regular,Menlo,monospace">$0.044</text><line x1="56" y1="164" x2="642" y2="164" stroke="#d8dee4" stroke-width="1"></line><text x="46" y="168" font-size="9.5" font-weight="400" text-anchor="end" fill="#656d76" font-family="ui-monospace,SFMono-Regular,Menlo,monospace">$0.087</text><line x1="56" y1="93" x2="642" y2="93" stroke="#d8dee4" stroke-width="1"></line><text x="46" y="97" font-size="9.5" font-weight="400" text-anchor="end" fill="#656d76" font-family="ui-monospace,SFMono-Regular,Menlo,monospace">$0.131</text><line x1="56" y1="22" x2="642" y2="22" stroke="#d8dee4" stroke-width="1"></line><text x="46" y="26" font-size="9.5" font-weight="400" text-anchor="end" fill="#656d76" font-family="ui-monospace,SFMono-Regular,Menlo,monospace">$0.175</text><text x="56" y="324" font-size="9.5" font-weight="400" text-anchor="middle" fill="#656d76" font-family="ui-monospace,SFMono-Regular,Menlo,monospace">06/06</text><text x="112.35" y="324" font-size="9.5" font-weight="400" text-anchor="middle" fill="#656d76" font-family="ui-monospace,SFMono-Regular,Menlo,monospace">06/07</text><text x="168.69" y="324" font-size="9.5" font-weight="400" text-anchor="middle" fill="#656d76" font-family="ui-monospace,SFMono-Regular,Menlo,monospace">06/08</text><text x="225.04" y="324" font-size="9.5" font-weight="400" text-anchor="middle" fill="#656d76" font-family="ui-monospace,SFMono-Regular,Menlo,monospace">06/09</text><text x="281.38" y="324" font-size="9.5" font-weight="400" text-anchor="middle" fill="#656d76" font-family="ui-monospace,SFMono-Regular,Menlo,monospace">06/09</text><text x="337.73" y="324" font-size="9.5" font-weight="400" text-anchor="middle" fill="#656d76" font-family="ui-monospace,SFMono-Regular,Menlo,monospace">06/12</text><text x="394.08" y="324" font-size="9.5" font-weight="400" text-anchor="middle" fill="#656d76" font-family="ui-monospace,SFMono-Regular,Menlo,monospace">06/14</text><text x="450.42" y="324" font-size="9.5" font-weight="400" text-anchor="middle" fill="#656d76" font-family="ui-monospace,SFMono-Regular,Menlo,monospace">06/15</text><text x="506.77" y="324" font-size="9.5" font-weight="400" text-anchor="middle" fill="#656d76" font-family="ui-monospace,SFMono-Regular,Menlo,monospace">06/16</text><text x="563.12" y="324" font-size="9.5" font-weight="400" text-anchor="middle" fill="#656d76" font-family="ui-monospace,SFMono-Regular,Menlo,monospace">06/17</text><text x="619.46" y="324" font-size="9.5" font-weight="400" text-anchor="middle" fill="#656d76" font-family="ui-monospace,SFMono-Regular,Menlo,monospace">06/18</text><text x="642" y="324" font-size="9.5" font-weight="400" text-anchor="middle" fill="#656d76" font-family="ui-monospace,SFMono-Regular,Menlo,monospace">06/19</text><polyline fill="none" stroke="#6366F1" stroke-width="2.4" stroke-linejoin="round" stroke-linecap="round" points="146.15,293.36 157.42,293.43 168.69,294.1 179.96,292.89 191.23,293.14 202.5,287.31 213.77,294.31 225.04,291.77 236.31,291.82 247.58,291.36 258.85,293.02 270.12,291.8 281.38,288.55 292.65,292.06 303.92,288.85 315.19,294.29 326.46,292.11 337.73,288.48 349,285.75 360.27,292.13 371.54,291.04 382.81,293.66 394.08,290.08 405.35,286.94 416.62,292.77 427.88,291.68 439.15,292.47 450.42,291.27 472.96,290.7 484.23,292.91 495.5,293.34 506.77,290.78 518.04,290.99 529.31,291.6 540.58,292.29 551.85,292.81 563.12,293.37 585.65,293.66 596.92,293.82 608.19,292.24 619.46,291.11 630.73,291.02 642,284.88"></polyline><circle cx="146.15" cy="293.36" r="2.6" fill="#6366F1"></circle><circle cx="157.42" cy="293.43" r="2.6" fill="#6366F1"></circle><circle cx="168.69" cy="294.1" r="2.6" fill="#6366F1"></circle><circle cx="179.96" cy="292.89" r="2.6" fill="#6366F1"></circle><circle cx="191.23" cy="293.14" r="2.6" fill="#6366F1"></circle><circle cx="202.5" cy="287.31" r="2.6" fill="#6366F1"></circle><circle cx="213.77" cy="294.31" r="2.6" fill="#6366F1"></circle><circle cx="225.04" cy="291.77" r="2.6" fill="#6366F1"></circle><circle cx="236.31" cy="291.82" r="2.6" fill="#6366F1"></circle><circle cx="247.58" cy="291.36" r="2.6" fill="#6366F1"></circle><circle cx="258.85" cy="293.02" r="2.6" fill="#6366F1"></circle><circle cx="270.12" cy="291.8" r="2.6" fill="#6366F1"></circle><circle cx="281.38" cy="288.55" r="2.6" fill="#6366F1"></circle><circle cx="292.65" cy="292.06" r="2.6" fill="#6366F1"></circle><circle cx="303.92" cy="288.85" r="2.6" fill="#6366F1"></circle><circle cx="315.19" cy="294.29" r="2.6" fill="#6366F1"></circle><circle cx="326.46" cy="292.11" r="2.6" fill="#6366F1"></circle><circle cx="337.73" cy="288.48" r="2.6" fill="#6366F1"></circle><circle cx="349" cy="285.75" r="2.6" fill="#6366F1"></circle><circle cx="360.27" cy="292.13" r="2.6" fill="#6366F1"></circle><circle cx="371.54" cy="291.04" r="2.6" fill="#6366F1"></circle><circle cx="382.81" cy="293.66" r="2.6" fill="#6366F1"></circle><circle cx="394.08" cy="290.08" r="2.6" fill="#6366F1"></circle><circle cx="405.35" cy="286.94" r="2.6" fill="#6366F1"></circle><circle cx="416.62" cy="292.77" r="2.6" fill="#6366F1"></circle><circle cx="427.88" cy="291.68" r="2.6" fill="#6366F1"></circle><circle cx="439.15" cy="292.47" r="2.6" fill="#6366F1"></circle><circle cx="450.42" cy="291.27" r="2.6" fill="#6366F1"></circle><circle cx="472.96" cy="290.7" r="2.6" fill="#6366F1"></circle><circle cx="484.23" cy="292.91" r="2.6" fill="#6366F1"></circle><circle cx="495.5" cy="293.34" r="2.6" fill="#6366F1"></circle><circle cx="506.77" cy="290.78" r="2.6" fill="#6366F1"></circle><circle cx="518.04" cy="290.99" r="2.6" fill="#6366F1"></circle><circle cx="529.31" cy="291.6" r="2.6" fill="#6366F1"></circle><circle cx="540.58" cy="292.29" r="2.6" fill="#6366F1"></circle><circle cx="551.85" cy="292.81" r="2.6" fill="#6366F1"></circle><circle cx="563.12" cy="293.37" r="2.6" fill="#6366F1"></circle><circle cx="585.65" cy="293.66" r="2.6" fill="#6366F1"></circle><circle cx="596.92" cy="293.82" r="2.6" fill="#6366F1"></circle><circle cx="608.19" cy="292.24" r="2.6" fill="#6366F1"></circle><circle cx="619.46" cy="291.11" r="2.6" fill="#6366F1"></circle><circle cx="630.73" cy="291.02" r="2.6" fill="#6366F1"></circle><circle cx="642" cy="284.88" r="2.6" fill="#6366F1"></circle><polyline fill="none" stroke="#A371F7" stroke-width="2.4" stroke-linejoin="round" stroke-linecap="round" points="56,234.02 67.27,244.52 78.54,248 89.81,231.43 101.08,238.89 112.35,249.23 123.62,244.46 134.88,237.54 146.15,240.86 157.42,247.44 168.69,240.79 179.96,238.23 191.23,242.67 202.5,225.79 213.77,243.99 225.04,238.04 236.31,246.87 247.58,247.42 258.85,226.74 270.12,239.47 281.38,211.96 292.65,246.23 303.92,249.04 315.19,237.01 326.46,234.98 337.73,238.5 349,240.35 360.27,237.84 371.54,246.71 382.81,242.24 394.08,238.34 405.35,244.61 416.62,248.91 427.88,226.53 439.15,244.07 450.42,245.89 472.96,225.3 484.23,246.26 495.5,237.6 518.04,238.19 529.31,247.14 540.58,247.58 551.85,243.98 563.12,241.42 574.38,243.75 585.65,244.26 596.92,242.78 608.19,233.78 619.46,238.08 630.73,239.3 642,245.03"></polyline><circle cx="56" cy="234.02" r="2.6" fill="#A371F7"></circle><circle cx="67.27" cy="244.52" r="2.6" fill="#A371F7"></circle><circle cx="78.54" cy="248" r="2.6" fill="#A371F7"></circle><circle cx="89.81" cy="231.43" r="2.6" fill="#A371F7"></circle><circle cx="101.08" cy="238.89" r="2.6" fill="#A371F7"></circle><circle cx="112.35" cy="249.23" r="2.6" fill="#A371F7"></circle><circle cx="123.62" cy="244.46" r="2.6" fill="#A371F7"></circle><circle cx="134.88" cy="237.54" r="2.6" fill="#A371F7"></circle><circle cx="146.15" cy="240.86" r="2.6" fill="#A371F7"></circle><circle cx="157.42" cy="247.44" r="2.6" fill="#A371F7"></circle><circle cx="168.69" cy="240.79" r="2.6" fill="#A371F7"></circle><circle cx="179.96" cy="238.23" r="2.6" fill="#A371F7"></circle><circle cx="191.23" cy="242.67" r="2.6" fill="#A371F7"></circle><circle cx="202.5" cy="225.79" r="2.6" fill="#A371F7"></circle><circle cx="213.77" cy="243.99" r="2.6" fill="#A371F7"></circle><circle cx="225.04" cy="238.04" r="2.6" fill="#A371F7"></circle><circle cx="236.31" cy="246.87" r="2.6" fill="#A371F7"></circle><circle cx="247.58" cy="247.42" r="2.6" fill="#A371F7"></circle><circle cx="258.85" cy="226.74" r="2.6" fill="#A371F7"></circle><circle cx="270.12" cy="239.47" r="2.6" fill="#A371F7"></circle><circle cx="281.38" cy="211.96" r="2.6" fill="#A371F7"></circle><circle cx="292.65" cy="246.23" r="2.6" fill="#A371F7"></circle><circle cx="303.92" cy="249.04" r="2.6" fill="#A371F7"></circle><circle cx="315.19" cy="237.01" r="2.6" fill="#A371F7"></circle><circle cx="326.46" cy="234.98" r="2.6" fill="#A371F7"></circle><circle cx="337.73" cy="238.5" r="2.6" fill="#A371F7"></circle><circle cx="349" cy="240.35" r="2.6" fill="#A371F7"></circle><circle cx="360.27" cy="237.84" r="2.6" fill="#A371F7"></circle><circle cx="371.54" cy="246.71" r="2.6" fill="#A371F7"></circle><circle cx="382.81" cy="242.24" r="2.6" fill="#A371F7"></circle><circle cx="394.08" cy="238.34" r="2.6" fill="#A371F7"></circle><circle cx="405.35" cy="244.61" r="2.6" fill="#A371F7"></circle><circle cx="416.62" cy="248.91" r="2.6" fill="#A371F7"></circle><circle cx="427.88" cy="226.53" r="2.6" fill="#A371F7"></circle><circle cx="439.15" cy="244.07" r="2.6" fill="#A371F7"></circle><circle cx="450.42" cy="245.89" r="2.6" fill="#A371F7"></circle><circle cx="472.96" cy="225.3" r="2.6" fill="#A371F7"></circle><circle cx="484.23" cy="246.26" r="2.6" fill="#A371F7"></circle><circle cx="495.5" cy="237.6" r="2.6" fill="#A371F7"></circle><circle cx="518.04" cy="238.19" r="2.6" fill="#A371F7"></circle><circle cx="529.31" cy="247.14" r="2.6" fill="#A371F7"></circle><circle cx="540.58" cy="247.58" r="2.6" fill="#A371F7"></circle><circle cx="551.85" cy="243.98" r="2.6" fill="#A371F7"></circle><circle cx="563.12" cy="241.42" r="2.6" fill="#A371F7"></circle><circle cx="574.38" cy="243.75" r="2.6" fill="#A371F7"></circle><circle cx="585.65" cy="244.26" r="2.6" fill="#A371F7"></circle><circle cx="596.92" cy="242.78" r="2.6" fill="#A371F7"></circle><circle cx="608.19" cy="233.78" r="2.6" fill="#A371F7"></circle><circle cx="619.46" cy="238.08" r="2.6" fill="#A371F7"></circle><circle cx="630.73" cy="239.3" r="2.6" fill="#A371F7"></circle><circle cx="642" cy="245.03" r="2.6" fill="#A371F7"></circle><polyline fill="none" stroke="#F0A23B" stroke-width="2.4" stroke-linejoin="round" stroke-linecap="round" points="56,176.15 67.27,166.37 78.54,95.06 89.81,183.78 101.08,178.88 112.35,182.02 123.62,170.24 134.88,169.9 146.15,166.14 157.42,173.66 168.69,166.11 179.96,167.02 191.23,169.09 202.5,176.53 213.77,161.02 225.04,174.97 236.31,168.38 247.58,173 258.85,185.38 270.12,176.24 281.38,181.63 292.65,178.09 303.92,118.27 315.19,178.67 326.46,180.72 337.73,177.62 349,179.5 360.27,151.31 371.54,176.94 382.81,159.91 394.08,179.22 405.35,151.49 416.62,180.65 427.88,179.71 439.15,79.16 450.42,99.74 461.69,178.4 472.96,180.3 484.23,180.24 495.5,176.88 506.77,178.65 518.04,183.45 529.31,182.56 540.58,133.59 551.85,178.99 563.12,179.14 574.38,119.51 585.65,175.85 596.92,154.88 608.19,181.28 619.46,178.3 630.73,178.34 642,151.77"></polyline><circle cx="56" cy="176.15" r="2.6" fill="#F0A23B"></circle><circle cx="67.27" cy="166.37" r="2.6" fill="#F0A23B"></circle><circle cx="78.54" cy="95.06" r="2.6" fill="#F0A23B"></circle><circle cx="89.81" cy="183.78" r="2.6" fill="#F0A23B"></circle><circle cx="101.08" cy="178.88" r="2.6" fill="#F0A23B"></circle><circle cx="112.35" cy="182.02" r="2.6" fill="#F0A23B"></circle><circle cx="123.62" cy="170.24" r="2.6" fill="#F0A23B"></circle><circle cx="134.88" cy="169.9" r="2.6" fill="#F0A23B"></circle><circle cx="146.15" cy="166.14" r="2.6" fill="#F0A23B"></circle><circle cx="157.42" cy="173.66" r="2.6" fill="#F0A23B"></circle><circle cx="168.69" cy="166.11" r="2.6" fill="#F0A23B"></circle><circle cx="179.96" cy="167.02" r="2.6" fill="#F0A23B"></circle><circle cx="191.23" cy="169.09" r="2.6" fill="#F0A23B"></circle><circle cx="202.5" cy="176.53" r="2.6" fill="#F0A23B"></circle><circle cx="213.77" cy="161.02" r="2.6" fill="#F0A23B"></circle><circle cx="225.04" cy="174.97" r="2.6" fill="#F0A23B"></circle><circle cx="236.31" cy="168.38" r="2.6" fill="#F0A23B"></circle><circle cx="247.58" cy="173" r="2.6" fill="#F0A23B"></circle><circle cx="258.85" cy="185.38" r="2.6" fill="#F0A23B"></circle><circle cx="270.12" cy="176.24" r="2.6" fill="#F0A23B"></circle><circle cx="281.38" cy="181.63" r="2.6" fill="#F0A23B"></circle><circle cx="292.65" cy="178.09" r="2.6" fill="#F0A23B"></circle><circle cx="303.92" cy="118.27" r="2.6" fill="#F0A23B"></circle><circle cx="315.19" cy="178.67" r="2.6" fill="#F0A23B"></circle><circle cx="326.46" cy="180.72" r="2.6" fill="#F0A23B"></circle><circle cx="337.73" cy="177.62" r="2.6" fill="#F0A23B"></circle><circle cx="349" cy="179.5" r="2.6" fill="#F0A23B"></circle><circle cx="360.27" cy="151.31" r="2.6" fill="#F0A23B"></circle><circle cx="371.54" cy="176.94" r="2.6" fill="#F0A23B"></circle><circle cx="382.81" cy="159.91" r="2.6" fill="#F0A23B"></circle><circle cx="394.08" cy="179.22" r="2.6" fill="#F0A23B"></circle><circle cx="405.35" cy="151.49" r="2.6" fill="#F0A23B"></circle><circle cx="416.62" cy="180.65" r="2.6" fill="#F0A23B"></circle><circle cx="427.88" cy="179.71" r="2.6" fill="#F0A23B"></circle><circle cx="439.15" cy="79.16" r="2.6" fill="#F0A23B"></circle><circle cx="450.42" cy="99.74" r="2.6" fill="#F0A23B"></circle><circle cx="461.69" cy="178.4" r="2.6" fill="#F0A23B"></circle><circle cx="472.96" cy="180.3" r="2.6" fill="#F0A23B"></circle><circle cx="484.23" cy="180.24" r="2.6" fill="#F0A23B"></circle><circle cx="495.5" cy="176.88" r="2.6" fill="#F0A23B"></circle><circle cx="506.77" cy="178.65" r="2.6" fill="#F0A23B"></circle><circle cx="518.04" cy="183.45" r="2.6" fill="#F0A23B"></circle><circle cx="529.31" cy="182.56" r="2.6" fill="#F0A23B"></circle><circle cx="540.58" cy="133.59" r="2.6" fill="#F0A23B"></circle><circle cx="551.85" cy="178.99" r="2.6" fill="#F0A23B"></circle><circle cx="563.12" cy="179.14" r="2.6" fill="#F0A23B"></circle><circle cx="574.38" cy="119.51" r="2.6" fill="#F0A23B"></circle><circle cx="585.65" cy="175.85" r="2.6" fill="#F0A23B"></circle><circle cx="596.92" cy="154.88" r="2.6" fill="#F0A23B"></circle><circle cx="608.19" cy="181.28" r="2.6" fill="#F0A23B"></circle><circle cx="619.46" cy="178.3" r="2.6" fill="#F0A23B"></circle><circle cx="630.73" cy="178.34" r="2.6" fill="#F0A23B"></circle><circle cx="642" cy="151.77" r="2.6" fill="#F0A23B"></circle><polyline fill="none" stroke="#1F9CF0" stroke-width="2.4" stroke-linejoin="round" stroke-linecap="round" points="56,175.5 67.27,176.2 78.54,132.71 89.81,178.27 101.08,172 112.35,174.38 123.62,174.4 134.88,170.88 146.15,173.93 157.42,173.54 168.69,100.75 179.96,168.69 191.23,173.59 202.5,174.01 213.77,167.31 225.04,117.5 236.31,166.02 247.58,174.07 258.85,141.6 270.12,169.05 281.38,167.14 292.65,174.48 303.92,150.94 315.19,171.01 326.46,52.43 337.73,157.26 349,171.51 360.27,136.29 371.54,169.79 382.81,106.45 394.08,170.47 405.35,175.76 416.62,174.01 427.88,174.06 439.15,151.2 450.42,173.78 461.69,169.88 472.96,177.61 484.23,137.18 495.5,114.15 506.77,168.74 518.04,168.47 529.31,130.46 540.58,174.44 551.85,175.01 563.12,171.26 574.38,176.81 585.65,171.37 596.92,161.31 608.19,135.44 619.46,169.24 630.73,176.14 642,170.75"></polyline><circle cx="56" cy="175.5" r="2.6" fill="#1F9CF0"></circle><circle cx="67.27" cy="176.2" r="2.6" fill="#1F9CF0"></circle><circle cx="78.54" cy="132.71" r="2.6" fill="#1F9CF0"></circle><circle cx="89.81" cy="178.27" r="2.6" fill="#1F9CF0"></circle><circle cx="101.08" cy="172" r="2.6" fill="#1F9CF0"></circle><circle cx="112.35" cy="174.38" r="2.6" fill="#1F9CF0"></circle><circle cx="123.62" cy="174.4" r="2.6" fill="#1F9CF0"></circle><circle cx="134.88" cy="170.88" r="2.6" fill="#1F9CF0"></circle><circle cx="146.15" cy="173.93" r="2.6" fill="#1F9CF0"></circle><circle cx="157.42" cy="173.54" r="2.6" fill="#1F9CF0"></circle><circle cx="168.69" cy="100.75" r="2.6" fill="#1F9CF0"></circle><circle cx="179.96" cy="168.69" r="2.6" fill="#1F9CF0"></circle><circle cx="191.23" cy="173.59" r="2.6" fill="#1F9CF0"></circle><circle cx="202.5" cy="174.01" r="2.6" fill="#1F9CF0"></circle><circle cx="213.77" cy="167.31" r="2.6" fill="#1F9CF0"></circle><circle cx="225.04" cy="117.5" r="2.6" fill="#1F9CF0"></circle><circle cx="236.31" cy="166.02" r="2.6" fill="#1F9CF0"></circle><circle cx="247.58" cy="174.07" r="2.6" fill="#1F9CF0"></circle><circle cx="258.85" cy="141.6" r="2.6" fill="#1F9CF0"></circle><circle cx="270.12" cy="169.05" r="2.6" fill="#1F9CF0"></circle><circle cx="281.38" cy="167.14" r="2.6" fill="#1F9CF0"></circle><circle cx="292.65" cy="174.48" r="2.6" fill="#1F9CF0"></circle><circle cx="303.92" cy="150.94" r="2.6" fill="#1F9CF0"></circle><circle cx="315.19" cy="171.01" r="2.6" fill="#1F9CF0"></circle><circle cx="326.46" cy="52.43" r="2.6" fill="#1F9CF0"></circle><circle cx="337.73" cy="157.26" r="2.6" fill="#1F9CF0"></circle><circle cx="349" cy="171.51" r="2.6" fill="#1F9CF0"></circle><circle cx="360.27" cy="136.29" r="2.6" fill="#1F9CF0"></circle><circle cx="371.54" cy="169.79" r="2.6" fill="#1F9CF0"></circle><circle cx="382.81" cy="106.45" r="2.6" fill="#1F9CF0"></circle><circle cx="394.08" cy="170.47" r="2.6" fill="#1F9CF0"></circle><circle cx="405.35" cy="175.76" r="2.6" fill="#1F9CF0"></circle><circle cx="416.62" cy="174.01" r="2.6" fill="#1F9CF0"></circle><circle cx="427.88" cy="174.06" r="2.6" fill="#1F9CF0"></circle><circle cx="439.15" cy="151.2" r="2.6" fill="#1F9CF0"></circle><circle cx="450.42" cy="173.78" r="2.6" fill="#1F9CF0"></circle><circle cx="461.69" cy="169.88" r="2.6" fill="#1F9CF0"></circle><circle cx="472.96" cy="177.61" r="2.6" fill="#1F9CF0"></circle><circle cx="484.23" cy="137.18" r="2.6" fill="#1F9CF0"></circle><circle cx="495.5" cy="114.15" r="2.6" fill="#1F9CF0"></circle><circle cx="506.77" cy="168.74" r="2.6" fill="#1F9CF0"></circle><circle cx="518.04" cy="168.47" r="2.6" fill="#1F9CF0"></circle><circle cx="529.31" cy="130.46" r="2.6" fill="#1F9CF0"></circle><circle cx="540.58" cy="174.44" r="2.6" fill="#1F9CF0"></circle><circle cx="551.85" cy="175.01" r="2.6" fill="#1F9CF0"></circle><circle cx="563.12" cy="171.26" r="2.6" fill="#1F9CF0"></circle><circle cx="574.38" cy="176.81" r="2.6" fill="#1F9CF0"></circle><circle cx="585.65" cy="171.37" r="2.6" fill="#1F9CF0"></circle><circle cx="596.92" cy="161.31" r="2.6" fill="#1F9CF0"></circle><circle cx="608.19" cy="135.44" r="2.6" fill="#1F9CF0"></circle><circle cx="619.46" cy="169.24" r="2.6" fill="#1F9CF0"></circle><circle cx="630.73" cy="176.14" r="2.6" fill="#1F9CF0"></circle><circle cx="642" cy="170.75" r="2.6" fill="#1F9CF0"></circle><line x1="656" y1="27" x2="672" y2="27" stroke="#6366F1" stroke-width="3" stroke-linecap="round"></line><text x="678" y="30" font-size="11" font-weight="400" text-anchor="start" fill="#1f2328">deepseek</text><line x1="656" y1="47" x2="672" y2="47" stroke="#A371F7" stroke-width="3" stroke-linecap="round"></line><text x="678" y="50" font-size="11" font-weight="400" text-anchor="start" fill="#1f2328">llama</text><line x1="656" y1="67" x2="672" y2="67" stroke="#F0A23B" stroke-width="3" stroke-linecap="round"></line><text x="678" y="70" font-size="11" font-weight="400" text-anchor="start" fill="#1f2328">mistral</text><line x1="656" y1="87" x2="672" y2="87" stroke="#1F9CF0" stroke-width="3" stroke-linecap="round"></line><text x="678" y="90" font-size="11" font-weight="400" text-anchor="start" fill="#1f2328">openai</text></svg>
