<svg xmlns="http://www.w3.org/2000/svg" viewBox="0 0 760 348" width="760" height="348" role="img" aria-label="Cost per test by provider over runs — openai highest, deepseek lowest" font-family="-apple-system,BlinkMacSystemFont,'Segoe UI',system-ui,sans-serif"><line x1="56" y1="306" x2="642" y2="306" stroke="#30363d" stroke-width="1"></line><text x="46" y="310" font-size="9.5" font-weight="400" text-anchor="end" fill="#8b949e" font-family="ui-monospace,SFMono-Regular,Menlo,monospace">$0.000</text><line x1="56" y1="235" x2="642" y2="235" stroke="#30363d" stroke-width="1"></line><text x="46" y="239" font-size="9.5" font-weight="400" text-anchor="end" fill="#8b949e" font-family="ui-monospace,SFMono-Regular,Menlo,monospace">$0.044</text><line x1="56" y1="164" x2="642" y2="164" stroke="#30363d" stroke-width="1"></line><text x="46" y="168" font-size="9.5" font-weight="400" text-anchor="end" fill="#8b949e" font-family="ui-monospace,SFMono-Regular,Menlo,monospace">$0.087</text><line x1="56" y1="93" x2="642" y2="93" stroke="#30363d" stroke-width="1"></line><text x="46" y="97" font-size="9.5" font-weight="400" text-anchor="end" fill="#8b949e" font-family="ui-monospace,SFMono-Regular,Menlo,monospace">$0.131</text><line x1="56" y1="22" x2="642" y2="22" stroke="#30363d" stroke-width="1"></line><text x="46" y="26" font-size="9.5" font-weight="400" text-anchor="end" fill="#8b949e" font-family="ui-monospace,SFMono-Regular,Menlo,monospace">$0.175</text><text x="56" y="324" font-size="9.5" font-weight="400" text-anchor="middle" fill="#8b949e" font-family="ui-monospace,SFMono-Regular,Menlo,monospace">06/06</text><text x="113.45" y="324" font-size="9.5" font-weight="400" text-anchor="middle" fill="#8b949e" font-family="ui-monospace,SFMono-Regular,Menlo,monospace">06/07</text><text x="170.9" y="324" font-size="9.5" font-weight="400" text-anchor="middle" fill="#8b949e" font-family="ui-monospace,SFMono-Regular,Menlo,monospace">06/08</text><text x="228.35" y="324" font-size="9.5" font-weight="400" text-anchor="middle" fill="#8b949e" font-family="ui-monospace,SFMono-Regular,Menlo,monospace">06/09</text><text x="285.8" y="324" font-size="9.5" font-weight="400" text-anchor="middle" fill="#8b949e" font-family="ui-monospace,SFMono-Regular,Menlo,monospace">06/09</text><text x="343.25" y="324" font-size="9.5" font-weight="400" text-anchor="middle" fill="#8b949e" font-family="ui-monospace,SFMono-Regular,Menlo,monospace">06/12</text><text x="400.71" y="324" font-size="9.5" font-weight="400" text-anchor="middle" fill="#8b949e" font-family="ui-monospace,SFMono-Regular,Menlo,monospace">06/14</text><text x="458.16" y="324" font-size="9.5" font-weight="400" text-anchor="middle" fill="#8b949e" font-family="ui-monospace,SFMono-Regular,Menlo,monospace">06/15</text><text x="515.61" y="324" font-size="9.5" font-weight="400" text-anchor="middle" fill="#8b949e" font-family="ui-monospace,SFMono-Regular,Menlo,monospace">06/16</text><text x="573.06" y="324" font-size="9.5" font-weight="400" text-anchor="middle" fill="#8b949e" font-family="ui-monospace,SFMono-Regular,Menlo,monospace">06/17</text><text x="630.51" y="324" font-size="9.5" font-weight="400" text-anchor="middle" fill="#8b949e" font-family="ui-monospace,SFMono-Regular,Menlo,monospace">06/18</text><text x="642" y="324" font-size="9.5" font-weight="400" text-anchor="middle" fill="#8b949e" font-family="ui-monospace,SFMono-Regular,Menlo,monospace">06/19</text><polyline fill="none" stroke="#6366F1" stroke-width="2.4" stroke-linejoin="round" stroke-linecap="round" points="147.92,293.36 159.41,293.43 170.9,294.1 182.39,292.89 193.88,293.14 205.37,287.31 216.86,294.31 228.35,291.77 239.84,291.82 251.33,291.36 262.82,293.02 274.31,291.8 285.8,288.55 297.29,292.06 308.78,288.85 320.27,294.29 331.76,292.11 343.25,288.48 354.75,285.75 366.24,292.13 377.73,291.04 389.22,293.66 400.71,290.08 412.2,286.94 423.69,292.77 435.18,291.68 446.67,292.47 458.16,291.27 481.14,290.7 492.63,292.91 504.12,293.34 515.61,290.78 527.1,290.99 538.59,291.6 550.08,292.29 561.57,292.81 573.06,293.37 596.04,293.66 607.53,293.82 619.02,292.24 630.51,291.11 642,291.02"></polyline><circle cx="147.92" cy="293.36" r="2.6" fill="#6366F1"></circle><circle cx="159.41" cy="293.43" r="2.6" fill="#6366F1"></circle><circle cx="170.9" cy="294.1" r="2.6" fill="#6366F1"></circle><circle cx="182.39" cy="292.89" r="2.6" fill="#6366F1"></circle><circle cx="193.88" cy="293.14" r="2.6" fill="#6366F1"></circle><circle cx="205.37" cy="287.31" r="2.6" fill="#6366F1"></circle><circle cx="216.86" cy="294.31" r="2.6" fill="#6366F1"></circle><circle cx="228.35" cy="291.77" r="2.6" fill="#6366F1"></circle><circle cx="239.84" cy="291.82" r="2.6" fill="#6366F1"></circle><circle cx="251.33" cy="291.36" r="2.6" fill="#6366F1"></circle><circle cx="262.82" cy="293.02" r="2.6" fill="#6366F1"></circle><circle cx="274.31" cy="291.8" r="2.6" fill="#6366F1"></circle><circle cx="285.8" cy="288.55" r="2.6" fill="#6366F1"></circle><circle cx="297.29" cy="292.06" r="2.6" fill="#6366F1"></circle><circle cx="308.78" cy="288.85" r="2.6" fill="#6366F1"></circle><circle cx="320.27" cy="294.29" r="2.6" fill="#6366F1"></circle><circle cx="331.76" cy="292.11" r="2.6" fill="#6366F1"></circle><circle cx="343.25" cy="288.48" r="2.6" fill="#6366F1"></circle><circle cx="354.75" cy="285.75" r="2.6" fill="#6366F1"></circle><circle cx="366.24" cy="292.13" r="2.6" fill="#6366F1"></circle><circle cx="377.73" cy="291.04" r="2.6" fill="#6366F1"></circle><circle cx="389.22" cy="293.66" r="2.6" fill="#6366F1"></circle><circle cx="400.71" cy="290.08" r="2.6" fill="#6366F1"></circle><circle cx="412.2" cy="286.94" r="2.6" fill="#6366F1"></circle><circle cx="423.69" cy="292.77" r="2.6" fill="#6366F1"></circle><circle cx="435.18" cy="291.68" r="2.6" fill="#6366F1"></circle><circle cx="446.67" cy="292.47" r="2.6" fill="#6366F1"></circle><circle cx="458.16" cy="291.27" r="2.6" fill="#6366F1"></circle><circle cx="481.14" cy="290.7" r="2.6" fill="#6366F1"></circle><circle cx="492.63" cy="292.91" r="2.6" fill="#6366F1"></circle><circle cx="504.12" cy="293.34" r="2.6" fill="#6366F1"></circle><circle cx="515.61" cy="290.78" r="2.6" fill="#6366F1"></circle><circle cx="527.1" cy="290.99" r="2.6" fill="#6366F1"></circle><circle cx="538.59" cy="291.6" r="2.6" fill="#6366F1"></circle><circle cx="550.08" cy="292.29" r="2.6" fill="#6366F1"></circle><circle cx="561.57" cy="292.81" r="2.6" fill="#6366F1"></circle><circle cx="573.06" cy="293.37" r="2.6" fill="#6366F1"></circle><circle cx="596.04" cy="293.66" r="2.6" fill="#6366F1"></circle><circle cx="607.53" cy="293.82" r="2.6" fill="#6366F1"></circle><circle cx="619.02" cy="292.24" r="2.6" fill="#6366F1"></circle><circle cx="630.51" cy="291.11" r="2.6" fill="#6366F1"></circle><circle cx="642" cy="291.02" r="2.6" fill="#6366F1"></circle><polyline fill="none" stroke="#A371F7" stroke-width="2.4" stroke-linejoin="round" stroke-linecap="round" points="56,234.02 67.49,244.52 78.98,248 90.47,231.43 101.96,238.89 113.45,249.23 124.94,244.46 136.43,237.54 147.92,240.86 159.41,247.44 170.9,240.79 182.39,238.23 193.88,242.67 205.37,225.79 216.86,243.99 228.35,238.04 239.84,246.87 251.33,247.42 262.82,226.74 274.31,239.47 285.8,211.96 297.29,246.23 308.78,249.04 320.27,237.01 331.76,234.98 343.25,238.5 354.75,240.35 366.24,237.84 377.73,246.71 389.22,242.24 400.71,238.34 412.2,244.61 423.69,248.91 435.18,226.53 446.67,244.07 458.16,245.89 481.14,225.3 492.63,246.26 504.12,237.6 527.1,238.19 538.59,247.14 550.08,247.58 561.57,243.98 573.06,241.42 584.55,243.75 596.04,244.26 607.53,242.78 619.02,233.78 630.51,238.08 642,239.3"></polyline><circle cx="56" cy="234.02" r="2.6" fill="#A371F7"></circle><circle cx="67.49" cy="244.52" r="2.6" fill="#A371F7"></circle><circle cx="78.98" cy="248" r="2.6" fill="#A371F7"></circle><circle cx="90.47" cy="231.43" r="2.6" fill="#A371F7"></circle><circle cx="101.96" cy="238.89" r="2.6" fill="#A371F7"></circle><circle cx="113.45" cy="249.23" r="2.6" fill="#A371F7"></circle><circle cx="124.94" cy="244.46" r="2.6" fill="#A371F7"></circle><circle cx="136.43" cy="237.54" r="2.6" fill="#A371F7"></circle><circle cx="147.92" cy="240.86" r="2.6" fill="#A371F7"></circle><circle cx="159.41" cy="247.44" r="2.6" fill="#A371F7"></circle><circle cx="170.9" cy="240.79" r="2.6" fill="#A371F7"></circle><circle cx="182.39" cy="238.23" r="2.6" fill="#A371F7"></circle><circle cx="193.88" cy="242.67" r="2.6" fill="#A371F7"></circle><circle cx="205.37" cy="225.79" r="2.6" fill="#A371F7"></circle><circle cx="216.86" cy="243.99" r="2.6" fill="#A371F7"></circle><circle cx="228.35" cy="238.04" r="2.6" fill="#A371F7"></circle><circle cx="239.84" cy="246.87" r="2.6" fill="#A371F7"></circle><circle cx="251.33" cy="247.42" r="2.6" fill="#A371F7"></circle><circle cx="262.82" cy="226.74" r="2.6" fill="#A371F7"></circle><circle cx="274.31" cy="239.47" r="2.6" fill="#A371F7"></circle><circle cx="285.8" cy="211.96" r="2.6" fill="#A371F7"></circle><circle cx="297.29" cy="246.23" r="2.6" fill="#A371F7"></circle><circle cx="308.78" cy="249.04" r="2.6" fill="#A371F7"></circle><circle cx="320.27" cy="237.01" r="2.6" fill="#A371F7"></circle><circle cx="331.76" cy="234.98" r="2.6" fill="#A371F7"></circle><circle cx="343.25" cy="238.5" r="2.6" fill="#A371F7"></circle><circle cx="354.75" cy="240.35" r="2.6" fill="#A371F7"></circle><circle cx="366.24" cy="237.84" r="2.6" fill="#A371F7"></circle><circle cx="377.73" cy="246.71" r="2.6" fill="#A371F7"></circle><circle cx="389.22" cy="242.24" r="2.6" fill="#A371F7"></circle><circle cx="400.71" cy="238.34" r="2.6" fill="#A371F7"></circle><circle cx="412.2" cy="244.61" r="2.6" fill="#A371F7"></circle><circle cx="423.69" cy="248.91" r="2.6" fill="#A371F7"></circle><circle cx="435.18" cy="226.53" r="2.6" fill="#A371F7"></circle><circle cx="446.67" cy="244.07" r="2.6" fill="#A371F7"></circle><circle cx="458.16" cy="245.89" r="2.6" fill="#A371F7"></circle><circle cx="481.14" cy="225.3" r="2.6" fill="#A371F7"></circle><circle cx="492.63" cy="246.26" r="2.6" fill="#A371F7"></circle><circle cx="504.12" cy="237.6" r="2.6" fill="#A371F7"></circle><circle cx="527.1" cy="238.19" r="2.6" fill="#A371F7"></circle><circle cx="538.59" cy="247.14" r="2.6" fill="#A371F7"></circle><circle cx="550.08" cy="247.58" r="2.6" fill="#A371F7"></circle><circle cx="561.57" cy="243.98" r="2.6" fill="#A371F7"></circle><circle cx="573.06" cy="241.42" r="2.6" fill="#A371F7"></circle><circle cx="584.55" cy="243.75" r="2.6" fill="#A371F7"></circle><circle cx="596.04" cy="244.26" r="2.6" fill="#A371F7"></circle><circle cx="607.53" cy="242.78" r="2.6" fill="#A371F7"></circle><circle cx="619.02" cy="233.78" r="2.6" fill="#A371F7"></circle><circle cx="630.51" cy="238.08" r="2.6" fill="#A371F7"></circle><circle cx="642" cy="239.3" r="2.6" fill="#A371F7"></circle><polyline fill="none" stroke="#F0A23B" stroke-width="2.4" stroke-linejoin="round" stroke-linecap="round" points="56,176.15 67.49,166.37 78.98,95.06 90.47,183.78 101.96,178.88 113.45,182.02 124.94,170.24 136.43,169.9 147.92,166.14 159.41,173.66 170.9,166.11 182.39,167.02 193.88,169.09 205.37,176.53 216.86,161.02 228.35,174.97 239.84,168.38 251.33,173 262.82,185.38 274.31,176.24 285.8,181.63 297.29,178.09 308.78,118.27 320.27,178.67 331.76,180.72 343.25,177.62 354.75,179.5 366.24,151.31 377.73,176.94 389.22,159.91 400.71,179.22 412.2,151.49 423.69,180.65 435.18,179.71 446.67,79.16 458.16,99.74 469.65,178.4 481.14,180.3 492.63,180.24 504.12,176.88 515.61,178.65 527.1,183.45 538.59,182.56 550.08,133.59 561.57,178.99 573.06,179.14 584.55,119.51 596.04,175.85 607.53,154.88 619.02,181.28 630.51,178.3 642,178.34"></polyline><circle cx="56" cy="176.15" r="2.6" fill="#F0A23B"></circle><circle cx="67.49" cy="166.37" r="2.6" fill="#F0A23B"></circle><circle cx="78.98" cy="95.06" r="2.6" fill="#F0A23B"></circle><circle cx="90.47" cy="183.78" r="2.6" fill="#F0A23B"></circle><circle cx="101.96" cy="178.88" r="2.6" fill="#F0A23B"></circle><circle cx="113.45" cy="182.02" r="2.6" fill="#F0A23B"></circle><circle cx="124.94" cy="170.24" r="2.6" fill="#F0A23B"></circle><circle cx="136.43" cy="169.9" r="2.6" fill="#F0A23B"></circle><circle cx="147.92" cy="166.14" r="2.6" fill="#F0A23B"></circle><circle cx="159.41" cy="173.66" r="2.6" fill="#F0A23B"></circle><circle cx="170.9" cy="166.11" r="2.6" fill="#F0A23B"></circle><circle cx="182.39" cy="167.02" r="2.6" fill="#F0A23B"></circle><circle cx="193.88" cy="169.09" r="2.6" fill="#F0A23B"></circle><circle cx="205.37" cy="176.53" r="2.6" fill="#F0A23B"></circle><circle cx="216.86" cy="161.02" r="2.6" fill="#F0A23B"></circle><circle cx="228.35" cy="174.97" r="2.6" fill="#F0A23B"></circle><circle cx="239.84" cy="168.38" r="2.6" fill="#F0A23B"></circle><circle cx="251.33" cy="173" r="2.6" fill="#F0A23B"></circle><circle cx="262.82" cy="185.38" r="2.6" fill="#F0A23B"></circle><circle cx="274.31" cy="176.24" r="2.6" fill="#F0A23B"></circle><circle cx="285.8" cy="181.63" r="2.6" fill="#F0A23B"></circle><circle cx="297.29" cy="178.09" r="2.6" fill="#F0A23B"></circle><circle cx="308.78" cy="118.27" r="2.6" fill="#F0A23B"></circle><circle cx="320.27" cy="178.67" r="2.6" fill="#F0A23B"></circle><circle cx="331.76" cy="180.72" r="2.6" fill="#F0A23B"></circle><circle cx="343.25" cy="177.62" r="2.6" fill="#F0A23B"></circle><circle cx="354.75" cy="179.5" r="2.6" fill="#F0A23B"></circle><circle cx="366.24" cy="151.31" r="2.6" fill="#F0A23B"></circle><circle cx="377.73" cy="176.94" r="2.6" fill="#F0A23B"></circle><circle cx="389.22" cy="159.91" r="2.6" fill="#F0A23B"></circle><circle cx="400.71" cy="179.22" r="2.6" fill="#F0A23B"></circle><circle cx="412.2" cy="151.49" r="2.6" fill="#F0A23B"></circle><circle cx="423.69" cy="180.65" r="2.6" fill="#F0A23B"></circle><circle cx="435.18" cy="179.71" r="2.6" fill="#F0A23B"></circle><circle cx="446.67" cy="79.16" r="2.6" fill="#F0A23B"></circle><circle cx="458.16" cy="99.74" r="2.6" fill="#F0A23B"></circle><circle cx="469.65" cy="178.4" r="2.6" fill="#F0A23B"></circle><circle cx="481.14" cy="180.3" r="2.6" fill="#F0A23B"></circle><circle cx="492.63" cy="180.24" r="2.6" fill="#F0A23B"></circle><circle cx="504.12" cy="176.88" r="2.6" fill="#F0A23B"></circle><circle cx="515.61" cy="178.65" r="2.6" fill="#F0A23B"></circle><circle cx="527.1" cy="183.45" r="2.6" fill="#F0A23B"></circle><circle cx="538.59" cy="182.56" r="2.6" fill="#F0A23B"></circle><circle cx="550.08" cy="133.59" r="2.6" fill="#F0A23B"></circle><circle cx="561.57" cy="178.99" r="2.6" fill="#F0A23B"></circle><circle cx="573.06" cy="179.14" r="2.6" fill="#F0A23B"></circle><circle cx="584.55" cy="119.51" r="2.6" fill="#F0A23B"></circle><circle cx="596.04" cy="175.85" r="2.6" fill="#F0A23B"></circle><circle cx="607.53" cy="154.88" r="2.6" fill="#F0A23B"></circle><circle cx="619.02" cy="181.28" r="2.6" fill="#F0A23B"></circle><circle cx="630.51" cy="178.3" r="2.6" fill="#F0A23B"></circle><circle cx="642" cy="178.34" r="2.6" fill="#F0A23B"></circle><polyline fill="none" stroke="#1F9CF0" stroke-width="2.4" stroke-linejoin="round" stroke-linecap="round" points="56,175.5 67.49,176.2 78.98,132.71 90.47,178.27 101.96,172 113.45,174.38 124.94,174.4 136.43,170.88 147.92,173.93 159.41,173.54 170.9,100.75 182.39,168.69 193.88,173.59 205.37,174.01 216.86,167.31 228.35,117.5 239.84,166.02 251.33,174.07 262.82,141.6 274.31,169.05 285.8,167.14 297.29,174.48 308.78,150.94 320.27,171.01 331.76,52.43 343.25,157.26 354.75,171.51 366.24,136.29 377.73,169.79 389.22,106.45 400.71,170.47 412.2,175.76 423.69,174.01 435.18,174.06 446.67,151.2 458.16,173.78 469.65,169.88 481.14,177.61 492.63,137.18 504.12,114.15 515.61,168.74 527.1,168.47 538.59,130.46 550.08,174.44 561.57,175.01 573.06,171.26 584.55,176.81 596.04,171.37 607.53,161.31 619.02,135.44 630.51,169.24 642,176.14"></polyline><circle cx="56" cy="175.5" r="2.6" fill="#1F9CF0"></circle><circle cx="67.49" cy="176.2" r="2.6" fill="#1F9CF0"></circle><circle cx="78.98" cy="132.71" r="2.6" fill="#1F9CF0"></circle><circle cx="90.47" cy="178.27" r="2.6" fill="#1F9CF0"></circle><circle cx="101.96" cy="172" r="2.6" fill="#1F9CF0"></circle><circle cx="113.45" cy="174.38" r="2.6" fill="#1F9CF0"></circle><circle cx="124.94" cy="174.4" r="2.6" fill="#1F9CF0"></circle><circle cx="136.43" cy="170.88" r="2.6" fill="#1F9CF0"></circle><circle cx="147.92" cy="173.93" r="2.6" fill="#1F9CF0"></circle><circle cx="159.41" cy="173.54" r="2.6" fill="#1F9CF0"></circle><circle cx="170.9" cy="100.75" r="2.6" fill="#1F9CF0"></circle><circle cx="182.39" cy="168.69" r="2.6" fill="#1F9CF0"></circle><circle cx="193.88" cy="173.59" r="2.6" fill="#1F9CF0"></circle><circle cx="205.37" cy="174.01" r="2.6" fill="#1F9CF0"></circle><circle cx="216.86" cy="167.31" r="2.6" fill="#1F9CF0"></circle><circle cx="228.35" cy="117.5" r="2.6" fill="#1F9CF0"></circle><circle cx="239.84" cy="166.02" r="2.6" fill="#1F9CF0"></circle><circle cx="251.33" cy="174.07" r="2.6" fill="#1F9CF0"></circle><circle cx="262.82" cy="141.6" r="2.6" fill="#1F9CF0"></circle><circle cx="274.31" cy="169.05" r="2.6" fill="#1F9CF0"></circle><circle cx="285.8" cy="167.14" r="2.6" fill="#1F9CF0"></circle><circle cx="297.29" cy="174.48" r="2.6" fill="#1F9CF0"></circle><circle cx="308.78" cy="150.94" r="2.6" fill="#1F9CF0"></circle><circle cx="320.27" cy="171.01" r="2.6" fill="#1F9CF0"></circle><circle cx="331.76" cy="52.43" r="2.6" fill="#1F9CF0"></circle><circle cx="343.25" cy="157.26" r="2.6" fill="#1F9CF0"></circle><circle cx="354.75" cy="171.51" r="2.6" fill="#1F9CF0"></circle><circle cx="366.24" cy="136.29" r="2.6" fill="#1F9CF0"></circle><circle cx="377.73" cy="169.79" r="2.6" fill="#1F9CF0"></circle><circle cx="389.22" cy="106.45" r="2.6" fill="#1F9CF0"></circle><circle cx="400.71" cy="170.47" r="2.6" fill="#1F9CF0"></circle><circle cx="412.2" cy="175.76" r="2.6" fill="#1F9CF0"></circle><circle cx="423.69" cy="174.01" r="2.6" fill="#1F9CF0"></circle><circle cx="435.18" cy="174.06" r="2.6" fill="#1F9CF0"></circle><circle cx="446.67" cy="151.2" r="2.6" fill="#1F9CF0"></circle><circle cx="458.16" cy="173.78" r="2.6" fill="#1F9CF0"></circle><circle cx="469.65" cy="169.88" r="2.6" fill="#1F9CF0"></circle><circle cx="481.14" cy="177.61" r="2.6" fill="#1F9CF0"></circle><circle cx="492.63" cy="137.18" r="2.6" fill="#1F9CF0"></circle><circle cx="504.12" cy="114.15" r="2.6" fill="#1F9CF0"></circle><circle cx="515.61" cy="168.74" r="2.6" fill="#1F9CF0"></circle><circle cx="527.1" cy="168.47" r="2.6" fill="#1F9CF0"></circle><circle cx="538.59" cy="130.46" r="2.6" fill="#1F9CF0"></circle><circle cx="550.08" cy="174.44" r="2.6" fill="#1F9CF0"></circle><circle cx="561.57" cy="175.01" r="2.6" fill="#1F9CF0"></circle><circle cx="573.06" cy="171.26" r="2.6" fill="#1F9CF0"></circle><circle cx="584.55" cy="176.81" r="2.6" fill="#1F9CF0"></circle><circle cx="596.04" cy="171.37" r="2.6" fill="#1F9CF0"></circle><circle cx="607.53" cy="161.31" r="2.6" fill="#1F9CF0"></circle><circle cx="619.02" cy="135.44" r="2.6" fill="#1F9CF0"></circle><circle cx="630.51" cy="169.24" r="2.6" fill="#1F9CF0"></circle><circle cx="642" cy="176.14" r="2.6" fill="#1F9CF0"></circle><line x1="656" y1="27" x2="672" y2="27" stroke="#6366F1" stroke-width="3" stroke-linecap="round"></line><text x="678" y="30" font-size="11" font-weight="400" text-anchor="start" fill="#e6edf3">deepseek</text><line x1="656" y1="47" x2="672" y2="47" stroke="#A371F7" stroke-width="3" stroke-linecap="round"></line><text x="678" y="50" font-size="11" font-weight="400" text-anchor="start" fill="#e6edf3">llama</text><line x1="656" y1="67" x2="672" y2="67" stroke="#F0A23B" stroke-width="3" stroke-linecap="round"></line><text x="678" y="70" font-size="11" font-weight="400" text-anchor="start" fill="#e6edf3">mistral</text><line x1="656" y1="87" x2="672" y2="87" stroke="#1F9CF0" stroke-width="3" stroke-linecap="round"></line><text x="678" y="90" font-size="11" font-weight="400" text-anchor="start" fill="#e6edf3">openai</text></svg>
