<svg xmlns="http://www.w3.org/2000/svg" viewBox="0 0 760 348" width="760" height="348" role="img" aria-label="Cost per test by provider over runs — openai highest, deepseek lowest" font-family="-apple-system,BlinkMacSystemFont,'Segoe UI',system-ui,sans-serif"><line x1="56" y1="306" x2="642" y2="306" stroke="#d8dee4" stroke-width="1"></line><text x="46" y="310" font-size="9.5" font-weight="400" text-anchor="end" fill="#656d76" font-family="ui-monospace,SFMono-Regular,Menlo,monospace">$0.000</text><line x1="56" y1="235" x2="642" y2="235" stroke="#d8dee4" stroke-width="1"></line><text x="46" y="239" font-size="9.5" font-weight="400" text-anchor="end" fill="#656d76" font-family="ui-monospace,SFMono-Regular,Menlo,monospace">$0.044</text><line x1="56" y1="164" x2="642" y2="164" stroke="#d8dee4" stroke-width="1"></line><text x="46" y="168" font-size="9.5" font-weight="400" text-anchor="end" fill="#656d76" font-family="ui-monospace,SFMono-Regular,Menlo,monospace">$0.087</text><line x1="56" y1="93" x2="642" y2="93" stroke="#d8dee4" stroke-width="1"></line><text x="46" y="97" font-size="9.5" font-weight="400" text-anchor="end" fill="#656d76" font-family="ui-monospace,SFMono-Regular,Menlo,monospace">$0.131</text><line x1="56" y1="22" x2="642" y2="22" stroke="#d8dee4" stroke-width="1"></line><text x="46" y="26" font-size="9.5" font-weight="400" text-anchor="end" fill="#656d76" font-family="ui-monospace,SFMono-Regular,Menlo,monospace">$0.175</text><text x="56" y="324" font-size="9.5" font-weight="400" text-anchor="middle" fill="#656d76" font-family="ui-monospace,SFMono-Regular,Menlo,monospace">06/06</text><text x="110.51" y="324" font-size="9.5" font-weight="400" text-anchor="middle" fill="#656d76" font-family="ui-monospace,SFMono-Regular,Menlo,monospace">06/07</text><text x="165.02" y="324" font-size="9.5" font-weight="400" text-anchor="middle" fill="#656d76" font-family="ui-monospace,SFMono-Regular,Menlo,monospace">06/08</text><text x="219.53" y="324" font-size="9.5" font-weight="400" text-anchor="middle" fill="#656d76" font-family="ui-monospace,SFMono-Regular,Menlo,monospace">06/08</text><text x="274.05" y="324" font-size="9.5" font-weight="400" text-anchor="middle" fill="#656d76" font-family="ui-monospace,SFMono-Regular,Menlo,monospace">06/09</text><text x="328.56" y="324" font-size="9.5" font-weight="400" text-anchor="middle" fill="#656d76" font-family="ui-monospace,SFMono-Regular,Menlo,monospace">06/09</text><text x="383.07" y="324" font-size="9.5" font-weight="400" text-anchor="middle" fill="#656d76" font-family="ui-monospace,SFMono-Regular,Menlo,monospace">06/12</text><text x="437.58" y="324" font-size="9.5" font-weight="400" text-anchor="middle" fill="#656d76" font-family="ui-monospace,SFMono-Regular,Menlo,monospace">06/14</text><text x="492.09" y="324" font-size="9.5" font-weight="400" text-anchor="middle" fill="#656d76" font-family="ui-monospace,SFMono-Regular,Menlo,monospace">06/14</text><text x="546.6" y="324" font-size="9.5" font-weight="400" text-anchor="middle" fill="#656d76" font-family="ui-monospace,SFMono-Regular,Menlo,monospace">06/15</text><text x="601.12" y="324" font-size="9.5" font-weight="400" text-anchor="middle" fill="#656d76" font-family="ui-monospace,SFMono-Regular,Menlo,monospace">06/16</text><text x="642" y="324" font-size="9.5" font-weight="400" text-anchor="middle" fill="#656d76" font-family="ui-monospace,SFMono-Regular,Menlo,monospace">06/16</text><polyline fill="none" stroke="#6366F1" stroke-width="2.4" stroke-linejoin="round" stroke-linecap="round" points="165.02,293.36 178.65,293.43 192.28,294.1 205.91,292.89 219.53,293.14 233.16,287.31 246.79,294.31 260.42,291.77 274.05,291.82 287.67,291.36 301.3,293.02 314.93,291.8 328.56,288.55 342.19,292.06 355.81,288.85 369.44,294.29 383.07,292.11 396.7,288.48 410.33,285.75 423.95,292.13 437.58,291.04 451.21,293.66 464.84,290.08 478.47,286.94 492.09,292.77 505.72,291.68 519.35,292.47 532.98,291.27 560.23,290.7 573.86,292.91 587.49,293.34 601.12,290.78 614.74,290.99 628.37,291.6 642,292.29"></polyline><circle cx="165.02" cy="293.36" r="2.6" fill="#6366F1"></circle><circle cx="178.65" cy="293.43" r="2.6" fill="#6366F1"></circle><circle cx="192.28" cy="294.1" r="2.6" fill="#6366F1"></circle><circle cx="205.91" cy="292.89" r="2.6" fill="#6366F1"></circle><circle cx="219.53" cy="293.14" r="2.6" fill="#6366F1"></circle><circle cx="233.16" cy="287.31" r="2.6" fill="#6366F1"></circle><circle cx="246.79" cy="294.31" r="2.6" fill="#6366F1"></circle><circle cx="260.42" cy="291.77" r="2.6" fill="#6366F1"></circle><circle cx="274.05" cy="291.82" r="2.6" fill="#6366F1"></circle><circle cx="287.67" cy="291.36" r="2.6" fill="#6366F1"></circle><circle cx="301.3" cy="293.02" r="2.6" fill="#6366F1"></circle><circle cx="314.93" cy="291.8" r="2.6" fill="#6366F1"></circle><circle cx="328.56" cy="288.55" r="2.6" fill="#6366F1"></circle><circle cx="342.19" cy="292.06" r="2.6" fill="#6366F1"></circle><circle cx="355.81" cy="288.85" r="2.6" fill="#6366F1"></circle><circle cx="369.44" cy="294.29" r="2.6" fill="#6366F1"></circle><circle cx="383.07" cy="292.11" r="2.6" fill="#6366F1"></circle><circle cx="396.7" cy="288.48" r="2.6" fill="#6366F1"></circle><circle cx="410.33" cy="285.75" r="2.6" fill="#6366F1"></circle><circle cx="423.95" cy="292.13" r="2.6" fill="#6366F1"></circle><circle cx="437.58" cy="291.04" r="2.6" fill="#6366F1"></circle><circle cx="451.21" cy="293.66" r="2.6" fill="#6366F1"></circle><circle cx="464.84" cy="290.08" r="2.6" fill="#6366F1"></circle><circle cx="478.47" cy="286.94" r="2.6" fill="#6366F1"></circle><circle cx="492.09" cy="292.77" r="2.6" fill="#6366F1"></circle><circle cx="505.72" cy="291.68" r="2.6" fill="#6366F1"></circle><circle cx="519.35" cy="292.47" r="2.6" fill="#6366F1"></circle><circle cx="532.98" cy="291.27" r="2.6" fill="#6366F1"></circle><circle cx="560.23" cy="290.7" r="2.6" fill="#6366F1"></circle><circle cx="573.86" cy="292.91" r="2.6" fill="#6366F1"></circle><circle cx="587.49" cy="293.34" r="2.6" fill="#6366F1"></circle><circle cx="601.12" cy="290.78" r="2.6" fill="#6366F1"></circle><circle cx="614.74" cy="290.99" r="2.6" fill="#6366F1"></circle><circle cx="628.37" cy="291.6" r="2.6" fill="#6366F1"></circle><circle cx="642" cy="292.29" r="2.6" fill="#6366F1"></circle><polyline fill="none" stroke="#A371F7" stroke-width="2.4" stroke-linejoin="round" stroke-linecap="round" points="56,234.02 69.63,244.52 83.26,248 96.88,231.43 110.51,238.89 124.14,249.23 137.77,244.46 151.4,237.54 165.02,240.86 178.65,247.44 192.28,240.79 205.91,238.23 219.53,242.67 233.16,225.79 246.79,243.99 260.42,238.04 274.05,246.87 287.67,247.42 301.3,226.74 314.93,239.47 328.56,211.96 342.19,246.23 355.81,249.04 369.44,237.01 383.07,234.98 396.7,238.5 410.33,240.35 423.95,237.84 437.58,246.71 451.21,242.24 464.84,238.34 478.47,244.61 492.09,248.91 505.72,226.53 519.35,244.07 532.98,245.89 560.23,225.3 573.86,246.26 587.49,237.6 614.74,238.19 628.37,247.14 642,247.58"></polyline><circle cx="56" cy="234.02" r="2.6" fill="#A371F7"></circle><circle cx="69.63" cy="244.52" r="2.6" fill="#A371F7"></circle><circle cx="83.26" cy="248" r="2.6" fill="#A371F7"></circle><circle cx="96.88" cy="231.43" r="2.6" fill="#A371F7"></circle><circle cx="110.51" cy="238.89" r="2.6" fill="#A371F7"></circle><circle cx="124.14" cy="249.23" r="2.6" fill="#A371F7"></circle><circle cx="137.77" cy="244.46" r="2.6" fill="#A371F7"></circle><circle cx="151.4" cy="237.54" r="2.6" fill="#A371F7"></circle><circle cx="165.02" cy="240.86" r="2.6" fill="#A371F7"></circle><circle cx="178.65" cy="247.44" r="2.6" fill="#A371F7"></circle><circle cx="192.28" cy="240.79" r="2.6" fill="#A371F7"></circle><circle cx="205.91" cy="238.23" r="2.6" fill="#A371F7"></circle><circle cx="219.53" cy="242.67" r="2.6" fill="#A371F7"></circle><circle cx="233.16" cy="225.79" r="2.6" fill="#A371F7"></circle><circle cx="246.79" cy="243.99" r="2.6" fill="#A371F7"></circle><circle cx="260.42" cy="238.04" r="2.6" fill="#A371F7"></circle><circle cx="274.05" cy="246.87" r="2.6" fill="#A371F7"></circle><circle cx="287.67" cy="247.42" r="2.6" fill="#A371F7"></circle><circle cx="301.3" cy="226.74" r="2.6" fill="#A371F7"></circle><circle cx="314.93" cy="239.47" r="2.6" fill="#A371F7"></circle><circle cx="328.56" cy="211.96" r="2.6" fill="#A371F7"></circle><circle cx="342.19" cy="246.23" r="2.6" fill="#A371F7"></circle><circle cx="355.81" cy="249.04" r="2.6" fill="#A371F7"></circle><circle cx="369.44" cy="237.01" r="2.6" fill="#A371F7"></circle><circle cx="383.07" cy="234.98" r="2.6" fill="#A371F7"></circle><circle cx="396.7" cy="238.5" r="2.6" fill="#A371F7"></circle><circle cx="410.33" cy="240.35" r="2.6" fill="#A371F7"></circle><circle cx="423.95" cy="237.84" r="2.6" fill="#A371F7"></circle><circle cx="437.58" cy="246.71" r="2.6" fill="#A371F7"></circle><circle cx="451.21" cy="242.24" r="2.6" fill="#A371F7"></circle><circle cx="464.84" cy="238.34" r="2.6" fill="#A371F7"></circle><circle cx="478.47" cy="244.61" r="2.6" fill="#A371F7"></circle><circle cx="492.09" cy="248.91" r="2.6" fill="#A371F7"></circle><circle cx="505.72" cy="226.53" r="2.6" fill="#A371F7"></circle><circle cx="519.35" cy="244.07" r="2.6" fill="#A371F7"></circle><circle cx="532.98" cy="245.89" r="2.6" fill="#A371F7"></circle><circle cx="560.23" cy="225.3" r="2.6" fill="#A371F7"></circle><circle cx="573.86" cy="246.26" r="2.6" fill="#A371F7"></circle><circle cx="587.49" cy="237.6" r="2.6" fill="#A371F7"></circle><circle cx="614.74" cy="238.19" r="2.6" fill="#A371F7"></circle><circle cx="628.37" cy="247.14" r="2.6" fill="#A371F7"></circle><circle cx="642" cy="247.58" r="2.6" fill="#A371F7"></circle><polyline fill="none" stroke="#F0A23B" stroke-width="2.4" stroke-linejoin="round" stroke-linecap="round" points="56,176.15 69.63,166.37 83.26,95.06 96.88,183.78 110.51,178.88 124.14,182.02 137.77,170.24 151.4,169.9 165.02,166.14 178.65,173.66 192.28,166.11 205.91,167.02 219.53,169.09 233.16,176.53 246.79,161.02 260.42,174.97 274.05,168.38 287.67,173 301.3,185.38 314.93,176.24 328.56,181.63 342.19,178.09 355.81,118.27 369.44,178.67 383.07,180.72 396.7,177.62 410.33,179.5 423.95,151.31 437.58,176.94 451.21,159.91 464.84,179.22 478.47,151.49 492.09,180.65 505.72,179.71 519.35,79.16 532.98,99.74 546.6,178.4 560.23,180.3 573.86,180.24 587.49,176.88 601.12,178.65 614.74,183.45 628.37,182.56 642,133.59"></polyline><circle cx="56" cy="176.15" r="2.6" fill="#F0A23B"></circle><circle cx="69.63" cy="166.37" r="2.6" fill="#F0A23B"></circle><circle cx="83.26" cy="95.06" r="2.6" fill="#F0A23B"></circle><circle cx="96.88" cy="183.78" r="2.6" fill="#F0A23B"></circle><circle cx="110.51" cy="178.88" r="2.6" fill="#F0A23B"></circle><circle cx="124.14" cy="182.02" r="2.6" fill="#F0A23B"></circle><circle cx="137.77" cy="170.24" r="2.6" fill="#F0A23B"></circle><circle cx="151.4" cy="169.9" r="2.6" fill="#F0A23B"></circle><circle cx="165.02" cy="166.14" r="2.6" fill="#F0A23B"></circle><circle cx="178.65" cy="173.66" r="2.6" fill="#F0A23B"></circle><circle cx="192.28" cy="166.11" r="2.6" fill="#F0A23B"></circle><circle cx="205.91" cy="167.02" r="2.6" fill="#F0A23B"></circle><circle cx="219.53" cy="169.09" r="2.6" fill="#F0A23B"></circle><circle cx="233.16" cy="176.53" r="2.6" fill="#F0A23B"></circle><circle cx="246.79" cy="161.02" r="2.6" fill="#F0A23B"></circle><circle cx="260.42" cy="174.97" r="2.6" fill="#F0A23B"></circle><circle cx="274.05" cy="168.38" r="2.6" fill="#F0A23B"></circle><circle cx="287.67" cy="173" r="2.6" fill="#F0A23B"></circle><circle cx="301.3" cy="185.38" r="2.6" fill="#F0A23B"></circle><circle cx="314.93" cy="176.24" r="2.6" fill="#F0A23B"></circle><circle cx="328.56" cy="181.63" r="2.6" fill="#F0A23B"></circle><circle cx="342.19" cy="178.09" r="2.6" fill="#F0A23B"></circle><circle cx="355.81" cy="118.27" r="2.6" fill="#F0A23B"></circle><circle cx="369.44" cy="178.67" r="2.6" fill="#F0A23B"></circle><circle cx="383.07" cy="180.72" r="2.6" fill="#F0A23B"></circle><circle cx="396.7" cy="177.62" r="2.6" fill="#F0A23B"></circle><circle cx="410.33" cy="179.5" r="2.6" fill="#F0A23B"></circle><circle cx="423.95" cy="151.31" r="2.6" fill="#F0A23B"></circle><circle cx="437.58" cy="176.94" r="2.6" fill="#F0A23B"></circle><circle cx="451.21" cy="159.91" r="2.6" fill="#F0A23B"></circle><circle cx="464.84" cy="179.22" r="2.6" fill="#F0A23B"></circle><circle cx="478.47" cy="151.49" r="2.6" fill="#F0A23B"></circle><circle cx="492.09" cy="180.65" r="2.6" fill="#F0A23B"></circle><circle cx="505.72" cy="179.71" r="2.6" fill="#F0A23B"></circle><circle cx="519.35" cy="79.16" r="2.6" fill="#F0A23B"></circle><circle cx="532.98" cy="99.74" r="2.6" fill="#F0A23B"></circle><circle cx="546.6" cy="178.4" r="2.6" fill="#F0A23B"></circle><circle cx="560.23" cy="180.3" r="2.6" fill="#F0A23B"></circle><circle cx="573.86" cy="180.24" r="2.6" fill="#F0A23B"></circle><circle cx="587.49" cy="176.88" r="2.6" fill="#F0A23B"></circle><circle cx="601.12" cy="178.65" r="2.6" fill="#F0A23B"></circle><circle cx="614.74" cy="183.45" r="2.6" fill="#F0A23B"></circle><circle cx="628.37" cy="182.56" r="2.6" fill="#F0A23B"></circle><circle cx="642" cy="133.59" r="2.6" fill="#F0A23B"></circle><polyline fill="none" stroke="#1F9CF0" stroke-width="2.4" stroke-linejoin="round" stroke-linecap="round" points="56,175.5 69.63,176.2 83.26,132.71 96.88,178.27 110.51,172 124.14,174.38 137.77,174.4 151.4,170.88 165.02,173.93 178.65,173.54 192.28,100.75 205.91,168.69 219.53,173.59 233.16,174.01 246.79,167.31 260.42,117.5 274.05,166.02 287.67,174.07 301.3,141.6 314.93,169.05 328.56,167.14 342.19,174.48 355.81,150.94 369.44,171.01 383.07,52.43 396.7,157.26 410.33,171.51 423.95,136.29 437.58,169.79 451.21,106.45 464.84,170.47 478.47,175.76 492.09,174.01 505.72,174.06 519.35,151.2 532.98,173.78 546.6,169.88 560.23,177.61 573.86,137.18 587.49,114.15 601.12,168.74 614.74,168.47 628.37,130.46 642,174.44"></polyline><circle cx="56" cy="175.5" r="2.6" fill="#1F9CF0"></circle><circle cx="69.63" cy="176.2" r="2.6" fill="#1F9CF0"></circle><circle cx="83.26" cy="132.71" r="2.6" fill="#1F9CF0"></circle><circle cx="96.88" cy="178.27" r="2.6" fill="#1F9CF0"></circle><circle cx="110.51" cy="172" r="2.6" fill="#1F9CF0"></circle><circle cx="124.14" cy="174.38" r="2.6" fill="#1F9CF0"></circle><circle cx="137.77" cy="174.4" r="2.6" fill="#1F9CF0"></circle><circle cx="151.4" cy="170.88" r="2.6" fill="#1F9CF0"></circle><circle cx="165.02" cy="173.93" r="2.6" fill="#1F9CF0"></circle><circle cx="178.65" cy="173.54" r="2.6" fill="#1F9CF0"></circle><circle cx="192.28" cy="100.75" r="2.6" fill="#1F9CF0"></circle><circle cx="205.91" cy="168.69" r="2.6" fill="#1F9CF0"></circle><circle cx="219.53" cy="173.59" r="2.6" fill="#1F9CF0"></circle><circle cx="233.16" cy="174.01" r="2.6" fill="#1F9CF0"></circle><circle cx="246.79" cy="167.31" r="2.6" fill="#1F9CF0"></circle><circle cx="260.42" cy="117.5" r="2.6" fill="#1F9CF0"></circle><circle cx="274.05" cy="166.02" r="2.6" fill="#1F9CF0"></circle><circle cx="287.67" cy="174.07" r="2.6" fill="#1F9CF0"></circle><circle cx="301.3" cy="141.6" r="2.6" fill="#1F9CF0"></circle><circle cx="314.93" cy="169.05" r="2.6" fill="#1F9CF0"></circle><circle cx="328.56" cy="167.14" r="2.6" fill="#1F9CF0"></circle><circle cx="342.19" cy="174.48" r="2.6" fill="#1F9CF0"></circle><circle cx="355.81" cy="150.94" r="2.6" fill="#1F9CF0"></circle><circle cx="369.44" cy="171.01" r="2.6" fill="#1F9CF0"></circle><circle cx="383.07" cy="52.43" r="2.6" fill="#1F9CF0"></circle><circle cx="396.7" cy="157.26" r="2.6" fill="#1F9CF0"></circle><circle cx="410.33" cy="171.51" r="2.6" fill="#1F9CF0"></circle><circle cx="423.95" cy="136.29" r="2.6" fill="#1F9CF0"></circle><circle cx="437.58" cy="169.79" r="2.6" fill="#1F9CF0"></circle><circle cx="451.21" cy="106.45" r="2.6" fill="#1F9CF0"></circle><circle cx="464.84" cy="170.47" r="2.6" fill="#1F9CF0"></circle><circle cx="478.47" cy="175.76" r="2.6" fill="#1F9CF0"></circle><circle cx="492.09" cy="174.01" r="2.6" fill="#1F9CF0"></circle><circle cx="505.72" cy="174.06" r="2.6" fill="#1F9CF0"></circle><circle cx="519.35" cy="151.2" r="2.6" fill="#1F9CF0"></circle><circle cx="532.98" cy="173.78" r="2.6" fill="#1F9CF0"></circle><circle cx="546.6" cy="169.88" r="2.6" fill="#1F9CF0"></circle><circle cx="560.23" cy="177.61" r="2.6" fill="#1F9CF0"></circle><circle cx="573.86" cy="137.18" r="2.6" fill="#1F9CF0"></circle><circle cx="587.49" cy="114.15" r="2.6" fill="#1F9CF0"></circle><circle cx="601.12" cy="168.74" r="2.6" fill="#1F9CF0"></circle><circle cx="614.74" cy="168.47" r="2.6" fill="#1F9CF0"></circle><circle cx="628.37" cy="130.46" r="2.6" fill="#1F9CF0"></circle><circle cx="642" cy="174.44" r="2.6" fill="#1F9CF0"></circle><line x1="656" y1="27" x2="672" y2="27" stroke="#6366F1" stroke-width="3" stroke-linecap="round"></line><text x="678" y="30" font-size="11" font-weight="400" text-anchor="start" fill="#1f2328">deepseek</text><line x1="656" y1="47" x2="672" y2="47" stroke="#A371F7" stroke-width="3" stroke-linecap="round"></line><text x="678" y="50" font-size="11" font-weight="400" text-anchor="start" fill="#1f2328">llama</text><line x1="656" y1="67" x2="672" y2="67" stroke="#F0A23B" stroke-width="3" stroke-linecap="round"></line><text x="678" y="70" font-size="11" font-weight="400" text-anchor="start" fill="#1f2328">mistral</text><line x1="656" y1="87" x2="672" y2="87" stroke="#1F9CF0" stroke-width="3" stroke-linecap="round"></line><text x="678" y="90" font-size="11" font-weight="400" text-anchor="start" fill="#1f2328">openai</text></svg>
