<svg xmlns="http://www.w3.org/2000/svg" viewBox="0 0 760 348" width="760" height="348" role="img" aria-label="Cost per test by provider over runs — mistral highest, deepseek lowest" font-family="-apple-system,BlinkMacSystemFont,'Segoe UI',system-ui,sans-serif"><line x1="56" y1="306" x2="642" y2="306" stroke="#30363d" stroke-width="1"></line><text x="46" y="310" font-size="9.5" font-weight="400" text-anchor="end" fill="#8b949e" font-family="ui-monospace,SFMono-Regular,Menlo,monospace">$0.000</text><line x1="56" y1="235" x2="642" y2="235" stroke="#30363d" stroke-width="1"></line><text x="46" y="239" font-size="9.5" font-weight="400" text-anchor="end" fill="#8b949e" font-family="ui-monospace,SFMono-Regular,Menlo,monospace">$0.039</text><line x1="56" y1="164" x2="642" y2="164" stroke="#30363d" stroke-width="1"></line><text x="46" y="168" font-size="9.5" font-weight="400" text-anchor="end" fill="#8b949e" font-family="ui-monospace,SFMono-Regular,Menlo,monospace">$0.078</text><line x1="56" y1="93" x2="642" y2="93" stroke="#30363d" stroke-width="1"></line><text x="46" y="97" font-size="9.5" font-weight="400" text-anchor="end" fill="#8b949e" font-family="ui-monospace,SFMono-Regular,Menlo,monospace">$0.117</text><line x1="56" y1="22" x2="642" y2="22" stroke="#30363d" stroke-width="1"></line><text x="46" y="26" font-size="9.5" font-weight="400" text-anchor="end" fill="#8b949e" font-family="ui-monospace,SFMono-Regular,Menlo,monospace">$0.156</text><text x="56" y="324" font-size="9.5" font-weight="400" text-anchor="middle" fill="#8b949e" font-family="ui-monospace,SFMono-Regular,Menlo,monospace">06/06</text><text x="110.94" y="324" font-size="9.5" font-weight="400" text-anchor="middle" fill="#8b949e" font-family="ui-monospace,SFMono-Regular,Menlo,monospace">06/08</text><text x="165.88" y="324" font-size="9.5" font-weight="400" text-anchor="middle" fill="#8b949e" font-family="ui-monospace,SFMono-Regular,Menlo,monospace">06/08</text><text x="220.81" y="324" font-size="9.5" font-weight="400" text-anchor="middle" fill="#8b949e" font-family="ui-monospace,SFMono-Regular,Menlo,monospace">06/09</text><text x="275.75" y="324" font-size="9.5" font-weight="400" text-anchor="middle" fill="#8b949e" font-family="ui-monospace,SFMono-Regular,Menlo,monospace">06/12</text><text x="330.69" y="324" font-size="9.5" font-weight="400" text-anchor="middle" fill="#8b949e" font-family="ui-monospace,SFMono-Regular,Menlo,monospace">06/14</text><text x="385.62" y="324" font-size="9.5" font-weight="400" text-anchor="middle" fill="#8b949e" font-family="ui-monospace,SFMono-Regular,Menlo,monospace">06/15</text><text x="440.56" y="324" font-size="9.5" font-weight="400" text-anchor="middle" fill="#8b949e" font-family="ui-monospace,SFMono-Regular,Menlo,monospace">06/16</text><text x="495.5" y="324" font-size="9.5" font-weight="400" text-anchor="middle" fill="#8b949e" font-family="ui-monospace,SFMono-Regular,Menlo,monospace">06/17</text><text x="550.44" y="324" font-size="9.5" font-weight="400" text-anchor="middle" fill="#8b949e" font-family="ui-monospace,SFMono-Regular,Menlo,monospace">06/20</text><text x="605.38" y="324" font-size="9.5" font-weight="400" text-anchor="middle" fill="#8b949e" font-family="ui-monospace,SFMono-Regular,Menlo,monospace">06/21</text><text x="642" y="324" font-size="9.5" font-weight="400" text-anchor="middle" fill="#8b949e" font-family="ui-monospace,SFMono-Regular,Menlo,monospace">06/22</text><polyline fill="none" stroke="#6366F1" stroke-width="2.4" stroke-linejoin="round" stroke-linecap="round" points="129.25,291.87 138.41,291.95 147.56,292.7 156.72,291.35 165.88,291.63 175.03,285.11 184.19,292.93 193.34,290.09 202.5,290.15 211.66,289.63 220.81,291.49 229.97,290.13 239.12,286.49 248.28,290.42 257.44,286.82 266.59,292.91 275.75,290.47 284.91,286.41 294.06,283.36 303.22,290.5 312.38,289.27 321.53,292.21 330.69,288.21 339.84,284.69 349,291.21 358.16,289.99 367.31,290.87 376.47,289.54 394.78,288.89 403.94,291.37 413.09,291.85 422.25,288.99 431.41,289.23 440.56,289.9 449.72,290.68 458.88,291.26 468.03,291.88 486.34,292.21 495.5,292.39 504.66,290.62 513.81,289.36 522.97,289.25 532.12,282.39 541.28,289.77 550.44,286.62 559.59,288.64 568.75,286.81 577.91,290.08 587.06,291.81 596.22,292.58 605.38,280.86 614.53,292.19 623.69,290.14 632.84,286.32 642,288.84"></polyline><circle cx="129.25" cy="291.87" r="2.6" fill="#6366F1"></circle><circle cx="138.41" cy="291.95" r="2.6" fill="#6366F1"></circle><circle cx="147.56" cy="292.7" r="2.6" fill="#6366F1"></circle><circle cx="156.72" cy="291.35" r="2.6" fill="#6366F1"></circle><circle cx="165.88" cy="291.63" r="2.6" fill="#6366F1"></circle><circle cx="175.03" cy="285.11" r="2.6" fill="#6366F1"></circle><circle cx="184.19" cy="292.93" r="2.6" fill="#6366F1"></circle><circle cx="193.34" cy="290.09" r="2.6" fill="#6366F1"></circle><circle cx="202.5" cy="290.15" r="2.6" fill="#6366F1"></circle><circle cx="211.66" cy="289.63" r="2.6" fill="#6366F1"></circle><circle cx="220.81" cy="291.49" r="2.6" fill="#6366F1"></circle><circle cx="229.97" cy="290.13" r="2.6" fill="#6366F1"></circle><circle cx="239.12" cy="286.49" r="2.6" fill="#6366F1"></circle><circle cx="248.28" cy="290.42" r="2.6" fill="#6366F1"></circle><circle cx="257.44" cy="286.82" r="2.6" fill="#6366F1"></circle><circle cx="266.59" cy="292.91" r="2.6" fill="#6366F1"></circle><circle cx="275.75" cy="290.47" r="2.6" fill="#6366F1"></circle><circle cx="284.91" cy="286.41" r="2.6" fill="#6366F1"></circle><circle cx="294.06" cy="283.36" r="2.6" fill="#6366F1"></circle><circle cx="303.22" cy="290.5" r="2.6" fill="#6366F1"></circle><circle cx="312.38" cy="289.27" r="2.6" fill="#6366F1"></circle><circle cx="321.53" cy="292.21" r="2.6" fill="#6366F1"></circle><circle cx="330.69" cy="288.21" r="2.6" fill="#6366F1"></circle><circle cx="339.84" cy="284.69" r="2.6" fill="#6366F1"></circle><circle cx="349" cy="291.21" r="2.6" fill="#6366F1"></circle><circle cx="358.16" cy="289.99" r="2.6" fill="#6366F1"></circle><circle cx="367.31" cy="290.87" r="2.6" fill="#6366F1"></circle><circle cx="376.47" cy="289.54" r="2.6" fill="#6366F1"></circle><circle cx="394.78" cy="288.89" r="2.6" fill="#6366F1"></circle><circle cx="403.94" cy="291.37" r="2.6" fill="#6366F1"></circle><circle cx="413.09" cy="291.85" r="2.6" fill="#6366F1"></circle><circle cx="422.25" cy="288.99" r="2.6" fill="#6366F1"></circle><circle cx="431.41" cy="289.23" r="2.6" fill="#6366F1"></circle><circle cx="440.56" cy="289.9" r="2.6" fill="#6366F1"></circle><circle cx="449.72" cy="290.68" r="2.6" fill="#6366F1"></circle><circle cx="458.88" cy="291.26" r="2.6" fill="#6366F1"></circle><circle cx="468.03" cy="291.88" r="2.6" fill="#6366F1"></circle><circle cx="486.34" cy="292.21" r="2.6" fill="#6366F1"></circle><circle cx="495.5" cy="292.39" r="2.6" fill="#6366F1"></circle><circle cx="504.66" cy="290.62" r="2.6" fill="#6366F1"></circle><circle cx="513.81" cy="289.36" r="2.6" fill="#6366F1"></circle><circle cx="522.97" cy="289.25" r="2.6" fill="#6366F1"></circle><circle cx="532.12" cy="282.39" r="2.6" fill="#6366F1"></circle><circle cx="541.28" cy="289.77" r="2.6" fill="#6366F1"></circle><circle cx="550.44" cy="286.62" r="2.6" fill="#6366F1"></circle><circle cx="559.59" cy="288.64" r="2.6" fill="#6366F1"></circle><circle cx="568.75" cy="286.81" r="2.6" fill="#6366F1"></circle><circle cx="577.91" cy="290.08" r="2.6" fill="#6366F1"></circle><circle cx="587.06" cy="291.81" r="2.6" fill="#6366F1"></circle><circle cx="596.22" cy="292.58" r="2.6" fill="#6366F1"></circle><circle cx="605.38" cy="280.86" r="2.6" fill="#6366F1"></circle><circle cx="614.53" cy="292.19" r="2.6" fill="#6366F1"></circle><circle cx="623.69" cy="290.14" r="2.6" fill="#6366F1"></circle><circle cx="632.84" cy="286.32" r="2.6" fill="#6366F1"></circle><circle cx="642" cy="288.84" r="2.6" fill="#6366F1"></circle><polyline fill="none" stroke="#A371F7" stroke-width="2.4" stroke-linejoin="round" stroke-linecap="round" points="56,225.54 65.16,237.27 74.31,241.16 83.47,222.65 92.62,230.98 101.78,242.54 110.94,237.21 120.09,229.47 129.25,233.19 138.41,240.54 147.56,233.11 156.72,230.24 165.88,235.21 175.03,216.34 184.19,236.68 193.34,230.04 202.5,239.9 211.66,240.52 220.81,217.4 229.97,231.63 239.12,200.88 248.28,239.19 257.44,242.32 266.59,228.88 275.75,226.62 284.91,230.55 294.06,232.61 303.22,229.81 312.38,239.72 321.53,234.73 330.69,230.36 339.84,237.37 349,242.18 358.16,217.16 367.31,236.77 376.47,238.8 394.78,215.79 403.94,239.22 413.09,229.54 431.41,230.2 440.56,240.21 449.72,240.7 458.88,236.68 468.03,233.81 477.19,236.41 486.34,236.99 495.5,235.33 504.66,225.27 513.81,230.08 522.97,231.44 532.12,237.84 541.28,233.29 550.44,236.75 559.59,235.58 577.91,237.47 587.06,231.93 605.38,226.76 614.53,235.94 623.69,231.36 632.84,239.89 642,213.02"></polyline><circle cx="56" cy="225.54" r="2.6" fill="#A371F7"></circle><circle cx="65.16" cy="237.27" r="2.6" fill="#A371F7"></circle><circle cx="74.31" cy="241.16" r="2.6" fill="#A371F7"></circle><circle cx="83.47" cy="222.65" r="2.6" fill="#A371F7"></circle><circle cx="92.62" cy="230.98" r="2.6" fill="#A371F7"></circle><circle cx="101.78" cy="242.54" r="2.6" fill="#A371F7"></circle><circle cx="110.94" cy="237.21" r="2.6" fill="#A371F7"></circle><circle cx="120.09" cy="229.47" r="2.6" fill="#A371F7"></circle><circle cx="129.25" cy="233.19" r="2.6" fill="#A371F7"></circle><circle cx="138.41" cy="240.54" r="2.6" fill="#A371F7"></circle><circle cx="147.56" cy="233.11" r="2.6" fill="#A371F7"></circle><circle cx="156.72" cy="230.24" r="2.6" fill="#A371F7"></circle><circle cx="165.88" cy="235.21" r="2.6" fill="#A371F7"></circle><circle cx="175.03" cy="216.34" r="2.6" fill="#A371F7"></circle><circle cx="184.19" cy="236.68" r="2.6" fill="#A371F7"></circle><circle cx="193.34" cy="230.04" r="2.6" fill="#A371F7"></circle><circle cx="202.5" cy="239.9" r="2.6" fill="#A371F7"></circle><circle cx="211.66" cy="240.52" r="2.6" fill="#A371F7"></circle><circle cx="220.81" cy="217.4" r="2.6" fill="#A371F7"></circle><circle cx="229.97" cy="231.63" r="2.6" fill="#A371F7"></circle><circle cx="239.12" cy="200.88" r="2.6" fill="#A371F7"></circle><circle cx="248.28" cy="239.19" r="2.6" fill="#A371F7"></circle><circle cx="257.44" cy="242.32" r="2.6" fill="#A371F7"></circle><circle cx="266.59" cy="228.88" r="2.6" fill="#A371F7"></circle><circle cx="275.75" cy="226.62" r="2.6" fill="#A371F7"></circle><circle cx="284.91" cy="230.55" r="2.6" fill="#A371F7"></circle><circle cx="294.06" cy="232.61" r="2.6" fill="#A371F7"></circle><circle cx="303.22" cy="229.81" r="2.6" fill="#A371F7"></circle><circle cx="312.38" cy="239.72" r="2.6" fill="#A371F7"></circle><circle cx="321.53" cy="234.73" r="2.6" fill="#A371F7"></circle><circle cx="330.69" cy="230.36" r="2.6" fill="#A371F7"></circle><circle cx="339.84" cy="237.37" r="2.6" fill="#A371F7"></circle><circle cx="349" cy="242.18" r="2.6" fill="#A371F7"></circle><circle cx="358.16" cy="217.16" r="2.6" fill="#A371F7"></circle><circle cx="367.31" cy="236.77" r="2.6" fill="#A371F7"></circle><circle cx="376.47" cy="238.8" r="2.6" fill="#A371F7"></circle><circle cx="394.78" cy="215.79" r="2.6" fill="#A371F7"></circle><circle cx="403.94" cy="239.22" r="2.6" fill="#A371F7"></circle><circle cx="413.09" cy="229.54" r="2.6" fill="#A371F7"></circle><circle cx="431.41" cy="230.2" r="2.6" fill="#A371F7"></circle><circle cx="440.56" cy="240.21" r="2.6" fill="#A371F7"></circle><circle cx="449.72" cy="240.7" r="2.6" fill="#A371F7"></circle><circle cx="458.88" cy="236.68" r="2.6" fill="#A371F7"></circle><circle cx="468.03" cy="233.81" r="2.6" fill="#A371F7"></circle><circle cx="477.19" cy="236.41" r="2.6" fill="#A371F7"></circle><circle cx="486.34" cy="236.99" r="2.6" fill="#A371F7"></circle><circle cx="495.5" cy="235.33" r="2.6" fill="#A371F7"></circle><circle cx="504.66" cy="225.27" r="2.6" fill="#A371F7"></circle><circle cx="513.81" cy="230.08" r="2.6" fill="#A371F7"></circle><circle cx="522.97" cy="231.44" r="2.6" fill="#A371F7"></circle><circle cx="532.12" cy="237.84" r="2.6" fill="#A371F7"></circle><circle cx="541.28" cy="233.29" r="2.6" fill="#A371F7"></circle><circle cx="550.44" cy="236.75" r="2.6" fill="#A371F7"></circle><circle cx="559.59" cy="235.58" r="2.6" fill="#A371F7"></circle><circle cx="577.91" cy="237.47" r="2.6" fill="#A371F7"></circle><circle cx="587.06" cy="231.93" r="2.6" fill="#A371F7"></circle><circle cx="605.38" cy="226.76" r="2.6" fill="#A371F7"></circle><circle cx="614.53" cy="235.94" r="2.6" fill="#A371F7"></circle><circle cx="623.69" cy="231.36" r="2.6" fill="#A371F7"></circle><circle cx="632.84" cy="239.89" r="2.6" fill="#A371F7"></circle><circle cx="642" cy="213.02" r="2.6" fill="#A371F7"></circle><polyline fill="none" stroke="#F0A23B" stroke-width="2.4" stroke-linejoin="round" stroke-linecap="round" points="56,160.85 65.16,149.92 74.31,70.2 83.47,169.38 92.62,163.91 101.78,167.41 110.94,154.25 120.09,153.87 129.25,149.66 138.41,158.07 147.56,149.63 156.72,150.64 165.88,152.96 175.03,161.27 184.19,143.94 193.34,159.53 202.5,152.17 211.66,157.33 220.81,171.16 229.97,160.95 239.12,166.98 248.28,163.02 257.44,96.15 266.59,163.67 275.75,165.96 284.91,162.5 294.06,164.6 303.22,133.08 312.38,161.73 321.53,142.7 330.69,164.28 339.84,133.29 349,165.88 358.16,164.83 367.31,52.43 376.47,75.44 385.62,163.37 394.78,165.49 403.94,165.42 413.09,161.66 422.25,163.65 431.41,169.01 440.56,168.02 449.72,113.27 458.88,164.02 468.03,164.19 477.19,97.53 486.34,160.51 495.5,137.07 504.66,166.58 513.81,163.26 522.97,163.3 532.12,133.59 541.28,117.45 550.44,167.38 559.59,165.8 568.75,168.5 577.91,163.02 587.06,166.8 596.22,162.64 605.38,97.89 614.53,165.31 623.69,162.3 632.84,162.65 642,163.11"></polyline><circle cx="56" cy="160.85" r="2.6" fill="#F0A23B"></circle><circle cx="65.16" cy="149.92" r="2.6" fill="#F0A23B"></circle><circle cx="74.31" cy="70.2" r="2.6" fill="#F0A23B"></circle><circle cx="83.47" cy="169.38" r="2.6" fill="#F0A23B"></circle><circle cx="92.62" cy="163.91" r="2.6" fill="#F0A23B"></circle><circle cx="101.78" cy="167.41" r="2.6" fill="#F0A23B"></circle><circle cx="110.94" cy="154.25" r="2.6" fill="#F0A23B"></circle><circle cx="120.09" cy="153.87" r="2.6" fill="#F0A23B"></circle><circle cx="129.25" cy="149.66" r="2.6" fill="#F0A23B"></circle><circle cx="138.41" cy="158.07" r="2.6" fill="#F0A23B"></circle><circle cx="147.56" cy="149.63" r="2.6" fill="#F0A23B"></circle><circle cx="156.72" cy="150.64" r="2.6" fill="#F0A23B"></circle><circle cx="165.88" cy="152.96" r="2.6" fill="#F0A23B"></circle><circle cx="175.03" cy="161.27" r="2.6" fill="#F0A23B"></circle><circle cx="184.19" cy="143.94" r="2.6" fill="#F0A23B"></circle><circle cx="193.34" cy="159.53" r="2.6" fill="#F0A23B"></circle><circle cx="202.5" cy="152.17" r="2.6" fill="#F0A23B"></circle><circle cx="211.66" cy="157.33" r="2.6" fill="#F0A23B"></circle><circle cx="220.81" cy="171.16" r="2.6" fill="#F0A23B"></circle><circle cx="229.97" cy="160.95" r="2.6" fill="#F0A23B"></circle><circle cx="239.12" cy="166.98" r="2.6" fill="#F0A23B"></circle><circle cx="248.28" cy="163.02" r="2.6" fill="#F0A23B"></circle><circle cx="257.44" cy="96.15" r="2.6" fill="#F0A23B"></circle><circle cx="266.59" cy="163.67" r="2.6" fill="#F0A23B"></circle><circle cx="275.75" cy="165.96" r="2.6" fill="#F0A23B"></circle><circle cx="284.91" cy="162.5" r="2.6" fill="#F0A23B"></circle><circle cx="294.06" cy="164.6" r="2.6" fill="#F0A23B"></circle><circle cx="303.22" cy="133.08" r="2.6" fill="#F0A23B"></circle><circle cx="312.38" cy="161.73" r="2.6" fill="#F0A23B"></circle><circle cx="321.53" cy="142.7" r="2.6" fill="#F0A23B"></circle><circle cx="330.69" cy="164.28" r="2.6" fill="#F0A23B"></circle><circle cx="339.84" cy="133.29" r="2.6" fill="#F0A23B"></circle><circle cx="349" cy="165.88" r="2.6" fill="#F0A23B"></circle><circle cx="358.16" cy="164.83" r="2.6" fill="#F0A23B"></circle><circle cx="367.31" cy="52.43" r="2.6" fill="#F0A23B"></circle><circle cx="376.47" cy="75.44" r="2.6" fill="#F0A23B"></circle><circle cx="385.62" cy="163.37" r="2.6" fill="#F0A23B"></circle><circle cx="394.78" cy="165.49" r="2.6" fill="#F0A23B"></circle><circle cx="403.94" cy="165.42" r="2.6" fill="#F0A23B"></circle><circle cx="413.09" cy="161.66" r="2.6" fill="#F0A23B"></circle><circle cx="422.25" cy="163.65" r="2.6" fill="#F0A23B"></circle><circle cx="431.41" cy="169.01" r="2.6" fill="#F0A23B"></circle><circle cx="440.56" cy="168.02" r="2.6" fill="#F0A23B"></circle><circle cx="449.72" cy="113.27" r="2.6" fill="#F0A23B"></circle><circle cx="458.88" cy="164.02" r="2.6" fill="#F0A23B"></circle><circle cx="468.03" cy="164.19" r="2.6" fill="#F0A23B"></circle><circle cx="477.19" cy="97.53" r="2.6" fill="#F0A23B"></circle><circle cx="486.34" cy="160.51" r="2.6" fill="#F0A23B"></circle><circle cx="495.5" cy="137.07" r="2.6" fill="#F0A23B"></circle><circle cx="504.66" cy="166.58" r="2.6" fill="#F0A23B"></circle><circle cx="513.81" cy="163.26" r="2.6" fill="#F0A23B"></circle><circle cx="522.97" cy="163.3" r="2.6" fill="#F0A23B"></circle><circle cx="532.12" cy="133.59" r="2.6" fill="#F0A23B"></circle><circle cx="541.28" cy="117.45" r="2.6" fill="#F0A23B"></circle><circle cx="550.44" cy="167.38" r="2.6" fill="#F0A23B"></circle><circle cx="559.59" cy="165.8" r="2.6" fill="#F0A23B"></circle><circle cx="568.75" cy="168.5" r="2.6" fill="#F0A23B"></circle><circle cx="577.91" cy="163.02" r="2.6" fill="#F0A23B"></circle><circle cx="587.06" cy="166.8" r="2.6" fill="#F0A23B"></circle><circle cx="596.22" cy="162.64" r="2.6" fill="#F0A23B"></circle><circle cx="605.38" cy="97.89" r="2.6" fill="#F0A23B"></circle><circle cx="614.53" cy="165.31" r="2.6" fill="#F0A23B"></circle><circle cx="623.69" cy="162.3" r="2.6" fill="#F0A23B"></circle><circle cx="632.84" cy="162.65" r="2.6" fill="#F0A23B"></circle><circle cx="642" cy="163.11" r="2.6" fill="#F0A23B"></circle><line x1="656" y1="27" x2="672" y2="27" stroke="#6366F1" stroke-width="3" stroke-linecap="round"></line><text x="678" y="30" font-size="11" font-weight="400" text-anchor="start" fill="#e6edf3">deepseek</text><line x1="656" y1="47" x2="672" y2="47" stroke="#A371F7" stroke-width="3" stroke-linecap="round"></line><text x="678" y="50" font-size="11" font-weight="400" text-anchor="start" fill="#e6edf3">llama</text><line x1="656" y1="67" x2="672" y2="67" stroke="#F0A23B" stroke-width="3" stroke-linecap="round"></line><text x="678" y="70" font-size="11" font-weight="400" text-anchor="start" fill="#e6edf3">mistral</text></svg>
