<svg xmlns="http://www.w3.org/2000/svg" viewBox="0 0 760 348" width="760" height="348" role="img" aria-label="Cost per test by provider over runs — mistral highest, deepseek lowest" font-family="-apple-system,BlinkMacSystemFont,'Segoe UI',system-ui,sans-serif"><line x1="56" y1="306" x2="642" y2="306" stroke="#d8dee4" stroke-width="1"></line><text x="46" y="310" font-size="9.5" font-weight="400" text-anchor="end" fill="#656d76" font-family="ui-monospace,SFMono-Regular,Menlo,monospace">$0.000</text><line x1="56" y1="235" x2="642" y2="235" stroke="#d8dee4" stroke-width="1"></line><text x="46" y="239" font-size="9.5" font-weight="400" text-anchor="end" fill="#656d76" font-family="ui-monospace,SFMono-Regular,Menlo,monospace">$0.039</text><line x1="56" y1="164" x2="642" y2="164" stroke="#d8dee4" stroke-width="1"></line><text x="46" y="168" font-size="9.5" font-weight="400" text-anchor="end" fill="#656d76" font-family="ui-monospace,SFMono-Regular,Menlo,monospace">$0.079</text><line x1="56" y1="93" x2="642" y2="93" stroke="#d8dee4" stroke-width="1"></line><text x="46" y="97" font-size="9.5" font-weight="400" text-anchor="end" fill="#656d76" font-family="ui-monospace,SFMono-Regular,Menlo,monospace">$0.118</text><line x1="56" y1="22" x2="642" y2="22" stroke="#d8dee4" stroke-width="1"></line><text x="46" y="26" font-size="9.5" font-weight="400" text-anchor="end" fill="#656d76" font-family="ui-monospace,SFMono-Regular,Menlo,monospace">$0.158</text><text x="56" y="324" font-size="9.5" font-weight="400" text-anchor="middle" fill="#656d76" font-family="ui-monospace,SFMono-Regular,Menlo,monospace">06/06</text><text x="109.27" y="324" font-size="9.5" font-weight="400" text-anchor="middle" fill="#656d76" font-family="ui-monospace,SFMono-Regular,Menlo,monospace">06/08</text><text x="162.55" y="324" font-size="9.5" font-weight="400" text-anchor="middle" fill="#656d76" font-family="ui-monospace,SFMono-Regular,Menlo,monospace">06/09</text><text x="215.82" y="324" font-size="9.5" font-weight="400" text-anchor="middle" fill="#656d76" font-family="ui-monospace,SFMono-Regular,Menlo,monospace">06/10</text><text x="269.09" y="324" font-size="9.5" font-weight="400" text-anchor="middle" fill="#656d76" font-family="ui-monospace,SFMono-Regular,Menlo,monospace">06/14</text><text x="322.36" y="324" font-size="9.5" font-weight="400" text-anchor="middle" fill="#656d76" font-family="ui-monospace,SFMono-Regular,Menlo,monospace">06/15</text><text x="375.64" y="324" font-size="9.5" font-weight="400" text-anchor="middle" fill="#656d76" font-family="ui-monospace,SFMono-Regular,Menlo,monospace">06/16</text><text x="428.91" y="324" font-size="9.5" font-weight="400" text-anchor="middle" fill="#656d76" font-family="ui-monospace,SFMono-Regular,Menlo,monospace">06/18</text><text x="482.18" y="324" font-size="9.5" font-weight="400" text-anchor="middle" fill="#656d76" font-family="ui-monospace,SFMono-Regular,Menlo,monospace">06/20</text><text x="535.45" y="324" font-size="9.5" font-weight="400" text-anchor="middle" fill="#656d76" font-family="ui-monospace,SFMono-Regular,Menlo,monospace">06/22</text><text x="588.73" y="324" font-size="9.5" font-weight="400" text-anchor="middle" fill="#656d76" font-family="ui-monospace,SFMono-Regular,Menlo,monospace">06/23</text><text x="642" y="324" font-size="9.5" font-weight="400" text-anchor="middle" fill="#656d76" font-family="ui-monospace,SFMono-Regular,Menlo,monospace">06/24</text><polyline fill="none" stroke="#6366F1" stroke-width="2.4" stroke-linejoin="round" stroke-linecap="round" points="116.88,291.99 124.49,292.07 132.1,292.82 139.71,291.48 147.32,291.75 154.94,285.29 162.55,293.05 170.16,290.23 177.77,290.29 185.38,289.78 192.99,291.61 200.6,290.27 208.21,286.66 215.82,290.55 223.43,286.99 231.04,293.02 238.65,290.61 246.26,286.59 253.87,283.56 261.48,290.63 269.09,289.42 276.7,292.33 284.31,288.36 291.92,284.88 299.53,291.34 307.14,290.13 314.75,291.01 322.36,289.68 337.58,289.04 345.19,291.5 352.81,291.97 360.42,289.14 368.03,289.37 375.64,290.04 383.25,290.81 390.86,291.39 398.47,292 413.69,292.33 421.3,292.51 428.91,290.75 436.52,289.5 444.13,289.4 451.74,282.59 459.35,289.91 466.96,286.79 474.57,288.79 482.18,286.98 489.79,290.22 497.4,291.94 505.01,292.7 512.62,281.08 520.23,292.31 527.84,290.28 535.45,286.5 543.06,289 550.68,289.95 558.29,291.41 565.9,290.81 573.51,291 581.12,290.42 588.73,289.99 596.34,284.38 603.95,292.31 611.56,291.62 619.17,287.31 626.78,291.89 634.39,292.21 642,288.97"></polyline><circle cx="116.88" cy="291.99" r="2.6" fill="#6366F1"></circle><circle cx="124.49" cy="292.07" r="2.6" fill="#6366F1"></circle><circle cx="132.1" cy="292.82" r="2.6" fill="#6366F1"></circle><circle cx="139.71" cy="291.48" r="2.6" fill="#6366F1"></circle><circle cx="147.32" cy="291.75" r="2.6" fill="#6366F1"></circle><circle cx="154.94" cy="285.29" r="2.6" fill="#6366F1"></circle><circle cx="162.55" cy="293.05" r="2.6" fill="#6366F1"></circle><circle cx="170.16" cy="290.23" r="2.6" fill="#6366F1"></circle><circle cx="177.77" cy="290.29" r="2.6" fill="#6366F1"></circle><circle cx="185.38" cy="289.78" r="2.6" fill="#6366F1"></circle><circle cx="192.99" cy="291.61" r="2.6" fill="#6366F1"></circle><circle cx="200.6" cy="290.27" r="2.6" fill="#6366F1"></circle><circle cx="208.21" cy="286.66" r="2.6" fill="#6366F1"></circle><circle cx="215.82" cy="290.55" r="2.6" fill="#6366F1"></circle><circle cx="223.43" cy="286.99" r="2.6" fill="#6366F1"></circle><circle cx="231.04" cy="293.02" r="2.6" fill="#6366F1"></circle><circle cx="238.65" cy="290.61" r="2.6" fill="#6366F1"></circle><circle cx="246.26" cy="286.59" r="2.6" fill="#6366F1"></circle><circle cx="253.87" cy="283.56" r="2.6" fill="#6366F1"></circle><circle cx="261.48" cy="290.63" r="2.6" fill="#6366F1"></circle><circle cx="269.09" cy="289.42" r="2.6" fill="#6366F1"></circle><circle cx="276.7" cy="292.33" r="2.6" fill="#6366F1"></circle><circle cx="284.31" cy="288.36" r="2.6" fill="#6366F1"></circle><circle cx="291.92" cy="284.88" r="2.6" fill="#6366F1"></circle><circle cx="299.53" cy="291.34" r="2.6" fill="#6366F1"></circle><circle cx="307.14" cy="290.13" r="2.6" fill="#6366F1"></circle><circle cx="314.75" cy="291.01" r="2.6" fill="#6366F1"></circle><circle cx="322.36" cy="289.68" r="2.6" fill="#6366F1"></circle><circle cx="337.58" cy="289.04" r="2.6" fill="#6366F1"></circle><circle cx="345.19" cy="291.5" r="2.6" fill="#6366F1"></circle><circle cx="352.81" cy="291.97" r="2.6" fill="#6366F1"></circle><circle cx="360.42" cy="289.14" r="2.6" fill="#6366F1"></circle><circle cx="368.03" cy="289.37" r="2.6" fill="#6366F1"></circle><circle cx="375.64" cy="290.04" r="2.6" fill="#6366F1"></circle><circle cx="383.25" cy="290.81" r="2.6" fill="#6366F1"></circle><circle cx="390.86" cy="291.39" r="2.6" fill="#6366F1"></circle><circle cx="398.47" cy="292" r="2.6" fill="#6366F1"></circle><circle cx="413.69" cy="292.33" r="2.6" fill="#6366F1"></circle><circle cx="421.3" cy="292.51" r="2.6" fill="#6366F1"></circle><circle cx="428.91" cy="290.75" r="2.6" fill="#6366F1"></circle><circle cx="436.52" cy="289.5" r="2.6" fill="#6366F1"></circle><circle cx="444.13" cy="289.4" r="2.6" fill="#6366F1"></circle><circle cx="451.74" cy="282.59" r="2.6" fill="#6366F1"></circle><circle cx="459.35" cy="289.91" r="2.6" fill="#6366F1"></circle><circle cx="466.96" cy="286.79" r="2.6" fill="#6366F1"></circle><circle cx="474.57" cy="288.79" r="2.6" fill="#6366F1"></circle><circle cx="482.18" cy="286.98" r="2.6" fill="#6366F1"></circle><circle cx="489.79" cy="290.22" r="2.6" fill="#6366F1"></circle><circle cx="497.4" cy="291.94" r="2.6" fill="#6366F1"></circle><circle cx="505.01" cy="292.7" r="2.6" fill="#6366F1"></circle><circle cx="512.62" cy="281.08" r="2.6" fill="#6366F1"></circle><circle cx="520.23" cy="292.31" r="2.6" fill="#6366F1"></circle><circle cx="527.84" cy="290.28" r="2.6" fill="#6366F1"></circle><circle cx="535.45" cy="286.5" r="2.6" fill="#6366F1"></circle><circle cx="543.06" cy="289" r="2.6" fill="#6366F1"></circle><circle cx="550.68" cy="289.95" r="2.6" fill="#6366F1"></circle><circle cx="558.29" cy="291.41" r="2.6" fill="#6366F1"></circle><circle cx="565.9" cy="290.81" r="2.6" fill="#6366F1"></circle><circle cx="573.51" cy="291" r="2.6" fill="#6366F1"></circle><circle cx="581.12" cy="290.42" r="2.6" fill="#6366F1"></circle><circle cx="588.73" cy="289.99" r="2.6" fill="#6366F1"></circle><circle cx="596.34" cy="284.38" r="2.6" fill="#6366F1"></circle><circle cx="603.95" cy="292.31" r="2.6" fill="#6366F1"></circle><circle cx="611.56" cy="291.62" r="2.6" fill="#6366F1"></circle><circle cx="619.17" cy="287.31" r="2.6" fill="#6366F1"></circle><circle cx="626.78" cy="291.89" r="2.6" fill="#6366F1"></circle><circle cx="634.39" cy="292.21" r="2.6" fill="#6366F1"></circle><circle cx="642" cy="288.97" r="2.6" fill="#6366F1"></circle><polyline fill="none" stroke="#A371F7" stroke-width="2.4" stroke-linejoin="round" stroke-linecap="round" points="56,226.25 63.61,237.88 71.22,241.73 78.83,223.38 86.44,231.64 94.05,243.09 101.66,237.81 109.27,230.14 116.88,233.83 124.49,241.12 132.1,233.75 139.71,230.9 147.32,235.83 154.94,217.13 162.55,237.29 170.16,230.7 177.77,240.49 185.38,241.09 192.99,218.17 200.6,232.28 208.21,201.8 215.82,239.78 223.43,242.88 231.04,229.56 238.65,227.31 246.26,231.21 253.87,233.26 261.48,230.48 269.09,240.31 276.7,235.36 284.31,231.03 291.92,237.98 299.53,242.74 307.14,217.94 314.75,237.38 322.36,239.39 337.58,216.58 345.19,239.81 352.81,230.21 368.03,230.86 375.64,240.78 383.25,241.27 390.86,237.28 398.47,234.45 406.08,237.03 413.69,237.6 421.3,235.95 428.91,225.98 436.52,230.74 444.13,232.09 451.74,238.44 459.35,233.93 466.96,237.36 474.57,236.2 489.79,238.07 497.4,232.58 512.62,227.45 520.23,236.55 527.84,232.02 535.45,240.47 543.06,213.84 550.68,238.7 558.29,238.88 565.9,241.18 573.51,233.39 581.12,234.63 588.73,239.11 603.95,240.21 611.56,229.42 619.17,240.04 626.78,237.25 634.39,239.83 642,241.26"></polyline><circle cx="56" cy="226.25" r="2.6" fill="#A371F7"></circle><circle cx="63.61" cy="237.88" r="2.6" fill="#A371F7"></circle><circle cx="71.22" cy="241.73" r="2.6" fill="#A371F7"></circle><circle cx="78.83" cy="223.38" r="2.6" fill="#A371F7"></circle><circle cx="86.44" cy="231.64" r="2.6" fill="#A371F7"></circle><circle cx="94.05" cy="243.09" r="2.6" fill="#A371F7"></circle><circle cx="101.66" cy="237.81" r="2.6" fill="#A371F7"></circle><circle cx="109.27" cy="230.14" r="2.6" fill="#A371F7"></circle><circle cx="116.88" cy="233.83" r="2.6" fill="#A371F7"></circle><circle cx="124.49" cy="241.12" r="2.6" fill="#A371F7"></circle><circle cx="132.1" cy="233.75" r="2.6" fill="#A371F7"></circle><circle cx="139.71" cy="230.9" r="2.6" fill="#A371F7"></circle><circle cx="147.32" cy="235.83" r="2.6" fill="#A371F7"></circle><circle cx="154.94" cy="217.13" r="2.6" fill="#A371F7"></circle><circle cx="162.55" cy="237.29" r="2.6" fill="#A371F7"></circle><circle cx="170.16" cy="230.7" r="2.6" fill="#A371F7"></circle><circle cx="177.77" cy="240.49" r="2.6" fill="#A371F7"></circle><circle cx="185.38" cy="241.09" r="2.6" fill="#A371F7"></circle><circle cx="192.99" cy="218.17" r="2.6" fill="#A371F7"></circle><circle cx="200.6" cy="232.28" r="2.6" fill="#A371F7"></circle><circle cx="208.21" cy="201.8" r="2.6" fill="#A371F7"></circle><circle cx="215.82" cy="239.78" r="2.6" fill="#A371F7"></circle><circle cx="223.43" cy="242.88" r="2.6" fill="#A371F7"></circle><circle cx="231.04" cy="229.56" r="2.6" fill="#A371F7"></circle><circle cx="238.65" cy="227.31" r="2.6" fill="#A371F7"></circle><circle cx="246.26" cy="231.21" r="2.6" fill="#A371F7"></circle><circle cx="253.87" cy="233.26" r="2.6" fill="#A371F7"></circle><circle cx="261.48" cy="230.48" r="2.6" fill="#A371F7"></circle><circle cx="269.09" cy="240.31" r="2.6" fill="#A371F7"></circle><circle cx="276.7" cy="235.36" r="2.6" fill="#A371F7"></circle><circle cx="284.31" cy="231.03" r="2.6" fill="#A371F7"></circle><circle cx="291.92" cy="237.98" r="2.6" fill="#A371F7"></circle><circle cx="299.53" cy="242.74" r="2.6" fill="#A371F7"></circle><circle cx="307.14" cy="217.94" r="2.6" fill="#A371F7"></circle><circle cx="314.75" cy="237.38" r="2.6" fill="#A371F7"></circle><circle cx="322.36" cy="239.39" r="2.6" fill="#A371F7"></circle><circle cx="337.58" cy="216.58" r="2.6" fill="#A371F7"></circle><circle cx="345.19" cy="239.81" r="2.6" fill="#A371F7"></circle><circle cx="352.81" cy="230.21" r="2.6" fill="#A371F7"></circle><circle cx="368.03" cy="230.86" r="2.6" fill="#A371F7"></circle><circle cx="375.64" cy="240.78" r="2.6" fill="#A371F7"></circle><circle cx="383.25" cy="241.27" r="2.6" fill="#A371F7"></circle><circle cx="390.86" cy="237.28" r="2.6" fill="#A371F7"></circle><circle cx="398.47" cy="234.45" r="2.6" fill="#A371F7"></circle><circle cx="406.08" cy="237.03" r="2.6" fill="#A371F7"></circle><circle cx="413.69" cy="237.6" r="2.6" fill="#A371F7"></circle><circle cx="421.3" cy="235.95" r="2.6" fill="#A371F7"></circle><circle cx="428.91" cy="225.98" r="2.6" fill="#A371F7"></circle><circle cx="436.52" cy="230.74" r="2.6" fill="#A371F7"></circle><circle cx="444.13" cy="232.09" r="2.6" fill="#A371F7"></circle><circle cx="451.74" cy="238.44" r="2.6" fill="#A371F7"></circle><circle cx="459.35" cy="233.93" r="2.6" fill="#A371F7"></circle><circle cx="466.96" cy="237.36" r="2.6" fill="#A371F7"></circle><circle cx="474.57" cy="236.2" r="2.6" fill="#A371F7"></circle><circle cx="489.79" cy="238.07" r="2.6" fill="#A371F7"></circle><circle cx="497.4" cy="232.58" r="2.6" fill="#A371F7"></circle><circle cx="512.62" cy="227.45" r="2.6" fill="#A371F7"></circle><circle cx="520.23" cy="236.55" r="2.6" fill="#A371F7"></circle><circle cx="527.84" cy="232.02" r="2.6" fill="#A371F7"></circle><circle cx="535.45" cy="240.47" r="2.6" fill="#A371F7"></circle><circle cx="543.06" cy="213.84" r="2.6" fill="#A371F7"></circle><circle cx="550.68" cy="238.7" r="2.6" fill="#A371F7"></circle><circle cx="558.29" cy="238.88" r="2.6" fill="#A371F7"></circle><circle cx="565.9" cy="241.18" r="2.6" fill="#A371F7"></circle><circle cx="573.51" cy="233.39" r="2.6" fill="#A371F7"></circle><circle cx="581.12" cy="234.63" r="2.6" fill="#A371F7"></circle><circle cx="588.73" cy="239.11" r="2.6" fill="#A371F7"></circle><circle cx="603.95" cy="240.21" r="2.6" fill="#A371F7"></circle><circle cx="611.56" cy="229.42" r="2.6" fill="#A371F7"></circle><circle cx="619.17" cy="240.04" r="2.6" fill="#A371F7"></circle><circle cx="626.78" cy="237.25" r="2.6" fill="#A371F7"></circle><circle cx="634.39" cy="239.83" r="2.6" fill="#A371F7"></circle><circle cx="642" cy="241.26" r="2.6" fill="#A371F7"></circle><polyline fill="none" stroke="#F0A23B" stroke-width="2.4" stroke-linejoin="round" stroke-linecap="round" points="56,162.13 63.61,151.29 71.22,72.27 78.83,170.58 86.44,165.15 94.05,168.63 101.66,155.58 109.27,155.2 116.88,151.03 124.49,159.37 132.1,151 139.71,152 147.32,154.31 154.94,162.54 162.55,145.36 170.16,160.82 177.77,153.52 185.38,158.63 192.99,172.35 200.6,162.23 208.21,168.2 215.82,164.28 223.43,98 231.04,164.92 238.65,167.19 246.26,163.76 253.87,165.84 261.48,134.6 269.09,163 276.7,144.13 284.31,165.52 291.92,134.8 299.53,167.11 307.14,166.07 314.75,54.66 322.36,77.46 329.97,164.62 337.58,166.72 345.19,166.65 352.81,162.93 360.42,164.9 368.03,170.21 375.64,169.23 383.25,114.96 390.86,165.27 398.47,165.44 406.08,99.36 413.69,161.79 421.3,138.56 428.91,167.81 436.52,164.51 444.13,164.55 451.74,135.11 459.35,119.1 466.96,168.6 474.57,167.03 482.18,169.7 489.79,164.27 497.4,168.02 505.01,163.89 512.62,99.72 520.23,166.55 527.84,163.57 535.45,163.91 543.06,164.36 550.68,166.86 558.29,166.95 565.9,52.43 573.51,166.52 581.12,165.82 588.73,164.59 603.95,164.21 611.56,164.24 619.17,161.69 626.78,156.02 634.39,164.92 642,166.5"></polyline><circle cx="56" cy="162.13" r="2.6" fill="#F0A23B"></circle><circle cx="63.61" cy="151.29" r="2.6" fill="#F0A23B"></circle><circle cx="71.22" cy="72.27" r="2.6" fill="#F0A23B"></circle><circle cx="78.83" cy="170.58" r="2.6" fill="#F0A23B"></circle><circle cx="86.44" cy="165.15" r="2.6" fill="#F0A23B"></circle><circle cx="94.05" cy="168.63" r="2.6" fill="#F0A23B"></circle><circle cx="101.66" cy="155.58" r="2.6" fill="#F0A23B"></circle><circle cx="109.27" cy="155.2" r="2.6" fill="#F0A23B"></circle><circle cx="116.88" cy="151.03" r="2.6" fill="#F0A23B"></circle><circle cx="124.49" cy="159.37" r="2.6" fill="#F0A23B"></circle><circle cx="132.1" cy="151" r="2.6" fill="#F0A23B"></circle><circle cx="139.71" cy="152" r="2.6" fill="#F0A23B"></circle><circle cx="147.32" cy="154.31" r="2.6" fill="#F0A23B"></circle><circle cx="154.94" cy="162.54" r="2.6" fill="#F0A23B"></circle><circle cx="162.55" cy="145.36" r="2.6" fill="#F0A23B"></circle><circle cx="170.16" cy="160.82" r="2.6" fill="#F0A23B"></circle><circle cx="177.77" cy="153.52" r="2.6" fill="#F0A23B"></circle><circle cx="185.38" cy="158.63" r="2.6" fill="#F0A23B"></circle><circle cx="192.99" cy="172.35" r="2.6" fill="#F0A23B"></circle><circle cx="200.6" cy="162.23" r="2.6" fill="#F0A23B"></circle><circle cx="208.21" cy="168.2" r="2.6" fill="#F0A23B"></circle><circle cx="215.82" cy="164.28" r="2.6" fill="#F0A23B"></circle><circle cx="223.43" cy="98" r="2.6" fill="#F0A23B"></circle><circle cx="231.04" cy="164.92" r="2.6" fill="#F0A23B"></circle><circle cx="238.65" cy="167.19" r="2.6" fill="#F0A23B"></circle><circle cx="246.26" cy="163.76" r="2.6" fill="#F0A23B"></circle><circle cx="253.87" cy="165.84" r="2.6" fill="#F0A23B"></circle><circle cx="261.48" cy="134.6" r="2.6" fill="#F0A23B"></circle><circle cx="269.09" cy="163" r="2.6" fill="#F0A23B"></circle><circle cx="276.7" cy="144.13" r="2.6" fill="#F0A23B"></circle><circle cx="284.31" cy="165.52" r="2.6" fill="#F0A23B"></circle><circle cx="291.92" cy="134.8" r="2.6" fill="#F0A23B"></circle><circle cx="299.53" cy="167.11" r="2.6" fill="#F0A23B"></circle><circle cx="307.14" cy="166.07" r="2.6" fill="#F0A23B"></circle><circle cx="314.75" cy="54.66" r="2.6" fill="#F0A23B"></circle><circle cx="322.36" cy="77.46" r="2.6" fill="#F0A23B"></circle><circle cx="329.97" cy="164.62" r="2.6" fill="#F0A23B"></circle><circle cx="337.58" cy="166.72" r="2.6" fill="#F0A23B"></circle><circle cx="345.19" cy="166.65" r="2.6" fill="#F0A23B"></circle><circle cx="352.81" cy="162.93" r="2.6" fill="#F0A23B"></circle><circle cx="360.42" cy="164.9" r="2.6" fill="#F0A23B"></circle><circle cx="368.03" cy="170.21" r="2.6" fill="#F0A23B"></circle><circle cx="375.64" cy="169.23" r="2.6" fill="#F0A23B"></circle><circle cx="383.25" cy="114.96" r="2.6" fill="#F0A23B"></circle><circle cx="390.86" cy="165.27" r="2.6" fill="#F0A23B"></circle><circle cx="398.47" cy="165.44" r="2.6" fill="#F0A23B"></circle><circle cx="406.08" cy="99.36" r="2.6" fill="#F0A23B"></circle><circle cx="413.69" cy="161.79" r="2.6" fill="#F0A23B"></circle><circle cx="421.3" cy="138.56" r="2.6" fill="#F0A23B"></circle><circle cx="428.91" cy="167.81" r="2.6" fill="#F0A23B"></circle><circle cx="436.52" cy="164.51" r="2.6" fill="#F0A23B"></circle><circle cx="444.13" cy="164.55" r="2.6" fill="#F0A23B"></circle><circle cx="451.74" cy="135.11" r="2.6" fill="#F0A23B"></circle><circle cx="459.35" cy="119.1" r="2.6" fill="#F0A23B"></circle><circle cx="466.96" cy="168.6" r="2.6" fill="#F0A23B"></circle><circle cx="474.57" cy="167.03" r="2.6" fill="#F0A23B"></circle><circle cx="482.18" cy="169.7" r="2.6" fill="#F0A23B"></circle><circle cx="489.79" cy="164.27" r="2.6" fill="#F0A23B"></circle><circle cx="497.4" cy="168.02" r="2.6" fill="#F0A23B"></circle><circle cx="505.01" cy="163.89" r="2.6" fill="#F0A23B"></circle><circle cx="512.62" cy="99.72" r="2.6" fill="#F0A23B"></circle><circle cx="520.23" cy="166.55" r="2.6" fill="#F0A23B"></circle><circle cx="527.84" cy="163.57" r="2.6" fill="#F0A23B"></circle><circle cx="535.45" cy="163.91" r="2.6" fill="#F0A23B"></circle><circle cx="543.06" cy="164.36" r="2.6" fill="#F0A23B"></circle><circle cx="550.68" cy="166.86" r="2.6" fill="#F0A23B"></circle><circle cx="558.29" cy="166.95" r="2.6" fill="#F0A23B"></circle><circle cx="565.9" cy="52.43" r="2.6" fill="#F0A23B"></circle><circle cx="573.51" cy="166.52" r="2.6" fill="#F0A23B"></circle><circle cx="581.12" cy="165.82" r="2.6" fill="#F0A23B"></circle><circle cx="588.73" cy="164.59" r="2.6" fill="#F0A23B"></circle><circle cx="603.95" cy="164.21" r="2.6" fill="#F0A23B"></circle><circle cx="611.56" cy="164.24" r="2.6" fill="#F0A23B"></circle><circle cx="619.17" cy="161.69" r="2.6" fill="#F0A23B"></circle><circle cx="626.78" cy="156.02" r="2.6" fill="#F0A23B"></circle><circle cx="634.39" cy="164.92" r="2.6" fill="#F0A23B"></circle><circle cx="642" cy="166.5" r="2.6" fill="#F0A23B"></circle><line x1="656" y1="27" x2="672" y2="27" stroke="#6366F1" stroke-width="3" stroke-linecap="round"></line><text x="678" y="30" font-size="11" font-weight="400" text-anchor="start" fill="#1f2328">deepseek</text><line x1="656" y1="47" x2="672" y2="47" stroke="#A371F7" stroke-width="3" stroke-linecap="round"></line><text x="678" y="50" font-size="11" font-weight="400" text-anchor="start" fill="#1f2328">llama</text><line x1="656" y1="67" x2="672" y2="67" stroke="#F0A23B" stroke-width="3" stroke-linecap="round"></line><text x="678" y="70" font-size="11" font-weight="400" text-anchor="start" fill="#1f2328">mistral</text></svg>
