<svg xmlns="http://www.w3.org/2000/svg" viewBox="0 0 760 348" width="760" height="348" role="img" aria-label="Cost per test by provider over runs — openai highest, deepseek lowest" font-family="-apple-system,BlinkMacSystemFont,'Segoe UI',system-ui,sans-serif"><line x1="56" y1="306" x2="642" y2="306" stroke="#30363d" stroke-width="1"></line><text x="46" y="310" font-size="9.5" font-weight="400" text-anchor="end" fill="#8b949e" font-family="ui-monospace,SFMono-Regular,Menlo,monospace">$0.000</text><line x1="56" y1="235" x2="642" y2="235" stroke="#30363d" stroke-width="1"></line><text x="46" y="239" font-size="9.5" font-weight="400" text-anchor="end" fill="#8b949e" font-family="ui-monospace,SFMono-Regular,Menlo,monospace">$0.044</text><line x1="56" y1="164" x2="642" y2="164" stroke="#30363d" stroke-width="1"></line><text x="46" y="168" font-size="9.5" font-weight="400" text-anchor="end" fill="#8b949e" font-family="ui-monospace,SFMono-Regular,Menlo,monospace">$0.087</text><line x1="56" y1="93" x2="642" y2="93" stroke="#30363d" stroke-width="1"></line><text x="46" y="97" font-size="9.5" font-weight="400" text-anchor="end" fill="#8b949e" font-family="ui-monospace,SFMono-Regular,Menlo,monospace">$0.131</text><line x1="56" y1="22" x2="642" y2="22" stroke="#30363d" stroke-width="1"></line><text x="46" y="26" font-size="9.5" font-weight="400" text-anchor="end" fill="#8b949e" font-family="ui-monospace,SFMono-Regular,Menlo,monospace">$0.175</text><text x="56" y="324" font-size="9.5" font-weight="400" text-anchor="middle" fill="#8b949e" font-family="ui-monospace,SFMono-Regular,Menlo,monospace">06/06</text><text x="119.35" y="324" font-size="9.5" font-weight="400" text-anchor="middle" fill="#8b949e" font-family="ui-monospace,SFMono-Regular,Menlo,monospace">06/07</text><text x="182.7" y="324" font-size="9.5" font-weight="400" text-anchor="middle" fill="#8b949e" font-family="ui-monospace,SFMono-Regular,Menlo,monospace">06/08</text><text x="246.05" y="324" font-size="9.5" font-weight="400" text-anchor="middle" fill="#8b949e" font-family="ui-monospace,SFMono-Regular,Menlo,monospace">06/08</text><text x="309.41" y="324" font-size="9.5" font-weight="400" text-anchor="middle" fill="#8b949e" font-family="ui-monospace,SFMono-Regular,Menlo,monospace">06/09</text><text x="372.76" y="324" font-size="9.5" font-weight="400" text-anchor="middle" fill="#8b949e" font-family="ui-monospace,SFMono-Regular,Menlo,monospace">06/09</text><text x="436.11" y="324" font-size="9.5" font-weight="400" text-anchor="middle" fill="#8b949e" font-family="ui-monospace,SFMono-Regular,Menlo,monospace">06/12</text><text x="499.46" y="324" font-size="9.5" font-weight="400" text-anchor="middle" fill="#8b949e" font-family="ui-monospace,SFMono-Regular,Menlo,monospace">06/14</text><text x="562.81" y="324" font-size="9.5" font-weight="400" text-anchor="middle" fill="#8b949e" font-family="ui-monospace,SFMono-Regular,Menlo,monospace">06/14</text><text x="626.16" y="324" font-size="9.5" font-weight="400" text-anchor="middle" fill="#8b949e" font-family="ui-monospace,SFMono-Regular,Menlo,monospace">06/15</text><text x="642" y="324" font-size="9.5" font-weight="400" text-anchor="middle" fill="#8b949e" font-family="ui-monospace,SFMono-Regular,Menlo,monospace">06/15</text><polyline fill="none" stroke="#6366F1" stroke-width="2.4" stroke-linejoin="round" stroke-linecap="round" points="182.7,293.36 198.54,293.43 214.38,294.1 230.22,292.89 246.05,293.14 261.89,287.31 277.73,294.31 293.57,291.77 309.41,291.82 325.24,291.36 341.08,293.02 356.92,291.8 372.76,288.55 388.59,292.06 404.43,288.85 420.27,294.29 436.11,292.11 451.95,288.48 467.78,285.75 483.62,292.13 499.46,291.04 515.3,293.66 531.14,290.08 546.97,286.94 562.81,292.77 578.65,291.68 594.49,292.47 610.32,291.27 642,290.7"></polyline><circle cx="182.7" cy="293.36" r="2.6" fill="#6366F1"></circle><circle cx="198.54" cy="293.43" r="2.6" fill="#6366F1"></circle><circle cx="214.38" cy="294.1" r="2.6" fill="#6366F1"></circle><circle cx="230.22" cy="292.89" r="2.6" fill="#6366F1"></circle><circle cx="246.05" cy="293.14" r="2.6" fill="#6366F1"></circle><circle cx="261.89" cy="287.31" r="2.6" fill="#6366F1"></circle><circle cx="277.73" cy="294.31" r="2.6" fill="#6366F1"></circle><circle cx="293.57" cy="291.77" r="2.6" fill="#6366F1"></circle><circle cx="309.41" cy="291.82" r="2.6" fill="#6366F1"></circle><circle cx="325.24" cy="291.36" r="2.6" fill="#6366F1"></circle><circle cx="341.08" cy="293.02" r="2.6" fill="#6366F1"></circle><circle cx="356.92" cy="291.8" r="2.6" fill="#6366F1"></circle><circle cx="372.76" cy="288.55" r="2.6" fill="#6366F1"></circle><circle cx="388.59" cy="292.06" r="2.6" fill="#6366F1"></circle><circle cx="404.43" cy="288.85" r="2.6" fill="#6366F1"></circle><circle cx="420.27" cy="294.29" r="2.6" fill="#6366F1"></circle><circle cx="436.11" cy="292.11" r="2.6" fill="#6366F1"></circle><circle cx="451.95" cy="288.48" r="2.6" fill="#6366F1"></circle><circle cx="467.78" cy="285.75" r="2.6" fill="#6366F1"></circle><circle cx="483.62" cy="292.13" r="2.6" fill="#6366F1"></circle><circle cx="499.46" cy="291.04" r="2.6" fill="#6366F1"></circle><circle cx="515.3" cy="293.66" r="2.6" fill="#6366F1"></circle><circle cx="531.14" cy="290.08" r="2.6" fill="#6366F1"></circle><circle cx="546.97" cy="286.94" r="2.6" fill="#6366F1"></circle><circle cx="562.81" cy="292.77" r="2.6" fill="#6366F1"></circle><circle cx="578.65" cy="291.68" r="2.6" fill="#6366F1"></circle><circle cx="594.49" cy="292.47" r="2.6" fill="#6366F1"></circle><circle cx="610.32" cy="291.27" r="2.6" fill="#6366F1"></circle><circle cx="642" cy="290.7" r="2.6" fill="#6366F1"></circle><polyline fill="none" stroke="#A371F7" stroke-width="2.4" stroke-linejoin="round" stroke-linecap="round" points="56,234.02 71.84,244.52 87.68,248 103.51,231.43 119.35,238.89 135.19,249.23 151.03,244.46 166.86,237.54 182.7,240.86 198.54,247.44 214.38,240.79 230.22,238.23 246.05,242.67 261.89,225.79 277.73,243.99 293.57,238.04 309.41,246.87 325.24,247.42 341.08,226.74 356.92,239.47 372.76,211.96 388.59,246.23 404.43,249.04 420.27,237.01 436.11,234.98 451.95,238.5 467.78,240.35 483.62,237.84 499.46,246.71 515.3,242.24 531.14,238.34 546.97,244.61 562.81,248.91 578.65,226.53 594.49,244.07 610.32,245.89 642,225.3"></polyline><circle cx="56" cy="234.02" r="2.6" fill="#A371F7"></circle><circle cx="71.84" cy="244.52" r="2.6" fill="#A371F7"></circle><circle cx="87.68" cy="248" r="2.6" fill="#A371F7"></circle><circle cx="103.51" cy="231.43" r="2.6" fill="#A371F7"></circle><circle cx="119.35" cy="238.89" r="2.6" fill="#A371F7"></circle><circle cx="135.19" cy="249.23" r="2.6" fill="#A371F7"></circle><circle cx="151.03" cy="244.46" r="2.6" fill="#A371F7"></circle><circle cx="166.86" cy="237.54" r="2.6" fill="#A371F7"></circle><circle cx="182.7" cy="240.86" r="2.6" fill="#A371F7"></circle><circle cx="198.54" cy="247.44" r="2.6" fill="#A371F7"></circle><circle cx="214.38" cy="240.79" r="2.6" fill="#A371F7"></circle><circle cx="230.22" cy="238.23" r="2.6" fill="#A371F7"></circle><circle cx="246.05" cy="242.67" r="2.6" fill="#A371F7"></circle><circle cx="261.89" cy="225.79" r="2.6" fill="#A371F7"></circle><circle cx="277.73" cy="243.99" r="2.6" fill="#A371F7"></circle><circle cx="293.57" cy="238.04" r="2.6" fill="#A371F7"></circle><circle cx="309.41" cy="246.87" r="2.6" fill="#A371F7"></circle><circle cx="325.24" cy="247.42" r="2.6" fill="#A371F7"></circle><circle cx="341.08" cy="226.74" r="2.6" fill="#A371F7"></circle><circle cx="356.92" cy="239.47" r="2.6" fill="#A371F7"></circle><circle cx="372.76" cy="211.96" r="2.6" fill="#A371F7"></circle><circle cx="388.59" cy="246.23" r="2.6" fill="#A371F7"></circle><circle cx="404.43" cy="249.04" r="2.6" fill="#A371F7"></circle><circle cx="420.27" cy="237.01" r="2.6" fill="#A371F7"></circle><circle cx="436.11" cy="234.98" r="2.6" fill="#A371F7"></circle><circle cx="451.95" cy="238.5" r="2.6" fill="#A371F7"></circle><circle cx="467.78" cy="240.35" r="2.6" fill="#A371F7"></circle><circle cx="483.62" cy="237.84" r="2.6" fill="#A371F7"></circle><circle cx="499.46" cy="246.71" r="2.6" fill="#A371F7"></circle><circle cx="515.3" cy="242.24" r="2.6" fill="#A371F7"></circle><circle cx="531.14" cy="238.34" r="2.6" fill="#A371F7"></circle><circle cx="546.97" cy="244.61" r="2.6" fill="#A371F7"></circle><circle cx="562.81" cy="248.91" r="2.6" fill="#A371F7"></circle><circle cx="578.65" cy="226.53" r="2.6" fill="#A371F7"></circle><circle cx="594.49" cy="244.07" r="2.6" fill="#A371F7"></circle><circle cx="610.32" cy="245.89" r="2.6" fill="#A371F7"></circle><circle cx="642" cy="225.3" r="2.6" fill="#A371F7"></circle><polyline fill="none" stroke="#F0A23B" stroke-width="2.4" stroke-linejoin="round" stroke-linecap="round" points="56,176.15 71.84,166.37 87.68,95.06 103.51,183.78 119.35,178.88 135.19,182.02 151.03,170.24 166.86,169.9 182.7,166.14 198.54,173.66 214.38,166.11 230.22,167.02 246.05,169.09 261.89,176.53 277.73,161.02 293.57,174.97 309.41,168.38 325.24,173 341.08,185.38 356.92,176.24 372.76,181.63 388.59,178.09 404.43,118.27 420.27,178.67 436.11,180.72 451.95,177.62 467.78,179.5 483.62,151.31 499.46,176.94 515.3,159.91 531.14,179.22 546.97,151.49 562.81,180.65 578.65,179.71 594.49,79.16 610.32,99.74 626.16,178.4 642,180.3"></polyline><circle cx="56" cy="176.15" r="2.6" fill="#F0A23B"></circle><circle cx="71.84" cy="166.37" r="2.6" fill="#F0A23B"></circle><circle cx="87.68" cy="95.06" r="2.6" fill="#F0A23B"></circle><circle cx="103.51" cy="183.78" r="2.6" fill="#F0A23B"></circle><circle cx="119.35" cy="178.88" r="2.6" fill="#F0A23B"></circle><circle cx="135.19" cy="182.02" r="2.6" fill="#F0A23B"></circle><circle cx="151.03" cy="170.24" r="2.6" fill="#F0A23B"></circle><circle cx="166.86" cy="169.9" r="2.6" fill="#F0A23B"></circle><circle cx="182.7" cy="166.14" r="2.6" fill="#F0A23B"></circle><circle cx="198.54" cy="173.66" r="2.6" fill="#F0A23B"></circle><circle cx="214.38" cy="166.11" r="2.6" fill="#F0A23B"></circle><circle cx="230.22" cy="167.02" r="2.6" fill="#F0A23B"></circle><circle cx="246.05" cy="169.09" r="2.6" fill="#F0A23B"></circle><circle cx="261.89" cy="176.53" r="2.6" fill="#F0A23B"></circle><circle cx="277.73" cy="161.02" r="2.6" fill="#F0A23B"></circle><circle cx="293.57" cy="174.97" r="2.6" fill="#F0A23B"></circle><circle cx="309.41" cy="168.38" r="2.6" fill="#F0A23B"></circle><circle cx="325.24" cy="173" r="2.6" fill="#F0A23B"></circle><circle cx="341.08" cy="185.38" r="2.6" fill="#F0A23B"></circle><circle cx="356.92" cy="176.24" r="2.6" fill="#F0A23B"></circle><circle cx="372.76" cy="181.63" r="2.6" fill="#F0A23B"></circle><circle cx="388.59" cy="178.09" r="2.6" fill="#F0A23B"></circle><circle cx="404.43" cy="118.27" r="2.6" fill="#F0A23B"></circle><circle cx="420.27" cy="178.67" r="2.6" fill="#F0A23B"></circle><circle cx="436.11" cy="180.72" r="2.6" fill="#F0A23B"></circle><circle cx="451.95" cy="177.62" r="2.6" fill="#F0A23B"></circle><circle cx="467.78" cy="179.5" r="2.6" fill="#F0A23B"></circle><circle cx="483.62" cy="151.31" r="2.6" fill="#F0A23B"></circle><circle cx="499.46" cy="176.94" r="2.6" fill="#F0A23B"></circle><circle cx="515.3" cy="159.91" r="2.6" fill="#F0A23B"></circle><circle cx="531.14" cy="179.22" r="2.6" fill="#F0A23B"></circle><circle cx="546.97" cy="151.49" r="2.6" fill="#F0A23B"></circle><circle cx="562.81" cy="180.65" r="2.6" fill="#F0A23B"></circle><circle cx="578.65" cy="179.71" r="2.6" fill="#F0A23B"></circle><circle cx="594.49" cy="79.16" r="2.6" fill="#F0A23B"></circle><circle cx="610.32" cy="99.74" r="2.6" fill="#F0A23B"></circle><circle cx="626.16" cy="178.4" r="2.6" fill="#F0A23B"></circle><circle cx="642" cy="180.3" r="2.6" fill="#F0A23B"></circle><polyline fill="none" stroke="#1F9CF0" stroke-width="2.4" stroke-linejoin="round" stroke-linecap="round" points="56,175.5 71.84,176.2 87.68,132.71 103.51,178.27 119.35,172 135.19,174.38 151.03,174.4 166.86,170.88 182.7,173.93 198.54,173.54 214.38,100.75 230.22,168.69 246.05,173.59 261.89,174.01 277.73,167.31 293.57,117.5 309.41,166.02 325.24,174.07 341.08,141.6 356.92,169.05 372.76,167.14 388.59,174.48 404.43,150.94 420.27,171.01 436.11,52.43 451.95,157.26 467.78,171.51 483.62,136.29 499.46,169.79 515.3,106.45 531.14,170.47 546.97,175.76 562.81,174.01 578.65,174.06 594.49,151.2 610.32,173.78 626.16,169.88 642,177.61"></polyline><circle cx="56" cy="175.5" r="2.6" fill="#1F9CF0"></circle><circle cx="71.84" cy="176.2" r="2.6" fill="#1F9CF0"></circle><circle cx="87.68" cy="132.71" r="2.6" fill="#1F9CF0"></circle><circle cx="103.51" cy="178.27" r="2.6" fill="#1F9CF0"></circle><circle cx="119.35" cy="172" r="2.6" fill="#1F9CF0"></circle><circle cx="135.19" cy="174.38" r="2.6" fill="#1F9CF0"></circle><circle cx="151.03" cy="174.4" r="2.6" fill="#1F9CF0"></circle><circle cx="166.86" cy="170.88" r="2.6" fill="#1F9CF0"></circle><circle cx="182.7" cy="173.93" r="2.6" fill="#1F9CF0"></circle><circle cx="198.54" cy="173.54" r="2.6" fill="#1F9CF0"></circle><circle cx="214.38" cy="100.75" r="2.6" fill="#1F9CF0"></circle><circle cx="230.22" cy="168.69" r="2.6" fill="#1F9CF0"></circle><circle cx="246.05" cy="173.59" r="2.6" fill="#1F9CF0"></circle><circle cx="261.89" cy="174.01" r="2.6" fill="#1F9CF0"></circle><circle cx="277.73" cy="167.31" r="2.6" fill="#1F9CF0"></circle><circle cx="293.57" cy="117.5" r="2.6" fill="#1F9CF0"></circle><circle cx="309.41" cy="166.02" r="2.6" fill="#1F9CF0"></circle><circle cx="325.24" cy="174.07" r="2.6" fill="#1F9CF0"></circle><circle cx="341.08" cy="141.6" r="2.6" fill="#1F9CF0"></circle><circle cx="356.92" cy="169.05" r="2.6" fill="#1F9CF0"></circle><circle cx="372.76" cy="167.14" r="2.6" fill="#1F9CF0"></circle><circle cx="388.59" cy="174.48" r="2.6" fill="#1F9CF0"></circle><circle cx="404.43" cy="150.94" r="2.6" fill="#1F9CF0"></circle><circle cx="420.27" cy="171.01" r="2.6" fill="#1F9CF0"></circle><circle cx="436.11" cy="52.43" r="2.6" fill="#1F9CF0"></circle><circle cx="451.95" cy="157.26" r="2.6" fill="#1F9CF0"></circle><circle cx="467.78" cy="171.51" r="2.6" fill="#1F9CF0"></circle><circle cx="483.62" cy="136.29" r="2.6" fill="#1F9CF0"></circle><circle cx="499.46" cy="169.79" r="2.6" fill="#1F9CF0"></circle><circle cx="515.3" cy="106.45" r="2.6" fill="#1F9CF0"></circle><circle cx="531.14" cy="170.47" r="2.6" fill="#1F9CF0"></circle><circle cx="546.97" cy="175.76" r="2.6" fill="#1F9CF0"></circle><circle cx="562.81" cy="174.01" r="2.6" fill="#1F9CF0"></circle><circle cx="578.65" cy="174.06" r="2.6" fill="#1F9CF0"></circle><circle cx="594.49" cy="151.2" r="2.6" fill="#1F9CF0"></circle><circle cx="610.32" cy="173.78" r="2.6" fill="#1F9CF0"></circle><circle cx="626.16" cy="169.88" r="2.6" fill="#1F9CF0"></circle><circle cx="642" cy="177.61" r="2.6" fill="#1F9CF0"></circle><line x1="656" y1="27" x2="672" y2="27" stroke="#6366F1" stroke-width="3" stroke-linecap="round"></line><text x="678" y="30" font-size="11" font-weight="400" text-anchor="start" fill="#e6edf3">deepseek</text><line x1="656" y1="47" x2="672" y2="47" stroke="#A371F7" stroke-width="3" stroke-linecap="round"></line><text x="678" y="50" font-size="11" font-weight="400" text-anchor="start" fill="#e6edf3">llama</text><line x1="656" y1="67" x2="672" y2="67" stroke="#F0A23B" stroke-width="3" stroke-linecap="round"></line><text x="678" y="70" font-size="11" font-weight="400" text-anchor="start" fill="#e6edf3">mistral</text><line x1="656" y1="87" x2="672" y2="87" stroke="#1F9CF0" stroke-width="3" stroke-linecap="round"></line><text x="678" y="90" font-size="11" font-weight="400" text-anchor="start" fill="#e6edf3">openai</text></svg>
