<svg xmlns="http://www.w3.org/2000/svg" viewBox="0 0 760 348" width="760" height="348" role="img" aria-label="Cost per test by provider over runs — mistral highest, deepseek lowest" font-family="-apple-system,BlinkMacSystemFont,'Segoe UI',system-ui,sans-serif"><line x1="56" y1="306" x2="642" y2="306" stroke="#d8dee4" stroke-width="1"></line><text x="46" y="310" font-size="9.5" font-weight="400" text-anchor="end" fill="#656d76" font-family="ui-monospace,SFMono-Regular,Menlo,monospace">$0.000</text><line x1="56" y1="235" x2="642" y2="235" stroke="#d8dee4" stroke-width="1"></line><text x="46" y="239" font-size="9.5" font-weight="400" text-anchor="end" fill="#656d76" font-family="ui-monospace,SFMono-Regular,Menlo,monospace">$0.039</text><line x1="56" y1="164" x2="642" y2="164" stroke="#d8dee4" stroke-width="1"></line><text x="46" y="168" font-size="9.5" font-weight="400" text-anchor="end" fill="#656d76" font-family="ui-monospace,SFMono-Regular,Menlo,monospace">$0.078</text><line x1="56" y1="93" x2="642" y2="93" stroke="#d8dee4" stroke-width="1"></line><text x="46" y="97" font-size="9.5" font-weight="400" text-anchor="end" fill="#656d76" font-family="ui-monospace,SFMono-Regular,Menlo,monospace">$0.117</text><line x1="56" y1="22" x2="642" y2="22" stroke="#d8dee4" stroke-width="1"></line><text x="46" y="26" font-size="9.5" font-weight="400" text-anchor="end" fill="#656d76" font-family="ui-monospace,SFMono-Regular,Menlo,monospace">$0.156</text><text x="56" y="324" font-size="9.5" font-weight="400" text-anchor="middle" fill="#656d76" font-family="ui-monospace,SFMono-Regular,Menlo,monospace">06/06</text><text x="109.27" y="324" font-size="9.5" font-weight="400" text-anchor="middle" fill="#656d76" font-family="ui-monospace,SFMono-Regular,Menlo,monospace">06/08</text><text x="162.55" y="324" font-size="9.5" font-weight="400" text-anchor="middle" fill="#656d76" font-family="ui-monospace,SFMono-Regular,Menlo,monospace">06/08</text><text x="215.82" y="324" font-size="9.5" font-weight="400" text-anchor="middle" fill="#656d76" font-family="ui-monospace,SFMono-Regular,Menlo,monospace">06/09</text><text x="269.09" y="324" font-size="9.5" font-weight="400" text-anchor="middle" fill="#656d76" font-family="ui-monospace,SFMono-Regular,Menlo,monospace">06/12</text><text x="322.36" y="324" font-size="9.5" font-weight="400" text-anchor="middle" fill="#656d76" font-family="ui-monospace,SFMono-Regular,Menlo,monospace">06/14</text><text x="375.64" y="324" font-size="9.5" font-weight="400" text-anchor="middle" fill="#656d76" font-family="ui-monospace,SFMono-Regular,Menlo,monospace">06/15</text><text x="428.91" y="324" font-size="9.5" font-weight="400" text-anchor="middle" fill="#656d76" font-family="ui-monospace,SFMono-Regular,Menlo,monospace">06/16</text><text x="482.18" y="324" font-size="9.5" font-weight="400" text-anchor="middle" fill="#656d76" font-family="ui-monospace,SFMono-Regular,Menlo,monospace">06/17</text><text x="535.45" y="324" font-size="9.5" font-weight="400" text-anchor="middle" fill="#656d76" font-family="ui-monospace,SFMono-Regular,Menlo,monospace">06/20</text><text x="588.73" y="324" font-size="9.5" font-weight="400" text-anchor="middle" fill="#656d76" font-family="ui-monospace,SFMono-Regular,Menlo,monospace">06/21</text><text x="642" y="324" font-size="9.5" font-weight="400" text-anchor="middle" fill="#656d76" font-family="ui-monospace,SFMono-Regular,Menlo,monospace">06/22</text><polyline fill="none" stroke="#6366F1" stroke-width="2.4" stroke-linejoin="round" stroke-linecap="round" points="127.03,291.87 135.91,291.95 144.79,292.7 153.67,291.35 162.55,291.63 171.42,285.11 180.3,292.93 189.18,290.09 198.06,290.15 206.94,289.63 215.82,291.49 224.7,290.13 233.58,286.49 242.45,290.42 251.33,286.82 260.21,292.91 269.09,290.47 277.97,286.41 286.85,283.36 295.73,290.5 304.61,289.27 313.48,292.21 322.36,288.21 331.24,284.69 340.12,291.21 349,289.99 357.88,290.87 366.76,289.54 384.52,288.89 393.39,291.37 402.27,291.85 411.15,288.99 420.03,289.23 428.91,289.9 437.79,290.68 446.67,291.26 455.55,291.88 473.3,292.21 482.18,292.39 491.06,290.62 499.94,289.36 508.82,289.25 517.7,282.39 526.58,289.77 535.45,286.62 544.33,288.64 553.21,286.81 562.09,290.08 570.97,291.81 579.85,292.58 588.73,280.86 597.61,292.19 606.48,290.14 615.36,286.32 624.24,288.84 633.12,289.8 642,291.28"></polyline><circle cx="127.03" cy="291.87" r="2.6" fill="#6366F1"></circle><circle cx="135.91" cy="291.95" r="2.6" fill="#6366F1"></circle><circle cx="144.79" cy="292.7" r="2.6" fill="#6366F1"></circle><circle cx="153.67" cy="291.35" r="2.6" fill="#6366F1"></circle><circle cx="162.55" cy="291.63" r="2.6" fill="#6366F1"></circle><circle cx="171.42" cy="285.11" r="2.6" fill="#6366F1"></circle><circle cx="180.3" cy="292.93" r="2.6" fill="#6366F1"></circle><circle cx="189.18" cy="290.09" r="2.6" fill="#6366F1"></circle><circle cx="198.06" cy="290.15" r="2.6" fill="#6366F1"></circle><circle cx="206.94" cy="289.63" r="2.6" fill="#6366F1"></circle><circle cx="215.82" cy="291.49" r="2.6" fill="#6366F1"></circle><circle cx="224.7" cy="290.13" r="2.6" fill="#6366F1"></circle><circle cx="233.58" cy="286.49" r="2.6" fill="#6366F1"></circle><circle cx="242.45" cy="290.42" r="2.6" fill="#6366F1"></circle><circle cx="251.33" cy="286.82" r="2.6" fill="#6366F1"></circle><circle cx="260.21" cy="292.91" r="2.6" fill="#6366F1"></circle><circle cx="269.09" cy="290.47" r="2.6" fill="#6366F1"></circle><circle cx="277.97" cy="286.41" r="2.6" fill="#6366F1"></circle><circle cx="286.85" cy="283.36" r="2.6" fill="#6366F1"></circle><circle cx="295.73" cy="290.5" r="2.6" fill="#6366F1"></circle><circle cx="304.61" cy="289.27" r="2.6" fill="#6366F1"></circle><circle cx="313.48" cy="292.21" r="2.6" fill="#6366F1"></circle><circle cx="322.36" cy="288.21" r="2.6" fill="#6366F1"></circle><circle cx="331.24" cy="284.69" r="2.6" fill="#6366F1"></circle><circle cx="340.12" cy="291.21" r="2.6" fill="#6366F1"></circle><circle cx="349" cy="289.99" r="2.6" fill="#6366F1"></circle><circle cx="357.88" cy="290.87" r="2.6" fill="#6366F1"></circle><circle cx="366.76" cy="289.54" r="2.6" fill="#6366F1"></circle><circle cx="384.52" cy="288.89" r="2.6" fill="#6366F1"></circle><circle cx="393.39" cy="291.37" r="2.6" fill="#6366F1"></circle><circle cx="402.27" cy="291.85" r="2.6" fill="#6366F1"></circle><circle cx="411.15" cy="288.99" r="2.6" fill="#6366F1"></circle><circle cx="420.03" cy="289.23" r="2.6" fill="#6366F1"></circle><circle cx="428.91" cy="289.9" r="2.6" fill="#6366F1"></circle><circle cx="437.79" cy="290.68" r="2.6" fill="#6366F1"></circle><circle cx="446.67" cy="291.26" r="2.6" fill="#6366F1"></circle><circle cx="455.55" cy="291.88" r="2.6" fill="#6366F1"></circle><circle cx="473.3" cy="292.21" r="2.6" fill="#6366F1"></circle><circle cx="482.18" cy="292.39" r="2.6" fill="#6366F1"></circle><circle cx="491.06" cy="290.62" r="2.6" fill="#6366F1"></circle><circle cx="499.94" cy="289.36" r="2.6" fill="#6366F1"></circle><circle cx="508.82" cy="289.25" r="2.6" fill="#6366F1"></circle><circle cx="517.7" cy="282.39" r="2.6" fill="#6366F1"></circle><circle cx="526.58" cy="289.77" r="2.6" fill="#6366F1"></circle><circle cx="535.45" cy="286.62" r="2.6" fill="#6366F1"></circle><circle cx="544.33" cy="288.64" r="2.6" fill="#6366F1"></circle><circle cx="553.21" cy="286.81" r="2.6" fill="#6366F1"></circle><circle cx="562.09" cy="290.08" r="2.6" fill="#6366F1"></circle><circle cx="570.97" cy="291.81" r="2.6" fill="#6366F1"></circle><circle cx="579.85" cy="292.58" r="2.6" fill="#6366F1"></circle><circle cx="588.73" cy="280.86" r="2.6" fill="#6366F1"></circle><circle cx="597.61" cy="292.19" r="2.6" fill="#6366F1"></circle><circle cx="606.48" cy="290.14" r="2.6" fill="#6366F1"></circle><circle cx="615.36" cy="286.32" r="2.6" fill="#6366F1"></circle><circle cx="624.24" cy="288.84" r="2.6" fill="#6366F1"></circle><circle cx="633.12" cy="289.8" r="2.6" fill="#6366F1"></circle><circle cx="642" cy="291.28" r="2.6" fill="#6366F1"></circle><polyline fill="none" stroke="#A371F7" stroke-width="2.4" stroke-linejoin="round" stroke-linecap="round" points="56,225.54 64.88,237.27 73.76,241.16 82.64,222.65 91.52,230.98 100.39,242.54 109.27,237.21 118.15,229.47 127.03,233.19 135.91,240.54 144.79,233.11 153.67,230.24 162.55,235.21 171.42,216.34 180.3,236.68 189.18,230.04 198.06,239.9 206.94,240.52 215.82,217.4 224.7,231.63 233.58,200.88 242.45,239.19 251.33,242.32 260.21,228.88 269.09,226.62 277.97,230.55 286.85,232.61 295.73,229.81 304.61,239.72 313.48,234.73 322.36,230.36 331.24,237.37 340.12,242.18 349,217.16 357.88,236.77 366.76,238.8 384.52,215.79 393.39,239.22 402.27,229.54 420.03,230.2 428.91,240.21 437.79,240.7 446.67,236.68 455.55,233.81 464.42,236.41 473.3,236.99 482.18,235.33 491.06,225.27 499.94,230.08 508.82,231.44 517.7,237.84 526.58,233.29 535.45,236.75 544.33,235.58 562.09,237.47 570.97,231.93 588.73,226.76 597.61,235.94 606.48,231.36 615.36,239.89 624.24,213.02 633.12,238.1 642,238.29"></polyline><circle cx="56" cy="225.54" r="2.6" fill="#A371F7"></circle><circle cx="64.88" cy="237.27" r="2.6" fill="#A371F7"></circle><circle cx="73.76" cy="241.16" r="2.6" fill="#A371F7"></circle><circle cx="82.64" cy="222.65" r="2.6" fill="#A371F7"></circle><circle cx="91.52" cy="230.98" r="2.6" fill="#A371F7"></circle><circle cx="100.39" cy="242.54" r="2.6" fill="#A371F7"></circle><circle cx="109.27" cy="237.21" r="2.6" fill="#A371F7"></circle><circle cx="118.15" cy="229.47" r="2.6" fill="#A371F7"></circle><circle cx="127.03" cy="233.19" r="2.6" fill="#A371F7"></circle><circle cx="135.91" cy="240.54" r="2.6" fill="#A371F7"></circle><circle cx="144.79" cy="233.11" r="2.6" fill="#A371F7"></circle><circle cx="153.67" cy="230.24" r="2.6" fill="#A371F7"></circle><circle cx="162.55" cy="235.21" r="2.6" fill="#A371F7"></circle><circle cx="171.42" cy="216.34" r="2.6" fill="#A371F7"></circle><circle cx="180.3" cy="236.68" r="2.6" fill="#A371F7"></circle><circle cx="189.18" cy="230.04" r="2.6" fill="#A371F7"></circle><circle cx="198.06" cy="239.9" r="2.6" fill="#A371F7"></circle><circle cx="206.94" cy="240.52" r="2.6" fill="#A371F7"></circle><circle cx="215.82" cy="217.4" r="2.6" fill="#A371F7"></circle><circle cx="224.7" cy="231.63" r="2.6" fill="#A371F7"></circle><circle cx="233.58" cy="200.88" r="2.6" fill="#A371F7"></circle><circle cx="242.45" cy="239.19" r="2.6" fill="#A371F7"></circle><circle cx="251.33" cy="242.32" r="2.6" fill="#A371F7"></circle><circle cx="260.21" cy="228.88" r="2.6" fill="#A371F7"></circle><circle cx="269.09" cy="226.62" r="2.6" fill="#A371F7"></circle><circle cx="277.97" cy="230.55" r="2.6" fill="#A371F7"></circle><circle cx="286.85" cy="232.61" r="2.6" fill="#A371F7"></circle><circle cx="295.73" cy="229.81" r="2.6" fill="#A371F7"></circle><circle cx="304.61" cy="239.72" r="2.6" fill="#A371F7"></circle><circle cx="313.48" cy="234.73" r="2.6" fill="#A371F7"></circle><circle cx="322.36" cy="230.36" r="2.6" fill="#A371F7"></circle><circle cx="331.24" cy="237.37" r="2.6" fill="#A371F7"></circle><circle cx="340.12" cy="242.18" r="2.6" fill="#A371F7"></circle><circle cx="349" cy="217.16" r="2.6" fill="#A371F7"></circle><circle cx="357.88" cy="236.77" r="2.6" fill="#A371F7"></circle><circle cx="366.76" cy="238.8" r="2.6" fill="#A371F7"></circle><circle cx="384.52" cy="215.79" r="2.6" fill="#A371F7"></circle><circle cx="393.39" cy="239.22" r="2.6" fill="#A371F7"></circle><circle cx="402.27" cy="229.54" r="2.6" fill="#A371F7"></circle><circle cx="420.03" cy="230.2" r="2.6" fill="#A371F7"></circle><circle cx="428.91" cy="240.21" r="2.6" fill="#A371F7"></circle><circle cx="437.79" cy="240.7" r="2.6" fill="#A371F7"></circle><circle cx="446.67" cy="236.68" r="2.6" fill="#A371F7"></circle><circle cx="455.55" cy="233.81" r="2.6" fill="#A371F7"></circle><circle cx="464.42" cy="236.41" r="2.6" fill="#A371F7"></circle><circle cx="473.3" cy="236.99" r="2.6" fill="#A371F7"></circle><circle cx="482.18" cy="235.33" r="2.6" fill="#A371F7"></circle><circle cx="491.06" cy="225.27" r="2.6" fill="#A371F7"></circle><circle cx="499.94" cy="230.08" r="2.6" fill="#A371F7"></circle><circle cx="508.82" cy="231.44" r="2.6" fill="#A371F7"></circle><circle cx="517.7" cy="237.84" r="2.6" fill="#A371F7"></circle><circle cx="526.58" cy="233.29" r="2.6" fill="#A371F7"></circle><circle cx="535.45" cy="236.75" r="2.6" fill="#A371F7"></circle><circle cx="544.33" cy="235.58" r="2.6" fill="#A371F7"></circle><circle cx="562.09" cy="237.47" r="2.6" fill="#A371F7"></circle><circle cx="570.97" cy="231.93" r="2.6" fill="#A371F7"></circle><circle cx="588.73" cy="226.76" r="2.6" fill="#A371F7"></circle><circle cx="597.61" cy="235.94" r="2.6" fill="#A371F7"></circle><circle cx="606.48" cy="231.36" r="2.6" fill="#A371F7"></circle><circle cx="615.36" cy="239.89" r="2.6" fill="#A371F7"></circle><circle cx="624.24" cy="213.02" r="2.6" fill="#A371F7"></circle><circle cx="633.12" cy="238.1" r="2.6" fill="#A371F7"></circle><circle cx="642" cy="238.29" r="2.6" fill="#A371F7"></circle><polyline fill="none" stroke="#F0A23B" stroke-width="2.4" stroke-linejoin="round" stroke-linecap="round" points="56,160.85 64.88,149.92 73.76,70.2 82.64,169.38 91.52,163.91 100.39,167.41 109.27,154.25 118.15,153.87 127.03,149.66 135.91,158.07 144.79,149.63 153.67,150.64 162.55,152.96 171.42,161.27 180.3,143.94 189.18,159.53 198.06,152.17 206.94,157.33 215.82,171.16 224.7,160.95 233.58,166.98 242.45,163.02 251.33,96.15 260.21,163.67 269.09,165.96 277.97,162.5 286.85,164.6 295.73,133.08 304.61,161.73 313.48,142.7 322.36,164.28 331.24,133.29 340.12,165.88 349,164.83 357.88,52.43 366.76,75.44 375.64,163.37 384.52,165.49 393.39,165.42 402.27,161.66 411.15,163.65 420.03,169.01 428.91,168.02 437.79,113.27 446.67,164.02 455.55,164.19 464.42,97.53 473.3,160.51 482.18,137.07 491.06,166.58 499.94,163.26 508.82,163.3 517.7,133.59 526.58,117.45 535.45,167.38 544.33,165.8 553.21,168.5 562.09,163.02 570.97,166.8 579.85,162.64 588.73,97.89 597.61,165.31 606.48,162.3 615.36,162.65 624.24,163.11 633.12,165.62 642,165.72"></polyline><circle cx="56" cy="160.85" r="2.6" fill="#F0A23B"></circle><circle cx="64.88" cy="149.92" r="2.6" fill="#F0A23B"></circle><circle cx="73.76" cy="70.2" r="2.6" fill="#F0A23B"></circle><circle cx="82.64" cy="169.38" r="2.6" fill="#F0A23B"></circle><circle cx="91.52" cy="163.91" r="2.6" fill="#F0A23B"></circle><circle cx="100.39" cy="167.41" r="2.6" fill="#F0A23B"></circle><circle cx="109.27" cy="154.25" r="2.6" fill="#F0A23B"></circle><circle cx="118.15" cy="153.87" r="2.6" fill="#F0A23B"></circle><circle cx="127.03" cy="149.66" r="2.6" fill="#F0A23B"></circle><circle cx="135.91" cy="158.07" r="2.6" fill="#F0A23B"></circle><circle cx="144.79" cy="149.63" r="2.6" fill="#F0A23B"></circle><circle cx="153.67" cy="150.64" r="2.6" fill="#F0A23B"></circle><circle cx="162.55" cy="152.96" r="2.6" fill="#F0A23B"></circle><circle cx="171.42" cy="161.27" r="2.6" fill="#F0A23B"></circle><circle cx="180.3" cy="143.94" r="2.6" fill="#F0A23B"></circle><circle cx="189.18" cy="159.53" r="2.6" fill="#F0A23B"></circle><circle cx="198.06" cy="152.17" r="2.6" fill="#F0A23B"></circle><circle cx="206.94" cy="157.33" r="2.6" fill="#F0A23B"></circle><circle cx="215.82" cy="171.16" r="2.6" fill="#F0A23B"></circle><circle cx="224.7" cy="160.95" r="2.6" fill="#F0A23B"></circle><circle cx="233.58" cy="166.98" r="2.6" fill="#F0A23B"></circle><circle cx="242.45" cy="163.02" r="2.6" fill="#F0A23B"></circle><circle cx="251.33" cy="96.15" r="2.6" fill="#F0A23B"></circle><circle cx="260.21" cy="163.67" r="2.6" fill="#F0A23B"></circle><circle cx="269.09" cy="165.96" r="2.6" fill="#F0A23B"></circle><circle cx="277.97" cy="162.5" r="2.6" fill="#F0A23B"></circle><circle cx="286.85" cy="164.6" r="2.6" fill="#F0A23B"></circle><circle cx="295.73" cy="133.08" r="2.6" fill="#F0A23B"></circle><circle cx="304.61" cy="161.73" r="2.6" fill="#F0A23B"></circle><circle cx="313.48" cy="142.7" r="2.6" fill="#F0A23B"></circle><circle cx="322.36" cy="164.28" r="2.6" fill="#F0A23B"></circle><circle cx="331.24" cy="133.29" r="2.6" fill="#F0A23B"></circle><circle cx="340.12" cy="165.88" r="2.6" fill="#F0A23B"></circle><circle cx="349" cy="164.83" r="2.6" fill="#F0A23B"></circle><circle cx="357.88" cy="52.43" r="2.6" fill="#F0A23B"></circle><circle cx="366.76" cy="75.44" r="2.6" fill="#F0A23B"></circle><circle cx="375.64" cy="163.37" r="2.6" fill="#F0A23B"></circle><circle cx="384.52" cy="165.49" r="2.6" fill="#F0A23B"></circle><circle cx="393.39" cy="165.42" r="2.6" fill="#F0A23B"></circle><circle cx="402.27" cy="161.66" r="2.6" fill="#F0A23B"></circle><circle cx="411.15" cy="163.65" r="2.6" fill="#F0A23B"></circle><circle cx="420.03" cy="169.01" r="2.6" fill="#F0A23B"></circle><circle cx="428.91" cy="168.02" r="2.6" fill="#F0A23B"></circle><circle cx="437.79" cy="113.27" r="2.6" fill="#F0A23B"></circle><circle cx="446.67" cy="164.02" r="2.6" fill="#F0A23B"></circle><circle cx="455.55" cy="164.19" r="2.6" fill="#F0A23B"></circle><circle cx="464.42" cy="97.53" r="2.6" fill="#F0A23B"></circle><circle cx="473.3" cy="160.51" r="2.6" fill="#F0A23B"></circle><circle cx="482.18" cy="137.07" r="2.6" fill="#F0A23B"></circle><circle cx="491.06" cy="166.58" r="2.6" fill="#F0A23B"></circle><circle cx="499.94" cy="163.26" r="2.6" fill="#F0A23B"></circle><circle cx="508.82" cy="163.3" r="2.6" fill="#F0A23B"></circle><circle cx="517.7" cy="133.59" r="2.6" fill="#F0A23B"></circle><circle cx="526.58" cy="117.45" r="2.6" fill="#F0A23B"></circle><circle cx="535.45" cy="167.38" r="2.6" fill="#F0A23B"></circle><circle cx="544.33" cy="165.8" r="2.6" fill="#F0A23B"></circle><circle cx="553.21" cy="168.5" r="2.6" fill="#F0A23B"></circle><circle cx="562.09" cy="163.02" r="2.6" fill="#F0A23B"></circle><circle cx="570.97" cy="166.8" r="2.6" fill="#F0A23B"></circle><circle cx="579.85" cy="162.64" r="2.6" fill="#F0A23B"></circle><circle cx="588.73" cy="97.89" r="2.6" fill="#F0A23B"></circle><circle cx="597.61" cy="165.31" r="2.6" fill="#F0A23B"></circle><circle cx="606.48" cy="162.3" r="2.6" fill="#F0A23B"></circle><circle cx="615.36" cy="162.65" r="2.6" fill="#F0A23B"></circle><circle cx="624.24" cy="163.11" r="2.6" fill="#F0A23B"></circle><circle cx="633.12" cy="165.62" r="2.6" fill="#F0A23B"></circle><circle cx="642" cy="165.72" r="2.6" fill="#F0A23B"></circle><line x1="656" y1="27" x2="672" y2="27" stroke="#6366F1" stroke-width="3" stroke-linecap="round"></line><text x="678" y="30" font-size="11" font-weight="400" text-anchor="start" fill="#1f2328">deepseek</text><line x1="656" y1="47" x2="672" y2="47" stroke="#A371F7" stroke-width="3" stroke-linecap="round"></line><text x="678" y="50" font-size="11" font-weight="400" text-anchor="start" fill="#1f2328">llama</text><line x1="656" y1="67" x2="672" y2="67" stroke="#F0A23B" stroke-width="3" stroke-linecap="round"></line><text x="678" y="70" font-size="11" font-weight="400" text-anchor="start" fill="#1f2328">mistral</text></svg>
