<svg xmlns="http://www.w3.org/2000/svg" viewBox="0 0 760 348" width="760" height="348" role="img" aria-label="Cost per test by provider over runs — mistral highest, deepseek lowest" font-family="-apple-system,BlinkMacSystemFont,'Segoe UI',system-ui,sans-serif"><line x1="56" y1="306" x2="642" y2="306" stroke="#d8dee4" stroke-width="1"></line><text x="46" y="310" font-size="9.5" font-weight="400" text-anchor="end" fill="#656d76" font-family="ui-monospace,SFMono-Regular,Menlo,monospace">$0.000</text><line x1="56" y1="235" x2="642" y2="235" stroke="#d8dee4" stroke-width="1"></line><text x="46" y="239" font-size="9.5" font-weight="400" text-anchor="end" fill="#656d76" font-family="ui-monospace,SFMono-Regular,Menlo,monospace">$0.039</text><line x1="56" y1="164" x2="642" y2="164" stroke="#d8dee4" stroke-width="1"></line><text x="46" y="168" font-size="9.5" font-weight="400" text-anchor="end" fill="#656d76" font-family="ui-monospace,SFMono-Regular,Menlo,monospace">$0.078</text><line x1="56" y1="93" x2="642" y2="93" stroke="#d8dee4" stroke-width="1"></line><text x="46" y="97" font-size="9.5" font-weight="400" text-anchor="end" fill="#656d76" font-family="ui-monospace,SFMono-Regular,Menlo,monospace">$0.117</text><line x1="56" y1="22" x2="642" y2="22" stroke="#d8dee4" stroke-width="1"></line><text x="46" y="26" font-size="9.5" font-weight="400" text-anchor="end" fill="#656d76" font-family="ui-monospace,SFMono-Regular,Menlo,monospace">$0.156</text><text x="56" y="324" font-size="9.5" font-weight="400" text-anchor="middle" fill="#656d76" font-family="ui-monospace,SFMono-Regular,Menlo,monospace">06/06</text><text x="112.71" y="324" font-size="9.5" font-weight="400" text-anchor="middle" fill="#656d76" font-family="ui-monospace,SFMono-Regular,Menlo,monospace">06/08</text><text x="169.42" y="324" font-size="9.5" font-weight="400" text-anchor="middle" fill="#656d76" font-family="ui-monospace,SFMono-Regular,Menlo,monospace">06/08</text><text x="226.13" y="324" font-size="9.5" font-weight="400" text-anchor="middle" fill="#656d76" font-family="ui-monospace,SFMono-Regular,Menlo,monospace">06/09</text><text x="282.84" y="324" font-size="9.5" font-weight="400" text-anchor="middle" fill="#656d76" font-family="ui-monospace,SFMono-Regular,Menlo,monospace">06/12</text><text x="339.55" y="324" font-size="9.5" font-weight="400" text-anchor="middle" fill="#656d76" font-family="ui-monospace,SFMono-Regular,Menlo,monospace">06/14</text><text x="396.26" y="324" font-size="9.5" font-weight="400" text-anchor="middle" fill="#656d76" font-family="ui-monospace,SFMono-Regular,Menlo,monospace">06/15</text><text x="452.97" y="324" font-size="9.5" font-weight="400" text-anchor="middle" fill="#656d76" font-family="ui-monospace,SFMono-Regular,Menlo,monospace">06/16</text><text x="509.68" y="324" font-size="9.5" font-weight="400" text-anchor="middle" fill="#656d76" font-family="ui-monospace,SFMono-Regular,Menlo,monospace">06/17</text><text x="566.39" y="324" font-size="9.5" font-weight="400" text-anchor="middle" fill="#656d76" font-family="ui-monospace,SFMono-Regular,Menlo,monospace">06/20</text><text x="623.1" y="324" font-size="9.5" font-weight="400" text-anchor="middle" fill="#656d76" font-family="ui-monospace,SFMono-Regular,Menlo,monospace">06/21</text><text x="642" y="324" font-size="9.5" font-weight="400" text-anchor="middle" fill="#656d76" font-family="ui-monospace,SFMono-Regular,Menlo,monospace">06/21</text><polyline fill="none" stroke="#6366F1" stroke-width="2.4" stroke-linejoin="round" stroke-linecap="round" points="131.61,291.87 141.06,291.95 150.52,292.7 159.97,291.35 169.42,291.63 178.87,285.11 188.32,292.93 197.77,290.09 207.23,290.15 216.68,289.63 226.13,291.49 235.58,290.13 245.03,286.49 254.48,290.42 263.94,286.82 273.39,292.91 282.84,290.47 292.29,286.41 301.74,283.36 311.19,290.5 320.65,289.27 330.1,292.21 339.55,288.21 349,284.69 358.45,291.21 367.9,289.99 377.35,290.87 386.81,289.54 405.71,288.89 415.16,291.37 424.61,291.85 434.06,288.99 443.52,289.23 452.97,289.9 462.42,290.68 471.87,291.26 481.32,291.88 500.23,292.21 509.68,292.39 519.13,290.62 528.58,289.36 538.03,289.25 547.48,282.39 556.94,289.77 566.39,286.62 575.84,288.64 585.29,286.81 594.74,290.08 604.19,291.81 613.65,292.58 623.1,280.86 632.55,292.19 642,290.14"></polyline><circle cx="131.61" cy="291.87" r="2.6" fill="#6366F1"></circle><circle cx="141.06" cy="291.95" r="2.6" fill="#6366F1"></circle><circle cx="150.52" cy="292.7" r="2.6" fill="#6366F1"></circle><circle cx="159.97" cy="291.35" r="2.6" fill="#6366F1"></circle><circle cx="169.42" cy="291.63" r="2.6" fill="#6366F1"></circle><circle cx="178.87" cy="285.11" r="2.6" fill="#6366F1"></circle><circle cx="188.32" cy="292.93" r="2.6" fill="#6366F1"></circle><circle cx="197.77" cy="290.09" r="2.6" fill="#6366F1"></circle><circle cx="207.23" cy="290.15" r="2.6" fill="#6366F1"></circle><circle cx="216.68" cy="289.63" r="2.6" fill="#6366F1"></circle><circle cx="226.13" cy="291.49" r="2.6" fill="#6366F1"></circle><circle cx="235.58" cy="290.13" r="2.6" fill="#6366F1"></circle><circle cx="245.03" cy="286.49" r="2.6" fill="#6366F1"></circle><circle cx="254.48" cy="290.42" r="2.6" fill="#6366F1"></circle><circle cx="263.94" cy="286.82" r="2.6" fill="#6366F1"></circle><circle cx="273.39" cy="292.91" r="2.6" fill="#6366F1"></circle><circle cx="282.84" cy="290.47" r="2.6" fill="#6366F1"></circle><circle cx="292.29" cy="286.41" r="2.6" fill="#6366F1"></circle><circle cx="301.74" cy="283.36" r="2.6" fill="#6366F1"></circle><circle cx="311.19" cy="290.5" r="2.6" fill="#6366F1"></circle><circle cx="320.65" cy="289.27" r="2.6" fill="#6366F1"></circle><circle cx="330.1" cy="292.21" r="2.6" fill="#6366F1"></circle><circle cx="339.55" cy="288.21" r="2.6" fill="#6366F1"></circle><circle cx="349" cy="284.69" r="2.6" fill="#6366F1"></circle><circle cx="358.45" cy="291.21" r="2.6" fill="#6366F1"></circle><circle cx="367.9" cy="289.99" r="2.6" fill="#6366F1"></circle><circle cx="377.35" cy="290.87" r="2.6" fill="#6366F1"></circle><circle cx="386.81" cy="289.54" r="2.6" fill="#6366F1"></circle><circle cx="405.71" cy="288.89" r="2.6" fill="#6366F1"></circle><circle cx="415.16" cy="291.37" r="2.6" fill="#6366F1"></circle><circle cx="424.61" cy="291.85" r="2.6" fill="#6366F1"></circle><circle cx="434.06" cy="288.99" r="2.6" fill="#6366F1"></circle><circle cx="443.52" cy="289.23" r="2.6" fill="#6366F1"></circle><circle cx="452.97" cy="289.9" r="2.6" fill="#6366F1"></circle><circle cx="462.42" cy="290.68" r="2.6" fill="#6366F1"></circle><circle cx="471.87" cy="291.26" r="2.6" fill="#6366F1"></circle><circle cx="481.32" cy="291.88" r="2.6" fill="#6366F1"></circle><circle cx="500.23" cy="292.21" r="2.6" fill="#6366F1"></circle><circle cx="509.68" cy="292.39" r="2.6" fill="#6366F1"></circle><circle cx="519.13" cy="290.62" r="2.6" fill="#6366F1"></circle><circle cx="528.58" cy="289.36" r="2.6" fill="#6366F1"></circle><circle cx="538.03" cy="289.25" r="2.6" fill="#6366F1"></circle><circle cx="547.48" cy="282.39" r="2.6" fill="#6366F1"></circle><circle cx="556.94" cy="289.77" r="2.6" fill="#6366F1"></circle><circle cx="566.39" cy="286.62" r="2.6" fill="#6366F1"></circle><circle cx="575.84" cy="288.64" r="2.6" fill="#6366F1"></circle><circle cx="585.29" cy="286.81" r="2.6" fill="#6366F1"></circle><circle cx="594.74" cy="290.08" r="2.6" fill="#6366F1"></circle><circle cx="604.19" cy="291.81" r="2.6" fill="#6366F1"></circle><circle cx="613.65" cy="292.58" r="2.6" fill="#6366F1"></circle><circle cx="623.1" cy="280.86" r="2.6" fill="#6366F1"></circle><circle cx="632.55" cy="292.19" r="2.6" fill="#6366F1"></circle><circle cx="642" cy="290.14" r="2.6" fill="#6366F1"></circle><polyline fill="none" stroke="#A371F7" stroke-width="2.4" stroke-linejoin="round" stroke-linecap="round" points="56,225.54 65.45,237.27 74.9,241.16 84.35,222.65 93.81,230.98 103.26,242.54 112.71,237.21 122.16,229.47 131.61,233.19 141.06,240.54 150.52,233.11 159.97,230.24 169.42,235.21 178.87,216.34 188.32,236.68 197.77,230.04 207.23,239.9 216.68,240.52 226.13,217.4 235.58,231.63 245.03,200.88 254.48,239.19 263.94,242.32 273.39,228.88 282.84,226.62 292.29,230.55 301.74,232.61 311.19,229.81 320.65,239.72 330.1,234.73 339.55,230.36 349,237.37 358.45,242.18 367.9,217.16 377.35,236.77 386.81,238.8 405.71,215.79 415.16,239.22 424.61,229.54 443.52,230.2 452.97,240.21 462.42,240.7 471.87,236.68 481.32,233.81 490.77,236.41 500.23,236.99 509.68,235.33 519.13,225.27 528.58,230.08 538.03,231.44 547.48,237.84 556.94,233.29 566.39,236.75 575.84,235.58 594.74,237.47 604.19,231.93 623.1,226.76 632.55,235.94 642,231.36"></polyline><circle cx="56" cy="225.54" r="2.6" fill="#A371F7"></circle><circle cx="65.45" cy="237.27" r="2.6" fill="#A371F7"></circle><circle cx="74.9" cy="241.16" r="2.6" fill="#A371F7"></circle><circle cx="84.35" cy="222.65" r="2.6" fill="#A371F7"></circle><circle cx="93.81" cy="230.98" r="2.6" fill="#A371F7"></circle><circle cx="103.26" cy="242.54" r="2.6" fill="#A371F7"></circle><circle cx="112.71" cy="237.21" r="2.6" fill="#A371F7"></circle><circle cx="122.16" cy="229.47" r="2.6" fill="#A371F7"></circle><circle cx="131.61" cy="233.19" r="2.6" fill="#A371F7"></circle><circle cx="141.06" cy="240.54" r="2.6" fill="#A371F7"></circle><circle cx="150.52" cy="233.11" r="2.6" fill="#A371F7"></circle><circle cx="159.97" cy="230.24" r="2.6" fill="#A371F7"></circle><circle cx="169.42" cy="235.21" r="2.6" fill="#A371F7"></circle><circle cx="178.87" cy="216.34" r="2.6" fill="#A371F7"></circle><circle cx="188.32" cy="236.68" r="2.6" fill="#A371F7"></circle><circle cx="197.77" cy="230.04" r="2.6" fill="#A371F7"></circle><circle cx="207.23" cy="239.9" r="2.6" fill="#A371F7"></circle><circle cx="216.68" cy="240.52" r="2.6" fill="#A371F7"></circle><circle cx="226.13" cy="217.4" r="2.6" fill="#A371F7"></circle><circle cx="235.58" cy="231.63" r="2.6" fill="#A371F7"></circle><circle cx="245.03" cy="200.88" r="2.6" fill="#A371F7"></circle><circle cx="254.48" cy="239.19" r="2.6" fill="#A371F7"></circle><circle cx="263.94" cy="242.32" r="2.6" fill="#A371F7"></circle><circle cx="273.39" cy="228.88" r="2.6" fill="#A371F7"></circle><circle cx="282.84" cy="226.62" r="2.6" fill="#A371F7"></circle><circle cx="292.29" cy="230.55" r="2.6" fill="#A371F7"></circle><circle cx="301.74" cy="232.61" r="2.6" fill="#A371F7"></circle><circle cx="311.19" cy="229.81" r="2.6" fill="#A371F7"></circle><circle cx="320.65" cy="239.72" r="2.6" fill="#A371F7"></circle><circle cx="330.1" cy="234.73" r="2.6" fill="#A371F7"></circle><circle cx="339.55" cy="230.36" r="2.6" fill="#A371F7"></circle><circle cx="349" cy="237.37" r="2.6" fill="#A371F7"></circle><circle cx="358.45" cy="242.18" r="2.6" fill="#A371F7"></circle><circle cx="367.9" cy="217.16" r="2.6" fill="#A371F7"></circle><circle cx="377.35" cy="236.77" r="2.6" fill="#A371F7"></circle><circle cx="386.81" cy="238.8" r="2.6" fill="#A371F7"></circle><circle cx="405.71" cy="215.79" r="2.6" fill="#A371F7"></circle><circle cx="415.16" cy="239.22" r="2.6" fill="#A371F7"></circle><circle cx="424.61" cy="229.54" r="2.6" fill="#A371F7"></circle><circle cx="443.52" cy="230.2" r="2.6" fill="#A371F7"></circle><circle cx="452.97" cy="240.21" r="2.6" fill="#A371F7"></circle><circle cx="462.42" cy="240.7" r="2.6" fill="#A371F7"></circle><circle cx="471.87" cy="236.68" r="2.6" fill="#A371F7"></circle><circle cx="481.32" cy="233.81" r="2.6" fill="#A371F7"></circle><circle cx="490.77" cy="236.41" r="2.6" fill="#A371F7"></circle><circle cx="500.23" cy="236.99" r="2.6" fill="#A371F7"></circle><circle cx="509.68" cy="235.33" r="2.6" fill="#A371F7"></circle><circle cx="519.13" cy="225.27" r="2.6" fill="#A371F7"></circle><circle cx="528.58" cy="230.08" r="2.6" fill="#A371F7"></circle><circle cx="538.03" cy="231.44" r="2.6" fill="#A371F7"></circle><circle cx="547.48" cy="237.84" r="2.6" fill="#A371F7"></circle><circle cx="556.94" cy="233.29" r="2.6" fill="#A371F7"></circle><circle cx="566.39" cy="236.75" r="2.6" fill="#A371F7"></circle><circle cx="575.84" cy="235.58" r="2.6" fill="#A371F7"></circle><circle cx="594.74" cy="237.47" r="2.6" fill="#A371F7"></circle><circle cx="604.19" cy="231.93" r="2.6" fill="#A371F7"></circle><circle cx="623.1" cy="226.76" r="2.6" fill="#A371F7"></circle><circle cx="632.55" cy="235.94" r="2.6" fill="#A371F7"></circle><circle cx="642" cy="231.36" r="2.6" fill="#A371F7"></circle><polyline fill="none" stroke="#F0A23B" stroke-width="2.4" stroke-linejoin="round" stroke-linecap="round" points="56,160.85 65.45,149.92 74.9,70.2 84.35,169.38 93.81,163.91 103.26,167.41 112.71,154.25 122.16,153.87 131.61,149.66 141.06,158.07 150.52,149.63 159.97,150.64 169.42,152.96 178.87,161.27 188.32,143.94 197.77,159.53 207.23,152.17 216.68,157.33 226.13,171.16 235.58,160.95 245.03,166.98 254.48,163.02 263.94,96.15 273.39,163.67 282.84,165.96 292.29,162.5 301.74,164.6 311.19,133.08 320.65,161.73 330.1,142.7 339.55,164.28 349,133.29 358.45,165.88 367.9,164.83 377.35,52.43 386.81,75.44 396.26,163.37 405.71,165.49 415.16,165.42 424.61,161.66 434.06,163.65 443.52,169.01 452.97,168.02 462.42,113.27 471.87,164.02 481.32,164.19 490.77,97.53 500.23,160.51 509.68,137.07 519.13,166.58 528.58,163.26 538.03,163.3 547.48,133.59 556.94,117.45 566.39,167.38 575.84,165.8 585.29,168.5 594.74,163.02 604.19,166.8 613.65,162.64 623.1,97.89 632.55,165.31 642,162.3"></polyline><circle cx="56" cy="160.85" r="2.6" fill="#F0A23B"></circle><circle cx="65.45" cy="149.92" r="2.6" fill="#F0A23B"></circle><circle cx="74.9" cy="70.2" r="2.6" fill="#F0A23B"></circle><circle cx="84.35" cy="169.38" r="2.6" fill="#F0A23B"></circle><circle cx="93.81" cy="163.91" r="2.6" fill="#F0A23B"></circle><circle cx="103.26" cy="167.41" r="2.6" fill="#F0A23B"></circle><circle cx="112.71" cy="154.25" r="2.6" fill="#F0A23B"></circle><circle cx="122.16" cy="153.87" r="2.6" fill="#F0A23B"></circle><circle cx="131.61" cy="149.66" r="2.6" fill="#F0A23B"></circle><circle cx="141.06" cy="158.07" r="2.6" fill="#F0A23B"></circle><circle cx="150.52" cy="149.63" r="2.6" fill="#F0A23B"></circle><circle cx="159.97" cy="150.64" r="2.6" fill="#F0A23B"></circle><circle cx="169.42" cy="152.96" r="2.6" fill="#F0A23B"></circle><circle cx="178.87" cy="161.27" r="2.6" fill="#F0A23B"></circle><circle cx="188.32" cy="143.94" r="2.6" fill="#F0A23B"></circle><circle cx="197.77" cy="159.53" r="2.6" fill="#F0A23B"></circle><circle cx="207.23" cy="152.17" r="2.6" fill="#F0A23B"></circle><circle cx="216.68" cy="157.33" r="2.6" fill="#F0A23B"></circle><circle cx="226.13" cy="171.16" r="2.6" fill="#F0A23B"></circle><circle cx="235.58" cy="160.95" r="2.6" fill="#F0A23B"></circle><circle cx="245.03" cy="166.98" r="2.6" fill="#F0A23B"></circle><circle cx="254.48" cy="163.02" r="2.6" fill="#F0A23B"></circle><circle cx="263.94" cy="96.15" r="2.6" fill="#F0A23B"></circle><circle cx="273.39" cy="163.67" r="2.6" fill="#F0A23B"></circle><circle cx="282.84" cy="165.96" r="2.6" fill="#F0A23B"></circle><circle cx="292.29" cy="162.5" r="2.6" fill="#F0A23B"></circle><circle cx="301.74" cy="164.6" r="2.6" fill="#F0A23B"></circle><circle cx="311.19" cy="133.08" r="2.6" fill="#F0A23B"></circle><circle cx="320.65" cy="161.73" r="2.6" fill="#F0A23B"></circle><circle cx="330.1" cy="142.7" r="2.6" fill="#F0A23B"></circle><circle cx="339.55" cy="164.28" r="2.6" fill="#F0A23B"></circle><circle cx="349" cy="133.29" r="2.6" fill="#F0A23B"></circle><circle cx="358.45" cy="165.88" r="2.6" fill="#F0A23B"></circle><circle cx="367.9" cy="164.83" r="2.6" fill="#F0A23B"></circle><circle cx="377.35" cy="52.43" r="2.6" fill="#F0A23B"></circle><circle cx="386.81" cy="75.44" r="2.6" fill="#F0A23B"></circle><circle cx="396.26" cy="163.37" r="2.6" fill="#F0A23B"></circle><circle cx="405.71" cy="165.49" r="2.6" fill="#F0A23B"></circle><circle cx="415.16" cy="165.42" r="2.6" fill="#F0A23B"></circle><circle cx="424.61" cy="161.66" r="2.6" fill="#F0A23B"></circle><circle cx="434.06" cy="163.65" r="2.6" fill="#F0A23B"></circle><circle cx="443.52" cy="169.01" r="2.6" fill="#F0A23B"></circle><circle cx="452.97" cy="168.02" r="2.6" fill="#F0A23B"></circle><circle cx="462.42" cy="113.27" r="2.6" fill="#F0A23B"></circle><circle cx="471.87" cy="164.02" r="2.6" fill="#F0A23B"></circle><circle cx="481.32" cy="164.19" r="2.6" fill="#F0A23B"></circle><circle cx="490.77" cy="97.53" r="2.6" fill="#F0A23B"></circle><circle cx="500.23" cy="160.51" r="2.6" fill="#F0A23B"></circle><circle cx="509.68" cy="137.07" r="2.6" fill="#F0A23B"></circle><circle cx="519.13" cy="166.58" r="2.6" fill="#F0A23B"></circle><circle cx="528.58" cy="163.26" r="2.6" fill="#F0A23B"></circle><circle cx="538.03" cy="163.3" r="2.6" fill="#F0A23B"></circle><circle cx="547.48" cy="133.59" r="2.6" fill="#F0A23B"></circle><circle cx="556.94" cy="117.45" r="2.6" fill="#F0A23B"></circle><circle cx="566.39" cy="167.38" r="2.6" fill="#F0A23B"></circle><circle cx="575.84" cy="165.8" r="2.6" fill="#F0A23B"></circle><circle cx="585.29" cy="168.5" r="2.6" fill="#F0A23B"></circle><circle cx="594.74" cy="163.02" r="2.6" fill="#F0A23B"></circle><circle cx="604.19" cy="166.8" r="2.6" fill="#F0A23B"></circle><circle cx="613.65" cy="162.64" r="2.6" fill="#F0A23B"></circle><circle cx="623.1" cy="97.89" r="2.6" fill="#F0A23B"></circle><circle cx="632.55" cy="165.31" r="2.6" fill="#F0A23B"></circle><circle cx="642" cy="162.3" r="2.6" fill="#F0A23B"></circle><line x1="656" y1="27" x2="672" y2="27" stroke="#6366F1" stroke-width="3" stroke-linecap="round"></line><text x="678" y="30" font-size="11" font-weight="400" text-anchor="start" fill="#1f2328">deepseek</text><line x1="656" y1="47" x2="672" y2="47" stroke="#A371F7" stroke-width="3" stroke-linecap="round"></line><text x="678" y="50" font-size="11" font-weight="400" text-anchor="start" fill="#1f2328">llama</text><line x1="656" y1="67" x2="672" y2="67" stroke="#F0A23B" stroke-width="3" stroke-linecap="round"></line><text x="678" y="70" font-size="11" font-weight="400" text-anchor="start" fill="#1f2328">mistral</text></svg>
