<svg xmlns="http://www.w3.org/2000/svg" viewBox="0 0 600 300" width="600" height="300" role="img" aria-label="Cost per test by provider over runs ($)"><text x="300.0" y="24" text-anchor="middle" font-family="system-ui, -apple-system, sans-serif" font-size="14" font-weight="600" fill="#333">Cost per test by provider over runs ($)</text><line x1="60" y1="240.0" x2="480" y2="240.0" stroke="#eee" stroke-width="1"/><text x="54" y="244.0" text-anchor="end" font-family="system-ui, -apple-system, sans-serif" font-size="9" fill="#999">0.007197</text><line x1="60" y1="140.0" x2="480" y2="140.0" stroke="#eee" stroke-width="1"/><text x="54" y="144.0" text-anchor="end" font-family="system-ui, -apple-system, sans-serif" font-size="9" fill="#999">0.08167</text><line x1="60" y1="40.0" x2="480" y2="40.0" stroke="#eee" stroke-width="1"/><text x="54" y="44.0" text-anchor="end" font-family="system-ui, -apple-system, sans-serif" font-size="9" fill="#999">0.1561</text><polyline fill="none" stroke="#4CAF50" stroke-width="2" points="60.0,141.8 73.5,142.3 87.1,106.4 100.6,144.1 114.2,138.9 127.7,140.8 141.3,140.9 154.8,137.9 168.4,140.5 181.9,140.1 195.5,80.0 209.0,136.1 222.6,140.2 236.1,140.5 249.7,135.0 263.2,93.8 276.8,133.9 290.3,140.6 303.9,113.7 317.4,136.4 331.0,134.8 344.5,140.9 358.1,121.5 371.6,138.0 385.2,40.0 398.7,126.7 412.3,138.5 425.8,109.3 439.4,137.0 452.9,84.7 466.5,137.6 480.0,142.0"/><circle cx="60.0" cy="141.8" r="3" fill="#4CAF50"/><circle cx="73.5" cy="142.3" r="3" fill="#4CAF50"/><circle cx="87.1" cy="106.4" r="3" fill="#4CAF50"/><circle cx="100.6" cy="144.1" r="3" fill="#4CAF50"/><circle cx="114.2" cy="138.9" r="3" fill="#4CAF50"/><circle cx="127.7" cy="140.8" r="3" fill="#4CAF50"/><circle cx="141.3" cy="140.9" r="3" fill="#4CAF50"/><circle cx="154.8" cy="137.9" r="3" fill="#4CAF50"/><circle cx="168.4" cy="140.5" r="3" fill="#4CAF50"/><circle cx="181.9" cy="140.1" r="3" fill="#4CAF50"/><circle cx="195.5" cy="80.0" r="3" fill="#4CAF50"/><circle cx="209.0" cy="136.1" r="3" fill="#4CAF50"/><circle cx="222.6" cy="140.2" r="3" fill="#4CAF50"/><circle cx="236.1" cy="140.5" r="3" fill="#4CAF50"/><circle cx="249.7" cy="135.0" r="3" fill="#4CAF50"/><circle cx="263.2" cy="93.8" r="3" fill="#4CAF50"/><circle cx="276.8" cy="133.9" r="3" fill="#4CAF50"/><circle cx="290.3" cy="140.6" r="3" fill="#4CAF50"/><circle cx="303.9" cy="113.7" r="3" fill="#4CAF50"/><circle cx="317.4" cy="136.4" r="3" fill="#4CAF50"/><circle cx="331.0" cy="134.8" r="3" fill="#4CAF50"/><circle cx="344.5" cy="140.9" r="3" fill="#4CAF50"/><circle cx="358.1" cy="121.5" r="3" fill="#4CAF50"/><circle cx="371.6" cy="138.0" r="3" fill="#4CAF50"/><circle cx="385.2" cy="40.0" r="3" fill="#4CAF50"/><circle cx="398.7" cy="126.7" r="3" fill="#4CAF50"/><circle cx="412.3" cy="138.5" r="3" fill="#4CAF50"/><circle cx="425.8" cy="109.3" r="3" fill="#4CAF50"/><circle cx="439.4" cy="137.0" r="3" fill="#4CAF50"/><circle cx="452.9" cy="84.7" r="3" fill="#4CAF50"/><circle cx="466.5" cy="137.6" r="3" fill="#4CAF50"/><circle cx="480.0" cy="142.0" r="3" fill="#4CAF50"/><rect x="490" y="44" width="10" height="10" fill="#4CAF50"/><text x="504" y="53" font-family="system-ui, -apple-system, sans-serif" font-size="10" fill="#333">openai</text><polyline fill="none" stroke="#2196F3" stroke-width="2" points="60.0,143.4 73.5,149.4 87.1,143.1 100.6,145.8 114.2,151.8 127.7,139.6 141.3,145.6 154.8,141.5 168.4,141.5 181.9,140.7 195.5,142.6 209.0,153.3 222.6,152.2 236.1,146.8 249.7,141.9 263.2,142.2 276.8,116.6 290.3,142.0 303.9,114.7 317.4,122.7 331.0,135.5 344.5,130.6 358.1,145.2 371.6,124.2 385.2,141.8 398.7,137.0 412.3,134.1 425.8,136.4"/><circle cx="60.0" cy="143.4" r="3" fill="#2196F3"/><circle cx="73.5" cy="149.4" r="3" fill="#2196F3"/><circle cx="87.1" cy="143.1" r="3" fill="#2196F3"/><circle cx="100.6" cy="145.8" r="3" fill="#2196F3"/><circle cx="114.2" cy="151.8" r="3" fill="#2196F3"/><circle cx="127.7" cy="139.6" r="3" fill="#2196F3"/><circle cx="141.3" cy="145.6" r="3" fill="#2196F3"/><circle cx="154.8" cy="141.5" r="3" fill="#2196F3"/><circle cx="168.4" cy="141.5" r="3" fill="#2196F3"/><circle cx="181.9" cy="140.7" r="3" fill="#2196F3"/><circle cx="195.5" cy="142.6" r="3" fill="#2196F3"/><circle cx="209.0" cy="153.3" r="3" fill="#2196F3"/><circle cx="222.6" cy="152.2" r="3" fill="#2196F3"/><circle cx="236.1" cy="146.8" r="3" fill="#2196F3"/><circle cx="249.7" cy="141.9" r="3" fill="#2196F3"/><circle cx="263.2" cy="142.2" r="3" fill="#2196F3"/><circle cx="276.8" cy="116.6" r="3" fill="#2196F3"/><circle cx="290.3" cy="142.0" r="3" fill="#2196F3"/><circle cx="303.9" cy="114.7" r="3" fill="#2196F3"/><circle cx="317.4" cy="122.7" r="3" fill="#2196F3"/><circle cx="331.0" cy="135.5" r="3" fill="#2196F3"/><circle cx="344.5" cy="130.6" r="3" fill="#2196F3"/><circle cx="358.1" cy="145.2" r="3" fill="#2196F3"/><circle cx="371.6" cy="124.2" r="3" fill="#2196F3"/><circle cx="385.2" cy="141.8" r="3" fill="#2196F3"/><circle cx="398.7" cy="137.0" r="3" fill="#2196F3"/><circle cx="412.3" cy="134.1" r="3" fill="#2196F3"/><circle cx="425.8" cy="136.4" r="3" fill="#2196F3"/><rect x="490" y="62" width="10" height="10" fill="#2196F3"/><text x="504" y="71" font-family="system-ui, -apple-system, sans-serif" font-size="10" fill="#333">gemini</text><polyline fill="none" stroke="#FF9800" stroke-width="2" points="60.0,102.1 73.5,121.1 87.1,125.3 100.6,97.5 114.2,120.5 127.7,80.6 141.3,115.2 154.8,101.9 168.4,109.2 181.9,118.7 195.5,125.8 209.0,114.2 222.6,107.2 236.1,139.1 249.7,123.1 263.2,120.9 276.8,110.3 303.9,112.2 317.4,124.4 331.0,98.5 344.5,127.8 358.1,122.4 371.6,111.2 385.2,121.0 398.7,123.4 412.3,129.2 425.8,122.2 439.4,135.4 452.9,124.0 466.5,123.6 480.0,132.5"/><circle cx="60.0" cy="102.1" r="3" fill="#FF9800"/><circle cx="73.5" cy="121.1" r="3" fill="#FF9800"/><circle cx="87.1" cy="125.3" r="3" fill="#FF9800"/><circle cx="100.6" cy="97.5" r="3" fill="#FF9800"/><circle cx="114.2" cy="120.5" r="3" fill="#FF9800"/><circle cx="127.7" cy="80.6" r="3" fill="#FF9800"/><circle cx="141.3" cy="115.2" r="3" fill="#FF9800"/><circle cx="154.8" cy="101.9" r="3" fill="#FF9800"/><circle cx="168.4" cy="109.2" r="3" fill="#FF9800"/><circle cx="181.9" cy="118.7" r="3" fill="#FF9800"/><circle cx="195.5" cy="125.8" r="3" fill="#FF9800"/><circle cx="209.0" cy="114.2" r="3" fill="#FF9800"/><circle cx="222.6" cy="107.2" r="3" fill="#FF9800"/><circle cx="236.1" cy="139.1" r="3" fill="#FF9800"/><circle cx="249.7" cy="123.1" r="3" fill="#FF9800"/><circle cx="263.2" cy="120.9" r="3" fill="#FF9800"/><circle cx="276.8" cy="110.3" r="3" fill="#FF9800"/><circle cx="303.9" cy="112.2" r="3" fill="#FF9800"/><circle cx="317.4" cy="124.4" r="3" fill="#FF9800"/><circle cx="331.0" cy="98.5" r="3" fill="#FF9800"/><circle cx="344.5" cy="127.8" r="3" fill="#FF9800"/><circle cx="358.1" cy="122.4" r="3" fill="#FF9800"/><circle cx="371.6" cy="111.2" r="3" fill="#FF9800"/><circle cx="385.2" cy="121.0" r="3" fill="#FF9800"/><circle cx="398.7" cy="123.4" r="3" fill="#FF9800"/><circle cx="412.3" cy="129.2" r="3" fill="#FF9800"/><circle cx="425.8" cy="122.2" r="3" fill="#FF9800"/><circle cx="439.4" cy="135.4" r="3" fill="#FF9800"/><circle cx="452.9" cy="124.0" r="3" fill="#FF9800"/><circle cx="466.5" cy="123.6" r="3" fill="#FF9800"/><circle cx="480.0" cy="132.5" r="3" fill="#FF9800"/><rect x="490" y="80" width="10" height="10" fill="#FF9800"/><text x="504" y="89" font-family="system-ui, -apple-system, sans-serif" font-size="10" fill="#333">anthropic</text><polyline fill="none" stroke="#E91E63" stroke-width="2" points="60.0,142.3 73.5,134.2 87.1,75.2 100.6,148.6 114.2,144.6 127.7,147.1 141.3,137.4 154.8,137.1 168.4,134.0 181.9,140.2 195.5,134.0 209.0,134.7 222.6,136.5 236.1,142.6 249.7,129.8 263.2,141.3 276.8,135.9 290.3,139.7 303.9,149.9 317.4,142.4 331.0,146.8 344.5,143.9 358.1,94.4 371.6,144.4 385.2,146.1 398.7,143.5 412.3,145.1 425.8,121.8 439.4,142.9 452.9,128.9 466.5,144.8 480.0,121.9"/><circle cx="60.0" cy="142.3" r="3" fill="#E91E63"/><circle cx="73.5" cy="134.2" r="3" fill="#E91E63"/><circle cx="87.1" cy="75.2" r="3" fill="#E91E63"/><circle cx="100.6" cy="148.6" r="3" fill="#E91E63"/><circle cx="114.2" cy="144.6" r="3" fill="#E91E63"/><circle cx="127.7" cy="147.1" r="3" fill="#E91E63"/><circle cx="141.3" cy="137.4" r="3" fill="#E91E63"/><circle cx="154.8" cy="137.1" r="3" fill="#E91E63"/><circle cx="168.4" cy="134.0" r="3" fill="#E91E63"/><circle cx="181.9" cy="140.2" r="3" fill="#E91E63"/><circle cx="195.5" cy="134.0" r="3" fill="#E91E63"/><circle cx="209.0" cy="134.7" r="3" fill="#E91E63"/><circle cx="222.6" cy="136.5" r="3" fill="#E91E63"/><circle cx="236.1" cy="142.6" r="3" fill="#E91E63"/><circle cx="249.7" cy="129.8" r="3" fill="#E91E63"/><circle cx="263.2" cy="141.3" r="3" fill="#E91E63"/><circle cx="276.8" cy="135.9" r="3" fill="#E91E63"/><circle cx="290.3" cy="139.7" r="3" fill="#E91E63"/><circle cx="303.9" cy="149.9" r="3" fill="#E91E63"/><circle cx="317.4" cy="142.4" r="3" fill="#E91E63"/><circle cx="331.0" cy="146.8" r="3" fill="#E91E63"/><circle cx="344.5" cy="143.9" r="3" fill="#E91E63"/><circle cx="358.1" cy="94.4" r="3" fill="#E91E63"/><circle cx="371.6" cy="144.4" r="3" fill="#E91E63"/><circle cx="385.2" cy="146.1" r="3" fill="#E91E63"/><circle cx="398.7" cy="143.5" r="3" fill="#E91E63"/><circle cx="412.3" cy="145.1" r="3" fill="#E91E63"/><circle cx="425.8" cy="121.8" r="3" fill="#E91E63"/><circle cx="439.4" cy="142.9" r="3" fill="#E91E63"/><circle cx="452.9" cy="128.9" r="3" fill="#E91E63"/><circle cx="466.5" cy="144.8" r="3" fill="#E91E63"/><circle cx="480.0" cy="121.9" r="3" fill="#E91E63"/><rect x="490" y="98" width="10" height="10" fill="#E91E63"/><text x="504" y="107" font-family="system-ui, -apple-system, sans-serif" font-size="10" fill="#333">mistral</text><polyline fill="none" stroke="#9C27B0" stroke-width="2" points="60.0,190.1 73.5,198.8 87.1,201.7 100.6,188.0 114.2,194.2 127.7,202.7 141.3,198.8 154.8,193.1 168.4,195.8 181.9,201.2 195.5,195.7 209.0,193.6 222.6,197.3 236.1,183.3 249.7,198.4 263.2,193.5 276.8,200.8 290.3,201.2 303.9,184.1 317.4,194.7 331.0,171.9 344.5,200.2 358.1,202.6 371.6,192.6 385.2,190.9 398.7,193.9 412.3,195.4 425.8,193.3 439.4,200.6 452.9,196.9 466.5,193.7 480.0,198.9"/><circle cx="60.0" cy="190.1" r="3" fill="#9C27B0"/><circle cx="73.5" cy="198.8" r="3" fill="#9C27B0"/><circle cx="87.1" cy="201.7" r="3" fill="#9C27B0"/><circle cx="100.6" cy="188.0" r="3" fill="#9C27B0"/><circle cx="114.2" cy="194.2" r="3" fill="#9C27B0"/><circle cx="127.7" cy="202.7" r="3" fill="#9C27B0"/><circle cx="141.3" cy="198.8" r="3" fill="#9C27B0"/><circle cx="154.8" cy="193.1" r="3" fill="#9C27B0"/><circle cx="168.4" cy="195.8" r="3" fill="#9C27B0"/><circle cx="181.9" cy="201.2" r="3" fill="#9C27B0"/><circle cx="195.5" cy="195.7" r="3" fill="#9C27B0"/><circle cx="209.0" cy="193.6" r="3" fill="#9C27B0"/><circle cx="222.6" cy="197.3" r="3" fill="#9C27B0"/><circle cx="236.1" cy="183.3" r="3" fill="#9C27B0"/><circle cx="249.7" cy="198.4" r="3" fill="#9C27B0"/><circle cx="263.2" cy="193.5" r="3" fill="#9C27B0"/><circle cx="276.8" cy="200.8" r="3" fill="#9C27B0"/><circle cx="290.3" cy="201.2" r="3" fill="#9C27B0"/><circle cx="303.9" cy="184.1" r="3" fill="#9C27B0"/><circle cx="317.4" cy="194.7" r="3" fill="#9C27B0"/><circle cx="331.0" cy="171.9" r="3" fill="#9C27B0"/><circle cx="344.5" cy="200.2" r="3" fill="#9C27B0"/><circle cx="358.1" cy="202.6" r="3" fill="#9C27B0"/><circle cx="371.6" cy="192.6" r="3" fill="#9C27B0"/><circle cx="385.2" cy="190.9" r="3" fill="#9C27B0"/><circle cx="398.7" cy="193.9" r="3" fill="#9C27B0"/><circle cx="412.3" cy="195.4" r="3" fill="#9C27B0"/><circle cx="425.8" cy="193.3" r="3" fill="#9C27B0"/><circle cx="439.4" cy="200.6" r="3" fill="#9C27B0"/><circle cx="452.9" cy="196.9" r="3" fill="#9C27B0"/><circle cx="466.5" cy="193.7" r="3" fill="#9C27B0"/><circle cx="480.0" cy="198.9" r="3" fill="#9C27B0"/><rect x="490" y="116" width="10" height="10" fill="#9C27B0"/><text x="504" y="125" font-family="system-ui, -apple-system, sans-serif" font-size="10" fill="#333">llama</text><polyline fill="none" stroke="#00BCD4" stroke-width="2" points="168.4,239.2 181.9,239.3 195.5,239.8 209.0,238.8 222.6,239.0 236.1,234.2 249.7,240.0 263.2,237.9 276.8,237.9 290.3,237.6 303.9,238.9 317.4,237.9 331.0,235.2 344.5,238.1 358.1,235.5 371.6,240.0 385.2,238.2 398.7,235.2 412.3,232.9 425.8,238.2 439.4,237.3 452.9,239.5 466.5,236.5 480.0,233.9"/><circle cx="168.4" cy="239.2" r="3" fill="#00BCD4"/><circle cx="181.9" cy="239.3" r="3" fill="#00BCD4"/><circle cx="195.5" cy="239.8" r="3" fill="#00BCD4"/><circle cx="209.0" cy="238.8" r="3" fill="#00BCD4"/><circle cx="222.6" cy="239.0" r="3" fill="#00BCD4"/><circle cx="236.1" cy="234.2" r="3" fill="#00BCD4"/><circle cx="249.7" cy="240.0" r="3" fill="#00BCD4"/><circle cx="263.2" cy="237.9" r="3" fill="#00BCD4"/><circle cx="276.8" cy="237.9" r="3" fill="#00BCD4"/><circle cx="290.3" cy="237.6" r="3" fill="#00BCD4"/><circle cx="303.9" cy="238.9" r="3" fill="#00BCD4"/><circle cx="317.4" cy="237.9" r="3" fill="#00BCD4"/><circle cx="331.0" cy="235.2" r="3" fill="#00BCD4"/><circle cx="344.5" cy="238.1" r="3" fill="#00BCD4"/><circle cx="358.1" cy="235.5" r="3" fill="#00BCD4"/><circle cx="371.6" cy="240.0" r="3" fill="#00BCD4"/><circle cx="385.2" cy="238.2" r="3" fill="#00BCD4"/><circle cx="398.7" cy="235.2" r="3" fill="#00BCD4"/><circle cx="412.3" cy="232.9" r="3" fill="#00BCD4"/><circle cx="425.8" cy="238.2" r="3" fill="#00BCD4"/><circle cx="439.4" cy="237.3" r="3" fill="#00BCD4"/><circle cx="452.9" cy="239.5" r="3" fill="#00BCD4"/><circle cx="466.5" cy="236.5" r="3" fill="#00BCD4"/><circle cx="480.0" cy="233.9" r="3" fill="#00BCD4"/><rect x="490" y="134" width="10" height="10" fill="#00BCD4"/><text x="504" y="143" font-family="system-ui, -apple-system, sans-serif" font-size="10" fill="#333">deepseek</text><text x="60.0" y="256.0" text-anchor="middle" font-family="system-ui, -apple-system, sans-serif" font-size="9" fill="#666">71825113</text><text x="100.6" y="256.0" text-anchor="middle" font-family="system-ui, -apple-system, sans-serif" font-size="9" fill="#666">97386462</text><text x="141.3" y="256.0" text-anchor="middle" font-family="system-ui, -apple-system, sans-serif" font-size="9" fill="#666">31919473</text><text x="181.9" y="256.0" text-anchor="middle" font-family="system-ui, -apple-system, sans-serif" font-size="9" fill="#666">51938981</text><text x="222.6" y="256.0" text-anchor="middle" font-family="system-ui, -apple-system, sans-serif" font-size="9" fill="#666">73723278</text><text x="263.2" y="256.0" text-anchor="middle" font-family="system-ui, -apple-system, sans-serif" font-size="9" fill="#666">75757458</text><text x="303.9" y="256.0" text-anchor="middle" font-family="system-ui, -apple-system, sans-serif" font-size="9" fill="#666">39719442</text><text x="344.5" y="256.0" text-anchor="middle" font-family="system-ui, -apple-system, sans-serif" font-size="9" fill="#666">04094958</text><text x="385.2" y="256.0" text-anchor="middle" font-family="system-ui, -apple-system, sans-serif" font-size="9" fill="#666">34092480</text><text x="425.8" y="256.0" text-anchor="middle" font-family="system-ui, -apple-system, sans-serif" font-size="9" fill="#666">68748512</text><text x="466.5" y="256.0" text-anchor="middle" font-family="system-ui, -apple-system, sans-serif" font-size="9" fill="#666">00682223</text></svg>
