<svg xmlns="http://www.w3.org/2000/svg" viewBox="0 0 760 348" width="760" height="348" role="img" aria-label="Cost per test by provider over runs — mistral highest, deepseek lowest" font-family="-apple-system,BlinkMacSystemFont,'Segoe UI',system-ui,sans-serif"><line x1="56" y1="306" x2="642" y2="306" stroke="#d8dee4" stroke-width="1"></line><text x="46" y="310" font-size="9.5" font-weight="400" text-anchor="end" fill="#656d76" font-family="ui-monospace,SFMono-Regular,Menlo,monospace">$0.000</text><line x1="56" y1="235" x2="642" y2="235" stroke="#d8dee4" stroke-width="1"></line><text x="46" y="239" font-size="9.5" font-weight="400" text-anchor="end" fill="#656d76" font-family="ui-monospace,SFMono-Regular,Menlo,monospace">$0.039</text><line x1="56" y1="164" x2="642" y2="164" stroke="#d8dee4" stroke-width="1"></line><text x="46" y="168" font-size="9.5" font-weight="400" text-anchor="end" fill="#656d76" font-family="ui-monospace,SFMono-Regular,Menlo,monospace">$0.079</text><line x1="56" y1="93" x2="642" y2="93" stroke="#d8dee4" stroke-width="1"></line><text x="46" y="97" font-size="9.5" font-weight="400" text-anchor="end" fill="#656d76" font-family="ui-monospace,SFMono-Regular,Menlo,monospace">$0.118</text><line x1="56" y1="22" x2="642" y2="22" stroke="#d8dee4" stroke-width="1"></line><text x="46" y="26" font-size="9.5" font-weight="400" text-anchor="end" fill="#656d76" font-family="ui-monospace,SFMono-Regular,Menlo,monospace">$0.158</text><text x="56" y="324" font-size="9.5" font-weight="400" text-anchor="middle" fill="#656d76" font-family="ui-monospace,SFMono-Regular,Menlo,monospace">06/06</text><text x="108.48" y="324" font-size="9.5" font-weight="400" text-anchor="middle" fill="#656d76" font-family="ui-monospace,SFMono-Regular,Menlo,monospace">06/08</text><text x="160.96" y="324" font-size="9.5" font-weight="400" text-anchor="middle" fill="#656d76" font-family="ui-monospace,SFMono-Regular,Menlo,monospace">06/08</text><text x="213.43" y="324" font-size="9.5" font-weight="400" text-anchor="middle" fill="#656d76" font-family="ui-monospace,SFMono-Regular,Menlo,monospace">06/09</text><text x="265.91" y="324" font-size="9.5" font-weight="400" text-anchor="middle" fill="#656d76" font-family="ui-monospace,SFMono-Regular,Menlo,monospace">06/12</text><text x="318.39" y="324" font-size="9.5" font-weight="400" text-anchor="middle" fill="#656d76" font-family="ui-monospace,SFMono-Regular,Menlo,monospace">06/14</text><text x="370.87" y="324" font-size="9.5" font-weight="400" text-anchor="middle" fill="#656d76" font-family="ui-monospace,SFMono-Regular,Menlo,monospace">06/15</text><text x="423.34" y="324" font-size="9.5" font-weight="400" text-anchor="middle" fill="#656d76" font-family="ui-monospace,SFMono-Regular,Menlo,monospace">06/16</text><text x="475.82" y="324" font-size="9.5" font-weight="400" text-anchor="middle" fill="#656d76" font-family="ui-monospace,SFMono-Regular,Menlo,monospace">06/17</text><text x="528.3" y="324" font-size="9.5" font-weight="400" text-anchor="middle" fill="#656d76" font-family="ui-monospace,SFMono-Regular,Menlo,monospace">06/20</text><text x="580.78" y="324" font-size="9.5" font-weight="400" text-anchor="middle" fill="#656d76" font-family="ui-monospace,SFMono-Regular,Menlo,monospace">06/21</text><text x="633.25" y="324" font-size="9.5" font-weight="400" text-anchor="middle" fill="#656d76" font-family="ui-monospace,SFMono-Regular,Menlo,monospace">06/22</text><text x="642" y="324" font-size="9.5" font-weight="400" text-anchor="middle" fill="#656d76" font-family="ui-monospace,SFMono-Regular,Menlo,monospace">06/22</text><polyline fill="none" stroke="#6366F1" stroke-width="2.4" stroke-linejoin="round" stroke-linecap="round" points="125.97,291.99 134.72,292.07 143.46,292.82 152.21,291.48 160.96,291.75 169.7,285.29 178.45,293.05 187.19,290.23 195.94,290.29 204.69,289.78 213.43,291.61 222.18,290.27 230.93,286.66 239.67,290.55 248.42,286.99 257.16,293.02 265.91,290.61 274.66,286.59 283.4,283.56 292.15,290.63 300.9,289.42 309.64,292.33 318.39,288.36 327.13,284.88 335.88,291.34 344.63,290.13 353.37,291.01 362.12,289.68 379.61,289.04 388.36,291.5 397.1,291.97 405.85,289.14 414.6,289.37 423.34,290.04 432.09,290.81 440.84,291.39 449.58,292 467.07,292.33 475.82,292.51 484.57,290.75 493.31,289.5 502.06,289.4 510.81,282.59 519.55,289.91 528.3,286.79 537.04,288.79 545.79,286.98 554.54,290.22 563.28,291.94 572.03,292.7 580.78,281.08 589.52,292.31 598.27,290.28 607.01,286.5 615.76,289 624.51,289.95 633.25,291.41 642,290.81"></polyline><circle cx="125.97" cy="291.99" r="2.6" fill="#6366F1"></circle><circle cx="134.72" cy="292.07" r="2.6" fill="#6366F1"></circle><circle cx="143.46" cy="292.82" r="2.6" fill="#6366F1"></circle><circle cx="152.21" cy="291.48" r="2.6" fill="#6366F1"></circle><circle cx="160.96" cy="291.75" r="2.6" fill="#6366F1"></circle><circle cx="169.7" cy="285.29" r="2.6" fill="#6366F1"></circle><circle cx="178.45" cy="293.05" r="2.6" fill="#6366F1"></circle><circle cx="187.19" cy="290.23" r="2.6" fill="#6366F1"></circle><circle cx="195.94" cy="290.29" r="2.6" fill="#6366F1"></circle><circle cx="204.69" cy="289.78" r="2.6" fill="#6366F1"></circle><circle cx="213.43" cy="291.61" r="2.6" fill="#6366F1"></circle><circle cx="222.18" cy="290.27" r="2.6" fill="#6366F1"></circle><circle cx="230.93" cy="286.66" r="2.6" fill="#6366F1"></circle><circle cx="239.67" cy="290.55" r="2.6" fill="#6366F1"></circle><circle cx="248.42" cy="286.99" r="2.6" fill="#6366F1"></circle><circle cx="257.16" cy="293.02" r="2.6" fill="#6366F1"></circle><circle cx="265.91" cy="290.61" r="2.6" fill="#6366F1"></circle><circle cx="274.66" cy="286.59" r="2.6" fill="#6366F1"></circle><circle cx="283.4" cy="283.56" r="2.6" fill="#6366F1"></circle><circle cx="292.15" cy="290.63" r="2.6" fill="#6366F1"></circle><circle cx="300.9" cy="289.42" r="2.6" fill="#6366F1"></circle><circle cx="309.64" cy="292.33" r="2.6" fill="#6366F1"></circle><circle cx="318.39" cy="288.36" r="2.6" fill="#6366F1"></circle><circle cx="327.13" cy="284.88" r="2.6" fill="#6366F1"></circle><circle cx="335.88" cy="291.34" r="2.6" fill="#6366F1"></circle><circle cx="344.63" cy="290.13" r="2.6" fill="#6366F1"></circle><circle cx="353.37" cy="291.01" r="2.6" fill="#6366F1"></circle><circle cx="362.12" cy="289.68" r="2.6" fill="#6366F1"></circle><circle cx="379.61" cy="289.04" r="2.6" fill="#6366F1"></circle><circle cx="388.36" cy="291.5" r="2.6" fill="#6366F1"></circle><circle cx="397.1" cy="291.97" r="2.6" fill="#6366F1"></circle><circle cx="405.85" cy="289.14" r="2.6" fill="#6366F1"></circle><circle cx="414.6" cy="289.37" r="2.6" fill="#6366F1"></circle><circle cx="423.34" cy="290.04" r="2.6" fill="#6366F1"></circle><circle cx="432.09" cy="290.81" r="2.6" fill="#6366F1"></circle><circle cx="440.84" cy="291.39" r="2.6" fill="#6366F1"></circle><circle cx="449.58" cy="292" r="2.6" fill="#6366F1"></circle><circle cx="467.07" cy="292.33" r="2.6" fill="#6366F1"></circle><circle cx="475.82" cy="292.51" r="2.6" fill="#6366F1"></circle><circle cx="484.57" cy="290.75" r="2.6" fill="#6366F1"></circle><circle cx="493.31" cy="289.5" r="2.6" fill="#6366F1"></circle><circle cx="502.06" cy="289.4" r="2.6" fill="#6366F1"></circle><circle cx="510.81" cy="282.59" r="2.6" fill="#6366F1"></circle><circle cx="519.55" cy="289.91" r="2.6" fill="#6366F1"></circle><circle cx="528.3" cy="286.79" r="2.6" fill="#6366F1"></circle><circle cx="537.04" cy="288.79" r="2.6" fill="#6366F1"></circle><circle cx="545.79" cy="286.98" r="2.6" fill="#6366F1"></circle><circle cx="554.54" cy="290.22" r="2.6" fill="#6366F1"></circle><circle cx="563.28" cy="291.94" r="2.6" fill="#6366F1"></circle><circle cx="572.03" cy="292.7" r="2.6" fill="#6366F1"></circle><circle cx="580.78" cy="281.08" r="2.6" fill="#6366F1"></circle><circle cx="589.52" cy="292.31" r="2.6" fill="#6366F1"></circle><circle cx="598.27" cy="290.28" r="2.6" fill="#6366F1"></circle><circle cx="607.01" cy="286.5" r="2.6" fill="#6366F1"></circle><circle cx="615.76" cy="289" r="2.6" fill="#6366F1"></circle><circle cx="624.51" cy="289.95" r="2.6" fill="#6366F1"></circle><circle cx="633.25" cy="291.41" r="2.6" fill="#6366F1"></circle><circle cx="642" cy="290.81" r="2.6" fill="#6366F1"></circle><polyline fill="none" stroke="#A371F7" stroke-width="2.4" stroke-linejoin="round" stroke-linecap="round" points="56,226.25 64.75,237.88 73.49,241.73 82.24,223.38 90.99,231.64 99.73,243.09 108.48,237.81 117.22,230.14 125.97,233.83 134.72,241.12 143.46,233.75 152.21,230.9 160.96,235.83 169.7,217.13 178.45,237.29 187.19,230.7 195.94,240.49 204.69,241.09 213.43,218.17 222.18,232.28 230.93,201.8 239.67,239.78 248.42,242.88 257.16,229.56 265.91,227.31 274.66,231.21 283.4,233.26 292.15,230.48 300.9,240.31 309.64,235.36 318.39,231.03 327.13,237.98 335.88,242.74 344.63,217.94 353.37,237.38 362.12,239.39 379.61,216.58 388.36,239.81 397.1,230.21 414.6,230.86 423.34,240.78 432.09,241.27 440.84,237.28 449.58,234.45 458.33,237.03 467.07,237.6 475.82,235.95 484.57,225.98 493.31,230.74 502.06,232.09 510.81,238.44 519.55,233.93 528.3,237.36 537.04,236.2 554.54,238.07 563.28,232.58 580.78,227.45 589.52,236.55 598.27,232.02 607.01,240.47 615.76,213.84 624.51,238.7 633.25,238.88 642,241.18"></polyline><circle cx="56" cy="226.25" r="2.6" fill="#A371F7"></circle><circle cx="64.75" cy="237.88" r="2.6" fill="#A371F7"></circle><circle cx="73.49" cy="241.73" r="2.6" fill="#A371F7"></circle><circle cx="82.24" cy="223.38" r="2.6" fill="#A371F7"></circle><circle cx="90.99" cy="231.64" r="2.6" fill="#A371F7"></circle><circle cx="99.73" cy="243.09" r="2.6" fill="#A371F7"></circle><circle cx="108.48" cy="237.81" r="2.6" fill="#A371F7"></circle><circle cx="117.22" cy="230.14" r="2.6" fill="#A371F7"></circle><circle cx="125.97" cy="233.83" r="2.6" fill="#A371F7"></circle><circle cx="134.72" cy="241.12" r="2.6" fill="#A371F7"></circle><circle cx="143.46" cy="233.75" r="2.6" fill="#A371F7"></circle><circle cx="152.21" cy="230.9" r="2.6" fill="#A371F7"></circle><circle cx="160.96" cy="235.83" r="2.6" fill="#A371F7"></circle><circle cx="169.7" cy="217.13" r="2.6" fill="#A371F7"></circle><circle cx="178.45" cy="237.29" r="2.6" fill="#A371F7"></circle><circle cx="187.19" cy="230.7" r="2.6" fill="#A371F7"></circle><circle cx="195.94" cy="240.49" r="2.6" fill="#A371F7"></circle><circle cx="204.69" cy="241.09" r="2.6" fill="#A371F7"></circle><circle cx="213.43" cy="218.17" r="2.6" fill="#A371F7"></circle><circle cx="222.18" cy="232.28" r="2.6" fill="#A371F7"></circle><circle cx="230.93" cy="201.8" r="2.6" fill="#A371F7"></circle><circle cx="239.67" cy="239.78" r="2.6" fill="#A371F7"></circle><circle cx="248.42" cy="242.88" r="2.6" fill="#A371F7"></circle><circle cx="257.16" cy="229.56" r="2.6" fill="#A371F7"></circle><circle cx="265.91" cy="227.31" r="2.6" fill="#A371F7"></circle><circle cx="274.66" cy="231.21" r="2.6" fill="#A371F7"></circle><circle cx="283.4" cy="233.26" r="2.6" fill="#A371F7"></circle><circle cx="292.15" cy="230.48" r="2.6" fill="#A371F7"></circle><circle cx="300.9" cy="240.31" r="2.6" fill="#A371F7"></circle><circle cx="309.64" cy="235.36" r="2.6" fill="#A371F7"></circle><circle cx="318.39" cy="231.03" r="2.6" fill="#A371F7"></circle><circle cx="327.13" cy="237.98" r="2.6" fill="#A371F7"></circle><circle cx="335.88" cy="242.74" r="2.6" fill="#A371F7"></circle><circle cx="344.63" cy="217.94" r="2.6" fill="#A371F7"></circle><circle cx="353.37" cy="237.38" r="2.6" fill="#A371F7"></circle><circle cx="362.12" cy="239.39" r="2.6" fill="#A371F7"></circle><circle cx="379.61" cy="216.58" r="2.6" fill="#A371F7"></circle><circle cx="388.36" cy="239.81" r="2.6" fill="#A371F7"></circle><circle cx="397.1" cy="230.21" r="2.6" fill="#A371F7"></circle><circle cx="414.6" cy="230.86" r="2.6" fill="#A371F7"></circle><circle cx="423.34" cy="240.78" r="2.6" fill="#A371F7"></circle><circle cx="432.09" cy="241.27" r="2.6" fill="#A371F7"></circle><circle cx="440.84" cy="237.28" r="2.6" fill="#A371F7"></circle><circle cx="449.58" cy="234.45" r="2.6" fill="#A371F7"></circle><circle cx="458.33" cy="237.03" r="2.6" fill="#A371F7"></circle><circle cx="467.07" cy="237.6" r="2.6" fill="#A371F7"></circle><circle cx="475.82" cy="235.95" r="2.6" fill="#A371F7"></circle><circle cx="484.57" cy="225.98" r="2.6" fill="#A371F7"></circle><circle cx="493.31" cy="230.74" r="2.6" fill="#A371F7"></circle><circle cx="502.06" cy="232.09" r="2.6" fill="#A371F7"></circle><circle cx="510.81" cy="238.44" r="2.6" fill="#A371F7"></circle><circle cx="519.55" cy="233.93" r="2.6" fill="#A371F7"></circle><circle cx="528.3" cy="237.36" r="2.6" fill="#A371F7"></circle><circle cx="537.04" cy="236.2" r="2.6" fill="#A371F7"></circle><circle cx="554.54" cy="238.07" r="2.6" fill="#A371F7"></circle><circle cx="563.28" cy="232.58" r="2.6" fill="#A371F7"></circle><circle cx="580.78" cy="227.45" r="2.6" fill="#A371F7"></circle><circle cx="589.52" cy="236.55" r="2.6" fill="#A371F7"></circle><circle cx="598.27" cy="232.02" r="2.6" fill="#A371F7"></circle><circle cx="607.01" cy="240.47" r="2.6" fill="#A371F7"></circle><circle cx="615.76" cy="213.84" r="2.6" fill="#A371F7"></circle><circle cx="624.51" cy="238.7" r="2.6" fill="#A371F7"></circle><circle cx="633.25" cy="238.88" r="2.6" fill="#A371F7"></circle><circle cx="642" cy="241.18" r="2.6" fill="#A371F7"></circle><polyline fill="none" stroke="#F0A23B" stroke-width="2.4" stroke-linejoin="round" stroke-linecap="round" points="56,162.13 64.75,151.29 73.49,72.27 82.24,170.58 90.99,165.15 99.73,168.63 108.48,155.58 117.22,155.2 125.97,151.03 134.72,159.37 143.46,151 152.21,152 160.96,154.31 169.7,162.54 178.45,145.36 187.19,160.82 195.94,153.52 204.69,158.63 213.43,172.35 222.18,162.23 230.93,168.2 239.67,164.28 248.42,98 257.16,164.92 265.91,167.19 274.66,163.76 283.4,165.84 292.15,134.6 300.9,163 309.64,144.13 318.39,165.52 327.13,134.8 335.88,167.11 344.63,166.07 353.37,54.66 362.12,77.46 370.87,164.62 379.61,166.72 388.36,166.65 397.1,162.93 405.85,164.9 414.6,170.21 423.34,169.23 432.09,114.96 440.84,165.27 449.58,165.44 458.33,99.36 467.07,161.79 475.82,138.56 484.57,167.81 493.31,164.51 502.06,164.55 510.81,135.11 519.55,119.1 528.3,168.6 537.04,167.03 545.79,169.7 554.54,164.27 563.28,168.02 572.03,163.89 580.78,99.72 589.52,166.55 598.27,163.57 607.01,163.91 615.76,164.36 624.51,166.86 633.25,166.95 642,52.43"></polyline><circle cx="56" cy="162.13" r="2.6" fill="#F0A23B"></circle><circle cx="64.75" cy="151.29" r="2.6" fill="#F0A23B"></circle><circle cx="73.49" cy="72.27" r="2.6" fill="#F0A23B"></circle><circle cx="82.24" cy="170.58" r="2.6" fill="#F0A23B"></circle><circle cx="90.99" cy="165.15" r="2.6" fill="#F0A23B"></circle><circle cx="99.73" cy="168.63" r="2.6" fill="#F0A23B"></circle><circle cx="108.48" cy="155.58" r="2.6" fill="#F0A23B"></circle><circle cx="117.22" cy="155.2" r="2.6" fill="#F0A23B"></circle><circle cx="125.97" cy="151.03" r="2.6" fill="#F0A23B"></circle><circle cx="134.72" cy="159.37" r="2.6" fill="#F0A23B"></circle><circle cx="143.46" cy="151" r="2.6" fill="#F0A23B"></circle><circle cx="152.21" cy="152" r="2.6" fill="#F0A23B"></circle><circle cx="160.96" cy="154.31" r="2.6" fill="#F0A23B"></circle><circle cx="169.7" cy="162.54" r="2.6" fill="#F0A23B"></circle><circle cx="178.45" cy="145.36" r="2.6" fill="#F0A23B"></circle><circle cx="187.19" cy="160.82" r="2.6" fill="#F0A23B"></circle><circle cx="195.94" cy="153.52" r="2.6" fill="#F0A23B"></circle><circle cx="204.69" cy="158.63" r="2.6" fill="#F0A23B"></circle><circle cx="213.43" cy="172.35" r="2.6" fill="#F0A23B"></circle><circle cx="222.18" cy="162.23" r="2.6" fill="#F0A23B"></circle><circle cx="230.93" cy="168.2" r="2.6" fill="#F0A23B"></circle><circle cx="239.67" cy="164.28" r="2.6" fill="#F0A23B"></circle><circle cx="248.42" cy="98" r="2.6" fill="#F0A23B"></circle><circle cx="257.16" cy="164.92" r="2.6" fill="#F0A23B"></circle><circle cx="265.91" cy="167.19" r="2.6" fill="#F0A23B"></circle><circle cx="274.66" cy="163.76" r="2.6" fill="#F0A23B"></circle><circle cx="283.4" cy="165.84" r="2.6" fill="#F0A23B"></circle><circle cx="292.15" cy="134.6" r="2.6" fill="#F0A23B"></circle><circle cx="300.9" cy="163" r="2.6" fill="#F0A23B"></circle><circle cx="309.64" cy="144.13" r="2.6" fill="#F0A23B"></circle><circle cx="318.39" cy="165.52" r="2.6" fill="#F0A23B"></circle><circle cx="327.13" cy="134.8" r="2.6" fill="#F0A23B"></circle><circle cx="335.88" cy="167.11" r="2.6" fill="#F0A23B"></circle><circle cx="344.63" cy="166.07" r="2.6" fill="#F0A23B"></circle><circle cx="353.37" cy="54.66" r="2.6" fill="#F0A23B"></circle><circle cx="362.12" cy="77.46" r="2.6" fill="#F0A23B"></circle><circle cx="370.87" cy="164.62" r="2.6" fill="#F0A23B"></circle><circle cx="379.61" cy="166.72" r="2.6" fill="#F0A23B"></circle><circle cx="388.36" cy="166.65" r="2.6" fill="#F0A23B"></circle><circle cx="397.1" cy="162.93" r="2.6" fill="#F0A23B"></circle><circle cx="405.85" cy="164.9" r="2.6" fill="#F0A23B"></circle><circle cx="414.6" cy="170.21" r="2.6" fill="#F0A23B"></circle><circle cx="423.34" cy="169.23" r="2.6" fill="#F0A23B"></circle><circle cx="432.09" cy="114.96" r="2.6" fill="#F0A23B"></circle><circle cx="440.84" cy="165.27" r="2.6" fill="#F0A23B"></circle><circle cx="449.58" cy="165.44" r="2.6" fill="#F0A23B"></circle><circle cx="458.33" cy="99.36" r="2.6" fill="#F0A23B"></circle><circle cx="467.07" cy="161.79" r="2.6" fill="#F0A23B"></circle><circle cx="475.82" cy="138.56" r="2.6" fill="#F0A23B"></circle><circle cx="484.57" cy="167.81" r="2.6" fill="#F0A23B"></circle><circle cx="493.31" cy="164.51" r="2.6" fill="#F0A23B"></circle><circle cx="502.06" cy="164.55" r="2.6" fill="#F0A23B"></circle><circle cx="510.81" cy="135.11" r="2.6" fill="#F0A23B"></circle><circle cx="519.55" cy="119.1" r="2.6" fill="#F0A23B"></circle><circle cx="528.3" cy="168.6" r="2.6" fill="#F0A23B"></circle><circle cx="537.04" cy="167.03" r="2.6" fill="#F0A23B"></circle><circle cx="545.79" cy="169.7" r="2.6" fill="#F0A23B"></circle><circle cx="554.54" cy="164.27" r="2.6" fill="#F0A23B"></circle><circle cx="563.28" cy="168.02" r="2.6" fill="#F0A23B"></circle><circle cx="572.03" cy="163.89" r="2.6" fill="#F0A23B"></circle><circle cx="580.78" cy="99.72" r="2.6" fill="#F0A23B"></circle><circle cx="589.52" cy="166.55" r="2.6" fill="#F0A23B"></circle><circle cx="598.27" cy="163.57" r="2.6" fill="#F0A23B"></circle><circle cx="607.01" cy="163.91" r="2.6" fill="#F0A23B"></circle><circle cx="615.76" cy="164.36" r="2.6" fill="#F0A23B"></circle><circle cx="624.51" cy="166.86" r="2.6" fill="#F0A23B"></circle><circle cx="633.25" cy="166.95" r="2.6" fill="#F0A23B"></circle><circle cx="642" cy="52.43" r="2.6" fill="#F0A23B"></circle><line x1="656" y1="27" x2="672" y2="27" stroke="#6366F1" stroke-width="3" stroke-linecap="round"></line><text x="678" y="30" font-size="11" font-weight="400" text-anchor="start" fill="#1f2328">deepseek</text><line x1="656" y1="47" x2="672" y2="47" stroke="#A371F7" stroke-width="3" stroke-linecap="round"></line><text x="678" y="50" font-size="11" font-weight="400" text-anchor="start" fill="#1f2328">llama</text><line x1="656" y1="67" x2="672" y2="67" stroke="#F0A23B" stroke-width="3" stroke-linecap="round"></line><text x="678" y="70" font-size="11" font-weight="400" text-anchor="start" fill="#1f2328">mistral</text></svg>
