<svg xmlns="http://www.w3.org/2000/svg" viewBox="0 0 760 348" width="760" height="348" role="img" aria-label="Cost per test by provider over runs — openai highest, deepseek lowest" font-family="-apple-system,BlinkMacSystemFont,'Segoe UI',system-ui,sans-serif"><line x1="56" y1="306" x2="642" y2="306" stroke="#d8dee4" stroke-width="1"></line><text x="46" y="310" font-size="9.5" font-weight="400" text-anchor="end" fill="#656d76" font-family="ui-monospace,SFMono-Regular,Menlo,monospace">$0.000</text><line x1="56" y1="235" x2="642" y2="235" stroke="#d8dee4" stroke-width="1"></line><text x="46" y="239" font-size="9.5" font-weight="400" text-anchor="end" fill="#656d76" font-family="ui-monospace,SFMono-Regular,Menlo,monospace">$0.044</text><line x1="56" y1="164" x2="642" y2="164" stroke="#d8dee4" stroke-width="1"></line><text x="46" y="168" font-size="9.5" font-weight="400" text-anchor="end" fill="#656d76" font-family="ui-monospace,SFMono-Regular,Menlo,monospace">$0.087</text><line x1="56" y1="93" x2="642" y2="93" stroke="#d8dee4" stroke-width="1"></line><text x="46" y="97" font-size="9.5" font-weight="400" text-anchor="end" fill="#656d76" font-family="ui-monospace,SFMono-Regular,Menlo,monospace">$0.131</text><line x1="56" y1="22" x2="642" y2="22" stroke="#d8dee4" stroke-width="1"></line><text x="46" y="26" font-size="9.5" font-weight="400" text-anchor="end" fill="#656d76" font-family="ui-monospace,SFMono-Regular,Menlo,monospace">$0.175</text><text x="56" y="324" font-size="9.5" font-weight="400" text-anchor="middle" fill="#656d76" font-family="ui-monospace,SFMono-Regular,Menlo,monospace">06/06</text><text x="106.96" y="324" font-size="9.5" font-weight="400" text-anchor="middle" fill="#656d76" font-family="ui-monospace,SFMono-Regular,Menlo,monospace">06/07</text><text x="157.91" y="324" font-size="9.5" font-weight="400" text-anchor="middle" fill="#656d76" font-family="ui-monospace,SFMono-Regular,Menlo,monospace">06/08</text><text x="208.87" y="324" font-size="9.5" font-weight="400" text-anchor="middle" fill="#656d76" font-family="ui-monospace,SFMono-Regular,Menlo,monospace">06/08</text><text x="259.83" y="324" font-size="9.5" font-weight="400" text-anchor="middle" fill="#656d76" font-family="ui-monospace,SFMono-Regular,Menlo,monospace">06/09</text><text x="310.78" y="324" font-size="9.5" font-weight="400" text-anchor="middle" fill="#656d76" font-family="ui-monospace,SFMono-Regular,Menlo,monospace">06/09</text><text x="361.74" y="324" font-size="9.5" font-weight="400" text-anchor="middle" fill="#656d76" font-family="ui-monospace,SFMono-Regular,Menlo,monospace">06/12</text><text x="412.7" y="324" font-size="9.5" font-weight="400" text-anchor="middle" fill="#656d76" font-family="ui-monospace,SFMono-Regular,Menlo,monospace">06/14</text><text x="463.65" y="324" font-size="9.5" font-weight="400" text-anchor="middle" fill="#656d76" font-family="ui-monospace,SFMono-Regular,Menlo,monospace">06/14</text><text x="514.61" y="324" font-size="9.5" font-weight="400" text-anchor="middle" fill="#656d76" font-family="ui-monospace,SFMono-Regular,Menlo,monospace">06/15</text><text x="565.57" y="324" font-size="9.5" font-weight="400" text-anchor="middle" fill="#656d76" font-family="ui-monospace,SFMono-Regular,Menlo,monospace">06/16</text><text x="616.52" y="324" font-size="9.5" font-weight="400" text-anchor="middle" fill="#656d76" font-family="ui-monospace,SFMono-Regular,Menlo,monospace">06/17</text><text x="642" y="324" font-size="9.5" font-weight="400" text-anchor="middle" fill="#656d76" font-family="ui-monospace,SFMono-Regular,Menlo,monospace">06/17</text><polyline fill="none" stroke="#6366F1" stroke-width="2.4" stroke-linejoin="round" stroke-linecap="round" points="157.91,293.36 170.65,293.43 183.39,294.1 196.13,292.89 208.87,293.14 221.61,287.31 234.35,294.31 247.09,291.77 259.83,291.82 272.57,291.36 285.3,293.02 298.04,291.8 310.78,288.55 323.52,292.06 336.26,288.85 349,294.29 361.74,292.11 374.48,288.48 387.22,285.75 399.96,292.13 412.7,291.04 425.43,293.66 438.17,290.08 450.91,286.94 463.65,292.77 476.39,291.68 489.13,292.47 501.87,291.27 527.35,290.7 540.09,292.91 552.83,293.34 565.57,290.78 578.3,290.99 591.04,291.6 603.78,292.29 616.52,292.81 629.26,293.37"></polyline><circle cx="157.91" cy="293.36" r="2.6" fill="#6366F1"></circle><circle cx="170.65" cy="293.43" r="2.6" fill="#6366F1"></circle><circle cx="183.39" cy="294.1" r="2.6" fill="#6366F1"></circle><circle cx="196.13" cy="292.89" r="2.6" fill="#6366F1"></circle><circle cx="208.87" cy="293.14" r="2.6" fill="#6366F1"></circle><circle cx="221.61" cy="287.31" r="2.6" fill="#6366F1"></circle><circle cx="234.35" cy="294.31" r="2.6" fill="#6366F1"></circle><circle cx="247.09" cy="291.77" r="2.6" fill="#6366F1"></circle><circle cx="259.83" cy="291.82" r="2.6" fill="#6366F1"></circle><circle cx="272.57" cy="291.36" r="2.6" fill="#6366F1"></circle><circle cx="285.3" cy="293.02" r="2.6" fill="#6366F1"></circle><circle cx="298.04" cy="291.8" r="2.6" fill="#6366F1"></circle><circle cx="310.78" cy="288.55" r="2.6" fill="#6366F1"></circle><circle cx="323.52" cy="292.06" r="2.6" fill="#6366F1"></circle><circle cx="336.26" cy="288.85" r="2.6" fill="#6366F1"></circle><circle cx="349" cy="294.29" r="2.6" fill="#6366F1"></circle><circle cx="361.74" cy="292.11" r="2.6" fill="#6366F1"></circle><circle cx="374.48" cy="288.48" r="2.6" fill="#6366F1"></circle><circle cx="387.22" cy="285.75" r="2.6" fill="#6366F1"></circle><circle cx="399.96" cy="292.13" r="2.6" fill="#6366F1"></circle><circle cx="412.7" cy="291.04" r="2.6" fill="#6366F1"></circle><circle cx="425.43" cy="293.66" r="2.6" fill="#6366F1"></circle><circle cx="438.17" cy="290.08" r="2.6" fill="#6366F1"></circle><circle cx="450.91" cy="286.94" r="2.6" fill="#6366F1"></circle><circle cx="463.65" cy="292.77" r="2.6" fill="#6366F1"></circle><circle cx="476.39" cy="291.68" r="2.6" fill="#6366F1"></circle><circle cx="489.13" cy="292.47" r="2.6" fill="#6366F1"></circle><circle cx="501.87" cy="291.27" r="2.6" fill="#6366F1"></circle><circle cx="527.35" cy="290.7" r="2.6" fill="#6366F1"></circle><circle cx="540.09" cy="292.91" r="2.6" fill="#6366F1"></circle><circle cx="552.83" cy="293.34" r="2.6" fill="#6366F1"></circle><circle cx="565.57" cy="290.78" r="2.6" fill="#6366F1"></circle><circle cx="578.3" cy="290.99" r="2.6" fill="#6366F1"></circle><circle cx="591.04" cy="291.6" r="2.6" fill="#6366F1"></circle><circle cx="603.78" cy="292.29" r="2.6" fill="#6366F1"></circle><circle cx="616.52" cy="292.81" r="2.6" fill="#6366F1"></circle><circle cx="629.26" cy="293.37" r="2.6" fill="#6366F1"></circle><polyline fill="none" stroke="#A371F7" stroke-width="2.4" stroke-linejoin="round" stroke-linecap="round" points="56,234.02 68.74,244.52 81.48,248 94.22,231.43 106.96,238.89 119.7,249.23 132.43,244.46 145.17,237.54 157.91,240.86 170.65,247.44 183.39,240.79 196.13,238.23 208.87,242.67 221.61,225.79 234.35,243.99 247.09,238.04 259.83,246.87 272.57,247.42 285.3,226.74 298.04,239.47 310.78,211.96 323.52,246.23 336.26,249.04 349,237.01 361.74,234.98 374.48,238.5 387.22,240.35 399.96,237.84 412.7,246.71 425.43,242.24 438.17,238.34 450.91,244.61 463.65,248.91 476.39,226.53 489.13,244.07 501.87,245.89 527.35,225.3 540.09,246.26 552.83,237.6 578.3,238.19 591.04,247.14 603.78,247.58 616.52,243.98 629.26,241.42 642,243.75"></polyline><circle cx="56" cy="234.02" r="2.6" fill="#A371F7"></circle><circle cx="68.74" cy="244.52" r="2.6" fill="#A371F7"></circle><circle cx="81.48" cy="248" r="2.6" fill="#A371F7"></circle><circle cx="94.22" cy="231.43" r="2.6" fill="#A371F7"></circle><circle cx="106.96" cy="238.89" r="2.6" fill="#A371F7"></circle><circle cx="119.7" cy="249.23" r="2.6" fill="#A371F7"></circle><circle cx="132.43" cy="244.46" r="2.6" fill="#A371F7"></circle><circle cx="145.17" cy="237.54" r="2.6" fill="#A371F7"></circle><circle cx="157.91" cy="240.86" r="2.6" fill="#A371F7"></circle><circle cx="170.65" cy="247.44" r="2.6" fill="#A371F7"></circle><circle cx="183.39" cy="240.79" r="2.6" fill="#A371F7"></circle><circle cx="196.13" cy="238.23" r="2.6" fill="#A371F7"></circle><circle cx="208.87" cy="242.67" r="2.6" fill="#A371F7"></circle><circle cx="221.61" cy="225.79" r="2.6" fill="#A371F7"></circle><circle cx="234.35" cy="243.99" r="2.6" fill="#A371F7"></circle><circle cx="247.09" cy="238.04" r="2.6" fill="#A371F7"></circle><circle cx="259.83" cy="246.87" r="2.6" fill="#A371F7"></circle><circle cx="272.57" cy="247.42" r="2.6" fill="#A371F7"></circle><circle cx="285.3" cy="226.74" r="2.6" fill="#A371F7"></circle><circle cx="298.04" cy="239.47" r="2.6" fill="#A371F7"></circle><circle cx="310.78" cy="211.96" r="2.6" fill="#A371F7"></circle><circle cx="323.52" cy="246.23" r="2.6" fill="#A371F7"></circle><circle cx="336.26" cy="249.04" r="2.6" fill="#A371F7"></circle><circle cx="349" cy="237.01" r="2.6" fill="#A371F7"></circle><circle cx="361.74" cy="234.98" r="2.6" fill="#A371F7"></circle><circle cx="374.48" cy="238.5" r="2.6" fill="#A371F7"></circle><circle cx="387.22" cy="240.35" r="2.6" fill="#A371F7"></circle><circle cx="399.96" cy="237.84" r="2.6" fill="#A371F7"></circle><circle cx="412.7" cy="246.71" r="2.6" fill="#A371F7"></circle><circle cx="425.43" cy="242.24" r="2.6" fill="#A371F7"></circle><circle cx="438.17" cy="238.34" r="2.6" fill="#A371F7"></circle><circle cx="450.91" cy="244.61" r="2.6" fill="#A371F7"></circle><circle cx="463.65" cy="248.91" r="2.6" fill="#A371F7"></circle><circle cx="476.39" cy="226.53" r="2.6" fill="#A371F7"></circle><circle cx="489.13" cy="244.07" r="2.6" fill="#A371F7"></circle><circle cx="501.87" cy="245.89" r="2.6" fill="#A371F7"></circle><circle cx="527.35" cy="225.3" r="2.6" fill="#A371F7"></circle><circle cx="540.09" cy="246.26" r="2.6" fill="#A371F7"></circle><circle cx="552.83" cy="237.6" r="2.6" fill="#A371F7"></circle><circle cx="578.3" cy="238.19" r="2.6" fill="#A371F7"></circle><circle cx="591.04" cy="247.14" r="2.6" fill="#A371F7"></circle><circle cx="603.78" cy="247.58" r="2.6" fill="#A371F7"></circle><circle cx="616.52" cy="243.98" r="2.6" fill="#A371F7"></circle><circle cx="629.26" cy="241.42" r="2.6" fill="#A371F7"></circle><circle cx="642" cy="243.75" r="2.6" fill="#A371F7"></circle><polyline fill="none" stroke="#F0A23B" stroke-width="2.4" stroke-linejoin="round" stroke-linecap="round" points="56,176.15 68.74,166.37 81.48,95.06 94.22,183.78 106.96,178.88 119.7,182.02 132.43,170.24 145.17,169.9 157.91,166.14 170.65,173.66 183.39,166.11 196.13,167.02 208.87,169.09 221.61,176.53 234.35,161.02 247.09,174.97 259.83,168.38 272.57,173 285.3,185.38 298.04,176.24 310.78,181.63 323.52,178.09 336.26,118.27 349,178.67 361.74,180.72 374.48,177.62 387.22,179.5 399.96,151.31 412.7,176.94 425.43,159.91 438.17,179.22 450.91,151.49 463.65,180.65 476.39,179.71 489.13,79.16 501.87,99.74 514.61,178.4 527.35,180.3 540.09,180.24 552.83,176.88 565.57,178.65 578.3,183.45 591.04,182.56 603.78,133.59 616.52,178.99 629.26,179.14 642,119.51"></polyline><circle cx="56" cy="176.15" r="2.6" fill="#F0A23B"></circle><circle cx="68.74" cy="166.37" r="2.6" fill="#F0A23B"></circle><circle cx="81.48" cy="95.06" r="2.6" fill="#F0A23B"></circle><circle cx="94.22" cy="183.78" r="2.6" fill="#F0A23B"></circle><circle cx="106.96" cy="178.88" r="2.6" fill="#F0A23B"></circle><circle cx="119.7" cy="182.02" r="2.6" fill="#F0A23B"></circle><circle cx="132.43" cy="170.24" r="2.6" fill="#F0A23B"></circle><circle cx="145.17" cy="169.9" r="2.6" fill="#F0A23B"></circle><circle cx="157.91" cy="166.14" r="2.6" fill="#F0A23B"></circle><circle cx="170.65" cy="173.66" r="2.6" fill="#F0A23B"></circle><circle cx="183.39" cy="166.11" r="2.6" fill="#F0A23B"></circle><circle cx="196.13" cy="167.02" r="2.6" fill="#F0A23B"></circle><circle cx="208.87" cy="169.09" r="2.6" fill="#F0A23B"></circle><circle cx="221.61" cy="176.53" r="2.6" fill="#F0A23B"></circle><circle cx="234.35" cy="161.02" r="2.6" fill="#F0A23B"></circle><circle cx="247.09" cy="174.97" r="2.6" fill="#F0A23B"></circle><circle cx="259.83" cy="168.38" r="2.6" fill="#F0A23B"></circle><circle cx="272.57" cy="173" r="2.6" fill="#F0A23B"></circle><circle cx="285.3" cy="185.38" r="2.6" fill="#F0A23B"></circle><circle cx="298.04" cy="176.24" r="2.6" fill="#F0A23B"></circle><circle cx="310.78" cy="181.63" r="2.6" fill="#F0A23B"></circle><circle cx="323.52" cy="178.09" r="2.6" fill="#F0A23B"></circle><circle cx="336.26" cy="118.27" r="2.6" fill="#F0A23B"></circle><circle cx="349" cy="178.67" r="2.6" fill="#F0A23B"></circle><circle cx="361.74" cy="180.72" r="2.6" fill="#F0A23B"></circle><circle cx="374.48" cy="177.62" r="2.6" fill="#F0A23B"></circle><circle cx="387.22" cy="179.5" r="2.6" fill="#F0A23B"></circle><circle cx="399.96" cy="151.31" r="2.6" fill="#F0A23B"></circle><circle cx="412.7" cy="176.94" r="2.6" fill="#F0A23B"></circle><circle cx="425.43" cy="159.91" r="2.6" fill="#F0A23B"></circle><circle cx="438.17" cy="179.22" r="2.6" fill="#F0A23B"></circle><circle cx="450.91" cy="151.49" r="2.6" fill="#F0A23B"></circle><circle cx="463.65" cy="180.65" r="2.6" fill="#F0A23B"></circle><circle cx="476.39" cy="179.71" r="2.6" fill="#F0A23B"></circle><circle cx="489.13" cy="79.16" r="2.6" fill="#F0A23B"></circle><circle cx="501.87" cy="99.74" r="2.6" fill="#F0A23B"></circle><circle cx="514.61" cy="178.4" r="2.6" fill="#F0A23B"></circle><circle cx="527.35" cy="180.3" r="2.6" fill="#F0A23B"></circle><circle cx="540.09" cy="180.24" r="2.6" fill="#F0A23B"></circle><circle cx="552.83" cy="176.88" r="2.6" fill="#F0A23B"></circle><circle cx="565.57" cy="178.65" r="2.6" fill="#F0A23B"></circle><circle cx="578.3" cy="183.45" r="2.6" fill="#F0A23B"></circle><circle cx="591.04" cy="182.56" r="2.6" fill="#F0A23B"></circle><circle cx="603.78" cy="133.59" r="2.6" fill="#F0A23B"></circle><circle cx="616.52" cy="178.99" r="2.6" fill="#F0A23B"></circle><circle cx="629.26" cy="179.14" r="2.6" fill="#F0A23B"></circle><circle cx="642" cy="119.51" r="2.6" fill="#F0A23B"></circle><polyline fill="none" stroke="#1F9CF0" stroke-width="2.4" stroke-linejoin="round" stroke-linecap="round" points="56,175.5 68.74,176.2 81.48,132.71 94.22,178.27 106.96,172 119.7,174.38 132.43,174.4 145.17,170.88 157.91,173.93 170.65,173.54 183.39,100.75 196.13,168.69 208.87,173.59 221.61,174.01 234.35,167.31 247.09,117.5 259.83,166.02 272.57,174.07 285.3,141.6 298.04,169.05 310.78,167.14 323.52,174.48 336.26,150.94 349,171.01 361.74,52.43 374.48,157.26 387.22,171.51 399.96,136.29 412.7,169.79 425.43,106.45 438.17,170.47 450.91,175.76 463.65,174.01 476.39,174.06 489.13,151.2 501.87,173.78 514.61,169.88 527.35,177.61 540.09,137.18 552.83,114.15 565.57,168.74 578.3,168.47 591.04,130.46 603.78,174.44 616.52,175.01 629.26,171.26 642,176.81"></polyline><circle cx="56" cy="175.5" r="2.6" fill="#1F9CF0"></circle><circle cx="68.74" cy="176.2" r="2.6" fill="#1F9CF0"></circle><circle cx="81.48" cy="132.71" r="2.6" fill="#1F9CF0"></circle><circle cx="94.22" cy="178.27" r="2.6" fill="#1F9CF0"></circle><circle cx="106.96" cy="172" r="2.6" fill="#1F9CF0"></circle><circle cx="119.7" cy="174.38" r="2.6" fill="#1F9CF0"></circle><circle cx="132.43" cy="174.4" r="2.6" fill="#1F9CF0"></circle><circle cx="145.17" cy="170.88" r="2.6" fill="#1F9CF0"></circle><circle cx="157.91" cy="173.93" r="2.6" fill="#1F9CF0"></circle><circle cx="170.65" cy="173.54" r="2.6" fill="#1F9CF0"></circle><circle cx="183.39" cy="100.75" r="2.6" fill="#1F9CF0"></circle><circle cx="196.13" cy="168.69" r="2.6" fill="#1F9CF0"></circle><circle cx="208.87" cy="173.59" r="2.6" fill="#1F9CF0"></circle><circle cx="221.61" cy="174.01" r="2.6" fill="#1F9CF0"></circle><circle cx="234.35" cy="167.31" r="2.6" fill="#1F9CF0"></circle><circle cx="247.09" cy="117.5" r="2.6" fill="#1F9CF0"></circle><circle cx="259.83" cy="166.02" r="2.6" fill="#1F9CF0"></circle><circle cx="272.57" cy="174.07" r="2.6" fill="#1F9CF0"></circle><circle cx="285.3" cy="141.6" r="2.6" fill="#1F9CF0"></circle><circle cx="298.04" cy="169.05" r="2.6" fill="#1F9CF0"></circle><circle cx="310.78" cy="167.14" r="2.6" fill="#1F9CF0"></circle><circle cx="323.52" cy="174.48" r="2.6" fill="#1F9CF0"></circle><circle cx="336.26" cy="150.94" r="2.6" fill="#1F9CF0"></circle><circle cx="349" cy="171.01" r="2.6" fill="#1F9CF0"></circle><circle cx="361.74" cy="52.43" r="2.6" fill="#1F9CF0"></circle><circle cx="374.48" cy="157.26" r="2.6" fill="#1F9CF0"></circle><circle cx="387.22" cy="171.51" r="2.6" fill="#1F9CF0"></circle><circle cx="399.96" cy="136.29" r="2.6" fill="#1F9CF0"></circle><circle cx="412.7" cy="169.79" r="2.6" fill="#1F9CF0"></circle><circle cx="425.43" cy="106.45" r="2.6" fill="#1F9CF0"></circle><circle cx="438.17" cy="170.47" r="2.6" fill="#1F9CF0"></circle><circle cx="450.91" cy="175.76" r="2.6" fill="#1F9CF0"></circle><circle cx="463.65" cy="174.01" r="2.6" fill="#1F9CF0"></circle><circle cx="476.39" cy="174.06" r="2.6" fill="#1F9CF0"></circle><circle cx="489.13" cy="151.2" r="2.6" fill="#1F9CF0"></circle><circle cx="501.87" cy="173.78" r="2.6" fill="#1F9CF0"></circle><circle cx="514.61" cy="169.88" r="2.6" fill="#1F9CF0"></circle><circle cx="527.35" cy="177.61" r="2.6" fill="#1F9CF0"></circle><circle cx="540.09" cy="137.18" r="2.6" fill="#1F9CF0"></circle><circle cx="552.83" cy="114.15" r="2.6" fill="#1F9CF0"></circle><circle cx="565.57" cy="168.74" r="2.6" fill="#1F9CF0"></circle><circle cx="578.3" cy="168.47" r="2.6" fill="#1F9CF0"></circle><circle cx="591.04" cy="130.46" r="2.6" fill="#1F9CF0"></circle><circle cx="603.78" cy="174.44" r="2.6" fill="#1F9CF0"></circle><circle cx="616.52" cy="175.01" r="2.6" fill="#1F9CF0"></circle><circle cx="629.26" cy="171.26" r="2.6" fill="#1F9CF0"></circle><circle cx="642" cy="176.81" r="2.6" fill="#1F9CF0"></circle><line x1="656" y1="27" x2="672" y2="27" stroke="#6366F1" stroke-width="3" stroke-linecap="round"></line><text x="678" y="30" font-size="11" font-weight="400" text-anchor="start" fill="#1f2328">deepseek</text><line x1="656" y1="47" x2="672" y2="47" stroke="#A371F7" stroke-width="3" stroke-linecap="round"></line><text x="678" y="50" font-size="11" font-weight="400" text-anchor="start" fill="#1f2328">llama</text><line x1="656" y1="67" x2="672" y2="67" stroke="#F0A23B" stroke-width="3" stroke-linecap="round"></line><text x="678" y="70" font-size="11" font-weight="400" text-anchor="start" fill="#1f2328">mistral</text><line x1="656" y1="87" x2="672" y2="87" stroke="#1F9CF0" stroke-width="3" stroke-linecap="round"></line><text x="678" y="90" font-size="11" font-weight="400" text-anchor="start" fill="#1f2328">openai</text></svg>
