<svg xmlns="http://www.w3.org/2000/svg" viewBox="0 0 760 348" width="760" height="348" role="img" aria-label="Cost per test by provider over runs — openai highest, deepseek lowest" font-family="-apple-system,BlinkMacSystemFont,'Segoe UI',system-ui,sans-serif"><line x1="56" y1="306" x2="642" y2="306" stroke="#30363d" stroke-width="1"></line><text x="46" y="310" font-size="9.5" font-weight="400" text-anchor="end" fill="#8b949e" font-family="ui-monospace,SFMono-Regular,Menlo,monospace">$0.000</text><line x1="56" y1="235" x2="642" y2="235" stroke="#30363d" stroke-width="1"></line><text x="46" y="239" font-size="9.5" font-weight="400" text-anchor="end" fill="#8b949e" font-family="ui-monospace,SFMono-Regular,Menlo,monospace">$0.044</text><line x1="56" y1="164" x2="642" y2="164" stroke="#30363d" stroke-width="1"></line><text x="46" y="168" font-size="9.5" font-weight="400" text-anchor="end" fill="#8b949e" font-family="ui-monospace,SFMono-Regular,Menlo,monospace">$0.087</text><line x1="56" y1="93" x2="642" y2="93" stroke="#30363d" stroke-width="1"></line><text x="46" y="97" font-size="9.5" font-weight="400" text-anchor="end" fill="#8b949e" font-family="ui-monospace,SFMono-Regular,Menlo,monospace">$0.131</text><line x1="56" y1="22" x2="642" y2="22" stroke="#30363d" stroke-width="1"></line><text x="46" y="26" font-size="9.5" font-weight="400" text-anchor="end" fill="#8b949e" font-family="ui-monospace,SFMono-Regular,Menlo,monospace">$0.175</text><text x="56" y="324" font-size="9.5" font-weight="400" text-anchor="middle" fill="#8b949e" font-family="ui-monospace,SFMono-Regular,Menlo,monospace">06/06</text><text x="117.04" y="324" font-size="9.5" font-weight="400" text-anchor="middle" fill="#8b949e" font-family="ui-monospace,SFMono-Regular,Menlo,monospace">06/07</text><text x="178.08" y="324" font-size="9.5" font-weight="400" text-anchor="middle" fill="#8b949e" font-family="ui-monospace,SFMono-Regular,Menlo,monospace">06/08</text><text x="239.12" y="324" font-size="9.5" font-weight="400" text-anchor="middle" fill="#8b949e" font-family="ui-monospace,SFMono-Regular,Menlo,monospace">06/09</text><text x="300.17" y="324" font-size="9.5" font-weight="400" text-anchor="middle" fill="#8b949e" font-family="ui-monospace,SFMono-Regular,Menlo,monospace">06/09</text><text x="361.21" y="324" font-size="9.5" font-weight="400" text-anchor="middle" fill="#8b949e" font-family="ui-monospace,SFMono-Regular,Menlo,monospace">06/12</text><text x="422.25" y="324" font-size="9.5" font-weight="400" text-anchor="middle" fill="#8b949e" font-family="ui-monospace,SFMono-Regular,Menlo,monospace">06/14</text><text x="483.29" y="324" font-size="9.5" font-weight="400" text-anchor="middle" fill="#8b949e" font-family="ui-monospace,SFMono-Regular,Menlo,monospace">06/15</text><text x="544.33" y="324" font-size="9.5" font-weight="400" text-anchor="middle" fill="#8b949e" font-family="ui-monospace,SFMono-Regular,Menlo,monospace">06/16</text><text x="605.38" y="324" font-size="9.5" font-weight="400" text-anchor="middle" fill="#8b949e" font-family="ui-monospace,SFMono-Regular,Menlo,monospace">06/17</text><text x="642" y="324" font-size="9.5" font-weight="400" text-anchor="middle" fill="#8b949e" font-family="ui-monospace,SFMono-Regular,Menlo,monospace">06/17</text><polyline fill="none" stroke="#6366F1" stroke-width="2.4" stroke-linejoin="round" stroke-linecap="round" points="153.67,293.36 165.88,293.43 178.08,294.1 190.29,292.89 202.5,293.14 214.71,287.31 226.92,294.31 239.12,291.77 251.33,291.82 263.54,291.36 275.75,293.02 287.96,291.8 300.17,288.55 312.38,292.06 324.58,288.85 336.79,294.29 349,292.11 361.21,288.48 373.42,285.75 385.62,292.13 397.83,291.04 410.04,293.66 422.25,290.08 434.46,286.94 446.67,292.77 458.88,291.68 471.08,292.47 483.29,291.27 507.71,290.7 519.92,292.91 532.12,293.34 544.33,290.78 556.54,290.99 568.75,291.6 580.96,292.29 593.17,292.81 605.38,293.37 629.79,293.66 642,293.82"></polyline><circle cx="153.67" cy="293.36" r="2.6" fill="#6366F1"></circle><circle cx="165.88" cy="293.43" r="2.6" fill="#6366F1"></circle><circle cx="178.08" cy="294.1" r="2.6" fill="#6366F1"></circle><circle cx="190.29" cy="292.89" r="2.6" fill="#6366F1"></circle><circle cx="202.5" cy="293.14" r="2.6" fill="#6366F1"></circle><circle cx="214.71" cy="287.31" r="2.6" fill="#6366F1"></circle><circle cx="226.92" cy="294.31" r="2.6" fill="#6366F1"></circle><circle cx="239.12" cy="291.77" r="2.6" fill="#6366F1"></circle><circle cx="251.33" cy="291.82" r="2.6" fill="#6366F1"></circle><circle cx="263.54" cy="291.36" r="2.6" fill="#6366F1"></circle><circle cx="275.75" cy="293.02" r="2.6" fill="#6366F1"></circle><circle cx="287.96" cy="291.8" r="2.6" fill="#6366F1"></circle><circle cx="300.17" cy="288.55" r="2.6" fill="#6366F1"></circle><circle cx="312.38" cy="292.06" r="2.6" fill="#6366F1"></circle><circle cx="324.58" cy="288.85" r="2.6" fill="#6366F1"></circle><circle cx="336.79" cy="294.29" r="2.6" fill="#6366F1"></circle><circle cx="349" cy="292.11" r="2.6" fill="#6366F1"></circle><circle cx="361.21" cy="288.48" r="2.6" fill="#6366F1"></circle><circle cx="373.42" cy="285.75" r="2.6" fill="#6366F1"></circle><circle cx="385.62" cy="292.13" r="2.6" fill="#6366F1"></circle><circle cx="397.83" cy="291.04" r="2.6" fill="#6366F1"></circle><circle cx="410.04" cy="293.66" r="2.6" fill="#6366F1"></circle><circle cx="422.25" cy="290.08" r="2.6" fill="#6366F1"></circle><circle cx="434.46" cy="286.94" r="2.6" fill="#6366F1"></circle><circle cx="446.67" cy="292.77" r="2.6" fill="#6366F1"></circle><circle cx="458.88" cy="291.68" r="2.6" fill="#6366F1"></circle><circle cx="471.08" cy="292.47" r="2.6" fill="#6366F1"></circle><circle cx="483.29" cy="291.27" r="2.6" fill="#6366F1"></circle><circle cx="507.71" cy="290.7" r="2.6" fill="#6366F1"></circle><circle cx="519.92" cy="292.91" r="2.6" fill="#6366F1"></circle><circle cx="532.12" cy="293.34" r="2.6" fill="#6366F1"></circle><circle cx="544.33" cy="290.78" r="2.6" fill="#6366F1"></circle><circle cx="556.54" cy="290.99" r="2.6" fill="#6366F1"></circle><circle cx="568.75" cy="291.6" r="2.6" fill="#6366F1"></circle><circle cx="580.96" cy="292.29" r="2.6" fill="#6366F1"></circle><circle cx="593.17" cy="292.81" r="2.6" fill="#6366F1"></circle><circle cx="605.38" cy="293.37" r="2.6" fill="#6366F1"></circle><circle cx="629.79" cy="293.66" r="2.6" fill="#6366F1"></circle><circle cx="642" cy="293.82" r="2.6" fill="#6366F1"></circle><polyline fill="none" stroke="#A371F7" stroke-width="2.4" stroke-linejoin="round" stroke-linecap="round" points="56,234.02 68.21,244.52 80.42,248 92.62,231.43 104.83,238.89 117.04,249.23 129.25,244.46 141.46,237.54 153.67,240.86 165.88,247.44 178.08,240.79 190.29,238.23 202.5,242.67 214.71,225.79 226.92,243.99 239.12,238.04 251.33,246.87 263.54,247.42 275.75,226.74 287.96,239.47 300.17,211.96 312.38,246.23 324.58,249.04 336.79,237.01 349,234.98 361.21,238.5 373.42,240.35 385.62,237.84 397.83,246.71 410.04,242.24 422.25,238.34 434.46,244.61 446.67,248.91 458.88,226.53 471.08,244.07 483.29,245.89 507.71,225.3 519.92,246.26 532.12,237.6 556.54,238.19 568.75,247.14 580.96,247.58 593.17,243.98 605.38,241.42 617.58,243.75 629.79,244.26 642,242.78"></polyline><circle cx="56" cy="234.02" r="2.6" fill="#A371F7"></circle><circle cx="68.21" cy="244.52" r="2.6" fill="#A371F7"></circle><circle cx="80.42" cy="248" r="2.6" fill="#A371F7"></circle><circle cx="92.62" cy="231.43" r="2.6" fill="#A371F7"></circle><circle cx="104.83" cy="238.89" r="2.6" fill="#A371F7"></circle><circle cx="117.04" cy="249.23" r="2.6" fill="#A371F7"></circle><circle cx="129.25" cy="244.46" r="2.6" fill="#A371F7"></circle><circle cx="141.46" cy="237.54" r="2.6" fill="#A371F7"></circle><circle cx="153.67" cy="240.86" r="2.6" fill="#A371F7"></circle><circle cx="165.88" cy="247.44" r="2.6" fill="#A371F7"></circle><circle cx="178.08" cy="240.79" r="2.6" fill="#A371F7"></circle><circle cx="190.29" cy="238.23" r="2.6" fill="#A371F7"></circle><circle cx="202.5" cy="242.67" r="2.6" fill="#A371F7"></circle><circle cx="214.71" cy="225.79" r="2.6" fill="#A371F7"></circle><circle cx="226.92" cy="243.99" r="2.6" fill="#A371F7"></circle><circle cx="239.12" cy="238.04" r="2.6" fill="#A371F7"></circle><circle cx="251.33" cy="246.87" r="2.6" fill="#A371F7"></circle><circle cx="263.54" cy="247.42" r="2.6" fill="#A371F7"></circle><circle cx="275.75" cy="226.74" r="2.6" fill="#A371F7"></circle><circle cx="287.96" cy="239.47" r="2.6" fill="#A371F7"></circle><circle cx="300.17" cy="211.96" r="2.6" fill="#A371F7"></circle><circle cx="312.38" cy="246.23" r="2.6" fill="#A371F7"></circle><circle cx="324.58" cy="249.04" r="2.6" fill="#A371F7"></circle><circle cx="336.79" cy="237.01" r="2.6" fill="#A371F7"></circle><circle cx="349" cy="234.98" r="2.6" fill="#A371F7"></circle><circle cx="361.21" cy="238.5" r="2.6" fill="#A371F7"></circle><circle cx="373.42" cy="240.35" r="2.6" fill="#A371F7"></circle><circle cx="385.62" cy="237.84" r="2.6" fill="#A371F7"></circle><circle cx="397.83" cy="246.71" r="2.6" fill="#A371F7"></circle><circle cx="410.04" cy="242.24" r="2.6" fill="#A371F7"></circle><circle cx="422.25" cy="238.34" r="2.6" fill="#A371F7"></circle><circle cx="434.46" cy="244.61" r="2.6" fill="#A371F7"></circle><circle cx="446.67" cy="248.91" r="2.6" fill="#A371F7"></circle><circle cx="458.88" cy="226.53" r="2.6" fill="#A371F7"></circle><circle cx="471.08" cy="244.07" r="2.6" fill="#A371F7"></circle><circle cx="483.29" cy="245.89" r="2.6" fill="#A371F7"></circle><circle cx="507.71" cy="225.3" r="2.6" fill="#A371F7"></circle><circle cx="519.92" cy="246.26" r="2.6" fill="#A371F7"></circle><circle cx="532.12" cy="237.6" r="2.6" fill="#A371F7"></circle><circle cx="556.54" cy="238.19" r="2.6" fill="#A371F7"></circle><circle cx="568.75" cy="247.14" r="2.6" fill="#A371F7"></circle><circle cx="580.96" cy="247.58" r="2.6" fill="#A371F7"></circle><circle cx="593.17" cy="243.98" r="2.6" fill="#A371F7"></circle><circle cx="605.38" cy="241.42" r="2.6" fill="#A371F7"></circle><circle cx="617.58" cy="243.75" r="2.6" fill="#A371F7"></circle><circle cx="629.79" cy="244.26" r="2.6" fill="#A371F7"></circle><circle cx="642" cy="242.78" r="2.6" fill="#A371F7"></circle><polyline fill="none" stroke="#F0A23B" stroke-width="2.4" stroke-linejoin="round" stroke-linecap="round" points="56,176.15 68.21,166.37 80.42,95.06 92.62,183.78 104.83,178.88 117.04,182.02 129.25,170.24 141.46,169.9 153.67,166.14 165.88,173.66 178.08,166.11 190.29,167.02 202.5,169.09 214.71,176.53 226.92,161.02 239.12,174.97 251.33,168.38 263.54,173 275.75,185.38 287.96,176.24 300.17,181.63 312.38,178.09 324.58,118.27 336.79,178.67 349,180.72 361.21,177.62 373.42,179.5 385.62,151.31 397.83,176.94 410.04,159.91 422.25,179.22 434.46,151.49 446.67,180.65 458.88,179.71 471.08,79.16 483.29,99.74 495.5,178.4 507.71,180.3 519.92,180.24 532.12,176.88 544.33,178.65 556.54,183.45 568.75,182.56 580.96,133.59 593.17,178.99 605.38,179.14 617.58,119.51 629.79,175.85 642,154.88"></polyline><circle cx="56" cy="176.15" r="2.6" fill="#F0A23B"></circle><circle cx="68.21" cy="166.37" r="2.6" fill="#F0A23B"></circle><circle cx="80.42" cy="95.06" r="2.6" fill="#F0A23B"></circle><circle cx="92.62" cy="183.78" r="2.6" fill="#F0A23B"></circle><circle cx="104.83" cy="178.88" r="2.6" fill="#F0A23B"></circle><circle cx="117.04" cy="182.02" r="2.6" fill="#F0A23B"></circle><circle cx="129.25" cy="170.24" r="2.6" fill="#F0A23B"></circle><circle cx="141.46" cy="169.9" r="2.6" fill="#F0A23B"></circle><circle cx="153.67" cy="166.14" r="2.6" fill="#F0A23B"></circle><circle cx="165.88" cy="173.66" r="2.6" fill="#F0A23B"></circle><circle cx="178.08" cy="166.11" r="2.6" fill="#F0A23B"></circle><circle cx="190.29" cy="167.02" r="2.6" fill="#F0A23B"></circle><circle cx="202.5" cy="169.09" r="2.6" fill="#F0A23B"></circle><circle cx="214.71" cy="176.53" r="2.6" fill="#F0A23B"></circle><circle cx="226.92" cy="161.02" r="2.6" fill="#F0A23B"></circle><circle cx="239.12" cy="174.97" r="2.6" fill="#F0A23B"></circle><circle cx="251.33" cy="168.38" r="2.6" fill="#F0A23B"></circle><circle cx="263.54" cy="173" r="2.6" fill="#F0A23B"></circle><circle cx="275.75" cy="185.38" r="2.6" fill="#F0A23B"></circle><circle cx="287.96" cy="176.24" r="2.6" fill="#F0A23B"></circle><circle cx="300.17" cy="181.63" r="2.6" fill="#F0A23B"></circle><circle cx="312.38" cy="178.09" r="2.6" fill="#F0A23B"></circle><circle cx="324.58" cy="118.27" r="2.6" fill="#F0A23B"></circle><circle cx="336.79" cy="178.67" r="2.6" fill="#F0A23B"></circle><circle cx="349" cy="180.72" r="2.6" fill="#F0A23B"></circle><circle cx="361.21" cy="177.62" r="2.6" fill="#F0A23B"></circle><circle cx="373.42" cy="179.5" r="2.6" fill="#F0A23B"></circle><circle cx="385.62" cy="151.31" r="2.6" fill="#F0A23B"></circle><circle cx="397.83" cy="176.94" r="2.6" fill="#F0A23B"></circle><circle cx="410.04" cy="159.91" r="2.6" fill="#F0A23B"></circle><circle cx="422.25" cy="179.22" r="2.6" fill="#F0A23B"></circle><circle cx="434.46" cy="151.49" r="2.6" fill="#F0A23B"></circle><circle cx="446.67" cy="180.65" r="2.6" fill="#F0A23B"></circle><circle cx="458.88" cy="179.71" r="2.6" fill="#F0A23B"></circle><circle cx="471.08" cy="79.16" r="2.6" fill="#F0A23B"></circle><circle cx="483.29" cy="99.74" r="2.6" fill="#F0A23B"></circle><circle cx="495.5" cy="178.4" r="2.6" fill="#F0A23B"></circle><circle cx="507.71" cy="180.3" r="2.6" fill="#F0A23B"></circle><circle cx="519.92" cy="180.24" r="2.6" fill="#F0A23B"></circle><circle cx="532.12" cy="176.88" r="2.6" fill="#F0A23B"></circle><circle cx="544.33" cy="178.65" r="2.6" fill="#F0A23B"></circle><circle cx="556.54" cy="183.45" r="2.6" fill="#F0A23B"></circle><circle cx="568.75" cy="182.56" r="2.6" fill="#F0A23B"></circle><circle cx="580.96" cy="133.59" r="2.6" fill="#F0A23B"></circle><circle cx="593.17" cy="178.99" r="2.6" fill="#F0A23B"></circle><circle cx="605.38" cy="179.14" r="2.6" fill="#F0A23B"></circle><circle cx="617.58" cy="119.51" r="2.6" fill="#F0A23B"></circle><circle cx="629.79" cy="175.85" r="2.6" fill="#F0A23B"></circle><circle cx="642" cy="154.88" r="2.6" fill="#F0A23B"></circle><polyline fill="none" stroke="#1F9CF0" stroke-width="2.4" stroke-linejoin="round" stroke-linecap="round" points="56,175.5 68.21,176.2 80.42,132.71 92.62,178.27 104.83,172 117.04,174.38 129.25,174.4 141.46,170.88 153.67,173.93 165.88,173.54 178.08,100.75 190.29,168.69 202.5,173.59 214.71,174.01 226.92,167.31 239.12,117.5 251.33,166.02 263.54,174.07 275.75,141.6 287.96,169.05 300.17,167.14 312.38,174.48 324.58,150.94 336.79,171.01 349,52.43 361.21,157.26 373.42,171.51 385.62,136.29 397.83,169.79 410.04,106.45 422.25,170.47 434.46,175.76 446.67,174.01 458.88,174.06 471.08,151.2 483.29,173.78 495.5,169.88 507.71,177.61 519.92,137.18 532.12,114.15 544.33,168.74 556.54,168.47 568.75,130.46 580.96,174.44 593.17,175.01 605.38,171.26 617.58,176.81 629.79,171.37 642,161.31"></polyline><circle cx="56" cy="175.5" r="2.6" fill="#1F9CF0"></circle><circle cx="68.21" cy="176.2" r="2.6" fill="#1F9CF0"></circle><circle cx="80.42" cy="132.71" r="2.6" fill="#1F9CF0"></circle><circle cx="92.62" cy="178.27" r="2.6" fill="#1F9CF0"></circle><circle cx="104.83" cy="172" r="2.6" fill="#1F9CF0"></circle><circle cx="117.04" cy="174.38" r="2.6" fill="#1F9CF0"></circle><circle cx="129.25" cy="174.4" r="2.6" fill="#1F9CF0"></circle><circle cx="141.46" cy="170.88" r="2.6" fill="#1F9CF0"></circle><circle cx="153.67" cy="173.93" r="2.6" fill="#1F9CF0"></circle><circle cx="165.88" cy="173.54" r="2.6" fill="#1F9CF0"></circle><circle cx="178.08" cy="100.75" r="2.6" fill="#1F9CF0"></circle><circle cx="190.29" cy="168.69" r="2.6" fill="#1F9CF0"></circle><circle cx="202.5" cy="173.59" r="2.6" fill="#1F9CF0"></circle><circle cx="214.71" cy="174.01" r="2.6" fill="#1F9CF0"></circle><circle cx="226.92" cy="167.31" r="2.6" fill="#1F9CF0"></circle><circle cx="239.12" cy="117.5" r="2.6" fill="#1F9CF0"></circle><circle cx="251.33" cy="166.02" r="2.6" fill="#1F9CF0"></circle><circle cx="263.54" cy="174.07" r="2.6" fill="#1F9CF0"></circle><circle cx="275.75" cy="141.6" r="2.6" fill="#1F9CF0"></circle><circle cx="287.96" cy="169.05" r="2.6" fill="#1F9CF0"></circle><circle cx="300.17" cy="167.14" r="2.6" fill="#1F9CF0"></circle><circle cx="312.38" cy="174.48" r="2.6" fill="#1F9CF0"></circle><circle cx="324.58" cy="150.94" r="2.6" fill="#1F9CF0"></circle><circle cx="336.79" cy="171.01" r="2.6" fill="#1F9CF0"></circle><circle cx="349" cy="52.43" r="2.6" fill="#1F9CF0"></circle><circle cx="361.21" cy="157.26" r="2.6" fill="#1F9CF0"></circle><circle cx="373.42" cy="171.51" r="2.6" fill="#1F9CF0"></circle><circle cx="385.62" cy="136.29" r="2.6" fill="#1F9CF0"></circle><circle cx="397.83" cy="169.79" r="2.6" fill="#1F9CF0"></circle><circle cx="410.04" cy="106.45" r="2.6" fill="#1F9CF0"></circle><circle cx="422.25" cy="170.47" r="2.6" fill="#1F9CF0"></circle><circle cx="434.46" cy="175.76" r="2.6" fill="#1F9CF0"></circle><circle cx="446.67" cy="174.01" r="2.6" fill="#1F9CF0"></circle><circle cx="458.88" cy="174.06" r="2.6" fill="#1F9CF0"></circle><circle cx="471.08" cy="151.2" r="2.6" fill="#1F9CF0"></circle><circle cx="483.29" cy="173.78" r="2.6" fill="#1F9CF0"></circle><circle cx="495.5" cy="169.88" r="2.6" fill="#1F9CF0"></circle><circle cx="507.71" cy="177.61" r="2.6" fill="#1F9CF0"></circle><circle cx="519.92" cy="137.18" r="2.6" fill="#1F9CF0"></circle><circle cx="532.12" cy="114.15" r="2.6" fill="#1F9CF0"></circle><circle cx="544.33" cy="168.74" r="2.6" fill="#1F9CF0"></circle><circle cx="556.54" cy="168.47" r="2.6" fill="#1F9CF0"></circle><circle cx="568.75" cy="130.46" r="2.6" fill="#1F9CF0"></circle><circle cx="580.96" cy="174.44" r="2.6" fill="#1F9CF0"></circle><circle cx="593.17" cy="175.01" r="2.6" fill="#1F9CF0"></circle><circle cx="605.38" cy="171.26" r="2.6" fill="#1F9CF0"></circle><circle cx="617.58" cy="176.81" r="2.6" fill="#1F9CF0"></circle><circle cx="629.79" cy="171.37" r="2.6" fill="#1F9CF0"></circle><circle cx="642" cy="161.31" r="2.6" fill="#1F9CF0"></circle><line x1="656" y1="27" x2="672" y2="27" stroke="#6366F1" stroke-width="3" stroke-linecap="round"></line><text x="678" y="30" font-size="11" font-weight="400" text-anchor="start" fill="#e6edf3">deepseek</text><line x1="656" y1="47" x2="672" y2="47" stroke="#A371F7" stroke-width="3" stroke-linecap="round"></line><text x="678" y="50" font-size="11" font-weight="400" text-anchor="start" fill="#e6edf3">llama</text><line x1="656" y1="67" x2="672" y2="67" stroke="#F0A23B" stroke-width="3" stroke-linecap="round"></line><text x="678" y="70" font-size="11" font-weight="400" text-anchor="start" fill="#e6edf3">mistral</text><line x1="656" y1="87" x2="672" y2="87" stroke="#1F9CF0" stroke-width="3" stroke-linecap="round"></line><text x="678" y="90" font-size="11" font-weight="400" text-anchor="start" fill="#e6edf3">openai</text></svg>
