<svg xmlns="http://www.w3.org/2000/svg" viewBox="0 0 600 300" width="600" height="300" role="img" aria-label="Cost per test by provider over runs ($)"><text x="300.0" y="24" text-anchor="middle" font-family="system-ui, -apple-system, sans-serif" font-size="14" font-weight="600" fill="#333">Cost per test by provider over runs ($)</text><line x1="60" y1="240.0" x2="480" y2="240.0" stroke="#eee" stroke-width="1"/><text x="54" y="244.0" text-anchor="end" font-family="system-ui, -apple-system, sans-serif" font-size="9" fill="#999">0.007197</text><line x1="60" y1="140.0" x2="480" y2="140.0" stroke="#eee" stroke-width="1"/><text x="54" y="144.0" text-anchor="end" font-family="system-ui, -apple-system, sans-serif" font-size="9" fill="#999">0.08167</text><line x1="60" y1="40.0" x2="480" y2="40.0" stroke="#eee" stroke-width="1"/><text x="54" y="44.0" text-anchor="end" font-family="system-ui, -apple-system, sans-serif" font-size="9" fill="#999">0.1561</text><polyline fill="none" stroke="#4CAF50" stroke-width="2" points="60.0,141.8 75.0,142.3 90.0,106.4 105.0,144.1 120.0,138.9 135.0,140.8 150.0,140.9 165.0,137.9 180.0,140.5 195.0,140.1 210.0,80.0 225.0,136.1 240.0,140.2 255.0,140.5 270.0,135.0 285.0,93.8 300.0,133.9 315.0,140.6 330.0,113.7 345.0,136.4 360.0,134.8 375.0,140.9 390.0,121.5 405.0,138.0 420.0,40.0 435.0,126.7 450.0,138.5 465.0,109.3 480.0,137.0"/><circle cx="60.0" cy="141.8" r="3" fill="#4CAF50"/><circle cx="75.0" cy="142.3" r="3" fill="#4CAF50"/><circle cx="90.0" cy="106.4" r="3" fill="#4CAF50"/><circle cx="105.0" cy="144.1" r="3" fill="#4CAF50"/><circle cx="120.0" cy="138.9" r="3" fill="#4CAF50"/><circle cx="135.0" cy="140.8" r="3" fill="#4CAF50"/><circle cx="150.0" cy="140.9" r="3" fill="#4CAF50"/><circle cx="165.0" cy="137.9" r="3" fill="#4CAF50"/><circle cx="180.0" cy="140.5" r="3" fill="#4CAF50"/><circle cx="195.0" cy="140.1" r="3" fill="#4CAF50"/><circle cx="210.0" cy="80.0" r="3" fill="#4CAF50"/><circle cx="225.0" cy="136.1" r="3" fill="#4CAF50"/><circle cx="240.0" cy="140.2" r="3" fill="#4CAF50"/><circle cx="255.0" cy="140.5" r="3" fill="#4CAF50"/><circle cx="270.0" cy="135.0" r="3" fill="#4CAF50"/><circle cx="285.0" cy="93.8" r="3" fill="#4CAF50"/><circle cx="300.0" cy="133.9" r="3" fill="#4CAF50"/><circle cx="315.0" cy="140.6" r="3" fill="#4CAF50"/><circle cx="330.0" cy="113.7" r="3" fill="#4CAF50"/><circle cx="345.0" cy="136.4" r="3" fill="#4CAF50"/><circle cx="360.0" cy="134.8" r="3" fill="#4CAF50"/><circle cx="375.0" cy="140.9" r="3" fill="#4CAF50"/><circle cx="390.0" cy="121.5" r="3" fill="#4CAF50"/><circle cx="405.0" cy="138.0" r="3" fill="#4CAF50"/><circle cx="420.0" cy="40.0" r="3" fill="#4CAF50"/><circle cx="435.0" cy="126.7" r="3" fill="#4CAF50"/><circle cx="450.0" cy="138.5" r="3" fill="#4CAF50"/><circle cx="465.0" cy="109.3" r="3" fill="#4CAF50"/><circle cx="480.0" cy="137.0" r="3" fill="#4CAF50"/><rect x="490" y="44" width="10" height="10" fill="#4CAF50"/><text x="504" y="53" font-family="system-ui, -apple-system, sans-serif" font-size="10" fill="#333">openai</text><polyline fill="none" stroke="#2196F3" stroke-width="2" points="60.0,143.4 75.0,149.4 90.0,143.1 105.0,145.8 120.0,151.8 135.0,139.6 150.0,145.6 165.0,141.5 180.0,141.5 195.0,140.7 210.0,142.6 225.0,153.3 240.0,152.2 255.0,146.8 270.0,141.9 285.0,142.2 300.0,116.6 315.0,142.0 330.0,114.7 345.0,122.7 360.0,135.5 375.0,130.6 390.0,145.2 405.0,124.2 420.0,141.8 435.0,137.0 450.0,134.1 465.0,136.4"/><circle cx="60.0" cy="143.4" r="3" fill="#2196F3"/><circle cx="75.0" cy="149.4" r="3" fill="#2196F3"/><circle cx="90.0" cy="143.1" r="3" fill="#2196F3"/><circle cx="105.0" cy="145.8" r="3" fill="#2196F3"/><circle cx="120.0" cy="151.8" r="3" fill="#2196F3"/><circle cx="135.0" cy="139.6" r="3" fill="#2196F3"/><circle cx="150.0" cy="145.6" r="3" fill="#2196F3"/><circle cx="165.0" cy="141.5" r="3" fill="#2196F3"/><circle cx="180.0" cy="141.5" r="3" fill="#2196F3"/><circle cx="195.0" cy="140.7" r="3" fill="#2196F3"/><circle cx="210.0" cy="142.6" r="3" fill="#2196F3"/><circle cx="225.0" cy="153.3" r="3" fill="#2196F3"/><circle cx="240.0" cy="152.2" r="3" fill="#2196F3"/><circle cx="255.0" cy="146.8" r="3" fill="#2196F3"/><circle cx="270.0" cy="141.9" r="3" fill="#2196F3"/><circle cx="285.0" cy="142.2" r="3" fill="#2196F3"/><circle cx="300.0" cy="116.6" r="3" fill="#2196F3"/><circle cx="315.0" cy="142.0" r="3" fill="#2196F3"/><circle cx="330.0" cy="114.7" r="3" fill="#2196F3"/><circle cx="345.0" cy="122.7" r="3" fill="#2196F3"/><circle cx="360.0" cy="135.5" r="3" fill="#2196F3"/><circle cx="375.0" cy="130.6" r="3" fill="#2196F3"/><circle cx="390.0" cy="145.2" r="3" fill="#2196F3"/><circle cx="405.0" cy="124.2" r="3" fill="#2196F3"/><circle cx="420.0" cy="141.8" r="3" fill="#2196F3"/><circle cx="435.0" cy="137.0" r="3" fill="#2196F3"/><circle cx="450.0" cy="134.1" r="3" fill="#2196F3"/><circle cx="465.0" cy="136.4" r="3" fill="#2196F3"/><rect x="490" y="62" width="10" height="10" fill="#2196F3"/><text x="504" y="71" font-family="system-ui, -apple-system, sans-serif" font-size="10" fill="#333">gemini</text><polyline fill="none" stroke="#FF9800" stroke-width="2" points="60.0,102.1 75.0,121.1 90.0,125.3 105.0,97.5 120.0,120.5 135.0,80.6 150.0,115.2 165.0,101.9 180.0,109.2 195.0,118.7 210.0,125.8 225.0,114.2 240.0,107.2 255.0,139.1 270.0,123.1 285.0,120.9 300.0,110.3 330.0,112.2 345.0,124.4 360.0,98.5 375.0,127.8 390.0,122.4 405.0,111.2 420.0,121.0 435.0,123.4 450.0,129.2 465.0,122.2 480.0,135.4"/><circle cx="60.0" cy="102.1" r="3" fill="#FF9800"/><circle cx="75.0" cy="121.1" r="3" fill="#FF9800"/><circle cx="90.0" cy="125.3" r="3" fill="#FF9800"/><circle cx="105.0" cy="97.5" r="3" fill="#FF9800"/><circle cx="120.0" cy="120.5" r="3" fill="#FF9800"/><circle cx="135.0" cy="80.6" r="3" fill="#FF9800"/><circle cx="150.0" cy="115.2" r="3" fill="#FF9800"/><circle cx="165.0" cy="101.9" r="3" fill="#FF9800"/><circle cx="180.0" cy="109.2" r="3" fill="#FF9800"/><circle cx="195.0" cy="118.7" r="3" fill="#FF9800"/><circle cx="210.0" cy="125.8" r="3" fill="#FF9800"/><circle cx="225.0" cy="114.2" r="3" fill="#FF9800"/><circle cx="240.0" cy="107.2" r="3" fill="#FF9800"/><circle cx="255.0" cy="139.1" r="3" fill="#FF9800"/><circle cx="270.0" cy="123.1" r="3" fill="#FF9800"/><circle cx="285.0" cy="120.9" r="3" fill="#FF9800"/><circle cx="300.0" cy="110.3" r="3" fill="#FF9800"/><circle cx="330.0" cy="112.2" r="3" fill="#FF9800"/><circle cx="345.0" cy="124.4" r="3" fill="#FF9800"/><circle cx="360.0" cy="98.5" r="3" fill="#FF9800"/><circle cx="375.0" cy="127.8" r="3" fill="#FF9800"/><circle cx="390.0" cy="122.4" r="3" fill="#FF9800"/><circle cx="405.0" cy="111.2" r="3" fill="#FF9800"/><circle cx="420.0" cy="121.0" r="3" fill="#FF9800"/><circle cx="435.0" cy="123.4" r="3" fill="#FF9800"/><circle cx="450.0" cy="129.2" r="3" fill="#FF9800"/><circle cx="465.0" cy="122.2" r="3" fill="#FF9800"/><circle cx="480.0" cy="135.4" r="3" fill="#FF9800"/><rect x="490" y="80" width="10" height="10" fill="#FF9800"/><text x="504" y="89" font-family="system-ui, -apple-system, sans-serif" font-size="10" fill="#333">anthropic</text><polyline fill="none" stroke="#E91E63" stroke-width="2" points="60.0,142.3 75.0,134.2 90.0,75.2 105.0,148.6 120.0,144.6 135.0,147.1 150.0,137.4 165.0,137.1 180.0,134.0 195.0,140.2 210.0,134.0 225.0,134.7 240.0,136.5 255.0,142.6 270.0,129.8 285.0,141.3 300.0,135.9 315.0,139.7 330.0,149.9 345.0,142.4 360.0,146.8 375.0,143.9 390.0,94.4 405.0,144.4 420.0,146.1 435.0,143.5 450.0,145.1 465.0,121.8 480.0,142.9"/><circle cx="60.0" cy="142.3" r="3" fill="#E91E63"/><circle cx="75.0" cy="134.2" r="3" fill="#E91E63"/><circle cx="90.0" cy="75.2" r="3" fill="#E91E63"/><circle cx="105.0" cy="148.6" r="3" fill="#E91E63"/><circle cx="120.0" cy="144.6" r="3" fill="#E91E63"/><circle cx="135.0" cy="147.1" r="3" fill="#E91E63"/><circle cx="150.0" cy="137.4" r="3" fill="#E91E63"/><circle cx="165.0" cy="137.1" r="3" fill="#E91E63"/><circle cx="180.0" cy="134.0" r="3" fill="#E91E63"/><circle cx="195.0" cy="140.2" r="3" fill="#E91E63"/><circle cx="210.0" cy="134.0" r="3" fill="#E91E63"/><circle cx="225.0" cy="134.7" r="3" fill="#E91E63"/><circle cx="240.0" cy="136.5" r="3" fill="#E91E63"/><circle cx="255.0" cy="142.6" r="3" fill="#E91E63"/><circle cx="270.0" cy="129.8" r="3" fill="#E91E63"/><circle cx="285.0" cy="141.3" r="3" fill="#E91E63"/><circle cx="300.0" cy="135.9" r="3" fill="#E91E63"/><circle cx="315.0" cy="139.7" r="3" fill="#E91E63"/><circle cx="330.0" cy="149.9" r="3" fill="#E91E63"/><circle cx="345.0" cy="142.4" r="3" fill="#E91E63"/><circle cx="360.0" cy="146.8" r="3" fill="#E91E63"/><circle cx="375.0" cy="143.9" r="3" fill="#E91E63"/><circle cx="390.0" cy="94.4" r="3" fill="#E91E63"/><circle cx="405.0" cy="144.4" r="3" fill="#E91E63"/><circle cx="420.0" cy="146.1" r="3" fill="#E91E63"/><circle cx="435.0" cy="143.5" r="3" fill="#E91E63"/><circle cx="450.0" cy="145.1" r="3" fill="#E91E63"/><circle cx="465.0" cy="121.8" r="3" fill="#E91E63"/><circle cx="480.0" cy="142.9" r="3" fill="#E91E63"/><rect x="490" y="98" width="10" height="10" fill="#E91E63"/><text x="504" y="107" font-family="system-ui, -apple-system, sans-serif" font-size="10" fill="#333">mistral</text><polyline fill="none" stroke="#9C27B0" stroke-width="2" points="60.0,190.1 75.0,198.8 90.0,201.7 105.0,188.0 120.0,194.2 135.0,202.7 150.0,198.8 165.0,193.1 180.0,195.8 195.0,201.2 210.0,195.7 225.0,193.6 240.0,197.3 255.0,183.3 270.0,198.4 285.0,193.5 300.0,200.8 315.0,201.2 330.0,184.1 345.0,194.7 360.0,171.9 375.0,200.2 390.0,202.6 405.0,192.6 420.0,190.9 435.0,193.9 450.0,195.4 465.0,193.3 480.0,200.6"/><circle cx="60.0" cy="190.1" r="3" fill="#9C27B0"/><circle cx="75.0" cy="198.8" r="3" fill="#9C27B0"/><circle cx="90.0" cy="201.7" r="3" fill="#9C27B0"/><circle cx="105.0" cy="188.0" r="3" fill="#9C27B0"/><circle cx="120.0" cy="194.2" r="3" fill="#9C27B0"/><circle cx="135.0" cy="202.7" r="3" fill="#9C27B0"/><circle cx="150.0" cy="198.8" r="3" fill="#9C27B0"/><circle cx="165.0" cy="193.1" r="3" fill="#9C27B0"/><circle cx="180.0" cy="195.8" r="3" fill="#9C27B0"/><circle cx="195.0" cy="201.2" r="3" fill="#9C27B0"/><circle cx="210.0" cy="195.7" r="3" fill="#9C27B0"/><circle cx="225.0" cy="193.6" r="3" fill="#9C27B0"/><circle cx="240.0" cy="197.3" r="3" fill="#9C27B0"/><circle cx="255.0" cy="183.3" r="3" fill="#9C27B0"/><circle cx="270.0" cy="198.4" r="3" fill="#9C27B0"/><circle cx="285.0" cy="193.5" r="3" fill="#9C27B0"/><circle cx="300.0" cy="200.8" r="3" fill="#9C27B0"/><circle cx="315.0" cy="201.2" r="3" fill="#9C27B0"/><circle cx="330.0" cy="184.1" r="3" fill="#9C27B0"/><circle cx="345.0" cy="194.7" r="3" fill="#9C27B0"/><circle cx="360.0" cy="171.9" r="3" fill="#9C27B0"/><circle cx="375.0" cy="200.2" r="3" fill="#9C27B0"/><circle cx="390.0" cy="202.6" r="3" fill="#9C27B0"/><circle cx="405.0" cy="192.6" r="3" fill="#9C27B0"/><circle cx="420.0" cy="190.9" r="3" fill="#9C27B0"/><circle cx="435.0" cy="193.9" r="3" fill="#9C27B0"/><circle cx="450.0" cy="195.4" r="3" fill="#9C27B0"/><circle cx="465.0" cy="193.3" r="3" fill="#9C27B0"/><circle cx="480.0" cy="200.6" r="3" fill="#9C27B0"/><rect x="490" y="116" width="10" height="10" fill="#9C27B0"/><text x="504" y="125" font-family="system-ui, -apple-system, sans-serif" font-size="10" fill="#333">llama</text><polyline fill="none" stroke="#00BCD4" stroke-width="2" points="180.0,239.2 195.0,239.3 210.0,239.8 225.0,238.8 240.0,239.0 255.0,234.2 270.0,240.0 285.0,237.9 300.0,237.9 315.0,237.6 330.0,238.9 345.0,237.9 360.0,235.2 375.0,238.1 390.0,235.5 405.0,240.0 420.0,238.2 435.0,235.2 450.0,232.9 465.0,238.2 480.0,237.3"/><circle cx="180.0" cy="239.2" r="3" fill="#00BCD4"/><circle cx="195.0" cy="239.3" r="3" fill="#00BCD4"/><circle cx="210.0" cy="239.8" r="3" fill="#00BCD4"/><circle cx="225.0" cy="238.8" r="3" fill="#00BCD4"/><circle cx="240.0" cy="239.0" r="3" fill="#00BCD4"/><circle cx="255.0" cy="234.2" r="3" fill="#00BCD4"/><circle cx="270.0" cy="240.0" r="3" fill="#00BCD4"/><circle cx="285.0" cy="237.9" r="3" fill="#00BCD4"/><circle cx="300.0" cy="237.9" r="3" fill="#00BCD4"/><circle cx="315.0" cy="237.6" r="3" fill="#00BCD4"/><circle cx="330.0" cy="238.9" r="3" fill="#00BCD4"/><circle cx="345.0" cy="237.9" r="3" fill="#00BCD4"/><circle cx="360.0" cy="235.2" r="3" fill="#00BCD4"/><circle cx="375.0" cy="238.1" r="3" fill="#00BCD4"/><circle cx="390.0" cy="235.5" r="3" fill="#00BCD4"/><circle cx="405.0" cy="240.0" r="3" fill="#00BCD4"/><circle cx="420.0" cy="238.2" r="3" fill="#00BCD4"/><circle cx="435.0" cy="235.2" r="3" fill="#00BCD4"/><circle cx="450.0" cy="232.9" r="3" fill="#00BCD4"/><circle cx="465.0" cy="238.2" r="3" fill="#00BCD4"/><circle cx="480.0" cy="237.3" r="3" fill="#00BCD4"/><rect x="490" y="134" width="10" height="10" fill="#00BCD4"/><text x="504" y="143" font-family="system-ui, -apple-system, sans-serif" font-size="10" fill="#333">deepseek</text><text x="60.0" y="256.0" text-anchor="middle" font-family="system-ui, -apple-system, sans-serif" font-size="9" fill="#666">71825113</text><text x="90.0" y="256.0" text-anchor="middle" font-family="system-ui, -apple-system, sans-serif" font-size="9" fill="#666">76301827</text><text x="120.0" y="256.0" text-anchor="middle" font-family="system-ui, -apple-system, sans-serif" font-size="9" fill="#666">00118301</text><text x="150.0" y="256.0" text-anchor="middle" font-family="system-ui, -apple-system, sans-serif" font-size="9" fill="#666">31919473</text><text x="180.0" y="256.0" text-anchor="middle" font-family="system-ui, -apple-system, sans-serif" font-size="9" fill="#666">49559976</text><text x="210.0" y="256.0" text-anchor="middle" font-family="system-ui, -apple-system, sans-serif" font-size="9" fill="#666">53749546</text><text x="240.0" y="256.0" text-anchor="middle" font-family="system-ui, -apple-system, sans-serif" font-size="9" fill="#666">73723278</text><text x="270.0" y="256.0" text-anchor="middle" font-family="system-ui, -apple-system, sans-serif" font-size="9" fill="#666">75063969</text><text x="300.0" y="256.0" text-anchor="middle" font-family="system-ui, -apple-system, sans-serif" font-size="9" fill="#666">76005435</text><text x="330.0" y="256.0" text-anchor="middle" font-family="system-ui, -apple-system, sans-serif" font-size="9" fill="#666">39719442</text><text x="360.0" y="256.0" text-anchor="middle" font-family="system-ui, -apple-system, sans-serif" font-size="9" fill="#666">41747041</text><text x="390.0" y="256.0" text-anchor="middle" font-family="system-ui, -apple-system, sans-serif" font-size="9" fill="#666">11556178</text><text x="420.0" y="256.0" text-anchor="middle" font-family="system-ui, -apple-system, sans-serif" font-size="9" fill="#666">34092480</text><text x="450.0" y="256.0" text-anchor="middle" font-family="system-ui, -apple-system, sans-serif" font-size="9" fill="#666">68273696</text><text x="480.0" y="256.0" text-anchor="middle" font-family="system-ui, -apple-system, sans-serif" font-size="9" fill="#666">99128981</text></svg>
