<svg xmlns="http://www.w3.org/2000/svg" viewBox="0 0 600 300" width="600" height="300" role="img" aria-label="Cost per test by provider over runs ($)"><text x="300.0" y="24" text-anchor="middle" font-family="system-ui, -apple-system, sans-serif" font-size="14" font-weight="600" fill="#333">Cost per test by provider over runs ($)</text><line x1="60" y1="240.0" x2="480" y2="240.0" stroke="#eee" stroke-width="1"/><text x="54" y="244.0" text-anchor="end" font-family="system-ui, -apple-system, sans-serif" font-size="9" fill="#999">0.007197</text><line x1="60" y1="140.0" x2="480" y2="140.0" stroke="#eee" stroke-width="1"/><text x="54" y="144.0" text-anchor="end" font-family="system-ui, -apple-system, sans-serif" font-size="9" fill="#999">0.08167</text><line x1="60" y1="40.0" x2="480" y2="40.0" stroke="#eee" stroke-width="1"/><text x="54" y="44.0" text-anchor="end" font-family="system-ui, -apple-system, sans-serif" font-size="9" fill="#999">0.1561</text><polyline fill="none" stroke="#4CAF50" stroke-width="2" points="60.0,141.8 76.2,142.3 92.3,106.4 108.5,144.1 124.6,138.9 140.8,140.8 156.9,140.9 173.1,137.9 189.2,140.5 205.4,140.1 221.5,80.0 237.7,136.1 253.8,140.2 270.0,140.5 286.2,135.0 302.3,93.8 318.5,133.9 334.6,140.6 350.8,113.7 366.9,136.4 383.1,134.8 399.2,140.9 415.4,121.5 431.5,138.0 447.7,40.0 463.8,126.7 480.0,138.5"/><circle cx="60.0" cy="141.8" r="3" fill="#4CAF50"/><circle cx="76.2" cy="142.3" r="3" fill="#4CAF50"/><circle cx="92.3" cy="106.4" r="3" fill="#4CAF50"/><circle cx="108.5" cy="144.1" r="3" fill="#4CAF50"/><circle cx="124.6" cy="138.9" r="3" fill="#4CAF50"/><circle cx="140.8" cy="140.8" r="3" fill="#4CAF50"/><circle cx="156.9" cy="140.9" r="3" fill="#4CAF50"/><circle cx="173.1" cy="137.9" r="3" fill="#4CAF50"/><circle cx="189.2" cy="140.5" r="3" fill="#4CAF50"/><circle cx="205.4" cy="140.1" r="3" fill="#4CAF50"/><circle cx="221.5" cy="80.0" r="3" fill="#4CAF50"/><circle cx="237.7" cy="136.1" r="3" fill="#4CAF50"/><circle cx="253.8" cy="140.2" r="3" fill="#4CAF50"/><circle cx="270.0" cy="140.5" r="3" fill="#4CAF50"/><circle cx="286.2" cy="135.0" r="3" fill="#4CAF50"/><circle cx="302.3" cy="93.8" r="3" fill="#4CAF50"/><circle cx="318.5" cy="133.9" r="3" fill="#4CAF50"/><circle cx="334.6" cy="140.6" r="3" fill="#4CAF50"/><circle cx="350.8" cy="113.7" r="3" fill="#4CAF50"/><circle cx="366.9" cy="136.4" r="3" fill="#4CAF50"/><circle cx="383.1" cy="134.8" r="3" fill="#4CAF50"/><circle cx="399.2" cy="140.9" r="3" fill="#4CAF50"/><circle cx="415.4" cy="121.5" r="3" fill="#4CAF50"/><circle cx="431.5" cy="138.0" r="3" fill="#4CAF50"/><circle cx="447.7" cy="40.0" r="3" fill="#4CAF50"/><circle cx="463.8" cy="126.7" r="3" fill="#4CAF50"/><circle cx="480.0" cy="138.5" r="3" fill="#4CAF50"/><rect x="490" y="44" width="10" height="10" fill="#4CAF50"/><text x="504" y="53" font-family="system-ui, -apple-system, sans-serif" font-size="10" fill="#333">openai</text><polyline fill="none" stroke="#2196F3" stroke-width="2" points="60.0,143.4 76.2,149.4 92.3,143.1 108.5,145.8 124.6,151.8 140.8,139.6 156.9,145.6 173.1,141.5 189.2,141.5 205.4,140.7 221.5,142.6 237.7,153.3 253.8,152.2 270.0,146.8 286.2,141.9 302.3,142.2 318.5,116.6 334.6,142.0 350.8,114.7 366.9,122.7 383.1,135.5 399.2,130.6 415.4,145.2 431.5,124.2 447.7,141.8 463.8,137.0 480.0,134.1"/><circle cx="60.0" cy="143.4" r="3" fill="#2196F3"/><circle cx="76.2" cy="149.4" r="3" fill="#2196F3"/><circle cx="92.3" cy="143.1" r="3" fill="#2196F3"/><circle cx="108.5" cy="145.8" r="3" fill="#2196F3"/><circle cx="124.6" cy="151.8" r="3" fill="#2196F3"/><circle cx="140.8" cy="139.6" r="3" fill="#2196F3"/><circle cx="156.9" cy="145.6" r="3" fill="#2196F3"/><circle cx="173.1" cy="141.5" r="3" fill="#2196F3"/><circle cx="189.2" cy="141.5" r="3" fill="#2196F3"/><circle cx="205.4" cy="140.7" r="3" fill="#2196F3"/><circle cx="221.5" cy="142.6" r="3" fill="#2196F3"/><circle cx="237.7" cy="153.3" r="3" fill="#2196F3"/><circle cx="253.8" cy="152.2" r="3" fill="#2196F3"/><circle cx="270.0" cy="146.8" r="3" fill="#2196F3"/><circle cx="286.2" cy="141.9" r="3" fill="#2196F3"/><circle cx="302.3" cy="142.2" r="3" fill="#2196F3"/><circle cx="318.5" cy="116.6" r="3" fill="#2196F3"/><circle cx="334.6" cy="142.0" r="3" fill="#2196F3"/><circle cx="350.8" cy="114.7" r="3" fill="#2196F3"/><circle cx="366.9" cy="122.7" r="3" fill="#2196F3"/><circle cx="383.1" cy="135.5" r="3" fill="#2196F3"/><circle cx="399.2" cy="130.6" r="3" fill="#2196F3"/><circle cx="415.4" cy="145.2" r="3" fill="#2196F3"/><circle cx="431.5" cy="124.2" r="3" fill="#2196F3"/><circle cx="447.7" cy="141.8" r="3" fill="#2196F3"/><circle cx="463.8" cy="137.0" r="3" fill="#2196F3"/><circle cx="480.0" cy="134.1" r="3" fill="#2196F3"/><rect x="490" y="62" width="10" height="10" fill="#2196F3"/><text x="504" y="71" font-family="system-ui, -apple-system, sans-serif" font-size="10" fill="#333">gemini</text><polyline fill="none" stroke="#FF9800" stroke-width="2" points="60.0,102.1 76.2,121.1 92.3,125.3 108.5,97.5 124.6,120.5 140.8,80.6 156.9,115.2 173.1,101.9 189.2,109.2 205.4,118.7 221.5,125.8 237.7,114.2 253.8,107.2 270.0,139.1 286.2,123.1 302.3,120.9 318.5,110.3 350.8,112.2 366.9,124.4 383.1,98.5 399.2,127.8 415.4,122.4 431.5,111.2 447.7,121.0 463.8,123.4 480.0,129.2"/><circle cx="60.0" cy="102.1" r="3" fill="#FF9800"/><circle cx="76.2" cy="121.1" r="3" fill="#FF9800"/><circle cx="92.3" cy="125.3" r="3" fill="#FF9800"/><circle cx="108.5" cy="97.5" r="3" fill="#FF9800"/><circle cx="124.6" cy="120.5" r="3" fill="#FF9800"/><circle cx="140.8" cy="80.6" r="3" fill="#FF9800"/><circle cx="156.9" cy="115.2" r="3" fill="#FF9800"/><circle cx="173.1" cy="101.9" r="3" fill="#FF9800"/><circle cx="189.2" cy="109.2" r="3" fill="#FF9800"/><circle cx="205.4" cy="118.7" r="3" fill="#FF9800"/><circle cx="221.5" cy="125.8" r="3" fill="#FF9800"/><circle cx="237.7" cy="114.2" r="3" fill="#FF9800"/><circle cx="253.8" cy="107.2" r="3" fill="#FF9800"/><circle cx="270.0" cy="139.1" r="3" fill="#FF9800"/><circle cx="286.2" cy="123.1" r="3" fill="#FF9800"/><circle cx="302.3" cy="120.9" r="3" fill="#FF9800"/><circle cx="318.5" cy="110.3" r="3" fill="#FF9800"/><circle cx="350.8" cy="112.2" r="3" fill="#FF9800"/><circle cx="366.9" cy="124.4" r="3" fill="#FF9800"/><circle cx="383.1" cy="98.5" r="3" fill="#FF9800"/><circle cx="399.2" cy="127.8" r="3" fill="#FF9800"/><circle cx="415.4" cy="122.4" r="3" fill="#FF9800"/><circle cx="431.5" cy="111.2" r="3" fill="#FF9800"/><circle cx="447.7" cy="121.0" r="3" fill="#FF9800"/><circle cx="463.8" cy="123.4" r="3" fill="#FF9800"/><circle cx="480.0" cy="129.2" r="3" fill="#FF9800"/><rect x="490" y="80" width="10" height="10" fill="#FF9800"/><text x="504" y="89" font-family="system-ui, -apple-system, sans-serif" font-size="10" fill="#333">anthropic</text><polyline fill="none" stroke="#E91E63" stroke-width="2" points="60.0,142.3 76.2,134.2 92.3,75.2 108.5,148.6 124.6,144.6 140.8,147.1 156.9,137.4 173.1,137.1 189.2,134.0 205.4,140.2 221.5,134.0 237.7,134.7 253.8,136.5 270.0,142.6 286.2,129.8 302.3,141.3 318.5,135.9 334.6,139.7 350.8,149.9 366.9,142.4 383.1,146.8 399.2,143.9 415.4,94.4 431.5,144.4 447.7,146.1 463.8,143.5 480.0,145.1"/><circle cx="60.0" cy="142.3" r="3" fill="#E91E63"/><circle cx="76.2" cy="134.2" r="3" fill="#E91E63"/><circle cx="92.3" cy="75.2" r="3" fill="#E91E63"/><circle cx="108.5" cy="148.6" r="3" fill="#E91E63"/><circle cx="124.6" cy="144.6" r="3" fill="#E91E63"/><circle cx="140.8" cy="147.1" r="3" fill="#E91E63"/><circle cx="156.9" cy="137.4" r="3" fill="#E91E63"/><circle cx="173.1" cy="137.1" r="3" fill="#E91E63"/><circle cx="189.2" cy="134.0" r="3" fill="#E91E63"/><circle cx="205.4" cy="140.2" r="3" fill="#E91E63"/><circle cx="221.5" cy="134.0" r="3" fill="#E91E63"/><circle cx="237.7" cy="134.7" r="3" fill="#E91E63"/><circle cx="253.8" cy="136.5" r="3" fill="#E91E63"/><circle cx="270.0" cy="142.6" r="3" fill="#E91E63"/><circle cx="286.2" cy="129.8" r="3" fill="#E91E63"/><circle cx="302.3" cy="141.3" r="3" fill="#E91E63"/><circle cx="318.5" cy="135.9" r="3" fill="#E91E63"/><circle cx="334.6" cy="139.7" r="3" fill="#E91E63"/><circle cx="350.8" cy="149.9" r="3" fill="#E91E63"/><circle cx="366.9" cy="142.4" r="3" fill="#E91E63"/><circle cx="383.1" cy="146.8" r="3" fill="#E91E63"/><circle cx="399.2" cy="143.9" r="3" fill="#E91E63"/><circle cx="415.4" cy="94.4" r="3" fill="#E91E63"/><circle cx="431.5" cy="144.4" r="3" fill="#E91E63"/><circle cx="447.7" cy="146.1" r="3" fill="#E91E63"/><circle cx="463.8" cy="143.5" r="3" fill="#E91E63"/><circle cx="480.0" cy="145.1" r="3" fill="#E91E63"/><rect x="490" y="98" width="10" height="10" fill="#E91E63"/><text x="504" y="107" font-family="system-ui, -apple-system, sans-serif" font-size="10" fill="#333">mistral</text><polyline fill="none" stroke="#9C27B0" stroke-width="2" points="60.0,190.1 76.2,198.8 92.3,201.7 108.5,188.0 124.6,194.2 140.8,202.7 156.9,198.8 173.1,193.1 189.2,195.8 205.4,201.2 221.5,195.7 237.7,193.6 253.8,197.3 270.0,183.3 286.2,198.4 302.3,193.5 318.5,200.8 334.6,201.2 350.8,184.1 366.9,194.7 383.1,171.9 399.2,200.2 415.4,202.6 431.5,192.6 447.7,190.9 463.8,193.9 480.0,195.4"/><circle cx="60.0" cy="190.1" r="3" fill="#9C27B0"/><circle cx="76.2" cy="198.8" r="3" fill="#9C27B0"/><circle cx="92.3" cy="201.7" r="3" fill="#9C27B0"/><circle cx="108.5" cy="188.0" r="3" fill="#9C27B0"/><circle cx="124.6" cy="194.2" r="3" fill="#9C27B0"/><circle cx="140.8" cy="202.7" r="3" fill="#9C27B0"/><circle cx="156.9" cy="198.8" r="3" fill="#9C27B0"/><circle cx="173.1" cy="193.1" r="3" fill="#9C27B0"/><circle cx="189.2" cy="195.8" r="3" fill="#9C27B0"/><circle cx="205.4" cy="201.2" r="3" fill="#9C27B0"/><circle cx="221.5" cy="195.7" r="3" fill="#9C27B0"/><circle cx="237.7" cy="193.6" r="3" fill="#9C27B0"/><circle cx="253.8" cy="197.3" r="3" fill="#9C27B0"/><circle cx="270.0" cy="183.3" r="3" fill="#9C27B0"/><circle cx="286.2" cy="198.4" r="3" fill="#9C27B0"/><circle cx="302.3" cy="193.5" r="3" fill="#9C27B0"/><circle cx="318.5" cy="200.8" r="3" fill="#9C27B0"/><circle cx="334.6" cy="201.2" r="3" fill="#9C27B0"/><circle cx="350.8" cy="184.1" r="3" fill="#9C27B0"/><circle cx="366.9" cy="194.7" r="3" fill="#9C27B0"/><circle cx="383.1" cy="171.9" r="3" fill="#9C27B0"/><circle cx="399.2" cy="200.2" r="3" fill="#9C27B0"/><circle cx="415.4" cy="202.6" r="3" fill="#9C27B0"/><circle cx="431.5" cy="192.6" r="3" fill="#9C27B0"/><circle cx="447.7" cy="190.9" r="3" fill="#9C27B0"/><circle cx="463.8" cy="193.9" r="3" fill="#9C27B0"/><circle cx="480.0" cy="195.4" r="3" fill="#9C27B0"/><rect x="490" y="116" width="10" height="10" fill="#9C27B0"/><text x="504" y="125" font-family="system-ui, -apple-system, sans-serif" font-size="10" fill="#333">llama</text><polyline fill="none" stroke="#00BCD4" stroke-width="2" points="189.2,239.2 205.4,239.3 221.5,239.8 237.7,238.8 253.8,239.0 270.0,234.2 286.2,240.0 302.3,237.9 318.5,237.9 334.6,237.6 350.8,238.9 366.9,237.9 383.1,235.2 399.2,238.1 415.4,235.5 431.5,240.0 447.7,238.2 463.8,235.2 480.0,232.9"/><circle cx="189.2" cy="239.2" r="3" fill="#00BCD4"/><circle cx="205.4" cy="239.3" r="3" fill="#00BCD4"/><circle cx="221.5" cy="239.8" r="3" fill="#00BCD4"/><circle cx="237.7" cy="238.8" r="3" fill="#00BCD4"/><circle cx="253.8" cy="239.0" r="3" fill="#00BCD4"/><circle cx="270.0" cy="234.2" r="3" fill="#00BCD4"/><circle cx="286.2" cy="240.0" r="3" fill="#00BCD4"/><circle cx="302.3" cy="237.9" r="3" fill="#00BCD4"/><circle cx="318.5" cy="237.9" r="3" fill="#00BCD4"/><circle cx="334.6" cy="237.6" r="3" fill="#00BCD4"/><circle cx="350.8" cy="238.9" r="3" fill="#00BCD4"/><circle cx="366.9" cy="237.9" r="3" fill="#00BCD4"/><circle cx="383.1" cy="235.2" r="3" fill="#00BCD4"/><circle cx="399.2" cy="238.1" r="3" fill="#00BCD4"/><circle cx="415.4" cy="235.5" r="3" fill="#00BCD4"/><circle cx="431.5" cy="240.0" r="3" fill="#00BCD4"/><circle cx="447.7" cy="238.2" r="3" fill="#00BCD4"/><circle cx="463.8" cy="235.2" r="3" fill="#00BCD4"/><circle cx="480.0" cy="232.9" r="3" fill="#00BCD4"/><rect x="490" y="134" width="10" height="10" fill="#00BCD4"/><text x="504" y="143" font-family="system-ui, -apple-system, sans-serif" font-size="10" fill="#333">deepseek</text><text x="60.0" y="256.0" text-anchor="middle" font-family="system-ui, -apple-system, sans-serif" font-size="9" fill="#666">71825113</text><text x="92.3" y="256.0" text-anchor="middle" font-family="system-ui, -apple-system, sans-serif" font-size="9" fill="#666">76301827</text><text x="124.6" y="256.0" text-anchor="middle" font-family="system-ui, -apple-system, sans-serif" font-size="9" fill="#666">00118301</text><text x="156.9" y="256.0" text-anchor="middle" font-family="system-ui, -apple-system, sans-serif" font-size="9" fill="#666">31919473</text><text x="189.2" y="256.0" text-anchor="middle" font-family="system-ui, -apple-system, sans-serif" font-size="9" fill="#666">49559976</text><text x="221.5" y="256.0" text-anchor="middle" font-family="system-ui, -apple-system, sans-serif" font-size="9" fill="#666">53749546</text><text x="253.8" y="256.0" text-anchor="middle" font-family="system-ui, -apple-system, sans-serif" font-size="9" fill="#666">73723278</text><text x="286.2" y="256.0" text-anchor="middle" font-family="system-ui, -apple-system, sans-serif" font-size="9" fill="#666">75063969</text><text x="318.5" y="256.0" text-anchor="middle" font-family="system-ui, -apple-system, sans-serif" font-size="9" fill="#666">76005435</text><text x="350.8" y="256.0" text-anchor="middle" font-family="system-ui, -apple-system, sans-serif" font-size="9" fill="#666">39719442</text><text x="383.1" y="256.0" text-anchor="middle" font-family="system-ui, -apple-system, sans-serif" font-size="9" fill="#666">41747041</text><text x="415.4" y="256.0" text-anchor="middle" font-family="system-ui, -apple-system, sans-serif" font-size="9" fill="#666">11556178</text><text x="447.7" y="256.0" text-anchor="middle" font-family="system-ui, -apple-system, sans-serif" font-size="9" fill="#666">34092480</text><text x="480.0" y="256.0" text-anchor="middle" font-family="system-ui, -apple-system, sans-serif" font-size="9" fill="#666">68273696</text></svg>
