<svg xmlns="http://www.w3.org/2000/svg" viewBox="0 0 760 348" width="760" height="348" role="img" aria-label="Cost per test by provider over runs — mistral highest, deepseek lowest" font-family="-apple-system,BlinkMacSystemFont,'Segoe UI',system-ui,sans-serif"><line x1="56" y1="306" x2="642" y2="306" stroke="#d8dee4" stroke-width="1"></line><text x="46" y="310" font-size="9.5" font-weight="400" text-anchor="end" fill="#656d76" font-family="ui-monospace,SFMono-Regular,Menlo,monospace">$0.000</text><line x1="56" y1="235" x2="642" y2="235" stroke="#d8dee4" stroke-width="1"></line><text x="46" y="239" font-size="9.5" font-weight="400" text-anchor="end" fill="#656d76" font-family="ui-monospace,SFMono-Regular,Menlo,monospace">$0.039</text><line x1="56" y1="164" x2="642" y2="164" stroke="#d8dee4" stroke-width="1"></line><text x="46" y="168" font-size="9.5" font-weight="400" text-anchor="end" fill="#656d76" font-family="ui-monospace,SFMono-Regular,Menlo,monospace">$0.079</text><line x1="56" y1="93" x2="642" y2="93" stroke="#d8dee4" stroke-width="1"></line><text x="46" y="97" font-size="9.5" font-weight="400" text-anchor="end" fill="#656d76" font-family="ui-monospace,SFMono-Regular,Menlo,monospace">$0.118</text><line x1="56" y1="22" x2="642" y2="22" stroke="#d8dee4" stroke-width="1"></line><text x="46" y="26" font-size="9.5" font-weight="400" text-anchor="end" fill="#656d76" font-family="ui-monospace,SFMono-Regular,Menlo,monospace">$0.158</text><text x="56" y="324" font-size="9.5" font-weight="400" text-anchor="middle" fill="#656d76" font-family="ui-monospace,SFMono-Regular,Menlo,monospace">06/06</text><text x="106.23" y="324" font-size="9.5" font-weight="400" text-anchor="middle" fill="#656d76" font-family="ui-monospace,SFMono-Regular,Menlo,monospace">06/08</text><text x="156.46" y="324" font-size="9.5" font-weight="400" text-anchor="middle" fill="#656d76" font-family="ui-monospace,SFMono-Regular,Menlo,monospace">06/08</text><text x="206.69" y="324" font-size="9.5" font-weight="400" text-anchor="middle" fill="#656d76" font-family="ui-monospace,SFMono-Regular,Menlo,monospace">06/09</text><text x="256.91" y="324" font-size="9.5" font-weight="400" text-anchor="middle" fill="#656d76" font-family="ui-monospace,SFMono-Regular,Menlo,monospace">06/12</text><text x="307.14" y="324" font-size="9.5" font-weight="400" text-anchor="middle" fill="#656d76" font-family="ui-monospace,SFMono-Regular,Menlo,monospace">06/14</text><text x="357.37" y="324" font-size="9.5" font-weight="400" text-anchor="middle" fill="#656d76" font-family="ui-monospace,SFMono-Regular,Menlo,monospace">06/15</text><text x="407.6" y="324" font-size="9.5" font-weight="400" text-anchor="middle" fill="#656d76" font-family="ui-monospace,SFMono-Regular,Menlo,monospace">06/16</text><text x="457.83" y="324" font-size="9.5" font-weight="400" text-anchor="middle" fill="#656d76" font-family="ui-monospace,SFMono-Regular,Menlo,monospace">06/17</text><text x="508.06" y="324" font-size="9.5" font-weight="400" text-anchor="middle" fill="#656d76" font-family="ui-monospace,SFMono-Regular,Menlo,monospace">06/20</text><text x="558.29" y="324" font-size="9.5" font-weight="400" text-anchor="middle" fill="#656d76" font-family="ui-monospace,SFMono-Regular,Menlo,monospace">06/21</text><text x="608.51" y="324" font-size="9.5" font-weight="400" text-anchor="middle" fill="#656d76" font-family="ui-monospace,SFMono-Regular,Menlo,monospace">06/22</text><text x="642" y="324" font-size="9.5" font-weight="400" text-anchor="middle" fill="#656d76" font-family="ui-monospace,SFMono-Regular,Menlo,monospace">06/23</text><polyline fill="none" stroke="#6366F1" stroke-width="2.4" stroke-linejoin="round" stroke-linecap="round" points="122.97,291.99 131.34,292.07 139.71,292.82 148.09,291.48 156.46,291.75 164.83,285.29 173.2,293.05 181.57,290.23 189.94,290.29 198.31,289.78 206.69,291.61 215.06,290.27 223.43,286.66 231.8,290.55 240.17,286.99 248.54,293.02 256.91,290.61 265.29,286.59 273.66,283.56 282.03,290.63 290.4,289.42 298.77,292.33 307.14,288.36 315.51,284.88 323.89,291.34 332.26,290.13 340.63,291.01 349,289.68 365.74,289.04 374.11,291.5 382.49,291.97 390.86,289.14 399.23,289.37 407.6,290.04 415.97,290.81 424.34,291.39 432.71,292 449.46,292.33 457.83,292.51 466.2,290.75 474.57,289.5 482.94,289.4 491.31,282.59 499.69,289.91 508.06,286.79 516.43,288.79 524.8,286.98 533.17,290.22 541.54,291.94 549.91,292.7 558.29,281.08 566.66,292.31 575.03,290.28 583.4,286.5 591.77,289 600.14,289.95 608.51,291.41 616.89,290.81 625.26,291 633.63,290.42 642,289.99"></polyline><circle cx="122.97" cy="291.99" r="2.6" fill="#6366F1"></circle><circle cx="131.34" cy="292.07" r="2.6" fill="#6366F1"></circle><circle cx="139.71" cy="292.82" r="2.6" fill="#6366F1"></circle><circle cx="148.09" cy="291.48" r="2.6" fill="#6366F1"></circle><circle cx="156.46" cy="291.75" r="2.6" fill="#6366F1"></circle><circle cx="164.83" cy="285.29" r="2.6" fill="#6366F1"></circle><circle cx="173.2" cy="293.05" r="2.6" fill="#6366F1"></circle><circle cx="181.57" cy="290.23" r="2.6" fill="#6366F1"></circle><circle cx="189.94" cy="290.29" r="2.6" fill="#6366F1"></circle><circle cx="198.31" cy="289.78" r="2.6" fill="#6366F1"></circle><circle cx="206.69" cy="291.61" r="2.6" fill="#6366F1"></circle><circle cx="215.06" cy="290.27" r="2.6" fill="#6366F1"></circle><circle cx="223.43" cy="286.66" r="2.6" fill="#6366F1"></circle><circle cx="231.8" cy="290.55" r="2.6" fill="#6366F1"></circle><circle cx="240.17" cy="286.99" r="2.6" fill="#6366F1"></circle><circle cx="248.54" cy="293.02" r="2.6" fill="#6366F1"></circle><circle cx="256.91" cy="290.61" r="2.6" fill="#6366F1"></circle><circle cx="265.29" cy="286.59" r="2.6" fill="#6366F1"></circle><circle cx="273.66" cy="283.56" r="2.6" fill="#6366F1"></circle><circle cx="282.03" cy="290.63" r="2.6" fill="#6366F1"></circle><circle cx="290.4" cy="289.42" r="2.6" fill="#6366F1"></circle><circle cx="298.77" cy="292.33" r="2.6" fill="#6366F1"></circle><circle cx="307.14" cy="288.36" r="2.6" fill="#6366F1"></circle><circle cx="315.51" cy="284.88" r="2.6" fill="#6366F1"></circle><circle cx="323.89" cy="291.34" r="2.6" fill="#6366F1"></circle><circle cx="332.26" cy="290.13" r="2.6" fill="#6366F1"></circle><circle cx="340.63" cy="291.01" r="2.6" fill="#6366F1"></circle><circle cx="349" cy="289.68" r="2.6" fill="#6366F1"></circle><circle cx="365.74" cy="289.04" r="2.6" fill="#6366F1"></circle><circle cx="374.11" cy="291.5" r="2.6" fill="#6366F1"></circle><circle cx="382.49" cy="291.97" r="2.6" fill="#6366F1"></circle><circle cx="390.86" cy="289.14" r="2.6" fill="#6366F1"></circle><circle cx="399.23" cy="289.37" r="2.6" fill="#6366F1"></circle><circle cx="407.6" cy="290.04" r="2.6" fill="#6366F1"></circle><circle cx="415.97" cy="290.81" r="2.6" fill="#6366F1"></circle><circle cx="424.34" cy="291.39" r="2.6" fill="#6366F1"></circle><circle cx="432.71" cy="292" r="2.6" fill="#6366F1"></circle><circle cx="449.46" cy="292.33" r="2.6" fill="#6366F1"></circle><circle cx="457.83" cy="292.51" r="2.6" fill="#6366F1"></circle><circle cx="466.2" cy="290.75" r="2.6" fill="#6366F1"></circle><circle cx="474.57" cy="289.5" r="2.6" fill="#6366F1"></circle><circle cx="482.94" cy="289.4" r="2.6" fill="#6366F1"></circle><circle cx="491.31" cy="282.59" r="2.6" fill="#6366F1"></circle><circle cx="499.69" cy="289.91" r="2.6" fill="#6366F1"></circle><circle cx="508.06" cy="286.79" r="2.6" fill="#6366F1"></circle><circle cx="516.43" cy="288.79" r="2.6" fill="#6366F1"></circle><circle cx="524.8" cy="286.98" r="2.6" fill="#6366F1"></circle><circle cx="533.17" cy="290.22" r="2.6" fill="#6366F1"></circle><circle cx="541.54" cy="291.94" r="2.6" fill="#6366F1"></circle><circle cx="549.91" cy="292.7" r="2.6" fill="#6366F1"></circle><circle cx="558.29" cy="281.08" r="2.6" fill="#6366F1"></circle><circle cx="566.66" cy="292.31" r="2.6" fill="#6366F1"></circle><circle cx="575.03" cy="290.28" r="2.6" fill="#6366F1"></circle><circle cx="583.4" cy="286.5" r="2.6" fill="#6366F1"></circle><circle cx="591.77" cy="289" r="2.6" fill="#6366F1"></circle><circle cx="600.14" cy="289.95" r="2.6" fill="#6366F1"></circle><circle cx="608.51" cy="291.41" r="2.6" fill="#6366F1"></circle><circle cx="616.89" cy="290.81" r="2.6" fill="#6366F1"></circle><circle cx="625.26" cy="291" r="2.6" fill="#6366F1"></circle><circle cx="633.63" cy="290.42" r="2.6" fill="#6366F1"></circle><circle cx="642" cy="289.99" r="2.6" fill="#6366F1"></circle><polyline fill="none" stroke="#A371F7" stroke-width="2.4" stroke-linejoin="round" stroke-linecap="round" points="56,226.25 64.37,237.88 72.74,241.73 81.11,223.38 89.49,231.64 97.86,243.09 106.23,237.81 114.6,230.14 122.97,233.83 131.34,241.12 139.71,233.75 148.09,230.9 156.46,235.83 164.83,217.13 173.2,237.29 181.57,230.7 189.94,240.49 198.31,241.09 206.69,218.17 215.06,232.28 223.43,201.8 231.8,239.78 240.17,242.88 248.54,229.56 256.91,227.31 265.29,231.21 273.66,233.26 282.03,230.48 290.4,240.31 298.77,235.36 307.14,231.03 315.51,237.98 323.89,242.74 332.26,217.94 340.63,237.38 349,239.39 365.74,216.58 374.11,239.81 382.49,230.21 399.23,230.86 407.6,240.78 415.97,241.27 424.34,237.28 432.71,234.45 441.09,237.03 449.46,237.6 457.83,235.95 466.2,225.98 474.57,230.74 482.94,232.09 491.31,238.44 499.69,233.93 508.06,237.36 516.43,236.2 533.17,238.07 541.54,232.58 558.29,227.45 566.66,236.55 575.03,232.02 583.4,240.47 591.77,213.84 600.14,238.7 608.51,238.88 616.89,241.18 625.26,233.39 633.63,234.63 642,239.11"></polyline><circle cx="56" cy="226.25" r="2.6" fill="#A371F7"></circle><circle cx="64.37" cy="237.88" r="2.6" fill="#A371F7"></circle><circle cx="72.74" cy="241.73" r="2.6" fill="#A371F7"></circle><circle cx="81.11" cy="223.38" r="2.6" fill="#A371F7"></circle><circle cx="89.49" cy="231.64" r="2.6" fill="#A371F7"></circle><circle cx="97.86" cy="243.09" r="2.6" fill="#A371F7"></circle><circle cx="106.23" cy="237.81" r="2.6" fill="#A371F7"></circle><circle cx="114.6" cy="230.14" r="2.6" fill="#A371F7"></circle><circle cx="122.97" cy="233.83" r="2.6" fill="#A371F7"></circle><circle cx="131.34" cy="241.12" r="2.6" fill="#A371F7"></circle><circle cx="139.71" cy="233.75" r="2.6" fill="#A371F7"></circle><circle cx="148.09" cy="230.9" r="2.6" fill="#A371F7"></circle><circle cx="156.46" cy="235.83" r="2.6" fill="#A371F7"></circle><circle cx="164.83" cy="217.13" r="2.6" fill="#A371F7"></circle><circle cx="173.2" cy="237.29" r="2.6" fill="#A371F7"></circle><circle cx="181.57" cy="230.7" r="2.6" fill="#A371F7"></circle><circle cx="189.94" cy="240.49" r="2.6" fill="#A371F7"></circle><circle cx="198.31" cy="241.09" r="2.6" fill="#A371F7"></circle><circle cx="206.69" cy="218.17" r="2.6" fill="#A371F7"></circle><circle cx="215.06" cy="232.28" r="2.6" fill="#A371F7"></circle><circle cx="223.43" cy="201.8" r="2.6" fill="#A371F7"></circle><circle cx="231.8" cy="239.78" r="2.6" fill="#A371F7"></circle><circle cx="240.17" cy="242.88" r="2.6" fill="#A371F7"></circle><circle cx="248.54" cy="229.56" r="2.6" fill="#A371F7"></circle><circle cx="256.91" cy="227.31" r="2.6" fill="#A371F7"></circle><circle cx="265.29" cy="231.21" r="2.6" fill="#A371F7"></circle><circle cx="273.66" cy="233.26" r="2.6" fill="#A371F7"></circle><circle cx="282.03" cy="230.48" r="2.6" fill="#A371F7"></circle><circle cx="290.4" cy="240.31" r="2.6" fill="#A371F7"></circle><circle cx="298.77" cy="235.36" r="2.6" fill="#A371F7"></circle><circle cx="307.14" cy="231.03" r="2.6" fill="#A371F7"></circle><circle cx="315.51" cy="237.98" r="2.6" fill="#A371F7"></circle><circle cx="323.89" cy="242.74" r="2.6" fill="#A371F7"></circle><circle cx="332.26" cy="217.94" r="2.6" fill="#A371F7"></circle><circle cx="340.63" cy="237.38" r="2.6" fill="#A371F7"></circle><circle cx="349" cy="239.39" r="2.6" fill="#A371F7"></circle><circle cx="365.74" cy="216.58" r="2.6" fill="#A371F7"></circle><circle cx="374.11" cy="239.81" r="2.6" fill="#A371F7"></circle><circle cx="382.49" cy="230.21" r="2.6" fill="#A371F7"></circle><circle cx="399.23" cy="230.86" r="2.6" fill="#A371F7"></circle><circle cx="407.6" cy="240.78" r="2.6" fill="#A371F7"></circle><circle cx="415.97" cy="241.27" r="2.6" fill="#A371F7"></circle><circle cx="424.34" cy="237.28" r="2.6" fill="#A371F7"></circle><circle cx="432.71" cy="234.45" r="2.6" fill="#A371F7"></circle><circle cx="441.09" cy="237.03" r="2.6" fill="#A371F7"></circle><circle cx="449.46" cy="237.6" r="2.6" fill="#A371F7"></circle><circle cx="457.83" cy="235.95" r="2.6" fill="#A371F7"></circle><circle cx="466.2" cy="225.98" r="2.6" fill="#A371F7"></circle><circle cx="474.57" cy="230.74" r="2.6" fill="#A371F7"></circle><circle cx="482.94" cy="232.09" r="2.6" fill="#A371F7"></circle><circle cx="491.31" cy="238.44" r="2.6" fill="#A371F7"></circle><circle cx="499.69" cy="233.93" r="2.6" fill="#A371F7"></circle><circle cx="508.06" cy="237.36" r="2.6" fill="#A371F7"></circle><circle cx="516.43" cy="236.2" r="2.6" fill="#A371F7"></circle><circle cx="533.17" cy="238.07" r="2.6" fill="#A371F7"></circle><circle cx="541.54" cy="232.58" r="2.6" fill="#A371F7"></circle><circle cx="558.29" cy="227.45" r="2.6" fill="#A371F7"></circle><circle cx="566.66" cy="236.55" r="2.6" fill="#A371F7"></circle><circle cx="575.03" cy="232.02" r="2.6" fill="#A371F7"></circle><circle cx="583.4" cy="240.47" r="2.6" fill="#A371F7"></circle><circle cx="591.77" cy="213.84" r="2.6" fill="#A371F7"></circle><circle cx="600.14" cy="238.7" r="2.6" fill="#A371F7"></circle><circle cx="608.51" cy="238.88" r="2.6" fill="#A371F7"></circle><circle cx="616.89" cy="241.18" r="2.6" fill="#A371F7"></circle><circle cx="625.26" cy="233.39" r="2.6" fill="#A371F7"></circle><circle cx="633.63" cy="234.63" r="2.6" fill="#A371F7"></circle><circle cx="642" cy="239.11" r="2.6" fill="#A371F7"></circle><polyline fill="none" stroke="#F0A23B" stroke-width="2.4" stroke-linejoin="round" stroke-linecap="round" points="56,162.13 64.37,151.29 72.74,72.27 81.11,170.58 89.49,165.15 97.86,168.63 106.23,155.58 114.6,155.2 122.97,151.03 131.34,159.37 139.71,151 148.09,152 156.46,154.31 164.83,162.54 173.2,145.36 181.57,160.82 189.94,153.52 198.31,158.63 206.69,172.35 215.06,162.23 223.43,168.2 231.8,164.28 240.17,98 248.54,164.92 256.91,167.19 265.29,163.76 273.66,165.84 282.03,134.6 290.4,163 298.77,144.13 307.14,165.52 315.51,134.8 323.89,167.11 332.26,166.07 340.63,54.66 349,77.46 357.37,164.62 365.74,166.72 374.11,166.65 382.49,162.93 390.86,164.9 399.23,170.21 407.6,169.23 415.97,114.96 424.34,165.27 432.71,165.44 441.09,99.36 449.46,161.79 457.83,138.56 466.2,167.81 474.57,164.51 482.94,164.55 491.31,135.11 499.69,119.1 508.06,168.6 516.43,167.03 524.8,169.7 533.17,164.27 541.54,168.02 549.91,163.89 558.29,99.72 566.66,166.55 575.03,163.57 583.4,163.91 591.77,164.36 600.14,166.86 608.51,166.95 616.89,52.43 625.26,166.52 633.63,165.82 642,164.59"></polyline><circle cx="56" cy="162.13" r="2.6" fill="#F0A23B"></circle><circle cx="64.37" cy="151.29" r="2.6" fill="#F0A23B"></circle><circle cx="72.74" cy="72.27" r="2.6" fill="#F0A23B"></circle><circle cx="81.11" cy="170.58" r="2.6" fill="#F0A23B"></circle><circle cx="89.49" cy="165.15" r="2.6" fill="#F0A23B"></circle><circle cx="97.86" cy="168.63" r="2.6" fill="#F0A23B"></circle><circle cx="106.23" cy="155.58" r="2.6" fill="#F0A23B"></circle><circle cx="114.6" cy="155.2" r="2.6" fill="#F0A23B"></circle><circle cx="122.97" cy="151.03" r="2.6" fill="#F0A23B"></circle><circle cx="131.34" cy="159.37" r="2.6" fill="#F0A23B"></circle><circle cx="139.71" cy="151" r="2.6" fill="#F0A23B"></circle><circle cx="148.09" cy="152" r="2.6" fill="#F0A23B"></circle><circle cx="156.46" cy="154.31" r="2.6" fill="#F0A23B"></circle><circle cx="164.83" cy="162.54" r="2.6" fill="#F0A23B"></circle><circle cx="173.2" cy="145.36" r="2.6" fill="#F0A23B"></circle><circle cx="181.57" cy="160.82" r="2.6" fill="#F0A23B"></circle><circle cx="189.94" cy="153.52" r="2.6" fill="#F0A23B"></circle><circle cx="198.31" cy="158.63" r="2.6" fill="#F0A23B"></circle><circle cx="206.69" cy="172.35" r="2.6" fill="#F0A23B"></circle><circle cx="215.06" cy="162.23" r="2.6" fill="#F0A23B"></circle><circle cx="223.43" cy="168.2" r="2.6" fill="#F0A23B"></circle><circle cx="231.8" cy="164.28" r="2.6" fill="#F0A23B"></circle><circle cx="240.17" cy="98" r="2.6" fill="#F0A23B"></circle><circle cx="248.54" cy="164.92" r="2.6" fill="#F0A23B"></circle><circle cx="256.91" cy="167.19" r="2.6" fill="#F0A23B"></circle><circle cx="265.29" cy="163.76" r="2.6" fill="#F0A23B"></circle><circle cx="273.66" cy="165.84" r="2.6" fill="#F0A23B"></circle><circle cx="282.03" cy="134.6" r="2.6" fill="#F0A23B"></circle><circle cx="290.4" cy="163" r="2.6" fill="#F0A23B"></circle><circle cx="298.77" cy="144.13" r="2.6" fill="#F0A23B"></circle><circle cx="307.14" cy="165.52" r="2.6" fill="#F0A23B"></circle><circle cx="315.51" cy="134.8" r="2.6" fill="#F0A23B"></circle><circle cx="323.89" cy="167.11" r="2.6" fill="#F0A23B"></circle><circle cx="332.26" cy="166.07" r="2.6" fill="#F0A23B"></circle><circle cx="340.63" cy="54.66" r="2.6" fill="#F0A23B"></circle><circle cx="349" cy="77.46" r="2.6" fill="#F0A23B"></circle><circle cx="357.37" cy="164.62" r="2.6" fill="#F0A23B"></circle><circle cx="365.74" cy="166.72" r="2.6" fill="#F0A23B"></circle><circle cx="374.11" cy="166.65" r="2.6" fill="#F0A23B"></circle><circle cx="382.49" cy="162.93" r="2.6" fill="#F0A23B"></circle><circle cx="390.86" cy="164.9" r="2.6" fill="#F0A23B"></circle><circle cx="399.23" cy="170.21" r="2.6" fill="#F0A23B"></circle><circle cx="407.6" cy="169.23" r="2.6" fill="#F0A23B"></circle><circle cx="415.97" cy="114.96" r="2.6" fill="#F0A23B"></circle><circle cx="424.34" cy="165.27" r="2.6" fill="#F0A23B"></circle><circle cx="432.71" cy="165.44" r="2.6" fill="#F0A23B"></circle><circle cx="441.09" cy="99.36" r="2.6" fill="#F0A23B"></circle><circle cx="449.46" cy="161.79" r="2.6" fill="#F0A23B"></circle><circle cx="457.83" cy="138.56" r="2.6" fill="#F0A23B"></circle><circle cx="466.2" cy="167.81" r="2.6" fill="#F0A23B"></circle><circle cx="474.57" cy="164.51" r="2.6" fill="#F0A23B"></circle><circle cx="482.94" cy="164.55" r="2.6" fill="#F0A23B"></circle><circle cx="491.31" cy="135.11" r="2.6" fill="#F0A23B"></circle><circle cx="499.69" cy="119.1" r="2.6" fill="#F0A23B"></circle><circle cx="508.06" cy="168.6" r="2.6" fill="#F0A23B"></circle><circle cx="516.43" cy="167.03" r="2.6" fill="#F0A23B"></circle><circle cx="524.8" cy="169.7" r="2.6" fill="#F0A23B"></circle><circle cx="533.17" cy="164.27" r="2.6" fill="#F0A23B"></circle><circle cx="541.54" cy="168.02" r="2.6" fill="#F0A23B"></circle><circle cx="549.91" cy="163.89" r="2.6" fill="#F0A23B"></circle><circle cx="558.29" cy="99.72" r="2.6" fill="#F0A23B"></circle><circle cx="566.66" cy="166.55" r="2.6" fill="#F0A23B"></circle><circle cx="575.03" cy="163.57" r="2.6" fill="#F0A23B"></circle><circle cx="583.4" cy="163.91" r="2.6" fill="#F0A23B"></circle><circle cx="591.77" cy="164.36" r="2.6" fill="#F0A23B"></circle><circle cx="600.14" cy="166.86" r="2.6" fill="#F0A23B"></circle><circle cx="608.51" cy="166.95" r="2.6" fill="#F0A23B"></circle><circle cx="616.89" cy="52.43" r="2.6" fill="#F0A23B"></circle><circle cx="625.26" cy="166.52" r="2.6" fill="#F0A23B"></circle><circle cx="633.63" cy="165.82" r="2.6" fill="#F0A23B"></circle><circle cx="642" cy="164.59" r="2.6" fill="#F0A23B"></circle><line x1="656" y1="27" x2="672" y2="27" stroke="#6366F1" stroke-width="3" stroke-linecap="round"></line><text x="678" y="30" font-size="11" font-weight="400" text-anchor="start" fill="#1f2328">deepseek</text><line x1="656" y1="47" x2="672" y2="47" stroke="#A371F7" stroke-width="3" stroke-linecap="round"></line><text x="678" y="50" font-size="11" font-weight="400" text-anchor="start" fill="#1f2328">llama</text><line x1="656" y1="67" x2="672" y2="67" stroke="#F0A23B" stroke-width="3" stroke-linecap="round"></line><text x="678" y="70" font-size="11" font-weight="400" text-anchor="start" fill="#1f2328">mistral</text></svg>
