<svg xmlns="http://www.w3.org/2000/svg" viewBox="0 0 760 348" width="760" height="348" role="img" aria-label="Cost per test by provider over runs — openai highest, deepseek lowest" font-family="-apple-system,BlinkMacSystemFont,'Segoe UI',system-ui,sans-serif"><line x1="56" y1="306" x2="642" y2="306" stroke="#30363d" stroke-width="1"></line><text x="46" y="310" font-size="9.5" font-weight="400" text-anchor="end" fill="#8b949e" font-family="ui-monospace,SFMono-Regular,Menlo,monospace">$0.000</text><line x1="56" y1="235" x2="642" y2="235" stroke="#30363d" stroke-width="1"></line><text x="46" y="239" font-size="9.5" font-weight="400" text-anchor="end" fill="#8b949e" font-family="ui-monospace,SFMono-Regular,Menlo,monospace">$0.044</text><line x1="56" y1="164" x2="642" y2="164" stroke="#30363d" stroke-width="1"></line><text x="46" y="168" font-size="9.5" font-weight="400" text-anchor="end" fill="#8b949e" font-family="ui-monospace,SFMono-Regular,Menlo,monospace">$0.087</text><line x1="56" y1="93" x2="642" y2="93" stroke="#30363d" stroke-width="1"></line><text x="46" y="97" font-size="9.5" font-weight="400" text-anchor="end" fill="#8b949e" font-family="ui-monospace,SFMono-Regular,Menlo,monospace">$0.131</text><line x1="56" y1="22" x2="642" y2="22" stroke="#30363d" stroke-width="1"></line><text x="46" y="26" font-size="9.5" font-weight="400" text-anchor="end" fill="#8b949e" font-family="ui-monospace,SFMono-Regular,Menlo,monospace">$0.175</text><text x="56" y="324" font-size="9.5" font-weight="400" text-anchor="middle" fill="#8b949e" font-family="ui-monospace,SFMono-Regular,Menlo,monospace">06/06</text><text x="110.26" y="324" font-size="9.5" font-weight="400" text-anchor="middle" fill="#8b949e" font-family="ui-monospace,SFMono-Regular,Menlo,monospace">06/07</text><text x="164.52" y="324" font-size="9.5" font-weight="400" text-anchor="middle" fill="#8b949e" font-family="ui-monospace,SFMono-Regular,Menlo,monospace">06/08</text><text x="218.78" y="324" font-size="9.5" font-weight="400" text-anchor="middle" fill="#8b949e" font-family="ui-monospace,SFMono-Regular,Menlo,monospace">06/09</text><text x="273.04" y="324" font-size="9.5" font-weight="400" text-anchor="middle" fill="#8b949e" font-family="ui-monospace,SFMono-Regular,Menlo,monospace">06/09</text><text x="327.3" y="324" font-size="9.5" font-weight="400" text-anchor="middle" fill="#8b949e" font-family="ui-monospace,SFMono-Regular,Menlo,monospace">06/12</text><text x="381.56" y="324" font-size="9.5" font-weight="400" text-anchor="middle" fill="#8b949e" font-family="ui-monospace,SFMono-Regular,Menlo,monospace">06/14</text><text x="435.81" y="324" font-size="9.5" font-weight="400" text-anchor="middle" fill="#8b949e" font-family="ui-monospace,SFMono-Regular,Menlo,monospace">06/15</text><text x="490.07" y="324" font-size="9.5" font-weight="400" text-anchor="middle" fill="#8b949e" font-family="ui-monospace,SFMono-Regular,Menlo,monospace">06/16</text><text x="544.33" y="324" font-size="9.5" font-weight="400" text-anchor="middle" fill="#8b949e" font-family="ui-monospace,SFMono-Regular,Menlo,monospace">06/17</text><text x="598.59" y="324" font-size="9.5" font-weight="400" text-anchor="middle" fill="#8b949e" font-family="ui-monospace,SFMono-Regular,Menlo,monospace">06/18</text><text x="642" y="324" font-size="9.5" font-weight="400" text-anchor="middle" fill="#8b949e" font-family="ui-monospace,SFMono-Regular,Menlo,monospace">06/20</text><polyline fill="none" stroke="#6366F1" stroke-width="2.4" stroke-linejoin="round" stroke-linecap="round" points="142.81,293.36 153.67,293.43 164.52,294.1 175.37,292.89 186.22,293.14 197.07,287.31 207.93,294.31 218.78,291.77 229.63,291.82 240.48,291.36 251.33,293.02 262.19,291.8 273.04,288.55 283.89,292.06 294.74,288.85 305.59,294.29 316.44,292.11 327.3,288.48 338.15,285.75 349,292.13 359.85,291.04 370.7,293.66 381.56,290.08 392.41,286.94 403.26,292.77 414.11,291.68 424.96,292.47 435.81,291.27 457.52,290.7 468.37,292.91 479.22,293.34 490.07,290.78 500.93,290.99 511.78,291.6 522.63,292.29 533.48,292.81 544.33,293.37 566.04,293.66 576.89,293.82 587.74,292.24 598.59,291.11 609.44,291.02 620.3,284.88 631.15,291.48 642,288.67"></polyline><circle cx="142.81" cy="293.36" r="2.6" fill="#6366F1"></circle><circle cx="153.67" cy="293.43" r="2.6" fill="#6366F1"></circle><circle cx="164.52" cy="294.1" r="2.6" fill="#6366F1"></circle><circle cx="175.37" cy="292.89" r="2.6" fill="#6366F1"></circle><circle cx="186.22" cy="293.14" r="2.6" fill="#6366F1"></circle><circle cx="197.07" cy="287.31" r="2.6" fill="#6366F1"></circle><circle cx="207.93" cy="294.31" r="2.6" fill="#6366F1"></circle><circle cx="218.78" cy="291.77" r="2.6" fill="#6366F1"></circle><circle cx="229.63" cy="291.82" r="2.6" fill="#6366F1"></circle><circle cx="240.48" cy="291.36" r="2.6" fill="#6366F1"></circle><circle cx="251.33" cy="293.02" r="2.6" fill="#6366F1"></circle><circle cx="262.19" cy="291.8" r="2.6" fill="#6366F1"></circle><circle cx="273.04" cy="288.55" r="2.6" fill="#6366F1"></circle><circle cx="283.89" cy="292.06" r="2.6" fill="#6366F1"></circle><circle cx="294.74" cy="288.85" r="2.6" fill="#6366F1"></circle><circle cx="305.59" cy="294.29" r="2.6" fill="#6366F1"></circle><circle cx="316.44" cy="292.11" r="2.6" fill="#6366F1"></circle><circle cx="327.3" cy="288.48" r="2.6" fill="#6366F1"></circle><circle cx="338.15" cy="285.75" r="2.6" fill="#6366F1"></circle><circle cx="349" cy="292.13" r="2.6" fill="#6366F1"></circle><circle cx="359.85" cy="291.04" r="2.6" fill="#6366F1"></circle><circle cx="370.7" cy="293.66" r="2.6" fill="#6366F1"></circle><circle cx="381.56" cy="290.08" r="2.6" fill="#6366F1"></circle><circle cx="392.41" cy="286.94" r="2.6" fill="#6366F1"></circle><circle cx="403.26" cy="292.77" r="2.6" fill="#6366F1"></circle><circle cx="414.11" cy="291.68" r="2.6" fill="#6366F1"></circle><circle cx="424.96" cy="292.47" r="2.6" fill="#6366F1"></circle><circle cx="435.81" cy="291.27" r="2.6" fill="#6366F1"></circle><circle cx="457.52" cy="290.7" r="2.6" fill="#6366F1"></circle><circle cx="468.37" cy="292.91" r="2.6" fill="#6366F1"></circle><circle cx="479.22" cy="293.34" r="2.6" fill="#6366F1"></circle><circle cx="490.07" cy="290.78" r="2.6" fill="#6366F1"></circle><circle cx="500.93" cy="290.99" r="2.6" fill="#6366F1"></circle><circle cx="511.78" cy="291.6" r="2.6" fill="#6366F1"></circle><circle cx="522.63" cy="292.29" r="2.6" fill="#6366F1"></circle><circle cx="533.48" cy="292.81" r="2.6" fill="#6366F1"></circle><circle cx="544.33" cy="293.37" r="2.6" fill="#6366F1"></circle><circle cx="566.04" cy="293.66" r="2.6" fill="#6366F1"></circle><circle cx="576.89" cy="293.82" r="2.6" fill="#6366F1"></circle><circle cx="587.74" cy="292.24" r="2.6" fill="#6366F1"></circle><circle cx="598.59" cy="291.11" r="2.6" fill="#6366F1"></circle><circle cx="609.44" cy="291.02" r="2.6" fill="#6366F1"></circle><circle cx="620.3" cy="284.88" r="2.6" fill="#6366F1"></circle><circle cx="631.15" cy="291.48" r="2.6" fill="#6366F1"></circle><circle cx="642" cy="288.67" r="2.6" fill="#6366F1"></circle><polyline fill="none" stroke="#A371F7" stroke-width="2.4" stroke-linejoin="round" stroke-linecap="round" points="56,234.02 66.85,244.52 77.7,248 88.56,231.43 99.41,238.89 110.26,249.23 121.11,244.46 131.96,237.54 142.81,240.86 153.67,247.44 164.52,240.79 175.37,238.23 186.22,242.67 197.07,225.79 207.93,243.99 218.78,238.04 229.63,246.87 240.48,247.42 251.33,226.74 262.19,239.47 273.04,211.96 283.89,246.23 294.74,249.04 305.59,237.01 316.44,234.98 327.3,238.5 338.15,240.35 349,237.84 359.85,246.71 370.7,242.24 381.56,238.34 392.41,244.61 403.26,248.91 414.11,226.53 424.96,244.07 435.81,245.89 457.52,225.3 468.37,246.26 479.22,237.6 500.93,238.19 511.78,247.14 522.63,247.58 533.48,243.98 544.33,241.42 555.19,243.75 566.04,244.26 576.89,242.78 587.74,233.78 598.59,238.08 609.44,239.3 620.3,245.03 631.15,240.96 642,244.05"></polyline><circle cx="56" cy="234.02" r="2.6" fill="#A371F7"></circle><circle cx="66.85" cy="244.52" r="2.6" fill="#A371F7"></circle><circle cx="77.7" cy="248" r="2.6" fill="#A371F7"></circle><circle cx="88.56" cy="231.43" r="2.6" fill="#A371F7"></circle><circle cx="99.41" cy="238.89" r="2.6" fill="#A371F7"></circle><circle cx="110.26" cy="249.23" r="2.6" fill="#A371F7"></circle><circle cx="121.11" cy="244.46" r="2.6" fill="#A371F7"></circle><circle cx="131.96" cy="237.54" r="2.6" fill="#A371F7"></circle><circle cx="142.81" cy="240.86" r="2.6" fill="#A371F7"></circle><circle cx="153.67" cy="247.44" r="2.6" fill="#A371F7"></circle><circle cx="164.52" cy="240.79" r="2.6" fill="#A371F7"></circle><circle cx="175.37" cy="238.23" r="2.6" fill="#A371F7"></circle><circle cx="186.22" cy="242.67" r="2.6" fill="#A371F7"></circle><circle cx="197.07" cy="225.79" r="2.6" fill="#A371F7"></circle><circle cx="207.93" cy="243.99" r="2.6" fill="#A371F7"></circle><circle cx="218.78" cy="238.04" r="2.6" fill="#A371F7"></circle><circle cx="229.63" cy="246.87" r="2.6" fill="#A371F7"></circle><circle cx="240.48" cy="247.42" r="2.6" fill="#A371F7"></circle><circle cx="251.33" cy="226.74" r="2.6" fill="#A371F7"></circle><circle cx="262.19" cy="239.47" r="2.6" fill="#A371F7"></circle><circle cx="273.04" cy="211.96" r="2.6" fill="#A371F7"></circle><circle cx="283.89" cy="246.23" r="2.6" fill="#A371F7"></circle><circle cx="294.74" cy="249.04" r="2.6" fill="#A371F7"></circle><circle cx="305.59" cy="237.01" r="2.6" fill="#A371F7"></circle><circle cx="316.44" cy="234.98" r="2.6" fill="#A371F7"></circle><circle cx="327.3" cy="238.5" r="2.6" fill="#A371F7"></circle><circle cx="338.15" cy="240.35" r="2.6" fill="#A371F7"></circle><circle cx="349" cy="237.84" r="2.6" fill="#A371F7"></circle><circle cx="359.85" cy="246.71" r="2.6" fill="#A371F7"></circle><circle cx="370.7" cy="242.24" r="2.6" fill="#A371F7"></circle><circle cx="381.56" cy="238.34" r="2.6" fill="#A371F7"></circle><circle cx="392.41" cy="244.61" r="2.6" fill="#A371F7"></circle><circle cx="403.26" cy="248.91" r="2.6" fill="#A371F7"></circle><circle cx="414.11" cy="226.53" r="2.6" fill="#A371F7"></circle><circle cx="424.96" cy="244.07" r="2.6" fill="#A371F7"></circle><circle cx="435.81" cy="245.89" r="2.6" fill="#A371F7"></circle><circle cx="457.52" cy="225.3" r="2.6" fill="#A371F7"></circle><circle cx="468.37" cy="246.26" r="2.6" fill="#A371F7"></circle><circle cx="479.22" cy="237.6" r="2.6" fill="#A371F7"></circle><circle cx="500.93" cy="238.19" r="2.6" fill="#A371F7"></circle><circle cx="511.78" cy="247.14" r="2.6" fill="#A371F7"></circle><circle cx="522.63" cy="247.58" r="2.6" fill="#A371F7"></circle><circle cx="533.48" cy="243.98" r="2.6" fill="#A371F7"></circle><circle cx="544.33" cy="241.42" r="2.6" fill="#A371F7"></circle><circle cx="555.19" cy="243.75" r="2.6" fill="#A371F7"></circle><circle cx="566.04" cy="244.26" r="2.6" fill="#A371F7"></circle><circle cx="576.89" cy="242.78" r="2.6" fill="#A371F7"></circle><circle cx="587.74" cy="233.78" r="2.6" fill="#A371F7"></circle><circle cx="598.59" cy="238.08" r="2.6" fill="#A371F7"></circle><circle cx="609.44" cy="239.3" r="2.6" fill="#A371F7"></circle><circle cx="620.3" cy="245.03" r="2.6" fill="#A371F7"></circle><circle cx="631.15" cy="240.96" r="2.6" fill="#A371F7"></circle><circle cx="642" cy="244.05" r="2.6" fill="#A371F7"></circle><polyline fill="none" stroke="#F0A23B" stroke-width="2.4" stroke-linejoin="round" stroke-linecap="round" points="56,176.15 66.85,166.37 77.7,95.06 88.56,183.78 99.41,178.88 110.26,182.02 121.11,170.24 131.96,169.9 142.81,166.14 153.67,173.66 164.52,166.11 175.37,167.02 186.22,169.09 197.07,176.53 207.93,161.02 218.78,174.97 229.63,168.38 240.48,173 251.33,185.38 262.19,176.24 273.04,181.63 283.89,178.09 294.74,118.27 305.59,178.67 316.44,180.72 327.3,177.62 338.15,179.5 349,151.31 359.85,176.94 370.7,159.91 381.56,179.22 392.41,151.49 403.26,180.65 414.11,179.71 424.96,79.16 435.81,99.74 446.67,178.4 457.52,180.3 468.37,180.24 479.22,176.88 490.07,178.65 500.93,183.45 511.78,182.56 522.63,133.59 533.48,178.99 544.33,179.14 555.19,119.51 566.04,175.85 576.89,154.88 587.74,181.28 598.59,178.3 609.44,178.34 620.3,151.77 631.15,137.32 642,181.99"></polyline><circle cx="56" cy="176.15" r="2.6" fill="#F0A23B"></circle><circle cx="66.85" cy="166.37" r="2.6" fill="#F0A23B"></circle><circle cx="77.7" cy="95.06" r="2.6" fill="#F0A23B"></circle><circle cx="88.56" cy="183.78" r="2.6" fill="#F0A23B"></circle><circle cx="99.41" cy="178.88" r="2.6" fill="#F0A23B"></circle><circle cx="110.26" cy="182.02" r="2.6" fill="#F0A23B"></circle><circle cx="121.11" cy="170.24" r="2.6" fill="#F0A23B"></circle><circle cx="131.96" cy="169.9" r="2.6" fill="#F0A23B"></circle><circle cx="142.81" cy="166.14" r="2.6" fill="#F0A23B"></circle><circle cx="153.67" cy="173.66" r="2.6" fill="#F0A23B"></circle><circle cx="164.52" cy="166.11" r="2.6" fill="#F0A23B"></circle><circle cx="175.37" cy="167.02" r="2.6" fill="#F0A23B"></circle><circle cx="186.22" cy="169.09" r="2.6" fill="#F0A23B"></circle><circle cx="197.07" cy="176.53" r="2.6" fill="#F0A23B"></circle><circle cx="207.93" cy="161.02" r="2.6" fill="#F0A23B"></circle><circle cx="218.78" cy="174.97" r="2.6" fill="#F0A23B"></circle><circle cx="229.63" cy="168.38" r="2.6" fill="#F0A23B"></circle><circle cx="240.48" cy="173" r="2.6" fill="#F0A23B"></circle><circle cx="251.33" cy="185.38" r="2.6" fill="#F0A23B"></circle><circle cx="262.19" cy="176.24" r="2.6" fill="#F0A23B"></circle><circle cx="273.04" cy="181.63" r="2.6" fill="#F0A23B"></circle><circle cx="283.89" cy="178.09" r="2.6" fill="#F0A23B"></circle><circle cx="294.74" cy="118.27" r="2.6" fill="#F0A23B"></circle><circle cx="305.59" cy="178.67" r="2.6" fill="#F0A23B"></circle><circle cx="316.44" cy="180.72" r="2.6" fill="#F0A23B"></circle><circle cx="327.3" cy="177.62" r="2.6" fill="#F0A23B"></circle><circle cx="338.15" cy="179.5" r="2.6" fill="#F0A23B"></circle><circle cx="349" cy="151.31" r="2.6" fill="#F0A23B"></circle><circle cx="359.85" cy="176.94" r="2.6" fill="#F0A23B"></circle><circle cx="370.7" cy="159.91" r="2.6" fill="#F0A23B"></circle><circle cx="381.56" cy="179.22" r="2.6" fill="#F0A23B"></circle><circle cx="392.41" cy="151.49" r="2.6" fill="#F0A23B"></circle><circle cx="403.26" cy="180.65" r="2.6" fill="#F0A23B"></circle><circle cx="414.11" cy="179.71" r="2.6" fill="#F0A23B"></circle><circle cx="424.96" cy="79.16" r="2.6" fill="#F0A23B"></circle><circle cx="435.81" cy="99.74" r="2.6" fill="#F0A23B"></circle><circle cx="446.67" cy="178.4" r="2.6" fill="#F0A23B"></circle><circle cx="457.52" cy="180.3" r="2.6" fill="#F0A23B"></circle><circle cx="468.37" cy="180.24" r="2.6" fill="#F0A23B"></circle><circle cx="479.22" cy="176.88" r="2.6" fill="#F0A23B"></circle><circle cx="490.07" cy="178.65" r="2.6" fill="#F0A23B"></circle><circle cx="500.93" cy="183.45" r="2.6" fill="#F0A23B"></circle><circle cx="511.78" cy="182.56" r="2.6" fill="#F0A23B"></circle><circle cx="522.63" cy="133.59" r="2.6" fill="#F0A23B"></circle><circle cx="533.48" cy="178.99" r="2.6" fill="#F0A23B"></circle><circle cx="544.33" cy="179.14" r="2.6" fill="#F0A23B"></circle><circle cx="555.19" cy="119.51" r="2.6" fill="#F0A23B"></circle><circle cx="566.04" cy="175.85" r="2.6" fill="#F0A23B"></circle><circle cx="576.89" cy="154.88" r="2.6" fill="#F0A23B"></circle><circle cx="587.74" cy="181.28" r="2.6" fill="#F0A23B"></circle><circle cx="598.59" cy="178.3" r="2.6" fill="#F0A23B"></circle><circle cx="609.44" cy="178.34" r="2.6" fill="#F0A23B"></circle><circle cx="620.3" cy="151.77" r="2.6" fill="#F0A23B"></circle><circle cx="631.15" cy="137.32" r="2.6" fill="#F0A23B"></circle><circle cx="642" cy="181.99" r="2.6" fill="#F0A23B"></circle><polyline fill="none" stroke="#1F9CF0" stroke-width="2.4" stroke-linejoin="round" stroke-linecap="round" points="56,175.5 66.85,176.2 77.7,132.71 88.56,178.27 99.41,172 110.26,174.38 121.11,174.4 131.96,170.88 142.81,173.93 153.67,173.54 164.52,100.75 175.37,168.69 186.22,173.59 197.07,174.01 207.93,167.31 218.78,117.5 229.63,166.02 240.48,174.07 251.33,141.6 262.19,169.05 273.04,167.14 283.89,174.48 294.74,150.94 305.59,171.01 316.44,52.43 327.3,157.26 338.15,171.51 349,136.29 359.85,169.79 370.7,106.45 381.56,170.47 392.41,175.76 403.26,174.01 414.11,174.06 424.96,151.2 435.81,173.78 446.67,169.88 457.52,177.61 468.37,137.18 479.22,114.15 490.07,168.74 500.93,168.47 511.78,130.46 522.63,174.44 533.48,175.01 544.33,171.26 555.19,176.81 566.04,171.37 576.89,161.31 587.74,135.44 598.59,169.24 609.44,176.14 620.3,170.75 631.15,171.27 642,166.35"></polyline><circle cx="56" cy="175.5" r="2.6" fill="#1F9CF0"></circle><circle cx="66.85" cy="176.2" r="2.6" fill="#1F9CF0"></circle><circle cx="77.7" cy="132.71" r="2.6" fill="#1F9CF0"></circle><circle cx="88.56" cy="178.27" r="2.6" fill="#1F9CF0"></circle><circle cx="99.41" cy="172" r="2.6" fill="#1F9CF0"></circle><circle cx="110.26" cy="174.38" r="2.6" fill="#1F9CF0"></circle><circle cx="121.11" cy="174.4" r="2.6" fill="#1F9CF0"></circle><circle cx="131.96" cy="170.88" r="2.6" fill="#1F9CF0"></circle><circle cx="142.81" cy="173.93" r="2.6" fill="#1F9CF0"></circle><circle cx="153.67" cy="173.54" r="2.6" fill="#1F9CF0"></circle><circle cx="164.52" cy="100.75" r="2.6" fill="#1F9CF0"></circle><circle cx="175.37" cy="168.69" r="2.6" fill="#1F9CF0"></circle><circle cx="186.22" cy="173.59" r="2.6" fill="#1F9CF0"></circle><circle cx="197.07" cy="174.01" r="2.6" fill="#1F9CF0"></circle><circle cx="207.93" cy="167.31" r="2.6" fill="#1F9CF0"></circle><circle cx="218.78" cy="117.5" r="2.6" fill="#1F9CF0"></circle><circle cx="229.63" cy="166.02" r="2.6" fill="#1F9CF0"></circle><circle cx="240.48" cy="174.07" r="2.6" fill="#1F9CF0"></circle><circle cx="251.33" cy="141.6" r="2.6" fill="#1F9CF0"></circle><circle cx="262.19" cy="169.05" r="2.6" fill="#1F9CF0"></circle><circle cx="273.04" cy="167.14" r="2.6" fill="#1F9CF0"></circle><circle cx="283.89" cy="174.48" r="2.6" fill="#1F9CF0"></circle><circle cx="294.74" cy="150.94" r="2.6" fill="#1F9CF0"></circle><circle cx="305.59" cy="171.01" r="2.6" fill="#1F9CF0"></circle><circle cx="316.44" cy="52.43" r="2.6" fill="#1F9CF0"></circle><circle cx="327.3" cy="157.26" r="2.6" fill="#1F9CF0"></circle><circle cx="338.15" cy="171.51" r="2.6" fill="#1F9CF0"></circle><circle cx="349" cy="136.29" r="2.6" fill="#1F9CF0"></circle><circle cx="359.85" cy="169.79" r="2.6" fill="#1F9CF0"></circle><circle cx="370.7" cy="106.45" r="2.6" fill="#1F9CF0"></circle><circle cx="381.56" cy="170.47" r="2.6" fill="#1F9CF0"></circle><circle cx="392.41" cy="175.76" r="2.6" fill="#1F9CF0"></circle><circle cx="403.26" cy="174.01" r="2.6" fill="#1F9CF0"></circle><circle cx="414.11" cy="174.06" r="2.6" fill="#1F9CF0"></circle><circle cx="424.96" cy="151.2" r="2.6" fill="#1F9CF0"></circle><circle cx="435.81" cy="173.78" r="2.6" fill="#1F9CF0"></circle><circle cx="446.67" cy="169.88" r="2.6" fill="#1F9CF0"></circle><circle cx="457.52" cy="177.61" r="2.6" fill="#1F9CF0"></circle><circle cx="468.37" cy="137.18" r="2.6" fill="#1F9CF0"></circle><circle cx="479.22" cy="114.15" r="2.6" fill="#1F9CF0"></circle><circle cx="490.07" cy="168.74" r="2.6" fill="#1F9CF0"></circle><circle cx="500.93" cy="168.47" r="2.6" fill="#1F9CF0"></circle><circle cx="511.78" cy="130.46" r="2.6" fill="#1F9CF0"></circle><circle cx="522.63" cy="174.44" r="2.6" fill="#1F9CF0"></circle><circle cx="533.48" cy="175.01" r="2.6" fill="#1F9CF0"></circle><circle cx="544.33" cy="171.26" r="2.6" fill="#1F9CF0"></circle><circle cx="555.19" cy="176.81" r="2.6" fill="#1F9CF0"></circle><circle cx="566.04" cy="171.37" r="2.6" fill="#1F9CF0"></circle><circle cx="576.89" cy="161.31" r="2.6" fill="#1F9CF0"></circle><circle cx="587.74" cy="135.44" r="2.6" fill="#1F9CF0"></circle><circle cx="598.59" cy="169.24" r="2.6" fill="#1F9CF0"></circle><circle cx="609.44" cy="176.14" r="2.6" fill="#1F9CF0"></circle><circle cx="620.3" cy="170.75" r="2.6" fill="#1F9CF0"></circle><circle cx="631.15" cy="171.27" r="2.6" fill="#1F9CF0"></circle><circle cx="642" cy="166.35" r="2.6" fill="#1F9CF0"></circle><line x1="656" y1="27" x2="672" y2="27" stroke="#6366F1" stroke-width="3" stroke-linecap="round"></line><text x="678" y="30" font-size="11" font-weight="400" text-anchor="start" fill="#e6edf3">deepseek</text><line x1="656" y1="47" x2="672" y2="47" stroke="#A371F7" stroke-width="3" stroke-linecap="round"></line><text x="678" y="50" font-size="11" font-weight="400" text-anchor="start" fill="#e6edf3">llama</text><line x1="656" y1="67" x2="672" y2="67" stroke="#F0A23B" stroke-width="3" stroke-linecap="round"></line><text x="678" y="70" font-size="11" font-weight="400" text-anchor="start" fill="#e6edf3">mistral</text><line x1="656" y1="87" x2="672" y2="87" stroke="#1F9CF0" stroke-width="3" stroke-linecap="round"></line><text x="678" y="90" font-size="11" font-weight="400" text-anchor="start" fill="#e6edf3">openai</text></svg>
