<svg xmlns="http://www.w3.org/2000/svg" viewBox="0 0 760 348" width="760" height="348" role="img" aria-label="Cost per test by provider over runs — mistral highest, deepseek lowest" font-family="-apple-system,BlinkMacSystemFont,'Segoe UI',system-ui,sans-serif"><line x1="56" y1="306" x2="642" y2="306" stroke="#30363d" stroke-width="1"></line><text x="46" y="310" font-size="9.5" font-weight="400" text-anchor="end" fill="#8b949e" font-family="ui-monospace,SFMono-Regular,Menlo,monospace">$0.000</text><line x1="56" y1="235" x2="642" y2="235" stroke="#30363d" stroke-width="1"></line><text x="46" y="239" font-size="9.5" font-weight="400" text-anchor="end" fill="#8b949e" font-family="ui-monospace,SFMono-Regular,Menlo,monospace">$0.039</text><line x1="56" y1="164" x2="642" y2="164" stroke="#30363d" stroke-width="1"></line><text x="46" y="168" font-size="9.5" font-weight="400" text-anchor="end" fill="#8b949e" font-family="ui-monospace,SFMono-Regular,Menlo,monospace">$0.079</text><line x1="56" y1="93" x2="642" y2="93" stroke="#30363d" stroke-width="1"></line><text x="46" y="97" font-size="9.5" font-weight="400" text-anchor="end" fill="#8b949e" font-family="ui-monospace,SFMono-Regular,Menlo,monospace">$0.118</text><line x1="56" y1="22" x2="642" y2="22" stroke="#30363d" stroke-width="1"></line><text x="46" y="26" font-size="9.5" font-weight="400" text-anchor="end" fill="#8b949e" font-family="ui-monospace,SFMono-Regular,Menlo,monospace">$0.158</text><text x="56" y="324" font-size="9.5" font-weight="400" text-anchor="middle" fill="#8b949e" font-family="ui-monospace,SFMono-Regular,Menlo,monospace">06/06</text><text x="109.97" y="324" font-size="9.5" font-weight="400" text-anchor="middle" fill="#8b949e" font-family="ui-monospace,SFMono-Regular,Menlo,monospace">06/08</text><text x="163.95" y="324" font-size="9.5" font-weight="400" text-anchor="middle" fill="#8b949e" font-family="ui-monospace,SFMono-Regular,Menlo,monospace">06/09</text><text x="217.92" y="324" font-size="9.5" font-weight="400" text-anchor="middle" fill="#8b949e" font-family="ui-monospace,SFMono-Regular,Menlo,monospace">06/10</text><text x="271.89" y="324" font-size="9.5" font-weight="400" text-anchor="middle" fill="#8b949e" font-family="ui-monospace,SFMono-Regular,Menlo,monospace">06/14</text><text x="325.87" y="324" font-size="9.5" font-weight="400" text-anchor="middle" fill="#8b949e" font-family="ui-monospace,SFMono-Regular,Menlo,monospace">06/15</text><text x="379.84" y="324" font-size="9.5" font-weight="400" text-anchor="middle" fill="#8b949e" font-family="ui-monospace,SFMono-Regular,Menlo,monospace">06/16</text><text x="433.82" y="324" font-size="9.5" font-weight="400" text-anchor="middle" fill="#8b949e" font-family="ui-monospace,SFMono-Regular,Menlo,monospace">06/18</text><text x="487.79" y="324" font-size="9.5" font-weight="400" text-anchor="middle" fill="#8b949e" font-family="ui-monospace,SFMono-Regular,Menlo,monospace">06/20</text><text x="541.76" y="324" font-size="9.5" font-weight="400" text-anchor="middle" fill="#8b949e" font-family="ui-monospace,SFMono-Regular,Menlo,monospace">06/22</text><text x="595.74" y="324" font-size="9.5" font-weight="400" text-anchor="middle" fill="#8b949e" font-family="ui-monospace,SFMono-Regular,Menlo,monospace">06/23</text><text x="642" y="324" font-size="9.5" font-weight="400" text-anchor="middle" fill="#8b949e" font-family="ui-monospace,SFMono-Regular,Menlo,monospace">06/24</text><polyline fill="none" stroke="#6366F1" stroke-width="2.4" stroke-linejoin="round" stroke-linecap="round" points="117.68,291.99 125.39,292.07 133.11,292.82 140.82,291.48 148.53,291.75 156.24,285.29 163.95,293.05 171.66,290.23 179.37,290.29 187.08,289.78 194.79,291.61 202.5,290.27 210.21,286.66 217.92,290.55 225.63,286.99 233.34,293.02 241.05,290.61 248.76,286.59 256.47,283.56 264.18,290.63 271.89,289.42 279.61,292.33 287.32,288.36 295.03,284.88 302.74,291.34 310.45,290.13 318.16,291.01 325.87,289.68 341.29,289.04 349,291.5 356.71,291.97 364.42,289.14 372.13,289.37 379.84,290.04 387.55,290.81 395.26,291.39 402.97,292 418.39,292.33 426.11,292.51 433.82,290.75 441.53,289.5 449.24,289.4 456.95,282.59 464.66,289.91 472.37,286.79 480.08,288.79 487.79,286.98 495.5,290.22 503.21,291.94 510.92,292.7 518.63,281.08 526.34,292.31 534.05,290.28 541.76,286.5 549.47,289 557.18,289.95 564.89,291.41 572.61,290.81 580.32,291 588.03,290.42 595.74,289.99 603.45,284.38 611.16,292.31 618.87,291.62 626.58,287.31 634.29,291.89 642,292.21"></polyline><circle cx="117.68" cy="291.99" r="2.6" fill="#6366F1"></circle><circle cx="125.39" cy="292.07" r="2.6" fill="#6366F1"></circle><circle cx="133.11" cy="292.82" r="2.6" fill="#6366F1"></circle><circle cx="140.82" cy="291.48" r="2.6" fill="#6366F1"></circle><circle cx="148.53" cy="291.75" r="2.6" fill="#6366F1"></circle><circle cx="156.24" cy="285.29" r="2.6" fill="#6366F1"></circle><circle cx="163.95" cy="293.05" r="2.6" fill="#6366F1"></circle><circle cx="171.66" cy="290.23" r="2.6" fill="#6366F1"></circle><circle cx="179.37" cy="290.29" r="2.6" fill="#6366F1"></circle><circle cx="187.08" cy="289.78" r="2.6" fill="#6366F1"></circle><circle cx="194.79" cy="291.61" r="2.6" fill="#6366F1"></circle><circle cx="202.5" cy="290.27" r="2.6" fill="#6366F1"></circle><circle cx="210.21" cy="286.66" r="2.6" fill="#6366F1"></circle><circle cx="217.92" cy="290.55" r="2.6" fill="#6366F1"></circle><circle cx="225.63" cy="286.99" r="2.6" fill="#6366F1"></circle><circle cx="233.34" cy="293.02" r="2.6" fill="#6366F1"></circle><circle cx="241.05" cy="290.61" r="2.6" fill="#6366F1"></circle><circle cx="248.76" cy="286.59" r="2.6" fill="#6366F1"></circle><circle cx="256.47" cy="283.56" r="2.6" fill="#6366F1"></circle><circle cx="264.18" cy="290.63" r="2.6" fill="#6366F1"></circle><circle cx="271.89" cy="289.42" r="2.6" fill="#6366F1"></circle><circle cx="279.61" cy="292.33" r="2.6" fill="#6366F1"></circle><circle cx="287.32" cy="288.36" r="2.6" fill="#6366F1"></circle><circle cx="295.03" cy="284.88" r="2.6" fill="#6366F1"></circle><circle cx="302.74" cy="291.34" r="2.6" fill="#6366F1"></circle><circle cx="310.45" cy="290.13" r="2.6" fill="#6366F1"></circle><circle cx="318.16" cy="291.01" r="2.6" fill="#6366F1"></circle><circle cx="325.87" cy="289.68" r="2.6" fill="#6366F1"></circle><circle cx="341.29" cy="289.04" r="2.6" fill="#6366F1"></circle><circle cx="349" cy="291.5" r="2.6" fill="#6366F1"></circle><circle cx="356.71" cy="291.97" r="2.6" fill="#6366F1"></circle><circle cx="364.42" cy="289.14" r="2.6" fill="#6366F1"></circle><circle cx="372.13" cy="289.37" r="2.6" fill="#6366F1"></circle><circle cx="379.84" cy="290.04" r="2.6" fill="#6366F1"></circle><circle cx="387.55" cy="290.81" r="2.6" fill="#6366F1"></circle><circle cx="395.26" cy="291.39" r="2.6" fill="#6366F1"></circle><circle cx="402.97" cy="292" r="2.6" fill="#6366F1"></circle><circle cx="418.39" cy="292.33" r="2.6" fill="#6366F1"></circle><circle cx="426.11" cy="292.51" r="2.6" fill="#6366F1"></circle><circle cx="433.82" cy="290.75" r="2.6" fill="#6366F1"></circle><circle cx="441.53" cy="289.5" r="2.6" fill="#6366F1"></circle><circle cx="449.24" cy="289.4" r="2.6" fill="#6366F1"></circle><circle cx="456.95" cy="282.59" r="2.6" fill="#6366F1"></circle><circle cx="464.66" cy="289.91" r="2.6" fill="#6366F1"></circle><circle cx="472.37" cy="286.79" r="2.6" fill="#6366F1"></circle><circle cx="480.08" cy="288.79" r="2.6" fill="#6366F1"></circle><circle cx="487.79" cy="286.98" r="2.6" fill="#6366F1"></circle><circle cx="495.5" cy="290.22" r="2.6" fill="#6366F1"></circle><circle cx="503.21" cy="291.94" r="2.6" fill="#6366F1"></circle><circle cx="510.92" cy="292.7" r="2.6" fill="#6366F1"></circle><circle cx="518.63" cy="281.08" r="2.6" fill="#6366F1"></circle><circle cx="526.34" cy="292.31" r="2.6" fill="#6366F1"></circle><circle cx="534.05" cy="290.28" r="2.6" fill="#6366F1"></circle><circle cx="541.76" cy="286.5" r="2.6" fill="#6366F1"></circle><circle cx="549.47" cy="289" r="2.6" fill="#6366F1"></circle><circle cx="557.18" cy="289.95" r="2.6" fill="#6366F1"></circle><circle cx="564.89" cy="291.41" r="2.6" fill="#6366F1"></circle><circle cx="572.61" cy="290.81" r="2.6" fill="#6366F1"></circle><circle cx="580.32" cy="291" r="2.6" fill="#6366F1"></circle><circle cx="588.03" cy="290.42" r="2.6" fill="#6366F1"></circle><circle cx="595.74" cy="289.99" r="2.6" fill="#6366F1"></circle><circle cx="603.45" cy="284.38" r="2.6" fill="#6366F1"></circle><circle cx="611.16" cy="292.31" r="2.6" fill="#6366F1"></circle><circle cx="618.87" cy="291.62" r="2.6" fill="#6366F1"></circle><circle cx="626.58" cy="287.31" r="2.6" fill="#6366F1"></circle><circle cx="634.29" cy="291.89" r="2.6" fill="#6366F1"></circle><circle cx="642" cy="292.21" r="2.6" fill="#6366F1"></circle><polyline fill="none" stroke="#A371F7" stroke-width="2.4" stroke-linejoin="round" stroke-linecap="round" points="56,226.25 63.71,237.88 71.42,241.73 79.13,223.38 86.84,231.64 94.55,243.09 102.26,237.81 109.97,230.14 117.68,233.83 125.39,241.12 133.11,233.75 140.82,230.9 148.53,235.83 156.24,217.13 163.95,237.29 171.66,230.7 179.37,240.49 187.08,241.09 194.79,218.17 202.5,232.28 210.21,201.8 217.92,239.78 225.63,242.88 233.34,229.56 241.05,227.31 248.76,231.21 256.47,233.26 264.18,230.48 271.89,240.31 279.61,235.36 287.32,231.03 295.03,237.98 302.74,242.74 310.45,217.94 318.16,237.38 325.87,239.39 341.29,216.58 349,239.81 356.71,230.21 372.13,230.86 379.84,240.78 387.55,241.27 395.26,237.28 402.97,234.45 410.68,237.03 418.39,237.6 426.11,235.95 433.82,225.98 441.53,230.74 449.24,232.09 456.95,238.44 464.66,233.93 472.37,237.36 480.08,236.2 495.5,238.07 503.21,232.58 518.63,227.45 526.34,236.55 534.05,232.02 541.76,240.47 549.47,213.84 557.18,238.7 564.89,238.88 572.61,241.18 580.32,233.39 588.03,234.63 595.74,239.11 611.16,240.21 618.87,229.42 626.58,240.04 634.29,237.25 642,239.83"></polyline><circle cx="56" cy="226.25" r="2.6" fill="#A371F7"></circle><circle cx="63.71" cy="237.88" r="2.6" fill="#A371F7"></circle><circle cx="71.42" cy="241.73" r="2.6" fill="#A371F7"></circle><circle cx="79.13" cy="223.38" r="2.6" fill="#A371F7"></circle><circle cx="86.84" cy="231.64" r="2.6" fill="#A371F7"></circle><circle cx="94.55" cy="243.09" r="2.6" fill="#A371F7"></circle><circle cx="102.26" cy="237.81" r="2.6" fill="#A371F7"></circle><circle cx="109.97" cy="230.14" r="2.6" fill="#A371F7"></circle><circle cx="117.68" cy="233.83" r="2.6" fill="#A371F7"></circle><circle cx="125.39" cy="241.12" r="2.6" fill="#A371F7"></circle><circle cx="133.11" cy="233.75" r="2.6" fill="#A371F7"></circle><circle cx="140.82" cy="230.9" r="2.6" fill="#A371F7"></circle><circle cx="148.53" cy="235.83" r="2.6" fill="#A371F7"></circle><circle cx="156.24" cy="217.13" r="2.6" fill="#A371F7"></circle><circle cx="163.95" cy="237.29" r="2.6" fill="#A371F7"></circle><circle cx="171.66" cy="230.7" r="2.6" fill="#A371F7"></circle><circle cx="179.37" cy="240.49" r="2.6" fill="#A371F7"></circle><circle cx="187.08" cy="241.09" r="2.6" fill="#A371F7"></circle><circle cx="194.79" cy="218.17" r="2.6" fill="#A371F7"></circle><circle cx="202.5" cy="232.28" r="2.6" fill="#A371F7"></circle><circle cx="210.21" cy="201.8" r="2.6" fill="#A371F7"></circle><circle cx="217.92" cy="239.78" r="2.6" fill="#A371F7"></circle><circle cx="225.63" cy="242.88" r="2.6" fill="#A371F7"></circle><circle cx="233.34" cy="229.56" r="2.6" fill="#A371F7"></circle><circle cx="241.05" cy="227.31" r="2.6" fill="#A371F7"></circle><circle cx="248.76" cy="231.21" r="2.6" fill="#A371F7"></circle><circle cx="256.47" cy="233.26" r="2.6" fill="#A371F7"></circle><circle cx="264.18" cy="230.48" r="2.6" fill="#A371F7"></circle><circle cx="271.89" cy="240.31" r="2.6" fill="#A371F7"></circle><circle cx="279.61" cy="235.36" r="2.6" fill="#A371F7"></circle><circle cx="287.32" cy="231.03" r="2.6" fill="#A371F7"></circle><circle cx="295.03" cy="237.98" r="2.6" fill="#A371F7"></circle><circle cx="302.74" cy="242.74" r="2.6" fill="#A371F7"></circle><circle cx="310.45" cy="217.94" r="2.6" fill="#A371F7"></circle><circle cx="318.16" cy="237.38" r="2.6" fill="#A371F7"></circle><circle cx="325.87" cy="239.39" r="2.6" fill="#A371F7"></circle><circle cx="341.29" cy="216.58" r="2.6" fill="#A371F7"></circle><circle cx="349" cy="239.81" r="2.6" fill="#A371F7"></circle><circle cx="356.71" cy="230.21" r="2.6" fill="#A371F7"></circle><circle cx="372.13" cy="230.86" r="2.6" fill="#A371F7"></circle><circle cx="379.84" cy="240.78" r="2.6" fill="#A371F7"></circle><circle cx="387.55" cy="241.27" r="2.6" fill="#A371F7"></circle><circle cx="395.26" cy="237.28" r="2.6" fill="#A371F7"></circle><circle cx="402.97" cy="234.45" r="2.6" fill="#A371F7"></circle><circle cx="410.68" cy="237.03" r="2.6" fill="#A371F7"></circle><circle cx="418.39" cy="237.6" r="2.6" fill="#A371F7"></circle><circle cx="426.11" cy="235.95" r="2.6" fill="#A371F7"></circle><circle cx="433.82" cy="225.98" r="2.6" fill="#A371F7"></circle><circle cx="441.53" cy="230.74" r="2.6" fill="#A371F7"></circle><circle cx="449.24" cy="232.09" r="2.6" fill="#A371F7"></circle><circle cx="456.95" cy="238.44" r="2.6" fill="#A371F7"></circle><circle cx="464.66" cy="233.93" r="2.6" fill="#A371F7"></circle><circle cx="472.37" cy="237.36" r="2.6" fill="#A371F7"></circle><circle cx="480.08" cy="236.2" r="2.6" fill="#A371F7"></circle><circle cx="495.5" cy="238.07" r="2.6" fill="#A371F7"></circle><circle cx="503.21" cy="232.58" r="2.6" fill="#A371F7"></circle><circle cx="518.63" cy="227.45" r="2.6" fill="#A371F7"></circle><circle cx="526.34" cy="236.55" r="2.6" fill="#A371F7"></circle><circle cx="534.05" cy="232.02" r="2.6" fill="#A371F7"></circle><circle cx="541.76" cy="240.47" r="2.6" fill="#A371F7"></circle><circle cx="549.47" cy="213.84" r="2.6" fill="#A371F7"></circle><circle cx="557.18" cy="238.7" r="2.6" fill="#A371F7"></circle><circle cx="564.89" cy="238.88" r="2.6" fill="#A371F7"></circle><circle cx="572.61" cy="241.18" r="2.6" fill="#A371F7"></circle><circle cx="580.32" cy="233.39" r="2.6" fill="#A371F7"></circle><circle cx="588.03" cy="234.63" r="2.6" fill="#A371F7"></circle><circle cx="595.74" cy="239.11" r="2.6" fill="#A371F7"></circle><circle cx="611.16" cy="240.21" r="2.6" fill="#A371F7"></circle><circle cx="618.87" cy="229.42" r="2.6" fill="#A371F7"></circle><circle cx="626.58" cy="240.04" r="2.6" fill="#A371F7"></circle><circle cx="634.29" cy="237.25" r="2.6" fill="#A371F7"></circle><circle cx="642" cy="239.83" r="2.6" fill="#A371F7"></circle><polyline fill="none" stroke="#F0A23B" stroke-width="2.4" stroke-linejoin="round" stroke-linecap="round" points="56,162.13 63.71,151.29 71.42,72.27 79.13,170.58 86.84,165.15 94.55,168.63 102.26,155.58 109.97,155.2 117.68,151.03 125.39,159.37 133.11,151 140.82,152 148.53,154.31 156.24,162.54 163.95,145.36 171.66,160.82 179.37,153.52 187.08,158.63 194.79,172.35 202.5,162.23 210.21,168.2 217.92,164.28 225.63,98 233.34,164.92 241.05,167.19 248.76,163.76 256.47,165.84 264.18,134.6 271.89,163 279.61,144.13 287.32,165.52 295.03,134.8 302.74,167.11 310.45,166.07 318.16,54.66 325.87,77.46 333.58,164.62 341.29,166.72 349,166.65 356.71,162.93 364.42,164.9 372.13,170.21 379.84,169.23 387.55,114.96 395.26,165.27 402.97,165.44 410.68,99.36 418.39,161.79 426.11,138.56 433.82,167.81 441.53,164.51 449.24,164.55 456.95,135.11 464.66,119.1 472.37,168.6 480.08,167.03 487.79,169.7 495.5,164.27 503.21,168.02 510.92,163.89 518.63,99.72 526.34,166.55 534.05,163.57 541.76,163.91 549.47,164.36 557.18,166.86 564.89,166.95 572.61,52.43 580.32,166.52 588.03,165.82 595.74,164.59 611.16,164.21 618.87,164.24 626.58,161.69 634.29,156.02 642,164.92"></polyline><circle cx="56" cy="162.13" r="2.6" fill="#F0A23B"></circle><circle cx="63.71" cy="151.29" r="2.6" fill="#F0A23B"></circle><circle cx="71.42" cy="72.27" r="2.6" fill="#F0A23B"></circle><circle cx="79.13" cy="170.58" r="2.6" fill="#F0A23B"></circle><circle cx="86.84" cy="165.15" r="2.6" fill="#F0A23B"></circle><circle cx="94.55" cy="168.63" r="2.6" fill="#F0A23B"></circle><circle cx="102.26" cy="155.58" r="2.6" fill="#F0A23B"></circle><circle cx="109.97" cy="155.2" r="2.6" fill="#F0A23B"></circle><circle cx="117.68" cy="151.03" r="2.6" fill="#F0A23B"></circle><circle cx="125.39" cy="159.37" r="2.6" fill="#F0A23B"></circle><circle cx="133.11" cy="151" r="2.6" fill="#F0A23B"></circle><circle cx="140.82" cy="152" r="2.6" fill="#F0A23B"></circle><circle cx="148.53" cy="154.31" r="2.6" fill="#F0A23B"></circle><circle cx="156.24" cy="162.54" r="2.6" fill="#F0A23B"></circle><circle cx="163.95" cy="145.36" r="2.6" fill="#F0A23B"></circle><circle cx="171.66" cy="160.82" r="2.6" fill="#F0A23B"></circle><circle cx="179.37" cy="153.52" r="2.6" fill="#F0A23B"></circle><circle cx="187.08" cy="158.63" r="2.6" fill="#F0A23B"></circle><circle cx="194.79" cy="172.35" r="2.6" fill="#F0A23B"></circle><circle cx="202.5" cy="162.23" r="2.6" fill="#F0A23B"></circle><circle cx="210.21" cy="168.2" r="2.6" fill="#F0A23B"></circle><circle cx="217.92" cy="164.28" r="2.6" fill="#F0A23B"></circle><circle cx="225.63" cy="98" r="2.6" fill="#F0A23B"></circle><circle cx="233.34" cy="164.92" r="2.6" fill="#F0A23B"></circle><circle cx="241.05" cy="167.19" r="2.6" fill="#F0A23B"></circle><circle cx="248.76" cy="163.76" r="2.6" fill="#F0A23B"></circle><circle cx="256.47" cy="165.84" r="2.6" fill="#F0A23B"></circle><circle cx="264.18" cy="134.6" r="2.6" fill="#F0A23B"></circle><circle cx="271.89" cy="163" r="2.6" fill="#F0A23B"></circle><circle cx="279.61" cy="144.13" r="2.6" fill="#F0A23B"></circle><circle cx="287.32" cy="165.52" r="2.6" fill="#F0A23B"></circle><circle cx="295.03" cy="134.8" r="2.6" fill="#F0A23B"></circle><circle cx="302.74" cy="167.11" r="2.6" fill="#F0A23B"></circle><circle cx="310.45" cy="166.07" r="2.6" fill="#F0A23B"></circle><circle cx="318.16" cy="54.66" r="2.6" fill="#F0A23B"></circle><circle cx="325.87" cy="77.46" r="2.6" fill="#F0A23B"></circle><circle cx="333.58" cy="164.62" r="2.6" fill="#F0A23B"></circle><circle cx="341.29" cy="166.72" r="2.6" fill="#F0A23B"></circle><circle cx="349" cy="166.65" r="2.6" fill="#F0A23B"></circle><circle cx="356.71" cy="162.93" r="2.6" fill="#F0A23B"></circle><circle cx="364.42" cy="164.9" r="2.6" fill="#F0A23B"></circle><circle cx="372.13" cy="170.21" r="2.6" fill="#F0A23B"></circle><circle cx="379.84" cy="169.23" r="2.6" fill="#F0A23B"></circle><circle cx="387.55" cy="114.96" r="2.6" fill="#F0A23B"></circle><circle cx="395.26" cy="165.27" r="2.6" fill="#F0A23B"></circle><circle cx="402.97" cy="165.44" r="2.6" fill="#F0A23B"></circle><circle cx="410.68" cy="99.36" r="2.6" fill="#F0A23B"></circle><circle cx="418.39" cy="161.79" r="2.6" fill="#F0A23B"></circle><circle cx="426.11" cy="138.56" r="2.6" fill="#F0A23B"></circle><circle cx="433.82" cy="167.81" r="2.6" fill="#F0A23B"></circle><circle cx="441.53" cy="164.51" r="2.6" fill="#F0A23B"></circle><circle cx="449.24" cy="164.55" r="2.6" fill="#F0A23B"></circle><circle cx="456.95" cy="135.11" r="2.6" fill="#F0A23B"></circle><circle cx="464.66" cy="119.1" r="2.6" fill="#F0A23B"></circle><circle cx="472.37" cy="168.6" r="2.6" fill="#F0A23B"></circle><circle cx="480.08" cy="167.03" r="2.6" fill="#F0A23B"></circle><circle cx="487.79" cy="169.7" r="2.6" fill="#F0A23B"></circle><circle cx="495.5" cy="164.27" r="2.6" fill="#F0A23B"></circle><circle cx="503.21" cy="168.02" r="2.6" fill="#F0A23B"></circle><circle cx="510.92" cy="163.89" r="2.6" fill="#F0A23B"></circle><circle cx="518.63" cy="99.72" r="2.6" fill="#F0A23B"></circle><circle cx="526.34" cy="166.55" r="2.6" fill="#F0A23B"></circle><circle cx="534.05" cy="163.57" r="2.6" fill="#F0A23B"></circle><circle cx="541.76" cy="163.91" r="2.6" fill="#F0A23B"></circle><circle cx="549.47" cy="164.36" r="2.6" fill="#F0A23B"></circle><circle cx="557.18" cy="166.86" r="2.6" fill="#F0A23B"></circle><circle cx="564.89" cy="166.95" r="2.6" fill="#F0A23B"></circle><circle cx="572.61" cy="52.43" r="2.6" fill="#F0A23B"></circle><circle cx="580.32" cy="166.52" r="2.6" fill="#F0A23B"></circle><circle cx="588.03" cy="165.82" r="2.6" fill="#F0A23B"></circle><circle cx="595.74" cy="164.59" r="2.6" fill="#F0A23B"></circle><circle cx="611.16" cy="164.21" r="2.6" fill="#F0A23B"></circle><circle cx="618.87" cy="164.24" r="2.6" fill="#F0A23B"></circle><circle cx="626.58" cy="161.69" r="2.6" fill="#F0A23B"></circle><circle cx="634.29" cy="156.02" r="2.6" fill="#F0A23B"></circle><circle cx="642" cy="164.92" r="2.6" fill="#F0A23B"></circle><line x1="656" y1="27" x2="672" y2="27" stroke="#6366F1" stroke-width="3" stroke-linecap="round"></line><text x="678" y="30" font-size="11" font-weight="400" text-anchor="start" fill="#e6edf3">deepseek</text><line x1="656" y1="47" x2="672" y2="47" stroke="#A371F7" stroke-width="3" stroke-linecap="round"></line><text x="678" y="50" font-size="11" font-weight="400" text-anchor="start" fill="#e6edf3">llama</text><line x1="656" y1="67" x2="672" y2="67" stroke="#F0A23B" stroke-width="3" stroke-linecap="round"></line><text x="678" y="70" font-size="11" font-weight="400" text-anchor="start" fill="#e6edf3">mistral</text></svg>
