<svg xmlns="http://www.w3.org/2000/svg" viewBox="0 0 760 348" width="760" height="348" role="img" aria-label="Cost per test by provider over runs — openai highest, deepseek lowest" font-family="-apple-system,BlinkMacSystemFont,'Segoe UI',system-ui,sans-serif"><line x1="56" y1="306" x2="642" y2="306" stroke="#d8dee4" stroke-width="1"></line><text x="46" y="310" font-size="9.5" font-weight="400" text-anchor="end" fill="#656d76" font-family="ui-monospace,SFMono-Regular,Menlo,monospace">$0.000</text><line x1="56" y1="235" x2="642" y2="235" stroke="#d8dee4" stroke-width="1"></line><text x="46" y="239" font-size="9.5" font-weight="400" text-anchor="end" fill="#656d76" font-family="ui-monospace,SFMono-Regular,Menlo,monospace">$0.044</text><line x1="56" y1="164" x2="642" y2="164" stroke="#d8dee4" stroke-width="1"></line><text x="46" y="168" font-size="9.5" font-weight="400" text-anchor="end" fill="#656d76" font-family="ui-monospace,SFMono-Regular,Menlo,monospace">$0.087</text><line x1="56" y1="93" x2="642" y2="93" stroke="#d8dee4" stroke-width="1"></line><text x="46" y="97" font-size="9.5" font-weight="400" text-anchor="end" fill="#656d76" font-family="ui-monospace,SFMono-Regular,Menlo,monospace">$0.131</text><line x1="56" y1="22" x2="642" y2="22" stroke="#d8dee4" stroke-width="1"></line><text x="46" y="26" font-size="9.5" font-weight="400" text-anchor="end" fill="#656d76" font-family="ui-monospace,SFMono-Regular,Menlo,monospace">$0.175</text><text x="56" y="324" font-size="9.5" font-weight="400" text-anchor="middle" fill="#656d76" font-family="ui-monospace,SFMono-Regular,Menlo,monospace">06/06</text><text x="114.6" y="324" font-size="9.5" font-weight="400" text-anchor="middle" fill="#656d76" font-family="ui-monospace,SFMono-Regular,Menlo,monospace">06/08</text><text x="173.2" y="324" font-size="9.5" font-weight="400" text-anchor="middle" fill="#656d76" font-family="ui-monospace,SFMono-Regular,Menlo,monospace">06/08</text><text x="231.8" y="324" font-size="9.5" font-weight="400" text-anchor="middle" fill="#656d76" font-family="ui-monospace,SFMono-Regular,Menlo,monospace">06/09</text><text x="290.4" y="324" font-size="9.5" font-weight="400" text-anchor="middle" fill="#656d76" font-family="ui-monospace,SFMono-Regular,Menlo,monospace">06/12</text><text x="349" y="324" font-size="9.5" font-weight="400" text-anchor="middle" fill="#656d76" font-family="ui-monospace,SFMono-Regular,Menlo,monospace">06/14</text><text x="407.6" y="324" font-size="9.5" font-weight="400" text-anchor="middle" fill="#656d76" font-family="ui-monospace,SFMono-Regular,Menlo,monospace">06/15</text><text x="466.2" y="324" font-size="9.5" font-weight="400" text-anchor="middle" fill="#656d76" font-family="ui-monospace,SFMono-Regular,Menlo,monospace">06/16</text><text x="524.8" y="324" font-size="9.5" font-weight="400" text-anchor="middle" fill="#656d76" font-family="ui-monospace,SFMono-Regular,Menlo,monospace">06/17</text><text x="583.4" y="324" font-size="9.5" font-weight="400" text-anchor="middle" fill="#656d76" font-family="ui-monospace,SFMono-Regular,Menlo,monospace">06/20</text><text x="642" y="324" font-size="9.5" font-weight="400" text-anchor="middle" fill="#656d76" font-family="ui-monospace,SFMono-Regular,Menlo,monospace">06/21</text><polyline fill="none" stroke="#6366F1" stroke-width="2.4" stroke-linejoin="round" stroke-linecap="round" points="134.13,293.36 143.9,293.43 153.67,294.1 163.43,292.89 173.2,293.14 182.97,287.31 192.73,294.31 202.5,291.77 212.27,291.82 222.03,291.36 231.8,293.02 241.57,291.8 251.33,288.55 261.1,292.06 270.87,288.85 280.63,294.29 290.4,292.11 300.17,288.48 309.93,285.75 319.7,292.13 329.47,291.04 339.23,293.66 349,290.08 358.77,286.94 368.53,292.77 378.3,291.68 388.07,292.47 397.83,291.27 417.37,290.7 427.13,292.91 436.9,293.34 446.67,290.78 456.43,290.99 466.2,291.6 475.97,292.29 485.73,292.81 495.5,293.37 515.03,293.66 524.8,293.82 534.57,292.24 544.33,291.11 554.1,291.02 563.87,284.88 573.63,291.48 583.4,288.67 593.17,290.47 602.93,288.84 612.7,291.75 632.23,293.31 642,293.99"></polyline><circle cx="134.13" cy="293.36" r="2.6" fill="#6366F1"></circle><circle cx="143.9" cy="293.43" r="2.6" fill="#6366F1"></circle><circle cx="153.67" cy="294.1" r="2.6" fill="#6366F1"></circle><circle cx="163.43" cy="292.89" r="2.6" fill="#6366F1"></circle><circle cx="173.2" cy="293.14" r="2.6" fill="#6366F1"></circle><circle cx="182.97" cy="287.31" r="2.6" fill="#6366F1"></circle><circle cx="192.73" cy="294.31" r="2.6" fill="#6366F1"></circle><circle cx="202.5" cy="291.77" r="2.6" fill="#6366F1"></circle><circle cx="212.27" cy="291.82" r="2.6" fill="#6366F1"></circle><circle cx="222.03" cy="291.36" r="2.6" fill="#6366F1"></circle><circle cx="231.8" cy="293.02" r="2.6" fill="#6366F1"></circle><circle cx="241.57" cy="291.8" r="2.6" fill="#6366F1"></circle><circle cx="251.33" cy="288.55" r="2.6" fill="#6366F1"></circle><circle cx="261.1" cy="292.06" r="2.6" fill="#6366F1"></circle><circle cx="270.87" cy="288.85" r="2.6" fill="#6366F1"></circle><circle cx="280.63" cy="294.29" r="2.6" fill="#6366F1"></circle><circle cx="290.4" cy="292.11" r="2.6" fill="#6366F1"></circle><circle cx="300.17" cy="288.48" r="2.6" fill="#6366F1"></circle><circle cx="309.93" cy="285.75" r="2.6" fill="#6366F1"></circle><circle cx="319.7" cy="292.13" r="2.6" fill="#6366F1"></circle><circle cx="329.47" cy="291.04" r="2.6" fill="#6366F1"></circle><circle cx="339.23" cy="293.66" r="2.6" fill="#6366F1"></circle><circle cx="349" cy="290.08" r="2.6" fill="#6366F1"></circle><circle cx="358.77" cy="286.94" r="2.6" fill="#6366F1"></circle><circle cx="368.53" cy="292.77" r="2.6" fill="#6366F1"></circle><circle cx="378.3" cy="291.68" r="2.6" fill="#6366F1"></circle><circle cx="388.07" cy="292.47" r="2.6" fill="#6366F1"></circle><circle cx="397.83" cy="291.27" r="2.6" fill="#6366F1"></circle><circle cx="417.37" cy="290.7" r="2.6" fill="#6366F1"></circle><circle cx="427.13" cy="292.91" r="2.6" fill="#6366F1"></circle><circle cx="436.9" cy="293.34" r="2.6" fill="#6366F1"></circle><circle cx="446.67" cy="290.78" r="2.6" fill="#6366F1"></circle><circle cx="456.43" cy="290.99" r="2.6" fill="#6366F1"></circle><circle cx="466.2" cy="291.6" r="2.6" fill="#6366F1"></circle><circle cx="475.97" cy="292.29" r="2.6" fill="#6366F1"></circle><circle cx="485.73" cy="292.81" r="2.6" fill="#6366F1"></circle><circle cx="495.5" cy="293.37" r="2.6" fill="#6366F1"></circle><circle cx="515.03" cy="293.66" r="2.6" fill="#6366F1"></circle><circle cx="524.8" cy="293.82" r="2.6" fill="#6366F1"></circle><circle cx="534.57" cy="292.24" r="2.6" fill="#6366F1"></circle><circle cx="544.33" cy="291.11" r="2.6" fill="#6366F1"></circle><circle cx="554.1" cy="291.02" r="2.6" fill="#6366F1"></circle><circle cx="563.87" cy="284.88" r="2.6" fill="#6366F1"></circle><circle cx="573.63" cy="291.48" r="2.6" fill="#6366F1"></circle><circle cx="583.4" cy="288.67" r="2.6" fill="#6366F1"></circle><circle cx="593.17" cy="290.47" r="2.6" fill="#6366F1"></circle><circle cx="602.93" cy="288.84" r="2.6" fill="#6366F1"></circle><circle cx="612.7" cy="291.75" r="2.6" fill="#6366F1"></circle><circle cx="632.23" cy="293.31" r="2.6" fill="#6366F1"></circle><circle cx="642" cy="293.99" r="2.6" fill="#6366F1"></circle><polyline fill="none" stroke="#A371F7" stroke-width="2.4" stroke-linejoin="round" stroke-linecap="round" points="56,234.02 65.77,244.52 75.53,248 85.3,231.43 95.07,238.89 104.83,249.23 114.6,244.46 124.37,237.54 134.13,240.86 143.9,247.44 153.67,240.79 163.43,238.23 173.2,242.67 182.97,225.79 192.73,243.99 202.5,238.04 212.27,246.87 222.03,247.42 231.8,226.74 241.57,239.47 251.33,211.96 261.1,246.23 270.87,249.04 280.63,237.01 290.4,234.98 300.17,238.5 309.93,240.35 319.7,237.84 329.47,246.71 339.23,242.24 349,238.34 358.77,244.61 368.53,248.91 378.3,226.53 388.07,244.07 397.83,245.89 417.37,225.3 427.13,246.26 436.9,237.6 456.43,238.19 466.2,247.14 475.97,247.58 485.73,243.98 495.5,241.42 505.27,243.75 515.03,244.26 524.8,242.78 534.57,233.78 544.33,238.08 554.1,239.3 563.87,245.03 573.63,240.96 583.4,244.05 593.17,243 612.7,244.69 632.23,239.74"></polyline><circle cx="56" cy="234.02" r="2.6" fill="#A371F7"></circle><circle cx="65.77" cy="244.52" r="2.6" fill="#A371F7"></circle><circle cx="75.53" cy="248" r="2.6" fill="#A371F7"></circle><circle cx="85.3" cy="231.43" r="2.6" fill="#A371F7"></circle><circle cx="95.07" cy="238.89" r="2.6" fill="#A371F7"></circle><circle cx="104.83" cy="249.23" r="2.6" fill="#A371F7"></circle><circle cx="114.6" cy="244.46" r="2.6" fill="#A371F7"></circle><circle cx="124.37" cy="237.54" r="2.6" fill="#A371F7"></circle><circle cx="134.13" cy="240.86" r="2.6" fill="#A371F7"></circle><circle cx="143.9" cy="247.44" r="2.6" fill="#A371F7"></circle><circle cx="153.67" cy="240.79" r="2.6" fill="#A371F7"></circle><circle cx="163.43" cy="238.23" r="2.6" fill="#A371F7"></circle><circle cx="173.2" cy="242.67" r="2.6" fill="#A371F7"></circle><circle cx="182.97" cy="225.79" r="2.6" fill="#A371F7"></circle><circle cx="192.73" cy="243.99" r="2.6" fill="#A371F7"></circle><circle cx="202.5" cy="238.04" r="2.6" fill="#A371F7"></circle><circle cx="212.27" cy="246.87" r="2.6" fill="#A371F7"></circle><circle cx="222.03" cy="247.42" r="2.6" fill="#A371F7"></circle><circle cx="231.8" cy="226.74" r="2.6" fill="#A371F7"></circle><circle cx="241.57" cy="239.47" r="2.6" fill="#A371F7"></circle><circle cx="251.33" cy="211.96" r="2.6" fill="#A371F7"></circle><circle cx="261.1" cy="246.23" r="2.6" fill="#A371F7"></circle><circle cx="270.87" cy="249.04" r="2.6" fill="#A371F7"></circle><circle cx="280.63" cy="237.01" r="2.6" fill="#A371F7"></circle><circle cx="290.4" cy="234.98" r="2.6" fill="#A371F7"></circle><circle cx="300.17" cy="238.5" r="2.6" fill="#A371F7"></circle><circle cx="309.93" cy="240.35" r="2.6" fill="#A371F7"></circle><circle cx="319.7" cy="237.84" r="2.6" fill="#A371F7"></circle><circle cx="329.47" cy="246.71" r="2.6" fill="#A371F7"></circle><circle cx="339.23" cy="242.24" r="2.6" fill="#A371F7"></circle><circle cx="349" cy="238.34" r="2.6" fill="#A371F7"></circle><circle cx="358.77" cy="244.61" r="2.6" fill="#A371F7"></circle><circle cx="368.53" cy="248.91" r="2.6" fill="#A371F7"></circle><circle cx="378.3" cy="226.53" r="2.6" fill="#A371F7"></circle><circle cx="388.07" cy="244.07" r="2.6" fill="#A371F7"></circle><circle cx="397.83" cy="245.89" r="2.6" fill="#A371F7"></circle><circle cx="417.37" cy="225.3" r="2.6" fill="#A371F7"></circle><circle cx="427.13" cy="246.26" r="2.6" fill="#A371F7"></circle><circle cx="436.9" cy="237.6" r="2.6" fill="#A371F7"></circle><circle cx="456.43" cy="238.19" r="2.6" fill="#A371F7"></circle><circle cx="466.2" cy="247.14" r="2.6" fill="#A371F7"></circle><circle cx="475.97" cy="247.58" r="2.6" fill="#A371F7"></circle><circle cx="485.73" cy="243.98" r="2.6" fill="#A371F7"></circle><circle cx="495.5" cy="241.42" r="2.6" fill="#A371F7"></circle><circle cx="505.27" cy="243.75" r="2.6" fill="#A371F7"></circle><circle cx="515.03" cy="244.26" r="2.6" fill="#A371F7"></circle><circle cx="524.8" cy="242.78" r="2.6" fill="#A371F7"></circle><circle cx="534.57" cy="233.78" r="2.6" fill="#A371F7"></circle><circle cx="544.33" cy="238.08" r="2.6" fill="#A371F7"></circle><circle cx="554.1" cy="239.3" r="2.6" fill="#A371F7"></circle><circle cx="563.87" cy="245.03" r="2.6" fill="#A371F7"></circle><circle cx="573.63" cy="240.96" r="2.6" fill="#A371F7"></circle><circle cx="583.4" cy="244.05" r="2.6" fill="#A371F7"></circle><circle cx="593.17" cy="243" r="2.6" fill="#A371F7"></circle><circle cx="612.7" cy="244.69" r="2.6" fill="#A371F7"></circle><circle cx="632.23" cy="239.74" r="2.6" fill="#A371F7"></circle><polyline fill="none" stroke="#F0A23B" stroke-width="2.4" stroke-linejoin="round" stroke-linecap="round" points="56,176.15 65.77,166.37 75.53,95.06 85.3,183.78 95.07,178.88 104.83,182.02 114.6,170.24 124.37,169.9 134.13,166.14 143.9,173.66 153.67,166.11 163.43,167.02 173.2,169.09 182.97,176.53 192.73,161.02 202.5,174.97 212.27,168.38 222.03,173 231.8,185.38 241.57,176.24 251.33,181.63 261.1,178.09 270.87,118.27 280.63,178.67 290.4,180.72 300.17,177.62 309.93,179.5 319.7,151.31 329.47,176.94 339.23,159.91 349,179.22 358.77,151.49 368.53,180.65 378.3,179.71 388.07,79.16 397.83,99.74 407.6,178.4 417.37,180.3 427.13,180.24 436.9,176.88 446.67,178.65 456.43,183.45 466.2,182.56 475.97,133.59 485.73,178.99 495.5,179.14 505.27,119.51 515.03,175.85 524.8,154.88 534.57,181.28 544.33,178.3 554.1,178.34 563.87,151.77 573.63,137.32 583.4,181.99 593.17,180.58 602.93,182.99 612.7,178.09 632.23,181.47 642,177.75"></polyline><circle cx="56" cy="176.15" r="2.6" fill="#F0A23B"></circle><circle cx="65.77" cy="166.37" r="2.6" fill="#F0A23B"></circle><circle cx="75.53" cy="95.06" r="2.6" fill="#F0A23B"></circle><circle cx="85.3" cy="183.78" r="2.6" fill="#F0A23B"></circle><circle cx="95.07" cy="178.88" r="2.6" fill="#F0A23B"></circle><circle cx="104.83" cy="182.02" r="2.6" fill="#F0A23B"></circle><circle cx="114.6" cy="170.24" r="2.6" fill="#F0A23B"></circle><circle cx="124.37" cy="169.9" r="2.6" fill="#F0A23B"></circle><circle cx="134.13" cy="166.14" r="2.6" fill="#F0A23B"></circle><circle cx="143.9" cy="173.66" r="2.6" fill="#F0A23B"></circle><circle cx="153.67" cy="166.11" r="2.6" fill="#F0A23B"></circle><circle cx="163.43" cy="167.02" r="2.6" fill="#F0A23B"></circle><circle cx="173.2" cy="169.09" r="2.6" fill="#F0A23B"></circle><circle cx="182.97" cy="176.53" r="2.6" fill="#F0A23B"></circle><circle cx="192.73" cy="161.02" r="2.6" fill="#F0A23B"></circle><circle cx="202.5" cy="174.97" r="2.6" fill="#F0A23B"></circle><circle cx="212.27" cy="168.38" r="2.6" fill="#F0A23B"></circle><circle cx="222.03" cy="173" r="2.6" fill="#F0A23B"></circle><circle cx="231.8" cy="185.38" r="2.6" fill="#F0A23B"></circle><circle cx="241.57" cy="176.24" r="2.6" fill="#F0A23B"></circle><circle cx="251.33" cy="181.63" r="2.6" fill="#F0A23B"></circle><circle cx="261.1" cy="178.09" r="2.6" fill="#F0A23B"></circle><circle cx="270.87" cy="118.27" r="2.6" fill="#F0A23B"></circle><circle cx="280.63" cy="178.67" r="2.6" fill="#F0A23B"></circle><circle cx="290.4" cy="180.72" r="2.6" fill="#F0A23B"></circle><circle cx="300.17" cy="177.62" r="2.6" fill="#F0A23B"></circle><circle cx="309.93" cy="179.5" r="2.6" fill="#F0A23B"></circle><circle cx="319.7" cy="151.31" r="2.6" fill="#F0A23B"></circle><circle cx="329.47" cy="176.94" r="2.6" fill="#F0A23B"></circle><circle cx="339.23" cy="159.91" r="2.6" fill="#F0A23B"></circle><circle cx="349" cy="179.22" r="2.6" fill="#F0A23B"></circle><circle cx="358.77" cy="151.49" r="2.6" fill="#F0A23B"></circle><circle cx="368.53" cy="180.65" r="2.6" fill="#F0A23B"></circle><circle cx="378.3" cy="179.71" r="2.6" fill="#F0A23B"></circle><circle cx="388.07" cy="79.16" r="2.6" fill="#F0A23B"></circle><circle cx="397.83" cy="99.74" r="2.6" fill="#F0A23B"></circle><circle cx="407.6" cy="178.4" r="2.6" fill="#F0A23B"></circle><circle cx="417.37" cy="180.3" r="2.6" fill="#F0A23B"></circle><circle cx="427.13" cy="180.24" r="2.6" fill="#F0A23B"></circle><circle cx="436.9" cy="176.88" r="2.6" fill="#F0A23B"></circle><circle cx="446.67" cy="178.65" r="2.6" fill="#F0A23B"></circle><circle cx="456.43" cy="183.45" r="2.6" fill="#F0A23B"></circle><circle cx="466.2" cy="182.56" r="2.6" fill="#F0A23B"></circle><circle cx="475.97" cy="133.59" r="2.6" fill="#F0A23B"></circle><circle cx="485.73" cy="178.99" r="2.6" fill="#F0A23B"></circle><circle cx="495.5" cy="179.14" r="2.6" fill="#F0A23B"></circle><circle cx="505.27" cy="119.51" r="2.6" fill="#F0A23B"></circle><circle cx="515.03" cy="175.85" r="2.6" fill="#F0A23B"></circle><circle cx="524.8" cy="154.88" r="2.6" fill="#F0A23B"></circle><circle cx="534.57" cy="181.28" r="2.6" fill="#F0A23B"></circle><circle cx="544.33" cy="178.3" r="2.6" fill="#F0A23B"></circle><circle cx="554.1" cy="178.34" r="2.6" fill="#F0A23B"></circle><circle cx="563.87" cy="151.77" r="2.6" fill="#F0A23B"></circle><circle cx="573.63" cy="137.32" r="2.6" fill="#F0A23B"></circle><circle cx="583.4" cy="181.99" r="2.6" fill="#F0A23B"></circle><circle cx="593.17" cy="180.58" r="2.6" fill="#F0A23B"></circle><circle cx="602.93" cy="182.99" r="2.6" fill="#F0A23B"></circle><circle cx="612.7" cy="178.09" r="2.6" fill="#F0A23B"></circle><circle cx="632.23" cy="181.47" r="2.6" fill="#F0A23B"></circle><circle cx="642" cy="177.75" r="2.6" fill="#F0A23B"></circle><polyline fill="none" stroke="#1F9CF0" stroke-width="2.4" stroke-linejoin="round" stroke-linecap="round" points="56,175.5 65.77,176.2 75.53,132.71 85.3,178.27 95.07,172 104.83,174.38 114.6,174.4 124.37,170.88 134.13,173.93 143.9,173.54 153.67,100.75 163.43,168.69 173.2,173.59 182.97,174.01 192.73,167.31 202.5,117.5 212.27,166.02 222.03,174.07 231.8,141.6 241.57,169.05 251.33,167.14 261.1,174.48 270.87,150.94 280.63,171.01 290.4,52.43 300.17,157.26 309.93,171.51 319.7,136.29 329.47,169.79 339.23,106.45 349,170.47 358.77,175.76 368.53,174.01 378.3,174.06 388.07,151.2 397.83,173.78 407.6,169.88 417.37,177.61 427.13,137.18 436.9,114.15 446.67,168.74 456.43,168.47 466.2,130.46 475.97,174.44 485.73,175.01 495.5,171.26 505.27,176.81 515.03,171.37 524.8,161.31 534.57,135.44 544.33,169.24 554.1,176.14 563.87,170.75 573.63,171.27 583.4,166.35 593.17,173.15 602.93,132.18 612.7,168.56 622.47,155.42 632.23,170.02 642,169.75"></polyline><circle cx="56" cy="175.5" r="2.6" fill="#1F9CF0"></circle><circle cx="65.77" cy="176.2" r="2.6" fill="#1F9CF0"></circle><circle cx="75.53" cy="132.71" r="2.6" fill="#1F9CF0"></circle><circle cx="85.3" cy="178.27" r="2.6" fill="#1F9CF0"></circle><circle cx="95.07" cy="172" r="2.6" fill="#1F9CF0"></circle><circle cx="104.83" cy="174.38" r="2.6" fill="#1F9CF0"></circle><circle cx="114.6" cy="174.4" r="2.6" fill="#1F9CF0"></circle><circle cx="124.37" cy="170.88" r="2.6" fill="#1F9CF0"></circle><circle cx="134.13" cy="173.93" r="2.6" fill="#1F9CF0"></circle><circle cx="143.9" cy="173.54" r="2.6" fill="#1F9CF0"></circle><circle cx="153.67" cy="100.75" r="2.6" fill="#1F9CF0"></circle><circle cx="163.43" cy="168.69" r="2.6" fill="#1F9CF0"></circle><circle cx="173.2" cy="173.59" r="2.6" fill="#1F9CF0"></circle><circle cx="182.97" cy="174.01" r="2.6" fill="#1F9CF0"></circle><circle cx="192.73" cy="167.31" r="2.6" fill="#1F9CF0"></circle><circle cx="202.5" cy="117.5" r="2.6" fill="#1F9CF0"></circle><circle cx="212.27" cy="166.02" r="2.6" fill="#1F9CF0"></circle><circle cx="222.03" cy="174.07" r="2.6" fill="#1F9CF0"></circle><circle cx="231.8" cy="141.6" r="2.6" fill="#1F9CF0"></circle><circle cx="241.57" cy="169.05" r="2.6" fill="#1F9CF0"></circle><circle cx="251.33" cy="167.14" r="2.6" fill="#1F9CF0"></circle><circle cx="261.1" cy="174.48" r="2.6" fill="#1F9CF0"></circle><circle cx="270.87" cy="150.94" r="2.6" fill="#1F9CF0"></circle><circle cx="280.63" cy="171.01" r="2.6" fill="#1F9CF0"></circle><circle cx="290.4" cy="52.43" r="2.6" fill="#1F9CF0"></circle><circle cx="300.17" cy="157.26" r="2.6" fill="#1F9CF0"></circle><circle cx="309.93" cy="171.51" r="2.6" fill="#1F9CF0"></circle><circle cx="319.7" cy="136.29" r="2.6" fill="#1F9CF0"></circle><circle cx="329.47" cy="169.79" r="2.6" fill="#1F9CF0"></circle><circle cx="339.23" cy="106.45" r="2.6" fill="#1F9CF0"></circle><circle cx="349" cy="170.47" r="2.6" fill="#1F9CF0"></circle><circle cx="358.77" cy="175.76" r="2.6" fill="#1F9CF0"></circle><circle cx="368.53" cy="174.01" r="2.6" fill="#1F9CF0"></circle><circle cx="378.3" cy="174.06" r="2.6" fill="#1F9CF0"></circle><circle cx="388.07" cy="151.2" r="2.6" fill="#1F9CF0"></circle><circle cx="397.83" cy="173.78" r="2.6" fill="#1F9CF0"></circle><circle cx="407.6" cy="169.88" r="2.6" fill="#1F9CF0"></circle><circle cx="417.37" cy="177.61" r="2.6" fill="#1F9CF0"></circle><circle cx="427.13" cy="137.18" r="2.6" fill="#1F9CF0"></circle><circle cx="436.9" cy="114.15" r="2.6" fill="#1F9CF0"></circle><circle cx="446.67" cy="168.74" r="2.6" fill="#1F9CF0"></circle><circle cx="456.43" cy="168.47" r="2.6" fill="#1F9CF0"></circle><circle cx="466.2" cy="130.46" r="2.6" fill="#1F9CF0"></circle><circle cx="475.97" cy="174.44" r="2.6" fill="#1F9CF0"></circle><circle cx="485.73" cy="175.01" r="2.6" fill="#1F9CF0"></circle><circle cx="495.5" cy="171.26" r="2.6" fill="#1F9CF0"></circle><circle cx="505.27" cy="176.81" r="2.6" fill="#1F9CF0"></circle><circle cx="515.03" cy="171.37" r="2.6" fill="#1F9CF0"></circle><circle cx="524.8" cy="161.31" r="2.6" fill="#1F9CF0"></circle><circle cx="534.57" cy="135.44" r="2.6" fill="#1F9CF0"></circle><circle cx="544.33" cy="169.24" r="2.6" fill="#1F9CF0"></circle><circle cx="554.1" cy="176.14" r="2.6" fill="#1F9CF0"></circle><circle cx="563.87" cy="170.75" r="2.6" fill="#1F9CF0"></circle><circle cx="573.63" cy="171.27" r="2.6" fill="#1F9CF0"></circle><circle cx="583.4" cy="166.35" r="2.6" fill="#1F9CF0"></circle><circle cx="593.17" cy="173.15" r="2.6" fill="#1F9CF0"></circle><circle cx="602.93" cy="132.18" r="2.6" fill="#1F9CF0"></circle><circle cx="612.7" cy="168.56" r="2.6" fill="#1F9CF0"></circle><circle cx="622.47" cy="155.42" r="2.6" fill="#1F9CF0"></circle><circle cx="632.23" cy="170.02" r="2.6" fill="#1F9CF0"></circle><circle cx="642" cy="169.75" r="2.6" fill="#1F9CF0"></circle><line x1="656" y1="27" x2="672" y2="27" stroke="#6366F1" stroke-width="3" stroke-linecap="round"></line><text x="678" y="30" font-size="11" font-weight="400" text-anchor="start" fill="#1f2328">deepseek</text><line x1="656" y1="47" x2="672" y2="47" stroke="#A371F7" stroke-width="3" stroke-linecap="round"></line><text x="678" y="50" font-size="11" font-weight="400" text-anchor="start" fill="#1f2328">llama</text><line x1="656" y1="67" x2="672" y2="67" stroke="#F0A23B" stroke-width="3" stroke-linecap="round"></line><text x="678" y="70" font-size="11" font-weight="400" text-anchor="start" fill="#1f2328">mistral</text><line x1="656" y1="87" x2="672" y2="87" stroke="#1F9CF0" stroke-width="3" stroke-linecap="round"></line><text x="678" y="90" font-size="11" font-weight="400" text-anchor="start" fill="#1f2328">openai</text></svg>
