<svg xmlns="http://www.w3.org/2000/svg" viewBox="0 0 760 348" width="760" height="348" role="img" aria-label="Cost per test by provider over runs — mistral highest, deepseek lowest" font-family="-apple-system,BlinkMacSystemFont,'Segoe UI',system-ui,sans-serif"><line x1="56" y1="306" x2="642" y2="306" stroke="#30363d" stroke-width="1"></line><text x="46" y="310" font-size="9.5" font-weight="400" text-anchor="end" fill="#8b949e" font-family="ui-monospace,SFMono-Regular,Menlo,monospace">$0.000</text><line x1="56" y1="235" x2="642" y2="235" stroke="#30363d" stroke-width="1"></line><text x="46" y="239" font-size="9.5" font-weight="400" text-anchor="end" fill="#8b949e" font-family="ui-monospace,SFMono-Regular,Menlo,monospace">$0.039</text><line x1="56" y1="164" x2="642" y2="164" stroke="#30363d" stroke-width="1"></line><text x="46" y="168" font-size="9.5" font-weight="400" text-anchor="end" fill="#8b949e" font-family="ui-monospace,SFMono-Regular,Menlo,monospace">$0.079</text><line x1="56" y1="93" x2="642" y2="93" stroke="#30363d" stroke-width="1"></line><text x="46" y="97" font-size="9.5" font-weight="400" text-anchor="end" fill="#8b949e" font-family="ui-monospace,SFMono-Regular,Menlo,monospace">$0.118</text><line x1="56" y1="22" x2="642" y2="22" stroke="#30363d" stroke-width="1"></line><text x="46" y="26" font-size="9.5" font-weight="400" text-anchor="end" fill="#8b949e" font-family="ui-monospace,SFMono-Regular,Menlo,monospace">$0.158</text><text x="56" y="324" font-size="9.5" font-weight="400" text-anchor="middle" fill="#8b949e" font-family="ui-monospace,SFMono-Regular,Menlo,monospace">06/06</text><text x="112.19" y="324" font-size="9.5" font-weight="400" text-anchor="middle" fill="#8b949e" font-family="ui-monospace,SFMono-Regular,Menlo,monospace">06/08</text><text x="168.38" y="324" font-size="9.5" font-weight="400" text-anchor="middle" fill="#8b949e" font-family="ui-monospace,SFMono-Regular,Menlo,monospace">06/09</text><text x="224.58" y="324" font-size="9.5" font-weight="400" text-anchor="middle" fill="#8b949e" font-family="ui-monospace,SFMono-Regular,Menlo,monospace">06/10</text><text x="280.77" y="324" font-size="9.5" font-weight="400" text-anchor="middle" fill="#8b949e" font-family="ui-monospace,SFMono-Regular,Menlo,monospace">06/14</text><text x="336.96" y="324" font-size="9.5" font-weight="400" text-anchor="middle" fill="#8b949e" font-family="ui-monospace,SFMono-Regular,Menlo,monospace">06/15</text><text x="393.15" y="324" font-size="9.5" font-weight="400" text-anchor="middle" fill="#8b949e" font-family="ui-monospace,SFMono-Regular,Menlo,monospace">06/16</text><text x="449.34" y="324" font-size="9.5" font-weight="400" text-anchor="middle" fill="#8b949e" font-family="ui-monospace,SFMono-Regular,Menlo,monospace">06/18</text><text x="505.53" y="324" font-size="9.5" font-weight="400" text-anchor="middle" fill="#8b949e" font-family="ui-monospace,SFMono-Regular,Menlo,monospace">06/20</text><text x="561.73" y="324" font-size="9.5" font-weight="400" text-anchor="middle" fill="#8b949e" font-family="ui-monospace,SFMono-Regular,Menlo,monospace">06/22</text><text x="617.92" y="324" font-size="9.5" font-weight="400" text-anchor="middle" fill="#8b949e" font-family="ui-monospace,SFMono-Regular,Menlo,monospace">06/23</text><text x="642" y="324" font-size="9.5" font-weight="400" text-anchor="middle" fill="#8b949e" font-family="ui-monospace,SFMono-Regular,Menlo,monospace">06/24</text><polyline fill="none" stroke="#6366F1" stroke-width="2.4" stroke-linejoin="round" stroke-linecap="round" points="120.22,291.99 128.25,292.07 136.27,292.82 144.3,291.48 152.33,291.75 160.36,285.29 168.38,293.05 176.41,290.23 184.44,290.29 192.47,289.78 200.49,291.61 208.52,290.27 216.55,286.66 224.58,290.55 232.6,286.99 240.63,293.02 248.66,290.61 256.68,286.59 264.71,283.56 272.74,290.63 280.77,289.42 288.79,292.33 296.82,288.36 304.85,284.88 312.88,291.34 320.9,290.13 328.93,291.01 336.96,289.68 353.01,289.04 361.04,291.5 369.07,291.97 377.1,289.14 385.12,289.37 393.15,290.04 401.18,290.81 409.21,291.39 417.23,292 433.29,292.33 441.32,292.51 449.34,290.75 457.37,289.5 465.4,289.4 473.42,282.59 481.45,289.91 489.48,286.79 497.51,288.79 505.53,286.98 513.56,290.22 521.59,291.94 529.62,292.7 537.64,281.08 545.67,292.31 553.7,290.28 561.73,286.5 569.75,289 577.78,289.95 585.81,291.41 593.84,290.81 601.86,291 609.89,290.42 617.92,289.99 625.95,284.38 633.97,292.31 642,291.62"></polyline><circle cx="120.22" cy="291.99" r="2.6" fill="#6366F1"></circle><circle cx="128.25" cy="292.07" r="2.6" fill="#6366F1"></circle><circle cx="136.27" cy="292.82" r="2.6" fill="#6366F1"></circle><circle cx="144.3" cy="291.48" r="2.6" fill="#6366F1"></circle><circle cx="152.33" cy="291.75" r="2.6" fill="#6366F1"></circle><circle cx="160.36" cy="285.29" r="2.6" fill="#6366F1"></circle><circle cx="168.38" cy="293.05" r="2.6" fill="#6366F1"></circle><circle cx="176.41" cy="290.23" r="2.6" fill="#6366F1"></circle><circle cx="184.44" cy="290.29" r="2.6" fill="#6366F1"></circle><circle cx="192.47" cy="289.78" r="2.6" fill="#6366F1"></circle><circle cx="200.49" cy="291.61" r="2.6" fill="#6366F1"></circle><circle cx="208.52" cy="290.27" r="2.6" fill="#6366F1"></circle><circle cx="216.55" cy="286.66" r="2.6" fill="#6366F1"></circle><circle cx="224.58" cy="290.55" r="2.6" fill="#6366F1"></circle><circle cx="232.6" cy="286.99" r="2.6" fill="#6366F1"></circle><circle cx="240.63" cy="293.02" r="2.6" fill="#6366F1"></circle><circle cx="248.66" cy="290.61" r="2.6" fill="#6366F1"></circle><circle cx="256.68" cy="286.59" r="2.6" fill="#6366F1"></circle><circle cx="264.71" cy="283.56" r="2.6" fill="#6366F1"></circle><circle cx="272.74" cy="290.63" r="2.6" fill="#6366F1"></circle><circle cx="280.77" cy="289.42" r="2.6" fill="#6366F1"></circle><circle cx="288.79" cy="292.33" r="2.6" fill="#6366F1"></circle><circle cx="296.82" cy="288.36" r="2.6" fill="#6366F1"></circle><circle cx="304.85" cy="284.88" r="2.6" fill="#6366F1"></circle><circle cx="312.88" cy="291.34" r="2.6" fill="#6366F1"></circle><circle cx="320.9" cy="290.13" r="2.6" fill="#6366F1"></circle><circle cx="328.93" cy="291.01" r="2.6" fill="#6366F1"></circle><circle cx="336.96" cy="289.68" r="2.6" fill="#6366F1"></circle><circle cx="353.01" cy="289.04" r="2.6" fill="#6366F1"></circle><circle cx="361.04" cy="291.5" r="2.6" fill="#6366F1"></circle><circle cx="369.07" cy="291.97" r="2.6" fill="#6366F1"></circle><circle cx="377.1" cy="289.14" r="2.6" fill="#6366F1"></circle><circle cx="385.12" cy="289.37" r="2.6" fill="#6366F1"></circle><circle cx="393.15" cy="290.04" r="2.6" fill="#6366F1"></circle><circle cx="401.18" cy="290.81" r="2.6" fill="#6366F1"></circle><circle cx="409.21" cy="291.39" r="2.6" fill="#6366F1"></circle><circle cx="417.23" cy="292" r="2.6" fill="#6366F1"></circle><circle cx="433.29" cy="292.33" r="2.6" fill="#6366F1"></circle><circle cx="441.32" cy="292.51" r="2.6" fill="#6366F1"></circle><circle cx="449.34" cy="290.75" r="2.6" fill="#6366F1"></circle><circle cx="457.37" cy="289.5" r="2.6" fill="#6366F1"></circle><circle cx="465.4" cy="289.4" r="2.6" fill="#6366F1"></circle><circle cx="473.42" cy="282.59" r="2.6" fill="#6366F1"></circle><circle cx="481.45" cy="289.91" r="2.6" fill="#6366F1"></circle><circle cx="489.48" cy="286.79" r="2.6" fill="#6366F1"></circle><circle cx="497.51" cy="288.79" r="2.6" fill="#6366F1"></circle><circle cx="505.53" cy="286.98" r="2.6" fill="#6366F1"></circle><circle cx="513.56" cy="290.22" r="2.6" fill="#6366F1"></circle><circle cx="521.59" cy="291.94" r="2.6" fill="#6366F1"></circle><circle cx="529.62" cy="292.7" r="2.6" fill="#6366F1"></circle><circle cx="537.64" cy="281.08" r="2.6" fill="#6366F1"></circle><circle cx="545.67" cy="292.31" r="2.6" fill="#6366F1"></circle><circle cx="553.7" cy="290.28" r="2.6" fill="#6366F1"></circle><circle cx="561.73" cy="286.5" r="2.6" fill="#6366F1"></circle><circle cx="569.75" cy="289" r="2.6" fill="#6366F1"></circle><circle cx="577.78" cy="289.95" r="2.6" fill="#6366F1"></circle><circle cx="585.81" cy="291.41" r="2.6" fill="#6366F1"></circle><circle cx="593.84" cy="290.81" r="2.6" fill="#6366F1"></circle><circle cx="601.86" cy="291" r="2.6" fill="#6366F1"></circle><circle cx="609.89" cy="290.42" r="2.6" fill="#6366F1"></circle><circle cx="617.92" cy="289.99" r="2.6" fill="#6366F1"></circle><circle cx="625.95" cy="284.38" r="2.6" fill="#6366F1"></circle><circle cx="633.97" cy="292.31" r="2.6" fill="#6366F1"></circle><circle cx="642" cy="291.62" r="2.6" fill="#6366F1"></circle><polyline fill="none" stroke="#A371F7" stroke-width="2.4" stroke-linejoin="round" stroke-linecap="round" points="56,226.25 64.03,237.88 72.05,241.73 80.08,223.38 88.11,231.64 96.14,243.09 104.16,237.81 112.19,230.14 120.22,233.83 128.25,241.12 136.27,233.75 144.3,230.9 152.33,235.83 160.36,217.13 168.38,237.29 176.41,230.7 184.44,240.49 192.47,241.09 200.49,218.17 208.52,232.28 216.55,201.8 224.58,239.78 232.6,242.88 240.63,229.56 248.66,227.31 256.68,231.21 264.71,233.26 272.74,230.48 280.77,240.31 288.79,235.36 296.82,231.03 304.85,237.98 312.88,242.74 320.9,217.94 328.93,237.38 336.96,239.39 353.01,216.58 361.04,239.81 369.07,230.21 385.12,230.86 393.15,240.78 401.18,241.27 409.21,237.28 417.23,234.45 425.26,237.03 433.29,237.6 441.32,235.95 449.34,225.98 457.37,230.74 465.4,232.09 473.42,238.44 481.45,233.93 489.48,237.36 497.51,236.2 513.56,238.07 521.59,232.58 537.64,227.45 545.67,236.55 553.7,232.02 561.73,240.47 569.75,213.84 577.78,238.7 585.81,238.88 593.84,241.18 601.86,233.39 609.89,234.63 617.92,239.11 633.97,240.21 642,229.42"></polyline><circle cx="56" cy="226.25" r="2.6" fill="#A371F7"></circle><circle cx="64.03" cy="237.88" r="2.6" fill="#A371F7"></circle><circle cx="72.05" cy="241.73" r="2.6" fill="#A371F7"></circle><circle cx="80.08" cy="223.38" r="2.6" fill="#A371F7"></circle><circle cx="88.11" cy="231.64" r="2.6" fill="#A371F7"></circle><circle cx="96.14" cy="243.09" r="2.6" fill="#A371F7"></circle><circle cx="104.16" cy="237.81" r="2.6" fill="#A371F7"></circle><circle cx="112.19" cy="230.14" r="2.6" fill="#A371F7"></circle><circle cx="120.22" cy="233.83" r="2.6" fill="#A371F7"></circle><circle cx="128.25" cy="241.12" r="2.6" fill="#A371F7"></circle><circle cx="136.27" cy="233.75" r="2.6" fill="#A371F7"></circle><circle cx="144.3" cy="230.9" r="2.6" fill="#A371F7"></circle><circle cx="152.33" cy="235.83" r="2.6" fill="#A371F7"></circle><circle cx="160.36" cy="217.13" r="2.6" fill="#A371F7"></circle><circle cx="168.38" cy="237.29" r="2.6" fill="#A371F7"></circle><circle cx="176.41" cy="230.7" r="2.6" fill="#A371F7"></circle><circle cx="184.44" cy="240.49" r="2.6" fill="#A371F7"></circle><circle cx="192.47" cy="241.09" r="2.6" fill="#A371F7"></circle><circle cx="200.49" cy="218.17" r="2.6" fill="#A371F7"></circle><circle cx="208.52" cy="232.28" r="2.6" fill="#A371F7"></circle><circle cx="216.55" cy="201.8" r="2.6" fill="#A371F7"></circle><circle cx="224.58" cy="239.78" r="2.6" fill="#A371F7"></circle><circle cx="232.6" cy="242.88" r="2.6" fill="#A371F7"></circle><circle cx="240.63" cy="229.56" r="2.6" fill="#A371F7"></circle><circle cx="248.66" cy="227.31" r="2.6" fill="#A371F7"></circle><circle cx="256.68" cy="231.21" r="2.6" fill="#A371F7"></circle><circle cx="264.71" cy="233.26" r="2.6" fill="#A371F7"></circle><circle cx="272.74" cy="230.48" r="2.6" fill="#A371F7"></circle><circle cx="280.77" cy="240.31" r="2.6" fill="#A371F7"></circle><circle cx="288.79" cy="235.36" r="2.6" fill="#A371F7"></circle><circle cx="296.82" cy="231.03" r="2.6" fill="#A371F7"></circle><circle cx="304.85" cy="237.98" r="2.6" fill="#A371F7"></circle><circle cx="312.88" cy="242.74" r="2.6" fill="#A371F7"></circle><circle cx="320.9" cy="217.94" r="2.6" fill="#A371F7"></circle><circle cx="328.93" cy="237.38" r="2.6" fill="#A371F7"></circle><circle cx="336.96" cy="239.39" r="2.6" fill="#A371F7"></circle><circle cx="353.01" cy="216.58" r="2.6" fill="#A371F7"></circle><circle cx="361.04" cy="239.81" r="2.6" fill="#A371F7"></circle><circle cx="369.07" cy="230.21" r="2.6" fill="#A371F7"></circle><circle cx="385.12" cy="230.86" r="2.6" fill="#A371F7"></circle><circle cx="393.15" cy="240.78" r="2.6" fill="#A371F7"></circle><circle cx="401.18" cy="241.27" r="2.6" fill="#A371F7"></circle><circle cx="409.21" cy="237.28" r="2.6" fill="#A371F7"></circle><circle cx="417.23" cy="234.45" r="2.6" fill="#A371F7"></circle><circle cx="425.26" cy="237.03" r="2.6" fill="#A371F7"></circle><circle cx="433.29" cy="237.6" r="2.6" fill="#A371F7"></circle><circle cx="441.32" cy="235.95" r="2.6" fill="#A371F7"></circle><circle cx="449.34" cy="225.98" r="2.6" fill="#A371F7"></circle><circle cx="457.37" cy="230.74" r="2.6" fill="#A371F7"></circle><circle cx="465.4" cy="232.09" r="2.6" fill="#A371F7"></circle><circle cx="473.42" cy="238.44" r="2.6" fill="#A371F7"></circle><circle cx="481.45" cy="233.93" r="2.6" fill="#A371F7"></circle><circle cx="489.48" cy="237.36" r="2.6" fill="#A371F7"></circle><circle cx="497.51" cy="236.2" r="2.6" fill="#A371F7"></circle><circle cx="513.56" cy="238.07" r="2.6" fill="#A371F7"></circle><circle cx="521.59" cy="232.58" r="2.6" fill="#A371F7"></circle><circle cx="537.64" cy="227.45" r="2.6" fill="#A371F7"></circle><circle cx="545.67" cy="236.55" r="2.6" fill="#A371F7"></circle><circle cx="553.7" cy="232.02" r="2.6" fill="#A371F7"></circle><circle cx="561.73" cy="240.47" r="2.6" fill="#A371F7"></circle><circle cx="569.75" cy="213.84" r="2.6" fill="#A371F7"></circle><circle cx="577.78" cy="238.7" r="2.6" fill="#A371F7"></circle><circle cx="585.81" cy="238.88" r="2.6" fill="#A371F7"></circle><circle cx="593.84" cy="241.18" r="2.6" fill="#A371F7"></circle><circle cx="601.86" cy="233.39" r="2.6" fill="#A371F7"></circle><circle cx="609.89" cy="234.63" r="2.6" fill="#A371F7"></circle><circle cx="617.92" cy="239.11" r="2.6" fill="#A371F7"></circle><circle cx="633.97" cy="240.21" r="2.6" fill="#A371F7"></circle><circle cx="642" cy="229.42" r="2.6" fill="#A371F7"></circle><polyline fill="none" stroke="#F0A23B" stroke-width="2.4" stroke-linejoin="round" stroke-linecap="round" points="56,162.13 64.03,151.29 72.05,72.27 80.08,170.58 88.11,165.15 96.14,168.63 104.16,155.58 112.19,155.2 120.22,151.03 128.25,159.37 136.27,151 144.3,152 152.33,154.31 160.36,162.54 168.38,145.36 176.41,160.82 184.44,153.52 192.47,158.63 200.49,172.35 208.52,162.23 216.55,168.2 224.58,164.28 232.6,98 240.63,164.92 248.66,167.19 256.68,163.76 264.71,165.84 272.74,134.6 280.77,163 288.79,144.13 296.82,165.52 304.85,134.8 312.88,167.11 320.9,166.07 328.93,54.66 336.96,77.46 344.99,164.62 353.01,166.72 361.04,166.65 369.07,162.93 377.1,164.9 385.12,170.21 393.15,169.23 401.18,114.96 409.21,165.27 417.23,165.44 425.26,99.36 433.29,161.79 441.32,138.56 449.34,167.81 457.37,164.51 465.4,164.55 473.42,135.11 481.45,119.1 489.48,168.6 497.51,167.03 505.53,169.7 513.56,164.27 521.59,168.02 529.62,163.89 537.64,99.72 545.67,166.55 553.7,163.57 561.73,163.91 569.75,164.36 577.78,166.86 585.81,166.95 593.84,52.43 601.86,166.52 609.89,165.82 617.92,164.59 633.97,164.21 642,164.24"></polyline><circle cx="56" cy="162.13" r="2.6" fill="#F0A23B"></circle><circle cx="64.03" cy="151.29" r="2.6" fill="#F0A23B"></circle><circle cx="72.05" cy="72.27" r="2.6" fill="#F0A23B"></circle><circle cx="80.08" cy="170.58" r="2.6" fill="#F0A23B"></circle><circle cx="88.11" cy="165.15" r="2.6" fill="#F0A23B"></circle><circle cx="96.14" cy="168.63" r="2.6" fill="#F0A23B"></circle><circle cx="104.16" cy="155.58" r="2.6" fill="#F0A23B"></circle><circle cx="112.19" cy="155.2" r="2.6" fill="#F0A23B"></circle><circle cx="120.22" cy="151.03" r="2.6" fill="#F0A23B"></circle><circle cx="128.25" cy="159.37" r="2.6" fill="#F0A23B"></circle><circle cx="136.27" cy="151" r="2.6" fill="#F0A23B"></circle><circle cx="144.3" cy="152" r="2.6" fill="#F0A23B"></circle><circle cx="152.33" cy="154.31" r="2.6" fill="#F0A23B"></circle><circle cx="160.36" cy="162.54" r="2.6" fill="#F0A23B"></circle><circle cx="168.38" cy="145.36" r="2.6" fill="#F0A23B"></circle><circle cx="176.41" cy="160.82" r="2.6" fill="#F0A23B"></circle><circle cx="184.44" cy="153.52" r="2.6" fill="#F0A23B"></circle><circle cx="192.47" cy="158.63" r="2.6" fill="#F0A23B"></circle><circle cx="200.49" cy="172.35" r="2.6" fill="#F0A23B"></circle><circle cx="208.52" cy="162.23" r="2.6" fill="#F0A23B"></circle><circle cx="216.55" cy="168.2" r="2.6" fill="#F0A23B"></circle><circle cx="224.58" cy="164.28" r="2.6" fill="#F0A23B"></circle><circle cx="232.6" cy="98" r="2.6" fill="#F0A23B"></circle><circle cx="240.63" cy="164.92" r="2.6" fill="#F0A23B"></circle><circle cx="248.66" cy="167.19" r="2.6" fill="#F0A23B"></circle><circle cx="256.68" cy="163.76" r="2.6" fill="#F0A23B"></circle><circle cx="264.71" cy="165.84" r="2.6" fill="#F0A23B"></circle><circle cx="272.74" cy="134.6" r="2.6" fill="#F0A23B"></circle><circle cx="280.77" cy="163" r="2.6" fill="#F0A23B"></circle><circle cx="288.79" cy="144.13" r="2.6" fill="#F0A23B"></circle><circle cx="296.82" cy="165.52" r="2.6" fill="#F0A23B"></circle><circle cx="304.85" cy="134.8" r="2.6" fill="#F0A23B"></circle><circle cx="312.88" cy="167.11" r="2.6" fill="#F0A23B"></circle><circle cx="320.9" cy="166.07" r="2.6" fill="#F0A23B"></circle><circle cx="328.93" cy="54.66" r="2.6" fill="#F0A23B"></circle><circle cx="336.96" cy="77.46" r="2.6" fill="#F0A23B"></circle><circle cx="344.99" cy="164.62" r="2.6" fill="#F0A23B"></circle><circle cx="353.01" cy="166.72" r="2.6" fill="#F0A23B"></circle><circle cx="361.04" cy="166.65" r="2.6" fill="#F0A23B"></circle><circle cx="369.07" cy="162.93" r="2.6" fill="#F0A23B"></circle><circle cx="377.1" cy="164.9" r="2.6" fill="#F0A23B"></circle><circle cx="385.12" cy="170.21" r="2.6" fill="#F0A23B"></circle><circle cx="393.15" cy="169.23" r="2.6" fill="#F0A23B"></circle><circle cx="401.18" cy="114.96" r="2.6" fill="#F0A23B"></circle><circle cx="409.21" cy="165.27" r="2.6" fill="#F0A23B"></circle><circle cx="417.23" cy="165.44" r="2.6" fill="#F0A23B"></circle><circle cx="425.26" cy="99.36" r="2.6" fill="#F0A23B"></circle><circle cx="433.29" cy="161.79" r="2.6" fill="#F0A23B"></circle><circle cx="441.32" cy="138.56" r="2.6" fill="#F0A23B"></circle><circle cx="449.34" cy="167.81" r="2.6" fill="#F0A23B"></circle><circle cx="457.37" cy="164.51" r="2.6" fill="#F0A23B"></circle><circle cx="465.4" cy="164.55" r="2.6" fill="#F0A23B"></circle><circle cx="473.42" cy="135.11" r="2.6" fill="#F0A23B"></circle><circle cx="481.45" cy="119.1" r="2.6" fill="#F0A23B"></circle><circle cx="489.48" cy="168.6" r="2.6" fill="#F0A23B"></circle><circle cx="497.51" cy="167.03" r="2.6" fill="#F0A23B"></circle><circle cx="505.53" cy="169.7" r="2.6" fill="#F0A23B"></circle><circle cx="513.56" cy="164.27" r="2.6" fill="#F0A23B"></circle><circle cx="521.59" cy="168.02" r="2.6" fill="#F0A23B"></circle><circle cx="529.62" cy="163.89" r="2.6" fill="#F0A23B"></circle><circle cx="537.64" cy="99.72" r="2.6" fill="#F0A23B"></circle><circle cx="545.67" cy="166.55" r="2.6" fill="#F0A23B"></circle><circle cx="553.7" cy="163.57" r="2.6" fill="#F0A23B"></circle><circle cx="561.73" cy="163.91" r="2.6" fill="#F0A23B"></circle><circle cx="569.75" cy="164.36" r="2.6" fill="#F0A23B"></circle><circle cx="577.78" cy="166.86" r="2.6" fill="#F0A23B"></circle><circle cx="585.81" cy="166.95" r="2.6" fill="#F0A23B"></circle><circle cx="593.84" cy="52.43" r="2.6" fill="#F0A23B"></circle><circle cx="601.86" cy="166.52" r="2.6" fill="#F0A23B"></circle><circle cx="609.89" cy="165.82" r="2.6" fill="#F0A23B"></circle><circle cx="617.92" cy="164.59" r="2.6" fill="#F0A23B"></circle><circle cx="633.97" cy="164.21" r="2.6" fill="#F0A23B"></circle><circle cx="642" cy="164.24" r="2.6" fill="#F0A23B"></circle><line x1="656" y1="27" x2="672" y2="27" stroke="#6366F1" stroke-width="3" stroke-linecap="round"></line><text x="678" y="30" font-size="11" font-weight="400" text-anchor="start" fill="#e6edf3">deepseek</text><line x1="656" y1="47" x2="672" y2="47" stroke="#A371F7" stroke-width="3" stroke-linecap="round"></line><text x="678" y="50" font-size="11" font-weight="400" text-anchor="start" fill="#e6edf3">llama</text><line x1="656" y1="67" x2="672" y2="67" stroke="#F0A23B" stroke-width="3" stroke-linecap="round"></line><text x="678" y="70" font-size="11" font-weight="400" text-anchor="start" fill="#e6edf3">mistral</text></svg>
