<svg xmlns="http://www.w3.org/2000/svg" viewBox="0 0 760 348" width="760" height="348" role="img" aria-label="Cost per test by provider over runs — mistral highest, deepseek lowest" font-family="-apple-system,BlinkMacSystemFont,'Segoe UI',system-ui,sans-serif"><line x1="56" y1="306" x2="642" y2="306" stroke="#d8dee4" stroke-width="1"></line><text x="46" y="310" font-size="9.5" font-weight="400" text-anchor="end" fill="#656d76" font-family="ui-monospace,SFMono-Regular,Menlo,monospace">$0.000</text><line x1="56" y1="235" x2="642" y2="235" stroke="#d8dee4" stroke-width="1"></line><text x="46" y="239" font-size="9.5" font-weight="400" text-anchor="end" fill="#656d76" font-family="ui-monospace,SFMono-Regular,Menlo,monospace">$0.039</text><line x1="56" y1="164" x2="642" y2="164" stroke="#d8dee4" stroke-width="1"></line><text x="46" y="168" font-size="9.5" font-weight="400" text-anchor="end" fill="#656d76" font-family="ui-monospace,SFMono-Regular,Menlo,monospace">$0.079</text><line x1="56" y1="93" x2="642" y2="93" stroke="#d8dee4" stroke-width="1"></line><text x="46" y="97" font-size="9.5" font-weight="400" text-anchor="end" fill="#656d76" font-family="ui-monospace,SFMono-Regular,Menlo,monospace">$0.118</text><line x1="56" y1="22" x2="642" y2="22" stroke="#d8dee4" stroke-width="1"></line><text x="46" y="26" font-size="9.5" font-weight="400" text-anchor="end" fill="#656d76" font-family="ui-monospace,SFMono-Regular,Menlo,monospace">$0.158</text><text x="56" y="324" font-size="9.5" font-weight="400" text-anchor="middle" fill="#656d76" font-family="ui-monospace,SFMono-Regular,Menlo,monospace">06/06</text><text x="111.81" y="324" font-size="9.5" font-weight="400" text-anchor="middle" fill="#656d76" font-family="ui-monospace,SFMono-Regular,Menlo,monospace">06/08</text><text x="167.62" y="324" font-size="9.5" font-weight="400" text-anchor="middle" fill="#656d76" font-family="ui-monospace,SFMono-Regular,Menlo,monospace">06/09</text><text x="223.43" y="324" font-size="9.5" font-weight="400" text-anchor="middle" fill="#656d76" font-family="ui-monospace,SFMono-Regular,Menlo,monospace">06/12</text><text x="279.24" y="324" font-size="9.5" font-weight="400" text-anchor="middle" fill="#656d76" font-family="ui-monospace,SFMono-Regular,Menlo,monospace">06/14</text><text x="335.05" y="324" font-size="9.5" font-weight="400" text-anchor="middle" fill="#656d76" font-family="ui-monospace,SFMono-Regular,Menlo,monospace">06/16</text><text x="390.86" y="324" font-size="9.5" font-weight="400" text-anchor="middle" fill="#656d76" font-family="ui-monospace,SFMono-Regular,Menlo,monospace">06/17</text><text x="446.67" y="324" font-size="9.5" font-weight="400" text-anchor="middle" fill="#656d76" font-family="ui-monospace,SFMono-Regular,Menlo,monospace">06/20</text><text x="502.48" y="324" font-size="9.5" font-weight="400" text-anchor="middle" fill="#656d76" font-family="ui-monospace,SFMono-Regular,Menlo,monospace">06/22</text><text x="558.29" y="324" font-size="9.5" font-weight="400" text-anchor="middle" fill="#656d76" font-family="ui-monospace,SFMono-Regular,Menlo,monospace">06/24</text><text x="614.1" y="324" font-size="9.5" font-weight="400" text-anchor="middle" fill="#656d76" font-family="ui-monospace,SFMono-Regular,Menlo,monospace">06/25</text><text x="642" y="324" font-size="9.5" font-weight="400" text-anchor="middle" fill="#656d76" font-family="ui-monospace,SFMono-Regular,Menlo,monospace">06/26</text><polyline fill="none" stroke="#6366F1" stroke-width="2.4" stroke-linejoin="round" stroke-linecap="round" points="111.81,291.99 118.79,292.07 125.76,292.82 132.74,291.48 139.71,291.75 146.69,285.29 153.67,293.05 160.64,290.23 167.62,290.29 174.6,289.78 181.57,291.61 188.55,290.27 195.52,286.66 202.5,290.55 209.48,286.99 216.45,293.02 223.43,290.61 230.4,286.59 237.38,283.56 244.36,290.63 251.33,289.42 258.31,292.33 265.29,288.36 272.26,284.88 279.24,291.34 286.21,290.13 293.19,291.01 300.17,289.68 314.12,289.04 321.1,291.5 328.07,291.97 335.05,289.14 342.02,289.37 349,290.04 355.98,290.81 362.95,291.39 369.93,292 383.88,292.33 390.86,292.51 397.83,290.75 404.81,289.5 411.79,289.4 418.76,282.59 425.74,289.91 432.71,286.79 439.69,288.79 446.67,286.98 453.64,290.22 460.62,291.94 467.6,292.7 474.57,281.08 481.55,292.31 488.52,290.28 495.5,286.5 502.48,289 509.45,289.95 516.43,291.41 523.4,290.81 530.38,291 537.36,290.42 544.33,289.99 551.31,284.38 558.29,292.31 565.26,291.62 572.24,287.31 579.21,291.89 586.19,292.21 593.17,288.97 600.14,292.99 607.12,292.75 614.1,290.59 621.07,291.68 628.05,293.04 635.02,289.13 642,289.75"></polyline><circle cx="111.81" cy="291.99" r="2.6" fill="#6366F1"></circle><circle cx="118.79" cy="292.07" r="2.6" fill="#6366F1"></circle><circle cx="125.76" cy="292.82" r="2.6" fill="#6366F1"></circle><circle cx="132.74" cy="291.48" r="2.6" fill="#6366F1"></circle><circle cx="139.71" cy="291.75" r="2.6" fill="#6366F1"></circle><circle cx="146.69" cy="285.29" r="2.6" fill="#6366F1"></circle><circle cx="153.67" cy="293.05" r="2.6" fill="#6366F1"></circle><circle cx="160.64" cy="290.23" r="2.6" fill="#6366F1"></circle><circle cx="167.62" cy="290.29" r="2.6" fill="#6366F1"></circle><circle cx="174.6" cy="289.78" r="2.6" fill="#6366F1"></circle><circle cx="181.57" cy="291.61" r="2.6" fill="#6366F1"></circle><circle cx="188.55" cy="290.27" r="2.6" fill="#6366F1"></circle><circle cx="195.52" cy="286.66" r="2.6" fill="#6366F1"></circle><circle cx="202.5" cy="290.55" r="2.6" fill="#6366F1"></circle><circle cx="209.48" cy="286.99" r="2.6" fill="#6366F1"></circle><circle cx="216.45" cy="293.02" r="2.6" fill="#6366F1"></circle><circle cx="223.43" cy="290.61" r="2.6" fill="#6366F1"></circle><circle cx="230.4" cy="286.59" r="2.6" fill="#6366F1"></circle><circle cx="237.38" cy="283.56" r="2.6" fill="#6366F1"></circle><circle cx="244.36" cy="290.63" r="2.6" fill="#6366F1"></circle><circle cx="251.33" cy="289.42" r="2.6" fill="#6366F1"></circle><circle cx="258.31" cy="292.33" r="2.6" fill="#6366F1"></circle><circle cx="265.29" cy="288.36" r="2.6" fill="#6366F1"></circle><circle cx="272.26" cy="284.88" r="2.6" fill="#6366F1"></circle><circle cx="279.24" cy="291.34" r="2.6" fill="#6366F1"></circle><circle cx="286.21" cy="290.13" r="2.6" fill="#6366F1"></circle><circle cx="293.19" cy="291.01" r="2.6" fill="#6366F1"></circle><circle cx="300.17" cy="289.68" r="2.6" fill="#6366F1"></circle><circle cx="314.12" cy="289.04" r="2.6" fill="#6366F1"></circle><circle cx="321.1" cy="291.5" r="2.6" fill="#6366F1"></circle><circle cx="328.07" cy="291.97" r="2.6" fill="#6366F1"></circle><circle cx="335.05" cy="289.14" r="2.6" fill="#6366F1"></circle><circle cx="342.02" cy="289.37" r="2.6" fill="#6366F1"></circle><circle cx="349" cy="290.04" r="2.6" fill="#6366F1"></circle><circle cx="355.98" cy="290.81" r="2.6" fill="#6366F1"></circle><circle cx="362.95" cy="291.39" r="2.6" fill="#6366F1"></circle><circle cx="369.93" cy="292" r="2.6" fill="#6366F1"></circle><circle cx="383.88" cy="292.33" r="2.6" fill="#6366F1"></circle><circle cx="390.86" cy="292.51" r="2.6" fill="#6366F1"></circle><circle cx="397.83" cy="290.75" r="2.6" fill="#6366F1"></circle><circle cx="404.81" cy="289.5" r="2.6" fill="#6366F1"></circle><circle cx="411.79" cy="289.4" r="2.6" fill="#6366F1"></circle><circle cx="418.76" cy="282.59" r="2.6" fill="#6366F1"></circle><circle cx="425.74" cy="289.91" r="2.6" fill="#6366F1"></circle><circle cx="432.71" cy="286.79" r="2.6" fill="#6366F1"></circle><circle cx="439.69" cy="288.79" r="2.6" fill="#6366F1"></circle><circle cx="446.67" cy="286.98" r="2.6" fill="#6366F1"></circle><circle cx="453.64" cy="290.22" r="2.6" fill="#6366F1"></circle><circle cx="460.62" cy="291.94" r="2.6" fill="#6366F1"></circle><circle cx="467.6" cy="292.7" r="2.6" fill="#6366F1"></circle><circle cx="474.57" cy="281.08" r="2.6" fill="#6366F1"></circle><circle cx="481.55" cy="292.31" r="2.6" fill="#6366F1"></circle><circle cx="488.52" cy="290.28" r="2.6" fill="#6366F1"></circle><circle cx="495.5" cy="286.5" r="2.6" fill="#6366F1"></circle><circle cx="502.48" cy="289" r="2.6" fill="#6366F1"></circle><circle cx="509.45" cy="289.95" r="2.6" fill="#6366F1"></circle><circle cx="516.43" cy="291.41" r="2.6" fill="#6366F1"></circle><circle cx="523.4" cy="290.81" r="2.6" fill="#6366F1"></circle><circle cx="530.38" cy="291" r="2.6" fill="#6366F1"></circle><circle cx="537.36" cy="290.42" r="2.6" fill="#6366F1"></circle><circle cx="544.33" cy="289.99" r="2.6" fill="#6366F1"></circle><circle cx="551.31" cy="284.38" r="2.6" fill="#6366F1"></circle><circle cx="558.29" cy="292.31" r="2.6" fill="#6366F1"></circle><circle cx="565.26" cy="291.62" r="2.6" fill="#6366F1"></circle><circle cx="572.24" cy="287.31" r="2.6" fill="#6366F1"></circle><circle cx="579.21" cy="291.89" r="2.6" fill="#6366F1"></circle><circle cx="586.19" cy="292.21" r="2.6" fill="#6366F1"></circle><circle cx="593.17" cy="288.97" r="2.6" fill="#6366F1"></circle><circle cx="600.14" cy="292.99" r="2.6" fill="#6366F1"></circle><circle cx="607.12" cy="292.75" r="2.6" fill="#6366F1"></circle><circle cx="614.1" cy="290.59" r="2.6" fill="#6366F1"></circle><circle cx="621.07" cy="291.68" r="2.6" fill="#6366F1"></circle><circle cx="628.05" cy="293.04" r="2.6" fill="#6366F1"></circle><circle cx="635.02" cy="289.13" r="2.6" fill="#6366F1"></circle><circle cx="642" cy="289.75" r="2.6" fill="#6366F1"></circle><polyline fill="none" stroke="#A371F7" stroke-width="2.4" stroke-linejoin="round" stroke-linecap="round" points="56,226.25 62.98,237.88 69.95,241.73 76.93,223.38 83.9,231.64 90.88,243.09 97.86,237.81 104.83,230.14 111.81,233.83 118.79,241.12 125.76,233.75 132.74,230.9 139.71,235.83 146.69,217.13 153.67,237.29 160.64,230.7 167.62,240.49 174.6,241.09 181.57,218.17 188.55,232.28 195.52,201.8 202.5,239.78 209.48,242.88 216.45,229.56 223.43,227.31 230.4,231.21 237.38,233.26 244.36,230.48 251.33,240.31 258.31,235.36 265.29,231.03 272.26,237.98 279.24,242.74 286.21,217.94 293.19,237.38 300.17,239.39 314.12,216.58 321.1,239.81 328.07,230.21 342.02,230.86 349,240.78 355.98,241.27 362.95,237.28 369.93,234.45 376.9,237.03 383.88,237.6 390.86,235.95 397.83,225.98 404.81,230.74 411.79,232.09 418.76,238.44 425.74,233.93 432.71,237.36 439.69,236.2 453.64,238.07 460.62,232.58 474.57,227.45 481.55,236.55 488.52,232.02 495.5,240.47 502.48,213.84 509.45,238.7 516.43,238.88 523.4,241.18 530.38,233.39 537.36,234.63 544.33,239.11 558.29,240.21 565.26,229.42 572.24,240.04 579.21,237.25 586.19,239.83 593.17,241.26 600.14,237.1 607.12,241.25 614.1,240.26 621.07,198.8 628.05,231.57 635.02,237.11 642,236.96"></polyline><circle cx="56" cy="226.25" r="2.6" fill="#A371F7"></circle><circle cx="62.98" cy="237.88" r="2.6" fill="#A371F7"></circle><circle cx="69.95" cy="241.73" r="2.6" fill="#A371F7"></circle><circle cx="76.93" cy="223.38" r="2.6" fill="#A371F7"></circle><circle cx="83.9" cy="231.64" r="2.6" fill="#A371F7"></circle><circle cx="90.88" cy="243.09" r="2.6" fill="#A371F7"></circle><circle cx="97.86" cy="237.81" r="2.6" fill="#A371F7"></circle><circle cx="104.83" cy="230.14" r="2.6" fill="#A371F7"></circle><circle cx="111.81" cy="233.83" r="2.6" fill="#A371F7"></circle><circle cx="118.79" cy="241.12" r="2.6" fill="#A371F7"></circle><circle cx="125.76" cy="233.75" r="2.6" fill="#A371F7"></circle><circle cx="132.74" cy="230.9" r="2.6" fill="#A371F7"></circle><circle cx="139.71" cy="235.83" r="2.6" fill="#A371F7"></circle><circle cx="146.69" cy="217.13" r="2.6" fill="#A371F7"></circle><circle cx="153.67" cy="237.29" r="2.6" fill="#A371F7"></circle><circle cx="160.64" cy="230.7" r="2.6" fill="#A371F7"></circle><circle cx="167.62" cy="240.49" r="2.6" fill="#A371F7"></circle><circle cx="174.6" cy="241.09" r="2.6" fill="#A371F7"></circle><circle cx="181.57" cy="218.17" r="2.6" fill="#A371F7"></circle><circle cx="188.55" cy="232.28" r="2.6" fill="#A371F7"></circle><circle cx="195.52" cy="201.8" r="2.6" fill="#A371F7"></circle><circle cx="202.5" cy="239.78" r="2.6" fill="#A371F7"></circle><circle cx="209.48" cy="242.88" r="2.6" fill="#A371F7"></circle><circle cx="216.45" cy="229.56" r="2.6" fill="#A371F7"></circle><circle cx="223.43" cy="227.31" r="2.6" fill="#A371F7"></circle><circle cx="230.4" cy="231.21" r="2.6" fill="#A371F7"></circle><circle cx="237.38" cy="233.26" r="2.6" fill="#A371F7"></circle><circle cx="244.36" cy="230.48" r="2.6" fill="#A371F7"></circle><circle cx="251.33" cy="240.31" r="2.6" fill="#A371F7"></circle><circle cx="258.31" cy="235.36" r="2.6" fill="#A371F7"></circle><circle cx="265.29" cy="231.03" r="2.6" fill="#A371F7"></circle><circle cx="272.26" cy="237.98" r="2.6" fill="#A371F7"></circle><circle cx="279.24" cy="242.74" r="2.6" fill="#A371F7"></circle><circle cx="286.21" cy="217.94" r="2.6" fill="#A371F7"></circle><circle cx="293.19" cy="237.38" r="2.6" fill="#A371F7"></circle><circle cx="300.17" cy="239.39" r="2.6" fill="#A371F7"></circle><circle cx="314.12" cy="216.58" r="2.6" fill="#A371F7"></circle><circle cx="321.1" cy="239.81" r="2.6" fill="#A371F7"></circle><circle cx="328.07" cy="230.21" r="2.6" fill="#A371F7"></circle><circle cx="342.02" cy="230.86" r="2.6" fill="#A371F7"></circle><circle cx="349" cy="240.78" r="2.6" fill="#A371F7"></circle><circle cx="355.98" cy="241.27" r="2.6" fill="#A371F7"></circle><circle cx="362.95" cy="237.28" r="2.6" fill="#A371F7"></circle><circle cx="369.93" cy="234.45" r="2.6" fill="#A371F7"></circle><circle cx="376.9" cy="237.03" r="2.6" fill="#A371F7"></circle><circle cx="383.88" cy="237.6" r="2.6" fill="#A371F7"></circle><circle cx="390.86" cy="235.95" r="2.6" fill="#A371F7"></circle><circle cx="397.83" cy="225.98" r="2.6" fill="#A371F7"></circle><circle cx="404.81" cy="230.74" r="2.6" fill="#A371F7"></circle><circle cx="411.79" cy="232.09" r="2.6" fill="#A371F7"></circle><circle cx="418.76" cy="238.44" r="2.6" fill="#A371F7"></circle><circle cx="425.74" cy="233.93" r="2.6" fill="#A371F7"></circle><circle cx="432.71" cy="237.36" r="2.6" fill="#A371F7"></circle><circle cx="439.69" cy="236.2" r="2.6" fill="#A371F7"></circle><circle cx="453.64" cy="238.07" r="2.6" fill="#A371F7"></circle><circle cx="460.62" cy="232.58" r="2.6" fill="#A371F7"></circle><circle cx="474.57" cy="227.45" r="2.6" fill="#A371F7"></circle><circle cx="481.55" cy="236.55" r="2.6" fill="#A371F7"></circle><circle cx="488.52" cy="232.02" r="2.6" fill="#A371F7"></circle><circle cx="495.5" cy="240.47" r="2.6" fill="#A371F7"></circle><circle cx="502.48" cy="213.84" r="2.6" fill="#A371F7"></circle><circle cx="509.45" cy="238.7" r="2.6" fill="#A371F7"></circle><circle cx="516.43" cy="238.88" r="2.6" fill="#A371F7"></circle><circle cx="523.4" cy="241.18" r="2.6" fill="#A371F7"></circle><circle cx="530.38" cy="233.39" r="2.6" fill="#A371F7"></circle><circle cx="537.36" cy="234.63" r="2.6" fill="#A371F7"></circle><circle cx="544.33" cy="239.11" r="2.6" fill="#A371F7"></circle><circle cx="558.29" cy="240.21" r="2.6" fill="#A371F7"></circle><circle cx="565.26" cy="229.42" r="2.6" fill="#A371F7"></circle><circle cx="572.24" cy="240.04" r="2.6" fill="#A371F7"></circle><circle cx="579.21" cy="237.25" r="2.6" fill="#A371F7"></circle><circle cx="586.19" cy="239.83" r="2.6" fill="#A371F7"></circle><circle cx="593.17" cy="241.26" r="2.6" fill="#A371F7"></circle><circle cx="600.14" cy="237.1" r="2.6" fill="#A371F7"></circle><circle cx="607.12" cy="241.25" r="2.6" fill="#A371F7"></circle><circle cx="614.1" cy="240.26" r="2.6" fill="#A371F7"></circle><circle cx="621.07" cy="198.8" r="2.6" fill="#A371F7"></circle><circle cx="628.05" cy="231.57" r="2.6" fill="#A371F7"></circle><circle cx="635.02" cy="237.11" r="2.6" fill="#A371F7"></circle><circle cx="642" cy="236.96" r="2.6" fill="#A371F7"></circle><polyline fill="none" stroke="#F0A23B" stroke-width="2.4" stroke-linejoin="round" stroke-linecap="round" points="56,162.13 62.98,151.29 69.95,72.27 76.93,170.58 83.9,165.15 90.88,168.63 97.86,155.58 104.83,155.2 111.81,151.03 118.79,159.37 125.76,151 132.74,152 139.71,154.31 146.69,162.54 153.67,145.36 160.64,160.82 167.62,153.52 174.6,158.63 181.57,172.35 188.55,162.23 195.52,168.2 202.5,164.28 209.48,98 216.45,164.92 223.43,167.19 230.4,163.76 237.38,165.84 244.36,134.6 251.33,163 258.31,144.13 265.29,165.52 272.26,134.8 279.24,167.11 286.21,166.07 293.19,54.66 300.17,77.46 307.14,164.62 314.12,166.72 321.1,166.65 328.07,162.93 335.05,164.9 342.02,170.21 349,169.23 355.98,114.96 362.95,165.27 369.93,165.44 376.9,99.36 383.88,161.79 390.86,138.56 397.83,167.81 404.81,164.51 411.79,164.55 418.76,135.11 425.74,119.1 432.71,168.6 439.69,167.03 446.67,169.7 453.64,164.27 460.62,168.02 467.6,163.89 474.57,99.72 481.55,166.55 488.52,163.57 495.5,163.91 502.48,164.36 509.45,166.86 516.43,166.95 523.4,52.43 530.38,166.52 537.36,165.82 544.33,164.59 558.29,164.21 565.26,164.24 572.24,161.69 579.21,156.02 586.19,164.92 593.17,166.5 600.14,158.67 607.12,169.13 614.1,164.89 621.07,168.19 628.05,134.69 635.02,120.68 642,164.51"></polyline><circle cx="56" cy="162.13" r="2.6" fill="#F0A23B"></circle><circle cx="62.98" cy="151.29" r="2.6" fill="#F0A23B"></circle><circle cx="69.95" cy="72.27" r="2.6" fill="#F0A23B"></circle><circle cx="76.93" cy="170.58" r="2.6" fill="#F0A23B"></circle><circle cx="83.9" cy="165.15" r="2.6" fill="#F0A23B"></circle><circle cx="90.88" cy="168.63" r="2.6" fill="#F0A23B"></circle><circle cx="97.86" cy="155.58" r="2.6" fill="#F0A23B"></circle><circle cx="104.83" cy="155.2" r="2.6" fill="#F0A23B"></circle><circle cx="111.81" cy="151.03" r="2.6" fill="#F0A23B"></circle><circle cx="118.79" cy="159.37" r="2.6" fill="#F0A23B"></circle><circle cx="125.76" cy="151" r="2.6" fill="#F0A23B"></circle><circle cx="132.74" cy="152" r="2.6" fill="#F0A23B"></circle><circle cx="139.71" cy="154.31" r="2.6" fill="#F0A23B"></circle><circle cx="146.69" cy="162.54" r="2.6" fill="#F0A23B"></circle><circle cx="153.67" cy="145.36" r="2.6" fill="#F0A23B"></circle><circle cx="160.64" cy="160.82" r="2.6" fill="#F0A23B"></circle><circle cx="167.62" cy="153.52" r="2.6" fill="#F0A23B"></circle><circle cx="174.6" cy="158.63" r="2.6" fill="#F0A23B"></circle><circle cx="181.57" cy="172.35" r="2.6" fill="#F0A23B"></circle><circle cx="188.55" cy="162.23" r="2.6" fill="#F0A23B"></circle><circle cx="195.52" cy="168.2" r="2.6" fill="#F0A23B"></circle><circle cx="202.5" cy="164.28" r="2.6" fill="#F0A23B"></circle><circle cx="209.48" cy="98" r="2.6" fill="#F0A23B"></circle><circle cx="216.45" cy="164.92" r="2.6" fill="#F0A23B"></circle><circle cx="223.43" cy="167.19" r="2.6" fill="#F0A23B"></circle><circle cx="230.4" cy="163.76" r="2.6" fill="#F0A23B"></circle><circle cx="237.38" cy="165.84" r="2.6" fill="#F0A23B"></circle><circle cx="244.36" cy="134.6" r="2.6" fill="#F0A23B"></circle><circle cx="251.33" cy="163" r="2.6" fill="#F0A23B"></circle><circle cx="258.31" cy="144.13" r="2.6" fill="#F0A23B"></circle><circle cx="265.29" cy="165.52" r="2.6" fill="#F0A23B"></circle><circle cx="272.26" cy="134.8" r="2.6" fill="#F0A23B"></circle><circle cx="279.24" cy="167.11" r="2.6" fill="#F0A23B"></circle><circle cx="286.21" cy="166.07" r="2.6" fill="#F0A23B"></circle><circle cx="293.19" cy="54.66" r="2.6" fill="#F0A23B"></circle><circle cx="300.17" cy="77.46" r="2.6" fill="#F0A23B"></circle><circle cx="307.14" cy="164.62" r="2.6" fill="#F0A23B"></circle><circle cx="314.12" cy="166.72" r="2.6" fill="#F0A23B"></circle><circle cx="321.1" cy="166.65" r="2.6" fill="#F0A23B"></circle><circle cx="328.07" cy="162.93" r="2.6" fill="#F0A23B"></circle><circle cx="335.05" cy="164.9" r="2.6" fill="#F0A23B"></circle><circle cx="342.02" cy="170.21" r="2.6" fill="#F0A23B"></circle><circle cx="349" cy="169.23" r="2.6" fill="#F0A23B"></circle><circle cx="355.98" cy="114.96" r="2.6" fill="#F0A23B"></circle><circle cx="362.95" cy="165.27" r="2.6" fill="#F0A23B"></circle><circle cx="369.93" cy="165.44" r="2.6" fill="#F0A23B"></circle><circle cx="376.9" cy="99.36" r="2.6" fill="#F0A23B"></circle><circle cx="383.88" cy="161.79" r="2.6" fill="#F0A23B"></circle><circle cx="390.86" cy="138.56" r="2.6" fill="#F0A23B"></circle><circle cx="397.83" cy="167.81" r="2.6" fill="#F0A23B"></circle><circle cx="404.81" cy="164.51" r="2.6" fill="#F0A23B"></circle><circle cx="411.79" cy="164.55" r="2.6" fill="#F0A23B"></circle><circle cx="418.76" cy="135.11" r="2.6" fill="#F0A23B"></circle><circle cx="425.74" cy="119.1" r="2.6" fill="#F0A23B"></circle><circle cx="432.71" cy="168.6" r="2.6" fill="#F0A23B"></circle><circle cx="439.69" cy="167.03" r="2.6" fill="#F0A23B"></circle><circle cx="446.67" cy="169.7" r="2.6" fill="#F0A23B"></circle><circle cx="453.64" cy="164.27" r="2.6" fill="#F0A23B"></circle><circle cx="460.62" cy="168.02" r="2.6" fill="#F0A23B"></circle><circle cx="467.6" cy="163.89" r="2.6" fill="#F0A23B"></circle><circle cx="474.57" cy="99.72" r="2.6" fill="#F0A23B"></circle><circle cx="481.55" cy="166.55" r="2.6" fill="#F0A23B"></circle><circle cx="488.52" cy="163.57" r="2.6" fill="#F0A23B"></circle><circle cx="495.5" cy="163.91" r="2.6" fill="#F0A23B"></circle><circle cx="502.48" cy="164.36" r="2.6" fill="#F0A23B"></circle><circle cx="509.45" cy="166.86" r="2.6" fill="#F0A23B"></circle><circle cx="516.43" cy="166.95" r="2.6" fill="#F0A23B"></circle><circle cx="523.4" cy="52.43" r="2.6" fill="#F0A23B"></circle><circle cx="530.38" cy="166.52" r="2.6" fill="#F0A23B"></circle><circle cx="537.36" cy="165.82" r="2.6" fill="#F0A23B"></circle><circle cx="544.33" cy="164.59" r="2.6" fill="#F0A23B"></circle><circle cx="558.29" cy="164.21" r="2.6" fill="#F0A23B"></circle><circle cx="565.26" cy="164.24" r="2.6" fill="#F0A23B"></circle><circle cx="572.24" cy="161.69" r="2.6" fill="#F0A23B"></circle><circle cx="579.21" cy="156.02" r="2.6" fill="#F0A23B"></circle><circle cx="586.19" cy="164.92" r="2.6" fill="#F0A23B"></circle><circle cx="593.17" cy="166.5" r="2.6" fill="#F0A23B"></circle><circle cx="600.14" cy="158.67" r="2.6" fill="#F0A23B"></circle><circle cx="607.12" cy="169.13" r="2.6" fill="#F0A23B"></circle><circle cx="614.1" cy="164.89" r="2.6" fill="#F0A23B"></circle><circle cx="621.07" cy="168.19" r="2.6" fill="#F0A23B"></circle><circle cx="628.05" cy="134.69" r="2.6" fill="#F0A23B"></circle><circle cx="635.02" cy="120.68" r="2.6" fill="#F0A23B"></circle><circle cx="642" cy="164.51" r="2.6" fill="#F0A23B"></circle><line x1="656" y1="27" x2="672" y2="27" stroke="#6366F1" stroke-width="3" stroke-linecap="round"></line><text x="678" y="30" font-size="11" font-weight="400" text-anchor="start" fill="#1f2328">deepseek</text><line x1="656" y1="47" x2="672" y2="47" stroke="#A371F7" stroke-width="3" stroke-linecap="round"></line><text x="678" y="50" font-size="11" font-weight="400" text-anchor="start" fill="#1f2328">llama</text><line x1="656" y1="67" x2="672" y2="67" stroke="#F0A23B" stroke-width="3" stroke-linecap="round"></line><text x="678" y="70" font-size="11" font-weight="400" text-anchor="start" fill="#1f2328">mistral</text></svg>
