<svg xmlns="http://www.w3.org/2000/svg" viewBox="0 0 760 254" width="760" height="254" role="img" aria-label="Failure categories by provider" font-family="-apple-system,BlinkMacSystemFont,'Segoe UI',system-ui,sans-serif"><rect x="110" y="18" width="11" height="11" rx="2.5" fill="#E5534B"></rect><text x="127" y="28" font-size="11" font-weight="400" text-anchor="start" fill="#656d76">classification</text><rect x="246.4" y="18" width="11" height="11" rx="2.5" fill="#E0A53B"></rect><text x="263.4" y="28" font-size="11" font-weight="400" text-anchor="start" fill="#656d76">deterministic</text><rect x="376.2" y="18" width="11" height="11" rx="2.5" fill="#A371F7"></rect><text x="393.2" y="28" font-size="11" font-weight="400" text-anchor="start" fill="#656d76">infra</text><text x="8" y="63" font-size="12.5" font-weight="600" text-anchor="start" fill="#1f2328">anthropic</text><rect x="110" y="51" width="20.22" height="16" rx="3" fill="#E5534B"></rect><text x="120.11" y="63" font-size="10.5" font-weight="700" text-anchor="middle" fill="#fff">4</text><rect x="132.22" y="51" width="429.78" height="16" rx="3" fill="#E0A53B"></rect><text x="347.11" y="63" font-size="10.5" font-weight="700" text-anchor="middle" fill="#fff">85</text><text x="572" y="63" font-size="11" font-weight="400" text-anchor="start" fill="#656d76">89 fails</text><text x="8" y="97" font-size="12.5" font-weight="600" text-anchor="start" fill="#1f2328">gemini</text><rect x="110" y="85" width="293.26" height="16" rx="3" fill="#E0A53B"></rect><text x="256.63" y="97" font-size="10.5" font-weight="700" text-anchor="middle" fill="#fff">58</text><text x="413.26" y="97" font-size="11" font-weight="400" text-anchor="start" fill="#656d76">58 fails</text><text x="8" y="131" font-size="12.5" font-weight="600" text-anchor="start" fill="#1f2328">deepseek</text><rect x="110" y="119" width="116.29" height="16" rx="3" fill="#E5534B"></rect><text x="168.15" y="131" font-size="10.5" font-weight="700" text-anchor="middle" fill="#fff">23</text><rect x="228.29" y="119" width="15.17" height="16" rx="3" fill="#E0A53B"></rect><text x="235.88" y="131" font-size="10.5" font-weight="700" text-anchor="middle" fill="#fff">3</text><text x="253.46" y="131" font-size="11" font-weight="400" text-anchor="start" fill="#656d76">26 fails</text><text x="8" y="165" font-size="12.5" font-weight="600" text-anchor="start" fill="#1f2328">llama</text><rect x="110" y="153" width="75.84" height="16" rx="3" fill="#E5534B"></rect><text x="147.92" y="165" font-size="10.5" font-weight="700" text-anchor="middle" fill="#fff">15</text><rect x="187.84" y="153" width="10.11" height="16" rx="3" fill="#E0A53B"></rect><text x="192.9" y="165" font-size="10.5" font-weight="700" text-anchor="middle" fill="#fff">2</text><rect x="199.96" y="153" width="5.06" height="16" rx="3" fill="#A371F7"></rect><text x="202.48" y="165" font-size="10.5" font-weight="700" text-anchor="middle" fill="#fff">1</text><text x="215.01" y="165" font-size="11" font-weight="400" text-anchor="start" fill="#656d76">18 fails</text><text x="8" y="199" font-size="12.5" font-weight="600" text-anchor="start" fill="#1f2328">openai</text><rect x="110" y="187" width="20.22" height="16" rx="3" fill="#E5534B"></rect><text x="120.11" y="199" font-size="10.5" font-weight="700" text-anchor="middle" fill="#fff">4</text><rect x="132.22" y="187" width="10.11" height="16" rx="3" fill="#E0A53B"></rect><text x="137.28" y="199" font-size="10.5" font-weight="700" text-anchor="middle" fill="#fff">2</text><text x="152.34" y="199" font-size="11" font-weight="400" text-anchor="start" fill="#656d76">6 fails</text><text x="8" y="233" font-size="12.5" font-weight="600" text-anchor="start" fill="#1f2328">mistral</text><rect x="110" y="221" width="5.06" height="16" rx="3" fill="#E0A53B"></rect><text x="112.53" y="233" font-size="10.5" font-weight="700" text-anchor="middle" fill="#fff">1</text><rect x="117.06" y="221" width="5.06" height="16" rx="3" fill="#A371F7"></rect><text x="119.58" y="233" font-size="10.5" font-weight="700" text-anchor="middle" fill="#fff">1</text><text x="132.11" y="233" font-size="11" font-weight="400" text-anchor="start" fill="#656d76">2 fails</text></svg>
