<svg xmlns="http://www.w3.org/2000/svg" viewBox="0 0 760 254" width="760" height="254" role="img" aria-label="Failure categories by provider" font-family="-apple-system,BlinkMacSystemFont,'Segoe UI',system-ui,sans-serif"><rect x="110" y="18" width="11" height="11" rx="2.5" fill="#E5534B"></rect><text x="127" y="28" font-size="11" font-weight="400" text-anchor="start" fill="#656d76">classification</text><rect x="246.4" y="18" width="11" height="11" rx="2.5" fill="#E0A53B"></rect><text x="263.4" y="28" font-size="11" font-weight="400" text-anchor="start" fill="#656d76">deterministic</text><rect x="376.2" y="18" width="11" height="11" rx="2.5" fill="#A371F7"></rect><text x="393.2" y="28" font-size="11" font-weight="400" text-anchor="start" fill="#656d76">infra</text><text x="8" y="63" font-size="12.5" font-weight="600" text-anchor="start" fill="#1f2328">anthropic</text><rect x="110" y="51" width="21.69" height="16" rx="3" fill="#E5534B"></rect><text x="120.84" y="63" font-size="10.5" font-weight="700" text-anchor="middle" fill="#fff">4</text><rect x="133.69" y="51" width="428.31" height="16" rx="3" fill="#E0A53B"></rect><text x="347.84" y="63" font-size="10.5" font-weight="700" text-anchor="middle" fill="#fff">79</text><text x="572" y="63" font-size="11" font-weight="400" text-anchor="start" fill="#656d76">83 fails</text><text x="8" y="97" font-size="12.5" font-weight="600" text-anchor="start" fill="#1f2328">gemini</text><rect x="110" y="85" width="314.46" height="16" rx="3" fill="#E0A53B"></rect><text x="267.23" y="97" font-size="10.5" font-weight="700" text-anchor="middle" fill="#fff">58</text><text x="434.46" y="97" font-size="11" font-weight="400" text-anchor="start" fill="#656d76">58 fails</text><text x="8" y="131" font-size="12.5" font-weight="600" text-anchor="start" fill="#1f2328">deepseek</text><rect x="110" y="119" width="113.86" height="16" rx="3" fill="#E5534B"></rect><text x="166.93" y="131" font-size="10.5" font-weight="700" text-anchor="middle" fill="#fff">21</text><rect x="225.86" y="119" width="16.27" height="16" rx="3" fill="#E0A53B"></rect><text x="233.99" y="131" font-size="10.5" font-weight="700" text-anchor="middle" fill="#fff">3</text><text x="252.12" y="131" font-size="11" font-weight="400" text-anchor="start" fill="#656d76">24 fails</text><text x="8" y="165" font-size="12.5" font-weight="600" text-anchor="start" fill="#1f2328">llama</text><rect x="110" y="153" width="81.33" height="16" rx="3" fill="#E5534B"></rect><text x="150.66" y="165" font-size="10.5" font-weight="700" text-anchor="middle" fill="#fff">15</text><rect x="193.33" y="153" width="10.84" height="16" rx="3" fill="#E0A53B"></rect><text x="198.75" y="165" font-size="10.5" font-weight="700" text-anchor="middle" fill="#fff">2</text><rect x="206.17" y="153" width="5.42" height="16" rx="3" fill="#A371F7"></rect><text x="208.88" y="165" font-size="10.5" font-weight="700" text-anchor="middle" fill="#fff">1</text><text x="221.59" y="165" font-size="11" font-weight="400" text-anchor="start" fill="#656d76">18 fails</text><text x="8" y="199" font-size="12.5" font-weight="600" text-anchor="start" fill="#1f2328">openai</text><rect x="110" y="187" width="21.69" height="16" rx="3" fill="#E5534B"></rect><text x="120.84" y="199" font-size="10.5" font-weight="700" text-anchor="middle" fill="#fff">4</text><rect x="133.69" y="187" width="10.84" height="16" rx="3" fill="#E0A53B"></rect><text x="139.11" y="199" font-size="10.5" font-weight="700" text-anchor="middle" fill="#fff">2</text><text x="154.53" y="199" font-size="11" font-weight="400" text-anchor="start" fill="#656d76">6 fails</text><text x="8" y="233" font-size="12.5" font-weight="600" text-anchor="start" fill="#1f2328">mistral</text><rect x="110" y="221" width="5.42" height="16" rx="3" fill="#E0A53B"></rect><text x="112.71" y="233" font-size="10.5" font-weight="700" text-anchor="middle" fill="#fff">1</text><rect x="117.42" y="221" width="5.42" height="16" rx="3" fill="#A371F7"></rect><text x="120.13" y="233" font-size="10.5" font-weight="700" text-anchor="middle" fill="#fff">1</text><text x="132.84" y="233" font-size="11" font-weight="400" text-anchor="start" fill="#656d76">2 fails</text></svg>
