<svg xmlns="http://www.w3.org/2000/svg" viewBox="0 0 760 254" width="760" height="254" role="img" aria-label="Failure categories by provider" font-family="-apple-system,BlinkMacSystemFont,'Segoe UI',system-ui,sans-serif"><rect x="110" y="18" width="11" height="11" rx="2.5" fill="#E5534B"></rect><text x="127" y="28" font-size="11" font-weight="400" text-anchor="start" fill="#656d76">classification</text><rect x="246.4" y="18" width="11" height="11" rx="2.5" fill="#E0A53B"></rect><text x="263.4" y="28" font-size="11" font-weight="400" text-anchor="start" fill="#656d76">deterministic</text><rect x="376.2" y="18" width="11" height="11" rx="2.5" fill="#A371F7"></rect><text x="393.2" y="28" font-size="11" font-weight="400" text-anchor="start" fill="#656d76">infra</text><text x="8" y="63" font-size="12.5" font-weight="600" text-anchor="start" fill="#1f2328">anthropic</text><rect x="110" y="51" width="18.18" height="16" rx="3" fill="#E5534B"></rect><text x="119.09" y="63" font-size="10.5" font-weight="700" text-anchor="middle" fill="#fff">4</text><rect x="130.18" y="51" width="431.82" height="16" rx="3" fill="#E0A53B"></rect><text x="346.09" y="63" font-size="10.5" font-weight="700" text-anchor="middle" fill="#fff">95</text><text x="572" y="63" font-size="11" font-weight="400" text-anchor="start" fill="#656d76">99 fails</text><text x="8" y="97" font-size="12.5" font-weight="600" text-anchor="start" fill="#1f2328">gemini</text><rect x="110" y="85" width="4.55" height="16" rx="3" fill="#E5534B"></rect><text x="112.27" y="97" font-size="10.5" font-weight="700" text-anchor="middle" fill="#fff">1</text><rect x="116.55" y="85" width="268.18" height="16" rx="3" fill="#E0A53B"></rect><text x="250.64" y="97" font-size="10.5" font-weight="700" text-anchor="middle" fill="#fff">59</text><text x="394.73" y="97" font-size="11" font-weight="400" text-anchor="start" fill="#656d76">60 fails</text><text x="8" y="131" font-size="12.5" font-weight="600" text-anchor="start" fill="#1f2328">deepseek</text><rect x="110" y="119" width="113.64" height="16" rx="3" fill="#E5534B"></rect><text x="166.82" y="131" font-size="10.5" font-weight="700" text-anchor="middle" fill="#fff">25</text><rect x="225.64" y="119" width="13.64" height="16" rx="3" fill="#E0A53B"></rect><text x="232.45" y="131" font-size="10.5" font-weight="700" text-anchor="middle" fill="#fff">3</text><text x="249.27" y="131" font-size="11" font-weight="400" text-anchor="start" fill="#656d76">28 fails</text><text x="8" y="165" font-size="12.5" font-weight="600" text-anchor="start" fill="#1f2328">llama</text><rect x="110" y="153" width="72.73" height="16" rx="3" fill="#E5534B"></rect><text x="146.36" y="165" font-size="10.5" font-weight="700" text-anchor="middle" fill="#fff">16</text><rect x="184.73" y="153" width="9.09" height="16" rx="3" fill="#E0A53B"></rect><text x="189.27" y="165" font-size="10.5" font-weight="700" text-anchor="middle" fill="#fff">2</text><rect x="195.82" y="153" width="4.55" height="16" rx="3" fill="#A371F7"></rect><text x="198.09" y="165" font-size="10.5" font-weight="700" text-anchor="middle" fill="#fff">1</text><text x="210.36" y="165" font-size="11" font-weight="400" text-anchor="start" fill="#656d76">19 fails</text><text x="8" y="199" font-size="12.5" font-weight="600" text-anchor="start" fill="#1f2328">openai</text><rect x="110" y="187" width="18.18" height="16" rx="3" fill="#E5534B"></rect><text x="119.09" y="199" font-size="10.5" font-weight="700" text-anchor="middle" fill="#fff">4</text><rect x="130.18" y="187" width="9.09" height="16" rx="3" fill="#E0A53B"></rect><text x="134.73" y="199" font-size="10.5" font-weight="700" text-anchor="middle" fill="#fff">2</text><text x="149.27" y="199" font-size="11" font-weight="400" text-anchor="start" fill="#656d76">6 fails</text><text x="8" y="233" font-size="12.5" font-weight="600" text-anchor="start" fill="#1f2328">mistral</text><rect x="110" y="221" width="4.55" height="16" rx="3" fill="#E0A53B"></rect><text x="112.27" y="233" font-size="10.5" font-weight="700" text-anchor="middle" fill="#fff">1</text><rect x="116.55" y="221" width="4.55" height="16" rx="3" fill="#A371F7"></rect><text x="118.82" y="233" font-size="10.5" font-weight="700" text-anchor="middle" fill="#fff">1</text><text x="131.09" y="233" font-size="11" font-weight="400" text-anchor="start" fill="#656d76">2 fails</text></svg>
