<svg xmlns="http://www.w3.org/2000/svg" viewBox="0 0 760 254" width="760" height="254" role="img" aria-label="Failure categories by provider" font-family="-apple-system,BlinkMacSystemFont,'Segoe UI',system-ui,sans-serif"><rect x="110" y="18" width="11" height="11" rx="2.5" fill="#E5534B"></rect><text x="127" y="28" font-size="11" font-weight="400" text-anchor="start" fill="#8b949e">classification</text><rect x="246.4" y="18" width="11" height="11" rx="2.5" fill="#E0A53B"></rect><text x="263.4" y="28" font-size="11" font-weight="400" text-anchor="start" fill="#8b949e">deterministic</text><rect x="376.2" y="18" width="11" height="11" rx="2.5" fill="#A371F7"></rect><text x="393.2" y="28" font-size="11" font-weight="400" text-anchor="start" fill="#8b949e">infra</text><text x="8" y="63" font-size="12.5" font-weight="600" text-anchor="start" fill="#e6edf3">anthropic</text><rect x="110" y="51" width="14.52" height="16" rx="3" fill="#E5534B"></rect><text x="117.26" y="63" font-size="10.5" font-weight="700" text-anchor="middle" fill="#fff">4</text><rect x="126.52" y="51" width="435.48" height="16" rx="3" fill="#E0A53B"></rect><text x="344.26" y="63" font-size="10.5" font-weight="700" text-anchor="middle" fill="#fff">120</text><text x="572" y="63" font-size="11" font-weight="400" text-anchor="start" fill="#8b949e">124 fails</text><text x="8" y="97" font-size="12.5" font-weight="600" text-anchor="start" fill="#e6edf3">gemini</text><rect x="110" y="85" width="7.26" height="16" rx="3" fill="#E5534B"></rect><text x="113.63" y="97" font-size="10.5" font-weight="700" text-anchor="middle" fill="#fff">2</text><rect x="119.26" y="85" width="214.11" height="16" rx="3" fill="#E0A53B"></rect><text x="226.31" y="97" font-size="10.5" font-weight="700" text-anchor="middle" fill="#fff">59</text><text x="343.37" y="97" font-size="11" font-weight="400" text-anchor="start" fill="#8b949e">61 fails</text><text x="8" y="131" font-size="12.5" font-weight="600" text-anchor="start" fill="#e6edf3">openai</text><rect x="110" y="119" width="14.52" height="16" rx="3" fill="#E5534B"></rect><text x="117.26" y="131" font-size="10.5" font-weight="700" text-anchor="middle" fill="#fff">4</text><rect x="126.52" y="119" width="101.61" height="16" rx="3" fill="#E0A53B"></rect><text x="177.32" y="131" font-size="10.5" font-weight="700" text-anchor="middle" fill="#fff">28</text><text x="238.13" y="131" font-size="11" font-weight="400" text-anchor="start" fill="#8b949e">32 fails</text><text x="8" y="165" font-size="12.5" font-weight="600" text-anchor="start" fill="#e6edf3">deepseek</text><rect x="110" y="153" width="101.61" height="16" rx="3" fill="#E5534B"></rect><text x="160.81" y="165" font-size="10.5" font-weight="700" text-anchor="middle" fill="#fff">28</text><rect x="213.61" y="153" width="10.89" height="16" rx="3" fill="#E0A53B"></rect><text x="219.06" y="165" font-size="10.5" font-weight="700" text-anchor="middle" fill="#fff">3</text><text x="234.5" y="165" font-size="11" font-weight="400" text-anchor="start" fill="#8b949e">31 fails</text><text x="8" y="199" font-size="12.5" font-weight="600" text-anchor="start" fill="#e6edf3">llama</text><rect x="110" y="187" width="61.69" height="16" rx="3" fill="#E5534B"></rect><text x="140.85" y="199" font-size="10.5" font-weight="700" text-anchor="middle" fill="#fff">17</text><rect x="173.69" y="187" width="7.26" height="16" rx="3" fill="#E0A53B"></rect><text x="177.32" y="199" font-size="10.5" font-weight="700" text-anchor="middle" fill="#fff">2</text><rect x="182.95" y="187" width="3.63" height="16" rx="3" fill="#A371F7"></rect><text x="184.77" y="199" font-size="10.5" font-weight="700" text-anchor="middle" fill="#fff">1</text><text x="196.58" y="199" font-size="11" font-weight="400" text-anchor="start" fill="#8b949e">20 fails</text><text x="8" y="233" font-size="12.5" font-weight="600" text-anchor="start" fill="#e6edf3">mistral</text><rect x="110" y="221" width="3.63" height="16" rx="3" fill="#E0A53B"></rect><text x="111.81" y="233" font-size="10.5" font-weight="700" text-anchor="middle" fill="#fff">1</text><rect x="115.63" y="221" width="3.63" height="16" rx="3" fill="#A371F7"></rect><text x="117.44" y="233" font-size="10.5" font-weight="700" text-anchor="middle" fill="#fff">1</text><text x="129.26" y="233" font-size="11" font-weight="400" text-anchor="start" fill="#8b949e">2 fails</text></svg>
