<svg xmlns="http://www.w3.org/2000/svg" viewBox="0 0 760 254" width="760" height="254" role="img" aria-label="Failure categories by provider" font-family="-apple-system,BlinkMacSystemFont,'Segoe UI',system-ui,sans-serif"><rect x="110" y="18" width="11" height="11" rx="2.5" fill="#E5534B"></rect><text x="127" y="28" font-size="11" font-weight="400" text-anchor="start" fill="#8b949e">classification</text><rect x="246.4" y="18" width="11" height="11" rx="2.5" fill="#E0A53B"></rect><text x="263.4" y="28" font-size="11" font-weight="400" text-anchor="start" fill="#8b949e">deterministic</text><rect x="376.2" y="18" width="11" height="11" rx="2.5" fill="#A371F7"></rect><text x="393.2" y="28" font-size="11" font-weight="400" text-anchor="start" fill="#8b949e">infra</text><text x="8" y="63" font-size="12.5" font-weight="600" text-anchor="start" fill="#e6edf3">anthropic</text><rect x="110" y="51" width="10.17" height="16" rx="3" fill="#E5534B"></rect><text x="115.08" y="63" font-size="10.5" font-weight="700" text-anchor="middle" fill="#fff">4</text><rect x="122.17" y="51" width="439.83" height="16" rx="3" fill="#E0A53B"></rect><text x="342.08" y="63" font-size="10.5" font-weight="700" text-anchor="middle" fill="#fff">173</text><text x="572" y="63" font-size="11" font-weight="400" text-anchor="start" fill="#8b949e">177 fails</text><text x="8" y="97" font-size="12.5" font-weight="600" text-anchor="start" fill="#e6edf3">gemini</text><rect x="110" y="85" width="10.17" height="16" rx="3" fill="#E5534B"></rect><text x="115.08" y="97" font-size="10.5" font-weight="700" text-anchor="middle" fill="#fff">4</text><rect x="122.17" y="85" width="150" height="16" rx="3" fill="#E0A53B"></rect><text x="197.17" y="97" font-size="10.5" font-weight="700" text-anchor="middle" fill="#fff">59</text><text x="282.17" y="97" font-size="11" font-weight="400" text-anchor="start" fill="#8b949e">63 fails</text><text x="8" y="131" font-size="12.5" font-weight="600" text-anchor="start" fill="#e6edf3">openai</text><rect x="110" y="119" width="10.17" height="16" rx="3" fill="#E5534B"></rect><text x="115.08" y="131" font-size="10.5" font-weight="700" text-anchor="middle" fill="#fff">4</text><rect x="122.17" y="119" width="109.32" height="16" rx="3" fill="#E0A53B"></rect><text x="176.83" y="131" font-size="10.5" font-weight="700" text-anchor="middle" fill="#fff">43</text><text x="241.49" y="131" font-size="11" font-weight="400" text-anchor="start" fill="#8b949e">47 fails</text><text x="8" y="165" font-size="12.5" font-weight="600" text-anchor="start" fill="#e6edf3">deepseek</text><rect x="110" y="153" width="94.07" height="16" rx="3" fill="#E5534B"></rect><text x="157.03" y="165" font-size="10.5" font-weight="700" text-anchor="middle" fill="#fff">37</text><rect x="206.07" y="153" width="7.63" height="16" rx="3" fill="#E0A53B"></rect><text x="209.88" y="165" font-size="10.5" font-weight="700" text-anchor="middle" fill="#fff">3</text><text x="223.69" y="165" font-size="11" font-weight="400" text-anchor="start" fill="#8b949e">40 fails</text><text x="8" y="199" font-size="12.5" font-weight="600" text-anchor="start" fill="#e6edf3">llama</text><rect x="110" y="187" width="53.39" height="16" rx="3" fill="#E5534B"></rect><text x="136.69" y="199" font-size="10.5" font-weight="700" text-anchor="middle" fill="#fff">21</text><rect x="165.39" y="187" width="7.63" height="16" rx="3" fill="#E0A53B"></rect><text x="169.2" y="199" font-size="10.5" font-weight="700" text-anchor="middle" fill="#fff">3</text><rect x="175.02" y="187" width="2.54" height="16" rx="3" fill="#A371F7"></rect><text x="176.29" y="199" font-size="10.5" font-weight="700" text-anchor="middle" fill="#fff">1</text><text x="187.56" y="199" font-size="11" font-weight="400" text-anchor="start" fill="#8b949e">25 fails</text><text x="8" y="233" font-size="12.5" font-weight="600" text-anchor="start" fill="#e6edf3">mistral</text><rect x="110" y="221" width="2.54" height="16" rx="3" fill="#E0A53B"></rect><text x="111.27" y="233" font-size="10.5" font-weight="700" text-anchor="middle" fill="#fff">1</text><rect x="114.54" y="221" width="5.08" height="16" rx="3" fill="#A371F7"></rect><text x="117.08" y="233" font-size="10.5" font-weight="700" text-anchor="middle" fill="#fff">2</text><text x="129.63" y="233" font-size="11" font-weight="400" text-anchor="start" fill="#8b949e">3 fails</text></svg>
