<svg xmlns="http://www.w3.org/2000/svg" viewBox="0 0 760 254" width="760" height="254" role="img" aria-label="Failure categories by provider" font-family="-apple-system,BlinkMacSystemFont,'Segoe UI',system-ui,sans-serif"><rect x="110" y="18" width="11" height="11" rx="2.5" fill="#E5534B"></rect><text x="127" y="28" font-size="11" font-weight="400" text-anchor="start" fill="#8b949e">classification</text><rect x="246.4" y="18" width="11" height="11" rx="2.5" fill="#E0A53B"></rect><text x="263.4" y="28" font-size="11" font-weight="400" text-anchor="start" fill="#8b949e">deterministic</text><rect x="376.2" y="18" width="11" height="11" rx="2.5" fill="#A371F7"></rect><text x="393.2" y="28" font-size="11" font-weight="400" text-anchor="start" fill="#8b949e">infra</text><text x="8" y="63" font-size="12.5" font-weight="600" text-anchor="start" fill="#e6edf3">anthropic</text><rect x="110" y="51" width="12.59" height="16" rx="3" fill="#E5534B"></rect><text x="116.29" y="63" font-size="10.5" font-weight="700" text-anchor="middle" fill="#fff">4</text><rect x="124.59" y="51" width="437.41" height="16" rx="3" fill="#E0A53B"></rect><text x="343.29" y="63" font-size="10.5" font-weight="700" text-anchor="middle" fill="#fff">139</text><text x="572" y="63" font-size="11" font-weight="400" text-anchor="start" fill="#8b949e">143 fails</text><text x="8" y="97" font-size="12.5" font-weight="600" text-anchor="start" fill="#e6edf3">gemini</text><rect x="110" y="85" width="6.29" height="16" rx="3" fill="#E5534B"></rect><text x="113.15" y="97" font-size="10.5" font-weight="700" text-anchor="middle" fill="#fff">2</text><rect x="118.29" y="85" width="185.66" height="16" rx="3" fill="#E0A53B"></rect><text x="211.13" y="97" font-size="10.5" font-weight="700" text-anchor="middle" fill="#fff">59</text><text x="313.96" y="97" font-size="11" font-weight="400" text-anchor="start" fill="#8b949e">61 fails</text><text x="8" y="131" font-size="12.5" font-weight="600" text-anchor="start" fill="#e6edf3">openai</text><rect x="110" y="119" width="12.59" height="16" rx="3" fill="#E5534B"></rect><text x="116.29" y="131" font-size="10.5" font-weight="700" text-anchor="middle" fill="#fff">4</text><rect x="124.59" y="119" width="135.31" height="16" rx="3" fill="#E0A53B"></rect><text x="192.24" y="131" font-size="10.5" font-weight="700" text-anchor="middle" fill="#fff">43</text><text x="269.9" y="131" font-size="11" font-weight="400" text-anchor="start" fill="#8b949e">47 fails</text><text x="8" y="165" font-size="12.5" font-weight="600" text-anchor="start" fill="#e6edf3">deepseek</text><rect x="110" y="153" width="91.26" height="16" rx="3" fill="#E5534B"></rect><text x="155.63" y="165" font-size="10.5" font-weight="700" text-anchor="middle" fill="#fff">29</text><rect x="203.26" y="153" width="9.44" height="16" rx="3" fill="#E0A53B"></rect><text x="207.98" y="165" font-size="10.5" font-weight="700" text-anchor="middle" fill="#fff">3</text><text x="222.7" y="165" font-size="11" font-weight="400" text-anchor="start" fill="#8b949e">32 fails</text><text x="8" y="199" font-size="12.5" font-weight="600" text-anchor="start" fill="#e6edf3">llama</text><rect x="110" y="187" width="53.5" height="16" rx="3" fill="#E5534B"></rect><text x="136.75" y="199" font-size="10.5" font-weight="700" text-anchor="middle" fill="#fff">17</text><rect x="165.5" y="187" width="9.44" height="16" rx="3" fill="#E0A53B"></rect><text x="170.22" y="199" font-size="10.5" font-weight="700" text-anchor="middle" fill="#fff">3</text><rect x="176.94" y="187" width="3.15" height="16" rx="3" fill="#A371F7"></rect><text x="178.51" y="199" font-size="10.5" font-weight="700" text-anchor="middle" fill="#fff">1</text><text x="190.08" y="199" font-size="11" font-weight="400" text-anchor="start" fill="#8b949e">21 fails</text><text x="8" y="233" font-size="12.5" font-weight="600" text-anchor="start" fill="#e6edf3">mistral</text><rect x="110" y="221" width="3.15" height="16" rx="3" fill="#E0A53B"></rect><text x="111.57" y="233" font-size="10.5" font-weight="700" text-anchor="middle" fill="#fff">1</text><rect x="115.15" y="221" width="6.29" height="16" rx="3" fill="#A371F7"></rect><text x="118.29" y="233" font-size="10.5" font-weight="700" text-anchor="middle" fill="#fff">2</text><text x="131.44" y="233" font-size="11" font-weight="400" text-anchor="start" fill="#8b949e">3 fails</text></svg>
