<svg xmlns="http://www.w3.org/2000/svg" viewBox="0 0 760 254" width="760" height="254" role="img" aria-label="Failure categories by provider" font-family="-apple-system,BlinkMacSystemFont,'Segoe UI',system-ui,sans-serif"><rect x="110" y="18" width="11" height="11" rx="2.5" fill="#E5534B"></rect><text x="127" y="28" font-size="11" font-weight="400" text-anchor="start" fill="#656d76">classification</text><rect x="246.4" y="18" width="11" height="11" rx="2.5" fill="#E0A53B"></rect><text x="263.4" y="28" font-size="11" font-weight="400" text-anchor="start" fill="#656d76">deterministic</text><rect x="376.2" y="18" width="11" height="11" rx="2.5" fill="#A371F7"></rect><text x="393.2" y="28" font-size="11" font-weight="400" text-anchor="start" fill="#656d76">infra</text><text x="8" y="63" font-size="12.5" font-weight="600" text-anchor="start" fill="#1f2328">anthropic</text><rect x="110" y="51" width="11.61" height="16" rx="3" fill="#E5534B"></rect><text x="115.81" y="63" font-size="10.5" font-weight="700" text-anchor="middle" fill="#fff">4</text><rect x="123.61" y="51" width="438.39" height="16" rx="3" fill="#E0A53B"></rect><text x="342.81" y="63" font-size="10.5" font-weight="700" text-anchor="middle" fill="#fff">151</text><text x="572" y="63" font-size="11" font-weight="400" text-anchor="start" fill="#656d76">155 fails</text><text x="8" y="97" font-size="12.5" font-weight="600" text-anchor="start" fill="#1f2328">gemini</text><rect x="110" y="85" width="5.81" height="16" rx="3" fill="#E5534B"></rect><text x="112.9" y="97" font-size="10.5" font-weight="700" text-anchor="middle" fill="#fff">2</text><rect x="117.81" y="85" width="171.29" height="16" rx="3" fill="#E0A53B"></rect><text x="203.45" y="97" font-size="10.5" font-weight="700" text-anchor="middle" fill="#fff">59</text><text x="299.1" y="97" font-size="11" font-weight="400" text-anchor="start" fill="#656d76">61 fails</text><text x="8" y="131" font-size="12.5" font-weight="600" text-anchor="start" fill="#1f2328">openai</text><rect x="110" y="119" width="11.61" height="16" rx="3" fill="#E5534B"></rect><text x="115.81" y="131" font-size="10.5" font-weight="700" text-anchor="middle" fill="#fff">4</text><rect x="123.61" y="119" width="124.84" height="16" rx="3" fill="#E0A53B"></rect><text x="186.03" y="131" font-size="10.5" font-weight="700" text-anchor="middle" fill="#fff">43</text><text x="258.45" y="131" font-size="11" font-weight="400" text-anchor="start" fill="#656d76">47 fails</text><text x="8" y="165" font-size="12.5" font-weight="600" text-anchor="start" fill="#1f2328">deepseek</text><rect x="110" y="153" width="90" height="16" rx="3" fill="#E5534B"></rect><text x="155" y="165" font-size="10.5" font-weight="700" text-anchor="middle" fill="#fff">31</text><rect x="202" y="153" width="8.71" height="16" rx="3" fill="#E0A53B"></rect><text x="206.35" y="165" font-size="10.5" font-weight="700" text-anchor="middle" fill="#fff">3</text><text x="220.71" y="165" font-size="11" font-weight="400" text-anchor="start" fill="#656d76">34 fails</text><text x="8" y="199" font-size="12.5" font-weight="600" text-anchor="start" fill="#1f2328">llama</text><rect x="110" y="187" width="52.26" height="16" rx="3" fill="#E5534B"></rect><text x="136.13" y="199" font-size="10.5" font-weight="700" text-anchor="middle" fill="#fff">18</text><rect x="164.26" y="187" width="8.71" height="16" rx="3" fill="#E0A53B"></rect><text x="168.61" y="199" font-size="10.5" font-weight="700" text-anchor="middle" fill="#fff">3</text><rect x="174.97" y="187" width="2.9" height="16" rx="3" fill="#A371F7"></rect><text x="176.42" y="199" font-size="10.5" font-weight="700" text-anchor="middle" fill="#fff">1</text><text x="187.87" y="199" font-size="11" font-weight="400" text-anchor="start" fill="#656d76">22 fails</text><text x="8" y="233" font-size="12.5" font-weight="600" text-anchor="start" fill="#1f2328">mistral</text><rect x="110" y="221" width="2.9" height="16" rx="3" fill="#E0A53B"></rect><text x="111.45" y="233" font-size="10.5" font-weight="700" text-anchor="middle" fill="#fff">1</text><rect x="114.9" y="221" width="5.81" height="16" rx="3" fill="#A371F7"></rect><text x="117.81" y="233" font-size="10.5" font-weight="700" text-anchor="middle" fill="#fff">2</text><text x="130.71" y="233" font-size="11" font-weight="400" text-anchor="start" fill="#656d76">3 fails</text></svg>
