<svg xmlns="http://www.w3.org/2000/svg" viewBox="0 0 760 254" width="760" height="254" role="img" aria-label="Failure categories by provider" font-family="-apple-system,BlinkMacSystemFont,'Segoe UI',system-ui,sans-serif"><rect x="110" y="18" width="11" height="11" rx="2.5" fill="#E5534B"></rect><text x="127" y="28" font-size="11" font-weight="400" text-anchor="start" fill="#8b949e">classification</text><rect x="246.4" y="18" width="11" height="11" rx="2.5" fill="#E0A53B"></rect><text x="263.4" y="28" font-size="11" font-weight="400" text-anchor="start" fill="#8b949e">deterministic</text><rect x="376.2" y="18" width="11" height="11" rx="2.5" fill="#A371F7"></rect><text x="393.2" y="28" font-size="11" font-weight="400" text-anchor="start" fill="#8b949e">infra</text><text x="8" y="63" font-size="12.5" font-weight="600" text-anchor="start" fill="#e6edf3">anthropic</text><rect x="110" y="51" width="18.95" height="16" rx="3" fill="#E5534B"></rect><text x="119.47" y="63" font-size="10.5" font-weight="700" text-anchor="middle" fill="#fff">4</text><rect x="130.95" y="51" width="431.05" height="16" rx="3" fill="#E0A53B"></rect><text x="346.47" y="63" font-size="10.5" font-weight="700" text-anchor="middle" fill="#fff">91</text><text x="572" y="63" font-size="11" font-weight="400" text-anchor="start" fill="#8b949e">95 fails</text><text x="8" y="97" font-size="12.5" font-weight="600" text-anchor="start" fill="#e6edf3">gemini</text><rect x="110" y="85" width="274.74" height="16" rx="3" fill="#E0A53B"></rect><text x="247.37" y="97" font-size="10.5" font-weight="700" text-anchor="middle" fill="#fff">58</text><text x="394.74" y="97" font-size="11" font-weight="400" text-anchor="start" fill="#8b949e">58 fails</text><text x="8" y="131" font-size="12.5" font-weight="600" text-anchor="start" fill="#e6edf3">deepseek</text><rect x="110" y="119" width="118.42" height="16" rx="3" fill="#E5534B"></rect><text x="169.21" y="131" font-size="10.5" font-weight="700" text-anchor="middle" fill="#fff">25</text><rect x="230.42" y="119" width="14.21" height="16" rx="3" fill="#E0A53B"></rect><text x="237.53" y="131" font-size="10.5" font-weight="700" text-anchor="middle" fill="#fff">3</text><text x="254.63" y="131" font-size="11" font-weight="400" text-anchor="start" fill="#8b949e">28 fails</text><text x="8" y="165" font-size="12.5" font-weight="600" text-anchor="start" fill="#e6edf3">llama</text><rect x="110" y="153" width="71.05" height="16" rx="3" fill="#E5534B"></rect><text x="145.53" y="165" font-size="10.5" font-weight="700" text-anchor="middle" fill="#fff">15</text><rect x="183.05" y="153" width="9.47" height="16" rx="3" fill="#E0A53B"></rect><text x="187.79" y="165" font-size="10.5" font-weight="700" text-anchor="middle" fill="#fff">2</text><rect x="194.53" y="153" width="4.74" height="16" rx="3" fill="#A371F7"></rect><text x="196.89" y="165" font-size="10.5" font-weight="700" text-anchor="middle" fill="#fff">1</text><text x="209.26" y="165" font-size="11" font-weight="400" text-anchor="start" fill="#8b949e">18 fails</text><text x="8" y="199" font-size="12.5" font-weight="600" text-anchor="start" fill="#e6edf3">openai</text><rect x="110" y="187" width="18.95" height="16" rx="3" fill="#E5534B"></rect><text x="119.47" y="199" font-size="10.5" font-weight="700" text-anchor="middle" fill="#fff">4</text><rect x="130.95" y="187" width="9.47" height="16" rx="3" fill="#E0A53B"></rect><text x="135.68" y="199" font-size="10.5" font-weight="700" text-anchor="middle" fill="#fff">2</text><text x="150.42" y="199" font-size="11" font-weight="400" text-anchor="start" fill="#8b949e">6 fails</text><text x="8" y="233" font-size="12.5" font-weight="600" text-anchor="start" fill="#e6edf3">mistral</text><rect x="110" y="221" width="4.74" height="16" rx="3" fill="#E0A53B"></rect><text x="112.37" y="233" font-size="10.5" font-weight="700" text-anchor="middle" fill="#fff">1</text><rect x="116.74" y="221" width="4.74" height="16" rx="3" fill="#A371F7"></rect><text x="119.11" y="233" font-size="10.5" font-weight="700" text-anchor="middle" fill="#fff">1</text><text x="131.47" y="233" font-size="11" font-weight="400" text-anchor="start" fill="#8b949e">2 fails</text></svg>
