<svg xmlns="http://www.w3.org/2000/svg" viewBox="0 0 760 254" width="760" height="254" role="img" aria-label="Failure categories by provider" font-family="-apple-system,BlinkMacSystemFont,'Segoe UI',system-ui,sans-serif"><rect x="110" y="18" width="11" height="11" rx="2.5" fill="#E5534B"></rect><text x="127" y="28" font-size="11" font-weight="400" text-anchor="start" fill="#8b949e">classification</text><rect x="246.4" y="18" width="11" height="11" rx="2.5" fill="#E0A53B"></rect><text x="263.4" y="28" font-size="11" font-weight="400" text-anchor="start" fill="#8b949e">deterministic</text><rect x="376.2" y="18" width="11" height="11" rx="2.5" fill="#A371F7"></rect><text x="393.2" y="28" font-size="11" font-weight="400" text-anchor="start" fill="#8b949e">infra</text><text x="8" y="63" font-size="12.5" font-weight="600" text-anchor="start" fill="#e6edf3">anthropic</text><rect x="110" y="51" width="15.13" height="16" rx="3" fill="#E5534B"></rect><text x="117.56" y="63" font-size="10.5" font-weight="700" text-anchor="middle" fill="#fff">4</text><rect x="127.13" y="51" width="434.87" height="16" rx="3" fill="#E0A53B"></rect><text x="344.56" y="63" font-size="10.5" font-weight="700" text-anchor="middle" fill="#fff">115</text><text x="572" y="63" font-size="11" font-weight="400" text-anchor="start" fill="#8b949e">119 fails</text><text x="8" y="97" font-size="12.5" font-weight="600" text-anchor="start" fill="#e6edf3">gemini</text><rect x="110" y="85" width="7.56" height="16" rx="3" fill="#E5534B"></rect><text x="113.78" y="97" font-size="10.5" font-weight="700" text-anchor="middle" fill="#fff">2</text><rect x="119.56" y="85" width="223.11" height="16" rx="3" fill="#E0A53B"></rect><text x="231.12" y="97" font-size="10.5" font-weight="700" text-anchor="middle" fill="#fff">59</text><text x="352.67" y="97" font-size="11" font-weight="400" text-anchor="start" fill="#8b949e">61 fails</text><text x="8" y="131" font-size="12.5" font-weight="600" text-anchor="start" fill="#e6edf3">deepseek</text><rect x="110" y="119" width="102.1" height="16" rx="3" fill="#E5534B"></rect><text x="161.05" y="131" font-size="10.5" font-weight="700" text-anchor="middle" fill="#fff">27</text><rect x="214.1" y="119" width="11.34" height="16" rx="3" fill="#E0A53B"></rect><text x="219.77" y="131" font-size="10.5" font-weight="700" text-anchor="middle" fill="#fff">3</text><text x="235.45" y="131" font-size="11" font-weight="400" text-anchor="start" fill="#8b949e">30 fails</text><text x="8" y="165" font-size="12.5" font-weight="600" text-anchor="start" fill="#e6edf3">openai</text><rect x="110" y="153" width="15.13" height="16" rx="3" fill="#E5534B"></rect><text x="117.56" y="165" font-size="10.5" font-weight="700" text-anchor="middle" fill="#fff">4</text><rect x="127.13" y="153" width="75.63" height="16" rx="3" fill="#E0A53B"></rect><text x="164.94" y="165" font-size="10.5" font-weight="700" text-anchor="middle" fill="#fff">20</text><text x="212.76" y="165" font-size="11" font-weight="400" text-anchor="start" fill="#8b949e">24 fails</text><text x="8" y="199" font-size="12.5" font-weight="600" text-anchor="start" fill="#e6edf3">llama</text><rect x="110" y="187" width="64.29" height="16" rx="3" fill="#E5534B"></rect><text x="142.14" y="199" font-size="10.5" font-weight="700" text-anchor="middle" fill="#fff">17</text><rect x="176.29" y="187" width="7.56" height="16" rx="3" fill="#E0A53B"></rect><text x="180.07" y="199" font-size="10.5" font-weight="700" text-anchor="middle" fill="#fff">2</text><rect x="185.85" y="187" width="3.78" height="16" rx="3" fill="#A371F7"></rect><text x="187.74" y="199" font-size="10.5" font-weight="700" text-anchor="middle" fill="#fff">1</text><text x="199.63" y="199" font-size="11" font-weight="400" text-anchor="start" fill="#8b949e">20 fails</text><text x="8" y="233" font-size="12.5" font-weight="600" text-anchor="start" fill="#e6edf3">mistral</text><rect x="110" y="221" width="3.78" height="16" rx="3" fill="#E0A53B"></rect><text x="111.89" y="233" font-size="10.5" font-weight="700" text-anchor="middle" fill="#fff">1</text><rect x="115.78" y="221" width="3.78" height="16" rx="3" fill="#A371F7"></rect><text x="117.67" y="233" font-size="10.5" font-weight="700" text-anchor="middle" fill="#fff">1</text><text x="129.56" y="233" font-size="11" font-weight="400" text-anchor="start" fill="#8b949e">2 fails</text></svg>
