<svg xmlns="http://www.w3.org/2000/svg" viewBox="0 0 760 254" width="760" height="254" role="img" aria-label="Failure categories by provider" font-family="-apple-system,BlinkMacSystemFont,'Segoe UI',system-ui,sans-serif"><rect x="110" y="18" width="11" height="11" rx="2.5" fill="#E5534B"></rect><text x="127" y="28" font-size="11" font-weight="400" text-anchor="start" fill="#656d76">classification</text><rect x="246.4" y="18" width="11" height="11" rx="2.5" fill="#E0A53B"></rect><text x="263.4" y="28" font-size="11" font-weight="400" text-anchor="start" fill="#656d76">deterministic</text><rect x="376.2" y="18" width="11" height="11" rx="2.5" fill="#A371F7"></rect><text x="393.2" y="28" font-size="11" font-weight="400" text-anchor="start" fill="#656d76">infra</text><text x="8" y="63" font-size="12.5" font-weight="600" text-anchor="start" fill="#1f2328">anthropic</text><rect x="110" y="51" width="17.14" height="16" rx="3" fill="#E5534B"></rect><text x="118.57" y="63" font-size="10.5" font-weight="700" text-anchor="middle" fill="#fff">4</text><rect x="129.14" y="51" width="432.86" height="16" rx="3" fill="#E0A53B"></rect><text x="345.57" y="63" font-size="10.5" font-weight="700" text-anchor="middle" fill="#fff">101</text><text x="572" y="63" font-size="11" font-weight="400" text-anchor="start" fill="#656d76">105 fails</text><text x="8" y="97" font-size="12.5" font-weight="600" text-anchor="start" fill="#1f2328">gemini</text><rect x="110" y="85" width="4.29" height="16" rx="3" fill="#E5534B"></rect><text x="112.14" y="97" font-size="10.5" font-weight="700" text-anchor="middle" fill="#fff">1</text><rect x="116.29" y="85" width="252.86" height="16" rx="3" fill="#E0A53B"></rect><text x="242.71" y="97" font-size="10.5" font-weight="700" text-anchor="middle" fill="#fff">59</text><text x="379.14" y="97" font-size="11" font-weight="400" text-anchor="start" fill="#656d76">60 fails</text><text x="8" y="131" font-size="12.5" font-weight="600" text-anchor="start" fill="#1f2328">deepseek</text><rect x="110" y="119" width="115.71" height="16" rx="3" fill="#E5534B"></rect><text x="167.86" y="131" font-size="10.5" font-weight="700" text-anchor="middle" fill="#fff">27</text><rect x="227.71" y="119" width="12.86" height="16" rx="3" fill="#E0A53B"></rect><text x="234.14" y="131" font-size="10.5" font-weight="700" text-anchor="middle" fill="#fff">3</text><text x="250.57" y="131" font-size="11" font-weight="400" text-anchor="start" fill="#656d76">30 fails</text><text x="8" y="165" font-size="12.5" font-weight="600" text-anchor="start" fill="#1f2328">llama</text><rect x="110" y="153" width="68.57" height="16" rx="3" fill="#E5534B"></rect><text x="144.29" y="165" font-size="10.5" font-weight="700" text-anchor="middle" fill="#fff">16</text><rect x="180.57" y="153" width="8.57" height="16" rx="3" fill="#E0A53B"></rect><text x="184.86" y="165" font-size="10.5" font-weight="700" text-anchor="middle" fill="#fff">2</text><rect x="191.14" y="153" width="4.29" height="16" rx="3" fill="#A371F7"></rect><text x="193.29" y="165" font-size="10.5" font-weight="700" text-anchor="middle" fill="#fff">1</text><text x="205.43" y="165" font-size="11" font-weight="400" text-anchor="start" fill="#656d76">19 fails</text><text x="8" y="199" font-size="12.5" font-weight="600" text-anchor="start" fill="#1f2328">openai</text><rect x="110" y="187" width="17.14" height="16" rx="3" fill="#E5534B"></rect><text x="118.57" y="199" font-size="10.5" font-weight="700" text-anchor="middle" fill="#fff">4</text><rect x="129.14" y="187" width="8.57" height="16" rx="3" fill="#E0A53B"></rect><text x="133.43" y="199" font-size="10.5" font-weight="700" text-anchor="middle" fill="#fff">2</text><text x="147.71" y="199" font-size="11" font-weight="400" text-anchor="start" fill="#656d76">6 fails</text><text x="8" y="233" font-size="12.5" font-weight="600" text-anchor="start" fill="#1f2328">mistral</text><rect x="110" y="221" width="4.29" height="16" rx="3" fill="#E0A53B"></rect><text x="112.14" y="233" font-size="10.5" font-weight="700" text-anchor="middle" fill="#fff">1</text><rect x="116.29" y="221" width="4.29" height="16" rx="3" fill="#A371F7"></rect><text x="118.43" y="233" font-size="10.5" font-weight="700" text-anchor="middle" fill="#fff">1</text><text x="130.57" y="233" font-size="11" font-weight="400" text-anchor="start" fill="#656d76">2 fails</text></svg>
