<svg xmlns="http://www.w3.org/2000/svg" viewBox="0 0 760 254" width="760" height="254" role="img" aria-label="Failure categories by provider" font-family="-apple-system,BlinkMacSystemFont,'Segoe UI',system-ui,sans-serif"><rect x="110" y="18" width="11" height="11" rx="2.5" fill="#E5534B"></rect><text x="127" y="28" font-size="11" font-weight="400" text-anchor="start" fill="#656d76">classification</text><rect x="246.4" y="18" width="11" height="11" rx="2.5" fill="#E0A53B"></rect><text x="263.4" y="28" font-size="11" font-weight="400" text-anchor="start" fill="#656d76">deterministic</text><rect x="376.2" y="18" width="11" height="11" rx="2.5" fill="#A371F7"></rect><text x="393.2" y="28" font-size="11" font-weight="400" text-anchor="start" fill="#656d76">infra</text><text x="8" y="63" font-size="12.5" font-weight="600" text-anchor="start" fill="#1f2328">gemini</text><rect x="110" y="51" width="450" height="16" rx="3" fill="#E0A53B"></rect><text x="335" y="63" font-size="10.5" font-weight="700" text-anchor="middle" fill="#fff">57</text><text x="570" y="63" font-size="11" font-weight="400" text-anchor="start" fill="#656d76">57 fails</text><text x="8" y="97" font-size="12.5" font-weight="600" text-anchor="start" fill="#1f2328">deepseek</text><rect x="110" y="85" width="126.32" height="16" rx="3" fill="#E5534B"></rect><text x="173.16" y="97" font-size="10.5" font-weight="700" text-anchor="middle" fill="#fff">16</text><rect x="238.32" y="85" width="15.79" height="16" rx="3" fill="#E0A53B"></rect><text x="246.21" y="97" font-size="10.5" font-weight="700" text-anchor="middle" fill="#fff">2</text><text x="264.11" y="97" font-size="11" font-weight="400" text-anchor="start" fill="#656d76">18 fails</text><text x="8" y="131" font-size="12.5" font-weight="600" text-anchor="start" fill="#1f2328">anthropic</text><rect x="110" y="119" width="31.58" height="16" rx="3" fill="#E5534B"></rect><text x="125.79" y="131" font-size="10.5" font-weight="700" text-anchor="middle" fill="#fff">4</text><rect x="143.58" y="119" width="86.84" height="16" rx="3" fill="#E0A53B"></rect><text x="187" y="131" font-size="10.5" font-weight="700" text-anchor="middle" fill="#fff">11</text><text x="240.42" y="131" font-size="11" font-weight="400" text-anchor="start" fill="#656d76">15 fails</text><text x="8" y="165" font-size="12.5" font-weight="600" text-anchor="start" fill="#1f2328">llama</text><rect x="110" y="153" width="86.84" height="16" rx="3" fill="#E5534B"></rect><text x="153.42" y="165" font-size="10.5" font-weight="700" text-anchor="middle" fill="#fff">11</text><rect x="198.84" y="153" width="15.79" height="16" rx="3" fill="#E0A53B"></rect><text x="206.74" y="165" font-size="10.5" font-weight="700" text-anchor="middle" fill="#fff">2</text><rect x="216.63" y="153" width="7.89" height="16" rx="3" fill="#A371F7"></rect><text x="220.58" y="165" font-size="10.5" font-weight="700" text-anchor="middle" fill="#fff">1</text><text x="234.53" y="165" font-size="11" font-weight="400" text-anchor="start" fill="#656d76">14 fails</text><text x="8" y="199" font-size="12.5" font-weight="600" text-anchor="start" fill="#1f2328">openai</text><rect x="110" y="187" width="31.58" height="16" rx="3" fill="#E5534B"></rect><text x="125.79" y="199" font-size="10.5" font-weight="700" text-anchor="middle" fill="#fff">4</text><rect x="143.58" y="187" width="15.79" height="16" rx="3" fill="#E0A53B"></rect><text x="151.47" y="199" font-size="10.5" font-weight="700" text-anchor="middle" fill="#fff">2</text><text x="169.37" y="199" font-size="11" font-weight="400" text-anchor="start" fill="#656d76">6 fails</text><text x="8" y="233" font-size="12.5" font-weight="600" text-anchor="start" fill="#1f2328">mistral</text><rect x="110" y="221" width="7.89" height="16" rx="3" fill="#E0A53B"></rect><text x="113.95" y="233" font-size="10.5" font-weight="700" text-anchor="middle" fill="#fff">1</text><rect x="119.89" y="221" width="7.89" height="16" rx="3" fill="#A371F7"></rect><text x="123.84" y="233" font-size="10.5" font-weight="700" text-anchor="middle" fill="#fff">1</text><text x="137.79" y="233" font-size="11" font-weight="400" text-anchor="start" fill="#656d76">2 fails</text></svg>
