<svg xmlns="http://www.w3.org/2000/svg" viewBox="0 0 760 254" width="760" height="254" role="img" aria-label="Failure categories by provider" font-family="-apple-system,BlinkMacSystemFont,'Segoe UI',system-ui,sans-serif"><rect x="110" y="18" width="11" height="11" rx="2.5" fill="#E5534B"></rect><text x="127" y="28" font-size="11" font-weight="400" text-anchor="start" fill="#656d76">classification</text><rect x="246.4" y="18" width="11" height="11" rx="2.5" fill="#E0A53B"></rect><text x="263.4" y="28" font-size="11" font-weight="400" text-anchor="start" fill="#656d76">deterministic</text><rect x="376.2" y="18" width="11" height="11" rx="2.5" fill="#A371F7"></rect><text x="393.2" y="28" font-size="11" font-weight="400" text-anchor="start" fill="#656d76">infra</text><text x="8" y="63" font-size="12.5" font-weight="600" text-anchor="start" fill="#1f2328">anthropic</text><rect x="110" y="51" width="26.09" height="16" rx="3" fill="#E5534B"></rect><text x="123.04" y="63" font-size="10.5" font-weight="700" text-anchor="middle" fill="#fff">4</text><rect x="138.09" y="51" width="423.91" height="16" rx="3" fill="#E0A53B"></rect><text x="350.04" y="63" font-size="10.5" font-weight="700" text-anchor="middle" fill="#fff">65</text><text x="572" y="63" font-size="11" font-weight="400" text-anchor="start" fill="#656d76">69 fails</text><text x="8" y="97" font-size="12.5" font-weight="600" text-anchor="start" fill="#1f2328">gemini</text><rect x="110" y="85" width="378.26" height="16" rx="3" fill="#E0A53B"></rect><text x="299.13" y="97" font-size="10.5" font-weight="700" text-anchor="middle" fill="#fff">58</text><text x="498.26" y="97" font-size="11" font-weight="400" text-anchor="start" fill="#656d76">58 fails</text><text x="8" y="131" font-size="12.5" font-weight="600" text-anchor="start" fill="#1f2328">deepseek</text><rect x="110" y="119" width="123.91" height="16" rx="3" fill="#E5534B"></rect><text x="171.96" y="131" font-size="10.5" font-weight="700" text-anchor="middle" fill="#fff">19</text><rect x="235.91" y="119" width="19.57" height="16" rx="3" fill="#E0A53B"></rect><text x="245.7" y="131" font-size="10.5" font-weight="700" text-anchor="middle" fill="#fff">3</text><text x="265.48" y="131" font-size="11" font-weight="400" text-anchor="start" fill="#656d76">22 fails</text><text x="8" y="165" font-size="12.5" font-weight="600" text-anchor="start" fill="#1f2328">llama</text><rect x="110" y="153" width="97.83" height="16" rx="3" fill="#E5534B"></rect><text x="158.91" y="165" font-size="10.5" font-weight="700" text-anchor="middle" fill="#fff">15</text><rect x="209.83" y="153" width="13.04" height="16" rx="3" fill="#E0A53B"></rect><text x="216.35" y="165" font-size="10.5" font-weight="700" text-anchor="middle" fill="#fff">2</text><rect x="224.87" y="153" width="6.52" height="16" rx="3" fill="#A371F7"></rect><text x="228.13" y="165" font-size="10.5" font-weight="700" text-anchor="middle" fill="#fff">1</text><text x="241.39" y="165" font-size="11" font-weight="400" text-anchor="start" fill="#656d76">18 fails</text><text x="8" y="199" font-size="12.5" font-weight="600" text-anchor="start" fill="#1f2328">openai</text><rect x="110" y="187" width="26.09" height="16" rx="3" fill="#E5534B"></rect><text x="123.04" y="199" font-size="10.5" font-weight="700" text-anchor="middle" fill="#fff">4</text><rect x="138.09" y="187" width="13.04" height="16" rx="3" fill="#E0A53B"></rect><text x="144.61" y="199" font-size="10.5" font-weight="700" text-anchor="middle" fill="#fff">2</text><text x="161.13" y="199" font-size="11" font-weight="400" text-anchor="start" fill="#656d76">6 fails</text><text x="8" y="233" font-size="12.5" font-weight="600" text-anchor="start" fill="#1f2328">mistral</text><rect x="110" y="221" width="6.52" height="16" rx="3" fill="#E0A53B"></rect><text x="113.26" y="233" font-size="10.5" font-weight="700" text-anchor="middle" fill="#fff">1</text><rect x="118.52" y="221" width="6.52" height="16" rx="3" fill="#A371F7"></rect><text x="121.78" y="233" font-size="10.5" font-weight="700" text-anchor="middle" fill="#fff">1</text><text x="135.04" y="233" font-size="11" font-weight="400" text-anchor="start" fill="#656d76">2 fails</text></svg>
