<svg xmlns="http://www.w3.org/2000/svg" viewBox="0 0 760 254" width="760" height="254" role="img" aria-label="Failure categories by provider" font-family="-apple-system,BlinkMacSystemFont,'Segoe UI',system-ui,sans-serif"><rect x="110" y="18" width="11" height="11" rx="2.5" fill="#E5534B"></rect><text x="127" y="28" font-size="11" font-weight="400" text-anchor="start" fill="#656d76">classification</text><rect x="246.4" y="18" width="11" height="11" rx="2.5" fill="#E0A53B"></rect><text x="263.4" y="28" font-size="11" font-weight="400" text-anchor="start" fill="#656d76">deterministic</text><rect x="376.2" y="18" width="11" height="11" rx="2.5" fill="#A371F7"></rect><text x="393.2" y="28" font-size="11" font-weight="400" text-anchor="start" fill="#656d76">infra</text><text x="8" y="63" font-size="12.5" font-weight="600" text-anchor="start" fill="#1f2328">anthropic</text><rect x="110" y="51" width="11.32" height="16" rx="3" fill="#E5534B"></rect><text x="115.66" y="63" font-size="10.5" font-weight="700" text-anchor="middle" fill="#fff">4</text><rect x="123.32" y="51" width="438.68" height="16" rx="3" fill="#E0A53B"></rect><text x="342.66" y="63" font-size="10.5" font-weight="700" text-anchor="middle" fill="#fff">155</text><text x="572" y="63" font-size="11" font-weight="400" text-anchor="start" fill="#656d76">159 fails</text><text x="8" y="97" font-size="12.5" font-weight="600" text-anchor="start" fill="#1f2328">gemini</text><rect x="110" y="85" width="5.66" height="16" rx="3" fill="#E5534B"></rect><text x="112.83" y="97" font-size="10.5" font-weight="700" text-anchor="middle" fill="#fff">2</text><rect x="117.66" y="85" width="166.98" height="16" rx="3" fill="#E0A53B"></rect><text x="201.15" y="97" font-size="10.5" font-weight="700" text-anchor="middle" fill="#fff">59</text><text x="294.64" y="97" font-size="11" font-weight="400" text-anchor="start" fill="#656d76">61 fails</text><text x="8" y="131" font-size="12.5" font-weight="600" text-anchor="start" fill="#1f2328">openai</text><rect x="110" y="119" width="11.32" height="16" rx="3" fill="#E5534B"></rect><text x="115.66" y="131" font-size="10.5" font-weight="700" text-anchor="middle" fill="#fff">4</text><rect x="123.32" y="119" width="121.7" height="16" rx="3" fill="#E0A53B"></rect><text x="184.17" y="131" font-size="10.5" font-weight="700" text-anchor="middle" fill="#fff">43</text><text x="255.02" y="131" font-size="11" font-weight="400" text-anchor="start" fill="#656d76">47 fails</text><text x="8" y="165" font-size="12.5" font-weight="600" text-anchor="start" fill="#1f2328">deepseek</text><rect x="110" y="153" width="87.74" height="16" rx="3" fill="#E5534B"></rect><text x="153.87" y="165" font-size="10.5" font-weight="700" text-anchor="middle" fill="#fff">31</text><rect x="199.74" y="153" width="8.49" height="16" rx="3" fill="#E0A53B"></rect><text x="203.98" y="165" font-size="10.5" font-weight="700" text-anchor="middle" fill="#fff">3</text><text x="218.23" y="165" font-size="11" font-weight="400" text-anchor="start" fill="#656d76">34 fails</text><text x="8" y="199" font-size="12.5" font-weight="600" text-anchor="start" fill="#1f2328">llama</text><rect x="110" y="187" width="50.94" height="16" rx="3" fill="#E5534B"></rect><text x="135.47" y="199" font-size="10.5" font-weight="700" text-anchor="middle" fill="#fff">18</text><rect x="162.94" y="187" width="8.49" height="16" rx="3" fill="#E0A53B"></rect><text x="167.19" y="199" font-size="10.5" font-weight="700" text-anchor="middle" fill="#fff">3</text><rect x="173.43" y="187" width="2.83" height="16" rx="3" fill="#A371F7"></rect><text x="174.85" y="199" font-size="10.5" font-weight="700" text-anchor="middle" fill="#fff">1</text><text x="186.26" y="199" font-size="11" font-weight="400" text-anchor="start" fill="#656d76">22 fails</text><text x="8" y="233" font-size="12.5" font-weight="600" text-anchor="start" fill="#1f2328">mistral</text><rect x="110" y="221" width="2.83" height="16" rx="3" fill="#E0A53B"></rect><text x="111.42" y="233" font-size="10.5" font-weight="700" text-anchor="middle" fill="#fff">1</text><rect x="114.83" y="221" width="5.66" height="16" rx="3" fill="#A371F7"></rect><text x="117.66" y="233" font-size="10.5" font-weight="700" text-anchor="middle" fill="#fff">2</text><text x="130.49" y="233" font-size="11" font-weight="400" text-anchor="start" fill="#656d76">3 fails</text></svg>
