<svg xmlns="http://www.w3.org/2000/svg" viewBox="0 0 760 254" width="760" height="254" role="img" aria-label="Failure categories by provider" font-family="-apple-system,BlinkMacSystemFont,'Segoe UI',system-ui,sans-serif"><rect x="110" y="18" width="11" height="11" rx="2.5" fill="#E5534B"></rect><text x="127" y="28" font-size="11" font-weight="400" text-anchor="start" fill="#656d76">classification</text><rect x="246.4" y="18" width="11" height="11" rx="2.5" fill="#E0A53B"></rect><text x="263.4" y="28" font-size="11" font-weight="400" text-anchor="start" fill="#656d76">deterministic</text><rect x="376.2" y="18" width="11" height="11" rx="2.5" fill="#A371F7"></rect><text x="393.2" y="28" font-size="11" font-weight="400" text-anchor="start" fill="#656d76">infra</text><text x="8" y="63" font-size="12.5" font-weight="600" text-anchor="start" fill="#1f2328">anthropic</text><rect x="110" y="51" width="29.51" height="16" rx="3" fill="#E5534B"></rect><text x="124.75" y="63" font-size="10.5" font-weight="700" text-anchor="middle" fill="#fff">4</text><rect x="141.51" y="51" width="420.49" height="16" rx="3" fill="#E0A53B"></rect><text x="351.75" y="63" font-size="10.5" font-weight="700" text-anchor="middle" fill="#fff">57</text><text x="572" y="63" font-size="11" font-weight="400" text-anchor="start" fill="#656d76">61 fails</text><text x="8" y="97" font-size="12.5" font-weight="600" text-anchor="start" fill="#1f2328">gemini</text><rect x="110" y="85" width="427.87" height="16" rx="3" fill="#E0A53B"></rect><text x="323.93" y="97" font-size="10.5" font-weight="700" text-anchor="middle" fill="#fff">58</text><text x="547.87" y="97" font-size="11" font-weight="400" text-anchor="start" fill="#656d76">58 fails</text><text x="8" y="131" font-size="12.5" font-weight="600" text-anchor="start" fill="#1f2328">deepseek</text><rect x="110" y="119" width="132.79" height="16" rx="3" fill="#E5534B"></rect><text x="176.39" y="131" font-size="10.5" font-weight="700" text-anchor="middle" fill="#fff">18</text><rect x="244.79" y="119" width="22.13" height="16" rx="3" fill="#E0A53B"></rect><text x="255.85" y="131" font-size="10.5" font-weight="700" text-anchor="middle" fill="#fff">3</text><text x="276.92" y="131" font-size="11" font-weight="400" text-anchor="start" fill="#656d76">21 fails</text><text x="8" y="165" font-size="12.5" font-weight="600" text-anchor="start" fill="#1f2328">llama</text><rect x="110" y="153" width="110.66" height="16" rx="3" fill="#E5534B"></rect><text x="165.33" y="165" font-size="10.5" font-weight="700" text-anchor="middle" fill="#fff">15</text><rect x="222.66" y="153" width="14.75" height="16" rx="3" fill="#E0A53B"></rect><text x="230.03" y="165" font-size="10.5" font-weight="700" text-anchor="middle" fill="#fff">2</text><rect x="239.41" y="153" width="7.38" height="16" rx="3" fill="#A371F7"></rect><text x="243.1" y="165" font-size="10.5" font-weight="700" text-anchor="middle" fill="#fff">1</text><text x="256.79" y="165" font-size="11" font-weight="400" text-anchor="start" fill="#656d76">18 fails</text><text x="8" y="199" font-size="12.5" font-weight="600" text-anchor="start" fill="#1f2328">openai</text><rect x="110" y="187" width="29.51" height="16" rx="3" fill="#E5534B"></rect><text x="124.75" y="199" font-size="10.5" font-weight="700" text-anchor="middle" fill="#fff">4</text><rect x="141.51" y="187" width="14.75" height="16" rx="3" fill="#E0A53B"></rect><text x="148.89" y="199" font-size="10.5" font-weight="700" text-anchor="middle" fill="#fff">2</text><text x="166.26" y="199" font-size="11" font-weight="400" text-anchor="start" fill="#656d76">6 fails</text><text x="8" y="233" font-size="12.5" font-weight="600" text-anchor="start" fill="#1f2328">mistral</text><rect x="110" y="221" width="7.38" height="16" rx="3" fill="#E0A53B"></rect><text x="113.69" y="233" font-size="10.5" font-weight="700" text-anchor="middle" fill="#fff">1</text><rect x="119.38" y="221" width="7.38" height="16" rx="3" fill="#A371F7"></rect><text x="123.07" y="233" font-size="10.5" font-weight="700" text-anchor="middle" fill="#fff">1</text><text x="136.75" y="233" font-size="11" font-weight="400" text-anchor="start" fill="#656d76">2 fails</text></svg>
