<svg xmlns="http://www.w3.org/2000/svg" viewBox="0 0 760 254" width="760" height="254" role="img" aria-label="Failure categories by provider" font-family="-apple-system,BlinkMacSystemFont,'Segoe UI',system-ui,sans-serif"><rect x="110" y="18" width="11" height="11" rx="2.5" fill="#E5534B"></rect><text x="127" y="28" font-size="11" font-weight="400" text-anchor="start" fill="#8b949e">classification</text><rect x="246.4" y="18" width="11" height="11" rx="2.5" fill="#E0A53B"></rect><text x="263.4" y="28" font-size="11" font-weight="400" text-anchor="start" fill="#8b949e">deterministic</text><rect x="376.2" y="18" width="11" height="11" rx="2.5" fill="#A371F7"></rect><text x="393.2" y="28" font-size="11" font-weight="400" text-anchor="start" fill="#8b949e">infra</text><text x="8" y="63" font-size="12.5" font-weight="600" text-anchor="start" fill="#e6edf3">anthropic</text><rect x="110" y="51" width="13.64" height="16" rx="3" fill="#E5534B"></rect><text x="116.82" y="63" font-size="10.5" font-weight="700" text-anchor="middle" fill="#fff">4</text><rect x="125.64" y="51" width="436.36" height="16" rx="3" fill="#E0A53B"></rect><text x="343.82" y="63" font-size="10.5" font-weight="700" text-anchor="middle" fill="#fff">128</text><text x="572" y="63" font-size="11" font-weight="400" text-anchor="start" fill="#8b949e">132 fails</text><text x="8" y="97" font-size="12.5" font-weight="600" text-anchor="start" fill="#e6edf3">gemini</text><rect x="110" y="85" width="6.82" height="16" rx="3" fill="#E5534B"></rect><text x="113.41" y="97" font-size="10.5" font-weight="700" text-anchor="middle" fill="#fff">2</text><rect x="118.82" y="85" width="201.14" height="16" rx="3" fill="#E0A53B"></rect><text x="219.39" y="97" font-size="10.5" font-weight="700" text-anchor="middle" fill="#fff">59</text><text x="329.95" y="97" font-size="11" font-weight="400" text-anchor="start" fill="#8b949e">61 fails</text><text x="8" y="131" font-size="12.5" font-weight="600" text-anchor="start" fill="#e6edf3">openai</text><rect x="110" y="119" width="13.64" height="16" rx="3" fill="#E5534B"></rect><text x="116.82" y="131" font-size="10.5" font-weight="700" text-anchor="middle" fill="#fff">4</text><rect x="125.64" y="119" width="115.91" height="16" rx="3" fill="#E0A53B"></rect><text x="183.59" y="131" font-size="10.5" font-weight="700" text-anchor="middle" fill="#fff">34</text><text x="251.55" y="131" font-size="11" font-weight="400" text-anchor="start" fill="#8b949e">38 fails</text><text x="8" y="165" font-size="12.5" font-weight="600" text-anchor="start" fill="#e6edf3">deepseek</text><rect x="110" y="153" width="98.86" height="16" rx="3" fill="#E5534B"></rect><text x="159.43" y="165" font-size="10.5" font-weight="700" text-anchor="middle" fill="#fff">29</text><rect x="210.86" y="153" width="10.23" height="16" rx="3" fill="#E0A53B"></rect><text x="215.98" y="165" font-size="10.5" font-weight="700" text-anchor="middle" fill="#fff">3</text><text x="231.09" y="165" font-size="11" font-weight="400" text-anchor="start" fill="#8b949e">32 fails</text><text x="8" y="199" font-size="12.5" font-weight="600" text-anchor="start" fill="#e6edf3">llama</text><rect x="110" y="187" width="57.95" height="16" rx="3" fill="#E5534B"></rect><text x="138.98" y="199" font-size="10.5" font-weight="700" text-anchor="middle" fill="#fff">17</text><rect x="169.95" y="187" width="6.82" height="16" rx="3" fill="#E0A53B"></rect><text x="173.36" y="199" font-size="10.5" font-weight="700" text-anchor="middle" fill="#fff">2</text><rect x="178.77" y="187" width="3.41" height="16" rx="3" fill="#A371F7"></rect><text x="180.48" y="199" font-size="10.5" font-weight="700" text-anchor="middle" fill="#fff">1</text><text x="192.18" y="199" font-size="11" font-weight="400" text-anchor="start" fill="#8b949e">20 fails</text><text x="8" y="233" font-size="12.5" font-weight="600" text-anchor="start" fill="#e6edf3">mistral</text><rect x="110" y="221" width="3.41" height="16" rx="3" fill="#E0A53B"></rect><text x="111.7" y="233" font-size="10.5" font-weight="700" text-anchor="middle" fill="#fff">1</text><rect x="115.41" y="221" width="3.41" height="16" rx="3" fill="#A371F7"></rect><text x="117.11" y="233" font-size="10.5" font-weight="700" text-anchor="middle" fill="#fff">1</text><text x="128.82" y="233" font-size="11" font-weight="400" text-anchor="start" fill="#8b949e">2 fails</text></svg>
