<svg xmlns="http://www.w3.org/2000/svg" viewBox="0 0 760 254" width="760" height="254" role="img" aria-label="Failure categories by provider" font-family="-apple-system,BlinkMacSystemFont,'Segoe UI',system-ui,sans-serif"><rect x="110" y="18" width="11" height="11" rx="2.5" fill="#E5534B"></rect><text x="127" y="28" font-size="11" font-weight="400" text-anchor="start" fill="#8b949e">classification</text><rect x="246.4" y="18" width="11" height="11" rx="2.5" fill="#E0A53B"></rect><text x="263.4" y="28" font-size="11" font-weight="400" text-anchor="start" fill="#8b949e">deterministic</text><rect x="376.2" y="18" width="11" height="11" rx="2.5" fill="#A371F7"></rect><text x="393.2" y="28" font-size="11" font-weight="400" text-anchor="start" fill="#8b949e">infra</text><text x="8" y="63" font-size="12.5" font-weight="600" text-anchor="start" fill="#e6edf3">gemini</text><rect x="110" y="51" width="28.57" height="16" rx="3" fill="#E5534B"></rect><text x="124.29" y="63" font-size="10.5" font-weight="700" text-anchor="middle" fill="#fff">4</text><rect x="140.57" y="51" width="421.43" height="16" rx="3" fill="#E0A53B"></rect><text x="351.29" y="63" font-size="10.5" font-weight="700" text-anchor="middle" fill="#fff">59</text><text x="572" y="63" font-size="11" font-weight="400" text-anchor="start" fill="#8b949e">63 fails</text><text x="8" y="97" font-size="12.5" font-weight="600" text-anchor="start" fill="#e6edf3">openai</text><rect x="110" y="85" width="28.57" height="16" rx="3" fill="#E5534B"></rect><text x="124.29" y="97" font-size="10.5" font-weight="700" text-anchor="middle" fill="#fff">4</text><rect x="140.57" y="85" width="307.14" height="16" rx="3" fill="#E0A53B"></rect><text x="294.14" y="97" font-size="10.5" font-weight="700" text-anchor="middle" fill="#fff">43</text><text x="457.71" y="97" font-size="11" font-weight="400" text-anchor="start" fill="#8b949e">47 fails</text><text x="8" y="131" font-size="12.5" font-weight="600" text-anchor="start" fill="#e6edf3">deepseek</text><rect x="110" y="119" width="264.29" height="16" rx="3" fill="#E5534B"></rect><text x="242.14" y="131" font-size="10.5" font-weight="700" text-anchor="middle" fill="#fff">37</text><rect x="376.29" y="119" width="21.43" height="16" rx="3" fill="#E0A53B"></rect><text x="387" y="131" font-size="10.5" font-weight="700" text-anchor="middle" fill="#fff">3</text><text x="407.71" y="131" font-size="11" font-weight="400" text-anchor="start" fill="#8b949e">40 fails</text><text x="8" y="165" font-size="12.5" font-weight="600" text-anchor="start" fill="#e6edf3">llama</text><rect x="110" y="153" width="164.29" height="16" rx="3" fill="#E5534B"></rect><text x="192.14" y="165" font-size="10.5" font-weight="700" text-anchor="middle" fill="#fff">23</text><rect x="276.29" y="153" width="21.43" height="16" rx="3" fill="#E0A53B"></rect><text x="287" y="165" font-size="10.5" font-weight="700" text-anchor="middle" fill="#fff">3</text><rect x="299.71" y="153" width="7.14" height="16" rx="3" fill="#A371F7"></rect><text x="303.29" y="165" font-size="10.5" font-weight="700" text-anchor="middle" fill="#fff">1</text><text x="316.86" y="165" font-size="11" font-weight="400" text-anchor="start" fill="#8b949e">27 fails</text><text x="8" y="199" font-size="12.5" font-weight="600" text-anchor="start" fill="#e6edf3">anthropic</text><rect x="110" y="187" width="28.57" height="16" rx="3" fill="#E5534B"></rect><text x="124.29" y="199" font-size="10.5" font-weight="700" text-anchor="middle" fill="#fff">4</text><text x="148.57" y="199" font-size="11" font-weight="400" text-anchor="start" fill="#8b949e">4 fails</text><text x="8" y="233" font-size="12.5" font-weight="600" text-anchor="start" fill="#e6edf3">mistral</text><rect x="110" y="221" width="7.14" height="16" rx="3" fill="#E0A53B"></rect><text x="113.57" y="233" font-size="10.5" font-weight="700" text-anchor="middle" fill="#fff">1</text><rect x="119.14" y="221" width="14.29" height="16" rx="3" fill="#A371F7"></rect><text x="126.29" y="233" font-size="10.5" font-weight="700" text-anchor="middle" fill="#fff">2</text><text x="143.43" y="233" font-size="11" font-weight="400" text-anchor="start" fill="#8b949e">3 fails</text></svg>
