<svg xmlns="http://www.w3.org/2000/svg" viewBox="0 0 760 254" width="760" height="254" role="img" aria-label="Failure categories by provider" font-family="-apple-system,BlinkMacSystemFont,'Segoe UI',system-ui,sans-serif"><rect x="110" y="18" width="11" height="11" rx="2.5" fill="#E5534B"></rect><text x="127" y="28" font-size="11" font-weight="400" text-anchor="start" fill="#8b949e">classification</text><rect x="246.4" y="18" width="11" height="11" rx="2.5" fill="#E0A53B"></rect><text x="263.4" y="28" font-size="11" font-weight="400" text-anchor="start" fill="#8b949e">deterministic</text><rect x="376.2" y="18" width="11" height="11" rx="2.5" fill="#A371F7"></rect><text x="393.2" y="28" font-size="11" font-weight="400" text-anchor="start" fill="#8b949e">infra</text><text x="8" y="63" font-size="12.5" font-weight="600" text-anchor="start" fill="#e6edf3">anthropic</text><rect x="110" y="51" width="12.08" height="16" rx="3" fill="#E5534B"></rect><text x="116.04" y="63" font-size="10.5" font-weight="700" text-anchor="middle" fill="#fff">4</text><rect x="124.08" y="51" width="437.92" height="16" rx="3" fill="#E0A53B"></rect><text x="343.04" y="63" font-size="10.5" font-weight="700" text-anchor="middle" fill="#fff">145</text><text x="572" y="63" font-size="11" font-weight="400" text-anchor="start" fill="#8b949e">149 fails</text><text x="8" y="97" font-size="12.5" font-weight="600" text-anchor="start" fill="#e6edf3">gemini</text><rect x="110" y="85" width="6.04" height="16" rx="3" fill="#E5534B"></rect><text x="113.02" y="97" font-size="10.5" font-weight="700" text-anchor="middle" fill="#fff">2</text><rect x="118.04" y="85" width="178.19" height="16" rx="3" fill="#E0A53B"></rect><text x="207.13" y="97" font-size="10.5" font-weight="700" text-anchor="middle" fill="#fff">59</text><text x="306.23" y="97" font-size="11" font-weight="400" text-anchor="start" fill="#8b949e">61 fails</text><text x="8" y="131" font-size="12.5" font-weight="600" text-anchor="start" fill="#e6edf3">openai</text><rect x="110" y="119" width="12.08" height="16" rx="3" fill="#E5534B"></rect><text x="116.04" y="131" font-size="10.5" font-weight="700" text-anchor="middle" fill="#fff">4</text><rect x="124.08" y="119" width="129.87" height="16" rx="3" fill="#E0A53B"></rect><text x="189.01" y="131" font-size="10.5" font-weight="700" text-anchor="middle" fill="#fff">43</text><text x="263.95" y="131" font-size="11" font-weight="400" text-anchor="start" fill="#8b949e">47 fails</text><text x="8" y="165" font-size="12.5" font-weight="600" text-anchor="start" fill="#e6edf3">deepseek</text><rect x="110" y="153" width="90.6" height="16" rx="3" fill="#E5534B"></rect><text x="155.3" y="165" font-size="10.5" font-weight="700" text-anchor="middle" fill="#fff">30</text><rect x="202.6" y="153" width="9.06" height="16" rx="3" fill="#E0A53B"></rect><text x="207.13" y="165" font-size="10.5" font-weight="700" text-anchor="middle" fill="#fff">3</text><text x="221.66" y="165" font-size="11" font-weight="400" text-anchor="start" fill="#8b949e">33 fails</text><text x="8" y="199" font-size="12.5" font-weight="600" text-anchor="start" fill="#e6edf3">llama</text><rect x="110" y="187" width="51.34" height="16" rx="3" fill="#E5534B"></rect><text x="135.67" y="199" font-size="10.5" font-weight="700" text-anchor="middle" fill="#fff">17</text><rect x="163.34" y="187" width="9.06" height="16" rx="3" fill="#E0A53B"></rect><text x="167.87" y="199" font-size="10.5" font-weight="700" text-anchor="middle" fill="#fff">3</text><rect x="174.4" y="187" width="3.02" height="16" rx="3" fill="#A371F7"></rect><text x="175.91" y="199" font-size="10.5" font-weight="700" text-anchor="middle" fill="#fff">1</text><text x="187.42" y="199" font-size="11" font-weight="400" text-anchor="start" fill="#8b949e">21 fails</text><text x="8" y="233" font-size="12.5" font-weight="600" text-anchor="start" fill="#e6edf3">mistral</text><rect x="110" y="221" width="3.02" height="16" rx="3" fill="#E0A53B"></rect><text x="111.51" y="233" font-size="10.5" font-weight="700" text-anchor="middle" fill="#fff">1</text><rect x="115.02" y="221" width="6.04" height="16" rx="3" fill="#A371F7"></rect><text x="118.04" y="233" font-size="10.5" font-weight="700" text-anchor="middle" fill="#fff">2</text><text x="131.06" y="233" font-size="11" font-weight="400" text-anchor="start" fill="#8b949e">3 fails</text></svg>
