<svg xmlns="http://www.w3.org/2000/svg" viewBox="0 0 760 254" width="760" height="254" role="img" aria-label="Failure categories by provider" font-family="-apple-system,BlinkMacSystemFont,'Segoe UI',system-ui,sans-serif"><rect x="110" y="18" width="11" height="11" rx="2.5" fill="#E5534B"></rect><text x="127" y="28" font-size="11" font-weight="400" text-anchor="start" fill="#656d76">classification</text><rect x="246.4" y="18" width="11" height="11" rx="2.5" fill="#E0A53B"></rect><text x="263.4" y="28" font-size="11" font-weight="400" text-anchor="start" fill="#656d76">deterministic</text><rect x="376.2" y="18" width="11" height="11" rx="2.5" fill="#A371F7"></rect><text x="393.2" y="28" font-size="11" font-weight="400" text-anchor="start" fill="#656d76">infra</text><text x="8" y="63" font-size="12.5" font-weight="600" text-anchor="start" fill="#1f2328">gemini</text><rect x="110" y="51" width="450" height="16" rx="3" fill="#E0A53B"></rect><text x="335" y="63" font-size="10.5" font-weight="700" text-anchor="middle" fill="#fff">57</text><text x="570" y="63" font-size="11" font-weight="400" text-anchor="start" fill="#656d76">57 fails</text><text x="8" y="97" font-size="12.5" font-weight="600" text-anchor="start" fill="#1f2328">anthropic</text><rect x="110" y="85" width="31.58" height="16" rx="3" fill="#E5534B"></rect><text x="125.79" y="97" font-size="10.5" font-weight="700" text-anchor="middle" fill="#fff">4</text><rect x="143.58" y="85" width="347.37" height="16" rx="3" fill="#E0A53B"></rect><text x="317.26" y="97" font-size="10.5" font-weight="700" text-anchor="middle" fill="#fff">44</text><text x="500.95" y="97" font-size="11" font-weight="400" text-anchor="start" fill="#656d76">48 fails</text><text x="8" y="131" font-size="12.5" font-weight="600" text-anchor="start" fill="#1f2328">deepseek</text><rect x="110" y="119" width="142.11" height="16" rx="3" fill="#E5534B"></rect><text x="181.05" y="131" font-size="10.5" font-weight="700" text-anchor="middle" fill="#fff">18</text><rect x="254.11" y="119" width="23.68" height="16" rx="3" fill="#E0A53B"></rect><text x="265.95" y="131" font-size="10.5" font-weight="700" text-anchor="middle" fill="#fff">3</text><text x="287.79" y="131" font-size="11" font-weight="400" text-anchor="start" fill="#656d76">21 fails</text><text x="8" y="165" font-size="12.5" font-weight="600" text-anchor="start" fill="#1f2328">llama</text><rect x="110" y="153" width="110.53" height="16" rx="3" fill="#E5534B"></rect><text x="165.26" y="165" font-size="10.5" font-weight="700" text-anchor="middle" fill="#fff">14</text><rect x="222.53" y="153" width="15.79" height="16" rx="3" fill="#E0A53B"></rect><text x="230.42" y="165" font-size="10.5" font-weight="700" text-anchor="middle" fill="#fff">2</text><rect x="240.32" y="153" width="7.89" height="16" rx="3" fill="#A371F7"></rect><text x="244.26" y="165" font-size="10.5" font-weight="700" text-anchor="middle" fill="#fff">1</text><text x="258.21" y="165" font-size="11" font-weight="400" text-anchor="start" fill="#656d76">17 fails</text><text x="8" y="199" font-size="12.5" font-weight="600" text-anchor="start" fill="#1f2328">openai</text><rect x="110" y="187" width="31.58" height="16" rx="3" fill="#E5534B"></rect><text x="125.79" y="199" font-size="10.5" font-weight="700" text-anchor="middle" fill="#fff">4</text><rect x="143.58" y="187" width="15.79" height="16" rx="3" fill="#E0A53B"></rect><text x="151.47" y="199" font-size="10.5" font-weight="700" text-anchor="middle" fill="#fff">2</text><text x="169.37" y="199" font-size="11" font-weight="400" text-anchor="start" fill="#656d76">6 fails</text><text x="8" y="233" font-size="12.5" font-weight="600" text-anchor="start" fill="#1f2328">mistral</text><rect x="110" y="221" width="7.89" height="16" rx="3" fill="#E0A53B"></rect><text x="113.95" y="233" font-size="10.5" font-weight="700" text-anchor="middle" fill="#fff">1</text><rect x="119.89" y="221" width="7.89" height="16" rx="3" fill="#A371F7"></rect><text x="123.84" y="233" font-size="10.5" font-weight="700" text-anchor="middle" fill="#fff">1</text><text x="137.79" y="233" font-size="11" font-weight="400" text-anchor="start" fill="#656d76">2 fails</text></svg>
