<svg xmlns="http://www.w3.org/2000/svg" viewBox="0 0 760 254" width="760" height="254" role="img" aria-label="Failure categories by provider" font-family="-apple-system,BlinkMacSystemFont,'Segoe UI',system-ui,sans-serif"><rect x="110" y="18" width="11" height="11" rx="2.5" fill="#E5534B"></rect><text x="127" y="28" font-size="11" font-weight="400" text-anchor="start" fill="#8b949e">classification</text><rect x="246.4" y="18" width="11" height="11" rx="2.5" fill="#E0A53B"></rect><text x="263.4" y="28" font-size="11" font-weight="400" text-anchor="start" fill="#8b949e">deterministic</text><rect x="376.2" y="18" width="11" height="11" rx="2.5" fill="#A371F7"></rect><text x="393.2" y="28" font-size="11" font-weight="400" text-anchor="start" fill="#8b949e">infra</text><text x="8" y="63" font-size="12.5" font-weight="600" text-anchor="start" fill="#e6edf3">anthropic</text><rect x="110" y="51" width="15.79" height="16" rx="3" fill="#E5534B"></rect><text x="117.89" y="63" font-size="10.5" font-weight="700" text-anchor="middle" fill="#fff">4</text><rect x="127.79" y="51" width="434.21" height="16" rx="3" fill="#E0A53B"></rect><text x="344.89" y="63" font-size="10.5" font-weight="700" text-anchor="middle" fill="#fff">110</text><text x="572" y="63" font-size="11" font-weight="400" text-anchor="start" fill="#8b949e">114 fails</text><text x="8" y="97" font-size="12.5" font-weight="600" text-anchor="start" fill="#e6edf3">gemini</text><rect x="110" y="85" width="7.89" height="16" rx="3" fill="#E5534B"></rect><text x="113.95" y="97" font-size="10.5" font-weight="700" text-anchor="middle" fill="#fff">2</text><rect x="119.89" y="85" width="232.89" height="16" rx="3" fill="#E0A53B"></rect><text x="236.34" y="97" font-size="10.5" font-weight="700" text-anchor="middle" fill="#fff">59</text><text x="362.79" y="97" font-size="11" font-weight="400" text-anchor="start" fill="#8b949e">61 fails</text><text x="8" y="131" font-size="12.5" font-weight="600" text-anchor="start" fill="#e6edf3">deepseek</text><rect x="110" y="119" width="106.58" height="16" rx="3" fill="#E5534B"></rect><text x="163.29" y="131" font-size="10.5" font-weight="700" text-anchor="middle" fill="#fff">27</text><rect x="218.58" y="119" width="11.84" height="16" rx="3" fill="#E0A53B"></rect><text x="224.5" y="131" font-size="10.5" font-weight="700" text-anchor="middle" fill="#fff">3</text><text x="240.42" y="131" font-size="11" font-weight="400" text-anchor="start" fill="#8b949e">30 fails</text><text x="8" y="165" font-size="12.5" font-weight="600" text-anchor="start" fill="#e6edf3">llama</text><rect x="110" y="153" width="67.11" height="16" rx="3" fill="#E5534B"></rect><text x="143.55" y="165" font-size="10.5" font-weight="700" text-anchor="middle" fill="#fff">17</text><rect x="179.11" y="153" width="7.89" height="16" rx="3" fill="#E0A53B"></rect><text x="183.05" y="165" font-size="10.5" font-weight="700" text-anchor="middle" fill="#fff">2</text><rect x="189" y="153" width="3.95" height="16" rx="3" fill="#A371F7"></rect><text x="190.97" y="165" font-size="10.5" font-weight="700" text-anchor="middle" fill="#fff">1</text><text x="202.95" y="165" font-size="11" font-weight="400" text-anchor="start" fill="#8b949e">20 fails</text><text x="8" y="199" font-size="12.5" font-weight="600" text-anchor="start" fill="#e6edf3">openai</text><rect x="110" y="187" width="15.79" height="16" rx="3" fill="#E5534B"></rect><text x="117.89" y="199" font-size="10.5" font-weight="700" text-anchor="middle" fill="#fff">4</text><rect x="127.79" y="187" width="63.16" height="16" rx="3" fill="#E0A53B"></rect><text x="159.37" y="199" font-size="10.5" font-weight="700" text-anchor="middle" fill="#fff">16</text><text x="200.95" y="199" font-size="11" font-weight="400" text-anchor="start" fill="#8b949e">20 fails</text><text x="8" y="233" font-size="12.5" font-weight="600" text-anchor="start" fill="#e6edf3">mistral</text><rect x="110" y="221" width="3.95" height="16" rx="3" fill="#E0A53B"></rect><text x="111.97" y="233" font-size="10.5" font-weight="700" text-anchor="middle" fill="#fff">1</text><rect x="115.95" y="221" width="3.95" height="16" rx="3" fill="#A371F7"></rect><text x="117.92" y="233" font-size="10.5" font-weight="700" text-anchor="middle" fill="#fff">1</text><text x="129.89" y="233" font-size="11" font-weight="400" text-anchor="start" fill="#8b949e">2 fails</text></svg>
