<svg xmlns="http://www.w3.org/2000/svg" viewBox="0 0 760 254" width="760" height="254" role="img" aria-label="Failure categories by provider" font-family="-apple-system,BlinkMacSystemFont,'Segoe UI',system-ui,sans-serif"><rect x="110" y="18" width="11" height="11" rx="2.5" fill="#E5534B"></rect><text x="127" y="28" font-size="11" font-weight="400" text-anchor="start" fill="#8b949e">classification</text><rect x="246.4" y="18" width="11" height="11" rx="2.5" fill="#E0A53B"></rect><text x="263.4" y="28" font-size="11" font-weight="400" text-anchor="start" fill="#8b949e">deterministic</text><rect x="376.2" y="18" width="11" height="11" rx="2.5" fill="#A371F7"></rect><text x="393.2" y="28" font-size="11" font-weight="400" text-anchor="start" fill="#8b949e">infra</text><text x="8" y="63" font-size="12.5" font-weight="600" text-anchor="start" fill="#e6edf3">anthropic</text><rect x="110" y="51" width="13.04" height="16" rx="3" fill="#E5534B"></rect><text x="116.52" y="63" font-size="10.5" font-weight="700" text-anchor="middle" fill="#fff">4</text><rect x="125.04" y="51" width="436.96" height="16" rx="3" fill="#E0A53B"></rect><text x="343.52" y="63" font-size="10.5" font-weight="700" text-anchor="middle" fill="#fff">134</text><text x="572" y="63" font-size="11" font-weight="400" text-anchor="start" fill="#8b949e">138 fails</text><text x="8" y="97" font-size="12.5" font-weight="600" text-anchor="start" fill="#e6edf3">gemini</text><rect x="110" y="85" width="6.52" height="16" rx="3" fill="#E5534B"></rect><text x="113.26" y="97" font-size="10.5" font-weight="700" text-anchor="middle" fill="#fff">2</text><rect x="118.52" y="85" width="192.39" height="16" rx="3" fill="#E0A53B"></rect><text x="214.72" y="97" font-size="10.5" font-weight="700" text-anchor="middle" fill="#fff">59</text><text x="320.91" y="97" font-size="11" font-weight="400" text-anchor="start" fill="#8b949e">61 fails</text><text x="8" y="131" font-size="12.5" font-weight="600" text-anchor="start" fill="#e6edf3">openai</text><rect x="110" y="119" width="13.04" height="16" rx="3" fill="#E5534B"></rect><text x="116.52" y="131" font-size="10.5" font-weight="700" text-anchor="middle" fill="#fff">4</text><rect x="125.04" y="119" width="127.17" height="16" rx="3" fill="#E0A53B"></rect><text x="188.63" y="131" font-size="10.5" font-weight="700" text-anchor="middle" fill="#fff">39</text><text x="262.22" y="131" font-size="11" font-weight="400" text-anchor="start" fill="#8b949e">43 fails</text><text x="8" y="165" font-size="12.5" font-weight="600" text-anchor="start" fill="#e6edf3">deepseek</text><rect x="110" y="153" width="94.57" height="16" rx="3" fill="#E5534B"></rect><text x="157.28" y="165" font-size="10.5" font-weight="700" text-anchor="middle" fill="#fff">29</text><rect x="206.57" y="153" width="9.78" height="16" rx="3" fill="#E0A53B"></rect><text x="211.46" y="165" font-size="10.5" font-weight="700" text-anchor="middle" fill="#fff">3</text><text x="226.35" y="165" font-size="11" font-weight="400" text-anchor="start" fill="#8b949e">32 fails</text><text x="8" y="199" font-size="12.5" font-weight="600" text-anchor="start" fill="#e6edf3">llama</text><rect x="110" y="187" width="55.43" height="16" rx="3" fill="#E5534B"></rect><text x="137.72" y="199" font-size="10.5" font-weight="700" text-anchor="middle" fill="#fff">17</text><rect x="167.43" y="187" width="6.52" height="16" rx="3" fill="#E0A53B"></rect><text x="170.7" y="199" font-size="10.5" font-weight="700" text-anchor="middle" fill="#fff">2</text><rect x="175.96" y="187" width="3.26" height="16" rx="3" fill="#A371F7"></rect><text x="177.59" y="199" font-size="10.5" font-weight="700" text-anchor="middle" fill="#fff">1</text><text x="189.22" y="199" font-size="11" font-weight="400" text-anchor="start" fill="#8b949e">20 fails</text><text x="8" y="233" font-size="12.5" font-weight="600" text-anchor="start" fill="#e6edf3">mistral</text><rect x="110" y="221" width="3.26" height="16" rx="3" fill="#E0A53B"></rect><text x="111.63" y="233" font-size="10.5" font-weight="700" text-anchor="middle" fill="#fff">1</text><rect x="115.26" y="221" width="6.52" height="16" rx="3" fill="#A371F7"></rect><text x="118.52" y="233" font-size="10.5" font-weight="700" text-anchor="middle" fill="#fff">2</text><text x="131.78" y="233" font-size="11" font-weight="400" text-anchor="start" fill="#8b949e">3 fails</text></svg>
