<svg xmlns="http://www.w3.org/2000/svg" viewBox="0 0 760 254" width="760" height="254" role="img" aria-label="Failure categories by provider" font-family="-apple-system,BlinkMacSystemFont,'Segoe UI',system-ui,sans-serif"><rect x="110" y="18" width="11" height="11" rx="2.5" fill="#E5534B"></rect><text x="127" y="28" font-size="11" font-weight="400" text-anchor="start" fill="#8b949e">classification</text><rect x="246.4" y="18" width="11" height="11" rx="2.5" fill="#E0A53B"></rect><text x="263.4" y="28" font-size="11" font-weight="400" text-anchor="start" fill="#8b949e">deterministic</text><rect x="376.2" y="18" width="11" height="11" rx="2.5" fill="#A371F7"></rect><text x="393.2" y="28" font-size="11" font-weight="400" text-anchor="start" fill="#8b949e">infra</text><text x="8" y="63" font-size="12.5" font-weight="600" text-anchor="start" fill="#e6edf3">anthropic</text><rect x="110" y="51" width="10.91" height="16" rx="3" fill="#E5534B"></rect><text x="115.45" y="63" font-size="10.5" font-weight="700" text-anchor="middle" fill="#fff">4</text><rect x="122.91" y="51" width="439.09" height="16" rx="3" fill="#E0A53B"></rect><text x="342.45" y="63" font-size="10.5" font-weight="700" text-anchor="middle" fill="#fff">161</text><text x="572" y="63" font-size="11" font-weight="400" text-anchor="start" fill="#8b949e">165 fails</text><text x="8" y="97" font-size="12.5" font-weight="600" text-anchor="start" fill="#e6edf3">gemini</text><rect x="110" y="85" width="5.45" height="16" rx="3" fill="#E5534B"></rect><text x="112.73" y="97" font-size="10.5" font-weight="700" text-anchor="middle" fill="#fff">2</text><rect x="117.45" y="85" width="160.91" height="16" rx="3" fill="#E0A53B"></rect><text x="197.91" y="97" font-size="10.5" font-weight="700" text-anchor="middle" fill="#fff">59</text><text x="288.36" y="97" font-size="11" font-weight="400" text-anchor="start" fill="#8b949e">61 fails</text><text x="8" y="131" font-size="12.5" font-weight="600" text-anchor="start" fill="#e6edf3">openai</text><rect x="110" y="119" width="10.91" height="16" rx="3" fill="#E5534B"></rect><text x="115.45" y="131" font-size="10.5" font-weight="700" text-anchor="middle" fill="#fff">4</text><rect x="122.91" y="119" width="117.27" height="16" rx="3" fill="#E0A53B"></rect><text x="181.55" y="131" font-size="10.5" font-weight="700" text-anchor="middle" fill="#fff">43</text><text x="250.18" y="131" font-size="11" font-weight="400" text-anchor="start" fill="#8b949e">47 fails</text><text x="8" y="165" font-size="12.5" font-weight="600" text-anchor="start" fill="#e6edf3">deepseek</text><rect x="110" y="153" width="84.55" height="16" rx="3" fill="#E5534B"></rect><text x="152.27" y="165" font-size="10.5" font-weight="700" text-anchor="middle" fill="#fff">31</text><rect x="196.55" y="153" width="8.18" height="16" rx="3" fill="#E0A53B"></rect><text x="200.64" y="165" font-size="10.5" font-weight="700" text-anchor="middle" fill="#fff">3</text><text x="214.73" y="165" font-size="11" font-weight="400" text-anchor="start" fill="#8b949e">34 fails</text><text x="8" y="199" font-size="12.5" font-weight="600" text-anchor="start" fill="#e6edf3">llama</text><rect x="110" y="187" width="51.82" height="16" rx="3" fill="#E5534B"></rect><text x="135.91" y="199" font-size="10.5" font-weight="700" text-anchor="middle" fill="#fff">19</text><rect x="163.82" y="187" width="8.18" height="16" rx="3" fill="#E0A53B"></rect><text x="167.91" y="199" font-size="10.5" font-weight="700" text-anchor="middle" fill="#fff">3</text><rect x="174" y="187" width="2.73" height="16" rx="3" fill="#A371F7"></rect><text x="175.36" y="199" font-size="10.5" font-weight="700" text-anchor="middle" fill="#fff">1</text><text x="186.73" y="199" font-size="11" font-weight="400" text-anchor="start" fill="#8b949e">23 fails</text><text x="8" y="233" font-size="12.5" font-weight="600" text-anchor="start" fill="#e6edf3">mistral</text><rect x="110" y="221" width="2.73" height="16" rx="3" fill="#E0A53B"></rect><text x="111.36" y="233" font-size="10.5" font-weight="700" text-anchor="middle" fill="#fff">1</text><rect x="114.73" y="221" width="5.45" height="16" rx="3" fill="#A371F7"></rect><text x="117.45" y="233" font-size="10.5" font-weight="700" text-anchor="middle" fill="#fff">2</text><text x="130.18" y="233" font-size="11" font-weight="400" text-anchor="start" fill="#8b949e">3 fails</text></svg>
