<svg xmlns="http://www.w3.org/2000/svg" viewBox="0 0 760 254" width="760" height="254" role="img" aria-label="Failure categories by provider" font-family="-apple-system,BlinkMacSystemFont,'Segoe UI',system-ui,sans-serif"><rect x="110" y="18" width="11" height="11" rx="2.5" fill="#E5534B"></rect><text x="127" y="28" font-size="11" font-weight="400" text-anchor="start" fill="#8b949e">classification</text><rect x="246.4" y="18" width="11" height="11" rx="2.5" fill="#E0A53B"></rect><text x="263.4" y="28" font-size="11" font-weight="400" text-anchor="start" fill="#8b949e">deterministic</text><rect x="376.2" y="18" width="11" height="11" rx="2.5" fill="#A371F7"></rect><text x="393.2" y="28" font-size="11" font-weight="400" text-anchor="start" fill="#8b949e">infra</text><text x="8" y="63" font-size="12.5" font-weight="600" text-anchor="start" fill="#e6edf3">anthropic</text><rect x="110" y="51" width="16.36" height="16" rx="3" fill="#E5534B"></rect><text x="118.18" y="63" font-size="10.5" font-weight="700" text-anchor="middle" fill="#fff">4</text><rect x="128.36" y="51" width="433.64" height="16" rx="3" fill="#E0A53B"></rect><text x="345.18" y="63" font-size="10.5" font-weight="700" text-anchor="middle" fill="#fff">106</text><text x="572" y="63" font-size="11" font-weight="400" text-anchor="start" fill="#8b949e">110 fails</text><text x="8" y="97" font-size="12.5" font-weight="600" text-anchor="start" fill="#e6edf3">gemini</text><rect x="110" y="85" width="4.09" height="16" rx="3" fill="#E5534B"></rect><text x="112.05" y="97" font-size="10.5" font-weight="700" text-anchor="middle" fill="#fff">1</text><rect x="116.09" y="85" width="241.36" height="16" rx="3" fill="#E0A53B"></rect><text x="236.77" y="97" font-size="10.5" font-weight="700" text-anchor="middle" fill="#fff">59</text><text x="367.45" y="97" font-size="11" font-weight="400" text-anchor="start" fill="#8b949e">60 fails</text><text x="8" y="131" font-size="12.5" font-weight="600" text-anchor="start" fill="#e6edf3">deepseek</text><rect x="110" y="119" width="110.45" height="16" rx="3" fill="#E5534B"></rect><text x="165.23" y="131" font-size="10.5" font-weight="700" text-anchor="middle" fill="#fff">27</text><rect x="222.45" y="119" width="12.27" height="16" rx="3" fill="#E0A53B"></rect><text x="228.59" y="131" font-size="10.5" font-weight="700" text-anchor="middle" fill="#fff">3</text><text x="244.73" y="131" font-size="11" font-weight="400" text-anchor="start" fill="#8b949e">30 fails</text><text x="8" y="165" font-size="12.5" font-weight="600" text-anchor="start" fill="#e6edf3">llama</text><rect x="110" y="153" width="65.45" height="16" rx="3" fill="#E5534B"></rect><text x="142.73" y="165" font-size="10.5" font-weight="700" text-anchor="middle" fill="#fff">16</text><rect x="177.45" y="153" width="8.18" height="16" rx="3" fill="#E0A53B"></rect><text x="181.55" y="165" font-size="10.5" font-weight="700" text-anchor="middle" fill="#fff">2</text><rect x="187.64" y="153" width="4.09" height="16" rx="3" fill="#A371F7"></rect><text x="189.68" y="165" font-size="10.5" font-weight="700" text-anchor="middle" fill="#fff">1</text><text x="201.73" y="165" font-size="11" font-weight="400" text-anchor="start" fill="#8b949e">19 fails</text><text x="8" y="199" font-size="12.5" font-weight="600" text-anchor="start" fill="#e6edf3">openai</text><rect x="110" y="187" width="16.36" height="16" rx="3" fill="#E5534B"></rect><text x="118.18" y="199" font-size="10.5" font-weight="700" text-anchor="middle" fill="#fff">4</text><rect x="128.36" y="187" width="40.91" height="16" rx="3" fill="#E0A53B"></rect><text x="148.82" y="199" font-size="10.5" font-weight="700" text-anchor="middle" fill="#fff">10</text><text x="179.27" y="199" font-size="11" font-weight="400" text-anchor="start" fill="#8b949e">14 fails</text><text x="8" y="233" font-size="12.5" font-weight="600" text-anchor="start" fill="#e6edf3">mistral</text><rect x="110" y="221" width="4.09" height="16" rx="3" fill="#E0A53B"></rect><text x="112.05" y="233" font-size="10.5" font-weight="700" text-anchor="middle" fill="#fff">1</text><rect x="116.09" y="221" width="4.09" height="16" rx="3" fill="#A371F7"></rect><text x="118.14" y="233" font-size="10.5" font-weight="700" text-anchor="middle" fill="#fff">1</text><text x="130.18" y="233" font-size="11" font-weight="400" text-anchor="start" fill="#8b949e">2 fails</text></svg>
