<svg xmlns="http://www.w3.org/2000/svg" viewBox="0 0 760 254" width="760" height="254" role="img" aria-label="Failure categories by provider" font-family="-apple-system,BlinkMacSystemFont,'Segoe UI',system-ui,sans-serif"><rect x="110" y="18" width="11" height="11" rx="2.5" fill="#E5534B"></rect><text x="127" y="28" font-size="11" font-weight="400" text-anchor="start" fill="#8b949e">classification</text><rect x="246.4" y="18" width="11" height="11" rx="2.5" fill="#E0A53B"></rect><text x="263.4" y="28" font-size="11" font-weight="400" text-anchor="start" fill="#8b949e">deterministic</text><rect x="376.2" y="18" width="11" height="11" rx="2.5" fill="#A371F7"></rect><text x="393.2" y="28" font-size="11" font-weight="400" text-anchor="start" fill="#8b949e">infra</text><text x="8" y="63" font-size="12.5" font-weight="600" text-anchor="start" fill="#e6edf3">anthropic</text><rect x="110" y="51" width="24" height="16" rx="3" fill="#E5534B"></rect><text x="122" y="63" font-size="10.5" font-weight="700" text-anchor="middle" fill="#fff">4</text><rect x="136" y="51" width="426" height="16" rx="3" fill="#E0A53B"></rect><text x="349" y="63" font-size="10.5" font-weight="700" text-anchor="middle" fill="#fff">71</text><text x="572" y="63" font-size="11" font-weight="400" text-anchor="start" fill="#8b949e">75 fails</text><text x="8" y="97" font-size="12.5" font-weight="600" text-anchor="start" fill="#e6edf3">gemini</text><rect x="110" y="85" width="348" height="16" rx="3" fill="#E0A53B"></rect><text x="284" y="97" font-size="10.5" font-weight="700" text-anchor="middle" fill="#fff">58</text><text x="468" y="97" font-size="11" font-weight="400" text-anchor="start" fill="#8b949e">58 fails</text><text x="8" y="131" font-size="12.5" font-weight="600" text-anchor="start" fill="#e6edf3">deepseek</text><rect x="110" y="119" width="126" height="16" rx="3" fill="#E5534B"></rect><text x="173" y="131" font-size="10.5" font-weight="700" text-anchor="middle" fill="#fff">21</text><rect x="238" y="119" width="18" height="16" rx="3" fill="#E0A53B"></rect><text x="247" y="131" font-size="10.5" font-weight="700" text-anchor="middle" fill="#fff">3</text><text x="266" y="131" font-size="11" font-weight="400" text-anchor="start" fill="#8b949e">24 fails</text><text x="8" y="165" font-size="12.5" font-weight="600" text-anchor="start" fill="#e6edf3">llama</text><rect x="110" y="153" width="90" height="16" rx="3" fill="#E5534B"></rect><text x="155" y="165" font-size="10.5" font-weight="700" text-anchor="middle" fill="#fff">15</text><rect x="202" y="153" width="12" height="16" rx="3" fill="#E0A53B"></rect><text x="208" y="165" font-size="10.5" font-weight="700" text-anchor="middle" fill="#fff">2</text><rect x="216" y="153" width="6" height="16" rx="3" fill="#A371F7"></rect><text x="219" y="165" font-size="10.5" font-weight="700" text-anchor="middle" fill="#fff">1</text><text x="232" y="165" font-size="11" font-weight="400" text-anchor="start" fill="#8b949e">18 fails</text><text x="8" y="199" font-size="12.5" font-weight="600" text-anchor="start" fill="#e6edf3">openai</text><rect x="110" y="187" width="24" height="16" rx="3" fill="#E5534B"></rect><text x="122" y="199" font-size="10.5" font-weight="700" text-anchor="middle" fill="#fff">4</text><rect x="136" y="187" width="12" height="16" rx="3" fill="#E0A53B"></rect><text x="142" y="199" font-size="10.5" font-weight="700" text-anchor="middle" fill="#fff">2</text><text x="158" y="199" font-size="11" font-weight="400" text-anchor="start" fill="#8b949e">6 fails</text><text x="8" y="233" font-size="12.5" font-weight="600" text-anchor="start" fill="#e6edf3">mistral</text><rect x="110" y="221" width="6" height="16" rx="3" fill="#E0A53B"></rect><text x="113" y="233" font-size="10.5" font-weight="700" text-anchor="middle" fill="#fff">1</text><rect x="118" y="221" width="6" height="16" rx="3" fill="#A371F7"></rect><text x="121" y="233" font-size="10.5" font-weight="700" text-anchor="middle" fill="#fff">1</text><text x="134" y="233" font-size="11" font-weight="400" text-anchor="start" fill="#8b949e">2 fails</text></svg>
