<svg xmlns="http://www.w3.org/2000/svg" viewBox="0 0 600 300" width="600" height="300" role="img" aria-label="Avg LLM latency by provider over runs (s)"><text x="300.0" y="24" text-anchor="middle" font-family="system-ui, -apple-system, sans-serif" font-size="14" font-weight="600" fill="#333">Avg LLM latency by provider over runs (s)</text><line x1="60" y1="240.0" x2="480" y2="240.0" stroke="#eee" stroke-width="1"/><text x="54" y="244.0" text-anchor="end" font-family="system-ui, -apple-system, sans-serif" font-size="9" fill="#999">41.35</text><line x1="60" y1="140.0" x2="480" y2="140.0" stroke="#eee" stroke-width="1"/><text x="54" y="144.0" text-anchor="end" font-family="system-ui, -apple-system, sans-serif" font-size="9" fill="#999">164.3</text><line x1="60" y1="40.0" x2="480" y2="40.0" stroke="#eee" stroke-width="1"/><text x="54" y="44.0" text-anchor="end" font-family="system-ui, -apple-system, sans-serif" font-size="9" fill="#999">287.4</text><polyline fill="none" stroke="#4CAF50" stroke-width="2" points="60.0,171.8 80.0,196.7 100.0,187.4 120.0,218.8 140.0,208.2 160.0,192.0 180.0,210.1 200.0,180.9 220.0,174.7 240.0,210.6 260.0,213.4 280.0,151.9 300.0,191.3 320.0,204.4 340.0,219.2 360.0,223.5 380.0,202.7 400.0,213.6 420.0,211.3 440.0,219.2 460.0,227.0 480.0,231.5"/><circle cx="60.0" cy="171.8" r="3" fill="#4CAF50"/><circle cx="80.0" cy="196.7" r="3" fill="#4CAF50"/><circle cx="100.0" cy="187.4" r="3" fill="#4CAF50"/><circle cx="120.0" cy="218.8" r="3" fill="#4CAF50"/><circle cx="140.0" cy="208.2" r="3" fill="#4CAF50"/><circle cx="160.0" cy="192.0" r="3" fill="#4CAF50"/><circle cx="180.0" cy="210.1" r="3" fill="#4CAF50"/><circle cx="200.0" cy="180.9" r="3" fill="#4CAF50"/><circle cx="220.0" cy="174.7" r="3" fill="#4CAF50"/><circle cx="240.0" cy="210.6" r="3" fill="#4CAF50"/><circle cx="260.0" cy="213.4" r="3" fill="#4CAF50"/><circle cx="280.0" cy="151.9" r="3" fill="#4CAF50"/><circle cx="300.0" cy="191.3" r="3" fill="#4CAF50"/><circle cx="320.0" cy="204.4" r="3" fill="#4CAF50"/><circle cx="340.0" cy="219.2" r="3" fill="#4CAF50"/><circle cx="360.0" cy="223.5" r="3" fill="#4CAF50"/><circle cx="380.0" cy="202.7" r="3" fill="#4CAF50"/><circle cx="400.0" cy="213.6" r="3" fill="#4CAF50"/><circle cx="420.0" cy="211.3" r="3" fill="#4CAF50"/><circle cx="440.0" cy="219.2" r="3" fill="#4CAF50"/><circle cx="460.0" cy="227.0" r="3" fill="#4CAF50"/><circle cx="480.0" cy="231.5" r="3" fill="#4CAF50"/><rect x="490" y="44" width="10" height="10" fill="#4CAF50"/><text x="504" y="53" font-family="system-ui, -apple-system, sans-serif" font-size="10" fill="#333">openai</text><polyline fill="none" stroke="#2196F3" stroke-width="2" points="60.0,201.0 80.0,204.0 100.0,210.2 120.0,215.0 140.0,207.0 160.0,204.4 180.0,220.9 200.0,214.4 220.0,212.8 240.0,202.9 280.0,205.6 300.0,215.3 320.0,200.6 340.0,217.0 360.0,213.3 380.0,207.1 400.0,213.4 420.0,215.5 440.0,217.8 460.0,211.9 480.0,221.5"/><circle cx="60.0" cy="201.0" r="3" fill="#2196F3"/><circle cx="80.0" cy="204.0" r="3" fill="#2196F3"/><circle cx="100.0" cy="210.2" r="3" fill="#2196F3"/><circle cx="120.0" cy="215.0" r="3" fill="#2196F3"/><circle cx="140.0" cy="207.0" r="3" fill="#2196F3"/><circle cx="160.0" cy="204.4" r="3" fill="#2196F3"/><circle cx="180.0" cy="220.9" r="3" fill="#2196F3"/><circle cx="200.0" cy="214.4" r="3" fill="#2196F3"/><circle cx="220.0" cy="212.8" r="3" fill="#2196F3"/><circle cx="240.0" cy="202.9" r="3" fill="#2196F3"/><circle cx="280.0" cy="205.6" r="3" fill="#2196F3"/><circle cx="300.0" cy="215.3" r="3" fill="#2196F3"/><circle cx="320.0" cy="200.6" r="3" fill="#2196F3"/><circle cx="340.0" cy="217.0" r="3" fill="#2196F3"/><circle cx="360.0" cy="213.3" r="3" fill="#2196F3"/><circle cx="380.0" cy="207.1" r="3" fill="#2196F3"/><circle cx="400.0" cy="213.4" r="3" fill="#2196F3"/><circle cx="420.0" cy="215.5" r="3" fill="#2196F3"/><circle cx="440.0" cy="217.8" r="3" fill="#2196F3"/><circle cx="460.0" cy="211.9" r="3" fill="#2196F3"/><circle cx="480.0" cy="221.5" r="3" fill="#2196F3"/><rect x="490" y="62" width="10" height="10" fill="#2196F3"/><text x="504" y="71" font-family="system-ui, -apple-system, sans-serif" font-size="10" fill="#333">anthropic</text><polyline fill="none" stroke="#FF9800" stroke-width="2" points="60.0,178.4 80.0,188.0 100.0,149.0 120.0,190.0 140.0,191.1 160.0,199.5 180.0,177.0 200.0,166.0 220.0,187.9 240.0,168.5 260.0,168.6 280.0,118.1 300.0,125.1 320.0,168.6 340.0,155.3 360.0,175.4 380.0,144.2 400.0,184.1 420.0,167.5 440.0,165.9 460.0,179.7"/><circle cx="60.0" cy="178.4" r="3" fill="#FF9800"/><circle cx="80.0" cy="188.0" r="3" fill="#FF9800"/><circle cx="100.0" cy="149.0" r="3" fill="#FF9800"/><circle cx="120.0" cy="190.0" r="3" fill="#FF9800"/><circle cx="140.0" cy="191.1" r="3" fill="#FF9800"/><circle cx="160.0" cy="199.5" r="3" fill="#FF9800"/><circle cx="180.0" cy="177.0" r="3" fill="#FF9800"/><circle cx="200.0" cy="166.0" r="3" fill="#FF9800"/><circle cx="220.0" cy="187.9" r="3" fill="#FF9800"/><circle cx="240.0" cy="168.5" r="3" fill="#FF9800"/><circle cx="260.0" cy="168.6" r="3" fill="#FF9800"/><circle cx="280.0" cy="118.1" r="3" fill="#FF9800"/><circle cx="300.0" cy="125.1" r="3" fill="#FF9800"/><circle cx="320.0" cy="168.6" r="3" fill="#FF9800"/><circle cx="340.0" cy="155.3" r="3" fill="#FF9800"/><circle cx="360.0" cy="175.4" r="3" fill="#FF9800"/><circle cx="380.0" cy="144.2" r="3" fill="#FF9800"/><circle cx="400.0" cy="184.1" r="3" fill="#FF9800"/><circle cx="420.0" cy="167.5" r="3" fill="#FF9800"/><circle cx="440.0" cy="165.9" r="3" fill="#FF9800"/><circle cx="460.0" cy="179.7" r="3" fill="#FF9800"/><rect x="490" y="80" width="10" height="10" fill="#FF9800"/><text x="504" y="89" font-family="system-ui, -apple-system, sans-serif" font-size="10" fill="#333">gemini</text><polyline fill="none" stroke="#E91E63" stroke-width="2" points="60.0,105.2 80.0,126.0 100.0,156.2 120.0,116.0 140.0,85.9 160.0,192.3 180.0,94.3 200.0,157.3 220.0,167.5 240.0,170.7 260.0,84.4 280.0,122.5 300.0,155.9 320.0,176.1 340.0,111.8 360.0,191.5 380.0,40.0 400.0,170.6 420.0,142.9 440.0,55.5 460.0,105.8 480.0,128.3"/><circle cx="60.0" cy="105.2" r="3" fill="#E91E63"/><circle cx="80.0" cy="126.0" r="3" fill="#E91E63"/><circle cx="100.0" cy="156.2" r="3" fill="#E91E63"/><circle cx="120.0" cy="116.0" r="3" fill="#E91E63"/><circle cx="140.0" cy="85.9" r="3" fill="#E91E63"/><circle cx="160.0" cy="192.3" r="3" fill="#E91E63"/><circle cx="180.0" cy="94.3" r="3" fill="#E91E63"/><circle cx="200.0" cy="157.3" r="3" fill="#E91E63"/><circle cx="220.0" cy="167.5" r="3" fill="#E91E63"/><circle cx="240.0" cy="170.7" r="3" fill="#E91E63"/><circle cx="260.0" cy="84.4" r="3" fill="#E91E63"/><circle cx="280.0" cy="122.5" r="3" fill="#E91E63"/><circle cx="300.0" cy="155.9" r="3" fill="#E91E63"/><circle cx="320.0" cy="176.1" r="3" fill="#E91E63"/><circle cx="340.0" cy="111.8" r="3" fill="#E91E63"/><circle cx="360.0" cy="191.5" r="3" fill="#E91E63"/><circle cx="380.0" cy="40.0" r="3" fill="#E91E63"/><circle cx="400.0" cy="170.6" r="3" fill="#E91E63"/><circle cx="420.0" cy="142.9" r="3" fill="#E91E63"/><circle cx="440.0" cy="55.5" r="3" fill="#E91E63"/><circle cx="460.0" cy="105.8" r="3" fill="#E91E63"/><circle cx="480.0" cy="128.3" r="3" fill="#E91E63"/><rect x="490" y="98" width="10" height="10" fill="#E91E63"/><text x="504" y="107" font-family="system-ui, -apple-system, sans-serif" font-size="10" fill="#333">llama</text><polyline fill="none" stroke="#9C27B0" stroke-width="2" points="60.0,145.6 80.0,126.8 100.0,161.4 120.0,129.3 140.0,114.3 160.0,161.5 180.0,176.2 200.0,191.9 220.0,161.4 240.0,139.1 260.0,191.0 280.0,218.7 300.0,194.9 320.0,220.4 340.0,196.8 360.0,214.7 380.0,216.7 400.0,184.6 420.0,207.7 440.0,228.0 460.0,219.4 480.0,205.8"/><circle cx="60.0" cy="145.6" r="3" fill="#9C27B0"/><circle cx="80.0" cy="126.8" r="3" fill="#9C27B0"/><circle cx="100.0" cy="161.4" r="3" fill="#9C27B0"/><circle cx="120.0" cy="129.3" r="3" fill="#9C27B0"/><circle cx="140.0" cy="114.3" r="3" fill="#9C27B0"/><circle cx="160.0" cy="161.5" r="3" fill="#9C27B0"/><circle cx="180.0" cy="176.2" r="3" fill="#9C27B0"/><circle cx="200.0" cy="191.9" r="3" fill="#9C27B0"/><circle cx="220.0" cy="161.4" r="3" fill="#9C27B0"/><circle cx="240.0" cy="139.1" r="3" fill="#9C27B0"/><circle cx="260.0" cy="191.0" r="3" fill="#9C27B0"/><circle cx="280.0" cy="218.7" r="3" fill="#9C27B0"/><circle cx="300.0" cy="194.9" r="3" fill="#9C27B0"/><circle cx="320.0" cy="220.4" r="3" fill="#9C27B0"/><circle cx="340.0" cy="196.8" r="3" fill="#9C27B0"/><circle cx="360.0" cy="214.7" r="3" fill="#9C27B0"/><circle cx="380.0" cy="216.7" r="3" fill="#9C27B0"/><circle cx="400.0" cy="184.6" r="3" fill="#9C27B0"/><circle cx="420.0" cy="207.7" r="3" fill="#9C27B0"/><circle cx="440.0" cy="228.0" r="3" fill="#9C27B0"/><circle cx="460.0" cy="219.4" r="3" fill="#9C27B0"/><circle cx="480.0" cy="205.8" r="3" fill="#9C27B0"/><rect x="490" y="116" width="10" height="10" fill="#9C27B0"/><text x="504" y="125" font-family="system-ui, -apple-system, sans-serif" font-size="10" fill="#333">mistral</text><polyline fill="none" stroke="#00BCD4" stroke-width="2" points="80.0,218.1 100.0,213.5 120.0,220.7 140.0,202.2 160.0,230.3 180.0,230.5 200.0,240.0 220.0,219.7 240.0,216.1 260.0,218.6 280.0,226.6 300.0,219.5 320.0,231.5 340.0,214.6 360.0,183.3 380.0,236.1 400.0,204.0 420.0,203.9 440.0,172.6 460.0,209.3 480.0,223.5"/><circle cx="80.0" cy="218.1" r="3" fill="#00BCD4"/><circle cx="100.0" cy="213.5" r="3" fill="#00BCD4"/><circle cx="120.0" cy="220.7" r="3" fill="#00BCD4"/><circle cx="140.0" cy="202.2" r="3" fill="#00BCD4"/><circle cx="160.0" cy="230.3" r="3" fill="#00BCD4"/><circle cx="180.0" cy="230.5" r="3" fill="#00BCD4"/><circle cx="200.0" cy="240.0" r="3" fill="#00BCD4"/><circle cx="220.0" cy="219.7" r="3" fill="#00BCD4"/><circle cx="240.0" cy="216.1" r="3" fill="#00BCD4"/><circle cx="260.0" cy="218.6" r="3" fill="#00BCD4"/><circle cx="280.0" cy="226.6" r="3" fill="#00BCD4"/><circle cx="300.0" cy="219.5" r="3" fill="#00BCD4"/><circle cx="320.0" cy="231.5" r="3" fill="#00BCD4"/><circle cx="340.0" cy="214.6" r="3" fill="#00BCD4"/><circle cx="360.0" cy="183.3" r="3" fill="#00BCD4"/><circle cx="380.0" cy="236.1" r="3" fill="#00BCD4"/><circle cx="400.0" cy="204.0" r="3" fill="#00BCD4"/><circle cx="420.0" cy="203.9" r="3" fill="#00BCD4"/><circle cx="440.0" cy="172.6" r="3" fill="#00BCD4"/><circle cx="460.0" cy="209.3" r="3" fill="#00BCD4"/><circle cx="480.0" cy="223.5" r="3" fill="#00BCD4"/><rect x="490" y="134" width="10" height="10" fill="#00BCD4"/><text x="504" y="143" font-family="system-ui, -apple-system, sans-serif" font-size="10" fill="#333">deepseek</text><text x="60.0" y="256.0" text-anchor="middle" font-family="system-ui, -apple-system, sans-serif" font-size="9" fill="#666">33376499</text><text x="100.0" y="256.0" text-anchor="middle" font-family="system-ui, -apple-system, sans-serif" font-size="9" fill="#666">51938981</text><text x="140.0" y="256.0" text-anchor="middle" font-family="system-ui, -apple-system, sans-serif" font-size="9" fill="#666">54994841</text><text x="180.0" y="256.0" text-anchor="middle" font-family="system-ui, -apple-system, sans-serif" font-size="9" fill="#666">74446787</text><text x="220.0" y="256.0" text-anchor="middle" font-family="system-ui, -apple-system, sans-serif" font-size="9" fill="#666">75757458</text><text x="260.0" y="256.0" text-anchor="middle" font-family="system-ui, -apple-system, sans-serif" font-size="9" fill="#666">37885074</text><text x="300.0" y="256.0" text-anchor="middle" font-family="system-ui, -apple-system, sans-serif" font-size="9" fill="#666">41073326</text><text x="340.0" y="256.0" text-anchor="middle" font-family="system-ui, -apple-system, sans-serif" font-size="9" fill="#666">04094958</text><text x="380.0" y="256.0" text-anchor="middle" font-family="system-ui, -apple-system, sans-serif" font-size="9" fill="#666">12682497</text><text x="420.0" y="256.0" text-anchor="middle" font-family="system-ui, -apple-system, sans-serif" font-size="9" fill="#666">39004208</text><text x="460.0" y="256.0" text-anchor="middle" font-family="system-ui, -apple-system, sans-serif" font-size="9" fill="#666">68748512</text></svg>
