<svg xmlns="http://www.w3.org/2000/svg" viewBox="0 0 600 300" width="600" height="300" role="img" aria-label="Avg LLM latency by provider over runs (s)"><text x="300.0" y="24" text-anchor="middle" font-family="system-ui, -apple-system, sans-serif" font-size="14" font-weight="600" fill="#333">Avg LLM latency by provider over runs (s)</text><line x1="60" y1="240.0" x2="480" y2="240.0" stroke="#eee" stroke-width="1"/><text x="54" y="244.0" text-anchor="end" font-family="system-ui, -apple-system, sans-serif" font-size="9" fill="#999">41.35</text><line x1="60" y1="140.0" x2="480" y2="140.0" stroke="#eee" stroke-width="1"/><text x="54" y="144.0" text-anchor="end" font-family="system-ui, -apple-system, sans-serif" font-size="9" fill="#999">168.1</text><line x1="60" y1="40.0" x2="480" y2="40.0" stroke="#eee" stroke-width="1"/><text x="54" y="44.0" text-anchor="end" font-family="system-ui, -apple-system, sans-serif" font-size="9" fill="#999">294.8</text><polyline fill="none" stroke="#4CAF50" stroke-width="2" points="60.0,173.8 75.0,197.9 90.0,188.9 105.0,219.4 120.0,209.1 135.0,193.4 150.0,211.0 165.0,182.7 180.0,176.6 195.0,211.4 210.0,214.2 225.0,154.5 240.0,192.8 255.0,205.5 270.0,219.9 285.0,224.0 300.0,203.8 315.0,214.3 330.0,212.2 345.0,219.9 360.0,227.4 375.0,231.8 390.0,232.6 405.0,234.8 420.0,231.7 435.0,233.0 450.0,216.3 465.0,203.8 480.0,207.1"/><circle cx="60.0" cy="173.8" r="3" fill="#4CAF50"/><circle cx="75.0" cy="197.9" r="3" fill="#4CAF50"/><circle cx="90.0" cy="188.9" r="3" fill="#4CAF50"/><circle cx="105.0" cy="219.4" r="3" fill="#4CAF50"/><circle cx="120.0" cy="209.1" r="3" fill="#4CAF50"/><circle cx="135.0" cy="193.4" r="3" fill="#4CAF50"/><circle cx="150.0" cy="211.0" r="3" fill="#4CAF50"/><circle cx="165.0" cy="182.7" r="3" fill="#4CAF50"/><circle cx="180.0" cy="176.6" r="3" fill="#4CAF50"/><circle cx="195.0" cy="211.4" r="3" fill="#4CAF50"/><circle cx="210.0" cy="214.2" r="3" fill="#4CAF50"/><circle cx="225.0" cy="154.5" r="3" fill="#4CAF50"/><circle cx="240.0" cy="192.8" r="3" fill="#4CAF50"/><circle cx="255.0" cy="205.5" r="3" fill="#4CAF50"/><circle cx="270.0" cy="219.9" r="3" fill="#4CAF50"/><circle cx="285.0" cy="224.0" r="3" fill="#4CAF50"/><circle cx="300.0" cy="203.8" r="3" fill="#4CAF50"/><circle cx="315.0" cy="214.3" r="3" fill="#4CAF50"/><circle cx="330.0" cy="212.2" r="3" fill="#4CAF50"/><circle cx="345.0" cy="219.9" r="3" fill="#4CAF50"/><circle cx="360.0" cy="227.4" r="3" fill="#4CAF50"/><circle cx="375.0" cy="231.8" r="3" fill="#4CAF50"/><circle cx="390.0" cy="232.6" r="3" fill="#4CAF50"/><circle cx="405.0" cy="234.8" r="3" fill="#4CAF50"/><circle cx="420.0" cy="231.7" r="3" fill="#4CAF50"/><circle cx="435.0" cy="233.0" r="3" fill="#4CAF50"/><circle cx="450.0" cy="216.3" r="3" fill="#4CAF50"/><circle cx="465.0" cy="203.8" r="3" fill="#4CAF50"/><circle cx="480.0" cy="207.1" r="3" fill="#4CAF50"/><rect x="490" y="44" width="10" height="10" fill="#4CAF50"/><text x="504" y="53" font-family="system-ui, -apple-system, sans-serif" font-size="10" fill="#333">openai</text><polyline fill="none" stroke="#2196F3" stroke-width="2" points="60.0,202.1 75.0,205.0 90.0,211.1 105.0,215.7 120.0,207.9 135.0,205.5 150.0,221.5 165.0,215.2 180.0,213.6 195.0,204.0 225.0,206.6 240.0,216.0 255.0,201.7 270.0,217.7 285.0,214.1 300.0,208.0 315.0,214.2 330.0,216.2 345.0,218.5 360.0,212.7 375.0,222.0 390.0,216.0 405.0,213.3 420.0,217.2 435.0,216.7 450.0,212.8 465.0,215.5 480.0,215.1"/><circle cx="60.0" cy="202.1" r="3" fill="#2196F3"/><circle cx="75.0" cy="205.0" r="3" fill="#2196F3"/><circle cx="90.0" cy="211.1" r="3" fill="#2196F3"/><circle cx="105.0" cy="215.7" r="3" fill="#2196F3"/><circle cx="120.0" cy="207.9" r="3" fill="#2196F3"/><circle cx="135.0" cy="205.5" r="3" fill="#2196F3"/><circle cx="150.0" cy="221.5" r="3" fill="#2196F3"/><circle cx="165.0" cy="215.2" r="3" fill="#2196F3"/><circle cx="180.0" cy="213.6" r="3" fill="#2196F3"/><circle cx="195.0" cy="204.0" r="3" fill="#2196F3"/><circle cx="225.0" cy="206.6" r="3" fill="#2196F3"/><circle cx="240.0" cy="216.0" r="3" fill="#2196F3"/><circle cx="255.0" cy="201.7" r="3" fill="#2196F3"/><circle cx="270.0" cy="217.7" r="3" fill="#2196F3"/><circle cx="285.0" cy="214.1" r="3" fill="#2196F3"/><circle cx="300.0" cy="208.0" r="3" fill="#2196F3"/><circle cx="315.0" cy="214.2" r="3" fill="#2196F3"/><circle cx="330.0" cy="216.2" r="3" fill="#2196F3"/><circle cx="345.0" cy="218.5" r="3" fill="#2196F3"/><circle cx="360.0" cy="212.7" r="3" fill="#2196F3"/><circle cx="375.0" cy="222.0" r="3" fill="#2196F3"/><circle cx="390.0" cy="216.0" r="3" fill="#2196F3"/><circle cx="405.0" cy="213.3" r="3" fill="#2196F3"/><circle cx="420.0" cy="217.2" r="3" fill="#2196F3"/><circle cx="435.0" cy="216.7" r="3" fill="#2196F3"/><circle cx="450.0" cy="212.8" r="3" fill="#2196F3"/><circle cx="465.0" cy="215.5" r="3" fill="#2196F3"/><circle cx="480.0" cy="215.1" r="3" fill="#2196F3"/><rect x="490" y="62" width="10" height="10" fill="#2196F3"/><text x="504" y="71" font-family="system-ui, -apple-system, sans-serif" font-size="10" fill="#333">anthropic</text><polyline fill="none" stroke="#FF9800" stroke-width="2" points="60.0,180.2 75.0,189.5 90.0,151.7 105.0,191.5 120.0,192.5 135.0,200.7 150.0,178.8 165.0,168.2 180.0,189.5 195.0,170.6 210.0,170.7 225.0,121.7 240.0,128.5 255.0,170.7 270.0,157.8 285.0,177.3 300.0,147.0 315.0,185.7 330.0,169.7 345.0,168.1 360.0,181.5"/><circle cx="60.0" cy="180.2" r="3" fill="#FF9800"/><circle cx="75.0" cy="189.5" r="3" fill="#FF9800"/><circle cx="90.0" cy="151.7" r="3" fill="#FF9800"/><circle cx="105.0" cy="191.5" r="3" fill="#FF9800"/><circle cx="120.0" cy="192.5" r="3" fill="#FF9800"/><circle cx="135.0" cy="200.7" r="3" fill="#FF9800"/><circle cx="150.0" cy="178.8" r="3" fill="#FF9800"/><circle cx="165.0" cy="168.2" r="3" fill="#FF9800"/><circle cx="180.0" cy="189.5" r="3" fill="#FF9800"/><circle cx="195.0" cy="170.6" r="3" fill="#FF9800"/><circle cx="210.0" cy="170.7" r="3" fill="#FF9800"/><circle cx="225.0" cy="121.7" r="3" fill="#FF9800"/><circle cx="240.0" cy="128.5" r="3" fill="#FF9800"/><circle cx="255.0" cy="170.7" r="3" fill="#FF9800"/><circle cx="270.0" cy="157.8" r="3" fill="#FF9800"/><circle cx="285.0" cy="177.3" r="3" fill="#FF9800"/><circle cx="300.0" cy="147.0" r="3" fill="#FF9800"/><circle cx="315.0" cy="185.7" r="3" fill="#FF9800"/><circle cx="330.0" cy="169.7" r="3" fill="#FF9800"/><circle cx="345.0" cy="168.1" r="3" fill="#FF9800"/><circle cx="360.0" cy="181.5" r="3" fill="#FF9800"/><rect x="490" y="80" width="10" height="10" fill="#FF9800"/><text x="504" y="89" font-family="system-ui, -apple-system, sans-serif" font-size="10" fill="#333">gemini</text><polyline fill="none" stroke="#E91E63" stroke-width="2" points="60.0,109.2 75.0,129.4 90.0,158.6 105.0,119.6 120.0,90.4 135.0,193.7 150.0,98.6 165.0,159.7 180.0,169.7 195.0,172.7 210.0,89.0 225.0,125.9 240.0,158.3 255.0,178.0 270.0,115.6 285.0,192.9 300.0,45.9 315.0,172.7 330.0,145.7 345.0,60.9 360.0,109.8 375.0,131.6 390.0,145.0 405.0,160.3 420.0,141.2 435.0,127.8 450.0,40.0 465.0,80.5 480.0,167.8"/><circle cx="60.0" cy="109.2" r="3" fill="#E91E63"/><circle cx="75.0" cy="129.4" r="3" fill="#E91E63"/><circle cx="90.0" cy="158.6" r="3" fill="#E91E63"/><circle cx="105.0" cy="119.6" r="3" fill="#E91E63"/><circle cx="120.0" cy="90.4" r="3" fill="#E91E63"/><circle cx="135.0" cy="193.7" r="3" fill="#E91E63"/><circle cx="150.0" cy="98.6" r="3" fill="#E91E63"/><circle cx="165.0" cy="159.7" r="3" fill="#E91E63"/><circle cx="180.0" cy="169.7" r="3" fill="#E91E63"/><circle cx="195.0" cy="172.7" r="3" fill="#E91E63"/><circle cx="210.0" cy="89.0" r="3" fill="#E91E63"/><circle cx="225.0" cy="125.9" r="3" fill="#E91E63"/><circle cx="240.0" cy="158.3" r="3" fill="#E91E63"/><circle cx="255.0" cy="178.0" r="3" fill="#E91E63"/><circle cx="270.0" cy="115.6" r="3" fill="#E91E63"/><circle cx="285.0" cy="192.9" r="3" fill="#E91E63"/><circle cx="300.0" cy="45.9" r="3" fill="#E91E63"/><circle cx="315.0" cy="172.7" r="3" fill="#E91E63"/><circle cx="330.0" cy="145.7" r="3" fill="#E91E63"/><circle cx="345.0" cy="60.9" r="3" fill="#E91E63"/><circle cx="360.0" cy="109.8" r="3" fill="#E91E63"/><circle cx="375.0" cy="131.6" r="3" fill="#E91E63"/><circle cx="390.0" cy="145.0" r="3" fill="#E91E63"/><circle cx="405.0" cy="160.3" r="3" fill="#E91E63"/><circle cx="420.0" cy="141.2" r="3" fill="#E91E63"/><circle cx="435.0" cy="127.8" r="3" fill="#E91E63"/><circle cx="450.0" cy="40.0" r="3" fill="#E91E63"/><circle cx="465.0" cy="80.5" r="3" fill="#E91E63"/><circle cx="480.0" cy="167.8" r="3" fill="#E91E63"/><rect x="490" y="98" width="10" height="10" fill="#E91E63"/><text x="504" y="107" font-family="system-ui, -apple-system, sans-serif" font-size="10" fill="#333">llama</text><polyline fill="none" stroke="#9C27B0" stroke-width="2" points="60.0,148.4 75.0,130.1 90.0,163.7 105.0,132.6 120.0,118.0 135.0,163.8 150.0,178.1 165.0,193.3 180.0,163.7 195.0,142.0 210.0,192.4 225.0,219.3 240.0,196.3 255.0,221.0 270.0,198.0 285.0,215.5 300.0,217.4 315.0,186.2 330.0,208.6 345.0,228.4 360.0,220.0 375.0,206.8 390.0,219.0 405.0,215.4 420.0,229.1 435.0,224.9 450.0,207.9 465.0,184.3 480.0,202.8"/><circle cx="60.0" cy="148.4" r="3" fill="#9C27B0"/><circle cx="75.0" cy="130.1" r="3" fill="#9C27B0"/><circle cx="90.0" cy="163.7" r="3" fill="#9C27B0"/><circle cx="105.0" cy="132.6" r="3" fill="#9C27B0"/><circle cx="120.0" cy="118.0" r="3" fill="#9C27B0"/><circle cx="135.0" cy="163.8" r="3" fill="#9C27B0"/><circle cx="150.0" cy="178.1" r="3" fill="#9C27B0"/><circle cx="165.0" cy="193.3" r="3" fill="#9C27B0"/><circle cx="180.0" cy="163.7" r="3" fill="#9C27B0"/><circle cx="195.0" cy="142.0" r="3" fill="#9C27B0"/><circle cx="210.0" cy="192.4" r="3" fill="#9C27B0"/><circle cx="225.0" cy="219.3" r="3" fill="#9C27B0"/><circle cx="240.0" cy="196.3" r="3" fill="#9C27B0"/><circle cx="255.0" cy="221.0" r="3" fill="#9C27B0"/><circle cx="270.0" cy="198.0" r="3" fill="#9C27B0"/><circle cx="285.0" cy="215.5" r="3" fill="#9C27B0"/><circle cx="300.0" cy="217.4" r="3" fill="#9C27B0"/><circle cx="315.0" cy="186.2" r="3" fill="#9C27B0"/><circle cx="330.0" cy="208.6" r="3" fill="#9C27B0"/><circle cx="345.0" cy="228.4" r="3" fill="#9C27B0"/><circle cx="360.0" cy="220.0" r="3" fill="#9C27B0"/><circle cx="375.0" cy="206.8" r="3" fill="#9C27B0"/><circle cx="390.0" cy="219.0" r="3" fill="#9C27B0"/><circle cx="405.0" cy="215.4" r="3" fill="#9C27B0"/><circle cx="420.0" cy="229.1" r="3" fill="#9C27B0"/><circle cx="435.0" cy="224.9" r="3" fill="#9C27B0"/><circle cx="450.0" cy="207.9" r="3" fill="#9C27B0"/><circle cx="465.0" cy="184.3" r="3" fill="#9C27B0"/><circle cx="480.0" cy="202.8" r="3" fill="#9C27B0"/><rect x="490" y="116" width="10" height="10" fill="#9C27B0"/><text x="504" y="125" font-family="system-ui, -apple-system, sans-serif" font-size="10" fill="#333">mistral</text><polyline fill="none" stroke="#00BCD4" stroke-width="2" points="75.0,218.7 90.0,214.3 105.0,221.2 120.0,203.3 135.0,230.6 150.0,230.7 165.0,240.0 180.0,220.3 195.0,216.8 210.0,219.3 225.0,227.0 240.0,220.1 255.0,231.8 270.0,215.4 285.0,185.0 300.0,236.2 315.0,205.0 330.0,205.0 345.0,174.6 360.0,210.2 375.0,224.0 390.0,236.0 405.0,189.4 420.0,235.9 435.0,228.8 450.0,235.8 465.0,218.2 480.0,216.2"/><circle cx="75.0" cy="218.7" r="3" fill="#00BCD4"/><circle cx="90.0" cy="214.3" r="3" fill="#00BCD4"/><circle cx="105.0" cy="221.2" r="3" fill="#00BCD4"/><circle cx="120.0" cy="203.3" r="3" fill="#00BCD4"/><circle cx="135.0" cy="230.6" r="3" fill="#00BCD4"/><circle cx="150.0" cy="230.7" r="3" fill="#00BCD4"/><circle cx="165.0" cy="240.0" r="3" fill="#00BCD4"/><circle cx="180.0" cy="220.3" r="3" fill="#00BCD4"/><circle cx="195.0" cy="216.8" r="3" fill="#00BCD4"/><circle cx="210.0" cy="219.3" r="3" fill="#00BCD4"/><circle cx="225.0" cy="227.0" r="3" fill="#00BCD4"/><circle cx="240.0" cy="220.1" r="3" fill="#00BCD4"/><circle cx="255.0" cy="231.8" r="3" fill="#00BCD4"/><circle cx="270.0" cy="215.4" r="3" fill="#00BCD4"/><circle cx="285.0" cy="185.0" r="3" fill="#00BCD4"/><circle cx="300.0" cy="236.2" r="3" fill="#00BCD4"/><circle cx="315.0" cy="205.0" r="3" fill="#00BCD4"/><circle cx="330.0" cy="205.0" r="3" fill="#00BCD4"/><circle cx="345.0" cy="174.6" r="3" fill="#00BCD4"/><circle cx="360.0" cy="210.2" r="3" fill="#00BCD4"/><circle cx="375.0" cy="224.0" r="3" fill="#00BCD4"/><circle cx="390.0" cy="236.0" r="3" fill="#00BCD4"/><circle cx="405.0" cy="189.4" r="3" fill="#00BCD4"/><circle cx="420.0" cy="235.9" r="3" fill="#00BCD4"/><circle cx="435.0" cy="228.8" r="3" fill="#00BCD4"/><circle cx="450.0" cy="235.8" r="3" fill="#00BCD4"/><circle cx="465.0" cy="218.2" r="3" fill="#00BCD4"/><circle cx="480.0" cy="216.2" r="3" fill="#00BCD4"/><rect x="490" y="134" width="10" height="10" fill="#00BCD4"/><text x="504" y="143" font-family="system-ui, -apple-system, sans-serif" font-size="10" fill="#333">deepseek</text><text x="60.0" y="256.0" text-anchor="middle" font-family="system-ui, -apple-system, sans-serif" font-size="9" fill="#666">33376499</text><text x="90.0" y="256.0" text-anchor="middle" font-family="system-ui, -apple-system, sans-serif" font-size="9" fill="#666">51938981</text><text x="120.0" y="256.0" text-anchor="middle" font-family="system-ui, -apple-system, sans-serif" font-size="9" fill="#666">54994841</text><text x="150.0" y="256.0" text-anchor="middle" font-family="system-ui, -apple-system, sans-serif" font-size="9" fill="#666">74446787</text><text x="180.0" y="256.0" text-anchor="middle" font-family="system-ui, -apple-system, sans-serif" font-size="9" fill="#666">75757458</text><text x="210.0" y="256.0" text-anchor="middle" font-family="system-ui, -apple-system, sans-serif" font-size="9" fill="#666">37885074</text><text x="240.0" y="256.0" text-anchor="middle" font-family="system-ui, -apple-system, sans-serif" font-size="9" fill="#666">41073326</text><text x="270.0" y="256.0" text-anchor="middle" font-family="system-ui, -apple-system, sans-serif" font-size="9" fill="#666">04094958</text><text x="300.0" y="256.0" text-anchor="middle" font-family="system-ui, -apple-system, sans-serif" font-size="9" fill="#666">12682497</text><text x="330.0" y="256.0" text-anchor="middle" font-family="system-ui, -apple-system, sans-serif" font-size="9" fill="#666">39004208</text><text x="360.0" y="256.0" text-anchor="middle" font-family="system-ui, -apple-system, sans-serif" font-size="9" fill="#666">68748512</text><text x="390.0" y="256.0" text-anchor="middle" font-family="system-ui, -apple-system, sans-serif" font-size="9" fill="#666">99652631</text><text x="420.0" y="256.0" text-anchor="middle" font-family="system-ui, -apple-system, sans-serif" font-size="9" fill="#666">10405855</text><text x="450.0" y="256.0" text-anchor="middle" font-family="system-ui, -apple-system, sans-serif" font-size="9" fill="#666">62366017</text><text x="480.0" y="256.0" text-anchor="middle" font-family="system-ui, -apple-system, sans-serif" font-size="9" fill="#666">72546331</text></svg>
