<svg xmlns="http://www.w3.org/2000/svg" viewBox="0 0 600 300" width="600" height="300" role="img" aria-label="Avg LLM latency by provider over runs (s)"><text x="300.0" y="24" text-anchor="middle" font-family="system-ui, -apple-system, sans-serif" font-size="14" font-weight="600" fill="#333">Avg LLM latency by provider over runs (s)</text><line x1="60" y1="240.0" x2="480" y2="240.0" stroke="#eee" stroke-width="1"/><text x="54" y="244.0" text-anchor="end" font-family="system-ui, -apple-system, sans-serif" font-size="9" fill="#999">41.35</text><line x1="60" y1="140.0" x2="480" y2="140.0" stroke="#eee" stroke-width="1"/><text x="54" y="144.0" text-anchor="end" font-family="system-ui, -apple-system, sans-serif" font-size="9" fill="#999">168.1</text><line x1="60" y1="40.0" x2="480" y2="40.0" stroke="#eee" stroke-width="1"/><text x="54" y="44.0" text-anchor="end" font-family="system-ui, -apple-system, sans-serif" font-size="9" fill="#999">294.8</text><polyline fill="none" stroke="#4CAF50" stroke-width="2" points="60.0,173.8 75.6,197.9 91.1,188.9 106.7,219.4 122.2,209.1 137.8,193.4 153.3,211.0 168.9,182.7 184.4,176.6 200.0,211.4 215.6,214.2 231.1,154.5 246.7,192.8 262.2,205.5 277.8,219.9 293.3,224.0 308.9,203.8 324.4,214.3 340.0,212.2 355.6,219.9 371.1,227.4 386.7,231.8 402.2,232.6 417.8,234.8 433.3,231.7 448.9,233.0 464.4,216.3 480.0,203.8"/><circle cx="60.0" cy="173.8" r="3" fill="#4CAF50"/><circle cx="75.6" cy="197.9" r="3" fill="#4CAF50"/><circle cx="91.1" cy="188.9" r="3" fill="#4CAF50"/><circle cx="106.7" cy="219.4" r="3" fill="#4CAF50"/><circle cx="122.2" cy="209.1" r="3" fill="#4CAF50"/><circle cx="137.8" cy="193.4" r="3" fill="#4CAF50"/><circle cx="153.3" cy="211.0" r="3" fill="#4CAF50"/><circle cx="168.9" cy="182.7" r="3" fill="#4CAF50"/><circle cx="184.4" cy="176.6" r="3" fill="#4CAF50"/><circle cx="200.0" cy="211.4" r="3" fill="#4CAF50"/><circle cx="215.6" cy="214.2" r="3" fill="#4CAF50"/><circle cx="231.1" cy="154.5" r="3" fill="#4CAF50"/><circle cx="246.7" cy="192.8" r="3" fill="#4CAF50"/><circle cx="262.2" cy="205.5" r="3" fill="#4CAF50"/><circle cx="277.8" cy="219.9" r="3" fill="#4CAF50"/><circle cx="293.3" cy="224.0" r="3" fill="#4CAF50"/><circle cx="308.9" cy="203.8" r="3" fill="#4CAF50"/><circle cx="324.4" cy="214.3" r="3" fill="#4CAF50"/><circle cx="340.0" cy="212.2" r="3" fill="#4CAF50"/><circle cx="355.6" cy="219.9" r="3" fill="#4CAF50"/><circle cx="371.1" cy="227.4" r="3" fill="#4CAF50"/><circle cx="386.7" cy="231.8" r="3" fill="#4CAF50"/><circle cx="402.2" cy="232.6" r="3" fill="#4CAF50"/><circle cx="417.8" cy="234.8" r="3" fill="#4CAF50"/><circle cx="433.3" cy="231.7" r="3" fill="#4CAF50"/><circle cx="448.9" cy="233.0" r="3" fill="#4CAF50"/><circle cx="464.4" cy="216.3" r="3" fill="#4CAF50"/><circle cx="480.0" cy="203.8" r="3" fill="#4CAF50"/><rect x="490" y="44" width="10" height="10" fill="#4CAF50"/><text x="504" y="53" font-family="system-ui, -apple-system, sans-serif" font-size="10" fill="#333">openai</text><polyline fill="none" stroke="#2196F3" stroke-width="2" points="60.0,202.1 75.6,205.0 91.1,211.1 106.7,215.7 122.2,207.9 137.8,205.5 153.3,221.5 168.9,215.2 184.4,213.6 200.0,204.0 231.1,206.6 246.7,216.0 262.2,201.7 277.8,217.7 293.3,214.1 308.9,208.0 324.4,214.2 340.0,216.2 355.6,218.5 371.1,212.7 386.7,222.0 402.2,216.0 417.8,213.3 433.3,217.2 448.9,216.7 464.4,212.8 480.0,215.5"/><circle cx="60.0" cy="202.1" r="3" fill="#2196F3"/><circle cx="75.6" cy="205.0" r="3" fill="#2196F3"/><circle cx="91.1" cy="211.1" r="3" fill="#2196F3"/><circle cx="106.7" cy="215.7" r="3" fill="#2196F3"/><circle cx="122.2" cy="207.9" r="3" fill="#2196F3"/><circle cx="137.8" cy="205.5" r="3" fill="#2196F3"/><circle cx="153.3" cy="221.5" r="3" fill="#2196F3"/><circle cx="168.9" cy="215.2" r="3" fill="#2196F3"/><circle cx="184.4" cy="213.6" r="3" fill="#2196F3"/><circle cx="200.0" cy="204.0" r="3" fill="#2196F3"/><circle cx="231.1" cy="206.6" r="3" fill="#2196F3"/><circle cx="246.7" cy="216.0" r="3" fill="#2196F3"/><circle cx="262.2" cy="201.7" r="3" fill="#2196F3"/><circle cx="277.8" cy="217.7" r="3" fill="#2196F3"/><circle cx="293.3" cy="214.1" r="3" fill="#2196F3"/><circle cx="308.9" cy="208.0" r="3" fill="#2196F3"/><circle cx="324.4" cy="214.2" r="3" fill="#2196F3"/><circle cx="340.0" cy="216.2" r="3" fill="#2196F3"/><circle cx="355.6" cy="218.5" r="3" fill="#2196F3"/><circle cx="371.1" cy="212.7" r="3" fill="#2196F3"/><circle cx="386.7" cy="222.0" r="3" fill="#2196F3"/><circle cx="402.2" cy="216.0" r="3" fill="#2196F3"/><circle cx="417.8" cy="213.3" r="3" fill="#2196F3"/><circle cx="433.3" cy="217.2" r="3" fill="#2196F3"/><circle cx="448.9" cy="216.7" r="3" fill="#2196F3"/><circle cx="464.4" cy="212.8" r="3" fill="#2196F3"/><circle cx="480.0" cy="215.5" r="3" fill="#2196F3"/><rect x="490" y="62" width="10" height="10" fill="#2196F3"/><text x="504" y="71" font-family="system-ui, -apple-system, sans-serif" font-size="10" fill="#333">anthropic</text><polyline fill="none" stroke="#FF9800" stroke-width="2" points="60.0,180.2 75.6,189.5 91.1,151.7 106.7,191.5 122.2,192.5 137.8,200.7 153.3,178.8 168.9,168.2 184.4,189.5 200.0,170.6 215.6,170.7 231.1,121.7 246.7,128.5 262.2,170.7 277.8,157.8 293.3,177.3 308.9,147.0 324.4,185.7 340.0,169.7 355.6,168.1 371.1,181.5"/><circle cx="60.0" cy="180.2" r="3" fill="#FF9800"/><circle cx="75.6" cy="189.5" r="3" fill="#FF9800"/><circle cx="91.1" cy="151.7" r="3" fill="#FF9800"/><circle cx="106.7" cy="191.5" r="3" fill="#FF9800"/><circle cx="122.2" cy="192.5" r="3" fill="#FF9800"/><circle cx="137.8" cy="200.7" r="3" fill="#FF9800"/><circle cx="153.3" cy="178.8" r="3" fill="#FF9800"/><circle cx="168.9" cy="168.2" r="3" fill="#FF9800"/><circle cx="184.4" cy="189.5" r="3" fill="#FF9800"/><circle cx="200.0" cy="170.6" r="3" fill="#FF9800"/><circle cx="215.6" cy="170.7" r="3" fill="#FF9800"/><circle cx="231.1" cy="121.7" r="3" fill="#FF9800"/><circle cx="246.7" cy="128.5" r="3" fill="#FF9800"/><circle cx="262.2" cy="170.7" r="3" fill="#FF9800"/><circle cx="277.8" cy="157.8" r="3" fill="#FF9800"/><circle cx="293.3" cy="177.3" r="3" fill="#FF9800"/><circle cx="308.9" cy="147.0" r="3" fill="#FF9800"/><circle cx="324.4" cy="185.7" r="3" fill="#FF9800"/><circle cx="340.0" cy="169.7" r="3" fill="#FF9800"/><circle cx="355.6" cy="168.1" r="3" fill="#FF9800"/><circle cx="371.1" cy="181.5" r="3" fill="#FF9800"/><rect x="490" y="80" width="10" height="10" fill="#FF9800"/><text x="504" y="89" font-family="system-ui, -apple-system, sans-serif" font-size="10" fill="#333">gemini</text><polyline fill="none" stroke="#E91E63" stroke-width="2" points="60.0,109.2 75.6,129.4 91.1,158.6 106.7,119.6 122.2,90.4 137.8,193.7 153.3,98.6 168.9,159.7 184.4,169.7 200.0,172.7 215.6,89.0 231.1,125.9 246.7,158.3 262.2,178.0 277.8,115.6 293.3,192.9 308.9,45.9 324.4,172.7 340.0,145.7 355.6,60.9 371.1,109.8 386.7,131.6 402.2,145.0 417.8,160.3 433.3,141.2 448.9,127.8 464.4,40.0 480.0,80.5"/><circle cx="60.0" cy="109.2" r="3" fill="#E91E63"/><circle cx="75.6" cy="129.4" r="3" fill="#E91E63"/><circle cx="91.1" cy="158.6" r="3" fill="#E91E63"/><circle cx="106.7" cy="119.6" r="3" fill="#E91E63"/><circle cx="122.2" cy="90.4" r="3" fill="#E91E63"/><circle cx="137.8" cy="193.7" r="3" fill="#E91E63"/><circle cx="153.3" cy="98.6" r="3" fill="#E91E63"/><circle cx="168.9" cy="159.7" r="3" fill="#E91E63"/><circle cx="184.4" cy="169.7" r="3" fill="#E91E63"/><circle cx="200.0" cy="172.7" r="3" fill="#E91E63"/><circle cx="215.6" cy="89.0" r="3" fill="#E91E63"/><circle cx="231.1" cy="125.9" r="3" fill="#E91E63"/><circle cx="246.7" cy="158.3" r="3" fill="#E91E63"/><circle cx="262.2" cy="178.0" r="3" fill="#E91E63"/><circle cx="277.8" cy="115.6" r="3" fill="#E91E63"/><circle cx="293.3" cy="192.9" r="3" fill="#E91E63"/><circle cx="308.9" cy="45.9" r="3" fill="#E91E63"/><circle cx="324.4" cy="172.7" r="3" fill="#E91E63"/><circle cx="340.0" cy="145.7" r="3" fill="#E91E63"/><circle cx="355.6" cy="60.9" r="3" fill="#E91E63"/><circle cx="371.1" cy="109.8" r="3" fill="#E91E63"/><circle cx="386.7" cy="131.6" r="3" fill="#E91E63"/><circle cx="402.2" cy="145.0" r="3" fill="#E91E63"/><circle cx="417.8" cy="160.3" r="3" fill="#E91E63"/><circle cx="433.3" cy="141.2" r="3" fill="#E91E63"/><circle cx="448.9" cy="127.8" r="3" fill="#E91E63"/><circle cx="464.4" cy="40.0" r="3" fill="#E91E63"/><circle cx="480.0" cy="80.5" r="3" fill="#E91E63"/><rect x="490" y="98" width="10" height="10" fill="#E91E63"/><text x="504" y="107" font-family="system-ui, -apple-system, sans-serif" font-size="10" fill="#333">llama</text><polyline fill="none" stroke="#9C27B0" stroke-width="2" points="60.0,148.4 75.6,130.1 91.1,163.7 106.7,132.6 122.2,118.0 137.8,163.8 153.3,178.1 168.9,193.3 184.4,163.7 200.0,142.0 215.6,192.4 231.1,219.3 246.7,196.3 262.2,221.0 277.8,198.0 293.3,215.5 308.9,217.4 324.4,186.2 340.0,208.6 355.6,228.4 371.1,220.0 386.7,206.8 402.2,219.0 417.8,215.4 433.3,229.1 448.9,224.9 464.4,207.9 480.0,184.3"/><circle cx="60.0" cy="148.4" r="3" fill="#9C27B0"/><circle cx="75.6" cy="130.1" r="3" fill="#9C27B0"/><circle cx="91.1" cy="163.7" r="3" fill="#9C27B0"/><circle cx="106.7" cy="132.6" r="3" fill="#9C27B0"/><circle cx="122.2" cy="118.0" r="3" fill="#9C27B0"/><circle cx="137.8" cy="163.8" r="3" fill="#9C27B0"/><circle cx="153.3" cy="178.1" r="3" fill="#9C27B0"/><circle cx="168.9" cy="193.3" r="3" fill="#9C27B0"/><circle cx="184.4" cy="163.7" r="3" fill="#9C27B0"/><circle cx="200.0" cy="142.0" r="3" fill="#9C27B0"/><circle cx="215.6" cy="192.4" r="3" fill="#9C27B0"/><circle cx="231.1" cy="219.3" r="3" fill="#9C27B0"/><circle cx="246.7" cy="196.3" r="3" fill="#9C27B0"/><circle cx="262.2" cy="221.0" r="3" fill="#9C27B0"/><circle cx="277.8" cy="198.0" r="3" fill="#9C27B0"/><circle cx="293.3" cy="215.5" r="3" fill="#9C27B0"/><circle cx="308.9" cy="217.4" r="3" fill="#9C27B0"/><circle cx="324.4" cy="186.2" r="3" fill="#9C27B0"/><circle cx="340.0" cy="208.6" r="3" fill="#9C27B0"/><circle cx="355.6" cy="228.4" r="3" fill="#9C27B0"/><circle cx="371.1" cy="220.0" r="3" fill="#9C27B0"/><circle cx="386.7" cy="206.8" r="3" fill="#9C27B0"/><circle cx="402.2" cy="219.0" r="3" fill="#9C27B0"/><circle cx="417.8" cy="215.4" r="3" fill="#9C27B0"/><circle cx="433.3" cy="229.1" r="3" fill="#9C27B0"/><circle cx="448.9" cy="224.9" r="3" fill="#9C27B0"/><circle cx="464.4" cy="207.9" r="3" fill="#9C27B0"/><circle cx="480.0" cy="184.3" r="3" fill="#9C27B0"/><rect x="490" y="116" width="10" height="10" fill="#9C27B0"/><text x="504" y="125" font-family="system-ui, -apple-system, sans-serif" font-size="10" fill="#333">mistral</text><polyline fill="none" stroke="#00BCD4" stroke-width="2" points="75.6,218.7 91.1,214.3 106.7,221.2 122.2,203.3 137.8,230.6 153.3,230.7 168.9,240.0 184.4,220.3 200.0,216.8 215.6,219.3 231.1,227.0 246.7,220.1 262.2,231.8 277.8,215.4 293.3,185.0 308.9,236.2 324.4,205.0 340.0,205.0 355.6,174.6 371.1,210.2 386.7,224.0 402.2,236.0 417.8,189.4 433.3,235.9 448.9,228.8 464.4,235.8 480.0,218.2"/><circle cx="75.6" cy="218.7" r="3" fill="#00BCD4"/><circle cx="91.1" cy="214.3" r="3" fill="#00BCD4"/><circle cx="106.7" cy="221.2" r="3" fill="#00BCD4"/><circle cx="122.2" cy="203.3" r="3" fill="#00BCD4"/><circle cx="137.8" cy="230.6" r="3" fill="#00BCD4"/><circle cx="153.3" cy="230.7" r="3" fill="#00BCD4"/><circle cx="168.9" cy="240.0" r="3" fill="#00BCD4"/><circle cx="184.4" cy="220.3" r="3" fill="#00BCD4"/><circle cx="200.0" cy="216.8" r="3" fill="#00BCD4"/><circle cx="215.6" cy="219.3" r="3" fill="#00BCD4"/><circle cx="231.1" cy="227.0" r="3" fill="#00BCD4"/><circle cx="246.7" cy="220.1" r="3" fill="#00BCD4"/><circle cx="262.2" cy="231.8" r="3" fill="#00BCD4"/><circle cx="277.8" cy="215.4" r="3" fill="#00BCD4"/><circle cx="293.3" cy="185.0" r="3" fill="#00BCD4"/><circle cx="308.9" cy="236.2" r="3" fill="#00BCD4"/><circle cx="324.4" cy="205.0" r="3" fill="#00BCD4"/><circle cx="340.0" cy="205.0" r="3" fill="#00BCD4"/><circle cx="355.6" cy="174.6" r="3" fill="#00BCD4"/><circle cx="371.1" cy="210.2" r="3" fill="#00BCD4"/><circle cx="386.7" cy="224.0" r="3" fill="#00BCD4"/><circle cx="402.2" cy="236.0" r="3" fill="#00BCD4"/><circle cx="417.8" cy="189.4" r="3" fill="#00BCD4"/><circle cx="433.3" cy="235.9" r="3" fill="#00BCD4"/><circle cx="448.9" cy="228.8" r="3" fill="#00BCD4"/><circle cx="464.4" cy="235.8" r="3" fill="#00BCD4"/><circle cx="480.0" cy="218.2" r="3" fill="#00BCD4"/><rect x="490" y="134" width="10" height="10" fill="#00BCD4"/><text x="504" y="143" font-family="system-ui, -apple-system, sans-serif" font-size="10" fill="#333">deepseek</text><text x="60.0" y="256.0" text-anchor="middle" font-family="system-ui, -apple-system, sans-serif" font-size="9" fill="#666">33376499</text><text x="91.1" y="256.0" text-anchor="middle" font-family="system-ui, -apple-system, sans-serif" font-size="9" fill="#666">51938981</text><text x="122.2" y="256.0" text-anchor="middle" font-family="system-ui, -apple-system, sans-serif" font-size="9" fill="#666">54994841</text><text x="153.3" y="256.0" text-anchor="middle" font-family="system-ui, -apple-system, sans-serif" font-size="9" fill="#666">74446787</text><text x="184.4" y="256.0" text-anchor="middle" font-family="system-ui, -apple-system, sans-serif" font-size="9" fill="#666">75757458</text><text x="215.6" y="256.0" text-anchor="middle" font-family="system-ui, -apple-system, sans-serif" font-size="9" fill="#666">37885074</text><text x="246.7" y="256.0" text-anchor="middle" font-family="system-ui, -apple-system, sans-serif" font-size="9" fill="#666">41073326</text><text x="277.8" y="256.0" text-anchor="middle" font-family="system-ui, -apple-system, sans-serif" font-size="9" fill="#666">04094958</text><text x="308.9" y="256.0" text-anchor="middle" font-family="system-ui, -apple-system, sans-serif" font-size="9" fill="#666">12682497</text><text x="340.0" y="256.0" text-anchor="middle" font-family="system-ui, -apple-system, sans-serif" font-size="9" fill="#666">39004208</text><text x="371.1" y="256.0" text-anchor="middle" font-family="system-ui, -apple-system, sans-serif" font-size="9" fill="#666">68748512</text><text x="402.2" y="256.0" text-anchor="middle" font-family="system-ui, -apple-system, sans-serif" font-size="9" fill="#666">99652631</text><text x="433.3" y="256.0" text-anchor="middle" font-family="system-ui, -apple-system, sans-serif" font-size="9" fill="#666">10405855</text><text x="464.4" y="256.0" text-anchor="middle" font-family="system-ui, -apple-system, sans-serif" font-size="9" fill="#666">62366017</text></svg>
