<svg xmlns="http://www.w3.org/2000/svg" viewBox="0 0 760 348" width="760" height="348" role="img" aria-label="Average LLM latency by provider over runs — llama highest, deepseek lowest" font-family="-apple-system,BlinkMacSystemFont,'Segoe UI',system-ui,sans-serif"><line x1="56" y1="306" x2="642" y2="306" stroke="#d8dee4" stroke-width="1"></line><text x="46" y="310" font-size="9.5" font-weight="400" text-anchor="end" fill="#656d76" font-family="ui-monospace,SFMono-Regular,Menlo,monospace">0.0s</text><line x1="56" y1="235" x2="642" y2="235" stroke="#d8dee4" stroke-width="1"></line><text x="46" y="239" font-size="9.5" font-weight="400" text-anchor="end" fill="#656d76" font-family="ui-monospace,SFMono-Regular,Menlo,monospace">82.5s</text><line x1="56" y1="164" x2="642" y2="164" stroke="#d8dee4" stroke-width="1"></line><text x="46" y="168" font-size="9.5" font-weight="400" text-anchor="end" fill="#656d76" font-family="ui-monospace,SFMono-Regular,Menlo,monospace">165.1s</text><line x1="56" y1="93" x2="642" y2="93" stroke="#d8dee4" stroke-width="1"></line><text x="46" y="97" font-size="9.5" font-weight="400" text-anchor="end" fill="#656d76" font-family="ui-monospace,SFMono-Regular,Menlo,monospace">247.6s</text><line x1="56" y1="22" x2="642" y2="22" stroke="#d8dee4" stroke-width="1"></line><text x="46" y="26" font-size="9.5" font-weight="400" text-anchor="end" fill="#656d76" font-family="ui-monospace,SFMono-Regular,Menlo,monospace">330.2s</text><text x="56" y="324" font-size="9.5" font-weight="400" text-anchor="middle" fill="#656d76" font-family="ui-monospace,SFMono-Regular,Menlo,monospace">06/08</text><text x="109.97" y="324" font-size="9.5" font-weight="400" text-anchor="middle" fill="#656d76" font-family="ui-monospace,SFMono-Regular,Menlo,monospace">06/09</text><text x="163.95" y="324" font-size="9.5" font-weight="400" text-anchor="middle" fill="#656d76" font-family="ui-monospace,SFMono-Regular,Menlo,monospace">06/10</text><text x="217.92" y="324" font-size="9.5" font-weight="400" text-anchor="middle" fill="#656d76" font-family="ui-monospace,SFMono-Regular,Menlo,monospace">06/14</text><text x="271.89" y="324" font-size="9.5" font-weight="400" text-anchor="middle" fill="#656d76" font-family="ui-monospace,SFMono-Regular,Menlo,monospace">06/15</text><text x="325.87" y="324" font-size="9.5" font-weight="400" text-anchor="middle" fill="#656d76" font-family="ui-monospace,SFMono-Regular,Menlo,monospace">06/16</text><text x="379.84" y="324" font-size="9.5" font-weight="400" text-anchor="middle" fill="#656d76" font-family="ui-monospace,SFMono-Regular,Menlo,monospace">06/18</text><text x="433.82" y="324" font-size="9.5" font-weight="400" text-anchor="middle" fill="#656d76" font-family="ui-monospace,SFMono-Regular,Menlo,monospace">06/20</text><text x="487.79" y="324" font-size="9.5" font-weight="400" text-anchor="middle" fill="#656d76" font-family="ui-monospace,SFMono-Regular,Menlo,monospace">06/21</text><text x="541.76" y="324" font-size="9.5" font-weight="400" text-anchor="middle" fill="#656d76" font-family="ui-monospace,SFMono-Regular,Menlo,monospace">06/23</text><text x="595.74" y="324" font-size="9.5" font-weight="400" text-anchor="middle" fill="#656d76" font-family="ui-monospace,SFMono-Regular,Menlo,monospace">06/24</text><text x="642" y="324" font-size="9.5" font-weight="400" text-anchor="middle" fill="#656d76" font-family="ui-monospace,SFMono-Regular,Menlo,monospace">06/25</text><polyline fill="none" stroke="#E8835A" stroke-width="2.4" stroke-linejoin="round" stroke-linecap="round" points="56,229.15 63.71,232.31 71.42,238.94 79.13,244 86.84,235.49 94.55,232.81 102.26,250.28 109.97,243.38 117.68,241.66 125.39,231.14 140.82,234.04 148.53,244.32 156.24,228.71 163.95,246.08 171.66,242.18 179.37,235.58 187.08,242.32 194.79,244.55 202.5,246.98 210.21,240.71 217.92,250.83 225.63,244.26 233.34,241.33 241.05,245.63 248.76,245.02 256.47,240.82 264.18,243.78 271.89,243.28 279.61,240.2 287.32,242.69 295.03,215.59 302.74,241.79 310.45,238.64 318.16,243.45 325.87,243.86 333.58,234.8 341.29,244.51 349,244.64"></polyline><circle cx="56" cy="229.15" r="2.6" fill="#E8835A"></circle><circle cx="63.71" cy="232.31" r="2.6" fill="#E8835A"></circle><circle cx="71.42" cy="238.94" r="2.6" fill="#E8835A"></circle><circle cx="79.13" cy="244" r="2.6" fill="#E8835A"></circle><circle cx="86.84" cy="235.49" r="2.6" fill="#E8835A"></circle><circle cx="94.55" cy="232.81" r="2.6" fill="#E8835A"></circle><circle cx="102.26" cy="250.28" r="2.6" fill="#E8835A"></circle><circle cx="109.97" cy="243.38" r="2.6" fill="#E8835A"></circle><circle cx="117.68" cy="241.66" r="2.6" fill="#E8835A"></circle><circle cx="125.39" cy="231.14" r="2.6" fill="#E8835A"></circle><circle cx="140.82" cy="234.04" r="2.6" fill="#E8835A"></circle><circle cx="148.53" cy="244.32" r="2.6" fill="#E8835A"></circle><circle cx="156.24" cy="228.71" r="2.6" fill="#E8835A"></circle><circle cx="163.95" cy="246.08" r="2.6" fill="#E8835A"></circle><circle cx="171.66" cy="242.18" r="2.6" fill="#E8835A"></circle><circle cx="179.37" cy="235.58" r="2.6" fill="#E8835A"></circle><circle cx="187.08" cy="242.32" r="2.6" fill="#E8835A"></circle><circle cx="194.79" cy="244.55" r="2.6" fill="#E8835A"></circle><circle cx="202.5" cy="246.98" r="2.6" fill="#E8835A"></circle><circle cx="210.21" cy="240.71" r="2.6" fill="#E8835A"></circle><circle cx="217.92" cy="250.83" r="2.6" fill="#E8835A"></circle><circle cx="225.63" cy="244.26" r="2.6" fill="#E8835A"></circle><circle cx="233.34" cy="241.33" r="2.6" fill="#E8835A"></circle><circle cx="241.05" cy="245.63" r="2.6" fill="#E8835A"></circle><circle cx="248.76" cy="245.02" r="2.6" fill="#E8835A"></circle><circle cx="256.47" cy="240.82" r="2.6" fill="#E8835A"></circle><circle cx="264.18" cy="243.78" r="2.6" fill="#E8835A"></circle><circle cx="271.89" cy="243.28" r="2.6" fill="#E8835A"></circle><circle cx="279.61" cy="240.2" r="2.6" fill="#E8835A"></circle><circle cx="287.32" cy="242.69" r="2.6" fill="#E8835A"></circle><circle cx="295.03" cy="215.59" r="2.6" fill="#E8835A"></circle><circle cx="302.74" cy="241.79" r="2.6" fill="#E8835A"></circle><circle cx="310.45" cy="238.64" r="2.6" fill="#E8835A"></circle><circle cx="318.16" cy="243.45" r="2.6" fill="#E8835A"></circle><circle cx="325.87" cy="243.86" r="2.6" fill="#E8835A"></circle><circle cx="333.58" cy="234.8" r="2.6" fill="#E8835A"></circle><circle cx="341.29" cy="244.51" r="2.6" fill="#E8835A"></circle><circle cx="349" cy="244.64" r="2.6" fill="#E8835A"></circle><polyline fill="none" stroke="#6366F1" stroke-width="2.4" stroke-linejoin="round" stroke-linecap="round" points="63.71,247.24 71.42,242.4 79.13,249.98 86.84,230.48 94.55,260.21 102.26,260.34 109.97,270.44 117.68,248.92 125.39,245.19 133.11,247.83 140.82,256.22 148.53,248.72 156.24,261.47 163.95,243.58 171.66,210.49 179.37,266.33 187.08,232.33 194.79,232.27 202.5,199.16 210.21,237.91 217.92,252.97 225.63,266.11 233.34,215.25 241.05,265.97 248.76,258.25 256.47,265.82 264.18,246.69 271.89,244.53 287.32,240.91 295.03,255.51 302.74,252.51 310.45,237.2 318.16,258.24 325.87,235.84 333.58,252.87 341.29,243.73 349,249.01 364.42,263.05 372.13,262.95 379.84,250.85 387.55,238.76 395.26,245.84 402.97,240.49 410.68,244.58 418.39,238.25 426.11,266.43 433.82,219.91 441.53,256.77 456.95,250.11 464.66,264.15 472.37,249.18 480.08,252.64 487.79,236.94 495.5,257.91 503.21,245.05 510.92,245.47 518.63,251.25 526.34,250.75 534.05,249.01 541.76,257.36 549.47,265.15 557.18,253.64 564.89,262.66 572.61,253.56 580.32,247.85 588.03,241.21 595.74,265.06 603.45,257.2 611.16,265.73 618.87,265.31 626.58,250.21 634.29,257.28 642,263.83"></polyline><circle cx="63.71" cy="247.24" r="2.6" fill="#6366F1"></circle><circle cx="71.42" cy="242.4" r="2.6" fill="#6366F1"></circle><circle cx="79.13" cy="249.98" r="2.6" fill="#6366F1"></circle><circle cx="86.84" cy="230.48" r="2.6" fill="#6366F1"></circle><circle cx="94.55" cy="260.21" r="2.6" fill="#6366F1"></circle><circle cx="102.26" cy="260.34" r="2.6" fill="#6366F1"></circle><circle cx="109.97" cy="270.44" r="2.6" fill="#6366F1"></circle><circle cx="117.68" cy="248.92" r="2.6" fill="#6366F1"></circle><circle cx="125.39" cy="245.19" r="2.6" fill="#6366F1"></circle><circle cx="133.11" cy="247.83" r="2.6" fill="#6366F1"></circle><circle cx="140.82" cy="256.22" r="2.6" fill="#6366F1"></circle><circle cx="148.53" cy="248.72" r="2.6" fill="#6366F1"></circle><circle cx="156.24" cy="261.47" r="2.6" fill="#6366F1"></circle><circle cx="163.95" cy="243.58" r="2.6" fill="#6366F1"></circle><circle cx="171.66" cy="210.49" r="2.6" fill="#6366F1"></circle><circle cx="179.37" cy="266.33" r="2.6" fill="#6366F1"></circle><circle cx="187.08" cy="232.33" r="2.6" fill="#6366F1"></circle><circle cx="194.79" cy="232.27" r="2.6" fill="#6366F1"></circle><circle cx="202.5" cy="199.16" r="2.6" fill="#6366F1"></circle><circle cx="210.21" cy="237.91" r="2.6" fill="#6366F1"></circle><circle cx="217.92" cy="252.97" r="2.6" fill="#6366F1"></circle><circle cx="225.63" cy="266.11" r="2.6" fill="#6366F1"></circle><circle cx="233.34" cy="215.25" r="2.6" fill="#6366F1"></circle><circle cx="241.05" cy="265.97" r="2.6" fill="#6366F1"></circle><circle cx="248.76" cy="258.25" r="2.6" fill="#6366F1"></circle><circle cx="256.47" cy="265.82" r="2.6" fill="#6366F1"></circle><circle cx="264.18" cy="246.69" r="2.6" fill="#6366F1"></circle><circle cx="271.89" cy="244.53" r="2.6" fill="#6366F1"></circle><circle cx="287.32" cy="240.91" r="2.6" fill="#6366F1"></circle><circle cx="295.03" cy="255.51" r="2.6" fill="#6366F1"></circle><circle cx="302.74" cy="252.51" r="2.6" fill="#6366F1"></circle><circle cx="310.45" cy="237.2" r="2.6" fill="#6366F1"></circle><circle cx="318.16" cy="258.24" r="2.6" fill="#6366F1"></circle><circle cx="325.87" cy="235.84" r="2.6" fill="#6366F1"></circle><circle cx="333.58" cy="252.87" r="2.6" fill="#6366F1"></circle><circle cx="341.29" cy="243.73" r="2.6" fill="#6366F1"></circle><circle cx="349" cy="249.01" r="2.6" fill="#6366F1"></circle><circle cx="364.42" cy="263.05" r="2.6" fill="#6366F1"></circle><circle cx="372.13" cy="262.95" r="2.6" fill="#6366F1"></circle><circle cx="379.84" cy="250.85" r="2.6" fill="#6366F1"></circle><circle cx="387.55" cy="238.76" r="2.6" fill="#6366F1"></circle><circle cx="395.26" cy="245.84" r="2.6" fill="#6366F1"></circle><circle cx="402.97" cy="240.49" r="2.6" fill="#6366F1"></circle><circle cx="410.68" cy="244.58" r="2.6" fill="#6366F1"></circle><circle cx="418.39" cy="238.25" r="2.6" fill="#6366F1"></circle><circle cx="426.11" cy="266.43" r="2.6" fill="#6366F1"></circle><circle cx="433.82" cy="219.91" r="2.6" fill="#6366F1"></circle><circle cx="441.53" cy="256.77" r="2.6" fill="#6366F1"></circle><circle cx="456.95" cy="250.11" r="2.6" fill="#6366F1"></circle><circle cx="464.66" cy="264.15" r="2.6" fill="#6366F1"></circle><circle cx="472.37" cy="249.18" r="2.6" fill="#6366F1"></circle><circle cx="480.08" cy="252.64" r="2.6" fill="#6366F1"></circle><circle cx="487.79" cy="236.94" r="2.6" fill="#6366F1"></circle><circle cx="495.5" cy="257.91" r="2.6" fill="#6366F1"></circle><circle cx="503.21" cy="245.05" r="2.6" fill="#6366F1"></circle><circle cx="510.92" cy="245.47" r="2.6" fill="#6366F1"></circle><circle cx="518.63" cy="251.25" r="2.6" fill="#6366F1"></circle><circle cx="526.34" cy="250.75" r="2.6" fill="#6366F1"></circle><circle cx="534.05" cy="249.01" r="2.6" fill="#6366F1"></circle><circle cx="541.76" cy="257.36" r="2.6" fill="#6366F1"></circle><circle cx="549.47" cy="265.15" r="2.6" fill="#6366F1"></circle><circle cx="557.18" cy="253.64" r="2.6" fill="#6366F1"></circle><circle cx="564.89" cy="262.66" r="2.6" fill="#6366F1"></circle><circle cx="572.61" cy="253.56" r="2.6" fill="#6366F1"></circle><circle cx="580.32" cy="247.85" r="2.6" fill="#6366F1"></circle><circle cx="588.03" cy="241.21" r="2.6" fill="#6366F1"></circle><circle cx="595.74" cy="265.06" r="2.6" fill="#6366F1"></circle><circle cx="603.45" cy="257.2" r="2.6" fill="#6366F1"></circle><circle cx="611.16" cy="265.73" r="2.6" fill="#6366F1"></circle><circle cx="618.87" cy="265.31" r="2.6" fill="#6366F1"></circle><circle cx="626.58" cy="250.21" r="2.6" fill="#6366F1"></circle><circle cx="634.29" cy="257.28" r="2.6" fill="#6366F1"></circle><circle cx="642" cy="263.83" r="2.6" fill="#6366F1"></circle><polyline fill="none" stroke="#2DA98C" stroke-width="2.4" stroke-linejoin="round" stroke-linecap="round" points="56,205.26 63.71,215.39 71.42,174.15 79.13,217.56 86.84,218.68 94.55,227.57 102.26,203.76 109.97,192.14 117.68,215.35 125.39,194.78 133.11,194.92 140.82,141.5 148.53,148.87 156.24,194.84 163.95,180.85 171.66,202.09 179.37,169.08 187.08,211.29 194.79,193.77 202.5,192.04 210.21,206.61 287.32,221.15 295.03,190.23 302.74,183.33 310.45,225.15 318.16,184.37 325.87,182.1 333.58,210.86 341.29,161.53 349,210.56 364.42,182.01 372.13,172.32 379.84,181.93 387.55,186.76 395.26,217.59 402.97,171.76 410.68,211.13 418.39,171.55 426.11,181.17 433.82,189.96 441.53,191.02 456.95,212.98 464.66,170.09 472.37,127.97 480.08,222.7 487.79,200.4 495.5,155.75 503.21,184.88 510.92,176.48 518.63,167.89 526.34,205.24 534.05,167.24 541.76,154.57 549.47,196.61 557.18,154.13 564.89,196.6 572.61,203.92 580.32,125.1 588.03,151.41 595.74,176.39 603.45,198.69"></polyline><circle cx="56" cy="205.26" r="2.6" fill="#2DA98C"></circle><circle cx="63.71" cy="215.39" r="2.6" fill="#2DA98C"></circle><circle cx="71.42" cy="174.15" r="2.6" fill="#2DA98C"></circle><circle cx="79.13" cy="217.56" r="2.6" fill="#2DA98C"></circle><circle cx="86.84" cy="218.68" r="2.6" fill="#2DA98C"></circle><circle cx="94.55" cy="227.57" r="2.6" fill="#2DA98C"></circle><circle cx="102.26" cy="203.76" r="2.6" fill="#2DA98C"></circle><circle cx="109.97" cy="192.14" r="2.6" fill="#2DA98C"></circle><circle cx="117.68" cy="215.35" r="2.6" fill="#2DA98C"></circle><circle cx="125.39" cy="194.78" r="2.6" fill="#2DA98C"></circle><circle cx="133.11" cy="194.92" r="2.6" fill="#2DA98C"></circle><circle cx="140.82" cy="141.5" r="2.6" fill="#2DA98C"></circle><circle cx="148.53" cy="148.87" r="2.6" fill="#2DA98C"></circle><circle cx="156.24" cy="194.84" r="2.6" fill="#2DA98C"></circle><circle cx="163.95" cy="180.85" r="2.6" fill="#2DA98C"></circle><circle cx="171.66" cy="202.09" r="2.6" fill="#2DA98C"></circle><circle cx="179.37" cy="169.08" r="2.6" fill="#2DA98C"></circle><circle cx="187.08" cy="211.29" r="2.6" fill="#2DA98C"></circle><circle cx="194.79" cy="193.77" r="2.6" fill="#2DA98C"></circle><circle cx="202.5" cy="192.04" r="2.6" fill="#2DA98C"></circle><circle cx="210.21" cy="206.61" r="2.6" fill="#2DA98C"></circle><circle cx="287.32" cy="221.15" r="2.6" fill="#2DA98C"></circle><circle cx="295.03" cy="190.23" r="2.6" fill="#2DA98C"></circle><circle cx="302.74" cy="183.33" r="2.6" fill="#2DA98C"></circle><circle cx="310.45" cy="225.15" r="2.6" fill="#2DA98C"></circle><circle cx="318.16" cy="184.37" r="2.6" fill="#2DA98C"></circle><circle cx="325.87" cy="182.1" r="2.6" fill="#2DA98C"></circle><circle cx="333.58" cy="210.86" r="2.6" fill="#2DA98C"></circle><circle cx="341.29" cy="161.53" r="2.6" fill="#2DA98C"></circle><circle cx="349" cy="210.56" r="2.6" fill="#2DA98C"></circle><circle cx="364.42" cy="182.01" r="2.6" fill="#2DA98C"></circle><circle cx="372.13" cy="172.32" r="2.6" fill="#2DA98C"></circle><circle cx="379.84" cy="181.93" r="2.6" fill="#2DA98C"></circle><circle cx="387.55" cy="186.76" r="2.6" fill="#2DA98C"></circle><circle cx="395.26" cy="217.59" r="2.6" fill="#2DA98C"></circle><circle cx="402.97" cy="171.76" r="2.6" fill="#2DA98C"></circle><circle cx="410.68" cy="211.13" r="2.6" fill="#2DA98C"></circle><circle cx="418.39" cy="171.55" r="2.6" fill="#2DA98C"></circle><circle cx="426.11" cy="181.17" r="2.6" fill="#2DA98C"></circle><circle cx="433.82" cy="189.96" r="2.6" fill="#2DA98C"></circle><circle cx="441.53" cy="191.02" r="2.6" fill="#2DA98C"></circle><circle cx="456.95" cy="212.98" r="2.6" fill="#2DA98C"></circle><circle cx="464.66" cy="170.09" r="2.6" fill="#2DA98C"></circle><circle cx="472.37" cy="127.97" r="2.6" fill="#2DA98C"></circle><circle cx="480.08" cy="222.7" r="2.6" fill="#2DA98C"></circle><circle cx="487.79" cy="200.4" r="2.6" fill="#2DA98C"></circle><circle cx="495.5" cy="155.75" r="2.6" fill="#2DA98C"></circle><circle cx="503.21" cy="184.88" r="2.6" fill="#2DA98C"></circle><circle cx="510.92" cy="176.48" r="2.6" fill="#2DA98C"></circle><circle cx="518.63" cy="167.89" r="2.6" fill="#2DA98C"></circle><circle cx="526.34" cy="205.24" r="2.6" fill="#2DA98C"></circle><circle cx="534.05" cy="167.24" r="2.6" fill="#2DA98C"></circle><circle cx="541.76" cy="154.57" r="2.6" fill="#2DA98C"></circle><circle cx="549.47" cy="196.61" r="2.6" fill="#2DA98C"></circle><circle cx="557.18" cy="154.13" r="2.6" fill="#2DA98C"></circle><circle cx="564.89" cy="196.6" r="2.6" fill="#2DA98C"></circle><circle cx="572.61" cy="203.92" r="2.6" fill="#2DA98C"></circle><circle cx="580.32" cy="125.1" r="2.6" fill="#2DA98C"></circle><circle cx="588.03" cy="151.41" r="2.6" fill="#2DA98C"></circle><circle cx="595.74" cy="176.39" r="2.6" fill="#2DA98C"></circle><circle cx="603.45" cy="198.69" r="2.6" fill="#2DA98C"></circle><polyline fill="none" stroke="#A371F7" stroke-width="2.4" stroke-linejoin="round" stroke-linecap="round" points="56,127.86 63.71,149.85 71.42,181.76 79.13,139.24 86.84,107.36 94.55,219.97 102.26,116.3 109.97,182.89 117.68,193.78 125.39,197.11 133.11,105.85 140.82,146.07 148.53,181.42 156.24,202.88 163.95,134.79 171.66,219.07 179.37,58.83 187.08,197.05 194.79,167.66 202.5,75.26 210.21,128.5 217.92,152.23 225.63,166.9 233.34,183.57 241.05,162.79 248.76,148.18 256.47,52.43 264.18,96.59 271.89,191.76 287.32,151.86 295.03,169.19 302.74,135.22 318.16,206.77 325.87,167.88 333.58,189.32 341.29,143.76 349,142.49 356.71,163.7 364.42,128.52 372.13,144.9 379.84,92.3 387.55,157.36 395.26,160.21 402.97,176.32 410.68,116.21 418.39,165.98 426.11,136.47 441.53,155.12 456.95,134.62 472.37,114.6 480.08,127.72 487.79,219.84 495.5,170.06 503.21,154.88 510.92,189.66 518.63,162.21 526.34,183.03 534.05,165.52 541.76,176.75 549.47,155.74 564.89,148.44 572.61,196.35 580.32,143.94 588.03,112.27 595.74,149.32 603.45,161.5 611.16,199.8 618.87,197.27 626.58,116.93 634.29,119.32 642,194.29"></polyline><circle cx="56" cy="127.86" r="2.6" fill="#A371F7"></circle><circle cx="63.71" cy="149.85" r="2.6" fill="#A371F7"></circle><circle cx="71.42" cy="181.76" r="2.6" fill="#A371F7"></circle><circle cx="79.13" cy="139.24" r="2.6" fill="#A371F7"></circle><circle cx="86.84" cy="107.36" r="2.6" fill="#A371F7"></circle><circle cx="94.55" cy="219.97" r="2.6" fill="#A371F7"></circle><circle cx="102.26" cy="116.3" r="2.6" fill="#A371F7"></circle><circle cx="109.97" cy="182.89" r="2.6" fill="#A371F7"></circle><circle cx="117.68" cy="193.78" r="2.6" fill="#A371F7"></circle><circle cx="125.39" cy="197.11" r="2.6" fill="#A371F7"></circle><circle cx="133.11" cy="105.85" r="2.6" fill="#A371F7"></circle><circle cx="140.82" cy="146.07" r="2.6" fill="#A371F7"></circle><circle cx="148.53" cy="181.42" r="2.6" fill="#A371F7"></circle><circle cx="156.24" cy="202.88" r="2.6" fill="#A371F7"></circle><circle cx="163.95" cy="134.79" r="2.6" fill="#A371F7"></circle><circle cx="171.66" cy="219.07" r="2.6" fill="#A371F7"></circle><circle cx="179.37" cy="58.83" r="2.6" fill="#A371F7"></circle><circle cx="187.08" cy="197.05" r="2.6" fill="#A371F7"></circle><circle cx="194.79" cy="167.66" r="2.6" fill="#A371F7"></circle><circle cx="202.5" cy="75.26" r="2.6" fill="#A371F7"></circle><circle cx="210.21" cy="128.5" r="2.6" fill="#A371F7"></circle><circle cx="217.92" cy="152.23" r="2.6" fill="#A371F7"></circle><circle cx="225.63" cy="166.9" r="2.6" fill="#A371F7"></circle><circle cx="233.34" cy="183.57" r="2.6" fill="#A371F7"></circle><circle cx="241.05" cy="162.79" r="2.6" fill="#A371F7"></circle><circle cx="248.76" cy="148.18" r="2.6" fill="#A371F7"></circle><circle cx="256.47" cy="52.43" r="2.6" fill="#A371F7"></circle><circle cx="264.18" cy="96.59" r="2.6" fill="#A371F7"></circle><circle cx="271.89" cy="191.76" r="2.6" fill="#A371F7"></circle><circle cx="287.32" cy="151.86" r="2.6" fill="#A371F7"></circle><circle cx="295.03" cy="169.19" r="2.6" fill="#A371F7"></circle><circle cx="302.74" cy="135.22" r="2.6" fill="#A371F7"></circle><circle cx="318.16" cy="206.77" r="2.6" fill="#A371F7"></circle><circle cx="325.87" cy="167.88" r="2.6" fill="#A371F7"></circle><circle cx="333.58" cy="189.32" r="2.6" fill="#A371F7"></circle><circle cx="341.29" cy="143.76" r="2.6" fill="#A371F7"></circle><circle cx="349" cy="142.49" r="2.6" fill="#A371F7"></circle><circle cx="356.71" cy="163.7" r="2.6" fill="#A371F7"></circle><circle cx="364.42" cy="128.52" r="2.6" fill="#A371F7"></circle><circle cx="372.13" cy="144.9" r="2.6" fill="#A371F7"></circle><circle cx="379.84" cy="92.3" r="2.6" fill="#A371F7"></circle><circle cx="387.55" cy="157.36" r="2.6" fill="#A371F7"></circle><circle cx="395.26" cy="160.21" r="2.6" fill="#A371F7"></circle><circle cx="402.97" cy="176.32" r="2.6" fill="#A371F7"></circle><circle cx="410.68" cy="116.21" r="2.6" fill="#A371F7"></circle><circle cx="418.39" cy="165.98" r="2.6" fill="#A371F7"></circle><circle cx="426.11" cy="136.47" r="2.6" fill="#A371F7"></circle><circle cx="441.53" cy="155.12" r="2.6" fill="#A371F7"></circle><circle cx="456.95" cy="134.62" r="2.6" fill="#A371F7"></circle><circle cx="472.37" cy="114.6" r="2.6" fill="#A371F7"></circle><circle cx="480.08" cy="127.72" r="2.6" fill="#A371F7"></circle><circle cx="487.79" cy="219.84" r="2.6" fill="#A371F7"></circle><circle cx="495.5" cy="170.06" r="2.6" fill="#A371F7"></circle><circle cx="503.21" cy="154.88" r="2.6" fill="#A371F7"></circle><circle cx="510.92" cy="189.66" r="2.6" fill="#A371F7"></circle><circle cx="518.63" cy="162.21" r="2.6" fill="#A371F7"></circle><circle cx="526.34" cy="183.03" r="2.6" fill="#A371F7"></circle><circle cx="534.05" cy="165.52" r="2.6" fill="#A371F7"></circle><circle cx="541.76" cy="176.75" r="2.6" fill="#A371F7"></circle><circle cx="549.47" cy="155.74" r="2.6" fill="#A371F7"></circle><circle cx="564.89" cy="148.44" r="2.6" fill="#A371F7"></circle><circle cx="572.61" cy="196.35" r="2.6" fill="#A371F7"></circle><circle cx="580.32" cy="143.94" r="2.6" fill="#A371F7"></circle><circle cx="588.03" cy="112.27" r="2.6" fill="#A371F7"></circle><circle cx="595.74" cy="149.32" r="2.6" fill="#A371F7"></circle><circle cx="603.45" cy="161.5" r="2.6" fill="#A371F7"></circle><circle cx="611.16" cy="199.8" r="2.6" fill="#A371F7"></circle><circle cx="618.87" cy="197.27" r="2.6" fill="#A371F7"></circle><circle cx="626.58" cy="116.93" r="2.6" fill="#A371F7"></circle><circle cx="634.29" cy="119.32" r="2.6" fill="#A371F7"></circle><circle cx="642" cy="194.29" r="2.6" fill="#A371F7"></circle><polyline fill="none" stroke="#F0A23B" stroke-width="2.4" stroke-linejoin="round" stroke-linecap="round" points="56,170.6 63.71,150.62 71.42,187.27 79.13,153.33 86.84,137.4 94.55,187.39 102.26,202.98 109.97,219.57 117.68,187.3 125.39,163.64 133.11,218.54 140.82,247.9 148.53,222.75 156.24,249.71 163.95,224.7 171.66,243.69 179.37,245.81 187.08,211.84 194.79,236.21 202.5,257.78 210.21,248.63 217.92,234.2 225.63,247.57 233.34,243.66 241.05,258.59 248.76,253.94 256.47,235.44 264.18,209.7 271.89,229.87 279.61,229.74 287.32,242.74 295.03,219.28 302.74,218.69 310.45,248.17 318.16,252.02 325.87,241.64 333.58,202.83 341.29,191.16 349,236.21 356.71,247.47 364.42,237.91 372.13,227.46 379.84,241.35 387.55,249.73 395.26,234.66 402.97,250 410.68,253.94 418.39,252.42 426.11,245.42 433.82,237.98 441.53,238.85 456.95,257.8 464.66,233.33 472.37,238.96 480.08,252.16 487.79,246.34 495.5,221.3 503.21,228.03 510.92,249.57 518.63,236.95 526.34,243.86 534.05,246.88 541.76,238.45 549.47,247.92 564.89,235.92 572.61,214.9 580.32,201.77 588.03,219.97 595.74,238.65 603.45,232.47 611.16,220.62 618.87,227.53 626.58,228.6 634.29,243.21 642,241.59"></polyline><circle cx="56" cy="170.6" r="2.6" fill="#F0A23B"></circle><circle cx="63.71" cy="150.62" r="2.6" fill="#F0A23B"></circle><circle cx="71.42" cy="187.27" r="2.6" fill="#F0A23B"></circle><circle cx="79.13" cy="153.33" r="2.6" fill="#F0A23B"></circle><circle cx="86.84" cy="137.4" r="2.6" fill="#F0A23B"></circle><circle cx="94.55" cy="187.39" r="2.6" fill="#F0A23B"></circle><circle cx="102.26" cy="202.98" r="2.6" fill="#F0A23B"></circle><circle cx="109.97" cy="219.57" r="2.6" fill="#F0A23B"></circle><circle cx="117.68" cy="187.3" r="2.6" fill="#F0A23B"></circle><circle cx="125.39" cy="163.64" r="2.6" fill="#F0A23B"></circle><circle cx="133.11" cy="218.54" r="2.6" fill="#F0A23B"></circle><circle cx="140.82" cy="247.9" r="2.6" fill="#F0A23B"></circle><circle cx="148.53" cy="222.75" r="2.6" fill="#F0A23B"></circle><circle cx="156.24" cy="249.71" r="2.6" fill="#F0A23B"></circle><circle cx="163.95" cy="224.7" r="2.6" fill="#F0A23B"></circle><circle cx="171.66" cy="243.69" r="2.6" fill="#F0A23B"></circle><circle cx="179.37" cy="245.81" r="2.6" fill="#F0A23B"></circle><circle cx="187.08" cy="211.84" r="2.6" fill="#F0A23B"></circle><circle cx="194.79" cy="236.21" r="2.6" fill="#F0A23B"></circle><circle cx="202.5" cy="257.78" r="2.6" fill="#F0A23B"></circle><circle cx="210.21" cy="248.63" r="2.6" fill="#F0A23B"></circle><circle cx="217.92" cy="234.2" r="2.6" fill="#F0A23B"></circle><circle cx="225.63" cy="247.57" r="2.6" fill="#F0A23B"></circle><circle cx="233.34" cy="243.66" r="2.6" fill="#F0A23B"></circle><circle cx="241.05" cy="258.59" r="2.6" fill="#F0A23B"></circle><circle cx="248.76" cy="253.94" r="2.6" fill="#F0A23B"></circle><circle cx="256.47" cy="235.44" r="2.6" fill="#F0A23B"></circle><circle cx="264.18" cy="209.7" r="2.6" fill="#F0A23B"></circle><circle cx="271.89" cy="229.87" r="2.6" fill="#F0A23B"></circle><circle cx="279.61" cy="229.74" r="2.6" fill="#F0A23B"></circle><circle cx="287.32" cy="242.74" r="2.6" fill="#F0A23B"></circle><circle cx="295.03" cy="219.28" r="2.6" fill="#F0A23B"></circle><circle cx="302.74" cy="218.69" r="2.6" fill="#F0A23B"></circle><circle cx="310.45" cy="248.17" r="2.6" fill="#F0A23B"></circle><circle cx="318.16" cy="252.02" r="2.6" fill="#F0A23B"></circle><circle cx="325.87" cy="241.64" r="2.6" fill="#F0A23B"></circle><circle cx="333.58" cy="202.83" r="2.6" fill="#F0A23B"></circle><circle cx="341.29" cy="191.16" r="2.6" fill="#F0A23B"></circle><circle cx="349" cy="236.21" r="2.6" fill="#F0A23B"></circle><circle cx="356.71" cy="247.47" r="2.6" fill="#F0A23B"></circle><circle cx="364.42" cy="237.91" r="2.6" fill="#F0A23B"></circle><circle cx="372.13" cy="227.46" r="2.6" fill="#F0A23B"></circle><circle cx="379.84" cy="241.35" r="2.6" fill="#F0A23B"></circle><circle cx="387.55" cy="249.73" r="2.6" fill="#F0A23B"></circle><circle cx="395.26" cy="234.66" r="2.6" fill="#F0A23B"></circle><circle cx="402.97" cy="250" r="2.6" fill="#F0A23B"></circle><circle cx="410.68" cy="253.94" r="2.6" fill="#F0A23B"></circle><circle cx="418.39" cy="252.42" r="2.6" fill="#F0A23B"></circle><circle cx="426.11" cy="245.42" r="2.6" fill="#F0A23B"></circle><circle cx="433.82" cy="237.98" r="2.6" fill="#F0A23B"></circle><circle cx="441.53" cy="238.85" r="2.6" fill="#F0A23B"></circle><circle cx="456.95" cy="257.8" r="2.6" fill="#F0A23B"></circle><circle cx="464.66" cy="233.33" r="2.6" fill="#F0A23B"></circle><circle cx="472.37" cy="238.96" r="2.6" fill="#F0A23B"></circle><circle cx="480.08" cy="252.16" r="2.6" fill="#F0A23B"></circle><circle cx="487.79" cy="246.34" r="2.6" fill="#F0A23B"></circle><circle cx="495.5" cy="221.3" r="2.6" fill="#F0A23B"></circle><circle cx="503.21" cy="228.03" r="2.6" fill="#F0A23B"></circle><circle cx="510.92" cy="249.57" r="2.6" fill="#F0A23B"></circle><circle cx="518.63" cy="236.95" r="2.6" fill="#F0A23B"></circle><circle cx="526.34" cy="243.86" r="2.6" fill="#F0A23B"></circle><circle cx="534.05" cy="246.88" r="2.6" fill="#F0A23B"></circle><circle cx="541.76" cy="238.45" r="2.6" fill="#F0A23B"></circle><circle cx="549.47" cy="247.92" r="2.6" fill="#F0A23B"></circle><circle cx="564.89" cy="235.92" r="2.6" fill="#F0A23B"></circle><circle cx="572.61" cy="214.9" r="2.6" fill="#F0A23B"></circle><circle cx="580.32" cy="201.77" r="2.6" fill="#F0A23B"></circle><circle cx="588.03" cy="219.97" r="2.6" fill="#F0A23B"></circle><circle cx="595.74" cy="238.65" r="2.6" fill="#F0A23B"></circle><circle cx="603.45" cy="232.47" r="2.6" fill="#F0A23B"></circle><circle cx="611.16" cy="220.62" r="2.6" fill="#F0A23B"></circle><circle cx="618.87" cy="227.53" r="2.6" fill="#F0A23B"></circle><circle cx="626.58" cy="228.6" r="2.6" fill="#F0A23B"></circle><circle cx="634.29" cy="243.21" r="2.6" fill="#F0A23B"></circle><circle cx="642" cy="241.59" r="2.6" fill="#F0A23B"></circle><polyline fill="none" stroke="#1F9CF0" stroke-width="2.4" stroke-linejoin="round" stroke-linecap="round" points="56,198.31 63.71,224.59 71.42,214.73 79.13,247.97 86.84,236.75 94.55,219.64 102.26,238.79 109.97,207.95 117.68,201.38 125.39,239.3 133.11,242.33 140.82,177.25 148.53,218.95 156.24,232.82 163.95,248.48 171.66,252.97 179.37,230.93 187.08,242.47 194.79,240.12 202.5,248.48 210.21,256.65 217.92,261.44 225.63,262.41 233.34,264.75 241.05,261.4 248.76,262.76 256.47,244.65 264.18,230.98 271.89,234.56 279.61,260.01 287.32,254.76 295.03,238.53 302.74,231.76 310.45,226.22 318.16,247.36 325.87,238.78 333.58,250.58 341.29,256.4 349,243.61 356.71,265.98 364.42,253.29 372.13,225.25 379.84,246.45 387.55,252.36 395.26,241.14 402.97,253.3 410.68,245.06 418.39,205.73 426.11,260.99 433.82,265.11 441.53,263.66 449.24,270.45 456.95,265.53 464.66,248.25 472.37,259.3 480.08,255.01 541.76,259.54 549.47,255.12 557.18,241.05 564.89,228.97 572.61,234.99 580.32,233 588.03,242.76 595.74,238.49 603.45,251.01 611.16,203.87 618.87,219.17 626.58,100.57 634.29,239.75 642,232.97"></polyline><circle cx="56" cy="198.31" r="2.6" fill="#1F9CF0"></circle><circle cx="63.71" cy="224.59" r="2.6" fill="#1F9CF0"></circle><circle cx="71.42" cy="214.73" r="2.6" fill="#1F9CF0"></circle><circle cx="79.13" cy="247.97" r="2.6" fill="#1F9CF0"></circle><circle cx="86.84" cy="236.75" r="2.6" fill="#1F9CF0"></circle><circle cx="94.55" cy="219.64" r="2.6" fill="#1F9CF0"></circle><circle cx="102.26" cy="238.79" r="2.6" fill="#1F9CF0"></circle><circle cx="109.97" cy="207.95" r="2.6" fill="#1F9CF0"></circle><circle cx="117.68" cy="201.38" r="2.6" fill="#1F9CF0"></circle><circle cx="125.39" cy="239.3" r="2.6" fill="#1F9CF0"></circle><circle cx="133.11" cy="242.33" r="2.6" fill="#1F9CF0"></circle><circle cx="140.82" cy="177.25" r="2.6" fill="#1F9CF0"></circle><circle cx="148.53" cy="218.95" r="2.6" fill="#1F9CF0"></circle><circle cx="156.24" cy="232.82" r="2.6" fill="#1F9CF0"></circle><circle cx="163.95" cy="248.48" r="2.6" fill="#1F9CF0"></circle><circle cx="171.66" cy="252.97" r="2.6" fill="#1F9CF0"></circle><circle cx="179.37" cy="230.93" r="2.6" fill="#1F9CF0"></circle><circle cx="187.08" cy="242.47" r="2.6" fill="#1F9CF0"></circle><circle cx="194.79" cy="240.12" r="2.6" fill="#1F9CF0"></circle><circle cx="202.5" cy="248.48" r="2.6" fill="#1F9CF0"></circle><circle cx="210.21" cy="256.65" r="2.6" fill="#1F9CF0"></circle><circle cx="217.92" cy="261.44" r="2.6" fill="#1F9CF0"></circle><circle cx="225.63" cy="262.41" r="2.6" fill="#1F9CF0"></circle><circle cx="233.34" cy="264.75" r="2.6" fill="#1F9CF0"></circle><circle cx="241.05" cy="261.4" r="2.6" fill="#1F9CF0"></circle><circle cx="248.76" cy="262.76" r="2.6" fill="#1F9CF0"></circle><circle cx="256.47" cy="244.65" r="2.6" fill="#1F9CF0"></circle><circle cx="264.18" cy="230.98" r="2.6" fill="#1F9CF0"></circle><circle cx="271.89" cy="234.56" r="2.6" fill="#1F9CF0"></circle><circle cx="279.61" cy="260.01" r="2.6" fill="#1F9CF0"></circle><circle cx="287.32" cy="254.76" r="2.6" fill="#1F9CF0"></circle><circle cx="295.03" cy="238.53" r="2.6" fill="#1F9CF0"></circle><circle cx="302.74" cy="231.76" r="2.6" fill="#1F9CF0"></circle><circle cx="310.45" cy="226.22" r="2.6" fill="#1F9CF0"></circle><circle cx="318.16" cy="247.36" r="2.6" fill="#1F9CF0"></circle><circle cx="325.87" cy="238.78" r="2.6" fill="#1F9CF0"></circle><circle cx="333.58" cy="250.58" r="2.6" fill="#1F9CF0"></circle><circle cx="341.29" cy="256.4" r="2.6" fill="#1F9CF0"></circle><circle cx="349" cy="243.61" r="2.6" fill="#1F9CF0"></circle><circle cx="356.71" cy="265.98" r="2.6" fill="#1F9CF0"></circle><circle cx="364.42" cy="253.29" r="2.6" fill="#1F9CF0"></circle><circle cx="372.13" cy="225.25" r="2.6" fill="#1F9CF0"></circle><circle cx="379.84" cy="246.45" r="2.6" fill="#1F9CF0"></circle><circle cx="387.55" cy="252.36" r="2.6" fill="#1F9CF0"></circle><circle cx="395.26" cy="241.14" r="2.6" fill="#1F9CF0"></circle><circle cx="402.97" cy="253.3" r="2.6" fill="#1F9CF0"></circle><circle cx="410.68" cy="245.06" r="2.6" fill="#1F9CF0"></circle><circle cx="418.39" cy="205.73" r="2.6" fill="#1F9CF0"></circle><circle cx="426.11" cy="260.99" r="2.6" fill="#1F9CF0"></circle><circle cx="433.82" cy="265.11" r="2.6" fill="#1F9CF0"></circle><circle cx="441.53" cy="263.66" r="2.6" fill="#1F9CF0"></circle><circle cx="449.24" cy="270.45" r="2.6" fill="#1F9CF0"></circle><circle cx="456.95" cy="265.53" r="2.6" fill="#1F9CF0"></circle><circle cx="464.66" cy="248.25" r="2.6" fill="#1F9CF0"></circle><circle cx="472.37" cy="259.3" r="2.6" fill="#1F9CF0"></circle><circle cx="480.08" cy="255.01" r="2.6" fill="#1F9CF0"></circle><circle cx="541.76" cy="259.54" r="2.6" fill="#1F9CF0"></circle><circle cx="549.47" cy="255.12" r="2.6" fill="#1F9CF0"></circle><circle cx="557.18" cy="241.05" r="2.6" fill="#1F9CF0"></circle><circle cx="564.89" cy="228.97" r="2.6" fill="#1F9CF0"></circle><circle cx="572.61" cy="234.99" r="2.6" fill="#1F9CF0"></circle><circle cx="580.32" cy="233" r="2.6" fill="#1F9CF0"></circle><circle cx="588.03" cy="242.76" r="2.6" fill="#1F9CF0"></circle><circle cx="595.74" cy="238.49" r="2.6" fill="#1F9CF0"></circle><circle cx="603.45" cy="251.01" r="2.6" fill="#1F9CF0"></circle><circle cx="611.16" cy="203.87" r="2.6" fill="#1F9CF0"></circle><circle cx="618.87" cy="219.17" r="2.6" fill="#1F9CF0"></circle><circle cx="626.58" cy="100.57" r="2.6" fill="#1F9CF0"></circle><circle cx="634.29" cy="239.75" r="2.6" fill="#1F9CF0"></circle><circle cx="642" cy="232.97" r="2.6" fill="#1F9CF0"></circle><line x1="656" y1="27" x2="672" y2="27" stroke="#E8835A" stroke-width="3" stroke-linecap="round"></line><text x="678" y="30" font-size="11" font-weight="400" text-anchor="start" fill="#1f2328">anthropic</text><line x1="656" y1="47" x2="672" y2="47" stroke="#6366F1" stroke-width="3" stroke-linecap="round"></line><text x="678" y="50" font-size="11" font-weight="400" text-anchor="start" fill="#1f2328">deepseek</text><line x1="656" y1="67" x2="672" y2="67" stroke="#2DA98C" stroke-width="3" stroke-linecap="round"></line><text x="678" y="70" font-size="11" font-weight="400" text-anchor="start" fill="#1f2328">gemini</text><line x1="656" y1="87" x2="672" y2="87" stroke="#A371F7" stroke-width="3" stroke-linecap="round"></line><text x="678" y="90" font-size="11" font-weight="400" text-anchor="start" fill="#1f2328">llama</text><line x1="656" y1="107" x2="672" y2="107" stroke="#F0A23B" stroke-width="3" stroke-linecap="round"></line><text x="678" y="110" font-size="11" font-weight="400" text-anchor="start" fill="#1f2328">mistral</text><line x1="656" y1="127" x2="672" y2="127" stroke="#1F9CF0" stroke-width="3" stroke-linecap="round"></line><text x="678" y="130" font-size="11" font-weight="400" text-anchor="start" fill="#1f2328">openai</text></svg>
