<svg xmlns="http://www.w3.org/2000/svg" viewBox="0 0 760 348" width="760" height="348" role="img" aria-label="Average LLM latency by provider over runs — llama highest, deepseek lowest" font-family="-apple-system,BlinkMacSystemFont,'Segoe UI',system-ui,sans-serif"><line x1="56" y1="306" x2="642" y2="306" stroke="#d8dee4" stroke-width="1"></line><text x="46" y="310" font-size="9.5" font-weight="400" text-anchor="end" fill="#656d76" font-family="ui-monospace,SFMono-Regular,Menlo,monospace">0.0s</text><line x1="56" y1="235" x2="642" y2="235" stroke="#d8dee4" stroke-width="1"></line><text x="46" y="239" font-size="9.5" font-weight="400" text-anchor="end" fill="#656d76" font-family="ui-monospace,SFMono-Regular,Menlo,monospace">82.5s</text><line x1="56" y1="164" x2="642" y2="164" stroke="#d8dee4" stroke-width="1"></line><text x="46" y="168" font-size="9.5" font-weight="400" text-anchor="end" fill="#656d76" font-family="ui-monospace,SFMono-Regular,Menlo,monospace">165.1s</text><line x1="56" y1="93" x2="642" y2="93" stroke="#d8dee4" stroke-width="1"></line><text x="46" y="97" font-size="9.5" font-weight="400" text-anchor="end" fill="#656d76" font-family="ui-monospace,SFMono-Regular,Menlo,monospace">247.6s</text><line x1="56" y1="22" x2="642" y2="22" stroke="#d8dee4" stroke-width="1"></line><text x="46" y="26" font-size="9.5" font-weight="400" text-anchor="end" fill="#656d76" font-family="ui-monospace,SFMono-Regular,Menlo,monospace">330.2s</text><text x="56" y="324" font-size="9.5" font-weight="400" text-anchor="middle" fill="#656d76" font-family="ui-monospace,SFMono-Regular,Menlo,monospace">06/08</text><text x="117.04" y="324" font-size="9.5" font-weight="400" text-anchor="middle" fill="#656d76" font-family="ui-monospace,SFMono-Regular,Menlo,monospace">06/08</text><text x="178.08" y="324" font-size="9.5" font-weight="400" text-anchor="middle" fill="#656d76" font-family="ui-monospace,SFMono-Regular,Menlo,monospace">06/09</text><text x="239.12" y="324" font-size="9.5" font-weight="400" text-anchor="middle" fill="#656d76" font-family="ui-monospace,SFMono-Regular,Menlo,monospace">06/12</text><text x="300.17" y="324" font-size="9.5" font-weight="400" text-anchor="middle" fill="#656d76" font-family="ui-monospace,SFMono-Regular,Menlo,monospace">06/13</text><text x="361.21" y="324" font-size="9.5" font-weight="400" text-anchor="middle" fill="#656d76" font-family="ui-monospace,SFMono-Regular,Menlo,monospace">06/14</text><text x="422.25" y="324" font-size="9.5" font-weight="400" text-anchor="middle" fill="#656d76" font-family="ui-monospace,SFMono-Regular,Menlo,monospace">06/15</text><text x="483.29" y="324" font-size="9.5" font-weight="400" text-anchor="middle" fill="#656d76" font-family="ui-monospace,SFMono-Regular,Menlo,monospace">06/16</text><text x="544.33" y="324" font-size="9.5" font-weight="400" text-anchor="middle" fill="#656d76" font-family="ui-monospace,SFMono-Regular,Menlo,monospace">06/17</text><text x="605.38" y="324" font-size="9.5" font-weight="400" text-anchor="middle" fill="#656d76" font-family="ui-monospace,SFMono-Regular,Menlo,monospace">06/19</text><text x="642" y="324" font-size="9.5" font-weight="400" text-anchor="middle" fill="#656d76" font-family="ui-monospace,SFMono-Regular,Menlo,monospace">06/20</text><polyline fill="none" stroke="#E8835A" stroke-width="2.4" stroke-linejoin="round" stroke-linecap="round" points="56,229.15 68.21,232.31 80.42,238.94 92.62,244 104.83,235.49 117.04,232.81 129.25,250.28 141.46,243.38 153.67,241.66 165.88,231.14 190.29,234.04 202.5,244.32 214.71,228.71 226.92,246.08 239.12,242.18 251.33,235.58 263.54,242.32 275.75,244.55 287.96,246.98 300.17,240.71 312.38,250.83 324.58,244.26 336.79,241.33 349,245.63 361.21,245.02 373.42,240.82 385.62,243.78 397.83,243.28 410.04,240.2 422.25,242.69 434.46,215.59 446.67,241.79 458.88,238.64 471.08,243.45 483.29,243.86 495.5,234.8 507.71,244.51 519.92,244.64"></polyline><circle cx="56" cy="229.15" r="2.6" fill="#E8835A"></circle><circle cx="68.21" cy="232.31" r="2.6" fill="#E8835A"></circle><circle cx="80.42" cy="238.94" r="2.6" fill="#E8835A"></circle><circle cx="92.62" cy="244" r="2.6" fill="#E8835A"></circle><circle cx="104.83" cy="235.49" r="2.6" fill="#E8835A"></circle><circle cx="117.04" cy="232.81" r="2.6" fill="#E8835A"></circle><circle cx="129.25" cy="250.28" r="2.6" fill="#E8835A"></circle><circle cx="141.46" cy="243.38" r="2.6" fill="#E8835A"></circle><circle cx="153.67" cy="241.66" r="2.6" fill="#E8835A"></circle><circle cx="165.88" cy="231.14" r="2.6" fill="#E8835A"></circle><circle cx="190.29" cy="234.04" r="2.6" fill="#E8835A"></circle><circle cx="202.5" cy="244.32" r="2.6" fill="#E8835A"></circle><circle cx="214.71" cy="228.71" r="2.6" fill="#E8835A"></circle><circle cx="226.92" cy="246.08" r="2.6" fill="#E8835A"></circle><circle cx="239.12" cy="242.18" r="2.6" fill="#E8835A"></circle><circle cx="251.33" cy="235.58" r="2.6" fill="#E8835A"></circle><circle cx="263.54" cy="242.32" r="2.6" fill="#E8835A"></circle><circle cx="275.75" cy="244.55" r="2.6" fill="#E8835A"></circle><circle cx="287.96" cy="246.98" r="2.6" fill="#E8835A"></circle><circle cx="300.17" cy="240.71" r="2.6" fill="#E8835A"></circle><circle cx="312.38" cy="250.83" r="2.6" fill="#E8835A"></circle><circle cx="324.58" cy="244.26" r="2.6" fill="#E8835A"></circle><circle cx="336.79" cy="241.33" r="2.6" fill="#E8835A"></circle><circle cx="349" cy="245.63" r="2.6" fill="#E8835A"></circle><circle cx="361.21" cy="245.02" r="2.6" fill="#E8835A"></circle><circle cx="373.42" cy="240.82" r="2.6" fill="#E8835A"></circle><circle cx="385.62" cy="243.78" r="2.6" fill="#E8835A"></circle><circle cx="397.83" cy="243.28" r="2.6" fill="#E8835A"></circle><circle cx="410.04" cy="240.2" r="2.6" fill="#E8835A"></circle><circle cx="422.25" cy="242.69" r="2.6" fill="#E8835A"></circle><circle cx="434.46" cy="215.59" r="2.6" fill="#E8835A"></circle><circle cx="446.67" cy="241.79" r="2.6" fill="#E8835A"></circle><circle cx="458.88" cy="238.64" r="2.6" fill="#E8835A"></circle><circle cx="471.08" cy="243.45" r="2.6" fill="#E8835A"></circle><circle cx="483.29" cy="243.86" r="2.6" fill="#E8835A"></circle><circle cx="495.5" cy="234.8" r="2.6" fill="#E8835A"></circle><circle cx="507.71" cy="244.51" r="2.6" fill="#E8835A"></circle><circle cx="519.92" cy="244.64" r="2.6" fill="#E8835A"></circle><polyline fill="none" stroke="#6366F1" stroke-width="2.4" stroke-linejoin="round" stroke-linecap="round" points="68.21,247.24 80.42,242.4 92.62,249.98 104.83,230.48 117.04,260.21 129.25,260.34 141.46,270.44 153.67,248.92 165.88,245.19 178.08,247.83 190.29,256.22 202.5,248.72 214.71,261.47 226.92,243.58 239.12,210.49 251.33,266.33 263.54,232.33 275.75,232.27 287.96,199.16 300.17,237.91 312.38,252.97 324.58,266.11 336.79,215.25 349,265.97 361.21,258.25 373.42,265.82 385.62,246.69 397.83,244.53 422.25,240.91 434.46,255.51 446.67,252.51 458.88,237.2 471.08,258.24 483.29,235.84 495.5,252.87 507.71,243.73 519.92,249.01 544.33,263.05 556.54,262.95 568.75,250.85 580.96,238.76 593.17,245.84 605.38,240.49 617.58,244.58 629.79,238.25 642,266.43"></polyline><circle cx="68.21" cy="247.24" r="2.6" fill="#6366F1"></circle><circle cx="80.42" cy="242.4" r="2.6" fill="#6366F1"></circle><circle cx="92.62" cy="249.98" r="2.6" fill="#6366F1"></circle><circle cx="104.83" cy="230.48" r="2.6" fill="#6366F1"></circle><circle cx="117.04" cy="260.21" r="2.6" fill="#6366F1"></circle><circle cx="129.25" cy="260.34" r="2.6" fill="#6366F1"></circle><circle cx="141.46" cy="270.44" r="2.6" fill="#6366F1"></circle><circle cx="153.67" cy="248.92" r="2.6" fill="#6366F1"></circle><circle cx="165.88" cy="245.19" r="2.6" fill="#6366F1"></circle><circle cx="178.08" cy="247.83" r="2.6" fill="#6366F1"></circle><circle cx="190.29" cy="256.22" r="2.6" fill="#6366F1"></circle><circle cx="202.5" cy="248.72" r="2.6" fill="#6366F1"></circle><circle cx="214.71" cy="261.47" r="2.6" fill="#6366F1"></circle><circle cx="226.92" cy="243.58" r="2.6" fill="#6366F1"></circle><circle cx="239.12" cy="210.49" r="2.6" fill="#6366F1"></circle><circle cx="251.33" cy="266.33" r="2.6" fill="#6366F1"></circle><circle cx="263.54" cy="232.33" r="2.6" fill="#6366F1"></circle><circle cx="275.75" cy="232.27" r="2.6" fill="#6366F1"></circle><circle cx="287.96" cy="199.16" r="2.6" fill="#6366F1"></circle><circle cx="300.17" cy="237.91" r="2.6" fill="#6366F1"></circle><circle cx="312.38" cy="252.97" r="2.6" fill="#6366F1"></circle><circle cx="324.58" cy="266.11" r="2.6" fill="#6366F1"></circle><circle cx="336.79" cy="215.25" r="2.6" fill="#6366F1"></circle><circle cx="349" cy="265.97" r="2.6" fill="#6366F1"></circle><circle cx="361.21" cy="258.25" r="2.6" fill="#6366F1"></circle><circle cx="373.42" cy="265.82" r="2.6" fill="#6366F1"></circle><circle cx="385.62" cy="246.69" r="2.6" fill="#6366F1"></circle><circle cx="397.83" cy="244.53" r="2.6" fill="#6366F1"></circle><circle cx="422.25" cy="240.91" r="2.6" fill="#6366F1"></circle><circle cx="434.46" cy="255.51" r="2.6" fill="#6366F1"></circle><circle cx="446.67" cy="252.51" r="2.6" fill="#6366F1"></circle><circle cx="458.88" cy="237.2" r="2.6" fill="#6366F1"></circle><circle cx="471.08" cy="258.24" r="2.6" fill="#6366F1"></circle><circle cx="483.29" cy="235.84" r="2.6" fill="#6366F1"></circle><circle cx="495.5" cy="252.87" r="2.6" fill="#6366F1"></circle><circle cx="507.71" cy="243.73" r="2.6" fill="#6366F1"></circle><circle cx="519.92" cy="249.01" r="2.6" fill="#6366F1"></circle><circle cx="544.33" cy="263.05" r="2.6" fill="#6366F1"></circle><circle cx="556.54" cy="262.95" r="2.6" fill="#6366F1"></circle><circle cx="568.75" cy="250.85" r="2.6" fill="#6366F1"></circle><circle cx="580.96" cy="238.76" r="2.6" fill="#6366F1"></circle><circle cx="593.17" cy="245.84" r="2.6" fill="#6366F1"></circle><circle cx="605.38" cy="240.49" r="2.6" fill="#6366F1"></circle><circle cx="617.58" cy="244.58" r="2.6" fill="#6366F1"></circle><circle cx="629.79" cy="238.25" r="2.6" fill="#6366F1"></circle><circle cx="642" cy="266.43" r="2.6" fill="#6366F1"></circle><polyline fill="none" stroke="#2DA98C" stroke-width="2.4" stroke-linejoin="round" stroke-linecap="round" points="56,205.26 68.21,215.39 80.42,174.15 92.62,217.56 104.83,218.68 117.04,227.57 129.25,203.76 141.46,192.14 153.67,215.35 165.88,194.78 178.08,194.92 190.29,141.5 202.5,148.87 214.71,194.84 226.92,180.85 239.12,202.09 251.33,169.08 263.54,211.29 275.75,193.77 287.96,192.04 300.17,206.61 422.25,221.15 434.46,190.23 446.67,183.33 458.88,225.15 471.08,184.37 483.29,182.1 495.5,210.86 507.71,161.53 519.92,210.56 544.33,182.01 556.54,172.32 568.75,181.93 580.96,186.76 593.17,217.59 605.38,171.76 617.58,211.13 629.79,171.55 642,181.17"></polyline><circle cx="56" cy="205.26" r="2.6" fill="#2DA98C"></circle><circle cx="68.21" cy="215.39" r="2.6" fill="#2DA98C"></circle><circle cx="80.42" cy="174.15" r="2.6" fill="#2DA98C"></circle><circle cx="92.62" cy="217.56" r="2.6" fill="#2DA98C"></circle><circle cx="104.83" cy="218.68" r="2.6" fill="#2DA98C"></circle><circle cx="117.04" cy="227.57" r="2.6" fill="#2DA98C"></circle><circle cx="129.25" cy="203.76" r="2.6" fill="#2DA98C"></circle><circle cx="141.46" cy="192.14" r="2.6" fill="#2DA98C"></circle><circle cx="153.67" cy="215.35" r="2.6" fill="#2DA98C"></circle><circle cx="165.88" cy="194.78" r="2.6" fill="#2DA98C"></circle><circle cx="178.08" cy="194.92" r="2.6" fill="#2DA98C"></circle><circle cx="190.29" cy="141.5" r="2.6" fill="#2DA98C"></circle><circle cx="202.5" cy="148.87" r="2.6" fill="#2DA98C"></circle><circle cx="214.71" cy="194.84" r="2.6" fill="#2DA98C"></circle><circle cx="226.92" cy="180.85" r="2.6" fill="#2DA98C"></circle><circle cx="239.12" cy="202.09" r="2.6" fill="#2DA98C"></circle><circle cx="251.33" cy="169.08" r="2.6" fill="#2DA98C"></circle><circle cx="263.54" cy="211.29" r="2.6" fill="#2DA98C"></circle><circle cx="275.75" cy="193.77" r="2.6" fill="#2DA98C"></circle><circle cx="287.96" cy="192.04" r="2.6" fill="#2DA98C"></circle><circle cx="300.17" cy="206.61" r="2.6" fill="#2DA98C"></circle><circle cx="422.25" cy="221.15" r="2.6" fill="#2DA98C"></circle><circle cx="434.46" cy="190.23" r="2.6" fill="#2DA98C"></circle><circle cx="446.67" cy="183.33" r="2.6" fill="#2DA98C"></circle><circle cx="458.88" cy="225.15" r="2.6" fill="#2DA98C"></circle><circle cx="471.08" cy="184.37" r="2.6" fill="#2DA98C"></circle><circle cx="483.29" cy="182.1" r="2.6" fill="#2DA98C"></circle><circle cx="495.5" cy="210.86" r="2.6" fill="#2DA98C"></circle><circle cx="507.71" cy="161.53" r="2.6" fill="#2DA98C"></circle><circle cx="519.92" cy="210.56" r="2.6" fill="#2DA98C"></circle><circle cx="544.33" cy="182.01" r="2.6" fill="#2DA98C"></circle><circle cx="556.54" cy="172.32" r="2.6" fill="#2DA98C"></circle><circle cx="568.75" cy="181.93" r="2.6" fill="#2DA98C"></circle><circle cx="580.96" cy="186.76" r="2.6" fill="#2DA98C"></circle><circle cx="593.17" cy="217.59" r="2.6" fill="#2DA98C"></circle><circle cx="605.38" cy="171.76" r="2.6" fill="#2DA98C"></circle><circle cx="617.58" cy="211.13" r="2.6" fill="#2DA98C"></circle><circle cx="629.79" cy="171.55" r="2.6" fill="#2DA98C"></circle><circle cx="642" cy="181.17" r="2.6" fill="#2DA98C"></circle><polyline fill="none" stroke="#A371F7" stroke-width="2.4" stroke-linejoin="round" stroke-linecap="round" points="56,127.86 68.21,149.85 80.42,181.76 92.62,139.24 104.83,107.36 117.04,219.97 129.25,116.3 141.46,182.89 153.67,193.78 165.88,197.11 178.08,105.85 190.29,146.07 202.5,181.42 214.71,202.88 226.92,134.79 239.12,219.07 251.33,58.83 263.54,197.05 275.75,167.66 287.96,75.26 300.17,128.5 312.38,152.23 324.58,166.9 336.79,183.57 349,162.79 361.21,148.18 373.42,52.43 385.62,96.59 397.83,191.76 422.25,151.86 434.46,169.19 446.67,135.22 471.08,206.77 483.29,167.88 495.5,189.32 507.71,143.76 519.92,142.49 532.12,163.7 544.33,128.52 556.54,144.9 568.75,92.3 580.96,157.36 593.17,160.21 605.38,176.32 617.58,116.21 629.79,165.98 642,136.47"></polyline><circle cx="56" cy="127.86" r="2.6" fill="#A371F7"></circle><circle cx="68.21" cy="149.85" r="2.6" fill="#A371F7"></circle><circle cx="80.42" cy="181.76" r="2.6" fill="#A371F7"></circle><circle cx="92.62" cy="139.24" r="2.6" fill="#A371F7"></circle><circle cx="104.83" cy="107.36" r="2.6" fill="#A371F7"></circle><circle cx="117.04" cy="219.97" r="2.6" fill="#A371F7"></circle><circle cx="129.25" cy="116.3" r="2.6" fill="#A371F7"></circle><circle cx="141.46" cy="182.89" r="2.6" fill="#A371F7"></circle><circle cx="153.67" cy="193.78" r="2.6" fill="#A371F7"></circle><circle cx="165.88" cy="197.11" r="2.6" fill="#A371F7"></circle><circle cx="178.08" cy="105.85" r="2.6" fill="#A371F7"></circle><circle cx="190.29" cy="146.07" r="2.6" fill="#A371F7"></circle><circle cx="202.5" cy="181.42" r="2.6" fill="#A371F7"></circle><circle cx="214.71" cy="202.88" r="2.6" fill="#A371F7"></circle><circle cx="226.92" cy="134.79" r="2.6" fill="#A371F7"></circle><circle cx="239.12" cy="219.07" r="2.6" fill="#A371F7"></circle><circle cx="251.33" cy="58.83" r="2.6" fill="#A371F7"></circle><circle cx="263.54" cy="197.05" r="2.6" fill="#A371F7"></circle><circle cx="275.75" cy="167.66" r="2.6" fill="#A371F7"></circle><circle cx="287.96" cy="75.26" r="2.6" fill="#A371F7"></circle><circle cx="300.17" cy="128.5" r="2.6" fill="#A371F7"></circle><circle cx="312.38" cy="152.23" r="2.6" fill="#A371F7"></circle><circle cx="324.58" cy="166.9" r="2.6" fill="#A371F7"></circle><circle cx="336.79" cy="183.57" r="2.6" fill="#A371F7"></circle><circle cx="349" cy="162.79" r="2.6" fill="#A371F7"></circle><circle cx="361.21" cy="148.18" r="2.6" fill="#A371F7"></circle><circle cx="373.42" cy="52.43" r="2.6" fill="#A371F7"></circle><circle cx="385.62" cy="96.59" r="2.6" fill="#A371F7"></circle><circle cx="397.83" cy="191.76" r="2.6" fill="#A371F7"></circle><circle cx="422.25" cy="151.86" r="2.6" fill="#A371F7"></circle><circle cx="434.46" cy="169.19" r="2.6" fill="#A371F7"></circle><circle cx="446.67" cy="135.22" r="2.6" fill="#A371F7"></circle><circle cx="471.08" cy="206.77" r="2.6" fill="#A371F7"></circle><circle cx="483.29" cy="167.88" r="2.6" fill="#A371F7"></circle><circle cx="495.5" cy="189.32" r="2.6" fill="#A371F7"></circle><circle cx="507.71" cy="143.76" r="2.6" fill="#A371F7"></circle><circle cx="519.92" cy="142.49" r="2.6" fill="#A371F7"></circle><circle cx="532.12" cy="163.7" r="2.6" fill="#A371F7"></circle><circle cx="544.33" cy="128.52" r="2.6" fill="#A371F7"></circle><circle cx="556.54" cy="144.9" r="2.6" fill="#A371F7"></circle><circle cx="568.75" cy="92.3" r="2.6" fill="#A371F7"></circle><circle cx="580.96" cy="157.36" r="2.6" fill="#A371F7"></circle><circle cx="593.17" cy="160.21" r="2.6" fill="#A371F7"></circle><circle cx="605.38" cy="176.32" r="2.6" fill="#A371F7"></circle><circle cx="617.58" cy="116.21" r="2.6" fill="#A371F7"></circle><circle cx="629.79" cy="165.98" r="2.6" fill="#A371F7"></circle><circle cx="642" cy="136.47" r="2.6" fill="#A371F7"></circle><polyline fill="none" stroke="#F0A23B" stroke-width="2.4" stroke-linejoin="round" stroke-linecap="round" points="56,170.6 68.21,150.62 80.42,187.27 92.62,153.33 104.83,137.4 117.04,187.39 129.25,202.98 141.46,219.57 153.67,187.3 165.88,163.64 178.08,218.54 190.29,247.9 202.5,222.75 214.71,249.71 226.92,224.7 239.12,243.69 251.33,245.81 263.54,211.84 275.75,236.21 287.96,257.78 300.17,248.63 312.38,234.2 324.58,247.57 336.79,243.66 349,258.59 361.21,253.94 373.42,235.44 385.62,209.7 397.83,229.87 410.04,229.74 422.25,242.74 434.46,219.28 446.67,218.69 458.88,248.17 471.08,252.02 483.29,241.64 495.5,202.83 507.71,191.16 519.92,236.21 532.12,247.47 544.33,237.91 556.54,227.46 568.75,241.35 580.96,249.73 593.17,234.66 605.38,250 617.58,253.94 629.79,252.42 642,245.42"></polyline><circle cx="56" cy="170.6" r="2.6" fill="#F0A23B"></circle><circle cx="68.21" cy="150.62" r="2.6" fill="#F0A23B"></circle><circle cx="80.42" cy="187.27" r="2.6" fill="#F0A23B"></circle><circle cx="92.62" cy="153.33" r="2.6" fill="#F0A23B"></circle><circle cx="104.83" cy="137.4" r="2.6" fill="#F0A23B"></circle><circle cx="117.04" cy="187.39" r="2.6" fill="#F0A23B"></circle><circle cx="129.25" cy="202.98" r="2.6" fill="#F0A23B"></circle><circle cx="141.46" cy="219.57" r="2.6" fill="#F0A23B"></circle><circle cx="153.67" cy="187.3" r="2.6" fill="#F0A23B"></circle><circle cx="165.88" cy="163.64" r="2.6" fill="#F0A23B"></circle><circle cx="178.08" cy="218.54" r="2.6" fill="#F0A23B"></circle><circle cx="190.29" cy="247.9" r="2.6" fill="#F0A23B"></circle><circle cx="202.5" cy="222.75" r="2.6" fill="#F0A23B"></circle><circle cx="214.71" cy="249.71" r="2.6" fill="#F0A23B"></circle><circle cx="226.92" cy="224.7" r="2.6" fill="#F0A23B"></circle><circle cx="239.12" cy="243.69" r="2.6" fill="#F0A23B"></circle><circle cx="251.33" cy="245.81" r="2.6" fill="#F0A23B"></circle><circle cx="263.54" cy="211.84" r="2.6" fill="#F0A23B"></circle><circle cx="275.75" cy="236.21" r="2.6" fill="#F0A23B"></circle><circle cx="287.96" cy="257.78" r="2.6" fill="#F0A23B"></circle><circle cx="300.17" cy="248.63" r="2.6" fill="#F0A23B"></circle><circle cx="312.38" cy="234.2" r="2.6" fill="#F0A23B"></circle><circle cx="324.58" cy="247.57" r="2.6" fill="#F0A23B"></circle><circle cx="336.79" cy="243.66" r="2.6" fill="#F0A23B"></circle><circle cx="349" cy="258.59" r="2.6" fill="#F0A23B"></circle><circle cx="361.21" cy="253.94" r="2.6" fill="#F0A23B"></circle><circle cx="373.42" cy="235.44" r="2.6" fill="#F0A23B"></circle><circle cx="385.62" cy="209.7" r="2.6" fill="#F0A23B"></circle><circle cx="397.83" cy="229.87" r="2.6" fill="#F0A23B"></circle><circle cx="410.04" cy="229.74" r="2.6" fill="#F0A23B"></circle><circle cx="422.25" cy="242.74" r="2.6" fill="#F0A23B"></circle><circle cx="434.46" cy="219.28" r="2.6" fill="#F0A23B"></circle><circle cx="446.67" cy="218.69" r="2.6" fill="#F0A23B"></circle><circle cx="458.88" cy="248.17" r="2.6" fill="#F0A23B"></circle><circle cx="471.08" cy="252.02" r="2.6" fill="#F0A23B"></circle><circle cx="483.29" cy="241.64" r="2.6" fill="#F0A23B"></circle><circle cx="495.5" cy="202.83" r="2.6" fill="#F0A23B"></circle><circle cx="507.71" cy="191.16" r="2.6" fill="#F0A23B"></circle><circle cx="519.92" cy="236.21" r="2.6" fill="#F0A23B"></circle><circle cx="532.12" cy="247.47" r="2.6" fill="#F0A23B"></circle><circle cx="544.33" cy="237.91" r="2.6" fill="#F0A23B"></circle><circle cx="556.54" cy="227.46" r="2.6" fill="#F0A23B"></circle><circle cx="568.75" cy="241.35" r="2.6" fill="#F0A23B"></circle><circle cx="580.96" cy="249.73" r="2.6" fill="#F0A23B"></circle><circle cx="593.17" cy="234.66" r="2.6" fill="#F0A23B"></circle><circle cx="605.38" cy="250" r="2.6" fill="#F0A23B"></circle><circle cx="617.58" cy="253.94" r="2.6" fill="#F0A23B"></circle><circle cx="629.79" cy="252.42" r="2.6" fill="#F0A23B"></circle><circle cx="642" cy="245.42" r="2.6" fill="#F0A23B"></circle><polyline fill="none" stroke="#1F9CF0" stroke-width="2.4" stroke-linejoin="round" stroke-linecap="round" points="56,198.31 68.21,224.59 80.42,214.73 92.62,247.97 104.83,236.75 117.04,219.64 129.25,238.79 141.46,207.95 153.67,201.38 165.88,239.3 178.08,242.33 190.29,177.25 202.5,218.95 214.71,232.82 226.92,248.48 239.12,252.97 251.33,230.93 263.54,242.47 275.75,240.12 287.96,248.48 300.17,256.65 312.38,261.44 324.58,262.41 336.79,264.75 349,261.4 361.21,262.76 373.42,244.65 385.62,230.98 397.83,234.56 410.04,260.01 422.25,254.76 434.46,238.53 446.67,231.76 458.88,226.22 471.08,247.36 483.29,238.78 495.5,250.58 507.71,256.4 519.92,243.61 532.12,265.98 544.33,253.29 556.54,225.25 568.75,246.45 580.96,252.36 593.17,241.14 605.38,253.3 617.58,245.06 629.79,205.73 642,260.99"></polyline><circle cx="56" cy="198.31" r="2.6" fill="#1F9CF0"></circle><circle cx="68.21" cy="224.59" r="2.6" fill="#1F9CF0"></circle><circle cx="80.42" cy="214.73" r="2.6" fill="#1F9CF0"></circle><circle cx="92.62" cy="247.97" r="2.6" fill="#1F9CF0"></circle><circle cx="104.83" cy="236.75" r="2.6" fill="#1F9CF0"></circle><circle cx="117.04" cy="219.64" r="2.6" fill="#1F9CF0"></circle><circle cx="129.25" cy="238.79" r="2.6" fill="#1F9CF0"></circle><circle cx="141.46" cy="207.95" r="2.6" fill="#1F9CF0"></circle><circle cx="153.67" cy="201.38" r="2.6" fill="#1F9CF0"></circle><circle cx="165.88" cy="239.3" r="2.6" fill="#1F9CF0"></circle><circle cx="178.08" cy="242.33" r="2.6" fill="#1F9CF0"></circle><circle cx="190.29" cy="177.25" r="2.6" fill="#1F9CF0"></circle><circle cx="202.5" cy="218.95" r="2.6" fill="#1F9CF0"></circle><circle cx="214.71" cy="232.82" r="2.6" fill="#1F9CF0"></circle><circle cx="226.92" cy="248.48" r="2.6" fill="#1F9CF0"></circle><circle cx="239.12" cy="252.97" r="2.6" fill="#1F9CF0"></circle><circle cx="251.33" cy="230.93" r="2.6" fill="#1F9CF0"></circle><circle cx="263.54" cy="242.47" r="2.6" fill="#1F9CF0"></circle><circle cx="275.75" cy="240.12" r="2.6" fill="#1F9CF0"></circle><circle cx="287.96" cy="248.48" r="2.6" fill="#1F9CF0"></circle><circle cx="300.17" cy="256.65" r="2.6" fill="#1F9CF0"></circle><circle cx="312.38" cy="261.44" r="2.6" fill="#1F9CF0"></circle><circle cx="324.58" cy="262.41" r="2.6" fill="#1F9CF0"></circle><circle cx="336.79" cy="264.75" r="2.6" fill="#1F9CF0"></circle><circle cx="349" cy="261.4" r="2.6" fill="#1F9CF0"></circle><circle cx="361.21" cy="262.76" r="2.6" fill="#1F9CF0"></circle><circle cx="373.42" cy="244.65" r="2.6" fill="#1F9CF0"></circle><circle cx="385.62" cy="230.98" r="2.6" fill="#1F9CF0"></circle><circle cx="397.83" cy="234.56" r="2.6" fill="#1F9CF0"></circle><circle cx="410.04" cy="260.01" r="2.6" fill="#1F9CF0"></circle><circle cx="422.25" cy="254.76" r="2.6" fill="#1F9CF0"></circle><circle cx="434.46" cy="238.53" r="2.6" fill="#1F9CF0"></circle><circle cx="446.67" cy="231.76" r="2.6" fill="#1F9CF0"></circle><circle cx="458.88" cy="226.22" r="2.6" fill="#1F9CF0"></circle><circle cx="471.08" cy="247.36" r="2.6" fill="#1F9CF0"></circle><circle cx="483.29" cy="238.78" r="2.6" fill="#1F9CF0"></circle><circle cx="495.5" cy="250.58" r="2.6" fill="#1F9CF0"></circle><circle cx="507.71" cy="256.4" r="2.6" fill="#1F9CF0"></circle><circle cx="519.92" cy="243.61" r="2.6" fill="#1F9CF0"></circle><circle cx="532.12" cy="265.98" r="2.6" fill="#1F9CF0"></circle><circle cx="544.33" cy="253.29" r="2.6" fill="#1F9CF0"></circle><circle cx="556.54" cy="225.25" r="2.6" fill="#1F9CF0"></circle><circle cx="568.75" cy="246.45" r="2.6" fill="#1F9CF0"></circle><circle cx="580.96" cy="252.36" r="2.6" fill="#1F9CF0"></circle><circle cx="593.17" cy="241.14" r="2.6" fill="#1F9CF0"></circle><circle cx="605.38" cy="253.3" r="2.6" fill="#1F9CF0"></circle><circle cx="617.58" cy="245.06" r="2.6" fill="#1F9CF0"></circle><circle cx="629.79" cy="205.73" r="2.6" fill="#1F9CF0"></circle><circle cx="642" cy="260.99" r="2.6" fill="#1F9CF0"></circle><line x1="656" y1="27" x2="672" y2="27" stroke="#E8835A" stroke-width="3" stroke-linecap="round"></line><text x="678" y="30" font-size="11" font-weight="400" text-anchor="start" fill="#1f2328">anthropic</text><line x1="656" y1="47" x2="672" y2="47" stroke="#6366F1" stroke-width="3" stroke-linecap="round"></line><text x="678" y="50" font-size="11" font-weight="400" text-anchor="start" fill="#1f2328">deepseek</text><line x1="656" y1="67" x2="672" y2="67" stroke="#2DA98C" stroke-width="3" stroke-linecap="round"></line><text x="678" y="70" font-size="11" font-weight="400" text-anchor="start" fill="#1f2328">gemini</text><line x1="656" y1="87" x2="672" y2="87" stroke="#A371F7" stroke-width="3" stroke-linecap="round"></line><text x="678" y="90" font-size="11" font-weight="400" text-anchor="start" fill="#1f2328">llama</text><line x1="656" y1="107" x2="672" y2="107" stroke="#F0A23B" stroke-width="3" stroke-linecap="round"></line><text x="678" y="110" font-size="11" font-weight="400" text-anchor="start" fill="#1f2328">mistral</text><line x1="656" y1="127" x2="672" y2="127" stroke="#1F9CF0" stroke-width="3" stroke-linecap="round"></line><text x="678" y="130" font-size="11" font-weight="400" text-anchor="start" fill="#1f2328">openai</text></svg>
