<svg xmlns="http://www.w3.org/2000/svg" viewBox="0 0 760 348" width="760" height="348" role="img" aria-label="Average LLM latency by provider over runs — llama highest, deepseek lowest" font-family="-apple-system,BlinkMacSystemFont,'Segoe UI',system-ui,sans-serif"><line x1="56" y1="306" x2="642" y2="306" stroke="#d8dee4" stroke-width="1"></line><text x="46" y="310" font-size="9.5" font-weight="400" text-anchor="end" fill="#656d76" font-family="ui-monospace,SFMono-Regular,Menlo,monospace">0.0s</text><line x1="56" y1="235" x2="642" y2="235" stroke="#d8dee4" stroke-width="1"></line><text x="46" y="239" font-size="9.5" font-weight="400" text-anchor="end" fill="#656d76" font-family="ui-monospace,SFMono-Regular,Menlo,monospace">82.5s</text><line x1="56" y1="164" x2="642" y2="164" stroke="#d8dee4" stroke-width="1"></line><text x="46" y="168" font-size="9.5" font-weight="400" text-anchor="end" fill="#656d76" font-family="ui-monospace,SFMono-Regular,Menlo,monospace">165.1s</text><line x1="56" y1="93" x2="642" y2="93" stroke="#d8dee4" stroke-width="1"></line><text x="46" y="97" font-size="9.5" font-weight="400" text-anchor="end" fill="#656d76" font-family="ui-monospace,SFMono-Regular,Menlo,monospace">247.6s</text><line x1="56" y1="22" x2="642" y2="22" stroke="#d8dee4" stroke-width="1"></line><text x="46" y="26" font-size="9.5" font-weight="400" text-anchor="end" fill="#656d76" font-family="ui-monospace,SFMono-Regular,Menlo,monospace">330.2s</text><text x="56" y="324" font-size="9.5" font-weight="400" text-anchor="middle" fill="#656d76" font-family="ui-monospace,SFMono-Regular,Menlo,monospace">06/08</text><text x="109.27" y="324" font-size="9.5" font-weight="400" text-anchor="middle" fill="#656d76" font-family="ui-monospace,SFMono-Regular,Menlo,monospace">06/08</text><text x="162.55" y="324" font-size="9.5" font-weight="400" text-anchor="middle" fill="#656d76" font-family="ui-monospace,SFMono-Regular,Menlo,monospace">06/09</text><text x="215.82" y="324" font-size="9.5" font-weight="400" text-anchor="middle" fill="#656d76" font-family="ui-monospace,SFMono-Regular,Menlo,monospace">06/12</text><text x="269.09" y="324" font-size="9.5" font-weight="400" text-anchor="middle" fill="#656d76" font-family="ui-monospace,SFMono-Regular,Menlo,monospace">06/13</text><text x="322.36" y="324" font-size="9.5" font-weight="400" text-anchor="middle" fill="#656d76" font-family="ui-monospace,SFMono-Regular,Menlo,monospace">06/14</text><text x="375.64" y="324" font-size="9.5" font-weight="400" text-anchor="middle" fill="#656d76" font-family="ui-monospace,SFMono-Regular,Menlo,monospace">06/15</text><text x="428.91" y="324" font-size="9.5" font-weight="400" text-anchor="middle" fill="#656d76" font-family="ui-monospace,SFMono-Regular,Menlo,monospace">06/16</text><text x="482.18" y="324" font-size="9.5" font-weight="400" text-anchor="middle" fill="#656d76" font-family="ui-monospace,SFMono-Regular,Menlo,monospace">06/17</text><text x="535.45" y="324" font-size="9.5" font-weight="400" text-anchor="middle" fill="#656d76" font-family="ui-monospace,SFMono-Regular,Menlo,monospace">06/19</text><text x="588.73" y="324" font-size="9.5" font-weight="400" text-anchor="middle" fill="#656d76" font-family="ui-monospace,SFMono-Regular,Menlo,monospace">06/20</text><text x="642" y="324" font-size="9.5" font-weight="400" text-anchor="middle" fill="#656d76" font-family="ui-monospace,SFMono-Regular,Menlo,monospace">06/21</text><polyline fill="none" stroke="#E8835A" stroke-width="2.4" stroke-linejoin="round" stroke-linecap="round" points="56,229.15 66.65,232.31 77.31,238.94 87.96,244 98.62,235.49 109.27,232.81 119.93,250.28 130.58,243.38 141.24,241.66 151.89,231.14 173.2,234.04 183.85,244.32 194.51,228.71 205.16,246.08 215.82,242.18 226.47,235.58 237.13,242.32 247.78,244.55 258.44,246.98 269.09,240.71 279.75,250.83 290.4,244.26 301.05,241.33 311.71,245.63 322.36,245.02 333.02,240.82 343.67,243.78 354.33,243.28 364.98,240.2 375.64,242.69 386.29,215.59 396.95,241.79 407.6,238.64 418.25,243.45 428.91,243.86 439.56,234.8 450.22,244.51 460.87,244.64"></polyline><circle cx="56" cy="229.15" r="2.6" fill="#E8835A"></circle><circle cx="66.65" cy="232.31" r="2.6" fill="#E8835A"></circle><circle cx="77.31" cy="238.94" r="2.6" fill="#E8835A"></circle><circle cx="87.96" cy="244" r="2.6" fill="#E8835A"></circle><circle cx="98.62" cy="235.49" r="2.6" fill="#E8835A"></circle><circle cx="109.27" cy="232.81" r="2.6" fill="#E8835A"></circle><circle cx="119.93" cy="250.28" r="2.6" fill="#E8835A"></circle><circle cx="130.58" cy="243.38" r="2.6" fill="#E8835A"></circle><circle cx="141.24" cy="241.66" r="2.6" fill="#E8835A"></circle><circle cx="151.89" cy="231.14" r="2.6" fill="#E8835A"></circle><circle cx="173.2" cy="234.04" r="2.6" fill="#E8835A"></circle><circle cx="183.85" cy="244.32" r="2.6" fill="#E8835A"></circle><circle cx="194.51" cy="228.71" r="2.6" fill="#E8835A"></circle><circle cx="205.16" cy="246.08" r="2.6" fill="#E8835A"></circle><circle cx="215.82" cy="242.18" r="2.6" fill="#E8835A"></circle><circle cx="226.47" cy="235.58" r="2.6" fill="#E8835A"></circle><circle cx="237.13" cy="242.32" r="2.6" fill="#E8835A"></circle><circle cx="247.78" cy="244.55" r="2.6" fill="#E8835A"></circle><circle cx="258.44" cy="246.98" r="2.6" fill="#E8835A"></circle><circle cx="269.09" cy="240.71" r="2.6" fill="#E8835A"></circle><circle cx="279.75" cy="250.83" r="2.6" fill="#E8835A"></circle><circle cx="290.4" cy="244.26" r="2.6" fill="#E8835A"></circle><circle cx="301.05" cy="241.33" r="2.6" fill="#E8835A"></circle><circle cx="311.71" cy="245.63" r="2.6" fill="#E8835A"></circle><circle cx="322.36" cy="245.02" r="2.6" fill="#E8835A"></circle><circle cx="333.02" cy="240.82" r="2.6" fill="#E8835A"></circle><circle cx="343.67" cy="243.78" r="2.6" fill="#E8835A"></circle><circle cx="354.33" cy="243.28" r="2.6" fill="#E8835A"></circle><circle cx="364.98" cy="240.2" r="2.6" fill="#E8835A"></circle><circle cx="375.64" cy="242.69" r="2.6" fill="#E8835A"></circle><circle cx="386.29" cy="215.59" r="2.6" fill="#E8835A"></circle><circle cx="396.95" cy="241.79" r="2.6" fill="#E8835A"></circle><circle cx="407.6" cy="238.64" r="2.6" fill="#E8835A"></circle><circle cx="418.25" cy="243.45" r="2.6" fill="#E8835A"></circle><circle cx="428.91" cy="243.86" r="2.6" fill="#E8835A"></circle><circle cx="439.56" cy="234.8" r="2.6" fill="#E8835A"></circle><circle cx="450.22" cy="244.51" r="2.6" fill="#E8835A"></circle><circle cx="460.87" cy="244.64" r="2.6" fill="#E8835A"></circle><polyline fill="none" stroke="#6366F1" stroke-width="2.4" stroke-linejoin="round" stroke-linecap="round" points="66.65,247.24 77.31,242.4 87.96,249.98 98.62,230.48 109.27,260.21 119.93,260.34 130.58,270.44 141.24,248.92 151.89,245.19 162.55,247.83 173.2,256.22 183.85,248.72 194.51,261.47 205.16,243.58 215.82,210.49 226.47,266.33 237.13,232.33 247.78,232.27 258.44,199.16 269.09,237.91 279.75,252.97 290.4,266.11 301.05,215.25 311.71,265.97 322.36,258.25 333.02,265.82 343.67,246.69 354.33,244.53 375.64,240.91 386.29,255.51 396.95,252.51 407.6,237.2 418.25,258.24 428.91,235.84 439.56,252.87 450.22,243.73 460.87,249.01 482.18,263.05 492.84,262.95 503.49,250.85 514.15,238.76 524.8,245.84 535.45,240.49 546.11,244.58 556.76,238.25 567.42,266.43 578.07,219.91 588.73,256.77 610.04,250.11 620.69,264.15 631.35,249.18 642,252.64"></polyline><circle cx="66.65" cy="247.24" r="2.6" fill="#6366F1"></circle><circle cx="77.31" cy="242.4" r="2.6" fill="#6366F1"></circle><circle cx="87.96" cy="249.98" r="2.6" fill="#6366F1"></circle><circle cx="98.62" cy="230.48" r="2.6" fill="#6366F1"></circle><circle cx="109.27" cy="260.21" r="2.6" fill="#6366F1"></circle><circle cx="119.93" cy="260.34" r="2.6" fill="#6366F1"></circle><circle cx="130.58" cy="270.44" r="2.6" fill="#6366F1"></circle><circle cx="141.24" cy="248.92" r="2.6" fill="#6366F1"></circle><circle cx="151.89" cy="245.19" r="2.6" fill="#6366F1"></circle><circle cx="162.55" cy="247.83" r="2.6" fill="#6366F1"></circle><circle cx="173.2" cy="256.22" r="2.6" fill="#6366F1"></circle><circle cx="183.85" cy="248.72" r="2.6" fill="#6366F1"></circle><circle cx="194.51" cy="261.47" r="2.6" fill="#6366F1"></circle><circle cx="205.16" cy="243.58" r="2.6" fill="#6366F1"></circle><circle cx="215.82" cy="210.49" r="2.6" fill="#6366F1"></circle><circle cx="226.47" cy="266.33" r="2.6" fill="#6366F1"></circle><circle cx="237.13" cy="232.33" r="2.6" fill="#6366F1"></circle><circle cx="247.78" cy="232.27" r="2.6" fill="#6366F1"></circle><circle cx="258.44" cy="199.16" r="2.6" fill="#6366F1"></circle><circle cx="269.09" cy="237.91" r="2.6" fill="#6366F1"></circle><circle cx="279.75" cy="252.97" r="2.6" fill="#6366F1"></circle><circle cx="290.4" cy="266.11" r="2.6" fill="#6366F1"></circle><circle cx="301.05" cy="215.25" r="2.6" fill="#6366F1"></circle><circle cx="311.71" cy="265.97" r="2.6" fill="#6366F1"></circle><circle cx="322.36" cy="258.25" r="2.6" fill="#6366F1"></circle><circle cx="333.02" cy="265.82" r="2.6" fill="#6366F1"></circle><circle cx="343.67" cy="246.69" r="2.6" fill="#6366F1"></circle><circle cx="354.33" cy="244.53" r="2.6" fill="#6366F1"></circle><circle cx="375.64" cy="240.91" r="2.6" fill="#6366F1"></circle><circle cx="386.29" cy="255.51" r="2.6" fill="#6366F1"></circle><circle cx="396.95" cy="252.51" r="2.6" fill="#6366F1"></circle><circle cx="407.6" cy="237.2" r="2.6" fill="#6366F1"></circle><circle cx="418.25" cy="258.24" r="2.6" fill="#6366F1"></circle><circle cx="428.91" cy="235.84" r="2.6" fill="#6366F1"></circle><circle cx="439.56" cy="252.87" r="2.6" fill="#6366F1"></circle><circle cx="450.22" cy="243.73" r="2.6" fill="#6366F1"></circle><circle cx="460.87" cy="249.01" r="2.6" fill="#6366F1"></circle><circle cx="482.18" cy="263.05" r="2.6" fill="#6366F1"></circle><circle cx="492.84" cy="262.95" r="2.6" fill="#6366F1"></circle><circle cx="503.49" cy="250.85" r="2.6" fill="#6366F1"></circle><circle cx="514.15" cy="238.76" r="2.6" fill="#6366F1"></circle><circle cx="524.8" cy="245.84" r="2.6" fill="#6366F1"></circle><circle cx="535.45" cy="240.49" r="2.6" fill="#6366F1"></circle><circle cx="546.11" cy="244.58" r="2.6" fill="#6366F1"></circle><circle cx="556.76" cy="238.25" r="2.6" fill="#6366F1"></circle><circle cx="567.42" cy="266.43" r="2.6" fill="#6366F1"></circle><circle cx="578.07" cy="219.91" r="2.6" fill="#6366F1"></circle><circle cx="588.73" cy="256.77" r="2.6" fill="#6366F1"></circle><circle cx="610.04" cy="250.11" r="2.6" fill="#6366F1"></circle><circle cx="620.69" cy="264.15" r="2.6" fill="#6366F1"></circle><circle cx="631.35" cy="249.18" r="2.6" fill="#6366F1"></circle><circle cx="642" cy="252.64" r="2.6" fill="#6366F1"></circle><polyline fill="none" stroke="#2DA98C" stroke-width="2.4" stroke-linejoin="round" stroke-linecap="round" points="56,205.26 66.65,215.39 77.31,174.15 87.96,217.56 98.62,218.68 109.27,227.57 119.93,203.76 130.58,192.14 141.24,215.35 151.89,194.78 162.55,194.92 173.2,141.5 183.85,148.87 194.51,194.84 205.16,180.85 215.82,202.09 226.47,169.08 237.13,211.29 247.78,193.77 258.44,192.04 269.09,206.61 375.64,221.15 386.29,190.23 396.95,183.33 407.6,225.15 418.25,184.37 428.91,182.1 439.56,210.86 450.22,161.53 460.87,210.56 482.18,182.01 492.84,172.32 503.49,181.93 514.15,186.76 524.8,217.59 535.45,171.76 546.11,211.13 556.76,171.55 567.42,181.17 578.07,189.96 588.73,191.02 610.04,212.98 620.69,170.09 631.35,127.97 642,222.7"></polyline><circle cx="56" cy="205.26" r="2.6" fill="#2DA98C"></circle><circle cx="66.65" cy="215.39" r="2.6" fill="#2DA98C"></circle><circle cx="77.31" cy="174.15" r="2.6" fill="#2DA98C"></circle><circle cx="87.96" cy="217.56" r="2.6" fill="#2DA98C"></circle><circle cx="98.62" cy="218.68" r="2.6" fill="#2DA98C"></circle><circle cx="109.27" cy="227.57" r="2.6" fill="#2DA98C"></circle><circle cx="119.93" cy="203.76" r="2.6" fill="#2DA98C"></circle><circle cx="130.58" cy="192.14" r="2.6" fill="#2DA98C"></circle><circle cx="141.24" cy="215.35" r="2.6" fill="#2DA98C"></circle><circle cx="151.89" cy="194.78" r="2.6" fill="#2DA98C"></circle><circle cx="162.55" cy="194.92" r="2.6" fill="#2DA98C"></circle><circle cx="173.2" cy="141.5" r="2.6" fill="#2DA98C"></circle><circle cx="183.85" cy="148.87" r="2.6" fill="#2DA98C"></circle><circle cx="194.51" cy="194.84" r="2.6" fill="#2DA98C"></circle><circle cx="205.16" cy="180.85" r="2.6" fill="#2DA98C"></circle><circle cx="215.82" cy="202.09" r="2.6" fill="#2DA98C"></circle><circle cx="226.47" cy="169.08" r="2.6" fill="#2DA98C"></circle><circle cx="237.13" cy="211.29" r="2.6" fill="#2DA98C"></circle><circle cx="247.78" cy="193.77" r="2.6" fill="#2DA98C"></circle><circle cx="258.44" cy="192.04" r="2.6" fill="#2DA98C"></circle><circle cx="269.09" cy="206.61" r="2.6" fill="#2DA98C"></circle><circle cx="375.64" cy="221.15" r="2.6" fill="#2DA98C"></circle><circle cx="386.29" cy="190.23" r="2.6" fill="#2DA98C"></circle><circle cx="396.95" cy="183.33" r="2.6" fill="#2DA98C"></circle><circle cx="407.6" cy="225.15" r="2.6" fill="#2DA98C"></circle><circle cx="418.25" cy="184.37" r="2.6" fill="#2DA98C"></circle><circle cx="428.91" cy="182.1" r="2.6" fill="#2DA98C"></circle><circle cx="439.56" cy="210.86" r="2.6" fill="#2DA98C"></circle><circle cx="450.22" cy="161.53" r="2.6" fill="#2DA98C"></circle><circle cx="460.87" cy="210.56" r="2.6" fill="#2DA98C"></circle><circle cx="482.18" cy="182.01" r="2.6" fill="#2DA98C"></circle><circle cx="492.84" cy="172.32" r="2.6" fill="#2DA98C"></circle><circle cx="503.49" cy="181.93" r="2.6" fill="#2DA98C"></circle><circle cx="514.15" cy="186.76" r="2.6" fill="#2DA98C"></circle><circle cx="524.8" cy="217.59" r="2.6" fill="#2DA98C"></circle><circle cx="535.45" cy="171.76" r="2.6" fill="#2DA98C"></circle><circle cx="546.11" cy="211.13" r="2.6" fill="#2DA98C"></circle><circle cx="556.76" cy="171.55" r="2.6" fill="#2DA98C"></circle><circle cx="567.42" cy="181.17" r="2.6" fill="#2DA98C"></circle><circle cx="578.07" cy="189.96" r="2.6" fill="#2DA98C"></circle><circle cx="588.73" cy="191.02" r="2.6" fill="#2DA98C"></circle><circle cx="610.04" cy="212.98" r="2.6" fill="#2DA98C"></circle><circle cx="620.69" cy="170.09" r="2.6" fill="#2DA98C"></circle><circle cx="631.35" cy="127.97" r="2.6" fill="#2DA98C"></circle><circle cx="642" cy="222.7" r="2.6" fill="#2DA98C"></circle><polyline fill="none" stroke="#A371F7" stroke-width="2.4" stroke-linejoin="round" stroke-linecap="round" points="56,127.86 66.65,149.85 77.31,181.76 87.96,139.24 98.62,107.36 109.27,219.97 119.93,116.3 130.58,182.89 141.24,193.78 151.89,197.11 162.55,105.85 173.2,146.07 183.85,181.42 194.51,202.88 205.16,134.79 215.82,219.07 226.47,58.83 237.13,197.05 247.78,167.66 258.44,75.26 269.09,128.5 279.75,152.23 290.4,166.9 301.05,183.57 311.71,162.79 322.36,148.18 333.02,52.43 343.67,96.59 354.33,191.76 375.64,151.86 386.29,169.19 396.95,135.22 418.25,206.77 428.91,167.88 439.56,189.32 450.22,143.76 460.87,142.49 471.53,163.7 482.18,128.52 492.84,144.9 503.49,92.3 514.15,157.36 524.8,160.21 535.45,176.32 546.11,116.21 556.76,165.98 567.42,136.47 588.73,155.12 610.04,134.62 631.35,114.6 642,127.72"></polyline><circle cx="56" cy="127.86" r="2.6" fill="#A371F7"></circle><circle cx="66.65" cy="149.85" r="2.6" fill="#A371F7"></circle><circle cx="77.31" cy="181.76" r="2.6" fill="#A371F7"></circle><circle cx="87.96" cy="139.24" r="2.6" fill="#A371F7"></circle><circle cx="98.62" cy="107.36" r="2.6" fill="#A371F7"></circle><circle cx="109.27" cy="219.97" r="2.6" fill="#A371F7"></circle><circle cx="119.93" cy="116.3" r="2.6" fill="#A371F7"></circle><circle cx="130.58" cy="182.89" r="2.6" fill="#A371F7"></circle><circle cx="141.24" cy="193.78" r="2.6" fill="#A371F7"></circle><circle cx="151.89" cy="197.11" r="2.6" fill="#A371F7"></circle><circle cx="162.55" cy="105.85" r="2.6" fill="#A371F7"></circle><circle cx="173.2" cy="146.07" r="2.6" fill="#A371F7"></circle><circle cx="183.85" cy="181.42" r="2.6" fill="#A371F7"></circle><circle cx="194.51" cy="202.88" r="2.6" fill="#A371F7"></circle><circle cx="205.16" cy="134.79" r="2.6" fill="#A371F7"></circle><circle cx="215.82" cy="219.07" r="2.6" fill="#A371F7"></circle><circle cx="226.47" cy="58.83" r="2.6" fill="#A371F7"></circle><circle cx="237.13" cy="197.05" r="2.6" fill="#A371F7"></circle><circle cx="247.78" cy="167.66" r="2.6" fill="#A371F7"></circle><circle cx="258.44" cy="75.26" r="2.6" fill="#A371F7"></circle><circle cx="269.09" cy="128.5" r="2.6" fill="#A371F7"></circle><circle cx="279.75" cy="152.23" r="2.6" fill="#A371F7"></circle><circle cx="290.4" cy="166.9" r="2.6" fill="#A371F7"></circle><circle cx="301.05" cy="183.57" r="2.6" fill="#A371F7"></circle><circle cx="311.71" cy="162.79" r="2.6" fill="#A371F7"></circle><circle cx="322.36" cy="148.18" r="2.6" fill="#A371F7"></circle><circle cx="333.02" cy="52.43" r="2.6" fill="#A371F7"></circle><circle cx="343.67" cy="96.59" r="2.6" fill="#A371F7"></circle><circle cx="354.33" cy="191.76" r="2.6" fill="#A371F7"></circle><circle cx="375.64" cy="151.86" r="2.6" fill="#A371F7"></circle><circle cx="386.29" cy="169.19" r="2.6" fill="#A371F7"></circle><circle cx="396.95" cy="135.22" r="2.6" fill="#A371F7"></circle><circle cx="418.25" cy="206.77" r="2.6" fill="#A371F7"></circle><circle cx="428.91" cy="167.88" r="2.6" fill="#A371F7"></circle><circle cx="439.56" cy="189.32" r="2.6" fill="#A371F7"></circle><circle cx="450.22" cy="143.76" r="2.6" fill="#A371F7"></circle><circle cx="460.87" cy="142.49" r="2.6" fill="#A371F7"></circle><circle cx="471.53" cy="163.7" r="2.6" fill="#A371F7"></circle><circle cx="482.18" cy="128.52" r="2.6" fill="#A371F7"></circle><circle cx="492.84" cy="144.9" r="2.6" fill="#A371F7"></circle><circle cx="503.49" cy="92.3" r="2.6" fill="#A371F7"></circle><circle cx="514.15" cy="157.36" r="2.6" fill="#A371F7"></circle><circle cx="524.8" cy="160.21" r="2.6" fill="#A371F7"></circle><circle cx="535.45" cy="176.32" r="2.6" fill="#A371F7"></circle><circle cx="546.11" cy="116.21" r="2.6" fill="#A371F7"></circle><circle cx="556.76" cy="165.98" r="2.6" fill="#A371F7"></circle><circle cx="567.42" cy="136.47" r="2.6" fill="#A371F7"></circle><circle cx="588.73" cy="155.12" r="2.6" fill="#A371F7"></circle><circle cx="610.04" cy="134.62" r="2.6" fill="#A371F7"></circle><circle cx="631.35" cy="114.6" r="2.6" fill="#A371F7"></circle><circle cx="642" cy="127.72" r="2.6" fill="#A371F7"></circle><polyline fill="none" stroke="#F0A23B" stroke-width="2.4" stroke-linejoin="round" stroke-linecap="round" points="56,170.6 66.65,150.62 77.31,187.27 87.96,153.33 98.62,137.4 109.27,187.39 119.93,202.98 130.58,219.57 141.24,187.3 151.89,163.64 162.55,218.54 173.2,247.9 183.85,222.75 194.51,249.71 205.16,224.7 215.82,243.69 226.47,245.81 237.13,211.84 247.78,236.21 258.44,257.78 269.09,248.63 279.75,234.2 290.4,247.57 301.05,243.66 311.71,258.59 322.36,253.94 333.02,235.44 343.67,209.7 354.33,229.87 364.98,229.74 375.64,242.74 386.29,219.28 396.95,218.69 407.6,248.17 418.25,252.02 428.91,241.64 439.56,202.83 450.22,191.16 460.87,236.21 471.53,247.47 482.18,237.91 492.84,227.46 503.49,241.35 514.15,249.73 524.8,234.66 535.45,250 546.11,253.94 556.76,252.42 567.42,245.42 578.07,237.98 588.73,238.85 610.04,257.8 620.69,233.33 631.35,238.96 642,252.16"></polyline><circle cx="56" cy="170.6" r="2.6" fill="#F0A23B"></circle><circle cx="66.65" cy="150.62" r="2.6" fill="#F0A23B"></circle><circle cx="77.31" cy="187.27" r="2.6" fill="#F0A23B"></circle><circle cx="87.96" cy="153.33" r="2.6" fill="#F0A23B"></circle><circle cx="98.62" cy="137.4" r="2.6" fill="#F0A23B"></circle><circle cx="109.27" cy="187.39" r="2.6" fill="#F0A23B"></circle><circle cx="119.93" cy="202.98" r="2.6" fill="#F0A23B"></circle><circle cx="130.58" cy="219.57" r="2.6" fill="#F0A23B"></circle><circle cx="141.24" cy="187.3" r="2.6" fill="#F0A23B"></circle><circle cx="151.89" cy="163.64" r="2.6" fill="#F0A23B"></circle><circle cx="162.55" cy="218.54" r="2.6" fill="#F0A23B"></circle><circle cx="173.2" cy="247.9" r="2.6" fill="#F0A23B"></circle><circle cx="183.85" cy="222.75" r="2.6" fill="#F0A23B"></circle><circle cx="194.51" cy="249.71" r="2.6" fill="#F0A23B"></circle><circle cx="205.16" cy="224.7" r="2.6" fill="#F0A23B"></circle><circle cx="215.82" cy="243.69" r="2.6" fill="#F0A23B"></circle><circle cx="226.47" cy="245.81" r="2.6" fill="#F0A23B"></circle><circle cx="237.13" cy="211.84" r="2.6" fill="#F0A23B"></circle><circle cx="247.78" cy="236.21" r="2.6" fill="#F0A23B"></circle><circle cx="258.44" cy="257.78" r="2.6" fill="#F0A23B"></circle><circle cx="269.09" cy="248.63" r="2.6" fill="#F0A23B"></circle><circle cx="279.75" cy="234.2" r="2.6" fill="#F0A23B"></circle><circle cx="290.4" cy="247.57" r="2.6" fill="#F0A23B"></circle><circle cx="301.05" cy="243.66" r="2.6" fill="#F0A23B"></circle><circle cx="311.71" cy="258.59" r="2.6" fill="#F0A23B"></circle><circle cx="322.36" cy="253.94" r="2.6" fill="#F0A23B"></circle><circle cx="333.02" cy="235.44" r="2.6" fill="#F0A23B"></circle><circle cx="343.67" cy="209.7" r="2.6" fill="#F0A23B"></circle><circle cx="354.33" cy="229.87" r="2.6" fill="#F0A23B"></circle><circle cx="364.98" cy="229.74" r="2.6" fill="#F0A23B"></circle><circle cx="375.64" cy="242.74" r="2.6" fill="#F0A23B"></circle><circle cx="386.29" cy="219.28" r="2.6" fill="#F0A23B"></circle><circle cx="396.95" cy="218.69" r="2.6" fill="#F0A23B"></circle><circle cx="407.6" cy="248.17" r="2.6" fill="#F0A23B"></circle><circle cx="418.25" cy="252.02" r="2.6" fill="#F0A23B"></circle><circle cx="428.91" cy="241.64" r="2.6" fill="#F0A23B"></circle><circle cx="439.56" cy="202.83" r="2.6" fill="#F0A23B"></circle><circle cx="450.22" cy="191.16" r="2.6" fill="#F0A23B"></circle><circle cx="460.87" cy="236.21" r="2.6" fill="#F0A23B"></circle><circle cx="471.53" cy="247.47" r="2.6" fill="#F0A23B"></circle><circle cx="482.18" cy="237.91" r="2.6" fill="#F0A23B"></circle><circle cx="492.84" cy="227.46" r="2.6" fill="#F0A23B"></circle><circle cx="503.49" cy="241.35" r="2.6" fill="#F0A23B"></circle><circle cx="514.15" cy="249.73" r="2.6" fill="#F0A23B"></circle><circle cx="524.8" cy="234.66" r="2.6" fill="#F0A23B"></circle><circle cx="535.45" cy="250" r="2.6" fill="#F0A23B"></circle><circle cx="546.11" cy="253.94" r="2.6" fill="#F0A23B"></circle><circle cx="556.76" cy="252.42" r="2.6" fill="#F0A23B"></circle><circle cx="567.42" cy="245.42" r="2.6" fill="#F0A23B"></circle><circle cx="578.07" cy="237.98" r="2.6" fill="#F0A23B"></circle><circle cx="588.73" cy="238.85" r="2.6" fill="#F0A23B"></circle><circle cx="610.04" cy="257.8" r="2.6" fill="#F0A23B"></circle><circle cx="620.69" cy="233.33" r="2.6" fill="#F0A23B"></circle><circle cx="631.35" cy="238.96" r="2.6" fill="#F0A23B"></circle><circle cx="642" cy="252.16" r="2.6" fill="#F0A23B"></circle><polyline fill="none" stroke="#1F9CF0" stroke-width="2.4" stroke-linejoin="round" stroke-linecap="round" points="56,198.31 66.65,224.59 77.31,214.73 87.96,247.97 98.62,236.75 109.27,219.64 119.93,238.79 130.58,207.95 141.24,201.38 151.89,239.3 162.55,242.33 173.2,177.25 183.85,218.95 194.51,232.82 205.16,248.48 215.82,252.97 226.47,230.93 237.13,242.47 247.78,240.12 258.44,248.48 269.09,256.65 279.75,261.44 290.4,262.41 301.05,264.75 311.71,261.4 322.36,262.76 333.02,244.65 343.67,230.98 354.33,234.56 364.98,260.01 375.64,254.76 386.29,238.53 396.95,231.76 407.6,226.22 418.25,247.36 428.91,238.78 439.56,250.58 450.22,256.4 460.87,243.61 471.53,265.98 482.18,253.29 492.84,225.25 503.49,246.45 514.15,252.36 524.8,241.14 535.45,253.3 546.11,245.06 556.76,205.73 567.42,260.99 578.07,265.11 588.73,263.66 599.38,270.45 610.04,265.53 620.69,248.25 631.35,259.3 642,255.01"></polyline><circle cx="56" cy="198.31" r="2.6" fill="#1F9CF0"></circle><circle cx="66.65" cy="224.59" r="2.6" fill="#1F9CF0"></circle><circle cx="77.31" cy="214.73" r="2.6" fill="#1F9CF0"></circle><circle cx="87.96" cy="247.97" r="2.6" fill="#1F9CF0"></circle><circle cx="98.62" cy="236.75" r="2.6" fill="#1F9CF0"></circle><circle cx="109.27" cy="219.64" r="2.6" fill="#1F9CF0"></circle><circle cx="119.93" cy="238.79" r="2.6" fill="#1F9CF0"></circle><circle cx="130.58" cy="207.95" r="2.6" fill="#1F9CF0"></circle><circle cx="141.24" cy="201.38" r="2.6" fill="#1F9CF0"></circle><circle cx="151.89" cy="239.3" r="2.6" fill="#1F9CF0"></circle><circle cx="162.55" cy="242.33" r="2.6" fill="#1F9CF0"></circle><circle cx="173.2" cy="177.25" r="2.6" fill="#1F9CF0"></circle><circle cx="183.85" cy="218.95" r="2.6" fill="#1F9CF0"></circle><circle cx="194.51" cy="232.82" r="2.6" fill="#1F9CF0"></circle><circle cx="205.16" cy="248.48" r="2.6" fill="#1F9CF0"></circle><circle cx="215.82" cy="252.97" r="2.6" fill="#1F9CF0"></circle><circle cx="226.47" cy="230.93" r="2.6" fill="#1F9CF0"></circle><circle cx="237.13" cy="242.47" r="2.6" fill="#1F9CF0"></circle><circle cx="247.78" cy="240.12" r="2.6" fill="#1F9CF0"></circle><circle cx="258.44" cy="248.48" r="2.6" fill="#1F9CF0"></circle><circle cx="269.09" cy="256.65" r="2.6" fill="#1F9CF0"></circle><circle cx="279.75" cy="261.44" r="2.6" fill="#1F9CF0"></circle><circle cx="290.4" cy="262.41" r="2.6" fill="#1F9CF0"></circle><circle cx="301.05" cy="264.75" r="2.6" fill="#1F9CF0"></circle><circle cx="311.71" cy="261.4" r="2.6" fill="#1F9CF0"></circle><circle cx="322.36" cy="262.76" r="2.6" fill="#1F9CF0"></circle><circle cx="333.02" cy="244.65" r="2.6" fill="#1F9CF0"></circle><circle cx="343.67" cy="230.98" r="2.6" fill="#1F9CF0"></circle><circle cx="354.33" cy="234.56" r="2.6" fill="#1F9CF0"></circle><circle cx="364.98" cy="260.01" r="2.6" fill="#1F9CF0"></circle><circle cx="375.64" cy="254.76" r="2.6" fill="#1F9CF0"></circle><circle cx="386.29" cy="238.53" r="2.6" fill="#1F9CF0"></circle><circle cx="396.95" cy="231.76" r="2.6" fill="#1F9CF0"></circle><circle cx="407.6" cy="226.22" r="2.6" fill="#1F9CF0"></circle><circle cx="418.25" cy="247.36" r="2.6" fill="#1F9CF0"></circle><circle cx="428.91" cy="238.78" r="2.6" fill="#1F9CF0"></circle><circle cx="439.56" cy="250.58" r="2.6" fill="#1F9CF0"></circle><circle cx="450.22" cy="256.4" r="2.6" fill="#1F9CF0"></circle><circle cx="460.87" cy="243.61" r="2.6" fill="#1F9CF0"></circle><circle cx="471.53" cy="265.98" r="2.6" fill="#1F9CF0"></circle><circle cx="482.18" cy="253.29" r="2.6" fill="#1F9CF0"></circle><circle cx="492.84" cy="225.25" r="2.6" fill="#1F9CF0"></circle><circle cx="503.49" cy="246.45" r="2.6" fill="#1F9CF0"></circle><circle cx="514.15" cy="252.36" r="2.6" fill="#1F9CF0"></circle><circle cx="524.8" cy="241.14" r="2.6" fill="#1F9CF0"></circle><circle cx="535.45" cy="253.3" r="2.6" fill="#1F9CF0"></circle><circle cx="546.11" cy="245.06" r="2.6" fill="#1F9CF0"></circle><circle cx="556.76" cy="205.73" r="2.6" fill="#1F9CF0"></circle><circle cx="567.42" cy="260.99" r="2.6" fill="#1F9CF0"></circle><circle cx="578.07" cy="265.11" r="2.6" fill="#1F9CF0"></circle><circle cx="588.73" cy="263.66" r="2.6" fill="#1F9CF0"></circle><circle cx="599.38" cy="270.45" r="2.6" fill="#1F9CF0"></circle><circle cx="610.04" cy="265.53" r="2.6" fill="#1F9CF0"></circle><circle cx="620.69" cy="248.25" r="2.6" fill="#1F9CF0"></circle><circle cx="631.35" cy="259.3" r="2.6" fill="#1F9CF0"></circle><circle cx="642" cy="255.01" r="2.6" fill="#1F9CF0"></circle><line x1="656" y1="27" x2="672" y2="27" stroke="#E8835A" stroke-width="3" stroke-linecap="round"></line><text x="678" y="30" font-size="11" font-weight="400" text-anchor="start" fill="#1f2328">anthropic</text><line x1="656" y1="47" x2="672" y2="47" stroke="#6366F1" stroke-width="3" stroke-linecap="round"></line><text x="678" y="50" font-size="11" font-weight="400" text-anchor="start" fill="#1f2328">deepseek</text><line x1="656" y1="67" x2="672" y2="67" stroke="#2DA98C" stroke-width="3" stroke-linecap="round"></line><text x="678" y="70" font-size="11" font-weight="400" text-anchor="start" fill="#1f2328">gemini</text><line x1="656" y1="87" x2="672" y2="87" stroke="#A371F7" stroke-width="3" stroke-linecap="round"></line><text x="678" y="90" font-size="11" font-weight="400" text-anchor="start" fill="#1f2328">llama</text><line x1="656" y1="107" x2="672" y2="107" stroke="#F0A23B" stroke-width="3" stroke-linecap="round"></line><text x="678" y="110" font-size="11" font-weight="400" text-anchor="start" fill="#1f2328">mistral</text><line x1="656" y1="127" x2="672" y2="127" stroke="#1F9CF0" stroke-width="3" stroke-linecap="round"></line><text x="678" y="130" font-size="11" font-weight="400" text-anchor="start" fill="#1f2328">openai</text></svg>
