<svg xmlns="http://www.w3.org/2000/svg" viewBox="0 0 600 300" width="600" height="300" role="img" aria-label="Avg LLM latency by provider over runs (s)"><text x="300.0" y="24" text-anchor="middle" font-family="system-ui, -apple-system, sans-serif" font-size="14" font-weight="600" fill="#333">Avg LLM latency by provider over runs (s)</text><line x1="60" y1="240.0" x2="480" y2="240.0" stroke="#eee" stroke-width="1"/><text x="54" y="244.0" text-anchor="end" font-family="system-ui, -apple-system, sans-serif" font-size="9" fill="#999">41.35</text><line x1="60" y1="140.0" x2="480" y2="140.0" stroke="#eee" stroke-width="1"/><text x="54" y="144.0" text-anchor="end" font-family="system-ui, -apple-system, sans-serif" font-size="9" fill="#999">164.3</text><line x1="60" y1="40.0" x2="480" y2="40.0" stroke="#eee" stroke-width="1"/><text x="54" y="44.0" text-anchor="end" font-family="system-ui, -apple-system, sans-serif" font-size="9" fill="#999">287.4</text><polyline fill="none" stroke="#4CAF50" stroke-width="2" points="60.0,171.8 79.1,196.7 98.2,187.4 117.3,218.8 136.4,208.2 155.5,192.0 174.5,210.1 193.6,180.9 212.7,174.7 231.8,210.6 250.9,213.4 270.0,151.9 289.1,191.3 308.2,204.4 327.3,219.2 346.4,223.5 365.5,202.7 384.5,213.6 403.6,211.3 422.7,219.2 441.8,227.0 460.9,231.5 480.0,232.4"/><circle cx="60.0" cy="171.8" r="3" fill="#4CAF50"/><circle cx="79.1" cy="196.7" r="3" fill="#4CAF50"/><circle cx="98.2" cy="187.4" r="3" fill="#4CAF50"/><circle cx="117.3" cy="218.8" r="3" fill="#4CAF50"/><circle cx="136.4" cy="208.2" r="3" fill="#4CAF50"/><circle cx="155.5" cy="192.0" r="3" fill="#4CAF50"/><circle cx="174.5" cy="210.1" r="3" fill="#4CAF50"/><circle cx="193.6" cy="180.9" r="3" fill="#4CAF50"/><circle cx="212.7" cy="174.7" r="3" fill="#4CAF50"/><circle cx="231.8" cy="210.6" r="3" fill="#4CAF50"/><circle cx="250.9" cy="213.4" r="3" fill="#4CAF50"/><circle cx="270.0" cy="151.9" r="3" fill="#4CAF50"/><circle cx="289.1" cy="191.3" r="3" fill="#4CAF50"/><circle cx="308.2" cy="204.4" r="3" fill="#4CAF50"/><circle cx="327.3" cy="219.2" r="3" fill="#4CAF50"/><circle cx="346.4" cy="223.5" r="3" fill="#4CAF50"/><circle cx="365.5" cy="202.7" r="3" fill="#4CAF50"/><circle cx="384.5" cy="213.6" r="3" fill="#4CAF50"/><circle cx="403.6" cy="211.3" r="3" fill="#4CAF50"/><circle cx="422.7" cy="219.2" r="3" fill="#4CAF50"/><circle cx="441.8" cy="227.0" r="3" fill="#4CAF50"/><circle cx="460.9" cy="231.5" r="3" fill="#4CAF50"/><circle cx="480.0" cy="232.4" r="3" fill="#4CAF50"/><rect x="490" y="44" width="10" height="10" fill="#4CAF50"/><text x="504" y="53" font-family="system-ui, -apple-system, sans-serif" font-size="10" fill="#333">openai</text><polyline fill="none" stroke="#2196F3" stroke-width="2" points="60.0,201.0 79.1,204.0 98.2,210.2 117.3,215.0 136.4,207.0 155.5,204.4 174.5,220.9 193.6,214.4 212.7,212.8 231.8,202.9 270.0,205.6 289.1,215.3 308.2,200.6 327.3,217.0 346.4,213.3 365.5,207.1 384.5,213.4 403.6,215.5 422.7,217.8 441.8,211.9 460.9,221.5 480.0,215.3"/><circle cx="60.0" cy="201.0" r="3" fill="#2196F3"/><circle cx="79.1" cy="204.0" r="3" fill="#2196F3"/><circle cx="98.2" cy="210.2" r="3" fill="#2196F3"/><circle cx="117.3" cy="215.0" r="3" fill="#2196F3"/><circle cx="136.4" cy="207.0" r="3" fill="#2196F3"/><circle cx="155.5" cy="204.4" r="3" fill="#2196F3"/><circle cx="174.5" cy="220.9" r="3" fill="#2196F3"/><circle cx="193.6" cy="214.4" r="3" fill="#2196F3"/><circle cx="212.7" cy="212.8" r="3" fill="#2196F3"/><circle cx="231.8" cy="202.9" r="3" fill="#2196F3"/><circle cx="270.0" cy="205.6" r="3" fill="#2196F3"/><circle cx="289.1" cy="215.3" r="3" fill="#2196F3"/><circle cx="308.2" cy="200.6" r="3" fill="#2196F3"/><circle cx="327.3" cy="217.0" r="3" fill="#2196F3"/><circle cx="346.4" cy="213.3" r="3" fill="#2196F3"/><circle cx="365.5" cy="207.1" r="3" fill="#2196F3"/><circle cx="384.5" cy="213.4" r="3" fill="#2196F3"/><circle cx="403.6" cy="215.5" r="3" fill="#2196F3"/><circle cx="422.7" cy="217.8" r="3" fill="#2196F3"/><circle cx="441.8" cy="211.9" r="3" fill="#2196F3"/><circle cx="460.9" cy="221.5" r="3" fill="#2196F3"/><circle cx="480.0" cy="215.3" r="3" fill="#2196F3"/><rect x="490" y="62" width="10" height="10" fill="#2196F3"/><text x="504" y="71" font-family="system-ui, -apple-system, sans-serif" font-size="10" fill="#333">anthropic</text><polyline fill="none" stroke="#FF9800" stroke-width="2" points="60.0,178.4 79.1,188.0 98.2,149.0 117.3,190.0 136.4,191.1 155.5,199.5 174.5,177.0 193.6,166.0 212.7,187.9 231.8,168.5 250.9,168.6 270.0,118.1 289.1,125.1 308.2,168.6 327.3,155.3 346.4,175.4 365.5,144.2 384.5,184.1 403.6,167.5 422.7,165.9 441.8,179.7"/><circle cx="60.0" cy="178.4" r="3" fill="#FF9800"/><circle cx="79.1" cy="188.0" r="3" fill="#FF9800"/><circle cx="98.2" cy="149.0" r="3" fill="#FF9800"/><circle cx="117.3" cy="190.0" r="3" fill="#FF9800"/><circle cx="136.4" cy="191.1" r="3" fill="#FF9800"/><circle cx="155.5" cy="199.5" r="3" fill="#FF9800"/><circle cx="174.5" cy="177.0" r="3" fill="#FF9800"/><circle cx="193.6" cy="166.0" r="3" fill="#FF9800"/><circle cx="212.7" cy="187.9" r="3" fill="#FF9800"/><circle cx="231.8" cy="168.5" r="3" fill="#FF9800"/><circle cx="250.9" cy="168.6" r="3" fill="#FF9800"/><circle cx="270.0" cy="118.1" r="3" fill="#FF9800"/><circle cx="289.1" cy="125.1" r="3" fill="#FF9800"/><circle cx="308.2" cy="168.6" r="3" fill="#FF9800"/><circle cx="327.3" cy="155.3" r="3" fill="#FF9800"/><circle cx="346.4" cy="175.4" r="3" fill="#FF9800"/><circle cx="365.5" cy="144.2" r="3" fill="#FF9800"/><circle cx="384.5" cy="184.1" r="3" fill="#FF9800"/><circle cx="403.6" cy="167.5" r="3" fill="#FF9800"/><circle cx="422.7" cy="165.9" r="3" fill="#FF9800"/><circle cx="441.8" cy="179.7" r="3" fill="#FF9800"/><rect x="490" y="80" width="10" height="10" fill="#FF9800"/><text x="504" y="89" font-family="system-ui, -apple-system, sans-serif" font-size="10" fill="#333">gemini</text><polyline fill="none" stroke="#E91E63" stroke-width="2" points="60.0,105.2 79.1,126.0 98.2,156.2 117.3,116.0 136.4,85.9 155.5,192.3 174.5,94.3 193.6,157.3 212.7,167.5 231.8,170.7 250.9,84.4 270.0,122.5 289.1,155.9 308.2,176.1 327.3,111.8 346.4,191.5 365.5,40.0 384.5,170.6 403.6,142.9 422.7,55.5 441.8,105.8 460.9,128.3 480.0,142.1"/><circle cx="60.0" cy="105.2" r="3" fill="#E91E63"/><circle cx="79.1" cy="126.0" r="3" fill="#E91E63"/><circle cx="98.2" cy="156.2" r="3" fill="#E91E63"/><circle cx="117.3" cy="116.0" r="3" fill="#E91E63"/><circle cx="136.4" cy="85.9" r="3" fill="#E91E63"/><circle cx="155.5" cy="192.3" r="3" fill="#E91E63"/><circle cx="174.5" cy="94.3" r="3" fill="#E91E63"/><circle cx="193.6" cy="157.3" r="3" fill="#E91E63"/><circle cx="212.7" cy="167.5" r="3" fill="#E91E63"/><circle cx="231.8" cy="170.7" r="3" fill="#E91E63"/><circle cx="250.9" cy="84.4" r="3" fill="#E91E63"/><circle cx="270.0" cy="122.5" r="3" fill="#E91E63"/><circle cx="289.1" cy="155.9" r="3" fill="#E91E63"/><circle cx="308.2" cy="176.1" r="3" fill="#E91E63"/><circle cx="327.3" cy="111.8" r="3" fill="#E91E63"/><circle cx="346.4" cy="191.5" r="3" fill="#E91E63"/><circle cx="365.5" cy="40.0" r="3" fill="#E91E63"/><circle cx="384.5" cy="170.6" r="3" fill="#E91E63"/><circle cx="403.6" cy="142.9" r="3" fill="#E91E63"/><circle cx="422.7" cy="55.5" r="3" fill="#E91E63"/><circle cx="441.8" cy="105.8" r="3" fill="#E91E63"/><circle cx="460.9" cy="128.3" r="3" fill="#E91E63"/><circle cx="480.0" cy="142.1" r="3" fill="#E91E63"/><rect x="490" y="98" width="10" height="10" fill="#E91E63"/><text x="504" y="107" font-family="system-ui, -apple-system, sans-serif" font-size="10" fill="#333">llama</text><polyline fill="none" stroke="#9C27B0" stroke-width="2" points="60.0,145.6 79.1,126.8 98.2,161.4 117.3,129.3 136.4,114.3 155.5,161.5 174.5,176.2 193.6,191.9 212.7,161.4 231.8,139.1 250.9,191.0 270.0,218.7 289.1,194.9 308.2,220.4 327.3,196.8 346.4,214.7 365.5,216.7 384.5,184.6 403.6,207.7 422.7,228.0 441.8,219.4 460.9,205.8 480.0,218.4"/><circle cx="60.0" cy="145.6" r="3" fill="#9C27B0"/><circle cx="79.1" cy="126.8" r="3" fill="#9C27B0"/><circle cx="98.2" cy="161.4" r="3" fill="#9C27B0"/><circle cx="117.3" cy="129.3" r="3" fill="#9C27B0"/><circle cx="136.4" cy="114.3" r="3" fill="#9C27B0"/><circle cx="155.5" cy="161.5" r="3" fill="#9C27B0"/><circle cx="174.5" cy="176.2" r="3" fill="#9C27B0"/><circle cx="193.6" cy="191.9" r="3" fill="#9C27B0"/><circle cx="212.7" cy="161.4" r="3" fill="#9C27B0"/><circle cx="231.8" cy="139.1" r="3" fill="#9C27B0"/><circle cx="250.9" cy="191.0" r="3" fill="#9C27B0"/><circle cx="270.0" cy="218.7" r="3" fill="#9C27B0"/><circle cx="289.1" cy="194.9" r="3" fill="#9C27B0"/><circle cx="308.2" cy="220.4" r="3" fill="#9C27B0"/><circle cx="327.3" cy="196.8" r="3" fill="#9C27B0"/><circle cx="346.4" cy="214.7" r="3" fill="#9C27B0"/><circle cx="365.5" cy="216.7" r="3" fill="#9C27B0"/><circle cx="384.5" cy="184.6" r="3" fill="#9C27B0"/><circle cx="403.6" cy="207.7" r="3" fill="#9C27B0"/><circle cx="422.7" cy="228.0" r="3" fill="#9C27B0"/><circle cx="441.8" cy="219.4" r="3" fill="#9C27B0"/><circle cx="460.9" cy="205.8" r="3" fill="#9C27B0"/><circle cx="480.0" cy="218.4" r="3" fill="#9C27B0"/><rect x="490" y="116" width="10" height="10" fill="#9C27B0"/><text x="504" y="125" font-family="system-ui, -apple-system, sans-serif" font-size="10" fill="#333">mistral</text><polyline fill="none" stroke="#00BCD4" stroke-width="2" points="79.1,218.1 98.2,213.5 117.3,220.7 136.4,202.2 155.5,230.3 174.5,230.5 193.6,240.0 212.7,219.7 231.8,216.1 250.9,218.6 270.0,226.6 289.1,219.5 308.2,231.5 327.3,214.6 346.4,183.3 365.5,236.1 384.5,204.0 403.6,203.9 422.7,172.6 441.8,209.3 460.9,223.5 480.0,235.9"/><circle cx="79.1" cy="218.1" r="3" fill="#00BCD4"/><circle cx="98.2" cy="213.5" r="3" fill="#00BCD4"/><circle cx="117.3" cy="220.7" r="3" fill="#00BCD4"/><circle cx="136.4" cy="202.2" r="3" fill="#00BCD4"/><circle cx="155.5" cy="230.3" r="3" fill="#00BCD4"/><circle cx="174.5" cy="230.5" r="3" fill="#00BCD4"/><circle cx="193.6" cy="240.0" r="3" fill="#00BCD4"/><circle cx="212.7" cy="219.7" r="3" fill="#00BCD4"/><circle cx="231.8" cy="216.1" r="3" fill="#00BCD4"/><circle cx="250.9" cy="218.6" r="3" fill="#00BCD4"/><circle cx="270.0" cy="226.6" r="3" fill="#00BCD4"/><circle cx="289.1" cy="219.5" r="3" fill="#00BCD4"/><circle cx="308.2" cy="231.5" r="3" fill="#00BCD4"/><circle cx="327.3" cy="214.6" r="3" fill="#00BCD4"/><circle cx="346.4" cy="183.3" r="3" fill="#00BCD4"/><circle cx="365.5" cy="236.1" r="3" fill="#00BCD4"/><circle cx="384.5" cy="204.0" r="3" fill="#00BCD4"/><circle cx="403.6" cy="203.9" r="3" fill="#00BCD4"/><circle cx="422.7" cy="172.6" r="3" fill="#00BCD4"/><circle cx="441.8" cy="209.3" r="3" fill="#00BCD4"/><circle cx="460.9" cy="223.5" r="3" fill="#00BCD4"/><circle cx="480.0" cy="235.9" r="3" fill="#00BCD4"/><rect x="490" y="134" width="10" height="10" fill="#00BCD4"/><text x="504" y="143" font-family="system-ui, -apple-system, sans-serif" font-size="10" fill="#333">deepseek</text><text x="60.0" y="256.0" text-anchor="middle" font-family="system-ui, -apple-system, sans-serif" font-size="9" fill="#666">33376499</text><text x="98.2" y="256.0" text-anchor="middle" font-family="system-ui, -apple-system, sans-serif" font-size="9" fill="#666">51938981</text><text x="136.4" y="256.0" text-anchor="middle" font-family="system-ui, -apple-system, sans-serif" font-size="9" fill="#666">54994841</text><text x="174.5" y="256.0" text-anchor="middle" font-family="system-ui, -apple-system, sans-serif" font-size="9" fill="#666">74446787</text><text x="212.7" y="256.0" text-anchor="middle" font-family="system-ui, -apple-system, sans-serif" font-size="9" fill="#666">75757458</text><text x="250.9" y="256.0" text-anchor="middle" font-family="system-ui, -apple-system, sans-serif" font-size="9" fill="#666">37885074</text><text x="289.1" y="256.0" text-anchor="middle" font-family="system-ui, -apple-system, sans-serif" font-size="9" fill="#666">41073326</text><text x="327.3" y="256.0" text-anchor="middle" font-family="system-ui, -apple-system, sans-serif" font-size="9" fill="#666">04094958</text><text x="365.5" y="256.0" text-anchor="middle" font-family="system-ui, -apple-system, sans-serif" font-size="9" fill="#666">12682497</text><text x="403.6" y="256.0" text-anchor="middle" font-family="system-ui, -apple-system, sans-serif" font-size="9" fill="#666">39004208</text><text x="441.8" y="256.0" text-anchor="middle" font-family="system-ui, -apple-system, sans-serif" font-size="9" fill="#666">68748512</text><text x="480.0" y="256.0" text-anchor="middle" font-family="system-ui, -apple-system, sans-serif" font-size="9" fill="#666">99652631</text></svg>
