<svg xmlns="http://www.w3.org/2000/svg" viewBox="0 0 600 300" width="600" height="300" role="img" aria-label="Avg LLM latency by provider over runs (s)"><text x="300.0" y="24" text-anchor="middle" font-family="system-ui, -apple-system, sans-serif" font-size="14" font-weight="600" fill="#333">Avg LLM latency by provider over runs (s)</text><line x1="60" y1="240.0" x2="480" y2="240.0" stroke="#eee" stroke-width="1"/><text x="54" y="244.0" text-anchor="end" font-family="system-ui, -apple-system, sans-serif" font-size="9" fill="#999">41.35</text><line x1="60" y1="140.0" x2="480" y2="140.0" stroke="#eee" stroke-width="1"/><text x="54" y="144.0" text-anchor="end" font-family="system-ui, -apple-system, sans-serif" font-size="9" fill="#999">137</text><line x1="60" y1="40.0" x2="480" y2="40.0" stroke="#eee" stroke-width="1"/><text x="54" y="44.0" text-anchor="end" font-family="system-ui, -apple-system, sans-serif" font-size="9" fill="#999">232.7</text><polyline fill="none" stroke="#4CAF50" stroke-width="2" points="60.0,152.3 98.2,184.3 136.4,172.3 174.5,212.7 212.7,199.1 250.9,178.3 289.1,201.5 327.3,164.1 365.5,156.1 403.6,202.2 441.8,205.8 480.0,126.8"/><circle cx="60.0" cy="152.3" r="3" fill="#4CAF50"/><circle cx="98.2" cy="184.3" r="3" fill="#4CAF50"/><circle cx="136.4" cy="172.3" r="3" fill="#4CAF50"/><circle cx="174.5" cy="212.7" r="3" fill="#4CAF50"/><circle cx="212.7" cy="199.1" r="3" fill="#4CAF50"/><circle cx="250.9" cy="178.3" r="3" fill="#4CAF50"/><circle cx="289.1" cy="201.5" r="3" fill="#4CAF50"/><circle cx="327.3" cy="164.1" r="3" fill="#4CAF50"/><circle cx="365.5" cy="156.1" r="3" fill="#4CAF50"/><circle cx="403.6" cy="202.2" r="3" fill="#4CAF50"/><circle cx="441.8" cy="205.8" r="3" fill="#4CAF50"/><circle cx="480.0" cy="126.8" r="3" fill="#4CAF50"/><rect x="490" y="44" width="10" height="10" fill="#4CAF50"/><text x="504" y="53" font-family="system-ui, -apple-system, sans-serif" font-size="10" fill="#333">openai</text><polyline fill="none" stroke="#2196F3" stroke-width="2" points="60.0,189.8 98.2,193.7 136.4,201.7 174.5,207.9 212.7,197.5 250.9,194.3 289.1,215.5 327.3,207.1 365.5,205.0 403.6,192.2 480.0,195.8"/><circle cx="60.0" cy="189.8" r="3" fill="#2196F3"/><circle cx="98.2" cy="193.7" r="3" fill="#2196F3"/><circle cx="136.4" cy="201.7" r="3" fill="#2196F3"/><circle cx="174.5" cy="207.9" r="3" fill="#2196F3"/><circle cx="212.7" cy="197.5" r="3" fill="#2196F3"/><circle cx="250.9" cy="194.3" r="3" fill="#2196F3"/><circle cx="289.1" cy="215.5" r="3" fill="#2196F3"/><circle cx="327.3" cy="207.1" r="3" fill="#2196F3"/><circle cx="365.5" cy="205.0" r="3" fill="#2196F3"/><circle cx="403.6" cy="192.2" r="3" fill="#2196F3"/><circle cx="480.0" cy="195.8" r="3" fill="#2196F3"/><rect x="490" y="62" width="10" height="10" fill="#2196F3"/><text x="504" y="71" font-family="system-ui, -apple-system, sans-serif" font-size="10" fill="#333">anthropic</text><polyline fill="none" stroke="#FF9800" stroke-width="2" points="60.0,160.8 98.2,173.1 136.4,123.0 174.5,175.7 212.7,177.1 250.9,187.9 289.1,159.0 327.3,144.9 365.5,173.1 403.6,148.1 441.8,148.2 480.0,83.3"/><circle cx="60.0" cy="160.8" r="3" fill="#FF9800"/><circle cx="98.2" cy="173.1" r="3" fill="#FF9800"/><circle cx="136.4" cy="123.0" r="3" fill="#FF9800"/><circle cx="174.5" cy="175.7" r="3" fill="#FF9800"/><circle cx="212.7" cy="177.1" r="3" fill="#FF9800"/><circle cx="250.9" cy="187.9" r="3" fill="#FF9800"/><circle cx="289.1" cy="159.0" r="3" fill="#FF9800"/><circle cx="327.3" cy="144.9" r="3" fill="#FF9800"/><circle cx="365.5" cy="173.1" r="3" fill="#FF9800"/><circle cx="403.6" cy="148.1" r="3" fill="#FF9800"/><circle cx="441.8" cy="148.2" r="3" fill="#FF9800"/><circle cx="480.0" cy="83.3" r="3" fill="#FF9800"/><rect x="490" y="80" width="10" height="10" fill="#FF9800"/><text x="504" y="89" font-family="system-ui, -apple-system, sans-serif" font-size="10" fill="#333">gemini</text><polyline fill="none" stroke="#E91E63" stroke-width="2" points="60.0,66.7 98.2,93.5 136.4,132.2 174.5,80.6 212.7,41.8 250.9,178.7 289.1,52.7 327.3,133.6 365.5,146.8 403.6,150.9 441.8,40.0 480.0,88.9"/><circle cx="60.0" cy="66.7" r="3" fill="#E91E63"/><circle cx="98.2" cy="93.5" r="3" fill="#E91E63"/><circle cx="136.4" cy="132.2" r="3" fill="#E91E63"/><circle cx="174.5" cy="80.6" r="3" fill="#E91E63"/><circle cx="212.7" cy="41.8" r="3" fill="#E91E63"/><circle cx="250.9" cy="178.7" r="3" fill="#E91E63"/><circle cx="289.1" cy="52.7" r="3" fill="#E91E63"/><circle cx="327.3" cy="133.6" r="3" fill="#E91E63"/><circle cx="365.5" cy="146.8" r="3" fill="#E91E63"/><circle cx="403.6" cy="150.9" r="3" fill="#E91E63"/><circle cx="441.8" cy="40.0" r="3" fill="#E91E63"/><circle cx="480.0" cy="88.9" r="3" fill="#E91E63"/><rect x="490" y="98" width="10" height="10" fill="#E91E63"/><text x="504" y="107" font-family="system-ui, -apple-system, sans-serif" font-size="10" fill="#333">llama</text><polyline fill="none" stroke="#9C27B0" stroke-width="2" points="60.0,118.7 98.2,94.4 136.4,138.9 174.5,97.7 212.7,78.3 250.9,139.1 289.1,158.0 327.3,178.2 365.5,139.0 403.6,110.2 441.8,176.9 480.0,212.6"/><circle cx="60.0" cy="118.7" r="3" fill="#9C27B0"/><circle cx="98.2" cy="94.4" r="3" fill="#9C27B0"/><circle cx="136.4" cy="138.9" r="3" fill="#9C27B0"/><circle cx="174.5" cy="97.7" r="3" fill="#9C27B0"/><circle cx="212.7" cy="78.3" r="3" fill="#9C27B0"/><circle cx="250.9" cy="139.1" r="3" fill="#9C27B0"/><circle cx="289.1" cy="158.0" r="3" fill="#9C27B0"/><circle cx="327.3" cy="178.2" r="3" fill="#9C27B0"/><circle cx="365.5" cy="139.0" r="3" fill="#9C27B0"/><circle cx="403.6" cy="110.2" r="3" fill="#9C27B0"/><circle cx="441.8" cy="176.9" r="3" fill="#9C27B0"/><circle cx="480.0" cy="212.6" r="3" fill="#9C27B0"/><rect x="490" y="116" width="10" height="10" fill="#9C27B0"/><text x="504" y="125" font-family="system-ui, -apple-system, sans-serif" font-size="10" fill="#333">mistral</text><polyline fill="none" stroke="#00BCD4" stroke-width="2" points="98.2,211.8 136.4,205.9 174.5,215.1 212.7,191.4 250.9,227.6 289.1,227.7 327.3,240.0 365.5,213.9 403.6,209.3 441.8,212.5 480.0,222.7"/><circle cx="98.2" cy="211.8" r="3" fill="#00BCD4"/><circle cx="136.4" cy="205.9" r="3" fill="#00BCD4"/><circle cx="174.5" cy="215.1" r="3" fill="#00BCD4"/><circle cx="212.7" cy="191.4" r="3" fill="#00BCD4"/><circle cx="250.9" cy="227.6" r="3" fill="#00BCD4"/><circle cx="289.1" cy="227.7" r="3" fill="#00BCD4"/><circle cx="327.3" cy="240.0" r="3" fill="#00BCD4"/><circle cx="365.5" cy="213.9" r="3" fill="#00BCD4"/><circle cx="403.6" cy="209.3" r="3" fill="#00BCD4"/><circle cx="441.8" cy="212.5" r="3" fill="#00BCD4"/><circle cx="480.0" cy="222.7" r="3" fill="#00BCD4"/><rect x="490" y="134" width="10" height="10" fill="#00BCD4"/><text x="504" y="143" font-family="system-ui, -apple-system, sans-serif" font-size="10" fill="#333">deepseek</text><text x="60.0" y="256.0" text-anchor="middle" font-family="system-ui, -apple-system, sans-serif" font-size="9" fill="#666">33376499</text><text x="98.2" y="256.0" text-anchor="middle" font-family="system-ui, -apple-system, sans-serif" font-size="9" fill="#666">49559976</text><text x="136.4" y="256.0" text-anchor="middle" font-family="system-ui, -apple-system, sans-serif" font-size="9" fill="#666">51938981</text><text x="174.5" y="256.0" text-anchor="middle" font-family="system-ui, -apple-system, sans-serif" font-size="9" fill="#666">53749546</text><text x="212.7" y="256.0" text-anchor="middle" font-family="system-ui, -apple-system, sans-serif" font-size="9" fill="#666">54994841</text><text x="250.9" y="256.0" text-anchor="middle" font-family="system-ui, -apple-system, sans-serif" font-size="9" fill="#666">73723278</text><text x="289.1" y="256.0" text-anchor="middle" font-family="system-ui, -apple-system, sans-serif" font-size="9" fill="#666">74446787</text><text x="327.3" y="256.0" text-anchor="middle" font-family="system-ui, -apple-system, sans-serif" font-size="9" fill="#666">75063969</text><text x="365.5" y="256.0" text-anchor="middle" font-family="system-ui, -apple-system, sans-serif" font-size="9" fill="#666">75757458</text><text x="403.6" y="256.0" text-anchor="middle" font-family="system-ui, -apple-system, sans-serif" font-size="9" fill="#666">76005435</text><text x="441.8" y="256.0" text-anchor="middle" font-family="system-ui, -apple-system, sans-serif" font-size="9" fill="#666">37885074</text><text x="480.0" y="256.0" text-anchor="middle" font-family="system-ui, -apple-system, sans-serif" font-size="9" fill="#666">39719442</text></svg>
