<svg xmlns="http://www.w3.org/2000/svg" viewBox="0 0 600 300" width="600" height="300" role="img" aria-label="Avg LLM latency by provider over runs (s)"><text x="300.0" y="24" text-anchor="middle" font-family="system-ui, -apple-system, sans-serif" font-size="14" font-weight="600" fill="#333">Avg LLM latency by provider over runs (s)</text><line x1="60" y1="240.0" x2="480" y2="240.0" stroke="#eee" stroke-width="1"/><text x="54" y="244.0" text-anchor="end" font-family="system-ui, -apple-system, sans-serif" font-size="9" fill="#999">53.08</text><line x1="60" y1="140.0" x2="480" y2="140.0" stroke="#eee" stroke-width="1"/><text x="54" y="144.0" text-anchor="end" font-family="system-ui, -apple-system, sans-serif" font-size="9" fill="#999">142</text><line x1="60" y1="40.0" x2="480" y2="40.0" stroke="#eee" stroke-width="1"/><text x="54" y="44.0" text-anchor="end" font-family="system-ui, -apple-system, sans-serif" font-size="9" fill="#999">230.9</text><polyline fill="none" stroke="#4CAF50" stroke-width="2" points="60.0,158.9 130.0,193.3 200.0,180.4 270.0,223.8 340.0,209.2 410.0,186.8 480.0,211.8"/><circle cx="60.0" cy="158.9" r="3" fill="#4CAF50"/><circle cx="130.0" cy="193.3" r="3" fill="#4CAF50"/><circle cx="200.0" cy="180.4" r="3" fill="#4CAF50"/><circle cx="270.0" cy="223.8" r="3" fill="#4CAF50"/><circle cx="340.0" cy="209.2" r="3" fill="#4CAF50"/><circle cx="410.0" cy="186.8" r="3" fill="#4CAF50"/><circle cx="480.0" cy="211.8" r="3" fill="#4CAF50"/><rect x="490" y="44" width="10" height="10" fill="#4CAF50"/><text x="504" y="53" font-family="system-ui, -apple-system, sans-serif" font-size="10" fill="#333">openai</text><polyline fill="none" stroke="#2196F3" stroke-width="2" points="60.0,199.2 130.0,203.3 200.0,212.0 270.0,218.6 340.0,207.5 410.0,204.0 480.0,226.8"/><circle cx="60.0" cy="199.2" r="3" fill="#2196F3"/><circle cx="130.0" cy="203.3" r="3" fill="#2196F3"/><circle cx="200.0" cy="212.0" r="3" fill="#2196F3"/><circle cx="270.0" cy="218.6" r="3" fill="#2196F3"/><circle cx="340.0" cy="207.5" r="3" fill="#2196F3"/><circle cx="410.0" cy="204.0" r="3" fill="#2196F3"/><circle cx="480.0" cy="226.8" r="3" fill="#2196F3"/><rect x="490" y="62" width="10" height="10" fill="#2196F3"/><text x="504" y="71" font-family="system-ui, -apple-system, sans-serif" font-size="10" fill="#333">anthropic</text><polyline fill="none" stroke="#FF9800" stroke-width="2" points="60.0,168.0 130.0,181.2 200.0,127.3 270.0,184.1 340.0,185.5 410.0,197.2 480.0,166.0"/><circle cx="60.0" cy="168.0" r="3" fill="#FF9800"/><circle cx="130.0" cy="181.2" r="3" fill="#FF9800"/><circle cx="200.0" cy="127.3" r="3" fill="#FF9800"/><circle cx="270.0" cy="184.1" r="3" fill="#FF9800"/><circle cx="340.0" cy="185.5" r="3" fill="#FF9800"/><circle cx="410.0" cy="197.2" r="3" fill="#FF9800"/><circle cx="480.0" cy="166.0" r="3" fill="#FF9800"/><rect x="490" y="80" width="10" height="10" fill="#FF9800"/><text x="504" y="89" font-family="system-ui, -apple-system, sans-serif" font-size="10" fill="#333">gemini</text><polyline fill="none" stroke="#E91E63" stroke-width="2" points="60.0,66.8 130.0,95.5 200.0,137.3 270.0,81.7 340.0,40.0 410.0,187.2 480.0,51.7"/><circle cx="60.0" cy="66.8" r="3" fill="#E91E63"/><circle cx="130.0" cy="95.5" r="3" fill="#E91E63"/><circle cx="200.0" cy="137.3" r="3" fill="#E91E63"/><circle cx="270.0" cy="81.7" r="3" fill="#E91E63"/><circle cx="340.0" cy="40.0" r="3" fill="#E91E63"/><circle cx="410.0" cy="187.2" r="3" fill="#E91E63"/><circle cx="480.0" cy="51.7" r="3" fill="#E91E63"/><rect x="490" y="98" width="10" height="10" fill="#E91E63"/><text x="504" y="107" font-family="system-ui, -apple-system, sans-serif" font-size="10" fill="#333">llama</text><polyline fill="none" stroke="#9C27B0" stroke-width="2" points="60.0,122.7 130.0,96.6 200.0,144.5 270.0,100.1 340.0,79.3 410.0,144.6 480.0,165.0"/><circle cx="60.0" cy="122.7" r="3" fill="#9C27B0"/><circle cx="130.0" cy="96.6" r="3" fill="#9C27B0"/><circle cx="200.0" cy="144.5" r="3" fill="#9C27B0"/><circle cx="270.0" cy="100.1" r="3" fill="#9C27B0"/><circle cx="340.0" cy="79.3" r="3" fill="#9C27B0"/><circle cx="410.0" cy="144.6" r="3" fill="#9C27B0"/><circle cx="480.0" cy="165.0" r="3" fill="#9C27B0"/><rect x="490" y="116" width="10" height="10" fill="#9C27B0"/><text x="504" y="125" font-family="system-ui, -apple-system, sans-serif" font-size="10" fill="#333">mistral</text><polyline fill="none" stroke="#00BCD4" stroke-width="2" points="130.0,222.9 200.0,216.5 270.0,226.5 340.0,201.0 410.0,239.8 480.0,240.0"/><circle cx="130.0" cy="222.9" r="3" fill="#00BCD4"/><circle cx="200.0" cy="216.5" r="3" fill="#00BCD4"/><circle cx="270.0" cy="226.5" r="3" fill="#00BCD4"/><circle cx="340.0" cy="201.0" r="3" fill="#00BCD4"/><circle cx="410.0" cy="239.8" r="3" fill="#00BCD4"/><circle cx="480.0" cy="240.0" r="3" fill="#00BCD4"/><rect x="490" y="134" width="10" height="10" fill="#00BCD4"/><text x="504" y="143" font-family="system-ui, -apple-system, sans-serif" font-size="10" fill="#333">deepseek</text><text x="60.0" y="256.0" text-anchor="middle" font-family="system-ui, -apple-system, sans-serif" font-size="9" fill="#666">33376499</text><text x="130.0" y="256.0" text-anchor="middle" font-family="system-ui, -apple-system, sans-serif" font-size="9" fill="#666">49559976</text><text x="200.0" y="256.0" text-anchor="middle" font-family="system-ui, -apple-system, sans-serif" font-size="9" fill="#666">51938981</text><text x="270.0" y="256.0" text-anchor="middle" font-family="system-ui, -apple-system, sans-serif" font-size="9" fill="#666">53749546</text><text x="340.0" y="256.0" text-anchor="middle" font-family="system-ui, -apple-system, sans-serif" font-size="9" fill="#666">54994841</text><text x="410.0" y="256.0" text-anchor="middle" font-family="system-ui, -apple-system, sans-serif" font-size="9" fill="#666">73723278</text><text x="480.0" y="256.0" text-anchor="middle" font-family="system-ui, -apple-system, sans-serif" font-size="9" fill="#666">74446787</text></svg>
