<svg xmlns="http://www.w3.org/2000/svg" viewBox="0 0 600 300" width="600" height="300" role="img" aria-label="Avg LLM latency by provider over runs (s)"><text x="300.0" y="24" text-anchor="middle" font-family="system-ui, -apple-system, sans-serif" font-size="14" font-weight="600" fill="#333">Avg LLM latency by provider over runs (s)</text><line x1="60" y1="240.0" x2="480" y2="240.0" stroke="#eee" stroke-width="1"/><text x="54" y="244.0" text-anchor="end" font-family="system-ui, -apple-system, sans-serif" font-size="9" fill="#999">41.35</text><line x1="60" y1="140.0" x2="480" y2="140.0" stroke="#eee" stroke-width="1"/><text x="54" y="144.0" text-anchor="end" font-family="system-ui, -apple-system, sans-serif" font-size="9" fill="#999">164.3</text><line x1="60" y1="40.0" x2="480" y2="40.0" stroke="#eee" stroke-width="1"/><text x="54" y="44.0" text-anchor="end" font-family="system-ui, -apple-system, sans-serif" font-size="9" fill="#999">287.4</text><polyline fill="none" stroke="#4CAF50" stroke-width="2" points="60.0,171.8 76.8,196.7 93.6,187.4 110.4,218.8 127.2,208.2 144.0,192.0 160.8,210.1 177.6,180.9 194.4,174.7 211.2,210.6 228.0,213.4 244.8,151.9 261.6,191.3 278.4,204.4 295.2,219.2 312.0,223.5 328.8,202.7 345.6,213.6 362.4,211.3 379.2,219.2 396.0,227.0 412.8,231.5 429.6,232.4 446.4,234.6 463.2,231.5 480.0,232.7"/><circle cx="60.0" cy="171.8" r="3" fill="#4CAF50"/><circle cx="76.8" cy="196.7" r="3" fill="#4CAF50"/><circle cx="93.6" cy="187.4" r="3" fill="#4CAF50"/><circle cx="110.4" cy="218.8" r="3" fill="#4CAF50"/><circle cx="127.2" cy="208.2" r="3" fill="#4CAF50"/><circle cx="144.0" cy="192.0" r="3" fill="#4CAF50"/><circle cx="160.8" cy="210.1" r="3" fill="#4CAF50"/><circle cx="177.6" cy="180.9" r="3" fill="#4CAF50"/><circle cx="194.4" cy="174.7" r="3" fill="#4CAF50"/><circle cx="211.2" cy="210.6" r="3" fill="#4CAF50"/><circle cx="228.0" cy="213.4" r="3" fill="#4CAF50"/><circle cx="244.8" cy="151.9" r="3" fill="#4CAF50"/><circle cx="261.6" cy="191.3" r="3" fill="#4CAF50"/><circle cx="278.4" cy="204.4" r="3" fill="#4CAF50"/><circle cx="295.2" cy="219.2" r="3" fill="#4CAF50"/><circle cx="312.0" cy="223.5" r="3" fill="#4CAF50"/><circle cx="328.8" cy="202.7" r="3" fill="#4CAF50"/><circle cx="345.6" cy="213.6" r="3" fill="#4CAF50"/><circle cx="362.4" cy="211.3" r="3" fill="#4CAF50"/><circle cx="379.2" cy="219.2" r="3" fill="#4CAF50"/><circle cx="396.0" cy="227.0" r="3" fill="#4CAF50"/><circle cx="412.8" cy="231.5" r="3" fill="#4CAF50"/><circle cx="429.6" cy="232.4" r="3" fill="#4CAF50"/><circle cx="446.4" cy="234.6" r="3" fill="#4CAF50"/><circle cx="463.2" cy="231.5" r="3" fill="#4CAF50"/><circle cx="480.0" cy="232.7" r="3" fill="#4CAF50"/><rect x="490" y="44" width="10" height="10" fill="#4CAF50"/><text x="504" y="53" font-family="system-ui, -apple-system, sans-serif" font-size="10" fill="#333">openai</text><polyline fill="none" stroke="#2196F3" stroke-width="2" points="60.0,201.0 76.8,204.0 93.6,210.2 110.4,215.0 127.2,207.0 144.0,204.4 160.8,220.9 177.6,214.4 194.4,212.8 211.2,202.9 244.8,205.6 261.6,215.3 278.4,200.6 295.2,217.0 312.0,213.3 328.8,207.1 345.6,213.4 362.4,215.5 379.2,217.8 396.0,211.9 412.8,221.5 429.6,215.3 446.4,212.5 463.2,216.6 480.0,216.0"/><circle cx="60.0" cy="201.0" r="3" fill="#2196F3"/><circle cx="76.8" cy="204.0" r="3" fill="#2196F3"/><circle cx="93.6" cy="210.2" r="3" fill="#2196F3"/><circle cx="110.4" cy="215.0" r="3" fill="#2196F3"/><circle cx="127.2" cy="207.0" r="3" fill="#2196F3"/><circle cx="144.0" cy="204.4" r="3" fill="#2196F3"/><circle cx="160.8" cy="220.9" r="3" fill="#2196F3"/><circle cx="177.6" cy="214.4" r="3" fill="#2196F3"/><circle cx="194.4" cy="212.8" r="3" fill="#2196F3"/><circle cx="211.2" cy="202.9" r="3" fill="#2196F3"/><circle cx="244.8" cy="205.6" r="3" fill="#2196F3"/><circle cx="261.6" cy="215.3" r="3" fill="#2196F3"/><circle cx="278.4" cy="200.6" r="3" fill="#2196F3"/><circle cx="295.2" cy="217.0" r="3" fill="#2196F3"/><circle cx="312.0" cy="213.3" r="3" fill="#2196F3"/><circle cx="328.8" cy="207.1" r="3" fill="#2196F3"/><circle cx="345.6" cy="213.4" r="3" fill="#2196F3"/><circle cx="362.4" cy="215.5" r="3" fill="#2196F3"/><circle cx="379.2" cy="217.8" r="3" fill="#2196F3"/><circle cx="396.0" cy="211.9" r="3" fill="#2196F3"/><circle cx="412.8" cy="221.5" r="3" fill="#2196F3"/><circle cx="429.6" cy="215.3" r="3" fill="#2196F3"/><circle cx="446.4" cy="212.5" r="3" fill="#2196F3"/><circle cx="463.2" cy="216.6" r="3" fill="#2196F3"/><circle cx="480.0" cy="216.0" r="3" fill="#2196F3"/><rect x="490" y="62" width="10" height="10" fill="#2196F3"/><text x="504" y="71" font-family="system-ui, -apple-system, sans-serif" font-size="10" fill="#333">anthropic</text><polyline fill="none" stroke="#FF9800" stroke-width="2" points="60.0,178.4 76.8,188.0 93.6,149.0 110.4,190.0 127.2,191.1 144.0,199.5 160.8,177.0 177.6,166.0 194.4,187.9 211.2,168.5 228.0,168.6 244.8,118.1 261.6,125.1 278.4,168.6 295.2,155.3 312.0,175.4 328.8,144.2 345.6,184.1 362.4,167.5 379.2,165.9 396.0,179.7"/><circle cx="60.0" cy="178.4" r="3" fill="#FF9800"/><circle cx="76.8" cy="188.0" r="3" fill="#FF9800"/><circle cx="93.6" cy="149.0" r="3" fill="#FF9800"/><circle cx="110.4" cy="190.0" r="3" fill="#FF9800"/><circle cx="127.2" cy="191.1" r="3" fill="#FF9800"/><circle cx="144.0" cy="199.5" r="3" fill="#FF9800"/><circle cx="160.8" cy="177.0" r="3" fill="#FF9800"/><circle cx="177.6" cy="166.0" r="3" fill="#FF9800"/><circle cx="194.4" cy="187.9" r="3" fill="#FF9800"/><circle cx="211.2" cy="168.5" r="3" fill="#FF9800"/><circle cx="228.0" cy="168.6" r="3" fill="#FF9800"/><circle cx="244.8" cy="118.1" r="3" fill="#FF9800"/><circle cx="261.6" cy="125.1" r="3" fill="#FF9800"/><circle cx="278.4" cy="168.6" r="3" fill="#FF9800"/><circle cx="295.2" cy="155.3" r="3" fill="#FF9800"/><circle cx="312.0" cy="175.4" r="3" fill="#FF9800"/><circle cx="328.8" cy="144.2" r="3" fill="#FF9800"/><circle cx="345.6" cy="184.1" r="3" fill="#FF9800"/><circle cx="362.4" cy="167.5" r="3" fill="#FF9800"/><circle cx="379.2" cy="165.9" r="3" fill="#FF9800"/><circle cx="396.0" cy="179.7" r="3" fill="#FF9800"/><rect x="490" y="80" width="10" height="10" fill="#FF9800"/><text x="504" y="89" font-family="system-ui, -apple-system, sans-serif" font-size="10" fill="#333">gemini</text><polyline fill="none" stroke="#E91E63" stroke-width="2" points="60.0,105.2 76.8,126.0 93.6,156.2 110.4,116.0 127.2,85.9 144.0,192.3 160.8,94.3 177.6,157.3 194.4,167.5 211.2,170.7 228.0,84.4 244.8,122.5 261.6,155.9 278.4,176.1 295.2,111.8 312.0,191.5 328.8,40.0 345.6,170.6 362.4,142.9 379.2,55.5 396.0,105.8 412.8,128.3 429.6,142.1 446.4,157.9 463.2,138.3 480.0,124.4"/><circle cx="60.0" cy="105.2" r="3" fill="#E91E63"/><circle cx="76.8" cy="126.0" r="3" fill="#E91E63"/><circle cx="93.6" cy="156.2" r="3" fill="#E91E63"/><circle cx="110.4" cy="116.0" r="3" fill="#E91E63"/><circle cx="127.2" cy="85.9" r="3" fill="#E91E63"/><circle cx="144.0" cy="192.3" r="3" fill="#E91E63"/><circle cx="160.8" cy="94.3" r="3" fill="#E91E63"/><circle cx="177.6" cy="157.3" r="3" fill="#E91E63"/><circle cx="194.4" cy="167.5" r="3" fill="#E91E63"/><circle cx="211.2" cy="170.7" r="3" fill="#E91E63"/><circle cx="228.0" cy="84.4" r="3" fill="#E91E63"/><circle cx="244.8" cy="122.5" r="3" fill="#E91E63"/><circle cx="261.6" cy="155.9" r="3" fill="#E91E63"/><circle cx="278.4" cy="176.1" r="3" fill="#E91E63"/><circle cx="295.2" cy="111.8" r="3" fill="#E91E63"/><circle cx="312.0" cy="191.5" r="3" fill="#E91E63"/><circle cx="328.8" cy="40.0" r="3" fill="#E91E63"/><circle cx="345.6" cy="170.6" r="3" fill="#E91E63"/><circle cx="362.4" cy="142.9" r="3" fill="#E91E63"/><circle cx="379.2" cy="55.5" r="3" fill="#E91E63"/><circle cx="396.0" cy="105.8" r="3" fill="#E91E63"/><circle cx="412.8" cy="128.3" r="3" fill="#E91E63"/><circle cx="429.6" cy="142.1" r="3" fill="#E91E63"/><circle cx="446.4" cy="157.9" r="3" fill="#E91E63"/><circle cx="463.2" cy="138.3" r="3" fill="#E91E63"/><circle cx="480.0" cy="124.4" r="3" fill="#E91E63"/><rect x="490" y="98" width="10" height="10" fill="#E91E63"/><text x="504" y="107" font-family="system-ui, -apple-system, sans-serif" font-size="10" fill="#333">llama</text><polyline fill="none" stroke="#9C27B0" stroke-width="2" points="60.0,145.6 76.8,126.8 93.6,161.4 110.4,129.3 127.2,114.3 144.0,161.5 160.8,176.2 177.6,191.9 194.4,161.4 211.2,139.1 228.0,191.0 244.8,218.7 261.6,194.9 278.4,220.4 295.2,196.8 312.0,214.7 328.8,216.7 345.6,184.6 362.4,207.7 379.2,228.0 396.0,219.4 412.8,205.8 429.6,218.4 446.4,214.7 463.2,228.8 480.0,224.4"/><circle cx="60.0" cy="145.6" r="3" fill="#9C27B0"/><circle cx="76.8" cy="126.8" r="3" fill="#9C27B0"/><circle cx="93.6" cy="161.4" r="3" fill="#9C27B0"/><circle cx="110.4" cy="129.3" r="3" fill="#9C27B0"/><circle cx="127.2" cy="114.3" r="3" fill="#9C27B0"/><circle cx="144.0" cy="161.5" r="3" fill="#9C27B0"/><circle cx="160.8" cy="176.2" r="3" fill="#9C27B0"/><circle cx="177.6" cy="191.9" r="3" fill="#9C27B0"/><circle cx="194.4" cy="161.4" r="3" fill="#9C27B0"/><circle cx="211.2" cy="139.1" r="3" fill="#9C27B0"/><circle cx="228.0" cy="191.0" r="3" fill="#9C27B0"/><circle cx="244.8" cy="218.7" r="3" fill="#9C27B0"/><circle cx="261.6" cy="194.9" r="3" fill="#9C27B0"/><circle cx="278.4" cy="220.4" r="3" fill="#9C27B0"/><circle cx="295.2" cy="196.8" r="3" fill="#9C27B0"/><circle cx="312.0" cy="214.7" r="3" fill="#9C27B0"/><circle cx="328.8" cy="216.7" r="3" fill="#9C27B0"/><circle cx="345.6" cy="184.6" r="3" fill="#9C27B0"/><circle cx="362.4" cy="207.7" r="3" fill="#9C27B0"/><circle cx="379.2" cy="228.0" r="3" fill="#9C27B0"/><circle cx="396.0" cy="219.4" r="3" fill="#9C27B0"/><circle cx="412.8" cy="205.8" r="3" fill="#9C27B0"/><circle cx="429.6" cy="218.4" r="3" fill="#9C27B0"/><circle cx="446.4" cy="214.7" r="3" fill="#9C27B0"/><circle cx="463.2" cy="228.8" r="3" fill="#9C27B0"/><circle cx="480.0" cy="224.4" r="3" fill="#9C27B0"/><rect x="490" y="116" width="10" height="10" fill="#9C27B0"/><text x="504" y="125" font-family="system-ui, -apple-system, sans-serif" font-size="10" fill="#333">mistral</text><polyline fill="none" stroke="#00BCD4" stroke-width="2" points="76.8,218.1 93.6,213.5 110.4,220.7 127.2,202.2 144.0,230.3 160.8,230.5 177.6,240.0 194.4,219.7 211.2,216.1 228.0,218.6 244.8,226.6 261.6,219.5 278.4,231.5 295.2,214.6 312.0,183.3 328.8,236.1 345.6,204.0 362.4,203.9 379.2,172.6 396.0,209.3 412.8,223.5 429.6,235.9 446.4,187.8 463.2,235.8 480.0,228.5"/><circle cx="76.8" cy="218.1" r="3" fill="#00BCD4"/><circle cx="93.6" cy="213.5" r="3" fill="#00BCD4"/><circle cx="110.4" cy="220.7" r="3" fill="#00BCD4"/><circle cx="127.2" cy="202.2" r="3" fill="#00BCD4"/><circle cx="144.0" cy="230.3" r="3" fill="#00BCD4"/><circle cx="160.8" cy="230.5" r="3" fill="#00BCD4"/><circle cx="177.6" cy="240.0" r="3" fill="#00BCD4"/><circle cx="194.4" cy="219.7" r="3" fill="#00BCD4"/><circle cx="211.2" cy="216.1" r="3" fill="#00BCD4"/><circle cx="228.0" cy="218.6" r="3" fill="#00BCD4"/><circle cx="244.8" cy="226.6" r="3" fill="#00BCD4"/><circle cx="261.6" cy="219.5" r="3" fill="#00BCD4"/><circle cx="278.4" cy="231.5" r="3" fill="#00BCD4"/><circle cx="295.2" cy="214.6" r="3" fill="#00BCD4"/><circle cx="312.0" cy="183.3" r="3" fill="#00BCD4"/><circle cx="328.8" cy="236.1" r="3" fill="#00BCD4"/><circle cx="345.6" cy="204.0" r="3" fill="#00BCD4"/><circle cx="362.4" cy="203.9" r="3" fill="#00BCD4"/><circle cx="379.2" cy="172.6" r="3" fill="#00BCD4"/><circle cx="396.0" cy="209.3" r="3" fill="#00BCD4"/><circle cx="412.8" cy="223.5" r="3" fill="#00BCD4"/><circle cx="429.6" cy="235.9" r="3" fill="#00BCD4"/><circle cx="446.4" cy="187.8" r="3" fill="#00BCD4"/><circle cx="463.2" cy="235.8" r="3" fill="#00BCD4"/><circle cx="480.0" cy="228.5" r="3" fill="#00BCD4"/><rect x="490" y="134" width="10" height="10" fill="#00BCD4"/><text x="504" y="143" font-family="system-ui, -apple-system, sans-serif" font-size="10" fill="#333">deepseek</text><text x="60.0" y="256.0" text-anchor="middle" font-family="system-ui, -apple-system, sans-serif" font-size="9" fill="#666">33376499</text><text x="93.6" y="256.0" text-anchor="middle" font-family="system-ui, -apple-system, sans-serif" font-size="9" fill="#666">51938981</text><text x="127.2" y="256.0" text-anchor="middle" font-family="system-ui, -apple-system, sans-serif" font-size="9" fill="#666">54994841</text><text x="160.8" y="256.0" text-anchor="middle" font-family="system-ui, -apple-system, sans-serif" font-size="9" fill="#666">74446787</text><text x="194.4" y="256.0" text-anchor="middle" font-family="system-ui, -apple-system, sans-serif" font-size="9" fill="#666">75757458</text><text x="228.0" y="256.0" text-anchor="middle" font-family="system-ui, -apple-system, sans-serif" font-size="9" fill="#666">37885074</text><text x="261.6" y="256.0" text-anchor="middle" font-family="system-ui, -apple-system, sans-serif" font-size="9" fill="#666">41073326</text><text x="295.2" y="256.0" text-anchor="middle" font-family="system-ui, -apple-system, sans-serif" font-size="9" fill="#666">04094958</text><text x="328.8" y="256.0" text-anchor="middle" font-family="system-ui, -apple-system, sans-serif" font-size="9" fill="#666">12682497</text><text x="362.4" y="256.0" text-anchor="middle" font-family="system-ui, -apple-system, sans-serif" font-size="9" fill="#666">39004208</text><text x="396.0" y="256.0" text-anchor="middle" font-family="system-ui, -apple-system, sans-serif" font-size="9" fill="#666">68748512</text><text x="429.6" y="256.0" text-anchor="middle" font-family="system-ui, -apple-system, sans-serif" font-size="9" fill="#666">99652631</text><text x="463.2" y="256.0" text-anchor="middle" font-family="system-ui, -apple-system, sans-serif" font-size="9" fill="#666">10405855</text></svg>
