<svg xmlns="http://www.w3.org/2000/svg" viewBox="0 0 760 348" width="760" height="348" role="img" aria-label="Average LLM latency by provider over runs — llama highest, deepseek lowest" font-family="-apple-system,BlinkMacSystemFont,'Segoe UI',system-ui,sans-serif"><line x1="56" y1="306" x2="642" y2="306" stroke="#30363d" stroke-width="1"></line><text x="46" y="310" font-size="9.5" font-weight="400" text-anchor="end" fill="#8b949e" font-family="ui-monospace,SFMono-Regular,Menlo,monospace">0.0s</text><line x1="56" y1="235" x2="642" y2="235" stroke="#30363d" stroke-width="1"></line><text x="46" y="239" font-size="9.5" font-weight="400" text-anchor="end" fill="#8b949e" font-family="ui-monospace,SFMono-Regular,Menlo,monospace">82.5s</text><line x1="56" y1="164" x2="642" y2="164" stroke="#30363d" stroke-width="1"></line><text x="46" y="168" font-size="9.5" font-weight="400" text-anchor="end" fill="#8b949e" font-family="ui-monospace,SFMono-Regular,Menlo,monospace">165.1s</text><line x1="56" y1="93" x2="642" y2="93" stroke="#30363d" stroke-width="1"></line><text x="46" y="97" font-size="9.5" font-weight="400" text-anchor="end" fill="#8b949e" font-family="ui-monospace,SFMono-Regular,Menlo,monospace">247.6s</text><line x1="56" y1="22" x2="642" y2="22" stroke="#30363d" stroke-width="1"></line><text x="46" y="26" font-size="9.5" font-weight="400" text-anchor="end" fill="#8b949e" font-family="ui-monospace,SFMono-Regular,Menlo,monospace">330.2s</text><text x="56" y="324" font-size="9.5" font-weight="400" text-anchor="middle" fill="#8b949e" font-family="ui-monospace,SFMono-Regular,Menlo,monospace">06/08</text><text x="110.94" y="324" font-size="9.5" font-weight="400" text-anchor="middle" fill="#8b949e" font-family="ui-monospace,SFMono-Regular,Menlo,monospace">06/08</text><text x="165.88" y="324" font-size="9.5" font-weight="400" text-anchor="middle" fill="#8b949e" font-family="ui-monospace,SFMono-Regular,Menlo,monospace">06/09</text><text x="220.81" y="324" font-size="9.5" font-weight="400" text-anchor="middle" fill="#8b949e" font-family="ui-monospace,SFMono-Regular,Menlo,monospace">06/12</text><text x="275.75" y="324" font-size="9.5" font-weight="400" text-anchor="middle" fill="#8b949e" font-family="ui-monospace,SFMono-Regular,Menlo,monospace">06/14</text><text x="330.69" y="324" font-size="9.5" font-weight="400" text-anchor="middle" fill="#8b949e" font-family="ui-monospace,SFMono-Regular,Menlo,monospace">06/15</text><text x="385.62" y="324" font-size="9.5" font-weight="400" text-anchor="middle" fill="#8b949e" font-family="ui-monospace,SFMono-Regular,Menlo,monospace">06/16</text><text x="440.56" y="324" font-size="9.5" font-weight="400" text-anchor="middle" fill="#8b949e" font-family="ui-monospace,SFMono-Regular,Menlo,monospace">06/18</text><text x="495.5" y="324" font-size="9.5" font-weight="400" text-anchor="middle" fill="#8b949e" font-family="ui-monospace,SFMono-Regular,Menlo,monospace">06/20</text><text x="550.44" y="324" font-size="9.5" font-weight="400" text-anchor="middle" fill="#8b949e" font-family="ui-monospace,SFMono-Regular,Menlo,monospace">06/21</text><text x="605.38" y="324" font-size="9.5" font-weight="400" text-anchor="middle" fill="#8b949e" font-family="ui-monospace,SFMono-Regular,Menlo,monospace">06/22</text><text x="642" y="324" font-size="9.5" font-weight="400" text-anchor="middle" fill="#8b949e" font-family="ui-monospace,SFMono-Regular,Menlo,monospace">06/23</text><polyline fill="none" stroke="#E8835A" stroke-width="2.4" stroke-linejoin="round" stroke-linecap="round" points="56,229.15 65.16,232.31 74.31,238.94 83.47,244 92.62,235.49 101.78,232.81 110.94,250.28 120.09,243.38 129.25,241.66 138.41,231.14 156.72,234.04 165.88,244.32 175.03,228.71 184.19,246.08 193.34,242.18 202.5,235.58 211.66,242.32 220.81,244.55 229.97,246.98 239.12,240.71 248.28,250.83 257.44,244.26 266.59,241.33 275.75,245.63 284.91,245.02 294.06,240.82 303.22,243.78 312.38,243.28 321.53,240.2 330.69,242.69 339.84,215.59 349,241.79 358.16,238.64 367.31,243.45 376.47,243.86 385.62,234.8 394.78,244.51 403.94,244.64"></polyline><circle cx="56" cy="229.15" r="2.6" fill="#E8835A"></circle><circle cx="65.16" cy="232.31" r="2.6" fill="#E8835A"></circle><circle cx="74.31" cy="238.94" r="2.6" fill="#E8835A"></circle><circle cx="83.47" cy="244" r="2.6" fill="#E8835A"></circle><circle cx="92.62" cy="235.49" r="2.6" fill="#E8835A"></circle><circle cx="101.78" cy="232.81" r="2.6" fill="#E8835A"></circle><circle cx="110.94" cy="250.28" r="2.6" fill="#E8835A"></circle><circle cx="120.09" cy="243.38" r="2.6" fill="#E8835A"></circle><circle cx="129.25" cy="241.66" r="2.6" fill="#E8835A"></circle><circle cx="138.41" cy="231.14" r="2.6" fill="#E8835A"></circle><circle cx="156.72" cy="234.04" r="2.6" fill="#E8835A"></circle><circle cx="165.88" cy="244.32" r="2.6" fill="#E8835A"></circle><circle cx="175.03" cy="228.71" r="2.6" fill="#E8835A"></circle><circle cx="184.19" cy="246.08" r="2.6" fill="#E8835A"></circle><circle cx="193.34" cy="242.18" r="2.6" fill="#E8835A"></circle><circle cx="202.5" cy="235.58" r="2.6" fill="#E8835A"></circle><circle cx="211.66" cy="242.32" r="2.6" fill="#E8835A"></circle><circle cx="220.81" cy="244.55" r="2.6" fill="#E8835A"></circle><circle cx="229.97" cy="246.98" r="2.6" fill="#E8835A"></circle><circle cx="239.12" cy="240.71" r="2.6" fill="#E8835A"></circle><circle cx="248.28" cy="250.83" r="2.6" fill="#E8835A"></circle><circle cx="257.44" cy="244.26" r="2.6" fill="#E8835A"></circle><circle cx="266.59" cy="241.33" r="2.6" fill="#E8835A"></circle><circle cx="275.75" cy="245.63" r="2.6" fill="#E8835A"></circle><circle cx="284.91" cy="245.02" r="2.6" fill="#E8835A"></circle><circle cx="294.06" cy="240.82" r="2.6" fill="#E8835A"></circle><circle cx="303.22" cy="243.78" r="2.6" fill="#E8835A"></circle><circle cx="312.38" cy="243.28" r="2.6" fill="#E8835A"></circle><circle cx="321.53" cy="240.2" r="2.6" fill="#E8835A"></circle><circle cx="330.69" cy="242.69" r="2.6" fill="#E8835A"></circle><circle cx="339.84" cy="215.59" r="2.6" fill="#E8835A"></circle><circle cx="349" cy="241.79" r="2.6" fill="#E8835A"></circle><circle cx="358.16" cy="238.64" r="2.6" fill="#E8835A"></circle><circle cx="367.31" cy="243.45" r="2.6" fill="#E8835A"></circle><circle cx="376.47" cy="243.86" r="2.6" fill="#E8835A"></circle><circle cx="385.62" cy="234.8" r="2.6" fill="#E8835A"></circle><circle cx="394.78" cy="244.51" r="2.6" fill="#E8835A"></circle><circle cx="403.94" cy="244.64" r="2.6" fill="#E8835A"></circle><polyline fill="none" stroke="#6366F1" stroke-width="2.4" stroke-linejoin="round" stroke-linecap="round" points="65.16,247.24 74.31,242.4 83.47,249.98 92.62,230.48 101.78,260.21 110.94,260.34 120.09,270.44 129.25,248.92 138.41,245.19 147.56,247.83 156.72,256.22 165.88,248.72 175.03,261.47 184.19,243.58 193.34,210.49 202.5,266.33 211.66,232.33 220.81,232.27 229.97,199.16 239.12,237.91 248.28,252.97 257.44,266.11 266.59,215.25 275.75,265.97 284.91,258.25 294.06,265.82 303.22,246.69 312.38,244.53 330.69,240.91 339.84,255.51 349,252.51 358.16,237.2 367.31,258.24 376.47,235.84 385.62,252.87 394.78,243.73 403.94,249.01 422.25,263.05 431.41,262.95 440.56,250.85 449.72,238.76 458.88,245.84 468.03,240.49 477.19,244.58 486.34,238.25 495.5,266.43 504.66,219.91 513.81,256.77 532.12,250.11 541.28,264.15 550.44,249.18 559.59,252.64 568.75,236.94 577.91,257.91 587.06,245.05 596.22,245.47 605.38,251.25 614.53,250.75 623.69,249.01 632.84,257.36 642,265.15"></polyline><circle cx="65.16" cy="247.24" r="2.6" fill="#6366F1"></circle><circle cx="74.31" cy="242.4" r="2.6" fill="#6366F1"></circle><circle cx="83.47" cy="249.98" r="2.6" fill="#6366F1"></circle><circle cx="92.62" cy="230.48" r="2.6" fill="#6366F1"></circle><circle cx="101.78" cy="260.21" r="2.6" fill="#6366F1"></circle><circle cx="110.94" cy="260.34" r="2.6" fill="#6366F1"></circle><circle cx="120.09" cy="270.44" r="2.6" fill="#6366F1"></circle><circle cx="129.25" cy="248.92" r="2.6" fill="#6366F1"></circle><circle cx="138.41" cy="245.19" r="2.6" fill="#6366F1"></circle><circle cx="147.56" cy="247.83" r="2.6" fill="#6366F1"></circle><circle cx="156.72" cy="256.22" r="2.6" fill="#6366F1"></circle><circle cx="165.88" cy="248.72" r="2.6" fill="#6366F1"></circle><circle cx="175.03" cy="261.47" r="2.6" fill="#6366F1"></circle><circle cx="184.19" cy="243.58" r="2.6" fill="#6366F1"></circle><circle cx="193.34" cy="210.49" r="2.6" fill="#6366F1"></circle><circle cx="202.5" cy="266.33" r="2.6" fill="#6366F1"></circle><circle cx="211.66" cy="232.33" r="2.6" fill="#6366F1"></circle><circle cx="220.81" cy="232.27" r="2.6" fill="#6366F1"></circle><circle cx="229.97" cy="199.16" r="2.6" fill="#6366F1"></circle><circle cx="239.12" cy="237.91" r="2.6" fill="#6366F1"></circle><circle cx="248.28" cy="252.97" r="2.6" fill="#6366F1"></circle><circle cx="257.44" cy="266.11" r="2.6" fill="#6366F1"></circle><circle cx="266.59" cy="215.25" r="2.6" fill="#6366F1"></circle><circle cx="275.75" cy="265.97" r="2.6" fill="#6366F1"></circle><circle cx="284.91" cy="258.25" r="2.6" fill="#6366F1"></circle><circle cx="294.06" cy="265.82" r="2.6" fill="#6366F1"></circle><circle cx="303.22" cy="246.69" r="2.6" fill="#6366F1"></circle><circle cx="312.38" cy="244.53" r="2.6" fill="#6366F1"></circle><circle cx="330.69" cy="240.91" r="2.6" fill="#6366F1"></circle><circle cx="339.84" cy="255.51" r="2.6" fill="#6366F1"></circle><circle cx="349" cy="252.51" r="2.6" fill="#6366F1"></circle><circle cx="358.16" cy="237.2" r="2.6" fill="#6366F1"></circle><circle cx="367.31" cy="258.24" r="2.6" fill="#6366F1"></circle><circle cx="376.47" cy="235.84" r="2.6" fill="#6366F1"></circle><circle cx="385.62" cy="252.87" r="2.6" fill="#6366F1"></circle><circle cx="394.78" cy="243.73" r="2.6" fill="#6366F1"></circle><circle cx="403.94" cy="249.01" r="2.6" fill="#6366F1"></circle><circle cx="422.25" cy="263.05" r="2.6" fill="#6366F1"></circle><circle cx="431.41" cy="262.95" r="2.6" fill="#6366F1"></circle><circle cx="440.56" cy="250.85" r="2.6" fill="#6366F1"></circle><circle cx="449.72" cy="238.76" r="2.6" fill="#6366F1"></circle><circle cx="458.88" cy="245.84" r="2.6" fill="#6366F1"></circle><circle cx="468.03" cy="240.49" r="2.6" fill="#6366F1"></circle><circle cx="477.19" cy="244.58" r="2.6" fill="#6366F1"></circle><circle cx="486.34" cy="238.25" r="2.6" fill="#6366F1"></circle><circle cx="495.5" cy="266.43" r="2.6" fill="#6366F1"></circle><circle cx="504.66" cy="219.91" r="2.6" fill="#6366F1"></circle><circle cx="513.81" cy="256.77" r="2.6" fill="#6366F1"></circle><circle cx="532.12" cy="250.11" r="2.6" fill="#6366F1"></circle><circle cx="541.28" cy="264.15" r="2.6" fill="#6366F1"></circle><circle cx="550.44" cy="249.18" r="2.6" fill="#6366F1"></circle><circle cx="559.59" cy="252.64" r="2.6" fill="#6366F1"></circle><circle cx="568.75" cy="236.94" r="2.6" fill="#6366F1"></circle><circle cx="577.91" cy="257.91" r="2.6" fill="#6366F1"></circle><circle cx="587.06" cy="245.05" r="2.6" fill="#6366F1"></circle><circle cx="596.22" cy="245.47" r="2.6" fill="#6366F1"></circle><circle cx="605.38" cy="251.25" r="2.6" fill="#6366F1"></circle><circle cx="614.53" cy="250.75" r="2.6" fill="#6366F1"></circle><circle cx="623.69" cy="249.01" r="2.6" fill="#6366F1"></circle><circle cx="632.84" cy="257.36" r="2.6" fill="#6366F1"></circle><circle cx="642" cy="265.15" r="2.6" fill="#6366F1"></circle><polyline fill="none" stroke="#2DA98C" stroke-width="2.4" stroke-linejoin="round" stroke-linecap="round" points="56,205.26 65.16,215.39 74.31,174.15 83.47,217.56 92.62,218.68 101.78,227.57 110.94,203.76 120.09,192.14 129.25,215.35 138.41,194.78 147.56,194.92 156.72,141.5 165.88,148.87 175.03,194.84 184.19,180.85 193.34,202.09 202.5,169.08 211.66,211.29 220.81,193.77 229.97,192.04 239.12,206.61 330.69,221.15 339.84,190.23 349,183.33 358.16,225.15 367.31,184.37 376.47,182.1 385.62,210.86 394.78,161.53 403.94,210.56 422.25,182.01 431.41,172.32 440.56,181.93 449.72,186.76 458.88,217.59 468.03,171.76 477.19,211.13 486.34,171.55 495.5,181.17 504.66,189.96 513.81,191.02 532.12,212.98 541.28,170.09 550.44,127.97 559.59,222.7 568.75,200.4 577.91,155.75 587.06,184.88 596.22,176.48 605.38,167.89 614.53,205.24 623.69,167.24 632.84,154.57 642,196.61"></polyline><circle cx="56" cy="205.26" r="2.6" fill="#2DA98C"></circle><circle cx="65.16" cy="215.39" r="2.6" fill="#2DA98C"></circle><circle cx="74.31" cy="174.15" r="2.6" fill="#2DA98C"></circle><circle cx="83.47" cy="217.56" r="2.6" fill="#2DA98C"></circle><circle cx="92.62" cy="218.68" r="2.6" fill="#2DA98C"></circle><circle cx="101.78" cy="227.57" r="2.6" fill="#2DA98C"></circle><circle cx="110.94" cy="203.76" r="2.6" fill="#2DA98C"></circle><circle cx="120.09" cy="192.14" r="2.6" fill="#2DA98C"></circle><circle cx="129.25" cy="215.35" r="2.6" fill="#2DA98C"></circle><circle cx="138.41" cy="194.78" r="2.6" fill="#2DA98C"></circle><circle cx="147.56" cy="194.92" r="2.6" fill="#2DA98C"></circle><circle cx="156.72" cy="141.5" r="2.6" fill="#2DA98C"></circle><circle cx="165.88" cy="148.87" r="2.6" fill="#2DA98C"></circle><circle cx="175.03" cy="194.84" r="2.6" fill="#2DA98C"></circle><circle cx="184.19" cy="180.85" r="2.6" fill="#2DA98C"></circle><circle cx="193.34" cy="202.09" r="2.6" fill="#2DA98C"></circle><circle cx="202.5" cy="169.08" r="2.6" fill="#2DA98C"></circle><circle cx="211.66" cy="211.29" r="2.6" fill="#2DA98C"></circle><circle cx="220.81" cy="193.77" r="2.6" fill="#2DA98C"></circle><circle cx="229.97" cy="192.04" r="2.6" fill="#2DA98C"></circle><circle cx="239.12" cy="206.61" r="2.6" fill="#2DA98C"></circle><circle cx="330.69" cy="221.15" r="2.6" fill="#2DA98C"></circle><circle cx="339.84" cy="190.23" r="2.6" fill="#2DA98C"></circle><circle cx="349" cy="183.33" r="2.6" fill="#2DA98C"></circle><circle cx="358.16" cy="225.15" r="2.6" fill="#2DA98C"></circle><circle cx="367.31" cy="184.37" r="2.6" fill="#2DA98C"></circle><circle cx="376.47" cy="182.1" r="2.6" fill="#2DA98C"></circle><circle cx="385.62" cy="210.86" r="2.6" fill="#2DA98C"></circle><circle cx="394.78" cy="161.53" r="2.6" fill="#2DA98C"></circle><circle cx="403.94" cy="210.56" r="2.6" fill="#2DA98C"></circle><circle cx="422.25" cy="182.01" r="2.6" fill="#2DA98C"></circle><circle cx="431.41" cy="172.32" r="2.6" fill="#2DA98C"></circle><circle cx="440.56" cy="181.93" r="2.6" fill="#2DA98C"></circle><circle cx="449.72" cy="186.76" r="2.6" fill="#2DA98C"></circle><circle cx="458.88" cy="217.59" r="2.6" fill="#2DA98C"></circle><circle cx="468.03" cy="171.76" r="2.6" fill="#2DA98C"></circle><circle cx="477.19" cy="211.13" r="2.6" fill="#2DA98C"></circle><circle cx="486.34" cy="171.55" r="2.6" fill="#2DA98C"></circle><circle cx="495.5" cy="181.17" r="2.6" fill="#2DA98C"></circle><circle cx="504.66" cy="189.96" r="2.6" fill="#2DA98C"></circle><circle cx="513.81" cy="191.02" r="2.6" fill="#2DA98C"></circle><circle cx="532.12" cy="212.98" r="2.6" fill="#2DA98C"></circle><circle cx="541.28" cy="170.09" r="2.6" fill="#2DA98C"></circle><circle cx="550.44" cy="127.97" r="2.6" fill="#2DA98C"></circle><circle cx="559.59" cy="222.7" r="2.6" fill="#2DA98C"></circle><circle cx="568.75" cy="200.4" r="2.6" fill="#2DA98C"></circle><circle cx="577.91" cy="155.75" r="2.6" fill="#2DA98C"></circle><circle cx="587.06" cy="184.88" r="2.6" fill="#2DA98C"></circle><circle cx="596.22" cy="176.48" r="2.6" fill="#2DA98C"></circle><circle cx="605.38" cy="167.89" r="2.6" fill="#2DA98C"></circle><circle cx="614.53" cy="205.24" r="2.6" fill="#2DA98C"></circle><circle cx="623.69" cy="167.24" r="2.6" fill="#2DA98C"></circle><circle cx="632.84" cy="154.57" r="2.6" fill="#2DA98C"></circle><circle cx="642" cy="196.61" r="2.6" fill="#2DA98C"></circle><polyline fill="none" stroke="#A371F7" stroke-width="2.4" stroke-linejoin="round" stroke-linecap="round" points="56,127.86 65.16,149.85 74.31,181.76 83.47,139.24 92.62,107.36 101.78,219.97 110.94,116.3 120.09,182.89 129.25,193.78 138.41,197.11 147.56,105.85 156.72,146.07 165.88,181.42 175.03,202.88 184.19,134.79 193.34,219.07 202.5,58.83 211.66,197.05 220.81,167.66 229.97,75.26 239.12,128.5 248.28,152.23 257.44,166.9 266.59,183.57 275.75,162.79 284.91,148.18 294.06,52.43 303.22,96.59 312.38,191.76 330.69,151.86 339.84,169.19 349,135.22 367.31,206.77 376.47,167.88 385.62,189.32 394.78,143.76 403.94,142.49 413.09,163.7 422.25,128.52 431.41,144.9 440.56,92.3 449.72,157.36 458.88,160.21 468.03,176.32 477.19,116.21 486.34,165.98 495.5,136.47 513.81,155.12 532.12,134.62 550.44,114.6 559.59,127.72 568.75,219.84 577.91,170.06 587.06,154.88 596.22,189.66 605.38,162.21 614.53,183.03 623.69,165.52 632.84,176.75 642,155.74"></polyline><circle cx="56" cy="127.86" r="2.6" fill="#A371F7"></circle><circle cx="65.16" cy="149.85" r="2.6" fill="#A371F7"></circle><circle cx="74.31" cy="181.76" r="2.6" fill="#A371F7"></circle><circle cx="83.47" cy="139.24" r="2.6" fill="#A371F7"></circle><circle cx="92.62" cy="107.36" r="2.6" fill="#A371F7"></circle><circle cx="101.78" cy="219.97" r="2.6" fill="#A371F7"></circle><circle cx="110.94" cy="116.3" r="2.6" fill="#A371F7"></circle><circle cx="120.09" cy="182.89" r="2.6" fill="#A371F7"></circle><circle cx="129.25" cy="193.78" r="2.6" fill="#A371F7"></circle><circle cx="138.41" cy="197.11" r="2.6" fill="#A371F7"></circle><circle cx="147.56" cy="105.85" r="2.6" fill="#A371F7"></circle><circle cx="156.72" cy="146.07" r="2.6" fill="#A371F7"></circle><circle cx="165.88" cy="181.42" r="2.6" fill="#A371F7"></circle><circle cx="175.03" cy="202.88" r="2.6" fill="#A371F7"></circle><circle cx="184.19" cy="134.79" r="2.6" fill="#A371F7"></circle><circle cx="193.34" cy="219.07" r="2.6" fill="#A371F7"></circle><circle cx="202.5" cy="58.83" r="2.6" fill="#A371F7"></circle><circle cx="211.66" cy="197.05" r="2.6" fill="#A371F7"></circle><circle cx="220.81" cy="167.66" r="2.6" fill="#A371F7"></circle><circle cx="229.97" cy="75.26" r="2.6" fill="#A371F7"></circle><circle cx="239.12" cy="128.5" r="2.6" fill="#A371F7"></circle><circle cx="248.28" cy="152.23" r="2.6" fill="#A371F7"></circle><circle cx="257.44" cy="166.9" r="2.6" fill="#A371F7"></circle><circle cx="266.59" cy="183.57" r="2.6" fill="#A371F7"></circle><circle cx="275.75" cy="162.79" r="2.6" fill="#A371F7"></circle><circle cx="284.91" cy="148.18" r="2.6" fill="#A371F7"></circle><circle cx="294.06" cy="52.43" r="2.6" fill="#A371F7"></circle><circle cx="303.22" cy="96.59" r="2.6" fill="#A371F7"></circle><circle cx="312.38" cy="191.76" r="2.6" fill="#A371F7"></circle><circle cx="330.69" cy="151.86" r="2.6" fill="#A371F7"></circle><circle cx="339.84" cy="169.19" r="2.6" fill="#A371F7"></circle><circle cx="349" cy="135.22" r="2.6" fill="#A371F7"></circle><circle cx="367.31" cy="206.77" r="2.6" fill="#A371F7"></circle><circle cx="376.47" cy="167.88" r="2.6" fill="#A371F7"></circle><circle cx="385.62" cy="189.32" r="2.6" fill="#A371F7"></circle><circle cx="394.78" cy="143.76" r="2.6" fill="#A371F7"></circle><circle cx="403.94" cy="142.49" r="2.6" fill="#A371F7"></circle><circle cx="413.09" cy="163.7" r="2.6" fill="#A371F7"></circle><circle cx="422.25" cy="128.52" r="2.6" fill="#A371F7"></circle><circle cx="431.41" cy="144.9" r="2.6" fill="#A371F7"></circle><circle cx="440.56" cy="92.3" r="2.6" fill="#A371F7"></circle><circle cx="449.72" cy="157.36" r="2.6" fill="#A371F7"></circle><circle cx="458.88" cy="160.21" r="2.6" fill="#A371F7"></circle><circle cx="468.03" cy="176.32" r="2.6" fill="#A371F7"></circle><circle cx="477.19" cy="116.21" r="2.6" fill="#A371F7"></circle><circle cx="486.34" cy="165.98" r="2.6" fill="#A371F7"></circle><circle cx="495.5" cy="136.47" r="2.6" fill="#A371F7"></circle><circle cx="513.81" cy="155.12" r="2.6" fill="#A371F7"></circle><circle cx="532.12" cy="134.62" r="2.6" fill="#A371F7"></circle><circle cx="550.44" cy="114.6" r="2.6" fill="#A371F7"></circle><circle cx="559.59" cy="127.72" r="2.6" fill="#A371F7"></circle><circle cx="568.75" cy="219.84" r="2.6" fill="#A371F7"></circle><circle cx="577.91" cy="170.06" r="2.6" fill="#A371F7"></circle><circle cx="587.06" cy="154.88" r="2.6" fill="#A371F7"></circle><circle cx="596.22" cy="189.66" r="2.6" fill="#A371F7"></circle><circle cx="605.38" cy="162.21" r="2.6" fill="#A371F7"></circle><circle cx="614.53" cy="183.03" r="2.6" fill="#A371F7"></circle><circle cx="623.69" cy="165.52" r="2.6" fill="#A371F7"></circle><circle cx="632.84" cy="176.75" r="2.6" fill="#A371F7"></circle><circle cx="642" cy="155.74" r="2.6" fill="#A371F7"></circle><polyline fill="none" stroke="#F0A23B" stroke-width="2.4" stroke-linejoin="round" stroke-linecap="round" points="56,170.6 65.16,150.62 74.31,187.27 83.47,153.33 92.62,137.4 101.78,187.39 110.94,202.98 120.09,219.57 129.25,187.3 138.41,163.64 147.56,218.54 156.72,247.9 165.88,222.75 175.03,249.71 184.19,224.7 193.34,243.69 202.5,245.81 211.66,211.84 220.81,236.21 229.97,257.78 239.12,248.63 248.28,234.2 257.44,247.57 266.59,243.66 275.75,258.59 284.91,253.94 294.06,235.44 303.22,209.7 312.38,229.87 321.53,229.74 330.69,242.74 339.84,219.28 349,218.69 358.16,248.17 367.31,252.02 376.47,241.64 385.62,202.83 394.78,191.16 403.94,236.21 413.09,247.47 422.25,237.91 431.41,227.46 440.56,241.35 449.72,249.73 458.88,234.66 468.03,250 477.19,253.94 486.34,252.42 495.5,245.42 504.66,237.98 513.81,238.85 532.12,257.8 541.28,233.33 550.44,238.96 559.59,252.16 568.75,246.34 577.91,221.3 587.06,228.03 596.22,249.57 605.38,236.95 614.53,243.86 623.69,246.88 632.84,238.45 642,247.92"></polyline><circle cx="56" cy="170.6" r="2.6" fill="#F0A23B"></circle><circle cx="65.16" cy="150.62" r="2.6" fill="#F0A23B"></circle><circle cx="74.31" cy="187.27" r="2.6" fill="#F0A23B"></circle><circle cx="83.47" cy="153.33" r="2.6" fill="#F0A23B"></circle><circle cx="92.62" cy="137.4" r="2.6" fill="#F0A23B"></circle><circle cx="101.78" cy="187.39" r="2.6" fill="#F0A23B"></circle><circle cx="110.94" cy="202.98" r="2.6" fill="#F0A23B"></circle><circle cx="120.09" cy="219.57" r="2.6" fill="#F0A23B"></circle><circle cx="129.25" cy="187.3" r="2.6" fill="#F0A23B"></circle><circle cx="138.41" cy="163.64" r="2.6" fill="#F0A23B"></circle><circle cx="147.56" cy="218.54" r="2.6" fill="#F0A23B"></circle><circle cx="156.72" cy="247.9" r="2.6" fill="#F0A23B"></circle><circle cx="165.88" cy="222.75" r="2.6" fill="#F0A23B"></circle><circle cx="175.03" cy="249.71" r="2.6" fill="#F0A23B"></circle><circle cx="184.19" cy="224.7" r="2.6" fill="#F0A23B"></circle><circle cx="193.34" cy="243.69" r="2.6" fill="#F0A23B"></circle><circle cx="202.5" cy="245.81" r="2.6" fill="#F0A23B"></circle><circle cx="211.66" cy="211.84" r="2.6" fill="#F0A23B"></circle><circle cx="220.81" cy="236.21" r="2.6" fill="#F0A23B"></circle><circle cx="229.97" cy="257.78" r="2.6" fill="#F0A23B"></circle><circle cx="239.12" cy="248.63" r="2.6" fill="#F0A23B"></circle><circle cx="248.28" cy="234.2" r="2.6" fill="#F0A23B"></circle><circle cx="257.44" cy="247.57" r="2.6" fill="#F0A23B"></circle><circle cx="266.59" cy="243.66" r="2.6" fill="#F0A23B"></circle><circle cx="275.75" cy="258.59" r="2.6" fill="#F0A23B"></circle><circle cx="284.91" cy="253.94" r="2.6" fill="#F0A23B"></circle><circle cx="294.06" cy="235.44" r="2.6" fill="#F0A23B"></circle><circle cx="303.22" cy="209.7" r="2.6" fill="#F0A23B"></circle><circle cx="312.38" cy="229.87" r="2.6" fill="#F0A23B"></circle><circle cx="321.53" cy="229.74" r="2.6" fill="#F0A23B"></circle><circle cx="330.69" cy="242.74" r="2.6" fill="#F0A23B"></circle><circle cx="339.84" cy="219.28" r="2.6" fill="#F0A23B"></circle><circle cx="349" cy="218.69" r="2.6" fill="#F0A23B"></circle><circle cx="358.16" cy="248.17" r="2.6" fill="#F0A23B"></circle><circle cx="367.31" cy="252.02" r="2.6" fill="#F0A23B"></circle><circle cx="376.47" cy="241.64" r="2.6" fill="#F0A23B"></circle><circle cx="385.62" cy="202.83" r="2.6" fill="#F0A23B"></circle><circle cx="394.78" cy="191.16" r="2.6" fill="#F0A23B"></circle><circle cx="403.94" cy="236.21" r="2.6" fill="#F0A23B"></circle><circle cx="413.09" cy="247.47" r="2.6" fill="#F0A23B"></circle><circle cx="422.25" cy="237.91" r="2.6" fill="#F0A23B"></circle><circle cx="431.41" cy="227.46" r="2.6" fill="#F0A23B"></circle><circle cx="440.56" cy="241.35" r="2.6" fill="#F0A23B"></circle><circle cx="449.72" cy="249.73" r="2.6" fill="#F0A23B"></circle><circle cx="458.88" cy="234.66" r="2.6" fill="#F0A23B"></circle><circle cx="468.03" cy="250" r="2.6" fill="#F0A23B"></circle><circle cx="477.19" cy="253.94" r="2.6" fill="#F0A23B"></circle><circle cx="486.34" cy="252.42" r="2.6" fill="#F0A23B"></circle><circle cx="495.5" cy="245.42" r="2.6" fill="#F0A23B"></circle><circle cx="504.66" cy="237.98" r="2.6" fill="#F0A23B"></circle><circle cx="513.81" cy="238.85" r="2.6" fill="#F0A23B"></circle><circle cx="532.12" cy="257.8" r="2.6" fill="#F0A23B"></circle><circle cx="541.28" cy="233.33" r="2.6" fill="#F0A23B"></circle><circle cx="550.44" cy="238.96" r="2.6" fill="#F0A23B"></circle><circle cx="559.59" cy="252.16" r="2.6" fill="#F0A23B"></circle><circle cx="568.75" cy="246.34" r="2.6" fill="#F0A23B"></circle><circle cx="577.91" cy="221.3" r="2.6" fill="#F0A23B"></circle><circle cx="587.06" cy="228.03" r="2.6" fill="#F0A23B"></circle><circle cx="596.22" cy="249.57" r="2.6" fill="#F0A23B"></circle><circle cx="605.38" cy="236.95" r="2.6" fill="#F0A23B"></circle><circle cx="614.53" cy="243.86" r="2.6" fill="#F0A23B"></circle><circle cx="623.69" cy="246.88" r="2.6" fill="#F0A23B"></circle><circle cx="632.84" cy="238.45" r="2.6" fill="#F0A23B"></circle><circle cx="642" cy="247.92" r="2.6" fill="#F0A23B"></circle><polyline fill="none" stroke="#1F9CF0" stroke-width="2.4" stroke-linejoin="round" stroke-linecap="round" points="56,198.31 65.16,224.59 74.31,214.73 83.47,247.97 92.62,236.75 101.78,219.64 110.94,238.79 120.09,207.95 129.25,201.38 138.41,239.3 147.56,242.33 156.72,177.25 165.88,218.95 175.03,232.82 184.19,248.48 193.34,252.97 202.5,230.93 211.66,242.47 220.81,240.12 229.97,248.48 239.12,256.65 248.28,261.44 257.44,262.41 266.59,264.75 275.75,261.4 284.91,262.76 294.06,244.65 303.22,230.98 312.38,234.56 321.53,260.01 330.69,254.76 339.84,238.53 349,231.76 358.16,226.22 367.31,247.36 376.47,238.78 385.62,250.58 394.78,256.4 403.94,243.61 413.09,265.98 422.25,253.29 431.41,225.25 440.56,246.45 449.72,252.36 458.88,241.14 468.03,253.3 477.19,245.06 486.34,205.73 495.5,260.99 504.66,265.11 513.81,263.66 522.97,270.45 532.12,265.53 541.28,248.25 550.44,259.3 559.59,255.01 632.84,259.54 642,255.12"></polyline><circle cx="56" cy="198.31" r="2.6" fill="#1F9CF0"></circle><circle cx="65.16" cy="224.59" r="2.6" fill="#1F9CF0"></circle><circle cx="74.31" cy="214.73" r="2.6" fill="#1F9CF0"></circle><circle cx="83.47" cy="247.97" r="2.6" fill="#1F9CF0"></circle><circle cx="92.62" cy="236.75" r="2.6" fill="#1F9CF0"></circle><circle cx="101.78" cy="219.64" r="2.6" fill="#1F9CF0"></circle><circle cx="110.94" cy="238.79" r="2.6" fill="#1F9CF0"></circle><circle cx="120.09" cy="207.95" r="2.6" fill="#1F9CF0"></circle><circle cx="129.25" cy="201.38" r="2.6" fill="#1F9CF0"></circle><circle cx="138.41" cy="239.3" r="2.6" fill="#1F9CF0"></circle><circle cx="147.56" cy="242.33" r="2.6" fill="#1F9CF0"></circle><circle cx="156.72" cy="177.25" r="2.6" fill="#1F9CF0"></circle><circle cx="165.88" cy="218.95" r="2.6" fill="#1F9CF0"></circle><circle cx="175.03" cy="232.82" r="2.6" fill="#1F9CF0"></circle><circle cx="184.19" cy="248.48" r="2.6" fill="#1F9CF0"></circle><circle cx="193.34" cy="252.97" r="2.6" fill="#1F9CF0"></circle><circle cx="202.5" cy="230.93" r="2.6" fill="#1F9CF0"></circle><circle cx="211.66" cy="242.47" r="2.6" fill="#1F9CF0"></circle><circle cx="220.81" cy="240.12" r="2.6" fill="#1F9CF0"></circle><circle cx="229.97" cy="248.48" r="2.6" fill="#1F9CF0"></circle><circle cx="239.12" cy="256.65" r="2.6" fill="#1F9CF0"></circle><circle cx="248.28" cy="261.44" r="2.6" fill="#1F9CF0"></circle><circle cx="257.44" cy="262.41" r="2.6" fill="#1F9CF0"></circle><circle cx="266.59" cy="264.75" r="2.6" fill="#1F9CF0"></circle><circle cx="275.75" cy="261.4" r="2.6" fill="#1F9CF0"></circle><circle cx="284.91" cy="262.76" r="2.6" fill="#1F9CF0"></circle><circle cx="294.06" cy="244.65" r="2.6" fill="#1F9CF0"></circle><circle cx="303.22" cy="230.98" r="2.6" fill="#1F9CF0"></circle><circle cx="312.38" cy="234.56" r="2.6" fill="#1F9CF0"></circle><circle cx="321.53" cy="260.01" r="2.6" fill="#1F9CF0"></circle><circle cx="330.69" cy="254.76" r="2.6" fill="#1F9CF0"></circle><circle cx="339.84" cy="238.53" r="2.6" fill="#1F9CF0"></circle><circle cx="349" cy="231.76" r="2.6" fill="#1F9CF0"></circle><circle cx="358.16" cy="226.22" r="2.6" fill="#1F9CF0"></circle><circle cx="367.31" cy="247.36" r="2.6" fill="#1F9CF0"></circle><circle cx="376.47" cy="238.78" r="2.6" fill="#1F9CF0"></circle><circle cx="385.62" cy="250.58" r="2.6" fill="#1F9CF0"></circle><circle cx="394.78" cy="256.4" r="2.6" fill="#1F9CF0"></circle><circle cx="403.94" cy="243.61" r="2.6" fill="#1F9CF0"></circle><circle cx="413.09" cy="265.98" r="2.6" fill="#1F9CF0"></circle><circle cx="422.25" cy="253.29" r="2.6" fill="#1F9CF0"></circle><circle cx="431.41" cy="225.25" r="2.6" fill="#1F9CF0"></circle><circle cx="440.56" cy="246.45" r="2.6" fill="#1F9CF0"></circle><circle cx="449.72" cy="252.36" r="2.6" fill="#1F9CF0"></circle><circle cx="458.88" cy="241.14" r="2.6" fill="#1F9CF0"></circle><circle cx="468.03" cy="253.3" r="2.6" fill="#1F9CF0"></circle><circle cx="477.19" cy="245.06" r="2.6" fill="#1F9CF0"></circle><circle cx="486.34" cy="205.73" r="2.6" fill="#1F9CF0"></circle><circle cx="495.5" cy="260.99" r="2.6" fill="#1F9CF0"></circle><circle cx="504.66" cy="265.11" r="2.6" fill="#1F9CF0"></circle><circle cx="513.81" cy="263.66" r="2.6" fill="#1F9CF0"></circle><circle cx="522.97" cy="270.45" r="2.6" fill="#1F9CF0"></circle><circle cx="532.12" cy="265.53" r="2.6" fill="#1F9CF0"></circle><circle cx="541.28" cy="248.25" r="2.6" fill="#1F9CF0"></circle><circle cx="550.44" cy="259.3" r="2.6" fill="#1F9CF0"></circle><circle cx="559.59" cy="255.01" r="2.6" fill="#1F9CF0"></circle><circle cx="632.84" cy="259.54" r="2.6" fill="#1F9CF0"></circle><circle cx="642" cy="255.12" r="2.6" fill="#1F9CF0"></circle><line x1="656" y1="27" x2="672" y2="27" stroke="#E8835A" stroke-width="3" stroke-linecap="round"></line><text x="678" y="30" font-size="11" font-weight="400" text-anchor="start" fill="#e6edf3">anthropic</text><line x1="656" y1="47" x2="672" y2="47" stroke="#6366F1" stroke-width="3" stroke-linecap="round"></line><text x="678" y="50" font-size="11" font-weight="400" text-anchor="start" fill="#e6edf3">deepseek</text><line x1="656" y1="67" x2="672" y2="67" stroke="#2DA98C" stroke-width="3" stroke-linecap="round"></line><text x="678" y="70" font-size="11" font-weight="400" text-anchor="start" fill="#e6edf3">gemini</text><line x1="656" y1="87" x2="672" y2="87" stroke="#A371F7" stroke-width="3" stroke-linecap="round"></line><text x="678" y="90" font-size="11" font-weight="400" text-anchor="start" fill="#e6edf3">llama</text><line x1="656" y1="107" x2="672" y2="107" stroke="#F0A23B" stroke-width="3" stroke-linecap="round"></line><text x="678" y="110" font-size="11" font-weight="400" text-anchor="start" fill="#e6edf3">mistral</text><line x1="656" y1="127" x2="672" y2="127" stroke="#1F9CF0" stroke-width="3" stroke-linecap="round"></line><text x="678" y="130" font-size="11" font-weight="400" text-anchor="start" fill="#e6edf3">openai</text></svg>
