<svg xmlns="http://www.w3.org/2000/svg" viewBox="0 0 760 348" width="760" height="348" role="img" aria-label="Average LLM latency by provider over runs — llama highest, deepseek lowest" font-family="-apple-system,BlinkMacSystemFont,'Segoe UI',system-ui,sans-serif"><line x1="56" y1="306" x2="642" y2="306" stroke="#d8dee4" stroke-width="1"></line><text x="46" y="310" font-size="9.5" font-weight="400" text-anchor="end" fill="#656d76" font-family="ui-monospace,SFMono-Regular,Menlo,monospace">0.0s</text><line x1="56" y1="235" x2="642" y2="235" stroke="#d8dee4" stroke-width="1"></line><text x="46" y="239" font-size="9.5" font-weight="400" text-anchor="end" fill="#656d76" font-family="ui-monospace,SFMono-Regular,Menlo,monospace">82.5s</text><line x1="56" y1="164" x2="642" y2="164" stroke="#d8dee4" stroke-width="1"></line><text x="46" y="168" font-size="9.5" font-weight="400" text-anchor="end" fill="#656d76" font-family="ui-monospace,SFMono-Regular,Menlo,monospace">165.1s</text><line x1="56" y1="93" x2="642" y2="93" stroke="#d8dee4" stroke-width="1"></line><text x="46" y="97" font-size="9.5" font-weight="400" text-anchor="end" fill="#656d76" font-family="ui-monospace,SFMono-Regular,Menlo,monospace">247.6s</text><line x1="56" y1="22" x2="642" y2="22" stroke="#d8dee4" stroke-width="1"></line><text x="46" y="26" font-size="9.5" font-weight="400" text-anchor="end" fill="#656d76" font-family="ui-monospace,SFMono-Regular,Menlo,monospace">330.2s</text><text x="56" y="324" font-size="9.5" font-weight="400" text-anchor="middle" fill="#656d76" font-family="ui-monospace,SFMono-Regular,Menlo,monospace">06/08</text><text x="112.19" y="324" font-size="9.5" font-weight="400" text-anchor="middle" fill="#656d76" font-family="ui-monospace,SFMono-Regular,Menlo,monospace">06/09</text><text x="168.38" y="324" font-size="9.5" font-weight="400" text-anchor="middle" fill="#656d76" font-family="ui-monospace,SFMono-Regular,Menlo,monospace">06/10</text><text x="224.58" y="324" font-size="9.5" font-weight="400" text-anchor="middle" fill="#656d76" font-family="ui-monospace,SFMono-Regular,Menlo,monospace">06/14</text><text x="280.77" y="324" font-size="9.5" font-weight="400" text-anchor="middle" fill="#656d76" font-family="ui-monospace,SFMono-Regular,Menlo,monospace">06/15</text><text x="336.96" y="324" font-size="9.5" font-weight="400" text-anchor="middle" fill="#656d76" font-family="ui-monospace,SFMono-Regular,Menlo,monospace">06/16</text><text x="393.15" y="324" font-size="9.5" font-weight="400" text-anchor="middle" fill="#656d76" font-family="ui-monospace,SFMono-Regular,Menlo,monospace">06/18</text><text x="449.34" y="324" font-size="9.5" font-weight="400" text-anchor="middle" fill="#656d76" font-family="ui-monospace,SFMono-Regular,Menlo,monospace">06/20</text><text x="505.53" y="324" font-size="9.5" font-weight="400" text-anchor="middle" fill="#656d76" font-family="ui-monospace,SFMono-Regular,Menlo,monospace">06/21</text><text x="561.73" y="324" font-size="9.5" font-weight="400" text-anchor="middle" fill="#656d76" font-family="ui-monospace,SFMono-Regular,Menlo,monospace">06/23</text><text x="617.92" y="324" font-size="9.5" font-weight="400" text-anchor="middle" fill="#656d76" font-family="ui-monospace,SFMono-Regular,Menlo,monospace">06/24</text><text x="642" y="324" font-size="9.5" font-weight="400" text-anchor="middle" fill="#656d76" font-family="ui-monospace,SFMono-Regular,Menlo,monospace">06/25</text><polyline fill="none" stroke="#E8835A" stroke-width="2.4" stroke-linejoin="round" stroke-linecap="round" points="56,229.15 64.03,232.31 72.05,238.94 80.08,244 88.11,235.49 96.14,232.81 104.16,250.28 112.19,243.38 120.22,241.66 128.25,231.14 144.3,234.04 152.33,244.32 160.36,228.71 168.38,246.08 176.41,242.18 184.44,235.58 192.47,242.32 200.49,244.55 208.52,246.98 216.55,240.71 224.58,250.83 232.6,244.26 240.63,241.33 248.66,245.63 256.68,245.02 264.71,240.82 272.74,243.78 280.77,243.28 288.79,240.2 296.82,242.69 304.85,215.59 312.88,241.79 320.9,238.64 328.93,243.45 336.96,243.86 344.99,234.8 353.01,244.51 361.04,244.64"></polyline><circle cx="56" cy="229.15" r="2.6" fill="#E8835A"></circle><circle cx="64.03" cy="232.31" r="2.6" fill="#E8835A"></circle><circle cx="72.05" cy="238.94" r="2.6" fill="#E8835A"></circle><circle cx="80.08" cy="244" r="2.6" fill="#E8835A"></circle><circle cx="88.11" cy="235.49" r="2.6" fill="#E8835A"></circle><circle cx="96.14" cy="232.81" r="2.6" fill="#E8835A"></circle><circle cx="104.16" cy="250.28" r="2.6" fill="#E8835A"></circle><circle cx="112.19" cy="243.38" r="2.6" fill="#E8835A"></circle><circle cx="120.22" cy="241.66" r="2.6" fill="#E8835A"></circle><circle cx="128.25" cy="231.14" r="2.6" fill="#E8835A"></circle><circle cx="144.3" cy="234.04" r="2.6" fill="#E8835A"></circle><circle cx="152.33" cy="244.32" r="2.6" fill="#E8835A"></circle><circle cx="160.36" cy="228.71" r="2.6" fill="#E8835A"></circle><circle cx="168.38" cy="246.08" r="2.6" fill="#E8835A"></circle><circle cx="176.41" cy="242.18" r="2.6" fill="#E8835A"></circle><circle cx="184.44" cy="235.58" r="2.6" fill="#E8835A"></circle><circle cx="192.47" cy="242.32" r="2.6" fill="#E8835A"></circle><circle cx="200.49" cy="244.55" r="2.6" fill="#E8835A"></circle><circle cx="208.52" cy="246.98" r="2.6" fill="#E8835A"></circle><circle cx="216.55" cy="240.71" r="2.6" fill="#E8835A"></circle><circle cx="224.58" cy="250.83" r="2.6" fill="#E8835A"></circle><circle cx="232.6" cy="244.26" r="2.6" fill="#E8835A"></circle><circle cx="240.63" cy="241.33" r="2.6" fill="#E8835A"></circle><circle cx="248.66" cy="245.63" r="2.6" fill="#E8835A"></circle><circle cx="256.68" cy="245.02" r="2.6" fill="#E8835A"></circle><circle cx="264.71" cy="240.82" r="2.6" fill="#E8835A"></circle><circle cx="272.74" cy="243.78" r="2.6" fill="#E8835A"></circle><circle cx="280.77" cy="243.28" r="2.6" fill="#E8835A"></circle><circle cx="288.79" cy="240.2" r="2.6" fill="#E8835A"></circle><circle cx="296.82" cy="242.69" r="2.6" fill="#E8835A"></circle><circle cx="304.85" cy="215.59" r="2.6" fill="#E8835A"></circle><circle cx="312.88" cy="241.79" r="2.6" fill="#E8835A"></circle><circle cx="320.9" cy="238.64" r="2.6" fill="#E8835A"></circle><circle cx="328.93" cy="243.45" r="2.6" fill="#E8835A"></circle><circle cx="336.96" cy="243.86" r="2.6" fill="#E8835A"></circle><circle cx="344.99" cy="234.8" r="2.6" fill="#E8835A"></circle><circle cx="353.01" cy="244.51" r="2.6" fill="#E8835A"></circle><circle cx="361.04" cy="244.64" r="2.6" fill="#E8835A"></circle><polyline fill="none" stroke="#6366F1" stroke-width="2.4" stroke-linejoin="round" stroke-linecap="round" points="64.03,247.24 72.05,242.4 80.08,249.98 88.11,230.48 96.14,260.21 104.16,260.34 112.19,270.44 120.22,248.92 128.25,245.19 136.27,247.83 144.3,256.22 152.33,248.72 160.36,261.47 168.38,243.58 176.41,210.49 184.44,266.33 192.47,232.33 200.49,232.27 208.52,199.16 216.55,237.91 224.58,252.97 232.6,266.11 240.63,215.25 248.66,265.97 256.68,258.25 264.71,265.82 272.74,246.69 280.77,244.53 296.82,240.91 304.85,255.51 312.88,252.51 320.9,237.2 328.93,258.24 336.96,235.84 344.99,252.87 353.01,243.73 361.04,249.01 377.1,263.05 385.12,262.95 393.15,250.85 401.18,238.76 409.21,245.84 417.23,240.49 425.26,244.58 433.29,238.25 441.32,266.43 449.34,219.91 457.37,256.77 473.42,250.11 481.45,264.15 489.48,249.18 497.51,252.64 505.53,236.94 513.56,257.91 521.59,245.05 529.62,245.47 537.64,251.25 545.67,250.75 553.7,249.01 561.73,257.36 569.75,265.15 577.78,253.64 585.81,262.66 593.84,253.56 601.86,247.85 609.89,241.21 617.92,265.06 625.95,257.2 633.97,265.73 642,250.21"></polyline><circle cx="64.03" cy="247.24" r="2.6" fill="#6366F1"></circle><circle cx="72.05" cy="242.4" r="2.6" fill="#6366F1"></circle><circle cx="80.08" cy="249.98" r="2.6" fill="#6366F1"></circle><circle cx="88.11" cy="230.48" r="2.6" fill="#6366F1"></circle><circle cx="96.14" cy="260.21" r="2.6" fill="#6366F1"></circle><circle cx="104.16" cy="260.34" r="2.6" fill="#6366F1"></circle><circle cx="112.19" cy="270.44" r="2.6" fill="#6366F1"></circle><circle cx="120.22" cy="248.92" r="2.6" fill="#6366F1"></circle><circle cx="128.25" cy="245.19" r="2.6" fill="#6366F1"></circle><circle cx="136.27" cy="247.83" r="2.6" fill="#6366F1"></circle><circle cx="144.3" cy="256.22" r="2.6" fill="#6366F1"></circle><circle cx="152.33" cy="248.72" r="2.6" fill="#6366F1"></circle><circle cx="160.36" cy="261.47" r="2.6" fill="#6366F1"></circle><circle cx="168.38" cy="243.58" r="2.6" fill="#6366F1"></circle><circle cx="176.41" cy="210.49" r="2.6" fill="#6366F1"></circle><circle cx="184.44" cy="266.33" r="2.6" fill="#6366F1"></circle><circle cx="192.47" cy="232.33" r="2.6" fill="#6366F1"></circle><circle cx="200.49" cy="232.27" r="2.6" fill="#6366F1"></circle><circle cx="208.52" cy="199.16" r="2.6" fill="#6366F1"></circle><circle cx="216.55" cy="237.91" r="2.6" fill="#6366F1"></circle><circle cx="224.58" cy="252.97" r="2.6" fill="#6366F1"></circle><circle cx="232.6" cy="266.11" r="2.6" fill="#6366F1"></circle><circle cx="240.63" cy="215.25" r="2.6" fill="#6366F1"></circle><circle cx="248.66" cy="265.97" r="2.6" fill="#6366F1"></circle><circle cx="256.68" cy="258.25" r="2.6" fill="#6366F1"></circle><circle cx="264.71" cy="265.82" r="2.6" fill="#6366F1"></circle><circle cx="272.74" cy="246.69" r="2.6" fill="#6366F1"></circle><circle cx="280.77" cy="244.53" r="2.6" fill="#6366F1"></circle><circle cx="296.82" cy="240.91" r="2.6" fill="#6366F1"></circle><circle cx="304.85" cy="255.51" r="2.6" fill="#6366F1"></circle><circle cx="312.88" cy="252.51" r="2.6" fill="#6366F1"></circle><circle cx="320.9" cy="237.2" r="2.6" fill="#6366F1"></circle><circle cx="328.93" cy="258.24" r="2.6" fill="#6366F1"></circle><circle cx="336.96" cy="235.84" r="2.6" fill="#6366F1"></circle><circle cx="344.99" cy="252.87" r="2.6" fill="#6366F1"></circle><circle cx="353.01" cy="243.73" r="2.6" fill="#6366F1"></circle><circle cx="361.04" cy="249.01" r="2.6" fill="#6366F1"></circle><circle cx="377.1" cy="263.05" r="2.6" fill="#6366F1"></circle><circle cx="385.12" cy="262.95" r="2.6" fill="#6366F1"></circle><circle cx="393.15" cy="250.85" r="2.6" fill="#6366F1"></circle><circle cx="401.18" cy="238.76" r="2.6" fill="#6366F1"></circle><circle cx="409.21" cy="245.84" r="2.6" fill="#6366F1"></circle><circle cx="417.23" cy="240.49" r="2.6" fill="#6366F1"></circle><circle cx="425.26" cy="244.58" r="2.6" fill="#6366F1"></circle><circle cx="433.29" cy="238.25" r="2.6" fill="#6366F1"></circle><circle cx="441.32" cy="266.43" r="2.6" fill="#6366F1"></circle><circle cx="449.34" cy="219.91" r="2.6" fill="#6366F1"></circle><circle cx="457.37" cy="256.77" r="2.6" fill="#6366F1"></circle><circle cx="473.42" cy="250.11" r="2.6" fill="#6366F1"></circle><circle cx="481.45" cy="264.15" r="2.6" fill="#6366F1"></circle><circle cx="489.48" cy="249.18" r="2.6" fill="#6366F1"></circle><circle cx="497.51" cy="252.64" r="2.6" fill="#6366F1"></circle><circle cx="505.53" cy="236.94" r="2.6" fill="#6366F1"></circle><circle cx="513.56" cy="257.91" r="2.6" fill="#6366F1"></circle><circle cx="521.59" cy="245.05" r="2.6" fill="#6366F1"></circle><circle cx="529.62" cy="245.47" r="2.6" fill="#6366F1"></circle><circle cx="537.64" cy="251.25" r="2.6" fill="#6366F1"></circle><circle cx="545.67" cy="250.75" r="2.6" fill="#6366F1"></circle><circle cx="553.7" cy="249.01" r="2.6" fill="#6366F1"></circle><circle cx="561.73" cy="257.36" r="2.6" fill="#6366F1"></circle><circle cx="569.75" cy="265.15" r="2.6" fill="#6366F1"></circle><circle cx="577.78" cy="253.64" r="2.6" fill="#6366F1"></circle><circle cx="585.81" cy="262.66" r="2.6" fill="#6366F1"></circle><circle cx="593.84" cy="253.56" r="2.6" fill="#6366F1"></circle><circle cx="601.86" cy="247.85" r="2.6" fill="#6366F1"></circle><circle cx="609.89" cy="241.21" r="2.6" fill="#6366F1"></circle><circle cx="617.92" cy="265.06" r="2.6" fill="#6366F1"></circle><circle cx="625.95" cy="257.2" r="2.6" fill="#6366F1"></circle><circle cx="633.97" cy="265.73" r="2.6" fill="#6366F1"></circle><circle cx="642" cy="250.21" r="2.6" fill="#6366F1"></circle><polyline fill="none" stroke="#2DA98C" stroke-width="2.4" stroke-linejoin="round" stroke-linecap="round" points="56,205.26 64.03,215.39 72.05,174.15 80.08,217.56 88.11,218.68 96.14,227.57 104.16,203.76 112.19,192.14 120.22,215.35 128.25,194.78 136.27,194.92 144.3,141.5 152.33,148.87 160.36,194.84 168.38,180.85 176.41,202.09 184.44,169.08 192.47,211.29 200.49,193.77 208.52,192.04 216.55,206.61 296.82,221.15 304.85,190.23 312.88,183.33 320.9,225.15 328.93,184.37 336.96,182.1 344.99,210.86 353.01,161.53 361.04,210.56 377.1,182.01 385.12,172.32 393.15,181.93 401.18,186.76 409.21,217.59 417.23,171.76 425.26,211.13 433.29,171.55 441.32,181.17 449.34,189.96 457.37,191.02 473.42,212.98 481.45,170.09 489.48,127.97 497.51,222.7 505.53,200.4 513.56,155.75 521.59,184.88 529.62,176.48 537.64,167.89 545.67,205.24 553.7,167.24 561.73,154.57 569.75,196.61 577.78,154.13 585.81,196.6 593.84,203.92 601.86,125.1 609.89,151.41 617.92,176.39 625.95,198.69"></polyline><circle cx="56" cy="205.26" r="2.6" fill="#2DA98C"></circle><circle cx="64.03" cy="215.39" r="2.6" fill="#2DA98C"></circle><circle cx="72.05" cy="174.15" r="2.6" fill="#2DA98C"></circle><circle cx="80.08" cy="217.56" r="2.6" fill="#2DA98C"></circle><circle cx="88.11" cy="218.68" r="2.6" fill="#2DA98C"></circle><circle cx="96.14" cy="227.57" r="2.6" fill="#2DA98C"></circle><circle cx="104.16" cy="203.76" r="2.6" fill="#2DA98C"></circle><circle cx="112.19" cy="192.14" r="2.6" fill="#2DA98C"></circle><circle cx="120.22" cy="215.35" r="2.6" fill="#2DA98C"></circle><circle cx="128.25" cy="194.78" r="2.6" fill="#2DA98C"></circle><circle cx="136.27" cy="194.92" r="2.6" fill="#2DA98C"></circle><circle cx="144.3" cy="141.5" r="2.6" fill="#2DA98C"></circle><circle cx="152.33" cy="148.87" r="2.6" fill="#2DA98C"></circle><circle cx="160.36" cy="194.84" r="2.6" fill="#2DA98C"></circle><circle cx="168.38" cy="180.85" r="2.6" fill="#2DA98C"></circle><circle cx="176.41" cy="202.09" r="2.6" fill="#2DA98C"></circle><circle cx="184.44" cy="169.08" r="2.6" fill="#2DA98C"></circle><circle cx="192.47" cy="211.29" r="2.6" fill="#2DA98C"></circle><circle cx="200.49" cy="193.77" r="2.6" fill="#2DA98C"></circle><circle cx="208.52" cy="192.04" r="2.6" fill="#2DA98C"></circle><circle cx="216.55" cy="206.61" r="2.6" fill="#2DA98C"></circle><circle cx="296.82" cy="221.15" r="2.6" fill="#2DA98C"></circle><circle cx="304.85" cy="190.23" r="2.6" fill="#2DA98C"></circle><circle cx="312.88" cy="183.33" r="2.6" fill="#2DA98C"></circle><circle cx="320.9" cy="225.15" r="2.6" fill="#2DA98C"></circle><circle cx="328.93" cy="184.37" r="2.6" fill="#2DA98C"></circle><circle cx="336.96" cy="182.1" r="2.6" fill="#2DA98C"></circle><circle cx="344.99" cy="210.86" r="2.6" fill="#2DA98C"></circle><circle cx="353.01" cy="161.53" r="2.6" fill="#2DA98C"></circle><circle cx="361.04" cy="210.56" r="2.6" fill="#2DA98C"></circle><circle cx="377.1" cy="182.01" r="2.6" fill="#2DA98C"></circle><circle cx="385.12" cy="172.32" r="2.6" fill="#2DA98C"></circle><circle cx="393.15" cy="181.93" r="2.6" fill="#2DA98C"></circle><circle cx="401.18" cy="186.76" r="2.6" fill="#2DA98C"></circle><circle cx="409.21" cy="217.59" r="2.6" fill="#2DA98C"></circle><circle cx="417.23" cy="171.76" r="2.6" fill="#2DA98C"></circle><circle cx="425.26" cy="211.13" r="2.6" fill="#2DA98C"></circle><circle cx="433.29" cy="171.55" r="2.6" fill="#2DA98C"></circle><circle cx="441.32" cy="181.17" r="2.6" fill="#2DA98C"></circle><circle cx="449.34" cy="189.96" r="2.6" fill="#2DA98C"></circle><circle cx="457.37" cy="191.02" r="2.6" fill="#2DA98C"></circle><circle cx="473.42" cy="212.98" r="2.6" fill="#2DA98C"></circle><circle cx="481.45" cy="170.09" r="2.6" fill="#2DA98C"></circle><circle cx="489.48" cy="127.97" r="2.6" fill="#2DA98C"></circle><circle cx="497.51" cy="222.7" r="2.6" fill="#2DA98C"></circle><circle cx="505.53" cy="200.4" r="2.6" fill="#2DA98C"></circle><circle cx="513.56" cy="155.75" r="2.6" fill="#2DA98C"></circle><circle cx="521.59" cy="184.88" r="2.6" fill="#2DA98C"></circle><circle cx="529.62" cy="176.48" r="2.6" fill="#2DA98C"></circle><circle cx="537.64" cy="167.89" r="2.6" fill="#2DA98C"></circle><circle cx="545.67" cy="205.24" r="2.6" fill="#2DA98C"></circle><circle cx="553.7" cy="167.24" r="2.6" fill="#2DA98C"></circle><circle cx="561.73" cy="154.57" r="2.6" fill="#2DA98C"></circle><circle cx="569.75" cy="196.61" r="2.6" fill="#2DA98C"></circle><circle cx="577.78" cy="154.13" r="2.6" fill="#2DA98C"></circle><circle cx="585.81" cy="196.6" r="2.6" fill="#2DA98C"></circle><circle cx="593.84" cy="203.92" r="2.6" fill="#2DA98C"></circle><circle cx="601.86" cy="125.1" r="2.6" fill="#2DA98C"></circle><circle cx="609.89" cy="151.41" r="2.6" fill="#2DA98C"></circle><circle cx="617.92" cy="176.39" r="2.6" fill="#2DA98C"></circle><circle cx="625.95" cy="198.69" r="2.6" fill="#2DA98C"></circle><polyline fill="none" stroke="#A371F7" stroke-width="2.4" stroke-linejoin="round" stroke-linecap="round" points="56,127.86 64.03,149.85 72.05,181.76 80.08,139.24 88.11,107.36 96.14,219.97 104.16,116.3 112.19,182.89 120.22,193.78 128.25,197.11 136.27,105.85 144.3,146.07 152.33,181.42 160.36,202.88 168.38,134.79 176.41,219.07 184.44,58.83 192.47,197.05 200.49,167.66 208.52,75.26 216.55,128.5 224.58,152.23 232.6,166.9 240.63,183.57 248.66,162.79 256.68,148.18 264.71,52.43 272.74,96.59 280.77,191.76 296.82,151.86 304.85,169.19 312.88,135.22 328.93,206.77 336.96,167.88 344.99,189.32 353.01,143.76 361.04,142.49 369.07,163.7 377.1,128.52 385.12,144.9 393.15,92.3 401.18,157.36 409.21,160.21 417.23,176.32 425.26,116.21 433.29,165.98 441.32,136.47 457.37,155.12 473.42,134.62 489.48,114.6 497.51,127.72 505.53,219.84 513.56,170.06 521.59,154.88 529.62,189.66 537.64,162.21 545.67,183.03 553.7,165.52 561.73,176.75 569.75,155.74 585.81,148.44 593.84,196.35 601.86,143.94 609.89,112.27 617.92,149.32 625.95,161.5 633.97,199.8 642,116.93"></polyline><circle cx="56" cy="127.86" r="2.6" fill="#A371F7"></circle><circle cx="64.03" cy="149.85" r="2.6" fill="#A371F7"></circle><circle cx="72.05" cy="181.76" r="2.6" fill="#A371F7"></circle><circle cx="80.08" cy="139.24" r="2.6" fill="#A371F7"></circle><circle cx="88.11" cy="107.36" r="2.6" fill="#A371F7"></circle><circle cx="96.14" cy="219.97" r="2.6" fill="#A371F7"></circle><circle cx="104.16" cy="116.3" r="2.6" fill="#A371F7"></circle><circle cx="112.19" cy="182.89" r="2.6" fill="#A371F7"></circle><circle cx="120.22" cy="193.78" r="2.6" fill="#A371F7"></circle><circle cx="128.25" cy="197.11" r="2.6" fill="#A371F7"></circle><circle cx="136.27" cy="105.85" r="2.6" fill="#A371F7"></circle><circle cx="144.3" cy="146.07" r="2.6" fill="#A371F7"></circle><circle cx="152.33" cy="181.42" r="2.6" fill="#A371F7"></circle><circle cx="160.36" cy="202.88" r="2.6" fill="#A371F7"></circle><circle cx="168.38" cy="134.79" r="2.6" fill="#A371F7"></circle><circle cx="176.41" cy="219.07" r="2.6" fill="#A371F7"></circle><circle cx="184.44" cy="58.83" r="2.6" fill="#A371F7"></circle><circle cx="192.47" cy="197.05" r="2.6" fill="#A371F7"></circle><circle cx="200.49" cy="167.66" r="2.6" fill="#A371F7"></circle><circle cx="208.52" cy="75.26" r="2.6" fill="#A371F7"></circle><circle cx="216.55" cy="128.5" r="2.6" fill="#A371F7"></circle><circle cx="224.58" cy="152.23" r="2.6" fill="#A371F7"></circle><circle cx="232.6" cy="166.9" r="2.6" fill="#A371F7"></circle><circle cx="240.63" cy="183.57" r="2.6" fill="#A371F7"></circle><circle cx="248.66" cy="162.79" r="2.6" fill="#A371F7"></circle><circle cx="256.68" cy="148.18" r="2.6" fill="#A371F7"></circle><circle cx="264.71" cy="52.43" r="2.6" fill="#A371F7"></circle><circle cx="272.74" cy="96.59" r="2.6" fill="#A371F7"></circle><circle cx="280.77" cy="191.76" r="2.6" fill="#A371F7"></circle><circle cx="296.82" cy="151.86" r="2.6" fill="#A371F7"></circle><circle cx="304.85" cy="169.19" r="2.6" fill="#A371F7"></circle><circle cx="312.88" cy="135.22" r="2.6" fill="#A371F7"></circle><circle cx="328.93" cy="206.77" r="2.6" fill="#A371F7"></circle><circle cx="336.96" cy="167.88" r="2.6" fill="#A371F7"></circle><circle cx="344.99" cy="189.32" r="2.6" fill="#A371F7"></circle><circle cx="353.01" cy="143.76" r="2.6" fill="#A371F7"></circle><circle cx="361.04" cy="142.49" r="2.6" fill="#A371F7"></circle><circle cx="369.07" cy="163.7" r="2.6" fill="#A371F7"></circle><circle cx="377.1" cy="128.52" r="2.6" fill="#A371F7"></circle><circle cx="385.12" cy="144.9" r="2.6" fill="#A371F7"></circle><circle cx="393.15" cy="92.3" r="2.6" fill="#A371F7"></circle><circle cx="401.18" cy="157.36" r="2.6" fill="#A371F7"></circle><circle cx="409.21" cy="160.21" r="2.6" fill="#A371F7"></circle><circle cx="417.23" cy="176.32" r="2.6" fill="#A371F7"></circle><circle cx="425.26" cy="116.21" r="2.6" fill="#A371F7"></circle><circle cx="433.29" cy="165.98" r="2.6" fill="#A371F7"></circle><circle cx="441.32" cy="136.47" r="2.6" fill="#A371F7"></circle><circle cx="457.37" cy="155.12" r="2.6" fill="#A371F7"></circle><circle cx="473.42" cy="134.62" r="2.6" fill="#A371F7"></circle><circle cx="489.48" cy="114.6" r="2.6" fill="#A371F7"></circle><circle cx="497.51" cy="127.72" r="2.6" fill="#A371F7"></circle><circle cx="505.53" cy="219.84" r="2.6" fill="#A371F7"></circle><circle cx="513.56" cy="170.06" r="2.6" fill="#A371F7"></circle><circle cx="521.59" cy="154.88" r="2.6" fill="#A371F7"></circle><circle cx="529.62" cy="189.66" r="2.6" fill="#A371F7"></circle><circle cx="537.64" cy="162.21" r="2.6" fill="#A371F7"></circle><circle cx="545.67" cy="183.03" r="2.6" fill="#A371F7"></circle><circle cx="553.7" cy="165.52" r="2.6" fill="#A371F7"></circle><circle cx="561.73" cy="176.75" r="2.6" fill="#A371F7"></circle><circle cx="569.75" cy="155.74" r="2.6" fill="#A371F7"></circle><circle cx="585.81" cy="148.44" r="2.6" fill="#A371F7"></circle><circle cx="593.84" cy="196.35" r="2.6" fill="#A371F7"></circle><circle cx="601.86" cy="143.94" r="2.6" fill="#A371F7"></circle><circle cx="609.89" cy="112.27" r="2.6" fill="#A371F7"></circle><circle cx="617.92" cy="149.32" r="2.6" fill="#A371F7"></circle><circle cx="625.95" cy="161.5" r="2.6" fill="#A371F7"></circle><circle cx="633.97" cy="199.8" r="2.6" fill="#A371F7"></circle><circle cx="642" cy="116.93" r="2.6" fill="#A371F7"></circle><polyline fill="none" stroke="#F0A23B" stroke-width="2.4" stroke-linejoin="round" stroke-linecap="round" points="56,170.6 64.03,150.62 72.05,187.27 80.08,153.33 88.11,137.4 96.14,187.39 104.16,202.98 112.19,219.57 120.22,187.3 128.25,163.64 136.27,218.54 144.3,247.9 152.33,222.75 160.36,249.71 168.38,224.7 176.41,243.69 184.44,245.81 192.47,211.84 200.49,236.21 208.52,257.78 216.55,248.63 224.58,234.2 232.6,247.57 240.63,243.66 248.66,258.59 256.68,253.94 264.71,235.44 272.74,209.7 280.77,229.87 288.79,229.74 296.82,242.74 304.85,219.28 312.88,218.69 320.9,248.17 328.93,252.02 336.96,241.64 344.99,202.83 353.01,191.16 361.04,236.21 369.07,247.47 377.1,237.91 385.12,227.46 393.15,241.35 401.18,249.73 409.21,234.66 417.23,250 425.26,253.94 433.29,252.42 441.32,245.42 449.34,237.98 457.37,238.85 473.42,257.8 481.45,233.33 489.48,238.96 497.51,252.16 505.53,246.34 513.56,221.3 521.59,228.03 529.62,249.57 537.64,236.95 545.67,243.86 553.7,246.88 561.73,238.45 569.75,247.92 585.81,235.92 593.84,214.9 601.86,201.77 609.89,219.97 617.92,238.65 625.95,232.47 633.97,220.62 642,228.6"></polyline><circle cx="56" cy="170.6" r="2.6" fill="#F0A23B"></circle><circle cx="64.03" cy="150.62" r="2.6" fill="#F0A23B"></circle><circle cx="72.05" cy="187.27" r="2.6" fill="#F0A23B"></circle><circle cx="80.08" cy="153.33" r="2.6" fill="#F0A23B"></circle><circle cx="88.11" cy="137.4" r="2.6" fill="#F0A23B"></circle><circle cx="96.14" cy="187.39" r="2.6" fill="#F0A23B"></circle><circle cx="104.16" cy="202.98" r="2.6" fill="#F0A23B"></circle><circle cx="112.19" cy="219.57" r="2.6" fill="#F0A23B"></circle><circle cx="120.22" cy="187.3" r="2.6" fill="#F0A23B"></circle><circle cx="128.25" cy="163.64" r="2.6" fill="#F0A23B"></circle><circle cx="136.27" cy="218.54" r="2.6" fill="#F0A23B"></circle><circle cx="144.3" cy="247.9" r="2.6" fill="#F0A23B"></circle><circle cx="152.33" cy="222.75" r="2.6" fill="#F0A23B"></circle><circle cx="160.36" cy="249.71" r="2.6" fill="#F0A23B"></circle><circle cx="168.38" cy="224.7" r="2.6" fill="#F0A23B"></circle><circle cx="176.41" cy="243.69" r="2.6" fill="#F0A23B"></circle><circle cx="184.44" cy="245.81" r="2.6" fill="#F0A23B"></circle><circle cx="192.47" cy="211.84" r="2.6" fill="#F0A23B"></circle><circle cx="200.49" cy="236.21" r="2.6" fill="#F0A23B"></circle><circle cx="208.52" cy="257.78" r="2.6" fill="#F0A23B"></circle><circle cx="216.55" cy="248.63" r="2.6" fill="#F0A23B"></circle><circle cx="224.58" cy="234.2" r="2.6" fill="#F0A23B"></circle><circle cx="232.6" cy="247.57" r="2.6" fill="#F0A23B"></circle><circle cx="240.63" cy="243.66" r="2.6" fill="#F0A23B"></circle><circle cx="248.66" cy="258.59" r="2.6" fill="#F0A23B"></circle><circle cx="256.68" cy="253.94" r="2.6" fill="#F0A23B"></circle><circle cx="264.71" cy="235.44" r="2.6" fill="#F0A23B"></circle><circle cx="272.74" cy="209.7" r="2.6" fill="#F0A23B"></circle><circle cx="280.77" cy="229.87" r="2.6" fill="#F0A23B"></circle><circle cx="288.79" cy="229.74" r="2.6" fill="#F0A23B"></circle><circle cx="296.82" cy="242.74" r="2.6" fill="#F0A23B"></circle><circle cx="304.85" cy="219.28" r="2.6" fill="#F0A23B"></circle><circle cx="312.88" cy="218.69" r="2.6" fill="#F0A23B"></circle><circle cx="320.9" cy="248.17" r="2.6" fill="#F0A23B"></circle><circle cx="328.93" cy="252.02" r="2.6" fill="#F0A23B"></circle><circle cx="336.96" cy="241.64" r="2.6" fill="#F0A23B"></circle><circle cx="344.99" cy="202.83" r="2.6" fill="#F0A23B"></circle><circle cx="353.01" cy="191.16" r="2.6" fill="#F0A23B"></circle><circle cx="361.04" cy="236.21" r="2.6" fill="#F0A23B"></circle><circle cx="369.07" cy="247.47" r="2.6" fill="#F0A23B"></circle><circle cx="377.1" cy="237.91" r="2.6" fill="#F0A23B"></circle><circle cx="385.12" cy="227.46" r="2.6" fill="#F0A23B"></circle><circle cx="393.15" cy="241.35" r="2.6" fill="#F0A23B"></circle><circle cx="401.18" cy="249.73" r="2.6" fill="#F0A23B"></circle><circle cx="409.21" cy="234.66" r="2.6" fill="#F0A23B"></circle><circle cx="417.23" cy="250" r="2.6" fill="#F0A23B"></circle><circle cx="425.26" cy="253.94" r="2.6" fill="#F0A23B"></circle><circle cx="433.29" cy="252.42" r="2.6" fill="#F0A23B"></circle><circle cx="441.32" cy="245.42" r="2.6" fill="#F0A23B"></circle><circle cx="449.34" cy="237.98" r="2.6" fill="#F0A23B"></circle><circle cx="457.37" cy="238.85" r="2.6" fill="#F0A23B"></circle><circle cx="473.42" cy="257.8" r="2.6" fill="#F0A23B"></circle><circle cx="481.45" cy="233.33" r="2.6" fill="#F0A23B"></circle><circle cx="489.48" cy="238.96" r="2.6" fill="#F0A23B"></circle><circle cx="497.51" cy="252.16" r="2.6" fill="#F0A23B"></circle><circle cx="505.53" cy="246.34" r="2.6" fill="#F0A23B"></circle><circle cx="513.56" cy="221.3" r="2.6" fill="#F0A23B"></circle><circle cx="521.59" cy="228.03" r="2.6" fill="#F0A23B"></circle><circle cx="529.62" cy="249.57" r="2.6" fill="#F0A23B"></circle><circle cx="537.64" cy="236.95" r="2.6" fill="#F0A23B"></circle><circle cx="545.67" cy="243.86" r="2.6" fill="#F0A23B"></circle><circle cx="553.7" cy="246.88" r="2.6" fill="#F0A23B"></circle><circle cx="561.73" cy="238.45" r="2.6" fill="#F0A23B"></circle><circle cx="569.75" cy="247.92" r="2.6" fill="#F0A23B"></circle><circle cx="585.81" cy="235.92" r="2.6" fill="#F0A23B"></circle><circle cx="593.84" cy="214.9" r="2.6" fill="#F0A23B"></circle><circle cx="601.86" cy="201.77" r="2.6" fill="#F0A23B"></circle><circle cx="609.89" cy="219.97" r="2.6" fill="#F0A23B"></circle><circle cx="617.92" cy="238.65" r="2.6" fill="#F0A23B"></circle><circle cx="625.95" cy="232.47" r="2.6" fill="#F0A23B"></circle><circle cx="633.97" cy="220.62" r="2.6" fill="#F0A23B"></circle><circle cx="642" cy="228.6" r="2.6" fill="#F0A23B"></circle><polyline fill="none" stroke="#1F9CF0" stroke-width="2.4" stroke-linejoin="round" stroke-linecap="round" points="56,198.31 64.03,224.59 72.05,214.73 80.08,247.97 88.11,236.75 96.14,219.64 104.16,238.79 112.19,207.95 120.22,201.38 128.25,239.3 136.27,242.33 144.3,177.25 152.33,218.95 160.36,232.82 168.38,248.48 176.41,252.97 184.44,230.93 192.47,242.47 200.49,240.12 208.52,248.48 216.55,256.65 224.58,261.44 232.6,262.41 240.63,264.75 248.66,261.4 256.68,262.76 264.71,244.65 272.74,230.98 280.77,234.56 288.79,260.01 296.82,254.76 304.85,238.53 312.88,231.76 320.9,226.22 328.93,247.36 336.96,238.78 344.99,250.58 353.01,256.4 361.04,243.61 369.07,265.98 377.1,253.29 385.12,225.25 393.15,246.45 401.18,252.36 409.21,241.14 417.23,253.3 425.26,245.06 433.29,205.73 441.32,260.99 449.34,265.11 457.37,263.66 465.4,270.45 473.42,265.53 481.45,248.25 489.48,259.3 497.51,255.01 561.73,259.54 569.75,255.12 577.78,241.05 585.81,228.97 593.84,234.99 601.86,233 609.89,242.76 617.92,238.49 625.95,251.01 633.97,203.87 642,100.57"></polyline><circle cx="56" cy="198.31" r="2.6" fill="#1F9CF0"></circle><circle cx="64.03" cy="224.59" r="2.6" fill="#1F9CF0"></circle><circle cx="72.05" cy="214.73" r="2.6" fill="#1F9CF0"></circle><circle cx="80.08" cy="247.97" r="2.6" fill="#1F9CF0"></circle><circle cx="88.11" cy="236.75" r="2.6" fill="#1F9CF0"></circle><circle cx="96.14" cy="219.64" r="2.6" fill="#1F9CF0"></circle><circle cx="104.16" cy="238.79" r="2.6" fill="#1F9CF0"></circle><circle cx="112.19" cy="207.95" r="2.6" fill="#1F9CF0"></circle><circle cx="120.22" cy="201.38" r="2.6" fill="#1F9CF0"></circle><circle cx="128.25" cy="239.3" r="2.6" fill="#1F9CF0"></circle><circle cx="136.27" cy="242.33" r="2.6" fill="#1F9CF0"></circle><circle cx="144.3" cy="177.25" r="2.6" fill="#1F9CF0"></circle><circle cx="152.33" cy="218.95" r="2.6" fill="#1F9CF0"></circle><circle cx="160.36" cy="232.82" r="2.6" fill="#1F9CF0"></circle><circle cx="168.38" cy="248.48" r="2.6" fill="#1F9CF0"></circle><circle cx="176.41" cy="252.97" r="2.6" fill="#1F9CF0"></circle><circle cx="184.44" cy="230.93" r="2.6" fill="#1F9CF0"></circle><circle cx="192.47" cy="242.47" r="2.6" fill="#1F9CF0"></circle><circle cx="200.49" cy="240.12" r="2.6" fill="#1F9CF0"></circle><circle cx="208.52" cy="248.48" r="2.6" fill="#1F9CF0"></circle><circle cx="216.55" cy="256.65" r="2.6" fill="#1F9CF0"></circle><circle cx="224.58" cy="261.44" r="2.6" fill="#1F9CF0"></circle><circle cx="232.6" cy="262.41" r="2.6" fill="#1F9CF0"></circle><circle cx="240.63" cy="264.75" r="2.6" fill="#1F9CF0"></circle><circle cx="248.66" cy="261.4" r="2.6" fill="#1F9CF0"></circle><circle cx="256.68" cy="262.76" r="2.6" fill="#1F9CF0"></circle><circle cx="264.71" cy="244.65" r="2.6" fill="#1F9CF0"></circle><circle cx="272.74" cy="230.98" r="2.6" fill="#1F9CF0"></circle><circle cx="280.77" cy="234.56" r="2.6" fill="#1F9CF0"></circle><circle cx="288.79" cy="260.01" r="2.6" fill="#1F9CF0"></circle><circle cx="296.82" cy="254.76" r="2.6" fill="#1F9CF0"></circle><circle cx="304.85" cy="238.53" r="2.6" fill="#1F9CF0"></circle><circle cx="312.88" cy="231.76" r="2.6" fill="#1F9CF0"></circle><circle cx="320.9" cy="226.22" r="2.6" fill="#1F9CF0"></circle><circle cx="328.93" cy="247.36" r="2.6" fill="#1F9CF0"></circle><circle cx="336.96" cy="238.78" r="2.6" fill="#1F9CF0"></circle><circle cx="344.99" cy="250.58" r="2.6" fill="#1F9CF0"></circle><circle cx="353.01" cy="256.4" r="2.6" fill="#1F9CF0"></circle><circle cx="361.04" cy="243.61" r="2.6" fill="#1F9CF0"></circle><circle cx="369.07" cy="265.98" r="2.6" fill="#1F9CF0"></circle><circle cx="377.1" cy="253.29" r="2.6" fill="#1F9CF0"></circle><circle cx="385.12" cy="225.25" r="2.6" fill="#1F9CF0"></circle><circle cx="393.15" cy="246.45" r="2.6" fill="#1F9CF0"></circle><circle cx="401.18" cy="252.36" r="2.6" fill="#1F9CF0"></circle><circle cx="409.21" cy="241.14" r="2.6" fill="#1F9CF0"></circle><circle cx="417.23" cy="253.3" r="2.6" fill="#1F9CF0"></circle><circle cx="425.26" cy="245.06" r="2.6" fill="#1F9CF0"></circle><circle cx="433.29" cy="205.73" r="2.6" fill="#1F9CF0"></circle><circle cx="441.32" cy="260.99" r="2.6" fill="#1F9CF0"></circle><circle cx="449.34" cy="265.11" r="2.6" fill="#1F9CF0"></circle><circle cx="457.37" cy="263.66" r="2.6" fill="#1F9CF0"></circle><circle cx="465.4" cy="270.45" r="2.6" fill="#1F9CF0"></circle><circle cx="473.42" cy="265.53" r="2.6" fill="#1F9CF0"></circle><circle cx="481.45" cy="248.25" r="2.6" fill="#1F9CF0"></circle><circle cx="489.48" cy="259.3" r="2.6" fill="#1F9CF0"></circle><circle cx="497.51" cy="255.01" r="2.6" fill="#1F9CF0"></circle><circle cx="561.73" cy="259.54" r="2.6" fill="#1F9CF0"></circle><circle cx="569.75" cy="255.12" r="2.6" fill="#1F9CF0"></circle><circle cx="577.78" cy="241.05" r="2.6" fill="#1F9CF0"></circle><circle cx="585.81" cy="228.97" r="2.6" fill="#1F9CF0"></circle><circle cx="593.84" cy="234.99" r="2.6" fill="#1F9CF0"></circle><circle cx="601.86" cy="233" r="2.6" fill="#1F9CF0"></circle><circle cx="609.89" cy="242.76" r="2.6" fill="#1F9CF0"></circle><circle cx="617.92" cy="238.49" r="2.6" fill="#1F9CF0"></circle><circle cx="625.95" cy="251.01" r="2.6" fill="#1F9CF0"></circle><circle cx="633.97" cy="203.87" r="2.6" fill="#1F9CF0"></circle><circle cx="642" cy="100.57" r="2.6" fill="#1F9CF0"></circle><line x1="656" y1="27" x2="672" y2="27" stroke="#E8835A" stroke-width="3" stroke-linecap="round"></line><text x="678" y="30" font-size="11" font-weight="400" text-anchor="start" fill="#1f2328">anthropic</text><line x1="656" y1="47" x2="672" y2="47" stroke="#6366F1" stroke-width="3" stroke-linecap="round"></line><text x="678" y="50" font-size="11" font-weight="400" text-anchor="start" fill="#1f2328">deepseek</text><line x1="656" y1="67" x2="672" y2="67" stroke="#2DA98C" stroke-width="3" stroke-linecap="round"></line><text x="678" y="70" font-size="11" font-weight="400" text-anchor="start" fill="#1f2328">gemini</text><line x1="656" y1="87" x2="672" y2="87" stroke="#A371F7" stroke-width="3" stroke-linecap="round"></line><text x="678" y="90" font-size="11" font-weight="400" text-anchor="start" fill="#1f2328">llama</text><line x1="656" y1="107" x2="672" y2="107" stroke="#F0A23B" stroke-width="3" stroke-linecap="round"></line><text x="678" y="110" font-size="11" font-weight="400" text-anchor="start" fill="#1f2328">mistral</text><line x1="656" y1="127" x2="672" y2="127" stroke="#1F9CF0" stroke-width="3" stroke-linecap="round"></line><text x="678" y="130" font-size="11" font-weight="400" text-anchor="start" fill="#1f2328">openai</text></svg>
