<svg xmlns="http://www.w3.org/2000/svg" viewBox="0 0 600 300" width="600" height="300" role="img" aria-label="Avg LLM latency by provider over runs (s)"><text x="300.0" y="24" text-anchor="middle" font-family="system-ui, -apple-system, sans-serif" font-size="14" font-weight="600" fill="#333">Avg LLM latency by provider over runs (s)</text><line x1="60" y1="240.0" x2="480" y2="240.0" stroke="#eee" stroke-width="1"/><text x="54" y="244.0" text-anchor="end" font-family="system-ui, -apple-system, sans-serif" font-size="9" fill="#999">41.35</text><line x1="60" y1="140.0" x2="480" y2="140.0" stroke="#eee" stroke-width="1"/><text x="54" y="144.0" text-anchor="end" font-family="system-ui, -apple-system, sans-serif" font-size="9" fill="#999">164.3</text><line x1="60" y1="40.0" x2="480" y2="40.0" stroke="#eee" stroke-width="1"/><text x="54" y="44.0" text-anchor="end" font-family="system-ui, -apple-system, sans-serif" font-size="9" fill="#999">287.4</text><polyline fill="none" stroke="#4CAF50" stroke-width="2" points="60.0,171.8 82.1,196.7 104.2,187.4 126.3,218.8 148.4,208.2 170.5,192.0 192.6,210.1 214.7,180.9 236.8,174.7 258.9,210.6 281.1,213.4 303.2,151.9 325.3,191.3 347.4,204.4 369.5,219.2 391.6,223.5 413.7,202.7 435.8,213.6 457.9,211.3 480.0,219.2"/><circle cx="60.0" cy="171.8" r="3" fill="#4CAF50"/><circle cx="82.1" cy="196.7" r="3" fill="#4CAF50"/><circle cx="104.2" cy="187.4" r="3" fill="#4CAF50"/><circle cx="126.3" cy="218.8" r="3" fill="#4CAF50"/><circle cx="148.4" cy="208.2" r="3" fill="#4CAF50"/><circle cx="170.5" cy="192.0" r="3" fill="#4CAF50"/><circle cx="192.6" cy="210.1" r="3" fill="#4CAF50"/><circle cx="214.7" cy="180.9" r="3" fill="#4CAF50"/><circle cx="236.8" cy="174.7" r="3" fill="#4CAF50"/><circle cx="258.9" cy="210.6" r="3" fill="#4CAF50"/><circle cx="281.1" cy="213.4" r="3" fill="#4CAF50"/><circle cx="303.2" cy="151.9" r="3" fill="#4CAF50"/><circle cx="325.3" cy="191.3" r="3" fill="#4CAF50"/><circle cx="347.4" cy="204.4" r="3" fill="#4CAF50"/><circle cx="369.5" cy="219.2" r="3" fill="#4CAF50"/><circle cx="391.6" cy="223.5" r="3" fill="#4CAF50"/><circle cx="413.7" cy="202.7" r="3" fill="#4CAF50"/><circle cx="435.8" cy="213.6" r="3" fill="#4CAF50"/><circle cx="457.9" cy="211.3" r="3" fill="#4CAF50"/><circle cx="480.0" cy="219.2" r="3" fill="#4CAF50"/><rect x="490" y="44" width="10" height="10" fill="#4CAF50"/><text x="504" y="53" font-family="system-ui, -apple-system, sans-serif" font-size="10" fill="#333">openai</text><polyline fill="none" stroke="#2196F3" stroke-width="2" points="60.0,201.0 82.1,204.0 104.2,210.2 126.3,215.0 148.4,207.0 170.5,204.4 192.6,220.9 214.7,214.4 236.8,212.8 258.9,202.9 303.2,205.6 325.3,215.3 347.4,200.6 369.5,217.0 391.6,213.3 413.7,207.1 435.8,213.4 457.9,215.5 480.0,217.8"/><circle cx="60.0" cy="201.0" r="3" fill="#2196F3"/><circle cx="82.1" cy="204.0" r="3" fill="#2196F3"/><circle cx="104.2" cy="210.2" r="3" fill="#2196F3"/><circle cx="126.3" cy="215.0" r="3" fill="#2196F3"/><circle cx="148.4" cy="207.0" r="3" fill="#2196F3"/><circle cx="170.5" cy="204.4" r="3" fill="#2196F3"/><circle cx="192.6" cy="220.9" r="3" fill="#2196F3"/><circle cx="214.7" cy="214.4" r="3" fill="#2196F3"/><circle cx="236.8" cy="212.8" r="3" fill="#2196F3"/><circle cx="258.9" cy="202.9" r="3" fill="#2196F3"/><circle cx="303.2" cy="205.6" r="3" fill="#2196F3"/><circle cx="325.3" cy="215.3" r="3" fill="#2196F3"/><circle cx="347.4" cy="200.6" r="3" fill="#2196F3"/><circle cx="369.5" cy="217.0" r="3" fill="#2196F3"/><circle cx="391.6" cy="213.3" r="3" fill="#2196F3"/><circle cx="413.7" cy="207.1" r="3" fill="#2196F3"/><circle cx="435.8" cy="213.4" r="3" fill="#2196F3"/><circle cx="457.9" cy="215.5" r="3" fill="#2196F3"/><circle cx="480.0" cy="217.8" r="3" fill="#2196F3"/><rect x="490" y="62" width="10" height="10" fill="#2196F3"/><text x="504" y="71" font-family="system-ui, -apple-system, sans-serif" font-size="10" fill="#333">anthropic</text><polyline fill="none" stroke="#FF9800" stroke-width="2" points="60.0,178.4 82.1,188.0 104.2,149.0 126.3,190.0 148.4,191.1 170.5,199.5 192.6,177.0 214.7,166.0 236.8,187.9 258.9,168.5 281.1,168.6 303.2,118.1 325.3,125.1 347.4,168.6 369.5,155.3 391.6,175.4 413.7,144.2 435.8,184.1 457.9,167.5 480.0,165.9"/><circle cx="60.0" cy="178.4" r="3" fill="#FF9800"/><circle cx="82.1" cy="188.0" r="3" fill="#FF9800"/><circle cx="104.2" cy="149.0" r="3" fill="#FF9800"/><circle cx="126.3" cy="190.0" r="3" fill="#FF9800"/><circle cx="148.4" cy="191.1" r="3" fill="#FF9800"/><circle cx="170.5" cy="199.5" r="3" fill="#FF9800"/><circle cx="192.6" cy="177.0" r="3" fill="#FF9800"/><circle cx="214.7" cy="166.0" r="3" fill="#FF9800"/><circle cx="236.8" cy="187.9" r="3" fill="#FF9800"/><circle cx="258.9" cy="168.5" r="3" fill="#FF9800"/><circle cx="281.1" cy="168.6" r="3" fill="#FF9800"/><circle cx="303.2" cy="118.1" r="3" fill="#FF9800"/><circle cx="325.3" cy="125.1" r="3" fill="#FF9800"/><circle cx="347.4" cy="168.6" r="3" fill="#FF9800"/><circle cx="369.5" cy="155.3" r="3" fill="#FF9800"/><circle cx="391.6" cy="175.4" r="3" fill="#FF9800"/><circle cx="413.7" cy="144.2" r="3" fill="#FF9800"/><circle cx="435.8" cy="184.1" r="3" fill="#FF9800"/><circle cx="457.9" cy="167.5" r="3" fill="#FF9800"/><circle cx="480.0" cy="165.9" r="3" fill="#FF9800"/><rect x="490" y="80" width="10" height="10" fill="#FF9800"/><text x="504" y="89" font-family="system-ui, -apple-system, sans-serif" font-size="10" fill="#333">gemini</text><polyline fill="none" stroke="#E91E63" stroke-width="2" points="60.0,105.2 82.1,126.0 104.2,156.2 126.3,116.0 148.4,85.9 170.5,192.3 192.6,94.3 214.7,157.3 236.8,167.5 258.9,170.7 281.1,84.4 303.2,122.5 325.3,155.9 347.4,176.1 369.5,111.8 391.6,191.5 413.7,40.0 435.8,170.6 457.9,142.9 480.0,55.5"/><circle cx="60.0" cy="105.2" r="3" fill="#E91E63"/><circle cx="82.1" cy="126.0" r="3" fill="#E91E63"/><circle cx="104.2" cy="156.2" r="3" fill="#E91E63"/><circle cx="126.3" cy="116.0" r="3" fill="#E91E63"/><circle cx="148.4" cy="85.9" r="3" fill="#E91E63"/><circle cx="170.5" cy="192.3" r="3" fill="#E91E63"/><circle cx="192.6" cy="94.3" r="3" fill="#E91E63"/><circle cx="214.7" cy="157.3" r="3" fill="#E91E63"/><circle cx="236.8" cy="167.5" r="3" fill="#E91E63"/><circle cx="258.9" cy="170.7" r="3" fill="#E91E63"/><circle cx="281.1" cy="84.4" r="3" fill="#E91E63"/><circle cx="303.2" cy="122.5" r="3" fill="#E91E63"/><circle cx="325.3" cy="155.9" r="3" fill="#E91E63"/><circle cx="347.4" cy="176.1" r="3" fill="#E91E63"/><circle cx="369.5" cy="111.8" r="3" fill="#E91E63"/><circle cx="391.6" cy="191.5" r="3" fill="#E91E63"/><circle cx="413.7" cy="40.0" r="3" fill="#E91E63"/><circle cx="435.8" cy="170.6" r="3" fill="#E91E63"/><circle cx="457.9" cy="142.9" r="3" fill="#E91E63"/><circle cx="480.0" cy="55.5" r="3" fill="#E91E63"/><rect x="490" y="98" width="10" height="10" fill="#E91E63"/><text x="504" y="107" font-family="system-ui, -apple-system, sans-serif" font-size="10" fill="#333">llama</text><polyline fill="none" stroke="#9C27B0" stroke-width="2" points="60.0,145.6 82.1,126.8 104.2,161.4 126.3,129.3 148.4,114.3 170.5,161.5 192.6,176.2 214.7,191.9 236.8,161.4 258.9,139.1 281.1,191.0 303.2,218.7 325.3,194.9 347.4,220.4 369.5,196.8 391.6,214.7 413.7,216.7 435.8,184.6 457.9,207.7 480.0,228.0"/><circle cx="60.0" cy="145.6" r="3" fill="#9C27B0"/><circle cx="82.1" cy="126.8" r="3" fill="#9C27B0"/><circle cx="104.2" cy="161.4" r="3" fill="#9C27B0"/><circle cx="126.3" cy="129.3" r="3" fill="#9C27B0"/><circle cx="148.4" cy="114.3" r="3" fill="#9C27B0"/><circle cx="170.5" cy="161.5" r="3" fill="#9C27B0"/><circle cx="192.6" cy="176.2" r="3" fill="#9C27B0"/><circle cx="214.7" cy="191.9" r="3" fill="#9C27B0"/><circle cx="236.8" cy="161.4" r="3" fill="#9C27B0"/><circle cx="258.9" cy="139.1" r="3" fill="#9C27B0"/><circle cx="281.1" cy="191.0" r="3" fill="#9C27B0"/><circle cx="303.2" cy="218.7" r="3" fill="#9C27B0"/><circle cx="325.3" cy="194.9" r="3" fill="#9C27B0"/><circle cx="347.4" cy="220.4" r="3" fill="#9C27B0"/><circle cx="369.5" cy="196.8" r="3" fill="#9C27B0"/><circle cx="391.6" cy="214.7" r="3" fill="#9C27B0"/><circle cx="413.7" cy="216.7" r="3" fill="#9C27B0"/><circle cx="435.8" cy="184.6" r="3" fill="#9C27B0"/><circle cx="457.9" cy="207.7" r="3" fill="#9C27B0"/><circle cx="480.0" cy="228.0" r="3" fill="#9C27B0"/><rect x="490" y="116" width="10" height="10" fill="#9C27B0"/><text x="504" y="125" font-family="system-ui, -apple-system, sans-serif" font-size="10" fill="#333">mistral</text><polyline fill="none" stroke="#00BCD4" stroke-width="2" points="82.1,218.1 104.2,213.5 126.3,220.7 148.4,202.2 170.5,230.3 192.6,230.5 214.7,240.0 236.8,219.7 258.9,216.1 281.1,218.6 303.2,226.6 325.3,219.5 347.4,231.5 369.5,214.6 391.6,183.3 413.7,236.1 435.8,204.0 457.9,203.9 480.0,172.6"/><circle cx="82.1" cy="218.1" r="3" fill="#00BCD4"/><circle cx="104.2" cy="213.5" r="3" fill="#00BCD4"/><circle cx="126.3" cy="220.7" r="3" fill="#00BCD4"/><circle cx="148.4" cy="202.2" r="3" fill="#00BCD4"/><circle cx="170.5" cy="230.3" r="3" fill="#00BCD4"/><circle cx="192.6" cy="230.5" r="3" fill="#00BCD4"/><circle cx="214.7" cy="240.0" r="3" fill="#00BCD4"/><circle cx="236.8" cy="219.7" r="3" fill="#00BCD4"/><circle cx="258.9" cy="216.1" r="3" fill="#00BCD4"/><circle cx="281.1" cy="218.6" r="3" fill="#00BCD4"/><circle cx="303.2" cy="226.6" r="3" fill="#00BCD4"/><circle cx="325.3" cy="219.5" r="3" fill="#00BCD4"/><circle cx="347.4" cy="231.5" r="3" fill="#00BCD4"/><circle cx="369.5" cy="214.6" r="3" fill="#00BCD4"/><circle cx="391.6" cy="183.3" r="3" fill="#00BCD4"/><circle cx="413.7" cy="236.1" r="3" fill="#00BCD4"/><circle cx="435.8" cy="204.0" r="3" fill="#00BCD4"/><circle cx="457.9" cy="203.9" r="3" fill="#00BCD4"/><circle cx="480.0" cy="172.6" r="3" fill="#00BCD4"/><rect x="490" y="134" width="10" height="10" fill="#00BCD4"/><text x="504" y="143" font-family="system-ui, -apple-system, sans-serif" font-size="10" fill="#333">deepseek</text><text x="60.0" y="256.0" text-anchor="middle" font-family="system-ui, -apple-system, sans-serif" font-size="9" fill="#666">33376499</text><text x="104.2" y="256.0" text-anchor="middle" font-family="system-ui, -apple-system, sans-serif" font-size="9" fill="#666">51938981</text><text x="148.4" y="256.0" text-anchor="middle" font-family="system-ui, -apple-system, sans-serif" font-size="9" fill="#666">54994841</text><text x="192.6" y="256.0" text-anchor="middle" font-family="system-ui, -apple-system, sans-serif" font-size="9" fill="#666">74446787</text><text x="236.8" y="256.0" text-anchor="middle" font-family="system-ui, -apple-system, sans-serif" font-size="9" fill="#666">75757458</text><text x="281.1" y="256.0" text-anchor="middle" font-family="system-ui, -apple-system, sans-serif" font-size="9" fill="#666">37885074</text><text x="325.3" y="256.0" text-anchor="middle" font-family="system-ui, -apple-system, sans-serif" font-size="9" fill="#666">41073326</text><text x="369.5" y="256.0" text-anchor="middle" font-family="system-ui, -apple-system, sans-serif" font-size="9" fill="#666">04094958</text><text x="413.7" y="256.0" text-anchor="middle" font-family="system-ui, -apple-system, sans-serif" font-size="9" fill="#666">12682497</text><text x="457.9" y="256.0" text-anchor="middle" font-family="system-ui, -apple-system, sans-serif" font-size="9" fill="#666">39004208</text></svg>
