<svg xmlns="http://www.w3.org/2000/svg" viewBox="0 0 600 300" width="600" height="300" role="img" aria-label="Avg LLM latency by provider over runs (s)"><text x="300.0" y="24" text-anchor="middle" font-family="system-ui, -apple-system, sans-serif" font-size="14" font-weight="600" fill="#333">Avg LLM latency by provider over runs (s)</text><line x1="60" y1="240.0" x2="480" y2="240.0" stroke="#eee" stroke-width="1"/><text x="54" y="244.0" text-anchor="end" font-family="system-ui, -apple-system, sans-serif" font-size="9" fill="#999">41.35</text><line x1="60" y1="140.0" x2="480" y2="140.0" stroke="#eee" stroke-width="1"/><text x="54" y="144.0" text-anchor="end" font-family="system-ui, -apple-system, sans-serif" font-size="9" fill="#999">164.3</text><line x1="60" y1="40.0" x2="480" y2="40.0" stroke="#eee" stroke-width="1"/><text x="54" y="44.0" text-anchor="end" font-family="system-ui, -apple-system, sans-serif" font-size="9" fill="#999">287.4</text><polyline fill="none" stroke="#4CAF50" stroke-width="2" points="60.0,171.8 77.5,196.7 95.0,187.4 112.5,218.8 130.0,208.2 147.5,192.0 165.0,210.1 182.5,180.9 200.0,174.7 217.5,210.6 235.0,213.4 252.5,151.9 270.0,191.3 287.5,204.4 305.0,219.2 322.5,223.5 340.0,202.7 357.5,213.6 375.0,211.3 392.5,219.2 410.0,227.0 427.5,231.5 445.0,232.4 462.5,234.6 480.0,231.5"/><circle cx="60.0" cy="171.8" r="3" fill="#4CAF50"/><circle cx="77.5" cy="196.7" r="3" fill="#4CAF50"/><circle cx="95.0" cy="187.4" r="3" fill="#4CAF50"/><circle cx="112.5" cy="218.8" r="3" fill="#4CAF50"/><circle cx="130.0" cy="208.2" r="3" fill="#4CAF50"/><circle cx="147.5" cy="192.0" r="3" fill="#4CAF50"/><circle cx="165.0" cy="210.1" r="3" fill="#4CAF50"/><circle cx="182.5" cy="180.9" r="3" fill="#4CAF50"/><circle cx="200.0" cy="174.7" r="3" fill="#4CAF50"/><circle cx="217.5" cy="210.6" r="3" fill="#4CAF50"/><circle cx="235.0" cy="213.4" r="3" fill="#4CAF50"/><circle cx="252.5" cy="151.9" r="3" fill="#4CAF50"/><circle cx="270.0" cy="191.3" r="3" fill="#4CAF50"/><circle cx="287.5" cy="204.4" r="3" fill="#4CAF50"/><circle cx="305.0" cy="219.2" r="3" fill="#4CAF50"/><circle cx="322.5" cy="223.5" r="3" fill="#4CAF50"/><circle cx="340.0" cy="202.7" r="3" fill="#4CAF50"/><circle cx="357.5" cy="213.6" r="3" fill="#4CAF50"/><circle cx="375.0" cy="211.3" r="3" fill="#4CAF50"/><circle cx="392.5" cy="219.2" r="3" fill="#4CAF50"/><circle cx="410.0" cy="227.0" r="3" fill="#4CAF50"/><circle cx="427.5" cy="231.5" r="3" fill="#4CAF50"/><circle cx="445.0" cy="232.4" r="3" fill="#4CAF50"/><circle cx="462.5" cy="234.6" r="3" fill="#4CAF50"/><circle cx="480.0" cy="231.5" r="3" fill="#4CAF50"/><rect x="490" y="44" width="10" height="10" fill="#4CAF50"/><text x="504" y="53" font-family="system-ui, -apple-system, sans-serif" font-size="10" fill="#333">openai</text><polyline fill="none" stroke="#2196F3" stroke-width="2" points="60.0,201.0 77.5,204.0 95.0,210.2 112.5,215.0 130.0,207.0 147.5,204.4 165.0,220.9 182.5,214.4 200.0,212.8 217.5,202.9 252.5,205.6 270.0,215.3 287.5,200.6 305.0,217.0 322.5,213.3 340.0,207.1 357.5,213.4 375.0,215.5 392.5,217.8 410.0,211.9 427.5,221.5 445.0,215.3 462.5,212.5 480.0,216.6"/><circle cx="60.0" cy="201.0" r="3" fill="#2196F3"/><circle cx="77.5" cy="204.0" r="3" fill="#2196F3"/><circle cx="95.0" cy="210.2" r="3" fill="#2196F3"/><circle cx="112.5" cy="215.0" r="3" fill="#2196F3"/><circle cx="130.0" cy="207.0" r="3" fill="#2196F3"/><circle cx="147.5" cy="204.4" r="3" fill="#2196F3"/><circle cx="165.0" cy="220.9" r="3" fill="#2196F3"/><circle cx="182.5" cy="214.4" r="3" fill="#2196F3"/><circle cx="200.0" cy="212.8" r="3" fill="#2196F3"/><circle cx="217.5" cy="202.9" r="3" fill="#2196F3"/><circle cx="252.5" cy="205.6" r="3" fill="#2196F3"/><circle cx="270.0" cy="215.3" r="3" fill="#2196F3"/><circle cx="287.5" cy="200.6" r="3" fill="#2196F3"/><circle cx="305.0" cy="217.0" r="3" fill="#2196F3"/><circle cx="322.5" cy="213.3" r="3" fill="#2196F3"/><circle cx="340.0" cy="207.1" r="3" fill="#2196F3"/><circle cx="357.5" cy="213.4" r="3" fill="#2196F3"/><circle cx="375.0" cy="215.5" r="3" fill="#2196F3"/><circle cx="392.5" cy="217.8" r="3" fill="#2196F3"/><circle cx="410.0" cy="211.9" r="3" fill="#2196F3"/><circle cx="427.5" cy="221.5" r="3" fill="#2196F3"/><circle cx="445.0" cy="215.3" r="3" fill="#2196F3"/><circle cx="462.5" cy="212.5" r="3" fill="#2196F3"/><circle cx="480.0" cy="216.6" r="3" fill="#2196F3"/><rect x="490" y="62" width="10" height="10" fill="#2196F3"/><text x="504" y="71" font-family="system-ui, -apple-system, sans-serif" font-size="10" fill="#333">anthropic</text><polyline fill="none" stroke="#FF9800" stroke-width="2" points="60.0,178.4 77.5,188.0 95.0,149.0 112.5,190.0 130.0,191.1 147.5,199.5 165.0,177.0 182.5,166.0 200.0,187.9 217.5,168.5 235.0,168.6 252.5,118.1 270.0,125.1 287.5,168.6 305.0,155.3 322.5,175.4 340.0,144.2 357.5,184.1 375.0,167.5 392.5,165.9 410.0,179.7"/><circle cx="60.0" cy="178.4" r="3" fill="#FF9800"/><circle cx="77.5" cy="188.0" r="3" fill="#FF9800"/><circle cx="95.0" cy="149.0" r="3" fill="#FF9800"/><circle cx="112.5" cy="190.0" r="3" fill="#FF9800"/><circle cx="130.0" cy="191.1" r="3" fill="#FF9800"/><circle cx="147.5" cy="199.5" r="3" fill="#FF9800"/><circle cx="165.0" cy="177.0" r="3" fill="#FF9800"/><circle cx="182.5" cy="166.0" r="3" fill="#FF9800"/><circle cx="200.0" cy="187.9" r="3" fill="#FF9800"/><circle cx="217.5" cy="168.5" r="3" fill="#FF9800"/><circle cx="235.0" cy="168.6" r="3" fill="#FF9800"/><circle cx="252.5" cy="118.1" r="3" fill="#FF9800"/><circle cx="270.0" cy="125.1" r="3" fill="#FF9800"/><circle cx="287.5" cy="168.6" r="3" fill="#FF9800"/><circle cx="305.0" cy="155.3" r="3" fill="#FF9800"/><circle cx="322.5" cy="175.4" r="3" fill="#FF9800"/><circle cx="340.0" cy="144.2" r="3" fill="#FF9800"/><circle cx="357.5" cy="184.1" r="3" fill="#FF9800"/><circle cx="375.0" cy="167.5" r="3" fill="#FF9800"/><circle cx="392.5" cy="165.9" r="3" fill="#FF9800"/><circle cx="410.0" cy="179.7" r="3" fill="#FF9800"/><rect x="490" y="80" width="10" height="10" fill="#FF9800"/><text x="504" y="89" font-family="system-ui, -apple-system, sans-serif" font-size="10" fill="#333">gemini</text><polyline fill="none" stroke="#E91E63" stroke-width="2" points="60.0,105.2 77.5,126.0 95.0,156.2 112.5,116.0 130.0,85.9 147.5,192.3 165.0,94.3 182.5,157.3 200.0,167.5 217.5,170.7 235.0,84.4 252.5,122.5 270.0,155.9 287.5,176.1 305.0,111.8 322.5,191.5 340.0,40.0 357.5,170.6 375.0,142.9 392.5,55.5 410.0,105.8 427.5,128.3 445.0,142.1 462.5,157.9 480.0,138.3"/><circle cx="60.0" cy="105.2" r="3" fill="#E91E63"/><circle cx="77.5" cy="126.0" r="3" fill="#E91E63"/><circle cx="95.0" cy="156.2" r="3" fill="#E91E63"/><circle cx="112.5" cy="116.0" r="3" fill="#E91E63"/><circle cx="130.0" cy="85.9" r="3" fill="#E91E63"/><circle cx="147.5" cy="192.3" r="3" fill="#E91E63"/><circle cx="165.0" cy="94.3" r="3" fill="#E91E63"/><circle cx="182.5" cy="157.3" r="3" fill="#E91E63"/><circle cx="200.0" cy="167.5" r="3" fill="#E91E63"/><circle cx="217.5" cy="170.7" r="3" fill="#E91E63"/><circle cx="235.0" cy="84.4" r="3" fill="#E91E63"/><circle cx="252.5" cy="122.5" r="3" fill="#E91E63"/><circle cx="270.0" cy="155.9" r="3" fill="#E91E63"/><circle cx="287.5" cy="176.1" r="3" fill="#E91E63"/><circle cx="305.0" cy="111.8" r="3" fill="#E91E63"/><circle cx="322.5" cy="191.5" r="3" fill="#E91E63"/><circle cx="340.0" cy="40.0" r="3" fill="#E91E63"/><circle cx="357.5" cy="170.6" r="3" fill="#E91E63"/><circle cx="375.0" cy="142.9" r="3" fill="#E91E63"/><circle cx="392.5" cy="55.5" r="3" fill="#E91E63"/><circle cx="410.0" cy="105.8" r="3" fill="#E91E63"/><circle cx="427.5" cy="128.3" r="3" fill="#E91E63"/><circle cx="445.0" cy="142.1" r="3" fill="#E91E63"/><circle cx="462.5" cy="157.9" r="3" fill="#E91E63"/><circle cx="480.0" cy="138.3" r="3" fill="#E91E63"/><rect x="490" y="98" width="10" height="10" fill="#E91E63"/><text x="504" y="107" font-family="system-ui, -apple-system, sans-serif" font-size="10" fill="#333">llama</text><polyline fill="none" stroke="#9C27B0" stroke-width="2" points="60.0,145.6 77.5,126.8 95.0,161.4 112.5,129.3 130.0,114.3 147.5,161.5 165.0,176.2 182.5,191.9 200.0,161.4 217.5,139.1 235.0,191.0 252.5,218.7 270.0,194.9 287.5,220.4 305.0,196.8 322.5,214.7 340.0,216.7 357.5,184.6 375.0,207.7 392.5,228.0 410.0,219.4 427.5,205.8 445.0,218.4 462.5,214.7 480.0,228.8"/><circle cx="60.0" cy="145.6" r="3" fill="#9C27B0"/><circle cx="77.5" cy="126.8" r="3" fill="#9C27B0"/><circle cx="95.0" cy="161.4" r="3" fill="#9C27B0"/><circle cx="112.5" cy="129.3" r="3" fill="#9C27B0"/><circle cx="130.0" cy="114.3" r="3" fill="#9C27B0"/><circle cx="147.5" cy="161.5" r="3" fill="#9C27B0"/><circle cx="165.0" cy="176.2" r="3" fill="#9C27B0"/><circle cx="182.5" cy="191.9" r="3" fill="#9C27B0"/><circle cx="200.0" cy="161.4" r="3" fill="#9C27B0"/><circle cx="217.5" cy="139.1" r="3" fill="#9C27B0"/><circle cx="235.0" cy="191.0" r="3" fill="#9C27B0"/><circle cx="252.5" cy="218.7" r="3" fill="#9C27B0"/><circle cx="270.0" cy="194.9" r="3" fill="#9C27B0"/><circle cx="287.5" cy="220.4" r="3" fill="#9C27B0"/><circle cx="305.0" cy="196.8" r="3" fill="#9C27B0"/><circle cx="322.5" cy="214.7" r="3" fill="#9C27B0"/><circle cx="340.0" cy="216.7" r="3" fill="#9C27B0"/><circle cx="357.5" cy="184.6" r="3" fill="#9C27B0"/><circle cx="375.0" cy="207.7" r="3" fill="#9C27B0"/><circle cx="392.5" cy="228.0" r="3" fill="#9C27B0"/><circle cx="410.0" cy="219.4" r="3" fill="#9C27B0"/><circle cx="427.5" cy="205.8" r="3" fill="#9C27B0"/><circle cx="445.0" cy="218.4" r="3" fill="#9C27B0"/><circle cx="462.5" cy="214.7" r="3" fill="#9C27B0"/><circle cx="480.0" cy="228.8" r="3" fill="#9C27B0"/><rect x="490" y="116" width="10" height="10" fill="#9C27B0"/><text x="504" y="125" font-family="system-ui, -apple-system, sans-serif" font-size="10" fill="#333">mistral</text><polyline fill="none" stroke="#00BCD4" stroke-width="2" points="77.5,218.1 95.0,213.5 112.5,220.7 130.0,202.2 147.5,230.3 165.0,230.5 182.5,240.0 200.0,219.7 217.5,216.1 235.0,218.6 252.5,226.6 270.0,219.5 287.5,231.5 305.0,214.6 322.5,183.3 340.0,236.1 357.5,204.0 375.0,203.9 392.5,172.6 410.0,209.3 427.5,223.5 445.0,235.9 462.5,187.8 480.0,235.8"/><circle cx="77.5" cy="218.1" r="3" fill="#00BCD4"/><circle cx="95.0" cy="213.5" r="3" fill="#00BCD4"/><circle cx="112.5" cy="220.7" r="3" fill="#00BCD4"/><circle cx="130.0" cy="202.2" r="3" fill="#00BCD4"/><circle cx="147.5" cy="230.3" r="3" fill="#00BCD4"/><circle cx="165.0" cy="230.5" r="3" fill="#00BCD4"/><circle cx="182.5" cy="240.0" r="3" fill="#00BCD4"/><circle cx="200.0" cy="219.7" r="3" fill="#00BCD4"/><circle cx="217.5" cy="216.1" r="3" fill="#00BCD4"/><circle cx="235.0" cy="218.6" r="3" fill="#00BCD4"/><circle cx="252.5" cy="226.6" r="3" fill="#00BCD4"/><circle cx="270.0" cy="219.5" r="3" fill="#00BCD4"/><circle cx="287.5" cy="231.5" r="3" fill="#00BCD4"/><circle cx="305.0" cy="214.6" r="3" fill="#00BCD4"/><circle cx="322.5" cy="183.3" r="3" fill="#00BCD4"/><circle cx="340.0" cy="236.1" r="3" fill="#00BCD4"/><circle cx="357.5" cy="204.0" r="3" fill="#00BCD4"/><circle cx="375.0" cy="203.9" r="3" fill="#00BCD4"/><circle cx="392.5" cy="172.6" r="3" fill="#00BCD4"/><circle cx="410.0" cy="209.3" r="3" fill="#00BCD4"/><circle cx="427.5" cy="223.5" r="3" fill="#00BCD4"/><circle cx="445.0" cy="235.9" r="3" fill="#00BCD4"/><circle cx="462.5" cy="187.8" r="3" fill="#00BCD4"/><circle cx="480.0" cy="235.8" r="3" fill="#00BCD4"/><rect x="490" y="134" width="10" height="10" fill="#00BCD4"/><text x="504" y="143" font-family="system-ui, -apple-system, sans-serif" font-size="10" fill="#333">deepseek</text><text x="60.0" y="256.0" text-anchor="middle" font-family="system-ui, -apple-system, sans-serif" font-size="9" fill="#666">33376499</text><text x="95.0" y="256.0" text-anchor="middle" font-family="system-ui, -apple-system, sans-serif" font-size="9" fill="#666">51938981</text><text x="130.0" y="256.0" text-anchor="middle" font-family="system-ui, -apple-system, sans-serif" font-size="9" fill="#666">54994841</text><text x="165.0" y="256.0" text-anchor="middle" font-family="system-ui, -apple-system, sans-serif" font-size="9" fill="#666">74446787</text><text x="200.0" y="256.0" text-anchor="middle" font-family="system-ui, -apple-system, sans-serif" font-size="9" fill="#666">75757458</text><text x="235.0" y="256.0" text-anchor="middle" font-family="system-ui, -apple-system, sans-serif" font-size="9" fill="#666">37885074</text><text x="270.0" y="256.0" text-anchor="middle" font-family="system-ui, -apple-system, sans-serif" font-size="9" fill="#666">41073326</text><text x="305.0" y="256.0" text-anchor="middle" font-family="system-ui, -apple-system, sans-serif" font-size="9" fill="#666">04094958</text><text x="340.0" y="256.0" text-anchor="middle" font-family="system-ui, -apple-system, sans-serif" font-size="9" fill="#666">12682497</text><text x="375.0" y="256.0" text-anchor="middle" font-family="system-ui, -apple-system, sans-serif" font-size="9" fill="#666">39004208</text><text x="410.0" y="256.0" text-anchor="middle" font-family="system-ui, -apple-system, sans-serif" font-size="9" fill="#666">68748512</text><text x="445.0" y="256.0" text-anchor="middle" font-family="system-ui, -apple-system, sans-serif" font-size="9" fill="#666">99652631</text><text x="480.0" y="256.0" text-anchor="middle" font-family="system-ui, -apple-system, sans-serif" font-size="9" fill="#666">10405855</text></svg>
