<svg xmlns="http://www.w3.org/2000/svg" viewBox="0 0 760 348" width="760" height="348" role="img" aria-label="Average LLM latency by provider over runs — llama highest, deepseek lowest" font-family="-apple-system,BlinkMacSystemFont,'Segoe UI',system-ui,sans-serif"><line x1="56" y1="306" x2="642" y2="306" stroke="#30363d" stroke-width="1"></line><text x="46" y="310" font-size="9.5" font-weight="400" text-anchor="end" fill="#8b949e" font-family="ui-monospace,SFMono-Regular,Menlo,monospace">0.0s</text><line x1="56" y1="235" x2="642" y2="235" stroke="#30363d" stroke-width="1"></line><text x="46" y="239" font-size="9.5" font-weight="400" text-anchor="end" fill="#8b949e" font-family="ui-monospace,SFMono-Regular,Menlo,monospace">82.5s</text><line x1="56" y1="164" x2="642" y2="164" stroke="#30363d" stroke-width="1"></line><text x="46" y="168" font-size="9.5" font-weight="400" text-anchor="end" fill="#8b949e" font-family="ui-monospace,SFMono-Regular,Menlo,monospace">165.1s</text><line x1="56" y1="93" x2="642" y2="93" stroke="#30363d" stroke-width="1"></line><text x="46" y="97" font-size="9.5" font-weight="400" text-anchor="end" fill="#8b949e" font-family="ui-monospace,SFMono-Regular,Menlo,monospace">247.6s</text><line x1="56" y1="22" x2="642" y2="22" stroke="#30363d" stroke-width="1"></line><text x="46" y="26" font-size="9.5" font-weight="400" text-anchor="end" fill="#8b949e" font-family="ui-monospace,SFMono-Regular,Menlo,monospace">330.2s</text><text x="56" y="324" font-size="9.5" font-weight="400" text-anchor="middle" fill="#8b949e" font-family="ui-monospace,SFMono-Regular,Menlo,monospace">06/08</text><text x="106.64" y="324" font-size="9.5" font-weight="400" text-anchor="middle" fill="#8b949e" font-family="ui-monospace,SFMono-Regular,Menlo,monospace">06/09</text><text x="157.28" y="324" font-size="9.5" font-weight="400" text-anchor="middle" fill="#8b949e" font-family="ui-monospace,SFMono-Regular,Menlo,monospace">06/10</text><text x="207.93" y="324" font-size="9.5" font-weight="400" text-anchor="middle" fill="#8b949e" font-family="ui-monospace,SFMono-Regular,Menlo,monospace">06/14</text><text x="258.57" y="324" font-size="9.5" font-weight="400" text-anchor="middle" fill="#8b949e" font-family="ui-monospace,SFMono-Regular,Menlo,monospace">06/15</text><text x="309.21" y="324" font-size="9.5" font-weight="400" text-anchor="middle" fill="#8b949e" font-family="ui-monospace,SFMono-Regular,Menlo,monospace">06/16</text><text x="359.85" y="324" font-size="9.5" font-weight="400" text-anchor="middle" fill="#8b949e" font-family="ui-monospace,SFMono-Regular,Menlo,monospace">06/18</text><text x="410.49" y="324" font-size="9.5" font-weight="400" text-anchor="middle" fill="#8b949e" font-family="ui-monospace,SFMono-Regular,Menlo,monospace">06/20</text><text x="461.14" y="324" font-size="9.5" font-weight="400" text-anchor="middle" fill="#8b949e" font-family="ui-monospace,SFMono-Regular,Menlo,monospace">06/21</text><text x="511.78" y="324" font-size="9.5" font-weight="400" text-anchor="middle" fill="#8b949e" font-family="ui-monospace,SFMono-Regular,Menlo,monospace">06/23</text><text x="562.42" y="324" font-size="9.5" font-weight="400" text-anchor="middle" fill="#8b949e" font-family="ui-monospace,SFMono-Regular,Menlo,monospace">06/24</text><text x="613.06" y="324" font-size="9.5" font-weight="400" text-anchor="middle" fill="#8b949e" font-family="ui-monospace,SFMono-Regular,Menlo,monospace">06/25</text><text x="642" y="324" font-size="9.5" font-weight="400" text-anchor="middle" fill="#8b949e" font-family="ui-monospace,SFMono-Regular,Menlo,monospace">06/26</text><polyline fill="none" stroke="#E8835A" stroke-width="2.4" stroke-linejoin="round" stroke-linecap="round" points="56,229.15 63.23,232.31 70.47,238.94 77.7,244 84.94,235.49 92.17,232.81 99.41,250.28 106.64,243.38 113.88,241.66 121.11,231.14 135.58,234.04 142.81,244.32 150.05,228.71 157.28,246.08 164.52,242.18 171.75,235.58 178.99,242.32 186.22,244.55 193.46,246.98 200.69,240.71 207.93,250.83 215.16,244.26 222.4,241.33 229.63,245.63 236.86,245.02 244.1,240.82 251.33,243.78 258.57,243.28 265.8,240.2 273.04,242.69 280.27,215.59 287.51,241.79 294.74,238.64 301.98,243.45 309.21,243.86 316.44,234.8 323.68,244.51 330.91,244.64"></polyline><circle cx="56" cy="229.15" r="2.6" fill="#E8835A"></circle><circle cx="63.23" cy="232.31" r="2.6" fill="#E8835A"></circle><circle cx="70.47" cy="238.94" r="2.6" fill="#E8835A"></circle><circle cx="77.7" cy="244" r="2.6" fill="#E8835A"></circle><circle cx="84.94" cy="235.49" r="2.6" fill="#E8835A"></circle><circle cx="92.17" cy="232.81" r="2.6" fill="#E8835A"></circle><circle cx="99.41" cy="250.28" r="2.6" fill="#E8835A"></circle><circle cx="106.64" cy="243.38" r="2.6" fill="#E8835A"></circle><circle cx="113.88" cy="241.66" r="2.6" fill="#E8835A"></circle><circle cx="121.11" cy="231.14" r="2.6" fill="#E8835A"></circle><circle cx="135.58" cy="234.04" r="2.6" fill="#E8835A"></circle><circle cx="142.81" cy="244.32" r="2.6" fill="#E8835A"></circle><circle cx="150.05" cy="228.71" r="2.6" fill="#E8835A"></circle><circle cx="157.28" cy="246.08" r="2.6" fill="#E8835A"></circle><circle cx="164.52" cy="242.18" r="2.6" fill="#E8835A"></circle><circle cx="171.75" cy="235.58" r="2.6" fill="#E8835A"></circle><circle cx="178.99" cy="242.32" r="2.6" fill="#E8835A"></circle><circle cx="186.22" cy="244.55" r="2.6" fill="#E8835A"></circle><circle cx="193.46" cy="246.98" r="2.6" fill="#E8835A"></circle><circle cx="200.69" cy="240.71" r="2.6" fill="#E8835A"></circle><circle cx="207.93" cy="250.83" r="2.6" fill="#E8835A"></circle><circle cx="215.16" cy="244.26" r="2.6" fill="#E8835A"></circle><circle cx="222.4" cy="241.33" r="2.6" fill="#E8835A"></circle><circle cx="229.63" cy="245.63" r="2.6" fill="#E8835A"></circle><circle cx="236.86" cy="245.02" r="2.6" fill="#E8835A"></circle><circle cx="244.1" cy="240.82" r="2.6" fill="#E8835A"></circle><circle cx="251.33" cy="243.78" r="2.6" fill="#E8835A"></circle><circle cx="258.57" cy="243.28" r="2.6" fill="#E8835A"></circle><circle cx="265.8" cy="240.2" r="2.6" fill="#E8835A"></circle><circle cx="273.04" cy="242.69" r="2.6" fill="#E8835A"></circle><circle cx="280.27" cy="215.59" r="2.6" fill="#E8835A"></circle><circle cx="287.51" cy="241.79" r="2.6" fill="#E8835A"></circle><circle cx="294.74" cy="238.64" r="2.6" fill="#E8835A"></circle><circle cx="301.98" cy="243.45" r="2.6" fill="#E8835A"></circle><circle cx="309.21" cy="243.86" r="2.6" fill="#E8835A"></circle><circle cx="316.44" cy="234.8" r="2.6" fill="#E8835A"></circle><circle cx="323.68" cy="244.51" r="2.6" fill="#E8835A"></circle><circle cx="330.91" cy="244.64" r="2.6" fill="#E8835A"></circle><polyline fill="none" stroke="#6366F1" stroke-width="2.4" stroke-linejoin="round" stroke-linecap="round" points="63.23,247.24 70.47,242.4 77.7,249.98 84.94,230.48 92.17,260.21 99.41,260.34 106.64,270.44 113.88,248.92 121.11,245.19 128.35,247.83 135.58,256.22 142.81,248.72 150.05,261.47 157.28,243.58 164.52,210.49 171.75,266.33 178.99,232.33 186.22,232.27 193.46,199.16 200.69,237.91 207.93,252.97 215.16,266.11 222.4,215.25 229.63,265.97 236.86,258.25 244.1,265.82 251.33,246.69 258.57,244.53 273.04,240.91 280.27,255.51 287.51,252.51 294.74,237.2 301.98,258.24 309.21,235.84 316.44,252.87 323.68,243.73 330.91,249.01 345.38,263.05 352.62,262.95 359.85,250.85 367.09,238.76 374.32,245.84 381.56,240.49 388.79,244.58 396.02,238.25 403.26,266.43 410.49,219.91 417.73,256.77 432.2,250.11 439.43,264.15 446.67,249.18 453.9,252.64 461.14,236.94 468.37,257.91 475.6,245.05 482.84,245.47 490.07,251.25 497.31,250.75 504.54,249.01 511.78,257.36 519.01,265.15 526.25,253.64 533.48,262.66 540.72,253.56 547.95,247.85 555.19,241.21 562.42,265.06 569.65,257.2 576.89,265.73 584.12,265.31 591.36,250.21 598.59,257.28 605.83,263.83 613.06,234.88 620.3,237.89 627.53,243.4 634.77,250.16"></polyline><circle cx="63.23" cy="247.24" r="2.6" fill="#6366F1"></circle><circle cx="70.47" cy="242.4" r="2.6" fill="#6366F1"></circle><circle cx="77.7" cy="249.98" r="2.6" fill="#6366F1"></circle><circle cx="84.94" cy="230.48" r="2.6" fill="#6366F1"></circle><circle cx="92.17" cy="260.21" r="2.6" fill="#6366F1"></circle><circle cx="99.41" cy="260.34" r="2.6" fill="#6366F1"></circle><circle cx="106.64" cy="270.44" r="2.6" fill="#6366F1"></circle><circle cx="113.88" cy="248.92" r="2.6" fill="#6366F1"></circle><circle cx="121.11" cy="245.19" r="2.6" fill="#6366F1"></circle><circle cx="128.35" cy="247.83" r="2.6" fill="#6366F1"></circle><circle cx="135.58" cy="256.22" r="2.6" fill="#6366F1"></circle><circle cx="142.81" cy="248.72" r="2.6" fill="#6366F1"></circle><circle cx="150.05" cy="261.47" r="2.6" fill="#6366F1"></circle><circle cx="157.28" cy="243.58" r="2.6" fill="#6366F1"></circle><circle cx="164.52" cy="210.49" r="2.6" fill="#6366F1"></circle><circle cx="171.75" cy="266.33" r="2.6" fill="#6366F1"></circle><circle cx="178.99" cy="232.33" r="2.6" fill="#6366F1"></circle><circle cx="186.22" cy="232.27" r="2.6" fill="#6366F1"></circle><circle cx="193.46" cy="199.16" r="2.6" fill="#6366F1"></circle><circle cx="200.69" cy="237.91" r="2.6" fill="#6366F1"></circle><circle cx="207.93" cy="252.97" r="2.6" fill="#6366F1"></circle><circle cx="215.16" cy="266.11" r="2.6" fill="#6366F1"></circle><circle cx="222.4" cy="215.25" r="2.6" fill="#6366F1"></circle><circle cx="229.63" cy="265.97" r="2.6" fill="#6366F1"></circle><circle cx="236.86" cy="258.25" r="2.6" fill="#6366F1"></circle><circle cx="244.1" cy="265.82" r="2.6" fill="#6366F1"></circle><circle cx="251.33" cy="246.69" r="2.6" fill="#6366F1"></circle><circle cx="258.57" cy="244.53" r="2.6" fill="#6366F1"></circle><circle cx="273.04" cy="240.91" r="2.6" fill="#6366F1"></circle><circle cx="280.27" cy="255.51" r="2.6" fill="#6366F1"></circle><circle cx="287.51" cy="252.51" r="2.6" fill="#6366F1"></circle><circle cx="294.74" cy="237.2" r="2.6" fill="#6366F1"></circle><circle cx="301.98" cy="258.24" r="2.6" fill="#6366F1"></circle><circle cx="309.21" cy="235.84" r="2.6" fill="#6366F1"></circle><circle cx="316.44" cy="252.87" r="2.6" fill="#6366F1"></circle><circle cx="323.68" cy="243.73" r="2.6" fill="#6366F1"></circle><circle cx="330.91" cy="249.01" r="2.6" fill="#6366F1"></circle><circle cx="345.38" cy="263.05" r="2.6" fill="#6366F1"></circle><circle cx="352.62" cy="262.95" r="2.6" fill="#6366F1"></circle><circle cx="359.85" cy="250.85" r="2.6" fill="#6366F1"></circle><circle cx="367.09" cy="238.76" r="2.6" fill="#6366F1"></circle><circle cx="374.32" cy="245.84" r="2.6" fill="#6366F1"></circle><circle cx="381.56" cy="240.49" r="2.6" fill="#6366F1"></circle><circle cx="388.79" cy="244.58" r="2.6" fill="#6366F1"></circle><circle cx="396.02" cy="238.25" r="2.6" fill="#6366F1"></circle><circle cx="403.26" cy="266.43" r="2.6" fill="#6366F1"></circle><circle cx="410.49" cy="219.91" r="2.6" fill="#6366F1"></circle><circle cx="417.73" cy="256.77" r="2.6" fill="#6366F1"></circle><circle cx="432.2" cy="250.11" r="2.6" fill="#6366F1"></circle><circle cx="439.43" cy="264.15" r="2.6" fill="#6366F1"></circle><circle cx="446.67" cy="249.18" r="2.6" fill="#6366F1"></circle><circle cx="453.9" cy="252.64" r="2.6" fill="#6366F1"></circle><circle cx="461.14" cy="236.94" r="2.6" fill="#6366F1"></circle><circle cx="468.37" cy="257.91" r="2.6" fill="#6366F1"></circle><circle cx="475.6" cy="245.05" r="2.6" fill="#6366F1"></circle><circle cx="482.84" cy="245.47" r="2.6" fill="#6366F1"></circle><circle cx="490.07" cy="251.25" r="2.6" fill="#6366F1"></circle><circle cx="497.31" cy="250.75" r="2.6" fill="#6366F1"></circle><circle cx="504.54" cy="249.01" r="2.6" fill="#6366F1"></circle><circle cx="511.78" cy="257.36" r="2.6" fill="#6366F1"></circle><circle cx="519.01" cy="265.15" r="2.6" fill="#6366F1"></circle><circle cx="526.25" cy="253.64" r="2.6" fill="#6366F1"></circle><circle cx="533.48" cy="262.66" r="2.6" fill="#6366F1"></circle><circle cx="540.72" cy="253.56" r="2.6" fill="#6366F1"></circle><circle cx="547.95" cy="247.85" r="2.6" fill="#6366F1"></circle><circle cx="555.19" cy="241.21" r="2.6" fill="#6366F1"></circle><circle cx="562.42" cy="265.06" r="2.6" fill="#6366F1"></circle><circle cx="569.65" cy="257.2" r="2.6" fill="#6366F1"></circle><circle cx="576.89" cy="265.73" r="2.6" fill="#6366F1"></circle><circle cx="584.12" cy="265.31" r="2.6" fill="#6366F1"></circle><circle cx="591.36" cy="250.21" r="2.6" fill="#6366F1"></circle><circle cx="598.59" cy="257.28" r="2.6" fill="#6366F1"></circle><circle cx="605.83" cy="263.83" r="2.6" fill="#6366F1"></circle><circle cx="613.06" cy="234.88" r="2.6" fill="#6366F1"></circle><circle cx="620.3" cy="237.89" r="2.6" fill="#6366F1"></circle><circle cx="627.53" cy="243.4" r="2.6" fill="#6366F1"></circle><circle cx="634.77" cy="250.16" r="2.6" fill="#6366F1"></circle><polyline fill="none" stroke="#2DA98C" stroke-width="2.4" stroke-linejoin="round" stroke-linecap="round" points="56,205.26 63.23,215.39 70.47,174.15 77.7,217.56 84.94,218.68 92.17,227.57 99.41,203.76 106.64,192.14 113.88,215.35 121.11,194.78 128.35,194.92 135.58,141.5 142.81,148.87 150.05,194.84 157.28,180.85 164.52,202.09 171.75,169.08 178.99,211.29 186.22,193.77 193.46,192.04 200.69,206.61 273.04,221.15 280.27,190.23 287.51,183.33 294.74,225.15 301.98,184.37 309.21,182.1 316.44,210.86 323.68,161.53 330.91,210.56 345.38,182.01 352.62,172.32 359.85,181.93 367.09,186.76 374.32,217.59 381.56,171.76 388.79,211.13 396.02,171.55 403.26,181.17 410.49,189.96 417.73,191.02 432.2,212.98 439.43,170.09 446.67,127.97 453.9,222.7 461.14,200.4 468.37,155.75 475.6,184.88 482.84,176.48 490.07,167.89 497.31,205.24 504.54,167.24 511.78,154.57 519.01,196.61 526.25,154.13 533.48,196.6 540.72,203.92 547.95,125.1 555.19,151.41 562.42,176.39 569.65,198.69"></polyline><circle cx="56" cy="205.26" r="2.6" fill="#2DA98C"></circle><circle cx="63.23" cy="215.39" r="2.6" fill="#2DA98C"></circle><circle cx="70.47" cy="174.15" r="2.6" fill="#2DA98C"></circle><circle cx="77.7" cy="217.56" r="2.6" fill="#2DA98C"></circle><circle cx="84.94" cy="218.68" r="2.6" fill="#2DA98C"></circle><circle cx="92.17" cy="227.57" r="2.6" fill="#2DA98C"></circle><circle cx="99.41" cy="203.76" r="2.6" fill="#2DA98C"></circle><circle cx="106.64" cy="192.14" r="2.6" fill="#2DA98C"></circle><circle cx="113.88" cy="215.35" r="2.6" fill="#2DA98C"></circle><circle cx="121.11" cy="194.78" r="2.6" fill="#2DA98C"></circle><circle cx="128.35" cy="194.92" r="2.6" fill="#2DA98C"></circle><circle cx="135.58" cy="141.5" r="2.6" fill="#2DA98C"></circle><circle cx="142.81" cy="148.87" r="2.6" fill="#2DA98C"></circle><circle cx="150.05" cy="194.84" r="2.6" fill="#2DA98C"></circle><circle cx="157.28" cy="180.85" r="2.6" fill="#2DA98C"></circle><circle cx="164.52" cy="202.09" r="2.6" fill="#2DA98C"></circle><circle cx="171.75" cy="169.08" r="2.6" fill="#2DA98C"></circle><circle cx="178.99" cy="211.29" r="2.6" fill="#2DA98C"></circle><circle cx="186.22" cy="193.77" r="2.6" fill="#2DA98C"></circle><circle cx="193.46" cy="192.04" r="2.6" fill="#2DA98C"></circle><circle cx="200.69" cy="206.61" r="2.6" fill="#2DA98C"></circle><circle cx="273.04" cy="221.15" r="2.6" fill="#2DA98C"></circle><circle cx="280.27" cy="190.23" r="2.6" fill="#2DA98C"></circle><circle cx="287.51" cy="183.33" r="2.6" fill="#2DA98C"></circle><circle cx="294.74" cy="225.15" r="2.6" fill="#2DA98C"></circle><circle cx="301.98" cy="184.37" r="2.6" fill="#2DA98C"></circle><circle cx="309.21" cy="182.1" r="2.6" fill="#2DA98C"></circle><circle cx="316.44" cy="210.86" r="2.6" fill="#2DA98C"></circle><circle cx="323.68" cy="161.53" r="2.6" fill="#2DA98C"></circle><circle cx="330.91" cy="210.56" r="2.6" fill="#2DA98C"></circle><circle cx="345.38" cy="182.01" r="2.6" fill="#2DA98C"></circle><circle cx="352.62" cy="172.32" r="2.6" fill="#2DA98C"></circle><circle cx="359.85" cy="181.93" r="2.6" fill="#2DA98C"></circle><circle cx="367.09" cy="186.76" r="2.6" fill="#2DA98C"></circle><circle cx="374.32" cy="217.59" r="2.6" fill="#2DA98C"></circle><circle cx="381.56" cy="171.76" r="2.6" fill="#2DA98C"></circle><circle cx="388.79" cy="211.13" r="2.6" fill="#2DA98C"></circle><circle cx="396.02" cy="171.55" r="2.6" fill="#2DA98C"></circle><circle cx="403.26" cy="181.17" r="2.6" fill="#2DA98C"></circle><circle cx="410.49" cy="189.96" r="2.6" fill="#2DA98C"></circle><circle cx="417.73" cy="191.02" r="2.6" fill="#2DA98C"></circle><circle cx="432.2" cy="212.98" r="2.6" fill="#2DA98C"></circle><circle cx="439.43" cy="170.09" r="2.6" fill="#2DA98C"></circle><circle cx="446.67" cy="127.97" r="2.6" fill="#2DA98C"></circle><circle cx="453.9" cy="222.7" r="2.6" fill="#2DA98C"></circle><circle cx="461.14" cy="200.4" r="2.6" fill="#2DA98C"></circle><circle cx="468.37" cy="155.75" r="2.6" fill="#2DA98C"></circle><circle cx="475.6" cy="184.88" r="2.6" fill="#2DA98C"></circle><circle cx="482.84" cy="176.48" r="2.6" fill="#2DA98C"></circle><circle cx="490.07" cy="167.89" r="2.6" fill="#2DA98C"></circle><circle cx="497.31" cy="205.24" r="2.6" fill="#2DA98C"></circle><circle cx="504.54" cy="167.24" r="2.6" fill="#2DA98C"></circle><circle cx="511.78" cy="154.57" r="2.6" fill="#2DA98C"></circle><circle cx="519.01" cy="196.61" r="2.6" fill="#2DA98C"></circle><circle cx="526.25" cy="154.13" r="2.6" fill="#2DA98C"></circle><circle cx="533.48" cy="196.6" r="2.6" fill="#2DA98C"></circle><circle cx="540.72" cy="203.92" r="2.6" fill="#2DA98C"></circle><circle cx="547.95" cy="125.1" r="2.6" fill="#2DA98C"></circle><circle cx="555.19" cy="151.41" r="2.6" fill="#2DA98C"></circle><circle cx="562.42" cy="176.39" r="2.6" fill="#2DA98C"></circle><circle cx="569.65" cy="198.69" r="2.6" fill="#2DA98C"></circle><polyline fill="none" stroke="#A371F7" stroke-width="2.4" stroke-linejoin="round" stroke-linecap="round" points="56,127.86 63.23,149.85 70.47,181.76 77.7,139.24 84.94,107.36 92.17,219.97 99.41,116.3 106.64,182.89 113.88,193.78 121.11,197.11 128.35,105.85 135.58,146.07 142.81,181.42 150.05,202.88 157.28,134.79 164.52,219.07 171.75,58.83 178.99,197.05 186.22,167.66 193.46,75.26 200.69,128.5 207.93,152.23 215.16,166.9 222.4,183.57 229.63,162.79 236.86,148.18 244.1,52.43 251.33,96.59 258.57,191.76 273.04,151.86 280.27,169.19 287.51,135.22 301.98,206.77 309.21,167.88 316.44,189.32 323.68,143.76 330.91,142.49 338.15,163.7 345.38,128.52 352.62,144.9 359.85,92.3 367.09,157.36 374.32,160.21 381.56,176.32 388.79,116.21 396.02,165.98 403.26,136.47 417.73,155.12 432.2,134.62 446.67,114.6 453.9,127.72 461.14,219.84 468.37,170.06 475.6,154.88 482.84,189.66 490.07,162.21 497.31,183.03 504.54,165.52 511.78,176.75 519.01,155.74 533.48,148.44 540.72,196.35 547.95,143.94 555.19,112.27 562.42,149.32 569.65,161.5 576.89,199.8 584.12,197.27 591.36,116.93 598.59,119.32 605.83,194.29 613.06,111.88 620.3,156.63 634.77,203.96"></polyline><circle cx="56" cy="127.86" r="2.6" fill="#A371F7"></circle><circle cx="63.23" cy="149.85" r="2.6" fill="#A371F7"></circle><circle cx="70.47" cy="181.76" r="2.6" fill="#A371F7"></circle><circle cx="77.7" cy="139.24" r="2.6" fill="#A371F7"></circle><circle cx="84.94" cy="107.36" r="2.6" fill="#A371F7"></circle><circle cx="92.17" cy="219.97" r="2.6" fill="#A371F7"></circle><circle cx="99.41" cy="116.3" r="2.6" fill="#A371F7"></circle><circle cx="106.64" cy="182.89" r="2.6" fill="#A371F7"></circle><circle cx="113.88" cy="193.78" r="2.6" fill="#A371F7"></circle><circle cx="121.11" cy="197.11" r="2.6" fill="#A371F7"></circle><circle cx="128.35" cy="105.85" r="2.6" fill="#A371F7"></circle><circle cx="135.58" cy="146.07" r="2.6" fill="#A371F7"></circle><circle cx="142.81" cy="181.42" r="2.6" fill="#A371F7"></circle><circle cx="150.05" cy="202.88" r="2.6" fill="#A371F7"></circle><circle cx="157.28" cy="134.79" r="2.6" fill="#A371F7"></circle><circle cx="164.52" cy="219.07" r="2.6" fill="#A371F7"></circle><circle cx="171.75" cy="58.83" r="2.6" fill="#A371F7"></circle><circle cx="178.99" cy="197.05" r="2.6" fill="#A371F7"></circle><circle cx="186.22" cy="167.66" r="2.6" fill="#A371F7"></circle><circle cx="193.46" cy="75.26" r="2.6" fill="#A371F7"></circle><circle cx="200.69" cy="128.5" r="2.6" fill="#A371F7"></circle><circle cx="207.93" cy="152.23" r="2.6" fill="#A371F7"></circle><circle cx="215.16" cy="166.9" r="2.6" fill="#A371F7"></circle><circle cx="222.4" cy="183.57" r="2.6" fill="#A371F7"></circle><circle cx="229.63" cy="162.79" r="2.6" fill="#A371F7"></circle><circle cx="236.86" cy="148.18" r="2.6" fill="#A371F7"></circle><circle cx="244.1" cy="52.43" r="2.6" fill="#A371F7"></circle><circle cx="251.33" cy="96.59" r="2.6" fill="#A371F7"></circle><circle cx="258.57" cy="191.76" r="2.6" fill="#A371F7"></circle><circle cx="273.04" cy="151.86" r="2.6" fill="#A371F7"></circle><circle cx="280.27" cy="169.19" r="2.6" fill="#A371F7"></circle><circle cx="287.51" cy="135.22" r="2.6" fill="#A371F7"></circle><circle cx="301.98" cy="206.77" r="2.6" fill="#A371F7"></circle><circle cx="309.21" cy="167.88" r="2.6" fill="#A371F7"></circle><circle cx="316.44" cy="189.32" r="2.6" fill="#A371F7"></circle><circle cx="323.68" cy="143.76" r="2.6" fill="#A371F7"></circle><circle cx="330.91" cy="142.49" r="2.6" fill="#A371F7"></circle><circle cx="338.15" cy="163.7" r="2.6" fill="#A371F7"></circle><circle cx="345.38" cy="128.52" r="2.6" fill="#A371F7"></circle><circle cx="352.62" cy="144.9" r="2.6" fill="#A371F7"></circle><circle cx="359.85" cy="92.3" r="2.6" fill="#A371F7"></circle><circle cx="367.09" cy="157.36" r="2.6" fill="#A371F7"></circle><circle cx="374.32" cy="160.21" r="2.6" fill="#A371F7"></circle><circle cx="381.56" cy="176.32" r="2.6" fill="#A371F7"></circle><circle cx="388.79" cy="116.21" r="2.6" fill="#A371F7"></circle><circle cx="396.02" cy="165.98" r="2.6" fill="#A371F7"></circle><circle cx="403.26" cy="136.47" r="2.6" fill="#A371F7"></circle><circle cx="417.73" cy="155.12" r="2.6" fill="#A371F7"></circle><circle cx="432.2" cy="134.62" r="2.6" fill="#A371F7"></circle><circle cx="446.67" cy="114.6" r="2.6" fill="#A371F7"></circle><circle cx="453.9" cy="127.72" r="2.6" fill="#A371F7"></circle><circle cx="461.14" cy="219.84" r="2.6" fill="#A371F7"></circle><circle cx="468.37" cy="170.06" r="2.6" fill="#A371F7"></circle><circle cx="475.6" cy="154.88" r="2.6" fill="#A371F7"></circle><circle cx="482.84" cy="189.66" r="2.6" fill="#A371F7"></circle><circle cx="490.07" cy="162.21" r="2.6" fill="#A371F7"></circle><circle cx="497.31" cy="183.03" r="2.6" fill="#A371F7"></circle><circle cx="504.54" cy="165.52" r="2.6" fill="#A371F7"></circle><circle cx="511.78" cy="176.75" r="2.6" fill="#A371F7"></circle><circle cx="519.01" cy="155.74" r="2.6" fill="#A371F7"></circle><circle cx="533.48" cy="148.44" r="2.6" fill="#A371F7"></circle><circle cx="540.72" cy="196.35" r="2.6" fill="#A371F7"></circle><circle cx="547.95" cy="143.94" r="2.6" fill="#A371F7"></circle><circle cx="555.19" cy="112.27" r="2.6" fill="#A371F7"></circle><circle cx="562.42" cy="149.32" r="2.6" fill="#A371F7"></circle><circle cx="569.65" cy="161.5" r="2.6" fill="#A371F7"></circle><circle cx="576.89" cy="199.8" r="2.6" fill="#A371F7"></circle><circle cx="584.12" cy="197.27" r="2.6" fill="#A371F7"></circle><circle cx="591.36" cy="116.93" r="2.6" fill="#A371F7"></circle><circle cx="598.59" cy="119.32" r="2.6" fill="#A371F7"></circle><circle cx="605.83" cy="194.29" r="2.6" fill="#A371F7"></circle><circle cx="613.06" cy="111.88" r="2.6" fill="#A371F7"></circle><circle cx="620.3" cy="156.63" r="2.6" fill="#A371F7"></circle><circle cx="634.77" cy="203.96" r="2.6" fill="#A371F7"></circle><polyline fill="none" stroke="#F0A23B" stroke-width="2.4" stroke-linejoin="round" stroke-linecap="round" points="56,170.6 63.23,150.62 70.47,187.27 77.7,153.33 84.94,137.4 92.17,187.39 99.41,202.98 106.64,219.57 113.88,187.3 121.11,163.64 128.35,218.54 135.58,247.9 142.81,222.75 150.05,249.71 157.28,224.7 164.52,243.69 171.75,245.81 178.99,211.84 186.22,236.21 193.46,257.78 200.69,248.63 207.93,234.2 215.16,247.57 222.4,243.66 229.63,258.59 236.86,253.94 244.1,235.44 251.33,209.7 258.57,229.87 265.8,229.74 273.04,242.74 280.27,219.28 287.51,218.69 294.74,248.17 301.98,252.02 309.21,241.64 316.44,202.83 323.68,191.16 330.91,236.21 338.15,247.47 345.38,237.91 352.62,227.46 359.85,241.35 367.09,249.73 374.32,234.66 381.56,250 388.79,253.94 396.02,252.42 403.26,245.42 410.49,237.98 417.73,238.85 432.2,257.8 439.43,233.33 446.67,238.96 453.9,252.16 461.14,246.34 468.37,221.3 475.6,228.03 482.84,249.57 490.07,236.95 497.31,243.86 504.54,246.88 511.78,238.45 519.01,247.92 533.48,235.92 540.72,214.9 547.95,201.77 555.19,219.97 562.42,238.65 569.65,232.47 576.89,220.62 584.12,227.53 591.36,228.6 598.59,243.21 605.83,241.59 613.06,193.22 620.3,249 634.77,229.2 642,229.67"></polyline><circle cx="56" cy="170.6" r="2.6" fill="#F0A23B"></circle><circle cx="63.23" cy="150.62" r="2.6" fill="#F0A23B"></circle><circle cx="70.47" cy="187.27" r="2.6" fill="#F0A23B"></circle><circle cx="77.7" cy="153.33" r="2.6" fill="#F0A23B"></circle><circle cx="84.94" cy="137.4" r="2.6" fill="#F0A23B"></circle><circle cx="92.17" cy="187.39" r="2.6" fill="#F0A23B"></circle><circle cx="99.41" cy="202.98" r="2.6" fill="#F0A23B"></circle><circle cx="106.64" cy="219.57" r="2.6" fill="#F0A23B"></circle><circle cx="113.88" cy="187.3" r="2.6" fill="#F0A23B"></circle><circle cx="121.11" cy="163.64" r="2.6" fill="#F0A23B"></circle><circle cx="128.35" cy="218.54" r="2.6" fill="#F0A23B"></circle><circle cx="135.58" cy="247.9" r="2.6" fill="#F0A23B"></circle><circle cx="142.81" cy="222.75" r="2.6" fill="#F0A23B"></circle><circle cx="150.05" cy="249.71" r="2.6" fill="#F0A23B"></circle><circle cx="157.28" cy="224.7" r="2.6" fill="#F0A23B"></circle><circle cx="164.52" cy="243.69" r="2.6" fill="#F0A23B"></circle><circle cx="171.75" cy="245.81" r="2.6" fill="#F0A23B"></circle><circle cx="178.99" cy="211.84" r="2.6" fill="#F0A23B"></circle><circle cx="186.22" cy="236.21" r="2.6" fill="#F0A23B"></circle><circle cx="193.46" cy="257.78" r="2.6" fill="#F0A23B"></circle><circle cx="200.69" cy="248.63" r="2.6" fill="#F0A23B"></circle><circle cx="207.93" cy="234.2" r="2.6" fill="#F0A23B"></circle><circle cx="215.16" cy="247.57" r="2.6" fill="#F0A23B"></circle><circle cx="222.4" cy="243.66" r="2.6" fill="#F0A23B"></circle><circle cx="229.63" cy="258.59" r="2.6" fill="#F0A23B"></circle><circle cx="236.86" cy="253.94" r="2.6" fill="#F0A23B"></circle><circle cx="244.1" cy="235.44" r="2.6" fill="#F0A23B"></circle><circle cx="251.33" cy="209.7" r="2.6" fill="#F0A23B"></circle><circle cx="258.57" cy="229.87" r="2.6" fill="#F0A23B"></circle><circle cx="265.8" cy="229.74" r="2.6" fill="#F0A23B"></circle><circle cx="273.04" cy="242.74" r="2.6" fill="#F0A23B"></circle><circle cx="280.27" cy="219.28" r="2.6" fill="#F0A23B"></circle><circle cx="287.51" cy="218.69" r="2.6" fill="#F0A23B"></circle><circle cx="294.74" cy="248.17" r="2.6" fill="#F0A23B"></circle><circle cx="301.98" cy="252.02" r="2.6" fill="#F0A23B"></circle><circle cx="309.21" cy="241.64" r="2.6" fill="#F0A23B"></circle><circle cx="316.44" cy="202.83" r="2.6" fill="#F0A23B"></circle><circle cx="323.68" cy="191.16" r="2.6" fill="#F0A23B"></circle><circle cx="330.91" cy="236.21" r="2.6" fill="#F0A23B"></circle><circle cx="338.15" cy="247.47" r="2.6" fill="#F0A23B"></circle><circle cx="345.38" cy="237.91" r="2.6" fill="#F0A23B"></circle><circle cx="352.62" cy="227.46" r="2.6" fill="#F0A23B"></circle><circle cx="359.85" cy="241.35" r="2.6" fill="#F0A23B"></circle><circle cx="367.09" cy="249.73" r="2.6" fill="#F0A23B"></circle><circle cx="374.32" cy="234.66" r="2.6" fill="#F0A23B"></circle><circle cx="381.56" cy="250" r="2.6" fill="#F0A23B"></circle><circle cx="388.79" cy="253.94" r="2.6" fill="#F0A23B"></circle><circle cx="396.02" cy="252.42" r="2.6" fill="#F0A23B"></circle><circle cx="403.26" cy="245.42" r="2.6" fill="#F0A23B"></circle><circle cx="410.49" cy="237.98" r="2.6" fill="#F0A23B"></circle><circle cx="417.73" cy="238.85" r="2.6" fill="#F0A23B"></circle><circle cx="432.2" cy="257.8" r="2.6" fill="#F0A23B"></circle><circle cx="439.43" cy="233.33" r="2.6" fill="#F0A23B"></circle><circle cx="446.67" cy="238.96" r="2.6" fill="#F0A23B"></circle><circle cx="453.9" cy="252.16" r="2.6" fill="#F0A23B"></circle><circle cx="461.14" cy="246.34" r="2.6" fill="#F0A23B"></circle><circle cx="468.37" cy="221.3" r="2.6" fill="#F0A23B"></circle><circle cx="475.6" cy="228.03" r="2.6" fill="#F0A23B"></circle><circle cx="482.84" cy="249.57" r="2.6" fill="#F0A23B"></circle><circle cx="490.07" cy="236.95" r="2.6" fill="#F0A23B"></circle><circle cx="497.31" cy="243.86" r="2.6" fill="#F0A23B"></circle><circle cx="504.54" cy="246.88" r="2.6" fill="#F0A23B"></circle><circle cx="511.78" cy="238.45" r="2.6" fill="#F0A23B"></circle><circle cx="519.01" cy="247.92" r="2.6" fill="#F0A23B"></circle><circle cx="533.48" cy="235.92" r="2.6" fill="#F0A23B"></circle><circle cx="540.72" cy="214.9" r="2.6" fill="#F0A23B"></circle><circle cx="547.95" cy="201.77" r="2.6" fill="#F0A23B"></circle><circle cx="555.19" cy="219.97" r="2.6" fill="#F0A23B"></circle><circle cx="562.42" cy="238.65" r="2.6" fill="#F0A23B"></circle><circle cx="569.65" cy="232.47" r="2.6" fill="#F0A23B"></circle><circle cx="576.89" cy="220.62" r="2.6" fill="#F0A23B"></circle><circle cx="584.12" cy="227.53" r="2.6" fill="#F0A23B"></circle><circle cx="591.36" cy="228.6" r="2.6" fill="#F0A23B"></circle><circle cx="598.59" cy="243.21" r="2.6" fill="#F0A23B"></circle><circle cx="605.83" cy="241.59" r="2.6" fill="#F0A23B"></circle><circle cx="613.06" cy="193.22" r="2.6" fill="#F0A23B"></circle><circle cx="620.3" cy="249" r="2.6" fill="#F0A23B"></circle><circle cx="634.77" cy="229.2" r="2.6" fill="#F0A23B"></circle><circle cx="642" cy="229.67" r="2.6" fill="#F0A23B"></circle><polyline fill="none" stroke="#1F9CF0" stroke-width="2.4" stroke-linejoin="round" stroke-linecap="round" points="56,198.31 63.23,224.59 70.47,214.73 77.7,247.97 84.94,236.75 92.17,219.64 99.41,238.79 106.64,207.95 113.88,201.38 121.11,239.3 128.35,242.33 135.58,177.25 142.81,218.95 150.05,232.82 157.28,248.48 164.52,252.97 171.75,230.93 178.99,242.47 186.22,240.12 193.46,248.48 200.69,256.65 207.93,261.44 215.16,262.41 222.4,264.75 229.63,261.4 236.86,262.76 244.1,244.65 251.33,230.98 258.57,234.56 265.8,260.01 273.04,254.76 280.27,238.53 287.51,231.76 294.74,226.22 301.98,247.36 309.21,238.78 316.44,250.58 323.68,256.4 330.91,243.61 338.15,265.98 345.38,253.29 352.62,225.25 359.85,246.45 367.09,252.36 374.32,241.14 381.56,253.3 388.79,245.06 396.02,205.73 403.26,260.99 410.49,265.11 417.73,263.66 424.96,270.45 432.2,265.53 439.43,248.25 446.67,259.3 453.9,255.01 511.78,259.54 519.01,255.12 526.25,241.05 533.48,228.97 540.72,234.99 547.95,233 555.19,242.76 562.42,238.49 569.65,251.01 576.89,203.87 584.12,219.17 591.36,100.57 598.59,239.75 605.83,232.97 613.06,241.63 620.3,251.46 627.53,254.09 634.77,215.86 642,260.98"></polyline><circle cx="56" cy="198.31" r="2.6" fill="#1F9CF0"></circle><circle cx="63.23" cy="224.59" r="2.6" fill="#1F9CF0"></circle><circle cx="70.47" cy="214.73" r="2.6" fill="#1F9CF0"></circle><circle cx="77.7" cy="247.97" r="2.6" fill="#1F9CF0"></circle><circle cx="84.94" cy="236.75" r="2.6" fill="#1F9CF0"></circle><circle cx="92.17" cy="219.64" r="2.6" fill="#1F9CF0"></circle><circle cx="99.41" cy="238.79" r="2.6" fill="#1F9CF0"></circle><circle cx="106.64" cy="207.95" r="2.6" fill="#1F9CF0"></circle><circle cx="113.88" cy="201.38" r="2.6" fill="#1F9CF0"></circle><circle cx="121.11" cy="239.3" r="2.6" fill="#1F9CF0"></circle><circle cx="128.35" cy="242.33" r="2.6" fill="#1F9CF0"></circle><circle cx="135.58" cy="177.25" r="2.6" fill="#1F9CF0"></circle><circle cx="142.81" cy="218.95" r="2.6" fill="#1F9CF0"></circle><circle cx="150.05" cy="232.82" r="2.6" fill="#1F9CF0"></circle><circle cx="157.28" cy="248.48" r="2.6" fill="#1F9CF0"></circle><circle cx="164.52" cy="252.97" r="2.6" fill="#1F9CF0"></circle><circle cx="171.75" cy="230.93" r="2.6" fill="#1F9CF0"></circle><circle cx="178.99" cy="242.47" r="2.6" fill="#1F9CF0"></circle><circle cx="186.22" cy="240.12" r="2.6" fill="#1F9CF0"></circle><circle cx="193.46" cy="248.48" r="2.6" fill="#1F9CF0"></circle><circle cx="200.69" cy="256.65" r="2.6" fill="#1F9CF0"></circle><circle cx="207.93" cy="261.44" r="2.6" fill="#1F9CF0"></circle><circle cx="215.16" cy="262.41" r="2.6" fill="#1F9CF0"></circle><circle cx="222.4" cy="264.75" r="2.6" fill="#1F9CF0"></circle><circle cx="229.63" cy="261.4" r="2.6" fill="#1F9CF0"></circle><circle cx="236.86" cy="262.76" r="2.6" fill="#1F9CF0"></circle><circle cx="244.1" cy="244.65" r="2.6" fill="#1F9CF0"></circle><circle cx="251.33" cy="230.98" r="2.6" fill="#1F9CF0"></circle><circle cx="258.57" cy="234.56" r="2.6" fill="#1F9CF0"></circle><circle cx="265.8" cy="260.01" r="2.6" fill="#1F9CF0"></circle><circle cx="273.04" cy="254.76" r="2.6" fill="#1F9CF0"></circle><circle cx="280.27" cy="238.53" r="2.6" fill="#1F9CF0"></circle><circle cx="287.51" cy="231.76" r="2.6" fill="#1F9CF0"></circle><circle cx="294.74" cy="226.22" r="2.6" fill="#1F9CF0"></circle><circle cx="301.98" cy="247.36" r="2.6" fill="#1F9CF0"></circle><circle cx="309.21" cy="238.78" r="2.6" fill="#1F9CF0"></circle><circle cx="316.44" cy="250.58" r="2.6" fill="#1F9CF0"></circle><circle cx="323.68" cy="256.4" r="2.6" fill="#1F9CF0"></circle><circle cx="330.91" cy="243.61" r="2.6" fill="#1F9CF0"></circle><circle cx="338.15" cy="265.98" r="2.6" fill="#1F9CF0"></circle><circle cx="345.38" cy="253.29" r="2.6" fill="#1F9CF0"></circle><circle cx="352.62" cy="225.25" r="2.6" fill="#1F9CF0"></circle><circle cx="359.85" cy="246.45" r="2.6" fill="#1F9CF0"></circle><circle cx="367.09" cy="252.36" r="2.6" fill="#1F9CF0"></circle><circle cx="374.32" cy="241.14" r="2.6" fill="#1F9CF0"></circle><circle cx="381.56" cy="253.3" r="2.6" fill="#1F9CF0"></circle><circle cx="388.79" cy="245.06" r="2.6" fill="#1F9CF0"></circle><circle cx="396.02" cy="205.73" r="2.6" fill="#1F9CF0"></circle><circle cx="403.26" cy="260.99" r="2.6" fill="#1F9CF0"></circle><circle cx="410.49" cy="265.11" r="2.6" fill="#1F9CF0"></circle><circle cx="417.73" cy="263.66" r="2.6" fill="#1F9CF0"></circle><circle cx="424.96" cy="270.45" r="2.6" fill="#1F9CF0"></circle><circle cx="432.2" cy="265.53" r="2.6" fill="#1F9CF0"></circle><circle cx="439.43" cy="248.25" r="2.6" fill="#1F9CF0"></circle><circle cx="446.67" cy="259.3" r="2.6" fill="#1F9CF0"></circle><circle cx="453.9" cy="255.01" r="2.6" fill="#1F9CF0"></circle><circle cx="511.78" cy="259.54" r="2.6" fill="#1F9CF0"></circle><circle cx="519.01" cy="255.12" r="2.6" fill="#1F9CF0"></circle><circle cx="526.25" cy="241.05" r="2.6" fill="#1F9CF0"></circle><circle cx="533.48" cy="228.97" r="2.6" fill="#1F9CF0"></circle><circle cx="540.72" cy="234.99" r="2.6" fill="#1F9CF0"></circle><circle cx="547.95" cy="233" r="2.6" fill="#1F9CF0"></circle><circle cx="555.19" cy="242.76" r="2.6" fill="#1F9CF0"></circle><circle cx="562.42" cy="238.49" r="2.6" fill="#1F9CF0"></circle><circle cx="569.65" cy="251.01" r="2.6" fill="#1F9CF0"></circle><circle cx="576.89" cy="203.87" r="2.6" fill="#1F9CF0"></circle><circle cx="584.12" cy="219.17" r="2.6" fill="#1F9CF0"></circle><circle cx="591.36" cy="100.57" r="2.6" fill="#1F9CF0"></circle><circle cx="598.59" cy="239.75" r="2.6" fill="#1F9CF0"></circle><circle cx="605.83" cy="232.97" r="2.6" fill="#1F9CF0"></circle><circle cx="613.06" cy="241.63" r="2.6" fill="#1F9CF0"></circle><circle cx="620.3" cy="251.46" r="2.6" fill="#1F9CF0"></circle><circle cx="627.53" cy="254.09" r="2.6" fill="#1F9CF0"></circle><circle cx="634.77" cy="215.86" r="2.6" fill="#1F9CF0"></circle><circle cx="642" cy="260.98" r="2.6" fill="#1F9CF0"></circle><line x1="656" y1="27" x2="672" y2="27" stroke="#E8835A" stroke-width="3" stroke-linecap="round"></line><text x="678" y="30" font-size="11" font-weight="400" text-anchor="start" fill="#e6edf3">anthropic</text><line x1="656" y1="47" x2="672" y2="47" stroke="#6366F1" stroke-width="3" stroke-linecap="round"></line><text x="678" y="50" font-size="11" font-weight="400" text-anchor="start" fill="#e6edf3">deepseek</text><line x1="656" y1="67" x2="672" y2="67" stroke="#2DA98C" stroke-width="3" stroke-linecap="round"></line><text x="678" y="70" font-size="11" font-weight="400" text-anchor="start" fill="#e6edf3">gemini</text><line x1="656" y1="87" x2="672" y2="87" stroke="#A371F7" stroke-width="3" stroke-linecap="round"></line><text x="678" y="90" font-size="11" font-weight="400" text-anchor="start" fill="#e6edf3">llama</text><line x1="656" y1="107" x2="672" y2="107" stroke="#F0A23B" stroke-width="3" stroke-linecap="round"></line><text x="678" y="110" font-size="11" font-weight="400" text-anchor="start" fill="#e6edf3">mistral</text><line x1="656" y1="127" x2="672" y2="127" stroke="#1F9CF0" stroke-width="3" stroke-linecap="round"></line><text x="678" y="130" font-size="11" font-weight="400" text-anchor="start" fill="#e6edf3">openai</text></svg>
