<svg xmlns="http://www.w3.org/2000/svg" viewBox="0 0 760 348" width="760" height="348" role="img" aria-label="Average LLM latency by provider over runs — llama highest, deepseek lowest" font-family="-apple-system,BlinkMacSystemFont,'Segoe UI',system-ui,sans-serif"><line x1="56" y1="306" x2="642" y2="306" stroke="#d8dee4" stroke-width="1"></line><text x="46" y="310" font-size="9.5" font-weight="400" text-anchor="end" fill="#656d76" font-family="ui-monospace,SFMono-Regular,Menlo,monospace">0.0s</text><line x1="56" y1="235" x2="642" y2="235" stroke="#d8dee4" stroke-width="1"></line><text x="46" y="239" font-size="9.5" font-weight="400" text-anchor="end" fill="#656d76" font-family="ui-monospace,SFMono-Regular,Menlo,monospace">82.5s</text><line x1="56" y1="164" x2="642" y2="164" stroke="#d8dee4" stroke-width="1"></line><text x="46" y="168" font-size="9.5" font-weight="400" text-anchor="end" fill="#656d76" font-family="ui-monospace,SFMono-Regular,Menlo,monospace">165.1s</text><line x1="56" y1="93" x2="642" y2="93" stroke="#d8dee4" stroke-width="1"></line><text x="46" y="97" font-size="9.5" font-weight="400" text-anchor="end" fill="#656d76" font-family="ui-monospace,SFMono-Regular,Menlo,monospace">247.6s</text><line x1="56" y1="22" x2="642" y2="22" stroke="#d8dee4" stroke-width="1"></line><text x="46" y="26" font-size="9.5" font-weight="400" text-anchor="end" fill="#656d76" font-family="ui-monospace,SFMono-Regular,Menlo,monospace">330.2s</text><text x="56" y="324" font-size="9.5" font-weight="400" text-anchor="middle" fill="#656d76" font-family="ui-monospace,SFMono-Regular,Menlo,monospace">06/08</text><text x="106.96" y="324" font-size="9.5" font-weight="400" text-anchor="middle" fill="#656d76" font-family="ui-monospace,SFMono-Regular,Menlo,monospace">06/08</text><text x="157.91" y="324" font-size="9.5" font-weight="400" text-anchor="middle" fill="#656d76" font-family="ui-monospace,SFMono-Regular,Menlo,monospace">06/09</text><text x="208.87" y="324" font-size="9.5" font-weight="400" text-anchor="middle" fill="#656d76" font-family="ui-monospace,SFMono-Regular,Menlo,monospace">06/09</text><text x="259.83" y="324" font-size="9.5" font-weight="400" text-anchor="middle" fill="#656d76" font-family="ui-monospace,SFMono-Regular,Menlo,monospace">06/12</text><text x="310.78" y="324" font-size="9.5" font-weight="400" text-anchor="middle" fill="#656d76" font-family="ui-monospace,SFMono-Regular,Menlo,monospace">06/13</text><text x="361.74" y="324" font-size="9.5" font-weight="400" text-anchor="middle" fill="#656d76" font-family="ui-monospace,SFMono-Regular,Menlo,monospace">06/14</text><text x="412.7" y="324" font-size="9.5" font-weight="400" text-anchor="middle" fill="#656d76" font-family="ui-monospace,SFMono-Regular,Menlo,monospace">06/15</text><text x="463.65" y="324" font-size="9.5" font-weight="400" text-anchor="middle" fill="#656d76" font-family="ui-monospace,SFMono-Regular,Menlo,monospace">06/16</text><text x="514.61" y="324" font-size="9.5" font-weight="400" text-anchor="middle" fill="#656d76" font-family="ui-monospace,SFMono-Regular,Menlo,monospace">06/16</text><text x="565.57" y="324" font-size="9.5" font-weight="400" text-anchor="middle" fill="#656d76" font-family="ui-monospace,SFMono-Regular,Menlo,monospace">06/17</text><text x="616.52" y="324" font-size="9.5" font-weight="400" text-anchor="middle" fill="#656d76" font-family="ui-monospace,SFMono-Regular,Menlo,monospace">06/19</text><text x="642" y="324" font-size="9.5" font-weight="400" text-anchor="middle" fill="#656d76" font-family="ui-monospace,SFMono-Regular,Menlo,monospace">06/19</text><polyline fill="none" stroke="#E8835A" stroke-width="2.4" stroke-linejoin="round" stroke-linecap="round" points="56,229.15 68.74,232.31 81.48,238.94 94.22,244 106.96,235.49 119.7,232.81 132.43,250.28 145.17,243.38 157.91,241.66 170.65,231.14 196.13,234.04 208.87,244.32 221.61,228.71 234.35,246.08 247.09,242.18 259.83,235.58 272.57,242.32 285.3,244.55 298.04,246.98 310.78,240.71 323.52,250.83 336.26,244.26 349,241.33 361.74,245.63 374.48,245.02 387.22,240.82 399.96,243.78 412.7,243.28 425.43,240.2 438.17,242.69 450.91,215.59 463.65,241.79 476.39,238.64 489.13,243.45 501.87,243.86 514.61,234.8 527.35,244.51 540.09,244.64"></polyline><circle cx="56" cy="229.15" r="2.6" fill="#E8835A"></circle><circle cx="68.74" cy="232.31" r="2.6" fill="#E8835A"></circle><circle cx="81.48" cy="238.94" r="2.6" fill="#E8835A"></circle><circle cx="94.22" cy="244" r="2.6" fill="#E8835A"></circle><circle cx="106.96" cy="235.49" r="2.6" fill="#E8835A"></circle><circle cx="119.7" cy="232.81" r="2.6" fill="#E8835A"></circle><circle cx="132.43" cy="250.28" r="2.6" fill="#E8835A"></circle><circle cx="145.17" cy="243.38" r="2.6" fill="#E8835A"></circle><circle cx="157.91" cy="241.66" r="2.6" fill="#E8835A"></circle><circle cx="170.65" cy="231.14" r="2.6" fill="#E8835A"></circle><circle cx="196.13" cy="234.04" r="2.6" fill="#E8835A"></circle><circle cx="208.87" cy="244.32" r="2.6" fill="#E8835A"></circle><circle cx="221.61" cy="228.71" r="2.6" fill="#E8835A"></circle><circle cx="234.35" cy="246.08" r="2.6" fill="#E8835A"></circle><circle cx="247.09" cy="242.18" r="2.6" fill="#E8835A"></circle><circle cx="259.83" cy="235.58" r="2.6" fill="#E8835A"></circle><circle cx="272.57" cy="242.32" r="2.6" fill="#E8835A"></circle><circle cx="285.3" cy="244.55" r="2.6" fill="#E8835A"></circle><circle cx="298.04" cy="246.98" r="2.6" fill="#E8835A"></circle><circle cx="310.78" cy="240.71" r="2.6" fill="#E8835A"></circle><circle cx="323.52" cy="250.83" r="2.6" fill="#E8835A"></circle><circle cx="336.26" cy="244.26" r="2.6" fill="#E8835A"></circle><circle cx="349" cy="241.33" r="2.6" fill="#E8835A"></circle><circle cx="361.74" cy="245.63" r="2.6" fill="#E8835A"></circle><circle cx="374.48" cy="245.02" r="2.6" fill="#E8835A"></circle><circle cx="387.22" cy="240.82" r="2.6" fill="#E8835A"></circle><circle cx="399.96" cy="243.78" r="2.6" fill="#E8835A"></circle><circle cx="412.7" cy="243.28" r="2.6" fill="#E8835A"></circle><circle cx="425.43" cy="240.2" r="2.6" fill="#E8835A"></circle><circle cx="438.17" cy="242.69" r="2.6" fill="#E8835A"></circle><circle cx="450.91" cy="215.59" r="2.6" fill="#E8835A"></circle><circle cx="463.65" cy="241.79" r="2.6" fill="#E8835A"></circle><circle cx="476.39" cy="238.64" r="2.6" fill="#E8835A"></circle><circle cx="489.13" cy="243.45" r="2.6" fill="#E8835A"></circle><circle cx="501.87" cy="243.86" r="2.6" fill="#E8835A"></circle><circle cx="514.61" cy="234.8" r="2.6" fill="#E8835A"></circle><circle cx="527.35" cy="244.51" r="2.6" fill="#E8835A"></circle><circle cx="540.09" cy="244.64" r="2.6" fill="#E8835A"></circle><polyline fill="none" stroke="#6366F1" stroke-width="2.4" stroke-linejoin="round" stroke-linecap="round" points="68.74,247.24 81.48,242.4 94.22,249.98 106.96,230.48 119.7,260.21 132.43,260.34 145.17,270.44 157.91,248.92 170.65,245.19 183.39,247.83 196.13,256.22 208.87,248.72 221.61,261.47 234.35,243.58 247.09,210.49 259.83,266.33 272.57,232.33 285.3,232.27 298.04,199.16 310.78,237.91 323.52,252.97 336.26,266.11 349,215.25 361.74,265.97 374.48,258.25 387.22,265.82 399.96,246.69 412.7,244.53 438.17,240.91 450.91,255.51 463.65,252.51 476.39,237.2 489.13,258.24 501.87,235.84 514.61,252.87 527.35,243.73 540.09,249.01 565.57,263.05 578.3,262.95 591.04,250.85 603.78,238.76 616.52,245.84 629.26,240.49 642,244.58"></polyline><circle cx="68.74" cy="247.24" r="2.6" fill="#6366F1"></circle><circle cx="81.48" cy="242.4" r="2.6" fill="#6366F1"></circle><circle cx="94.22" cy="249.98" r="2.6" fill="#6366F1"></circle><circle cx="106.96" cy="230.48" r="2.6" fill="#6366F1"></circle><circle cx="119.7" cy="260.21" r="2.6" fill="#6366F1"></circle><circle cx="132.43" cy="260.34" r="2.6" fill="#6366F1"></circle><circle cx="145.17" cy="270.44" r="2.6" fill="#6366F1"></circle><circle cx="157.91" cy="248.92" r="2.6" fill="#6366F1"></circle><circle cx="170.65" cy="245.19" r="2.6" fill="#6366F1"></circle><circle cx="183.39" cy="247.83" r="2.6" fill="#6366F1"></circle><circle cx="196.13" cy="256.22" r="2.6" fill="#6366F1"></circle><circle cx="208.87" cy="248.72" r="2.6" fill="#6366F1"></circle><circle cx="221.61" cy="261.47" r="2.6" fill="#6366F1"></circle><circle cx="234.35" cy="243.58" r="2.6" fill="#6366F1"></circle><circle cx="247.09" cy="210.49" r="2.6" fill="#6366F1"></circle><circle cx="259.83" cy="266.33" r="2.6" fill="#6366F1"></circle><circle cx="272.57" cy="232.33" r="2.6" fill="#6366F1"></circle><circle cx="285.3" cy="232.27" r="2.6" fill="#6366F1"></circle><circle cx="298.04" cy="199.16" r="2.6" fill="#6366F1"></circle><circle cx="310.78" cy="237.91" r="2.6" fill="#6366F1"></circle><circle cx="323.52" cy="252.97" r="2.6" fill="#6366F1"></circle><circle cx="336.26" cy="266.11" r="2.6" fill="#6366F1"></circle><circle cx="349" cy="215.25" r="2.6" fill="#6366F1"></circle><circle cx="361.74" cy="265.97" r="2.6" fill="#6366F1"></circle><circle cx="374.48" cy="258.25" r="2.6" fill="#6366F1"></circle><circle cx="387.22" cy="265.82" r="2.6" fill="#6366F1"></circle><circle cx="399.96" cy="246.69" r="2.6" fill="#6366F1"></circle><circle cx="412.7" cy="244.53" r="2.6" fill="#6366F1"></circle><circle cx="438.17" cy="240.91" r="2.6" fill="#6366F1"></circle><circle cx="450.91" cy="255.51" r="2.6" fill="#6366F1"></circle><circle cx="463.65" cy="252.51" r="2.6" fill="#6366F1"></circle><circle cx="476.39" cy="237.2" r="2.6" fill="#6366F1"></circle><circle cx="489.13" cy="258.24" r="2.6" fill="#6366F1"></circle><circle cx="501.87" cy="235.84" r="2.6" fill="#6366F1"></circle><circle cx="514.61" cy="252.87" r="2.6" fill="#6366F1"></circle><circle cx="527.35" cy="243.73" r="2.6" fill="#6366F1"></circle><circle cx="540.09" cy="249.01" r="2.6" fill="#6366F1"></circle><circle cx="565.57" cy="263.05" r="2.6" fill="#6366F1"></circle><circle cx="578.3" cy="262.95" r="2.6" fill="#6366F1"></circle><circle cx="591.04" cy="250.85" r="2.6" fill="#6366F1"></circle><circle cx="603.78" cy="238.76" r="2.6" fill="#6366F1"></circle><circle cx="616.52" cy="245.84" r="2.6" fill="#6366F1"></circle><circle cx="629.26" cy="240.49" r="2.6" fill="#6366F1"></circle><circle cx="642" cy="244.58" r="2.6" fill="#6366F1"></circle><polyline fill="none" stroke="#2DA98C" stroke-width="2.4" stroke-linejoin="round" stroke-linecap="round" points="56,205.26 68.74,215.39 81.48,174.15 94.22,217.56 106.96,218.68 119.7,227.57 132.43,203.76 145.17,192.14 157.91,215.35 170.65,194.78 183.39,194.92 196.13,141.5 208.87,148.87 221.61,194.84 234.35,180.85 247.09,202.09 259.83,169.08 272.57,211.29 285.3,193.77 298.04,192.04 310.78,206.61 438.17,221.15 450.91,190.23 463.65,183.33 476.39,225.15 489.13,184.37 501.87,182.1 514.61,210.86 527.35,161.53 540.09,210.56 565.57,182.01 578.3,172.32 591.04,181.93 603.78,186.76 616.52,217.59 629.26,171.76 642,211.13"></polyline><circle cx="56" cy="205.26" r="2.6" fill="#2DA98C"></circle><circle cx="68.74" cy="215.39" r="2.6" fill="#2DA98C"></circle><circle cx="81.48" cy="174.15" r="2.6" fill="#2DA98C"></circle><circle cx="94.22" cy="217.56" r="2.6" fill="#2DA98C"></circle><circle cx="106.96" cy="218.68" r="2.6" fill="#2DA98C"></circle><circle cx="119.7" cy="227.57" r="2.6" fill="#2DA98C"></circle><circle cx="132.43" cy="203.76" r="2.6" fill="#2DA98C"></circle><circle cx="145.17" cy="192.14" r="2.6" fill="#2DA98C"></circle><circle cx="157.91" cy="215.35" r="2.6" fill="#2DA98C"></circle><circle cx="170.65" cy="194.78" r="2.6" fill="#2DA98C"></circle><circle cx="183.39" cy="194.92" r="2.6" fill="#2DA98C"></circle><circle cx="196.13" cy="141.5" r="2.6" fill="#2DA98C"></circle><circle cx="208.87" cy="148.87" r="2.6" fill="#2DA98C"></circle><circle cx="221.61" cy="194.84" r="2.6" fill="#2DA98C"></circle><circle cx="234.35" cy="180.85" r="2.6" fill="#2DA98C"></circle><circle cx="247.09" cy="202.09" r="2.6" fill="#2DA98C"></circle><circle cx="259.83" cy="169.08" r="2.6" fill="#2DA98C"></circle><circle cx="272.57" cy="211.29" r="2.6" fill="#2DA98C"></circle><circle cx="285.3" cy="193.77" r="2.6" fill="#2DA98C"></circle><circle cx="298.04" cy="192.04" r="2.6" fill="#2DA98C"></circle><circle cx="310.78" cy="206.61" r="2.6" fill="#2DA98C"></circle><circle cx="438.17" cy="221.15" r="2.6" fill="#2DA98C"></circle><circle cx="450.91" cy="190.23" r="2.6" fill="#2DA98C"></circle><circle cx="463.65" cy="183.33" r="2.6" fill="#2DA98C"></circle><circle cx="476.39" cy="225.15" r="2.6" fill="#2DA98C"></circle><circle cx="489.13" cy="184.37" r="2.6" fill="#2DA98C"></circle><circle cx="501.87" cy="182.1" r="2.6" fill="#2DA98C"></circle><circle cx="514.61" cy="210.86" r="2.6" fill="#2DA98C"></circle><circle cx="527.35" cy="161.53" r="2.6" fill="#2DA98C"></circle><circle cx="540.09" cy="210.56" r="2.6" fill="#2DA98C"></circle><circle cx="565.57" cy="182.01" r="2.6" fill="#2DA98C"></circle><circle cx="578.3" cy="172.32" r="2.6" fill="#2DA98C"></circle><circle cx="591.04" cy="181.93" r="2.6" fill="#2DA98C"></circle><circle cx="603.78" cy="186.76" r="2.6" fill="#2DA98C"></circle><circle cx="616.52" cy="217.59" r="2.6" fill="#2DA98C"></circle><circle cx="629.26" cy="171.76" r="2.6" fill="#2DA98C"></circle><circle cx="642" cy="211.13" r="2.6" fill="#2DA98C"></circle><polyline fill="none" stroke="#A371F7" stroke-width="2.4" stroke-linejoin="round" stroke-linecap="round" points="56,127.86 68.74,149.85 81.48,181.76 94.22,139.24 106.96,107.36 119.7,219.97 132.43,116.3 145.17,182.89 157.91,193.78 170.65,197.11 183.39,105.85 196.13,146.07 208.87,181.42 221.61,202.88 234.35,134.79 247.09,219.07 259.83,58.83 272.57,197.05 285.3,167.66 298.04,75.26 310.78,128.5 323.52,152.23 336.26,166.9 349,183.57 361.74,162.79 374.48,148.18 387.22,52.43 399.96,96.59 412.7,191.76 438.17,151.86 450.91,169.19 463.65,135.22 489.13,206.77 501.87,167.88 514.61,189.32 527.35,143.76 540.09,142.49 552.83,163.7 565.57,128.52 578.3,144.9 591.04,92.3 603.78,157.36 616.52,160.21 629.26,176.32 642,116.21"></polyline><circle cx="56" cy="127.86" r="2.6" fill="#A371F7"></circle><circle cx="68.74" cy="149.85" r="2.6" fill="#A371F7"></circle><circle cx="81.48" cy="181.76" r="2.6" fill="#A371F7"></circle><circle cx="94.22" cy="139.24" r="2.6" fill="#A371F7"></circle><circle cx="106.96" cy="107.36" r="2.6" fill="#A371F7"></circle><circle cx="119.7" cy="219.97" r="2.6" fill="#A371F7"></circle><circle cx="132.43" cy="116.3" r="2.6" fill="#A371F7"></circle><circle cx="145.17" cy="182.89" r="2.6" fill="#A371F7"></circle><circle cx="157.91" cy="193.78" r="2.6" fill="#A371F7"></circle><circle cx="170.65" cy="197.11" r="2.6" fill="#A371F7"></circle><circle cx="183.39" cy="105.85" r="2.6" fill="#A371F7"></circle><circle cx="196.13" cy="146.07" r="2.6" fill="#A371F7"></circle><circle cx="208.87" cy="181.42" r="2.6" fill="#A371F7"></circle><circle cx="221.61" cy="202.88" r="2.6" fill="#A371F7"></circle><circle cx="234.35" cy="134.79" r="2.6" fill="#A371F7"></circle><circle cx="247.09" cy="219.07" r="2.6" fill="#A371F7"></circle><circle cx="259.83" cy="58.83" r="2.6" fill="#A371F7"></circle><circle cx="272.57" cy="197.05" r="2.6" fill="#A371F7"></circle><circle cx="285.3" cy="167.66" r="2.6" fill="#A371F7"></circle><circle cx="298.04" cy="75.26" r="2.6" fill="#A371F7"></circle><circle cx="310.78" cy="128.5" r="2.6" fill="#A371F7"></circle><circle cx="323.52" cy="152.23" r="2.6" fill="#A371F7"></circle><circle cx="336.26" cy="166.9" r="2.6" fill="#A371F7"></circle><circle cx="349" cy="183.57" r="2.6" fill="#A371F7"></circle><circle cx="361.74" cy="162.79" r="2.6" fill="#A371F7"></circle><circle cx="374.48" cy="148.18" r="2.6" fill="#A371F7"></circle><circle cx="387.22" cy="52.43" r="2.6" fill="#A371F7"></circle><circle cx="399.96" cy="96.59" r="2.6" fill="#A371F7"></circle><circle cx="412.7" cy="191.76" r="2.6" fill="#A371F7"></circle><circle cx="438.17" cy="151.86" r="2.6" fill="#A371F7"></circle><circle cx="450.91" cy="169.19" r="2.6" fill="#A371F7"></circle><circle cx="463.65" cy="135.22" r="2.6" fill="#A371F7"></circle><circle cx="489.13" cy="206.77" r="2.6" fill="#A371F7"></circle><circle cx="501.87" cy="167.88" r="2.6" fill="#A371F7"></circle><circle cx="514.61" cy="189.32" r="2.6" fill="#A371F7"></circle><circle cx="527.35" cy="143.76" r="2.6" fill="#A371F7"></circle><circle cx="540.09" cy="142.49" r="2.6" fill="#A371F7"></circle><circle cx="552.83" cy="163.7" r="2.6" fill="#A371F7"></circle><circle cx="565.57" cy="128.52" r="2.6" fill="#A371F7"></circle><circle cx="578.3" cy="144.9" r="2.6" fill="#A371F7"></circle><circle cx="591.04" cy="92.3" r="2.6" fill="#A371F7"></circle><circle cx="603.78" cy="157.36" r="2.6" fill="#A371F7"></circle><circle cx="616.52" cy="160.21" r="2.6" fill="#A371F7"></circle><circle cx="629.26" cy="176.32" r="2.6" fill="#A371F7"></circle><circle cx="642" cy="116.21" r="2.6" fill="#A371F7"></circle><polyline fill="none" stroke="#F0A23B" stroke-width="2.4" stroke-linejoin="round" stroke-linecap="round" points="56,170.6 68.74,150.62 81.48,187.27 94.22,153.33 106.96,137.4 119.7,187.39 132.43,202.98 145.17,219.57 157.91,187.3 170.65,163.64 183.39,218.54 196.13,247.9 208.87,222.75 221.61,249.71 234.35,224.7 247.09,243.69 259.83,245.81 272.57,211.84 285.3,236.21 298.04,257.78 310.78,248.63 323.52,234.2 336.26,247.57 349,243.66 361.74,258.59 374.48,253.94 387.22,235.44 399.96,209.7 412.7,229.87 425.43,229.74 438.17,242.74 450.91,219.28 463.65,218.69 476.39,248.17 489.13,252.02 501.87,241.64 514.61,202.83 527.35,191.16 540.09,236.21 552.83,247.47 565.57,237.91 578.3,227.46 591.04,241.35 603.78,249.73 616.52,234.66 629.26,250 642,253.94"></polyline><circle cx="56" cy="170.6" r="2.6" fill="#F0A23B"></circle><circle cx="68.74" cy="150.62" r="2.6" fill="#F0A23B"></circle><circle cx="81.48" cy="187.27" r="2.6" fill="#F0A23B"></circle><circle cx="94.22" cy="153.33" r="2.6" fill="#F0A23B"></circle><circle cx="106.96" cy="137.4" r="2.6" fill="#F0A23B"></circle><circle cx="119.7" cy="187.39" r="2.6" fill="#F0A23B"></circle><circle cx="132.43" cy="202.98" r="2.6" fill="#F0A23B"></circle><circle cx="145.17" cy="219.57" r="2.6" fill="#F0A23B"></circle><circle cx="157.91" cy="187.3" r="2.6" fill="#F0A23B"></circle><circle cx="170.65" cy="163.64" r="2.6" fill="#F0A23B"></circle><circle cx="183.39" cy="218.54" r="2.6" fill="#F0A23B"></circle><circle cx="196.13" cy="247.9" r="2.6" fill="#F0A23B"></circle><circle cx="208.87" cy="222.75" r="2.6" fill="#F0A23B"></circle><circle cx="221.61" cy="249.71" r="2.6" fill="#F0A23B"></circle><circle cx="234.35" cy="224.7" r="2.6" fill="#F0A23B"></circle><circle cx="247.09" cy="243.69" r="2.6" fill="#F0A23B"></circle><circle cx="259.83" cy="245.81" r="2.6" fill="#F0A23B"></circle><circle cx="272.57" cy="211.84" r="2.6" fill="#F0A23B"></circle><circle cx="285.3" cy="236.21" r="2.6" fill="#F0A23B"></circle><circle cx="298.04" cy="257.78" r="2.6" fill="#F0A23B"></circle><circle cx="310.78" cy="248.63" r="2.6" fill="#F0A23B"></circle><circle cx="323.52" cy="234.2" r="2.6" fill="#F0A23B"></circle><circle cx="336.26" cy="247.57" r="2.6" fill="#F0A23B"></circle><circle cx="349" cy="243.66" r="2.6" fill="#F0A23B"></circle><circle cx="361.74" cy="258.59" r="2.6" fill="#F0A23B"></circle><circle cx="374.48" cy="253.94" r="2.6" fill="#F0A23B"></circle><circle cx="387.22" cy="235.44" r="2.6" fill="#F0A23B"></circle><circle cx="399.96" cy="209.7" r="2.6" fill="#F0A23B"></circle><circle cx="412.7" cy="229.87" r="2.6" fill="#F0A23B"></circle><circle cx="425.43" cy="229.74" r="2.6" fill="#F0A23B"></circle><circle cx="438.17" cy="242.74" r="2.6" fill="#F0A23B"></circle><circle cx="450.91" cy="219.28" r="2.6" fill="#F0A23B"></circle><circle cx="463.65" cy="218.69" r="2.6" fill="#F0A23B"></circle><circle cx="476.39" cy="248.17" r="2.6" fill="#F0A23B"></circle><circle cx="489.13" cy="252.02" r="2.6" fill="#F0A23B"></circle><circle cx="501.87" cy="241.64" r="2.6" fill="#F0A23B"></circle><circle cx="514.61" cy="202.83" r="2.6" fill="#F0A23B"></circle><circle cx="527.35" cy="191.16" r="2.6" fill="#F0A23B"></circle><circle cx="540.09" cy="236.21" r="2.6" fill="#F0A23B"></circle><circle cx="552.83" cy="247.47" r="2.6" fill="#F0A23B"></circle><circle cx="565.57" cy="237.91" r="2.6" fill="#F0A23B"></circle><circle cx="578.3" cy="227.46" r="2.6" fill="#F0A23B"></circle><circle cx="591.04" cy="241.35" r="2.6" fill="#F0A23B"></circle><circle cx="603.78" cy="249.73" r="2.6" fill="#F0A23B"></circle><circle cx="616.52" cy="234.66" r="2.6" fill="#F0A23B"></circle><circle cx="629.26" cy="250" r="2.6" fill="#F0A23B"></circle><circle cx="642" cy="253.94" r="2.6" fill="#F0A23B"></circle><polyline fill="none" stroke="#1F9CF0" stroke-width="2.4" stroke-linejoin="round" stroke-linecap="round" points="56,198.31 68.74,224.59 81.48,214.73 94.22,247.97 106.96,236.75 119.7,219.64 132.43,238.79 145.17,207.95 157.91,201.38 170.65,239.3 183.39,242.33 196.13,177.25 208.87,218.95 221.61,232.82 234.35,248.48 247.09,252.97 259.83,230.93 272.57,242.47 285.3,240.12 298.04,248.48 310.78,256.65 323.52,261.44 336.26,262.41 349,264.75 361.74,261.4 374.48,262.76 387.22,244.65 399.96,230.98 412.7,234.56 425.43,260.01 438.17,254.76 450.91,238.53 463.65,231.76 476.39,226.22 489.13,247.36 501.87,238.78 514.61,250.58 527.35,256.4 540.09,243.61 552.83,265.98 565.57,253.29 578.3,225.25 591.04,246.45 603.78,252.36 616.52,241.14 629.26,253.3 642,245.06"></polyline><circle cx="56" cy="198.31" r="2.6" fill="#1F9CF0"></circle><circle cx="68.74" cy="224.59" r="2.6" fill="#1F9CF0"></circle><circle cx="81.48" cy="214.73" r="2.6" fill="#1F9CF0"></circle><circle cx="94.22" cy="247.97" r="2.6" fill="#1F9CF0"></circle><circle cx="106.96" cy="236.75" r="2.6" fill="#1F9CF0"></circle><circle cx="119.7" cy="219.64" r="2.6" fill="#1F9CF0"></circle><circle cx="132.43" cy="238.79" r="2.6" fill="#1F9CF0"></circle><circle cx="145.17" cy="207.95" r="2.6" fill="#1F9CF0"></circle><circle cx="157.91" cy="201.38" r="2.6" fill="#1F9CF0"></circle><circle cx="170.65" cy="239.3" r="2.6" fill="#1F9CF0"></circle><circle cx="183.39" cy="242.33" r="2.6" fill="#1F9CF0"></circle><circle cx="196.13" cy="177.25" r="2.6" fill="#1F9CF0"></circle><circle cx="208.87" cy="218.95" r="2.6" fill="#1F9CF0"></circle><circle cx="221.61" cy="232.82" r="2.6" fill="#1F9CF0"></circle><circle cx="234.35" cy="248.48" r="2.6" fill="#1F9CF0"></circle><circle cx="247.09" cy="252.97" r="2.6" fill="#1F9CF0"></circle><circle cx="259.83" cy="230.93" r="2.6" fill="#1F9CF0"></circle><circle cx="272.57" cy="242.47" r="2.6" fill="#1F9CF0"></circle><circle cx="285.3" cy="240.12" r="2.6" fill="#1F9CF0"></circle><circle cx="298.04" cy="248.48" r="2.6" fill="#1F9CF0"></circle><circle cx="310.78" cy="256.65" r="2.6" fill="#1F9CF0"></circle><circle cx="323.52" cy="261.44" r="2.6" fill="#1F9CF0"></circle><circle cx="336.26" cy="262.41" r="2.6" fill="#1F9CF0"></circle><circle cx="349" cy="264.75" r="2.6" fill="#1F9CF0"></circle><circle cx="361.74" cy="261.4" r="2.6" fill="#1F9CF0"></circle><circle cx="374.48" cy="262.76" r="2.6" fill="#1F9CF0"></circle><circle cx="387.22" cy="244.65" r="2.6" fill="#1F9CF0"></circle><circle cx="399.96" cy="230.98" r="2.6" fill="#1F9CF0"></circle><circle cx="412.7" cy="234.56" r="2.6" fill="#1F9CF0"></circle><circle cx="425.43" cy="260.01" r="2.6" fill="#1F9CF0"></circle><circle cx="438.17" cy="254.76" r="2.6" fill="#1F9CF0"></circle><circle cx="450.91" cy="238.53" r="2.6" fill="#1F9CF0"></circle><circle cx="463.65" cy="231.76" r="2.6" fill="#1F9CF0"></circle><circle cx="476.39" cy="226.22" r="2.6" fill="#1F9CF0"></circle><circle cx="489.13" cy="247.36" r="2.6" fill="#1F9CF0"></circle><circle cx="501.87" cy="238.78" r="2.6" fill="#1F9CF0"></circle><circle cx="514.61" cy="250.58" r="2.6" fill="#1F9CF0"></circle><circle cx="527.35" cy="256.4" r="2.6" fill="#1F9CF0"></circle><circle cx="540.09" cy="243.61" r="2.6" fill="#1F9CF0"></circle><circle cx="552.83" cy="265.98" r="2.6" fill="#1F9CF0"></circle><circle cx="565.57" cy="253.29" r="2.6" fill="#1F9CF0"></circle><circle cx="578.3" cy="225.25" r="2.6" fill="#1F9CF0"></circle><circle cx="591.04" cy="246.45" r="2.6" fill="#1F9CF0"></circle><circle cx="603.78" cy="252.36" r="2.6" fill="#1F9CF0"></circle><circle cx="616.52" cy="241.14" r="2.6" fill="#1F9CF0"></circle><circle cx="629.26" cy="253.3" r="2.6" fill="#1F9CF0"></circle><circle cx="642" cy="245.06" r="2.6" fill="#1F9CF0"></circle><line x1="656" y1="27" x2="672" y2="27" stroke="#E8835A" stroke-width="3" stroke-linecap="round"></line><text x="678" y="30" font-size="11" font-weight="400" text-anchor="start" fill="#1f2328">anthropic</text><line x1="656" y1="47" x2="672" y2="47" stroke="#6366F1" stroke-width="3" stroke-linecap="round"></line><text x="678" y="50" font-size="11" font-weight="400" text-anchor="start" fill="#1f2328">deepseek</text><line x1="656" y1="67" x2="672" y2="67" stroke="#2DA98C" stroke-width="3" stroke-linecap="round"></line><text x="678" y="70" font-size="11" font-weight="400" text-anchor="start" fill="#1f2328">gemini</text><line x1="656" y1="87" x2="672" y2="87" stroke="#A371F7" stroke-width="3" stroke-linecap="round"></line><text x="678" y="90" font-size="11" font-weight="400" text-anchor="start" fill="#1f2328">llama</text><line x1="656" y1="107" x2="672" y2="107" stroke="#F0A23B" stroke-width="3" stroke-linecap="round"></line><text x="678" y="110" font-size="11" font-weight="400" text-anchor="start" fill="#1f2328">mistral</text><line x1="656" y1="127" x2="672" y2="127" stroke="#1F9CF0" stroke-width="3" stroke-linecap="round"></line><text x="678" y="130" font-size="11" font-weight="400" text-anchor="start" fill="#1f2328">openai</text></svg>
