<svg xmlns="http://www.w3.org/2000/svg" viewBox="0 0 600 300" width="600" height="300" role="img" aria-label="Avg LLM latency by provider over runs (s)"><text x="300.0" y="24" text-anchor="middle" font-family="system-ui, -apple-system, sans-serif" font-size="14" font-weight="600" fill="#333">Avg LLM latency by provider over runs (s)</text><line x1="60" y1="240.0" x2="480" y2="240.0" stroke="#eee" stroke-width="1"/><text x="54" y="244.0" text-anchor="end" font-family="system-ui, -apple-system, sans-serif" font-size="9" fill="#999">41.35</text><line x1="60" y1="140.0" x2="480" y2="140.0" stroke="#eee" stroke-width="1"/><text x="54" y="144.0" text-anchor="end" font-family="system-ui, -apple-system, sans-serif" font-size="9" fill="#999">168.1</text><line x1="60" y1="40.0" x2="480" y2="40.0" stroke="#eee" stroke-width="1"/><text x="54" y="44.0" text-anchor="end" font-family="system-ui, -apple-system, sans-serif" font-size="9" fill="#999">294.8</text><polyline fill="none" stroke="#4CAF50" stroke-width="2" points="60.0,173.8 76.2,197.9 92.3,188.9 108.5,219.4 124.6,209.1 140.8,193.4 156.9,211.0 173.1,182.7 189.2,176.6 205.4,211.4 221.5,214.2 237.7,154.5 253.8,192.8 270.0,205.5 286.2,219.9 302.3,224.0 318.5,203.8 334.6,214.3 350.8,212.2 366.9,219.9 383.1,227.4 399.2,231.8 415.4,232.6 431.5,234.8 447.7,231.7 463.8,233.0 480.0,216.3"/><circle cx="60.0" cy="173.8" r="3" fill="#4CAF50"/><circle cx="76.2" cy="197.9" r="3" fill="#4CAF50"/><circle cx="92.3" cy="188.9" r="3" fill="#4CAF50"/><circle cx="108.5" cy="219.4" r="3" fill="#4CAF50"/><circle cx="124.6" cy="209.1" r="3" fill="#4CAF50"/><circle cx="140.8" cy="193.4" r="3" fill="#4CAF50"/><circle cx="156.9" cy="211.0" r="3" fill="#4CAF50"/><circle cx="173.1" cy="182.7" r="3" fill="#4CAF50"/><circle cx="189.2" cy="176.6" r="3" fill="#4CAF50"/><circle cx="205.4" cy="211.4" r="3" fill="#4CAF50"/><circle cx="221.5" cy="214.2" r="3" fill="#4CAF50"/><circle cx="237.7" cy="154.5" r="3" fill="#4CAF50"/><circle cx="253.8" cy="192.8" r="3" fill="#4CAF50"/><circle cx="270.0" cy="205.5" r="3" fill="#4CAF50"/><circle cx="286.2" cy="219.9" r="3" fill="#4CAF50"/><circle cx="302.3" cy="224.0" r="3" fill="#4CAF50"/><circle cx="318.5" cy="203.8" r="3" fill="#4CAF50"/><circle cx="334.6" cy="214.3" r="3" fill="#4CAF50"/><circle cx="350.8" cy="212.2" r="3" fill="#4CAF50"/><circle cx="366.9" cy="219.9" r="3" fill="#4CAF50"/><circle cx="383.1" cy="227.4" r="3" fill="#4CAF50"/><circle cx="399.2" cy="231.8" r="3" fill="#4CAF50"/><circle cx="415.4" cy="232.6" r="3" fill="#4CAF50"/><circle cx="431.5" cy="234.8" r="3" fill="#4CAF50"/><circle cx="447.7" cy="231.7" r="3" fill="#4CAF50"/><circle cx="463.8" cy="233.0" r="3" fill="#4CAF50"/><circle cx="480.0" cy="216.3" r="3" fill="#4CAF50"/><rect x="490" y="44" width="10" height="10" fill="#4CAF50"/><text x="504" y="53" font-family="system-ui, -apple-system, sans-serif" font-size="10" fill="#333">openai</text><polyline fill="none" stroke="#2196F3" stroke-width="2" points="60.0,202.1 76.2,205.0 92.3,211.1 108.5,215.7 124.6,207.9 140.8,205.5 156.9,221.5 173.1,215.2 189.2,213.6 205.4,204.0 237.7,206.6 253.8,216.0 270.0,201.7 286.2,217.7 302.3,214.1 318.5,208.0 334.6,214.2 350.8,216.2 366.9,218.5 383.1,212.7 399.2,222.0 415.4,216.0 431.5,213.3 447.7,217.2 463.8,216.7 480.0,212.8"/><circle cx="60.0" cy="202.1" r="3" fill="#2196F3"/><circle cx="76.2" cy="205.0" r="3" fill="#2196F3"/><circle cx="92.3" cy="211.1" r="3" fill="#2196F3"/><circle cx="108.5" cy="215.7" r="3" fill="#2196F3"/><circle cx="124.6" cy="207.9" r="3" fill="#2196F3"/><circle cx="140.8" cy="205.5" r="3" fill="#2196F3"/><circle cx="156.9" cy="221.5" r="3" fill="#2196F3"/><circle cx="173.1" cy="215.2" r="3" fill="#2196F3"/><circle cx="189.2" cy="213.6" r="3" fill="#2196F3"/><circle cx="205.4" cy="204.0" r="3" fill="#2196F3"/><circle cx="237.7" cy="206.6" r="3" fill="#2196F3"/><circle cx="253.8" cy="216.0" r="3" fill="#2196F3"/><circle cx="270.0" cy="201.7" r="3" fill="#2196F3"/><circle cx="286.2" cy="217.7" r="3" fill="#2196F3"/><circle cx="302.3" cy="214.1" r="3" fill="#2196F3"/><circle cx="318.5" cy="208.0" r="3" fill="#2196F3"/><circle cx="334.6" cy="214.2" r="3" fill="#2196F3"/><circle cx="350.8" cy="216.2" r="3" fill="#2196F3"/><circle cx="366.9" cy="218.5" r="3" fill="#2196F3"/><circle cx="383.1" cy="212.7" r="3" fill="#2196F3"/><circle cx="399.2" cy="222.0" r="3" fill="#2196F3"/><circle cx="415.4" cy="216.0" r="3" fill="#2196F3"/><circle cx="431.5" cy="213.3" r="3" fill="#2196F3"/><circle cx="447.7" cy="217.2" r="3" fill="#2196F3"/><circle cx="463.8" cy="216.7" r="3" fill="#2196F3"/><circle cx="480.0" cy="212.8" r="3" fill="#2196F3"/><rect x="490" y="62" width="10" height="10" fill="#2196F3"/><text x="504" y="71" font-family="system-ui, -apple-system, sans-serif" font-size="10" fill="#333">anthropic</text><polyline fill="none" stroke="#FF9800" stroke-width="2" points="60.0,180.2 76.2,189.5 92.3,151.7 108.5,191.5 124.6,192.5 140.8,200.7 156.9,178.8 173.1,168.2 189.2,189.5 205.4,170.6 221.5,170.7 237.7,121.7 253.8,128.5 270.0,170.7 286.2,157.8 302.3,177.3 318.5,147.0 334.6,185.7 350.8,169.7 366.9,168.1 383.1,181.5"/><circle cx="60.0" cy="180.2" r="3" fill="#FF9800"/><circle cx="76.2" cy="189.5" r="3" fill="#FF9800"/><circle cx="92.3" cy="151.7" r="3" fill="#FF9800"/><circle cx="108.5" cy="191.5" r="3" fill="#FF9800"/><circle cx="124.6" cy="192.5" r="3" fill="#FF9800"/><circle cx="140.8" cy="200.7" r="3" fill="#FF9800"/><circle cx="156.9" cy="178.8" r="3" fill="#FF9800"/><circle cx="173.1" cy="168.2" r="3" fill="#FF9800"/><circle cx="189.2" cy="189.5" r="3" fill="#FF9800"/><circle cx="205.4" cy="170.6" r="3" fill="#FF9800"/><circle cx="221.5" cy="170.7" r="3" fill="#FF9800"/><circle cx="237.7" cy="121.7" r="3" fill="#FF9800"/><circle cx="253.8" cy="128.5" r="3" fill="#FF9800"/><circle cx="270.0" cy="170.7" r="3" fill="#FF9800"/><circle cx="286.2" cy="157.8" r="3" fill="#FF9800"/><circle cx="302.3" cy="177.3" r="3" fill="#FF9800"/><circle cx="318.5" cy="147.0" r="3" fill="#FF9800"/><circle cx="334.6" cy="185.7" r="3" fill="#FF9800"/><circle cx="350.8" cy="169.7" r="3" fill="#FF9800"/><circle cx="366.9" cy="168.1" r="3" fill="#FF9800"/><circle cx="383.1" cy="181.5" r="3" fill="#FF9800"/><rect x="490" y="80" width="10" height="10" fill="#FF9800"/><text x="504" y="89" font-family="system-ui, -apple-system, sans-serif" font-size="10" fill="#333">gemini</text><polyline fill="none" stroke="#E91E63" stroke-width="2" points="60.0,109.2 76.2,129.4 92.3,158.6 108.5,119.6 124.6,90.4 140.8,193.7 156.9,98.6 173.1,159.7 189.2,169.7 205.4,172.7 221.5,89.0 237.7,125.9 253.8,158.3 270.0,178.0 286.2,115.6 302.3,192.9 318.5,45.9 334.6,172.7 350.8,145.7 366.9,60.9 383.1,109.8 399.2,131.6 415.4,145.0 431.5,160.3 447.7,141.2 463.8,127.8 480.0,40.0"/><circle cx="60.0" cy="109.2" r="3" fill="#E91E63"/><circle cx="76.2" cy="129.4" r="3" fill="#E91E63"/><circle cx="92.3" cy="158.6" r="3" fill="#E91E63"/><circle cx="108.5" cy="119.6" r="3" fill="#E91E63"/><circle cx="124.6" cy="90.4" r="3" fill="#E91E63"/><circle cx="140.8" cy="193.7" r="3" fill="#E91E63"/><circle cx="156.9" cy="98.6" r="3" fill="#E91E63"/><circle cx="173.1" cy="159.7" r="3" fill="#E91E63"/><circle cx="189.2" cy="169.7" r="3" fill="#E91E63"/><circle cx="205.4" cy="172.7" r="3" fill="#E91E63"/><circle cx="221.5" cy="89.0" r="3" fill="#E91E63"/><circle cx="237.7" cy="125.9" r="3" fill="#E91E63"/><circle cx="253.8" cy="158.3" r="3" fill="#E91E63"/><circle cx="270.0" cy="178.0" r="3" fill="#E91E63"/><circle cx="286.2" cy="115.6" r="3" fill="#E91E63"/><circle cx="302.3" cy="192.9" r="3" fill="#E91E63"/><circle cx="318.5" cy="45.9" r="3" fill="#E91E63"/><circle cx="334.6" cy="172.7" r="3" fill="#E91E63"/><circle cx="350.8" cy="145.7" r="3" fill="#E91E63"/><circle cx="366.9" cy="60.9" r="3" fill="#E91E63"/><circle cx="383.1" cy="109.8" r="3" fill="#E91E63"/><circle cx="399.2" cy="131.6" r="3" fill="#E91E63"/><circle cx="415.4" cy="145.0" r="3" fill="#E91E63"/><circle cx="431.5" cy="160.3" r="3" fill="#E91E63"/><circle cx="447.7" cy="141.2" r="3" fill="#E91E63"/><circle cx="463.8" cy="127.8" r="3" fill="#E91E63"/><circle cx="480.0" cy="40.0" r="3" fill="#E91E63"/><rect x="490" y="98" width="10" height="10" fill="#E91E63"/><text x="504" y="107" font-family="system-ui, -apple-system, sans-serif" font-size="10" fill="#333">llama</text><polyline fill="none" stroke="#9C27B0" stroke-width="2" points="60.0,148.4 76.2,130.1 92.3,163.7 108.5,132.6 124.6,118.0 140.8,163.8 156.9,178.1 173.1,193.3 189.2,163.7 205.4,142.0 221.5,192.4 237.7,219.3 253.8,196.3 270.0,221.0 286.2,198.0 302.3,215.5 318.5,217.4 334.6,186.2 350.8,208.6 366.9,228.4 383.1,220.0 399.2,206.8 415.4,219.0 431.5,215.4 447.7,229.1 463.8,224.9 480.0,207.9"/><circle cx="60.0" cy="148.4" r="3" fill="#9C27B0"/><circle cx="76.2" cy="130.1" r="3" fill="#9C27B0"/><circle cx="92.3" cy="163.7" r="3" fill="#9C27B0"/><circle cx="108.5" cy="132.6" r="3" fill="#9C27B0"/><circle cx="124.6" cy="118.0" r="3" fill="#9C27B0"/><circle cx="140.8" cy="163.8" r="3" fill="#9C27B0"/><circle cx="156.9" cy="178.1" r="3" fill="#9C27B0"/><circle cx="173.1" cy="193.3" r="3" fill="#9C27B0"/><circle cx="189.2" cy="163.7" r="3" fill="#9C27B0"/><circle cx="205.4" cy="142.0" r="3" fill="#9C27B0"/><circle cx="221.5" cy="192.4" r="3" fill="#9C27B0"/><circle cx="237.7" cy="219.3" r="3" fill="#9C27B0"/><circle cx="253.8" cy="196.3" r="3" fill="#9C27B0"/><circle cx="270.0" cy="221.0" r="3" fill="#9C27B0"/><circle cx="286.2" cy="198.0" r="3" fill="#9C27B0"/><circle cx="302.3" cy="215.5" r="3" fill="#9C27B0"/><circle cx="318.5" cy="217.4" r="3" fill="#9C27B0"/><circle cx="334.6" cy="186.2" r="3" fill="#9C27B0"/><circle cx="350.8" cy="208.6" r="3" fill="#9C27B0"/><circle cx="366.9" cy="228.4" r="3" fill="#9C27B0"/><circle cx="383.1" cy="220.0" r="3" fill="#9C27B0"/><circle cx="399.2" cy="206.8" r="3" fill="#9C27B0"/><circle cx="415.4" cy="219.0" r="3" fill="#9C27B0"/><circle cx="431.5" cy="215.4" r="3" fill="#9C27B0"/><circle cx="447.7" cy="229.1" r="3" fill="#9C27B0"/><circle cx="463.8" cy="224.9" r="3" fill="#9C27B0"/><circle cx="480.0" cy="207.9" r="3" fill="#9C27B0"/><rect x="490" y="116" width="10" height="10" fill="#9C27B0"/><text x="504" y="125" font-family="system-ui, -apple-system, sans-serif" font-size="10" fill="#333">mistral</text><polyline fill="none" stroke="#00BCD4" stroke-width="2" points="76.2,218.7 92.3,214.3 108.5,221.2 124.6,203.3 140.8,230.6 156.9,230.7 173.1,240.0 189.2,220.3 205.4,216.8 221.5,219.3 237.7,227.0 253.8,220.1 270.0,231.8 286.2,215.4 302.3,185.0 318.5,236.2 334.6,205.0 350.8,205.0 366.9,174.6 383.1,210.2 399.2,224.0 415.4,236.0 431.5,189.4 447.7,235.9 463.8,228.8 480.0,235.8"/><circle cx="76.2" cy="218.7" r="3" fill="#00BCD4"/><circle cx="92.3" cy="214.3" r="3" fill="#00BCD4"/><circle cx="108.5" cy="221.2" r="3" fill="#00BCD4"/><circle cx="124.6" cy="203.3" r="3" fill="#00BCD4"/><circle cx="140.8" cy="230.6" r="3" fill="#00BCD4"/><circle cx="156.9" cy="230.7" r="3" fill="#00BCD4"/><circle cx="173.1" cy="240.0" r="3" fill="#00BCD4"/><circle cx="189.2" cy="220.3" r="3" fill="#00BCD4"/><circle cx="205.4" cy="216.8" r="3" fill="#00BCD4"/><circle cx="221.5" cy="219.3" r="3" fill="#00BCD4"/><circle cx="237.7" cy="227.0" r="3" fill="#00BCD4"/><circle cx="253.8" cy="220.1" r="3" fill="#00BCD4"/><circle cx="270.0" cy="231.8" r="3" fill="#00BCD4"/><circle cx="286.2" cy="215.4" r="3" fill="#00BCD4"/><circle cx="302.3" cy="185.0" r="3" fill="#00BCD4"/><circle cx="318.5" cy="236.2" r="3" fill="#00BCD4"/><circle cx="334.6" cy="205.0" r="3" fill="#00BCD4"/><circle cx="350.8" cy="205.0" r="3" fill="#00BCD4"/><circle cx="366.9" cy="174.6" r="3" fill="#00BCD4"/><circle cx="383.1" cy="210.2" r="3" fill="#00BCD4"/><circle cx="399.2" cy="224.0" r="3" fill="#00BCD4"/><circle cx="415.4" cy="236.0" r="3" fill="#00BCD4"/><circle cx="431.5" cy="189.4" r="3" fill="#00BCD4"/><circle cx="447.7" cy="235.9" r="3" fill="#00BCD4"/><circle cx="463.8" cy="228.8" r="3" fill="#00BCD4"/><circle cx="480.0" cy="235.8" r="3" fill="#00BCD4"/><rect x="490" y="134" width="10" height="10" fill="#00BCD4"/><text x="504" y="143" font-family="system-ui, -apple-system, sans-serif" font-size="10" fill="#333">deepseek</text><text x="60.0" y="256.0" text-anchor="middle" font-family="system-ui, -apple-system, sans-serif" font-size="9" fill="#666">33376499</text><text x="92.3" y="256.0" text-anchor="middle" font-family="system-ui, -apple-system, sans-serif" font-size="9" fill="#666">51938981</text><text x="124.6" y="256.0" text-anchor="middle" font-family="system-ui, -apple-system, sans-serif" font-size="9" fill="#666">54994841</text><text x="156.9" y="256.0" text-anchor="middle" font-family="system-ui, -apple-system, sans-serif" font-size="9" fill="#666">74446787</text><text x="189.2" y="256.0" text-anchor="middle" font-family="system-ui, -apple-system, sans-serif" font-size="9" fill="#666">75757458</text><text x="221.5" y="256.0" text-anchor="middle" font-family="system-ui, -apple-system, sans-serif" font-size="9" fill="#666">37885074</text><text x="253.8" y="256.0" text-anchor="middle" font-family="system-ui, -apple-system, sans-serif" font-size="9" fill="#666">41073326</text><text x="286.2" y="256.0" text-anchor="middle" font-family="system-ui, -apple-system, sans-serif" font-size="9" fill="#666">04094958</text><text x="318.5" y="256.0" text-anchor="middle" font-family="system-ui, -apple-system, sans-serif" font-size="9" fill="#666">12682497</text><text x="350.8" y="256.0" text-anchor="middle" font-family="system-ui, -apple-system, sans-serif" font-size="9" fill="#666">39004208</text><text x="383.1" y="256.0" text-anchor="middle" font-family="system-ui, -apple-system, sans-serif" font-size="9" fill="#666">68748512</text><text x="415.4" y="256.0" text-anchor="middle" font-family="system-ui, -apple-system, sans-serif" font-size="9" fill="#666">99652631</text><text x="447.7" y="256.0" text-anchor="middle" font-family="system-ui, -apple-system, sans-serif" font-size="9" fill="#666">10405855</text><text x="480.0" y="256.0" text-anchor="middle" font-family="system-ui, -apple-system, sans-serif" font-size="9" fill="#666">62366017</text></svg>
