<svg xmlns="http://www.w3.org/2000/svg" viewBox="0 0 760 348" width="760" height="348" role="img" aria-label="Average LLM latency by provider over runs — llama highest, deepseek lowest" font-family="-apple-system,BlinkMacSystemFont,'Segoe UI',system-ui,sans-serif"><line x1="56" y1="306" x2="642" y2="306" stroke="#30363d" stroke-width="1"></line><text x="46" y="310" font-size="9.5" font-weight="400" text-anchor="end" fill="#8b949e" font-family="ui-monospace,SFMono-Regular,Menlo,monospace">0.0s</text><line x1="56" y1="235" x2="642" y2="235" stroke="#30363d" stroke-width="1"></line><text x="46" y="239" font-size="9.5" font-weight="400" text-anchor="end" fill="#8b949e" font-family="ui-monospace,SFMono-Regular,Menlo,monospace">82.5s</text><line x1="56" y1="164" x2="642" y2="164" stroke="#30363d" stroke-width="1"></line><text x="46" y="168" font-size="9.5" font-weight="400" text-anchor="end" fill="#8b949e" font-family="ui-monospace,SFMono-Regular,Menlo,monospace">165.1s</text><line x1="56" y1="93" x2="642" y2="93" stroke="#30363d" stroke-width="1"></line><text x="46" y="97" font-size="9.5" font-weight="400" text-anchor="end" fill="#8b949e" font-family="ui-monospace,SFMono-Regular,Menlo,monospace">247.6s</text><line x1="56" y1="22" x2="642" y2="22" stroke="#30363d" stroke-width="1"></line><text x="46" y="26" font-size="9.5" font-weight="400" text-anchor="end" fill="#8b949e" font-family="ui-monospace,SFMono-Regular,Menlo,monospace">330.2s</text><text x="56" y="324" font-size="9.5" font-weight="400" text-anchor="middle" fill="#8b949e" font-family="ui-monospace,SFMono-Regular,Menlo,monospace">06/08</text><text x="111.81" y="324" font-size="9.5" font-weight="400" text-anchor="middle" fill="#8b949e" font-family="ui-monospace,SFMono-Regular,Menlo,monospace">06/08</text><text x="167.62" y="324" font-size="9.5" font-weight="400" text-anchor="middle" fill="#8b949e" font-family="ui-monospace,SFMono-Regular,Menlo,monospace">06/09</text><text x="223.43" y="324" font-size="9.5" font-weight="400" text-anchor="middle" fill="#8b949e" font-family="ui-monospace,SFMono-Regular,Menlo,monospace">06/12</text><text x="279.24" y="324" font-size="9.5" font-weight="400" text-anchor="middle" fill="#8b949e" font-family="ui-monospace,SFMono-Regular,Menlo,monospace">06/14</text><text x="335.05" y="324" font-size="9.5" font-weight="400" text-anchor="middle" fill="#8b949e" font-family="ui-monospace,SFMono-Regular,Menlo,monospace">06/15</text><text x="390.86" y="324" font-size="9.5" font-weight="400" text-anchor="middle" fill="#8b949e" font-family="ui-monospace,SFMono-Regular,Menlo,monospace">06/16</text><text x="446.67" y="324" font-size="9.5" font-weight="400" text-anchor="middle" fill="#8b949e" font-family="ui-monospace,SFMono-Regular,Menlo,monospace">06/18</text><text x="502.48" y="324" font-size="9.5" font-weight="400" text-anchor="middle" fill="#8b949e" font-family="ui-monospace,SFMono-Regular,Menlo,monospace">06/20</text><text x="558.29" y="324" font-size="9.5" font-weight="400" text-anchor="middle" fill="#8b949e" font-family="ui-monospace,SFMono-Regular,Menlo,monospace">06/21</text><text x="614.1" y="324" font-size="9.5" font-weight="400" text-anchor="middle" fill="#8b949e" font-family="ui-monospace,SFMono-Regular,Menlo,monospace">06/22</text><text x="642" y="324" font-size="9.5" font-weight="400" text-anchor="middle" fill="#8b949e" font-family="ui-monospace,SFMono-Regular,Menlo,monospace">06/23</text><polyline fill="none" stroke="#E8835A" stroke-width="2.4" stroke-linejoin="round" stroke-linecap="round" points="56,229.15 65.3,232.31 74.6,238.94 83.9,244 93.21,235.49 102.51,232.81 111.81,250.28 121.11,243.38 130.41,241.66 139.71,231.14 158.32,234.04 167.62,244.32 176.92,228.71 186.22,246.08 195.52,242.18 204.83,235.58 214.13,242.32 223.43,244.55 232.73,246.98 242.03,240.71 251.33,250.83 260.63,244.26 269.94,241.33 279.24,245.63 288.54,245.02 297.84,240.82 307.14,243.78 316.44,243.28 325.75,240.2 335.05,242.69 344.35,215.59 353.65,241.79 362.95,238.64 372.25,243.45 381.56,243.86 390.86,234.8 400.16,244.51 409.46,244.64"></polyline><circle cx="56" cy="229.15" r="2.6" fill="#E8835A"></circle><circle cx="65.3" cy="232.31" r="2.6" fill="#E8835A"></circle><circle cx="74.6" cy="238.94" r="2.6" fill="#E8835A"></circle><circle cx="83.9" cy="244" r="2.6" fill="#E8835A"></circle><circle cx="93.21" cy="235.49" r="2.6" fill="#E8835A"></circle><circle cx="102.51" cy="232.81" r="2.6" fill="#E8835A"></circle><circle cx="111.81" cy="250.28" r="2.6" fill="#E8835A"></circle><circle cx="121.11" cy="243.38" r="2.6" fill="#E8835A"></circle><circle cx="130.41" cy="241.66" r="2.6" fill="#E8835A"></circle><circle cx="139.71" cy="231.14" r="2.6" fill="#E8835A"></circle><circle cx="158.32" cy="234.04" r="2.6" fill="#E8835A"></circle><circle cx="167.62" cy="244.32" r="2.6" fill="#E8835A"></circle><circle cx="176.92" cy="228.71" r="2.6" fill="#E8835A"></circle><circle cx="186.22" cy="246.08" r="2.6" fill="#E8835A"></circle><circle cx="195.52" cy="242.18" r="2.6" fill="#E8835A"></circle><circle cx="204.83" cy="235.58" r="2.6" fill="#E8835A"></circle><circle cx="214.13" cy="242.32" r="2.6" fill="#E8835A"></circle><circle cx="223.43" cy="244.55" r="2.6" fill="#E8835A"></circle><circle cx="232.73" cy="246.98" r="2.6" fill="#E8835A"></circle><circle cx="242.03" cy="240.71" r="2.6" fill="#E8835A"></circle><circle cx="251.33" cy="250.83" r="2.6" fill="#E8835A"></circle><circle cx="260.63" cy="244.26" r="2.6" fill="#E8835A"></circle><circle cx="269.94" cy="241.33" r="2.6" fill="#E8835A"></circle><circle cx="279.24" cy="245.63" r="2.6" fill="#E8835A"></circle><circle cx="288.54" cy="245.02" r="2.6" fill="#E8835A"></circle><circle cx="297.84" cy="240.82" r="2.6" fill="#E8835A"></circle><circle cx="307.14" cy="243.78" r="2.6" fill="#E8835A"></circle><circle cx="316.44" cy="243.28" r="2.6" fill="#E8835A"></circle><circle cx="325.75" cy="240.2" r="2.6" fill="#E8835A"></circle><circle cx="335.05" cy="242.69" r="2.6" fill="#E8835A"></circle><circle cx="344.35" cy="215.59" r="2.6" fill="#E8835A"></circle><circle cx="353.65" cy="241.79" r="2.6" fill="#E8835A"></circle><circle cx="362.95" cy="238.64" r="2.6" fill="#E8835A"></circle><circle cx="372.25" cy="243.45" r="2.6" fill="#E8835A"></circle><circle cx="381.56" cy="243.86" r="2.6" fill="#E8835A"></circle><circle cx="390.86" cy="234.8" r="2.6" fill="#E8835A"></circle><circle cx="400.16" cy="244.51" r="2.6" fill="#E8835A"></circle><circle cx="409.46" cy="244.64" r="2.6" fill="#E8835A"></circle><polyline fill="none" stroke="#6366F1" stroke-width="2.4" stroke-linejoin="round" stroke-linecap="round" points="65.3,247.24 74.6,242.4 83.9,249.98 93.21,230.48 102.51,260.21 111.81,260.34 121.11,270.44 130.41,248.92 139.71,245.19 149.02,247.83 158.32,256.22 167.62,248.72 176.92,261.47 186.22,243.58 195.52,210.49 204.83,266.33 214.13,232.33 223.43,232.27 232.73,199.16 242.03,237.91 251.33,252.97 260.63,266.11 269.94,215.25 279.24,265.97 288.54,258.25 297.84,265.82 307.14,246.69 316.44,244.53 335.05,240.91 344.35,255.51 353.65,252.51 362.95,237.2 372.25,258.24 381.56,235.84 390.86,252.87 400.16,243.73 409.46,249.01 428.06,263.05 437.37,262.95 446.67,250.85 455.97,238.76 465.27,245.84 474.57,240.49 483.87,244.58 493.17,238.25 502.48,266.43 511.78,219.91 521.08,256.77 539.68,250.11 548.98,264.15 558.29,249.18 567.59,252.64 576.89,236.94 586.19,257.91 595.49,245.05 604.79,245.47 614.1,251.25 623.4,250.75 632.7,249.01 642,257.36"></polyline><circle cx="65.3" cy="247.24" r="2.6" fill="#6366F1"></circle><circle cx="74.6" cy="242.4" r="2.6" fill="#6366F1"></circle><circle cx="83.9" cy="249.98" r="2.6" fill="#6366F1"></circle><circle cx="93.21" cy="230.48" r="2.6" fill="#6366F1"></circle><circle cx="102.51" cy="260.21" r="2.6" fill="#6366F1"></circle><circle cx="111.81" cy="260.34" r="2.6" fill="#6366F1"></circle><circle cx="121.11" cy="270.44" r="2.6" fill="#6366F1"></circle><circle cx="130.41" cy="248.92" r="2.6" fill="#6366F1"></circle><circle cx="139.71" cy="245.19" r="2.6" fill="#6366F1"></circle><circle cx="149.02" cy="247.83" r="2.6" fill="#6366F1"></circle><circle cx="158.32" cy="256.22" r="2.6" fill="#6366F1"></circle><circle cx="167.62" cy="248.72" r="2.6" fill="#6366F1"></circle><circle cx="176.92" cy="261.47" r="2.6" fill="#6366F1"></circle><circle cx="186.22" cy="243.58" r="2.6" fill="#6366F1"></circle><circle cx="195.52" cy="210.49" r="2.6" fill="#6366F1"></circle><circle cx="204.83" cy="266.33" r="2.6" fill="#6366F1"></circle><circle cx="214.13" cy="232.33" r="2.6" fill="#6366F1"></circle><circle cx="223.43" cy="232.27" r="2.6" fill="#6366F1"></circle><circle cx="232.73" cy="199.16" r="2.6" fill="#6366F1"></circle><circle cx="242.03" cy="237.91" r="2.6" fill="#6366F1"></circle><circle cx="251.33" cy="252.97" r="2.6" fill="#6366F1"></circle><circle cx="260.63" cy="266.11" r="2.6" fill="#6366F1"></circle><circle cx="269.94" cy="215.25" r="2.6" fill="#6366F1"></circle><circle cx="279.24" cy="265.97" r="2.6" fill="#6366F1"></circle><circle cx="288.54" cy="258.25" r="2.6" fill="#6366F1"></circle><circle cx="297.84" cy="265.82" r="2.6" fill="#6366F1"></circle><circle cx="307.14" cy="246.69" r="2.6" fill="#6366F1"></circle><circle cx="316.44" cy="244.53" r="2.6" fill="#6366F1"></circle><circle cx="335.05" cy="240.91" r="2.6" fill="#6366F1"></circle><circle cx="344.35" cy="255.51" r="2.6" fill="#6366F1"></circle><circle cx="353.65" cy="252.51" r="2.6" fill="#6366F1"></circle><circle cx="362.95" cy="237.2" r="2.6" fill="#6366F1"></circle><circle cx="372.25" cy="258.24" r="2.6" fill="#6366F1"></circle><circle cx="381.56" cy="235.84" r="2.6" fill="#6366F1"></circle><circle cx="390.86" cy="252.87" r="2.6" fill="#6366F1"></circle><circle cx="400.16" cy="243.73" r="2.6" fill="#6366F1"></circle><circle cx="409.46" cy="249.01" r="2.6" fill="#6366F1"></circle><circle cx="428.06" cy="263.05" r="2.6" fill="#6366F1"></circle><circle cx="437.37" cy="262.95" r="2.6" fill="#6366F1"></circle><circle cx="446.67" cy="250.85" r="2.6" fill="#6366F1"></circle><circle cx="455.97" cy="238.76" r="2.6" fill="#6366F1"></circle><circle cx="465.27" cy="245.84" r="2.6" fill="#6366F1"></circle><circle cx="474.57" cy="240.49" r="2.6" fill="#6366F1"></circle><circle cx="483.87" cy="244.58" r="2.6" fill="#6366F1"></circle><circle cx="493.17" cy="238.25" r="2.6" fill="#6366F1"></circle><circle cx="502.48" cy="266.43" r="2.6" fill="#6366F1"></circle><circle cx="511.78" cy="219.91" r="2.6" fill="#6366F1"></circle><circle cx="521.08" cy="256.77" r="2.6" fill="#6366F1"></circle><circle cx="539.68" cy="250.11" r="2.6" fill="#6366F1"></circle><circle cx="548.98" cy="264.15" r="2.6" fill="#6366F1"></circle><circle cx="558.29" cy="249.18" r="2.6" fill="#6366F1"></circle><circle cx="567.59" cy="252.64" r="2.6" fill="#6366F1"></circle><circle cx="576.89" cy="236.94" r="2.6" fill="#6366F1"></circle><circle cx="586.19" cy="257.91" r="2.6" fill="#6366F1"></circle><circle cx="595.49" cy="245.05" r="2.6" fill="#6366F1"></circle><circle cx="604.79" cy="245.47" r="2.6" fill="#6366F1"></circle><circle cx="614.1" cy="251.25" r="2.6" fill="#6366F1"></circle><circle cx="623.4" cy="250.75" r="2.6" fill="#6366F1"></circle><circle cx="632.7" cy="249.01" r="2.6" fill="#6366F1"></circle><circle cx="642" cy="257.36" r="2.6" fill="#6366F1"></circle><polyline fill="none" stroke="#2DA98C" stroke-width="2.4" stroke-linejoin="round" stroke-linecap="round" points="56,205.26 65.3,215.39 74.6,174.15 83.9,217.56 93.21,218.68 102.51,227.57 111.81,203.76 121.11,192.14 130.41,215.35 139.71,194.78 149.02,194.92 158.32,141.5 167.62,148.87 176.92,194.84 186.22,180.85 195.52,202.09 204.83,169.08 214.13,211.29 223.43,193.77 232.73,192.04 242.03,206.61 335.05,221.15 344.35,190.23 353.65,183.33 362.95,225.15 372.25,184.37 381.56,182.1 390.86,210.86 400.16,161.53 409.46,210.56 428.06,182.01 437.37,172.32 446.67,181.93 455.97,186.76 465.27,217.59 474.57,171.76 483.87,211.13 493.17,171.55 502.48,181.17 511.78,189.96 521.08,191.02 539.68,212.98 548.98,170.09 558.29,127.97 567.59,222.7 576.89,200.4 586.19,155.75 595.49,184.88 604.79,176.48 614.1,167.89 623.4,205.24 632.7,167.24 642,154.57"></polyline><circle cx="56" cy="205.26" r="2.6" fill="#2DA98C"></circle><circle cx="65.3" cy="215.39" r="2.6" fill="#2DA98C"></circle><circle cx="74.6" cy="174.15" r="2.6" fill="#2DA98C"></circle><circle cx="83.9" cy="217.56" r="2.6" fill="#2DA98C"></circle><circle cx="93.21" cy="218.68" r="2.6" fill="#2DA98C"></circle><circle cx="102.51" cy="227.57" r="2.6" fill="#2DA98C"></circle><circle cx="111.81" cy="203.76" r="2.6" fill="#2DA98C"></circle><circle cx="121.11" cy="192.14" r="2.6" fill="#2DA98C"></circle><circle cx="130.41" cy="215.35" r="2.6" fill="#2DA98C"></circle><circle cx="139.71" cy="194.78" r="2.6" fill="#2DA98C"></circle><circle cx="149.02" cy="194.92" r="2.6" fill="#2DA98C"></circle><circle cx="158.32" cy="141.5" r="2.6" fill="#2DA98C"></circle><circle cx="167.62" cy="148.87" r="2.6" fill="#2DA98C"></circle><circle cx="176.92" cy="194.84" r="2.6" fill="#2DA98C"></circle><circle cx="186.22" cy="180.85" r="2.6" fill="#2DA98C"></circle><circle cx="195.52" cy="202.09" r="2.6" fill="#2DA98C"></circle><circle cx="204.83" cy="169.08" r="2.6" fill="#2DA98C"></circle><circle cx="214.13" cy="211.29" r="2.6" fill="#2DA98C"></circle><circle cx="223.43" cy="193.77" r="2.6" fill="#2DA98C"></circle><circle cx="232.73" cy="192.04" r="2.6" fill="#2DA98C"></circle><circle cx="242.03" cy="206.61" r="2.6" fill="#2DA98C"></circle><circle cx="335.05" cy="221.15" r="2.6" fill="#2DA98C"></circle><circle cx="344.35" cy="190.23" r="2.6" fill="#2DA98C"></circle><circle cx="353.65" cy="183.33" r="2.6" fill="#2DA98C"></circle><circle cx="362.95" cy="225.15" r="2.6" fill="#2DA98C"></circle><circle cx="372.25" cy="184.37" r="2.6" fill="#2DA98C"></circle><circle cx="381.56" cy="182.1" r="2.6" fill="#2DA98C"></circle><circle cx="390.86" cy="210.86" r="2.6" fill="#2DA98C"></circle><circle cx="400.16" cy="161.53" r="2.6" fill="#2DA98C"></circle><circle cx="409.46" cy="210.56" r="2.6" fill="#2DA98C"></circle><circle cx="428.06" cy="182.01" r="2.6" fill="#2DA98C"></circle><circle cx="437.37" cy="172.32" r="2.6" fill="#2DA98C"></circle><circle cx="446.67" cy="181.93" r="2.6" fill="#2DA98C"></circle><circle cx="455.97" cy="186.76" r="2.6" fill="#2DA98C"></circle><circle cx="465.27" cy="217.59" r="2.6" fill="#2DA98C"></circle><circle cx="474.57" cy="171.76" r="2.6" fill="#2DA98C"></circle><circle cx="483.87" cy="211.13" r="2.6" fill="#2DA98C"></circle><circle cx="493.17" cy="171.55" r="2.6" fill="#2DA98C"></circle><circle cx="502.48" cy="181.17" r="2.6" fill="#2DA98C"></circle><circle cx="511.78" cy="189.96" r="2.6" fill="#2DA98C"></circle><circle cx="521.08" cy="191.02" r="2.6" fill="#2DA98C"></circle><circle cx="539.68" cy="212.98" r="2.6" fill="#2DA98C"></circle><circle cx="548.98" cy="170.09" r="2.6" fill="#2DA98C"></circle><circle cx="558.29" cy="127.97" r="2.6" fill="#2DA98C"></circle><circle cx="567.59" cy="222.7" r="2.6" fill="#2DA98C"></circle><circle cx="576.89" cy="200.4" r="2.6" fill="#2DA98C"></circle><circle cx="586.19" cy="155.75" r="2.6" fill="#2DA98C"></circle><circle cx="595.49" cy="184.88" r="2.6" fill="#2DA98C"></circle><circle cx="604.79" cy="176.48" r="2.6" fill="#2DA98C"></circle><circle cx="614.1" cy="167.89" r="2.6" fill="#2DA98C"></circle><circle cx="623.4" cy="205.24" r="2.6" fill="#2DA98C"></circle><circle cx="632.7" cy="167.24" r="2.6" fill="#2DA98C"></circle><circle cx="642" cy="154.57" r="2.6" fill="#2DA98C"></circle><polyline fill="none" stroke="#A371F7" stroke-width="2.4" stroke-linejoin="round" stroke-linecap="round" points="56,127.86 65.3,149.85 74.6,181.76 83.9,139.24 93.21,107.36 102.51,219.97 111.81,116.3 121.11,182.89 130.41,193.78 139.71,197.11 149.02,105.85 158.32,146.07 167.62,181.42 176.92,202.88 186.22,134.79 195.52,219.07 204.83,58.83 214.13,197.05 223.43,167.66 232.73,75.26 242.03,128.5 251.33,152.23 260.63,166.9 269.94,183.57 279.24,162.79 288.54,148.18 297.84,52.43 307.14,96.59 316.44,191.76 335.05,151.86 344.35,169.19 353.65,135.22 372.25,206.77 381.56,167.88 390.86,189.32 400.16,143.76 409.46,142.49 418.76,163.7 428.06,128.52 437.37,144.9 446.67,92.3 455.97,157.36 465.27,160.21 474.57,176.32 483.87,116.21 493.17,165.98 502.48,136.47 521.08,155.12 539.68,134.62 558.29,114.6 567.59,127.72 576.89,219.84 586.19,170.06 595.49,154.88 604.79,189.66 614.1,162.21 623.4,183.03 632.7,165.52 642,176.75"></polyline><circle cx="56" cy="127.86" r="2.6" fill="#A371F7"></circle><circle cx="65.3" cy="149.85" r="2.6" fill="#A371F7"></circle><circle cx="74.6" cy="181.76" r="2.6" fill="#A371F7"></circle><circle cx="83.9" cy="139.24" r="2.6" fill="#A371F7"></circle><circle cx="93.21" cy="107.36" r="2.6" fill="#A371F7"></circle><circle cx="102.51" cy="219.97" r="2.6" fill="#A371F7"></circle><circle cx="111.81" cy="116.3" r="2.6" fill="#A371F7"></circle><circle cx="121.11" cy="182.89" r="2.6" fill="#A371F7"></circle><circle cx="130.41" cy="193.78" r="2.6" fill="#A371F7"></circle><circle cx="139.71" cy="197.11" r="2.6" fill="#A371F7"></circle><circle cx="149.02" cy="105.85" r="2.6" fill="#A371F7"></circle><circle cx="158.32" cy="146.07" r="2.6" fill="#A371F7"></circle><circle cx="167.62" cy="181.42" r="2.6" fill="#A371F7"></circle><circle cx="176.92" cy="202.88" r="2.6" fill="#A371F7"></circle><circle cx="186.22" cy="134.79" r="2.6" fill="#A371F7"></circle><circle cx="195.52" cy="219.07" r="2.6" fill="#A371F7"></circle><circle cx="204.83" cy="58.83" r="2.6" fill="#A371F7"></circle><circle cx="214.13" cy="197.05" r="2.6" fill="#A371F7"></circle><circle cx="223.43" cy="167.66" r="2.6" fill="#A371F7"></circle><circle cx="232.73" cy="75.26" r="2.6" fill="#A371F7"></circle><circle cx="242.03" cy="128.5" r="2.6" fill="#A371F7"></circle><circle cx="251.33" cy="152.23" r="2.6" fill="#A371F7"></circle><circle cx="260.63" cy="166.9" r="2.6" fill="#A371F7"></circle><circle cx="269.94" cy="183.57" r="2.6" fill="#A371F7"></circle><circle cx="279.24" cy="162.79" r="2.6" fill="#A371F7"></circle><circle cx="288.54" cy="148.18" r="2.6" fill="#A371F7"></circle><circle cx="297.84" cy="52.43" r="2.6" fill="#A371F7"></circle><circle cx="307.14" cy="96.59" r="2.6" fill="#A371F7"></circle><circle cx="316.44" cy="191.76" r="2.6" fill="#A371F7"></circle><circle cx="335.05" cy="151.86" r="2.6" fill="#A371F7"></circle><circle cx="344.35" cy="169.19" r="2.6" fill="#A371F7"></circle><circle cx="353.65" cy="135.22" r="2.6" fill="#A371F7"></circle><circle cx="372.25" cy="206.77" r="2.6" fill="#A371F7"></circle><circle cx="381.56" cy="167.88" r="2.6" fill="#A371F7"></circle><circle cx="390.86" cy="189.32" r="2.6" fill="#A371F7"></circle><circle cx="400.16" cy="143.76" r="2.6" fill="#A371F7"></circle><circle cx="409.46" cy="142.49" r="2.6" fill="#A371F7"></circle><circle cx="418.76" cy="163.7" r="2.6" fill="#A371F7"></circle><circle cx="428.06" cy="128.52" r="2.6" fill="#A371F7"></circle><circle cx="437.37" cy="144.9" r="2.6" fill="#A371F7"></circle><circle cx="446.67" cy="92.3" r="2.6" fill="#A371F7"></circle><circle cx="455.97" cy="157.36" r="2.6" fill="#A371F7"></circle><circle cx="465.27" cy="160.21" r="2.6" fill="#A371F7"></circle><circle cx="474.57" cy="176.32" r="2.6" fill="#A371F7"></circle><circle cx="483.87" cy="116.21" r="2.6" fill="#A371F7"></circle><circle cx="493.17" cy="165.98" r="2.6" fill="#A371F7"></circle><circle cx="502.48" cy="136.47" r="2.6" fill="#A371F7"></circle><circle cx="521.08" cy="155.12" r="2.6" fill="#A371F7"></circle><circle cx="539.68" cy="134.62" r="2.6" fill="#A371F7"></circle><circle cx="558.29" cy="114.6" r="2.6" fill="#A371F7"></circle><circle cx="567.59" cy="127.72" r="2.6" fill="#A371F7"></circle><circle cx="576.89" cy="219.84" r="2.6" fill="#A371F7"></circle><circle cx="586.19" cy="170.06" r="2.6" fill="#A371F7"></circle><circle cx="595.49" cy="154.88" r="2.6" fill="#A371F7"></circle><circle cx="604.79" cy="189.66" r="2.6" fill="#A371F7"></circle><circle cx="614.1" cy="162.21" r="2.6" fill="#A371F7"></circle><circle cx="623.4" cy="183.03" r="2.6" fill="#A371F7"></circle><circle cx="632.7" cy="165.52" r="2.6" fill="#A371F7"></circle><circle cx="642" cy="176.75" r="2.6" fill="#A371F7"></circle><polyline fill="none" stroke="#F0A23B" stroke-width="2.4" stroke-linejoin="round" stroke-linecap="round" points="56,170.6 65.3,150.62 74.6,187.27 83.9,153.33 93.21,137.4 102.51,187.39 111.81,202.98 121.11,219.57 130.41,187.3 139.71,163.64 149.02,218.54 158.32,247.9 167.62,222.75 176.92,249.71 186.22,224.7 195.52,243.69 204.83,245.81 214.13,211.84 223.43,236.21 232.73,257.78 242.03,248.63 251.33,234.2 260.63,247.57 269.94,243.66 279.24,258.59 288.54,253.94 297.84,235.44 307.14,209.7 316.44,229.87 325.75,229.74 335.05,242.74 344.35,219.28 353.65,218.69 362.95,248.17 372.25,252.02 381.56,241.64 390.86,202.83 400.16,191.16 409.46,236.21 418.76,247.47 428.06,237.91 437.37,227.46 446.67,241.35 455.97,249.73 465.27,234.66 474.57,250 483.87,253.94 493.17,252.42 502.48,245.42 511.78,237.98 521.08,238.85 539.68,257.8 548.98,233.33 558.29,238.96 567.59,252.16 576.89,246.34 586.19,221.3 595.49,228.03 604.79,249.57 614.1,236.95 623.4,243.86 632.7,246.88 642,238.45"></polyline><circle cx="56" cy="170.6" r="2.6" fill="#F0A23B"></circle><circle cx="65.3" cy="150.62" r="2.6" fill="#F0A23B"></circle><circle cx="74.6" cy="187.27" r="2.6" fill="#F0A23B"></circle><circle cx="83.9" cy="153.33" r="2.6" fill="#F0A23B"></circle><circle cx="93.21" cy="137.4" r="2.6" fill="#F0A23B"></circle><circle cx="102.51" cy="187.39" r="2.6" fill="#F0A23B"></circle><circle cx="111.81" cy="202.98" r="2.6" fill="#F0A23B"></circle><circle cx="121.11" cy="219.57" r="2.6" fill="#F0A23B"></circle><circle cx="130.41" cy="187.3" r="2.6" fill="#F0A23B"></circle><circle cx="139.71" cy="163.64" r="2.6" fill="#F0A23B"></circle><circle cx="149.02" cy="218.54" r="2.6" fill="#F0A23B"></circle><circle cx="158.32" cy="247.9" r="2.6" fill="#F0A23B"></circle><circle cx="167.62" cy="222.75" r="2.6" fill="#F0A23B"></circle><circle cx="176.92" cy="249.71" r="2.6" fill="#F0A23B"></circle><circle cx="186.22" cy="224.7" r="2.6" fill="#F0A23B"></circle><circle cx="195.52" cy="243.69" r="2.6" fill="#F0A23B"></circle><circle cx="204.83" cy="245.81" r="2.6" fill="#F0A23B"></circle><circle cx="214.13" cy="211.84" r="2.6" fill="#F0A23B"></circle><circle cx="223.43" cy="236.21" r="2.6" fill="#F0A23B"></circle><circle cx="232.73" cy="257.78" r="2.6" fill="#F0A23B"></circle><circle cx="242.03" cy="248.63" r="2.6" fill="#F0A23B"></circle><circle cx="251.33" cy="234.2" r="2.6" fill="#F0A23B"></circle><circle cx="260.63" cy="247.57" r="2.6" fill="#F0A23B"></circle><circle cx="269.94" cy="243.66" r="2.6" fill="#F0A23B"></circle><circle cx="279.24" cy="258.59" r="2.6" fill="#F0A23B"></circle><circle cx="288.54" cy="253.94" r="2.6" fill="#F0A23B"></circle><circle cx="297.84" cy="235.44" r="2.6" fill="#F0A23B"></circle><circle cx="307.14" cy="209.7" r="2.6" fill="#F0A23B"></circle><circle cx="316.44" cy="229.87" r="2.6" fill="#F0A23B"></circle><circle cx="325.75" cy="229.74" r="2.6" fill="#F0A23B"></circle><circle cx="335.05" cy="242.74" r="2.6" fill="#F0A23B"></circle><circle cx="344.35" cy="219.28" r="2.6" fill="#F0A23B"></circle><circle cx="353.65" cy="218.69" r="2.6" fill="#F0A23B"></circle><circle cx="362.95" cy="248.17" r="2.6" fill="#F0A23B"></circle><circle cx="372.25" cy="252.02" r="2.6" fill="#F0A23B"></circle><circle cx="381.56" cy="241.64" r="2.6" fill="#F0A23B"></circle><circle cx="390.86" cy="202.83" r="2.6" fill="#F0A23B"></circle><circle cx="400.16" cy="191.16" r="2.6" fill="#F0A23B"></circle><circle cx="409.46" cy="236.21" r="2.6" fill="#F0A23B"></circle><circle cx="418.76" cy="247.47" r="2.6" fill="#F0A23B"></circle><circle cx="428.06" cy="237.91" r="2.6" fill="#F0A23B"></circle><circle cx="437.37" cy="227.46" r="2.6" fill="#F0A23B"></circle><circle cx="446.67" cy="241.35" r="2.6" fill="#F0A23B"></circle><circle cx="455.97" cy="249.73" r="2.6" fill="#F0A23B"></circle><circle cx="465.27" cy="234.66" r="2.6" fill="#F0A23B"></circle><circle cx="474.57" cy="250" r="2.6" fill="#F0A23B"></circle><circle cx="483.87" cy="253.94" r="2.6" fill="#F0A23B"></circle><circle cx="493.17" cy="252.42" r="2.6" fill="#F0A23B"></circle><circle cx="502.48" cy="245.42" r="2.6" fill="#F0A23B"></circle><circle cx="511.78" cy="237.98" r="2.6" fill="#F0A23B"></circle><circle cx="521.08" cy="238.85" r="2.6" fill="#F0A23B"></circle><circle cx="539.68" cy="257.8" r="2.6" fill="#F0A23B"></circle><circle cx="548.98" cy="233.33" r="2.6" fill="#F0A23B"></circle><circle cx="558.29" cy="238.96" r="2.6" fill="#F0A23B"></circle><circle cx="567.59" cy="252.16" r="2.6" fill="#F0A23B"></circle><circle cx="576.89" cy="246.34" r="2.6" fill="#F0A23B"></circle><circle cx="586.19" cy="221.3" r="2.6" fill="#F0A23B"></circle><circle cx="595.49" cy="228.03" r="2.6" fill="#F0A23B"></circle><circle cx="604.79" cy="249.57" r="2.6" fill="#F0A23B"></circle><circle cx="614.1" cy="236.95" r="2.6" fill="#F0A23B"></circle><circle cx="623.4" cy="243.86" r="2.6" fill="#F0A23B"></circle><circle cx="632.7" cy="246.88" r="2.6" fill="#F0A23B"></circle><circle cx="642" cy="238.45" r="2.6" fill="#F0A23B"></circle><polyline fill="none" stroke="#1F9CF0" stroke-width="2.4" stroke-linejoin="round" stroke-linecap="round" points="56,198.31 65.3,224.59 74.6,214.73 83.9,247.97 93.21,236.75 102.51,219.64 111.81,238.79 121.11,207.95 130.41,201.38 139.71,239.3 149.02,242.33 158.32,177.25 167.62,218.95 176.92,232.82 186.22,248.48 195.52,252.97 204.83,230.93 214.13,242.47 223.43,240.12 232.73,248.48 242.03,256.65 251.33,261.44 260.63,262.41 269.94,264.75 279.24,261.4 288.54,262.76 297.84,244.65 307.14,230.98 316.44,234.56 325.75,260.01 335.05,254.76 344.35,238.53 353.65,231.76 362.95,226.22 372.25,247.36 381.56,238.78 390.86,250.58 400.16,256.4 409.46,243.61 418.76,265.98 428.06,253.29 437.37,225.25 446.67,246.45 455.97,252.36 465.27,241.14 474.57,253.3 483.87,245.06 493.17,205.73 502.48,260.99 511.78,265.11 521.08,263.66 530.38,270.45 539.68,265.53 548.98,248.25 558.29,259.3 567.59,255.01 642,259.54"></polyline><circle cx="56" cy="198.31" r="2.6" fill="#1F9CF0"></circle><circle cx="65.3" cy="224.59" r="2.6" fill="#1F9CF0"></circle><circle cx="74.6" cy="214.73" r="2.6" fill="#1F9CF0"></circle><circle cx="83.9" cy="247.97" r="2.6" fill="#1F9CF0"></circle><circle cx="93.21" cy="236.75" r="2.6" fill="#1F9CF0"></circle><circle cx="102.51" cy="219.64" r="2.6" fill="#1F9CF0"></circle><circle cx="111.81" cy="238.79" r="2.6" fill="#1F9CF0"></circle><circle cx="121.11" cy="207.95" r="2.6" fill="#1F9CF0"></circle><circle cx="130.41" cy="201.38" r="2.6" fill="#1F9CF0"></circle><circle cx="139.71" cy="239.3" r="2.6" fill="#1F9CF0"></circle><circle cx="149.02" cy="242.33" r="2.6" fill="#1F9CF0"></circle><circle cx="158.32" cy="177.25" r="2.6" fill="#1F9CF0"></circle><circle cx="167.62" cy="218.95" r="2.6" fill="#1F9CF0"></circle><circle cx="176.92" cy="232.82" r="2.6" fill="#1F9CF0"></circle><circle cx="186.22" cy="248.48" r="2.6" fill="#1F9CF0"></circle><circle cx="195.52" cy="252.97" r="2.6" fill="#1F9CF0"></circle><circle cx="204.83" cy="230.93" r="2.6" fill="#1F9CF0"></circle><circle cx="214.13" cy="242.47" r="2.6" fill="#1F9CF0"></circle><circle cx="223.43" cy="240.12" r="2.6" fill="#1F9CF0"></circle><circle cx="232.73" cy="248.48" r="2.6" fill="#1F9CF0"></circle><circle cx="242.03" cy="256.65" r="2.6" fill="#1F9CF0"></circle><circle cx="251.33" cy="261.44" r="2.6" fill="#1F9CF0"></circle><circle cx="260.63" cy="262.41" r="2.6" fill="#1F9CF0"></circle><circle cx="269.94" cy="264.75" r="2.6" fill="#1F9CF0"></circle><circle cx="279.24" cy="261.4" r="2.6" fill="#1F9CF0"></circle><circle cx="288.54" cy="262.76" r="2.6" fill="#1F9CF0"></circle><circle cx="297.84" cy="244.65" r="2.6" fill="#1F9CF0"></circle><circle cx="307.14" cy="230.98" r="2.6" fill="#1F9CF0"></circle><circle cx="316.44" cy="234.56" r="2.6" fill="#1F9CF0"></circle><circle cx="325.75" cy="260.01" r="2.6" fill="#1F9CF0"></circle><circle cx="335.05" cy="254.76" r="2.6" fill="#1F9CF0"></circle><circle cx="344.35" cy="238.53" r="2.6" fill="#1F9CF0"></circle><circle cx="353.65" cy="231.76" r="2.6" fill="#1F9CF0"></circle><circle cx="362.95" cy="226.22" r="2.6" fill="#1F9CF0"></circle><circle cx="372.25" cy="247.36" r="2.6" fill="#1F9CF0"></circle><circle cx="381.56" cy="238.78" r="2.6" fill="#1F9CF0"></circle><circle cx="390.86" cy="250.58" r="2.6" fill="#1F9CF0"></circle><circle cx="400.16" cy="256.4" r="2.6" fill="#1F9CF0"></circle><circle cx="409.46" cy="243.61" r="2.6" fill="#1F9CF0"></circle><circle cx="418.76" cy="265.98" r="2.6" fill="#1F9CF0"></circle><circle cx="428.06" cy="253.29" r="2.6" fill="#1F9CF0"></circle><circle cx="437.37" cy="225.25" r="2.6" fill="#1F9CF0"></circle><circle cx="446.67" cy="246.45" r="2.6" fill="#1F9CF0"></circle><circle cx="455.97" cy="252.36" r="2.6" fill="#1F9CF0"></circle><circle cx="465.27" cy="241.14" r="2.6" fill="#1F9CF0"></circle><circle cx="474.57" cy="253.3" r="2.6" fill="#1F9CF0"></circle><circle cx="483.87" cy="245.06" r="2.6" fill="#1F9CF0"></circle><circle cx="493.17" cy="205.73" r="2.6" fill="#1F9CF0"></circle><circle cx="502.48" cy="260.99" r="2.6" fill="#1F9CF0"></circle><circle cx="511.78" cy="265.11" r="2.6" fill="#1F9CF0"></circle><circle cx="521.08" cy="263.66" r="2.6" fill="#1F9CF0"></circle><circle cx="530.38" cy="270.45" r="2.6" fill="#1F9CF0"></circle><circle cx="539.68" cy="265.53" r="2.6" fill="#1F9CF0"></circle><circle cx="548.98" cy="248.25" r="2.6" fill="#1F9CF0"></circle><circle cx="558.29" cy="259.3" r="2.6" fill="#1F9CF0"></circle><circle cx="567.59" cy="255.01" r="2.6" fill="#1F9CF0"></circle><circle cx="642" cy="259.54" r="2.6" fill="#1F9CF0"></circle><line x1="656" y1="27" x2="672" y2="27" stroke="#E8835A" stroke-width="3" stroke-linecap="round"></line><text x="678" y="30" font-size="11" font-weight="400" text-anchor="start" fill="#e6edf3">anthropic</text><line x1="656" y1="47" x2="672" y2="47" stroke="#6366F1" stroke-width="3" stroke-linecap="round"></line><text x="678" y="50" font-size="11" font-weight="400" text-anchor="start" fill="#e6edf3">deepseek</text><line x1="656" y1="67" x2="672" y2="67" stroke="#2DA98C" stroke-width="3" stroke-linecap="round"></line><text x="678" y="70" font-size="11" font-weight="400" text-anchor="start" fill="#e6edf3">gemini</text><line x1="656" y1="87" x2="672" y2="87" stroke="#A371F7" stroke-width="3" stroke-linecap="round"></line><text x="678" y="90" font-size="11" font-weight="400" text-anchor="start" fill="#e6edf3">llama</text><line x1="656" y1="107" x2="672" y2="107" stroke="#F0A23B" stroke-width="3" stroke-linecap="round"></line><text x="678" y="110" font-size="11" font-weight="400" text-anchor="start" fill="#e6edf3">mistral</text><line x1="656" y1="127" x2="672" y2="127" stroke="#1F9CF0" stroke-width="3" stroke-linecap="round"></line><text x="678" y="130" font-size="11" font-weight="400" text-anchor="start" fill="#e6edf3">openai</text></svg>
