<svg xmlns="http://www.w3.org/2000/svg" viewBox="0 0 760 348" width="760" height="348" role="img" aria-label="Average LLM latency by provider over runs — llama highest, deepseek lowest" font-family="-apple-system,BlinkMacSystemFont,'Segoe UI',system-ui,sans-serif"><line x1="56" y1="306" x2="642" y2="306" stroke="#30363d" stroke-width="1"></line><text x="46" y="310" font-size="9.5" font-weight="400" text-anchor="end" fill="#8b949e" font-family="ui-monospace,SFMono-Regular,Menlo,monospace">0.0s</text><line x1="56" y1="235" x2="642" y2="235" stroke="#30363d" stroke-width="1"></line><text x="46" y="239" font-size="9.5" font-weight="400" text-anchor="end" fill="#8b949e" font-family="ui-monospace,SFMono-Regular,Menlo,monospace">82.5s</text><line x1="56" y1="164" x2="642" y2="164" stroke="#30363d" stroke-width="1"></line><text x="46" y="168" font-size="9.5" font-weight="400" text-anchor="end" fill="#8b949e" font-family="ui-monospace,SFMono-Regular,Menlo,monospace">165.1s</text><line x1="56" y1="93" x2="642" y2="93" stroke="#30363d" stroke-width="1"></line><text x="46" y="97" font-size="9.5" font-weight="400" text-anchor="end" fill="#8b949e" font-family="ui-monospace,SFMono-Regular,Menlo,monospace">247.6s</text><line x1="56" y1="22" x2="642" y2="22" stroke="#30363d" stroke-width="1"></line><text x="46" y="26" font-size="9.5" font-weight="400" text-anchor="end" fill="#8b949e" font-family="ui-monospace,SFMono-Regular,Menlo,monospace">330.2s</text><text x="56" y="324" font-size="9.5" font-weight="400" text-anchor="middle" fill="#8b949e" font-family="ui-monospace,SFMono-Regular,Menlo,monospace">06/08</text><text x="114.6" y="324" font-size="9.5" font-weight="400" text-anchor="middle" fill="#8b949e" font-family="ui-monospace,SFMono-Regular,Menlo,monospace">06/08</text><text x="173.2" y="324" font-size="9.5" font-weight="400" text-anchor="middle" fill="#8b949e" font-family="ui-monospace,SFMono-Regular,Menlo,monospace">06/09</text><text x="231.8" y="324" font-size="9.5" font-weight="400" text-anchor="middle" fill="#8b949e" font-family="ui-monospace,SFMono-Regular,Menlo,monospace">06/12</text><text x="290.4" y="324" font-size="9.5" font-weight="400" text-anchor="middle" fill="#8b949e" font-family="ui-monospace,SFMono-Regular,Menlo,monospace">06/13</text><text x="349" y="324" font-size="9.5" font-weight="400" text-anchor="middle" fill="#8b949e" font-family="ui-monospace,SFMono-Regular,Menlo,monospace">06/14</text><text x="407.6" y="324" font-size="9.5" font-weight="400" text-anchor="middle" fill="#8b949e" font-family="ui-monospace,SFMono-Regular,Menlo,monospace">06/15</text><text x="466.2" y="324" font-size="9.5" font-weight="400" text-anchor="middle" fill="#8b949e" font-family="ui-monospace,SFMono-Regular,Menlo,monospace">06/16</text><text x="524.8" y="324" font-size="9.5" font-weight="400" text-anchor="middle" fill="#8b949e" font-family="ui-monospace,SFMono-Regular,Menlo,monospace">06/17</text><text x="583.4" y="324" font-size="9.5" font-weight="400" text-anchor="middle" fill="#8b949e" font-family="ui-monospace,SFMono-Regular,Menlo,monospace">06/19</text><text x="642" y="324" font-size="9.5" font-weight="400" text-anchor="middle" fill="#8b949e" font-family="ui-monospace,SFMono-Regular,Menlo,monospace">06/20</text><polyline fill="none" stroke="#E8835A" stroke-width="2.4" stroke-linejoin="round" stroke-linecap="round" points="56,229.15 67.72,232.31 79.44,238.94 91.16,244 102.88,235.49 114.6,232.81 126.32,250.28 138.04,243.38 149.76,241.66 161.48,231.14 184.92,234.04 196.64,244.32 208.36,228.71 220.08,246.08 231.8,242.18 243.52,235.58 255.24,242.32 266.96,244.55 278.68,246.98 290.4,240.71 302.12,250.83 313.84,244.26 325.56,241.33 337.28,245.63 349,245.02 360.72,240.82 372.44,243.78 384.16,243.28 395.88,240.2 407.6,242.69 419.32,215.59 431.04,241.79 442.76,238.64 454.48,243.45 466.2,243.86 477.92,234.8 489.64,244.51 501.36,244.64"></polyline><circle cx="56" cy="229.15" r="2.6" fill="#E8835A"></circle><circle cx="67.72" cy="232.31" r="2.6" fill="#E8835A"></circle><circle cx="79.44" cy="238.94" r="2.6" fill="#E8835A"></circle><circle cx="91.16" cy="244" r="2.6" fill="#E8835A"></circle><circle cx="102.88" cy="235.49" r="2.6" fill="#E8835A"></circle><circle cx="114.6" cy="232.81" r="2.6" fill="#E8835A"></circle><circle cx="126.32" cy="250.28" r="2.6" fill="#E8835A"></circle><circle cx="138.04" cy="243.38" r="2.6" fill="#E8835A"></circle><circle cx="149.76" cy="241.66" r="2.6" fill="#E8835A"></circle><circle cx="161.48" cy="231.14" r="2.6" fill="#E8835A"></circle><circle cx="184.92" cy="234.04" r="2.6" fill="#E8835A"></circle><circle cx="196.64" cy="244.32" r="2.6" fill="#E8835A"></circle><circle cx="208.36" cy="228.71" r="2.6" fill="#E8835A"></circle><circle cx="220.08" cy="246.08" r="2.6" fill="#E8835A"></circle><circle cx="231.8" cy="242.18" r="2.6" fill="#E8835A"></circle><circle cx="243.52" cy="235.58" r="2.6" fill="#E8835A"></circle><circle cx="255.24" cy="242.32" r="2.6" fill="#E8835A"></circle><circle cx="266.96" cy="244.55" r="2.6" fill="#E8835A"></circle><circle cx="278.68" cy="246.98" r="2.6" fill="#E8835A"></circle><circle cx="290.4" cy="240.71" r="2.6" fill="#E8835A"></circle><circle cx="302.12" cy="250.83" r="2.6" fill="#E8835A"></circle><circle cx="313.84" cy="244.26" r="2.6" fill="#E8835A"></circle><circle cx="325.56" cy="241.33" r="2.6" fill="#E8835A"></circle><circle cx="337.28" cy="245.63" r="2.6" fill="#E8835A"></circle><circle cx="349" cy="245.02" r="2.6" fill="#E8835A"></circle><circle cx="360.72" cy="240.82" r="2.6" fill="#E8835A"></circle><circle cx="372.44" cy="243.78" r="2.6" fill="#E8835A"></circle><circle cx="384.16" cy="243.28" r="2.6" fill="#E8835A"></circle><circle cx="395.88" cy="240.2" r="2.6" fill="#E8835A"></circle><circle cx="407.6" cy="242.69" r="2.6" fill="#E8835A"></circle><circle cx="419.32" cy="215.59" r="2.6" fill="#E8835A"></circle><circle cx="431.04" cy="241.79" r="2.6" fill="#E8835A"></circle><circle cx="442.76" cy="238.64" r="2.6" fill="#E8835A"></circle><circle cx="454.48" cy="243.45" r="2.6" fill="#E8835A"></circle><circle cx="466.2" cy="243.86" r="2.6" fill="#E8835A"></circle><circle cx="477.92" cy="234.8" r="2.6" fill="#E8835A"></circle><circle cx="489.64" cy="244.51" r="2.6" fill="#E8835A"></circle><circle cx="501.36" cy="244.64" r="2.6" fill="#E8835A"></circle><polyline fill="none" stroke="#6366F1" stroke-width="2.4" stroke-linejoin="round" stroke-linecap="round" points="67.72,247.24 79.44,242.4 91.16,249.98 102.88,230.48 114.6,260.21 126.32,260.34 138.04,270.44 149.76,248.92 161.48,245.19 173.2,247.83 184.92,256.22 196.64,248.72 208.36,261.47 220.08,243.58 231.8,210.49 243.52,266.33 255.24,232.33 266.96,232.27 278.68,199.16 290.4,237.91 302.12,252.97 313.84,266.11 325.56,215.25 337.28,265.97 349,258.25 360.72,265.82 372.44,246.69 384.16,244.53 407.6,240.91 419.32,255.51 431.04,252.51 442.76,237.2 454.48,258.24 466.2,235.84 477.92,252.87 489.64,243.73 501.36,249.01 524.8,263.05 536.52,262.95 548.24,250.85 559.96,238.76 571.68,245.84 583.4,240.49 595.12,244.58 606.84,238.25 618.56,266.43 630.28,219.91 642,256.77"></polyline><circle cx="67.72" cy="247.24" r="2.6" fill="#6366F1"></circle><circle cx="79.44" cy="242.4" r="2.6" fill="#6366F1"></circle><circle cx="91.16" cy="249.98" r="2.6" fill="#6366F1"></circle><circle cx="102.88" cy="230.48" r="2.6" fill="#6366F1"></circle><circle cx="114.6" cy="260.21" r="2.6" fill="#6366F1"></circle><circle cx="126.32" cy="260.34" r="2.6" fill="#6366F1"></circle><circle cx="138.04" cy="270.44" r="2.6" fill="#6366F1"></circle><circle cx="149.76" cy="248.92" r="2.6" fill="#6366F1"></circle><circle cx="161.48" cy="245.19" r="2.6" fill="#6366F1"></circle><circle cx="173.2" cy="247.83" r="2.6" fill="#6366F1"></circle><circle cx="184.92" cy="256.22" r="2.6" fill="#6366F1"></circle><circle cx="196.64" cy="248.72" r="2.6" fill="#6366F1"></circle><circle cx="208.36" cy="261.47" r="2.6" fill="#6366F1"></circle><circle cx="220.08" cy="243.58" r="2.6" fill="#6366F1"></circle><circle cx="231.8" cy="210.49" r="2.6" fill="#6366F1"></circle><circle cx="243.52" cy="266.33" r="2.6" fill="#6366F1"></circle><circle cx="255.24" cy="232.33" r="2.6" fill="#6366F1"></circle><circle cx="266.96" cy="232.27" r="2.6" fill="#6366F1"></circle><circle cx="278.68" cy="199.16" r="2.6" fill="#6366F1"></circle><circle cx="290.4" cy="237.91" r="2.6" fill="#6366F1"></circle><circle cx="302.12" cy="252.97" r="2.6" fill="#6366F1"></circle><circle cx="313.84" cy="266.11" r="2.6" fill="#6366F1"></circle><circle cx="325.56" cy="215.25" r="2.6" fill="#6366F1"></circle><circle cx="337.28" cy="265.97" r="2.6" fill="#6366F1"></circle><circle cx="349" cy="258.25" r="2.6" fill="#6366F1"></circle><circle cx="360.72" cy="265.82" r="2.6" fill="#6366F1"></circle><circle cx="372.44" cy="246.69" r="2.6" fill="#6366F1"></circle><circle cx="384.16" cy="244.53" r="2.6" fill="#6366F1"></circle><circle cx="407.6" cy="240.91" r="2.6" fill="#6366F1"></circle><circle cx="419.32" cy="255.51" r="2.6" fill="#6366F1"></circle><circle cx="431.04" cy="252.51" r="2.6" fill="#6366F1"></circle><circle cx="442.76" cy="237.2" r="2.6" fill="#6366F1"></circle><circle cx="454.48" cy="258.24" r="2.6" fill="#6366F1"></circle><circle cx="466.2" cy="235.84" r="2.6" fill="#6366F1"></circle><circle cx="477.92" cy="252.87" r="2.6" fill="#6366F1"></circle><circle cx="489.64" cy="243.73" r="2.6" fill="#6366F1"></circle><circle cx="501.36" cy="249.01" r="2.6" fill="#6366F1"></circle><circle cx="524.8" cy="263.05" r="2.6" fill="#6366F1"></circle><circle cx="536.52" cy="262.95" r="2.6" fill="#6366F1"></circle><circle cx="548.24" cy="250.85" r="2.6" fill="#6366F1"></circle><circle cx="559.96" cy="238.76" r="2.6" fill="#6366F1"></circle><circle cx="571.68" cy="245.84" r="2.6" fill="#6366F1"></circle><circle cx="583.4" cy="240.49" r="2.6" fill="#6366F1"></circle><circle cx="595.12" cy="244.58" r="2.6" fill="#6366F1"></circle><circle cx="606.84" cy="238.25" r="2.6" fill="#6366F1"></circle><circle cx="618.56" cy="266.43" r="2.6" fill="#6366F1"></circle><circle cx="630.28" cy="219.91" r="2.6" fill="#6366F1"></circle><circle cx="642" cy="256.77" r="2.6" fill="#6366F1"></circle><polyline fill="none" stroke="#2DA98C" stroke-width="2.4" stroke-linejoin="round" stroke-linecap="round" points="56,205.26 67.72,215.39 79.44,174.15 91.16,217.56 102.88,218.68 114.6,227.57 126.32,203.76 138.04,192.14 149.76,215.35 161.48,194.78 173.2,194.92 184.92,141.5 196.64,148.87 208.36,194.84 220.08,180.85 231.8,202.09 243.52,169.08 255.24,211.29 266.96,193.77 278.68,192.04 290.4,206.61 407.6,221.15 419.32,190.23 431.04,183.33 442.76,225.15 454.48,184.37 466.2,182.1 477.92,210.86 489.64,161.53 501.36,210.56 524.8,182.01 536.52,172.32 548.24,181.93 559.96,186.76 571.68,217.59 583.4,171.76 595.12,211.13 606.84,171.55 618.56,181.17 630.28,189.96 642,191.02"></polyline><circle cx="56" cy="205.26" r="2.6" fill="#2DA98C"></circle><circle cx="67.72" cy="215.39" r="2.6" fill="#2DA98C"></circle><circle cx="79.44" cy="174.15" r="2.6" fill="#2DA98C"></circle><circle cx="91.16" cy="217.56" r="2.6" fill="#2DA98C"></circle><circle cx="102.88" cy="218.68" r="2.6" fill="#2DA98C"></circle><circle cx="114.6" cy="227.57" r="2.6" fill="#2DA98C"></circle><circle cx="126.32" cy="203.76" r="2.6" fill="#2DA98C"></circle><circle cx="138.04" cy="192.14" r="2.6" fill="#2DA98C"></circle><circle cx="149.76" cy="215.35" r="2.6" fill="#2DA98C"></circle><circle cx="161.48" cy="194.78" r="2.6" fill="#2DA98C"></circle><circle cx="173.2" cy="194.92" r="2.6" fill="#2DA98C"></circle><circle cx="184.92" cy="141.5" r="2.6" fill="#2DA98C"></circle><circle cx="196.64" cy="148.87" r="2.6" fill="#2DA98C"></circle><circle cx="208.36" cy="194.84" r="2.6" fill="#2DA98C"></circle><circle cx="220.08" cy="180.85" r="2.6" fill="#2DA98C"></circle><circle cx="231.8" cy="202.09" r="2.6" fill="#2DA98C"></circle><circle cx="243.52" cy="169.08" r="2.6" fill="#2DA98C"></circle><circle cx="255.24" cy="211.29" r="2.6" fill="#2DA98C"></circle><circle cx="266.96" cy="193.77" r="2.6" fill="#2DA98C"></circle><circle cx="278.68" cy="192.04" r="2.6" fill="#2DA98C"></circle><circle cx="290.4" cy="206.61" r="2.6" fill="#2DA98C"></circle><circle cx="407.6" cy="221.15" r="2.6" fill="#2DA98C"></circle><circle cx="419.32" cy="190.23" r="2.6" fill="#2DA98C"></circle><circle cx="431.04" cy="183.33" r="2.6" fill="#2DA98C"></circle><circle cx="442.76" cy="225.15" r="2.6" fill="#2DA98C"></circle><circle cx="454.48" cy="184.37" r="2.6" fill="#2DA98C"></circle><circle cx="466.2" cy="182.1" r="2.6" fill="#2DA98C"></circle><circle cx="477.92" cy="210.86" r="2.6" fill="#2DA98C"></circle><circle cx="489.64" cy="161.53" r="2.6" fill="#2DA98C"></circle><circle cx="501.36" cy="210.56" r="2.6" fill="#2DA98C"></circle><circle cx="524.8" cy="182.01" r="2.6" fill="#2DA98C"></circle><circle cx="536.52" cy="172.32" r="2.6" fill="#2DA98C"></circle><circle cx="548.24" cy="181.93" r="2.6" fill="#2DA98C"></circle><circle cx="559.96" cy="186.76" r="2.6" fill="#2DA98C"></circle><circle cx="571.68" cy="217.59" r="2.6" fill="#2DA98C"></circle><circle cx="583.4" cy="171.76" r="2.6" fill="#2DA98C"></circle><circle cx="595.12" cy="211.13" r="2.6" fill="#2DA98C"></circle><circle cx="606.84" cy="171.55" r="2.6" fill="#2DA98C"></circle><circle cx="618.56" cy="181.17" r="2.6" fill="#2DA98C"></circle><circle cx="630.28" cy="189.96" r="2.6" fill="#2DA98C"></circle><circle cx="642" cy="191.02" r="2.6" fill="#2DA98C"></circle><polyline fill="none" stroke="#A371F7" stroke-width="2.4" stroke-linejoin="round" stroke-linecap="round" points="56,127.86 67.72,149.85 79.44,181.76 91.16,139.24 102.88,107.36 114.6,219.97 126.32,116.3 138.04,182.89 149.76,193.78 161.48,197.11 173.2,105.85 184.92,146.07 196.64,181.42 208.36,202.88 220.08,134.79 231.8,219.07 243.52,58.83 255.24,197.05 266.96,167.66 278.68,75.26 290.4,128.5 302.12,152.23 313.84,166.9 325.56,183.57 337.28,162.79 349,148.18 360.72,52.43 372.44,96.59 384.16,191.76 407.6,151.86 419.32,169.19 431.04,135.22 454.48,206.77 466.2,167.88 477.92,189.32 489.64,143.76 501.36,142.49 513.08,163.7 524.8,128.52 536.52,144.9 548.24,92.3 559.96,157.36 571.68,160.21 583.4,176.32 595.12,116.21 606.84,165.98 618.56,136.47 642,155.12"></polyline><circle cx="56" cy="127.86" r="2.6" fill="#A371F7"></circle><circle cx="67.72" cy="149.85" r="2.6" fill="#A371F7"></circle><circle cx="79.44" cy="181.76" r="2.6" fill="#A371F7"></circle><circle cx="91.16" cy="139.24" r="2.6" fill="#A371F7"></circle><circle cx="102.88" cy="107.36" r="2.6" fill="#A371F7"></circle><circle cx="114.6" cy="219.97" r="2.6" fill="#A371F7"></circle><circle cx="126.32" cy="116.3" r="2.6" fill="#A371F7"></circle><circle cx="138.04" cy="182.89" r="2.6" fill="#A371F7"></circle><circle cx="149.76" cy="193.78" r="2.6" fill="#A371F7"></circle><circle cx="161.48" cy="197.11" r="2.6" fill="#A371F7"></circle><circle cx="173.2" cy="105.85" r="2.6" fill="#A371F7"></circle><circle cx="184.92" cy="146.07" r="2.6" fill="#A371F7"></circle><circle cx="196.64" cy="181.42" r="2.6" fill="#A371F7"></circle><circle cx="208.36" cy="202.88" r="2.6" fill="#A371F7"></circle><circle cx="220.08" cy="134.79" r="2.6" fill="#A371F7"></circle><circle cx="231.8" cy="219.07" r="2.6" fill="#A371F7"></circle><circle cx="243.52" cy="58.83" r="2.6" fill="#A371F7"></circle><circle cx="255.24" cy="197.05" r="2.6" fill="#A371F7"></circle><circle cx="266.96" cy="167.66" r="2.6" fill="#A371F7"></circle><circle cx="278.68" cy="75.26" r="2.6" fill="#A371F7"></circle><circle cx="290.4" cy="128.5" r="2.6" fill="#A371F7"></circle><circle cx="302.12" cy="152.23" r="2.6" fill="#A371F7"></circle><circle cx="313.84" cy="166.9" r="2.6" fill="#A371F7"></circle><circle cx="325.56" cy="183.57" r="2.6" fill="#A371F7"></circle><circle cx="337.28" cy="162.79" r="2.6" fill="#A371F7"></circle><circle cx="349" cy="148.18" r="2.6" fill="#A371F7"></circle><circle cx="360.72" cy="52.43" r="2.6" fill="#A371F7"></circle><circle cx="372.44" cy="96.59" r="2.6" fill="#A371F7"></circle><circle cx="384.16" cy="191.76" r="2.6" fill="#A371F7"></circle><circle cx="407.6" cy="151.86" r="2.6" fill="#A371F7"></circle><circle cx="419.32" cy="169.19" r="2.6" fill="#A371F7"></circle><circle cx="431.04" cy="135.22" r="2.6" fill="#A371F7"></circle><circle cx="454.48" cy="206.77" r="2.6" fill="#A371F7"></circle><circle cx="466.2" cy="167.88" r="2.6" fill="#A371F7"></circle><circle cx="477.92" cy="189.32" r="2.6" fill="#A371F7"></circle><circle cx="489.64" cy="143.76" r="2.6" fill="#A371F7"></circle><circle cx="501.36" cy="142.49" r="2.6" fill="#A371F7"></circle><circle cx="513.08" cy="163.7" r="2.6" fill="#A371F7"></circle><circle cx="524.8" cy="128.52" r="2.6" fill="#A371F7"></circle><circle cx="536.52" cy="144.9" r="2.6" fill="#A371F7"></circle><circle cx="548.24" cy="92.3" r="2.6" fill="#A371F7"></circle><circle cx="559.96" cy="157.36" r="2.6" fill="#A371F7"></circle><circle cx="571.68" cy="160.21" r="2.6" fill="#A371F7"></circle><circle cx="583.4" cy="176.32" r="2.6" fill="#A371F7"></circle><circle cx="595.12" cy="116.21" r="2.6" fill="#A371F7"></circle><circle cx="606.84" cy="165.98" r="2.6" fill="#A371F7"></circle><circle cx="618.56" cy="136.47" r="2.6" fill="#A371F7"></circle><circle cx="642" cy="155.12" r="2.6" fill="#A371F7"></circle><polyline fill="none" stroke="#F0A23B" stroke-width="2.4" stroke-linejoin="round" stroke-linecap="round" points="56,170.6 67.72,150.62 79.44,187.27 91.16,153.33 102.88,137.4 114.6,187.39 126.32,202.98 138.04,219.57 149.76,187.3 161.48,163.64 173.2,218.54 184.92,247.9 196.64,222.75 208.36,249.71 220.08,224.7 231.8,243.69 243.52,245.81 255.24,211.84 266.96,236.21 278.68,257.78 290.4,248.63 302.12,234.2 313.84,247.57 325.56,243.66 337.28,258.59 349,253.94 360.72,235.44 372.44,209.7 384.16,229.87 395.88,229.74 407.6,242.74 419.32,219.28 431.04,218.69 442.76,248.17 454.48,252.02 466.2,241.64 477.92,202.83 489.64,191.16 501.36,236.21 513.08,247.47 524.8,237.91 536.52,227.46 548.24,241.35 559.96,249.73 571.68,234.66 583.4,250 595.12,253.94 606.84,252.42 618.56,245.42 630.28,237.98 642,238.85"></polyline><circle cx="56" cy="170.6" r="2.6" fill="#F0A23B"></circle><circle cx="67.72" cy="150.62" r="2.6" fill="#F0A23B"></circle><circle cx="79.44" cy="187.27" r="2.6" fill="#F0A23B"></circle><circle cx="91.16" cy="153.33" r="2.6" fill="#F0A23B"></circle><circle cx="102.88" cy="137.4" r="2.6" fill="#F0A23B"></circle><circle cx="114.6" cy="187.39" r="2.6" fill="#F0A23B"></circle><circle cx="126.32" cy="202.98" r="2.6" fill="#F0A23B"></circle><circle cx="138.04" cy="219.57" r="2.6" fill="#F0A23B"></circle><circle cx="149.76" cy="187.3" r="2.6" fill="#F0A23B"></circle><circle cx="161.48" cy="163.64" r="2.6" fill="#F0A23B"></circle><circle cx="173.2" cy="218.54" r="2.6" fill="#F0A23B"></circle><circle cx="184.92" cy="247.9" r="2.6" fill="#F0A23B"></circle><circle cx="196.64" cy="222.75" r="2.6" fill="#F0A23B"></circle><circle cx="208.36" cy="249.71" r="2.6" fill="#F0A23B"></circle><circle cx="220.08" cy="224.7" r="2.6" fill="#F0A23B"></circle><circle cx="231.8" cy="243.69" r="2.6" fill="#F0A23B"></circle><circle cx="243.52" cy="245.81" r="2.6" fill="#F0A23B"></circle><circle cx="255.24" cy="211.84" r="2.6" fill="#F0A23B"></circle><circle cx="266.96" cy="236.21" r="2.6" fill="#F0A23B"></circle><circle cx="278.68" cy="257.78" r="2.6" fill="#F0A23B"></circle><circle cx="290.4" cy="248.63" r="2.6" fill="#F0A23B"></circle><circle cx="302.12" cy="234.2" r="2.6" fill="#F0A23B"></circle><circle cx="313.84" cy="247.57" r="2.6" fill="#F0A23B"></circle><circle cx="325.56" cy="243.66" r="2.6" fill="#F0A23B"></circle><circle cx="337.28" cy="258.59" r="2.6" fill="#F0A23B"></circle><circle cx="349" cy="253.94" r="2.6" fill="#F0A23B"></circle><circle cx="360.72" cy="235.44" r="2.6" fill="#F0A23B"></circle><circle cx="372.44" cy="209.7" r="2.6" fill="#F0A23B"></circle><circle cx="384.16" cy="229.87" r="2.6" fill="#F0A23B"></circle><circle cx="395.88" cy="229.74" r="2.6" fill="#F0A23B"></circle><circle cx="407.6" cy="242.74" r="2.6" fill="#F0A23B"></circle><circle cx="419.32" cy="219.28" r="2.6" fill="#F0A23B"></circle><circle cx="431.04" cy="218.69" r="2.6" fill="#F0A23B"></circle><circle cx="442.76" cy="248.17" r="2.6" fill="#F0A23B"></circle><circle cx="454.48" cy="252.02" r="2.6" fill="#F0A23B"></circle><circle cx="466.2" cy="241.64" r="2.6" fill="#F0A23B"></circle><circle cx="477.92" cy="202.83" r="2.6" fill="#F0A23B"></circle><circle cx="489.64" cy="191.16" r="2.6" fill="#F0A23B"></circle><circle cx="501.36" cy="236.21" r="2.6" fill="#F0A23B"></circle><circle cx="513.08" cy="247.47" r="2.6" fill="#F0A23B"></circle><circle cx="524.8" cy="237.91" r="2.6" fill="#F0A23B"></circle><circle cx="536.52" cy="227.46" r="2.6" fill="#F0A23B"></circle><circle cx="548.24" cy="241.35" r="2.6" fill="#F0A23B"></circle><circle cx="559.96" cy="249.73" r="2.6" fill="#F0A23B"></circle><circle cx="571.68" cy="234.66" r="2.6" fill="#F0A23B"></circle><circle cx="583.4" cy="250" r="2.6" fill="#F0A23B"></circle><circle cx="595.12" cy="253.94" r="2.6" fill="#F0A23B"></circle><circle cx="606.84" cy="252.42" r="2.6" fill="#F0A23B"></circle><circle cx="618.56" cy="245.42" r="2.6" fill="#F0A23B"></circle><circle cx="630.28" cy="237.98" r="2.6" fill="#F0A23B"></circle><circle cx="642" cy="238.85" r="2.6" fill="#F0A23B"></circle><polyline fill="none" stroke="#1F9CF0" stroke-width="2.4" stroke-linejoin="round" stroke-linecap="round" points="56,198.31 67.72,224.59 79.44,214.73 91.16,247.97 102.88,236.75 114.6,219.64 126.32,238.79 138.04,207.95 149.76,201.38 161.48,239.3 173.2,242.33 184.92,177.25 196.64,218.95 208.36,232.82 220.08,248.48 231.8,252.97 243.52,230.93 255.24,242.47 266.96,240.12 278.68,248.48 290.4,256.65 302.12,261.44 313.84,262.41 325.56,264.75 337.28,261.4 349,262.76 360.72,244.65 372.44,230.98 384.16,234.56 395.88,260.01 407.6,254.76 419.32,238.53 431.04,231.76 442.76,226.22 454.48,247.36 466.2,238.78 477.92,250.58 489.64,256.4 501.36,243.61 513.08,265.98 524.8,253.29 536.52,225.25 548.24,246.45 559.96,252.36 571.68,241.14 583.4,253.3 595.12,245.06 606.84,205.73 618.56,260.99 630.28,265.11 642,263.66"></polyline><circle cx="56" cy="198.31" r="2.6" fill="#1F9CF0"></circle><circle cx="67.72" cy="224.59" r="2.6" fill="#1F9CF0"></circle><circle cx="79.44" cy="214.73" r="2.6" fill="#1F9CF0"></circle><circle cx="91.16" cy="247.97" r="2.6" fill="#1F9CF0"></circle><circle cx="102.88" cy="236.75" r="2.6" fill="#1F9CF0"></circle><circle cx="114.6" cy="219.64" r="2.6" fill="#1F9CF0"></circle><circle cx="126.32" cy="238.79" r="2.6" fill="#1F9CF0"></circle><circle cx="138.04" cy="207.95" r="2.6" fill="#1F9CF0"></circle><circle cx="149.76" cy="201.38" r="2.6" fill="#1F9CF0"></circle><circle cx="161.48" cy="239.3" r="2.6" fill="#1F9CF0"></circle><circle cx="173.2" cy="242.33" r="2.6" fill="#1F9CF0"></circle><circle cx="184.92" cy="177.25" r="2.6" fill="#1F9CF0"></circle><circle cx="196.64" cy="218.95" r="2.6" fill="#1F9CF0"></circle><circle cx="208.36" cy="232.82" r="2.6" fill="#1F9CF0"></circle><circle cx="220.08" cy="248.48" r="2.6" fill="#1F9CF0"></circle><circle cx="231.8" cy="252.97" r="2.6" fill="#1F9CF0"></circle><circle cx="243.52" cy="230.93" r="2.6" fill="#1F9CF0"></circle><circle cx="255.24" cy="242.47" r="2.6" fill="#1F9CF0"></circle><circle cx="266.96" cy="240.12" r="2.6" fill="#1F9CF0"></circle><circle cx="278.68" cy="248.48" r="2.6" fill="#1F9CF0"></circle><circle cx="290.4" cy="256.65" r="2.6" fill="#1F9CF0"></circle><circle cx="302.12" cy="261.44" r="2.6" fill="#1F9CF0"></circle><circle cx="313.84" cy="262.41" r="2.6" fill="#1F9CF0"></circle><circle cx="325.56" cy="264.75" r="2.6" fill="#1F9CF0"></circle><circle cx="337.28" cy="261.4" r="2.6" fill="#1F9CF0"></circle><circle cx="349" cy="262.76" r="2.6" fill="#1F9CF0"></circle><circle cx="360.72" cy="244.65" r="2.6" fill="#1F9CF0"></circle><circle cx="372.44" cy="230.98" r="2.6" fill="#1F9CF0"></circle><circle cx="384.16" cy="234.56" r="2.6" fill="#1F9CF0"></circle><circle cx="395.88" cy="260.01" r="2.6" fill="#1F9CF0"></circle><circle cx="407.6" cy="254.76" r="2.6" fill="#1F9CF0"></circle><circle cx="419.32" cy="238.53" r="2.6" fill="#1F9CF0"></circle><circle cx="431.04" cy="231.76" r="2.6" fill="#1F9CF0"></circle><circle cx="442.76" cy="226.22" r="2.6" fill="#1F9CF0"></circle><circle cx="454.48" cy="247.36" r="2.6" fill="#1F9CF0"></circle><circle cx="466.2" cy="238.78" r="2.6" fill="#1F9CF0"></circle><circle cx="477.92" cy="250.58" r="2.6" fill="#1F9CF0"></circle><circle cx="489.64" cy="256.4" r="2.6" fill="#1F9CF0"></circle><circle cx="501.36" cy="243.61" r="2.6" fill="#1F9CF0"></circle><circle cx="513.08" cy="265.98" r="2.6" fill="#1F9CF0"></circle><circle cx="524.8" cy="253.29" r="2.6" fill="#1F9CF0"></circle><circle cx="536.52" cy="225.25" r="2.6" fill="#1F9CF0"></circle><circle cx="548.24" cy="246.45" r="2.6" fill="#1F9CF0"></circle><circle cx="559.96" cy="252.36" r="2.6" fill="#1F9CF0"></circle><circle cx="571.68" cy="241.14" r="2.6" fill="#1F9CF0"></circle><circle cx="583.4" cy="253.3" r="2.6" fill="#1F9CF0"></circle><circle cx="595.12" cy="245.06" r="2.6" fill="#1F9CF0"></circle><circle cx="606.84" cy="205.73" r="2.6" fill="#1F9CF0"></circle><circle cx="618.56" cy="260.99" r="2.6" fill="#1F9CF0"></circle><circle cx="630.28" cy="265.11" r="2.6" fill="#1F9CF0"></circle><circle cx="642" cy="263.66" r="2.6" fill="#1F9CF0"></circle><line x1="656" y1="27" x2="672" y2="27" stroke="#E8835A" stroke-width="3" stroke-linecap="round"></line><text x="678" y="30" font-size="11" font-weight="400" text-anchor="start" fill="#e6edf3">anthropic</text><line x1="656" y1="47" x2="672" y2="47" stroke="#6366F1" stroke-width="3" stroke-linecap="round"></line><text x="678" y="50" font-size="11" font-weight="400" text-anchor="start" fill="#e6edf3">deepseek</text><line x1="656" y1="67" x2="672" y2="67" stroke="#2DA98C" stroke-width="3" stroke-linecap="round"></line><text x="678" y="70" font-size="11" font-weight="400" text-anchor="start" fill="#e6edf3">gemini</text><line x1="656" y1="87" x2="672" y2="87" stroke="#A371F7" stroke-width="3" stroke-linecap="round"></line><text x="678" y="90" font-size="11" font-weight="400" text-anchor="start" fill="#e6edf3">llama</text><line x1="656" y1="107" x2="672" y2="107" stroke="#F0A23B" stroke-width="3" stroke-linecap="round"></line><text x="678" y="110" font-size="11" font-weight="400" text-anchor="start" fill="#e6edf3">mistral</text><line x1="656" y1="127" x2="672" y2="127" stroke="#1F9CF0" stroke-width="3" stroke-linecap="round"></line><text x="678" y="130" font-size="11" font-weight="400" text-anchor="start" fill="#e6edf3">openai</text></svg>
