<svg xmlns="http://www.w3.org/2000/svg" viewBox="0 0 760 348" width="760" height="348" role="img" aria-label="Average LLM latency by provider over runs — llama highest, deepseek lowest" font-family="-apple-system,BlinkMacSystemFont,'Segoe UI',system-ui,sans-serif"><line x1="56" y1="306" x2="642" y2="306" stroke="#30363d" stroke-width="1"></line><text x="46" y="310" font-size="9.5" font-weight="400" text-anchor="end" fill="#8b949e" font-family="ui-monospace,SFMono-Regular,Menlo,monospace">0.0s</text><line x1="56" y1="235" x2="642" y2="235" stroke="#30363d" stroke-width="1"></line><text x="46" y="239" font-size="9.5" font-weight="400" text-anchor="end" fill="#8b949e" font-family="ui-monospace,SFMono-Regular,Menlo,monospace">82.5s</text><line x1="56" y1="164" x2="642" y2="164" stroke="#30363d" stroke-width="1"></line><text x="46" y="168" font-size="9.5" font-weight="400" text-anchor="end" fill="#8b949e" font-family="ui-monospace,SFMono-Regular,Menlo,monospace">165.1s</text><line x1="56" y1="93" x2="642" y2="93" stroke="#30363d" stroke-width="1"></line><text x="46" y="97" font-size="9.5" font-weight="400" text-anchor="end" fill="#8b949e" font-family="ui-monospace,SFMono-Regular,Menlo,monospace">247.6s</text><line x1="56" y1="22" x2="642" y2="22" stroke="#30363d" stroke-width="1"></line><text x="46" y="26" font-size="9.5" font-weight="400" text-anchor="end" fill="#8b949e" font-family="ui-monospace,SFMono-Regular,Menlo,monospace">330.2s</text><text x="56" y="324" font-size="9.5" font-weight="400" text-anchor="middle" fill="#8b949e" font-family="ui-monospace,SFMono-Regular,Menlo,monospace">06/08</text><text x="106.52" y="324" font-size="9.5" font-weight="400" text-anchor="middle" fill="#8b949e" font-family="ui-monospace,SFMono-Regular,Menlo,monospace">06/08</text><text x="157.03" y="324" font-size="9.5" font-weight="400" text-anchor="middle" fill="#8b949e" font-family="ui-monospace,SFMono-Regular,Menlo,monospace">06/09</text><text x="207.55" y="324" font-size="9.5" font-weight="400" text-anchor="middle" fill="#8b949e" font-family="ui-monospace,SFMono-Regular,Menlo,monospace">06/12</text><text x="258.07" y="324" font-size="9.5" font-weight="400" text-anchor="middle" fill="#8b949e" font-family="ui-monospace,SFMono-Regular,Menlo,monospace">06/13</text><text x="308.59" y="324" font-size="9.5" font-weight="400" text-anchor="middle" fill="#8b949e" font-family="ui-monospace,SFMono-Regular,Menlo,monospace">06/14</text><text x="359.1" y="324" font-size="9.5" font-weight="400" text-anchor="middle" fill="#8b949e" font-family="ui-monospace,SFMono-Regular,Menlo,monospace">06/15</text><text x="409.62" y="324" font-size="9.5" font-weight="400" text-anchor="middle" fill="#8b949e" font-family="ui-monospace,SFMono-Regular,Menlo,monospace">06/16</text><text x="460.14" y="324" font-size="9.5" font-weight="400" text-anchor="middle" fill="#8b949e" font-family="ui-monospace,SFMono-Regular,Menlo,monospace">06/17</text><text x="510.66" y="324" font-size="9.5" font-weight="400" text-anchor="middle" fill="#8b949e" font-family="ui-monospace,SFMono-Regular,Menlo,monospace">06/19</text><text x="561.17" y="324" font-size="9.5" font-weight="400" text-anchor="middle" fill="#8b949e" font-family="ui-monospace,SFMono-Regular,Menlo,monospace">06/20</text><text x="611.69" y="324" font-size="9.5" font-weight="400" text-anchor="middle" fill="#8b949e" font-family="ui-monospace,SFMono-Regular,Menlo,monospace">06/21</text><text x="642" y="324" font-size="9.5" font-weight="400" text-anchor="middle" fill="#8b949e" font-family="ui-monospace,SFMono-Regular,Menlo,monospace">06/22</text><polyline fill="none" stroke="#E8835A" stroke-width="2.4" stroke-linejoin="round" stroke-linecap="round" points="56,229.15 66.1,232.31 76.21,238.94 86.31,244 96.41,235.49 106.52,232.81 116.62,250.28 126.72,243.38 136.83,241.66 146.93,231.14 167.14,234.04 177.24,244.32 187.34,228.71 197.45,246.08 207.55,242.18 217.66,235.58 227.76,242.32 237.86,244.55 247.97,246.98 258.07,240.71 268.17,250.83 278.28,244.26 288.38,241.33 298.48,245.63 308.59,245.02 318.69,240.82 328.79,243.78 338.9,243.28 349,240.2 359.1,242.69 369.21,215.59 379.31,241.79 389.41,238.64 399.52,243.45 409.62,243.86 419.72,234.8 429.83,244.51 439.93,244.64"></polyline><circle cx="56" cy="229.15" r="2.6" fill="#E8835A"></circle><circle cx="66.1" cy="232.31" r="2.6" fill="#E8835A"></circle><circle cx="76.21" cy="238.94" r="2.6" fill="#E8835A"></circle><circle cx="86.31" cy="244" r="2.6" fill="#E8835A"></circle><circle cx="96.41" cy="235.49" r="2.6" fill="#E8835A"></circle><circle cx="106.52" cy="232.81" r="2.6" fill="#E8835A"></circle><circle cx="116.62" cy="250.28" r="2.6" fill="#E8835A"></circle><circle cx="126.72" cy="243.38" r="2.6" fill="#E8835A"></circle><circle cx="136.83" cy="241.66" r="2.6" fill="#E8835A"></circle><circle cx="146.93" cy="231.14" r="2.6" fill="#E8835A"></circle><circle cx="167.14" cy="234.04" r="2.6" fill="#E8835A"></circle><circle cx="177.24" cy="244.32" r="2.6" fill="#E8835A"></circle><circle cx="187.34" cy="228.71" r="2.6" fill="#E8835A"></circle><circle cx="197.45" cy="246.08" r="2.6" fill="#E8835A"></circle><circle cx="207.55" cy="242.18" r="2.6" fill="#E8835A"></circle><circle cx="217.66" cy="235.58" r="2.6" fill="#E8835A"></circle><circle cx="227.76" cy="242.32" r="2.6" fill="#E8835A"></circle><circle cx="237.86" cy="244.55" r="2.6" fill="#E8835A"></circle><circle cx="247.97" cy="246.98" r="2.6" fill="#E8835A"></circle><circle cx="258.07" cy="240.71" r="2.6" fill="#E8835A"></circle><circle cx="268.17" cy="250.83" r="2.6" fill="#E8835A"></circle><circle cx="278.28" cy="244.26" r="2.6" fill="#E8835A"></circle><circle cx="288.38" cy="241.33" r="2.6" fill="#E8835A"></circle><circle cx="298.48" cy="245.63" r="2.6" fill="#E8835A"></circle><circle cx="308.59" cy="245.02" r="2.6" fill="#E8835A"></circle><circle cx="318.69" cy="240.82" r="2.6" fill="#E8835A"></circle><circle cx="328.79" cy="243.78" r="2.6" fill="#E8835A"></circle><circle cx="338.9" cy="243.28" r="2.6" fill="#E8835A"></circle><circle cx="349" cy="240.2" r="2.6" fill="#E8835A"></circle><circle cx="359.1" cy="242.69" r="2.6" fill="#E8835A"></circle><circle cx="369.21" cy="215.59" r="2.6" fill="#E8835A"></circle><circle cx="379.31" cy="241.79" r="2.6" fill="#E8835A"></circle><circle cx="389.41" cy="238.64" r="2.6" fill="#E8835A"></circle><circle cx="399.52" cy="243.45" r="2.6" fill="#E8835A"></circle><circle cx="409.62" cy="243.86" r="2.6" fill="#E8835A"></circle><circle cx="419.72" cy="234.8" r="2.6" fill="#E8835A"></circle><circle cx="429.83" cy="244.51" r="2.6" fill="#E8835A"></circle><circle cx="439.93" cy="244.64" r="2.6" fill="#E8835A"></circle><polyline fill="none" stroke="#6366F1" stroke-width="2.4" stroke-linejoin="round" stroke-linecap="round" points="66.1,247.24 76.21,242.4 86.31,249.98 96.41,230.48 106.52,260.21 116.62,260.34 126.72,270.44 136.83,248.92 146.93,245.19 157.03,247.83 167.14,256.22 177.24,248.72 187.34,261.47 197.45,243.58 207.55,210.49 217.66,266.33 227.76,232.33 237.86,232.27 247.97,199.16 258.07,237.91 268.17,252.97 278.28,266.11 288.38,215.25 298.48,265.97 308.59,258.25 318.69,265.82 328.79,246.69 338.9,244.53 359.1,240.91 369.21,255.51 379.31,252.51 389.41,237.2 399.52,258.24 409.62,235.84 419.72,252.87 429.83,243.73 439.93,249.01 460.14,263.05 470.24,262.95 480.34,250.85 490.45,238.76 500.55,245.84 510.66,240.49 520.76,244.58 530.86,238.25 540.97,266.43 551.07,219.91 561.17,256.77 581.38,250.11 591.48,264.15 601.59,249.18 611.69,252.64 621.79,236.94 631.9,257.91 642,245.05"></polyline><circle cx="66.1" cy="247.24" r="2.6" fill="#6366F1"></circle><circle cx="76.21" cy="242.4" r="2.6" fill="#6366F1"></circle><circle cx="86.31" cy="249.98" r="2.6" fill="#6366F1"></circle><circle cx="96.41" cy="230.48" r="2.6" fill="#6366F1"></circle><circle cx="106.52" cy="260.21" r="2.6" fill="#6366F1"></circle><circle cx="116.62" cy="260.34" r="2.6" fill="#6366F1"></circle><circle cx="126.72" cy="270.44" r="2.6" fill="#6366F1"></circle><circle cx="136.83" cy="248.92" r="2.6" fill="#6366F1"></circle><circle cx="146.93" cy="245.19" r="2.6" fill="#6366F1"></circle><circle cx="157.03" cy="247.83" r="2.6" fill="#6366F1"></circle><circle cx="167.14" cy="256.22" r="2.6" fill="#6366F1"></circle><circle cx="177.24" cy="248.72" r="2.6" fill="#6366F1"></circle><circle cx="187.34" cy="261.47" r="2.6" fill="#6366F1"></circle><circle cx="197.45" cy="243.58" r="2.6" fill="#6366F1"></circle><circle cx="207.55" cy="210.49" r="2.6" fill="#6366F1"></circle><circle cx="217.66" cy="266.33" r="2.6" fill="#6366F1"></circle><circle cx="227.76" cy="232.33" r="2.6" fill="#6366F1"></circle><circle cx="237.86" cy="232.27" r="2.6" fill="#6366F1"></circle><circle cx="247.97" cy="199.16" r="2.6" fill="#6366F1"></circle><circle cx="258.07" cy="237.91" r="2.6" fill="#6366F1"></circle><circle cx="268.17" cy="252.97" r="2.6" fill="#6366F1"></circle><circle cx="278.28" cy="266.11" r="2.6" fill="#6366F1"></circle><circle cx="288.38" cy="215.25" r="2.6" fill="#6366F1"></circle><circle cx="298.48" cy="265.97" r="2.6" fill="#6366F1"></circle><circle cx="308.59" cy="258.25" r="2.6" fill="#6366F1"></circle><circle cx="318.69" cy="265.82" r="2.6" fill="#6366F1"></circle><circle cx="328.79" cy="246.69" r="2.6" fill="#6366F1"></circle><circle cx="338.9" cy="244.53" r="2.6" fill="#6366F1"></circle><circle cx="359.1" cy="240.91" r="2.6" fill="#6366F1"></circle><circle cx="369.21" cy="255.51" r="2.6" fill="#6366F1"></circle><circle cx="379.31" cy="252.51" r="2.6" fill="#6366F1"></circle><circle cx="389.41" cy="237.2" r="2.6" fill="#6366F1"></circle><circle cx="399.52" cy="258.24" r="2.6" fill="#6366F1"></circle><circle cx="409.62" cy="235.84" r="2.6" fill="#6366F1"></circle><circle cx="419.72" cy="252.87" r="2.6" fill="#6366F1"></circle><circle cx="429.83" cy="243.73" r="2.6" fill="#6366F1"></circle><circle cx="439.93" cy="249.01" r="2.6" fill="#6366F1"></circle><circle cx="460.14" cy="263.05" r="2.6" fill="#6366F1"></circle><circle cx="470.24" cy="262.95" r="2.6" fill="#6366F1"></circle><circle cx="480.34" cy="250.85" r="2.6" fill="#6366F1"></circle><circle cx="490.45" cy="238.76" r="2.6" fill="#6366F1"></circle><circle cx="500.55" cy="245.84" r="2.6" fill="#6366F1"></circle><circle cx="510.66" cy="240.49" r="2.6" fill="#6366F1"></circle><circle cx="520.76" cy="244.58" r="2.6" fill="#6366F1"></circle><circle cx="530.86" cy="238.25" r="2.6" fill="#6366F1"></circle><circle cx="540.97" cy="266.43" r="2.6" fill="#6366F1"></circle><circle cx="551.07" cy="219.91" r="2.6" fill="#6366F1"></circle><circle cx="561.17" cy="256.77" r="2.6" fill="#6366F1"></circle><circle cx="581.38" cy="250.11" r="2.6" fill="#6366F1"></circle><circle cx="591.48" cy="264.15" r="2.6" fill="#6366F1"></circle><circle cx="601.59" cy="249.18" r="2.6" fill="#6366F1"></circle><circle cx="611.69" cy="252.64" r="2.6" fill="#6366F1"></circle><circle cx="621.79" cy="236.94" r="2.6" fill="#6366F1"></circle><circle cx="631.9" cy="257.91" r="2.6" fill="#6366F1"></circle><circle cx="642" cy="245.05" r="2.6" fill="#6366F1"></circle><polyline fill="none" stroke="#2DA98C" stroke-width="2.4" stroke-linejoin="round" stroke-linecap="round" points="56,205.26 66.1,215.39 76.21,174.15 86.31,217.56 96.41,218.68 106.52,227.57 116.62,203.76 126.72,192.14 136.83,215.35 146.93,194.78 157.03,194.92 167.14,141.5 177.24,148.87 187.34,194.84 197.45,180.85 207.55,202.09 217.66,169.08 227.76,211.29 237.86,193.77 247.97,192.04 258.07,206.61 359.1,221.15 369.21,190.23 379.31,183.33 389.41,225.15 399.52,184.37 409.62,182.1 419.72,210.86 429.83,161.53 439.93,210.56 460.14,182.01 470.24,172.32 480.34,181.93 490.45,186.76 500.55,217.59 510.66,171.76 520.76,211.13 530.86,171.55 540.97,181.17 551.07,189.96 561.17,191.02 581.38,212.98 591.48,170.09 601.59,127.97 611.69,222.7 621.79,200.4 631.9,155.75 642,184.88"></polyline><circle cx="56" cy="205.26" r="2.6" fill="#2DA98C"></circle><circle cx="66.1" cy="215.39" r="2.6" fill="#2DA98C"></circle><circle cx="76.21" cy="174.15" r="2.6" fill="#2DA98C"></circle><circle cx="86.31" cy="217.56" r="2.6" fill="#2DA98C"></circle><circle cx="96.41" cy="218.68" r="2.6" fill="#2DA98C"></circle><circle cx="106.52" cy="227.57" r="2.6" fill="#2DA98C"></circle><circle cx="116.62" cy="203.76" r="2.6" fill="#2DA98C"></circle><circle cx="126.72" cy="192.14" r="2.6" fill="#2DA98C"></circle><circle cx="136.83" cy="215.35" r="2.6" fill="#2DA98C"></circle><circle cx="146.93" cy="194.78" r="2.6" fill="#2DA98C"></circle><circle cx="157.03" cy="194.92" r="2.6" fill="#2DA98C"></circle><circle cx="167.14" cy="141.5" r="2.6" fill="#2DA98C"></circle><circle cx="177.24" cy="148.87" r="2.6" fill="#2DA98C"></circle><circle cx="187.34" cy="194.84" r="2.6" fill="#2DA98C"></circle><circle cx="197.45" cy="180.85" r="2.6" fill="#2DA98C"></circle><circle cx="207.55" cy="202.09" r="2.6" fill="#2DA98C"></circle><circle cx="217.66" cy="169.08" r="2.6" fill="#2DA98C"></circle><circle cx="227.76" cy="211.29" r="2.6" fill="#2DA98C"></circle><circle cx="237.86" cy="193.77" r="2.6" fill="#2DA98C"></circle><circle cx="247.97" cy="192.04" r="2.6" fill="#2DA98C"></circle><circle cx="258.07" cy="206.61" r="2.6" fill="#2DA98C"></circle><circle cx="359.1" cy="221.15" r="2.6" fill="#2DA98C"></circle><circle cx="369.21" cy="190.23" r="2.6" fill="#2DA98C"></circle><circle cx="379.31" cy="183.33" r="2.6" fill="#2DA98C"></circle><circle cx="389.41" cy="225.15" r="2.6" fill="#2DA98C"></circle><circle cx="399.52" cy="184.37" r="2.6" fill="#2DA98C"></circle><circle cx="409.62" cy="182.1" r="2.6" fill="#2DA98C"></circle><circle cx="419.72" cy="210.86" r="2.6" fill="#2DA98C"></circle><circle cx="429.83" cy="161.53" r="2.6" fill="#2DA98C"></circle><circle cx="439.93" cy="210.56" r="2.6" fill="#2DA98C"></circle><circle cx="460.14" cy="182.01" r="2.6" fill="#2DA98C"></circle><circle cx="470.24" cy="172.32" r="2.6" fill="#2DA98C"></circle><circle cx="480.34" cy="181.93" r="2.6" fill="#2DA98C"></circle><circle cx="490.45" cy="186.76" r="2.6" fill="#2DA98C"></circle><circle cx="500.55" cy="217.59" r="2.6" fill="#2DA98C"></circle><circle cx="510.66" cy="171.76" r="2.6" fill="#2DA98C"></circle><circle cx="520.76" cy="211.13" r="2.6" fill="#2DA98C"></circle><circle cx="530.86" cy="171.55" r="2.6" fill="#2DA98C"></circle><circle cx="540.97" cy="181.17" r="2.6" fill="#2DA98C"></circle><circle cx="551.07" cy="189.96" r="2.6" fill="#2DA98C"></circle><circle cx="561.17" cy="191.02" r="2.6" fill="#2DA98C"></circle><circle cx="581.38" cy="212.98" r="2.6" fill="#2DA98C"></circle><circle cx="591.48" cy="170.09" r="2.6" fill="#2DA98C"></circle><circle cx="601.59" cy="127.97" r="2.6" fill="#2DA98C"></circle><circle cx="611.69" cy="222.7" r="2.6" fill="#2DA98C"></circle><circle cx="621.79" cy="200.4" r="2.6" fill="#2DA98C"></circle><circle cx="631.9" cy="155.75" r="2.6" fill="#2DA98C"></circle><circle cx="642" cy="184.88" r="2.6" fill="#2DA98C"></circle><polyline fill="none" stroke="#A371F7" stroke-width="2.4" stroke-linejoin="round" stroke-linecap="round" points="56,127.86 66.1,149.85 76.21,181.76 86.31,139.24 96.41,107.36 106.52,219.97 116.62,116.3 126.72,182.89 136.83,193.78 146.93,197.11 157.03,105.85 167.14,146.07 177.24,181.42 187.34,202.88 197.45,134.79 207.55,219.07 217.66,58.83 227.76,197.05 237.86,167.66 247.97,75.26 258.07,128.5 268.17,152.23 278.28,166.9 288.38,183.57 298.48,162.79 308.59,148.18 318.69,52.43 328.79,96.59 338.9,191.76 359.1,151.86 369.21,169.19 379.31,135.22 399.52,206.77 409.62,167.88 419.72,189.32 429.83,143.76 439.93,142.49 450.03,163.7 460.14,128.52 470.24,144.9 480.34,92.3 490.45,157.36 500.55,160.21 510.66,176.32 520.76,116.21 530.86,165.98 540.97,136.47 561.17,155.12 581.38,134.62 601.59,114.6 611.69,127.72 621.79,219.84 631.9,170.06 642,154.88"></polyline><circle cx="56" cy="127.86" r="2.6" fill="#A371F7"></circle><circle cx="66.1" cy="149.85" r="2.6" fill="#A371F7"></circle><circle cx="76.21" cy="181.76" r="2.6" fill="#A371F7"></circle><circle cx="86.31" cy="139.24" r="2.6" fill="#A371F7"></circle><circle cx="96.41" cy="107.36" r="2.6" fill="#A371F7"></circle><circle cx="106.52" cy="219.97" r="2.6" fill="#A371F7"></circle><circle cx="116.62" cy="116.3" r="2.6" fill="#A371F7"></circle><circle cx="126.72" cy="182.89" r="2.6" fill="#A371F7"></circle><circle cx="136.83" cy="193.78" r="2.6" fill="#A371F7"></circle><circle cx="146.93" cy="197.11" r="2.6" fill="#A371F7"></circle><circle cx="157.03" cy="105.85" r="2.6" fill="#A371F7"></circle><circle cx="167.14" cy="146.07" r="2.6" fill="#A371F7"></circle><circle cx="177.24" cy="181.42" r="2.6" fill="#A371F7"></circle><circle cx="187.34" cy="202.88" r="2.6" fill="#A371F7"></circle><circle cx="197.45" cy="134.79" r="2.6" fill="#A371F7"></circle><circle cx="207.55" cy="219.07" r="2.6" fill="#A371F7"></circle><circle cx="217.66" cy="58.83" r="2.6" fill="#A371F7"></circle><circle cx="227.76" cy="197.05" r="2.6" fill="#A371F7"></circle><circle cx="237.86" cy="167.66" r="2.6" fill="#A371F7"></circle><circle cx="247.97" cy="75.26" r="2.6" fill="#A371F7"></circle><circle cx="258.07" cy="128.5" r="2.6" fill="#A371F7"></circle><circle cx="268.17" cy="152.23" r="2.6" fill="#A371F7"></circle><circle cx="278.28" cy="166.9" r="2.6" fill="#A371F7"></circle><circle cx="288.38" cy="183.57" r="2.6" fill="#A371F7"></circle><circle cx="298.48" cy="162.79" r="2.6" fill="#A371F7"></circle><circle cx="308.59" cy="148.18" r="2.6" fill="#A371F7"></circle><circle cx="318.69" cy="52.43" r="2.6" fill="#A371F7"></circle><circle cx="328.79" cy="96.59" r="2.6" fill="#A371F7"></circle><circle cx="338.9" cy="191.76" r="2.6" fill="#A371F7"></circle><circle cx="359.1" cy="151.86" r="2.6" fill="#A371F7"></circle><circle cx="369.21" cy="169.19" r="2.6" fill="#A371F7"></circle><circle cx="379.31" cy="135.22" r="2.6" fill="#A371F7"></circle><circle cx="399.52" cy="206.77" r="2.6" fill="#A371F7"></circle><circle cx="409.62" cy="167.88" r="2.6" fill="#A371F7"></circle><circle cx="419.72" cy="189.32" r="2.6" fill="#A371F7"></circle><circle cx="429.83" cy="143.76" r="2.6" fill="#A371F7"></circle><circle cx="439.93" cy="142.49" r="2.6" fill="#A371F7"></circle><circle cx="450.03" cy="163.7" r="2.6" fill="#A371F7"></circle><circle cx="460.14" cy="128.52" r="2.6" fill="#A371F7"></circle><circle cx="470.24" cy="144.9" r="2.6" fill="#A371F7"></circle><circle cx="480.34" cy="92.3" r="2.6" fill="#A371F7"></circle><circle cx="490.45" cy="157.36" r="2.6" fill="#A371F7"></circle><circle cx="500.55" cy="160.21" r="2.6" fill="#A371F7"></circle><circle cx="510.66" cy="176.32" r="2.6" fill="#A371F7"></circle><circle cx="520.76" cy="116.21" r="2.6" fill="#A371F7"></circle><circle cx="530.86" cy="165.98" r="2.6" fill="#A371F7"></circle><circle cx="540.97" cy="136.47" r="2.6" fill="#A371F7"></circle><circle cx="561.17" cy="155.12" r="2.6" fill="#A371F7"></circle><circle cx="581.38" cy="134.62" r="2.6" fill="#A371F7"></circle><circle cx="601.59" cy="114.6" r="2.6" fill="#A371F7"></circle><circle cx="611.69" cy="127.72" r="2.6" fill="#A371F7"></circle><circle cx="621.79" cy="219.84" r="2.6" fill="#A371F7"></circle><circle cx="631.9" cy="170.06" r="2.6" fill="#A371F7"></circle><circle cx="642" cy="154.88" r="2.6" fill="#A371F7"></circle><polyline fill="none" stroke="#F0A23B" stroke-width="2.4" stroke-linejoin="round" stroke-linecap="round" points="56,170.6 66.1,150.62 76.21,187.27 86.31,153.33 96.41,137.4 106.52,187.39 116.62,202.98 126.72,219.57 136.83,187.3 146.93,163.64 157.03,218.54 167.14,247.9 177.24,222.75 187.34,249.71 197.45,224.7 207.55,243.69 217.66,245.81 227.76,211.84 237.86,236.21 247.97,257.78 258.07,248.63 268.17,234.2 278.28,247.57 288.38,243.66 298.48,258.59 308.59,253.94 318.69,235.44 328.79,209.7 338.9,229.87 349,229.74 359.1,242.74 369.21,219.28 379.31,218.69 389.41,248.17 399.52,252.02 409.62,241.64 419.72,202.83 429.83,191.16 439.93,236.21 450.03,247.47 460.14,237.91 470.24,227.46 480.34,241.35 490.45,249.73 500.55,234.66 510.66,250 520.76,253.94 530.86,252.42 540.97,245.42 551.07,237.98 561.17,238.85 581.38,257.8 591.48,233.33 601.59,238.96 611.69,252.16 621.79,246.34 631.9,221.3 642,228.03"></polyline><circle cx="56" cy="170.6" r="2.6" fill="#F0A23B"></circle><circle cx="66.1" cy="150.62" r="2.6" fill="#F0A23B"></circle><circle cx="76.21" cy="187.27" r="2.6" fill="#F0A23B"></circle><circle cx="86.31" cy="153.33" r="2.6" fill="#F0A23B"></circle><circle cx="96.41" cy="137.4" r="2.6" fill="#F0A23B"></circle><circle cx="106.52" cy="187.39" r="2.6" fill="#F0A23B"></circle><circle cx="116.62" cy="202.98" r="2.6" fill="#F0A23B"></circle><circle cx="126.72" cy="219.57" r="2.6" fill="#F0A23B"></circle><circle cx="136.83" cy="187.3" r="2.6" fill="#F0A23B"></circle><circle cx="146.93" cy="163.64" r="2.6" fill="#F0A23B"></circle><circle cx="157.03" cy="218.54" r="2.6" fill="#F0A23B"></circle><circle cx="167.14" cy="247.9" r="2.6" fill="#F0A23B"></circle><circle cx="177.24" cy="222.75" r="2.6" fill="#F0A23B"></circle><circle cx="187.34" cy="249.71" r="2.6" fill="#F0A23B"></circle><circle cx="197.45" cy="224.7" r="2.6" fill="#F0A23B"></circle><circle cx="207.55" cy="243.69" r="2.6" fill="#F0A23B"></circle><circle cx="217.66" cy="245.81" r="2.6" fill="#F0A23B"></circle><circle cx="227.76" cy="211.84" r="2.6" fill="#F0A23B"></circle><circle cx="237.86" cy="236.21" r="2.6" fill="#F0A23B"></circle><circle cx="247.97" cy="257.78" r="2.6" fill="#F0A23B"></circle><circle cx="258.07" cy="248.63" r="2.6" fill="#F0A23B"></circle><circle cx="268.17" cy="234.2" r="2.6" fill="#F0A23B"></circle><circle cx="278.28" cy="247.57" r="2.6" fill="#F0A23B"></circle><circle cx="288.38" cy="243.66" r="2.6" fill="#F0A23B"></circle><circle cx="298.48" cy="258.59" r="2.6" fill="#F0A23B"></circle><circle cx="308.59" cy="253.94" r="2.6" fill="#F0A23B"></circle><circle cx="318.69" cy="235.44" r="2.6" fill="#F0A23B"></circle><circle cx="328.79" cy="209.7" r="2.6" fill="#F0A23B"></circle><circle cx="338.9" cy="229.87" r="2.6" fill="#F0A23B"></circle><circle cx="349" cy="229.74" r="2.6" fill="#F0A23B"></circle><circle cx="359.1" cy="242.74" r="2.6" fill="#F0A23B"></circle><circle cx="369.21" cy="219.28" r="2.6" fill="#F0A23B"></circle><circle cx="379.31" cy="218.69" r="2.6" fill="#F0A23B"></circle><circle cx="389.41" cy="248.17" r="2.6" fill="#F0A23B"></circle><circle cx="399.52" cy="252.02" r="2.6" fill="#F0A23B"></circle><circle cx="409.62" cy="241.64" r="2.6" fill="#F0A23B"></circle><circle cx="419.72" cy="202.83" r="2.6" fill="#F0A23B"></circle><circle cx="429.83" cy="191.16" r="2.6" fill="#F0A23B"></circle><circle cx="439.93" cy="236.21" r="2.6" fill="#F0A23B"></circle><circle cx="450.03" cy="247.47" r="2.6" fill="#F0A23B"></circle><circle cx="460.14" cy="237.91" r="2.6" fill="#F0A23B"></circle><circle cx="470.24" cy="227.46" r="2.6" fill="#F0A23B"></circle><circle cx="480.34" cy="241.35" r="2.6" fill="#F0A23B"></circle><circle cx="490.45" cy="249.73" r="2.6" fill="#F0A23B"></circle><circle cx="500.55" cy="234.66" r="2.6" fill="#F0A23B"></circle><circle cx="510.66" cy="250" r="2.6" fill="#F0A23B"></circle><circle cx="520.76" cy="253.94" r="2.6" fill="#F0A23B"></circle><circle cx="530.86" cy="252.42" r="2.6" fill="#F0A23B"></circle><circle cx="540.97" cy="245.42" r="2.6" fill="#F0A23B"></circle><circle cx="551.07" cy="237.98" r="2.6" fill="#F0A23B"></circle><circle cx="561.17" cy="238.85" r="2.6" fill="#F0A23B"></circle><circle cx="581.38" cy="257.8" r="2.6" fill="#F0A23B"></circle><circle cx="591.48" cy="233.33" r="2.6" fill="#F0A23B"></circle><circle cx="601.59" cy="238.96" r="2.6" fill="#F0A23B"></circle><circle cx="611.69" cy="252.16" r="2.6" fill="#F0A23B"></circle><circle cx="621.79" cy="246.34" r="2.6" fill="#F0A23B"></circle><circle cx="631.9" cy="221.3" r="2.6" fill="#F0A23B"></circle><circle cx="642" cy="228.03" r="2.6" fill="#F0A23B"></circle><polyline fill="none" stroke="#1F9CF0" stroke-width="2.4" stroke-linejoin="round" stroke-linecap="round" points="56,198.31 66.1,224.59 76.21,214.73 86.31,247.97 96.41,236.75 106.52,219.64 116.62,238.79 126.72,207.95 136.83,201.38 146.93,239.3 157.03,242.33 167.14,177.25 177.24,218.95 187.34,232.82 197.45,248.48 207.55,252.97 217.66,230.93 227.76,242.47 237.86,240.12 247.97,248.48 258.07,256.65 268.17,261.44 278.28,262.41 288.38,264.75 298.48,261.4 308.59,262.76 318.69,244.65 328.79,230.98 338.9,234.56 349,260.01 359.1,254.76 369.21,238.53 379.31,231.76 389.41,226.22 399.52,247.36 409.62,238.78 419.72,250.58 429.83,256.4 439.93,243.61 450.03,265.98 460.14,253.29 470.24,225.25 480.34,246.45 490.45,252.36 500.55,241.14 510.66,253.3 520.76,245.06 530.86,205.73 540.97,260.99 551.07,265.11 561.17,263.66 571.28,270.45 581.38,265.53 591.48,248.25 601.59,259.3 611.69,255.01"></polyline><circle cx="56" cy="198.31" r="2.6" fill="#1F9CF0"></circle><circle cx="66.1" cy="224.59" r="2.6" fill="#1F9CF0"></circle><circle cx="76.21" cy="214.73" r="2.6" fill="#1F9CF0"></circle><circle cx="86.31" cy="247.97" r="2.6" fill="#1F9CF0"></circle><circle cx="96.41" cy="236.75" r="2.6" fill="#1F9CF0"></circle><circle cx="106.52" cy="219.64" r="2.6" fill="#1F9CF0"></circle><circle cx="116.62" cy="238.79" r="2.6" fill="#1F9CF0"></circle><circle cx="126.72" cy="207.95" r="2.6" fill="#1F9CF0"></circle><circle cx="136.83" cy="201.38" r="2.6" fill="#1F9CF0"></circle><circle cx="146.93" cy="239.3" r="2.6" fill="#1F9CF0"></circle><circle cx="157.03" cy="242.33" r="2.6" fill="#1F9CF0"></circle><circle cx="167.14" cy="177.25" r="2.6" fill="#1F9CF0"></circle><circle cx="177.24" cy="218.95" r="2.6" fill="#1F9CF0"></circle><circle cx="187.34" cy="232.82" r="2.6" fill="#1F9CF0"></circle><circle cx="197.45" cy="248.48" r="2.6" fill="#1F9CF0"></circle><circle cx="207.55" cy="252.97" r="2.6" fill="#1F9CF0"></circle><circle cx="217.66" cy="230.93" r="2.6" fill="#1F9CF0"></circle><circle cx="227.76" cy="242.47" r="2.6" fill="#1F9CF0"></circle><circle cx="237.86" cy="240.12" r="2.6" fill="#1F9CF0"></circle><circle cx="247.97" cy="248.48" r="2.6" fill="#1F9CF0"></circle><circle cx="258.07" cy="256.65" r="2.6" fill="#1F9CF0"></circle><circle cx="268.17" cy="261.44" r="2.6" fill="#1F9CF0"></circle><circle cx="278.28" cy="262.41" r="2.6" fill="#1F9CF0"></circle><circle cx="288.38" cy="264.75" r="2.6" fill="#1F9CF0"></circle><circle cx="298.48" cy="261.4" r="2.6" fill="#1F9CF0"></circle><circle cx="308.59" cy="262.76" r="2.6" fill="#1F9CF0"></circle><circle cx="318.69" cy="244.65" r="2.6" fill="#1F9CF0"></circle><circle cx="328.79" cy="230.98" r="2.6" fill="#1F9CF0"></circle><circle cx="338.9" cy="234.56" r="2.6" fill="#1F9CF0"></circle><circle cx="349" cy="260.01" r="2.6" fill="#1F9CF0"></circle><circle cx="359.1" cy="254.76" r="2.6" fill="#1F9CF0"></circle><circle cx="369.21" cy="238.53" r="2.6" fill="#1F9CF0"></circle><circle cx="379.31" cy="231.76" r="2.6" fill="#1F9CF0"></circle><circle cx="389.41" cy="226.22" r="2.6" fill="#1F9CF0"></circle><circle cx="399.52" cy="247.36" r="2.6" fill="#1F9CF0"></circle><circle cx="409.62" cy="238.78" r="2.6" fill="#1F9CF0"></circle><circle cx="419.72" cy="250.58" r="2.6" fill="#1F9CF0"></circle><circle cx="429.83" cy="256.4" r="2.6" fill="#1F9CF0"></circle><circle cx="439.93" cy="243.61" r="2.6" fill="#1F9CF0"></circle><circle cx="450.03" cy="265.98" r="2.6" fill="#1F9CF0"></circle><circle cx="460.14" cy="253.29" r="2.6" fill="#1F9CF0"></circle><circle cx="470.24" cy="225.25" r="2.6" fill="#1F9CF0"></circle><circle cx="480.34" cy="246.45" r="2.6" fill="#1F9CF0"></circle><circle cx="490.45" cy="252.36" r="2.6" fill="#1F9CF0"></circle><circle cx="500.55" cy="241.14" r="2.6" fill="#1F9CF0"></circle><circle cx="510.66" cy="253.3" r="2.6" fill="#1F9CF0"></circle><circle cx="520.76" cy="245.06" r="2.6" fill="#1F9CF0"></circle><circle cx="530.86" cy="205.73" r="2.6" fill="#1F9CF0"></circle><circle cx="540.97" cy="260.99" r="2.6" fill="#1F9CF0"></circle><circle cx="551.07" cy="265.11" r="2.6" fill="#1F9CF0"></circle><circle cx="561.17" cy="263.66" r="2.6" fill="#1F9CF0"></circle><circle cx="571.28" cy="270.45" r="2.6" fill="#1F9CF0"></circle><circle cx="581.38" cy="265.53" r="2.6" fill="#1F9CF0"></circle><circle cx="591.48" cy="248.25" r="2.6" fill="#1F9CF0"></circle><circle cx="601.59" cy="259.3" r="2.6" fill="#1F9CF0"></circle><circle cx="611.69" cy="255.01" r="2.6" fill="#1F9CF0"></circle><line x1="656" y1="27" x2="672" y2="27" stroke="#E8835A" stroke-width="3" stroke-linecap="round"></line><text x="678" y="30" font-size="11" font-weight="400" text-anchor="start" fill="#e6edf3">anthropic</text><line x1="656" y1="47" x2="672" y2="47" stroke="#6366F1" stroke-width="3" stroke-linecap="round"></line><text x="678" y="50" font-size="11" font-weight="400" text-anchor="start" fill="#e6edf3">deepseek</text><line x1="656" y1="67" x2="672" y2="67" stroke="#2DA98C" stroke-width="3" stroke-linecap="round"></line><text x="678" y="70" font-size="11" font-weight="400" text-anchor="start" fill="#e6edf3">gemini</text><line x1="656" y1="87" x2="672" y2="87" stroke="#A371F7" stroke-width="3" stroke-linecap="round"></line><text x="678" y="90" font-size="11" font-weight="400" text-anchor="start" fill="#e6edf3">llama</text><line x1="656" y1="107" x2="672" y2="107" stroke="#F0A23B" stroke-width="3" stroke-linecap="round"></line><text x="678" y="110" font-size="11" font-weight="400" text-anchor="start" fill="#e6edf3">mistral</text><line x1="656" y1="127" x2="672" y2="127" stroke="#1F9CF0" stroke-width="3" stroke-linecap="round"></line><text x="678" y="130" font-size="11" font-weight="400" text-anchor="start" fill="#e6edf3">openai</text></svg>
