<svg xmlns="http://www.w3.org/2000/svg" viewBox="0 0 760 348" width="760" height="348" role="img" aria-label="Average LLM latency by provider over runs — llama highest, deepseek lowest" font-family="-apple-system,BlinkMacSystemFont,'Segoe UI',system-ui,sans-serif"><line x1="56" y1="306" x2="642" y2="306" stroke="#d8dee4" stroke-width="1"></line><text x="46" y="310" font-size="9.5" font-weight="400" text-anchor="end" fill="#656d76" font-family="ui-monospace,SFMono-Regular,Menlo,monospace">0.0s</text><line x1="56" y1="235" x2="642" y2="235" stroke="#d8dee4" stroke-width="1"></line><text x="46" y="239" font-size="9.5" font-weight="400" text-anchor="end" fill="#656d76" font-family="ui-monospace,SFMono-Regular,Menlo,monospace">89.8s</text><line x1="56" y1="164" x2="642" y2="164" stroke="#d8dee4" stroke-width="1"></line><text x="46" y="168" font-size="9.5" font-weight="400" text-anchor="end" fill="#656d76" font-family="ui-monospace,SFMono-Regular,Menlo,monospace">179.7s</text><line x1="56" y1="93" x2="642" y2="93" stroke="#d8dee4" stroke-width="1"></line><text x="46" y="97" font-size="9.5" font-weight="400" text-anchor="end" fill="#656d76" font-family="ui-monospace,SFMono-Regular,Menlo,monospace">269.5s</text><line x1="56" y1="22" x2="642" y2="22" stroke="#d8dee4" stroke-width="1"></line><text x="46" y="26" font-size="9.5" font-weight="400" text-anchor="end" fill="#656d76" font-family="ui-monospace,SFMono-Regular,Menlo,monospace">359.4s</text><text x="56" y="324" font-size="9.5" font-weight="400" text-anchor="middle" fill="#656d76" font-family="ui-monospace,SFMono-Regular,Menlo,monospace">06/08</text><text x="111.81" y="324" font-size="9.5" font-weight="400" text-anchor="middle" fill="#656d76" font-family="ui-monospace,SFMono-Regular,Menlo,monospace">06/09</text><text x="167.62" y="324" font-size="9.5" font-weight="400" text-anchor="middle" fill="#656d76" font-family="ui-monospace,SFMono-Regular,Menlo,monospace">06/12</text><text x="223.43" y="324" font-size="9.5" font-weight="400" text-anchor="middle" fill="#656d76" font-family="ui-monospace,SFMono-Regular,Menlo,monospace">06/14</text><text x="279.24" y="324" font-size="9.5" font-weight="400" text-anchor="middle" fill="#656d76" font-family="ui-monospace,SFMono-Regular,Menlo,monospace">06/16</text><text x="335.05" y="324" font-size="9.5" font-weight="400" text-anchor="middle" fill="#656d76" font-family="ui-monospace,SFMono-Regular,Menlo,monospace">06/17</text><text x="390.86" y="324" font-size="9.5" font-weight="400" text-anchor="middle" fill="#656d76" font-family="ui-monospace,SFMono-Regular,Menlo,monospace">06/20</text><text x="446.67" y="324" font-size="9.5" font-weight="400" text-anchor="middle" fill="#656d76" font-family="ui-monospace,SFMono-Regular,Menlo,monospace">06/21</text><text x="502.48" y="324" font-size="9.5" font-weight="400" text-anchor="middle" fill="#656d76" font-family="ui-monospace,SFMono-Regular,Menlo,monospace">06/23</text><text x="558.29" y="324" font-size="9.5" font-weight="400" text-anchor="middle" fill="#656d76" font-family="ui-monospace,SFMono-Regular,Menlo,monospace">06/25</text><text x="614.1" y="324" font-size="9.5" font-weight="400" text-anchor="middle" fill="#656d76" font-family="ui-monospace,SFMono-Regular,Menlo,monospace">06/26</text><text x="642" y="324" font-size="9.5" font-weight="400" text-anchor="middle" fill="#656d76" font-family="ui-monospace,SFMono-Regular,Menlo,monospace">06/27</text><polyline fill="none" stroke="#E8835A" stroke-width="2.4" stroke-linejoin="round" stroke-linecap="round" points="56,235.39 62.98,238.29 69.95,244.38 76.93,249.04 83.9,241.21 90.88,238.75 97.86,254.8 104.83,248.46 111.81,246.88 118.79,237.22 132.74,239.88 139.71,249.33 146.69,234.99 153.67,250.94 160.64,247.36 167.62,241.3 174.6,247.49 181.57,249.54 188.55,251.77 195.52,246.01 202.5,255.31 209.48,249.27 216.45,246.58 223.43,250.53 230.4,249.97 237.38,246.11 244.36,248.83 251.33,248.37 258.31,245.55 265.29,247.83 272.26,222.93 279.24,247.01 286.21,244.11 293.19,248.53 300.17,248.91 307.14,240.58 314.12,249.5 321.1,249.62"></polyline><circle cx="56" cy="235.39" r="2.6" fill="#E8835A"></circle><circle cx="62.98" cy="238.29" r="2.6" fill="#E8835A"></circle><circle cx="69.95" cy="244.38" r="2.6" fill="#E8835A"></circle><circle cx="76.93" cy="249.04" r="2.6" fill="#E8835A"></circle><circle cx="83.9" cy="241.21" r="2.6" fill="#E8835A"></circle><circle cx="90.88" cy="238.75" r="2.6" fill="#E8835A"></circle><circle cx="97.86" cy="254.8" r="2.6" fill="#E8835A"></circle><circle cx="104.83" cy="248.46" r="2.6" fill="#E8835A"></circle><circle cx="111.81" cy="246.88" r="2.6" fill="#E8835A"></circle><circle cx="118.79" cy="237.22" r="2.6" fill="#E8835A"></circle><circle cx="132.74" cy="239.88" r="2.6" fill="#E8835A"></circle><circle cx="139.71" cy="249.33" r="2.6" fill="#E8835A"></circle><circle cx="146.69" cy="234.99" r="2.6" fill="#E8835A"></circle><circle cx="153.67" cy="250.94" r="2.6" fill="#E8835A"></circle><circle cx="160.64" cy="247.36" r="2.6" fill="#E8835A"></circle><circle cx="167.62" cy="241.3" r="2.6" fill="#E8835A"></circle><circle cx="174.6" cy="247.49" r="2.6" fill="#E8835A"></circle><circle cx="181.57" cy="249.54" r="2.6" fill="#E8835A"></circle><circle cx="188.55" cy="251.77" r="2.6" fill="#E8835A"></circle><circle cx="195.52" cy="246.01" r="2.6" fill="#E8835A"></circle><circle cx="202.5" cy="255.31" r="2.6" fill="#E8835A"></circle><circle cx="209.48" cy="249.27" r="2.6" fill="#E8835A"></circle><circle cx="216.45" cy="246.58" r="2.6" fill="#E8835A"></circle><circle cx="223.43" cy="250.53" r="2.6" fill="#E8835A"></circle><circle cx="230.4" cy="249.97" r="2.6" fill="#E8835A"></circle><circle cx="237.38" cy="246.11" r="2.6" fill="#E8835A"></circle><circle cx="244.36" cy="248.83" r="2.6" fill="#E8835A"></circle><circle cx="251.33" cy="248.37" r="2.6" fill="#E8835A"></circle><circle cx="258.31" cy="245.55" r="2.6" fill="#E8835A"></circle><circle cx="265.29" cy="247.83" r="2.6" fill="#E8835A"></circle><circle cx="272.26" cy="222.93" r="2.6" fill="#E8835A"></circle><circle cx="279.24" cy="247.01" r="2.6" fill="#E8835A"></circle><circle cx="286.21" cy="244.11" r="2.6" fill="#E8835A"></circle><circle cx="293.19" cy="248.53" r="2.6" fill="#E8835A"></circle><circle cx="300.17" cy="248.91" r="2.6" fill="#E8835A"></circle><circle cx="307.14" cy="240.58" r="2.6" fill="#E8835A"></circle><circle cx="314.12" cy="249.5" r="2.6" fill="#E8835A"></circle><circle cx="321.1" cy="249.62" r="2.6" fill="#E8835A"></circle><polyline fill="none" stroke="#6366F1" stroke-width="2.4" stroke-linejoin="round" stroke-linecap="round" points="62.98,252.02 69.95,247.56 76.93,254.53 83.9,236.61 90.88,263.92 97.86,264.05 104.83,273.32 111.81,253.56 118.79,250.13 125.76,252.55 132.74,260.26 139.71,253.37 146.69,265.09 153.67,248.64 160.64,218.25 167.62,269.55 174.6,238.32 181.57,238.26 188.55,207.83 195.52,243.44 202.5,257.28 209.48,269.35 216.45,222.62 223.43,269.22 230.4,262.13 237.38,269.08 244.36,251.51 251.33,249.53 265.29,246.19 272.26,259.61 279.24,256.86 286.21,242.79 293.19,262.12 300.17,241.54 307.14,257.18 314.12,248.79 321.1,253.63 335.05,266.54 342.02,266.45 349,255.33 355.98,244.22 362.95,250.73 369.93,245.81 376.9,249.57 383.88,243.75 390.86,269.65 397.83,226.9 404.81,260.77 418.76,254.65 425.74,267.55 432.71,253.79 439.69,256.98 446.67,242.55 453.64,261.82 460.62,250 467.6,250.39 474.57,255.69 481.55,255.24 488.52,253.63 495.5,261.31 502.48,268.47 509.45,257.9 516.43,266.18 523.4,257.82 530.38,252.57 537.36,246.47 544.33,268.38 551.31,261.17 558.29,269 565.26,268.62 572.24,254.74 579.21,261.24 586.19,267.25 593.17,240.66 600.14,243.42 607.12,248.48 614.1,254.7 628.05,248.08 635.02,246.76 642,267.75"></polyline><circle cx="62.98" cy="252.02" r="2.6" fill="#6366F1"></circle><circle cx="69.95" cy="247.56" r="2.6" fill="#6366F1"></circle><circle cx="76.93" cy="254.53" r="2.6" fill="#6366F1"></circle><circle cx="83.9" cy="236.61" r="2.6" fill="#6366F1"></circle><circle cx="90.88" cy="263.92" r="2.6" fill="#6366F1"></circle><circle cx="97.86" cy="264.05" r="2.6" fill="#6366F1"></circle><circle cx="104.83" cy="273.32" r="2.6" fill="#6366F1"></circle><circle cx="111.81" cy="253.56" r="2.6" fill="#6366F1"></circle><circle cx="118.79" cy="250.13" r="2.6" fill="#6366F1"></circle><circle cx="125.76" cy="252.55" r="2.6" fill="#6366F1"></circle><circle cx="132.74" cy="260.26" r="2.6" fill="#6366F1"></circle><circle cx="139.71" cy="253.37" r="2.6" fill="#6366F1"></circle><circle cx="146.69" cy="265.09" r="2.6" fill="#6366F1"></circle><circle cx="153.67" cy="248.64" r="2.6" fill="#6366F1"></circle><circle cx="160.64" cy="218.25" r="2.6" fill="#6366F1"></circle><circle cx="167.62" cy="269.55" r="2.6" fill="#6366F1"></circle><circle cx="174.6" cy="238.32" r="2.6" fill="#6366F1"></circle><circle cx="181.57" cy="238.26" r="2.6" fill="#6366F1"></circle><circle cx="188.55" cy="207.83" r="2.6" fill="#6366F1"></circle><circle cx="195.52" cy="243.44" r="2.6" fill="#6366F1"></circle><circle cx="202.5" cy="257.28" r="2.6" fill="#6366F1"></circle><circle cx="209.48" cy="269.35" r="2.6" fill="#6366F1"></circle><circle cx="216.45" cy="222.62" r="2.6" fill="#6366F1"></circle><circle cx="223.43" cy="269.22" r="2.6" fill="#6366F1"></circle><circle cx="230.4" cy="262.13" r="2.6" fill="#6366F1"></circle><circle cx="237.38" cy="269.08" r="2.6" fill="#6366F1"></circle><circle cx="244.36" cy="251.51" r="2.6" fill="#6366F1"></circle><circle cx="251.33" cy="249.53" r="2.6" fill="#6366F1"></circle><circle cx="265.29" cy="246.19" r="2.6" fill="#6366F1"></circle><circle cx="272.26" cy="259.61" r="2.6" fill="#6366F1"></circle><circle cx="279.24" cy="256.86" r="2.6" fill="#6366F1"></circle><circle cx="286.21" cy="242.79" r="2.6" fill="#6366F1"></circle><circle cx="293.19" cy="262.12" r="2.6" fill="#6366F1"></circle><circle cx="300.17" cy="241.54" r="2.6" fill="#6366F1"></circle><circle cx="307.14" cy="257.18" r="2.6" fill="#6366F1"></circle><circle cx="314.12" cy="248.79" r="2.6" fill="#6366F1"></circle><circle cx="321.1" cy="253.63" r="2.6" fill="#6366F1"></circle><circle cx="335.05" cy="266.54" r="2.6" fill="#6366F1"></circle><circle cx="342.02" cy="266.45" r="2.6" fill="#6366F1"></circle><circle cx="349" cy="255.33" r="2.6" fill="#6366F1"></circle><circle cx="355.98" cy="244.22" r="2.6" fill="#6366F1"></circle><circle cx="362.95" cy="250.73" r="2.6" fill="#6366F1"></circle><circle cx="369.93" cy="245.81" r="2.6" fill="#6366F1"></circle><circle cx="376.9" cy="249.57" r="2.6" fill="#6366F1"></circle><circle cx="383.88" cy="243.75" r="2.6" fill="#6366F1"></circle><circle cx="390.86" cy="269.65" r="2.6" fill="#6366F1"></circle><circle cx="397.83" cy="226.9" r="2.6" fill="#6366F1"></circle><circle cx="404.81" cy="260.77" r="2.6" fill="#6366F1"></circle><circle cx="418.76" cy="254.65" r="2.6" fill="#6366F1"></circle><circle cx="425.74" cy="267.55" r="2.6" fill="#6366F1"></circle><circle cx="432.71" cy="253.79" r="2.6" fill="#6366F1"></circle><circle cx="439.69" cy="256.98" r="2.6" fill="#6366F1"></circle><circle cx="446.67" cy="242.55" r="2.6" fill="#6366F1"></circle><circle cx="453.64" cy="261.82" r="2.6" fill="#6366F1"></circle><circle cx="460.62" cy="250" r="2.6" fill="#6366F1"></circle><circle cx="467.6" cy="250.39" r="2.6" fill="#6366F1"></circle><circle cx="474.57" cy="255.69" r="2.6" fill="#6366F1"></circle><circle cx="481.55" cy="255.24" r="2.6" fill="#6366F1"></circle><circle cx="488.52" cy="253.63" r="2.6" fill="#6366F1"></circle><circle cx="495.5" cy="261.31" r="2.6" fill="#6366F1"></circle><circle cx="502.48" cy="268.47" r="2.6" fill="#6366F1"></circle><circle cx="509.45" cy="257.9" r="2.6" fill="#6366F1"></circle><circle cx="516.43" cy="266.18" r="2.6" fill="#6366F1"></circle><circle cx="523.4" cy="257.82" r="2.6" fill="#6366F1"></circle><circle cx="530.38" cy="252.57" r="2.6" fill="#6366F1"></circle><circle cx="537.36" cy="246.47" r="2.6" fill="#6366F1"></circle><circle cx="544.33" cy="268.38" r="2.6" fill="#6366F1"></circle><circle cx="551.31" cy="261.17" r="2.6" fill="#6366F1"></circle><circle cx="558.29" cy="269" r="2.6" fill="#6366F1"></circle><circle cx="565.26" cy="268.62" r="2.6" fill="#6366F1"></circle><circle cx="572.24" cy="254.74" r="2.6" fill="#6366F1"></circle><circle cx="579.21" cy="261.24" r="2.6" fill="#6366F1"></circle><circle cx="586.19" cy="267.25" r="2.6" fill="#6366F1"></circle><circle cx="593.17" cy="240.66" r="2.6" fill="#6366F1"></circle><circle cx="600.14" cy="243.42" r="2.6" fill="#6366F1"></circle><circle cx="607.12" cy="248.48" r="2.6" fill="#6366F1"></circle><circle cx="614.1" cy="254.7" r="2.6" fill="#6366F1"></circle><circle cx="628.05" cy="248.08" r="2.6" fill="#6366F1"></circle><circle cx="635.02" cy="246.76" r="2.6" fill="#6366F1"></circle><circle cx="642" cy="267.75" r="2.6" fill="#6366F1"></circle><polyline fill="none" stroke="#2DA98C" stroke-width="2.4" stroke-linejoin="round" stroke-linecap="round" points="56,213.44 62.98,222.74 69.95,184.86 76.93,224.74 83.9,225.77 90.88,233.94 97.86,212.06 104.83,201.39 111.81,222.71 118.79,203.81 125.76,203.94 132.74,154.86 139.71,161.63 146.69,203.87 153.67,191.01 160.64,210.53 167.62,180.2 174.6,218.98 181.57,202.89 188.55,201.3 195.52,214.69 265.29,228.04 272.26,199.63 279.24,193.3 286.21,231.72 293.19,194.25 300.17,192.16 307.14,218.59 314.12,173.27 321.1,218.31 335.05,192.08 342.02,183.17 349,192 355.98,196.45 362.95,224.77 369.93,182.67 376.9,218.84 383.88,182.47 390.86,191.31 397.83,199.38 404.81,200.36 418.76,220.53 425.74,181.12 432.71,142.43 439.69,229.46 446.67,208.98 453.64,167.95 460.62,194.72 467.6,187 474.57,179.1 481.55,213.42 488.52,178.5 495.5,166.86 502.48,205.5 509.45,166.47 516.43,205.48 523.4,212.21 530.38,139.79 537.36,163.97 544.33,186.92 551.31,207.4"></polyline><circle cx="56" cy="213.44" r="2.6" fill="#2DA98C"></circle><circle cx="62.98" cy="222.74" r="2.6" fill="#2DA98C"></circle><circle cx="69.95" cy="184.86" r="2.6" fill="#2DA98C"></circle><circle cx="76.93" cy="224.74" r="2.6" fill="#2DA98C"></circle><circle cx="83.9" cy="225.77" r="2.6" fill="#2DA98C"></circle><circle cx="90.88" cy="233.94" r="2.6" fill="#2DA98C"></circle><circle cx="97.86" cy="212.06" r="2.6" fill="#2DA98C"></circle><circle cx="104.83" cy="201.39" r="2.6" fill="#2DA98C"></circle><circle cx="111.81" cy="222.71" r="2.6" fill="#2DA98C"></circle><circle cx="118.79" cy="203.81" r="2.6" fill="#2DA98C"></circle><circle cx="125.76" cy="203.94" r="2.6" fill="#2DA98C"></circle><circle cx="132.74" cy="154.86" r="2.6" fill="#2DA98C"></circle><circle cx="139.71" cy="161.63" r="2.6" fill="#2DA98C"></circle><circle cx="146.69" cy="203.87" r="2.6" fill="#2DA98C"></circle><circle cx="153.67" cy="191.01" r="2.6" fill="#2DA98C"></circle><circle cx="160.64" cy="210.53" r="2.6" fill="#2DA98C"></circle><circle cx="167.62" cy="180.2" r="2.6" fill="#2DA98C"></circle><circle cx="174.6" cy="218.98" r="2.6" fill="#2DA98C"></circle><circle cx="181.57" cy="202.89" r="2.6" fill="#2DA98C"></circle><circle cx="188.55" cy="201.3" r="2.6" fill="#2DA98C"></circle><circle cx="195.52" cy="214.69" r="2.6" fill="#2DA98C"></circle><circle cx="265.29" cy="228.04" r="2.6" fill="#2DA98C"></circle><circle cx="272.26" cy="199.63" r="2.6" fill="#2DA98C"></circle><circle cx="279.24" cy="193.3" r="2.6" fill="#2DA98C"></circle><circle cx="286.21" cy="231.72" r="2.6" fill="#2DA98C"></circle><circle cx="293.19" cy="194.25" r="2.6" fill="#2DA98C"></circle><circle cx="300.17" cy="192.16" r="2.6" fill="#2DA98C"></circle><circle cx="307.14" cy="218.59" r="2.6" fill="#2DA98C"></circle><circle cx="314.12" cy="173.27" r="2.6" fill="#2DA98C"></circle><circle cx="321.1" cy="218.31" r="2.6" fill="#2DA98C"></circle><circle cx="335.05" cy="192.08" r="2.6" fill="#2DA98C"></circle><circle cx="342.02" cy="183.17" r="2.6" fill="#2DA98C"></circle><circle cx="349" cy="192" r="2.6" fill="#2DA98C"></circle><circle cx="355.98" cy="196.45" r="2.6" fill="#2DA98C"></circle><circle cx="362.95" cy="224.77" r="2.6" fill="#2DA98C"></circle><circle cx="369.93" cy="182.67" r="2.6" fill="#2DA98C"></circle><circle cx="376.9" cy="218.84" r="2.6" fill="#2DA98C"></circle><circle cx="383.88" cy="182.47" r="2.6" fill="#2DA98C"></circle><circle cx="390.86" cy="191.31" r="2.6" fill="#2DA98C"></circle><circle cx="397.83" cy="199.38" r="2.6" fill="#2DA98C"></circle><circle cx="404.81" cy="200.36" r="2.6" fill="#2DA98C"></circle><circle cx="418.76" cy="220.53" r="2.6" fill="#2DA98C"></circle><circle cx="425.74" cy="181.12" r="2.6" fill="#2DA98C"></circle><circle cx="432.71" cy="142.43" r="2.6" fill="#2DA98C"></circle><circle cx="439.69" cy="229.46" r="2.6" fill="#2DA98C"></circle><circle cx="446.67" cy="208.98" r="2.6" fill="#2DA98C"></circle><circle cx="453.64" cy="167.95" r="2.6" fill="#2DA98C"></circle><circle cx="460.62" cy="194.72" r="2.6" fill="#2DA98C"></circle><circle cx="467.6" cy="187" r="2.6" fill="#2DA98C"></circle><circle cx="474.57" cy="179.1" r="2.6" fill="#2DA98C"></circle><circle cx="481.55" cy="213.42" r="2.6" fill="#2DA98C"></circle><circle cx="488.52" cy="178.5" r="2.6" fill="#2DA98C"></circle><circle cx="495.5" cy="166.86" r="2.6" fill="#2DA98C"></circle><circle cx="502.48" cy="205.5" r="2.6" fill="#2DA98C"></circle><circle cx="509.45" cy="166.47" r="2.6" fill="#2DA98C"></circle><circle cx="516.43" cy="205.48" r="2.6" fill="#2DA98C"></circle><circle cx="523.4" cy="212.21" r="2.6" fill="#2DA98C"></circle><circle cx="530.38" cy="139.79" r="2.6" fill="#2DA98C"></circle><circle cx="537.36" cy="163.97" r="2.6" fill="#2DA98C"></circle><circle cx="544.33" cy="186.92" r="2.6" fill="#2DA98C"></circle><circle cx="551.31" cy="207.4" r="2.6" fill="#2DA98C"></circle><polyline fill="none" stroke="#A371F7" stroke-width="2.4" stroke-linejoin="round" stroke-linecap="round" points="56,142.33 62.98,162.53 69.95,191.85 76.93,152.78 83.9,123.49 90.88,226.96 97.86,131.7 104.83,192.89 111.81,202.89 118.79,205.95 125.76,122.11 132.74,159.06 139.71,191.54 146.69,211.25 153.67,148.69 160.64,226.13 167.62,78.91 174.6,205.9 181.57,178.9 188.55,94 195.52,142.92 202.5,164.72 209.48,178.19 216.45,193.51 223.43,174.42 230.4,161 237.38,73.02 244.36,113.6 251.33,201.04 265.29,164.38 272.26,180.3 279.24,149.09 293.19,214.83 300.17,179.1 307.14,198.8 314.12,156.94 321.1,155.77 328.07,175.25 335.05,142.94 342.02,157.99 349,109.66 355.98,169.43 362.95,172.05 369.93,186.85 376.9,131.62 383.88,177.35 390.86,150.23 404.81,167.38 418.76,148.53 432.71,130.14 439.69,142.2 446.67,226.83 453.64,181.1 460.62,167.16 467.6,199.11 474.57,173.89 481.55,193.02 488.52,176.93 495.5,187.25 502.48,167.94 516.43,161.24 523.4,205.25 530.38,157.11 537.36,128 544.33,162.04 551.31,173.24 558.29,208.43 565.26,206.1 572.24,132.29 579.21,134.48 586.19,203.36 593.17,127.64 600.14,168.76 614.1,212.25 628.05,138.85 635.02,225.81 642,52.43"></polyline><circle cx="56" cy="142.33" r="2.6" fill="#A371F7"></circle><circle cx="62.98" cy="162.53" r="2.6" fill="#A371F7"></circle><circle cx="69.95" cy="191.85" r="2.6" fill="#A371F7"></circle><circle cx="76.93" cy="152.78" r="2.6" fill="#A371F7"></circle><circle cx="83.9" cy="123.49" r="2.6" fill="#A371F7"></circle><circle cx="90.88" cy="226.96" r="2.6" fill="#A371F7"></circle><circle cx="97.86" cy="131.7" r="2.6" fill="#A371F7"></circle><circle cx="104.83" cy="192.89" r="2.6" fill="#A371F7"></circle><circle cx="111.81" cy="202.89" r="2.6" fill="#A371F7"></circle><circle cx="118.79" cy="205.95" r="2.6" fill="#A371F7"></circle><circle cx="125.76" cy="122.11" r="2.6" fill="#A371F7"></circle><circle cx="132.74" cy="159.06" r="2.6" fill="#A371F7"></circle><circle cx="139.71" cy="191.54" r="2.6" fill="#A371F7"></circle><circle cx="146.69" cy="211.25" r="2.6" fill="#A371F7"></circle><circle cx="153.67" cy="148.69" r="2.6" fill="#A371F7"></circle><circle cx="160.64" cy="226.13" r="2.6" fill="#A371F7"></circle><circle cx="167.62" cy="78.91" r="2.6" fill="#A371F7"></circle><circle cx="174.6" cy="205.9" r="2.6" fill="#A371F7"></circle><circle cx="181.57" cy="178.9" r="2.6" fill="#A371F7"></circle><circle cx="188.55" cy="94" r="2.6" fill="#A371F7"></circle><circle cx="195.52" cy="142.92" r="2.6" fill="#A371F7"></circle><circle cx="202.5" cy="164.72" r="2.6" fill="#A371F7"></circle><circle cx="209.48" cy="178.19" r="2.6" fill="#A371F7"></circle><circle cx="216.45" cy="193.51" r="2.6" fill="#A371F7"></circle><circle cx="223.43" cy="174.42" r="2.6" fill="#A371F7"></circle><circle cx="230.4" cy="161" r="2.6" fill="#A371F7"></circle><circle cx="237.38" cy="73.02" r="2.6" fill="#A371F7"></circle><circle cx="244.36" cy="113.6" r="2.6" fill="#A371F7"></circle><circle cx="251.33" cy="201.04" r="2.6" fill="#A371F7"></circle><circle cx="265.29" cy="164.38" r="2.6" fill="#A371F7"></circle><circle cx="272.26" cy="180.3" r="2.6" fill="#A371F7"></circle><circle cx="279.24" cy="149.09" r="2.6" fill="#A371F7"></circle><circle cx="293.19" cy="214.83" r="2.6" fill="#A371F7"></circle><circle cx="300.17" cy="179.1" r="2.6" fill="#A371F7"></circle><circle cx="307.14" cy="198.8" r="2.6" fill="#A371F7"></circle><circle cx="314.12" cy="156.94" r="2.6" fill="#A371F7"></circle><circle cx="321.1" cy="155.77" r="2.6" fill="#A371F7"></circle><circle cx="328.07" cy="175.25" r="2.6" fill="#A371F7"></circle><circle cx="335.05" cy="142.94" r="2.6" fill="#A371F7"></circle><circle cx="342.02" cy="157.99" r="2.6" fill="#A371F7"></circle><circle cx="349" cy="109.66" r="2.6" fill="#A371F7"></circle><circle cx="355.98" cy="169.43" r="2.6" fill="#A371F7"></circle><circle cx="362.95" cy="172.05" r="2.6" fill="#A371F7"></circle><circle cx="369.93" cy="186.85" r="2.6" fill="#A371F7"></circle><circle cx="376.9" cy="131.62" r="2.6" fill="#A371F7"></circle><circle cx="383.88" cy="177.35" r="2.6" fill="#A371F7"></circle><circle cx="390.86" cy="150.23" r="2.6" fill="#A371F7"></circle><circle cx="404.81" cy="167.38" r="2.6" fill="#A371F7"></circle><circle cx="418.76" cy="148.53" r="2.6" fill="#A371F7"></circle><circle cx="432.71" cy="130.14" r="2.6" fill="#A371F7"></circle><circle cx="439.69" cy="142.2" r="2.6" fill="#A371F7"></circle><circle cx="446.67" cy="226.83" r="2.6" fill="#A371F7"></circle><circle cx="453.64" cy="181.1" r="2.6" fill="#A371F7"></circle><circle cx="460.62" cy="167.16" r="2.6" fill="#A371F7"></circle><circle cx="467.6" cy="199.11" r="2.6" fill="#A371F7"></circle><circle cx="474.57" cy="173.89" r="2.6" fill="#A371F7"></circle><circle cx="481.55" cy="193.02" r="2.6" fill="#A371F7"></circle><circle cx="488.52" cy="176.93" r="2.6" fill="#A371F7"></circle><circle cx="495.5" cy="187.25" r="2.6" fill="#A371F7"></circle><circle cx="502.48" cy="167.94" r="2.6" fill="#A371F7"></circle><circle cx="516.43" cy="161.24" r="2.6" fill="#A371F7"></circle><circle cx="523.4" cy="205.25" r="2.6" fill="#A371F7"></circle><circle cx="530.38" cy="157.11" r="2.6" fill="#A371F7"></circle><circle cx="537.36" cy="128" r="2.6" fill="#A371F7"></circle><circle cx="544.33" cy="162.04" r="2.6" fill="#A371F7"></circle><circle cx="551.31" cy="173.24" r="2.6" fill="#A371F7"></circle><circle cx="558.29" cy="208.43" r="2.6" fill="#A371F7"></circle><circle cx="565.26" cy="206.1" r="2.6" fill="#A371F7"></circle><circle cx="572.24" cy="132.29" r="2.6" fill="#A371F7"></circle><circle cx="579.21" cy="134.48" r="2.6" fill="#A371F7"></circle><circle cx="586.19" cy="203.36" r="2.6" fill="#A371F7"></circle><circle cx="593.17" cy="127.64" r="2.6" fill="#A371F7"></circle><circle cx="600.14" cy="168.76" r="2.6" fill="#A371F7"></circle><circle cx="614.1" cy="212.25" r="2.6" fill="#A371F7"></circle><circle cx="628.05" cy="138.85" r="2.6" fill="#A371F7"></circle><circle cx="635.02" cy="225.81" r="2.6" fill="#A371F7"></circle><circle cx="642" cy="52.43" r="2.6" fill="#A371F7"></circle><polyline fill="none" stroke="#F0A23B" stroke-width="2.4" stroke-linejoin="round" stroke-linecap="round" points="56,181.6 62.98,163.24 69.95,196.91 76.93,165.72 83.9,151.09 90.88,197.02 97.86,211.34 104.83,226.59 111.81,196.94 118.79,175.2 125.76,225.64 132.74,252.62 139.71,229.51 146.69,254.28 153.67,231.3 160.64,248.75 167.62,250.7 174.6,219.49 181.57,241.88 188.55,261.69 195.52,253.29 202.5,240.03 209.48,252.31 216.45,248.72 223.43,262.44 230.4,258.17 237.38,241.17 244.36,217.53 251.33,236.05 258.31,235.93 265.29,247.88 272.26,226.32 279.24,225.78 286.21,252.87 293.19,256.41 300.17,246.87 307.14,211.21 314.12,200.49 321.1,241.88 328.07,252.22 335.05,243.44 342.02,233.84 349,246.6 355.98,254.3 362.95,240.45 369.93,254.55 376.9,258.16 383.88,256.77 390.86,250.34 397.83,243.51 404.81,244.3 418.76,261.72 425.74,239.23 432.71,244.41 439.69,256.53 446.67,251.19 453.64,228.18 460.62,234.36 467.6,254.15 474.57,242.56 481.55,248.91 488.52,251.68 495.5,243.93 502.48,252.64 516.43,241.61 523.4,222.3 530.38,210.23 537.36,226.96 544.33,244.12 551.31,238.44 558.29,227.56 565.26,233.9 572.24,234.88 579.21,248.31 586.19,246.82 593.17,202.38 600.14,253.63 614.1,235.43 621.07,235.87 628.05,234.52 635.02,246.22 642,230.49"></polyline><circle cx="56" cy="181.6" r="2.6" fill="#F0A23B"></circle><circle cx="62.98" cy="163.24" r="2.6" fill="#F0A23B"></circle><circle cx="69.95" cy="196.91" r="2.6" fill="#F0A23B"></circle><circle cx="76.93" cy="165.72" r="2.6" fill="#F0A23B"></circle><circle cx="83.9" cy="151.09" r="2.6" fill="#F0A23B"></circle><circle cx="90.88" cy="197.02" r="2.6" fill="#F0A23B"></circle><circle cx="97.86" cy="211.34" r="2.6" fill="#F0A23B"></circle><circle cx="104.83" cy="226.59" r="2.6" fill="#F0A23B"></circle><circle cx="111.81" cy="196.94" r="2.6" fill="#F0A23B"></circle><circle cx="118.79" cy="175.2" r="2.6" fill="#F0A23B"></circle><circle cx="125.76" cy="225.64" r="2.6" fill="#F0A23B"></circle><circle cx="132.74" cy="252.62" r="2.6" fill="#F0A23B"></circle><circle cx="139.71" cy="229.51" r="2.6" fill="#F0A23B"></circle><circle cx="146.69" cy="254.28" r="2.6" fill="#F0A23B"></circle><circle cx="153.67" cy="231.3" r="2.6" fill="#F0A23B"></circle><circle cx="160.64" cy="248.75" r="2.6" fill="#F0A23B"></circle><circle cx="167.62" cy="250.7" r="2.6" fill="#F0A23B"></circle><circle cx="174.6" cy="219.49" r="2.6" fill="#F0A23B"></circle><circle cx="181.57" cy="241.88" r="2.6" fill="#F0A23B"></circle><circle cx="188.55" cy="261.69" r="2.6" fill="#F0A23B"></circle><circle cx="195.52" cy="253.29" r="2.6" fill="#F0A23B"></circle><circle cx="202.5" cy="240.03" r="2.6" fill="#F0A23B"></circle><circle cx="209.48" cy="252.31" r="2.6" fill="#F0A23B"></circle><circle cx="216.45" cy="248.72" r="2.6" fill="#F0A23B"></circle><circle cx="223.43" cy="262.44" r="2.6" fill="#F0A23B"></circle><circle cx="230.4" cy="258.17" r="2.6" fill="#F0A23B"></circle><circle cx="237.38" cy="241.17" r="2.6" fill="#F0A23B"></circle><circle cx="244.36" cy="217.53" r="2.6" fill="#F0A23B"></circle><circle cx="251.33" cy="236.05" r="2.6" fill="#F0A23B"></circle><circle cx="258.31" cy="235.93" r="2.6" fill="#F0A23B"></circle><circle cx="265.29" cy="247.88" r="2.6" fill="#F0A23B"></circle><circle cx="272.26" cy="226.32" r="2.6" fill="#F0A23B"></circle><circle cx="279.24" cy="225.78" r="2.6" fill="#F0A23B"></circle><circle cx="286.21" cy="252.87" r="2.6" fill="#F0A23B"></circle><circle cx="293.19" cy="256.41" r="2.6" fill="#F0A23B"></circle><circle cx="300.17" cy="246.87" r="2.6" fill="#F0A23B"></circle><circle cx="307.14" cy="211.21" r="2.6" fill="#F0A23B"></circle><circle cx="314.12" cy="200.49" r="2.6" fill="#F0A23B"></circle><circle cx="321.1" cy="241.88" r="2.6" fill="#F0A23B"></circle><circle cx="328.07" cy="252.22" r="2.6" fill="#F0A23B"></circle><circle cx="335.05" cy="243.44" r="2.6" fill="#F0A23B"></circle><circle cx="342.02" cy="233.84" r="2.6" fill="#F0A23B"></circle><circle cx="349" cy="246.6" r="2.6" fill="#F0A23B"></circle><circle cx="355.98" cy="254.3" r="2.6" fill="#F0A23B"></circle><circle cx="362.95" cy="240.45" r="2.6" fill="#F0A23B"></circle><circle cx="369.93" cy="254.55" r="2.6" fill="#F0A23B"></circle><circle cx="376.9" cy="258.16" r="2.6" fill="#F0A23B"></circle><circle cx="383.88" cy="256.77" r="2.6" fill="#F0A23B"></circle><circle cx="390.86" cy="250.34" r="2.6" fill="#F0A23B"></circle><circle cx="397.83" cy="243.51" r="2.6" fill="#F0A23B"></circle><circle cx="404.81" cy="244.3" r="2.6" fill="#F0A23B"></circle><circle cx="418.76" cy="261.72" r="2.6" fill="#F0A23B"></circle><circle cx="425.74" cy="239.23" r="2.6" fill="#F0A23B"></circle><circle cx="432.71" cy="244.41" r="2.6" fill="#F0A23B"></circle><circle cx="439.69" cy="256.53" r="2.6" fill="#F0A23B"></circle><circle cx="446.67" cy="251.19" r="2.6" fill="#F0A23B"></circle><circle cx="453.64" cy="228.18" r="2.6" fill="#F0A23B"></circle><circle cx="460.62" cy="234.36" r="2.6" fill="#F0A23B"></circle><circle cx="467.6" cy="254.15" r="2.6" fill="#F0A23B"></circle><circle cx="474.57" cy="242.56" r="2.6" fill="#F0A23B"></circle><circle cx="481.55" cy="248.91" r="2.6" fill="#F0A23B"></circle><circle cx="488.52" cy="251.68" r="2.6" fill="#F0A23B"></circle><circle cx="495.5" cy="243.93" r="2.6" fill="#F0A23B"></circle><circle cx="502.48" cy="252.64" r="2.6" fill="#F0A23B"></circle><circle cx="516.43" cy="241.61" r="2.6" fill="#F0A23B"></circle><circle cx="523.4" cy="222.3" r="2.6" fill="#F0A23B"></circle><circle cx="530.38" cy="210.23" r="2.6" fill="#F0A23B"></circle><circle cx="537.36" cy="226.96" r="2.6" fill="#F0A23B"></circle><circle cx="544.33" cy="244.12" r="2.6" fill="#F0A23B"></circle><circle cx="551.31" cy="238.44" r="2.6" fill="#F0A23B"></circle><circle cx="558.29" cy="227.56" r="2.6" fill="#F0A23B"></circle><circle cx="565.26" cy="233.9" r="2.6" fill="#F0A23B"></circle><circle cx="572.24" cy="234.88" r="2.6" fill="#F0A23B"></circle><circle cx="579.21" cy="248.31" r="2.6" fill="#F0A23B"></circle><circle cx="586.19" cy="246.82" r="2.6" fill="#F0A23B"></circle><circle cx="593.17" cy="202.38" r="2.6" fill="#F0A23B"></circle><circle cx="600.14" cy="253.63" r="2.6" fill="#F0A23B"></circle><circle cx="614.1" cy="235.43" r="2.6" fill="#F0A23B"></circle><circle cx="621.07" cy="235.87" r="2.6" fill="#F0A23B"></circle><circle cx="628.05" cy="234.52" r="2.6" fill="#F0A23B"></circle><circle cx="635.02" cy="246.22" r="2.6" fill="#F0A23B"></circle><circle cx="642" cy="230.49" r="2.6" fill="#F0A23B"></circle><polyline fill="none" stroke="#1F9CF0" stroke-width="2.4" stroke-linejoin="round" stroke-linecap="round" points="56,207.05 62.98,231.2 69.95,222.14 76.93,252.68 83.9,242.37 90.88,226.65 97.86,244.25 104.83,215.91 111.81,209.87 118.79,244.71 125.76,247.5 132.74,187.71 139.71,226.02 146.69,238.76 153.67,253.15 160.64,257.28 167.62,237.03 174.6,247.63 181.57,245.47 188.55,253.15 195.52,260.66 202.5,265.06 209.48,265.95 216.45,268.1 223.43,265.02 230.4,266.27 237.38,249.63 244.36,237.07 251.33,240.36 258.31,263.74 265.29,258.92 272.26,244.01 279.24,237.78 286.21,232.7 293.19,252.13 300.17,244.24 307.14,255.08 314.12,260.43 321.1,248.67 328.07,269.23 335.05,257.57 342.02,231.81 349,251.28 355.98,256.72 362.95,246.41 369.93,257.58 376.9,250.01 383.88,213.87 390.86,264.65 397.83,268.43 404.81,267.1 411.79,273.33 418.76,268.82 425.74,252.94 432.71,263.09 439.69,259.15 495.5,263.31 502.48,259.25 509.45,246.33 516.43,235.22 523.4,240.76 530.38,238.93 537.36,247.9 544.33,243.97 551.31,255.48 558.29,212.17 565.26,226.22 572.24,117.26 579.21,245.13 586.19,238.9 593.17,246.86 600.14,255.89 607.12,258.31 614.1,223.18 621.07,264.64 628.05,233.63 635.02,272.55 642,268.02"></polyline><circle cx="56" cy="207.05" r="2.6" fill="#1F9CF0"></circle><circle cx="62.98" cy="231.2" r="2.6" fill="#1F9CF0"></circle><circle cx="69.95" cy="222.14" r="2.6" fill="#1F9CF0"></circle><circle cx="76.93" cy="252.68" r="2.6" fill="#1F9CF0"></circle><circle cx="83.9" cy="242.37" r="2.6" fill="#1F9CF0"></circle><circle cx="90.88" cy="226.65" r="2.6" fill="#1F9CF0"></circle><circle cx="97.86" cy="244.25" r="2.6" fill="#1F9CF0"></circle><circle cx="104.83" cy="215.91" r="2.6" fill="#1F9CF0"></circle><circle cx="111.81" cy="209.87" r="2.6" fill="#1F9CF0"></circle><circle cx="118.79" cy="244.71" r="2.6" fill="#1F9CF0"></circle><circle cx="125.76" cy="247.5" r="2.6" fill="#1F9CF0"></circle><circle cx="132.74" cy="187.71" r="2.6" fill="#1F9CF0"></circle><circle cx="139.71" cy="226.02" r="2.6" fill="#1F9CF0"></circle><circle cx="146.69" cy="238.76" r="2.6" fill="#1F9CF0"></circle><circle cx="153.67" cy="253.15" r="2.6" fill="#1F9CF0"></circle><circle cx="160.64" cy="257.28" r="2.6" fill="#1F9CF0"></circle><circle cx="167.62" cy="237.03" r="2.6" fill="#1F9CF0"></circle><circle cx="174.6" cy="247.63" r="2.6" fill="#1F9CF0"></circle><circle cx="181.57" cy="245.47" r="2.6" fill="#1F9CF0"></circle><circle cx="188.55" cy="253.15" r="2.6" fill="#1F9CF0"></circle><circle cx="195.52" cy="260.66" r="2.6" fill="#1F9CF0"></circle><circle cx="202.5" cy="265.06" r="2.6" fill="#1F9CF0"></circle><circle cx="209.48" cy="265.95" r="2.6" fill="#1F9CF0"></circle><circle cx="216.45" cy="268.1" r="2.6" fill="#1F9CF0"></circle><circle cx="223.43" cy="265.02" r="2.6" fill="#1F9CF0"></circle><circle cx="230.4" cy="266.27" r="2.6" fill="#1F9CF0"></circle><circle cx="237.38" cy="249.63" r="2.6" fill="#1F9CF0"></circle><circle cx="244.36" cy="237.07" r="2.6" fill="#1F9CF0"></circle><circle cx="251.33" cy="240.36" r="2.6" fill="#1F9CF0"></circle><circle cx="258.31" cy="263.74" r="2.6" fill="#1F9CF0"></circle><circle cx="265.29" cy="258.92" r="2.6" fill="#1F9CF0"></circle><circle cx="272.26" cy="244.01" r="2.6" fill="#1F9CF0"></circle><circle cx="279.24" cy="237.78" r="2.6" fill="#1F9CF0"></circle><circle cx="286.21" cy="232.7" r="2.6" fill="#1F9CF0"></circle><circle cx="293.19" cy="252.13" r="2.6" fill="#1F9CF0"></circle><circle cx="300.17" cy="244.24" r="2.6" fill="#1F9CF0"></circle><circle cx="307.14" cy="255.08" r="2.6" fill="#1F9CF0"></circle><circle cx="314.12" cy="260.43" r="2.6" fill="#1F9CF0"></circle><circle cx="321.1" cy="248.67" r="2.6" fill="#1F9CF0"></circle><circle cx="328.07" cy="269.23" r="2.6" fill="#1F9CF0"></circle><circle cx="335.05" cy="257.57" r="2.6" fill="#1F9CF0"></circle><circle cx="342.02" cy="231.81" r="2.6" fill="#1F9CF0"></circle><circle cx="349" cy="251.28" r="2.6" fill="#1F9CF0"></circle><circle cx="355.98" cy="256.72" r="2.6" fill="#1F9CF0"></circle><circle cx="362.95" cy="246.41" r="2.6" fill="#1F9CF0"></circle><circle cx="369.93" cy="257.58" r="2.6" fill="#1F9CF0"></circle><circle cx="376.9" cy="250.01" r="2.6" fill="#1F9CF0"></circle><circle cx="383.88" cy="213.87" r="2.6" fill="#1F9CF0"></circle><circle cx="390.86" cy="264.65" r="2.6" fill="#1F9CF0"></circle><circle cx="397.83" cy="268.43" r="2.6" fill="#1F9CF0"></circle><circle cx="404.81" cy="267.1" r="2.6" fill="#1F9CF0"></circle><circle cx="411.79" cy="273.33" r="2.6" fill="#1F9CF0"></circle><circle cx="418.76" cy="268.82" r="2.6" fill="#1F9CF0"></circle><circle cx="425.74" cy="252.94" r="2.6" fill="#1F9CF0"></circle><circle cx="432.71" cy="263.09" r="2.6" fill="#1F9CF0"></circle><circle cx="439.69" cy="259.15" r="2.6" fill="#1F9CF0"></circle><circle cx="495.5" cy="263.31" r="2.6" fill="#1F9CF0"></circle><circle cx="502.48" cy="259.25" r="2.6" fill="#1F9CF0"></circle><circle cx="509.45" cy="246.33" r="2.6" fill="#1F9CF0"></circle><circle cx="516.43" cy="235.22" r="2.6" fill="#1F9CF0"></circle><circle cx="523.4" cy="240.76" r="2.6" fill="#1F9CF0"></circle><circle cx="530.38" cy="238.93" r="2.6" fill="#1F9CF0"></circle><circle cx="537.36" cy="247.9" r="2.6" fill="#1F9CF0"></circle><circle cx="544.33" cy="243.97" r="2.6" fill="#1F9CF0"></circle><circle cx="551.31" cy="255.48" r="2.6" fill="#1F9CF0"></circle><circle cx="558.29" cy="212.17" r="2.6" fill="#1F9CF0"></circle><circle cx="565.26" cy="226.22" r="2.6" fill="#1F9CF0"></circle><circle cx="572.24" cy="117.26" r="2.6" fill="#1F9CF0"></circle><circle cx="579.21" cy="245.13" r="2.6" fill="#1F9CF0"></circle><circle cx="586.19" cy="238.9" r="2.6" fill="#1F9CF0"></circle><circle cx="593.17" cy="246.86" r="2.6" fill="#1F9CF0"></circle><circle cx="600.14" cy="255.89" r="2.6" fill="#1F9CF0"></circle><circle cx="607.12" cy="258.31" r="2.6" fill="#1F9CF0"></circle><circle cx="614.1" cy="223.18" r="2.6" fill="#1F9CF0"></circle><circle cx="621.07" cy="264.64" r="2.6" fill="#1F9CF0"></circle><circle cx="628.05" cy="233.63" r="2.6" fill="#1F9CF0"></circle><circle cx="635.02" cy="272.55" r="2.6" fill="#1F9CF0"></circle><circle cx="642" cy="268.02" r="2.6" fill="#1F9CF0"></circle><line x1="656" y1="27" x2="672" y2="27" stroke="#E8835A" stroke-width="3" stroke-linecap="round"></line><text x="678" y="30" font-size="11" font-weight="400" text-anchor="start" fill="#1f2328">anthropic</text><line x1="656" y1="47" x2="672" y2="47" stroke="#6366F1" stroke-width="3" stroke-linecap="round"></line><text x="678" y="50" font-size="11" font-weight="400" text-anchor="start" fill="#1f2328">deepseek</text><line x1="656" y1="67" x2="672" y2="67" stroke="#2DA98C" stroke-width="3" stroke-linecap="round"></line><text x="678" y="70" font-size="11" font-weight="400" text-anchor="start" fill="#1f2328">gemini</text><line x1="656" y1="87" x2="672" y2="87" stroke="#A371F7" stroke-width="3" stroke-linecap="round"></line><text x="678" y="90" font-size="11" font-weight="400" text-anchor="start" fill="#1f2328">llama</text><line x1="656" y1="107" x2="672" y2="107" stroke="#F0A23B" stroke-width="3" stroke-linecap="round"></line><text x="678" y="110" font-size="11" font-weight="400" text-anchor="start" fill="#1f2328">mistral</text><line x1="656" y1="127" x2="672" y2="127" stroke="#1F9CF0" stroke-width="3" stroke-linecap="round"></line><text x="678" y="130" font-size="11" font-weight="400" text-anchor="start" fill="#1f2328">openai</text></svg>
