<svg xmlns="http://www.w3.org/2000/svg" viewBox="0 0 760 348" width="760" height="348" role="img" aria-label="Average LLM latency by provider over runs — llama highest, deepseek lowest" font-family="-apple-system,BlinkMacSystemFont,'Segoe UI',system-ui,sans-serif"><line x1="56" y1="306" x2="642" y2="306" stroke="#30363d" stroke-width="1"></line><text x="46" y="310" font-size="9.5" font-weight="400" text-anchor="end" fill="#8b949e" font-family="ui-monospace,SFMono-Regular,Menlo,monospace">0.0s</text><line x1="56" y1="235" x2="642" y2="235" stroke="#30363d" stroke-width="1"></line><text x="46" y="239" font-size="9.5" font-weight="400" text-anchor="end" fill="#8b949e" font-family="ui-monospace,SFMono-Regular,Menlo,monospace">82.5s</text><line x1="56" y1="164" x2="642" y2="164" stroke="#30363d" stroke-width="1"></line><text x="46" y="168" font-size="9.5" font-weight="400" text-anchor="end" fill="#8b949e" font-family="ui-monospace,SFMono-Regular,Menlo,monospace">165.1s</text><line x1="56" y1="93" x2="642" y2="93" stroke="#30363d" stroke-width="1"></line><text x="46" y="97" font-size="9.5" font-weight="400" text-anchor="end" fill="#8b949e" font-family="ui-monospace,SFMono-Regular,Menlo,monospace">247.6s</text><line x1="56" y1="22" x2="642" y2="22" stroke="#30363d" stroke-width="1"></line><text x="46" y="26" font-size="9.5" font-weight="400" text-anchor="end" fill="#8b949e" font-family="ui-monospace,SFMono-Regular,Menlo,monospace">330.2s</text><text x="56" y="324" font-size="9.5" font-weight="400" text-anchor="middle" fill="#8b949e" font-family="ui-monospace,SFMono-Regular,Menlo,monospace">06/08</text><text x="110.26" y="324" font-size="9.5" font-weight="400" text-anchor="middle" fill="#8b949e" font-family="ui-monospace,SFMono-Regular,Menlo,monospace">06/08</text><text x="164.52" y="324" font-size="9.5" font-weight="400" text-anchor="middle" fill="#8b949e" font-family="ui-monospace,SFMono-Regular,Menlo,monospace">06/09</text><text x="218.78" y="324" font-size="9.5" font-weight="400" text-anchor="middle" fill="#8b949e" font-family="ui-monospace,SFMono-Regular,Menlo,monospace">06/12</text><text x="273.04" y="324" font-size="9.5" font-weight="400" text-anchor="middle" fill="#8b949e" font-family="ui-monospace,SFMono-Regular,Menlo,monospace">06/13</text><text x="327.3" y="324" font-size="9.5" font-weight="400" text-anchor="middle" fill="#8b949e" font-family="ui-monospace,SFMono-Regular,Menlo,monospace">06/14</text><text x="381.56" y="324" font-size="9.5" font-weight="400" text-anchor="middle" fill="#8b949e" font-family="ui-monospace,SFMono-Regular,Menlo,monospace">06/15</text><text x="435.81" y="324" font-size="9.5" font-weight="400" text-anchor="middle" fill="#8b949e" font-family="ui-monospace,SFMono-Regular,Menlo,monospace">06/16</text><text x="490.07" y="324" font-size="9.5" font-weight="400" text-anchor="middle" fill="#8b949e" font-family="ui-monospace,SFMono-Regular,Menlo,monospace">06/17</text><text x="544.33" y="324" font-size="9.5" font-weight="400" text-anchor="middle" fill="#8b949e" font-family="ui-monospace,SFMono-Regular,Menlo,monospace">06/19</text><text x="598.59" y="324" font-size="9.5" font-weight="400" text-anchor="middle" fill="#8b949e" font-family="ui-monospace,SFMono-Regular,Menlo,monospace">06/20</text><text x="642" y="324" font-size="9.5" font-weight="400" text-anchor="middle" fill="#8b949e" font-family="ui-monospace,SFMono-Regular,Menlo,monospace">06/21</text><polyline fill="none" stroke="#E8835A" stroke-width="2.4" stroke-linejoin="round" stroke-linecap="round" points="56,229.15 66.85,232.31 77.7,238.94 88.56,244 99.41,235.49 110.26,232.81 121.11,250.28 131.96,243.38 142.81,241.66 153.67,231.14 175.37,234.04 186.22,244.32 197.07,228.71 207.93,246.08 218.78,242.18 229.63,235.58 240.48,242.32 251.33,244.55 262.19,246.98 273.04,240.71 283.89,250.83 294.74,244.26 305.59,241.33 316.44,245.63 327.3,245.02 338.15,240.82 349,243.78 359.85,243.28 370.7,240.2 381.56,242.69 392.41,215.59 403.26,241.79 414.11,238.64 424.96,243.45 435.81,243.86 446.67,234.8 457.52,244.51 468.37,244.64"></polyline><circle cx="56" cy="229.15" r="2.6" fill="#E8835A"></circle><circle cx="66.85" cy="232.31" r="2.6" fill="#E8835A"></circle><circle cx="77.7" cy="238.94" r="2.6" fill="#E8835A"></circle><circle cx="88.56" cy="244" r="2.6" fill="#E8835A"></circle><circle cx="99.41" cy="235.49" r="2.6" fill="#E8835A"></circle><circle cx="110.26" cy="232.81" r="2.6" fill="#E8835A"></circle><circle cx="121.11" cy="250.28" r="2.6" fill="#E8835A"></circle><circle cx="131.96" cy="243.38" r="2.6" fill="#E8835A"></circle><circle cx="142.81" cy="241.66" r="2.6" fill="#E8835A"></circle><circle cx="153.67" cy="231.14" r="2.6" fill="#E8835A"></circle><circle cx="175.37" cy="234.04" r="2.6" fill="#E8835A"></circle><circle cx="186.22" cy="244.32" r="2.6" fill="#E8835A"></circle><circle cx="197.07" cy="228.71" r="2.6" fill="#E8835A"></circle><circle cx="207.93" cy="246.08" r="2.6" fill="#E8835A"></circle><circle cx="218.78" cy="242.18" r="2.6" fill="#E8835A"></circle><circle cx="229.63" cy="235.58" r="2.6" fill="#E8835A"></circle><circle cx="240.48" cy="242.32" r="2.6" fill="#E8835A"></circle><circle cx="251.33" cy="244.55" r="2.6" fill="#E8835A"></circle><circle cx="262.19" cy="246.98" r="2.6" fill="#E8835A"></circle><circle cx="273.04" cy="240.71" r="2.6" fill="#E8835A"></circle><circle cx="283.89" cy="250.83" r="2.6" fill="#E8835A"></circle><circle cx="294.74" cy="244.26" r="2.6" fill="#E8835A"></circle><circle cx="305.59" cy="241.33" r="2.6" fill="#E8835A"></circle><circle cx="316.44" cy="245.63" r="2.6" fill="#E8835A"></circle><circle cx="327.3" cy="245.02" r="2.6" fill="#E8835A"></circle><circle cx="338.15" cy="240.82" r="2.6" fill="#E8835A"></circle><circle cx="349" cy="243.78" r="2.6" fill="#E8835A"></circle><circle cx="359.85" cy="243.28" r="2.6" fill="#E8835A"></circle><circle cx="370.7" cy="240.2" r="2.6" fill="#E8835A"></circle><circle cx="381.56" cy="242.69" r="2.6" fill="#E8835A"></circle><circle cx="392.41" cy="215.59" r="2.6" fill="#E8835A"></circle><circle cx="403.26" cy="241.79" r="2.6" fill="#E8835A"></circle><circle cx="414.11" cy="238.64" r="2.6" fill="#E8835A"></circle><circle cx="424.96" cy="243.45" r="2.6" fill="#E8835A"></circle><circle cx="435.81" cy="243.86" r="2.6" fill="#E8835A"></circle><circle cx="446.67" cy="234.8" r="2.6" fill="#E8835A"></circle><circle cx="457.52" cy="244.51" r="2.6" fill="#E8835A"></circle><circle cx="468.37" cy="244.64" r="2.6" fill="#E8835A"></circle><polyline fill="none" stroke="#6366F1" stroke-width="2.4" stroke-linejoin="round" stroke-linecap="round" points="66.85,247.24 77.7,242.4 88.56,249.98 99.41,230.48 110.26,260.21 121.11,260.34 131.96,270.44 142.81,248.92 153.67,245.19 164.52,247.83 175.37,256.22 186.22,248.72 197.07,261.47 207.93,243.58 218.78,210.49 229.63,266.33 240.48,232.33 251.33,232.27 262.19,199.16 273.04,237.91 283.89,252.97 294.74,266.11 305.59,215.25 316.44,265.97 327.3,258.25 338.15,265.82 349,246.69 359.85,244.53 381.56,240.91 392.41,255.51 403.26,252.51 414.11,237.2 424.96,258.24 435.81,235.84 446.67,252.87 457.52,243.73 468.37,249.01 490.07,263.05 500.93,262.95 511.78,250.85 522.63,238.76 533.48,245.84 544.33,240.49 555.19,244.58 566.04,238.25 576.89,266.43 587.74,219.91 598.59,256.77 620.3,250.11 631.15,264.15 642,249.18"></polyline><circle cx="66.85" cy="247.24" r="2.6" fill="#6366F1"></circle><circle cx="77.7" cy="242.4" r="2.6" fill="#6366F1"></circle><circle cx="88.56" cy="249.98" r="2.6" fill="#6366F1"></circle><circle cx="99.41" cy="230.48" r="2.6" fill="#6366F1"></circle><circle cx="110.26" cy="260.21" r="2.6" fill="#6366F1"></circle><circle cx="121.11" cy="260.34" r="2.6" fill="#6366F1"></circle><circle cx="131.96" cy="270.44" r="2.6" fill="#6366F1"></circle><circle cx="142.81" cy="248.92" r="2.6" fill="#6366F1"></circle><circle cx="153.67" cy="245.19" r="2.6" fill="#6366F1"></circle><circle cx="164.52" cy="247.83" r="2.6" fill="#6366F1"></circle><circle cx="175.37" cy="256.22" r="2.6" fill="#6366F1"></circle><circle cx="186.22" cy="248.72" r="2.6" fill="#6366F1"></circle><circle cx="197.07" cy="261.47" r="2.6" fill="#6366F1"></circle><circle cx="207.93" cy="243.58" r="2.6" fill="#6366F1"></circle><circle cx="218.78" cy="210.49" r="2.6" fill="#6366F1"></circle><circle cx="229.63" cy="266.33" r="2.6" fill="#6366F1"></circle><circle cx="240.48" cy="232.33" r="2.6" fill="#6366F1"></circle><circle cx="251.33" cy="232.27" r="2.6" fill="#6366F1"></circle><circle cx="262.19" cy="199.16" r="2.6" fill="#6366F1"></circle><circle cx="273.04" cy="237.91" r="2.6" fill="#6366F1"></circle><circle cx="283.89" cy="252.97" r="2.6" fill="#6366F1"></circle><circle cx="294.74" cy="266.11" r="2.6" fill="#6366F1"></circle><circle cx="305.59" cy="215.25" r="2.6" fill="#6366F1"></circle><circle cx="316.44" cy="265.97" r="2.6" fill="#6366F1"></circle><circle cx="327.3" cy="258.25" r="2.6" fill="#6366F1"></circle><circle cx="338.15" cy="265.82" r="2.6" fill="#6366F1"></circle><circle cx="349" cy="246.69" r="2.6" fill="#6366F1"></circle><circle cx="359.85" cy="244.53" r="2.6" fill="#6366F1"></circle><circle cx="381.56" cy="240.91" r="2.6" fill="#6366F1"></circle><circle cx="392.41" cy="255.51" r="2.6" fill="#6366F1"></circle><circle cx="403.26" cy="252.51" r="2.6" fill="#6366F1"></circle><circle cx="414.11" cy="237.2" r="2.6" fill="#6366F1"></circle><circle cx="424.96" cy="258.24" r="2.6" fill="#6366F1"></circle><circle cx="435.81" cy="235.84" r="2.6" fill="#6366F1"></circle><circle cx="446.67" cy="252.87" r="2.6" fill="#6366F1"></circle><circle cx="457.52" cy="243.73" r="2.6" fill="#6366F1"></circle><circle cx="468.37" cy="249.01" r="2.6" fill="#6366F1"></circle><circle cx="490.07" cy="263.05" r="2.6" fill="#6366F1"></circle><circle cx="500.93" cy="262.95" r="2.6" fill="#6366F1"></circle><circle cx="511.78" cy="250.85" r="2.6" fill="#6366F1"></circle><circle cx="522.63" cy="238.76" r="2.6" fill="#6366F1"></circle><circle cx="533.48" cy="245.84" r="2.6" fill="#6366F1"></circle><circle cx="544.33" cy="240.49" r="2.6" fill="#6366F1"></circle><circle cx="555.19" cy="244.58" r="2.6" fill="#6366F1"></circle><circle cx="566.04" cy="238.25" r="2.6" fill="#6366F1"></circle><circle cx="576.89" cy="266.43" r="2.6" fill="#6366F1"></circle><circle cx="587.74" cy="219.91" r="2.6" fill="#6366F1"></circle><circle cx="598.59" cy="256.77" r="2.6" fill="#6366F1"></circle><circle cx="620.3" cy="250.11" r="2.6" fill="#6366F1"></circle><circle cx="631.15" cy="264.15" r="2.6" fill="#6366F1"></circle><circle cx="642" cy="249.18" r="2.6" fill="#6366F1"></circle><polyline fill="none" stroke="#2DA98C" stroke-width="2.4" stroke-linejoin="round" stroke-linecap="round" points="56,205.26 66.85,215.39 77.7,174.15 88.56,217.56 99.41,218.68 110.26,227.57 121.11,203.76 131.96,192.14 142.81,215.35 153.67,194.78 164.52,194.92 175.37,141.5 186.22,148.87 197.07,194.84 207.93,180.85 218.78,202.09 229.63,169.08 240.48,211.29 251.33,193.77 262.19,192.04 273.04,206.61 381.56,221.15 392.41,190.23 403.26,183.33 414.11,225.15 424.96,184.37 435.81,182.1 446.67,210.86 457.52,161.53 468.37,210.56 490.07,182.01 500.93,172.32 511.78,181.93 522.63,186.76 533.48,217.59 544.33,171.76 555.19,211.13 566.04,171.55 576.89,181.17 587.74,189.96 598.59,191.02 620.3,212.98 631.15,170.09 642,127.97"></polyline><circle cx="56" cy="205.26" r="2.6" fill="#2DA98C"></circle><circle cx="66.85" cy="215.39" r="2.6" fill="#2DA98C"></circle><circle cx="77.7" cy="174.15" r="2.6" fill="#2DA98C"></circle><circle cx="88.56" cy="217.56" r="2.6" fill="#2DA98C"></circle><circle cx="99.41" cy="218.68" r="2.6" fill="#2DA98C"></circle><circle cx="110.26" cy="227.57" r="2.6" fill="#2DA98C"></circle><circle cx="121.11" cy="203.76" r="2.6" fill="#2DA98C"></circle><circle cx="131.96" cy="192.14" r="2.6" fill="#2DA98C"></circle><circle cx="142.81" cy="215.35" r="2.6" fill="#2DA98C"></circle><circle cx="153.67" cy="194.78" r="2.6" fill="#2DA98C"></circle><circle cx="164.52" cy="194.92" r="2.6" fill="#2DA98C"></circle><circle cx="175.37" cy="141.5" r="2.6" fill="#2DA98C"></circle><circle cx="186.22" cy="148.87" r="2.6" fill="#2DA98C"></circle><circle cx="197.07" cy="194.84" r="2.6" fill="#2DA98C"></circle><circle cx="207.93" cy="180.85" r="2.6" fill="#2DA98C"></circle><circle cx="218.78" cy="202.09" r="2.6" fill="#2DA98C"></circle><circle cx="229.63" cy="169.08" r="2.6" fill="#2DA98C"></circle><circle cx="240.48" cy="211.29" r="2.6" fill="#2DA98C"></circle><circle cx="251.33" cy="193.77" r="2.6" fill="#2DA98C"></circle><circle cx="262.19" cy="192.04" r="2.6" fill="#2DA98C"></circle><circle cx="273.04" cy="206.61" r="2.6" fill="#2DA98C"></circle><circle cx="381.56" cy="221.15" r="2.6" fill="#2DA98C"></circle><circle cx="392.41" cy="190.23" r="2.6" fill="#2DA98C"></circle><circle cx="403.26" cy="183.33" r="2.6" fill="#2DA98C"></circle><circle cx="414.11" cy="225.15" r="2.6" fill="#2DA98C"></circle><circle cx="424.96" cy="184.37" r="2.6" fill="#2DA98C"></circle><circle cx="435.81" cy="182.1" r="2.6" fill="#2DA98C"></circle><circle cx="446.67" cy="210.86" r="2.6" fill="#2DA98C"></circle><circle cx="457.52" cy="161.53" r="2.6" fill="#2DA98C"></circle><circle cx="468.37" cy="210.56" r="2.6" fill="#2DA98C"></circle><circle cx="490.07" cy="182.01" r="2.6" fill="#2DA98C"></circle><circle cx="500.93" cy="172.32" r="2.6" fill="#2DA98C"></circle><circle cx="511.78" cy="181.93" r="2.6" fill="#2DA98C"></circle><circle cx="522.63" cy="186.76" r="2.6" fill="#2DA98C"></circle><circle cx="533.48" cy="217.59" r="2.6" fill="#2DA98C"></circle><circle cx="544.33" cy="171.76" r="2.6" fill="#2DA98C"></circle><circle cx="555.19" cy="211.13" r="2.6" fill="#2DA98C"></circle><circle cx="566.04" cy="171.55" r="2.6" fill="#2DA98C"></circle><circle cx="576.89" cy="181.17" r="2.6" fill="#2DA98C"></circle><circle cx="587.74" cy="189.96" r="2.6" fill="#2DA98C"></circle><circle cx="598.59" cy="191.02" r="2.6" fill="#2DA98C"></circle><circle cx="620.3" cy="212.98" r="2.6" fill="#2DA98C"></circle><circle cx="631.15" cy="170.09" r="2.6" fill="#2DA98C"></circle><circle cx="642" cy="127.97" r="2.6" fill="#2DA98C"></circle><polyline fill="none" stroke="#A371F7" stroke-width="2.4" stroke-linejoin="round" stroke-linecap="round" points="56,127.86 66.85,149.85 77.7,181.76 88.56,139.24 99.41,107.36 110.26,219.97 121.11,116.3 131.96,182.89 142.81,193.78 153.67,197.11 164.52,105.85 175.37,146.07 186.22,181.42 197.07,202.88 207.93,134.79 218.78,219.07 229.63,58.83 240.48,197.05 251.33,167.66 262.19,75.26 273.04,128.5 283.89,152.23 294.74,166.9 305.59,183.57 316.44,162.79 327.3,148.18 338.15,52.43 349,96.59 359.85,191.76 381.56,151.86 392.41,169.19 403.26,135.22 424.96,206.77 435.81,167.88 446.67,189.32 457.52,143.76 468.37,142.49 479.22,163.7 490.07,128.52 500.93,144.9 511.78,92.3 522.63,157.36 533.48,160.21 544.33,176.32 555.19,116.21 566.04,165.98 576.89,136.47 598.59,155.12 620.3,134.62 642,114.6"></polyline><circle cx="56" cy="127.86" r="2.6" fill="#A371F7"></circle><circle cx="66.85" cy="149.85" r="2.6" fill="#A371F7"></circle><circle cx="77.7" cy="181.76" r="2.6" fill="#A371F7"></circle><circle cx="88.56" cy="139.24" r="2.6" fill="#A371F7"></circle><circle cx="99.41" cy="107.36" r="2.6" fill="#A371F7"></circle><circle cx="110.26" cy="219.97" r="2.6" fill="#A371F7"></circle><circle cx="121.11" cy="116.3" r="2.6" fill="#A371F7"></circle><circle cx="131.96" cy="182.89" r="2.6" fill="#A371F7"></circle><circle cx="142.81" cy="193.78" r="2.6" fill="#A371F7"></circle><circle cx="153.67" cy="197.11" r="2.6" fill="#A371F7"></circle><circle cx="164.52" cy="105.85" r="2.6" fill="#A371F7"></circle><circle cx="175.37" cy="146.07" r="2.6" fill="#A371F7"></circle><circle cx="186.22" cy="181.42" r="2.6" fill="#A371F7"></circle><circle cx="197.07" cy="202.88" r="2.6" fill="#A371F7"></circle><circle cx="207.93" cy="134.79" r="2.6" fill="#A371F7"></circle><circle cx="218.78" cy="219.07" r="2.6" fill="#A371F7"></circle><circle cx="229.63" cy="58.83" r="2.6" fill="#A371F7"></circle><circle cx="240.48" cy="197.05" r="2.6" fill="#A371F7"></circle><circle cx="251.33" cy="167.66" r="2.6" fill="#A371F7"></circle><circle cx="262.19" cy="75.26" r="2.6" fill="#A371F7"></circle><circle cx="273.04" cy="128.5" r="2.6" fill="#A371F7"></circle><circle cx="283.89" cy="152.23" r="2.6" fill="#A371F7"></circle><circle cx="294.74" cy="166.9" r="2.6" fill="#A371F7"></circle><circle cx="305.59" cy="183.57" r="2.6" fill="#A371F7"></circle><circle cx="316.44" cy="162.79" r="2.6" fill="#A371F7"></circle><circle cx="327.3" cy="148.18" r="2.6" fill="#A371F7"></circle><circle cx="338.15" cy="52.43" r="2.6" fill="#A371F7"></circle><circle cx="349" cy="96.59" r="2.6" fill="#A371F7"></circle><circle cx="359.85" cy="191.76" r="2.6" fill="#A371F7"></circle><circle cx="381.56" cy="151.86" r="2.6" fill="#A371F7"></circle><circle cx="392.41" cy="169.19" r="2.6" fill="#A371F7"></circle><circle cx="403.26" cy="135.22" r="2.6" fill="#A371F7"></circle><circle cx="424.96" cy="206.77" r="2.6" fill="#A371F7"></circle><circle cx="435.81" cy="167.88" r="2.6" fill="#A371F7"></circle><circle cx="446.67" cy="189.32" r="2.6" fill="#A371F7"></circle><circle cx="457.52" cy="143.76" r="2.6" fill="#A371F7"></circle><circle cx="468.37" cy="142.49" r="2.6" fill="#A371F7"></circle><circle cx="479.22" cy="163.7" r="2.6" fill="#A371F7"></circle><circle cx="490.07" cy="128.52" r="2.6" fill="#A371F7"></circle><circle cx="500.93" cy="144.9" r="2.6" fill="#A371F7"></circle><circle cx="511.78" cy="92.3" r="2.6" fill="#A371F7"></circle><circle cx="522.63" cy="157.36" r="2.6" fill="#A371F7"></circle><circle cx="533.48" cy="160.21" r="2.6" fill="#A371F7"></circle><circle cx="544.33" cy="176.32" r="2.6" fill="#A371F7"></circle><circle cx="555.19" cy="116.21" r="2.6" fill="#A371F7"></circle><circle cx="566.04" cy="165.98" r="2.6" fill="#A371F7"></circle><circle cx="576.89" cy="136.47" r="2.6" fill="#A371F7"></circle><circle cx="598.59" cy="155.12" r="2.6" fill="#A371F7"></circle><circle cx="620.3" cy="134.62" r="2.6" fill="#A371F7"></circle><circle cx="642" cy="114.6" r="2.6" fill="#A371F7"></circle><polyline fill="none" stroke="#F0A23B" stroke-width="2.4" stroke-linejoin="round" stroke-linecap="round" points="56,170.6 66.85,150.62 77.7,187.27 88.56,153.33 99.41,137.4 110.26,187.39 121.11,202.98 131.96,219.57 142.81,187.3 153.67,163.64 164.52,218.54 175.37,247.9 186.22,222.75 197.07,249.71 207.93,224.7 218.78,243.69 229.63,245.81 240.48,211.84 251.33,236.21 262.19,257.78 273.04,248.63 283.89,234.2 294.74,247.57 305.59,243.66 316.44,258.59 327.3,253.94 338.15,235.44 349,209.7 359.85,229.87 370.7,229.74 381.56,242.74 392.41,219.28 403.26,218.69 414.11,248.17 424.96,252.02 435.81,241.64 446.67,202.83 457.52,191.16 468.37,236.21 479.22,247.47 490.07,237.91 500.93,227.46 511.78,241.35 522.63,249.73 533.48,234.66 544.33,250 555.19,253.94 566.04,252.42 576.89,245.42 587.74,237.98 598.59,238.85 620.3,257.8 631.15,233.33 642,238.96"></polyline><circle cx="56" cy="170.6" r="2.6" fill="#F0A23B"></circle><circle cx="66.85" cy="150.62" r="2.6" fill="#F0A23B"></circle><circle cx="77.7" cy="187.27" r="2.6" fill="#F0A23B"></circle><circle cx="88.56" cy="153.33" r="2.6" fill="#F0A23B"></circle><circle cx="99.41" cy="137.4" r="2.6" fill="#F0A23B"></circle><circle cx="110.26" cy="187.39" r="2.6" fill="#F0A23B"></circle><circle cx="121.11" cy="202.98" r="2.6" fill="#F0A23B"></circle><circle cx="131.96" cy="219.57" r="2.6" fill="#F0A23B"></circle><circle cx="142.81" cy="187.3" r="2.6" fill="#F0A23B"></circle><circle cx="153.67" cy="163.64" r="2.6" fill="#F0A23B"></circle><circle cx="164.52" cy="218.54" r="2.6" fill="#F0A23B"></circle><circle cx="175.37" cy="247.9" r="2.6" fill="#F0A23B"></circle><circle cx="186.22" cy="222.75" r="2.6" fill="#F0A23B"></circle><circle cx="197.07" cy="249.71" r="2.6" fill="#F0A23B"></circle><circle cx="207.93" cy="224.7" r="2.6" fill="#F0A23B"></circle><circle cx="218.78" cy="243.69" r="2.6" fill="#F0A23B"></circle><circle cx="229.63" cy="245.81" r="2.6" fill="#F0A23B"></circle><circle cx="240.48" cy="211.84" r="2.6" fill="#F0A23B"></circle><circle cx="251.33" cy="236.21" r="2.6" fill="#F0A23B"></circle><circle cx="262.19" cy="257.78" r="2.6" fill="#F0A23B"></circle><circle cx="273.04" cy="248.63" r="2.6" fill="#F0A23B"></circle><circle cx="283.89" cy="234.2" r="2.6" fill="#F0A23B"></circle><circle cx="294.74" cy="247.57" r="2.6" fill="#F0A23B"></circle><circle cx="305.59" cy="243.66" r="2.6" fill="#F0A23B"></circle><circle cx="316.44" cy="258.59" r="2.6" fill="#F0A23B"></circle><circle cx="327.3" cy="253.94" r="2.6" fill="#F0A23B"></circle><circle cx="338.15" cy="235.44" r="2.6" fill="#F0A23B"></circle><circle cx="349" cy="209.7" r="2.6" fill="#F0A23B"></circle><circle cx="359.85" cy="229.87" r="2.6" fill="#F0A23B"></circle><circle cx="370.7" cy="229.74" r="2.6" fill="#F0A23B"></circle><circle cx="381.56" cy="242.74" r="2.6" fill="#F0A23B"></circle><circle cx="392.41" cy="219.28" r="2.6" fill="#F0A23B"></circle><circle cx="403.26" cy="218.69" r="2.6" fill="#F0A23B"></circle><circle cx="414.11" cy="248.17" r="2.6" fill="#F0A23B"></circle><circle cx="424.96" cy="252.02" r="2.6" fill="#F0A23B"></circle><circle cx="435.81" cy="241.64" r="2.6" fill="#F0A23B"></circle><circle cx="446.67" cy="202.83" r="2.6" fill="#F0A23B"></circle><circle cx="457.52" cy="191.16" r="2.6" fill="#F0A23B"></circle><circle cx="468.37" cy="236.21" r="2.6" fill="#F0A23B"></circle><circle cx="479.22" cy="247.47" r="2.6" fill="#F0A23B"></circle><circle cx="490.07" cy="237.91" r="2.6" fill="#F0A23B"></circle><circle cx="500.93" cy="227.46" r="2.6" fill="#F0A23B"></circle><circle cx="511.78" cy="241.35" r="2.6" fill="#F0A23B"></circle><circle cx="522.63" cy="249.73" r="2.6" fill="#F0A23B"></circle><circle cx="533.48" cy="234.66" r="2.6" fill="#F0A23B"></circle><circle cx="544.33" cy="250" r="2.6" fill="#F0A23B"></circle><circle cx="555.19" cy="253.94" r="2.6" fill="#F0A23B"></circle><circle cx="566.04" cy="252.42" r="2.6" fill="#F0A23B"></circle><circle cx="576.89" cy="245.42" r="2.6" fill="#F0A23B"></circle><circle cx="587.74" cy="237.98" r="2.6" fill="#F0A23B"></circle><circle cx="598.59" cy="238.85" r="2.6" fill="#F0A23B"></circle><circle cx="620.3" cy="257.8" r="2.6" fill="#F0A23B"></circle><circle cx="631.15" cy="233.33" r="2.6" fill="#F0A23B"></circle><circle cx="642" cy="238.96" r="2.6" fill="#F0A23B"></circle><polyline fill="none" stroke="#1F9CF0" stroke-width="2.4" stroke-linejoin="round" stroke-linecap="round" points="56,198.31 66.85,224.59 77.7,214.73 88.56,247.97 99.41,236.75 110.26,219.64 121.11,238.79 131.96,207.95 142.81,201.38 153.67,239.3 164.52,242.33 175.37,177.25 186.22,218.95 197.07,232.82 207.93,248.48 218.78,252.97 229.63,230.93 240.48,242.47 251.33,240.12 262.19,248.48 273.04,256.65 283.89,261.44 294.74,262.41 305.59,264.75 316.44,261.4 327.3,262.76 338.15,244.65 349,230.98 359.85,234.56 370.7,260.01 381.56,254.76 392.41,238.53 403.26,231.76 414.11,226.22 424.96,247.36 435.81,238.78 446.67,250.58 457.52,256.4 468.37,243.61 479.22,265.98 490.07,253.29 500.93,225.25 511.78,246.45 522.63,252.36 533.48,241.14 544.33,253.3 555.19,245.06 566.04,205.73 576.89,260.99 587.74,265.11 598.59,263.66 609.44,270.45 620.3,265.53 631.15,248.25 642,259.3"></polyline><circle cx="56" cy="198.31" r="2.6" fill="#1F9CF0"></circle><circle cx="66.85" cy="224.59" r="2.6" fill="#1F9CF0"></circle><circle cx="77.7" cy="214.73" r="2.6" fill="#1F9CF0"></circle><circle cx="88.56" cy="247.97" r="2.6" fill="#1F9CF0"></circle><circle cx="99.41" cy="236.75" r="2.6" fill="#1F9CF0"></circle><circle cx="110.26" cy="219.64" r="2.6" fill="#1F9CF0"></circle><circle cx="121.11" cy="238.79" r="2.6" fill="#1F9CF0"></circle><circle cx="131.96" cy="207.95" r="2.6" fill="#1F9CF0"></circle><circle cx="142.81" cy="201.38" r="2.6" fill="#1F9CF0"></circle><circle cx="153.67" cy="239.3" r="2.6" fill="#1F9CF0"></circle><circle cx="164.52" cy="242.33" r="2.6" fill="#1F9CF0"></circle><circle cx="175.37" cy="177.25" r="2.6" fill="#1F9CF0"></circle><circle cx="186.22" cy="218.95" r="2.6" fill="#1F9CF0"></circle><circle cx="197.07" cy="232.82" r="2.6" fill="#1F9CF0"></circle><circle cx="207.93" cy="248.48" r="2.6" fill="#1F9CF0"></circle><circle cx="218.78" cy="252.97" r="2.6" fill="#1F9CF0"></circle><circle cx="229.63" cy="230.93" r="2.6" fill="#1F9CF0"></circle><circle cx="240.48" cy="242.47" r="2.6" fill="#1F9CF0"></circle><circle cx="251.33" cy="240.12" r="2.6" fill="#1F9CF0"></circle><circle cx="262.19" cy="248.48" r="2.6" fill="#1F9CF0"></circle><circle cx="273.04" cy="256.65" r="2.6" fill="#1F9CF0"></circle><circle cx="283.89" cy="261.44" r="2.6" fill="#1F9CF0"></circle><circle cx="294.74" cy="262.41" r="2.6" fill="#1F9CF0"></circle><circle cx="305.59" cy="264.75" r="2.6" fill="#1F9CF0"></circle><circle cx="316.44" cy="261.4" r="2.6" fill="#1F9CF0"></circle><circle cx="327.3" cy="262.76" r="2.6" fill="#1F9CF0"></circle><circle cx="338.15" cy="244.65" r="2.6" fill="#1F9CF0"></circle><circle cx="349" cy="230.98" r="2.6" fill="#1F9CF0"></circle><circle cx="359.85" cy="234.56" r="2.6" fill="#1F9CF0"></circle><circle cx="370.7" cy="260.01" r="2.6" fill="#1F9CF0"></circle><circle cx="381.56" cy="254.76" r="2.6" fill="#1F9CF0"></circle><circle cx="392.41" cy="238.53" r="2.6" fill="#1F9CF0"></circle><circle cx="403.26" cy="231.76" r="2.6" fill="#1F9CF0"></circle><circle cx="414.11" cy="226.22" r="2.6" fill="#1F9CF0"></circle><circle cx="424.96" cy="247.36" r="2.6" fill="#1F9CF0"></circle><circle cx="435.81" cy="238.78" r="2.6" fill="#1F9CF0"></circle><circle cx="446.67" cy="250.58" r="2.6" fill="#1F9CF0"></circle><circle cx="457.52" cy="256.4" r="2.6" fill="#1F9CF0"></circle><circle cx="468.37" cy="243.61" r="2.6" fill="#1F9CF0"></circle><circle cx="479.22" cy="265.98" r="2.6" fill="#1F9CF0"></circle><circle cx="490.07" cy="253.29" r="2.6" fill="#1F9CF0"></circle><circle cx="500.93" cy="225.25" r="2.6" fill="#1F9CF0"></circle><circle cx="511.78" cy="246.45" r="2.6" fill="#1F9CF0"></circle><circle cx="522.63" cy="252.36" r="2.6" fill="#1F9CF0"></circle><circle cx="533.48" cy="241.14" r="2.6" fill="#1F9CF0"></circle><circle cx="544.33" cy="253.3" r="2.6" fill="#1F9CF0"></circle><circle cx="555.19" cy="245.06" r="2.6" fill="#1F9CF0"></circle><circle cx="566.04" cy="205.73" r="2.6" fill="#1F9CF0"></circle><circle cx="576.89" cy="260.99" r="2.6" fill="#1F9CF0"></circle><circle cx="587.74" cy="265.11" r="2.6" fill="#1F9CF0"></circle><circle cx="598.59" cy="263.66" r="2.6" fill="#1F9CF0"></circle><circle cx="609.44" cy="270.45" r="2.6" fill="#1F9CF0"></circle><circle cx="620.3" cy="265.53" r="2.6" fill="#1F9CF0"></circle><circle cx="631.15" cy="248.25" r="2.6" fill="#1F9CF0"></circle><circle cx="642" cy="259.3" r="2.6" fill="#1F9CF0"></circle><line x1="656" y1="27" x2="672" y2="27" stroke="#E8835A" stroke-width="3" stroke-linecap="round"></line><text x="678" y="30" font-size="11" font-weight="400" text-anchor="start" fill="#e6edf3">anthropic</text><line x1="656" y1="47" x2="672" y2="47" stroke="#6366F1" stroke-width="3" stroke-linecap="round"></line><text x="678" y="50" font-size="11" font-weight="400" text-anchor="start" fill="#e6edf3">deepseek</text><line x1="656" y1="67" x2="672" y2="67" stroke="#2DA98C" stroke-width="3" stroke-linecap="round"></line><text x="678" y="70" font-size="11" font-weight="400" text-anchor="start" fill="#e6edf3">gemini</text><line x1="656" y1="87" x2="672" y2="87" stroke="#A371F7" stroke-width="3" stroke-linecap="round"></line><text x="678" y="90" font-size="11" font-weight="400" text-anchor="start" fill="#e6edf3">llama</text><line x1="656" y1="107" x2="672" y2="107" stroke="#F0A23B" stroke-width="3" stroke-linecap="round"></line><text x="678" y="110" font-size="11" font-weight="400" text-anchor="start" fill="#e6edf3">mistral</text><line x1="656" y1="127" x2="672" y2="127" stroke="#1F9CF0" stroke-width="3" stroke-linecap="round"></line><text x="678" y="130" font-size="11" font-weight="400" text-anchor="start" fill="#e6edf3">openai</text></svg>
