<svg xmlns="http://www.w3.org/2000/svg" viewBox="0 0 760 348" width="760" height="348" role="img" aria-label="Average LLM latency by provider over runs — llama highest, deepseek lowest" font-family="-apple-system,BlinkMacSystemFont,'Segoe UI',system-ui,sans-serif"><line x1="56" y1="306" x2="642" y2="306" stroke="#d8dee4" stroke-width="1"></line><text x="46" y="310" font-size="9.5" font-weight="400" text-anchor="end" fill="#656d76" font-family="ui-monospace,SFMono-Regular,Menlo,monospace">0.0s</text><line x1="56" y1="235" x2="642" y2="235" stroke="#d8dee4" stroke-width="1"></line><text x="46" y="239" font-size="9.5" font-weight="400" text-anchor="end" fill="#656d76" font-family="ui-monospace,SFMono-Regular,Menlo,monospace">82.5s</text><line x1="56" y1="164" x2="642" y2="164" stroke="#d8dee4" stroke-width="1"></line><text x="46" y="168" font-size="9.5" font-weight="400" text-anchor="end" fill="#656d76" font-family="ui-monospace,SFMono-Regular,Menlo,monospace">165.1s</text><line x1="56" y1="93" x2="642" y2="93" stroke="#d8dee4" stroke-width="1"></line><text x="46" y="97" font-size="9.5" font-weight="400" text-anchor="end" fill="#656d76" font-family="ui-monospace,SFMono-Regular,Menlo,monospace">247.6s</text><line x1="56" y1="22" x2="642" y2="22" stroke="#d8dee4" stroke-width="1"></line><text x="46" y="26" font-size="9.5" font-weight="400" text-anchor="end" fill="#656d76" font-family="ui-monospace,SFMono-Regular,Menlo,monospace">330.2s</text><text x="56" y="324" font-size="9.5" font-weight="400" text-anchor="middle" fill="#656d76" font-family="ui-monospace,SFMono-Regular,Menlo,monospace">06/08</text><text x="105.87" y="324" font-size="9.5" font-weight="400" text-anchor="middle" fill="#656d76" font-family="ui-monospace,SFMono-Regular,Menlo,monospace">06/08</text><text x="155.74" y="324" font-size="9.5" font-weight="400" text-anchor="middle" fill="#656d76" font-family="ui-monospace,SFMono-Regular,Menlo,monospace">06/09</text><text x="205.62" y="324" font-size="9.5" font-weight="400" text-anchor="middle" fill="#656d76" font-family="ui-monospace,SFMono-Regular,Menlo,monospace">06/09</text><text x="255.49" y="324" font-size="9.5" font-weight="400" text-anchor="middle" fill="#656d76" font-family="ui-monospace,SFMono-Regular,Menlo,monospace">06/12</text><text x="305.36" y="324" font-size="9.5" font-weight="400" text-anchor="middle" fill="#656d76" font-family="ui-monospace,SFMono-Regular,Menlo,monospace">06/13</text><text x="355.23" y="324" font-size="9.5" font-weight="400" text-anchor="middle" fill="#656d76" font-family="ui-monospace,SFMono-Regular,Menlo,monospace">06/14</text><text x="405.11" y="324" font-size="9.5" font-weight="400" text-anchor="middle" fill="#656d76" font-family="ui-monospace,SFMono-Regular,Menlo,monospace">06/15</text><text x="454.98" y="324" font-size="9.5" font-weight="400" text-anchor="middle" fill="#656d76" font-family="ui-monospace,SFMono-Regular,Menlo,monospace">06/16</text><text x="504.85" y="324" font-size="9.5" font-weight="400" text-anchor="middle" fill="#656d76" font-family="ui-monospace,SFMono-Regular,Menlo,monospace">06/16</text><text x="554.72" y="324" font-size="9.5" font-weight="400" text-anchor="middle" fill="#656d76" font-family="ui-monospace,SFMono-Regular,Menlo,monospace">06/17</text><text x="604.6" y="324" font-size="9.5" font-weight="400" text-anchor="middle" fill="#656d76" font-family="ui-monospace,SFMono-Regular,Menlo,monospace">06/19</text><text x="642" y="324" font-size="9.5" font-weight="400" text-anchor="middle" fill="#656d76" font-family="ui-monospace,SFMono-Regular,Menlo,monospace">06/20</text><polyline fill="none" stroke="#E8835A" stroke-width="2.4" stroke-linejoin="round" stroke-linecap="round" points="56,229.15 68.47,232.31 80.94,238.94 93.4,244 105.87,235.49 118.34,232.81 130.81,250.28 143.28,243.38 155.74,241.66 168.21,231.14 193.15,234.04 205.62,244.32 218.09,228.71 230.55,246.08 243.02,242.18 255.49,235.58 267.96,242.32 280.43,244.55 292.89,246.98 305.36,240.71 317.83,250.83 330.3,244.26 342.77,241.33 355.23,245.63 367.7,245.02 380.17,240.82 392.64,243.78 405.11,243.28 417.57,240.2 430.04,242.69 442.51,215.59 454.98,241.79 467.45,238.64 479.91,243.45 492.38,243.86 504.85,234.8 517.32,244.51 529.79,244.64"></polyline><circle cx="56" cy="229.15" r="2.6" fill="#E8835A"></circle><circle cx="68.47" cy="232.31" r="2.6" fill="#E8835A"></circle><circle cx="80.94" cy="238.94" r="2.6" fill="#E8835A"></circle><circle cx="93.4" cy="244" r="2.6" fill="#E8835A"></circle><circle cx="105.87" cy="235.49" r="2.6" fill="#E8835A"></circle><circle cx="118.34" cy="232.81" r="2.6" fill="#E8835A"></circle><circle cx="130.81" cy="250.28" r="2.6" fill="#E8835A"></circle><circle cx="143.28" cy="243.38" r="2.6" fill="#E8835A"></circle><circle cx="155.74" cy="241.66" r="2.6" fill="#E8835A"></circle><circle cx="168.21" cy="231.14" r="2.6" fill="#E8835A"></circle><circle cx="193.15" cy="234.04" r="2.6" fill="#E8835A"></circle><circle cx="205.62" cy="244.32" r="2.6" fill="#E8835A"></circle><circle cx="218.09" cy="228.71" r="2.6" fill="#E8835A"></circle><circle cx="230.55" cy="246.08" r="2.6" fill="#E8835A"></circle><circle cx="243.02" cy="242.18" r="2.6" fill="#E8835A"></circle><circle cx="255.49" cy="235.58" r="2.6" fill="#E8835A"></circle><circle cx="267.96" cy="242.32" r="2.6" fill="#E8835A"></circle><circle cx="280.43" cy="244.55" r="2.6" fill="#E8835A"></circle><circle cx="292.89" cy="246.98" r="2.6" fill="#E8835A"></circle><circle cx="305.36" cy="240.71" r="2.6" fill="#E8835A"></circle><circle cx="317.83" cy="250.83" r="2.6" fill="#E8835A"></circle><circle cx="330.3" cy="244.26" r="2.6" fill="#E8835A"></circle><circle cx="342.77" cy="241.33" r="2.6" fill="#E8835A"></circle><circle cx="355.23" cy="245.63" r="2.6" fill="#E8835A"></circle><circle cx="367.7" cy="245.02" r="2.6" fill="#E8835A"></circle><circle cx="380.17" cy="240.82" r="2.6" fill="#E8835A"></circle><circle cx="392.64" cy="243.78" r="2.6" fill="#E8835A"></circle><circle cx="405.11" cy="243.28" r="2.6" fill="#E8835A"></circle><circle cx="417.57" cy="240.2" r="2.6" fill="#E8835A"></circle><circle cx="430.04" cy="242.69" r="2.6" fill="#E8835A"></circle><circle cx="442.51" cy="215.59" r="2.6" fill="#E8835A"></circle><circle cx="454.98" cy="241.79" r="2.6" fill="#E8835A"></circle><circle cx="467.45" cy="238.64" r="2.6" fill="#E8835A"></circle><circle cx="479.91" cy="243.45" r="2.6" fill="#E8835A"></circle><circle cx="492.38" cy="243.86" r="2.6" fill="#E8835A"></circle><circle cx="504.85" cy="234.8" r="2.6" fill="#E8835A"></circle><circle cx="517.32" cy="244.51" r="2.6" fill="#E8835A"></circle><circle cx="529.79" cy="244.64" r="2.6" fill="#E8835A"></circle><polyline fill="none" stroke="#6366F1" stroke-width="2.4" stroke-linejoin="round" stroke-linecap="round" points="68.47,247.24 80.94,242.4 93.4,249.98 105.87,230.48 118.34,260.21 130.81,260.34 143.28,270.44 155.74,248.92 168.21,245.19 180.68,247.83 193.15,256.22 205.62,248.72 218.09,261.47 230.55,243.58 243.02,210.49 255.49,266.33 267.96,232.33 280.43,232.27 292.89,199.16 305.36,237.91 317.83,252.97 330.3,266.11 342.77,215.25 355.23,265.97 367.7,258.25 380.17,265.82 392.64,246.69 405.11,244.53 430.04,240.91 442.51,255.51 454.98,252.51 467.45,237.2 479.91,258.24 492.38,235.84 504.85,252.87 517.32,243.73 529.79,249.01 554.72,263.05 567.19,262.95 579.66,250.85 592.13,238.76 604.6,245.84 617.06,240.49 629.53,244.58 642,238.25"></polyline><circle cx="68.47" cy="247.24" r="2.6" fill="#6366F1"></circle><circle cx="80.94" cy="242.4" r="2.6" fill="#6366F1"></circle><circle cx="93.4" cy="249.98" r="2.6" fill="#6366F1"></circle><circle cx="105.87" cy="230.48" r="2.6" fill="#6366F1"></circle><circle cx="118.34" cy="260.21" r="2.6" fill="#6366F1"></circle><circle cx="130.81" cy="260.34" r="2.6" fill="#6366F1"></circle><circle cx="143.28" cy="270.44" r="2.6" fill="#6366F1"></circle><circle cx="155.74" cy="248.92" r="2.6" fill="#6366F1"></circle><circle cx="168.21" cy="245.19" r="2.6" fill="#6366F1"></circle><circle cx="180.68" cy="247.83" r="2.6" fill="#6366F1"></circle><circle cx="193.15" cy="256.22" r="2.6" fill="#6366F1"></circle><circle cx="205.62" cy="248.72" r="2.6" fill="#6366F1"></circle><circle cx="218.09" cy="261.47" r="2.6" fill="#6366F1"></circle><circle cx="230.55" cy="243.58" r="2.6" fill="#6366F1"></circle><circle cx="243.02" cy="210.49" r="2.6" fill="#6366F1"></circle><circle cx="255.49" cy="266.33" r="2.6" fill="#6366F1"></circle><circle cx="267.96" cy="232.33" r="2.6" fill="#6366F1"></circle><circle cx="280.43" cy="232.27" r="2.6" fill="#6366F1"></circle><circle cx="292.89" cy="199.16" r="2.6" fill="#6366F1"></circle><circle cx="305.36" cy="237.91" r="2.6" fill="#6366F1"></circle><circle cx="317.83" cy="252.97" r="2.6" fill="#6366F1"></circle><circle cx="330.3" cy="266.11" r="2.6" fill="#6366F1"></circle><circle cx="342.77" cy="215.25" r="2.6" fill="#6366F1"></circle><circle cx="355.23" cy="265.97" r="2.6" fill="#6366F1"></circle><circle cx="367.7" cy="258.25" r="2.6" fill="#6366F1"></circle><circle cx="380.17" cy="265.82" r="2.6" fill="#6366F1"></circle><circle cx="392.64" cy="246.69" r="2.6" fill="#6366F1"></circle><circle cx="405.11" cy="244.53" r="2.6" fill="#6366F1"></circle><circle cx="430.04" cy="240.91" r="2.6" fill="#6366F1"></circle><circle cx="442.51" cy="255.51" r="2.6" fill="#6366F1"></circle><circle cx="454.98" cy="252.51" r="2.6" fill="#6366F1"></circle><circle cx="467.45" cy="237.2" r="2.6" fill="#6366F1"></circle><circle cx="479.91" cy="258.24" r="2.6" fill="#6366F1"></circle><circle cx="492.38" cy="235.84" r="2.6" fill="#6366F1"></circle><circle cx="504.85" cy="252.87" r="2.6" fill="#6366F1"></circle><circle cx="517.32" cy="243.73" r="2.6" fill="#6366F1"></circle><circle cx="529.79" cy="249.01" r="2.6" fill="#6366F1"></circle><circle cx="554.72" cy="263.05" r="2.6" fill="#6366F1"></circle><circle cx="567.19" cy="262.95" r="2.6" fill="#6366F1"></circle><circle cx="579.66" cy="250.85" r="2.6" fill="#6366F1"></circle><circle cx="592.13" cy="238.76" r="2.6" fill="#6366F1"></circle><circle cx="604.6" cy="245.84" r="2.6" fill="#6366F1"></circle><circle cx="617.06" cy="240.49" r="2.6" fill="#6366F1"></circle><circle cx="629.53" cy="244.58" r="2.6" fill="#6366F1"></circle><circle cx="642" cy="238.25" r="2.6" fill="#6366F1"></circle><polyline fill="none" stroke="#2DA98C" stroke-width="2.4" stroke-linejoin="round" stroke-linecap="round" points="56,205.26 68.47,215.39 80.94,174.15 93.4,217.56 105.87,218.68 118.34,227.57 130.81,203.76 143.28,192.14 155.74,215.35 168.21,194.78 180.68,194.92 193.15,141.5 205.62,148.87 218.09,194.84 230.55,180.85 243.02,202.09 255.49,169.08 267.96,211.29 280.43,193.77 292.89,192.04 305.36,206.61 430.04,221.15 442.51,190.23 454.98,183.33 467.45,225.15 479.91,184.37 492.38,182.1 504.85,210.86 517.32,161.53 529.79,210.56 554.72,182.01 567.19,172.32 579.66,181.93 592.13,186.76 604.6,217.59 617.06,171.76 629.53,211.13 642,171.55"></polyline><circle cx="56" cy="205.26" r="2.6" fill="#2DA98C"></circle><circle cx="68.47" cy="215.39" r="2.6" fill="#2DA98C"></circle><circle cx="80.94" cy="174.15" r="2.6" fill="#2DA98C"></circle><circle cx="93.4" cy="217.56" r="2.6" fill="#2DA98C"></circle><circle cx="105.87" cy="218.68" r="2.6" fill="#2DA98C"></circle><circle cx="118.34" cy="227.57" r="2.6" fill="#2DA98C"></circle><circle cx="130.81" cy="203.76" r="2.6" fill="#2DA98C"></circle><circle cx="143.28" cy="192.14" r="2.6" fill="#2DA98C"></circle><circle cx="155.74" cy="215.35" r="2.6" fill="#2DA98C"></circle><circle cx="168.21" cy="194.78" r="2.6" fill="#2DA98C"></circle><circle cx="180.68" cy="194.92" r="2.6" fill="#2DA98C"></circle><circle cx="193.15" cy="141.5" r="2.6" fill="#2DA98C"></circle><circle cx="205.62" cy="148.87" r="2.6" fill="#2DA98C"></circle><circle cx="218.09" cy="194.84" r="2.6" fill="#2DA98C"></circle><circle cx="230.55" cy="180.85" r="2.6" fill="#2DA98C"></circle><circle cx="243.02" cy="202.09" r="2.6" fill="#2DA98C"></circle><circle cx="255.49" cy="169.08" r="2.6" fill="#2DA98C"></circle><circle cx="267.96" cy="211.29" r="2.6" fill="#2DA98C"></circle><circle cx="280.43" cy="193.77" r="2.6" fill="#2DA98C"></circle><circle cx="292.89" cy="192.04" r="2.6" fill="#2DA98C"></circle><circle cx="305.36" cy="206.61" r="2.6" fill="#2DA98C"></circle><circle cx="430.04" cy="221.15" r="2.6" fill="#2DA98C"></circle><circle cx="442.51" cy="190.23" r="2.6" fill="#2DA98C"></circle><circle cx="454.98" cy="183.33" r="2.6" fill="#2DA98C"></circle><circle cx="467.45" cy="225.15" r="2.6" fill="#2DA98C"></circle><circle cx="479.91" cy="184.37" r="2.6" fill="#2DA98C"></circle><circle cx="492.38" cy="182.1" r="2.6" fill="#2DA98C"></circle><circle cx="504.85" cy="210.86" r="2.6" fill="#2DA98C"></circle><circle cx="517.32" cy="161.53" r="2.6" fill="#2DA98C"></circle><circle cx="529.79" cy="210.56" r="2.6" fill="#2DA98C"></circle><circle cx="554.72" cy="182.01" r="2.6" fill="#2DA98C"></circle><circle cx="567.19" cy="172.32" r="2.6" fill="#2DA98C"></circle><circle cx="579.66" cy="181.93" r="2.6" fill="#2DA98C"></circle><circle cx="592.13" cy="186.76" r="2.6" fill="#2DA98C"></circle><circle cx="604.6" cy="217.59" r="2.6" fill="#2DA98C"></circle><circle cx="617.06" cy="171.76" r="2.6" fill="#2DA98C"></circle><circle cx="629.53" cy="211.13" r="2.6" fill="#2DA98C"></circle><circle cx="642" cy="171.55" r="2.6" fill="#2DA98C"></circle><polyline fill="none" stroke="#A371F7" stroke-width="2.4" stroke-linejoin="round" stroke-linecap="round" points="56,127.86 68.47,149.85 80.94,181.76 93.4,139.24 105.87,107.36 118.34,219.97 130.81,116.3 143.28,182.89 155.74,193.78 168.21,197.11 180.68,105.85 193.15,146.07 205.62,181.42 218.09,202.88 230.55,134.79 243.02,219.07 255.49,58.83 267.96,197.05 280.43,167.66 292.89,75.26 305.36,128.5 317.83,152.23 330.3,166.9 342.77,183.57 355.23,162.79 367.7,148.18 380.17,52.43 392.64,96.59 405.11,191.76 430.04,151.86 442.51,169.19 454.98,135.22 479.91,206.77 492.38,167.88 504.85,189.32 517.32,143.76 529.79,142.49 542.26,163.7 554.72,128.52 567.19,144.9 579.66,92.3 592.13,157.36 604.6,160.21 617.06,176.32 629.53,116.21 642,165.98"></polyline><circle cx="56" cy="127.86" r="2.6" fill="#A371F7"></circle><circle cx="68.47" cy="149.85" r="2.6" fill="#A371F7"></circle><circle cx="80.94" cy="181.76" r="2.6" fill="#A371F7"></circle><circle cx="93.4" cy="139.24" r="2.6" fill="#A371F7"></circle><circle cx="105.87" cy="107.36" r="2.6" fill="#A371F7"></circle><circle cx="118.34" cy="219.97" r="2.6" fill="#A371F7"></circle><circle cx="130.81" cy="116.3" r="2.6" fill="#A371F7"></circle><circle cx="143.28" cy="182.89" r="2.6" fill="#A371F7"></circle><circle cx="155.74" cy="193.78" r="2.6" fill="#A371F7"></circle><circle cx="168.21" cy="197.11" r="2.6" fill="#A371F7"></circle><circle cx="180.68" cy="105.85" r="2.6" fill="#A371F7"></circle><circle cx="193.15" cy="146.07" r="2.6" fill="#A371F7"></circle><circle cx="205.62" cy="181.42" r="2.6" fill="#A371F7"></circle><circle cx="218.09" cy="202.88" r="2.6" fill="#A371F7"></circle><circle cx="230.55" cy="134.79" r="2.6" fill="#A371F7"></circle><circle cx="243.02" cy="219.07" r="2.6" fill="#A371F7"></circle><circle cx="255.49" cy="58.83" r="2.6" fill="#A371F7"></circle><circle cx="267.96" cy="197.05" r="2.6" fill="#A371F7"></circle><circle cx="280.43" cy="167.66" r="2.6" fill="#A371F7"></circle><circle cx="292.89" cy="75.26" r="2.6" fill="#A371F7"></circle><circle cx="305.36" cy="128.5" r="2.6" fill="#A371F7"></circle><circle cx="317.83" cy="152.23" r="2.6" fill="#A371F7"></circle><circle cx="330.3" cy="166.9" r="2.6" fill="#A371F7"></circle><circle cx="342.77" cy="183.57" r="2.6" fill="#A371F7"></circle><circle cx="355.23" cy="162.79" r="2.6" fill="#A371F7"></circle><circle cx="367.7" cy="148.18" r="2.6" fill="#A371F7"></circle><circle cx="380.17" cy="52.43" r="2.6" fill="#A371F7"></circle><circle cx="392.64" cy="96.59" r="2.6" fill="#A371F7"></circle><circle cx="405.11" cy="191.76" r="2.6" fill="#A371F7"></circle><circle cx="430.04" cy="151.86" r="2.6" fill="#A371F7"></circle><circle cx="442.51" cy="169.19" r="2.6" fill="#A371F7"></circle><circle cx="454.98" cy="135.22" r="2.6" fill="#A371F7"></circle><circle cx="479.91" cy="206.77" r="2.6" fill="#A371F7"></circle><circle cx="492.38" cy="167.88" r="2.6" fill="#A371F7"></circle><circle cx="504.85" cy="189.32" r="2.6" fill="#A371F7"></circle><circle cx="517.32" cy="143.76" r="2.6" fill="#A371F7"></circle><circle cx="529.79" cy="142.49" r="2.6" fill="#A371F7"></circle><circle cx="542.26" cy="163.7" r="2.6" fill="#A371F7"></circle><circle cx="554.72" cy="128.52" r="2.6" fill="#A371F7"></circle><circle cx="567.19" cy="144.9" r="2.6" fill="#A371F7"></circle><circle cx="579.66" cy="92.3" r="2.6" fill="#A371F7"></circle><circle cx="592.13" cy="157.36" r="2.6" fill="#A371F7"></circle><circle cx="604.6" cy="160.21" r="2.6" fill="#A371F7"></circle><circle cx="617.06" cy="176.32" r="2.6" fill="#A371F7"></circle><circle cx="629.53" cy="116.21" r="2.6" fill="#A371F7"></circle><circle cx="642" cy="165.98" r="2.6" fill="#A371F7"></circle><polyline fill="none" stroke="#F0A23B" stroke-width="2.4" stroke-linejoin="round" stroke-linecap="round" points="56,170.6 68.47,150.62 80.94,187.27 93.4,153.33 105.87,137.4 118.34,187.39 130.81,202.98 143.28,219.57 155.74,187.3 168.21,163.64 180.68,218.54 193.15,247.9 205.62,222.75 218.09,249.71 230.55,224.7 243.02,243.69 255.49,245.81 267.96,211.84 280.43,236.21 292.89,257.78 305.36,248.63 317.83,234.2 330.3,247.57 342.77,243.66 355.23,258.59 367.7,253.94 380.17,235.44 392.64,209.7 405.11,229.87 417.57,229.74 430.04,242.74 442.51,219.28 454.98,218.69 467.45,248.17 479.91,252.02 492.38,241.64 504.85,202.83 517.32,191.16 529.79,236.21 542.26,247.47 554.72,237.91 567.19,227.46 579.66,241.35 592.13,249.73 604.6,234.66 617.06,250 629.53,253.94 642,252.42"></polyline><circle cx="56" cy="170.6" r="2.6" fill="#F0A23B"></circle><circle cx="68.47" cy="150.62" r="2.6" fill="#F0A23B"></circle><circle cx="80.94" cy="187.27" r="2.6" fill="#F0A23B"></circle><circle cx="93.4" cy="153.33" r="2.6" fill="#F0A23B"></circle><circle cx="105.87" cy="137.4" r="2.6" fill="#F0A23B"></circle><circle cx="118.34" cy="187.39" r="2.6" fill="#F0A23B"></circle><circle cx="130.81" cy="202.98" r="2.6" fill="#F0A23B"></circle><circle cx="143.28" cy="219.57" r="2.6" fill="#F0A23B"></circle><circle cx="155.74" cy="187.3" r="2.6" fill="#F0A23B"></circle><circle cx="168.21" cy="163.64" r="2.6" fill="#F0A23B"></circle><circle cx="180.68" cy="218.54" r="2.6" fill="#F0A23B"></circle><circle cx="193.15" cy="247.9" r="2.6" fill="#F0A23B"></circle><circle cx="205.62" cy="222.75" r="2.6" fill="#F0A23B"></circle><circle cx="218.09" cy="249.71" r="2.6" fill="#F0A23B"></circle><circle cx="230.55" cy="224.7" r="2.6" fill="#F0A23B"></circle><circle cx="243.02" cy="243.69" r="2.6" fill="#F0A23B"></circle><circle cx="255.49" cy="245.81" r="2.6" fill="#F0A23B"></circle><circle cx="267.96" cy="211.84" r="2.6" fill="#F0A23B"></circle><circle cx="280.43" cy="236.21" r="2.6" fill="#F0A23B"></circle><circle cx="292.89" cy="257.78" r="2.6" fill="#F0A23B"></circle><circle cx="305.36" cy="248.63" r="2.6" fill="#F0A23B"></circle><circle cx="317.83" cy="234.2" r="2.6" fill="#F0A23B"></circle><circle cx="330.3" cy="247.57" r="2.6" fill="#F0A23B"></circle><circle cx="342.77" cy="243.66" r="2.6" fill="#F0A23B"></circle><circle cx="355.23" cy="258.59" r="2.6" fill="#F0A23B"></circle><circle cx="367.7" cy="253.94" r="2.6" fill="#F0A23B"></circle><circle cx="380.17" cy="235.44" r="2.6" fill="#F0A23B"></circle><circle cx="392.64" cy="209.7" r="2.6" fill="#F0A23B"></circle><circle cx="405.11" cy="229.87" r="2.6" fill="#F0A23B"></circle><circle cx="417.57" cy="229.74" r="2.6" fill="#F0A23B"></circle><circle cx="430.04" cy="242.74" r="2.6" fill="#F0A23B"></circle><circle cx="442.51" cy="219.28" r="2.6" fill="#F0A23B"></circle><circle cx="454.98" cy="218.69" r="2.6" fill="#F0A23B"></circle><circle cx="467.45" cy="248.17" r="2.6" fill="#F0A23B"></circle><circle cx="479.91" cy="252.02" r="2.6" fill="#F0A23B"></circle><circle cx="492.38" cy="241.64" r="2.6" fill="#F0A23B"></circle><circle cx="504.85" cy="202.83" r="2.6" fill="#F0A23B"></circle><circle cx="517.32" cy="191.16" r="2.6" fill="#F0A23B"></circle><circle cx="529.79" cy="236.21" r="2.6" fill="#F0A23B"></circle><circle cx="542.26" cy="247.47" r="2.6" fill="#F0A23B"></circle><circle cx="554.72" cy="237.91" r="2.6" fill="#F0A23B"></circle><circle cx="567.19" cy="227.46" r="2.6" fill="#F0A23B"></circle><circle cx="579.66" cy="241.35" r="2.6" fill="#F0A23B"></circle><circle cx="592.13" cy="249.73" r="2.6" fill="#F0A23B"></circle><circle cx="604.6" cy="234.66" r="2.6" fill="#F0A23B"></circle><circle cx="617.06" cy="250" r="2.6" fill="#F0A23B"></circle><circle cx="629.53" cy="253.94" r="2.6" fill="#F0A23B"></circle><circle cx="642" cy="252.42" r="2.6" fill="#F0A23B"></circle><polyline fill="none" stroke="#1F9CF0" stroke-width="2.4" stroke-linejoin="round" stroke-linecap="round" points="56,198.31 68.47,224.59 80.94,214.73 93.4,247.97 105.87,236.75 118.34,219.64 130.81,238.79 143.28,207.95 155.74,201.38 168.21,239.3 180.68,242.33 193.15,177.25 205.62,218.95 218.09,232.82 230.55,248.48 243.02,252.97 255.49,230.93 267.96,242.47 280.43,240.12 292.89,248.48 305.36,256.65 317.83,261.44 330.3,262.41 342.77,264.75 355.23,261.4 367.7,262.76 380.17,244.65 392.64,230.98 405.11,234.56 417.57,260.01 430.04,254.76 442.51,238.53 454.98,231.76 467.45,226.22 479.91,247.36 492.38,238.78 504.85,250.58 517.32,256.4 529.79,243.61 542.26,265.98 554.72,253.29 567.19,225.25 579.66,246.45 592.13,252.36 604.6,241.14 617.06,253.3 629.53,245.06 642,205.73"></polyline><circle cx="56" cy="198.31" r="2.6" fill="#1F9CF0"></circle><circle cx="68.47" cy="224.59" r="2.6" fill="#1F9CF0"></circle><circle cx="80.94" cy="214.73" r="2.6" fill="#1F9CF0"></circle><circle cx="93.4" cy="247.97" r="2.6" fill="#1F9CF0"></circle><circle cx="105.87" cy="236.75" r="2.6" fill="#1F9CF0"></circle><circle cx="118.34" cy="219.64" r="2.6" fill="#1F9CF0"></circle><circle cx="130.81" cy="238.79" r="2.6" fill="#1F9CF0"></circle><circle cx="143.28" cy="207.95" r="2.6" fill="#1F9CF0"></circle><circle cx="155.74" cy="201.38" r="2.6" fill="#1F9CF0"></circle><circle cx="168.21" cy="239.3" r="2.6" fill="#1F9CF0"></circle><circle cx="180.68" cy="242.33" r="2.6" fill="#1F9CF0"></circle><circle cx="193.15" cy="177.25" r="2.6" fill="#1F9CF0"></circle><circle cx="205.62" cy="218.95" r="2.6" fill="#1F9CF0"></circle><circle cx="218.09" cy="232.82" r="2.6" fill="#1F9CF0"></circle><circle cx="230.55" cy="248.48" r="2.6" fill="#1F9CF0"></circle><circle cx="243.02" cy="252.97" r="2.6" fill="#1F9CF0"></circle><circle cx="255.49" cy="230.93" r="2.6" fill="#1F9CF0"></circle><circle cx="267.96" cy="242.47" r="2.6" fill="#1F9CF0"></circle><circle cx="280.43" cy="240.12" r="2.6" fill="#1F9CF0"></circle><circle cx="292.89" cy="248.48" r="2.6" fill="#1F9CF0"></circle><circle cx="305.36" cy="256.65" r="2.6" fill="#1F9CF0"></circle><circle cx="317.83" cy="261.44" r="2.6" fill="#1F9CF0"></circle><circle cx="330.3" cy="262.41" r="2.6" fill="#1F9CF0"></circle><circle cx="342.77" cy="264.75" r="2.6" fill="#1F9CF0"></circle><circle cx="355.23" cy="261.4" r="2.6" fill="#1F9CF0"></circle><circle cx="367.7" cy="262.76" r="2.6" fill="#1F9CF0"></circle><circle cx="380.17" cy="244.65" r="2.6" fill="#1F9CF0"></circle><circle cx="392.64" cy="230.98" r="2.6" fill="#1F9CF0"></circle><circle cx="405.11" cy="234.56" r="2.6" fill="#1F9CF0"></circle><circle cx="417.57" cy="260.01" r="2.6" fill="#1F9CF0"></circle><circle cx="430.04" cy="254.76" r="2.6" fill="#1F9CF0"></circle><circle cx="442.51" cy="238.53" r="2.6" fill="#1F9CF0"></circle><circle cx="454.98" cy="231.76" r="2.6" fill="#1F9CF0"></circle><circle cx="467.45" cy="226.22" r="2.6" fill="#1F9CF0"></circle><circle cx="479.91" cy="247.36" r="2.6" fill="#1F9CF0"></circle><circle cx="492.38" cy="238.78" r="2.6" fill="#1F9CF0"></circle><circle cx="504.85" cy="250.58" r="2.6" fill="#1F9CF0"></circle><circle cx="517.32" cy="256.4" r="2.6" fill="#1F9CF0"></circle><circle cx="529.79" cy="243.61" r="2.6" fill="#1F9CF0"></circle><circle cx="542.26" cy="265.98" r="2.6" fill="#1F9CF0"></circle><circle cx="554.72" cy="253.29" r="2.6" fill="#1F9CF0"></circle><circle cx="567.19" cy="225.25" r="2.6" fill="#1F9CF0"></circle><circle cx="579.66" cy="246.45" r="2.6" fill="#1F9CF0"></circle><circle cx="592.13" cy="252.36" r="2.6" fill="#1F9CF0"></circle><circle cx="604.6" cy="241.14" r="2.6" fill="#1F9CF0"></circle><circle cx="617.06" cy="253.3" r="2.6" fill="#1F9CF0"></circle><circle cx="629.53" cy="245.06" r="2.6" fill="#1F9CF0"></circle><circle cx="642" cy="205.73" r="2.6" fill="#1F9CF0"></circle><line x1="656" y1="27" x2="672" y2="27" stroke="#E8835A" stroke-width="3" stroke-linecap="round"></line><text x="678" y="30" font-size="11" font-weight="400" text-anchor="start" fill="#1f2328">anthropic</text><line x1="656" y1="47" x2="672" y2="47" stroke="#6366F1" stroke-width="3" stroke-linecap="round"></line><text x="678" y="50" font-size="11" font-weight="400" text-anchor="start" fill="#1f2328">deepseek</text><line x1="656" y1="67" x2="672" y2="67" stroke="#2DA98C" stroke-width="3" stroke-linecap="round"></line><text x="678" y="70" font-size="11" font-weight="400" text-anchor="start" fill="#1f2328">gemini</text><line x1="656" y1="87" x2="672" y2="87" stroke="#A371F7" stroke-width="3" stroke-linecap="round"></line><text x="678" y="90" font-size="11" font-weight="400" text-anchor="start" fill="#1f2328">llama</text><line x1="656" y1="107" x2="672" y2="107" stroke="#F0A23B" stroke-width="3" stroke-linecap="round"></line><text x="678" y="110" font-size="11" font-weight="400" text-anchor="start" fill="#1f2328">mistral</text><line x1="656" y1="127" x2="672" y2="127" stroke="#1F9CF0" stroke-width="3" stroke-linecap="round"></line><text x="678" y="130" font-size="11" font-weight="400" text-anchor="start" fill="#1f2328">openai</text></svg>
