<svg xmlns="http://www.w3.org/2000/svg" viewBox="0 0 600 300" width="600" height="300" role="img" aria-label="Avg LLM latency by provider over runs (s)"><text x="300.0" y="24" text-anchor="middle" font-family="system-ui, -apple-system, sans-serif" font-size="14" font-weight="600" fill="#333">Avg LLM latency by provider over runs (s)</text><line x1="60" y1="240.0" x2="480" y2="240.0" stroke="#eee" stroke-width="1"/><text x="54" y="244.0" text-anchor="end" font-family="system-ui, -apple-system, sans-serif" font-size="9" fill="#999">41.35</text><line x1="60" y1="140.0" x2="480" y2="140.0" stroke="#eee" stroke-width="1"/><text x="54" y="144.0" text-anchor="end" font-family="system-ui, -apple-system, sans-serif" font-size="9" fill="#999">164.3</text><line x1="60" y1="40.0" x2="480" y2="40.0" stroke="#eee" stroke-width="1"/><text x="54" y="44.0" text-anchor="end" font-family="system-ui, -apple-system, sans-serif" font-size="9" fill="#999">287.4</text><polyline fill="none" stroke="#4CAF50" stroke-width="2" points="60.0,171.8 83.3,196.7 106.7,187.4 130.0,218.8 153.3,208.2 176.7,192.0 200.0,210.1 223.3,180.9 246.7,174.7 270.0,210.6 293.3,213.4 316.7,151.9 340.0,191.3 363.3,204.4 386.7,219.2 410.0,223.5 433.3,202.7 456.7,213.6 480.0,211.3"/><circle cx="60.0" cy="171.8" r="3" fill="#4CAF50"/><circle cx="83.3" cy="196.7" r="3" fill="#4CAF50"/><circle cx="106.7" cy="187.4" r="3" fill="#4CAF50"/><circle cx="130.0" cy="218.8" r="3" fill="#4CAF50"/><circle cx="153.3" cy="208.2" r="3" fill="#4CAF50"/><circle cx="176.7" cy="192.0" r="3" fill="#4CAF50"/><circle cx="200.0" cy="210.1" r="3" fill="#4CAF50"/><circle cx="223.3" cy="180.9" r="3" fill="#4CAF50"/><circle cx="246.7" cy="174.7" r="3" fill="#4CAF50"/><circle cx="270.0" cy="210.6" r="3" fill="#4CAF50"/><circle cx="293.3" cy="213.4" r="3" fill="#4CAF50"/><circle cx="316.7" cy="151.9" r="3" fill="#4CAF50"/><circle cx="340.0" cy="191.3" r="3" fill="#4CAF50"/><circle cx="363.3" cy="204.4" r="3" fill="#4CAF50"/><circle cx="386.7" cy="219.2" r="3" fill="#4CAF50"/><circle cx="410.0" cy="223.5" r="3" fill="#4CAF50"/><circle cx="433.3" cy="202.7" r="3" fill="#4CAF50"/><circle cx="456.7" cy="213.6" r="3" fill="#4CAF50"/><circle cx="480.0" cy="211.3" r="3" fill="#4CAF50"/><rect x="490" y="44" width="10" height="10" fill="#4CAF50"/><text x="504" y="53" font-family="system-ui, -apple-system, sans-serif" font-size="10" fill="#333">openai</text><polyline fill="none" stroke="#2196F3" stroke-width="2" points="60.0,201.0 83.3,204.0 106.7,210.2 130.0,215.0 153.3,207.0 176.7,204.4 200.0,220.9 223.3,214.4 246.7,212.8 270.0,202.9 316.7,205.6 340.0,215.3 363.3,200.6 386.7,217.0 410.0,213.3 433.3,207.1 456.7,213.4 480.0,215.5"/><circle cx="60.0" cy="201.0" r="3" fill="#2196F3"/><circle cx="83.3" cy="204.0" r="3" fill="#2196F3"/><circle cx="106.7" cy="210.2" r="3" fill="#2196F3"/><circle cx="130.0" cy="215.0" r="3" fill="#2196F3"/><circle cx="153.3" cy="207.0" r="3" fill="#2196F3"/><circle cx="176.7" cy="204.4" r="3" fill="#2196F3"/><circle cx="200.0" cy="220.9" r="3" fill="#2196F3"/><circle cx="223.3" cy="214.4" r="3" fill="#2196F3"/><circle cx="246.7" cy="212.8" r="3" fill="#2196F3"/><circle cx="270.0" cy="202.9" r="3" fill="#2196F3"/><circle cx="316.7" cy="205.6" r="3" fill="#2196F3"/><circle cx="340.0" cy="215.3" r="3" fill="#2196F3"/><circle cx="363.3" cy="200.6" r="3" fill="#2196F3"/><circle cx="386.7" cy="217.0" r="3" fill="#2196F3"/><circle cx="410.0" cy="213.3" r="3" fill="#2196F3"/><circle cx="433.3" cy="207.1" r="3" fill="#2196F3"/><circle cx="456.7" cy="213.4" r="3" fill="#2196F3"/><circle cx="480.0" cy="215.5" r="3" fill="#2196F3"/><rect x="490" y="62" width="10" height="10" fill="#2196F3"/><text x="504" y="71" font-family="system-ui, -apple-system, sans-serif" font-size="10" fill="#333">anthropic</text><polyline fill="none" stroke="#FF9800" stroke-width="2" points="60.0,178.4 83.3,188.0 106.7,149.0 130.0,190.0 153.3,191.1 176.7,199.5 200.0,177.0 223.3,166.0 246.7,187.9 270.0,168.5 293.3,168.6 316.7,118.1 340.0,125.1 363.3,168.6 386.7,155.3 410.0,175.4 433.3,144.2 456.7,184.1 480.0,167.5"/><circle cx="60.0" cy="178.4" r="3" fill="#FF9800"/><circle cx="83.3" cy="188.0" r="3" fill="#FF9800"/><circle cx="106.7" cy="149.0" r="3" fill="#FF9800"/><circle cx="130.0" cy="190.0" r="3" fill="#FF9800"/><circle cx="153.3" cy="191.1" r="3" fill="#FF9800"/><circle cx="176.7" cy="199.5" r="3" fill="#FF9800"/><circle cx="200.0" cy="177.0" r="3" fill="#FF9800"/><circle cx="223.3" cy="166.0" r="3" fill="#FF9800"/><circle cx="246.7" cy="187.9" r="3" fill="#FF9800"/><circle cx="270.0" cy="168.5" r="3" fill="#FF9800"/><circle cx="293.3" cy="168.6" r="3" fill="#FF9800"/><circle cx="316.7" cy="118.1" r="3" fill="#FF9800"/><circle cx="340.0" cy="125.1" r="3" fill="#FF9800"/><circle cx="363.3" cy="168.6" r="3" fill="#FF9800"/><circle cx="386.7" cy="155.3" r="3" fill="#FF9800"/><circle cx="410.0" cy="175.4" r="3" fill="#FF9800"/><circle cx="433.3" cy="144.2" r="3" fill="#FF9800"/><circle cx="456.7" cy="184.1" r="3" fill="#FF9800"/><circle cx="480.0" cy="167.5" r="3" fill="#FF9800"/><rect x="490" y="80" width="10" height="10" fill="#FF9800"/><text x="504" y="89" font-family="system-ui, -apple-system, sans-serif" font-size="10" fill="#333">gemini</text><polyline fill="none" stroke="#E91E63" stroke-width="2" points="60.0,105.2 83.3,126.0 106.7,156.2 130.0,116.0 153.3,85.9 176.7,192.3 200.0,94.3 223.3,157.3 246.7,167.5 270.0,170.7 293.3,84.4 316.7,122.5 340.0,155.9 363.3,176.1 386.7,111.8 410.0,191.5 433.3,40.0 456.7,170.6 480.0,142.9"/><circle cx="60.0" cy="105.2" r="3" fill="#E91E63"/><circle cx="83.3" cy="126.0" r="3" fill="#E91E63"/><circle cx="106.7" cy="156.2" r="3" fill="#E91E63"/><circle cx="130.0" cy="116.0" r="3" fill="#E91E63"/><circle cx="153.3" cy="85.9" r="3" fill="#E91E63"/><circle cx="176.7" cy="192.3" r="3" fill="#E91E63"/><circle cx="200.0" cy="94.3" r="3" fill="#E91E63"/><circle cx="223.3" cy="157.3" r="3" fill="#E91E63"/><circle cx="246.7" cy="167.5" r="3" fill="#E91E63"/><circle cx="270.0" cy="170.7" r="3" fill="#E91E63"/><circle cx="293.3" cy="84.4" r="3" fill="#E91E63"/><circle cx="316.7" cy="122.5" r="3" fill="#E91E63"/><circle cx="340.0" cy="155.9" r="3" fill="#E91E63"/><circle cx="363.3" cy="176.1" r="3" fill="#E91E63"/><circle cx="386.7" cy="111.8" r="3" fill="#E91E63"/><circle cx="410.0" cy="191.5" r="3" fill="#E91E63"/><circle cx="433.3" cy="40.0" r="3" fill="#E91E63"/><circle cx="456.7" cy="170.6" r="3" fill="#E91E63"/><circle cx="480.0" cy="142.9" r="3" fill="#E91E63"/><rect x="490" y="98" width="10" height="10" fill="#E91E63"/><text x="504" y="107" font-family="system-ui, -apple-system, sans-serif" font-size="10" fill="#333">llama</text><polyline fill="none" stroke="#9C27B0" stroke-width="2" points="60.0,145.6 83.3,126.8 106.7,161.4 130.0,129.3 153.3,114.3 176.7,161.5 200.0,176.2 223.3,191.9 246.7,161.4 270.0,139.1 293.3,191.0 316.7,218.7 340.0,194.9 363.3,220.4 386.7,196.8 410.0,214.7 433.3,216.7 456.7,184.6 480.0,207.7"/><circle cx="60.0" cy="145.6" r="3" fill="#9C27B0"/><circle cx="83.3" cy="126.8" r="3" fill="#9C27B0"/><circle cx="106.7" cy="161.4" r="3" fill="#9C27B0"/><circle cx="130.0" cy="129.3" r="3" fill="#9C27B0"/><circle cx="153.3" cy="114.3" r="3" fill="#9C27B0"/><circle cx="176.7" cy="161.5" r="3" fill="#9C27B0"/><circle cx="200.0" cy="176.2" r="3" fill="#9C27B0"/><circle cx="223.3" cy="191.9" r="3" fill="#9C27B0"/><circle cx="246.7" cy="161.4" r="3" fill="#9C27B0"/><circle cx="270.0" cy="139.1" r="3" fill="#9C27B0"/><circle cx="293.3" cy="191.0" r="3" fill="#9C27B0"/><circle cx="316.7" cy="218.7" r="3" fill="#9C27B0"/><circle cx="340.0" cy="194.9" r="3" fill="#9C27B0"/><circle cx="363.3" cy="220.4" r="3" fill="#9C27B0"/><circle cx="386.7" cy="196.8" r="3" fill="#9C27B0"/><circle cx="410.0" cy="214.7" r="3" fill="#9C27B0"/><circle cx="433.3" cy="216.7" r="3" fill="#9C27B0"/><circle cx="456.7" cy="184.6" r="3" fill="#9C27B0"/><circle cx="480.0" cy="207.7" r="3" fill="#9C27B0"/><rect x="490" y="116" width="10" height="10" fill="#9C27B0"/><text x="504" y="125" font-family="system-ui, -apple-system, sans-serif" font-size="10" fill="#333">mistral</text><polyline fill="none" stroke="#00BCD4" stroke-width="2" points="83.3,218.1 106.7,213.5 130.0,220.7 153.3,202.2 176.7,230.3 200.0,230.5 223.3,240.0 246.7,219.7 270.0,216.1 293.3,218.6 316.7,226.6 340.0,219.5 363.3,231.5 386.7,214.6 410.0,183.3 433.3,236.1 456.7,204.0 480.0,203.9"/><circle cx="83.3" cy="218.1" r="3" fill="#00BCD4"/><circle cx="106.7" cy="213.5" r="3" fill="#00BCD4"/><circle cx="130.0" cy="220.7" r="3" fill="#00BCD4"/><circle cx="153.3" cy="202.2" r="3" fill="#00BCD4"/><circle cx="176.7" cy="230.3" r="3" fill="#00BCD4"/><circle cx="200.0" cy="230.5" r="3" fill="#00BCD4"/><circle cx="223.3" cy="240.0" r="3" fill="#00BCD4"/><circle cx="246.7" cy="219.7" r="3" fill="#00BCD4"/><circle cx="270.0" cy="216.1" r="3" fill="#00BCD4"/><circle cx="293.3" cy="218.6" r="3" fill="#00BCD4"/><circle cx="316.7" cy="226.6" r="3" fill="#00BCD4"/><circle cx="340.0" cy="219.5" r="3" fill="#00BCD4"/><circle cx="363.3" cy="231.5" r="3" fill="#00BCD4"/><circle cx="386.7" cy="214.6" r="3" fill="#00BCD4"/><circle cx="410.0" cy="183.3" r="3" fill="#00BCD4"/><circle cx="433.3" cy="236.1" r="3" fill="#00BCD4"/><circle cx="456.7" cy="204.0" r="3" fill="#00BCD4"/><circle cx="480.0" cy="203.9" r="3" fill="#00BCD4"/><rect x="490" y="134" width="10" height="10" fill="#00BCD4"/><text x="504" y="143" font-family="system-ui, -apple-system, sans-serif" font-size="10" fill="#333">deepseek</text><text x="60.0" y="256.0" text-anchor="middle" font-family="system-ui, -apple-system, sans-serif" font-size="9" fill="#666">33376499</text><text x="83.3" y="256.0" text-anchor="middle" font-family="system-ui, -apple-system, sans-serif" font-size="9" fill="#666">49559976</text><text x="106.7" y="256.0" text-anchor="middle" font-family="system-ui, -apple-system, sans-serif" font-size="9" fill="#666">51938981</text><text x="130.0" y="256.0" text-anchor="middle" font-family="system-ui, -apple-system, sans-serif" font-size="9" fill="#666">53749546</text><text x="153.3" y="256.0" text-anchor="middle" font-family="system-ui, -apple-system, sans-serif" font-size="9" fill="#666">54994841</text><text x="176.7" y="256.0" text-anchor="middle" font-family="system-ui, -apple-system, sans-serif" font-size="9" fill="#666">73723278</text><text x="200.0" y="256.0" text-anchor="middle" font-family="system-ui, -apple-system, sans-serif" font-size="9" fill="#666">74446787</text><text x="223.3" y="256.0" text-anchor="middle" font-family="system-ui, -apple-system, sans-serif" font-size="9" fill="#666">75063969</text><text x="246.7" y="256.0" text-anchor="middle" font-family="system-ui, -apple-system, sans-serif" font-size="9" fill="#666">75757458</text><text x="270.0" y="256.0" text-anchor="middle" font-family="system-ui, -apple-system, sans-serif" font-size="9" fill="#666">76005435</text><text x="293.3" y="256.0" text-anchor="middle" font-family="system-ui, -apple-system, sans-serif" font-size="9" fill="#666">37885074</text><text x="316.7" y="256.0" text-anchor="middle" font-family="system-ui, -apple-system, sans-serif" font-size="9" fill="#666">39719442</text><text x="340.0" y="256.0" text-anchor="middle" font-family="system-ui, -apple-system, sans-serif" font-size="9" fill="#666">41073326</text><text x="363.3" y="256.0" text-anchor="middle" font-family="system-ui, -apple-system, sans-serif" font-size="9" fill="#666">41747041</text><text x="386.7" y="256.0" text-anchor="middle" font-family="system-ui, -apple-system, sans-serif" font-size="9" fill="#666">04094958</text><text x="410.0" y="256.0" text-anchor="middle" font-family="system-ui, -apple-system, sans-serif" font-size="9" fill="#666">11556178</text><text x="433.3" y="256.0" text-anchor="middle" font-family="system-ui, -apple-system, sans-serif" font-size="9" fill="#666">12682497</text><text x="456.7" y="256.0" text-anchor="middle" font-family="system-ui, -apple-system, sans-serif" font-size="9" fill="#666">34092480</text><text x="480.0" y="256.0" text-anchor="middle" font-family="system-ui, -apple-system, sans-serif" font-size="9" fill="#666">39004208</text></svg>
