<svg xmlns="http://www.w3.org/2000/svg" viewBox="0 0 760 348" width="760" height="348" role="img" aria-label="Average LLM latency by provider over runs — llama highest, deepseek lowest" font-family="-apple-system,BlinkMacSystemFont,'Segoe UI',system-ui,sans-serif"><line x1="56" y1="306" x2="642" y2="306" stroke="#d8dee4" stroke-width="1"></line><text x="46" y="310" font-size="9.5" font-weight="400" text-anchor="end" fill="#656d76" font-family="ui-monospace,SFMono-Regular,Menlo,monospace">0.0s</text><line x1="56" y1="235" x2="642" y2="235" stroke="#d8dee4" stroke-width="1"></line><text x="46" y="239" font-size="9.5" font-weight="400" text-anchor="end" fill="#656d76" font-family="ui-monospace,SFMono-Regular,Menlo,monospace">82.5s</text><line x1="56" y1="164" x2="642" y2="164" stroke="#d8dee4" stroke-width="1"></line><text x="46" y="168" font-size="9.5" font-weight="400" text-anchor="end" fill="#656d76" font-family="ui-monospace,SFMono-Regular,Menlo,monospace">165.1s</text><line x1="56" y1="93" x2="642" y2="93" stroke="#d8dee4" stroke-width="1"></line><text x="46" y="97" font-size="9.5" font-weight="400" text-anchor="end" fill="#656d76" font-family="ui-monospace,SFMono-Regular,Menlo,monospace">247.6s</text><line x1="56" y1="22" x2="642" y2="22" stroke="#d8dee4" stroke-width="1"></line><text x="46" y="26" font-size="9.5" font-weight="400" text-anchor="end" fill="#656d76" font-family="ui-monospace,SFMono-Regular,Menlo,monospace">330.2s</text><text x="56" y="324" font-size="9.5" font-weight="400" text-anchor="middle" fill="#656d76" font-family="ui-monospace,SFMono-Regular,Menlo,monospace">06/08</text><text x="107.92" y="324" font-size="9.5" font-weight="400" text-anchor="middle" fill="#656d76" font-family="ui-monospace,SFMono-Regular,Menlo,monospace">06/09</text><text x="159.85" y="324" font-size="9.5" font-weight="400" text-anchor="middle" fill="#656d76" font-family="ui-monospace,SFMono-Regular,Menlo,monospace">06/10</text><text x="211.77" y="324" font-size="9.5" font-weight="400" text-anchor="middle" fill="#656d76" font-family="ui-monospace,SFMono-Regular,Menlo,monospace">06/14</text><text x="263.7" y="324" font-size="9.5" font-weight="400" text-anchor="middle" fill="#656d76" font-family="ui-monospace,SFMono-Regular,Menlo,monospace">06/15</text><text x="315.62" y="324" font-size="9.5" font-weight="400" text-anchor="middle" fill="#656d76" font-family="ui-monospace,SFMono-Regular,Menlo,monospace">06/16</text><text x="367.54" y="324" font-size="9.5" font-weight="400" text-anchor="middle" fill="#656d76" font-family="ui-monospace,SFMono-Regular,Menlo,monospace">06/18</text><text x="419.47" y="324" font-size="9.5" font-weight="400" text-anchor="middle" fill="#656d76" font-family="ui-monospace,SFMono-Regular,Menlo,monospace">06/20</text><text x="471.39" y="324" font-size="9.5" font-weight="400" text-anchor="middle" fill="#656d76" font-family="ui-monospace,SFMono-Regular,Menlo,monospace">06/21</text><text x="523.32" y="324" font-size="9.5" font-weight="400" text-anchor="middle" fill="#656d76" font-family="ui-monospace,SFMono-Regular,Menlo,monospace">06/23</text><text x="575.24" y="324" font-size="9.5" font-weight="400" text-anchor="middle" fill="#656d76" font-family="ui-monospace,SFMono-Regular,Menlo,monospace">06/24</text><text x="627.16" y="324" font-size="9.5" font-weight="400" text-anchor="middle" fill="#656d76" font-family="ui-monospace,SFMono-Regular,Menlo,monospace">06/25</text><text x="642" y="324" font-size="9.5" font-weight="400" text-anchor="middle" fill="#656d76" font-family="ui-monospace,SFMono-Regular,Menlo,monospace">06/26</text><polyline fill="none" stroke="#E8835A" stroke-width="2.4" stroke-linejoin="round" stroke-linecap="round" points="56,229.15 63.42,232.31 70.84,238.94 78.25,244 85.67,235.49 93.09,232.81 100.51,250.28 107.92,243.38 115.34,241.66 122.76,231.14 137.59,234.04 145.01,244.32 152.43,228.71 159.85,246.08 167.27,242.18 174.68,235.58 182.1,242.32 189.52,244.55 196.94,246.98 204.35,240.71 211.77,250.83 219.19,244.26 226.61,241.33 234.03,245.63 241.44,245.02 248.86,240.82 256.28,243.78 263.7,243.28 271.11,240.2 278.53,242.69 285.95,215.59 293.37,241.79 300.78,238.64 308.2,243.45 315.62,243.86 323.04,234.8 330.46,244.51 337.87,244.64"></polyline><circle cx="56" cy="229.15" r="2.6" fill="#E8835A"></circle><circle cx="63.42" cy="232.31" r="2.6" fill="#E8835A"></circle><circle cx="70.84" cy="238.94" r="2.6" fill="#E8835A"></circle><circle cx="78.25" cy="244" r="2.6" fill="#E8835A"></circle><circle cx="85.67" cy="235.49" r="2.6" fill="#E8835A"></circle><circle cx="93.09" cy="232.81" r="2.6" fill="#E8835A"></circle><circle cx="100.51" cy="250.28" r="2.6" fill="#E8835A"></circle><circle cx="107.92" cy="243.38" r="2.6" fill="#E8835A"></circle><circle cx="115.34" cy="241.66" r="2.6" fill="#E8835A"></circle><circle cx="122.76" cy="231.14" r="2.6" fill="#E8835A"></circle><circle cx="137.59" cy="234.04" r="2.6" fill="#E8835A"></circle><circle cx="145.01" cy="244.32" r="2.6" fill="#E8835A"></circle><circle cx="152.43" cy="228.71" r="2.6" fill="#E8835A"></circle><circle cx="159.85" cy="246.08" r="2.6" fill="#E8835A"></circle><circle cx="167.27" cy="242.18" r="2.6" fill="#E8835A"></circle><circle cx="174.68" cy="235.58" r="2.6" fill="#E8835A"></circle><circle cx="182.1" cy="242.32" r="2.6" fill="#E8835A"></circle><circle cx="189.52" cy="244.55" r="2.6" fill="#E8835A"></circle><circle cx="196.94" cy="246.98" r="2.6" fill="#E8835A"></circle><circle cx="204.35" cy="240.71" r="2.6" fill="#E8835A"></circle><circle cx="211.77" cy="250.83" r="2.6" fill="#E8835A"></circle><circle cx="219.19" cy="244.26" r="2.6" fill="#E8835A"></circle><circle cx="226.61" cy="241.33" r="2.6" fill="#E8835A"></circle><circle cx="234.03" cy="245.63" r="2.6" fill="#E8835A"></circle><circle cx="241.44" cy="245.02" r="2.6" fill="#E8835A"></circle><circle cx="248.86" cy="240.82" r="2.6" fill="#E8835A"></circle><circle cx="256.28" cy="243.78" r="2.6" fill="#E8835A"></circle><circle cx="263.7" cy="243.28" r="2.6" fill="#E8835A"></circle><circle cx="271.11" cy="240.2" r="2.6" fill="#E8835A"></circle><circle cx="278.53" cy="242.69" r="2.6" fill="#E8835A"></circle><circle cx="285.95" cy="215.59" r="2.6" fill="#E8835A"></circle><circle cx="293.37" cy="241.79" r="2.6" fill="#E8835A"></circle><circle cx="300.78" cy="238.64" r="2.6" fill="#E8835A"></circle><circle cx="308.2" cy="243.45" r="2.6" fill="#E8835A"></circle><circle cx="315.62" cy="243.86" r="2.6" fill="#E8835A"></circle><circle cx="323.04" cy="234.8" r="2.6" fill="#E8835A"></circle><circle cx="330.46" cy="244.51" r="2.6" fill="#E8835A"></circle><circle cx="337.87" cy="244.64" r="2.6" fill="#E8835A"></circle><polyline fill="none" stroke="#6366F1" stroke-width="2.4" stroke-linejoin="round" stroke-linecap="round" points="63.42,247.24 70.84,242.4 78.25,249.98 85.67,230.48 93.09,260.21 100.51,260.34 107.92,270.44 115.34,248.92 122.76,245.19 130.18,247.83 137.59,256.22 145.01,248.72 152.43,261.47 159.85,243.58 167.27,210.49 174.68,266.33 182.1,232.33 189.52,232.27 196.94,199.16 204.35,237.91 211.77,252.97 219.19,266.11 226.61,215.25 234.03,265.97 241.44,258.25 248.86,265.82 256.28,246.69 263.7,244.53 278.53,240.91 285.95,255.51 293.37,252.51 300.78,237.2 308.2,258.24 315.62,235.84 323.04,252.87 330.46,243.73 337.87,249.01 352.71,263.05 360.13,262.95 367.54,250.85 374.96,238.76 382.38,245.84 389.8,240.49 397.22,244.58 404.63,238.25 412.05,266.43 419.47,219.91 426.89,256.77 441.72,250.11 449.14,264.15 456.56,249.18 463.97,252.64 471.39,236.94 478.81,257.91 486.23,245.05 493.65,245.47 501.06,251.25 508.48,250.75 515.9,249.01 523.32,257.36 530.73,265.15 538.15,253.64 545.57,262.66 552.99,253.56 560.41,247.85 567.82,241.21 575.24,265.06 582.66,257.2 590.08,265.73 597.49,265.31 604.91,250.21 612.33,257.28 619.75,263.83 627.16,234.88 634.58,237.89 642,243.4"></polyline><circle cx="63.42" cy="247.24" r="2.6" fill="#6366F1"></circle><circle cx="70.84" cy="242.4" r="2.6" fill="#6366F1"></circle><circle cx="78.25" cy="249.98" r="2.6" fill="#6366F1"></circle><circle cx="85.67" cy="230.48" r="2.6" fill="#6366F1"></circle><circle cx="93.09" cy="260.21" r="2.6" fill="#6366F1"></circle><circle cx="100.51" cy="260.34" r="2.6" fill="#6366F1"></circle><circle cx="107.92" cy="270.44" r="2.6" fill="#6366F1"></circle><circle cx="115.34" cy="248.92" r="2.6" fill="#6366F1"></circle><circle cx="122.76" cy="245.19" r="2.6" fill="#6366F1"></circle><circle cx="130.18" cy="247.83" r="2.6" fill="#6366F1"></circle><circle cx="137.59" cy="256.22" r="2.6" fill="#6366F1"></circle><circle cx="145.01" cy="248.72" r="2.6" fill="#6366F1"></circle><circle cx="152.43" cy="261.47" r="2.6" fill="#6366F1"></circle><circle cx="159.85" cy="243.58" r="2.6" fill="#6366F1"></circle><circle cx="167.27" cy="210.49" r="2.6" fill="#6366F1"></circle><circle cx="174.68" cy="266.33" r="2.6" fill="#6366F1"></circle><circle cx="182.1" cy="232.33" r="2.6" fill="#6366F1"></circle><circle cx="189.52" cy="232.27" r="2.6" fill="#6366F1"></circle><circle cx="196.94" cy="199.16" r="2.6" fill="#6366F1"></circle><circle cx="204.35" cy="237.91" r="2.6" fill="#6366F1"></circle><circle cx="211.77" cy="252.97" r="2.6" fill="#6366F1"></circle><circle cx="219.19" cy="266.11" r="2.6" fill="#6366F1"></circle><circle cx="226.61" cy="215.25" r="2.6" fill="#6366F1"></circle><circle cx="234.03" cy="265.97" r="2.6" fill="#6366F1"></circle><circle cx="241.44" cy="258.25" r="2.6" fill="#6366F1"></circle><circle cx="248.86" cy="265.82" r="2.6" fill="#6366F1"></circle><circle cx="256.28" cy="246.69" r="2.6" fill="#6366F1"></circle><circle cx="263.7" cy="244.53" r="2.6" fill="#6366F1"></circle><circle cx="278.53" cy="240.91" r="2.6" fill="#6366F1"></circle><circle cx="285.95" cy="255.51" r="2.6" fill="#6366F1"></circle><circle cx="293.37" cy="252.51" r="2.6" fill="#6366F1"></circle><circle cx="300.78" cy="237.2" r="2.6" fill="#6366F1"></circle><circle cx="308.2" cy="258.24" r="2.6" fill="#6366F1"></circle><circle cx="315.62" cy="235.84" r="2.6" fill="#6366F1"></circle><circle cx="323.04" cy="252.87" r="2.6" fill="#6366F1"></circle><circle cx="330.46" cy="243.73" r="2.6" fill="#6366F1"></circle><circle cx="337.87" cy="249.01" r="2.6" fill="#6366F1"></circle><circle cx="352.71" cy="263.05" r="2.6" fill="#6366F1"></circle><circle cx="360.13" cy="262.95" r="2.6" fill="#6366F1"></circle><circle cx="367.54" cy="250.85" r="2.6" fill="#6366F1"></circle><circle cx="374.96" cy="238.76" r="2.6" fill="#6366F1"></circle><circle cx="382.38" cy="245.84" r="2.6" fill="#6366F1"></circle><circle cx="389.8" cy="240.49" r="2.6" fill="#6366F1"></circle><circle cx="397.22" cy="244.58" r="2.6" fill="#6366F1"></circle><circle cx="404.63" cy="238.25" r="2.6" fill="#6366F1"></circle><circle cx="412.05" cy="266.43" r="2.6" fill="#6366F1"></circle><circle cx="419.47" cy="219.91" r="2.6" fill="#6366F1"></circle><circle cx="426.89" cy="256.77" r="2.6" fill="#6366F1"></circle><circle cx="441.72" cy="250.11" r="2.6" fill="#6366F1"></circle><circle cx="449.14" cy="264.15" r="2.6" fill="#6366F1"></circle><circle cx="456.56" cy="249.18" r="2.6" fill="#6366F1"></circle><circle cx="463.97" cy="252.64" r="2.6" fill="#6366F1"></circle><circle cx="471.39" cy="236.94" r="2.6" fill="#6366F1"></circle><circle cx="478.81" cy="257.91" r="2.6" fill="#6366F1"></circle><circle cx="486.23" cy="245.05" r="2.6" fill="#6366F1"></circle><circle cx="493.65" cy="245.47" r="2.6" fill="#6366F1"></circle><circle cx="501.06" cy="251.25" r="2.6" fill="#6366F1"></circle><circle cx="508.48" cy="250.75" r="2.6" fill="#6366F1"></circle><circle cx="515.9" cy="249.01" r="2.6" fill="#6366F1"></circle><circle cx="523.32" cy="257.36" r="2.6" fill="#6366F1"></circle><circle cx="530.73" cy="265.15" r="2.6" fill="#6366F1"></circle><circle cx="538.15" cy="253.64" r="2.6" fill="#6366F1"></circle><circle cx="545.57" cy="262.66" r="2.6" fill="#6366F1"></circle><circle cx="552.99" cy="253.56" r="2.6" fill="#6366F1"></circle><circle cx="560.41" cy="247.85" r="2.6" fill="#6366F1"></circle><circle cx="567.82" cy="241.21" r="2.6" fill="#6366F1"></circle><circle cx="575.24" cy="265.06" r="2.6" fill="#6366F1"></circle><circle cx="582.66" cy="257.2" r="2.6" fill="#6366F1"></circle><circle cx="590.08" cy="265.73" r="2.6" fill="#6366F1"></circle><circle cx="597.49" cy="265.31" r="2.6" fill="#6366F1"></circle><circle cx="604.91" cy="250.21" r="2.6" fill="#6366F1"></circle><circle cx="612.33" cy="257.28" r="2.6" fill="#6366F1"></circle><circle cx="619.75" cy="263.83" r="2.6" fill="#6366F1"></circle><circle cx="627.16" cy="234.88" r="2.6" fill="#6366F1"></circle><circle cx="634.58" cy="237.89" r="2.6" fill="#6366F1"></circle><circle cx="642" cy="243.4" r="2.6" fill="#6366F1"></circle><polyline fill="none" stroke="#2DA98C" stroke-width="2.4" stroke-linejoin="round" stroke-linecap="round" points="56,205.26 63.42,215.39 70.84,174.15 78.25,217.56 85.67,218.68 93.09,227.57 100.51,203.76 107.92,192.14 115.34,215.35 122.76,194.78 130.18,194.92 137.59,141.5 145.01,148.87 152.43,194.84 159.85,180.85 167.27,202.09 174.68,169.08 182.1,211.29 189.52,193.77 196.94,192.04 204.35,206.61 278.53,221.15 285.95,190.23 293.37,183.33 300.78,225.15 308.2,184.37 315.62,182.1 323.04,210.86 330.46,161.53 337.87,210.56 352.71,182.01 360.13,172.32 367.54,181.93 374.96,186.76 382.38,217.59 389.8,171.76 397.22,211.13 404.63,171.55 412.05,181.17 419.47,189.96 426.89,191.02 441.72,212.98 449.14,170.09 456.56,127.97 463.97,222.7 471.39,200.4 478.81,155.75 486.23,184.88 493.65,176.48 501.06,167.89 508.48,205.24 515.9,167.24 523.32,154.57 530.73,196.61 538.15,154.13 545.57,196.6 552.99,203.92 560.41,125.1 567.82,151.41 575.24,176.39 582.66,198.69"></polyline><circle cx="56" cy="205.26" r="2.6" fill="#2DA98C"></circle><circle cx="63.42" cy="215.39" r="2.6" fill="#2DA98C"></circle><circle cx="70.84" cy="174.15" r="2.6" fill="#2DA98C"></circle><circle cx="78.25" cy="217.56" r="2.6" fill="#2DA98C"></circle><circle cx="85.67" cy="218.68" r="2.6" fill="#2DA98C"></circle><circle cx="93.09" cy="227.57" r="2.6" fill="#2DA98C"></circle><circle cx="100.51" cy="203.76" r="2.6" fill="#2DA98C"></circle><circle cx="107.92" cy="192.14" r="2.6" fill="#2DA98C"></circle><circle cx="115.34" cy="215.35" r="2.6" fill="#2DA98C"></circle><circle cx="122.76" cy="194.78" r="2.6" fill="#2DA98C"></circle><circle cx="130.18" cy="194.92" r="2.6" fill="#2DA98C"></circle><circle cx="137.59" cy="141.5" r="2.6" fill="#2DA98C"></circle><circle cx="145.01" cy="148.87" r="2.6" fill="#2DA98C"></circle><circle cx="152.43" cy="194.84" r="2.6" fill="#2DA98C"></circle><circle cx="159.85" cy="180.85" r="2.6" fill="#2DA98C"></circle><circle cx="167.27" cy="202.09" r="2.6" fill="#2DA98C"></circle><circle cx="174.68" cy="169.08" r="2.6" fill="#2DA98C"></circle><circle cx="182.1" cy="211.29" r="2.6" fill="#2DA98C"></circle><circle cx="189.52" cy="193.77" r="2.6" fill="#2DA98C"></circle><circle cx="196.94" cy="192.04" r="2.6" fill="#2DA98C"></circle><circle cx="204.35" cy="206.61" r="2.6" fill="#2DA98C"></circle><circle cx="278.53" cy="221.15" r="2.6" fill="#2DA98C"></circle><circle cx="285.95" cy="190.23" r="2.6" fill="#2DA98C"></circle><circle cx="293.37" cy="183.33" r="2.6" fill="#2DA98C"></circle><circle cx="300.78" cy="225.15" r="2.6" fill="#2DA98C"></circle><circle cx="308.2" cy="184.37" r="2.6" fill="#2DA98C"></circle><circle cx="315.62" cy="182.1" r="2.6" fill="#2DA98C"></circle><circle cx="323.04" cy="210.86" r="2.6" fill="#2DA98C"></circle><circle cx="330.46" cy="161.53" r="2.6" fill="#2DA98C"></circle><circle cx="337.87" cy="210.56" r="2.6" fill="#2DA98C"></circle><circle cx="352.71" cy="182.01" r="2.6" fill="#2DA98C"></circle><circle cx="360.13" cy="172.32" r="2.6" fill="#2DA98C"></circle><circle cx="367.54" cy="181.93" r="2.6" fill="#2DA98C"></circle><circle cx="374.96" cy="186.76" r="2.6" fill="#2DA98C"></circle><circle cx="382.38" cy="217.59" r="2.6" fill="#2DA98C"></circle><circle cx="389.8" cy="171.76" r="2.6" fill="#2DA98C"></circle><circle cx="397.22" cy="211.13" r="2.6" fill="#2DA98C"></circle><circle cx="404.63" cy="171.55" r="2.6" fill="#2DA98C"></circle><circle cx="412.05" cy="181.17" r="2.6" fill="#2DA98C"></circle><circle cx="419.47" cy="189.96" r="2.6" fill="#2DA98C"></circle><circle cx="426.89" cy="191.02" r="2.6" fill="#2DA98C"></circle><circle cx="441.72" cy="212.98" r="2.6" fill="#2DA98C"></circle><circle cx="449.14" cy="170.09" r="2.6" fill="#2DA98C"></circle><circle cx="456.56" cy="127.97" r="2.6" fill="#2DA98C"></circle><circle cx="463.97" cy="222.7" r="2.6" fill="#2DA98C"></circle><circle cx="471.39" cy="200.4" r="2.6" fill="#2DA98C"></circle><circle cx="478.81" cy="155.75" r="2.6" fill="#2DA98C"></circle><circle cx="486.23" cy="184.88" r="2.6" fill="#2DA98C"></circle><circle cx="493.65" cy="176.48" r="2.6" fill="#2DA98C"></circle><circle cx="501.06" cy="167.89" r="2.6" fill="#2DA98C"></circle><circle cx="508.48" cy="205.24" r="2.6" fill="#2DA98C"></circle><circle cx="515.9" cy="167.24" r="2.6" fill="#2DA98C"></circle><circle cx="523.32" cy="154.57" r="2.6" fill="#2DA98C"></circle><circle cx="530.73" cy="196.61" r="2.6" fill="#2DA98C"></circle><circle cx="538.15" cy="154.13" r="2.6" fill="#2DA98C"></circle><circle cx="545.57" cy="196.6" r="2.6" fill="#2DA98C"></circle><circle cx="552.99" cy="203.92" r="2.6" fill="#2DA98C"></circle><circle cx="560.41" cy="125.1" r="2.6" fill="#2DA98C"></circle><circle cx="567.82" cy="151.41" r="2.6" fill="#2DA98C"></circle><circle cx="575.24" cy="176.39" r="2.6" fill="#2DA98C"></circle><circle cx="582.66" cy="198.69" r="2.6" fill="#2DA98C"></circle><polyline fill="none" stroke="#A371F7" stroke-width="2.4" stroke-linejoin="round" stroke-linecap="round" points="56,127.86 63.42,149.85 70.84,181.76 78.25,139.24 85.67,107.36 93.09,219.97 100.51,116.3 107.92,182.89 115.34,193.78 122.76,197.11 130.18,105.85 137.59,146.07 145.01,181.42 152.43,202.88 159.85,134.79 167.27,219.07 174.68,58.83 182.1,197.05 189.52,167.66 196.94,75.26 204.35,128.5 211.77,152.23 219.19,166.9 226.61,183.57 234.03,162.79 241.44,148.18 248.86,52.43 256.28,96.59 263.7,191.76 278.53,151.86 285.95,169.19 293.37,135.22 308.2,206.77 315.62,167.88 323.04,189.32 330.46,143.76 337.87,142.49 345.29,163.7 352.71,128.52 360.13,144.9 367.54,92.3 374.96,157.36 382.38,160.21 389.8,176.32 397.22,116.21 404.63,165.98 412.05,136.47 426.89,155.12 441.72,134.62 456.56,114.6 463.97,127.72 471.39,219.84 478.81,170.06 486.23,154.88 493.65,189.66 501.06,162.21 508.48,183.03 515.9,165.52 523.32,176.75 530.73,155.74 545.57,148.44 552.99,196.35 560.41,143.94 567.82,112.27 575.24,149.32 582.66,161.5 590.08,199.8 597.49,197.27 604.91,116.93 612.33,119.32 619.75,194.29 627.16,111.88 634.58,156.63"></polyline><circle cx="56" cy="127.86" r="2.6" fill="#A371F7"></circle><circle cx="63.42" cy="149.85" r="2.6" fill="#A371F7"></circle><circle cx="70.84" cy="181.76" r="2.6" fill="#A371F7"></circle><circle cx="78.25" cy="139.24" r="2.6" fill="#A371F7"></circle><circle cx="85.67" cy="107.36" r="2.6" fill="#A371F7"></circle><circle cx="93.09" cy="219.97" r="2.6" fill="#A371F7"></circle><circle cx="100.51" cy="116.3" r="2.6" fill="#A371F7"></circle><circle cx="107.92" cy="182.89" r="2.6" fill="#A371F7"></circle><circle cx="115.34" cy="193.78" r="2.6" fill="#A371F7"></circle><circle cx="122.76" cy="197.11" r="2.6" fill="#A371F7"></circle><circle cx="130.18" cy="105.85" r="2.6" fill="#A371F7"></circle><circle cx="137.59" cy="146.07" r="2.6" fill="#A371F7"></circle><circle cx="145.01" cy="181.42" r="2.6" fill="#A371F7"></circle><circle cx="152.43" cy="202.88" r="2.6" fill="#A371F7"></circle><circle cx="159.85" cy="134.79" r="2.6" fill="#A371F7"></circle><circle cx="167.27" cy="219.07" r="2.6" fill="#A371F7"></circle><circle cx="174.68" cy="58.83" r="2.6" fill="#A371F7"></circle><circle cx="182.1" cy="197.05" r="2.6" fill="#A371F7"></circle><circle cx="189.52" cy="167.66" r="2.6" fill="#A371F7"></circle><circle cx="196.94" cy="75.26" r="2.6" fill="#A371F7"></circle><circle cx="204.35" cy="128.5" r="2.6" fill="#A371F7"></circle><circle cx="211.77" cy="152.23" r="2.6" fill="#A371F7"></circle><circle cx="219.19" cy="166.9" r="2.6" fill="#A371F7"></circle><circle cx="226.61" cy="183.57" r="2.6" fill="#A371F7"></circle><circle cx="234.03" cy="162.79" r="2.6" fill="#A371F7"></circle><circle cx="241.44" cy="148.18" r="2.6" fill="#A371F7"></circle><circle cx="248.86" cy="52.43" r="2.6" fill="#A371F7"></circle><circle cx="256.28" cy="96.59" r="2.6" fill="#A371F7"></circle><circle cx="263.7" cy="191.76" r="2.6" fill="#A371F7"></circle><circle cx="278.53" cy="151.86" r="2.6" fill="#A371F7"></circle><circle cx="285.95" cy="169.19" r="2.6" fill="#A371F7"></circle><circle cx="293.37" cy="135.22" r="2.6" fill="#A371F7"></circle><circle cx="308.2" cy="206.77" r="2.6" fill="#A371F7"></circle><circle cx="315.62" cy="167.88" r="2.6" fill="#A371F7"></circle><circle cx="323.04" cy="189.32" r="2.6" fill="#A371F7"></circle><circle cx="330.46" cy="143.76" r="2.6" fill="#A371F7"></circle><circle cx="337.87" cy="142.49" r="2.6" fill="#A371F7"></circle><circle cx="345.29" cy="163.7" r="2.6" fill="#A371F7"></circle><circle cx="352.71" cy="128.52" r="2.6" fill="#A371F7"></circle><circle cx="360.13" cy="144.9" r="2.6" fill="#A371F7"></circle><circle cx="367.54" cy="92.3" r="2.6" fill="#A371F7"></circle><circle cx="374.96" cy="157.36" r="2.6" fill="#A371F7"></circle><circle cx="382.38" cy="160.21" r="2.6" fill="#A371F7"></circle><circle cx="389.8" cy="176.32" r="2.6" fill="#A371F7"></circle><circle cx="397.22" cy="116.21" r="2.6" fill="#A371F7"></circle><circle cx="404.63" cy="165.98" r="2.6" fill="#A371F7"></circle><circle cx="412.05" cy="136.47" r="2.6" fill="#A371F7"></circle><circle cx="426.89" cy="155.12" r="2.6" fill="#A371F7"></circle><circle cx="441.72" cy="134.62" r="2.6" fill="#A371F7"></circle><circle cx="456.56" cy="114.6" r="2.6" fill="#A371F7"></circle><circle cx="463.97" cy="127.72" r="2.6" fill="#A371F7"></circle><circle cx="471.39" cy="219.84" r="2.6" fill="#A371F7"></circle><circle cx="478.81" cy="170.06" r="2.6" fill="#A371F7"></circle><circle cx="486.23" cy="154.88" r="2.6" fill="#A371F7"></circle><circle cx="493.65" cy="189.66" r="2.6" fill="#A371F7"></circle><circle cx="501.06" cy="162.21" r="2.6" fill="#A371F7"></circle><circle cx="508.48" cy="183.03" r="2.6" fill="#A371F7"></circle><circle cx="515.9" cy="165.52" r="2.6" fill="#A371F7"></circle><circle cx="523.32" cy="176.75" r="2.6" fill="#A371F7"></circle><circle cx="530.73" cy="155.74" r="2.6" fill="#A371F7"></circle><circle cx="545.57" cy="148.44" r="2.6" fill="#A371F7"></circle><circle cx="552.99" cy="196.35" r="2.6" fill="#A371F7"></circle><circle cx="560.41" cy="143.94" r="2.6" fill="#A371F7"></circle><circle cx="567.82" cy="112.27" r="2.6" fill="#A371F7"></circle><circle cx="575.24" cy="149.32" r="2.6" fill="#A371F7"></circle><circle cx="582.66" cy="161.5" r="2.6" fill="#A371F7"></circle><circle cx="590.08" cy="199.8" r="2.6" fill="#A371F7"></circle><circle cx="597.49" cy="197.27" r="2.6" fill="#A371F7"></circle><circle cx="604.91" cy="116.93" r="2.6" fill="#A371F7"></circle><circle cx="612.33" cy="119.32" r="2.6" fill="#A371F7"></circle><circle cx="619.75" cy="194.29" r="2.6" fill="#A371F7"></circle><circle cx="627.16" cy="111.88" r="2.6" fill="#A371F7"></circle><circle cx="634.58" cy="156.63" r="2.6" fill="#A371F7"></circle><polyline fill="none" stroke="#F0A23B" stroke-width="2.4" stroke-linejoin="round" stroke-linecap="round" points="56,170.6 63.42,150.62 70.84,187.27 78.25,153.33 85.67,137.4 93.09,187.39 100.51,202.98 107.92,219.57 115.34,187.3 122.76,163.64 130.18,218.54 137.59,247.9 145.01,222.75 152.43,249.71 159.85,224.7 167.27,243.69 174.68,245.81 182.1,211.84 189.52,236.21 196.94,257.78 204.35,248.63 211.77,234.2 219.19,247.57 226.61,243.66 234.03,258.59 241.44,253.94 248.86,235.44 256.28,209.7 263.7,229.87 271.11,229.74 278.53,242.74 285.95,219.28 293.37,218.69 300.78,248.17 308.2,252.02 315.62,241.64 323.04,202.83 330.46,191.16 337.87,236.21 345.29,247.47 352.71,237.91 360.13,227.46 367.54,241.35 374.96,249.73 382.38,234.66 389.8,250 397.22,253.94 404.63,252.42 412.05,245.42 419.47,237.98 426.89,238.85 441.72,257.8 449.14,233.33 456.56,238.96 463.97,252.16 471.39,246.34 478.81,221.3 486.23,228.03 493.65,249.57 501.06,236.95 508.48,243.86 515.9,246.88 523.32,238.45 530.73,247.92 545.57,235.92 552.99,214.9 560.41,201.77 567.82,219.97 575.24,238.65 582.66,232.47 590.08,220.62 597.49,227.53 604.91,228.6 612.33,243.21 619.75,241.59 627.16,193.22 634.58,249"></polyline><circle cx="56" cy="170.6" r="2.6" fill="#F0A23B"></circle><circle cx="63.42" cy="150.62" r="2.6" fill="#F0A23B"></circle><circle cx="70.84" cy="187.27" r="2.6" fill="#F0A23B"></circle><circle cx="78.25" cy="153.33" r="2.6" fill="#F0A23B"></circle><circle cx="85.67" cy="137.4" r="2.6" fill="#F0A23B"></circle><circle cx="93.09" cy="187.39" r="2.6" fill="#F0A23B"></circle><circle cx="100.51" cy="202.98" r="2.6" fill="#F0A23B"></circle><circle cx="107.92" cy="219.57" r="2.6" fill="#F0A23B"></circle><circle cx="115.34" cy="187.3" r="2.6" fill="#F0A23B"></circle><circle cx="122.76" cy="163.64" r="2.6" fill="#F0A23B"></circle><circle cx="130.18" cy="218.54" r="2.6" fill="#F0A23B"></circle><circle cx="137.59" cy="247.9" r="2.6" fill="#F0A23B"></circle><circle cx="145.01" cy="222.75" r="2.6" fill="#F0A23B"></circle><circle cx="152.43" cy="249.71" r="2.6" fill="#F0A23B"></circle><circle cx="159.85" cy="224.7" r="2.6" fill="#F0A23B"></circle><circle cx="167.27" cy="243.69" r="2.6" fill="#F0A23B"></circle><circle cx="174.68" cy="245.81" r="2.6" fill="#F0A23B"></circle><circle cx="182.1" cy="211.84" r="2.6" fill="#F0A23B"></circle><circle cx="189.52" cy="236.21" r="2.6" fill="#F0A23B"></circle><circle cx="196.94" cy="257.78" r="2.6" fill="#F0A23B"></circle><circle cx="204.35" cy="248.63" r="2.6" fill="#F0A23B"></circle><circle cx="211.77" cy="234.2" r="2.6" fill="#F0A23B"></circle><circle cx="219.19" cy="247.57" r="2.6" fill="#F0A23B"></circle><circle cx="226.61" cy="243.66" r="2.6" fill="#F0A23B"></circle><circle cx="234.03" cy="258.59" r="2.6" fill="#F0A23B"></circle><circle cx="241.44" cy="253.94" r="2.6" fill="#F0A23B"></circle><circle cx="248.86" cy="235.44" r="2.6" fill="#F0A23B"></circle><circle cx="256.28" cy="209.7" r="2.6" fill="#F0A23B"></circle><circle cx="263.7" cy="229.87" r="2.6" fill="#F0A23B"></circle><circle cx="271.11" cy="229.74" r="2.6" fill="#F0A23B"></circle><circle cx="278.53" cy="242.74" r="2.6" fill="#F0A23B"></circle><circle cx="285.95" cy="219.28" r="2.6" fill="#F0A23B"></circle><circle cx="293.37" cy="218.69" r="2.6" fill="#F0A23B"></circle><circle cx="300.78" cy="248.17" r="2.6" fill="#F0A23B"></circle><circle cx="308.2" cy="252.02" r="2.6" fill="#F0A23B"></circle><circle cx="315.62" cy="241.64" r="2.6" fill="#F0A23B"></circle><circle cx="323.04" cy="202.83" r="2.6" fill="#F0A23B"></circle><circle cx="330.46" cy="191.16" r="2.6" fill="#F0A23B"></circle><circle cx="337.87" cy="236.21" r="2.6" fill="#F0A23B"></circle><circle cx="345.29" cy="247.47" r="2.6" fill="#F0A23B"></circle><circle cx="352.71" cy="237.91" r="2.6" fill="#F0A23B"></circle><circle cx="360.13" cy="227.46" r="2.6" fill="#F0A23B"></circle><circle cx="367.54" cy="241.35" r="2.6" fill="#F0A23B"></circle><circle cx="374.96" cy="249.73" r="2.6" fill="#F0A23B"></circle><circle cx="382.38" cy="234.66" r="2.6" fill="#F0A23B"></circle><circle cx="389.8" cy="250" r="2.6" fill="#F0A23B"></circle><circle cx="397.22" cy="253.94" r="2.6" fill="#F0A23B"></circle><circle cx="404.63" cy="252.42" r="2.6" fill="#F0A23B"></circle><circle cx="412.05" cy="245.42" r="2.6" fill="#F0A23B"></circle><circle cx="419.47" cy="237.98" r="2.6" fill="#F0A23B"></circle><circle cx="426.89" cy="238.85" r="2.6" fill="#F0A23B"></circle><circle cx="441.72" cy="257.8" r="2.6" fill="#F0A23B"></circle><circle cx="449.14" cy="233.33" r="2.6" fill="#F0A23B"></circle><circle cx="456.56" cy="238.96" r="2.6" fill="#F0A23B"></circle><circle cx="463.97" cy="252.16" r="2.6" fill="#F0A23B"></circle><circle cx="471.39" cy="246.34" r="2.6" fill="#F0A23B"></circle><circle cx="478.81" cy="221.3" r="2.6" fill="#F0A23B"></circle><circle cx="486.23" cy="228.03" r="2.6" fill="#F0A23B"></circle><circle cx="493.65" cy="249.57" r="2.6" fill="#F0A23B"></circle><circle cx="501.06" cy="236.95" r="2.6" fill="#F0A23B"></circle><circle cx="508.48" cy="243.86" r="2.6" fill="#F0A23B"></circle><circle cx="515.9" cy="246.88" r="2.6" fill="#F0A23B"></circle><circle cx="523.32" cy="238.45" r="2.6" fill="#F0A23B"></circle><circle cx="530.73" cy="247.92" r="2.6" fill="#F0A23B"></circle><circle cx="545.57" cy="235.92" r="2.6" fill="#F0A23B"></circle><circle cx="552.99" cy="214.9" r="2.6" fill="#F0A23B"></circle><circle cx="560.41" cy="201.77" r="2.6" fill="#F0A23B"></circle><circle cx="567.82" cy="219.97" r="2.6" fill="#F0A23B"></circle><circle cx="575.24" cy="238.65" r="2.6" fill="#F0A23B"></circle><circle cx="582.66" cy="232.47" r="2.6" fill="#F0A23B"></circle><circle cx="590.08" cy="220.62" r="2.6" fill="#F0A23B"></circle><circle cx="597.49" cy="227.53" r="2.6" fill="#F0A23B"></circle><circle cx="604.91" cy="228.6" r="2.6" fill="#F0A23B"></circle><circle cx="612.33" cy="243.21" r="2.6" fill="#F0A23B"></circle><circle cx="619.75" cy="241.59" r="2.6" fill="#F0A23B"></circle><circle cx="627.16" cy="193.22" r="2.6" fill="#F0A23B"></circle><circle cx="634.58" cy="249" r="2.6" fill="#F0A23B"></circle><polyline fill="none" stroke="#1F9CF0" stroke-width="2.4" stroke-linejoin="round" stroke-linecap="round" points="56,198.31 63.42,224.59 70.84,214.73 78.25,247.97 85.67,236.75 93.09,219.64 100.51,238.79 107.92,207.95 115.34,201.38 122.76,239.3 130.18,242.33 137.59,177.25 145.01,218.95 152.43,232.82 159.85,248.48 167.27,252.97 174.68,230.93 182.1,242.47 189.52,240.12 196.94,248.48 204.35,256.65 211.77,261.44 219.19,262.41 226.61,264.75 234.03,261.4 241.44,262.76 248.86,244.65 256.28,230.98 263.7,234.56 271.11,260.01 278.53,254.76 285.95,238.53 293.37,231.76 300.78,226.22 308.2,247.36 315.62,238.78 323.04,250.58 330.46,256.4 337.87,243.61 345.29,265.98 352.71,253.29 360.13,225.25 367.54,246.45 374.96,252.36 382.38,241.14 389.8,253.3 397.22,245.06 404.63,205.73 412.05,260.99 419.47,265.11 426.89,263.66 434.3,270.45 441.72,265.53 449.14,248.25 456.56,259.3 463.97,255.01 523.32,259.54 530.73,255.12 538.15,241.05 545.57,228.97 552.99,234.99 560.41,233 567.82,242.76 575.24,238.49 582.66,251.01 590.08,203.87 597.49,219.17 604.91,100.57 612.33,239.75 619.75,232.97 627.16,241.63 634.58,251.46 642,254.09"></polyline><circle cx="56" cy="198.31" r="2.6" fill="#1F9CF0"></circle><circle cx="63.42" cy="224.59" r="2.6" fill="#1F9CF0"></circle><circle cx="70.84" cy="214.73" r="2.6" fill="#1F9CF0"></circle><circle cx="78.25" cy="247.97" r="2.6" fill="#1F9CF0"></circle><circle cx="85.67" cy="236.75" r="2.6" fill="#1F9CF0"></circle><circle cx="93.09" cy="219.64" r="2.6" fill="#1F9CF0"></circle><circle cx="100.51" cy="238.79" r="2.6" fill="#1F9CF0"></circle><circle cx="107.92" cy="207.95" r="2.6" fill="#1F9CF0"></circle><circle cx="115.34" cy="201.38" r="2.6" fill="#1F9CF0"></circle><circle cx="122.76" cy="239.3" r="2.6" fill="#1F9CF0"></circle><circle cx="130.18" cy="242.33" r="2.6" fill="#1F9CF0"></circle><circle cx="137.59" cy="177.25" r="2.6" fill="#1F9CF0"></circle><circle cx="145.01" cy="218.95" r="2.6" fill="#1F9CF0"></circle><circle cx="152.43" cy="232.82" r="2.6" fill="#1F9CF0"></circle><circle cx="159.85" cy="248.48" r="2.6" fill="#1F9CF0"></circle><circle cx="167.27" cy="252.97" r="2.6" fill="#1F9CF0"></circle><circle cx="174.68" cy="230.93" r="2.6" fill="#1F9CF0"></circle><circle cx="182.1" cy="242.47" r="2.6" fill="#1F9CF0"></circle><circle cx="189.52" cy="240.12" r="2.6" fill="#1F9CF0"></circle><circle cx="196.94" cy="248.48" r="2.6" fill="#1F9CF0"></circle><circle cx="204.35" cy="256.65" r="2.6" fill="#1F9CF0"></circle><circle cx="211.77" cy="261.44" r="2.6" fill="#1F9CF0"></circle><circle cx="219.19" cy="262.41" r="2.6" fill="#1F9CF0"></circle><circle cx="226.61" cy="264.75" r="2.6" fill="#1F9CF0"></circle><circle cx="234.03" cy="261.4" r="2.6" fill="#1F9CF0"></circle><circle cx="241.44" cy="262.76" r="2.6" fill="#1F9CF0"></circle><circle cx="248.86" cy="244.65" r="2.6" fill="#1F9CF0"></circle><circle cx="256.28" cy="230.98" r="2.6" fill="#1F9CF0"></circle><circle cx="263.7" cy="234.56" r="2.6" fill="#1F9CF0"></circle><circle cx="271.11" cy="260.01" r="2.6" fill="#1F9CF0"></circle><circle cx="278.53" cy="254.76" r="2.6" fill="#1F9CF0"></circle><circle cx="285.95" cy="238.53" r="2.6" fill="#1F9CF0"></circle><circle cx="293.37" cy="231.76" r="2.6" fill="#1F9CF0"></circle><circle cx="300.78" cy="226.22" r="2.6" fill="#1F9CF0"></circle><circle cx="308.2" cy="247.36" r="2.6" fill="#1F9CF0"></circle><circle cx="315.62" cy="238.78" r="2.6" fill="#1F9CF0"></circle><circle cx="323.04" cy="250.58" r="2.6" fill="#1F9CF0"></circle><circle cx="330.46" cy="256.4" r="2.6" fill="#1F9CF0"></circle><circle cx="337.87" cy="243.61" r="2.6" fill="#1F9CF0"></circle><circle cx="345.29" cy="265.98" r="2.6" fill="#1F9CF0"></circle><circle cx="352.71" cy="253.29" r="2.6" fill="#1F9CF0"></circle><circle cx="360.13" cy="225.25" r="2.6" fill="#1F9CF0"></circle><circle cx="367.54" cy="246.45" r="2.6" fill="#1F9CF0"></circle><circle cx="374.96" cy="252.36" r="2.6" fill="#1F9CF0"></circle><circle cx="382.38" cy="241.14" r="2.6" fill="#1F9CF0"></circle><circle cx="389.8" cy="253.3" r="2.6" fill="#1F9CF0"></circle><circle cx="397.22" cy="245.06" r="2.6" fill="#1F9CF0"></circle><circle cx="404.63" cy="205.73" r="2.6" fill="#1F9CF0"></circle><circle cx="412.05" cy="260.99" r="2.6" fill="#1F9CF0"></circle><circle cx="419.47" cy="265.11" r="2.6" fill="#1F9CF0"></circle><circle cx="426.89" cy="263.66" r="2.6" fill="#1F9CF0"></circle><circle cx="434.3" cy="270.45" r="2.6" fill="#1F9CF0"></circle><circle cx="441.72" cy="265.53" r="2.6" fill="#1F9CF0"></circle><circle cx="449.14" cy="248.25" r="2.6" fill="#1F9CF0"></circle><circle cx="456.56" cy="259.3" r="2.6" fill="#1F9CF0"></circle><circle cx="463.97" cy="255.01" r="2.6" fill="#1F9CF0"></circle><circle cx="523.32" cy="259.54" r="2.6" fill="#1F9CF0"></circle><circle cx="530.73" cy="255.12" r="2.6" fill="#1F9CF0"></circle><circle cx="538.15" cy="241.05" r="2.6" fill="#1F9CF0"></circle><circle cx="545.57" cy="228.97" r="2.6" fill="#1F9CF0"></circle><circle cx="552.99" cy="234.99" r="2.6" fill="#1F9CF0"></circle><circle cx="560.41" cy="233" r="2.6" fill="#1F9CF0"></circle><circle cx="567.82" cy="242.76" r="2.6" fill="#1F9CF0"></circle><circle cx="575.24" cy="238.49" r="2.6" fill="#1F9CF0"></circle><circle cx="582.66" cy="251.01" r="2.6" fill="#1F9CF0"></circle><circle cx="590.08" cy="203.87" r="2.6" fill="#1F9CF0"></circle><circle cx="597.49" cy="219.17" r="2.6" fill="#1F9CF0"></circle><circle cx="604.91" cy="100.57" r="2.6" fill="#1F9CF0"></circle><circle cx="612.33" cy="239.75" r="2.6" fill="#1F9CF0"></circle><circle cx="619.75" cy="232.97" r="2.6" fill="#1F9CF0"></circle><circle cx="627.16" cy="241.63" r="2.6" fill="#1F9CF0"></circle><circle cx="634.58" cy="251.46" r="2.6" fill="#1F9CF0"></circle><circle cx="642" cy="254.09" r="2.6" fill="#1F9CF0"></circle><line x1="656" y1="27" x2="672" y2="27" stroke="#E8835A" stroke-width="3" stroke-linecap="round"></line><text x="678" y="30" font-size="11" font-weight="400" text-anchor="start" fill="#1f2328">anthropic</text><line x1="656" y1="47" x2="672" y2="47" stroke="#6366F1" stroke-width="3" stroke-linecap="round"></line><text x="678" y="50" font-size="11" font-weight="400" text-anchor="start" fill="#1f2328">deepseek</text><line x1="656" y1="67" x2="672" y2="67" stroke="#2DA98C" stroke-width="3" stroke-linecap="round"></line><text x="678" y="70" font-size="11" font-weight="400" text-anchor="start" fill="#1f2328">gemini</text><line x1="656" y1="87" x2="672" y2="87" stroke="#A371F7" stroke-width="3" stroke-linecap="round"></line><text x="678" y="90" font-size="11" font-weight="400" text-anchor="start" fill="#1f2328">llama</text><line x1="656" y1="107" x2="672" y2="107" stroke="#F0A23B" stroke-width="3" stroke-linecap="round"></line><text x="678" y="110" font-size="11" font-weight="400" text-anchor="start" fill="#1f2328">mistral</text><line x1="656" y1="127" x2="672" y2="127" stroke="#1F9CF0" stroke-width="3" stroke-linecap="round"></line><text x="678" y="130" font-size="11" font-weight="400" text-anchor="start" fill="#1f2328">openai</text></svg>
