<svg xmlns="http://www.w3.org/2000/svg" viewBox="0 0 760 348" width="760" height="348" role="img" aria-label="Average LLM latency by provider over runs — llama highest, deepseek lowest" font-family="-apple-system,BlinkMacSystemFont,'Segoe UI',system-ui,sans-serif"><line x1="56" y1="306" x2="642" y2="306" stroke="#30363d" stroke-width="1"></line><text x="46" y="310" font-size="9.5" font-weight="400" text-anchor="end" fill="#8b949e" font-family="ui-monospace,SFMono-Regular,Menlo,monospace">0.0s</text><line x1="56" y1="235" x2="642" y2="235" stroke="#30363d" stroke-width="1"></line><text x="46" y="239" font-size="9.5" font-weight="400" text-anchor="end" fill="#8b949e" font-family="ui-monospace,SFMono-Regular,Menlo,monospace">82.5s</text><line x1="56" y1="164" x2="642" y2="164" stroke="#30363d" stroke-width="1"></line><text x="46" y="168" font-size="9.5" font-weight="400" text-anchor="end" fill="#8b949e" font-family="ui-monospace,SFMono-Regular,Menlo,monospace">165.1s</text><line x1="56" y1="93" x2="642" y2="93" stroke="#30363d" stroke-width="1"></line><text x="46" y="97" font-size="9.5" font-weight="400" text-anchor="end" fill="#8b949e" font-family="ui-monospace,SFMono-Regular,Menlo,monospace">247.6s</text><line x1="56" y1="22" x2="642" y2="22" stroke="#30363d" stroke-width="1"></line><text x="46" y="26" font-size="9.5" font-weight="400" text-anchor="end" fill="#8b949e" font-family="ui-monospace,SFMono-Regular,Menlo,monospace">330.2s</text><text x="56" y="324" font-size="9.5" font-weight="400" text-anchor="middle" fill="#8b949e" font-family="ui-monospace,SFMono-Regular,Menlo,monospace">06/08</text><text x="112.35" y="324" font-size="9.5" font-weight="400" text-anchor="middle" fill="#8b949e" font-family="ui-monospace,SFMono-Regular,Menlo,monospace">06/08</text><text x="168.69" y="324" font-size="9.5" font-weight="400" text-anchor="middle" fill="#8b949e" font-family="ui-monospace,SFMono-Regular,Menlo,monospace">06/09</text><text x="225.04" y="324" font-size="9.5" font-weight="400" text-anchor="middle" fill="#8b949e" font-family="ui-monospace,SFMono-Regular,Menlo,monospace">06/12</text><text x="281.38" y="324" font-size="9.5" font-weight="400" text-anchor="middle" fill="#8b949e" font-family="ui-monospace,SFMono-Regular,Menlo,monospace">06/13</text><text x="337.73" y="324" font-size="9.5" font-weight="400" text-anchor="middle" fill="#8b949e" font-family="ui-monospace,SFMono-Regular,Menlo,monospace">06/14</text><text x="394.08" y="324" font-size="9.5" font-weight="400" text-anchor="middle" fill="#8b949e" font-family="ui-monospace,SFMono-Regular,Menlo,monospace">06/15</text><text x="450.42" y="324" font-size="9.5" font-weight="400" text-anchor="middle" fill="#8b949e" font-family="ui-monospace,SFMono-Regular,Menlo,monospace">06/16</text><text x="506.77" y="324" font-size="9.5" font-weight="400" text-anchor="middle" fill="#8b949e" font-family="ui-monospace,SFMono-Regular,Menlo,monospace">06/17</text><text x="563.12" y="324" font-size="9.5" font-weight="400" text-anchor="middle" fill="#8b949e" font-family="ui-monospace,SFMono-Regular,Menlo,monospace">06/19</text><text x="619.46" y="324" font-size="9.5" font-weight="400" text-anchor="middle" fill="#8b949e" font-family="ui-monospace,SFMono-Regular,Menlo,monospace">06/20</text><text x="642" y="324" font-size="9.5" font-weight="400" text-anchor="middle" fill="#8b949e" font-family="ui-monospace,SFMono-Regular,Menlo,monospace">06/21</text><polyline fill="none" stroke="#E8835A" stroke-width="2.4" stroke-linejoin="round" stroke-linecap="round" points="56,229.15 67.27,232.31 78.54,238.94 89.81,244 101.08,235.49 112.35,232.81 123.62,250.28 134.88,243.38 146.15,241.66 157.42,231.14 179.96,234.04 191.23,244.32 202.5,228.71 213.77,246.08 225.04,242.18 236.31,235.58 247.58,242.32 258.85,244.55 270.12,246.98 281.38,240.71 292.65,250.83 303.92,244.26 315.19,241.33 326.46,245.63 337.73,245.02 349,240.82 360.27,243.78 371.54,243.28 382.81,240.2 394.08,242.69 405.35,215.59 416.62,241.79 427.88,238.64 439.15,243.45 450.42,243.86 461.69,234.8 472.96,244.51 484.23,244.64"></polyline><circle cx="56" cy="229.15" r="2.6" fill="#E8835A"></circle><circle cx="67.27" cy="232.31" r="2.6" fill="#E8835A"></circle><circle cx="78.54" cy="238.94" r="2.6" fill="#E8835A"></circle><circle cx="89.81" cy="244" r="2.6" fill="#E8835A"></circle><circle cx="101.08" cy="235.49" r="2.6" fill="#E8835A"></circle><circle cx="112.35" cy="232.81" r="2.6" fill="#E8835A"></circle><circle cx="123.62" cy="250.28" r="2.6" fill="#E8835A"></circle><circle cx="134.88" cy="243.38" r="2.6" fill="#E8835A"></circle><circle cx="146.15" cy="241.66" r="2.6" fill="#E8835A"></circle><circle cx="157.42" cy="231.14" r="2.6" fill="#E8835A"></circle><circle cx="179.96" cy="234.04" r="2.6" fill="#E8835A"></circle><circle cx="191.23" cy="244.32" r="2.6" fill="#E8835A"></circle><circle cx="202.5" cy="228.71" r="2.6" fill="#E8835A"></circle><circle cx="213.77" cy="246.08" r="2.6" fill="#E8835A"></circle><circle cx="225.04" cy="242.18" r="2.6" fill="#E8835A"></circle><circle cx="236.31" cy="235.58" r="2.6" fill="#E8835A"></circle><circle cx="247.58" cy="242.32" r="2.6" fill="#E8835A"></circle><circle cx="258.85" cy="244.55" r="2.6" fill="#E8835A"></circle><circle cx="270.12" cy="246.98" r="2.6" fill="#E8835A"></circle><circle cx="281.38" cy="240.71" r="2.6" fill="#E8835A"></circle><circle cx="292.65" cy="250.83" r="2.6" fill="#E8835A"></circle><circle cx="303.92" cy="244.26" r="2.6" fill="#E8835A"></circle><circle cx="315.19" cy="241.33" r="2.6" fill="#E8835A"></circle><circle cx="326.46" cy="245.63" r="2.6" fill="#E8835A"></circle><circle cx="337.73" cy="245.02" r="2.6" fill="#E8835A"></circle><circle cx="349" cy="240.82" r="2.6" fill="#E8835A"></circle><circle cx="360.27" cy="243.78" r="2.6" fill="#E8835A"></circle><circle cx="371.54" cy="243.28" r="2.6" fill="#E8835A"></circle><circle cx="382.81" cy="240.2" r="2.6" fill="#E8835A"></circle><circle cx="394.08" cy="242.69" r="2.6" fill="#E8835A"></circle><circle cx="405.35" cy="215.59" r="2.6" fill="#E8835A"></circle><circle cx="416.62" cy="241.79" r="2.6" fill="#E8835A"></circle><circle cx="427.88" cy="238.64" r="2.6" fill="#E8835A"></circle><circle cx="439.15" cy="243.45" r="2.6" fill="#E8835A"></circle><circle cx="450.42" cy="243.86" r="2.6" fill="#E8835A"></circle><circle cx="461.69" cy="234.8" r="2.6" fill="#E8835A"></circle><circle cx="472.96" cy="244.51" r="2.6" fill="#E8835A"></circle><circle cx="484.23" cy="244.64" r="2.6" fill="#E8835A"></circle><polyline fill="none" stroke="#6366F1" stroke-width="2.4" stroke-linejoin="round" stroke-linecap="round" points="67.27,247.24 78.54,242.4 89.81,249.98 101.08,230.48 112.35,260.21 123.62,260.34 134.88,270.44 146.15,248.92 157.42,245.19 168.69,247.83 179.96,256.22 191.23,248.72 202.5,261.47 213.77,243.58 225.04,210.49 236.31,266.33 247.58,232.33 258.85,232.27 270.12,199.16 281.38,237.91 292.65,252.97 303.92,266.11 315.19,215.25 326.46,265.97 337.73,258.25 349,265.82 360.27,246.69 371.54,244.53 394.08,240.91 405.35,255.51 416.62,252.51 427.88,237.2 439.15,258.24 450.42,235.84 461.69,252.87 472.96,243.73 484.23,249.01 506.77,263.05 518.04,262.95 529.31,250.85 540.58,238.76 551.85,245.84 563.12,240.49 574.38,244.58 585.65,238.25 596.92,266.43 608.19,219.91 619.46,256.77 642,250.11"></polyline><circle cx="67.27" cy="247.24" r="2.6" fill="#6366F1"></circle><circle cx="78.54" cy="242.4" r="2.6" fill="#6366F1"></circle><circle cx="89.81" cy="249.98" r="2.6" fill="#6366F1"></circle><circle cx="101.08" cy="230.48" r="2.6" fill="#6366F1"></circle><circle cx="112.35" cy="260.21" r="2.6" fill="#6366F1"></circle><circle cx="123.62" cy="260.34" r="2.6" fill="#6366F1"></circle><circle cx="134.88" cy="270.44" r="2.6" fill="#6366F1"></circle><circle cx="146.15" cy="248.92" r="2.6" fill="#6366F1"></circle><circle cx="157.42" cy="245.19" r="2.6" fill="#6366F1"></circle><circle cx="168.69" cy="247.83" r="2.6" fill="#6366F1"></circle><circle cx="179.96" cy="256.22" r="2.6" fill="#6366F1"></circle><circle cx="191.23" cy="248.72" r="2.6" fill="#6366F1"></circle><circle cx="202.5" cy="261.47" r="2.6" fill="#6366F1"></circle><circle cx="213.77" cy="243.58" r="2.6" fill="#6366F1"></circle><circle cx="225.04" cy="210.49" r="2.6" fill="#6366F1"></circle><circle cx="236.31" cy="266.33" r="2.6" fill="#6366F1"></circle><circle cx="247.58" cy="232.33" r="2.6" fill="#6366F1"></circle><circle cx="258.85" cy="232.27" r="2.6" fill="#6366F1"></circle><circle cx="270.12" cy="199.16" r="2.6" fill="#6366F1"></circle><circle cx="281.38" cy="237.91" r="2.6" fill="#6366F1"></circle><circle cx="292.65" cy="252.97" r="2.6" fill="#6366F1"></circle><circle cx="303.92" cy="266.11" r="2.6" fill="#6366F1"></circle><circle cx="315.19" cy="215.25" r="2.6" fill="#6366F1"></circle><circle cx="326.46" cy="265.97" r="2.6" fill="#6366F1"></circle><circle cx="337.73" cy="258.25" r="2.6" fill="#6366F1"></circle><circle cx="349" cy="265.82" r="2.6" fill="#6366F1"></circle><circle cx="360.27" cy="246.69" r="2.6" fill="#6366F1"></circle><circle cx="371.54" cy="244.53" r="2.6" fill="#6366F1"></circle><circle cx="394.08" cy="240.91" r="2.6" fill="#6366F1"></circle><circle cx="405.35" cy="255.51" r="2.6" fill="#6366F1"></circle><circle cx="416.62" cy="252.51" r="2.6" fill="#6366F1"></circle><circle cx="427.88" cy="237.2" r="2.6" fill="#6366F1"></circle><circle cx="439.15" cy="258.24" r="2.6" fill="#6366F1"></circle><circle cx="450.42" cy="235.84" r="2.6" fill="#6366F1"></circle><circle cx="461.69" cy="252.87" r="2.6" fill="#6366F1"></circle><circle cx="472.96" cy="243.73" r="2.6" fill="#6366F1"></circle><circle cx="484.23" cy="249.01" r="2.6" fill="#6366F1"></circle><circle cx="506.77" cy="263.05" r="2.6" fill="#6366F1"></circle><circle cx="518.04" cy="262.95" r="2.6" fill="#6366F1"></circle><circle cx="529.31" cy="250.85" r="2.6" fill="#6366F1"></circle><circle cx="540.58" cy="238.76" r="2.6" fill="#6366F1"></circle><circle cx="551.85" cy="245.84" r="2.6" fill="#6366F1"></circle><circle cx="563.12" cy="240.49" r="2.6" fill="#6366F1"></circle><circle cx="574.38" cy="244.58" r="2.6" fill="#6366F1"></circle><circle cx="585.65" cy="238.25" r="2.6" fill="#6366F1"></circle><circle cx="596.92" cy="266.43" r="2.6" fill="#6366F1"></circle><circle cx="608.19" cy="219.91" r="2.6" fill="#6366F1"></circle><circle cx="619.46" cy="256.77" r="2.6" fill="#6366F1"></circle><circle cx="642" cy="250.11" r="2.6" fill="#6366F1"></circle><polyline fill="none" stroke="#2DA98C" stroke-width="2.4" stroke-linejoin="round" stroke-linecap="round" points="56,205.26 67.27,215.39 78.54,174.15 89.81,217.56 101.08,218.68 112.35,227.57 123.62,203.76 134.88,192.14 146.15,215.35 157.42,194.78 168.69,194.92 179.96,141.5 191.23,148.87 202.5,194.84 213.77,180.85 225.04,202.09 236.31,169.08 247.58,211.29 258.85,193.77 270.12,192.04 281.38,206.61 394.08,221.15 405.35,190.23 416.62,183.33 427.88,225.15 439.15,184.37 450.42,182.1 461.69,210.86 472.96,161.53 484.23,210.56 506.77,182.01 518.04,172.32 529.31,181.93 540.58,186.76 551.85,217.59 563.12,171.76 574.38,211.13 585.65,171.55 596.92,181.17 608.19,189.96 619.46,191.02 642,212.98"></polyline><circle cx="56" cy="205.26" r="2.6" fill="#2DA98C"></circle><circle cx="67.27" cy="215.39" r="2.6" fill="#2DA98C"></circle><circle cx="78.54" cy="174.15" r="2.6" fill="#2DA98C"></circle><circle cx="89.81" cy="217.56" r="2.6" fill="#2DA98C"></circle><circle cx="101.08" cy="218.68" r="2.6" fill="#2DA98C"></circle><circle cx="112.35" cy="227.57" r="2.6" fill="#2DA98C"></circle><circle cx="123.62" cy="203.76" r="2.6" fill="#2DA98C"></circle><circle cx="134.88" cy="192.14" r="2.6" fill="#2DA98C"></circle><circle cx="146.15" cy="215.35" r="2.6" fill="#2DA98C"></circle><circle cx="157.42" cy="194.78" r="2.6" fill="#2DA98C"></circle><circle cx="168.69" cy="194.92" r="2.6" fill="#2DA98C"></circle><circle cx="179.96" cy="141.5" r="2.6" fill="#2DA98C"></circle><circle cx="191.23" cy="148.87" r="2.6" fill="#2DA98C"></circle><circle cx="202.5" cy="194.84" r="2.6" fill="#2DA98C"></circle><circle cx="213.77" cy="180.85" r="2.6" fill="#2DA98C"></circle><circle cx="225.04" cy="202.09" r="2.6" fill="#2DA98C"></circle><circle cx="236.31" cy="169.08" r="2.6" fill="#2DA98C"></circle><circle cx="247.58" cy="211.29" r="2.6" fill="#2DA98C"></circle><circle cx="258.85" cy="193.77" r="2.6" fill="#2DA98C"></circle><circle cx="270.12" cy="192.04" r="2.6" fill="#2DA98C"></circle><circle cx="281.38" cy="206.61" r="2.6" fill="#2DA98C"></circle><circle cx="394.08" cy="221.15" r="2.6" fill="#2DA98C"></circle><circle cx="405.35" cy="190.23" r="2.6" fill="#2DA98C"></circle><circle cx="416.62" cy="183.33" r="2.6" fill="#2DA98C"></circle><circle cx="427.88" cy="225.15" r="2.6" fill="#2DA98C"></circle><circle cx="439.15" cy="184.37" r="2.6" fill="#2DA98C"></circle><circle cx="450.42" cy="182.1" r="2.6" fill="#2DA98C"></circle><circle cx="461.69" cy="210.86" r="2.6" fill="#2DA98C"></circle><circle cx="472.96" cy="161.53" r="2.6" fill="#2DA98C"></circle><circle cx="484.23" cy="210.56" r="2.6" fill="#2DA98C"></circle><circle cx="506.77" cy="182.01" r="2.6" fill="#2DA98C"></circle><circle cx="518.04" cy="172.32" r="2.6" fill="#2DA98C"></circle><circle cx="529.31" cy="181.93" r="2.6" fill="#2DA98C"></circle><circle cx="540.58" cy="186.76" r="2.6" fill="#2DA98C"></circle><circle cx="551.85" cy="217.59" r="2.6" fill="#2DA98C"></circle><circle cx="563.12" cy="171.76" r="2.6" fill="#2DA98C"></circle><circle cx="574.38" cy="211.13" r="2.6" fill="#2DA98C"></circle><circle cx="585.65" cy="171.55" r="2.6" fill="#2DA98C"></circle><circle cx="596.92" cy="181.17" r="2.6" fill="#2DA98C"></circle><circle cx="608.19" cy="189.96" r="2.6" fill="#2DA98C"></circle><circle cx="619.46" cy="191.02" r="2.6" fill="#2DA98C"></circle><circle cx="642" cy="212.98" r="2.6" fill="#2DA98C"></circle><polyline fill="none" stroke="#A371F7" stroke-width="2.4" stroke-linejoin="round" stroke-linecap="round" points="56,127.86 67.27,149.85 78.54,181.76 89.81,139.24 101.08,107.36 112.35,219.97 123.62,116.3 134.88,182.89 146.15,193.78 157.42,197.11 168.69,105.85 179.96,146.07 191.23,181.42 202.5,202.88 213.77,134.79 225.04,219.07 236.31,58.83 247.58,197.05 258.85,167.66 270.12,75.26 281.38,128.5 292.65,152.23 303.92,166.9 315.19,183.57 326.46,162.79 337.73,148.18 349,52.43 360.27,96.59 371.54,191.76 394.08,151.86 405.35,169.19 416.62,135.22 439.15,206.77 450.42,167.88 461.69,189.32 472.96,143.76 484.23,142.49 495.5,163.7 506.77,128.52 518.04,144.9 529.31,92.3 540.58,157.36 551.85,160.21 563.12,176.32 574.38,116.21 585.65,165.98 596.92,136.47 619.46,155.12 642,134.62"></polyline><circle cx="56" cy="127.86" r="2.6" fill="#A371F7"></circle><circle cx="67.27" cy="149.85" r="2.6" fill="#A371F7"></circle><circle cx="78.54" cy="181.76" r="2.6" fill="#A371F7"></circle><circle cx="89.81" cy="139.24" r="2.6" fill="#A371F7"></circle><circle cx="101.08" cy="107.36" r="2.6" fill="#A371F7"></circle><circle cx="112.35" cy="219.97" r="2.6" fill="#A371F7"></circle><circle cx="123.62" cy="116.3" r="2.6" fill="#A371F7"></circle><circle cx="134.88" cy="182.89" r="2.6" fill="#A371F7"></circle><circle cx="146.15" cy="193.78" r="2.6" fill="#A371F7"></circle><circle cx="157.42" cy="197.11" r="2.6" fill="#A371F7"></circle><circle cx="168.69" cy="105.85" r="2.6" fill="#A371F7"></circle><circle cx="179.96" cy="146.07" r="2.6" fill="#A371F7"></circle><circle cx="191.23" cy="181.42" r="2.6" fill="#A371F7"></circle><circle cx="202.5" cy="202.88" r="2.6" fill="#A371F7"></circle><circle cx="213.77" cy="134.79" r="2.6" fill="#A371F7"></circle><circle cx="225.04" cy="219.07" r="2.6" fill="#A371F7"></circle><circle cx="236.31" cy="58.83" r="2.6" fill="#A371F7"></circle><circle cx="247.58" cy="197.05" r="2.6" fill="#A371F7"></circle><circle cx="258.85" cy="167.66" r="2.6" fill="#A371F7"></circle><circle cx="270.12" cy="75.26" r="2.6" fill="#A371F7"></circle><circle cx="281.38" cy="128.5" r="2.6" fill="#A371F7"></circle><circle cx="292.65" cy="152.23" r="2.6" fill="#A371F7"></circle><circle cx="303.92" cy="166.9" r="2.6" fill="#A371F7"></circle><circle cx="315.19" cy="183.57" r="2.6" fill="#A371F7"></circle><circle cx="326.46" cy="162.79" r="2.6" fill="#A371F7"></circle><circle cx="337.73" cy="148.18" r="2.6" fill="#A371F7"></circle><circle cx="349" cy="52.43" r="2.6" fill="#A371F7"></circle><circle cx="360.27" cy="96.59" r="2.6" fill="#A371F7"></circle><circle cx="371.54" cy="191.76" r="2.6" fill="#A371F7"></circle><circle cx="394.08" cy="151.86" r="2.6" fill="#A371F7"></circle><circle cx="405.35" cy="169.19" r="2.6" fill="#A371F7"></circle><circle cx="416.62" cy="135.22" r="2.6" fill="#A371F7"></circle><circle cx="439.15" cy="206.77" r="2.6" fill="#A371F7"></circle><circle cx="450.42" cy="167.88" r="2.6" fill="#A371F7"></circle><circle cx="461.69" cy="189.32" r="2.6" fill="#A371F7"></circle><circle cx="472.96" cy="143.76" r="2.6" fill="#A371F7"></circle><circle cx="484.23" cy="142.49" r="2.6" fill="#A371F7"></circle><circle cx="495.5" cy="163.7" r="2.6" fill="#A371F7"></circle><circle cx="506.77" cy="128.52" r="2.6" fill="#A371F7"></circle><circle cx="518.04" cy="144.9" r="2.6" fill="#A371F7"></circle><circle cx="529.31" cy="92.3" r="2.6" fill="#A371F7"></circle><circle cx="540.58" cy="157.36" r="2.6" fill="#A371F7"></circle><circle cx="551.85" cy="160.21" r="2.6" fill="#A371F7"></circle><circle cx="563.12" cy="176.32" r="2.6" fill="#A371F7"></circle><circle cx="574.38" cy="116.21" r="2.6" fill="#A371F7"></circle><circle cx="585.65" cy="165.98" r="2.6" fill="#A371F7"></circle><circle cx="596.92" cy="136.47" r="2.6" fill="#A371F7"></circle><circle cx="619.46" cy="155.12" r="2.6" fill="#A371F7"></circle><circle cx="642" cy="134.62" r="2.6" fill="#A371F7"></circle><polyline fill="none" stroke="#F0A23B" stroke-width="2.4" stroke-linejoin="round" stroke-linecap="round" points="56,170.6 67.27,150.62 78.54,187.27 89.81,153.33 101.08,137.4 112.35,187.39 123.62,202.98 134.88,219.57 146.15,187.3 157.42,163.64 168.69,218.54 179.96,247.9 191.23,222.75 202.5,249.71 213.77,224.7 225.04,243.69 236.31,245.81 247.58,211.84 258.85,236.21 270.12,257.78 281.38,248.63 292.65,234.2 303.92,247.57 315.19,243.66 326.46,258.59 337.73,253.94 349,235.44 360.27,209.7 371.54,229.87 382.81,229.74 394.08,242.74 405.35,219.28 416.62,218.69 427.88,248.17 439.15,252.02 450.42,241.64 461.69,202.83 472.96,191.16 484.23,236.21 495.5,247.47 506.77,237.91 518.04,227.46 529.31,241.35 540.58,249.73 551.85,234.66 563.12,250 574.38,253.94 585.65,252.42 596.92,245.42 608.19,237.98 619.46,238.85 642,257.8"></polyline><circle cx="56" cy="170.6" r="2.6" fill="#F0A23B"></circle><circle cx="67.27" cy="150.62" r="2.6" fill="#F0A23B"></circle><circle cx="78.54" cy="187.27" r="2.6" fill="#F0A23B"></circle><circle cx="89.81" cy="153.33" r="2.6" fill="#F0A23B"></circle><circle cx="101.08" cy="137.4" r="2.6" fill="#F0A23B"></circle><circle cx="112.35" cy="187.39" r="2.6" fill="#F0A23B"></circle><circle cx="123.62" cy="202.98" r="2.6" fill="#F0A23B"></circle><circle cx="134.88" cy="219.57" r="2.6" fill="#F0A23B"></circle><circle cx="146.15" cy="187.3" r="2.6" fill="#F0A23B"></circle><circle cx="157.42" cy="163.64" r="2.6" fill="#F0A23B"></circle><circle cx="168.69" cy="218.54" r="2.6" fill="#F0A23B"></circle><circle cx="179.96" cy="247.9" r="2.6" fill="#F0A23B"></circle><circle cx="191.23" cy="222.75" r="2.6" fill="#F0A23B"></circle><circle cx="202.5" cy="249.71" r="2.6" fill="#F0A23B"></circle><circle cx="213.77" cy="224.7" r="2.6" fill="#F0A23B"></circle><circle cx="225.04" cy="243.69" r="2.6" fill="#F0A23B"></circle><circle cx="236.31" cy="245.81" r="2.6" fill="#F0A23B"></circle><circle cx="247.58" cy="211.84" r="2.6" fill="#F0A23B"></circle><circle cx="258.85" cy="236.21" r="2.6" fill="#F0A23B"></circle><circle cx="270.12" cy="257.78" r="2.6" fill="#F0A23B"></circle><circle cx="281.38" cy="248.63" r="2.6" fill="#F0A23B"></circle><circle cx="292.65" cy="234.2" r="2.6" fill="#F0A23B"></circle><circle cx="303.92" cy="247.57" r="2.6" fill="#F0A23B"></circle><circle cx="315.19" cy="243.66" r="2.6" fill="#F0A23B"></circle><circle cx="326.46" cy="258.59" r="2.6" fill="#F0A23B"></circle><circle cx="337.73" cy="253.94" r="2.6" fill="#F0A23B"></circle><circle cx="349" cy="235.44" r="2.6" fill="#F0A23B"></circle><circle cx="360.27" cy="209.7" r="2.6" fill="#F0A23B"></circle><circle cx="371.54" cy="229.87" r="2.6" fill="#F0A23B"></circle><circle cx="382.81" cy="229.74" r="2.6" fill="#F0A23B"></circle><circle cx="394.08" cy="242.74" r="2.6" fill="#F0A23B"></circle><circle cx="405.35" cy="219.28" r="2.6" fill="#F0A23B"></circle><circle cx="416.62" cy="218.69" r="2.6" fill="#F0A23B"></circle><circle cx="427.88" cy="248.17" r="2.6" fill="#F0A23B"></circle><circle cx="439.15" cy="252.02" r="2.6" fill="#F0A23B"></circle><circle cx="450.42" cy="241.64" r="2.6" fill="#F0A23B"></circle><circle cx="461.69" cy="202.83" r="2.6" fill="#F0A23B"></circle><circle cx="472.96" cy="191.16" r="2.6" fill="#F0A23B"></circle><circle cx="484.23" cy="236.21" r="2.6" fill="#F0A23B"></circle><circle cx="495.5" cy="247.47" r="2.6" fill="#F0A23B"></circle><circle cx="506.77" cy="237.91" r="2.6" fill="#F0A23B"></circle><circle cx="518.04" cy="227.46" r="2.6" fill="#F0A23B"></circle><circle cx="529.31" cy="241.35" r="2.6" fill="#F0A23B"></circle><circle cx="540.58" cy="249.73" r="2.6" fill="#F0A23B"></circle><circle cx="551.85" cy="234.66" r="2.6" fill="#F0A23B"></circle><circle cx="563.12" cy="250" r="2.6" fill="#F0A23B"></circle><circle cx="574.38" cy="253.94" r="2.6" fill="#F0A23B"></circle><circle cx="585.65" cy="252.42" r="2.6" fill="#F0A23B"></circle><circle cx="596.92" cy="245.42" r="2.6" fill="#F0A23B"></circle><circle cx="608.19" cy="237.98" r="2.6" fill="#F0A23B"></circle><circle cx="619.46" cy="238.85" r="2.6" fill="#F0A23B"></circle><circle cx="642" cy="257.8" r="2.6" fill="#F0A23B"></circle><polyline fill="none" stroke="#1F9CF0" stroke-width="2.4" stroke-linejoin="round" stroke-linecap="round" points="56,198.31 67.27,224.59 78.54,214.73 89.81,247.97 101.08,236.75 112.35,219.64 123.62,238.79 134.88,207.95 146.15,201.38 157.42,239.3 168.69,242.33 179.96,177.25 191.23,218.95 202.5,232.82 213.77,248.48 225.04,252.97 236.31,230.93 247.58,242.47 258.85,240.12 270.12,248.48 281.38,256.65 292.65,261.44 303.92,262.41 315.19,264.75 326.46,261.4 337.73,262.76 349,244.65 360.27,230.98 371.54,234.56 382.81,260.01 394.08,254.76 405.35,238.53 416.62,231.76 427.88,226.22 439.15,247.36 450.42,238.78 461.69,250.58 472.96,256.4 484.23,243.61 495.5,265.98 506.77,253.29 518.04,225.25 529.31,246.45 540.58,252.36 551.85,241.14 563.12,253.3 574.38,245.06 585.65,205.73 596.92,260.99 608.19,265.11 619.46,263.66 630.73,270.45 642,265.53"></polyline><circle cx="56" cy="198.31" r="2.6" fill="#1F9CF0"></circle><circle cx="67.27" cy="224.59" r="2.6" fill="#1F9CF0"></circle><circle cx="78.54" cy="214.73" r="2.6" fill="#1F9CF0"></circle><circle cx="89.81" cy="247.97" r="2.6" fill="#1F9CF0"></circle><circle cx="101.08" cy="236.75" r="2.6" fill="#1F9CF0"></circle><circle cx="112.35" cy="219.64" r="2.6" fill="#1F9CF0"></circle><circle cx="123.62" cy="238.79" r="2.6" fill="#1F9CF0"></circle><circle cx="134.88" cy="207.95" r="2.6" fill="#1F9CF0"></circle><circle cx="146.15" cy="201.38" r="2.6" fill="#1F9CF0"></circle><circle cx="157.42" cy="239.3" r="2.6" fill="#1F9CF0"></circle><circle cx="168.69" cy="242.33" r="2.6" fill="#1F9CF0"></circle><circle cx="179.96" cy="177.25" r="2.6" fill="#1F9CF0"></circle><circle cx="191.23" cy="218.95" r="2.6" fill="#1F9CF0"></circle><circle cx="202.5" cy="232.82" r="2.6" fill="#1F9CF0"></circle><circle cx="213.77" cy="248.48" r="2.6" fill="#1F9CF0"></circle><circle cx="225.04" cy="252.97" r="2.6" fill="#1F9CF0"></circle><circle cx="236.31" cy="230.93" r="2.6" fill="#1F9CF0"></circle><circle cx="247.58" cy="242.47" r="2.6" fill="#1F9CF0"></circle><circle cx="258.85" cy="240.12" r="2.6" fill="#1F9CF0"></circle><circle cx="270.12" cy="248.48" r="2.6" fill="#1F9CF0"></circle><circle cx="281.38" cy="256.65" r="2.6" fill="#1F9CF0"></circle><circle cx="292.65" cy="261.44" r="2.6" fill="#1F9CF0"></circle><circle cx="303.92" cy="262.41" r="2.6" fill="#1F9CF0"></circle><circle cx="315.19" cy="264.75" r="2.6" fill="#1F9CF0"></circle><circle cx="326.46" cy="261.4" r="2.6" fill="#1F9CF0"></circle><circle cx="337.73" cy="262.76" r="2.6" fill="#1F9CF0"></circle><circle cx="349" cy="244.65" r="2.6" fill="#1F9CF0"></circle><circle cx="360.27" cy="230.98" r="2.6" fill="#1F9CF0"></circle><circle cx="371.54" cy="234.56" r="2.6" fill="#1F9CF0"></circle><circle cx="382.81" cy="260.01" r="2.6" fill="#1F9CF0"></circle><circle cx="394.08" cy="254.76" r="2.6" fill="#1F9CF0"></circle><circle cx="405.35" cy="238.53" r="2.6" fill="#1F9CF0"></circle><circle cx="416.62" cy="231.76" r="2.6" fill="#1F9CF0"></circle><circle cx="427.88" cy="226.22" r="2.6" fill="#1F9CF0"></circle><circle cx="439.15" cy="247.36" r="2.6" fill="#1F9CF0"></circle><circle cx="450.42" cy="238.78" r="2.6" fill="#1F9CF0"></circle><circle cx="461.69" cy="250.58" r="2.6" fill="#1F9CF0"></circle><circle cx="472.96" cy="256.4" r="2.6" fill="#1F9CF0"></circle><circle cx="484.23" cy="243.61" r="2.6" fill="#1F9CF0"></circle><circle cx="495.5" cy="265.98" r="2.6" fill="#1F9CF0"></circle><circle cx="506.77" cy="253.29" r="2.6" fill="#1F9CF0"></circle><circle cx="518.04" cy="225.25" r="2.6" fill="#1F9CF0"></circle><circle cx="529.31" cy="246.45" r="2.6" fill="#1F9CF0"></circle><circle cx="540.58" cy="252.36" r="2.6" fill="#1F9CF0"></circle><circle cx="551.85" cy="241.14" r="2.6" fill="#1F9CF0"></circle><circle cx="563.12" cy="253.3" r="2.6" fill="#1F9CF0"></circle><circle cx="574.38" cy="245.06" r="2.6" fill="#1F9CF0"></circle><circle cx="585.65" cy="205.73" r="2.6" fill="#1F9CF0"></circle><circle cx="596.92" cy="260.99" r="2.6" fill="#1F9CF0"></circle><circle cx="608.19" cy="265.11" r="2.6" fill="#1F9CF0"></circle><circle cx="619.46" cy="263.66" r="2.6" fill="#1F9CF0"></circle><circle cx="630.73" cy="270.45" r="2.6" fill="#1F9CF0"></circle><circle cx="642" cy="265.53" r="2.6" fill="#1F9CF0"></circle><line x1="656" y1="27" x2="672" y2="27" stroke="#E8835A" stroke-width="3" stroke-linecap="round"></line><text x="678" y="30" font-size="11" font-weight="400" text-anchor="start" fill="#e6edf3">anthropic</text><line x1="656" y1="47" x2="672" y2="47" stroke="#6366F1" stroke-width="3" stroke-linecap="round"></line><text x="678" y="50" font-size="11" font-weight="400" text-anchor="start" fill="#e6edf3">deepseek</text><line x1="656" y1="67" x2="672" y2="67" stroke="#2DA98C" stroke-width="3" stroke-linecap="round"></line><text x="678" y="70" font-size="11" font-weight="400" text-anchor="start" fill="#e6edf3">gemini</text><line x1="656" y1="87" x2="672" y2="87" stroke="#A371F7" stroke-width="3" stroke-linecap="round"></line><text x="678" y="90" font-size="11" font-weight="400" text-anchor="start" fill="#e6edf3">llama</text><line x1="656" y1="107" x2="672" y2="107" stroke="#F0A23B" stroke-width="3" stroke-linecap="round"></line><text x="678" y="110" font-size="11" font-weight="400" text-anchor="start" fill="#e6edf3">mistral</text><line x1="656" y1="127" x2="672" y2="127" stroke="#1F9CF0" stroke-width="3" stroke-linecap="round"></line><text x="678" y="130" font-size="11" font-weight="400" text-anchor="start" fill="#e6edf3">openai</text></svg>
