<svg xmlns="http://www.w3.org/2000/svg" viewBox="0 0 600 300" width="600" height="300" role="img" aria-label="Avg LLM latency by provider over runs (s)"><text x="300.0" y="24" text-anchor="middle" font-family="system-ui, -apple-system, sans-serif" font-size="14" font-weight="600" fill="#333">Avg LLM latency by provider over runs (s)</text><line x1="60" y1="240.0" x2="480" y2="240.0" stroke="#eee" stroke-width="1"/><text x="54" y="244.0" text-anchor="end" font-family="system-ui, -apple-system, sans-serif" font-size="9" fill="#999">41.35</text><line x1="60" y1="140.0" x2="480" y2="140.0" stroke="#eee" stroke-width="1"/><text x="54" y="144.0" text-anchor="end" font-family="system-ui, -apple-system, sans-serif" font-size="9" fill="#999">136.1</text><line x1="60" y1="40.0" x2="480" y2="40.0" stroke="#eee" stroke-width="1"/><text x="54" y="44.0" text-anchor="end" font-family="system-ui, -apple-system, sans-serif" font-size="9" fill="#999">230.9</text><polyline fill="none" stroke="#4CAF50" stroke-width="2" points="60.0,151.5 112.5,183.8 165.0,171.7 217.5,212.4 270.0,198.7 322.5,177.7 375.0,201.2 427.5,163.4 480.0,155.3"/><circle cx="60.0" cy="151.5" r="3" fill="#4CAF50"/><circle cx="112.5" cy="183.8" r="3" fill="#4CAF50"/><circle cx="165.0" cy="171.7" r="3" fill="#4CAF50"/><circle cx="217.5" cy="212.4" r="3" fill="#4CAF50"/><circle cx="270.0" cy="198.7" r="3" fill="#4CAF50"/><circle cx="322.5" cy="177.7" r="3" fill="#4CAF50"/><circle cx="375.0" cy="201.2" r="3" fill="#4CAF50"/><circle cx="427.5" cy="163.4" r="3" fill="#4CAF50"/><circle cx="480.0" cy="155.3" r="3" fill="#4CAF50"/><rect x="490" y="44" width="10" height="10" fill="#4CAF50"/><text x="504" y="53" font-family="system-ui, -apple-system, sans-serif" font-size="10" fill="#333">openai</text><polyline fill="none" stroke="#2196F3" stroke-width="2" points="60.0,189.4 112.5,193.2 165.0,201.4 217.5,207.6 270.0,197.1 322.5,193.8 375.0,215.3 427.5,206.8 480.0,204.7"/><circle cx="60.0" cy="189.4" r="3" fill="#2196F3"/><circle cx="112.5" cy="193.2" r="3" fill="#2196F3"/><circle cx="165.0" cy="201.4" r="3" fill="#2196F3"/><circle cx="217.5" cy="207.6" r="3" fill="#2196F3"/><circle cx="270.0" cy="197.1" r="3" fill="#2196F3"/><circle cx="322.5" cy="193.8" r="3" fill="#2196F3"/><circle cx="375.0" cy="215.3" r="3" fill="#2196F3"/><circle cx="427.5" cy="206.8" r="3" fill="#2196F3"/><circle cx="480.0" cy="204.7" r="3" fill="#2196F3"/><rect x="490" y="62" width="10" height="10" fill="#2196F3"/><text x="504" y="71" font-family="system-ui, -apple-system, sans-serif" font-size="10" fill="#333">anthropic</text><polyline fill="none" stroke="#FF9800" stroke-width="2" points="60.0,160.1 112.5,172.5 165.0,121.9 217.5,175.1 270.0,176.5 322.5,187.4 375.0,158.2 427.5,144.0 480.0,172.4"/><circle cx="60.0" cy="160.1" r="3" fill="#FF9800"/><circle cx="112.5" cy="172.5" r="3" fill="#FF9800"/><circle cx="165.0" cy="121.9" r="3" fill="#FF9800"/><circle cx="217.5" cy="175.1" r="3" fill="#FF9800"/><circle cx="270.0" cy="176.5" r="3" fill="#FF9800"/><circle cx="322.5" cy="187.4" r="3" fill="#FF9800"/><circle cx="375.0" cy="158.2" r="3" fill="#FF9800"/><circle cx="427.5" cy="144.0" r="3" fill="#FF9800"/><circle cx="480.0" cy="172.4" r="3" fill="#FF9800"/><rect x="490" y="80" width="10" height="10" fill="#FF9800"/><text x="504" y="89" font-family="system-ui, -apple-system, sans-serif" font-size="10" fill="#333">gemini</text><polyline fill="none" stroke="#E91E63" stroke-width="2" points="60.0,65.1 112.5,92.1 165.0,131.2 217.5,79.1 270.0,40.0 322.5,178.1 375.0,51.0 427.5,132.6 480.0,146.0"/><circle cx="60.0" cy="65.1" r="3" fill="#E91E63"/><circle cx="112.5" cy="92.1" r="3" fill="#E91E63"/><circle cx="165.0" cy="131.2" r="3" fill="#E91E63"/><circle cx="217.5" cy="79.1" r="3" fill="#E91E63"/><circle cx="270.0" cy="40.0" r="3" fill="#E91E63"/><circle cx="322.5" cy="178.1" r="3" fill="#E91E63"/><circle cx="375.0" cy="51.0" r="3" fill="#E91E63"/><circle cx="427.5" cy="132.6" r="3" fill="#E91E63"/><circle cx="480.0" cy="146.0" r="3" fill="#E91E63"/><rect x="490" y="98" width="10" height="10" fill="#E91E63"/><text x="504" y="107" font-family="system-ui, -apple-system, sans-serif" font-size="10" fill="#333">llama</text><polyline fill="none" stroke="#9C27B0" stroke-width="2" points="60.0,117.6 112.5,93.1 165.0,138.0 217.5,96.4 270.0,76.8 322.5,138.1 375.0,157.3 427.5,177.6 480.0,138.0"/><circle cx="60.0" cy="117.6" r="3" fill="#9C27B0"/><circle cx="112.5" cy="93.1" r="3" fill="#9C27B0"/><circle cx="165.0" cy="138.0" r="3" fill="#9C27B0"/><circle cx="217.5" cy="96.4" r="3" fill="#9C27B0"/><circle cx="270.0" cy="76.8" r="3" fill="#9C27B0"/><circle cx="322.5" cy="138.1" r="3" fill="#9C27B0"/><circle cx="375.0" cy="157.3" r="3" fill="#9C27B0"/><circle cx="427.5" cy="177.6" r="3" fill="#9C27B0"/><circle cx="480.0" cy="138.0" r="3" fill="#9C27B0"/><rect x="490" y="116" width="10" height="10" fill="#9C27B0"/><text x="504" y="125" font-family="system-ui, -apple-system, sans-serif" font-size="10" fill="#333">mistral</text><polyline fill="none" stroke="#00BCD4" stroke-width="2" points="112.5,211.6 165.0,205.6 217.5,214.9 270.0,191.0 322.5,227.5 375.0,227.6 427.5,240.0 480.0,213.6"/><circle cx="112.5" cy="211.6" r="3" fill="#00BCD4"/><circle cx="165.0" cy="205.6" r="3" fill="#00BCD4"/><circle cx="217.5" cy="214.9" r="3" fill="#00BCD4"/><circle cx="270.0" cy="191.0" r="3" fill="#00BCD4"/><circle cx="322.5" cy="227.5" r="3" fill="#00BCD4"/><circle cx="375.0" cy="227.6" r="3" fill="#00BCD4"/><circle cx="427.5" cy="240.0" r="3" fill="#00BCD4"/><circle cx="480.0" cy="213.6" r="3" fill="#00BCD4"/><rect x="490" y="134" width="10" height="10" fill="#00BCD4"/><text x="504" y="143" font-family="system-ui, -apple-system, sans-serif" font-size="10" fill="#333">deepseek</text><text x="60.0" y="256.0" text-anchor="middle" font-family="system-ui, -apple-system, sans-serif" font-size="9" fill="#666">33376499</text><text x="112.5" y="256.0" text-anchor="middle" font-family="system-ui, -apple-system, sans-serif" font-size="9" fill="#666">49559976</text><text x="165.0" y="256.0" text-anchor="middle" font-family="system-ui, -apple-system, sans-serif" font-size="9" fill="#666">51938981</text><text x="217.5" y="256.0" text-anchor="middle" font-family="system-ui, -apple-system, sans-serif" font-size="9" fill="#666">53749546</text><text x="270.0" y="256.0" text-anchor="middle" font-family="system-ui, -apple-system, sans-serif" font-size="9" fill="#666">54994841</text><text x="322.5" y="256.0" text-anchor="middle" font-family="system-ui, -apple-system, sans-serif" font-size="9" fill="#666">73723278</text><text x="375.0" y="256.0" text-anchor="middle" font-family="system-ui, -apple-system, sans-serif" font-size="9" fill="#666">74446787</text><text x="427.5" y="256.0" text-anchor="middle" font-family="system-ui, -apple-system, sans-serif" font-size="9" fill="#666">75063969</text><text x="480.0" y="256.0" text-anchor="middle" font-family="system-ui, -apple-system, sans-serif" font-size="9" fill="#666">75757458</text></svg>
