<svg xmlns="http://www.w3.org/2000/svg" viewBox="0 0 600 300" width="600" height="300" role="img" aria-label="Avg LLM latency by provider over runs (s)"><text x="300.0" y="24" text-anchor="middle" font-family="system-ui, -apple-system, sans-serif" font-size="14" font-weight="600" fill="#333">Avg LLM latency by provider over runs (s)</text><line x1="60" y1="240.0" x2="480" y2="240.0" stroke="#eee" stroke-width="1"/><text x="54" y="244.0" text-anchor="end" font-family="system-ui, -apple-system, sans-serif" font-size="9" fill="#999">41.35</text><line x1="60" y1="140.0" x2="480" y2="140.0" stroke="#eee" stroke-width="1"/><text x="54" y="144.0" text-anchor="end" font-family="system-ui, -apple-system, sans-serif" font-size="9" fill="#999">136.1</text><line x1="60" y1="40.0" x2="480" y2="40.0" stroke="#eee" stroke-width="1"/><text x="54" y="44.0" text-anchor="end" font-family="system-ui, -apple-system, sans-serif" font-size="9" fill="#999">230.9</text><polyline fill="none" stroke="#4CAF50" stroke-width="2" points="60.0,151.5 106.7,183.8 153.3,171.7 200.0,212.4 246.7,198.7 293.3,177.7 340.0,201.2 386.7,163.4 433.3,155.3 480.0,201.8"/><circle cx="60.0" cy="151.5" r="3" fill="#4CAF50"/><circle cx="106.7" cy="183.8" r="3" fill="#4CAF50"/><circle cx="153.3" cy="171.7" r="3" fill="#4CAF50"/><circle cx="200.0" cy="212.4" r="3" fill="#4CAF50"/><circle cx="246.7" cy="198.7" r="3" fill="#4CAF50"/><circle cx="293.3" cy="177.7" r="3" fill="#4CAF50"/><circle cx="340.0" cy="201.2" r="3" fill="#4CAF50"/><circle cx="386.7" cy="163.4" r="3" fill="#4CAF50"/><circle cx="433.3" cy="155.3" r="3" fill="#4CAF50"/><circle cx="480.0" cy="201.8" r="3" fill="#4CAF50"/><rect x="490" y="44" width="10" height="10" fill="#4CAF50"/><text x="504" y="53" font-family="system-ui, -apple-system, sans-serif" font-size="10" fill="#333">openai</text><polyline fill="none" stroke="#2196F3" stroke-width="2" points="60.0,189.4 106.7,193.2 153.3,201.4 200.0,207.6 246.7,197.1 293.3,193.8 340.0,215.3 386.7,206.8 433.3,204.7 480.0,191.8"/><circle cx="60.0" cy="189.4" r="3" fill="#2196F3"/><circle cx="106.7" cy="193.2" r="3" fill="#2196F3"/><circle cx="153.3" cy="201.4" r="3" fill="#2196F3"/><circle cx="200.0" cy="207.6" r="3" fill="#2196F3"/><circle cx="246.7" cy="197.1" r="3" fill="#2196F3"/><circle cx="293.3" cy="193.8" r="3" fill="#2196F3"/><circle cx="340.0" cy="215.3" r="3" fill="#2196F3"/><circle cx="386.7" cy="206.8" r="3" fill="#2196F3"/><circle cx="433.3" cy="204.7" r="3" fill="#2196F3"/><circle cx="480.0" cy="191.8" r="3" fill="#2196F3"/><rect x="490" y="62" width="10" height="10" fill="#2196F3"/><text x="504" y="71" font-family="system-ui, -apple-system, sans-serif" font-size="10" fill="#333">anthropic</text><polyline fill="none" stroke="#FF9800" stroke-width="2" points="60.0,160.1 106.7,172.5 153.3,121.9 200.0,175.1 246.7,176.5 293.3,187.4 340.0,158.2 386.7,144.0 433.3,172.4 480.0,147.2"/><circle cx="60.0" cy="160.1" r="3" fill="#FF9800"/><circle cx="106.7" cy="172.5" r="3" fill="#FF9800"/><circle cx="153.3" cy="121.9" r="3" fill="#FF9800"/><circle cx="200.0" cy="175.1" r="3" fill="#FF9800"/><circle cx="246.7" cy="176.5" r="3" fill="#FF9800"/><circle cx="293.3" cy="187.4" r="3" fill="#FF9800"/><circle cx="340.0" cy="158.2" r="3" fill="#FF9800"/><circle cx="386.7" cy="144.0" r="3" fill="#FF9800"/><circle cx="433.3" cy="172.4" r="3" fill="#FF9800"/><circle cx="480.0" cy="147.2" r="3" fill="#FF9800"/><rect x="490" y="80" width="10" height="10" fill="#FF9800"/><text x="504" y="89" font-family="system-ui, -apple-system, sans-serif" font-size="10" fill="#333">gemini</text><polyline fill="none" stroke="#E91E63" stroke-width="2" points="60.0,65.1 106.7,92.1 153.3,131.2 200.0,79.1 246.7,40.0 293.3,178.1 340.0,51.0 386.7,132.6 433.3,146.0 480.0,150.1"/><circle cx="60.0" cy="65.1" r="3" fill="#E91E63"/><circle cx="106.7" cy="92.1" r="3" fill="#E91E63"/><circle cx="153.3" cy="131.2" r="3" fill="#E91E63"/><circle cx="200.0" cy="79.1" r="3" fill="#E91E63"/><circle cx="246.7" cy="40.0" r="3" fill="#E91E63"/><circle cx="293.3" cy="178.1" r="3" fill="#E91E63"/><circle cx="340.0" cy="51.0" r="3" fill="#E91E63"/><circle cx="386.7" cy="132.6" r="3" fill="#E91E63"/><circle cx="433.3" cy="146.0" r="3" fill="#E91E63"/><circle cx="480.0" cy="150.1" r="3" fill="#E91E63"/><rect x="490" y="98" width="10" height="10" fill="#E91E63"/><text x="504" y="107" font-family="system-ui, -apple-system, sans-serif" font-size="10" fill="#333">llama</text><polyline fill="none" stroke="#9C27B0" stroke-width="2" points="60.0,117.6 106.7,93.1 153.3,138.0 200.0,96.4 246.7,76.8 293.3,138.1 340.0,157.3 386.7,177.6 433.3,138.0 480.0,109.0"/><circle cx="60.0" cy="117.6" r="3" fill="#9C27B0"/><circle cx="106.7" cy="93.1" r="3" fill="#9C27B0"/><circle cx="153.3" cy="138.0" r="3" fill="#9C27B0"/><circle cx="200.0" cy="96.4" r="3" fill="#9C27B0"/><circle cx="246.7" cy="76.8" r="3" fill="#9C27B0"/><circle cx="293.3" cy="138.1" r="3" fill="#9C27B0"/><circle cx="340.0" cy="157.3" r="3" fill="#9C27B0"/><circle cx="386.7" cy="177.6" r="3" fill="#9C27B0"/><circle cx="433.3" cy="138.0" r="3" fill="#9C27B0"/><circle cx="480.0" cy="109.0" r="3" fill="#9C27B0"/><rect x="490" y="116" width="10" height="10" fill="#9C27B0"/><text x="504" y="125" font-family="system-ui, -apple-system, sans-serif" font-size="10" fill="#333">mistral</text><polyline fill="none" stroke="#00BCD4" stroke-width="2" points="106.7,211.6 153.3,205.6 200.0,214.9 246.7,191.0 293.3,227.5 340.0,227.6 386.7,240.0 433.3,213.6 480.0,209.0"/><circle cx="106.7" cy="211.6" r="3" fill="#00BCD4"/><circle cx="153.3" cy="205.6" r="3" fill="#00BCD4"/><circle cx="200.0" cy="214.9" r="3" fill="#00BCD4"/><circle cx="246.7" cy="191.0" r="3" fill="#00BCD4"/><circle cx="293.3" cy="227.5" r="3" fill="#00BCD4"/><circle cx="340.0" cy="227.6" r="3" fill="#00BCD4"/><circle cx="386.7" cy="240.0" r="3" fill="#00BCD4"/><circle cx="433.3" cy="213.6" r="3" fill="#00BCD4"/><circle cx="480.0" cy="209.0" r="3" fill="#00BCD4"/><rect x="490" y="134" width="10" height="10" fill="#00BCD4"/><text x="504" y="143" font-family="system-ui, -apple-system, sans-serif" font-size="10" fill="#333">deepseek</text><text x="60.0" y="256.0" text-anchor="middle" font-family="system-ui, -apple-system, sans-serif" font-size="9" fill="#666">33376499</text><text x="106.7" y="256.0" text-anchor="middle" font-family="system-ui, -apple-system, sans-serif" font-size="9" fill="#666">49559976</text><text x="153.3" y="256.0" text-anchor="middle" font-family="system-ui, -apple-system, sans-serif" font-size="9" fill="#666">51938981</text><text x="200.0" y="256.0" text-anchor="middle" font-family="system-ui, -apple-system, sans-serif" font-size="9" fill="#666">53749546</text><text x="246.7" y="256.0" text-anchor="middle" font-family="system-ui, -apple-system, sans-serif" font-size="9" fill="#666">54994841</text><text x="293.3" y="256.0" text-anchor="middle" font-family="system-ui, -apple-system, sans-serif" font-size="9" fill="#666">73723278</text><text x="340.0" y="256.0" text-anchor="middle" font-family="system-ui, -apple-system, sans-serif" font-size="9" fill="#666">74446787</text><text x="386.7" y="256.0" text-anchor="middle" font-family="system-ui, -apple-system, sans-serif" font-size="9" fill="#666">75063969</text><text x="433.3" y="256.0" text-anchor="middle" font-family="system-ui, -apple-system, sans-serif" font-size="9" fill="#666">75757458</text><text x="480.0" y="256.0" text-anchor="middle" font-family="system-ui, -apple-system, sans-serif" font-size="9" fill="#666">76005435</text></svg>
