<svg xmlns="http://www.w3.org/2000/svg" viewBox="0 0 760 348" width="760" height="348" role="img" aria-label="Average LLM latency by provider over runs — llama highest, deepseek lowest" font-family="-apple-system,BlinkMacSystemFont,'Segoe UI',system-ui,sans-serif"><line x1="56" y1="306" x2="642" y2="306" stroke="#d8dee4" stroke-width="1"></line><text x="46" y="310" font-size="9.5" font-weight="400" text-anchor="end" fill="#656d76" font-family="ui-monospace,SFMono-Regular,Menlo,monospace">0.0s</text><line x1="56" y1="235" x2="642" y2="235" stroke="#d8dee4" stroke-width="1"></line><text x="46" y="239" font-size="9.5" font-weight="400" text-anchor="end" fill="#656d76" font-family="ui-monospace,SFMono-Regular,Menlo,monospace">82.5s</text><line x1="56" y1="164" x2="642" y2="164" stroke="#d8dee4" stroke-width="1"></line><text x="46" y="168" font-size="9.5" font-weight="400" text-anchor="end" fill="#656d76" font-family="ui-monospace,SFMono-Regular,Menlo,monospace">165.1s</text><line x1="56" y1="93" x2="642" y2="93" stroke="#d8dee4" stroke-width="1"></line><text x="46" y="97" font-size="9.5" font-weight="400" text-anchor="end" fill="#656d76" font-family="ui-monospace,SFMono-Regular,Menlo,monospace">247.6s</text><line x1="56" y1="22" x2="642" y2="22" stroke="#d8dee4" stroke-width="1"></line><text x="46" y="26" font-size="9.5" font-weight="400" text-anchor="end" fill="#656d76" font-family="ui-monospace,SFMono-Regular,Menlo,monospace">330.2s</text><text x="56" y="324" font-size="9.5" font-weight="400" text-anchor="middle" fill="#656d76" font-family="ui-monospace,SFMono-Regular,Menlo,monospace">06/08</text><text x="109.27" y="324" font-size="9.5" font-weight="400" text-anchor="middle" fill="#656d76" font-family="ui-monospace,SFMono-Regular,Menlo,monospace">06/08</text><text x="162.55" y="324" font-size="9.5" font-weight="400" text-anchor="middle" fill="#656d76" font-family="ui-monospace,SFMono-Regular,Menlo,monospace">06/08</text><text x="215.82" y="324" font-size="9.5" font-weight="400" text-anchor="middle" fill="#656d76" font-family="ui-monospace,SFMono-Regular,Menlo,monospace">06/09</text><text x="269.09" y="324" font-size="9.5" font-weight="400" text-anchor="middle" fill="#656d76" font-family="ui-monospace,SFMono-Regular,Menlo,monospace">06/09</text><text x="322.36" y="324" font-size="9.5" font-weight="400" text-anchor="middle" fill="#656d76" font-family="ui-monospace,SFMono-Regular,Menlo,monospace">06/12</text><text x="375.64" y="324" font-size="9.5" font-weight="400" text-anchor="middle" fill="#656d76" font-family="ui-monospace,SFMono-Regular,Menlo,monospace">06/12</text><text x="428.91" y="324" font-size="9.5" font-weight="400" text-anchor="middle" fill="#656d76" font-family="ui-monospace,SFMono-Regular,Menlo,monospace">06/14</text><text x="482.18" y="324" font-size="9.5" font-weight="400" text-anchor="middle" fill="#656d76" font-family="ui-monospace,SFMono-Regular,Menlo,monospace">06/14</text><text x="535.45" y="324" font-size="9.5" font-weight="400" text-anchor="middle" fill="#656d76" font-family="ui-monospace,SFMono-Regular,Menlo,monospace">06/15</text><text x="588.73" y="324" font-size="9.5" font-weight="400" text-anchor="middle" fill="#656d76" font-family="ui-monospace,SFMono-Regular,Menlo,monospace">06/15</text><text x="642" y="324" font-size="9.5" font-weight="400" text-anchor="middle" fill="#656d76" font-family="ui-monospace,SFMono-Regular,Menlo,monospace">06/16</text><polyline fill="none" stroke="#E8835A" stroke-width="2.4" stroke-linejoin="round" stroke-linecap="round" points="56,229.15 73.76,232.31 91.52,238.94 109.27,244 127.03,235.49 144.79,232.81 162.55,250.28 180.3,243.38 198.06,241.66 215.82,231.14 251.33,234.04 269.09,244.32 286.85,228.71 304.61,246.08 322.36,242.18 340.12,235.58 357.88,242.32 375.64,244.55 393.39,246.98 411.15,240.71 428.91,250.83 446.67,244.26 464.42,241.33 482.18,245.63 499.94,245.02 517.7,240.82 535.45,243.78 553.21,243.28 570.97,240.2 588.73,242.69 606.48,215.59 624.24,241.79 642,238.64"></polyline><circle cx="56" cy="229.15" r="2.6" fill="#E8835A"></circle><circle cx="73.76" cy="232.31" r="2.6" fill="#E8835A"></circle><circle cx="91.52" cy="238.94" r="2.6" fill="#E8835A"></circle><circle cx="109.27" cy="244" r="2.6" fill="#E8835A"></circle><circle cx="127.03" cy="235.49" r="2.6" fill="#E8835A"></circle><circle cx="144.79" cy="232.81" r="2.6" fill="#E8835A"></circle><circle cx="162.55" cy="250.28" r="2.6" fill="#E8835A"></circle><circle cx="180.3" cy="243.38" r="2.6" fill="#E8835A"></circle><circle cx="198.06" cy="241.66" r="2.6" fill="#E8835A"></circle><circle cx="215.82" cy="231.14" r="2.6" fill="#E8835A"></circle><circle cx="251.33" cy="234.04" r="2.6" fill="#E8835A"></circle><circle cx="269.09" cy="244.32" r="2.6" fill="#E8835A"></circle><circle cx="286.85" cy="228.71" r="2.6" fill="#E8835A"></circle><circle cx="304.61" cy="246.08" r="2.6" fill="#E8835A"></circle><circle cx="322.36" cy="242.18" r="2.6" fill="#E8835A"></circle><circle cx="340.12" cy="235.58" r="2.6" fill="#E8835A"></circle><circle cx="357.88" cy="242.32" r="2.6" fill="#E8835A"></circle><circle cx="375.64" cy="244.55" r="2.6" fill="#E8835A"></circle><circle cx="393.39" cy="246.98" r="2.6" fill="#E8835A"></circle><circle cx="411.15" cy="240.71" r="2.6" fill="#E8835A"></circle><circle cx="428.91" cy="250.83" r="2.6" fill="#E8835A"></circle><circle cx="446.67" cy="244.26" r="2.6" fill="#E8835A"></circle><circle cx="464.42" cy="241.33" r="2.6" fill="#E8835A"></circle><circle cx="482.18" cy="245.63" r="2.6" fill="#E8835A"></circle><circle cx="499.94" cy="245.02" r="2.6" fill="#E8835A"></circle><circle cx="517.7" cy="240.82" r="2.6" fill="#E8835A"></circle><circle cx="535.45" cy="243.78" r="2.6" fill="#E8835A"></circle><circle cx="553.21" cy="243.28" r="2.6" fill="#E8835A"></circle><circle cx="570.97" cy="240.2" r="2.6" fill="#E8835A"></circle><circle cx="588.73" cy="242.69" r="2.6" fill="#E8835A"></circle><circle cx="606.48" cy="215.59" r="2.6" fill="#E8835A"></circle><circle cx="624.24" cy="241.79" r="2.6" fill="#E8835A"></circle><circle cx="642" cy="238.64" r="2.6" fill="#E8835A"></circle><polyline fill="none" stroke="#6366F1" stroke-width="2.4" stroke-linejoin="round" stroke-linecap="round" points="73.76,247.24 91.52,242.4 109.27,249.98 127.03,230.48 144.79,260.21 162.55,260.34 180.3,270.44 198.06,248.92 215.82,245.19 233.58,247.83 251.33,256.22 269.09,248.72 286.85,261.47 304.61,243.58 322.36,210.49 340.12,266.33 357.88,232.33 375.64,232.27 393.39,199.16 411.15,237.91 428.91,252.97 446.67,266.11 464.42,215.25 482.18,265.97 499.94,258.25 517.7,265.82 535.45,246.69 553.21,244.53 588.73,240.91 606.48,255.51 624.24,252.51 642,237.2"></polyline><circle cx="73.76" cy="247.24" r="2.6" fill="#6366F1"></circle><circle cx="91.52" cy="242.4" r="2.6" fill="#6366F1"></circle><circle cx="109.27" cy="249.98" r="2.6" fill="#6366F1"></circle><circle cx="127.03" cy="230.48" r="2.6" fill="#6366F1"></circle><circle cx="144.79" cy="260.21" r="2.6" fill="#6366F1"></circle><circle cx="162.55" cy="260.34" r="2.6" fill="#6366F1"></circle><circle cx="180.3" cy="270.44" r="2.6" fill="#6366F1"></circle><circle cx="198.06" cy="248.92" r="2.6" fill="#6366F1"></circle><circle cx="215.82" cy="245.19" r="2.6" fill="#6366F1"></circle><circle cx="233.58" cy="247.83" r="2.6" fill="#6366F1"></circle><circle cx="251.33" cy="256.22" r="2.6" fill="#6366F1"></circle><circle cx="269.09" cy="248.72" r="2.6" fill="#6366F1"></circle><circle cx="286.85" cy="261.47" r="2.6" fill="#6366F1"></circle><circle cx="304.61" cy="243.58" r="2.6" fill="#6366F1"></circle><circle cx="322.36" cy="210.49" r="2.6" fill="#6366F1"></circle><circle cx="340.12" cy="266.33" r="2.6" fill="#6366F1"></circle><circle cx="357.88" cy="232.33" r="2.6" fill="#6366F1"></circle><circle cx="375.64" cy="232.27" r="2.6" fill="#6366F1"></circle><circle cx="393.39" cy="199.16" r="2.6" fill="#6366F1"></circle><circle cx="411.15" cy="237.91" r="2.6" fill="#6366F1"></circle><circle cx="428.91" cy="252.97" r="2.6" fill="#6366F1"></circle><circle cx="446.67" cy="266.11" r="2.6" fill="#6366F1"></circle><circle cx="464.42" cy="215.25" r="2.6" fill="#6366F1"></circle><circle cx="482.18" cy="265.97" r="2.6" fill="#6366F1"></circle><circle cx="499.94" cy="258.25" r="2.6" fill="#6366F1"></circle><circle cx="517.7" cy="265.82" r="2.6" fill="#6366F1"></circle><circle cx="535.45" cy="246.69" r="2.6" fill="#6366F1"></circle><circle cx="553.21" cy="244.53" r="2.6" fill="#6366F1"></circle><circle cx="588.73" cy="240.91" r="2.6" fill="#6366F1"></circle><circle cx="606.48" cy="255.51" r="2.6" fill="#6366F1"></circle><circle cx="624.24" cy="252.51" r="2.6" fill="#6366F1"></circle><circle cx="642" cy="237.2" r="2.6" fill="#6366F1"></circle><polyline fill="none" stroke="#2DA98C" stroke-width="2.4" stroke-linejoin="round" stroke-linecap="round" points="56,205.26 73.76,215.39 91.52,174.15 109.27,217.56 127.03,218.68 144.79,227.57 162.55,203.76 180.3,192.14 198.06,215.35 215.82,194.78 233.58,194.92 251.33,141.5 269.09,148.87 286.85,194.84 304.61,180.85 322.36,202.09 340.12,169.08 357.88,211.29 375.64,193.77 393.39,192.04 411.15,206.61 588.73,221.15 606.48,190.23 624.24,183.33 642,225.15"></polyline><circle cx="56" cy="205.26" r="2.6" fill="#2DA98C"></circle><circle cx="73.76" cy="215.39" r="2.6" fill="#2DA98C"></circle><circle cx="91.52" cy="174.15" r="2.6" fill="#2DA98C"></circle><circle cx="109.27" cy="217.56" r="2.6" fill="#2DA98C"></circle><circle cx="127.03" cy="218.68" r="2.6" fill="#2DA98C"></circle><circle cx="144.79" cy="227.57" r="2.6" fill="#2DA98C"></circle><circle cx="162.55" cy="203.76" r="2.6" fill="#2DA98C"></circle><circle cx="180.3" cy="192.14" r="2.6" fill="#2DA98C"></circle><circle cx="198.06" cy="215.35" r="2.6" fill="#2DA98C"></circle><circle cx="215.82" cy="194.78" r="2.6" fill="#2DA98C"></circle><circle cx="233.58" cy="194.92" r="2.6" fill="#2DA98C"></circle><circle cx="251.33" cy="141.5" r="2.6" fill="#2DA98C"></circle><circle cx="269.09" cy="148.87" r="2.6" fill="#2DA98C"></circle><circle cx="286.85" cy="194.84" r="2.6" fill="#2DA98C"></circle><circle cx="304.61" cy="180.85" r="2.6" fill="#2DA98C"></circle><circle cx="322.36" cy="202.09" r="2.6" fill="#2DA98C"></circle><circle cx="340.12" cy="169.08" r="2.6" fill="#2DA98C"></circle><circle cx="357.88" cy="211.29" r="2.6" fill="#2DA98C"></circle><circle cx="375.64" cy="193.77" r="2.6" fill="#2DA98C"></circle><circle cx="393.39" cy="192.04" r="2.6" fill="#2DA98C"></circle><circle cx="411.15" cy="206.61" r="2.6" fill="#2DA98C"></circle><circle cx="588.73" cy="221.15" r="2.6" fill="#2DA98C"></circle><circle cx="606.48" cy="190.23" r="2.6" fill="#2DA98C"></circle><circle cx="624.24" cy="183.33" r="2.6" fill="#2DA98C"></circle><circle cx="642" cy="225.15" r="2.6" fill="#2DA98C"></circle><polyline fill="none" stroke="#A371F7" stroke-width="2.4" stroke-linejoin="round" stroke-linecap="round" points="56,127.86 73.76,149.85 91.52,181.76 109.27,139.24 127.03,107.36 144.79,219.97 162.55,116.3 180.3,182.89 198.06,193.78 215.82,197.11 233.58,105.85 251.33,146.07 269.09,181.42 286.85,202.88 304.61,134.79 322.36,219.07 340.12,58.83 357.88,197.05 375.64,167.66 393.39,75.26 411.15,128.5 428.91,152.23 446.67,166.9 464.42,183.57 482.18,162.79 499.94,148.18 517.7,52.43 535.45,96.59 553.21,191.76 588.73,151.86 606.48,169.19 624.24,135.22"></polyline><circle cx="56" cy="127.86" r="2.6" fill="#A371F7"></circle><circle cx="73.76" cy="149.85" r="2.6" fill="#A371F7"></circle><circle cx="91.52" cy="181.76" r="2.6" fill="#A371F7"></circle><circle cx="109.27" cy="139.24" r="2.6" fill="#A371F7"></circle><circle cx="127.03" cy="107.36" r="2.6" fill="#A371F7"></circle><circle cx="144.79" cy="219.97" r="2.6" fill="#A371F7"></circle><circle cx="162.55" cy="116.3" r="2.6" fill="#A371F7"></circle><circle cx="180.3" cy="182.89" r="2.6" fill="#A371F7"></circle><circle cx="198.06" cy="193.78" r="2.6" fill="#A371F7"></circle><circle cx="215.82" cy="197.11" r="2.6" fill="#A371F7"></circle><circle cx="233.58" cy="105.85" r="2.6" fill="#A371F7"></circle><circle cx="251.33" cy="146.07" r="2.6" fill="#A371F7"></circle><circle cx="269.09" cy="181.42" r="2.6" fill="#A371F7"></circle><circle cx="286.85" cy="202.88" r="2.6" fill="#A371F7"></circle><circle cx="304.61" cy="134.79" r="2.6" fill="#A371F7"></circle><circle cx="322.36" cy="219.07" r="2.6" fill="#A371F7"></circle><circle cx="340.12" cy="58.83" r="2.6" fill="#A371F7"></circle><circle cx="357.88" cy="197.05" r="2.6" fill="#A371F7"></circle><circle cx="375.64" cy="167.66" r="2.6" fill="#A371F7"></circle><circle cx="393.39" cy="75.26" r="2.6" fill="#A371F7"></circle><circle cx="411.15" cy="128.5" r="2.6" fill="#A371F7"></circle><circle cx="428.91" cy="152.23" r="2.6" fill="#A371F7"></circle><circle cx="446.67" cy="166.9" r="2.6" fill="#A371F7"></circle><circle cx="464.42" cy="183.57" r="2.6" fill="#A371F7"></circle><circle cx="482.18" cy="162.79" r="2.6" fill="#A371F7"></circle><circle cx="499.94" cy="148.18" r="2.6" fill="#A371F7"></circle><circle cx="517.7" cy="52.43" r="2.6" fill="#A371F7"></circle><circle cx="535.45" cy="96.59" r="2.6" fill="#A371F7"></circle><circle cx="553.21" cy="191.76" r="2.6" fill="#A371F7"></circle><circle cx="588.73" cy="151.86" r="2.6" fill="#A371F7"></circle><circle cx="606.48" cy="169.19" r="2.6" fill="#A371F7"></circle><circle cx="624.24" cy="135.22" r="2.6" fill="#A371F7"></circle><polyline fill="none" stroke="#F0A23B" stroke-width="2.4" stroke-linejoin="round" stroke-linecap="round" points="56,170.6 73.76,150.62 91.52,187.27 109.27,153.33 127.03,137.4 144.79,187.39 162.55,202.98 180.3,219.57 198.06,187.3 215.82,163.64 233.58,218.54 251.33,247.9 269.09,222.75 286.85,249.71 304.61,224.7 322.36,243.69 340.12,245.81 357.88,211.84 375.64,236.21 393.39,257.78 411.15,248.63 428.91,234.2 446.67,247.57 464.42,243.66 482.18,258.59 499.94,253.94 517.7,235.44 535.45,209.7 553.21,229.87 570.97,229.74 588.73,242.74 606.48,219.28 624.24,218.69 642,248.17"></polyline><circle cx="56" cy="170.6" r="2.6" fill="#F0A23B"></circle><circle cx="73.76" cy="150.62" r="2.6" fill="#F0A23B"></circle><circle cx="91.52" cy="187.27" r="2.6" fill="#F0A23B"></circle><circle cx="109.27" cy="153.33" r="2.6" fill="#F0A23B"></circle><circle cx="127.03" cy="137.4" r="2.6" fill="#F0A23B"></circle><circle cx="144.79" cy="187.39" r="2.6" fill="#F0A23B"></circle><circle cx="162.55" cy="202.98" r="2.6" fill="#F0A23B"></circle><circle cx="180.3" cy="219.57" r="2.6" fill="#F0A23B"></circle><circle cx="198.06" cy="187.3" r="2.6" fill="#F0A23B"></circle><circle cx="215.82" cy="163.64" r="2.6" fill="#F0A23B"></circle><circle cx="233.58" cy="218.54" r="2.6" fill="#F0A23B"></circle><circle cx="251.33" cy="247.9" r="2.6" fill="#F0A23B"></circle><circle cx="269.09" cy="222.75" r="2.6" fill="#F0A23B"></circle><circle cx="286.85" cy="249.71" r="2.6" fill="#F0A23B"></circle><circle cx="304.61" cy="224.7" r="2.6" fill="#F0A23B"></circle><circle cx="322.36" cy="243.69" r="2.6" fill="#F0A23B"></circle><circle cx="340.12" cy="245.81" r="2.6" fill="#F0A23B"></circle><circle cx="357.88" cy="211.84" r="2.6" fill="#F0A23B"></circle><circle cx="375.64" cy="236.21" r="2.6" fill="#F0A23B"></circle><circle cx="393.39" cy="257.78" r="2.6" fill="#F0A23B"></circle><circle cx="411.15" cy="248.63" r="2.6" fill="#F0A23B"></circle><circle cx="428.91" cy="234.2" r="2.6" fill="#F0A23B"></circle><circle cx="446.67" cy="247.57" r="2.6" fill="#F0A23B"></circle><circle cx="464.42" cy="243.66" r="2.6" fill="#F0A23B"></circle><circle cx="482.18" cy="258.59" r="2.6" fill="#F0A23B"></circle><circle cx="499.94" cy="253.94" r="2.6" fill="#F0A23B"></circle><circle cx="517.7" cy="235.44" r="2.6" fill="#F0A23B"></circle><circle cx="535.45" cy="209.7" r="2.6" fill="#F0A23B"></circle><circle cx="553.21" cy="229.87" r="2.6" fill="#F0A23B"></circle><circle cx="570.97" cy="229.74" r="2.6" fill="#F0A23B"></circle><circle cx="588.73" cy="242.74" r="2.6" fill="#F0A23B"></circle><circle cx="606.48" cy="219.28" r="2.6" fill="#F0A23B"></circle><circle cx="624.24" cy="218.69" r="2.6" fill="#F0A23B"></circle><circle cx="642" cy="248.17" r="2.6" fill="#F0A23B"></circle><polyline fill="none" stroke="#1F9CF0" stroke-width="2.4" stroke-linejoin="round" stroke-linecap="round" points="56,198.31 73.76,224.59 91.52,214.73 109.27,247.97 127.03,236.75 144.79,219.64 162.55,238.79 180.3,207.95 198.06,201.38 215.82,239.3 233.58,242.33 251.33,177.25 269.09,218.95 286.85,232.82 304.61,248.48 322.36,252.97 340.12,230.93 357.88,242.47 375.64,240.12 393.39,248.48 411.15,256.65 428.91,261.44 446.67,262.41 464.42,264.75 482.18,261.4 499.94,262.76 517.7,244.65 535.45,230.98 553.21,234.56 570.97,260.01 588.73,254.76 606.48,238.53 624.24,231.76 642,226.22"></polyline><circle cx="56" cy="198.31" r="2.6" fill="#1F9CF0"></circle><circle cx="73.76" cy="224.59" r="2.6" fill="#1F9CF0"></circle><circle cx="91.52" cy="214.73" r="2.6" fill="#1F9CF0"></circle><circle cx="109.27" cy="247.97" r="2.6" fill="#1F9CF0"></circle><circle cx="127.03" cy="236.75" r="2.6" fill="#1F9CF0"></circle><circle cx="144.79" cy="219.64" r="2.6" fill="#1F9CF0"></circle><circle cx="162.55" cy="238.79" r="2.6" fill="#1F9CF0"></circle><circle cx="180.3" cy="207.95" r="2.6" fill="#1F9CF0"></circle><circle cx="198.06" cy="201.38" r="2.6" fill="#1F9CF0"></circle><circle cx="215.82" cy="239.3" r="2.6" fill="#1F9CF0"></circle><circle cx="233.58" cy="242.33" r="2.6" fill="#1F9CF0"></circle><circle cx="251.33" cy="177.25" r="2.6" fill="#1F9CF0"></circle><circle cx="269.09" cy="218.95" r="2.6" fill="#1F9CF0"></circle><circle cx="286.85" cy="232.82" r="2.6" fill="#1F9CF0"></circle><circle cx="304.61" cy="248.48" r="2.6" fill="#1F9CF0"></circle><circle cx="322.36" cy="252.97" r="2.6" fill="#1F9CF0"></circle><circle cx="340.12" cy="230.93" r="2.6" fill="#1F9CF0"></circle><circle cx="357.88" cy="242.47" r="2.6" fill="#1F9CF0"></circle><circle cx="375.64" cy="240.12" r="2.6" fill="#1F9CF0"></circle><circle cx="393.39" cy="248.48" r="2.6" fill="#1F9CF0"></circle><circle cx="411.15" cy="256.65" r="2.6" fill="#1F9CF0"></circle><circle cx="428.91" cy="261.44" r="2.6" fill="#1F9CF0"></circle><circle cx="446.67" cy="262.41" r="2.6" fill="#1F9CF0"></circle><circle cx="464.42" cy="264.75" r="2.6" fill="#1F9CF0"></circle><circle cx="482.18" cy="261.4" r="2.6" fill="#1F9CF0"></circle><circle cx="499.94" cy="262.76" r="2.6" fill="#1F9CF0"></circle><circle cx="517.7" cy="244.65" r="2.6" fill="#1F9CF0"></circle><circle cx="535.45" cy="230.98" r="2.6" fill="#1F9CF0"></circle><circle cx="553.21" cy="234.56" r="2.6" fill="#1F9CF0"></circle><circle cx="570.97" cy="260.01" r="2.6" fill="#1F9CF0"></circle><circle cx="588.73" cy="254.76" r="2.6" fill="#1F9CF0"></circle><circle cx="606.48" cy="238.53" r="2.6" fill="#1F9CF0"></circle><circle cx="624.24" cy="231.76" r="2.6" fill="#1F9CF0"></circle><circle cx="642" cy="226.22" r="2.6" fill="#1F9CF0"></circle><line x1="656" y1="27" x2="672" y2="27" stroke="#E8835A" stroke-width="3" stroke-linecap="round"></line><text x="678" y="30" font-size="11" font-weight="400" text-anchor="start" fill="#1f2328">anthropic</text><line x1="656" y1="47" x2="672" y2="47" stroke="#6366F1" stroke-width="3" stroke-linecap="round"></line><text x="678" y="50" font-size="11" font-weight="400" text-anchor="start" fill="#1f2328">deepseek</text><line x1="656" y1="67" x2="672" y2="67" stroke="#2DA98C" stroke-width="3" stroke-linecap="round"></line><text x="678" y="70" font-size="11" font-weight="400" text-anchor="start" fill="#1f2328">gemini</text><line x1="656" y1="87" x2="672" y2="87" stroke="#A371F7" stroke-width="3" stroke-linecap="round"></line><text x="678" y="90" font-size="11" font-weight="400" text-anchor="start" fill="#1f2328">llama</text><line x1="656" y1="107" x2="672" y2="107" stroke="#F0A23B" stroke-width="3" stroke-linecap="round"></line><text x="678" y="110" font-size="11" font-weight="400" text-anchor="start" fill="#1f2328">mistral</text><line x1="656" y1="127" x2="672" y2="127" stroke="#1F9CF0" stroke-width="3" stroke-linecap="round"></line><text x="678" y="130" font-size="11" font-weight="400" text-anchor="start" fill="#1f2328">openai</text></svg>
