<svg xmlns="http://www.w3.org/2000/svg" viewBox="0 0 760 348" width="760" height="348" role="img" aria-label="Average LLM latency by provider over runs — llama highest, deepseek lowest" font-family="-apple-system,BlinkMacSystemFont,'Segoe UI',system-ui,sans-serif"><line x1="56" y1="306" x2="642" y2="306" stroke="#30363d" stroke-width="1"></line><text x="46" y="310" font-size="9.5" font-weight="400" text-anchor="end" fill="#8b949e" font-family="ui-monospace,SFMono-Regular,Menlo,monospace">0.0s</text><line x1="56" y1="235" x2="642" y2="235" stroke="#30363d" stroke-width="1"></line><text x="46" y="239" font-size="9.5" font-weight="400" text-anchor="end" fill="#8b949e" font-family="ui-monospace,SFMono-Regular,Menlo,monospace">82.5s</text><line x1="56" y1="164" x2="642" y2="164" stroke="#30363d" stroke-width="1"></line><text x="46" y="168" font-size="9.5" font-weight="400" text-anchor="end" fill="#8b949e" font-family="ui-monospace,SFMono-Regular,Menlo,monospace">165.1s</text><line x1="56" y1="93" x2="642" y2="93" stroke="#30363d" stroke-width="1"></line><text x="46" y="97" font-size="9.5" font-weight="400" text-anchor="end" fill="#8b949e" font-family="ui-monospace,SFMono-Regular,Menlo,monospace">247.6s</text><line x1="56" y1="22" x2="642" y2="22" stroke="#30363d" stroke-width="1"></line><text x="46" y="26" font-size="9.5" font-weight="400" text-anchor="end" fill="#8b949e" font-family="ui-monospace,SFMono-Regular,Menlo,monospace">330.2s</text><text x="56" y="324" font-size="9.5" font-weight="400" text-anchor="middle" fill="#8b949e" font-family="ui-monospace,SFMono-Regular,Menlo,monospace">06/08</text><text x="111.28" y="324" font-size="9.5" font-weight="400" text-anchor="middle" fill="#8b949e" font-family="ui-monospace,SFMono-Regular,Menlo,monospace">06/08</text><text x="166.57" y="324" font-size="9.5" font-weight="400" text-anchor="middle" fill="#8b949e" font-family="ui-monospace,SFMono-Regular,Menlo,monospace">06/09</text><text x="221.85" y="324" font-size="9.5" font-weight="400" text-anchor="middle" fill="#8b949e" font-family="ui-monospace,SFMono-Regular,Menlo,monospace">06/12</text><text x="277.13" y="324" font-size="9.5" font-weight="400" text-anchor="middle" fill="#8b949e" font-family="ui-monospace,SFMono-Regular,Menlo,monospace">06/13</text><text x="332.42" y="324" font-size="9.5" font-weight="400" text-anchor="middle" fill="#8b949e" font-family="ui-monospace,SFMono-Regular,Menlo,monospace">06/14</text><text x="387.7" y="324" font-size="9.5" font-weight="400" text-anchor="middle" fill="#8b949e" font-family="ui-monospace,SFMono-Regular,Menlo,monospace">06/15</text><text x="442.98" y="324" font-size="9.5" font-weight="400" text-anchor="middle" fill="#8b949e" font-family="ui-monospace,SFMono-Regular,Menlo,monospace">06/16</text><text x="498.26" y="324" font-size="9.5" font-weight="400" text-anchor="middle" fill="#8b949e" font-family="ui-monospace,SFMono-Regular,Menlo,monospace">06/17</text><text x="553.55" y="324" font-size="9.5" font-weight="400" text-anchor="middle" fill="#8b949e" font-family="ui-monospace,SFMono-Regular,Menlo,monospace">06/19</text><text x="608.83" y="324" font-size="9.5" font-weight="400" text-anchor="middle" fill="#8b949e" font-family="ui-monospace,SFMono-Regular,Menlo,monospace">06/20</text><text x="642" y="324" font-size="9.5" font-weight="400" text-anchor="middle" fill="#8b949e" font-family="ui-monospace,SFMono-Regular,Menlo,monospace">06/21</text><polyline fill="none" stroke="#E8835A" stroke-width="2.4" stroke-linejoin="round" stroke-linecap="round" points="56,229.15 67.06,232.31 78.11,238.94 89.17,244 100.23,235.49 111.28,232.81 122.34,250.28 133.4,243.38 144.45,241.66 155.51,231.14 177.62,234.04 188.68,244.32 199.74,228.71 210.79,246.08 221.85,242.18 232.91,235.58 243.96,242.32 255.02,244.55 266.08,246.98 277.13,240.71 288.19,250.83 299.25,244.26 310.3,241.33 321.36,245.63 332.42,245.02 343.47,240.82 354.53,243.78 365.58,243.28 376.64,240.2 387.7,242.69 398.75,215.59 409.81,241.79 420.87,238.64 431.92,243.45 442.98,243.86 454.04,234.8 465.09,244.51 476.15,244.64"></polyline><circle cx="56" cy="229.15" r="2.6" fill="#E8835A"></circle><circle cx="67.06" cy="232.31" r="2.6" fill="#E8835A"></circle><circle cx="78.11" cy="238.94" r="2.6" fill="#E8835A"></circle><circle cx="89.17" cy="244" r="2.6" fill="#E8835A"></circle><circle cx="100.23" cy="235.49" r="2.6" fill="#E8835A"></circle><circle cx="111.28" cy="232.81" r="2.6" fill="#E8835A"></circle><circle cx="122.34" cy="250.28" r="2.6" fill="#E8835A"></circle><circle cx="133.4" cy="243.38" r="2.6" fill="#E8835A"></circle><circle cx="144.45" cy="241.66" r="2.6" fill="#E8835A"></circle><circle cx="155.51" cy="231.14" r="2.6" fill="#E8835A"></circle><circle cx="177.62" cy="234.04" r="2.6" fill="#E8835A"></circle><circle cx="188.68" cy="244.32" r="2.6" fill="#E8835A"></circle><circle cx="199.74" cy="228.71" r="2.6" fill="#E8835A"></circle><circle cx="210.79" cy="246.08" r="2.6" fill="#E8835A"></circle><circle cx="221.85" cy="242.18" r="2.6" fill="#E8835A"></circle><circle cx="232.91" cy="235.58" r="2.6" fill="#E8835A"></circle><circle cx="243.96" cy="242.32" r="2.6" fill="#E8835A"></circle><circle cx="255.02" cy="244.55" r="2.6" fill="#E8835A"></circle><circle cx="266.08" cy="246.98" r="2.6" fill="#E8835A"></circle><circle cx="277.13" cy="240.71" r="2.6" fill="#E8835A"></circle><circle cx="288.19" cy="250.83" r="2.6" fill="#E8835A"></circle><circle cx="299.25" cy="244.26" r="2.6" fill="#E8835A"></circle><circle cx="310.3" cy="241.33" r="2.6" fill="#E8835A"></circle><circle cx="321.36" cy="245.63" r="2.6" fill="#E8835A"></circle><circle cx="332.42" cy="245.02" r="2.6" fill="#E8835A"></circle><circle cx="343.47" cy="240.82" r="2.6" fill="#E8835A"></circle><circle cx="354.53" cy="243.78" r="2.6" fill="#E8835A"></circle><circle cx="365.58" cy="243.28" r="2.6" fill="#E8835A"></circle><circle cx="376.64" cy="240.2" r="2.6" fill="#E8835A"></circle><circle cx="387.7" cy="242.69" r="2.6" fill="#E8835A"></circle><circle cx="398.75" cy="215.59" r="2.6" fill="#E8835A"></circle><circle cx="409.81" cy="241.79" r="2.6" fill="#E8835A"></circle><circle cx="420.87" cy="238.64" r="2.6" fill="#E8835A"></circle><circle cx="431.92" cy="243.45" r="2.6" fill="#E8835A"></circle><circle cx="442.98" cy="243.86" r="2.6" fill="#E8835A"></circle><circle cx="454.04" cy="234.8" r="2.6" fill="#E8835A"></circle><circle cx="465.09" cy="244.51" r="2.6" fill="#E8835A"></circle><circle cx="476.15" cy="244.64" r="2.6" fill="#E8835A"></circle><polyline fill="none" stroke="#6366F1" stroke-width="2.4" stroke-linejoin="round" stroke-linecap="round" points="67.06,247.24 78.11,242.4 89.17,249.98 100.23,230.48 111.28,260.21 122.34,260.34 133.4,270.44 144.45,248.92 155.51,245.19 166.57,247.83 177.62,256.22 188.68,248.72 199.74,261.47 210.79,243.58 221.85,210.49 232.91,266.33 243.96,232.33 255.02,232.27 266.08,199.16 277.13,237.91 288.19,252.97 299.25,266.11 310.3,215.25 321.36,265.97 332.42,258.25 343.47,265.82 354.53,246.69 365.58,244.53 387.7,240.91 398.75,255.51 409.81,252.51 420.87,237.2 431.92,258.24 442.98,235.84 454.04,252.87 465.09,243.73 476.15,249.01 498.26,263.05 509.32,262.95 520.38,250.85 531.43,238.76 542.49,245.84 553.55,240.49 564.6,244.58 575.66,238.25 586.72,266.43 597.77,219.91 608.83,256.77 630.94,250.11 642,264.15"></polyline><circle cx="67.06" cy="247.24" r="2.6" fill="#6366F1"></circle><circle cx="78.11" cy="242.4" r="2.6" fill="#6366F1"></circle><circle cx="89.17" cy="249.98" r="2.6" fill="#6366F1"></circle><circle cx="100.23" cy="230.48" r="2.6" fill="#6366F1"></circle><circle cx="111.28" cy="260.21" r="2.6" fill="#6366F1"></circle><circle cx="122.34" cy="260.34" r="2.6" fill="#6366F1"></circle><circle cx="133.4" cy="270.44" r="2.6" fill="#6366F1"></circle><circle cx="144.45" cy="248.92" r="2.6" fill="#6366F1"></circle><circle cx="155.51" cy="245.19" r="2.6" fill="#6366F1"></circle><circle cx="166.57" cy="247.83" r="2.6" fill="#6366F1"></circle><circle cx="177.62" cy="256.22" r="2.6" fill="#6366F1"></circle><circle cx="188.68" cy="248.72" r="2.6" fill="#6366F1"></circle><circle cx="199.74" cy="261.47" r="2.6" fill="#6366F1"></circle><circle cx="210.79" cy="243.58" r="2.6" fill="#6366F1"></circle><circle cx="221.85" cy="210.49" r="2.6" fill="#6366F1"></circle><circle cx="232.91" cy="266.33" r="2.6" fill="#6366F1"></circle><circle cx="243.96" cy="232.33" r="2.6" fill="#6366F1"></circle><circle cx="255.02" cy="232.27" r="2.6" fill="#6366F1"></circle><circle cx="266.08" cy="199.16" r="2.6" fill="#6366F1"></circle><circle cx="277.13" cy="237.91" r="2.6" fill="#6366F1"></circle><circle cx="288.19" cy="252.97" r="2.6" fill="#6366F1"></circle><circle cx="299.25" cy="266.11" r="2.6" fill="#6366F1"></circle><circle cx="310.3" cy="215.25" r="2.6" fill="#6366F1"></circle><circle cx="321.36" cy="265.97" r="2.6" fill="#6366F1"></circle><circle cx="332.42" cy="258.25" r="2.6" fill="#6366F1"></circle><circle cx="343.47" cy="265.82" r="2.6" fill="#6366F1"></circle><circle cx="354.53" cy="246.69" r="2.6" fill="#6366F1"></circle><circle cx="365.58" cy="244.53" r="2.6" fill="#6366F1"></circle><circle cx="387.7" cy="240.91" r="2.6" fill="#6366F1"></circle><circle cx="398.75" cy="255.51" r="2.6" fill="#6366F1"></circle><circle cx="409.81" cy="252.51" r="2.6" fill="#6366F1"></circle><circle cx="420.87" cy="237.2" r="2.6" fill="#6366F1"></circle><circle cx="431.92" cy="258.24" r="2.6" fill="#6366F1"></circle><circle cx="442.98" cy="235.84" r="2.6" fill="#6366F1"></circle><circle cx="454.04" cy="252.87" r="2.6" fill="#6366F1"></circle><circle cx="465.09" cy="243.73" r="2.6" fill="#6366F1"></circle><circle cx="476.15" cy="249.01" r="2.6" fill="#6366F1"></circle><circle cx="498.26" cy="263.05" r="2.6" fill="#6366F1"></circle><circle cx="509.32" cy="262.95" r="2.6" fill="#6366F1"></circle><circle cx="520.38" cy="250.85" r="2.6" fill="#6366F1"></circle><circle cx="531.43" cy="238.76" r="2.6" fill="#6366F1"></circle><circle cx="542.49" cy="245.84" r="2.6" fill="#6366F1"></circle><circle cx="553.55" cy="240.49" r="2.6" fill="#6366F1"></circle><circle cx="564.6" cy="244.58" r="2.6" fill="#6366F1"></circle><circle cx="575.66" cy="238.25" r="2.6" fill="#6366F1"></circle><circle cx="586.72" cy="266.43" r="2.6" fill="#6366F1"></circle><circle cx="597.77" cy="219.91" r="2.6" fill="#6366F1"></circle><circle cx="608.83" cy="256.77" r="2.6" fill="#6366F1"></circle><circle cx="630.94" cy="250.11" r="2.6" fill="#6366F1"></circle><circle cx="642" cy="264.15" r="2.6" fill="#6366F1"></circle><polyline fill="none" stroke="#2DA98C" stroke-width="2.4" stroke-linejoin="round" stroke-linecap="round" points="56,205.26 67.06,215.39 78.11,174.15 89.17,217.56 100.23,218.68 111.28,227.57 122.34,203.76 133.4,192.14 144.45,215.35 155.51,194.78 166.57,194.92 177.62,141.5 188.68,148.87 199.74,194.84 210.79,180.85 221.85,202.09 232.91,169.08 243.96,211.29 255.02,193.77 266.08,192.04 277.13,206.61 387.7,221.15 398.75,190.23 409.81,183.33 420.87,225.15 431.92,184.37 442.98,182.1 454.04,210.86 465.09,161.53 476.15,210.56 498.26,182.01 509.32,172.32 520.38,181.93 531.43,186.76 542.49,217.59 553.55,171.76 564.6,211.13 575.66,171.55 586.72,181.17 597.77,189.96 608.83,191.02 630.94,212.98 642,170.09"></polyline><circle cx="56" cy="205.26" r="2.6" fill="#2DA98C"></circle><circle cx="67.06" cy="215.39" r="2.6" fill="#2DA98C"></circle><circle cx="78.11" cy="174.15" r="2.6" fill="#2DA98C"></circle><circle cx="89.17" cy="217.56" r="2.6" fill="#2DA98C"></circle><circle cx="100.23" cy="218.68" r="2.6" fill="#2DA98C"></circle><circle cx="111.28" cy="227.57" r="2.6" fill="#2DA98C"></circle><circle cx="122.34" cy="203.76" r="2.6" fill="#2DA98C"></circle><circle cx="133.4" cy="192.14" r="2.6" fill="#2DA98C"></circle><circle cx="144.45" cy="215.35" r="2.6" fill="#2DA98C"></circle><circle cx="155.51" cy="194.78" r="2.6" fill="#2DA98C"></circle><circle cx="166.57" cy="194.92" r="2.6" fill="#2DA98C"></circle><circle cx="177.62" cy="141.5" r="2.6" fill="#2DA98C"></circle><circle cx="188.68" cy="148.87" r="2.6" fill="#2DA98C"></circle><circle cx="199.74" cy="194.84" r="2.6" fill="#2DA98C"></circle><circle cx="210.79" cy="180.85" r="2.6" fill="#2DA98C"></circle><circle cx="221.85" cy="202.09" r="2.6" fill="#2DA98C"></circle><circle cx="232.91" cy="169.08" r="2.6" fill="#2DA98C"></circle><circle cx="243.96" cy="211.29" r="2.6" fill="#2DA98C"></circle><circle cx="255.02" cy="193.77" r="2.6" fill="#2DA98C"></circle><circle cx="266.08" cy="192.04" r="2.6" fill="#2DA98C"></circle><circle cx="277.13" cy="206.61" r="2.6" fill="#2DA98C"></circle><circle cx="387.7" cy="221.15" r="2.6" fill="#2DA98C"></circle><circle cx="398.75" cy="190.23" r="2.6" fill="#2DA98C"></circle><circle cx="409.81" cy="183.33" r="2.6" fill="#2DA98C"></circle><circle cx="420.87" cy="225.15" r="2.6" fill="#2DA98C"></circle><circle cx="431.92" cy="184.37" r="2.6" fill="#2DA98C"></circle><circle cx="442.98" cy="182.1" r="2.6" fill="#2DA98C"></circle><circle cx="454.04" cy="210.86" r="2.6" fill="#2DA98C"></circle><circle cx="465.09" cy="161.53" r="2.6" fill="#2DA98C"></circle><circle cx="476.15" cy="210.56" r="2.6" fill="#2DA98C"></circle><circle cx="498.26" cy="182.01" r="2.6" fill="#2DA98C"></circle><circle cx="509.32" cy="172.32" r="2.6" fill="#2DA98C"></circle><circle cx="520.38" cy="181.93" r="2.6" fill="#2DA98C"></circle><circle cx="531.43" cy="186.76" r="2.6" fill="#2DA98C"></circle><circle cx="542.49" cy="217.59" r="2.6" fill="#2DA98C"></circle><circle cx="553.55" cy="171.76" r="2.6" fill="#2DA98C"></circle><circle cx="564.6" cy="211.13" r="2.6" fill="#2DA98C"></circle><circle cx="575.66" cy="171.55" r="2.6" fill="#2DA98C"></circle><circle cx="586.72" cy="181.17" r="2.6" fill="#2DA98C"></circle><circle cx="597.77" cy="189.96" r="2.6" fill="#2DA98C"></circle><circle cx="608.83" cy="191.02" r="2.6" fill="#2DA98C"></circle><circle cx="630.94" cy="212.98" r="2.6" fill="#2DA98C"></circle><circle cx="642" cy="170.09" r="2.6" fill="#2DA98C"></circle><polyline fill="none" stroke="#A371F7" stroke-width="2.4" stroke-linejoin="round" stroke-linecap="round" points="56,127.86 67.06,149.85 78.11,181.76 89.17,139.24 100.23,107.36 111.28,219.97 122.34,116.3 133.4,182.89 144.45,193.78 155.51,197.11 166.57,105.85 177.62,146.07 188.68,181.42 199.74,202.88 210.79,134.79 221.85,219.07 232.91,58.83 243.96,197.05 255.02,167.66 266.08,75.26 277.13,128.5 288.19,152.23 299.25,166.9 310.3,183.57 321.36,162.79 332.42,148.18 343.47,52.43 354.53,96.59 365.58,191.76 387.7,151.86 398.75,169.19 409.81,135.22 431.92,206.77 442.98,167.88 454.04,189.32 465.09,143.76 476.15,142.49 487.21,163.7 498.26,128.52 509.32,144.9 520.38,92.3 531.43,157.36 542.49,160.21 553.55,176.32 564.6,116.21 575.66,165.98 586.72,136.47 608.83,155.12 630.94,134.62"></polyline><circle cx="56" cy="127.86" r="2.6" fill="#A371F7"></circle><circle cx="67.06" cy="149.85" r="2.6" fill="#A371F7"></circle><circle cx="78.11" cy="181.76" r="2.6" fill="#A371F7"></circle><circle cx="89.17" cy="139.24" r="2.6" fill="#A371F7"></circle><circle cx="100.23" cy="107.36" r="2.6" fill="#A371F7"></circle><circle cx="111.28" cy="219.97" r="2.6" fill="#A371F7"></circle><circle cx="122.34" cy="116.3" r="2.6" fill="#A371F7"></circle><circle cx="133.4" cy="182.89" r="2.6" fill="#A371F7"></circle><circle cx="144.45" cy="193.78" r="2.6" fill="#A371F7"></circle><circle cx="155.51" cy="197.11" r="2.6" fill="#A371F7"></circle><circle cx="166.57" cy="105.85" r="2.6" fill="#A371F7"></circle><circle cx="177.62" cy="146.07" r="2.6" fill="#A371F7"></circle><circle cx="188.68" cy="181.42" r="2.6" fill="#A371F7"></circle><circle cx="199.74" cy="202.88" r="2.6" fill="#A371F7"></circle><circle cx="210.79" cy="134.79" r="2.6" fill="#A371F7"></circle><circle cx="221.85" cy="219.07" r="2.6" fill="#A371F7"></circle><circle cx="232.91" cy="58.83" r="2.6" fill="#A371F7"></circle><circle cx="243.96" cy="197.05" r="2.6" fill="#A371F7"></circle><circle cx="255.02" cy="167.66" r="2.6" fill="#A371F7"></circle><circle cx="266.08" cy="75.26" r="2.6" fill="#A371F7"></circle><circle cx="277.13" cy="128.5" r="2.6" fill="#A371F7"></circle><circle cx="288.19" cy="152.23" r="2.6" fill="#A371F7"></circle><circle cx="299.25" cy="166.9" r="2.6" fill="#A371F7"></circle><circle cx="310.3" cy="183.57" r="2.6" fill="#A371F7"></circle><circle cx="321.36" cy="162.79" r="2.6" fill="#A371F7"></circle><circle cx="332.42" cy="148.18" r="2.6" fill="#A371F7"></circle><circle cx="343.47" cy="52.43" r="2.6" fill="#A371F7"></circle><circle cx="354.53" cy="96.59" r="2.6" fill="#A371F7"></circle><circle cx="365.58" cy="191.76" r="2.6" fill="#A371F7"></circle><circle cx="387.7" cy="151.86" r="2.6" fill="#A371F7"></circle><circle cx="398.75" cy="169.19" r="2.6" fill="#A371F7"></circle><circle cx="409.81" cy="135.22" r="2.6" fill="#A371F7"></circle><circle cx="431.92" cy="206.77" r="2.6" fill="#A371F7"></circle><circle cx="442.98" cy="167.88" r="2.6" fill="#A371F7"></circle><circle cx="454.04" cy="189.32" r="2.6" fill="#A371F7"></circle><circle cx="465.09" cy="143.76" r="2.6" fill="#A371F7"></circle><circle cx="476.15" cy="142.49" r="2.6" fill="#A371F7"></circle><circle cx="487.21" cy="163.7" r="2.6" fill="#A371F7"></circle><circle cx="498.26" cy="128.52" r="2.6" fill="#A371F7"></circle><circle cx="509.32" cy="144.9" r="2.6" fill="#A371F7"></circle><circle cx="520.38" cy="92.3" r="2.6" fill="#A371F7"></circle><circle cx="531.43" cy="157.36" r="2.6" fill="#A371F7"></circle><circle cx="542.49" cy="160.21" r="2.6" fill="#A371F7"></circle><circle cx="553.55" cy="176.32" r="2.6" fill="#A371F7"></circle><circle cx="564.6" cy="116.21" r="2.6" fill="#A371F7"></circle><circle cx="575.66" cy="165.98" r="2.6" fill="#A371F7"></circle><circle cx="586.72" cy="136.47" r="2.6" fill="#A371F7"></circle><circle cx="608.83" cy="155.12" r="2.6" fill="#A371F7"></circle><circle cx="630.94" cy="134.62" r="2.6" fill="#A371F7"></circle><polyline fill="none" stroke="#F0A23B" stroke-width="2.4" stroke-linejoin="round" stroke-linecap="round" points="56,170.6 67.06,150.62 78.11,187.27 89.17,153.33 100.23,137.4 111.28,187.39 122.34,202.98 133.4,219.57 144.45,187.3 155.51,163.64 166.57,218.54 177.62,247.9 188.68,222.75 199.74,249.71 210.79,224.7 221.85,243.69 232.91,245.81 243.96,211.84 255.02,236.21 266.08,257.78 277.13,248.63 288.19,234.2 299.25,247.57 310.3,243.66 321.36,258.59 332.42,253.94 343.47,235.44 354.53,209.7 365.58,229.87 376.64,229.74 387.7,242.74 398.75,219.28 409.81,218.69 420.87,248.17 431.92,252.02 442.98,241.64 454.04,202.83 465.09,191.16 476.15,236.21 487.21,247.47 498.26,237.91 509.32,227.46 520.38,241.35 531.43,249.73 542.49,234.66 553.55,250 564.6,253.94 575.66,252.42 586.72,245.42 597.77,237.98 608.83,238.85 630.94,257.8 642,233.33"></polyline><circle cx="56" cy="170.6" r="2.6" fill="#F0A23B"></circle><circle cx="67.06" cy="150.62" r="2.6" fill="#F0A23B"></circle><circle cx="78.11" cy="187.27" r="2.6" fill="#F0A23B"></circle><circle cx="89.17" cy="153.33" r="2.6" fill="#F0A23B"></circle><circle cx="100.23" cy="137.4" r="2.6" fill="#F0A23B"></circle><circle cx="111.28" cy="187.39" r="2.6" fill="#F0A23B"></circle><circle cx="122.34" cy="202.98" r="2.6" fill="#F0A23B"></circle><circle cx="133.4" cy="219.57" r="2.6" fill="#F0A23B"></circle><circle cx="144.45" cy="187.3" r="2.6" fill="#F0A23B"></circle><circle cx="155.51" cy="163.64" r="2.6" fill="#F0A23B"></circle><circle cx="166.57" cy="218.54" r="2.6" fill="#F0A23B"></circle><circle cx="177.62" cy="247.9" r="2.6" fill="#F0A23B"></circle><circle cx="188.68" cy="222.75" r="2.6" fill="#F0A23B"></circle><circle cx="199.74" cy="249.71" r="2.6" fill="#F0A23B"></circle><circle cx="210.79" cy="224.7" r="2.6" fill="#F0A23B"></circle><circle cx="221.85" cy="243.69" r="2.6" fill="#F0A23B"></circle><circle cx="232.91" cy="245.81" r="2.6" fill="#F0A23B"></circle><circle cx="243.96" cy="211.84" r="2.6" fill="#F0A23B"></circle><circle cx="255.02" cy="236.21" r="2.6" fill="#F0A23B"></circle><circle cx="266.08" cy="257.78" r="2.6" fill="#F0A23B"></circle><circle cx="277.13" cy="248.63" r="2.6" fill="#F0A23B"></circle><circle cx="288.19" cy="234.2" r="2.6" fill="#F0A23B"></circle><circle cx="299.25" cy="247.57" r="2.6" fill="#F0A23B"></circle><circle cx="310.3" cy="243.66" r="2.6" fill="#F0A23B"></circle><circle cx="321.36" cy="258.59" r="2.6" fill="#F0A23B"></circle><circle cx="332.42" cy="253.94" r="2.6" fill="#F0A23B"></circle><circle cx="343.47" cy="235.44" r="2.6" fill="#F0A23B"></circle><circle cx="354.53" cy="209.7" r="2.6" fill="#F0A23B"></circle><circle cx="365.58" cy="229.87" r="2.6" fill="#F0A23B"></circle><circle cx="376.64" cy="229.74" r="2.6" fill="#F0A23B"></circle><circle cx="387.7" cy="242.74" r="2.6" fill="#F0A23B"></circle><circle cx="398.75" cy="219.28" r="2.6" fill="#F0A23B"></circle><circle cx="409.81" cy="218.69" r="2.6" fill="#F0A23B"></circle><circle cx="420.87" cy="248.17" r="2.6" fill="#F0A23B"></circle><circle cx="431.92" cy="252.02" r="2.6" fill="#F0A23B"></circle><circle cx="442.98" cy="241.64" r="2.6" fill="#F0A23B"></circle><circle cx="454.04" cy="202.83" r="2.6" fill="#F0A23B"></circle><circle cx="465.09" cy="191.16" r="2.6" fill="#F0A23B"></circle><circle cx="476.15" cy="236.21" r="2.6" fill="#F0A23B"></circle><circle cx="487.21" cy="247.47" r="2.6" fill="#F0A23B"></circle><circle cx="498.26" cy="237.91" r="2.6" fill="#F0A23B"></circle><circle cx="509.32" cy="227.46" r="2.6" fill="#F0A23B"></circle><circle cx="520.38" cy="241.35" r="2.6" fill="#F0A23B"></circle><circle cx="531.43" cy="249.73" r="2.6" fill="#F0A23B"></circle><circle cx="542.49" cy="234.66" r="2.6" fill="#F0A23B"></circle><circle cx="553.55" cy="250" r="2.6" fill="#F0A23B"></circle><circle cx="564.6" cy="253.94" r="2.6" fill="#F0A23B"></circle><circle cx="575.66" cy="252.42" r="2.6" fill="#F0A23B"></circle><circle cx="586.72" cy="245.42" r="2.6" fill="#F0A23B"></circle><circle cx="597.77" cy="237.98" r="2.6" fill="#F0A23B"></circle><circle cx="608.83" cy="238.85" r="2.6" fill="#F0A23B"></circle><circle cx="630.94" cy="257.8" r="2.6" fill="#F0A23B"></circle><circle cx="642" cy="233.33" r="2.6" fill="#F0A23B"></circle><polyline fill="none" stroke="#1F9CF0" stroke-width="2.4" stroke-linejoin="round" stroke-linecap="round" points="56,198.31 67.06,224.59 78.11,214.73 89.17,247.97 100.23,236.75 111.28,219.64 122.34,238.79 133.4,207.95 144.45,201.38 155.51,239.3 166.57,242.33 177.62,177.25 188.68,218.95 199.74,232.82 210.79,248.48 221.85,252.97 232.91,230.93 243.96,242.47 255.02,240.12 266.08,248.48 277.13,256.65 288.19,261.44 299.25,262.41 310.3,264.75 321.36,261.4 332.42,262.76 343.47,244.65 354.53,230.98 365.58,234.56 376.64,260.01 387.7,254.76 398.75,238.53 409.81,231.76 420.87,226.22 431.92,247.36 442.98,238.78 454.04,250.58 465.09,256.4 476.15,243.61 487.21,265.98 498.26,253.29 509.32,225.25 520.38,246.45 531.43,252.36 542.49,241.14 553.55,253.3 564.6,245.06 575.66,205.73 586.72,260.99 597.77,265.11 608.83,263.66 619.89,270.45 630.94,265.53 642,248.25"></polyline><circle cx="56" cy="198.31" r="2.6" fill="#1F9CF0"></circle><circle cx="67.06" cy="224.59" r="2.6" fill="#1F9CF0"></circle><circle cx="78.11" cy="214.73" r="2.6" fill="#1F9CF0"></circle><circle cx="89.17" cy="247.97" r="2.6" fill="#1F9CF0"></circle><circle cx="100.23" cy="236.75" r="2.6" fill="#1F9CF0"></circle><circle cx="111.28" cy="219.64" r="2.6" fill="#1F9CF0"></circle><circle cx="122.34" cy="238.79" r="2.6" fill="#1F9CF0"></circle><circle cx="133.4" cy="207.95" r="2.6" fill="#1F9CF0"></circle><circle cx="144.45" cy="201.38" r="2.6" fill="#1F9CF0"></circle><circle cx="155.51" cy="239.3" r="2.6" fill="#1F9CF0"></circle><circle cx="166.57" cy="242.33" r="2.6" fill="#1F9CF0"></circle><circle cx="177.62" cy="177.25" r="2.6" fill="#1F9CF0"></circle><circle cx="188.68" cy="218.95" r="2.6" fill="#1F9CF0"></circle><circle cx="199.74" cy="232.82" r="2.6" fill="#1F9CF0"></circle><circle cx="210.79" cy="248.48" r="2.6" fill="#1F9CF0"></circle><circle cx="221.85" cy="252.97" r="2.6" fill="#1F9CF0"></circle><circle cx="232.91" cy="230.93" r="2.6" fill="#1F9CF0"></circle><circle cx="243.96" cy="242.47" r="2.6" fill="#1F9CF0"></circle><circle cx="255.02" cy="240.12" r="2.6" fill="#1F9CF0"></circle><circle cx="266.08" cy="248.48" r="2.6" fill="#1F9CF0"></circle><circle cx="277.13" cy="256.65" r="2.6" fill="#1F9CF0"></circle><circle cx="288.19" cy="261.44" r="2.6" fill="#1F9CF0"></circle><circle cx="299.25" cy="262.41" r="2.6" fill="#1F9CF0"></circle><circle cx="310.3" cy="264.75" r="2.6" fill="#1F9CF0"></circle><circle cx="321.36" cy="261.4" r="2.6" fill="#1F9CF0"></circle><circle cx="332.42" cy="262.76" r="2.6" fill="#1F9CF0"></circle><circle cx="343.47" cy="244.65" r="2.6" fill="#1F9CF0"></circle><circle cx="354.53" cy="230.98" r="2.6" fill="#1F9CF0"></circle><circle cx="365.58" cy="234.56" r="2.6" fill="#1F9CF0"></circle><circle cx="376.64" cy="260.01" r="2.6" fill="#1F9CF0"></circle><circle cx="387.7" cy="254.76" r="2.6" fill="#1F9CF0"></circle><circle cx="398.75" cy="238.53" r="2.6" fill="#1F9CF0"></circle><circle cx="409.81" cy="231.76" r="2.6" fill="#1F9CF0"></circle><circle cx="420.87" cy="226.22" r="2.6" fill="#1F9CF0"></circle><circle cx="431.92" cy="247.36" r="2.6" fill="#1F9CF0"></circle><circle cx="442.98" cy="238.78" r="2.6" fill="#1F9CF0"></circle><circle cx="454.04" cy="250.58" r="2.6" fill="#1F9CF0"></circle><circle cx="465.09" cy="256.4" r="2.6" fill="#1F9CF0"></circle><circle cx="476.15" cy="243.61" r="2.6" fill="#1F9CF0"></circle><circle cx="487.21" cy="265.98" r="2.6" fill="#1F9CF0"></circle><circle cx="498.26" cy="253.29" r="2.6" fill="#1F9CF0"></circle><circle cx="509.32" cy="225.25" r="2.6" fill="#1F9CF0"></circle><circle cx="520.38" cy="246.45" r="2.6" fill="#1F9CF0"></circle><circle cx="531.43" cy="252.36" r="2.6" fill="#1F9CF0"></circle><circle cx="542.49" cy="241.14" r="2.6" fill="#1F9CF0"></circle><circle cx="553.55" cy="253.3" r="2.6" fill="#1F9CF0"></circle><circle cx="564.6" cy="245.06" r="2.6" fill="#1F9CF0"></circle><circle cx="575.66" cy="205.73" r="2.6" fill="#1F9CF0"></circle><circle cx="586.72" cy="260.99" r="2.6" fill="#1F9CF0"></circle><circle cx="597.77" cy="265.11" r="2.6" fill="#1F9CF0"></circle><circle cx="608.83" cy="263.66" r="2.6" fill="#1F9CF0"></circle><circle cx="619.89" cy="270.45" r="2.6" fill="#1F9CF0"></circle><circle cx="630.94" cy="265.53" r="2.6" fill="#1F9CF0"></circle><circle cx="642" cy="248.25" r="2.6" fill="#1F9CF0"></circle><line x1="656" y1="27" x2="672" y2="27" stroke="#E8835A" stroke-width="3" stroke-linecap="round"></line><text x="678" y="30" font-size="11" font-weight="400" text-anchor="start" fill="#e6edf3">anthropic</text><line x1="656" y1="47" x2="672" y2="47" stroke="#6366F1" stroke-width="3" stroke-linecap="round"></line><text x="678" y="50" font-size="11" font-weight="400" text-anchor="start" fill="#e6edf3">deepseek</text><line x1="656" y1="67" x2="672" y2="67" stroke="#2DA98C" stroke-width="3" stroke-linecap="round"></line><text x="678" y="70" font-size="11" font-weight="400" text-anchor="start" fill="#e6edf3">gemini</text><line x1="656" y1="87" x2="672" y2="87" stroke="#A371F7" stroke-width="3" stroke-linecap="round"></line><text x="678" y="90" font-size="11" font-weight="400" text-anchor="start" fill="#e6edf3">llama</text><line x1="656" y1="107" x2="672" y2="107" stroke="#F0A23B" stroke-width="3" stroke-linecap="round"></line><text x="678" y="110" font-size="11" font-weight="400" text-anchor="start" fill="#e6edf3">mistral</text><line x1="656" y1="127" x2="672" y2="127" stroke="#1F9CF0" stroke-width="3" stroke-linecap="round"></line><text x="678" y="130" font-size="11" font-weight="400" text-anchor="start" fill="#e6edf3">openai</text></svg>
