<svg xmlns="http://www.w3.org/2000/svg" viewBox="0 0 760 348" width="760" height="348" role="img" aria-label="Average LLM latency by provider over runs — llama highest, deepseek lowest" font-family="-apple-system,BlinkMacSystemFont,'Segoe UI',system-ui,sans-serif"><line x1="56" y1="306" x2="642" y2="306" stroke="#30363d" stroke-width="1"></line><text x="46" y="310" font-size="9.5" font-weight="400" text-anchor="end" fill="#8b949e" font-family="ui-monospace,SFMono-Regular,Menlo,monospace">0.0s</text><line x1="56" y1="235" x2="642" y2="235" stroke="#30363d" stroke-width="1"></line><text x="46" y="239" font-size="9.5" font-weight="400" text-anchor="end" fill="#8b949e" font-family="ui-monospace,SFMono-Regular,Menlo,monospace">82.5s</text><line x1="56" y1="164" x2="642" y2="164" stroke="#30363d" stroke-width="1"></line><text x="46" y="168" font-size="9.5" font-weight="400" text-anchor="end" fill="#8b949e" font-family="ui-monospace,SFMono-Regular,Menlo,monospace">165.1s</text><line x1="56" y1="93" x2="642" y2="93" stroke="#30363d" stroke-width="1"></line><text x="46" y="97" font-size="9.5" font-weight="400" text-anchor="end" fill="#8b949e" font-family="ui-monospace,SFMono-Regular,Menlo,monospace">247.6s</text><line x1="56" y1="22" x2="642" y2="22" stroke="#30363d" stroke-width="1"></line><text x="46" y="26" font-size="9.5" font-weight="400" text-anchor="end" fill="#8b949e" font-family="ui-monospace,SFMono-Regular,Menlo,monospace">330.2s</text><text x="56" y="324" font-size="9.5" font-weight="400" text-anchor="middle" fill="#8b949e" font-family="ui-monospace,SFMono-Regular,Menlo,monospace">06/08</text><text x="108.48" y="324" font-size="9.5" font-weight="400" text-anchor="middle" fill="#8b949e" font-family="ui-monospace,SFMono-Regular,Menlo,monospace">06/08</text><text x="160.96" y="324" font-size="9.5" font-weight="400" text-anchor="middle" fill="#8b949e" font-family="ui-monospace,SFMono-Regular,Menlo,monospace">06/09</text><text x="213.43" y="324" font-size="9.5" font-weight="400" text-anchor="middle" fill="#8b949e" font-family="ui-monospace,SFMono-Regular,Menlo,monospace">06/12</text><text x="265.91" y="324" font-size="9.5" font-weight="400" text-anchor="middle" fill="#8b949e" font-family="ui-monospace,SFMono-Regular,Menlo,monospace">06/14</text><text x="318.39" y="324" font-size="9.5" font-weight="400" text-anchor="middle" fill="#8b949e" font-family="ui-monospace,SFMono-Regular,Menlo,monospace">06/15</text><text x="370.87" y="324" font-size="9.5" font-weight="400" text-anchor="middle" fill="#8b949e" font-family="ui-monospace,SFMono-Regular,Menlo,monospace">06/16</text><text x="423.34" y="324" font-size="9.5" font-weight="400" text-anchor="middle" fill="#8b949e" font-family="ui-monospace,SFMono-Regular,Menlo,monospace">06/18</text><text x="475.82" y="324" font-size="9.5" font-weight="400" text-anchor="middle" fill="#8b949e" font-family="ui-monospace,SFMono-Regular,Menlo,monospace">06/20</text><text x="528.3" y="324" font-size="9.5" font-weight="400" text-anchor="middle" fill="#8b949e" font-family="ui-monospace,SFMono-Regular,Menlo,monospace">06/21</text><text x="580.78" y="324" font-size="9.5" font-weight="400" text-anchor="middle" fill="#8b949e" font-family="ui-monospace,SFMono-Regular,Menlo,monospace">06/22</text><text x="633.25" y="324" font-size="9.5" font-weight="400" text-anchor="middle" fill="#8b949e" font-family="ui-monospace,SFMono-Regular,Menlo,monospace">06/24</text><text x="642" y="324" font-size="9.5" font-weight="400" text-anchor="middle" fill="#8b949e" font-family="ui-monospace,SFMono-Regular,Menlo,monospace">06/24</text><polyline fill="none" stroke="#E8835A" stroke-width="2.4" stroke-linejoin="round" stroke-linecap="round" points="56,229.15 64.75,232.31 73.49,238.94 82.24,244 90.99,235.49 99.73,232.81 108.48,250.28 117.22,243.38 125.97,241.66 134.72,231.14 152.21,234.04 160.96,244.32 169.7,228.71 178.45,246.08 187.19,242.18 195.94,235.58 204.69,242.32 213.43,244.55 222.18,246.98 230.93,240.71 239.67,250.83 248.42,244.26 257.16,241.33 265.91,245.63 274.66,245.02 283.4,240.82 292.15,243.78 300.9,243.28 309.64,240.2 318.39,242.69 327.13,215.59 335.88,241.79 344.63,238.64 353.37,243.45 362.12,243.86 370.87,234.8 379.61,244.51 388.36,244.64"></polyline><circle cx="56" cy="229.15" r="2.6" fill="#E8835A"></circle><circle cx="64.75" cy="232.31" r="2.6" fill="#E8835A"></circle><circle cx="73.49" cy="238.94" r="2.6" fill="#E8835A"></circle><circle cx="82.24" cy="244" r="2.6" fill="#E8835A"></circle><circle cx="90.99" cy="235.49" r="2.6" fill="#E8835A"></circle><circle cx="99.73" cy="232.81" r="2.6" fill="#E8835A"></circle><circle cx="108.48" cy="250.28" r="2.6" fill="#E8835A"></circle><circle cx="117.22" cy="243.38" r="2.6" fill="#E8835A"></circle><circle cx="125.97" cy="241.66" r="2.6" fill="#E8835A"></circle><circle cx="134.72" cy="231.14" r="2.6" fill="#E8835A"></circle><circle cx="152.21" cy="234.04" r="2.6" fill="#E8835A"></circle><circle cx="160.96" cy="244.32" r="2.6" fill="#E8835A"></circle><circle cx="169.7" cy="228.71" r="2.6" fill="#E8835A"></circle><circle cx="178.45" cy="246.08" r="2.6" fill="#E8835A"></circle><circle cx="187.19" cy="242.18" r="2.6" fill="#E8835A"></circle><circle cx="195.94" cy="235.58" r="2.6" fill="#E8835A"></circle><circle cx="204.69" cy="242.32" r="2.6" fill="#E8835A"></circle><circle cx="213.43" cy="244.55" r="2.6" fill="#E8835A"></circle><circle cx="222.18" cy="246.98" r="2.6" fill="#E8835A"></circle><circle cx="230.93" cy="240.71" r="2.6" fill="#E8835A"></circle><circle cx="239.67" cy="250.83" r="2.6" fill="#E8835A"></circle><circle cx="248.42" cy="244.26" r="2.6" fill="#E8835A"></circle><circle cx="257.16" cy="241.33" r="2.6" fill="#E8835A"></circle><circle cx="265.91" cy="245.63" r="2.6" fill="#E8835A"></circle><circle cx="274.66" cy="245.02" r="2.6" fill="#E8835A"></circle><circle cx="283.4" cy="240.82" r="2.6" fill="#E8835A"></circle><circle cx="292.15" cy="243.78" r="2.6" fill="#E8835A"></circle><circle cx="300.9" cy="243.28" r="2.6" fill="#E8835A"></circle><circle cx="309.64" cy="240.2" r="2.6" fill="#E8835A"></circle><circle cx="318.39" cy="242.69" r="2.6" fill="#E8835A"></circle><circle cx="327.13" cy="215.59" r="2.6" fill="#E8835A"></circle><circle cx="335.88" cy="241.79" r="2.6" fill="#E8835A"></circle><circle cx="344.63" cy="238.64" r="2.6" fill="#E8835A"></circle><circle cx="353.37" cy="243.45" r="2.6" fill="#E8835A"></circle><circle cx="362.12" cy="243.86" r="2.6" fill="#E8835A"></circle><circle cx="370.87" cy="234.8" r="2.6" fill="#E8835A"></circle><circle cx="379.61" cy="244.51" r="2.6" fill="#E8835A"></circle><circle cx="388.36" cy="244.64" r="2.6" fill="#E8835A"></circle><polyline fill="none" stroke="#6366F1" stroke-width="2.4" stroke-linejoin="round" stroke-linecap="round" points="64.75,247.24 73.49,242.4 82.24,249.98 90.99,230.48 99.73,260.21 108.48,260.34 117.22,270.44 125.97,248.92 134.72,245.19 143.46,247.83 152.21,256.22 160.96,248.72 169.7,261.47 178.45,243.58 187.19,210.49 195.94,266.33 204.69,232.33 213.43,232.27 222.18,199.16 230.93,237.91 239.67,252.97 248.42,266.11 257.16,215.25 265.91,265.97 274.66,258.25 283.4,265.82 292.15,246.69 300.9,244.53 318.39,240.91 327.13,255.51 335.88,252.51 344.63,237.2 353.37,258.24 362.12,235.84 370.87,252.87 379.61,243.73 388.36,249.01 405.85,263.05 414.6,262.95 423.34,250.85 432.09,238.76 440.84,245.84 449.58,240.49 458.33,244.58 467.07,238.25 475.82,266.43 484.57,219.91 493.31,256.77 510.81,250.11 519.55,264.15 528.3,249.18 537.04,252.64 545.79,236.94 554.54,257.91 563.28,245.05 572.03,245.47 580.78,251.25 589.52,250.75 598.27,249.01 607.01,257.36 615.76,265.15 624.51,253.64 633.25,262.66 642,253.56"></polyline><circle cx="64.75" cy="247.24" r="2.6" fill="#6366F1"></circle><circle cx="73.49" cy="242.4" r="2.6" fill="#6366F1"></circle><circle cx="82.24" cy="249.98" r="2.6" fill="#6366F1"></circle><circle cx="90.99" cy="230.48" r="2.6" fill="#6366F1"></circle><circle cx="99.73" cy="260.21" r="2.6" fill="#6366F1"></circle><circle cx="108.48" cy="260.34" r="2.6" fill="#6366F1"></circle><circle cx="117.22" cy="270.44" r="2.6" fill="#6366F1"></circle><circle cx="125.97" cy="248.92" r="2.6" fill="#6366F1"></circle><circle cx="134.72" cy="245.19" r="2.6" fill="#6366F1"></circle><circle cx="143.46" cy="247.83" r="2.6" fill="#6366F1"></circle><circle cx="152.21" cy="256.22" r="2.6" fill="#6366F1"></circle><circle cx="160.96" cy="248.72" r="2.6" fill="#6366F1"></circle><circle cx="169.7" cy="261.47" r="2.6" fill="#6366F1"></circle><circle cx="178.45" cy="243.58" r="2.6" fill="#6366F1"></circle><circle cx="187.19" cy="210.49" r="2.6" fill="#6366F1"></circle><circle cx="195.94" cy="266.33" r="2.6" fill="#6366F1"></circle><circle cx="204.69" cy="232.33" r="2.6" fill="#6366F1"></circle><circle cx="213.43" cy="232.27" r="2.6" fill="#6366F1"></circle><circle cx="222.18" cy="199.16" r="2.6" fill="#6366F1"></circle><circle cx="230.93" cy="237.91" r="2.6" fill="#6366F1"></circle><circle cx="239.67" cy="252.97" r="2.6" fill="#6366F1"></circle><circle cx="248.42" cy="266.11" r="2.6" fill="#6366F1"></circle><circle cx="257.16" cy="215.25" r="2.6" fill="#6366F1"></circle><circle cx="265.91" cy="265.97" r="2.6" fill="#6366F1"></circle><circle cx="274.66" cy="258.25" r="2.6" fill="#6366F1"></circle><circle cx="283.4" cy="265.82" r="2.6" fill="#6366F1"></circle><circle cx="292.15" cy="246.69" r="2.6" fill="#6366F1"></circle><circle cx="300.9" cy="244.53" r="2.6" fill="#6366F1"></circle><circle cx="318.39" cy="240.91" r="2.6" fill="#6366F1"></circle><circle cx="327.13" cy="255.51" r="2.6" fill="#6366F1"></circle><circle cx="335.88" cy="252.51" r="2.6" fill="#6366F1"></circle><circle cx="344.63" cy="237.2" r="2.6" fill="#6366F1"></circle><circle cx="353.37" cy="258.24" r="2.6" fill="#6366F1"></circle><circle cx="362.12" cy="235.84" r="2.6" fill="#6366F1"></circle><circle cx="370.87" cy="252.87" r="2.6" fill="#6366F1"></circle><circle cx="379.61" cy="243.73" r="2.6" fill="#6366F1"></circle><circle cx="388.36" cy="249.01" r="2.6" fill="#6366F1"></circle><circle cx="405.85" cy="263.05" r="2.6" fill="#6366F1"></circle><circle cx="414.6" cy="262.95" r="2.6" fill="#6366F1"></circle><circle cx="423.34" cy="250.85" r="2.6" fill="#6366F1"></circle><circle cx="432.09" cy="238.76" r="2.6" fill="#6366F1"></circle><circle cx="440.84" cy="245.84" r="2.6" fill="#6366F1"></circle><circle cx="449.58" cy="240.49" r="2.6" fill="#6366F1"></circle><circle cx="458.33" cy="244.58" r="2.6" fill="#6366F1"></circle><circle cx="467.07" cy="238.25" r="2.6" fill="#6366F1"></circle><circle cx="475.82" cy="266.43" r="2.6" fill="#6366F1"></circle><circle cx="484.57" cy="219.91" r="2.6" fill="#6366F1"></circle><circle cx="493.31" cy="256.77" r="2.6" fill="#6366F1"></circle><circle cx="510.81" cy="250.11" r="2.6" fill="#6366F1"></circle><circle cx="519.55" cy="264.15" r="2.6" fill="#6366F1"></circle><circle cx="528.3" cy="249.18" r="2.6" fill="#6366F1"></circle><circle cx="537.04" cy="252.64" r="2.6" fill="#6366F1"></circle><circle cx="545.79" cy="236.94" r="2.6" fill="#6366F1"></circle><circle cx="554.54" cy="257.91" r="2.6" fill="#6366F1"></circle><circle cx="563.28" cy="245.05" r="2.6" fill="#6366F1"></circle><circle cx="572.03" cy="245.47" r="2.6" fill="#6366F1"></circle><circle cx="580.78" cy="251.25" r="2.6" fill="#6366F1"></circle><circle cx="589.52" cy="250.75" r="2.6" fill="#6366F1"></circle><circle cx="598.27" cy="249.01" r="2.6" fill="#6366F1"></circle><circle cx="607.01" cy="257.36" r="2.6" fill="#6366F1"></circle><circle cx="615.76" cy="265.15" r="2.6" fill="#6366F1"></circle><circle cx="624.51" cy="253.64" r="2.6" fill="#6366F1"></circle><circle cx="633.25" cy="262.66" r="2.6" fill="#6366F1"></circle><circle cx="642" cy="253.56" r="2.6" fill="#6366F1"></circle><polyline fill="none" stroke="#2DA98C" stroke-width="2.4" stroke-linejoin="round" stroke-linecap="round" points="56,205.26 64.75,215.39 73.49,174.15 82.24,217.56 90.99,218.68 99.73,227.57 108.48,203.76 117.22,192.14 125.97,215.35 134.72,194.78 143.46,194.92 152.21,141.5 160.96,148.87 169.7,194.84 178.45,180.85 187.19,202.09 195.94,169.08 204.69,211.29 213.43,193.77 222.18,192.04 230.93,206.61 318.39,221.15 327.13,190.23 335.88,183.33 344.63,225.15 353.37,184.37 362.12,182.1 370.87,210.86 379.61,161.53 388.36,210.56 405.85,182.01 414.6,172.32 423.34,181.93 432.09,186.76 440.84,217.59 449.58,171.76 458.33,211.13 467.07,171.55 475.82,181.17 484.57,189.96 493.31,191.02 510.81,212.98 519.55,170.09 528.3,127.97 537.04,222.7 545.79,200.4 554.54,155.75 563.28,184.88 572.03,176.48 580.78,167.89 589.52,205.24 598.27,167.24 607.01,154.57 615.76,196.61 624.51,154.13 633.25,196.6 642,203.92"></polyline><circle cx="56" cy="205.26" r="2.6" fill="#2DA98C"></circle><circle cx="64.75" cy="215.39" r="2.6" fill="#2DA98C"></circle><circle cx="73.49" cy="174.15" r="2.6" fill="#2DA98C"></circle><circle cx="82.24" cy="217.56" r="2.6" fill="#2DA98C"></circle><circle cx="90.99" cy="218.68" r="2.6" fill="#2DA98C"></circle><circle cx="99.73" cy="227.57" r="2.6" fill="#2DA98C"></circle><circle cx="108.48" cy="203.76" r="2.6" fill="#2DA98C"></circle><circle cx="117.22" cy="192.14" r="2.6" fill="#2DA98C"></circle><circle cx="125.97" cy="215.35" r="2.6" fill="#2DA98C"></circle><circle cx="134.72" cy="194.78" r="2.6" fill="#2DA98C"></circle><circle cx="143.46" cy="194.92" r="2.6" fill="#2DA98C"></circle><circle cx="152.21" cy="141.5" r="2.6" fill="#2DA98C"></circle><circle cx="160.96" cy="148.87" r="2.6" fill="#2DA98C"></circle><circle cx="169.7" cy="194.84" r="2.6" fill="#2DA98C"></circle><circle cx="178.45" cy="180.85" r="2.6" fill="#2DA98C"></circle><circle cx="187.19" cy="202.09" r="2.6" fill="#2DA98C"></circle><circle cx="195.94" cy="169.08" r="2.6" fill="#2DA98C"></circle><circle cx="204.69" cy="211.29" r="2.6" fill="#2DA98C"></circle><circle cx="213.43" cy="193.77" r="2.6" fill="#2DA98C"></circle><circle cx="222.18" cy="192.04" r="2.6" fill="#2DA98C"></circle><circle cx="230.93" cy="206.61" r="2.6" fill="#2DA98C"></circle><circle cx="318.39" cy="221.15" r="2.6" fill="#2DA98C"></circle><circle cx="327.13" cy="190.23" r="2.6" fill="#2DA98C"></circle><circle cx="335.88" cy="183.33" r="2.6" fill="#2DA98C"></circle><circle cx="344.63" cy="225.15" r="2.6" fill="#2DA98C"></circle><circle cx="353.37" cy="184.37" r="2.6" fill="#2DA98C"></circle><circle cx="362.12" cy="182.1" r="2.6" fill="#2DA98C"></circle><circle cx="370.87" cy="210.86" r="2.6" fill="#2DA98C"></circle><circle cx="379.61" cy="161.53" r="2.6" fill="#2DA98C"></circle><circle cx="388.36" cy="210.56" r="2.6" fill="#2DA98C"></circle><circle cx="405.85" cy="182.01" r="2.6" fill="#2DA98C"></circle><circle cx="414.6" cy="172.32" r="2.6" fill="#2DA98C"></circle><circle cx="423.34" cy="181.93" r="2.6" fill="#2DA98C"></circle><circle cx="432.09" cy="186.76" r="2.6" fill="#2DA98C"></circle><circle cx="440.84" cy="217.59" r="2.6" fill="#2DA98C"></circle><circle cx="449.58" cy="171.76" r="2.6" fill="#2DA98C"></circle><circle cx="458.33" cy="211.13" r="2.6" fill="#2DA98C"></circle><circle cx="467.07" cy="171.55" r="2.6" fill="#2DA98C"></circle><circle cx="475.82" cy="181.17" r="2.6" fill="#2DA98C"></circle><circle cx="484.57" cy="189.96" r="2.6" fill="#2DA98C"></circle><circle cx="493.31" cy="191.02" r="2.6" fill="#2DA98C"></circle><circle cx="510.81" cy="212.98" r="2.6" fill="#2DA98C"></circle><circle cx="519.55" cy="170.09" r="2.6" fill="#2DA98C"></circle><circle cx="528.3" cy="127.97" r="2.6" fill="#2DA98C"></circle><circle cx="537.04" cy="222.7" r="2.6" fill="#2DA98C"></circle><circle cx="545.79" cy="200.4" r="2.6" fill="#2DA98C"></circle><circle cx="554.54" cy="155.75" r="2.6" fill="#2DA98C"></circle><circle cx="563.28" cy="184.88" r="2.6" fill="#2DA98C"></circle><circle cx="572.03" cy="176.48" r="2.6" fill="#2DA98C"></circle><circle cx="580.78" cy="167.89" r="2.6" fill="#2DA98C"></circle><circle cx="589.52" cy="205.24" r="2.6" fill="#2DA98C"></circle><circle cx="598.27" cy="167.24" r="2.6" fill="#2DA98C"></circle><circle cx="607.01" cy="154.57" r="2.6" fill="#2DA98C"></circle><circle cx="615.76" cy="196.61" r="2.6" fill="#2DA98C"></circle><circle cx="624.51" cy="154.13" r="2.6" fill="#2DA98C"></circle><circle cx="633.25" cy="196.6" r="2.6" fill="#2DA98C"></circle><circle cx="642" cy="203.92" r="2.6" fill="#2DA98C"></circle><polyline fill="none" stroke="#A371F7" stroke-width="2.4" stroke-linejoin="round" stroke-linecap="round" points="56,127.86 64.75,149.85 73.49,181.76 82.24,139.24 90.99,107.36 99.73,219.97 108.48,116.3 117.22,182.89 125.97,193.78 134.72,197.11 143.46,105.85 152.21,146.07 160.96,181.42 169.7,202.88 178.45,134.79 187.19,219.07 195.94,58.83 204.69,197.05 213.43,167.66 222.18,75.26 230.93,128.5 239.67,152.23 248.42,166.9 257.16,183.57 265.91,162.79 274.66,148.18 283.4,52.43 292.15,96.59 300.9,191.76 318.39,151.86 327.13,169.19 335.88,135.22 353.37,206.77 362.12,167.88 370.87,189.32 379.61,143.76 388.36,142.49 397.1,163.7 405.85,128.52 414.6,144.9 423.34,92.3 432.09,157.36 440.84,160.21 449.58,176.32 458.33,116.21 467.07,165.98 475.82,136.47 493.31,155.12 510.81,134.62 528.3,114.6 537.04,127.72 545.79,219.84 554.54,170.06 563.28,154.88 572.03,189.66 580.78,162.21 589.52,183.03 598.27,165.52 607.01,176.75 615.76,155.74 633.25,148.44 642,196.35"></polyline><circle cx="56" cy="127.86" r="2.6" fill="#A371F7"></circle><circle cx="64.75" cy="149.85" r="2.6" fill="#A371F7"></circle><circle cx="73.49" cy="181.76" r="2.6" fill="#A371F7"></circle><circle cx="82.24" cy="139.24" r="2.6" fill="#A371F7"></circle><circle cx="90.99" cy="107.36" r="2.6" fill="#A371F7"></circle><circle cx="99.73" cy="219.97" r="2.6" fill="#A371F7"></circle><circle cx="108.48" cy="116.3" r="2.6" fill="#A371F7"></circle><circle cx="117.22" cy="182.89" r="2.6" fill="#A371F7"></circle><circle cx="125.97" cy="193.78" r="2.6" fill="#A371F7"></circle><circle cx="134.72" cy="197.11" r="2.6" fill="#A371F7"></circle><circle cx="143.46" cy="105.85" r="2.6" fill="#A371F7"></circle><circle cx="152.21" cy="146.07" r="2.6" fill="#A371F7"></circle><circle cx="160.96" cy="181.42" r="2.6" fill="#A371F7"></circle><circle cx="169.7" cy="202.88" r="2.6" fill="#A371F7"></circle><circle cx="178.45" cy="134.79" r="2.6" fill="#A371F7"></circle><circle cx="187.19" cy="219.07" r="2.6" fill="#A371F7"></circle><circle cx="195.94" cy="58.83" r="2.6" fill="#A371F7"></circle><circle cx="204.69" cy="197.05" r="2.6" fill="#A371F7"></circle><circle cx="213.43" cy="167.66" r="2.6" fill="#A371F7"></circle><circle cx="222.18" cy="75.26" r="2.6" fill="#A371F7"></circle><circle cx="230.93" cy="128.5" r="2.6" fill="#A371F7"></circle><circle cx="239.67" cy="152.23" r="2.6" fill="#A371F7"></circle><circle cx="248.42" cy="166.9" r="2.6" fill="#A371F7"></circle><circle cx="257.16" cy="183.57" r="2.6" fill="#A371F7"></circle><circle cx="265.91" cy="162.79" r="2.6" fill="#A371F7"></circle><circle cx="274.66" cy="148.18" r="2.6" fill="#A371F7"></circle><circle cx="283.4" cy="52.43" r="2.6" fill="#A371F7"></circle><circle cx="292.15" cy="96.59" r="2.6" fill="#A371F7"></circle><circle cx="300.9" cy="191.76" r="2.6" fill="#A371F7"></circle><circle cx="318.39" cy="151.86" r="2.6" fill="#A371F7"></circle><circle cx="327.13" cy="169.19" r="2.6" fill="#A371F7"></circle><circle cx="335.88" cy="135.22" r="2.6" fill="#A371F7"></circle><circle cx="353.37" cy="206.77" r="2.6" fill="#A371F7"></circle><circle cx="362.12" cy="167.88" r="2.6" fill="#A371F7"></circle><circle cx="370.87" cy="189.32" r="2.6" fill="#A371F7"></circle><circle cx="379.61" cy="143.76" r="2.6" fill="#A371F7"></circle><circle cx="388.36" cy="142.49" r="2.6" fill="#A371F7"></circle><circle cx="397.1" cy="163.7" r="2.6" fill="#A371F7"></circle><circle cx="405.85" cy="128.52" r="2.6" fill="#A371F7"></circle><circle cx="414.6" cy="144.9" r="2.6" fill="#A371F7"></circle><circle cx="423.34" cy="92.3" r="2.6" fill="#A371F7"></circle><circle cx="432.09" cy="157.36" r="2.6" fill="#A371F7"></circle><circle cx="440.84" cy="160.21" r="2.6" fill="#A371F7"></circle><circle cx="449.58" cy="176.32" r="2.6" fill="#A371F7"></circle><circle cx="458.33" cy="116.21" r="2.6" fill="#A371F7"></circle><circle cx="467.07" cy="165.98" r="2.6" fill="#A371F7"></circle><circle cx="475.82" cy="136.47" r="2.6" fill="#A371F7"></circle><circle cx="493.31" cy="155.12" r="2.6" fill="#A371F7"></circle><circle cx="510.81" cy="134.62" r="2.6" fill="#A371F7"></circle><circle cx="528.3" cy="114.6" r="2.6" fill="#A371F7"></circle><circle cx="537.04" cy="127.72" r="2.6" fill="#A371F7"></circle><circle cx="545.79" cy="219.84" r="2.6" fill="#A371F7"></circle><circle cx="554.54" cy="170.06" r="2.6" fill="#A371F7"></circle><circle cx="563.28" cy="154.88" r="2.6" fill="#A371F7"></circle><circle cx="572.03" cy="189.66" r="2.6" fill="#A371F7"></circle><circle cx="580.78" cy="162.21" r="2.6" fill="#A371F7"></circle><circle cx="589.52" cy="183.03" r="2.6" fill="#A371F7"></circle><circle cx="598.27" cy="165.52" r="2.6" fill="#A371F7"></circle><circle cx="607.01" cy="176.75" r="2.6" fill="#A371F7"></circle><circle cx="615.76" cy="155.74" r="2.6" fill="#A371F7"></circle><circle cx="633.25" cy="148.44" r="2.6" fill="#A371F7"></circle><circle cx="642" cy="196.35" r="2.6" fill="#A371F7"></circle><polyline fill="none" stroke="#F0A23B" stroke-width="2.4" stroke-linejoin="round" stroke-linecap="round" points="56,170.6 64.75,150.62 73.49,187.27 82.24,153.33 90.99,137.4 99.73,187.39 108.48,202.98 117.22,219.57 125.97,187.3 134.72,163.64 143.46,218.54 152.21,247.9 160.96,222.75 169.7,249.71 178.45,224.7 187.19,243.69 195.94,245.81 204.69,211.84 213.43,236.21 222.18,257.78 230.93,248.63 239.67,234.2 248.42,247.57 257.16,243.66 265.91,258.59 274.66,253.94 283.4,235.44 292.15,209.7 300.9,229.87 309.64,229.74 318.39,242.74 327.13,219.28 335.88,218.69 344.63,248.17 353.37,252.02 362.12,241.64 370.87,202.83 379.61,191.16 388.36,236.21 397.1,247.47 405.85,237.91 414.6,227.46 423.34,241.35 432.09,249.73 440.84,234.66 449.58,250 458.33,253.94 467.07,252.42 475.82,245.42 484.57,237.98 493.31,238.85 510.81,257.8 519.55,233.33 528.3,238.96 537.04,252.16 545.79,246.34 554.54,221.3 563.28,228.03 572.03,249.57 580.78,236.95 589.52,243.86 598.27,246.88 607.01,238.45 615.76,247.92 633.25,235.92 642,214.9"></polyline><circle cx="56" cy="170.6" r="2.6" fill="#F0A23B"></circle><circle cx="64.75" cy="150.62" r="2.6" fill="#F0A23B"></circle><circle cx="73.49" cy="187.27" r="2.6" fill="#F0A23B"></circle><circle cx="82.24" cy="153.33" r="2.6" fill="#F0A23B"></circle><circle cx="90.99" cy="137.4" r="2.6" fill="#F0A23B"></circle><circle cx="99.73" cy="187.39" r="2.6" fill="#F0A23B"></circle><circle cx="108.48" cy="202.98" r="2.6" fill="#F0A23B"></circle><circle cx="117.22" cy="219.57" r="2.6" fill="#F0A23B"></circle><circle cx="125.97" cy="187.3" r="2.6" fill="#F0A23B"></circle><circle cx="134.72" cy="163.64" r="2.6" fill="#F0A23B"></circle><circle cx="143.46" cy="218.54" r="2.6" fill="#F0A23B"></circle><circle cx="152.21" cy="247.9" r="2.6" fill="#F0A23B"></circle><circle cx="160.96" cy="222.75" r="2.6" fill="#F0A23B"></circle><circle cx="169.7" cy="249.71" r="2.6" fill="#F0A23B"></circle><circle cx="178.45" cy="224.7" r="2.6" fill="#F0A23B"></circle><circle cx="187.19" cy="243.69" r="2.6" fill="#F0A23B"></circle><circle cx="195.94" cy="245.81" r="2.6" fill="#F0A23B"></circle><circle cx="204.69" cy="211.84" r="2.6" fill="#F0A23B"></circle><circle cx="213.43" cy="236.21" r="2.6" fill="#F0A23B"></circle><circle cx="222.18" cy="257.78" r="2.6" fill="#F0A23B"></circle><circle cx="230.93" cy="248.63" r="2.6" fill="#F0A23B"></circle><circle cx="239.67" cy="234.2" r="2.6" fill="#F0A23B"></circle><circle cx="248.42" cy="247.57" r="2.6" fill="#F0A23B"></circle><circle cx="257.16" cy="243.66" r="2.6" fill="#F0A23B"></circle><circle cx="265.91" cy="258.59" r="2.6" fill="#F0A23B"></circle><circle cx="274.66" cy="253.94" r="2.6" fill="#F0A23B"></circle><circle cx="283.4" cy="235.44" r="2.6" fill="#F0A23B"></circle><circle cx="292.15" cy="209.7" r="2.6" fill="#F0A23B"></circle><circle cx="300.9" cy="229.87" r="2.6" fill="#F0A23B"></circle><circle cx="309.64" cy="229.74" r="2.6" fill="#F0A23B"></circle><circle cx="318.39" cy="242.74" r="2.6" fill="#F0A23B"></circle><circle cx="327.13" cy="219.28" r="2.6" fill="#F0A23B"></circle><circle cx="335.88" cy="218.69" r="2.6" fill="#F0A23B"></circle><circle cx="344.63" cy="248.17" r="2.6" fill="#F0A23B"></circle><circle cx="353.37" cy="252.02" r="2.6" fill="#F0A23B"></circle><circle cx="362.12" cy="241.64" r="2.6" fill="#F0A23B"></circle><circle cx="370.87" cy="202.83" r="2.6" fill="#F0A23B"></circle><circle cx="379.61" cy="191.16" r="2.6" fill="#F0A23B"></circle><circle cx="388.36" cy="236.21" r="2.6" fill="#F0A23B"></circle><circle cx="397.1" cy="247.47" r="2.6" fill="#F0A23B"></circle><circle cx="405.85" cy="237.91" r="2.6" fill="#F0A23B"></circle><circle cx="414.6" cy="227.46" r="2.6" fill="#F0A23B"></circle><circle cx="423.34" cy="241.35" r="2.6" fill="#F0A23B"></circle><circle cx="432.09" cy="249.73" r="2.6" fill="#F0A23B"></circle><circle cx="440.84" cy="234.66" r="2.6" fill="#F0A23B"></circle><circle cx="449.58" cy="250" r="2.6" fill="#F0A23B"></circle><circle cx="458.33" cy="253.94" r="2.6" fill="#F0A23B"></circle><circle cx="467.07" cy="252.42" r="2.6" fill="#F0A23B"></circle><circle cx="475.82" cy="245.42" r="2.6" fill="#F0A23B"></circle><circle cx="484.57" cy="237.98" r="2.6" fill="#F0A23B"></circle><circle cx="493.31" cy="238.85" r="2.6" fill="#F0A23B"></circle><circle cx="510.81" cy="257.8" r="2.6" fill="#F0A23B"></circle><circle cx="519.55" cy="233.33" r="2.6" fill="#F0A23B"></circle><circle cx="528.3" cy="238.96" r="2.6" fill="#F0A23B"></circle><circle cx="537.04" cy="252.16" r="2.6" fill="#F0A23B"></circle><circle cx="545.79" cy="246.34" r="2.6" fill="#F0A23B"></circle><circle cx="554.54" cy="221.3" r="2.6" fill="#F0A23B"></circle><circle cx="563.28" cy="228.03" r="2.6" fill="#F0A23B"></circle><circle cx="572.03" cy="249.57" r="2.6" fill="#F0A23B"></circle><circle cx="580.78" cy="236.95" r="2.6" fill="#F0A23B"></circle><circle cx="589.52" cy="243.86" r="2.6" fill="#F0A23B"></circle><circle cx="598.27" cy="246.88" r="2.6" fill="#F0A23B"></circle><circle cx="607.01" cy="238.45" r="2.6" fill="#F0A23B"></circle><circle cx="615.76" cy="247.92" r="2.6" fill="#F0A23B"></circle><circle cx="633.25" cy="235.92" r="2.6" fill="#F0A23B"></circle><circle cx="642" cy="214.9" r="2.6" fill="#F0A23B"></circle><polyline fill="none" stroke="#1F9CF0" stroke-width="2.4" stroke-linejoin="round" stroke-linecap="round" points="56,198.31 64.75,224.59 73.49,214.73 82.24,247.97 90.99,236.75 99.73,219.64 108.48,238.79 117.22,207.95 125.97,201.38 134.72,239.3 143.46,242.33 152.21,177.25 160.96,218.95 169.7,232.82 178.45,248.48 187.19,252.97 195.94,230.93 204.69,242.47 213.43,240.12 222.18,248.48 230.93,256.65 239.67,261.44 248.42,262.41 257.16,264.75 265.91,261.4 274.66,262.76 283.4,244.65 292.15,230.98 300.9,234.56 309.64,260.01 318.39,254.76 327.13,238.53 335.88,231.76 344.63,226.22 353.37,247.36 362.12,238.78 370.87,250.58 379.61,256.4 388.36,243.61 397.1,265.98 405.85,253.29 414.6,225.25 423.34,246.45 432.09,252.36 440.84,241.14 449.58,253.3 458.33,245.06 467.07,205.73 475.82,260.99 484.57,265.11 493.31,263.66 502.06,270.45 510.81,265.53 519.55,248.25 528.3,259.3 537.04,255.01 607.01,259.54 615.76,255.12 624.51,241.05 633.25,228.97 642,234.99"></polyline><circle cx="56" cy="198.31" r="2.6" fill="#1F9CF0"></circle><circle cx="64.75" cy="224.59" r="2.6" fill="#1F9CF0"></circle><circle cx="73.49" cy="214.73" r="2.6" fill="#1F9CF0"></circle><circle cx="82.24" cy="247.97" r="2.6" fill="#1F9CF0"></circle><circle cx="90.99" cy="236.75" r="2.6" fill="#1F9CF0"></circle><circle cx="99.73" cy="219.64" r="2.6" fill="#1F9CF0"></circle><circle cx="108.48" cy="238.79" r="2.6" fill="#1F9CF0"></circle><circle cx="117.22" cy="207.95" r="2.6" fill="#1F9CF0"></circle><circle cx="125.97" cy="201.38" r="2.6" fill="#1F9CF0"></circle><circle cx="134.72" cy="239.3" r="2.6" fill="#1F9CF0"></circle><circle cx="143.46" cy="242.33" r="2.6" fill="#1F9CF0"></circle><circle cx="152.21" cy="177.25" r="2.6" fill="#1F9CF0"></circle><circle cx="160.96" cy="218.95" r="2.6" fill="#1F9CF0"></circle><circle cx="169.7" cy="232.82" r="2.6" fill="#1F9CF0"></circle><circle cx="178.45" cy="248.48" r="2.6" fill="#1F9CF0"></circle><circle cx="187.19" cy="252.97" r="2.6" fill="#1F9CF0"></circle><circle cx="195.94" cy="230.93" r="2.6" fill="#1F9CF0"></circle><circle cx="204.69" cy="242.47" r="2.6" fill="#1F9CF0"></circle><circle cx="213.43" cy="240.12" r="2.6" fill="#1F9CF0"></circle><circle cx="222.18" cy="248.48" r="2.6" fill="#1F9CF0"></circle><circle cx="230.93" cy="256.65" r="2.6" fill="#1F9CF0"></circle><circle cx="239.67" cy="261.44" r="2.6" fill="#1F9CF0"></circle><circle cx="248.42" cy="262.41" r="2.6" fill="#1F9CF0"></circle><circle cx="257.16" cy="264.75" r="2.6" fill="#1F9CF0"></circle><circle cx="265.91" cy="261.4" r="2.6" fill="#1F9CF0"></circle><circle cx="274.66" cy="262.76" r="2.6" fill="#1F9CF0"></circle><circle cx="283.4" cy="244.65" r="2.6" fill="#1F9CF0"></circle><circle cx="292.15" cy="230.98" r="2.6" fill="#1F9CF0"></circle><circle cx="300.9" cy="234.56" r="2.6" fill="#1F9CF0"></circle><circle cx="309.64" cy="260.01" r="2.6" fill="#1F9CF0"></circle><circle cx="318.39" cy="254.76" r="2.6" fill="#1F9CF0"></circle><circle cx="327.13" cy="238.53" r="2.6" fill="#1F9CF0"></circle><circle cx="335.88" cy="231.76" r="2.6" fill="#1F9CF0"></circle><circle cx="344.63" cy="226.22" r="2.6" fill="#1F9CF0"></circle><circle cx="353.37" cy="247.36" r="2.6" fill="#1F9CF0"></circle><circle cx="362.12" cy="238.78" r="2.6" fill="#1F9CF0"></circle><circle cx="370.87" cy="250.58" r="2.6" fill="#1F9CF0"></circle><circle cx="379.61" cy="256.4" r="2.6" fill="#1F9CF0"></circle><circle cx="388.36" cy="243.61" r="2.6" fill="#1F9CF0"></circle><circle cx="397.1" cy="265.98" r="2.6" fill="#1F9CF0"></circle><circle cx="405.85" cy="253.29" r="2.6" fill="#1F9CF0"></circle><circle cx="414.6" cy="225.25" r="2.6" fill="#1F9CF0"></circle><circle cx="423.34" cy="246.45" r="2.6" fill="#1F9CF0"></circle><circle cx="432.09" cy="252.36" r="2.6" fill="#1F9CF0"></circle><circle cx="440.84" cy="241.14" r="2.6" fill="#1F9CF0"></circle><circle cx="449.58" cy="253.3" r="2.6" fill="#1F9CF0"></circle><circle cx="458.33" cy="245.06" r="2.6" fill="#1F9CF0"></circle><circle cx="467.07" cy="205.73" r="2.6" fill="#1F9CF0"></circle><circle cx="475.82" cy="260.99" r="2.6" fill="#1F9CF0"></circle><circle cx="484.57" cy="265.11" r="2.6" fill="#1F9CF0"></circle><circle cx="493.31" cy="263.66" r="2.6" fill="#1F9CF0"></circle><circle cx="502.06" cy="270.45" r="2.6" fill="#1F9CF0"></circle><circle cx="510.81" cy="265.53" r="2.6" fill="#1F9CF0"></circle><circle cx="519.55" cy="248.25" r="2.6" fill="#1F9CF0"></circle><circle cx="528.3" cy="259.3" r="2.6" fill="#1F9CF0"></circle><circle cx="537.04" cy="255.01" r="2.6" fill="#1F9CF0"></circle><circle cx="607.01" cy="259.54" r="2.6" fill="#1F9CF0"></circle><circle cx="615.76" cy="255.12" r="2.6" fill="#1F9CF0"></circle><circle cx="624.51" cy="241.05" r="2.6" fill="#1F9CF0"></circle><circle cx="633.25" cy="228.97" r="2.6" fill="#1F9CF0"></circle><circle cx="642" cy="234.99" r="2.6" fill="#1F9CF0"></circle><line x1="656" y1="27" x2="672" y2="27" stroke="#E8835A" stroke-width="3" stroke-linecap="round"></line><text x="678" y="30" font-size="11" font-weight="400" text-anchor="start" fill="#e6edf3">anthropic</text><line x1="656" y1="47" x2="672" y2="47" stroke="#6366F1" stroke-width="3" stroke-linecap="round"></line><text x="678" y="50" font-size="11" font-weight="400" text-anchor="start" fill="#e6edf3">deepseek</text><line x1="656" y1="67" x2="672" y2="67" stroke="#2DA98C" stroke-width="3" stroke-linecap="round"></line><text x="678" y="70" font-size="11" font-weight="400" text-anchor="start" fill="#e6edf3">gemini</text><line x1="656" y1="87" x2="672" y2="87" stroke="#A371F7" stroke-width="3" stroke-linecap="round"></line><text x="678" y="90" font-size="11" font-weight="400" text-anchor="start" fill="#e6edf3">llama</text><line x1="656" y1="107" x2="672" y2="107" stroke="#F0A23B" stroke-width="3" stroke-linecap="round"></line><text x="678" y="110" font-size="11" font-weight="400" text-anchor="start" fill="#e6edf3">mistral</text><line x1="656" y1="127" x2="672" y2="127" stroke="#1F9CF0" stroke-width="3" stroke-linecap="round"></line><text x="678" y="130" font-size="11" font-weight="400" text-anchor="start" fill="#e6edf3">openai</text></svg>
