<svg xmlns="http://www.w3.org/2000/svg" viewBox="0 0 760 348" width="760" height="348" role="img" aria-label="Average LLM latency by provider over runs — llama highest, deepseek lowest" font-family="-apple-system,BlinkMacSystemFont,'Segoe UI',system-ui,sans-serif"><line x1="56" y1="306" x2="642" y2="306" stroke="#d8dee4" stroke-width="1"></line><text x="46" y="310" font-size="9.5" font-weight="400" text-anchor="end" fill="#656d76" font-family="ui-monospace,SFMono-Regular,Menlo,monospace">0.0s</text><line x1="56" y1="235" x2="642" y2="235" stroke="#d8dee4" stroke-width="1"></line><text x="46" y="239" font-size="9.5" font-weight="400" text-anchor="end" fill="#656d76" font-family="ui-monospace,SFMono-Regular,Menlo,monospace">82.5s</text><line x1="56" y1="164" x2="642" y2="164" stroke="#d8dee4" stroke-width="1"></line><text x="46" y="168" font-size="9.5" font-weight="400" text-anchor="end" fill="#656d76" font-family="ui-monospace,SFMono-Regular,Menlo,monospace">165.1s</text><line x1="56" y1="93" x2="642" y2="93" stroke="#d8dee4" stroke-width="1"></line><text x="46" y="97" font-size="9.5" font-weight="400" text-anchor="end" fill="#656d76" font-family="ui-monospace,SFMono-Regular,Menlo,monospace">247.6s</text><line x1="56" y1="22" x2="642" y2="22" stroke="#d8dee4" stroke-width="1"></line><text x="46" y="26" font-size="9.5" font-weight="400" text-anchor="end" fill="#656d76" font-family="ui-monospace,SFMono-Regular,Menlo,monospace">330.2s</text><text x="56" y="324" font-size="9.5" font-weight="400" text-anchor="middle" fill="#656d76" font-family="ui-monospace,SFMono-Regular,Menlo,monospace">06/08</text><text x="105.42" y="324" font-size="9.5" font-weight="400" text-anchor="middle" fill="#656d76" font-family="ui-monospace,SFMono-Regular,Menlo,monospace">06/09</text><text x="154.84" y="324" font-size="9.5" font-weight="400" text-anchor="middle" fill="#656d76" font-family="ui-monospace,SFMono-Regular,Menlo,monospace">06/10</text><text x="204.27" y="324" font-size="9.5" font-weight="400" text-anchor="middle" fill="#656d76" font-family="ui-monospace,SFMono-Regular,Menlo,monospace">06/14</text><text x="253.69" y="324" font-size="9.5" font-weight="400" text-anchor="middle" fill="#656d76" font-family="ui-monospace,SFMono-Regular,Menlo,monospace">06/15</text><text x="303.11" y="324" font-size="9.5" font-weight="400" text-anchor="middle" fill="#656d76" font-family="ui-monospace,SFMono-Regular,Menlo,monospace">06/16</text><text x="352.53" y="324" font-size="9.5" font-weight="400" text-anchor="middle" fill="#656d76" font-family="ui-monospace,SFMono-Regular,Menlo,monospace">06/18</text><text x="401.95" y="324" font-size="9.5" font-weight="400" text-anchor="middle" fill="#656d76" font-family="ui-monospace,SFMono-Regular,Menlo,monospace">06/20</text><text x="451.37" y="324" font-size="9.5" font-weight="400" text-anchor="middle" fill="#656d76" font-family="ui-monospace,SFMono-Regular,Menlo,monospace">06/21</text><text x="500.8" y="324" font-size="9.5" font-weight="400" text-anchor="middle" fill="#656d76" font-family="ui-monospace,SFMono-Regular,Menlo,monospace">06/23</text><text x="550.22" y="324" font-size="9.5" font-weight="400" text-anchor="middle" fill="#656d76" font-family="ui-monospace,SFMono-Regular,Menlo,monospace">06/24</text><text x="599.64" y="324" font-size="9.5" font-weight="400" text-anchor="middle" fill="#656d76" font-family="ui-monospace,SFMono-Regular,Menlo,monospace">06/25</text><text x="642" y="324" font-size="9.5" font-weight="400" text-anchor="middle" fill="#656d76" font-family="ui-monospace,SFMono-Regular,Menlo,monospace">06/26</text><polyline fill="none" stroke="#E8835A" stroke-width="2.4" stroke-linejoin="round" stroke-linecap="round" points="56,229.15 63.06,232.31 70.12,238.94 77.18,244 84.24,235.49 91.3,232.81 98.36,250.28 105.42,243.38 112.48,241.66 119.54,231.14 133.66,234.04 140.72,244.32 147.78,228.71 154.84,246.08 161.9,242.18 168.96,235.58 176.02,242.32 183.08,244.55 190.14,246.98 197.2,240.71 204.27,250.83 211.33,244.26 218.39,241.33 225.45,245.63 232.51,245.02 239.57,240.82 246.63,243.78 253.69,243.28 260.75,240.2 267.81,242.69 274.87,215.59 281.93,241.79 288.99,238.64 296.05,243.45 303.11,243.86 310.17,234.8 317.23,244.51 324.29,244.64"></polyline><circle cx="56" cy="229.15" r="2.6" fill="#E8835A"></circle><circle cx="63.06" cy="232.31" r="2.6" fill="#E8835A"></circle><circle cx="70.12" cy="238.94" r="2.6" fill="#E8835A"></circle><circle cx="77.18" cy="244" r="2.6" fill="#E8835A"></circle><circle cx="84.24" cy="235.49" r="2.6" fill="#E8835A"></circle><circle cx="91.3" cy="232.81" r="2.6" fill="#E8835A"></circle><circle cx="98.36" cy="250.28" r="2.6" fill="#E8835A"></circle><circle cx="105.42" cy="243.38" r="2.6" fill="#E8835A"></circle><circle cx="112.48" cy="241.66" r="2.6" fill="#E8835A"></circle><circle cx="119.54" cy="231.14" r="2.6" fill="#E8835A"></circle><circle cx="133.66" cy="234.04" r="2.6" fill="#E8835A"></circle><circle cx="140.72" cy="244.32" r="2.6" fill="#E8835A"></circle><circle cx="147.78" cy="228.71" r="2.6" fill="#E8835A"></circle><circle cx="154.84" cy="246.08" r="2.6" fill="#E8835A"></circle><circle cx="161.9" cy="242.18" r="2.6" fill="#E8835A"></circle><circle cx="168.96" cy="235.58" r="2.6" fill="#E8835A"></circle><circle cx="176.02" cy="242.32" r="2.6" fill="#E8835A"></circle><circle cx="183.08" cy="244.55" r="2.6" fill="#E8835A"></circle><circle cx="190.14" cy="246.98" r="2.6" fill="#E8835A"></circle><circle cx="197.2" cy="240.71" r="2.6" fill="#E8835A"></circle><circle cx="204.27" cy="250.83" r="2.6" fill="#E8835A"></circle><circle cx="211.33" cy="244.26" r="2.6" fill="#E8835A"></circle><circle cx="218.39" cy="241.33" r="2.6" fill="#E8835A"></circle><circle cx="225.45" cy="245.63" r="2.6" fill="#E8835A"></circle><circle cx="232.51" cy="245.02" r="2.6" fill="#E8835A"></circle><circle cx="239.57" cy="240.82" r="2.6" fill="#E8835A"></circle><circle cx="246.63" cy="243.78" r="2.6" fill="#E8835A"></circle><circle cx="253.69" cy="243.28" r="2.6" fill="#E8835A"></circle><circle cx="260.75" cy="240.2" r="2.6" fill="#E8835A"></circle><circle cx="267.81" cy="242.69" r="2.6" fill="#E8835A"></circle><circle cx="274.87" cy="215.59" r="2.6" fill="#E8835A"></circle><circle cx="281.93" cy="241.79" r="2.6" fill="#E8835A"></circle><circle cx="288.99" cy="238.64" r="2.6" fill="#E8835A"></circle><circle cx="296.05" cy="243.45" r="2.6" fill="#E8835A"></circle><circle cx="303.11" cy="243.86" r="2.6" fill="#E8835A"></circle><circle cx="310.17" cy="234.8" r="2.6" fill="#E8835A"></circle><circle cx="317.23" cy="244.51" r="2.6" fill="#E8835A"></circle><circle cx="324.29" cy="244.64" r="2.6" fill="#E8835A"></circle><polyline fill="none" stroke="#6366F1" stroke-width="2.4" stroke-linejoin="round" stroke-linecap="round" points="63.06,247.24 70.12,242.4 77.18,249.98 84.24,230.48 91.3,260.21 98.36,260.34 105.42,270.44 112.48,248.92 119.54,245.19 126.6,247.83 133.66,256.22 140.72,248.72 147.78,261.47 154.84,243.58 161.9,210.49 168.96,266.33 176.02,232.33 183.08,232.27 190.14,199.16 197.2,237.91 204.27,252.97 211.33,266.11 218.39,215.25 225.45,265.97 232.51,258.25 239.57,265.82 246.63,246.69 253.69,244.53 267.81,240.91 274.87,255.51 281.93,252.51 288.99,237.2 296.05,258.24 303.11,235.84 310.17,252.87 317.23,243.73 324.29,249.01 338.41,263.05 345.47,262.95 352.53,250.85 359.59,238.76 366.65,245.84 373.71,240.49 380.77,244.58 387.83,238.25 394.89,266.43 401.95,219.91 409.01,256.77 423.13,250.11 430.19,264.15 437.25,249.18 444.31,252.64 451.37,236.94 458.43,257.91 465.49,245.05 472.55,245.47 479.61,251.25 486.67,250.75 493.73,249.01 500.8,257.36 507.86,265.15 514.92,253.64 521.98,262.66 529.04,253.56 536.1,247.85 543.16,241.21 550.22,265.06 557.28,257.2 564.34,265.73 571.4,265.31 578.46,250.21 585.52,257.28 592.58,263.83 599.64,234.88 606.7,237.89 613.76,243.4 620.82,250.16 634.94,242.96 642,241.52"></polyline><circle cx="63.06" cy="247.24" r="2.6" fill="#6366F1"></circle><circle cx="70.12" cy="242.4" r="2.6" fill="#6366F1"></circle><circle cx="77.18" cy="249.98" r="2.6" fill="#6366F1"></circle><circle cx="84.24" cy="230.48" r="2.6" fill="#6366F1"></circle><circle cx="91.3" cy="260.21" r="2.6" fill="#6366F1"></circle><circle cx="98.36" cy="260.34" r="2.6" fill="#6366F1"></circle><circle cx="105.42" cy="270.44" r="2.6" fill="#6366F1"></circle><circle cx="112.48" cy="248.92" r="2.6" fill="#6366F1"></circle><circle cx="119.54" cy="245.19" r="2.6" fill="#6366F1"></circle><circle cx="126.6" cy="247.83" r="2.6" fill="#6366F1"></circle><circle cx="133.66" cy="256.22" r="2.6" fill="#6366F1"></circle><circle cx="140.72" cy="248.72" r="2.6" fill="#6366F1"></circle><circle cx="147.78" cy="261.47" r="2.6" fill="#6366F1"></circle><circle cx="154.84" cy="243.58" r="2.6" fill="#6366F1"></circle><circle cx="161.9" cy="210.49" r="2.6" fill="#6366F1"></circle><circle cx="168.96" cy="266.33" r="2.6" fill="#6366F1"></circle><circle cx="176.02" cy="232.33" r="2.6" fill="#6366F1"></circle><circle cx="183.08" cy="232.27" r="2.6" fill="#6366F1"></circle><circle cx="190.14" cy="199.16" r="2.6" fill="#6366F1"></circle><circle cx="197.2" cy="237.91" r="2.6" fill="#6366F1"></circle><circle cx="204.27" cy="252.97" r="2.6" fill="#6366F1"></circle><circle cx="211.33" cy="266.11" r="2.6" fill="#6366F1"></circle><circle cx="218.39" cy="215.25" r="2.6" fill="#6366F1"></circle><circle cx="225.45" cy="265.97" r="2.6" fill="#6366F1"></circle><circle cx="232.51" cy="258.25" r="2.6" fill="#6366F1"></circle><circle cx="239.57" cy="265.82" r="2.6" fill="#6366F1"></circle><circle cx="246.63" cy="246.69" r="2.6" fill="#6366F1"></circle><circle cx="253.69" cy="244.53" r="2.6" fill="#6366F1"></circle><circle cx="267.81" cy="240.91" r="2.6" fill="#6366F1"></circle><circle cx="274.87" cy="255.51" r="2.6" fill="#6366F1"></circle><circle cx="281.93" cy="252.51" r="2.6" fill="#6366F1"></circle><circle cx="288.99" cy="237.2" r="2.6" fill="#6366F1"></circle><circle cx="296.05" cy="258.24" r="2.6" fill="#6366F1"></circle><circle cx="303.11" cy="235.84" r="2.6" fill="#6366F1"></circle><circle cx="310.17" cy="252.87" r="2.6" fill="#6366F1"></circle><circle cx="317.23" cy="243.73" r="2.6" fill="#6366F1"></circle><circle cx="324.29" cy="249.01" r="2.6" fill="#6366F1"></circle><circle cx="338.41" cy="263.05" r="2.6" fill="#6366F1"></circle><circle cx="345.47" cy="262.95" r="2.6" fill="#6366F1"></circle><circle cx="352.53" cy="250.85" r="2.6" fill="#6366F1"></circle><circle cx="359.59" cy="238.76" r="2.6" fill="#6366F1"></circle><circle cx="366.65" cy="245.84" r="2.6" fill="#6366F1"></circle><circle cx="373.71" cy="240.49" r="2.6" fill="#6366F1"></circle><circle cx="380.77" cy="244.58" r="2.6" fill="#6366F1"></circle><circle cx="387.83" cy="238.25" r="2.6" fill="#6366F1"></circle><circle cx="394.89" cy="266.43" r="2.6" fill="#6366F1"></circle><circle cx="401.95" cy="219.91" r="2.6" fill="#6366F1"></circle><circle cx="409.01" cy="256.77" r="2.6" fill="#6366F1"></circle><circle cx="423.13" cy="250.11" r="2.6" fill="#6366F1"></circle><circle cx="430.19" cy="264.15" r="2.6" fill="#6366F1"></circle><circle cx="437.25" cy="249.18" r="2.6" fill="#6366F1"></circle><circle cx="444.31" cy="252.64" r="2.6" fill="#6366F1"></circle><circle cx="451.37" cy="236.94" r="2.6" fill="#6366F1"></circle><circle cx="458.43" cy="257.91" r="2.6" fill="#6366F1"></circle><circle cx="465.49" cy="245.05" r="2.6" fill="#6366F1"></circle><circle cx="472.55" cy="245.47" r="2.6" fill="#6366F1"></circle><circle cx="479.61" cy="251.25" r="2.6" fill="#6366F1"></circle><circle cx="486.67" cy="250.75" r="2.6" fill="#6366F1"></circle><circle cx="493.73" cy="249.01" r="2.6" fill="#6366F1"></circle><circle cx="500.8" cy="257.36" r="2.6" fill="#6366F1"></circle><circle cx="507.86" cy="265.15" r="2.6" fill="#6366F1"></circle><circle cx="514.92" cy="253.64" r="2.6" fill="#6366F1"></circle><circle cx="521.98" cy="262.66" r="2.6" fill="#6366F1"></circle><circle cx="529.04" cy="253.56" r="2.6" fill="#6366F1"></circle><circle cx="536.1" cy="247.85" r="2.6" fill="#6366F1"></circle><circle cx="543.16" cy="241.21" r="2.6" fill="#6366F1"></circle><circle cx="550.22" cy="265.06" r="2.6" fill="#6366F1"></circle><circle cx="557.28" cy="257.2" r="2.6" fill="#6366F1"></circle><circle cx="564.34" cy="265.73" r="2.6" fill="#6366F1"></circle><circle cx="571.4" cy="265.31" r="2.6" fill="#6366F1"></circle><circle cx="578.46" cy="250.21" r="2.6" fill="#6366F1"></circle><circle cx="585.52" cy="257.28" r="2.6" fill="#6366F1"></circle><circle cx="592.58" cy="263.83" r="2.6" fill="#6366F1"></circle><circle cx="599.64" cy="234.88" r="2.6" fill="#6366F1"></circle><circle cx="606.7" cy="237.89" r="2.6" fill="#6366F1"></circle><circle cx="613.76" cy="243.4" r="2.6" fill="#6366F1"></circle><circle cx="620.82" cy="250.16" r="2.6" fill="#6366F1"></circle><circle cx="634.94" cy="242.96" r="2.6" fill="#6366F1"></circle><circle cx="642" cy="241.52" r="2.6" fill="#6366F1"></circle><polyline fill="none" stroke="#2DA98C" stroke-width="2.4" stroke-linejoin="round" stroke-linecap="round" points="56,205.26 63.06,215.39 70.12,174.15 77.18,217.56 84.24,218.68 91.3,227.57 98.36,203.76 105.42,192.14 112.48,215.35 119.54,194.78 126.6,194.92 133.66,141.5 140.72,148.87 147.78,194.84 154.84,180.85 161.9,202.09 168.96,169.08 176.02,211.29 183.08,193.77 190.14,192.04 197.2,206.61 267.81,221.15 274.87,190.23 281.93,183.33 288.99,225.15 296.05,184.37 303.11,182.1 310.17,210.86 317.23,161.53 324.29,210.56 338.41,182.01 345.47,172.32 352.53,181.93 359.59,186.76 366.65,217.59 373.71,171.76 380.77,211.13 387.83,171.55 394.89,181.17 401.95,189.96 409.01,191.02 423.13,212.98 430.19,170.09 437.25,127.97 444.31,222.7 451.37,200.4 458.43,155.75 465.49,184.88 472.55,176.48 479.61,167.89 486.67,205.24 493.73,167.24 500.8,154.57 507.86,196.61 514.92,154.13 521.98,196.6 529.04,203.92 536.1,125.1 543.16,151.41 550.22,176.39 557.28,198.69"></polyline><circle cx="56" cy="205.26" r="2.6" fill="#2DA98C"></circle><circle cx="63.06" cy="215.39" r="2.6" fill="#2DA98C"></circle><circle cx="70.12" cy="174.15" r="2.6" fill="#2DA98C"></circle><circle cx="77.18" cy="217.56" r="2.6" fill="#2DA98C"></circle><circle cx="84.24" cy="218.68" r="2.6" fill="#2DA98C"></circle><circle cx="91.3" cy="227.57" r="2.6" fill="#2DA98C"></circle><circle cx="98.36" cy="203.76" r="2.6" fill="#2DA98C"></circle><circle cx="105.42" cy="192.14" r="2.6" fill="#2DA98C"></circle><circle cx="112.48" cy="215.35" r="2.6" fill="#2DA98C"></circle><circle cx="119.54" cy="194.78" r="2.6" fill="#2DA98C"></circle><circle cx="126.6" cy="194.92" r="2.6" fill="#2DA98C"></circle><circle cx="133.66" cy="141.5" r="2.6" fill="#2DA98C"></circle><circle cx="140.72" cy="148.87" r="2.6" fill="#2DA98C"></circle><circle cx="147.78" cy="194.84" r="2.6" fill="#2DA98C"></circle><circle cx="154.84" cy="180.85" r="2.6" fill="#2DA98C"></circle><circle cx="161.9" cy="202.09" r="2.6" fill="#2DA98C"></circle><circle cx="168.96" cy="169.08" r="2.6" fill="#2DA98C"></circle><circle cx="176.02" cy="211.29" r="2.6" fill="#2DA98C"></circle><circle cx="183.08" cy="193.77" r="2.6" fill="#2DA98C"></circle><circle cx="190.14" cy="192.04" r="2.6" fill="#2DA98C"></circle><circle cx="197.2" cy="206.61" r="2.6" fill="#2DA98C"></circle><circle cx="267.81" cy="221.15" r="2.6" fill="#2DA98C"></circle><circle cx="274.87" cy="190.23" r="2.6" fill="#2DA98C"></circle><circle cx="281.93" cy="183.33" r="2.6" fill="#2DA98C"></circle><circle cx="288.99" cy="225.15" r="2.6" fill="#2DA98C"></circle><circle cx="296.05" cy="184.37" r="2.6" fill="#2DA98C"></circle><circle cx="303.11" cy="182.1" r="2.6" fill="#2DA98C"></circle><circle cx="310.17" cy="210.86" r="2.6" fill="#2DA98C"></circle><circle cx="317.23" cy="161.53" r="2.6" fill="#2DA98C"></circle><circle cx="324.29" cy="210.56" r="2.6" fill="#2DA98C"></circle><circle cx="338.41" cy="182.01" r="2.6" fill="#2DA98C"></circle><circle cx="345.47" cy="172.32" r="2.6" fill="#2DA98C"></circle><circle cx="352.53" cy="181.93" r="2.6" fill="#2DA98C"></circle><circle cx="359.59" cy="186.76" r="2.6" fill="#2DA98C"></circle><circle cx="366.65" cy="217.59" r="2.6" fill="#2DA98C"></circle><circle cx="373.71" cy="171.76" r="2.6" fill="#2DA98C"></circle><circle cx="380.77" cy="211.13" r="2.6" fill="#2DA98C"></circle><circle cx="387.83" cy="171.55" r="2.6" fill="#2DA98C"></circle><circle cx="394.89" cy="181.17" r="2.6" fill="#2DA98C"></circle><circle cx="401.95" cy="189.96" r="2.6" fill="#2DA98C"></circle><circle cx="409.01" cy="191.02" r="2.6" fill="#2DA98C"></circle><circle cx="423.13" cy="212.98" r="2.6" fill="#2DA98C"></circle><circle cx="430.19" cy="170.09" r="2.6" fill="#2DA98C"></circle><circle cx="437.25" cy="127.97" r="2.6" fill="#2DA98C"></circle><circle cx="444.31" cy="222.7" r="2.6" fill="#2DA98C"></circle><circle cx="451.37" cy="200.4" r="2.6" fill="#2DA98C"></circle><circle cx="458.43" cy="155.75" r="2.6" fill="#2DA98C"></circle><circle cx="465.49" cy="184.88" r="2.6" fill="#2DA98C"></circle><circle cx="472.55" cy="176.48" r="2.6" fill="#2DA98C"></circle><circle cx="479.61" cy="167.89" r="2.6" fill="#2DA98C"></circle><circle cx="486.67" cy="205.24" r="2.6" fill="#2DA98C"></circle><circle cx="493.73" cy="167.24" r="2.6" fill="#2DA98C"></circle><circle cx="500.8" cy="154.57" r="2.6" fill="#2DA98C"></circle><circle cx="507.86" cy="196.61" r="2.6" fill="#2DA98C"></circle><circle cx="514.92" cy="154.13" r="2.6" fill="#2DA98C"></circle><circle cx="521.98" cy="196.6" r="2.6" fill="#2DA98C"></circle><circle cx="529.04" cy="203.92" r="2.6" fill="#2DA98C"></circle><circle cx="536.1" cy="125.1" r="2.6" fill="#2DA98C"></circle><circle cx="543.16" cy="151.41" r="2.6" fill="#2DA98C"></circle><circle cx="550.22" cy="176.39" r="2.6" fill="#2DA98C"></circle><circle cx="557.28" cy="198.69" r="2.6" fill="#2DA98C"></circle><polyline fill="none" stroke="#A371F7" stroke-width="2.4" stroke-linejoin="round" stroke-linecap="round" points="56,127.86 63.06,149.85 70.12,181.76 77.18,139.24 84.24,107.36 91.3,219.97 98.36,116.3 105.42,182.89 112.48,193.78 119.54,197.11 126.6,105.85 133.66,146.07 140.72,181.42 147.78,202.88 154.84,134.79 161.9,219.07 168.96,58.83 176.02,197.05 183.08,167.66 190.14,75.26 197.2,128.5 204.27,152.23 211.33,166.9 218.39,183.57 225.45,162.79 232.51,148.18 239.57,52.43 246.63,96.59 253.69,191.76 267.81,151.86 274.87,169.19 281.93,135.22 296.05,206.77 303.11,167.88 310.17,189.32 317.23,143.76 324.29,142.49 331.35,163.7 338.41,128.52 345.47,144.9 352.53,92.3 359.59,157.36 366.65,160.21 373.71,176.32 380.77,116.21 387.83,165.98 394.89,136.47 409.01,155.12 423.13,134.62 437.25,114.6 444.31,127.72 451.37,219.84 458.43,170.06 465.49,154.88 472.55,189.66 479.61,162.21 486.67,183.03 493.73,165.52 500.8,176.75 507.86,155.74 521.98,148.44 529.04,196.35 536.1,143.94 543.16,112.27 550.22,149.32 557.28,161.5 564.34,199.8 571.4,197.27 578.46,116.93 585.52,119.32 592.58,194.29 599.64,111.88 606.7,156.63 620.82,203.96 634.94,124.08 642,218.73"></polyline><circle cx="56" cy="127.86" r="2.6" fill="#A371F7"></circle><circle cx="63.06" cy="149.85" r="2.6" fill="#A371F7"></circle><circle cx="70.12" cy="181.76" r="2.6" fill="#A371F7"></circle><circle cx="77.18" cy="139.24" r="2.6" fill="#A371F7"></circle><circle cx="84.24" cy="107.36" r="2.6" fill="#A371F7"></circle><circle cx="91.3" cy="219.97" r="2.6" fill="#A371F7"></circle><circle cx="98.36" cy="116.3" r="2.6" fill="#A371F7"></circle><circle cx="105.42" cy="182.89" r="2.6" fill="#A371F7"></circle><circle cx="112.48" cy="193.78" r="2.6" fill="#A371F7"></circle><circle cx="119.54" cy="197.11" r="2.6" fill="#A371F7"></circle><circle cx="126.6" cy="105.85" r="2.6" fill="#A371F7"></circle><circle cx="133.66" cy="146.07" r="2.6" fill="#A371F7"></circle><circle cx="140.72" cy="181.42" r="2.6" fill="#A371F7"></circle><circle cx="147.78" cy="202.88" r="2.6" fill="#A371F7"></circle><circle cx="154.84" cy="134.79" r="2.6" fill="#A371F7"></circle><circle cx="161.9" cy="219.07" r="2.6" fill="#A371F7"></circle><circle cx="168.96" cy="58.83" r="2.6" fill="#A371F7"></circle><circle cx="176.02" cy="197.05" r="2.6" fill="#A371F7"></circle><circle cx="183.08" cy="167.66" r="2.6" fill="#A371F7"></circle><circle cx="190.14" cy="75.26" r="2.6" fill="#A371F7"></circle><circle cx="197.2" cy="128.5" r="2.6" fill="#A371F7"></circle><circle cx="204.27" cy="152.23" r="2.6" fill="#A371F7"></circle><circle cx="211.33" cy="166.9" r="2.6" fill="#A371F7"></circle><circle cx="218.39" cy="183.57" r="2.6" fill="#A371F7"></circle><circle cx="225.45" cy="162.79" r="2.6" fill="#A371F7"></circle><circle cx="232.51" cy="148.18" r="2.6" fill="#A371F7"></circle><circle cx="239.57" cy="52.43" r="2.6" fill="#A371F7"></circle><circle cx="246.63" cy="96.59" r="2.6" fill="#A371F7"></circle><circle cx="253.69" cy="191.76" r="2.6" fill="#A371F7"></circle><circle cx="267.81" cy="151.86" r="2.6" fill="#A371F7"></circle><circle cx="274.87" cy="169.19" r="2.6" fill="#A371F7"></circle><circle cx="281.93" cy="135.22" r="2.6" fill="#A371F7"></circle><circle cx="296.05" cy="206.77" r="2.6" fill="#A371F7"></circle><circle cx="303.11" cy="167.88" r="2.6" fill="#A371F7"></circle><circle cx="310.17" cy="189.32" r="2.6" fill="#A371F7"></circle><circle cx="317.23" cy="143.76" r="2.6" fill="#A371F7"></circle><circle cx="324.29" cy="142.49" r="2.6" fill="#A371F7"></circle><circle cx="331.35" cy="163.7" r="2.6" fill="#A371F7"></circle><circle cx="338.41" cy="128.52" r="2.6" fill="#A371F7"></circle><circle cx="345.47" cy="144.9" r="2.6" fill="#A371F7"></circle><circle cx="352.53" cy="92.3" r="2.6" fill="#A371F7"></circle><circle cx="359.59" cy="157.36" r="2.6" fill="#A371F7"></circle><circle cx="366.65" cy="160.21" r="2.6" fill="#A371F7"></circle><circle cx="373.71" cy="176.32" r="2.6" fill="#A371F7"></circle><circle cx="380.77" cy="116.21" r="2.6" fill="#A371F7"></circle><circle cx="387.83" cy="165.98" r="2.6" fill="#A371F7"></circle><circle cx="394.89" cy="136.47" r="2.6" fill="#A371F7"></circle><circle cx="409.01" cy="155.12" r="2.6" fill="#A371F7"></circle><circle cx="423.13" cy="134.62" r="2.6" fill="#A371F7"></circle><circle cx="437.25" cy="114.6" r="2.6" fill="#A371F7"></circle><circle cx="444.31" cy="127.72" r="2.6" fill="#A371F7"></circle><circle cx="451.37" cy="219.84" r="2.6" fill="#A371F7"></circle><circle cx="458.43" cy="170.06" r="2.6" fill="#A371F7"></circle><circle cx="465.49" cy="154.88" r="2.6" fill="#A371F7"></circle><circle cx="472.55" cy="189.66" r="2.6" fill="#A371F7"></circle><circle cx="479.61" cy="162.21" r="2.6" fill="#A371F7"></circle><circle cx="486.67" cy="183.03" r="2.6" fill="#A371F7"></circle><circle cx="493.73" cy="165.52" r="2.6" fill="#A371F7"></circle><circle cx="500.8" cy="176.75" r="2.6" fill="#A371F7"></circle><circle cx="507.86" cy="155.74" r="2.6" fill="#A371F7"></circle><circle cx="521.98" cy="148.44" r="2.6" fill="#A371F7"></circle><circle cx="529.04" cy="196.35" r="2.6" fill="#A371F7"></circle><circle cx="536.1" cy="143.94" r="2.6" fill="#A371F7"></circle><circle cx="543.16" cy="112.27" r="2.6" fill="#A371F7"></circle><circle cx="550.22" cy="149.32" r="2.6" fill="#A371F7"></circle><circle cx="557.28" cy="161.5" r="2.6" fill="#A371F7"></circle><circle cx="564.34" cy="199.8" r="2.6" fill="#A371F7"></circle><circle cx="571.4" cy="197.27" r="2.6" fill="#A371F7"></circle><circle cx="578.46" cy="116.93" r="2.6" fill="#A371F7"></circle><circle cx="585.52" cy="119.32" r="2.6" fill="#A371F7"></circle><circle cx="592.58" cy="194.29" r="2.6" fill="#A371F7"></circle><circle cx="599.64" cy="111.88" r="2.6" fill="#A371F7"></circle><circle cx="606.7" cy="156.63" r="2.6" fill="#A371F7"></circle><circle cx="620.82" cy="203.96" r="2.6" fill="#A371F7"></circle><circle cx="634.94" cy="124.08" r="2.6" fill="#A371F7"></circle><circle cx="642" cy="218.73" r="2.6" fill="#A371F7"></circle><polyline fill="none" stroke="#F0A23B" stroke-width="2.4" stroke-linejoin="round" stroke-linecap="round" points="56,170.6 63.06,150.62 70.12,187.27 77.18,153.33 84.24,137.4 91.3,187.39 98.36,202.98 105.42,219.57 112.48,187.3 119.54,163.64 126.6,218.54 133.66,247.9 140.72,222.75 147.78,249.71 154.84,224.7 161.9,243.69 168.96,245.81 176.02,211.84 183.08,236.21 190.14,257.78 197.2,248.63 204.27,234.2 211.33,247.57 218.39,243.66 225.45,258.59 232.51,253.94 239.57,235.44 246.63,209.7 253.69,229.87 260.75,229.74 267.81,242.74 274.87,219.28 281.93,218.69 288.99,248.17 296.05,252.02 303.11,241.64 310.17,202.83 317.23,191.16 324.29,236.21 331.35,247.47 338.41,237.91 345.47,227.46 352.53,241.35 359.59,249.73 366.65,234.66 373.71,250 380.77,253.94 387.83,252.42 394.89,245.42 401.95,237.98 409.01,238.85 423.13,257.8 430.19,233.33 437.25,238.96 444.31,252.16 451.37,246.34 458.43,221.3 465.49,228.03 472.55,249.57 479.61,236.95 486.67,243.86 493.73,246.88 500.8,238.45 507.86,247.92 521.98,235.92 529.04,214.9 536.1,201.77 543.16,219.97 550.22,238.65 557.28,232.47 564.34,220.62 571.4,227.53 578.46,228.6 585.52,243.21 592.58,241.59 599.64,193.22 606.7,249 620.82,229.2 627.88,229.67 634.94,228.2 642,240.93"></polyline><circle cx="56" cy="170.6" r="2.6" fill="#F0A23B"></circle><circle cx="63.06" cy="150.62" r="2.6" fill="#F0A23B"></circle><circle cx="70.12" cy="187.27" r="2.6" fill="#F0A23B"></circle><circle cx="77.18" cy="153.33" r="2.6" fill="#F0A23B"></circle><circle cx="84.24" cy="137.4" r="2.6" fill="#F0A23B"></circle><circle cx="91.3" cy="187.39" r="2.6" fill="#F0A23B"></circle><circle cx="98.36" cy="202.98" r="2.6" fill="#F0A23B"></circle><circle cx="105.42" cy="219.57" r="2.6" fill="#F0A23B"></circle><circle cx="112.48" cy="187.3" r="2.6" fill="#F0A23B"></circle><circle cx="119.54" cy="163.64" r="2.6" fill="#F0A23B"></circle><circle cx="126.6" cy="218.54" r="2.6" fill="#F0A23B"></circle><circle cx="133.66" cy="247.9" r="2.6" fill="#F0A23B"></circle><circle cx="140.72" cy="222.75" r="2.6" fill="#F0A23B"></circle><circle cx="147.78" cy="249.71" r="2.6" fill="#F0A23B"></circle><circle cx="154.84" cy="224.7" r="2.6" fill="#F0A23B"></circle><circle cx="161.9" cy="243.69" r="2.6" fill="#F0A23B"></circle><circle cx="168.96" cy="245.81" r="2.6" fill="#F0A23B"></circle><circle cx="176.02" cy="211.84" r="2.6" fill="#F0A23B"></circle><circle cx="183.08" cy="236.21" r="2.6" fill="#F0A23B"></circle><circle cx="190.14" cy="257.78" r="2.6" fill="#F0A23B"></circle><circle cx="197.2" cy="248.63" r="2.6" fill="#F0A23B"></circle><circle cx="204.27" cy="234.2" r="2.6" fill="#F0A23B"></circle><circle cx="211.33" cy="247.57" r="2.6" fill="#F0A23B"></circle><circle cx="218.39" cy="243.66" r="2.6" fill="#F0A23B"></circle><circle cx="225.45" cy="258.59" r="2.6" fill="#F0A23B"></circle><circle cx="232.51" cy="253.94" r="2.6" fill="#F0A23B"></circle><circle cx="239.57" cy="235.44" r="2.6" fill="#F0A23B"></circle><circle cx="246.63" cy="209.7" r="2.6" fill="#F0A23B"></circle><circle cx="253.69" cy="229.87" r="2.6" fill="#F0A23B"></circle><circle cx="260.75" cy="229.74" r="2.6" fill="#F0A23B"></circle><circle cx="267.81" cy="242.74" r="2.6" fill="#F0A23B"></circle><circle cx="274.87" cy="219.28" r="2.6" fill="#F0A23B"></circle><circle cx="281.93" cy="218.69" r="2.6" fill="#F0A23B"></circle><circle cx="288.99" cy="248.17" r="2.6" fill="#F0A23B"></circle><circle cx="296.05" cy="252.02" r="2.6" fill="#F0A23B"></circle><circle cx="303.11" cy="241.64" r="2.6" fill="#F0A23B"></circle><circle cx="310.17" cy="202.83" r="2.6" fill="#F0A23B"></circle><circle cx="317.23" cy="191.16" r="2.6" fill="#F0A23B"></circle><circle cx="324.29" cy="236.21" r="2.6" fill="#F0A23B"></circle><circle cx="331.35" cy="247.47" r="2.6" fill="#F0A23B"></circle><circle cx="338.41" cy="237.91" r="2.6" fill="#F0A23B"></circle><circle cx="345.47" cy="227.46" r="2.6" fill="#F0A23B"></circle><circle cx="352.53" cy="241.35" r="2.6" fill="#F0A23B"></circle><circle cx="359.59" cy="249.73" r="2.6" fill="#F0A23B"></circle><circle cx="366.65" cy="234.66" r="2.6" fill="#F0A23B"></circle><circle cx="373.71" cy="250" r="2.6" fill="#F0A23B"></circle><circle cx="380.77" cy="253.94" r="2.6" fill="#F0A23B"></circle><circle cx="387.83" cy="252.42" r="2.6" fill="#F0A23B"></circle><circle cx="394.89" cy="245.42" r="2.6" fill="#F0A23B"></circle><circle cx="401.95" cy="237.98" r="2.6" fill="#F0A23B"></circle><circle cx="409.01" cy="238.85" r="2.6" fill="#F0A23B"></circle><circle cx="423.13" cy="257.8" r="2.6" fill="#F0A23B"></circle><circle cx="430.19" cy="233.33" r="2.6" fill="#F0A23B"></circle><circle cx="437.25" cy="238.96" r="2.6" fill="#F0A23B"></circle><circle cx="444.31" cy="252.16" r="2.6" fill="#F0A23B"></circle><circle cx="451.37" cy="246.34" r="2.6" fill="#F0A23B"></circle><circle cx="458.43" cy="221.3" r="2.6" fill="#F0A23B"></circle><circle cx="465.49" cy="228.03" r="2.6" fill="#F0A23B"></circle><circle cx="472.55" cy="249.57" r="2.6" fill="#F0A23B"></circle><circle cx="479.61" cy="236.95" r="2.6" fill="#F0A23B"></circle><circle cx="486.67" cy="243.86" r="2.6" fill="#F0A23B"></circle><circle cx="493.73" cy="246.88" r="2.6" fill="#F0A23B"></circle><circle cx="500.8" cy="238.45" r="2.6" fill="#F0A23B"></circle><circle cx="507.86" cy="247.92" r="2.6" fill="#F0A23B"></circle><circle cx="521.98" cy="235.92" r="2.6" fill="#F0A23B"></circle><circle cx="529.04" cy="214.9" r="2.6" fill="#F0A23B"></circle><circle cx="536.1" cy="201.77" r="2.6" fill="#F0A23B"></circle><circle cx="543.16" cy="219.97" r="2.6" fill="#F0A23B"></circle><circle cx="550.22" cy="238.65" r="2.6" fill="#F0A23B"></circle><circle cx="557.28" cy="232.47" r="2.6" fill="#F0A23B"></circle><circle cx="564.34" cy="220.62" r="2.6" fill="#F0A23B"></circle><circle cx="571.4" cy="227.53" r="2.6" fill="#F0A23B"></circle><circle cx="578.46" cy="228.6" r="2.6" fill="#F0A23B"></circle><circle cx="585.52" cy="243.21" r="2.6" fill="#F0A23B"></circle><circle cx="592.58" cy="241.59" r="2.6" fill="#F0A23B"></circle><circle cx="599.64" cy="193.22" r="2.6" fill="#F0A23B"></circle><circle cx="606.7" cy="249" r="2.6" fill="#F0A23B"></circle><circle cx="620.82" cy="229.2" r="2.6" fill="#F0A23B"></circle><circle cx="627.88" cy="229.67" r="2.6" fill="#F0A23B"></circle><circle cx="634.94" cy="228.2" r="2.6" fill="#F0A23B"></circle><circle cx="642" cy="240.93" r="2.6" fill="#F0A23B"></circle><polyline fill="none" stroke="#1F9CF0" stroke-width="2.4" stroke-linejoin="round" stroke-linecap="round" points="56,198.31 63.06,224.59 70.12,214.73 77.18,247.97 84.24,236.75 91.3,219.64 98.36,238.79 105.42,207.95 112.48,201.38 119.54,239.3 126.6,242.33 133.66,177.25 140.72,218.95 147.78,232.82 154.84,248.48 161.9,252.97 168.96,230.93 176.02,242.47 183.08,240.12 190.14,248.48 197.2,256.65 204.27,261.44 211.33,262.41 218.39,264.75 225.45,261.4 232.51,262.76 239.57,244.65 246.63,230.98 253.69,234.56 260.75,260.01 267.81,254.76 274.87,238.53 281.93,231.76 288.99,226.22 296.05,247.36 303.11,238.78 310.17,250.58 317.23,256.4 324.29,243.61 331.35,265.98 338.41,253.29 345.47,225.25 352.53,246.45 359.59,252.36 366.65,241.14 373.71,253.3 380.77,245.06 387.83,205.73 394.89,260.99 401.95,265.11 409.01,263.66 416.07,270.45 423.13,265.53 430.19,248.25 437.25,259.3 444.31,255.01 500.8,259.54 507.86,255.12 514.92,241.05 521.98,228.97 529.04,234.99 536.1,233 543.16,242.76 550.22,238.49 557.28,251.01 564.34,203.87 571.4,219.17 578.46,100.57 585.52,239.75 592.58,232.97 599.64,241.63 606.7,251.46 613.76,254.09 620.82,215.86 627.88,260.98 634.94,227.24 642,269.59"></polyline><circle cx="56" cy="198.31" r="2.6" fill="#1F9CF0"></circle><circle cx="63.06" cy="224.59" r="2.6" fill="#1F9CF0"></circle><circle cx="70.12" cy="214.73" r="2.6" fill="#1F9CF0"></circle><circle cx="77.18" cy="247.97" r="2.6" fill="#1F9CF0"></circle><circle cx="84.24" cy="236.75" r="2.6" fill="#1F9CF0"></circle><circle cx="91.3" cy="219.64" r="2.6" fill="#1F9CF0"></circle><circle cx="98.36" cy="238.79" r="2.6" fill="#1F9CF0"></circle><circle cx="105.42" cy="207.95" r="2.6" fill="#1F9CF0"></circle><circle cx="112.48" cy="201.38" r="2.6" fill="#1F9CF0"></circle><circle cx="119.54" cy="239.3" r="2.6" fill="#1F9CF0"></circle><circle cx="126.6" cy="242.33" r="2.6" fill="#1F9CF0"></circle><circle cx="133.66" cy="177.25" r="2.6" fill="#1F9CF0"></circle><circle cx="140.72" cy="218.95" r="2.6" fill="#1F9CF0"></circle><circle cx="147.78" cy="232.82" r="2.6" fill="#1F9CF0"></circle><circle cx="154.84" cy="248.48" r="2.6" fill="#1F9CF0"></circle><circle cx="161.9" cy="252.97" r="2.6" fill="#1F9CF0"></circle><circle cx="168.96" cy="230.93" r="2.6" fill="#1F9CF0"></circle><circle cx="176.02" cy="242.47" r="2.6" fill="#1F9CF0"></circle><circle cx="183.08" cy="240.12" r="2.6" fill="#1F9CF0"></circle><circle cx="190.14" cy="248.48" r="2.6" fill="#1F9CF0"></circle><circle cx="197.2" cy="256.65" r="2.6" fill="#1F9CF0"></circle><circle cx="204.27" cy="261.44" r="2.6" fill="#1F9CF0"></circle><circle cx="211.33" cy="262.41" r="2.6" fill="#1F9CF0"></circle><circle cx="218.39" cy="264.75" r="2.6" fill="#1F9CF0"></circle><circle cx="225.45" cy="261.4" r="2.6" fill="#1F9CF0"></circle><circle cx="232.51" cy="262.76" r="2.6" fill="#1F9CF0"></circle><circle cx="239.57" cy="244.65" r="2.6" fill="#1F9CF0"></circle><circle cx="246.63" cy="230.98" r="2.6" fill="#1F9CF0"></circle><circle cx="253.69" cy="234.56" r="2.6" fill="#1F9CF0"></circle><circle cx="260.75" cy="260.01" r="2.6" fill="#1F9CF0"></circle><circle cx="267.81" cy="254.76" r="2.6" fill="#1F9CF0"></circle><circle cx="274.87" cy="238.53" r="2.6" fill="#1F9CF0"></circle><circle cx="281.93" cy="231.76" r="2.6" fill="#1F9CF0"></circle><circle cx="288.99" cy="226.22" r="2.6" fill="#1F9CF0"></circle><circle cx="296.05" cy="247.36" r="2.6" fill="#1F9CF0"></circle><circle cx="303.11" cy="238.78" r="2.6" fill="#1F9CF0"></circle><circle cx="310.17" cy="250.58" r="2.6" fill="#1F9CF0"></circle><circle cx="317.23" cy="256.4" r="2.6" fill="#1F9CF0"></circle><circle cx="324.29" cy="243.61" r="2.6" fill="#1F9CF0"></circle><circle cx="331.35" cy="265.98" r="2.6" fill="#1F9CF0"></circle><circle cx="338.41" cy="253.29" r="2.6" fill="#1F9CF0"></circle><circle cx="345.47" cy="225.25" r="2.6" fill="#1F9CF0"></circle><circle cx="352.53" cy="246.45" r="2.6" fill="#1F9CF0"></circle><circle cx="359.59" cy="252.36" r="2.6" fill="#1F9CF0"></circle><circle cx="366.65" cy="241.14" r="2.6" fill="#1F9CF0"></circle><circle cx="373.71" cy="253.3" r="2.6" fill="#1F9CF0"></circle><circle cx="380.77" cy="245.06" r="2.6" fill="#1F9CF0"></circle><circle cx="387.83" cy="205.73" r="2.6" fill="#1F9CF0"></circle><circle cx="394.89" cy="260.99" r="2.6" fill="#1F9CF0"></circle><circle cx="401.95" cy="265.11" r="2.6" fill="#1F9CF0"></circle><circle cx="409.01" cy="263.66" r="2.6" fill="#1F9CF0"></circle><circle cx="416.07" cy="270.45" r="2.6" fill="#1F9CF0"></circle><circle cx="423.13" cy="265.53" r="2.6" fill="#1F9CF0"></circle><circle cx="430.19" cy="248.25" r="2.6" fill="#1F9CF0"></circle><circle cx="437.25" cy="259.3" r="2.6" fill="#1F9CF0"></circle><circle cx="444.31" cy="255.01" r="2.6" fill="#1F9CF0"></circle><circle cx="500.8" cy="259.54" r="2.6" fill="#1F9CF0"></circle><circle cx="507.86" cy="255.12" r="2.6" fill="#1F9CF0"></circle><circle cx="514.92" cy="241.05" r="2.6" fill="#1F9CF0"></circle><circle cx="521.98" cy="228.97" r="2.6" fill="#1F9CF0"></circle><circle cx="529.04" cy="234.99" r="2.6" fill="#1F9CF0"></circle><circle cx="536.1" cy="233" r="2.6" fill="#1F9CF0"></circle><circle cx="543.16" cy="242.76" r="2.6" fill="#1F9CF0"></circle><circle cx="550.22" cy="238.49" r="2.6" fill="#1F9CF0"></circle><circle cx="557.28" cy="251.01" r="2.6" fill="#1F9CF0"></circle><circle cx="564.34" cy="203.87" r="2.6" fill="#1F9CF0"></circle><circle cx="571.4" cy="219.17" r="2.6" fill="#1F9CF0"></circle><circle cx="578.46" cy="100.57" r="2.6" fill="#1F9CF0"></circle><circle cx="585.52" cy="239.75" r="2.6" fill="#1F9CF0"></circle><circle cx="592.58" cy="232.97" r="2.6" fill="#1F9CF0"></circle><circle cx="599.64" cy="241.63" r="2.6" fill="#1F9CF0"></circle><circle cx="606.7" cy="251.46" r="2.6" fill="#1F9CF0"></circle><circle cx="613.76" cy="254.09" r="2.6" fill="#1F9CF0"></circle><circle cx="620.82" cy="215.86" r="2.6" fill="#1F9CF0"></circle><circle cx="627.88" cy="260.98" r="2.6" fill="#1F9CF0"></circle><circle cx="634.94" cy="227.24" r="2.6" fill="#1F9CF0"></circle><circle cx="642" cy="269.59" r="2.6" fill="#1F9CF0"></circle><line x1="656" y1="27" x2="672" y2="27" stroke="#E8835A" stroke-width="3" stroke-linecap="round"></line><text x="678" y="30" font-size="11" font-weight="400" text-anchor="start" fill="#1f2328">anthropic</text><line x1="656" y1="47" x2="672" y2="47" stroke="#6366F1" stroke-width="3" stroke-linecap="round"></line><text x="678" y="50" font-size="11" font-weight="400" text-anchor="start" fill="#1f2328">deepseek</text><line x1="656" y1="67" x2="672" y2="67" stroke="#2DA98C" stroke-width="3" stroke-linecap="round"></line><text x="678" y="70" font-size="11" font-weight="400" text-anchor="start" fill="#1f2328">gemini</text><line x1="656" y1="87" x2="672" y2="87" stroke="#A371F7" stroke-width="3" stroke-linecap="round"></line><text x="678" y="90" font-size="11" font-weight="400" text-anchor="start" fill="#1f2328">llama</text><line x1="656" y1="107" x2="672" y2="107" stroke="#F0A23B" stroke-width="3" stroke-linecap="round"></line><text x="678" y="110" font-size="11" font-weight="400" text-anchor="start" fill="#1f2328">mistral</text><line x1="656" y1="127" x2="672" y2="127" stroke="#1F9CF0" stroke-width="3" stroke-linecap="round"></line><text x="678" y="130" font-size="11" font-weight="400" text-anchor="start" fill="#1f2328">openai</text></svg>
