<svg xmlns="http://www.w3.org/2000/svg" viewBox="0 0 760 348" width="760" height="348" role="img" aria-label="Average LLM latency by provider over runs — llama highest, deepseek lowest" font-family="-apple-system,BlinkMacSystemFont,'Segoe UI',system-ui,sans-serif"><line x1="56" y1="306" x2="642" y2="306" stroke="#d8dee4" stroke-width="1"></line><text x="46" y="310" font-size="9.5" font-weight="400" text-anchor="end" fill="#656d76" font-family="ui-monospace,SFMono-Regular,Menlo,monospace">0.0s</text><line x1="56" y1="235" x2="642" y2="235" stroke="#d8dee4" stroke-width="1"></line><text x="46" y="239" font-size="9.5" font-weight="400" text-anchor="end" fill="#656d76" font-family="ui-monospace,SFMono-Regular,Menlo,monospace">82.5s</text><line x1="56" y1="164" x2="642" y2="164" stroke="#d8dee4" stroke-width="1"></line><text x="46" y="168" font-size="9.5" font-weight="400" text-anchor="end" fill="#656d76" font-family="ui-monospace,SFMono-Regular,Menlo,monospace">165.1s</text><line x1="56" y1="93" x2="642" y2="93" stroke="#d8dee4" stroke-width="1"></line><text x="46" y="97" font-size="9.5" font-weight="400" text-anchor="end" fill="#656d76" font-family="ui-monospace,SFMono-Regular,Menlo,monospace">247.6s</text><line x1="56" y1="22" x2="642" y2="22" stroke="#d8dee4" stroke-width="1"></line><text x="46" y="26" font-size="9.5" font-weight="400" text-anchor="end" fill="#656d76" font-family="ui-monospace,SFMono-Regular,Menlo,monospace">330.2s</text><text x="56" y="324" font-size="9.5" font-weight="400" text-anchor="middle" fill="#656d76" font-family="ui-monospace,SFMono-Regular,Menlo,monospace">06/08</text><text x="107.4" y="324" font-size="9.5" font-weight="400" text-anchor="middle" fill="#656d76" font-family="ui-monospace,SFMono-Regular,Menlo,monospace">06/08</text><text x="158.81" y="324" font-size="9.5" font-weight="400" text-anchor="middle" fill="#656d76" font-family="ui-monospace,SFMono-Regular,Menlo,monospace">06/09</text><text x="210.21" y="324" font-size="9.5" font-weight="400" text-anchor="middle" fill="#656d76" font-family="ui-monospace,SFMono-Regular,Menlo,monospace">06/12</text><text x="261.61" y="324" font-size="9.5" font-weight="400" text-anchor="middle" fill="#656d76" font-family="ui-monospace,SFMono-Regular,Menlo,monospace">06/13</text><text x="313.02" y="324" font-size="9.5" font-weight="400" text-anchor="middle" fill="#656d76" font-family="ui-monospace,SFMono-Regular,Menlo,monospace">06/14</text><text x="364.42" y="324" font-size="9.5" font-weight="400" text-anchor="middle" fill="#656d76" font-family="ui-monospace,SFMono-Regular,Menlo,monospace">06/15</text><text x="415.82" y="324" font-size="9.5" font-weight="400" text-anchor="middle" fill="#656d76" font-family="ui-monospace,SFMono-Regular,Menlo,monospace">06/16</text><text x="467.23" y="324" font-size="9.5" font-weight="400" text-anchor="middle" fill="#656d76" font-family="ui-monospace,SFMono-Regular,Menlo,monospace">06/17</text><text x="518.63" y="324" font-size="9.5" font-weight="400" text-anchor="middle" fill="#656d76" font-family="ui-monospace,SFMono-Regular,Menlo,monospace">06/19</text><text x="570.04" y="324" font-size="9.5" font-weight="400" text-anchor="middle" fill="#656d76" font-family="ui-monospace,SFMono-Regular,Menlo,monospace">06/20</text><text x="621.44" y="324" font-size="9.5" font-weight="400" text-anchor="middle" fill="#656d76" font-family="ui-monospace,SFMono-Regular,Menlo,monospace">06/21</text><text x="642" y="324" font-size="9.5" font-weight="400" text-anchor="middle" fill="#656d76" font-family="ui-monospace,SFMono-Regular,Menlo,monospace">06/22</text><polyline fill="none" stroke="#E8835A" stroke-width="2.4" stroke-linejoin="round" stroke-linecap="round" points="56,229.15 66.28,232.31 76.56,238.94 86.84,244 97.12,235.49 107.4,232.81 117.68,250.28 127.96,243.38 138.25,241.66 148.53,231.14 169.09,234.04 179.37,244.32 189.65,228.71 199.93,246.08 210.21,242.18 220.49,235.58 230.77,242.32 241.05,244.55 251.33,246.98 261.61,240.71 271.89,250.83 282.18,244.26 292.46,241.33 302.74,245.63 313.02,245.02 323.3,240.82 333.58,243.78 343.86,243.28 354.14,240.2 364.42,242.69 374.7,215.59 384.98,241.79 395.26,238.64 405.54,243.45 415.82,243.86 426.11,234.8 436.39,244.51 446.67,244.64"></polyline><circle cx="56" cy="229.15" r="2.6" fill="#E8835A"></circle><circle cx="66.28" cy="232.31" r="2.6" fill="#E8835A"></circle><circle cx="76.56" cy="238.94" r="2.6" fill="#E8835A"></circle><circle cx="86.84" cy="244" r="2.6" fill="#E8835A"></circle><circle cx="97.12" cy="235.49" r="2.6" fill="#E8835A"></circle><circle cx="107.4" cy="232.81" r="2.6" fill="#E8835A"></circle><circle cx="117.68" cy="250.28" r="2.6" fill="#E8835A"></circle><circle cx="127.96" cy="243.38" r="2.6" fill="#E8835A"></circle><circle cx="138.25" cy="241.66" r="2.6" fill="#E8835A"></circle><circle cx="148.53" cy="231.14" r="2.6" fill="#E8835A"></circle><circle cx="169.09" cy="234.04" r="2.6" fill="#E8835A"></circle><circle cx="179.37" cy="244.32" r="2.6" fill="#E8835A"></circle><circle cx="189.65" cy="228.71" r="2.6" fill="#E8835A"></circle><circle cx="199.93" cy="246.08" r="2.6" fill="#E8835A"></circle><circle cx="210.21" cy="242.18" r="2.6" fill="#E8835A"></circle><circle cx="220.49" cy="235.58" r="2.6" fill="#E8835A"></circle><circle cx="230.77" cy="242.32" r="2.6" fill="#E8835A"></circle><circle cx="241.05" cy="244.55" r="2.6" fill="#E8835A"></circle><circle cx="251.33" cy="246.98" r="2.6" fill="#E8835A"></circle><circle cx="261.61" cy="240.71" r="2.6" fill="#E8835A"></circle><circle cx="271.89" cy="250.83" r="2.6" fill="#E8835A"></circle><circle cx="282.18" cy="244.26" r="2.6" fill="#E8835A"></circle><circle cx="292.46" cy="241.33" r="2.6" fill="#E8835A"></circle><circle cx="302.74" cy="245.63" r="2.6" fill="#E8835A"></circle><circle cx="313.02" cy="245.02" r="2.6" fill="#E8835A"></circle><circle cx="323.3" cy="240.82" r="2.6" fill="#E8835A"></circle><circle cx="333.58" cy="243.78" r="2.6" fill="#E8835A"></circle><circle cx="343.86" cy="243.28" r="2.6" fill="#E8835A"></circle><circle cx="354.14" cy="240.2" r="2.6" fill="#E8835A"></circle><circle cx="364.42" cy="242.69" r="2.6" fill="#E8835A"></circle><circle cx="374.7" cy="215.59" r="2.6" fill="#E8835A"></circle><circle cx="384.98" cy="241.79" r="2.6" fill="#E8835A"></circle><circle cx="395.26" cy="238.64" r="2.6" fill="#E8835A"></circle><circle cx="405.54" cy="243.45" r="2.6" fill="#E8835A"></circle><circle cx="415.82" cy="243.86" r="2.6" fill="#E8835A"></circle><circle cx="426.11" cy="234.8" r="2.6" fill="#E8835A"></circle><circle cx="436.39" cy="244.51" r="2.6" fill="#E8835A"></circle><circle cx="446.67" cy="244.64" r="2.6" fill="#E8835A"></circle><polyline fill="none" stroke="#6366F1" stroke-width="2.4" stroke-linejoin="round" stroke-linecap="round" points="66.28,247.24 76.56,242.4 86.84,249.98 97.12,230.48 107.4,260.21 117.68,260.34 127.96,270.44 138.25,248.92 148.53,245.19 158.81,247.83 169.09,256.22 179.37,248.72 189.65,261.47 199.93,243.58 210.21,210.49 220.49,266.33 230.77,232.33 241.05,232.27 251.33,199.16 261.61,237.91 271.89,252.97 282.18,266.11 292.46,215.25 302.74,265.97 313.02,258.25 323.3,265.82 333.58,246.69 343.86,244.53 364.42,240.91 374.7,255.51 384.98,252.51 395.26,237.2 405.54,258.24 415.82,235.84 426.11,252.87 436.39,243.73 446.67,249.01 467.23,263.05 477.51,262.95 487.79,250.85 498.07,238.76 508.35,245.84 518.63,240.49 528.91,244.58 539.19,238.25 549.47,266.43 559.75,219.91 570.04,256.77 590.6,250.11 600.88,264.15 611.16,249.18 621.44,252.64 631.72,236.94 642,257.91"></polyline><circle cx="66.28" cy="247.24" r="2.6" fill="#6366F1"></circle><circle cx="76.56" cy="242.4" r="2.6" fill="#6366F1"></circle><circle cx="86.84" cy="249.98" r="2.6" fill="#6366F1"></circle><circle cx="97.12" cy="230.48" r="2.6" fill="#6366F1"></circle><circle cx="107.4" cy="260.21" r="2.6" fill="#6366F1"></circle><circle cx="117.68" cy="260.34" r="2.6" fill="#6366F1"></circle><circle cx="127.96" cy="270.44" r="2.6" fill="#6366F1"></circle><circle cx="138.25" cy="248.92" r="2.6" fill="#6366F1"></circle><circle cx="148.53" cy="245.19" r="2.6" fill="#6366F1"></circle><circle cx="158.81" cy="247.83" r="2.6" fill="#6366F1"></circle><circle cx="169.09" cy="256.22" r="2.6" fill="#6366F1"></circle><circle cx="179.37" cy="248.72" r="2.6" fill="#6366F1"></circle><circle cx="189.65" cy="261.47" r="2.6" fill="#6366F1"></circle><circle cx="199.93" cy="243.58" r="2.6" fill="#6366F1"></circle><circle cx="210.21" cy="210.49" r="2.6" fill="#6366F1"></circle><circle cx="220.49" cy="266.33" r="2.6" fill="#6366F1"></circle><circle cx="230.77" cy="232.33" r="2.6" fill="#6366F1"></circle><circle cx="241.05" cy="232.27" r="2.6" fill="#6366F1"></circle><circle cx="251.33" cy="199.16" r="2.6" fill="#6366F1"></circle><circle cx="261.61" cy="237.91" r="2.6" fill="#6366F1"></circle><circle cx="271.89" cy="252.97" r="2.6" fill="#6366F1"></circle><circle cx="282.18" cy="266.11" r="2.6" fill="#6366F1"></circle><circle cx="292.46" cy="215.25" r="2.6" fill="#6366F1"></circle><circle cx="302.74" cy="265.97" r="2.6" fill="#6366F1"></circle><circle cx="313.02" cy="258.25" r="2.6" fill="#6366F1"></circle><circle cx="323.3" cy="265.82" r="2.6" fill="#6366F1"></circle><circle cx="333.58" cy="246.69" r="2.6" fill="#6366F1"></circle><circle cx="343.86" cy="244.53" r="2.6" fill="#6366F1"></circle><circle cx="364.42" cy="240.91" r="2.6" fill="#6366F1"></circle><circle cx="374.7" cy="255.51" r="2.6" fill="#6366F1"></circle><circle cx="384.98" cy="252.51" r="2.6" fill="#6366F1"></circle><circle cx="395.26" cy="237.2" r="2.6" fill="#6366F1"></circle><circle cx="405.54" cy="258.24" r="2.6" fill="#6366F1"></circle><circle cx="415.82" cy="235.84" r="2.6" fill="#6366F1"></circle><circle cx="426.11" cy="252.87" r="2.6" fill="#6366F1"></circle><circle cx="436.39" cy="243.73" r="2.6" fill="#6366F1"></circle><circle cx="446.67" cy="249.01" r="2.6" fill="#6366F1"></circle><circle cx="467.23" cy="263.05" r="2.6" fill="#6366F1"></circle><circle cx="477.51" cy="262.95" r="2.6" fill="#6366F1"></circle><circle cx="487.79" cy="250.85" r="2.6" fill="#6366F1"></circle><circle cx="498.07" cy="238.76" r="2.6" fill="#6366F1"></circle><circle cx="508.35" cy="245.84" r="2.6" fill="#6366F1"></circle><circle cx="518.63" cy="240.49" r="2.6" fill="#6366F1"></circle><circle cx="528.91" cy="244.58" r="2.6" fill="#6366F1"></circle><circle cx="539.19" cy="238.25" r="2.6" fill="#6366F1"></circle><circle cx="549.47" cy="266.43" r="2.6" fill="#6366F1"></circle><circle cx="559.75" cy="219.91" r="2.6" fill="#6366F1"></circle><circle cx="570.04" cy="256.77" r="2.6" fill="#6366F1"></circle><circle cx="590.6" cy="250.11" r="2.6" fill="#6366F1"></circle><circle cx="600.88" cy="264.15" r="2.6" fill="#6366F1"></circle><circle cx="611.16" cy="249.18" r="2.6" fill="#6366F1"></circle><circle cx="621.44" cy="252.64" r="2.6" fill="#6366F1"></circle><circle cx="631.72" cy="236.94" r="2.6" fill="#6366F1"></circle><circle cx="642" cy="257.91" r="2.6" fill="#6366F1"></circle><polyline fill="none" stroke="#2DA98C" stroke-width="2.4" stroke-linejoin="round" stroke-linecap="round" points="56,205.26 66.28,215.39 76.56,174.15 86.84,217.56 97.12,218.68 107.4,227.57 117.68,203.76 127.96,192.14 138.25,215.35 148.53,194.78 158.81,194.92 169.09,141.5 179.37,148.87 189.65,194.84 199.93,180.85 210.21,202.09 220.49,169.08 230.77,211.29 241.05,193.77 251.33,192.04 261.61,206.61 364.42,221.15 374.7,190.23 384.98,183.33 395.26,225.15 405.54,184.37 415.82,182.1 426.11,210.86 436.39,161.53 446.67,210.56 467.23,182.01 477.51,172.32 487.79,181.93 498.07,186.76 508.35,217.59 518.63,171.76 528.91,211.13 539.19,171.55 549.47,181.17 559.75,189.96 570.04,191.02 590.6,212.98 600.88,170.09 611.16,127.97 621.44,222.7 631.72,200.4 642,155.75"></polyline><circle cx="56" cy="205.26" r="2.6" fill="#2DA98C"></circle><circle cx="66.28" cy="215.39" r="2.6" fill="#2DA98C"></circle><circle cx="76.56" cy="174.15" r="2.6" fill="#2DA98C"></circle><circle cx="86.84" cy="217.56" r="2.6" fill="#2DA98C"></circle><circle cx="97.12" cy="218.68" r="2.6" fill="#2DA98C"></circle><circle cx="107.4" cy="227.57" r="2.6" fill="#2DA98C"></circle><circle cx="117.68" cy="203.76" r="2.6" fill="#2DA98C"></circle><circle cx="127.96" cy="192.14" r="2.6" fill="#2DA98C"></circle><circle cx="138.25" cy="215.35" r="2.6" fill="#2DA98C"></circle><circle cx="148.53" cy="194.78" r="2.6" fill="#2DA98C"></circle><circle cx="158.81" cy="194.92" r="2.6" fill="#2DA98C"></circle><circle cx="169.09" cy="141.5" r="2.6" fill="#2DA98C"></circle><circle cx="179.37" cy="148.87" r="2.6" fill="#2DA98C"></circle><circle cx="189.65" cy="194.84" r="2.6" fill="#2DA98C"></circle><circle cx="199.93" cy="180.85" r="2.6" fill="#2DA98C"></circle><circle cx="210.21" cy="202.09" r="2.6" fill="#2DA98C"></circle><circle cx="220.49" cy="169.08" r="2.6" fill="#2DA98C"></circle><circle cx="230.77" cy="211.29" r="2.6" fill="#2DA98C"></circle><circle cx="241.05" cy="193.77" r="2.6" fill="#2DA98C"></circle><circle cx="251.33" cy="192.04" r="2.6" fill="#2DA98C"></circle><circle cx="261.61" cy="206.61" r="2.6" fill="#2DA98C"></circle><circle cx="364.42" cy="221.15" r="2.6" fill="#2DA98C"></circle><circle cx="374.7" cy="190.23" r="2.6" fill="#2DA98C"></circle><circle cx="384.98" cy="183.33" r="2.6" fill="#2DA98C"></circle><circle cx="395.26" cy="225.15" r="2.6" fill="#2DA98C"></circle><circle cx="405.54" cy="184.37" r="2.6" fill="#2DA98C"></circle><circle cx="415.82" cy="182.1" r="2.6" fill="#2DA98C"></circle><circle cx="426.11" cy="210.86" r="2.6" fill="#2DA98C"></circle><circle cx="436.39" cy="161.53" r="2.6" fill="#2DA98C"></circle><circle cx="446.67" cy="210.56" r="2.6" fill="#2DA98C"></circle><circle cx="467.23" cy="182.01" r="2.6" fill="#2DA98C"></circle><circle cx="477.51" cy="172.32" r="2.6" fill="#2DA98C"></circle><circle cx="487.79" cy="181.93" r="2.6" fill="#2DA98C"></circle><circle cx="498.07" cy="186.76" r="2.6" fill="#2DA98C"></circle><circle cx="508.35" cy="217.59" r="2.6" fill="#2DA98C"></circle><circle cx="518.63" cy="171.76" r="2.6" fill="#2DA98C"></circle><circle cx="528.91" cy="211.13" r="2.6" fill="#2DA98C"></circle><circle cx="539.19" cy="171.55" r="2.6" fill="#2DA98C"></circle><circle cx="549.47" cy="181.17" r="2.6" fill="#2DA98C"></circle><circle cx="559.75" cy="189.96" r="2.6" fill="#2DA98C"></circle><circle cx="570.04" cy="191.02" r="2.6" fill="#2DA98C"></circle><circle cx="590.6" cy="212.98" r="2.6" fill="#2DA98C"></circle><circle cx="600.88" cy="170.09" r="2.6" fill="#2DA98C"></circle><circle cx="611.16" cy="127.97" r="2.6" fill="#2DA98C"></circle><circle cx="621.44" cy="222.7" r="2.6" fill="#2DA98C"></circle><circle cx="631.72" cy="200.4" r="2.6" fill="#2DA98C"></circle><circle cx="642" cy="155.75" r="2.6" fill="#2DA98C"></circle><polyline fill="none" stroke="#A371F7" stroke-width="2.4" stroke-linejoin="round" stroke-linecap="round" points="56,127.86 66.28,149.85 76.56,181.76 86.84,139.24 97.12,107.36 107.4,219.97 117.68,116.3 127.96,182.89 138.25,193.78 148.53,197.11 158.81,105.85 169.09,146.07 179.37,181.42 189.65,202.88 199.93,134.79 210.21,219.07 220.49,58.83 230.77,197.05 241.05,167.66 251.33,75.26 261.61,128.5 271.89,152.23 282.18,166.9 292.46,183.57 302.74,162.79 313.02,148.18 323.3,52.43 333.58,96.59 343.86,191.76 364.42,151.86 374.7,169.19 384.98,135.22 405.54,206.77 415.82,167.88 426.11,189.32 436.39,143.76 446.67,142.49 456.95,163.7 467.23,128.52 477.51,144.9 487.79,92.3 498.07,157.36 508.35,160.21 518.63,176.32 528.91,116.21 539.19,165.98 549.47,136.47 570.04,155.12 590.6,134.62 611.16,114.6 621.44,127.72 631.72,219.84 642,170.06"></polyline><circle cx="56" cy="127.86" r="2.6" fill="#A371F7"></circle><circle cx="66.28" cy="149.85" r="2.6" fill="#A371F7"></circle><circle cx="76.56" cy="181.76" r="2.6" fill="#A371F7"></circle><circle cx="86.84" cy="139.24" r="2.6" fill="#A371F7"></circle><circle cx="97.12" cy="107.36" r="2.6" fill="#A371F7"></circle><circle cx="107.4" cy="219.97" r="2.6" fill="#A371F7"></circle><circle cx="117.68" cy="116.3" r="2.6" fill="#A371F7"></circle><circle cx="127.96" cy="182.89" r="2.6" fill="#A371F7"></circle><circle cx="138.25" cy="193.78" r="2.6" fill="#A371F7"></circle><circle cx="148.53" cy="197.11" r="2.6" fill="#A371F7"></circle><circle cx="158.81" cy="105.85" r="2.6" fill="#A371F7"></circle><circle cx="169.09" cy="146.07" r="2.6" fill="#A371F7"></circle><circle cx="179.37" cy="181.42" r="2.6" fill="#A371F7"></circle><circle cx="189.65" cy="202.88" r="2.6" fill="#A371F7"></circle><circle cx="199.93" cy="134.79" r="2.6" fill="#A371F7"></circle><circle cx="210.21" cy="219.07" r="2.6" fill="#A371F7"></circle><circle cx="220.49" cy="58.83" r="2.6" fill="#A371F7"></circle><circle cx="230.77" cy="197.05" r="2.6" fill="#A371F7"></circle><circle cx="241.05" cy="167.66" r="2.6" fill="#A371F7"></circle><circle cx="251.33" cy="75.26" r="2.6" fill="#A371F7"></circle><circle cx="261.61" cy="128.5" r="2.6" fill="#A371F7"></circle><circle cx="271.89" cy="152.23" r="2.6" fill="#A371F7"></circle><circle cx="282.18" cy="166.9" r="2.6" fill="#A371F7"></circle><circle cx="292.46" cy="183.57" r="2.6" fill="#A371F7"></circle><circle cx="302.74" cy="162.79" r="2.6" fill="#A371F7"></circle><circle cx="313.02" cy="148.18" r="2.6" fill="#A371F7"></circle><circle cx="323.3" cy="52.43" r="2.6" fill="#A371F7"></circle><circle cx="333.58" cy="96.59" r="2.6" fill="#A371F7"></circle><circle cx="343.86" cy="191.76" r="2.6" fill="#A371F7"></circle><circle cx="364.42" cy="151.86" r="2.6" fill="#A371F7"></circle><circle cx="374.7" cy="169.19" r="2.6" fill="#A371F7"></circle><circle cx="384.98" cy="135.22" r="2.6" fill="#A371F7"></circle><circle cx="405.54" cy="206.77" r="2.6" fill="#A371F7"></circle><circle cx="415.82" cy="167.88" r="2.6" fill="#A371F7"></circle><circle cx="426.11" cy="189.32" r="2.6" fill="#A371F7"></circle><circle cx="436.39" cy="143.76" r="2.6" fill="#A371F7"></circle><circle cx="446.67" cy="142.49" r="2.6" fill="#A371F7"></circle><circle cx="456.95" cy="163.7" r="2.6" fill="#A371F7"></circle><circle cx="467.23" cy="128.52" r="2.6" fill="#A371F7"></circle><circle cx="477.51" cy="144.9" r="2.6" fill="#A371F7"></circle><circle cx="487.79" cy="92.3" r="2.6" fill="#A371F7"></circle><circle cx="498.07" cy="157.36" r="2.6" fill="#A371F7"></circle><circle cx="508.35" cy="160.21" r="2.6" fill="#A371F7"></circle><circle cx="518.63" cy="176.32" r="2.6" fill="#A371F7"></circle><circle cx="528.91" cy="116.21" r="2.6" fill="#A371F7"></circle><circle cx="539.19" cy="165.98" r="2.6" fill="#A371F7"></circle><circle cx="549.47" cy="136.47" r="2.6" fill="#A371F7"></circle><circle cx="570.04" cy="155.12" r="2.6" fill="#A371F7"></circle><circle cx="590.6" cy="134.62" r="2.6" fill="#A371F7"></circle><circle cx="611.16" cy="114.6" r="2.6" fill="#A371F7"></circle><circle cx="621.44" cy="127.72" r="2.6" fill="#A371F7"></circle><circle cx="631.72" cy="219.84" r="2.6" fill="#A371F7"></circle><circle cx="642" cy="170.06" r="2.6" fill="#A371F7"></circle><polyline fill="none" stroke="#F0A23B" stroke-width="2.4" stroke-linejoin="round" stroke-linecap="round" points="56,170.6 66.28,150.62 76.56,187.27 86.84,153.33 97.12,137.4 107.4,187.39 117.68,202.98 127.96,219.57 138.25,187.3 148.53,163.64 158.81,218.54 169.09,247.9 179.37,222.75 189.65,249.71 199.93,224.7 210.21,243.69 220.49,245.81 230.77,211.84 241.05,236.21 251.33,257.78 261.61,248.63 271.89,234.2 282.18,247.57 292.46,243.66 302.74,258.59 313.02,253.94 323.3,235.44 333.58,209.7 343.86,229.87 354.14,229.74 364.42,242.74 374.7,219.28 384.98,218.69 395.26,248.17 405.54,252.02 415.82,241.64 426.11,202.83 436.39,191.16 446.67,236.21 456.95,247.47 467.23,237.91 477.51,227.46 487.79,241.35 498.07,249.73 508.35,234.66 518.63,250 528.91,253.94 539.19,252.42 549.47,245.42 559.75,237.98 570.04,238.85 590.6,257.8 600.88,233.33 611.16,238.96 621.44,252.16 631.72,246.34 642,221.3"></polyline><circle cx="56" cy="170.6" r="2.6" fill="#F0A23B"></circle><circle cx="66.28" cy="150.62" r="2.6" fill="#F0A23B"></circle><circle cx="76.56" cy="187.27" r="2.6" fill="#F0A23B"></circle><circle cx="86.84" cy="153.33" r="2.6" fill="#F0A23B"></circle><circle cx="97.12" cy="137.4" r="2.6" fill="#F0A23B"></circle><circle cx="107.4" cy="187.39" r="2.6" fill="#F0A23B"></circle><circle cx="117.68" cy="202.98" r="2.6" fill="#F0A23B"></circle><circle cx="127.96" cy="219.57" r="2.6" fill="#F0A23B"></circle><circle cx="138.25" cy="187.3" r="2.6" fill="#F0A23B"></circle><circle cx="148.53" cy="163.64" r="2.6" fill="#F0A23B"></circle><circle cx="158.81" cy="218.54" r="2.6" fill="#F0A23B"></circle><circle cx="169.09" cy="247.9" r="2.6" fill="#F0A23B"></circle><circle cx="179.37" cy="222.75" r="2.6" fill="#F0A23B"></circle><circle cx="189.65" cy="249.71" r="2.6" fill="#F0A23B"></circle><circle cx="199.93" cy="224.7" r="2.6" fill="#F0A23B"></circle><circle cx="210.21" cy="243.69" r="2.6" fill="#F0A23B"></circle><circle cx="220.49" cy="245.81" r="2.6" fill="#F0A23B"></circle><circle cx="230.77" cy="211.84" r="2.6" fill="#F0A23B"></circle><circle cx="241.05" cy="236.21" r="2.6" fill="#F0A23B"></circle><circle cx="251.33" cy="257.78" r="2.6" fill="#F0A23B"></circle><circle cx="261.61" cy="248.63" r="2.6" fill="#F0A23B"></circle><circle cx="271.89" cy="234.2" r="2.6" fill="#F0A23B"></circle><circle cx="282.18" cy="247.57" r="2.6" fill="#F0A23B"></circle><circle cx="292.46" cy="243.66" r="2.6" fill="#F0A23B"></circle><circle cx="302.74" cy="258.59" r="2.6" fill="#F0A23B"></circle><circle cx="313.02" cy="253.94" r="2.6" fill="#F0A23B"></circle><circle cx="323.3" cy="235.44" r="2.6" fill="#F0A23B"></circle><circle cx="333.58" cy="209.7" r="2.6" fill="#F0A23B"></circle><circle cx="343.86" cy="229.87" r="2.6" fill="#F0A23B"></circle><circle cx="354.14" cy="229.74" r="2.6" fill="#F0A23B"></circle><circle cx="364.42" cy="242.74" r="2.6" fill="#F0A23B"></circle><circle cx="374.7" cy="219.28" r="2.6" fill="#F0A23B"></circle><circle cx="384.98" cy="218.69" r="2.6" fill="#F0A23B"></circle><circle cx="395.26" cy="248.17" r="2.6" fill="#F0A23B"></circle><circle cx="405.54" cy="252.02" r="2.6" fill="#F0A23B"></circle><circle cx="415.82" cy="241.64" r="2.6" fill="#F0A23B"></circle><circle cx="426.11" cy="202.83" r="2.6" fill="#F0A23B"></circle><circle cx="436.39" cy="191.16" r="2.6" fill="#F0A23B"></circle><circle cx="446.67" cy="236.21" r="2.6" fill="#F0A23B"></circle><circle cx="456.95" cy="247.47" r="2.6" fill="#F0A23B"></circle><circle cx="467.23" cy="237.91" r="2.6" fill="#F0A23B"></circle><circle cx="477.51" cy="227.46" r="2.6" fill="#F0A23B"></circle><circle cx="487.79" cy="241.35" r="2.6" fill="#F0A23B"></circle><circle cx="498.07" cy="249.73" r="2.6" fill="#F0A23B"></circle><circle cx="508.35" cy="234.66" r="2.6" fill="#F0A23B"></circle><circle cx="518.63" cy="250" r="2.6" fill="#F0A23B"></circle><circle cx="528.91" cy="253.94" r="2.6" fill="#F0A23B"></circle><circle cx="539.19" cy="252.42" r="2.6" fill="#F0A23B"></circle><circle cx="549.47" cy="245.42" r="2.6" fill="#F0A23B"></circle><circle cx="559.75" cy="237.98" r="2.6" fill="#F0A23B"></circle><circle cx="570.04" cy="238.85" r="2.6" fill="#F0A23B"></circle><circle cx="590.6" cy="257.8" r="2.6" fill="#F0A23B"></circle><circle cx="600.88" cy="233.33" r="2.6" fill="#F0A23B"></circle><circle cx="611.16" cy="238.96" r="2.6" fill="#F0A23B"></circle><circle cx="621.44" cy="252.16" r="2.6" fill="#F0A23B"></circle><circle cx="631.72" cy="246.34" r="2.6" fill="#F0A23B"></circle><circle cx="642" cy="221.3" r="2.6" fill="#F0A23B"></circle><polyline fill="none" stroke="#1F9CF0" stroke-width="2.4" stroke-linejoin="round" stroke-linecap="round" points="56,198.31 66.28,224.59 76.56,214.73 86.84,247.97 97.12,236.75 107.4,219.64 117.68,238.79 127.96,207.95 138.25,201.38 148.53,239.3 158.81,242.33 169.09,177.25 179.37,218.95 189.65,232.82 199.93,248.48 210.21,252.97 220.49,230.93 230.77,242.47 241.05,240.12 251.33,248.48 261.61,256.65 271.89,261.44 282.18,262.41 292.46,264.75 302.74,261.4 313.02,262.76 323.3,244.65 333.58,230.98 343.86,234.56 354.14,260.01 364.42,254.76 374.7,238.53 384.98,231.76 395.26,226.22 405.54,247.36 415.82,238.78 426.11,250.58 436.39,256.4 446.67,243.61 456.95,265.98 467.23,253.29 477.51,225.25 487.79,246.45 498.07,252.36 508.35,241.14 518.63,253.3 528.91,245.06 539.19,205.73 549.47,260.99 559.75,265.11 570.04,263.66 580.32,270.45 590.6,265.53 600.88,248.25 611.16,259.3 621.44,255.01"></polyline><circle cx="56" cy="198.31" r="2.6" fill="#1F9CF0"></circle><circle cx="66.28" cy="224.59" r="2.6" fill="#1F9CF0"></circle><circle cx="76.56" cy="214.73" r="2.6" fill="#1F9CF0"></circle><circle cx="86.84" cy="247.97" r="2.6" fill="#1F9CF0"></circle><circle cx="97.12" cy="236.75" r="2.6" fill="#1F9CF0"></circle><circle cx="107.4" cy="219.64" r="2.6" fill="#1F9CF0"></circle><circle cx="117.68" cy="238.79" r="2.6" fill="#1F9CF0"></circle><circle cx="127.96" cy="207.95" r="2.6" fill="#1F9CF0"></circle><circle cx="138.25" cy="201.38" r="2.6" fill="#1F9CF0"></circle><circle cx="148.53" cy="239.3" r="2.6" fill="#1F9CF0"></circle><circle cx="158.81" cy="242.33" r="2.6" fill="#1F9CF0"></circle><circle cx="169.09" cy="177.25" r="2.6" fill="#1F9CF0"></circle><circle cx="179.37" cy="218.95" r="2.6" fill="#1F9CF0"></circle><circle cx="189.65" cy="232.82" r="2.6" fill="#1F9CF0"></circle><circle cx="199.93" cy="248.48" r="2.6" fill="#1F9CF0"></circle><circle cx="210.21" cy="252.97" r="2.6" fill="#1F9CF0"></circle><circle cx="220.49" cy="230.93" r="2.6" fill="#1F9CF0"></circle><circle cx="230.77" cy="242.47" r="2.6" fill="#1F9CF0"></circle><circle cx="241.05" cy="240.12" r="2.6" fill="#1F9CF0"></circle><circle cx="251.33" cy="248.48" r="2.6" fill="#1F9CF0"></circle><circle cx="261.61" cy="256.65" r="2.6" fill="#1F9CF0"></circle><circle cx="271.89" cy="261.44" r="2.6" fill="#1F9CF0"></circle><circle cx="282.18" cy="262.41" r="2.6" fill="#1F9CF0"></circle><circle cx="292.46" cy="264.75" r="2.6" fill="#1F9CF0"></circle><circle cx="302.74" cy="261.4" r="2.6" fill="#1F9CF0"></circle><circle cx="313.02" cy="262.76" r="2.6" fill="#1F9CF0"></circle><circle cx="323.3" cy="244.65" r="2.6" fill="#1F9CF0"></circle><circle cx="333.58" cy="230.98" r="2.6" fill="#1F9CF0"></circle><circle cx="343.86" cy="234.56" r="2.6" fill="#1F9CF0"></circle><circle cx="354.14" cy="260.01" r="2.6" fill="#1F9CF0"></circle><circle cx="364.42" cy="254.76" r="2.6" fill="#1F9CF0"></circle><circle cx="374.7" cy="238.53" r="2.6" fill="#1F9CF0"></circle><circle cx="384.98" cy="231.76" r="2.6" fill="#1F9CF0"></circle><circle cx="395.26" cy="226.22" r="2.6" fill="#1F9CF0"></circle><circle cx="405.54" cy="247.36" r="2.6" fill="#1F9CF0"></circle><circle cx="415.82" cy="238.78" r="2.6" fill="#1F9CF0"></circle><circle cx="426.11" cy="250.58" r="2.6" fill="#1F9CF0"></circle><circle cx="436.39" cy="256.4" r="2.6" fill="#1F9CF0"></circle><circle cx="446.67" cy="243.61" r="2.6" fill="#1F9CF0"></circle><circle cx="456.95" cy="265.98" r="2.6" fill="#1F9CF0"></circle><circle cx="467.23" cy="253.29" r="2.6" fill="#1F9CF0"></circle><circle cx="477.51" cy="225.25" r="2.6" fill="#1F9CF0"></circle><circle cx="487.79" cy="246.45" r="2.6" fill="#1F9CF0"></circle><circle cx="498.07" cy="252.36" r="2.6" fill="#1F9CF0"></circle><circle cx="508.35" cy="241.14" r="2.6" fill="#1F9CF0"></circle><circle cx="518.63" cy="253.3" r="2.6" fill="#1F9CF0"></circle><circle cx="528.91" cy="245.06" r="2.6" fill="#1F9CF0"></circle><circle cx="539.19" cy="205.73" r="2.6" fill="#1F9CF0"></circle><circle cx="549.47" cy="260.99" r="2.6" fill="#1F9CF0"></circle><circle cx="559.75" cy="265.11" r="2.6" fill="#1F9CF0"></circle><circle cx="570.04" cy="263.66" r="2.6" fill="#1F9CF0"></circle><circle cx="580.32" cy="270.45" r="2.6" fill="#1F9CF0"></circle><circle cx="590.6" cy="265.53" r="2.6" fill="#1F9CF0"></circle><circle cx="600.88" cy="248.25" r="2.6" fill="#1F9CF0"></circle><circle cx="611.16" cy="259.3" r="2.6" fill="#1F9CF0"></circle><circle cx="621.44" cy="255.01" r="2.6" fill="#1F9CF0"></circle><line x1="656" y1="27" x2="672" y2="27" stroke="#E8835A" stroke-width="3" stroke-linecap="round"></line><text x="678" y="30" font-size="11" font-weight="400" text-anchor="start" fill="#1f2328">anthropic</text><line x1="656" y1="47" x2="672" y2="47" stroke="#6366F1" stroke-width="3" stroke-linecap="round"></line><text x="678" y="50" font-size="11" font-weight="400" text-anchor="start" fill="#1f2328">deepseek</text><line x1="656" y1="67" x2="672" y2="67" stroke="#2DA98C" stroke-width="3" stroke-linecap="round"></line><text x="678" y="70" font-size="11" font-weight="400" text-anchor="start" fill="#1f2328">gemini</text><line x1="656" y1="87" x2="672" y2="87" stroke="#A371F7" stroke-width="3" stroke-linecap="round"></line><text x="678" y="90" font-size="11" font-weight="400" text-anchor="start" fill="#1f2328">llama</text><line x1="656" y1="107" x2="672" y2="107" stroke="#F0A23B" stroke-width="3" stroke-linecap="round"></line><text x="678" y="110" font-size="11" font-weight="400" text-anchor="start" fill="#1f2328">mistral</text><line x1="656" y1="127" x2="672" y2="127" stroke="#1F9CF0" stroke-width="3" stroke-linecap="round"></line><text x="678" y="130" font-size="11" font-weight="400" text-anchor="start" fill="#1f2328">openai</text></svg>
