<svg xmlns="http://www.w3.org/2000/svg" viewBox="0 0 600 300" width="600" height="300" role="img" aria-label="Avg LLM latency by provider over runs (s)"><text x="300.0" y="24" text-anchor="middle" font-family="system-ui, -apple-system, sans-serif" font-size="14" font-weight="600" fill="#333">Avg LLM latency by provider over runs (s)</text><line x1="60" y1="240.0" x2="480" y2="240.0" stroke="#eee" stroke-width="1"/><text x="54" y="244.0" text-anchor="end" font-family="system-ui, -apple-system, sans-serif" font-size="9" fill="#999">41.35</text><line x1="60" y1="140.0" x2="480" y2="140.0" stroke="#eee" stroke-width="1"/><text x="54" y="144.0" text-anchor="end" font-family="system-ui, -apple-system, sans-serif" font-size="9" fill="#999">137</text><line x1="60" y1="40.0" x2="480" y2="40.0" stroke="#eee" stroke-width="1"/><text x="54" y="44.0" text-anchor="end" font-family="system-ui, -apple-system, sans-serif" font-size="9" fill="#999">232.7</text><polyline fill="none" stroke="#4CAF50" stroke-width="2" points="60.0,152.3 88.0,184.3 116.0,172.3 144.0,212.7 172.0,199.1 200.0,178.3 228.0,201.5 256.0,164.1 284.0,156.1 312.0,202.2 340.0,205.8 368.0,126.8 396.0,177.4 424.0,194.3 452.0,213.3 480.0,218.8"/><circle cx="60.0" cy="152.3" r="3" fill="#4CAF50"/><circle cx="88.0" cy="184.3" r="3" fill="#4CAF50"/><circle cx="116.0" cy="172.3" r="3" fill="#4CAF50"/><circle cx="144.0" cy="212.7" r="3" fill="#4CAF50"/><circle cx="172.0" cy="199.1" r="3" fill="#4CAF50"/><circle cx="200.0" cy="178.3" r="3" fill="#4CAF50"/><circle cx="228.0" cy="201.5" r="3" fill="#4CAF50"/><circle cx="256.0" cy="164.1" r="3" fill="#4CAF50"/><circle cx="284.0" cy="156.1" r="3" fill="#4CAF50"/><circle cx="312.0" cy="202.2" r="3" fill="#4CAF50"/><circle cx="340.0" cy="205.8" r="3" fill="#4CAF50"/><circle cx="368.0" cy="126.8" r="3" fill="#4CAF50"/><circle cx="396.0" cy="177.4" r="3" fill="#4CAF50"/><circle cx="424.0" cy="194.3" r="3" fill="#4CAF50"/><circle cx="452.0" cy="213.3" r="3" fill="#4CAF50"/><circle cx="480.0" cy="218.8" r="3" fill="#4CAF50"/><rect x="490" y="44" width="10" height="10" fill="#4CAF50"/><text x="504" y="53" font-family="system-ui, -apple-system, sans-serif" font-size="10" fill="#333">openai</text><polyline fill="none" stroke="#2196F3" stroke-width="2" points="60.0,189.8 88.0,193.7 116.0,201.7 144.0,207.9 172.0,197.5 200.0,194.3 228.0,215.5 256.0,207.1 284.0,205.0 312.0,192.2 368.0,195.8 396.0,208.3 424.0,189.3 452.0,210.4 480.0,205.7"/><circle cx="60.0" cy="189.8" r="3" fill="#2196F3"/><circle cx="88.0" cy="193.7" r="3" fill="#2196F3"/><circle cx="116.0" cy="201.7" r="3" fill="#2196F3"/><circle cx="144.0" cy="207.9" r="3" fill="#2196F3"/><circle cx="172.0" cy="197.5" r="3" fill="#2196F3"/><circle cx="200.0" cy="194.3" r="3" fill="#2196F3"/><circle cx="228.0" cy="215.5" r="3" fill="#2196F3"/><circle cx="256.0" cy="207.1" r="3" fill="#2196F3"/><circle cx="284.0" cy="205.0" r="3" fill="#2196F3"/><circle cx="312.0" cy="192.2" r="3" fill="#2196F3"/><circle cx="368.0" cy="195.8" r="3" fill="#2196F3"/><circle cx="396.0" cy="208.3" r="3" fill="#2196F3"/><circle cx="424.0" cy="189.3" r="3" fill="#2196F3"/><circle cx="452.0" cy="210.4" r="3" fill="#2196F3"/><circle cx="480.0" cy="205.7" r="3" fill="#2196F3"/><rect x="490" y="62" width="10" height="10" fill="#2196F3"/><text x="504" y="71" font-family="system-ui, -apple-system, sans-serif" font-size="10" fill="#333">anthropic</text><polyline fill="none" stroke="#FF9800" stroke-width="2" points="60.0,160.8 88.0,173.1 116.0,123.0 144.0,175.7 172.0,177.1 200.0,187.9 228.0,159.0 256.0,144.9 284.0,173.1 312.0,148.1 340.0,148.2 368.0,83.3 396.0,92.3 424.0,148.1 452.0,131.1 480.0,156.9"/><circle cx="60.0" cy="160.8" r="3" fill="#FF9800"/><circle cx="88.0" cy="173.1" r="3" fill="#FF9800"/><circle cx="116.0" cy="123.0" r="3" fill="#FF9800"/><circle cx="144.0" cy="175.7" r="3" fill="#FF9800"/><circle cx="172.0" cy="177.1" r="3" fill="#FF9800"/><circle cx="200.0" cy="187.9" r="3" fill="#FF9800"/><circle cx="228.0" cy="159.0" r="3" fill="#FF9800"/><circle cx="256.0" cy="144.9" r="3" fill="#FF9800"/><circle cx="284.0" cy="173.1" r="3" fill="#FF9800"/><circle cx="312.0" cy="148.1" r="3" fill="#FF9800"/><circle cx="340.0" cy="148.2" r="3" fill="#FF9800"/><circle cx="368.0" cy="83.3" r="3" fill="#FF9800"/><circle cx="396.0" cy="92.3" r="3" fill="#FF9800"/><circle cx="424.0" cy="148.1" r="3" fill="#FF9800"/><circle cx="452.0" cy="131.1" r="3" fill="#FF9800"/><circle cx="480.0" cy="156.9" r="3" fill="#FF9800"/><rect x="490" y="80" width="10" height="10" fill="#FF9800"/><text x="504" y="89" font-family="system-ui, -apple-system, sans-serif" font-size="10" fill="#333">gemini</text><polyline fill="none" stroke="#E91E63" stroke-width="2" points="60.0,66.7 88.0,93.5 116.0,132.2 144.0,80.6 172.0,41.8 200.0,178.7 228.0,52.7 256.0,133.6 284.0,146.8 312.0,150.9 340.0,40.0 368.0,88.9 396.0,131.8 424.0,157.9 452.0,75.2 480.0,177.6"/><circle cx="60.0" cy="66.7" r="3" fill="#E91E63"/><circle cx="88.0" cy="93.5" r="3" fill="#E91E63"/><circle cx="116.0" cy="132.2" r="3" fill="#E91E63"/><circle cx="144.0" cy="80.6" r="3" fill="#E91E63"/><circle cx="172.0" cy="41.8" r="3" fill="#E91E63"/><circle cx="200.0" cy="178.7" r="3" fill="#E91E63"/><circle cx="228.0" cy="52.7" r="3" fill="#E91E63"/><circle cx="256.0" cy="133.6" r="3" fill="#E91E63"/><circle cx="284.0" cy="146.8" r="3" fill="#E91E63"/><circle cx="312.0" cy="150.9" r="3" fill="#E91E63"/><circle cx="340.0" cy="40.0" r="3" fill="#E91E63"/><circle cx="368.0" cy="88.9" r="3" fill="#E91E63"/><circle cx="396.0" cy="131.8" r="3" fill="#E91E63"/><circle cx="424.0" cy="157.9" r="3" fill="#E91E63"/><circle cx="452.0" cy="75.2" r="3" fill="#E91E63"/><circle cx="480.0" cy="177.6" r="3" fill="#E91E63"/><rect x="490" y="98" width="10" height="10" fill="#E91E63"/><text x="504" y="107" font-family="system-ui, -apple-system, sans-serif" font-size="10" fill="#333">llama</text><polyline fill="none" stroke="#9C27B0" stroke-width="2" points="60.0,118.7 88.0,94.4 116.0,138.9 144.0,97.7 172.0,78.3 200.0,139.1 228.0,158.0 256.0,178.2 284.0,139.0 312.0,110.2 340.0,176.9 368.0,212.6 396.0,182.1 424.0,214.8 452.0,184.4 480.0,207.5"/><circle cx="60.0" cy="118.7" r="3" fill="#9C27B0"/><circle cx="88.0" cy="94.4" r="3" fill="#9C27B0"/><circle cx="116.0" cy="138.9" r="3" fill="#9C27B0"/><circle cx="144.0" cy="97.7" r="3" fill="#9C27B0"/><circle cx="172.0" cy="78.3" r="3" fill="#9C27B0"/><circle cx="200.0" cy="139.1" r="3" fill="#9C27B0"/><circle cx="228.0" cy="158.0" r="3" fill="#9C27B0"/><circle cx="256.0" cy="178.2" r="3" fill="#9C27B0"/><circle cx="284.0" cy="139.0" r="3" fill="#9C27B0"/><circle cx="312.0" cy="110.2" r="3" fill="#9C27B0"/><circle cx="340.0" cy="176.9" r="3" fill="#9C27B0"/><circle cx="368.0" cy="212.6" r="3" fill="#9C27B0"/><circle cx="396.0" cy="182.1" r="3" fill="#9C27B0"/><circle cx="424.0" cy="214.8" r="3" fill="#9C27B0"/><circle cx="452.0" cy="184.4" r="3" fill="#9C27B0"/><circle cx="480.0" cy="207.5" r="3" fill="#9C27B0"/><rect x="490" y="116" width="10" height="10" fill="#9C27B0"/><text x="504" y="125" font-family="system-ui, -apple-system, sans-serif" font-size="10" fill="#333">mistral</text><polyline fill="none" stroke="#00BCD4" stroke-width="2" points="88.0,211.8 116.0,205.9 144.0,215.1 172.0,191.4 200.0,227.6 228.0,227.7 256.0,240.0 284.0,213.9 312.0,209.3 340.0,212.5 368.0,222.7 396.0,213.6 424.0,229.1 452.0,207.4 480.0,167.2"/><circle cx="88.0" cy="211.8" r="3" fill="#00BCD4"/><circle cx="116.0" cy="205.9" r="3" fill="#00BCD4"/><circle cx="144.0" cy="215.1" r="3" fill="#00BCD4"/><circle cx="172.0" cy="191.4" r="3" fill="#00BCD4"/><circle cx="200.0" cy="227.6" r="3" fill="#00BCD4"/><circle cx="228.0" cy="227.7" r="3" fill="#00BCD4"/><circle cx="256.0" cy="240.0" r="3" fill="#00BCD4"/><circle cx="284.0" cy="213.9" r="3" fill="#00BCD4"/><circle cx="312.0" cy="209.3" r="3" fill="#00BCD4"/><circle cx="340.0" cy="212.5" r="3" fill="#00BCD4"/><circle cx="368.0" cy="222.7" r="3" fill="#00BCD4"/><circle cx="396.0" cy="213.6" r="3" fill="#00BCD4"/><circle cx="424.0" cy="229.1" r="3" fill="#00BCD4"/><circle cx="452.0" cy="207.4" r="3" fill="#00BCD4"/><circle cx="480.0" cy="167.2" r="3" fill="#00BCD4"/><rect x="490" y="134" width="10" height="10" fill="#00BCD4"/><text x="504" y="143" font-family="system-ui, -apple-system, sans-serif" font-size="10" fill="#333">deepseek</text><text x="60.0" y="256.0" text-anchor="middle" font-family="system-ui, -apple-system, sans-serif" font-size="9" fill="#666">33376499</text><text x="88.0" y="256.0" text-anchor="middle" font-family="system-ui, -apple-system, sans-serif" font-size="9" fill="#666">49559976</text><text x="116.0" y="256.0" text-anchor="middle" font-family="system-ui, -apple-system, sans-serif" font-size="9" fill="#666">51938981</text><text x="144.0" y="256.0" text-anchor="middle" font-family="system-ui, -apple-system, sans-serif" font-size="9" fill="#666">53749546</text><text x="172.0" y="256.0" text-anchor="middle" font-family="system-ui, -apple-system, sans-serif" font-size="9" fill="#666">54994841</text><text x="200.0" y="256.0" text-anchor="middle" font-family="system-ui, -apple-system, sans-serif" font-size="9" fill="#666">73723278</text><text x="228.0" y="256.0" text-anchor="middle" font-family="system-ui, -apple-system, sans-serif" font-size="9" fill="#666">74446787</text><text x="256.0" y="256.0" text-anchor="middle" font-family="system-ui, -apple-system, sans-serif" font-size="9" fill="#666">75063969</text><text x="284.0" y="256.0" text-anchor="middle" font-family="system-ui, -apple-system, sans-serif" font-size="9" fill="#666">75757458</text><text x="312.0" y="256.0" text-anchor="middle" font-family="system-ui, -apple-system, sans-serif" font-size="9" fill="#666">76005435</text><text x="340.0" y="256.0" text-anchor="middle" font-family="system-ui, -apple-system, sans-serif" font-size="9" fill="#666">37885074</text><text x="368.0" y="256.0" text-anchor="middle" font-family="system-ui, -apple-system, sans-serif" font-size="9" fill="#666">39719442</text><text x="396.0" y="256.0" text-anchor="middle" font-family="system-ui, -apple-system, sans-serif" font-size="9" fill="#666">41073326</text><text x="424.0" y="256.0" text-anchor="middle" font-family="system-ui, -apple-system, sans-serif" font-size="9" fill="#666">41747041</text><text x="452.0" y="256.0" text-anchor="middle" font-family="system-ui, -apple-system, sans-serif" font-size="9" fill="#666">04094958</text><text x="480.0" y="256.0" text-anchor="middle" font-family="system-ui, -apple-system, sans-serif" font-size="9" fill="#666">11556178</text></svg>
