<svg xmlns="http://www.w3.org/2000/svg" viewBox="0 0 600 300" width="600" height="300" role="img" aria-label="Avg LLM latency by provider over runs (s)"><text x="300.0" y="24" text-anchor="middle" font-family="system-ui, -apple-system, sans-serif" font-size="14" font-weight="600" fill="#333">Avg LLM latency by provider over runs (s)</text><line x1="60" y1="240.0" x2="480" y2="240.0" stroke="#eee" stroke-width="1"/><text x="54" y="244.0" text-anchor="end" font-family="system-ui, -apple-system, sans-serif" font-size="9" fill="#999">41.35</text><line x1="60" y1="140.0" x2="480" y2="140.0" stroke="#eee" stroke-width="1"/><text x="54" y="144.0" text-anchor="end" font-family="system-ui, -apple-system, sans-serif" font-size="9" fill="#999">164.3</text><line x1="60" y1="40.0" x2="480" y2="40.0" stroke="#eee" stroke-width="1"/><text x="54" y="44.0" text-anchor="end" font-family="system-ui, -apple-system, sans-serif" font-size="9" fill="#999">287.4</text><polyline fill="none" stroke="#4CAF50" stroke-width="2" points="60.0,171.8 84.7,196.7 109.4,187.4 134.1,218.8 158.8,208.2 183.5,192.0 208.2,210.1 232.9,180.9 257.6,174.7 282.4,210.6 307.1,213.4 331.8,151.9 356.5,191.3 381.2,204.4 405.9,219.2 430.6,223.5 455.3,202.7 480.0,213.6"/><circle cx="60.0" cy="171.8" r="3" fill="#4CAF50"/><circle cx="84.7" cy="196.7" r="3" fill="#4CAF50"/><circle cx="109.4" cy="187.4" r="3" fill="#4CAF50"/><circle cx="134.1" cy="218.8" r="3" fill="#4CAF50"/><circle cx="158.8" cy="208.2" r="3" fill="#4CAF50"/><circle cx="183.5" cy="192.0" r="3" fill="#4CAF50"/><circle cx="208.2" cy="210.1" r="3" fill="#4CAF50"/><circle cx="232.9" cy="180.9" r="3" fill="#4CAF50"/><circle cx="257.6" cy="174.7" r="3" fill="#4CAF50"/><circle cx="282.4" cy="210.6" r="3" fill="#4CAF50"/><circle cx="307.1" cy="213.4" r="3" fill="#4CAF50"/><circle cx="331.8" cy="151.9" r="3" fill="#4CAF50"/><circle cx="356.5" cy="191.3" r="3" fill="#4CAF50"/><circle cx="381.2" cy="204.4" r="3" fill="#4CAF50"/><circle cx="405.9" cy="219.2" r="3" fill="#4CAF50"/><circle cx="430.6" cy="223.5" r="3" fill="#4CAF50"/><circle cx="455.3" cy="202.7" r="3" fill="#4CAF50"/><circle cx="480.0" cy="213.6" r="3" fill="#4CAF50"/><rect x="490" y="44" width="10" height="10" fill="#4CAF50"/><text x="504" y="53" font-family="system-ui, -apple-system, sans-serif" font-size="10" fill="#333">openai</text><polyline fill="none" stroke="#2196F3" stroke-width="2" points="60.0,201.0 84.7,204.0 109.4,210.2 134.1,215.0 158.8,207.0 183.5,204.4 208.2,220.9 232.9,214.4 257.6,212.8 282.4,202.9 331.8,205.6 356.5,215.3 381.2,200.6 405.9,217.0 430.6,213.3 455.3,207.1 480.0,213.4"/><circle cx="60.0" cy="201.0" r="3" fill="#2196F3"/><circle cx="84.7" cy="204.0" r="3" fill="#2196F3"/><circle cx="109.4" cy="210.2" r="3" fill="#2196F3"/><circle cx="134.1" cy="215.0" r="3" fill="#2196F3"/><circle cx="158.8" cy="207.0" r="3" fill="#2196F3"/><circle cx="183.5" cy="204.4" r="3" fill="#2196F3"/><circle cx="208.2" cy="220.9" r="3" fill="#2196F3"/><circle cx="232.9" cy="214.4" r="3" fill="#2196F3"/><circle cx="257.6" cy="212.8" r="3" fill="#2196F3"/><circle cx="282.4" cy="202.9" r="3" fill="#2196F3"/><circle cx="331.8" cy="205.6" r="3" fill="#2196F3"/><circle cx="356.5" cy="215.3" r="3" fill="#2196F3"/><circle cx="381.2" cy="200.6" r="3" fill="#2196F3"/><circle cx="405.9" cy="217.0" r="3" fill="#2196F3"/><circle cx="430.6" cy="213.3" r="3" fill="#2196F3"/><circle cx="455.3" cy="207.1" r="3" fill="#2196F3"/><circle cx="480.0" cy="213.4" r="3" fill="#2196F3"/><rect x="490" y="62" width="10" height="10" fill="#2196F3"/><text x="504" y="71" font-family="system-ui, -apple-system, sans-serif" font-size="10" fill="#333">anthropic</text><polyline fill="none" stroke="#FF9800" stroke-width="2" points="60.0,178.4 84.7,188.0 109.4,149.0 134.1,190.0 158.8,191.1 183.5,199.5 208.2,177.0 232.9,166.0 257.6,187.9 282.4,168.5 307.1,168.6 331.8,118.1 356.5,125.1 381.2,168.6 405.9,155.3 430.6,175.4 455.3,144.2 480.0,184.1"/><circle cx="60.0" cy="178.4" r="3" fill="#FF9800"/><circle cx="84.7" cy="188.0" r="3" fill="#FF9800"/><circle cx="109.4" cy="149.0" r="3" fill="#FF9800"/><circle cx="134.1" cy="190.0" r="3" fill="#FF9800"/><circle cx="158.8" cy="191.1" r="3" fill="#FF9800"/><circle cx="183.5" cy="199.5" r="3" fill="#FF9800"/><circle cx="208.2" cy="177.0" r="3" fill="#FF9800"/><circle cx="232.9" cy="166.0" r="3" fill="#FF9800"/><circle cx="257.6" cy="187.9" r="3" fill="#FF9800"/><circle cx="282.4" cy="168.5" r="3" fill="#FF9800"/><circle cx="307.1" cy="168.6" r="3" fill="#FF9800"/><circle cx="331.8" cy="118.1" r="3" fill="#FF9800"/><circle cx="356.5" cy="125.1" r="3" fill="#FF9800"/><circle cx="381.2" cy="168.6" r="3" fill="#FF9800"/><circle cx="405.9" cy="155.3" r="3" fill="#FF9800"/><circle cx="430.6" cy="175.4" r="3" fill="#FF9800"/><circle cx="455.3" cy="144.2" r="3" fill="#FF9800"/><circle cx="480.0" cy="184.1" r="3" fill="#FF9800"/><rect x="490" y="80" width="10" height="10" fill="#FF9800"/><text x="504" y="89" font-family="system-ui, -apple-system, sans-serif" font-size="10" fill="#333">gemini</text><polyline fill="none" stroke="#E91E63" stroke-width="2" points="60.0,105.2 84.7,126.0 109.4,156.2 134.1,116.0 158.8,85.9 183.5,192.3 208.2,94.3 232.9,157.3 257.6,167.5 282.4,170.7 307.1,84.4 331.8,122.5 356.5,155.9 381.2,176.1 405.9,111.8 430.6,191.5 455.3,40.0 480.0,170.6"/><circle cx="60.0" cy="105.2" r="3" fill="#E91E63"/><circle cx="84.7" cy="126.0" r="3" fill="#E91E63"/><circle cx="109.4" cy="156.2" r="3" fill="#E91E63"/><circle cx="134.1" cy="116.0" r="3" fill="#E91E63"/><circle cx="158.8" cy="85.9" r="3" fill="#E91E63"/><circle cx="183.5" cy="192.3" r="3" fill="#E91E63"/><circle cx="208.2" cy="94.3" r="3" fill="#E91E63"/><circle cx="232.9" cy="157.3" r="3" fill="#E91E63"/><circle cx="257.6" cy="167.5" r="3" fill="#E91E63"/><circle cx="282.4" cy="170.7" r="3" fill="#E91E63"/><circle cx="307.1" cy="84.4" r="3" fill="#E91E63"/><circle cx="331.8" cy="122.5" r="3" fill="#E91E63"/><circle cx="356.5" cy="155.9" r="3" fill="#E91E63"/><circle cx="381.2" cy="176.1" r="3" fill="#E91E63"/><circle cx="405.9" cy="111.8" r="3" fill="#E91E63"/><circle cx="430.6" cy="191.5" r="3" fill="#E91E63"/><circle cx="455.3" cy="40.0" r="3" fill="#E91E63"/><circle cx="480.0" cy="170.6" r="3" fill="#E91E63"/><rect x="490" y="98" width="10" height="10" fill="#E91E63"/><text x="504" y="107" font-family="system-ui, -apple-system, sans-serif" font-size="10" fill="#333">llama</text><polyline fill="none" stroke="#9C27B0" stroke-width="2" points="60.0,145.6 84.7,126.8 109.4,161.4 134.1,129.3 158.8,114.3 183.5,161.5 208.2,176.2 232.9,191.9 257.6,161.4 282.4,139.1 307.1,191.0 331.8,218.7 356.5,194.9 381.2,220.4 405.9,196.8 430.6,214.7 455.3,216.7 480.0,184.6"/><circle cx="60.0" cy="145.6" r="3" fill="#9C27B0"/><circle cx="84.7" cy="126.8" r="3" fill="#9C27B0"/><circle cx="109.4" cy="161.4" r="3" fill="#9C27B0"/><circle cx="134.1" cy="129.3" r="3" fill="#9C27B0"/><circle cx="158.8" cy="114.3" r="3" fill="#9C27B0"/><circle cx="183.5" cy="161.5" r="3" fill="#9C27B0"/><circle cx="208.2" cy="176.2" r="3" fill="#9C27B0"/><circle cx="232.9" cy="191.9" r="3" fill="#9C27B0"/><circle cx="257.6" cy="161.4" r="3" fill="#9C27B0"/><circle cx="282.4" cy="139.1" r="3" fill="#9C27B0"/><circle cx="307.1" cy="191.0" r="3" fill="#9C27B0"/><circle cx="331.8" cy="218.7" r="3" fill="#9C27B0"/><circle cx="356.5" cy="194.9" r="3" fill="#9C27B0"/><circle cx="381.2" cy="220.4" r="3" fill="#9C27B0"/><circle cx="405.9" cy="196.8" r="3" fill="#9C27B0"/><circle cx="430.6" cy="214.7" r="3" fill="#9C27B0"/><circle cx="455.3" cy="216.7" r="3" fill="#9C27B0"/><circle cx="480.0" cy="184.6" r="3" fill="#9C27B0"/><rect x="490" y="116" width="10" height="10" fill="#9C27B0"/><text x="504" y="125" font-family="system-ui, -apple-system, sans-serif" font-size="10" fill="#333">mistral</text><polyline fill="none" stroke="#00BCD4" stroke-width="2" points="84.7,218.1 109.4,213.5 134.1,220.7 158.8,202.2 183.5,230.3 208.2,230.5 232.9,240.0 257.6,219.7 282.4,216.1 307.1,218.6 331.8,226.6 356.5,219.5 381.2,231.5 405.9,214.6 430.6,183.3 455.3,236.1 480.0,204.0"/><circle cx="84.7" cy="218.1" r="3" fill="#00BCD4"/><circle cx="109.4" cy="213.5" r="3" fill="#00BCD4"/><circle cx="134.1" cy="220.7" r="3" fill="#00BCD4"/><circle cx="158.8" cy="202.2" r="3" fill="#00BCD4"/><circle cx="183.5" cy="230.3" r="3" fill="#00BCD4"/><circle cx="208.2" cy="230.5" r="3" fill="#00BCD4"/><circle cx="232.9" cy="240.0" r="3" fill="#00BCD4"/><circle cx="257.6" cy="219.7" r="3" fill="#00BCD4"/><circle cx="282.4" cy="216.1" r="3" fill="#00BCD4"/><circle cx="307.1" cy="218.6" r="3" fill="#00BCD4"/><circle cx="331.8" cy="226.6" r="3" fill="#00BCD4"/><circle cx="356.5" cy="219.5" r="3" fill="#00BCD4"/><circle cx="381.2" cy="231.5" r="3" fill="#00BCD4"/><circle cx="405.9" cy="214.6" r="3" fill="#00BCD4"/><circle cx="430.6" cy="183.3" r="3" fill="#00BCD4"/><circle cx="455.3" cy="236.1" r="3" fill="#00BCD4"/><circle cx="480.0" cy="204.0" r="3" fill="#00BCD4"/><rect x="490" y="134" width="10" height="10" fill="#00BCD4"/><text x="504" y="143" font-family="system-ui, -apple-system, sans-serif" font-size="10" fill="#333">deepseek</text><text x="60.0" y="256.0" text-anchor="middle" font-family="system-ui, -apple-system, sans-serif" font-size="9" fill="#666">33376499</text><text x="84.7" y="256.0" text-anchor="middle" font-family="system-ui, -apple-system, sans-serif" font-size="9" fill="#666">49559976</text><text x="109.4" y="256.0" text-anchor="middle" font-family="system-ui, -apple-system, sans-serif" font-size="9" fill="#666">51938981</text><text x="134.1" y="256.0" text-anchor="middle" font-family="system-ui, -apple-system, sans-serif" font-size="9" fill="#666">53749546</text><text x="158.8" y="256.0" text-anchor="middle" font-family="system-ui, -apple-system, sans-serif" font-size="9" fill="#666">54994841</text><text x="183.5" y="256.0" text-anchor="middle" font-family="system-ui, -apple-system, sans-serif" font-size="9" fill="#666">73723278</text><text x="208.2" y="256.0" text-anchor="middle" font-family="system-ui, -apple-system, sans-serif" font-size="9" fill="#666">74446787</text><text x="232.9" y="256.0" text-anchor="middle" font-family="system-ui, -apple-system, sans-serif" font-size="9" fill="#666">75063969</text><text x="257.6" y="256.0" text-anchor="middle" font-family="system-ui, -apple-system, sans-serif" font-size="9" fill="#666">75757458</text><text x="282.4" y="256.0" text-anchor="middle" font-family="system-ui, -apple-system, sans-serif" font-size="9" fill="#666">76005435</text><text x="307.1" y="256.0" text-anchor="middle" font-family="system-ui, -apple-system, sans-serif" font-size="9" fill="#666">37885074</text><text x="331.8" y="256.0" text-anchor="middle" font-family="system-ui, -apple-system, sans-serif" font-size="9" fill="#666">39719442</text><text x="356.5" y="256.0" text-anchor="middle" font-family="system-ui, -apple-system, sans-serif" font-size="9" fill="#666">41073326</text><text x="381.2" y="256.0" text-anchor="middle" font-family="system-ui, -apple-system, sans-serif" font-size="9" fill="#666">41747041</text><text x="405.9" y="256.0" text-anchor="middle" font-family="system-ui, -apple-system, sans-serif" font-size="9" fill="#666">04094958</text><text x="430.6" y="256.0" text-anchor="middle" font-family="system-ui, -apple-system, sans-serif" font-size="9" fill="#666">11556178</text><text x="455.3" y="256.0" text-anchor="middle" font-family="system-ui, -apple-system, sans-serif" font-size="9" fill="#666">12682497</text><text x="480.0" y="256.0" text-anchor="middle" font-family="system-ui, -apple-system, sans-serif" font-size="9" fill="#666">34092480</text></svg>
