<svg xmlns="http://www.w3.org/2000/svg" viewBox="0 0 600 300" width="600" height="300" role="img" aria-label="Avg LLM latency by provider over runs (s)"><text x="300.0" y="24" text-anchor="middle" font-family="system-ui, -apple-system, sans-serif" font-size="14" font-weight="600" fill="#333">Avg LLM latency by provider over runs (s)</text><line x1="60" y1="240.0" x2="480" y2="240.0" stroke="#eee" stroke-width="1"/><text x="54" y="244.0" text-anchor="end" font-family="system-ui, -apple-system, sans-serif" font-size="9" fill="#999">41.35</text><line x1="60" y1="140.0" x2="480" y2="140.0" stroke="#eee" stroke-width="1"/><text x="54" y="144.0" text-anchor="end" font-family="system-ui, -apple-system, sans-serif" font-size="9" fill="#999">164.3</text><line x1="60" y1="40.0" x2="480" y2="40.0" stroke="#eee" stroke-width="1"/><text x="54" y="44.0" text-anchor="end" font-family="system-ui, -apple-system, sans-serif" font-size="9" fill="#999">287.4</text><polyline fill="none" stroke="#4CAF50" stroke-width="2" points="60.0,171.8 81.0,196.7 102.0,187.4 123.0,218.8 144.0,208.2 165.0,192.0 186.0,210.1 207.0,180.9 228.0,174.7 249.0,210.6 270.0,213.4 291.0,151.9 312.0,191.3 333.0,204.4 354.0,219.2 375.0,223.5 396.0,202.7 417.0,213.6 438.0,211.3 459.0,219.2 480.0,227.0"/><circle cx="60.0" cy="171.8" r="3" fill="#4CAF50"/><circle cx="81.0" cy="196.7" r="3" fill="#4CAF50"/><circle cx="102.0" cy="187.4" r="3" fill="#4CAF50"/><circle cx="123.0" cy="218.8" r="3" fill="#4CAF50"/><circle cx="144.0" cy="208.2" r="3" fill="#4CAF50"/><circle cx="165.0" cy="192.0" r="3" fill="#4CAF50"/><circle cx="186.0" cy="210.1" r="3" fill="#4CAF50"/><circle cx="207.0" cy="180.9" r="3" fill="#4CAF50"/><circle cx="228.0" cy="174.7" r="3" fill="#4CAF50"/><circle cx="249.0" cy="210.6" r="3" fill="#4CAF50"/><circle cx="270.0" cy="213.4" r="3" fill="#4CAF50"/><circle cx="291.0" cy="151.9" r="3" fill="#4CAF50"/><circle cx="312.0" cy="191.3" r="3" fill="#4CAF50"/><circle cx="333.0" cy="204.4" r="3" fill="#4CAF50"/><circle cx="354.0" cy="219.2" r="3" fill="#4CAF50"/><circle cx="375.0" cy="223.5" r="3" fill="#4CAF50"/><circle cx="396.0" cy="202.7" r="3" fill="#4CAF50"/><circle cx="417.0" cy="213.6" r="3" fill="#4CAF50"/><circle cx="438.0" cy="211.3" r="3" fill="#4CAF50"/><circle cx="459.0" cy="219.2" r="3" fill="#4CAF50"/><circle cx="480.0" cy="227.0" r="3" fill="#4CAF50"/><rect x="490" y="44" width="10" height="10" fill="#4CAF50"/><text x="504" y="53" font-family="system-ui, -apple-system, sans-serif" font-size="10" fill="#333">openai</text><polyline fill="none" stroke="#2196F3" stroke-width="2" points="60.0,201.0 81.0,204.0 102.0,210.2 123.0,215.0 144.0,207.0 165.0,204.4 186.0,220.9 207.0,214.4 228.0,212.8 249.0,202.9 291.0,205.6 312.0,215.3 333.0,200.6 354.0,217.0 375.0,213.3 396.0,207.1 417.0,213.4 438.0,215.5 459.0,217.8 480.0,211.9"/><circle cx="60.0" cy="201.0" r="3" fill="#2196F3"/><circle cx="81.0" cy="204.0" r="3" fill="#2196F3"/><circle cx="102.0" cy="210.2" r="3" fill="#2196F3"/><circle cx="123.0" cy="215.0" r="3" fill="#2196F3"/><circle cx="144.0" cy="207.0" r="3" fill="#2196F3"/><circle cx="165.0" cy="204.4" r="3" fill="#2196F3"/><circle cx="186.0" cy="220.9" r="3" fill="#2196F3"/><circle cx="207.0" cy="214.4" r="3" fill="#2196F3"/><circle cx="228.0" cy="212.8" r="3" fill="#2196F3"/><circle cx="249.0" cy="202.9" r="3" fill="#2196F3"/><circle cx="291.0" cy="205.6" r="3" fill="#2196F3"/><circle cx="312.0" cy="215.3" r="3" fill="#2196F3"/><circle cx="333.0" cy="200.6" r="3" fill="#2196F3"/><circle cx="354.0" cy="217.0" r="3" fill="#2196F3"/><circle cx="375.0" cy="213.3" r="3" fill="#2196F3"/><circle cx="396.0" cy="207.1" r="3" fill="#2196F3"/><circle cx="417.0" cy="213.4" r="3" fill="#2196F3"/><circle cx="438.0" cy="215.5" r="3" fill="#2196F3"/><circle cx="459.0" cy="217.8" r="3" fill="#2196F3"/><circle cx="480.0" cy="211.9" r="3" fill="#2196F3"/><rect x="490" y="62" width="10" height="10" fill="#2196F3"/><text x="504" y="71" font-family="system-ui, -apple-system, sans-serif" font-size="10" fill="#333">anthropic</text><polyline fill="none" stroke="#FF9800" stroke-width="2" points="60.0,178.4 81.0,188.0 102.0,149.0 123.0,190.0 144.0,191.1 165.0,199.5 186.0,177.0 207.0,166.0 228.0,187.9 249.0,168.5 270.0,168.6 291.0,118.1 312.0,125.1 333.0,168.6 354.0,155.3 375.0,175.4 396.0,144.2 417.0,184.1 438.0,167.5 459.0,165.9 480.0,179.7"/><circle cx="60.0" cy="178.4" r="3" fill="#FF9800"/><circle cx="81.0" cy="188.0" r="3" fill="#FF9800"/><circle cx="102.0" cy="149.0" r="3" fill="#FF9800"/><circle cx="123.0" cy="190.0" r="3" fill="#FF9800"/><circle cx="144.0" cy="191.1" r="3" fill="#FF9800"/><circle cx="165.0" cy="199.5" r="3" fill="#FF9800"/><circle cx="186.0" cy="177.0" r="3" fill="#FF9800"/><circle cx="207.0" cy="166.0" r="3" fill="#FF9800"/><circle cx="228.0" cy="187.9" r="3" fill="#FF9800"/><circle cx="249.0" cy="168.5" r="3" fill="#FF9800"/><circle cx="270.0" cy="168.6" r="3" fill="#FF9800"/><circle cx="291.0" cy="118.1" r="3" fill="#FF9800"/><circle cx="312.0" cy="125.1" r="3" fill="#FF9800"/><circle cx="333.0" cy="168.6" r="3" fill="#FF9800"/><circle cx="354.0" cy="155.3" r="3" fill="#FF9800"/><circle cx="375.0" cy="175.4" r="3" fill="#FF9800"/><circle cx="396.0" cy="144.2" r="3" fill="#FF9800"/><circle cx="417.0" cy="184.1" r="3" fill="#FF9800"/><circle cx="438.0" cy="167.5" r="3" fill="#FF9800"/><circle cx="459.0" cy="165.9" r="3" fill="#FF9800"/><circle cx="480.0" cy="179.7" r="3" fill="#FF9800"/><rect x="490" y="80" width="10" height="10" fill="#FF9800"/><text x="504" y="89" font-family="system-ui, -apple-system, sans-serif" font-size="10" fill="#333">gemini</text><polyline fill="none" stroke="#E91E63" stroke-width="2" points="60.0,105.2 81.0,126.0 102.0,156.2 123.0,116.0 144.0,85.9 165.0,192.3 186.0,94.3 207.0,157.3 228.0,167.5 249.0,170.7 270.0,84.4 291.0,122.5 312.0,155.9 333.0,176.1 354.0,111.8 375.0,191.5 396.0,40.0 417.0,170.6 438.0,142.9 459.0,55.5 480.0,105.8"/><circle cx="60.0" cy="105.2" r="3" fill="#E91E63"/><circle cx="81.0" cy="126.0" r="3" fill="#E91E63"/><circle cx="102.0" cy="156.2" r="3" fill="#E91E63"/><circle cx="123.0" cy="116.0" r="3" fill="#E91E63"/><circle cx="144.0" cy="85.9" r="3" fill="#E91E63"/><circle cx="165.0" cy="192.3" r="3" fill="#E91E63"/><circle cx="186.0" cy="94.3" r="3" fill="#E91E63"/><circle cx="207.0" cy="157.3" r="3" fill="#E91E63"/><circle cx="228.0" cy="167.5" r="3" fill="#E91E63"/><circle cx="249.0" cy="170.7" r="3" fill="#E91E63"/><circle cx="270.0" cy="84.4" r="3" fill="#E91E63"/><circle cx="291.0" cy="122.5" r="3" fill="#E91E63"/><circle cx="312.0" cy="155.9" r="3" fill="#E91E63"/><circle cx="333.0" cy="176.1" r="3" fill="#E91E63"/><circle cx="354.0" cy="111.8" r="3" fill="#E91E63"/><circle cx="375.0" cy="191.5" r="3" fill="#E91E63"/><circle cx="396.0" cy="40.0" r="3" fill="#E91E63"/><circle cx="417.0" cy="170.6" r="3" fill="#E91E63"/><circle cx="438.0" cy="142.9" r="3" fill="#E91E63"/><circle cx="459.0" cy="55.5" r="3" fill="#E91E63"/><circle cx="480.0" cy="105.8" r="3" fill="#E91E63"/><rect x="490" y="98" width="10" height="10" fill="#E91E63"/><text x="504" y="107" font-family="system-ui, -apple-system, sans-serif" font-size="10" fill="#333">llama</text><polyline fill="none" stroke="#9C27B0" stroke-width="2" points="60.0,145.6 81.0,126.8 102.0,161.4 123.0,129.3 144.0,114.3 165.0,161.5 186.0,176.2 207.0,191.9 228.0,161.4 249.0,139.1 270.0,191.0 291.0,218.7 312.0,194.9 333.0,220.4 354.0,196.8 375.0,214.7 396.0,216.7 417.0,184.6 438.0,207.7 459.0,228.0 480.0,219.4"/><circle cx="60.0" cy="145.6" r="3" fill="#9C27B0"/><circle cx="81.0" cy="126.8" r="3" fill="#9C27B0"/><circle cx="102.0" cy="161.4" r="3" fill="#9C27B0"/><circle cx="123.0" cy="129.3" r="3" fill="#9C27B0"/><circle cx="144.0" cy="114.3" r="3" fill="#9C27B0"/><circle cx="165.0" cy="161.5" r="3" fill="#9C27B0"/><circle cx="186.0" cy="176.2" r="3" fill="#9C27B0"/><circle cx="207.0" cy="191.9" r="3" fill="#9C27B0"/><circle cx="228.0" cy="161.4" r="3" fill="#9C27B0"/><circle cx="249.0" cy="139.1" r="3" fill="#9C27B0"/><circle cx="270.0" cy="191.0" r="3" fill="#9C27B0"/><circle cx="291.0" cy="218.7" r="3" fill="#9C27B0"/><circle cx="312.0" cy="194.9" r="3" fill="#9C27B0"/><circle cx="333.0" cy="220.4" r="3" fill="#9C27B0"/><circle cx="354.0" cy="196.8" r="3" fill="#9C27B0"/><circle cx="375.0" cy="214.7" r="3" fill="#9C27B0"/><circle cx="396.0" cy="216.7" r="3" fill="#9C27B0"/><circle cx="417.0" cy="184.6" r="3" fill="#9C27B0"/><circle cx="438.0" cy="207.7" r="3" fill="#9C27B0"/><circle cx="459.0" cy="228.0" r="3" fill="#9C27B0"/><circle cx="480.0" cy="219.4" r="3" fill="#9C27B0"/><rect x="490" y="116" width="10" height="10" fill="#9C27B0"/><text x="504" y="125" font-family="system-ui, -apple-system, sans-serif" font-size="10" fill="#333">mistral</text><polyline fill="none" stroke="#00BCD4" stroke-width="2" points="81.0,218.1 102.0,213.5 123.0,220.7 144.0,202.2 165.0,230.3 186.0,230.5 207.0,240.0 228.0,219.7 249.0,216.1 270.0,218.6 291.0,226.6 312.0,219.5 333.0,231.5 354.0,214.6 375.0,183.3 396.0,236.1 417.0,204.0 438.0,203.9 459.0,172.6 480.0,209.3"/><circle cx="81.0" cy="218.1" r="3" fill="#00BCD4"/><circle cx="102.0" cy="213.5" r="3" fill="#00BCD4"/><circle cx="123.0" cy="220.7" r="3" fill="#00BCD4"/><circle cx="144.0" cy="202.2" r="3" fill="#00BCD4"/><circle cx="165.0" cy="230.3" r="3" fill="#00BCD4"/><circle cx="186.0" cy="230.5" r="3" fill="#00BCD4"/><circle cx="207.0" cy="240.0" r="3" fill="#00BCD4"/><circle cx="228.0" cy="219.7" r="3" fill="#00BCD4"/><circle cx="249.0" cy="216.1" r="3" fill="#00BCD4"/><circle cx="270.0" cy="218.6" r="3" fill="#00BCD4"/><circle cx="291.0" cy="226.6" r="3" fill="#00BCD4"/><circle cx="312.0" cy="219.5" r="3" fill="#00BCD4"/><circle cx="333.0" cy="231.5" r="3" fill="#00BCD4"/><circle cx="354.0" cy="214.6" r="3" fill="#00BCD4"/><circle cx="375.0" cy="183.3" r="3" fill="#00BCD4"/><circle cx="396.0" cy="236.1" r="3" fill="#00BCD4"/><circle cx="417.0" cy="204.0" r="3" fill="#00BCD4"/><circle cx="438.0" cy="203.9" r="3" fill="#00BCD4"/><circle cx="459.0" cy="172.6" r="3" fill="#00BCD4"/><circle cx="480.0" cy="209.3" r="3" fill="#00BCD4"/><rect x="490" y="134" width="10" height="10" fill="#00BCD4"/><text x="504" y="143" font-family="system-ui, -apple-system, sans-serif" font-size="10" fill="#333">deepseek</text><text x="60.0" y="256.0" text-anchor="middle" font-family="system-ui, -apple-system, sans-serif" font-size="9" fill="#666">33376499</text><text x="102.0" y="256.0" text-anchor="middle" font-family="system-ui, -apple-system, sans-serif" font-size="9" fill="#666">51938981</text><text x="144.0" y="256.0" text-anchor="middle" font-family="system-ui, -apple-system, sans-serif" font-size="9" fill="#666">54994841</text><text x="186.0" y="256.0" text-anchor="middle" font-family="system-ui, -apple-system, sans-serif" font-size="9" fill="#666">74446787</text><text x="228.0" y="256.0" text-anchor="middle" font-family="system-ui, -apple-system, sans-serif" font-size="9" fill="#666">75757458</text><text x="270.0" y="256.0" text-anchor="middle" font-family="system-ui, -apple-system, sans-serif" font-size="9" fill="#666">37885074</text><text x="312.0" y="256.0" text-anchor="middle" font-family="system-ui, -apple-system, sans-serif" font-size="9" fill="#666">41073326</text><text x="354.0" y="256.0" text-anchor="middle" font-family="system-ui, -apple-system, sans-serif" font-size="9" fill="#666">04094958</text><text x="396.0" y="256.0" text-anchor="middle" font-family="system-ui, -apple-system, sans-serif" font-size="9" fill="#666">12682497</text><text x="438.0" y="256.0" text-anchor="middle" font-family="system-ui, -apple-system, sans-serif" font-size="9" fill="#666">39004208</text><text x="480.0" y="256.0" text-anchor="middle" font-family="system-ui, -apple-system, sans-serif" font-size="9" fill="#666">68748512</text></svg>
