<svg xmlns="http://www.w3.org/2000/svg" viewBox="0 0 760 348" width="760" height="348" role="img" aria-label="Average LLM latency by provider over runs — llama highest, deepseek lowest" font-family="-apple-system,BlinkMacSystemFont,'Segoe UI',system-ui,sans-serif"><line x1="56" y1="306" x2="642" y2="306" stroke="#30363d" stroke-width="1"></line><text x="46" y="310" font-size="9.5" font-weight="400" text-anchor="end" fill="#8b949e" font-family="ui-monospace,SFMono-Regular,Menlo,monospace">0.0s</text><line x1="56" y1="235" x2="642" y2="235" stroke="#30363d" stroke-width="1"></line><text x="46" y="239" font-size="9.5" font-weight="400" text-anchor="end" fill="#8b949e" font-family="ui-monospace,SFMono-Regular,Menlo,monospace">82.5s</text><line x1="56" y1="164" x2="642" y2="164" stroke="#30363d" stroke-width="1"></line><text x="46" y="168" font-size="9.5" font-weight="400" text-anchor="end" fill="#8b949e" font-family="ui-monospace,SFMono-Regular,Menlo,monospace">165.1s</text><line x1="56" y1="93" x2="642" y2="93" stroke="#30363d" stroke-width="1"></line><text x="46" y="97" font-size="9.5" font-weight="400" text-anchor="end" fill="#8b949e" font-family="ui-monospace,SFMono-Regular,Menlo,monospace">247.6s</text><line x1="56" y1="22" x2="642" y2="22" stroke="#30363d" stroke-width="1"></line><text x="46" y="26" font-size="9.5" font-weight="400" text-anchor="end" fill="#8b949e" font-family="ui-monospace,SFMono-Regular,Menlo,monospace">330.2s</text><text x="56" y="324" font-size="9.5" font-weight="400" text-anchor="middle" fill="#8b949e" font-family="ui-monospace,SFMono-Regular,Menlo,monospace">06/08</text><text x="106.02" y="324" font-size="9.5" font-weight="400" text-anchor="middle" fill="#8b949e" font-family="ui-monospace,SFMono-Regular,Menlo,monospace">06/09</text><text x="156.05" y="324" font-size="9.5" font-weight="400" text-anchor="middle" fill="#8b949e" font-family="ui-monospace,SFMono-Regular,Menlo,monospace">06/10</text><text x="206.07" y="324" font-size="9.5" font-weight="400" text-anchor="middle" fill="#8b949e" font-family="ui-monospace,SFMono-Regular,Menlo,monospace">06/14</text><text x="256.1" y="324" font-size="9.5" font-weight="400" text-anchor="middle" fill="#8b949e" font-family="ui-monospace,SFMono-Regular,Menlo,monospace">06/15</text><text x="306.12" y="324" font-size="9.5" font-weight="400" text-anchor="middle" fill="#8b949e" font-family="ui-monospace,SFMono-Regular,Menlo,monospace">06/16</text><text x="356.15" y="324" font-size="9.5" font-weight="400" text-anchor="middle" fill="#8b949e" font-family="ui-monospace,SFMono-Regular,Menlo,monospace">06/18</text><text x="406.17" y="324" font-size="9.5" font-weight="400" text-anchor="middle" fill="#8b949e" font-family="ui-monospace,SFMono-Regular,Menlo,monospace">06/20</text><text x="456.2" y="324" font-size="9.5" font-weight="400" text-anchor="middle" fill="#8b949e" font-family="ui-monospace,SFMono-Regular,Menlo,monospace">06/21</text><text x="506.22" y="324" font-size="9.5" font-weight="400" text-anchor="middle" fill="#8b949e" font-family="ui-monospace,SFMono-Regular,Menlo,monospace">06/23</text><text x="556.24" y="324" font-size="9.5" font-weight="400" text-anchor="middle" fill="#8b949e" font-family="ui-monospace,SFMono-Regular,Menlo,monospace">06/24</text><text x="606.27" y="324" font-size="9.5" font-weight="400" text-anchor="middle" fill="#8b949e" font-family="ui-monospace,SFMono-Regular,Menlo,monospace">06/25</text><text x="642" y="324" font-size="9.5" font-weight="400" text-anchor="middle" fill="#8b949e" font-family="ui-monospace,SFMono-Regular,Menlo,monospace">06/26</text><polyline fill="none" stroke="#E8835A" stroke-width="2.4" stroke-linejoin="round" stroke-linecap="round" points="56,229.15 63.15,232.31 70.29,238.94 77.44,244 84.59,235.49 91.73,232.81 98.88,250.28 106.02,243.38 113.17,241.66 120.32,231.14 134.61,234.04 141.76,244.32 148.9,228.71 156.05,246.08 163.2,242.18 170.34,235.58 177.49,242.32 184.63,244.55 191.78,246.98 198.93,240.71 206.07,250.83 213.22,244.26 220.37,241.33 227.51,245.63 234.66,245.02 241.8,240.82 248.95,243.78 256.1,243.28 263.24,240.2 270.39,242.69 277.54,215.59 284.68,241.79 291.83,238.64 298.98,243.45 306.12,243.86 313.27,234.8 320.41,244.51 327.56,244.64"></polyline><circle cx="56" cy="229.15" r="2.6" fill="#E8835A"></circle><circle cx="63.15" cy="232.31" r="2.6" fill="#E8835A"></circle><circle cx="70.29" cy="238.94" r="2.6" fill="#E8835A"></circle><circle cx="77.44" cy="244" r="2.6" fill="#E8835A"></circle><circle cx="84.59" cy="235.49" r="2.6" fill="#E8835A"></circle><circle cx="91.73" cy="232.81" r="2.6" fill="#E8835A"></circle><circle cx="98.88" cy="250.28" r="2.6" fill="#E8835A"></circle><circle cx="106.02" cy="243.38" r="2.6" fill="#E8835A"></circle><circle cx="113.17" cy="241.66" r="2.6" fill="#E8835A"></circle><circle cx="120.32" cy="231.14" r="2.6" fill="#E8835A"></circle><circle cx="134.61" cy="234.04" r="2.6" fill="#E8835A"></circle><circle cx="141.76" cy="244.32" r="2.6" fill="#E8835A"></circle><circle cx="148.9" cy="228.71" r="2.6" fill="#E8835A"></circle><circle cx="156.05" cy="246.08" r="2.6" fill="#E8835A"></circle><circle cx="163.2" cy="242.18" r="2.6" fill="#E8835A"></circle><circle cx="170.34" cy="235.58" r="2.6" fill="#E8835A"></circle><circle cx="177.49" cy="242.32" r="2.6" fill="#E8835A"></circle><circle cx="184.63" cy="244.55" r="2.6" fill="#E8835A"></circle><circle cx="191.78" cy="246.98" r="2.6" fill="#E8835A"></circle><circle cx="198.93" cy="240.71" r="2.6" fill="#E8835A"></circle><circle cx="206.07" cy="250.83" r="2.6" fill="#E8835A"></circle><circle cx="213.22" cy="244.26" r="2.6" fill="#E8835A"></circle><circle cx="220.37" cy="241.33" r="2.6" fill="#E8835A"></circle><circle cx="227.51" cy="245.63" r="2.6" fill="#E8835A"></circle><circle cx="234.66" cy="245.02" r="2.6" fill="#E8835A"></circle><circle cx="241.8" cy="240.82" r="2.6" fill="#E8835A"></circle><circle cx="248.95" cy="243.78" r="2.6" fill="#E8835A"></circle><circle cx="256.1" cy="243.28" r="2.6" fill="#E8835A"></circle><circle cx="263.24" cy="240.2" r="2.6" fill="#E8835A"></circle><circle cx="270.39" cy="242.69" r="2.6" fill="#E8835A"></circle><circle cx="277.54" cy="215.59" r="2.6" fill="#E8835A"></circle><circle cx="284.68" cy="241.79" r="2.6" fill="#E8835A"></circle><circle cx="291.83" cy="238.64" r="2.6" fill="#E8835A"></circle><circle cx="298.98" cy="243.45" r="2.6" fill="#E8835A"></circle><circle cx="306.12" cy="243.86" r="2.6" fill="#E8835A"></circle><circle cx="313.27" cy="234.8" r="2.6" fill="#E8835A"></circle><circle cx="320.41" cy="244.51" r="2.6" fill="#E8835A"></circle><circle cx="327.56" cy="244.64" r="2.6" fill="#E8835A"></circle><polyline fill="none" stroke="#6366F1" stroke-width="2.4" stroke-linejoin="round" stroke-linecap="round" points="63.15,247.24 70.29,242.4 77.44,249.98 84.59,230.48 91.73,260.21 98.88,260.34 106.02,270.44 113.17,248.92 120.32,245.19 127.46,247.83 134.61,256.22 141.76,248.72 148.9,261.47 156.05,243.58 163.2,210.49 170.34,266.33 177.49,232.33 184.63,232.27 191.78,199.16 198.93,237.91 206.07,252.97 213.22,266.11 220.37,215.25 227.51,265.97 234.66,258.25 241.8,265.82 248.95,246.69 256.1,244.53 270.39,240.91 277.54,255.51 284.68,252.51 291.83,237.2 298.98,258.24 306.12,235.84 313.27,252.87 320.41,243.73 327.56,249.01 341.85,263.05 349,262.95 356.15,250.85 363.29,238.76 370.44,245.84 377.59,240.49 384.73,244.58 391.88,238.25 399.02,266.43 406.17,219.91 413.32,256.77 427.61,250.11 434.76,264.15 441.9,249.18 449.05,252.64 456.2,236.94 463.34,257.91 470.49,245.05 477.63,245.47 484.78,251.25 491.93,250.75 499.07,249.01 506.22,257.36 513.37,265.15 520.51,253.64 527.66,262.66 534.8,253.56 541.95,247.85 549.1,241.21 556.24,265.06 563.39,257.2 570.54,265.73 577.68,265.31 584.83,250.21 591.98,257.28 599.12,263.83 606.27,234.88 613.41,237.89 620.56,243.4 627.71,250.16 642,242.96"></polyline><circle cx="63.15" cy="247.24" r="2.6" fill="#6366F1"></circle><circle cx="70.29" cy="242.4" r="2.6" fill="#6366F1"></circle><circle cx="77.44" cy="249.98" r="2.6" fill="#6366F1"></circle><circle cx="84.59" cy="230.48" r="2.6" fill="#6366F1"></circle><circle cx="91.73" cy="260.21" r="2.6" fill="#6366F1"></circle><circle cx="98.88" cy="260.34" r="2.6" fill="#6366F1"></circle><circle cx="106.02" cy="270.44" r="2.6" fill="#6366F1"></circle><circle cx="113.17" cy="248.92" r="2.6" fill="#6366F1"></circle><circle cx="120.32" cy="245.19" r="2.6" fill="#6366F1"></circle><circle cx="127.46" cy="247.83" r="2.6" fill="#6366F1"></circle><circle cx="134.61" cy="256.22" r="2.6" fill="#6366F1"></circle><circle cx="141.76" cy="248.72" r="2.6" fill="#6366F1"></circle><circle cx="148.9" cy="261.47" r="2.6" fill="#6366F1"></circle><circle cx="156.05" cy="243.58" r="2.6" fill="#6366F1"></circle><circle cx="163.2" cy="210.49" r="2.6" fill="#6366F1"></circle><circle cx="170.34" cy="266.33" r="2.6" fill="#6366F1"></circle><circle cx="177.49" cy="232.33" r="2.6" fill="#6366F1"></circle><circle cx="184.63" cy="232.27" r="2.6" fill="#6366F1"></circle><circle cx="191.78" cy="199.16" r="2.6" fill="#6366F1"></circle><circle cx="198.93" cy="237.91" r="2.6" fill="#6366F1"></circle><circle cx="206.07" cy="252.97" r="2.6" fill="#6366F1"></circle><circle cx="213.22" cy="266.11" r="2.6" fill="#6366F1"></circle><circle cx="220.37" cy="215.25" r="2.6" fill="#6366F1"></circle><circle cx="227.51" cy="265.97" r="2.6" fill="#6366F1"></circle><circle cx="234.66" cy="258.25" r="2.6" fill="#6366F1"></circle><circle cx="241.8" cy="265.82" r="2.6" fill="#6366F1"></circle><circle cx="248.95" cy="246.69" r="2.6" fill="#6366F1"></circle><circle cx="256.1" cy="244.53" r="2.6" fill="#6366F1"></circle><circle cx="270.39" cy="240.91" r="2.6" fill="#6366F1"></circle><circle cx="277.54" cy="255.51" r="2.6" fill="#6366F1"></circle><circle cx="284.68" cy="252.51" r="2.6" fill="#6366F1"></circle><circle cx="291.83" cy="237.2" r="2.6" fill="#6366F1"></circle><circle cx="298.98" cy="258.24" r="2.6" fill="#6366F1"></circle><circle cx="306.12" cy="235.84" r="2.6" fill="#6366F1"></circle><circle cx="313.27" cy="252.87" r="2.6" fill="#6366F1"></circle><circle cx="320.41" cy="243.73" r="2.6" fill="#6366F1"></circle><circle cx="327.56" cy="249.01" r="2.6" fill="#6366F1"></circle><circle cx="341.85" cy="263.05" r="2.6" fill="#6366F1"></circle><circle cx="349" cy="262.95" r="2.6" fill="#6366F1"></circle><circle cx="356.15" cy="250.85" r="2.6" fill="#6366F1"></circle><circle cx="363.29" cy="238.76" r="2.6" fill="#6366F1"></circle><circle cx="370.44" cy="245.84" r="2.6" fill="#6366F1"></circle><circle cx="377.59" cy="240.49" r="2.6" fill="#6366F1"></circle><circle cx="384.73" cy="244.58" r="2.6" fill="#6366F1"></circle><circle cx="391.88" cy="238.25" r="2.6" fill="#6366F1"></circle><circle cx="399.02" cy="266.43" r="2.6" fill="#6366F1"></circle><circle cx="406.17" cy="219.91" r="2.6" fill="#6366F1"></circle><circle cx="413.32" cy="256.77" r="2.6" fill="#6366F1"></circle><circle cx="427.61" cy="250.11" r="2.6" fill="#6366F1"></circle><circle cx="434.76" cy="264.15" r="2.6" fill="#6366F1"></circle><circle cx="441.9" cy="249.18" r="2.6" fill="#6366F1"></circle><circle cx="449.05" cy="252.64" r="2.6" fill="#6366F1"></circle><circle cx="456.2" cy="236.94" r="2.6" fill="#6366F1"></circle><circle cx="463.34" cy="257.91" r="2.6" fill="#6366F1"></circle><circle cx="470.49" cy="245.05" r="2.6" fill="#6366F1"></circle><circle cx="477.63" cy="245.47" r="2.6" fill="#6366F1"></circle><circle cx="484.78" cy="251.25" r="2.6" fill="#6366F1"></circle><circle cx="491.93" cy="250.75" r="2.6" fill="#6366F1"></circle><circle cx="499.07" cy="249.01" r="2.6" fill="#6366F1"></circle><circle cx="506.22" cy="257.36" r="2.6" fill="#6366F1"></circle><circle cx="513.37" cy="265.15" r="2.6" fill="#6366F1"></circle><circle cx="520.51" cy="253.64" r="2.6" fill="#6366F1"></circle><circle cx="527.66" cy="262.66" r="2.6" fill="#6366F1"></circle><circle cx="534.8" cy="253.56" r="2.6" fill="#6366F1"></circle><circle cx="541.95" cy="247.85" r="2.6" fill="#6366F1"></circle><circle cx="549.1" cy="241.21" r="2.6" fill="#6366F1"></circle><circle cx="556.24" cy="265.06" r="2.6" fill="#6366F1"></circle><circle cx="563.39" cy="257.2" r="2.6" fill="#6366F1"></circle><circle cx="570.54" cy="265.73" r="2.6" fill="#6366F1"></circle><circle cx="577.68" cy="265.31" r="2.6" fill="#6366F1"></circle><circle cx="584.83" cy="250.21" r="2.6" fill="#6366F1"></circle><circle cx="591.98" cy="257.28" r="2.6" fill="#6366F1"></circle><circle cx="599.12" cy="263.83" r="2.6" fill="#6366F1"></circle><circle cx="606.27" cy="234.88" r="2.6" fill="#6366F1"></circle><circle cx="613.41" cy="237.89" r="2.6" fill="#6366F1"></circle><circle cx="620.56" cy="243.4" r="2.6" fill="#6366F1"></circle><circle cx="627.71" cy="250.16" r="2.6" fill="#6366F1"></circle><circle cx="642" cy="242.96" r="2.6" fill="#6366F1"></circle><polyline fill="none" stroke="#2DA98C" stroke-width="2.4" stroke-linejoin="round" stroke-linecap="round" points="56,205.26 63.15,215.39 70.29,174.15 77.44,217.56 84.59,218.68 91.73,227.57 98.88,203.76 106.02,192.14 113.17,215.35 120.32,194.78 127.46,194.92 134.61,141.5 141.76,148.87 148.9,194.84 156.05,180.85 163.2,202.09 170.34,169.08 177.49,211.29 184.63,193.77 191.78,192.04 198.93,206.61 270.39,221.15 277.54,190.23 284.68,183.33 291.83,225.15 298.98,184.37 306.12,182.1 313.27,210.86 320.41,161.53 327.56,210.56 341.85,182.01 349,172.32 356.15,181.93 363.29,186.76 370.44,217.59 377.59,171.76 384.73,211.13 391.88,171.55 399.02,181.17 406.17,189.96 413.32,191.02 427.61,212.98 434.76,170.09 441.9,127.97 449.05,222.7 456.2,200.4 463.34,155.75 470.49,184.88 477.63,176.48 484.78,167.89 491.93,205.24 499.07,167.24 506.22,154.57 513.37,196.61 520.51,154.13 527.66,196.6 534.8,203.92 541.95,125.1 549.1,151.41 556.24,176.39 563.39,198.69"></polyline><circle cx="56" cy="205.26" r="2.6" fill="#2DA98C"></circle><circle cx="63.15" cy="215.39" r="2.6" fill="#2DA98C"></circle><circle cx="70.29" cy="174.15" r="2.6" fill="#2DA98C"></circle><circle cx="77.44" cy="217.56" r="2.6" fill="#2DA98C"></circle><circle cx="84.59" cy="218.68" r="2.6" fill="#2DA98C"></circle><circle cx="91.73" cy="227.57" r="2.6" fill="#2DA98C"></circle><circle cx="98.88" cy="203.76" r="2.6" fill="#2DA98C"></circle><circle cx="106.02" cy="192.14" r="2.6" fill="#2DA98C"></circle><circle cx="113.17" cy="215.35" r="2.6" fill="#2DA98C"></circle><circle cx="120.32" cy="194.78" r="2.6" fill="#2DA98C"></circle><circle cx="127.46" cy="194.92" r="2.6" fill="#2DA98C"></circle><circle cx="134.61" cy="141.5" r="2.6" fill="#2DA98C"></circle><circle cx="141.76" cy="148.87" r="2.6" fill="#2DA98C"></circle><circle cx="148.9" cy="194.84" r="2.6" fill="#2DA98C"></circle><circle cx="156.05" cy="180.85" r="2.6" fill="#2DA98C"></circle><circle cx="163.2" cy="202.09" r="2.6" fill="#2DA98C"></circle><circle cx="170.34" cy="169.08" r="2.6" fill="#2DA98C"></circle><circle cx="177.49" cy="211.29" r="2.6" fill="#2DA98C"></circle><circle cx="184.63" cy="193.77" r="2.6" fill="#2DA98C"></circle><circle cx="191.78" cy="192.04" r="2.6" fill="#2DA98C"></circle><circle cx="198.93" cy="206.61" r="2.6" fill="#2DA98C"></circle><circle cx="270.39" cy="221.15" r="2.6" fill="#2DA98C"></circle><circle cx="277.54" cy="190.23" r="2.6" fill="#2DA98C"></circle><circle cx="284.68" cy="183.33" r="2.6" fill="#2DA98C"></circle><circle cx="291.83" cy="225.15" r="2.6" fill="#2DA98C"></circle><circle cx="298.98" cy="184.37" r="2.6" fill="#2DA98C"></circle><circle cx="306.12" cy="182.1" r="2.6" fill="#2DA98C"></circle><circle cx="313.27" cy="210.86" r="2.6" fill="#2DA98C"></circle><circle cx="320.41" cy="161.53" r="2.6" fill="#2DA98C"></circle><circle cx="327.56" cy="210.56" r="2.6" fill="#2DA98C"></circle><circle cx="341.85" cy="182.01" r="2.6" fill="#2DA98C"></circle><circle cx="349" cy="172.32" r="2.6" fill="#2DA98C"></circle><circle cx="356.15" cy="181.93" r="2.6" fill="#2DA98C"></circle><circle cx="363.29" cy="186.76" r="2.6" fill="#2DA98C"></circle><circle cx="370.44" cy="217.59" r="2.6" fill="#2DA98C"></circle><circle cx="377.59" cy="171.76" r="2.6" fill="#2DA98C"></circle><circle cx="384.73" cy="211.13" r="2.6" fill="#2DA98C"></circle><circle cx="391.88" cy="171.55" r="2.6" fill="#2DA98C"></circle><circle cx="399.02" cy="181.17" r="2.6" fill="#2DA98C"></circle><circle cx="406.17" cy="189.96" r="2.6" fill="#2DA98C"></circle><circle cx="413.32" cy="191.02" r="2.6" fill="#2DA98C"></circle><circle cx="427.61" cy="212.98" r="2.6" fill="#2DA98C"></circle><circle cx="434.76" cy="170.09" r="2.6" fill="#2DA98C"></circle><circle cx="441.9" cy="127.97" r="2.6" fill="#2DA98C"></circle><circle cx="449.05" cy="222.7" r="2.6" fill="#2DA98C"></circle><circle cx="456.2" cy="200.4" r="2.6" fill="#2DA98C"></circle><circle cx="463.34" cy="155.75" r="2.6" fill="#2DA98C"></circle><circle cx="470.49" cy="184.88" r="2.6" fill="#2DA98C"></circle><circle cx="477.63" cy="176.48" r="2.6" fill="#2DA98C"></circle><circle cx="484.78" cy="167.89" r="2.6" fill="#2DA98C"></circle><circle cx="491.93" cy="205.24" r="2.6" fill="#2DA98C"></circle><circle cx="499.07" cy="167.24" r="2.6" fill="#2DA98C"></circle><circle cx="506.22" cy="154.57" r="2.6" fill="#2DA98C"></circle><circle cx="513.37" cy="196.61" r="2.6" fill="#2DA98C"></circle><circle cx="520.51" cy="154.13" r="2.6" fill="#2DA98C"></circle><circle cx="527.66" cy="196.6" r="2.6" fill="#2DA98C"></circle><circle cx="534.8" cy="203.92" r="2.6" fill="#2DA98C"></circle><circle cx="541.95" cy="125.1" r="2.6" fill="#2DA98C"></circle><circle cx="549.1" cy="151.41" r="2.6" fill="#2DA98C"></circle><circle cx="556.24" cy="176.39" r="2.6" fill="#2DA98C"></circle><circle cx="563.39" cy="198.69" r="2.6" fill="#2DA98C"></circle><polyline fill="none" stroke="#A371F7" stroke-width="2.4" stroke-linejoin="round" stroke-linecap="round" points="56,127.86 63.15,149.85 70.29,181.76 77.44,139.24 84.59,107.36 91.73,219.97 98.88,116.3 106.02,182.89 113.17,193.78 120.32,197.11 127.46,105.85 134.61,146.07 141.76,181.42 148.9,202.88 156.05,134.79 163.2,219.07 170.34,58.83 177.49,197.05 184.63,167.66 191.78,75.26 198.93,128.5 206.07,152.23 213.22,166.9 220.37,183.57 227.51,162.79 234.66,148.18 241.8,52.43 248.95,96.59 256.1,191.76 270.39,151.86 277.54,169.19 284.68,135.22 298.98,206.77 306.12,167.88 313.27,189.32 320.41,143.76 327.56,142.49 334.71,163.7 341.85,128.52 349,144.9 356.15,92.3 363.29,157.36 370.44,160.21 377.59,176.32 384.73,116.21 391.88,165.98 399.02,136.47 413.32,155.12 427.61,134.62 441.9,114.6 449.05,127.72 456.2,219.84 463.34,170.06 470.49,154.88 477.63,189.66 484.78,162.21 491.93,183.03 499.07,165.52 506.22,176.75 513.37,155.74 527.66,148.44 534.8,196.35 541.95,143.94 549.1,112.27 556.24,149.32 563.39,161.5 570.54,199.8 577.68,197.27 584.83,116.93 591.98,119.32 599.12,194.29 606.27,111.88 613.41,156.63 627.71,203.96 642,124.08"></polyline><circle cx="56" cy="127.86" r="2.6" fill="#A371F7"></circle><circle cx="63.15" cy="149.85" r="2.6" fill="#A371F7"></circle><circle cx="70.29" cy="181.76" r="2.6" fill="#A371F7"></circle><circle cx="77.44" cy="139.24" r="2.6" fill="#A371F7"></circle><circle cx="84.59" cy="107.36" r="2.6" fill="#A371F7"></circle><circle cx="91.73" cy="219.97" r="2.6" fill="#A371F7"></circle><circle cx="98.88" cy="116.3" r="2.6" fill="#A371F7"></circle><circle cx="106.02" cy="182.89" r="2.6" fill="#A371F7"></circle><circle cx="113.17" cy="193.78" r="2.6" fill="#A371F7"></circle><circle cx="120.32" cy="197.11" r="2.6" fill="#A371F7"></circle><circle cx="127.46" cy="105.85" r="2.6" fill="#A371F7"></circle><circle cx="134.61" cy="146.07" r="2.6" fill="#A371F7"></circle><circle cx="141.76" cy="181.42" r="2.6" fill="#A371F7"></circle><circle cx="148.9" cy="202.88" r="2.6" fill="#A371F7"></circle><circle cx="156.05" cy="134.79" r="2.6" fill="#A371F7"></circle><circle cx="163.2" cy="219.07" r="2.6" fill="#A371F7"></circle><circle cx="170.34" cy="58.83" r="2.6" fill="#A371F7"></circle><circle cx="177.49" cy="197.05" r="2.6" fill="#A371F7"></circle><circle cx="184.63" cy="167.66" r="2.6" fill="#A371F7"></circle><circle cx="191.78" cy="75.26" r="2.6" fill="#A371F7"></circle><circle cx="198.93" cy="128.5" r="2.6" fill="#A371F7"></circle><circle cx="206.07" cy="152.23" r="2.6" fill="#A371F7"></circle><circle cx="213.22" cy="166.9" r="2.6" fill="#A371F7"></circle><circle cx="220.37" cy="183.57" r="2.6" fill="#A371F7"></circle><circle cx="227.51" cy="162.79" r="2.6" fill="#A371F7"></circle><circle cx="234.66" cy="148.18" r="2.6" fill="#A371F7"></circle><circle cx="241.8" cy="52.43" r="2.6" fill="#A371F7"></circle><circle cx="248.95" cy="96.59" r="2.6" fill="#A371F7"></circle><circle cx="256.1" cy="191.76" r="2.6" fill="#A371F7"></circle><circle cx="270.39" cy="151.86" r="2.6" fill="#A371F7"></circle><circle cx="277.54" cy="169.19" r="2.6" fill="#A371F7"></circle><circle cx="284.68" cy="135.22" r="2.6" fill="#A371F7"></circle><circle cx="298.98" cy="206.77" r="2.6" fill="#A371F7"></circle><circle cx="306.12" cy="167.88" r="2.6" fill="#A371F7"></circle><circle cx="313.27" cy="189.32" r="2.6" fill="#A371F7"></circle><circle cx="320.41" cy="143.76" r="2.6" fill="#A371F7"></circle><circle cx="327.56" cy="142.49" r="2.6" fill="#A371F7"></circle><circle cx="334.71" cy="163.7" r="2.6" fill="#A371F7"></circle><circle cx="341.85" cy="128.52" r="2.6" fill="#A371F7"></circle><circle cx="349" cy="144.9" r="2.6" fill="#A371F7"></circle><circle cx="356.15" cy="92.3" r="2.6" fill="#A371F7"></circle><circle cx="363.29" cy="157.36" r="2.6" fill="#A371F7"></circle><circle cx="370.44" cy="160.21" r="2.6" fill="#A371F7"></circle><circle cx="377.59" cy="176.32" r="2.6" fill="#A371F7"></circle><circle cx="384.73" cy="116.21" r="2.6" fill="#A371F7"></circle><circle cx="391.88" cy="165.98" r="2.6" fill="#A371F7"></circle><circle cx="399.02" cy="136.47" r="2.6" fill="#A371F7"></circle><circle cx="413.32" cy="155.12" r="2.6" fill="#A371F7"></circle><circle cx="427.61" cy="134.62" r="2.6" fill="#A371F7"></circle><circle cx="441.9" cy="114.6" r="2.6" fill="#A371F7"></circle><circle cx="449.05" cy="127.72" r="2.6" fill="#A371F7"></circle><circle cx="456.2" cy="219.84" r="2.6" fill="#A371F7"></circle><circle cx="463.34" cy="170.06" r="2.6" fill="#A371F7"></circle><circle cx="470.49" cy="154.88" r="2.6" fill="#A371F7"></circle><circle cx="477.63" cy="189.66" r="2.6" fill="#A371F7"></circle><circle cx="484.78" cy="162.21" r="2.6" fill="#A371F7"></circle><circle cx="491.93" cy="183.03" r="2.6" fill="#A371F7"></circle><circle cx="499.07" cy="165.52" r="2.6" fill="#A371F7"></circle><circle cx="506.22" cy="176.75" r="2.6" fill="#A371F7"></circle><circle cx="513.37" cy="155.74" r="2.6" fill="#A371F7"></circle><circle cx="527.66" cy="148.44" r="2.6" fill="#A371F7"></circle><circle cx="534.8" cy="196.35" r="2.6" fill="#A371F7"></circle><circle cx="541.95" cy="143.94" r="2.6" fill="#A371F7"></circle><circle cx="549.1" cy="112.27" r="2.6" fill="#A371F7"></circle><circle cx="556.24" cy="149.32" r="2.6" fill="#A371F7"></circle><circle cx="563.39" cy="161.5" r="2.6" fill="#A371F7"></circle><circle cx="570.54" cy="199.8" r="2.6" fill="#A371F7"></circle><circle cx="577.68" cy="197.27" r="2.6" fill="#A371F7"></circle><circle cx="584.83" cy="116.93" r="2.6" fill="#A371F7"></circle><circle cx="591.98" cy="119.32" r="2.6" fill="#A371F7"></circle><circle cx="599.12" cy="194.29" r="2.6" fill="#A371F7"></circle><circle cx="606.27" cy="111.88" r="2.6" fill="#A371F7"></circle><circle cx="613.41" cy="156.63" r="2.6" fill="#A371F7"></circle><circle cx="627.71" cy="203.96" r="2.6" fill="#A371F7"></circle><circle cx="642" cy="124.08" r="2.6" fill="#A371F7"></circle><polyline fill="none" stroke="#F0A23B" stroke-width="2.4" stroke-linejoin="round" stroke-linecap="round" points="56,170.6 63.15,150.62 70.29,187.27 77.44,153.33 84.59,137.4 91.73,187.39 98.88,202.98 106.02,219.57 113.17,187.3 120.32,163.64 127.46,218.54 134.61,247.9 141.76,222.75 148.9,249.71 156.05,224.7 163.2,243.69 170.34,245.81 177.49,211.84 184.63,236.21 191.78,257.78 198.93,248.63 206.07,234.2 213.22,247.57 220.37,243.66 227.51,258.59 234.66,253.94 241.8,235.44 248.95,209.7 256.1,229.87 263.24,229.74 270.39,242.74 277.54,219.28 284.68,218.69 291.83,248.17 298.98,252.02 306.12,241.64 313.27,202.83 320.41,191.16 327.56,236.21 334.71,247.47 341.85,237.91 349,227.46 356.15,241.35 363.29,249.73 370.44,234.66 377.59,250 384.73,253.94 391.88,252.42 399.02,245.42 406.17,237.98 413.32,238.85 427.61,257.8 434.76,233.33 441.9,238.96 449.05,252.16 456.2,246.34 463.34,221.3 470.49,228.03 477.63,249.57 484.78,236.95 491.93,243.86 499.07,246.88 506.22,238.45 513.37,247.92 527.66,235.92 534.8,214.9 541.95,201.77 549.1,219.97 556.24,238.65 563.39,232.47 570.54,220.62 577.68,227.53 584.83,228.6 591.98,243.21 599.12,241.59 606.27,193.22 613.41,249 627.71,229.2 634.85,229.67 642,228.2"></polyline><circle cx="56" cy="170.6" r="2.6" fill="#F0A23B"></circle><circle cx="63.15" cy="150.62" r="2.6" fill="#F0A23B"></circle><circle cx="70.29" cy="187.27" r="2.6" fill="#F0A23B"></circle><circle cx="77.44" cy="153.33" r="2.6" fill="#F0A23B"></circle><circle cx="84.59" cy="137.4" r="2.6" fill="#F0A23B"></circle><circle cx="91.73" cy="187.39" r="2.6" fill="#F0A23B"></circle><circle cx="98.88" cy="202.98" r="2.6" fill="#F0A23B"></circle><circle cx="106.02" cy="219.57" r="2.6" fill="#F0A23B"></circle><circle cx="113.17" cy="187.3" r="2.6" fill="#F0A23B"></circle><circle cx="120.32" cy="163.64" r="2.6" fill="#F0A23B"></circle><circle cx="127.46" cy="218.54" r="2.6" fill="#F0A23B"></circle><circle cx="134.61" cy="247.9" r="2.6" fill="#F0A23B"></circle><circle cx="141.76" cy="222.75" r="2.6" fill="#F0A23B"></circle><circle cx="148.9" cy="249.71" r="2.6" fill="#F0A23B"></circle><circle cx="156.05" cy="224.7" r="2.6" fill="#F0A23B"></circle><circle cx="163.2" cy="243.69" r="2.6" fill="#F0A23B"></circle><circle cx="170.34" cy="245.81" r="2.6" fill="#F0A23B"></circle><circle cx="177.49" cy="211.84" r="2.6" fill="#F0A23B"></circle><circle cx="184.63" cy="236.21" r="2.6" fill="#F0A23B"></circle><circle cx="191.78" cy="257.78" r="2.6" fill="#F0A23B"></circle><circle cx="198.93" cy="248.63" r="2.6" fill="#F0A23B"></circle><circle cx="206.07" cy="234.2" r="2.6" fill="#F0A23B"></circle><circle cx="213.22" cy="247.57" r="2.6" fill="#F0A23B"></circle><circle cx="220.37" cy="243.66" r="2.6" fill="#F0A23B"></circle><circle cx="227.51" cy="258.59" r="2.6" fill="#F0A23B"></circle><circle cx="234.66" cy="253.94" r="2.6" fill="#F0A23B"></circle><circle cx="241.8" cy="235.44" r="2.6" fill="#F0A23B"></circle><circle cx="248.95" cy="209.7" r="2.6" fill="#F0A23B"></circle><circle cx="256.1" cy="229.87" r="2.6" fill="#F0A23B"></circle><circle cx="263.24" cy="229.74" r="2.6" fill="#F0A23B"></circle><circle cx="270.39" cy="242.74" r="2.6" fill="#F0A23B"></circle><circle cx="277.54" cy="219.28" r="2.6" fill="#F0A23B"></circle><circle cx="284.68" cy="218.69" r="2.6" fill="#F0A23B"></circle><circle cx="291.83" cy="248.17" r="2.6" fill="#F0A23B"></circle><circle cx="298.98" cy="252.02" r="2.6" fill="#F0A23B"></circle><circle cx="306.12" cy="241.64" r="2.6" fill="#F0A23B"></circle><circle cx="313.27" cy="202.83" r="2.6" fill="#F0A23B"></circle><circle cx="320.41" cy="191.16" r="2.6" fill="#F0A23B"></circle><circle cx="327.56" cy="236.21" r="2.6" fill="#F0A23B"></circle><circle cx="334.71" cy="247.47" r="2.6" fill="#F0A23B"></circle><circle cx="341.85" cy="237.91" r="2.6" fill="#F0A23B"></circle><circle cx="349" cy="227.46" r="2.6" fill="#F0A23B"></circle><circle cx="356.15" cy="241.35" r="2.6" fill="#F0A23B"></circle><circle cx="363.29" cy="249.73" r="2.6" fill="#F0A23B"></circle><circle cx="370.44" cy="234.66" r="2.6" fill="#F0A23B"></circle><circle cx="377.59" cy="250" r="2.6" fill="#F0A23B"></circle><circle cx="384.73" cy="253.94" r="2.6" fill="#F0A23B"></circle><circle cx="391.88" cy="252.42" r="2.6" fill="#F0A23B"></circle><circle cx="399.02" cy="245.42" r="2.6" fill="#F0A23B"></circle><circle cx="406.17" cy="237.98" r="2.6" fill="#F0A23B"></circle><circle cx="413.32" cy="238.85" r="2.6" fill="#F0A23B"></circle><circle cx="427.61" cy="257.8" r="2.6" fill="#F0A23B"></circle><circle cx="434.76" cy="233.33" r="2.6" fill="#F0A23B"></circle><circle cx="441.9" cy="238.96" r="2.6" fill="#F0A23B"></circle><circle cx="449.05" cy="252.16" r="2.6" fill="#F0A23B"></circle><circle cx="456.2" cy="246.34" r="2.6" fill="#F0A23B"></circle><circle cx="463.34" cy="221.3" r="2.6" fill="#F0A23B"></circle><circle cx="470.49" cy="228.03" r="2.6" fill="#F0A23B"></circle><circle cx="477.63" cy="249.57" r="2.6" fill="#F0A23B"></circle><circle cx="484.78" cy="236.95" r="2.6" fill="#F0A23B"></circle><circle cx="491.93" cy="243.86" r="2.6" fill="#F0A23B"></circle><circle cx="499.07" cy="246.88" r="2.6" fill="#F0A23B"></circle><circle cx="506.22" cy="238.45" r="2.6" fill="#F0A23B"></circle><circle cx="513.37" cy="247.92" r="2.6" fill="#F0A23B"></circle><circle cx="527.66" cy="235.92" r="2.6" fill="#F0A23B"></circle><circle cx="534.8" cy="214.9" r="2.6" fill="#F0A23B"></circle><circle cx="541.95" cy="201.77" r="2.6" fill="#F0A23B"></circle><circle cx="549.1" cy="219.97" r="2.6" fill="#F0A23B"></circle><circle cx="556.24" cy="238.65" r="2.6" fill="#F0A23B"></circle><circle cx="563.39" cy="232.47" r="2.6" fill="#F0A23B"></circle><circle cx="570.54" cy="220.62" r="2.6" fill="#F0A23B"></circle><circle cx="577.68" cy="227.53" r="2.6" fill="#F0A23B"></circle><circle cx="584.83" cy="228.6" r="2.6" fill="#F0A23B"></circle><circle cx="591.98" cy="243.21" r="2.6" fill="#F0A23B"></circle><circle cx="599.12" cy="241.59" r="2.6" fill="#F0A23B"></circle><circle cx="606.27" cy="193.22" r="2.6" fill="#F0A23B"></circle><circle cx="613.41" cy="249" r="2.6" fill="#F0A23B"></circle><circle cx="627.71" cy="229.2" r="2.6" fill="#F0A23B"></circle><circle cx="634.85" cy="229.67" r="2.6" fill="#F0A23B"></circle><circle cx="642" cy="228.2" r="2.6" fill="#F0A23B"></circle><polyline fill="none" stroke="#1F9CF0" stroke-width="2.4" stroke-linejoin="round" stroke-linecap="round" points="56,198.31 63.15,224.59 70.29,214.73 77.44,247.97 84.59,236.75 91.73,219.64 98.88,238.79 106.02,207.95 113.17,201.38 120.32,239.3 127.46,242.33 134.61,177.25 141.76,218.95 148.9,232.82 156.05,248.48 163.2,252.97 170.34,230.93 177.49,242.47 184.63,240.12 191.78,248.48 198.93,256.65 206.07,261.44 213.22,262.41 220.37,264.75 227.51,261.4 234.66,262.76 241.8,244.65 248.95,230.98 256.1,234.56 263.24,260.01 270.39,254.76 277.54,238.53 284.68,231.76 291.83,226.22 298.98,247.36 306.12,238.78 313.27,250.58 320.41,256.4 327.56,243.61 334.71,265.98 341.85,253.29 349,225.25 356.15,246.45 363.29,252.36 370.44,241.14 377.59,253.3 384.73,245.06 391.88,205.73 399.02,260.99 406.17,265.11 413.32,263.66 420.46,270.45 427.61,265.53 434.76,248.25 441.9,259.3 449.05,255.01 506.22,259.54 513.37,255.12 520.51,241.05 527.66,228.97 534.8,234.99 541.95,233 549.1,242.76 556.24,238.49 563.39,251.01 570.54,203.87 577.68,219.17 584.83,100.57 591.98,239.75 599.12,232.97 606.27,241.63 613.41,251.46 620.56,254.09 627.71,215.86 634.85,260.98 642,227.24"></polyline><circle cx="56" cy="198.31" r="2.6" fill="#1F9CF0"></circle><circle cx="63.15" cy="224.59" r="2.6" fill="#1F9CF0"></circle><circle cx="70.29" cy="214.73" r="2.6" fill="#1F9CF0"></circle><circle cx="77.44" cy="247.97" r="2.6" fill="#1F9CF0"></circle><circle cx="84.59" cy="236.75" r="2.6" fill="#1F9CF0"></circle><circle cx="91.73" cy="219.64" r="2.6" fill="#1F9CF0"></circle><circle cx="98.88" cy="238.79" r="2.6" fill="#1F9CF0"></circle><circle cx="106.02" cy="207.95" r="2.6" fill="#1F9CF0"></circle><circle cx="113.17" cy="201.38" r="2.6" fill="#1F9CF0"></circle><circle cx="120.32" cy="239.3" r="2.6" fill="#1F9CF0"></circle><circle cx="127.46" cy="242.33" r="2.6" fill="#1F9CF0"></circle><circle cx="134.61" cy="177.25" r="2.6" fill="#1F9CF0"></circle><circle cx="141.76" cy="218.95" r="2.6" fill="#1F9CF0"></circle><circle cx="148.9" cy="232.82" r="2.6" fill="#1F9CF0"></circle><circle cx="156.05" cy="248.48" r="2.6" fill="#1F9CF0"></circle><circle cx="163.2" cy="252.97" r="2.6" fill="#1F9CF0"></circle><circle cx="170.34" cy="230.93" r="2.6" fill="#1F9CF0"></circle><circle cx="177.49" cy="242.47" r="2.6" fill="#1F9CF0"></circle><circle cx="184.63" cy="240.12" r="2.6" fill="#1F9CF0"></circle><circle cx="191.78" cy="248.48" r="2.6" fill="#1F9CF0"></circle><circle cx="198.93" cy="256.65" r="2.6" fill="#1F9CF0"></circle><circle cx="206.07" cy="261.44" r="2.6" fill="#1F9CF0"></circle><circle cx="213.22" cy="262.41" r="2.6" fill="#1F9CF0"></circle><circle cx="220.37" cy="264.75" r="2.6" fill="#1F9CF0"></circle><circle cx="227.51" cy="261.4" r="2.6" fill="#1F9CF0"></circle><circle cx="234.66" cy="262.76" r="2.6" fill="#1F9CF0"></circle><circle cx="241.8" cy="244.65" r="2.6" fill="#1F9CF0"></circle><circle cx="248.95" cy="230.98" r="2.6" fill="#1F9CF0"></circle><circle cx="256.1" cy="234.56" r="2.6" fill="#1F9CF0"></circle><circle cx="263.24" cy="260.01" r="2.6" fill="#1F9CF0"></circle><circle cx="270.39" cy="254.76" r="2.6" fill="#1F9CF0"></circle><circle cx="277.54" cy="238.53" r="2.6" fill="#1F9CF0"></circle><circle cx="284.68" cy="231.76" r="2.6" fill="#1F9CF0"></circle><circle cx="291.83" cy="226.22" r="2.6" fill="#1F9CF0"></circle><circle cx="298.98" cy="247.36" r="2.6" fill="#1F9CF0"></circle><circle cx="306.12" cy="238.78" r="2.6" fill="#1F9CF0"></circle><circle cx="313.27" cy="250.58" r="2.6" fill="#1F9CF0"></circle><circle cx="320.41" cy="256.4" r="2.6" fill="#1F9CF0"></circle><circle cx="327.56" cy="243.61" r="2.6" fill="#1F9CF0"></circle><circle cx="334.71" cy="265.98" r="2.6" fill="#1F9CF0"></circle><circle cx="341.85" cy="253.29" r="2.6" fill="#1F9CF0"></circle><circle cx="349" cy="225.25" r="2.6" fill="#1F9CF0"></circle><circle cx="356.15" cy="246.45" r="2.6" fill="#1F9CF0"></circle><circle cx="363.29" cy="252.36" r="2.6" fill="#1F9CF0"></circle><circle cx="370.44" cy="241.14" r="2.6" fill="#1F9CF0"></circle><circle cx="377.59" cy="253.3" r="2.6" fill="#1F9CF0"></circle><circle cx="384.73" cy="245.06" r="2.6" fill="#1F9CF0"></circle><circle cx="391.88" cy="205.73" r="2.6" fill="#1F9CF0"></circle><circle cx="399.02" cy="260.99" r="2.6" fill="#1F9CF0"></circle><circle cx="406.17" cy="265.11" r="2.6" fill="#1F9CF0"></circle><circle cx="413.32" cy="263.66" r="2.6" fill="#1F9CF0"></circle><circle cx="420.46" cy="270.45" r="2.6" fill="#1F9CF0"></circle><circle cx="427.61" cy="265.53" r="2.6" fill="#1F9CF0"></circle><circle cx="434.76" cy="248.25" r="2.6" fill="#1F9CF0"></circle><circle cx="441.9" cy="259.3" r="2.6" fill="#1F9CF0"></circle><circle cx="449.05" cy="255.01" r="2.6" fill="#1F9CF0"></circle><circle cx="506.22" cy="259.54" r="2.6" fill="#1F9CF0"></circle><circle cx="513.37" cy="255.12" r="2.6" fill="#1F9CF0"></circle><circle cx="520.51" cy="241.05" r="2.6" fill="#1F9CF0"></circle><circle cx="527.66" cy="228.97" r="2.6" fill="#1F9CF0"></circle><circle cx="534.8" cy="234.99" r="2.6" fill="#1F9CF0"></circle><circle cx="541.95" cy="233" r="2.6" fill="#1F9CF0"></circle><circle cx="549.1" cy="242.76" r="2.6" fill="#1F9CF0"></circle><circle cx="556.24" cy="238.49" r="2.6" fill="#1F9CF0"></circle><circle cx="563.39" cy="251.01" r="2.6" fill="#1F9CF0"></circle><circle cx="570.54" cy="203.87" r="2.6" fill="#1F9CF0"></circle><circle cx="577.68" cy="219.17" r="2.6" fill="#1F9CF0"></circle><circle cx="584.83" cy="100.57" r="2.6" fill="#1F9CF0"></circle><circle cx="591.98" cy="239.75" r="2.6" fill="#1F9CF0"></circle><circle cx="599.12" cy="232.97" r="2.6" fill="#1F9CF0"></circle><circle cx="606.27" cy="241.63" r="2.6" fill="#1F9CF0"></circle><circle cx="613.41" cy="251.46" r="2.6" fill="#1F9CF0"></circle><circle cx="620.56" cy="254.09" r="2.6" fill="#1F9CF0"></circle><circle cx="627.71" cy="215.86" r="2.6" fill="#1F9CF0"></circle><circle cx="634.85" cy="260.98" r="2.6" fill="#1F9CF0"></circle><circle cx="642" cy="227.24" r="2.6" fill="#1F9CF0"></circle><line x1="656" y1="27" x2="672" y2="27" stroke="#E8835A" stroke-width="3" stroke-linecap="round"></line><text x="678" y="30" font-size="11" font-weight="400" text-anchor="start" fill="#e6edf3">anthropic</text><line x1="656" y1="47" x2="672" y2="47" stroke="#6366F1" stroke-width="3" stroke-linecap="round"></line><text x="678" y="50" font-size="11" font-weight="400" text-anchor="start" fill="#e6edf3">deepseek</text><line x1="656" y1="67" x2="672" y2="67" stroke="#2DA98C" stroke-width="3" stroke-linecap="round"></line><text x="678" y="70" font-size="11" font-weight="400" text-anchor="start" fill="#e6edf3">gemini</text><line x1="656" y1="87" x2="672" y2="87" stroke="#A371F7" stroke-width="3" stroke-linecap="round"></line><text x="678" y="90" font-size="11" font-weight="400" text-anchor="start" fill="#e6edf3">llama</text><line x1="656" y1="107" x2="672" y2="107" stroke="#F0A23B" stroke-width="3" stroke-linecap="round"></line><text x="678" y="110" font-size="11" font-weight="400" text-anchor="start" fill="#e6edf3">mistral</text><line x1="656" y1="127" x2="672" y2="127" stroke="#1F9CF0" stroke-width="3" stroke-linecap="round"></line><text x="678" y="130" font-size="11" font-weight="400" text-anchor="start" fill="#e6edf3">openai</text></svg>
