<svg xmlns="http://www.w3.org/2000/svg" viewBox="0 0 600 300" width="600" height="300" role="img" aria-label="Avg LLM latency by provider over runs (s)"><text x="300.0" y="24" text-anchor="middle" font-family="system-ui, -apple-system, sans-serif" font-size="14" font-weight="600" fill="#333">Avg LLM latency by provider over runs (s)</text><line x1="60" y1="240.0" x2="480" y2="240.0" stroke="#eee" stroke-width="1"/><text x="54" y="244.0" text-anchor="end" font-family="system-ui, -apple-system, sans-serif" font-size="9" fill="#999">41.35</text><line x1="60" y1="140.0" x2="480" y2="140.0" stroke="#eee" stroke-width="1"/><text x="54" y="144.0" text-anchor="end" font-family="system-ui, -apple-system, sans-serif" font-size="9" fill="#999">168.1</text><line x1="60" y1="40.0" x2="480" y2="40.0" stroke="#eee" stroke-width="1"/><text x="54" y="44.0" text-anchor="end" font-family="system-ui, -apple-system, sans-serif" font-size="9" fill="#999">294.8</text><polyline fill="none" stroke="#4CAF50" stroke-width="2" points="60.0,173.8 74.5,197.9 89.0,188.9 103.4,219.4 117.9,209.1 132.4,193.4 146.9,211.0 161.4,182.7 175.9,176.6 190.3,211.4 204.8,214.2 219.3,154.5 233.8,192.8 248.3,205.5 262.8,219.9 277.2,224.0 291.7,203.8 306.2,214.3 320.7,212.2 335.2,219.9 349.7,227.4 364.1,231.8 378.6,232.6 393.1,234.8 407.6,231.7 422.1,233.0 436.6,216.3 451.0,203.8 465.5,207.1 480.0,230.4"/><circle cx="60.0" cy="173.8" r="3" fill="#4CAF50"/><circle cx="74.5" cy="197.9" r="3" fill="#4CAF50"/><circle cx="89.0" cy="188.9" r="3" fill="#4CAF50"/><circle cx="103.4" cy="219.4" r="3" fill="#4CAF50"/><circle cx="117.9" cy="209.1" r="3" fill="#4CAF50"/><circle cx="132.4" cy="193.4" r="3" fill="#4CAF50"/><circle cx="146.9" cy="211.0" r="3" fill="#4CAF50"/><circle cx="161.4" cy="182.7" r="3" fill="#4CAF50"/><circle cx="175.9" cy="176.6" r="3" fill="#4CAF50"/><circle cx="190.3" cy="211.4" r="3" fill="#4CAF50"/><circle cx="204.8" cy="214.2" r="3" fill="#4CAF50"/><circle cx="219.3" cy="154.5" r="3" fill="#4CAF50"/><circle cx="233.8" cy="192.8" r="3" fill="#4CAF50"/><circle cx="248.3" cy="205.5" r="3" fill="#4CAF50"/><circle cx="262.8" cy="219.9" r="3" fill="#4CAF50"/><circle cx="277.2" cy="224.0" r="3" fill="#4CAF50"/><circle cx="291.7" cy="203.8" r="3" fill="#4CAF50"/><circle cx="306.2" cy="214.3" r="3" fill="#4CAF50"/><circle cx="320.7" cy="212.2" r="3" fill="#4CAF50"/><circle cx="335.2" cy="219.9" r="3" fill="#4CAF50"/><circle cx="349.7" cy="227.4" r="3" fill="#4CAF50"/><circle cx="364.1" cy="231.8" r="3" fill="#4CAF50"/><circle cx="378.6" cy="232.6" r="3" fill="#4CAF50"/><circle cx="393.1" cy="234.8" r="3" fill="#4CAF50"/><circle cx="407.6" cy="231.7" r="3" fill="#4CAF50"/><circle cx="422.1" cy="233.0" r="3" fill="#4CAF50"/><circle cx="436.6" cy="216.3" r="3" fill="#4CAF50"/><circle cx="451.0" cy="203.8" r="3" fill="#4CAF50"/><circle cx="465.5" cy="207.1" r="3" fill="#4CAF50"/><circle cx="480.0" cy="230.4" r="3" fill="#4CAF50"/><rect x="490" y="44" width="10" height="10" fill="#4CAF50"/><text x="504" y="53" font-family="system-ui, -apple-system, sans-serif" font-size="10" fill="#333">openai</text><polyline fill="none" stroke="#2196F3" stroke-width="2" points="60.0,202.1 74.5,205.0 89.0,211.1 103.4,215.7 117.9,207.9 132.4,205.5 146.9,221.5 161.4,215.2 175.9,213.6 190.3,204.0 219.3,206.6 233.8,216.0 248.3,201.7 262.8,217.7 277.2,214.1 291.7,208.0 306.2,214.2 320.7,216.2 335.2,218.5 349.7,212.7 364.1,222.0 378.6,216.0 393.1,213.3 407.6,217.2 422.1,216.7 436.6,212.8 451.0,215.5 465.5,215.1 480.0,212.3"/><circle cx="60.0" cy="202.1" r="3" fill="#2196F3"/><circle cx="74.5" cy="205.0" r="3" fill="#2196F3"/><circle cx="89.0" cy="211.1" r="3" fill="#2196F3"/><circle cx="103.4" cy="215.7" r="3" fill="#2196F3"/><circle cx="117.9" cy="207.9" r="3" fill="#2196F3"/><circle cx="132.4" cy="205.5" r="3" fill="#2196F3"/><circle cx="146.9" cy="221.5" r="3" fill="#2196F3"/><circle cx="161.4" cy="215.2" r="3" fill="#2196F3"/><circle cx="175.9" cy="213.6" r="3" fill="#2196F3"/><circle cx="190.3" cy="204.0" r="3" fill="#2196F3"/><circle cx="219.3" cy="206.6" r="3" fill="#2196F3"/><circle cx="233.8" cy="216.0" r="3" fill="#2196F3"/><circle cx="248.3" cy="201.7" r="3" fill="#2196F3"/><circle cx="262.8" cy="217.7" r="3" fill="#2196F3"/><circle cx="277.2" cy="214.1" r="3" fill="#2196F3"/><circle cx="291.7" cy="208.0" r="3" fill="#2196F3"/><circle cx="306.2" cy="214.2" r="3" fill="#2196F3"/><circle cx="320.7" cy="216.2" r="3" fill="#2196F3"/><circle cx="335.2" cy="218.5" r="3" fill="#2196F3"/><circle cx="349.7" cy="212.7" r="3" fill="#2196F3"/><circle cx="364.1" cy="222.0" r="3" fill="#2196F3"/><circle cx="378.6" cy="216.0" r="3" fill="#2196F3"/><circle cx="393.1" cy="213.3" r="3" fill="#2196F3"/><circle cx="407.6" cy="217.2" r="3" fill="#2196F3"/><circle cx="422.1" cy="216.7" r="3" fill="#2196F3"/><circle cx="436.6" cy="212.8" r="3" fill="#2196F3"/><circle cx="451.0" cy="215.5" r="3" fill="#2196F3"/><circle cx="465.5" cy="215.1" r="3" fill="#2196F3"/><circle cx="480.0" cy="212.3" r="3" fill="#2196F3"/><rect x="490" y="62" width="10" height="10" fill="#2196F3"/><text x="504" y="71" font-family="system-ui, -apple-system, sans-serif" font-size="10" fill="#333">anthropic</text><polyline fill="none" stroke="#FF9800" stroke-width="2" points="60.0,180.2 74.5,189.5 89.0,151.7 103.4,191.5 117.9,192.5 132.4,200.7 146.9,178.8 161.4,168.2 175.9,189.5 190.3,170.6 204.8,170.7 219.3,121.7 233.8,128.5 248.3,170.7 262.8,157.8 277.2,177.3 291.7,147.0 306.2,185.7 320.7,169.7 335.2,168.1 349.7,181.5"/><circle cx="60.0" cy="180.2" r="3" fill="#FF9800"/><circle cx="74.5" cy="189.5" r="3" fill="#FF9800"/><circle cx="89.0" cy="151.7" r="3" fill="#FF9800"/><circle cx="103.4" cy="191.5" r="3" fill="#FF9800"/><circle cx="117.9" cy="192.5" r="3" fill="#FF9800"/><circle cx="132.4" cy="200.7" r="3" fill="#FF9800"/><circle cx="146.9" cy="178.8" r="3" fill="#FF9800"/><circle cx="161.4" cy="168.2" r="3" fill="#FF9800"/><circle cx="175.9" cy="189.5" r="3" fill="#FF9800"/><circle cx="190.3" cy="170.6" r="3" fill="#FF9800"/><circle cx="204.8" cy="170.7" r="3" fill="#FF9800"/><circle cx="219.3" cy="121.7" r="3" fill="#FF9800"/><circle cx="233.8" cy="128.5" r="3" fill="#FF9800"/><circle cx="248.3" cy="170.7" r="3" fill="#FF9800"/><circle cx="262.8" cy="157.8" r="3" fill="#FF9800"/><circle cx="277.2" cy="177.3" r="3" fill="#FF9800"/><circle cx="291.7" cy="147.0" r="3" fill="#FF9800"/><circle cx="306.2" cy="185.7" r="3" fill="#FF9800"/><circle cx="320.7" cy="169.7" r="3" fill="#FF9800"/><circle cx="335.2" cy="168.1" r="3" fill="#FF9800"/><circle cx="349.7" cy="181.5" r="3" fill="#FF9800"/><rect x="490" y="80" width="10" height="10" fill="#FF9800"/><text x="504" y="89" font-family="system-ui, -apple-system, sans-serif" font-size="10" fill="#333">gemini</text><polyline fill="none" stroke="#E91E63" stroke-width="2" points="60.0,109.2 74.5,129.4 89.0,158.6 103.4,119.6 117.9,90.4 132.4,193.7 146.9,98.6 161.4,159.7 175.9,169.7 190.3,172.7 204.8,89.0 219.3,125.9 233.8,158.3 248.3,178.0 262.8,115.6 277.2,192.9 291.7,45.9 306.2,172.7 320.7,145.7 335.2,60.9 349.7,109.8 364.1,131.6 378.6,145.0 393.1,160.3 407.6,141.2 422.1,127.8 436.6,40.0 451.0,80.5 465.5,167.8"/><circle cx="60.0" cy="109.2" r="3" fill="#E91E63"/><circle cx="74.5" cy="129.4" r="3" fill="#E91E63"/><circle cx="89.0" cy="158.6" r="3" fill="#E91E63"/><circle cx="103.4" cy="119.6" r="3" fill="#E91E63"/><circle cx="117.9" cy="90.4" r="3" fill="#E91E63"/><circle cx="132.4" cy="193.7" r="3" fill="#E91E63"/><circle cx="146.9" cy="98.6" r="3" fill="#E91E63"/><circle cx="161.4" cy="159.7" r="3" fill="#E91E63"/><circle cx="175.9" cy="169.7" r="3" fill="#E91E63"/><circle cx="190.3" cy="172.7" r="3" fill="#E91E63"/><circle cx="204.8" cy="89.0" r="3" fill="#E91E63"/><circle cx="219.3" cy="125.9" r="3" fill="#E91E63"/><circle cx="233.8" cy="158.3" r="3" fill="#E91E63"/><circle cx="248.3" cy="178.0" r="3" fill="#E91E63"/><circle cx="262.8" cy="115.6" r="3" fill="#E91E63"/><circle cx="277.2" cy="192.9" r="3" fill="#E91E63"/><circle cx="291.7" cy="45.9" r="3" fill="#E91E63"/><circle cx="306.2" cy="172.7" r="3" fill="#E91E63"/><circle cx="320.7" cy="145.7" r="3" fill="#E91E63"/><circle cx="335.2" cy="60.9" r="3" fill="#E91E63"/><circle cx="349.7" cy="109.8" r="3" fill="#E91E63"/><circle cx="364.1" cy="131.6" r="3" fill="#E91E63"/><circle cx="378.6" cy="145.0" r="3" fill="#E91E63"/><circle cx="393.1" cy="160.3" r="3" fill="#E91E63"/><circle cx="407.6" cy="141.2" r="3" fill="#E91E63"/><circle cx="422.1" cy="127.8" r="3" fill="#E91E63"/><circle cx="436.6" cy="40.0" r="3" fill="#E91E63"/><circle cx="451.0" cy="80.5" r="3" fill="#E91E63"/><circle cx="465.5" cy="167.8" r="3" fill="#E91E63"/><rect x="490" y="98" width="10" height="10" fill="#E91E63"/><text x="504" y="107" font-family="system-ui, -apple-system, sans-serif" font-size="10" fill="#333">llama</text><polyline fill="none" stroke="#9C27B0" stroke-width="2" points="60.0,148.4 74.5,130.1 89.0,163.7 103.4,132.6 117.9,118.0 132.4,163.8 146.9,178.1 161.4,193.3 175.9,163.7 190.3,142.0 204.8,192.4 219.3,219.3 233.8,196.3 248.3,221.0 262.8,198.0 277.2,215.5 291.7,217.4 306.2,186.2 320.7,208.6 335.2,228.4 349.7,220.0 364.1,206.8 378.6,219.0 393.1,215.4 407.6,229.1 422.1,224.9 436.6,207.9 451.0,184.3 465.5,202.8 480.0,202.7"/><circle cx="60.0" cy="148.4" r="3" fill="#9C27B0"/><circle cx="74.5" cy="130.1" r="3" fill="#9C27B0"/><circle cx="89.0" cy="163.7" r="3" fill="#9C27B0"/><circle cx="103.4" cy="132.6" r="3" fill="#9C27B0"/><circle cx="117.9" cy="118.0" r="3" fill="#9C27B0"/><circle cx="132.4" cy="163.8" r="3" fill="#9C27B0"/><circle cx="146.9" cy="178.1" r="3" fill="#9C27B0"/><circle cx="161.4" cy="193.3" r="3" fill="#9C27B0"/><circle cx="175.9" cy="163.7" r="3" fill="#9C27B0"/><circle cx="190.3" cy="142.0" r="3" fill="#9C27B0"/><circle cx="204.8" cy="192.4" r="3" fill="#9C27B0"/><circle cx="219.3" cy="219.3" r="3" fill="#9C27B0"/><circle cx="233.8" cy="196.3" r="3" fill="#9C27B0"/><circle cx="248.3" cy="221.0" r="3" fill="#9C27B0"/><circle cx="262.8" cy="198.0" r="3" fill="#9C27B0"/><circle cx="277.2" cy="215.5" r="3" fill="#9C27B0"/><circle cx="291.7" cy="217.4" r="3" fill="#9C27B0"/><circle cx="306.2" cy="186.2" r="3" fill="#9C27B0"/><circle cx="320.7" cy="208.6" r="3" fill="#9C27B0"/><circle cx="335.2" cy="228.4" r="3" fill="#9C27B0"/><circle cx="349.7" cy="220.0" r="3" fill="#9C27B0"/><circle cx="364.1" cy="206.8" r="3" fill="#9C27B0"/><circle cx="378.6" cy="219.0" r="3" fill="#9C27B0"/><circle cx="393.1" cy="215.4" r="3" fill="#9C27B0"/><circle cx="407.6" cy="229.1" r="3" fill="#9C27B0"/><circle cx="422.1" cy="224.9" r="3" fill="#9C27B0"/><circle cx="436.6" cy="207.9" r="3" fill="#9C27B0"/><circle cx="451.0" cy="184.3" r="3" fill="#9C27B0"/><circle cx="465.5" cy="202.8" r="3" fill="#9C27B0"/><circle cx="480.0" cy="202.7" r="3" fill="#9C27B0"/><rect x="490" y="116" width="10" height="10" fill="#9C27B0"/><text x="504" y="125" font-family="system-ui, -apple-system, sans-serif" font-size="10" fill="#333">mistral</text><polyline fill="none" stroke="#00BCD4" stroke-width="2" points="74.5,218.7 89.0,214.3 103.4,221.2 117.9,203.3 132.4,230.6 146.9,230.7 161.4,240.0 175.9,220.3 190.3,216.8 204.8,219.3 219.3,227.0 233.8,220.1 248.3,231.8 262.8,215.4 277.2,185.0 291.7,236.2 306.2,205.0 320.7,205.0 335.2,174.6 349.7,210.2 364.1,224.0 378.6,236.0 393.1,189.4 407.6,235.9 422.1,228.8 436.6,235.8 451.0,218.2 465.5,216.2"/><circle cx="74.5" cy="218.7" r="3" fill="#00BCD4"/><circle cx="89.0" cy="214.3" r="3" fill="#00BCD4"/><circle cx="103.4" cy="221.2" r="3" fill="#00BCD4"/><circle cx="117.9" cy="203.3" r="3" fill="#00BCD4"/><circle cx="132.4" cy="230.6" r="3" fill="#00BCD4"/><circle cx="146.9" cy="230.7" r="3" fill="#00BCD4"/><circle cx="161.4" cy="240.0" r="3" fill="#00BCD4"/><circle cx="175.9" cy="220.3" r="3" fill="#00BCD4"/><circle cx="190.3" cy="216.8" r="3" fill="#00BCD4"/><circle cx="204.8" cy="219.3" r="3" fill="#00BCD4"/><circle cx="219.3" cy="227.0" r="3" fill="#00BCD4"/><circle cx="233.8" cy="220.1" r="3" fill="#00BCD4"/><circle cx="248.3" cy="231.8" r="3" fill="#00BCD4"/><circle cx="262.8" cy="215.4" r="3" fill="#00BCD4"/><circle cx="277.2" cy="185.0" r="3" fill="#00BCD4"/><circle cx="291.7" cy="236.2" r="3" fill="#00BCD4"/><circle cx="306.2" cy="205.0" r="3" fill="#00BCD4"/><circle cx="320.7" cy="205.0" r="3" fill="#00BCD4"/><circle cx="335.2" cy="174.6" r="3" fill="#00BCD4"/><circle cx="349.7" cy="210.2" r="3" fill="#00BCD4"/><circle cx="364.1" cy="224.0" r="3" fill="#00BCD4"/><circle cx="378.6" cy="236.0" r="3" fill="#00BCD4"/><circle cx="393.1" cy="189.4" r="3" fill="#00BCD4"/><circle cx="407.6" cy="235.9" r="3" fill="#00BCD4"/><circle cx="422.1" cy="228.8" r="3" fill="#00BCD4"/><circle cx="436.6" cy="235.8" r="3" fill="#00BCD4"/><circle cx="451.0" cy="218.2" r="3" fill="#00BCD4"/><circle cx="465.5" cy="216.2" r="3" fill="#00BCD4"/><rect x="490" y="134" width="10" height="10" fill="#00BCD4"/><text x="504" y="143" font-family="system-ui, -apple-system, sans-serif" font-size="10" fill="#333">deepseek</text><text x="60.0" y="256.0" text-anchor="middle" font-family="system-ui, -apple-system, sans-serif" font-size="9" fill="#666">33376499</text><text x="103.4" y="256.0" text-anchor="middle" font-family="system-ui, -apple-system, sans-serif" font-size="9" fill="#666">53749546</text><text x="146.9" y="256.0" text-anchor="middle" font-family="system-ui, -apple-system, sans-serif" font-size="9" fill="#666">74446787</text><text x="190.3" y="256.0" text-anchor="middle" font-family="system-ui, -apple-system, sans-serif" font-size="9" fill="#666">76005435</text><text x="233.8" y="256.0" text-anchor="middle" font-family="system-ui, -apple-system, sans-serif" font-size="9" fill="#666">41073326</text><text x="277.2" y="256.0" text-anchor="middle" font-family="system-ui, -apple-system, sans-serif" font-size="9" fill="#666">11556178</text><text x="320.7" y="256.0" text-anchor="middle" font-family="system-ui, -apple-system, sans-serif" font-size="9" fill="#666">39004208</text><text x="364.1" y="256.0" text-anchor="middle" font-family="system-ui, -apple-system, sans-serif" font-size="9" fill="#666">99128981</text><text x="407.6" y="256.0" text-anchor="middle" font-family="system-ui, -apple-system, sans-serif" font-size="9" fill="#666">10405855</text><text x="451.0" y="256.0" text-anchor="middle" font-family="system-ui, -apple-system, sans-serif" font-size="9" fill="#666">65286172</text></svg>
