<svg xmlns="http://www.w3.org/2000/svg" viewBox="0 0 760 348" width="760" height="348" role="img" aria-label="Average LLM latency by provider over runs — llama highest, deepseek lowest" font-family="-apple-system,BlinkMacSystemFont,'Segoe UI',system-ui,sans-serif"><line x1="56" y1="306" x2="642" y2="306" stroke="#30363d" stroke-width="1"></line><text x="46" y="310" font-size="9.5" font-weight="400" text-anchor="end" fill="#8b949e" font-family="ui-monospace,SFMono-Regular,Menlo,monospace">0.0s</text><line x1="56" y1="235" x2="642" y2="235" stroke="#30363d" stroke-width="1"></line><text x="46" y="239" font-size="9.5" font-weight="400" text-anchor="end" fill="#8b949e" font-family="ui-monospace,SFMono-Regular,Menlo,monospace">82.5s</text><line x1="56" y1="164" x2="642" y2="164" stroke="#30363d" stroke-width="1"></line><text x="46" y="168" font-size="9.5" font-weight="400" text-anchor="end" fill="#8b949e" font-family="ui-monospace,SFMono-Regular,Menlo,monospace">165.1s</text><line x1="56" y1="93" x2="642" y2="93" stroke="#30363d" stroke-width="1"></line><text x="46" y="97" font-size="9.5" font-weight="400" text-anchor="end" fill="#8b949e" font-family="ui-monospace,SFMono-Regular,Menlo,monospace">247.6s</text><line x1="56" y1="22" x2="642" y2="22" stroke="#30363d" stroke-width="1"></line><text x="46" y="26" font-size="9.5" font-weight="400" text-anchor="end" fill="#8b949e" font-family="ui-monospace,SFMono-Regular,Menlo,monospace">330.2s</text><text x="56" y="324" font-size="9.5" font-weight="400" text-anchor="middle" fill="#8b949e" font-family="ui-monospace,SFMono-Regular,Menlo,monospace">06/08</text><text x="112.97" y="324" font-size="9.5" font-weight="400" text-anchor="middle" fill="#8b949e" font-family="ui-monospace,SFMono-Regular,Menlo,monospace">06/09</text><text x="169.94" y="324" font-size="9.5" font-weight="400" text-anchor="middle" fill="#8b949e" font-family="ui-monospace,SFMono-Regular,Menlo,monospace">06/10</text><text x="226.92" y="324" font-size="9.5" font-weight="400" text-anchor="middle" fill="#8b949e" font-family="ui-monospace,SFMono-Regular,Menlo,monospace">06/14</text><text x="283.89" y="324" font-size="9.5" font-weight="400" text-anchor="middle" fill="#8b949e" font-family="ui-monospace,SFMono-Regular,Menlo,monospace">06/15</text><text x="340.86" y="324" font-size="9.5" font-weight="400" text-anchor="middle" fill="#8b949e" font-family="ui-monospace,SFMono-Regular,Menlo,monospace">06/16</text><text x="397.83" y="324" font-size="9.5" font-weight="400" text-anchor="middle" fill="#8b949e" font-family="ui-monospace,SFMono-Regular,Menlo,monospace">06/18</text><text x="454.81" y="324" font-size="9.5" font-weight="400" text-anchor="middle" fill="#8b949e" font-family="ui-monospace,SFMono-Regular,Menlo,monospace">06/20</text><text x="511.78" y="324" font-size="9.5" font-weight="400" text-anchor="middle" fill="#8b949e" font-family="ui-monospace,SFMono-Regular,Menlo,monospace">06/21</text><text x="568.75" y="324" font-size="9.5" font-weight="400" text-anchor="middle" fill="#8b949e" font-family="ui-monospace,SFMono-Regular,Menlo,monospace">06/23</text><text x="625.72" y="324" font-size="9.5" font-weight="400" text-anchor="middle" fill="#8b949e" font-family="ui-monospace,SFMono-Regular,Menlo,monospace">06/24</text><text x="642" y="324" font-size="9.5" font-weight="400" text-anchor="middle" fill="#8b949e" font-family="ui-monospace,SFMono-Regular,Menlo,monospace">06/25</text><polyline fill="none" stroke="#E8835A" stroke-width="2.4" stroke-linejoin="round" stroke-linecap="round" points="56,229.15 64.14,232.31 72.28,238.94 80.42,244 88.56,235.49 96.69,232.81 104.83,250.28 112.97,243.38 121.11,241.66 129.25,231.14 145.53,234.04 153.67,244.32 161.81,228.71 169.94,246.08 178.08,242.18 186.22,235.58 194.36,242.32 202.5,244.55 210.64,246.98 218.78,240.71 226.92,250.83 235.06,244.26 243.19,241.33 251.33,245.63 259.47,245.02 267.61,240.82 275.75,243.78 283.89,243.28 292.03,240.2 300.17,242.69 308.31,215.59 316.44,241.79 324.58,238.64 332.72,243.45 340.86,243.86 349,234.8 357.14,244.51 365.28,244.64"></polyline><circle cx="56" cy="229.15" r="2.6" fill="#E8835A"></circle><circle cx="64.14" cy="232.31" r="2.6" fill="#E8835A"></circle><circle cx="72.28" cy="238.94" r="2.6" fill="#E8835A"></circle><circle cx="80.42" cy="244" r="2.6" fill="#E8835A"></circle><circle cx="88.56" cy="235.49" r="2.6" fill="#E8835A"></circle><circle cx="96.69" cy="232.81" r="2.6" fill="#E8835A"></circle><circle cx="104.83" cy="250.28" r="2.6" fill="#E8835A"></circle><circle cx="112.97" cy="243.38" r="2.6" fill="#E8835A"></circle><circle cx="121.11" cy="241.66" r="2.6" fill="#E8835A"></circle><circle cx="129.25" cy="231.14" r="2.6" fill="#E8835A"></circle><circle cx="145.53" cy="234.04" r="2.6" fill="#E8835A"></circle><circle cx="153.67" cy="244.32" r="2.6" fill="#E8835A"></circle><circle cx="161.81" cy="228.71" r="2.6" fill="#E8835A"></circle><circle cx="169.94" cy="246.08" r="2.6" fill="#E8835A"></circle><circle cx="178.08" cy="242.18" r="2.6" fill="#E8835A"></circle><circle cx="186.22" cy="235.58" r="2.6" fill="#E8835A"></circle><circle cx="194.36" cy="242.32" r="2.6" fill="#E8835A"></circle><circle cx="202.5" cy="244.55" r="2.6" fill="#E8835A"></circle><circle cx="210.64" cy="246.98" r="2.6" fill="#E8835A"></circle><circle cx="218.78" cy="240.71" r="2.6" fill="#E8835A"></circle><circle cx="226.92" cy="250.83" r="2.6" fill="#E8835A"></circle><circle cx="235.06" cy="244.26" r="2.6" fill="#E8835A"></circle><circle cx="243.19" cy="241.33" r="2.6" fill="#E8835A"></circle><circle cx="251.33" cy="245.63" r="2.6" fill="#E8835A"></circle><circle cx="259.47" cy="245.02" r="2.6" fill="#E8835A"></circle><circle cx="267.61" cy="240.82" r="2.6" fill="#E8835A"></circle><circle cx="275.75" cy="243.78" r="2.6" fill="#E8835A"></circle><circle cx="283.89" cy="243.28" r="2.6" fill="#E8835A"></circle><circle cx="292.03" cy="240.2" r="2.6" fill="#E8835A"></circle><circle cx="300.17" cy="242.69" r="2.6" fill="#E8835A"></circle><circle cx="308.31" cy="215.59" r="2.6" fill="#E8835A"></circle><circle cx="316.44" cy="241.79" r="2.6" fill="#E8835A"></circle><circle cx="324.58" cy="238.64" r="2.6" fill="#E8835A"></circle><circle cx="332.72" cy="243.45" r="2.6" fill="#E8835A"></circle><circle cx="340.86" cy="243.86" r="2.6" fill="#E8835A"></circle><circle cx="349" cy="234.8" r="2.6" fill="#E8835A"></circle><circle cx="357.14" cy="244.51" r="2.6" fill="#E8835A"></circle><circle cx="365.28" cy="244.64" r="2.6" fill="#E8835A"></circle><polyline fill="none" stroke="#6366F1" stroke-width="2.4" stroke-linejoin="round" stroke-linecap="round" points="64.14,247.24 72.28,242.4 80.42,249.98 88.56,230.48 96.69,260.21 104.83,260.34 112.97,270.44 121.11,248.92 129.25,245.19 137.39,247.83 145.53,256.22 153.67,248.72 161.81,261.47 169.94,243.58 178.08,210.49 186.22,266.33 194.36,232.33 202.5,232.27 210.64,199.16 218.78,237.91 226.92,252.97 235.06,266.11 243.19,215.25 251.33,265.97 259.47,258.25 267.61,265.82 275.75,246.69 283.89,244.53 300.17,240.91 308.31,255.51 316.44,252.51 324.58,237.2 332.72,258.24 340.86,235.84 349,252.87 357.14,243.73 365.28,249.01 381.56,263.05 389.69,262.95 397.83,250.85 405.97,238.76 414.11,245.84 422.25,240.49 430.39,244.58 438.53,238.25 446.67,266.43 454.81,219.91 462.94,256.77 479.22,250.11 487.36,264.15 495.5,249.18 503.64,252.64 511.78,236.94 519.92,257.91 528.06,245.05 536.19,245.47 544.33,251.25 552.47,250.75 560.61,249.01 568.75,257.36 576.89,265.15 585.03,253.64 593.17,262.66 601.31,253.56 609.44,247.85 617.58,241.21 625.72,265.06 633.86,257.2 642,265.73"></polyline><circle cx="64.14" cy="247.24" r="2.6" fill="#6366F1"></circle><circle cx="72.28" cy="242.4" r="2.6" fill="#6366F1"></circle><circle cx="80.42" cy="249.98" r="2.6" fill="#6366F1"></circle><circle cx="88.56" cy="230.48" r="2.6" fill="#6366F1"></circle><circle cx="96.69" cy="260.21" r="2.6" fill="#6366F1"></circle><circle cx="104.83" cy="260.34" r="2.6" fill="#6366F1"></circle><circle cx="112.97" cy="270.44" r="2.6" fill="#6366F1"></circle><circle cx="121.11" cy="248.92" r="2.6" fill="#6366F1"></circle><circle cx="129.25" cy="245.19" r="2.6" fill="#6366F1"></circle><circle cx="137.39" cy="247.83" r="2.6" fill="#6366F1"></circle><circle cx="145.53" cy="256.22" r="2.6" fill="#6366F1"></circle><circle cx="153.67" cy="248.72" r="2.6" fill="#6366F1"></circle><circle cx="161.81" cy="261.47" r="2.6" fill="#6366F1"></circle><circle cx="169.94" cy="243.58" r="2.6" fill="#6366F1"></circle><circle cx="178.08" cy="210.49" r="2.6" fill="#6366F1"></circle><circle cx="186.22" cy="266.33" r="2.6" fill="#6366F1"></circle><circle cx="194.36" cy="232.33" r="2.6" fill="#6366F1"></circle><circle cx="202.5" cy="232.27" r="2.6" fill="#6366F1"></circle><circle cx="210.64" cy="199.16" r="2.6" fill="#6366F1"></circle><circle cx="218.78" cy="237.91" r="2.6" fill="#6366F1"></circle><circle cx="226.92" cy="252.97" r="2.6" fill="#6366F1"></circle><circle cx="235.06" cy="266.11" r="2.6" fill="#6366F1"></circle><circle cx="243.19" cy="215.25" r="2.6" fill="#6366F1"></circle><circle cx="251.33" cy="265.97" r="2.6" fill="#6366F1"></circle><circle cx="259.47" cy="258.25" r="2.6" fill="#6366F1"></circle><circle cx="267.61" cy="265.82" r="2.6" fill="#6366F1"></circle><circle cx="275.75" cy="246.69" r="2.6" fill="#6366F1"></circle><circle cx="283.89" cy="244.53" r="2.6" fill="#6366F1"></circle><circle cx="300.17" cy="240.91" r="2.6" fill="#6366F1"></circle><circle cx="308.31" cy="255.51" r="2.6" fill="#6366F1"></circle><circle cx="316.44" cy="252.51" r="2.6" fill="#6366F1"></circle><circle cx="324.58" cy="237.2" r="2.6" fill="#6366F1"></circle><circle cx="332.72" cy="258.24" r="2.6" fill="#6366F1"></circle><circle cx="340.86" cy="235.84" r="2.6" fill="#6366F1"></circle><circle cx="349" cy="252.87" r="2.6" fill="#6366F1"></circle><circle cx="357.14" cy="243.73" r="2.6" fill="#6366F1"></circle><circle cx="365.28" cy="249.01" r="2.6" fill="#6366F1"></circle><circle cx="381.56" cy="263.05" r="2.6" fill="#6366F1"></circle><circle cx="389.69" cy="262.95" r="2.6" fill="#6366F1"></circle><circle cx="397.83" cy="250.85" r="2.6" fill="#6366F1"></circle><circle cx="405.97" cy="238.76" r="2.6" fill="#6366F1"></circle><circle cx="414.11" cy="245.84" r="2.6" fill="#6366F1"></circle><circle cx="422.25" cy="240.49" r="2.6" fill="#6366F1"></circle><circle cx="430.39" cy="244.58" r="2.6" fill="#6366F1"></circle><circle cx="438.53" cy="238.25" r="2.6" fill="#6366F1"></circle><circle cx="446.67" cy="266.43" r="2.6" fill="#6366F1"></circle><circle cx="454.81" cy="219.91" r="2.6" fill="#6366F1"></circle><circle cx="462.94" cy="256.77" r="2.6" fill="#6366F1"></circle><circle cx="479.22" cy="250.11" r="2.6" fill="#6366F1"></circle><circle cx="487.36" cy="264.15" r="2.6" fill="#6366F1"></circle><circle cx="495.5" cy="249.18" r="2.6" fill="#6366F1"></circle><circle cx="503.64" cy="252.64" r="2.6" fill="#6366F1"></circle><circle cx="511.78" cy="236.94" r="2.6" fill="#6366F1"></circle><circle cx="519.92" cy="257.91" r="2.6" fill="#6366F1"></circle><circle cx="528.06" cy="245.05" r="2.6" fill="#6366F1"></circle><circle cx="536.19" cy="245.47" r="2.6" fill="#6366F1"></circle><circle cx="544.33" cy="251.25" r="2.6" fill="#6366F1"></circle><circle cx="552.47" cy="250.75" r="2.6" fill="#6366F1"></circle><circle cx="560.61" cy="249.01" r="2.6" fill="#6366F1"></circle><circle cx="568.75" cy="257.36" r="2.6" fill="#6366F1"></circle><circle cx="576.89" cy="265.15" r="2.6" fill="#6366F1"></circle><circle cx="585.03" cy="253.64" r="2.6" fill="#6366F1"></circle><circle cx="593.17" cy="262.66" r="2.6" fill="#6366F1"></circle><circle cx="601.31" cy="253.56" r="2.6" fill="#6366F1"></circle><circle cx="609.44" cy="247.85" r="2.6" fill="#6366F1"></circle><circle cx="617.58" cy="241.21" r="2.6" fill="#6366F1"></circle><circle cx="625.72" cy="265.06" r="2.6" fill="#6366F1"></circle><circle cx="633.86" cy="257.2" r="2.6" fill="#6366F1"></circle><circle cx="642" cy="265.73" r="2.6" fill="#6366F1"></circle><polyline fill="none" stroke="#2DA98C" stroke-width="2.4" stroke-linejoin="round" stroke-linecap="round" points="56,205.26 64.14,215.39 72.28,174.15 80.42,217.56 88.56,218.68 96.69,227.57 104.83,203.76 112.97,192.14 121.11,215.35 129.25,194.78 137.39,194.92 145.53,141.5 153.67,148.87 161.81,194.84 169.94,180.85 178.08,202.09 186.22,169.08 194.36,211.29 202.5,193.77 210.64,192.04 218.78,206.61 300.17,221.15 308.31,190.23 316.44,183.33 324.58,225.15 332.72,184.37 340.86,182.1 349,210.86 357.14,161.53 365.28,210.56 381.56,182.01 389.69,172.32 397.83,181.93 405.97,186.76 414.11,217.59 422.25,171.76 430.39,211.13 438.53,171.55 446.67,181.17 454.81,189.96 462.94,191.02 479.22,212.98 487.36,170.09 495.5,127.97 503.64,222.7 511.78,200.4 519.92,155.75 528.06,184.88 536.19,176.48 544.33,167.89 552.47,205.24 560.61,167.24 568.75,154.57 576.89,196.61 585.03,154.13 593.17,196.6 601.31,203.92 609.44,125.1 617.58,151.41 625.72,176.39 633.86,198.69"></polyline><circle cx="56" cy="205.26" r="2.6" fill="#2DA98C"></circle><circle cx="64.14" cy="215.39" r="2.6" fill="#2DA98C"></circle><circle cx="72.28" cy="174.15" r="2.6" fill="#2DA98C"></circle><circle cx="80.42" cy="217.56" r="2.6" fill="#2DA98C"></circle><circle cx="88.56" cy="218.68" r="2.6" fill="#2DA98C"></circle><circle cx="96.69" cy="227.57" r="2.6" fill="#2DA98C"></circle><circle cx="104.83" cy="203.76" r="2.6" fill="#2DA98C"></circle><circle cx="112.97" cy="192.14" r="2.6" fill="#2DA98C"></circle><circle cx="121.11" cy="215.35" r="2.6" fill="#2DA98C"></circle><circle cx="129.25" cy="194.78" r="2.6" fill="#2DA98C"></circle><circle cx="137.39" cy="194.92" r="2.6" fill="#2DA98C"></circle><circle cx="145.53" cy="141.5" r="2.6" fill="#2DA98C"></circle><circle cx="153.67" cy="148.87" r="2.6" fill="#2DA98C"></circle><circle cx="161.81" cy="194.84" r="2.6" fill="#2DA98C"></circle><circle cx="169.94" cy="180.85" r="2.6" fill="#2DA98C"></circle><circle cx="178.08" cy="202.09" r="2.6" fill="#2DA98C"></circle><circle cx="186.22" cy="169.08" r="2.6" fill="#2DA98C"></circle><circle cx="194.36" cy="211.29" r="2.6" fill="#2DA98C"></circle><circle cx="202.5" cy="193.77" r="2.6" fill="#2DA98C"></circle><circle cx="210.64" cy="192.04" r="2.6" fill="#2DA98C"></circle><circle cx="218.78" cy="206.61" r="2.6" fill="#2DA98C"></circle><circle cx="300.17" cy="221.15" r="2.6" fill="#2DA98C"></circle><circle cx="308.31" cy="190.23" r="2.6" fill="#2DA98C"></circle><circle cx="316.44" cy="183.33" r="2.6" fill="#2DA98C"></circle><circle cx="324.58" cy="225.15" r="2.6" fill="#2DA98C"></circle><circle cx="332.72" cy="184.37" r="2.6" fill="#2DA98C"></circle><circle cx="340.86" cy="182.1" r="2.6" fill="#2DA98C"></circle><circle cx="349" cy="210.86" r="2.6" fill="#2DA98C"></circle><circle cx="357.14" cy="161.53" r="2.6" fill="#2DA98C"></circle><circle cx="365.28" cy="210.56" r="2.6" fill="#2DA98C"></circle><circle cx="381.56" cy="182.01" r="2.6" fill="#2DA98C"></circle><circle cx="389.69" cy="172.32" r="2.6" fill="#2DA98C"></circle><circle cx="397.83" cy="181.93" r="2.6" fill="#2DA98C"></circle><circle cx="405.97" cy="186.76" r="2.6" fill="#2DA98C"></circle><circle cx="414.11" cy="217.59" r="2.6" fill="#2DA98C"></circle><circle cx="422.25" cy="171.76" r="2.6" fill="#2DA98C"></circle><circle cx="430.39" cy="211.13" r="2.6" fill="#2DA98C"></circle><circle cx="438.53" cy="171.55" r="2.6" fill="#2DA98C"></circle><circle cx="446.67" cy="181.17" r="2.6" fill="#2DA98C"></circle><circle cx="454.81" cy="189.96" r="2.6" fill="#2DA98C"></circle><circle cx="462.94" cy="191.02" r="2.6" fill="#2DA98C"></circle><circle cx="479.22" cy="212.98" r="2.6" fill="#2DA98C"></circle><circle cx="487.36" cy="170.09" r="2.6" fill="#2DA98C"></circle><circle cx="495.5" cy="127.97" r="2.6" fill="#2DA98C"></circle><circle cx="503.64" cy="222.7" r="2.6" fill="#2DA98C"></circle><circle cx="511.78" cy="200.4" r="2.6" fill="#2DA98C"></circle><circle cx="519.92" cy="155.75" r="2.6" fill="#2DA98C"></circle><circle cx="528.06" cy="184.88" r="2.6" fill="#2DA98C"></circle><circle cx="536.19" cy="176.48" r="2.6" fill="#2DA98C"></circle><circle cx="544.33" cy="167.89" r="2.6" fill="#2DA98C"></circle><circle cx="552.47" cy="205.24" r="2.6" fill="#2DA98C"></circle><circle cx="560.61" cy="167.24" r="2.6" fill="#2DA98C"></circle><circle cx="568.75" cy="154.57" r="2.6" fill="#2DA98C"></circle><circle cx="576.89" cy="196.61" r="2.6" fill="#2DA98C"></circle><circle cx="585.03" cy="154.13" r="2.6" fill="#2DA98C"></circle><circle cx="593.17" cy="196.6" r="2.6" fill="#2DA98C"></circle><circle cx="601.31" cy="203.92" r="2.6" fill="#2DA98C"></circle><circle cx="609.44" cy="125.1" r="2.6" fill="#2DA98C"></circle><circle cx="617.58" cy="151.41" r="2.6" fill="#2DA98C"></circle><circle cx="625.72" cy="176.39" r="2.6" fill="#2DA98C"></circle><circle cx="633.86" cy="198.69" r="2.6" fill="#2DA98C"></circle><polyline fill="none" stroke="#A371F7" stroke-width="2.4" stroke-linejoin="round" stroke-linecap="round" points="56,127.86 64.14,149.85 72.28,181.76 80.42,139.24 88.56,107.36 96.69,219.97 104.83,116.3 112.97,182.89 121.11,193.78 129.25,197.11 137.39,105.85 145.53,146.07 153.67,181.42 161.81,202.88 169.94,134.79 178.08,219.07 186.22,58.83 194.36,197.05 202.5,167.66 210.64,75.26 218.78,128.5 226.92,152.23 235.06,166.9 243.19,183.57 251.33,162.79 259.47,148.18 267.61,52.43 275.75,96.59 283.89,191.76 300.17,151.86 308.31,169.19 316.44,135.22 332.72,206.77 340.86,167.88 349,189.32 357.14,143.76 365.28,142.49 373.42,163.7 381.56,128.52 389.69,144.9 397.83,92.3 405.97,157.36 414.11,160.21 422.25,176.32 430.39,116.21 438.53,165.98 446.67,136.47 462.94,155.12 479.22,134.62 495.5,114.6 503.64,127.72 511.78,219.84 519.92,170.06 528.06,154.88 536.19,189.66 544.33,162.21 552.47,183.03 560.61,165.52 568.75,176.75 576.89,155.74 593.17,148.44 601.31,196.35 609.44,143.94 617.58,112.27 625.72,149.32 633.86,161.5 642,199.8"></polyline><circle cx="56" cy="127.86" r="2.6" fill="#A371F7"></circle><circle cx="64.14" cy="149.85" r="2.6" fill="#A371F7"></circle><circle cx="72.28" cy="181.76" r="2.6" fill="#A371F7"></circle><circle cx="80.42" cy="139.24" r="2.6" fill="#A371F7"></circle><circle cx="88.56" cy="107.36" r="2.6" fill="#A371F7"></circle><circle cx="96.69" cy="219.97" r="2.6" fill="#A371F7"></circle><circle cx="104.83" cy="116.3" r="2.6" fill="#A371F7"></circle><circle cx="112.97" cy="182.89" r="2.6" fill="#A371F7"></circle><circle cx="121.11" cy="193.78" r="2.6" fill="#A371F7"></circle><circle cx="129.25" cy="197.11" r="2.6" fill="#A371F7"></circle><circle cx="137.39" cy="105.85" r="2.6" fill="#A371F7"></circle><circle cx="145.53" cy="146.07" r="2.6" fill="#A371F7"></circle><circle cx="153.67" cy="181.42" r="2.6" fill="#A371F7"></circle><circle cx="161.81" cy="202.88" r="2.6" fill="#A371F7"></circle><circle cx="169.94" cy="134.79" r="2.6" fill="#A371F7"></circle><circle cx="178.08" cy="219.07" r="2.6" fill="#A371F7"></circle><circle cx="186.22" cy="58.83" r="2.6" fill="#A371F7"></circle><circle cx="194.36" cy="197.05" r="2.6" fill="#A371F7"></circle><circle cx="202.5" cy="167.66" r="2.6" fill="#A371F7"></circle><circle cx="210.64" cy="75.26" r="2.6" fill="#A371F7"></circle><circle cx="218.78" cy="128.5" r="2.6" fill="#A371F7"></circle><circle cx="226.92" cy="152.23" r="2.6" fill="#A371F7"></circle><circle cx="235.06" cy="166.9" r="2.6" fill="#A371F7"></circle><circle cx="243.19" cy="183.57" r="2.6" fill="#A371F7"></circle><circle cx="251.33" cy="162.79" r="2.6" fill="#A371F7"></circle><circle cx="259.47" cy="148.18" r="2.6" fill="#A371F7"></circle><circle cx="267.61" cy="52.43" r="2.6" fill="#A371F7"></circle><circle cx="275.75" cy="96.59" r="2.6" fill="#A371F7"></circle><circle cx="283.89" cy="191.76" r="2.6" fill="#A371F7"></circle><circle cx="300.17" cy="151.86" r="2.6" fill="#A371F7"></circle><circle cx="308.31" cy="169.19" r="2.6" fill="#A371F7"></circle><circle cx="316.44" cy="135.22" r="2.6" fill="#A371F7"></circle><circle cx="332.72" cy="206.77" r="2.6" fill="#A371F7"></circle><circle cx="340.86" cy="167.88" r="2.6" fill="#A371F7"></circle><circle cx="349" cy="189.32" r="2.6" fill="#A371F7"></circle><circle cx="357.14" cy="143.76" r="2.6" fill="#A371F7"></circle><circle cx="365.28" cy="142.49" r="2.6" fill="#A371F7"></circle><circle cx="373.42" cy="163.7" r="2.6" fill="#A371F7"></circle><circle cx="381.56" cy="128.52" r="2.6" fill="#A371F7"></circle><circle cx="389.69" cy="144.9" r="2.6" fill="#A371F7"></circle><circle cx="397.83" cy="92.3" r="2.6" fill="#A371F7"></circle><circle cx="405.97" cy="157.36" r="2.6" fill="#A371F7"></circle><circle cx="414.11" cy="160.21" r="2.6" fill="#A371F7"></circle><circle cx="422.25" cy="176.32" r="2.6" fill="#A371F7"></circle><circle cx="430.39" cy="116.21" r="2.6" fill="#A371F7"></circle><circle cx="438.53" cy="165.98" r="2.6" fill="#A371F7"></circle><circle cx="446.67" cy="136.47" r="2.6" fill="#A371F7"></circle><circle cx="462.94" cy="155.12" r="2.6" fill="#A371F7"></circle><circle cx="479.22" cy="134.62" r="2.6" fill="#A371F7"></circle><circle cx="495.5" cy="114.6" r="2.6" fill="#A371F7"></circle><circle cx="503.64" cy="127.72" r="2.6" fill="#A371F7"></circle><circle cx="511.78" cy="219.84" r="2.6" fill="#A371F7"></circle><circle cx="519.92" cy="170.06" r="2.6" fill="#A371F7"></circle><circle cx="528.06" cy="154.88" r="2.6" fill="#A371F7"></circle><circle cx="536.19" cy="189.66" r="2.6" fill="#A371F7"></circle><circle cx="544.33" cy="162.21" r="2.6" fill="#A371F7"></circle><circle cx="552.47" cy="183.03" r="2.6" fill="#A371F7"></circle><circle cx="560.61" cy="165.52" r="2.6" fill="#A371F7"></circle><circle cx="568.75" cy="176.75" r="2.6" fill="#A371F7"></circle><circle cx="576.89" cy="155.74" r="2.6" fill="#A371F7"></circle><circle cx="593.17" cy="148.44" r="2.6" fill="#A371F7"></circle><circle cx="601.31" cy="196.35" r="2.6" fill="#A371F7"></circle><circle cx="609.44" cy="143.94" r="2.6" fill="#A371F7"></circle><circle cx="617.58" cy="112.27" r="2.6" fill="#A371F7"></circle><circle cx="625.72" cy="149.32" r="2.6" fill="#A371F7"></circle><circle cx="633.86" cy="161.5" r="2.6" fill="#A371F7"></circle><circle cx="642" cy="199.8" r="2.6" fill="#A371F7"></circle><polyline fill="none" stroke="#F0A23B" stroke-width="2.4" stroke-linejoin="round" stroke-linecap="round" points="56,170.6 64.14,150.62 72.28,187.27 80.42,153.33 88.56,137.4 96.69,187.39 104.83,202.98 112.97,219.57 121.11,187.3 129.25,163.64 137.39,218.54 145.53,247.9 153.67,222.75 161.81,249.71 169.94,224.7 178.08,243.69 186.22,245.81 194.36,211.84 202.5,236.21 210.64,257.78 218.78,248.63 226.92,234.2 235.06,247.57 243.19,243.66 251.33,258.59 259.47,253.94 267.61,235.44 275.75,209.7 283.89,229.87 292.03,229.74 300.17,242.74 308.31,219.28 316.44,218.69 324.58,248.17 332.72,252.02 340.86,241.64 349,202.83 357.14,191.16 365.28,236.21 373.42,247.47 381.56,237.91 389.69,227.46 397.83,241.35 405.97,249.73 414.11,234.66 422.25,250 430.39,253.94 438.53,252.42 446.67,245.42 454.81,237.98 462.94,238.85 479.22,257.8 487.36,233.33 495.5,238.96 503.64,252.16 511.78,246.34 519.92,221.3 528.06,228.03 536.19,249.57 544.33,236.95 552.47,243.86 560.61,246.88 568.75,238.45 576.89,247.92 593.17,235.92 601.31,214.9 609.44,201.77 617.58,219.97 625.72,238.65 633.86,232.47 642,220.62"></polyline><circle cx="56" cy="170.6" r="2.6" fill="#F0A23B"></circle><circle cx="64.14" cy="150.62" r="2.6" fill="#F0A23B"></circle><circle cx="72.28" cy="187.27" r="2.6" fill="#F0A23B"></circle><circle cx="80.42" cy="153.33" r="2.6" fill="#F0A23B"></circle><circle cx="88.56" cy="137.4" r="2.6" fill="#F0A23B"></circle><circle cx="96.69" cy="187.39" r="2.6" fill="#F0A23B"></circle><circle cx="104.83" cy="202.98" r="2.6" fill="#F0A23B"></circle><circle cx="112.97" cy="219.57" r="2.6" fill="#F0A23B"></circle><circle cx="121.11" cy="187.3" r="2.6" fill="#F0A23B"></circle><circle cx="129.25" cy="163.64" r="2.6" fill="#F0A23B"></circle><circle cx="137.39" cy="218.54" r="2.6" fill="#F0A23B"></circle><circle cx="145.53" cy="247.9" r="2.6" fill="#F0A23B"></circle><circle cx="153.67" cy="222.75" r="2.6" fill="#F0A23B"></circle><circle cx="161.81" cy="249.71" r="2.6" fill="#F0A23B"></circle><circle cx="169.94" cy="224.7" r="2.6" fill="#F0A23B"></circle><circle cx="178.08" cy="243.69" r="2.6" fill="#F0A23B"></circle><circle cx="186.22" cy="245.81" r="2.6" fill="#F0A23B"></circle><circle cx="194.36" cy="211.84" r="2.6" fill="#F0A23B"></circle><circle cx="202.5" cy="236.21" r="2.6" fill="#F0A23B"></circle><circle cx="210.64" cy="257.78" r="2.6" fill="#F0A23B"></circle><circle cx="218.78" cy="248.63" r="2.6" fill="#F0A23B"></circle><circle cx="226.92" cy="234.2" r="2.6" fill="#F0A23B"></circle><circle cx="235.06" cy="247.57" r="2.6" fill="#F0A23B"></circle><circle cx="243.19" cy="243.66" r="2.6" fill="#F0A23B"></circle><circle cx="251.33" cy="258.59" r="2.6" fill="#F0A23B"></circle><circle cx="259.47" cy="253.94" r="2.6" fill="#F0A23B"></circle><circle cx="267.61" cy="235.44" r="2.6" fill="#F0A23B"></circle><circle cx="275.75" cy="209.7" r="2.6" fill="#F0A23B"></circle><circle cx="283.89" cy="229.87" r="2.6" fill="#F0A23B"></circle><circle cx="292.03" cy="229.74" r="2.6" fill="#F0A23B"></circle><circle cx="300.17" cy="242.74" r="2.6" fill="#F0A23B"></circle><circle cx="308.31" cy="219.28" r="2.6" fill="#F0A23B"></circle><circle cx="316.44" cy="218.69" r="2.6" fill="#F0A23B"></circle><circle cx="324.58" cy="248.17" r="2.6" fill="#F0A23B"></circle><circle cx="332.72" cy="252.02" r="2.6" fill="#F0A23B"></circle><circle cx="340.86" cy="241.64" r="2.6" fill="#F0A23B"></circle><circle cx="349" cy="202.83" r="2.6" fill="#F0A23B"></circle><circle cx="357.14" cy="191.16" r="2.6" fill="#F0A23B"></circle><circle cx="365.28" cy="236.21" r="2.6" fill="#F0A23B"></circle><circle cx="373.42" cy="247.47" r="2.6" fill="#F0A23B"></circle><circle cx="381.56" cy="237.91" r="2.6" fill="#F0A23B"></circle><circle cx="389.69" cy="227.46" r="2.6" fill="#F0A23B"></circle><circle cx="397.83" cy="241.35" r="2.6" fill="#F0A23B"></circle><circle cx="405.97" cy="249.73" r="2.6" fill="#F0A23B"></circle><circle cx="414.11" cy="234.66" r="2.6" fill="#F0A23B"></circle><circle cx="422.25" cy="250" r="2.6" fill="#F0A23B"></circle><circle cx="430.39" cy="253.94" r="2.6" fill="#F0A23B"></circle><circle cx="438.53" cy="252.42" r="2.6" fill="#F0A23B"></circle><circle cx="446.67" cy="245.42" r="2.6" fill="#F0A23B"></circle><circle cx="454.81" cy="237.98" r="2.6" fill="#F0A23B"></circle><circle cx="462.94" cy="238.85" r="2.6" fill="#F0A23B"></circle><circle cx="479.22" cy="257.8" r="2.6" fill="#F0A23B"></circle><circle cx="487.36" cy="233.33" r="2.6" fill="#F0A23B"></circle><circle cx="495.5" cy="238.96" r="2.6" fill="#F0A23B"></circle><circle cx="503.64" cy="252.16" r="2.6" fill="#F0A23B"></circle><circle cx="511.78" cy="246.34" r="2.6" fill="#F0A23B"></circle><circle cx="519.92" cy="221.3" r="2.6" fill="#F0A23B"></circle><circle cx="528.06" cy="228.03" r="2.6" fill="#F0A23B"></circle><circle cx="536.19" cy="249.57" r="2.6" fill="#F0A23B"></circle><circle cx="544.33" cy="236.95" r="2.6" fill="#F0A23B"></circle><circle cx="552.47" cy="243.86" r="2.6" fill="#F0A23B"></circle><circle cx="560.61" cy="246.88" r="2.6" fill="#F0A23B"></circle><circle cx="568.75" cy="238.45" r="2.6" fill="#F0A23B"></circle><circle cx="576.89" cy="247.92" r="2.6" fill="#F0A23B"></circle><circle cx="593.17" cy="235.92" r="2.6" fill="#F0A23B"></circle><circle cx="601.31" cy="214.9" r="2.6" fill="#F0A23B"></circle><circle cx="609.44" cy="201.77" r="2.6" fill="#F0A23B"></circle><circle cx="617.58" cy="219.97" r="2.6" fill="#F0A23B"></circle><circle cx="625.72" cy="238.65" r="2.6" fill="#F0A23B"></circle><circle cx="633.86" cy="232.47" r="2.6" fill="#F0A23B"></circle><circle cx="642" cy="220.62" r="2.6" fill="#F0A23B"></circle><polyline fill="none" stroke="#1F9CF0" stroke-width="2.4" stroke-linejoin="round" stroke-linecap="round" points="56,198.31 64.14,224.59 72.28,214.73 80.42,247.97 88.56,236.75 96.69,219.64 104.83,238.79 112.97,207.95 121.11,201.38 129.25,239.3 137.39,242.33 145.53,177.25 153.67,218.95 161.81,232.82 169.94,248.48 178.08,252.97 186.22,230.93 194.36,242.47 202.5,240.12 210.64,248.48 218.78,256.65 226.92,261.44 235.06,262.41 243.19,264.75 251.33,261.4 259.47,262.76 267.61,244.65 275.75,230.98 283.89,234.56 292.03,260.01 300.17,254.76 308.31,238.53 316.44,231.76 324.58,226.22 332.72,247.36 340.86,238.78 349,250.58 357.14,256.4 365.28,243.61 373.42,265.98 381.56,253.29 389.69,225.25 397.83,246.45 405.97,252.36 414.11,241.14 422.25,253.3 430.39,245.06 438.53,205.73 446.67,260.99 454.81,265.11 462.94,263.66 471.08,270.45 479.22,265.53 487.36,248.25 495.5,259.3 503.64,255.01 568.75,259.54 576.89,255.12 585.03,241.05 593.17,228.97 601.31,234.99 609.44,233 617.58,242.76 625.72,238.49 633.86,251.01 642,203.87"></polyline><circle cx="56" cy="198.31" r="2.6" fill="#1F9CF0"></circle><circle cx="64.14" cy="224.59" r="2.6" fill="#1F9CF0"></circle><circle cx="72.28" cy="214.73" r="2.6" fill="#1F9CF0"></circle><circle cx="80.42" cy="247.97" r="2.6" fill="#1F9CF0"></circle><circle cx="88.56" cy="236.75" r="2.6" fill="#1F9CF0"></circle><circle cx="96.69" cy="219.64" r="2.6" fill="#1F9CF0"></circle><circle cx="104.83" cy="238.79" r="2.6" fill="#1F9CF0"></circle><circle cx="112.97" cy="207.95" r="2.6" fill="#1F9CF0"></circle><circle cx="121.11" cy="201.38" r="2.6" fill="#1F9CF0"></circle><circle cx="129.25" cy="239.3" r="2.6" fill="#1F9CF0"></circle><circle cx="137.39" cy="242.33" r="2.6" fill="#1F9CF0"></circle><circle cx="145.53" cy="177.25" r="2.6" fill="#1F9CF0"></circle><circle cx="153.67" cy="218.95" r="2.6" fill="#1F9CF0"></circle><circle cx="161.81" cy="232.82" r="2.6" fill="#1F9CF0"></circle><circle cx="169.94" cy="248.48" r="2.6" fill="#1F9CF0"></circle><circle cx="178.08" cy="252.97" r="2.6" fill="#1F9CF0"></circle><circle cx="186.22" cy="230.93" r="2.6" fill="#1F9CF0"></circle><circle cx="194.36" cy="242.47" r="2.6" fill="#1F9CF0"></circle><circle cx="202.5" cy="240.12" r="2.6" fill="#1F9CF0"></circle><circle cx="210.64" cy="248.48" r="2.6" fill="#1F9CF0"></circle><circle cx="218.78" cy="256.65" r="2.6" fill="#1F9CF0"></circle><circle cx="226.92" cy="261.44" r="2.6" fill="#1F9CF0"></circle><circle cx="235.06" cy="262.41" r="2.6" fill="#1F9CF0"></circle><circle cx="243.19" cy="264.75" r="2.6" fill="#1F9CF0"></circle><circle cx="251.33" cy="261.4" r="2.6" fill="#1F9CF0"></circle><circle cx="259.47" cy="262.76" r="2.6" fill="#1F9CF0"></circle><circle cx="267.61" cy="244.65" r="2.6" fill="#1F9CF0"></circle><circle cx="275.75" cy="230.98" r="2.6" fill="#1F9CF0"></circle><circle cx="283.89" cy="234.56" r="2.6" fill="#1F9CF0"></circle><circle cx="292.03" cy="260.01" r="2.6" fill="#1F9CF0"></circle><circle cx="300.17" cy="254.76" r="2.6" fill="#1F9CF0"></circle><circle cx="308.31" cy="238.53" r="2.6" fill="#1F9CF0"></circle><circle cx="316.44" cy="231.76" r="2.6" fill="#1F9CF0"></circle><circle cx="324.58" cy="226.22" r="2.6" fill="#1F9CF0"></circle><circle cx="332.72" cy="247.36" r="2.6" fill="#1F9CF0"></circle><circle cx="340.86" cy="238.78" r="2.6" fill="#1F9CF0"></circle><circle cx="349" cy="250.58" r="2.6" fill="#1F9CF0"></circle><circle cx="357.14" cy="256.4" r="2.6" fill="#1F9CF0"></circle><circle cx="365.28" cy="243.61" r="2.6" fill="#1F9CF0"></circle><circle cx="373.42" cy="265.98" r="2.6" fill="#1F9CF0"></circle><circle cx="381.56" cy="253.29" r="2.6" fill="#1F9CF0"></circle><circle cx="389.69" cy="225.25" r="2.6" fill="#1F9CF0"></circle><circle cx="397.83" cy="246.45" r="2.6" fill="#1F9CF0"></circle><circle cx="405.97" cy="252.36" r="2.6" fill="#1F9CF0"></circle><circle cx="414.11" cy="241.14" r="2.6" fill="#1F9CF0"></circle><circle cx="422.25" cy="253.3" r="2.6" fill="#1F9CF0"></circle><circle cx="430.39" cy="245.06" r="2.6" fill="#1F9CF0"></circle><circle cx="438.53" cy="205.73" r="2.6" fill="#1F9CF0"></circle><circle cx="446.67" cy="260.99" r="2.6" fill="#1F9CF0"></circle><circle cx="454.81" cy="265.11" r="2.6" fill="#1F9CF0"></circle><circle cx="462.94" cy="263.66" r="2.6" fill="#1F9CF0"></circle><circle cx="471.08" cy="270.45" r="2.6" fill="#1F9CF0"></circle><circle cx="479.22" cy="265.53" r="2.6" fill="#1F9CF0"></circle><circle cx="487.36" cy="248.25" r="2.6" fill="#1F9CF0"></circle><circle cx="495.5" cy="259.3" r="2.6" fill="#1F9CF0"></circle><circle cx="503.64" cy="255.01" r="2.6" fill="#1F9CF0"></circle><circle cx="568.75" cy="259.54" r="2.6" fill="#1F9CF0"></circle><circle cx="576.89" cy="255.12" r="2.6" fill="#1F9CF0"></circle><circle cx="585.03" cy="241.05" r="2.6" fill="#1F9CF0"></circle><circle cx="593.17" cy="228.97" r="2.6" fill="#1F9CF0"></circle><circle cx="601.31" cy="234.99" r="2.6" fill="#1F9CF0"></circle><circle cx="609.44" cy="233" r="2.6" fill="#1F9CF0"></circle><circle cx="617.58" cy="242.76" r="2.6" fill="#1F9CF0"></circle><circle cx="625.72" cy="238.49" r="2.6" fill="#1F9CF0"></circle><circle cx="633.86" cy="251.01" r="2.6" fill="#1F9CF0"></circle><circle cx="642" cy="203.87" r="2.6" fill="#1F9CF0"></circle><line x1="656" y1="27" x2="672" y2="27" stroke="#E8835A" stroke-width="3" stroke-linecap="round"></line><text x="678" y="30" font-size="11" font-weight="400" text-anchor="start" fill="#e6edf3">anthropic</text><line x1="656" y1="47" x2="672" y2="47" stroke="#6366F1" stroke-width="3" stroke-linecap="round"></line><text x="678" y="50" font-size="11" font-weight="400" text-anchor="start" fill="#e6edf3">deepseek</text><line x1="656" y1="67" x2="672" y2="67" stroke="#2DA98C" stroke-width="3" stroke-linecap="round"></line><text x="678" y="70" font-size="11" font-weight="400" text-anchor="start" fill="#e6edf3">gemini</text><line x1="656" y1="87" x2="672" y2="87" stroke="#A371F7" stroke-width="3" stroke-linecap="round"></line><text x="678" y="90" font-size="11" font-weight="400" text-anchor="start" fill="#e6edf3">llama</text><line x1="656" y1="107" x2="672" y2="107" stroke="#F0A23B" stroke-width="3" stroke-linecap="round"></line><text x="678" y="110" font-size="11" font-weight="400" text-anchor="start" fill="#e6edf3">mistral</text><line x1="656" y1="127" x2="672" y2="127" stroke="#1F9CF0" stroke-width="3" stroke-linecap="round"></line><text x="678" y="130" font-size="11" font-weight="400" text-anchor="start" fill="#e6edf3">openai</text></svg>
