<svg xmlns="http://www.w3.org/2000/svg" viewBox="0 0 760 348" width="760" height="348" role="img" aria-label="Average LLM latency by provider over runs — llama highest, deepseek lowest" font-family="-apple-system,BlinkMacSystemFont,'Segoe UI',system-ui,sans-serif"><line x1="56" y1="306" x2="642" y2="306" stroke="#d8dee4" stroke-width="1"></line><text x="46" y="310" font-size="9.5" font-weight="400" text-anchor="end" fill="#656d76" font-family="ui-monospace,SFMono-Regular,Menlo,monospace">0.0s</text><line x1="56" y1="235" x2="642" y2="235" stroke="#d8dee4" stroke-width="1"></line><text x="46" y="239" font-size="9.5" font-weight="400" text-anchor="end" fill="#656d76" font-family="ui-monospace,SFMono-Regular,Menlo,monospace">82.5s</text><line x1="56" y1="164" x2="642" y2="164" stroke="#d8dee4" stroke-width="1"></line><text x="46" y="168" font-size="9.5" font-weight="400" text-anchor="end" fill="#656d76" font-family="ui-monospace,SFMono-Regular,Menlo,monospace">165.1s</text><line x1="56" y1="93" x2="642" y2="93" stroke="#d8dee4" stroke-width="1"></line><text x="46" y="97" font-size="9.5" font-weight="400" text-anchor="end" fill="#656d76" font-family="ui-monospace,SFMono-Regular,Menlo,monospace">247.6s</text><line x1="56" y1="22" x2="642" y2="22" stroke="#d8dee4" stroke-width="1"></line><text x="46" y="26" font-size="9.5" font-weight="400" text-anchor="end" fill="#656d76" font-family="ui-monospace,SFMono-Regular,Menlo,monospace">330.2s</text><text x="56" y="324" font-size="9.5" font-weight="400" text-anchor="middle" fill="#656d76" font-family="ui-monospace,SFMono-Regular,Menlo,monospace">06/08</text><text x="107.28" y="324" font-size="9.5" font-weight="400" text-anchor="middle" fill="#656d76" font-family="ui-monospace,SFMono-Regular,Menlo,monospace">06/09</text><text x="158.55" y="324" font-size="9.5" font-weight="400" text-anchor="middle" fill="#656d76" font-family="ui-monospace,SFMono-Regular,Menlo,monospace">06/10</text><text x="209.83" y="324" font-size="9.5" font-weight="400" text-anchor="middle" fill="#656d76" font-family="ui-monospace,SFMono-Regular,Menlo,monospace">06/14</text><text x="261.1" y="324" font-size="9.5" font-weight="400" text-anchor="middle" fill="#656d76" font-family="ui-monospace,SFMono-Regular,Menlo,monospace">06/15</text><text x="312.38" y="324" font-size="9.5" font-weight="400" text-anchor="middle" fill="#656d76" font-family="ui-monospace,SFMono-Regular,Menlo,monospace">06/16</text><text x="363.65" y="324" font-size="9.5" font-weight="400" text-anchor="middle" fill="#656d76" font-family="ui-monospace,SFMono-Regular,Menlo,monospace">06/18</text><text x="414.93" y="324" font-size="9.5" font-weight="400" text-anchor="middle" fill="#656d76" font-family="ui-monospace,SFMono-Regular,Menlo,monospace">06/20</text><text x="466.2" y="324" font-size="9.5" font-weight="400" text-anchor="middle" fill="#656d76" font-family="ui-monospace,SFMono-Regular,Menlo,monospace">06/21</text><text x="517.47" y="324" font-size="9.5" font-weight="400" text-anchor="middle" fill="#656d76" font-family="ui-monospace,SFMono-Regular,Menlo,monospace">06/23</text><text x="568.75" y="324" font-size="9.5" font-weight="400" text-anchor="middle" fill="#656d76" font-family="ui-monospace,SFMono-Regular,Menlo,monospace">06/24</text><text x="620.02" y="324" font-size="9.5" font-weight="400" text-anchor="middle" fill="#656d76" font-family="ui-monospace,SFMono-Regular,Menlo,monospace">06/25</text><text x="642" y="324" font-size="9.5" font-weight="400" text-anchor="middle" fill="#656d76" font-family="ui-monospace,SFMono-Regular,Menlo,monospace">06/26</text><polyline fill="none" stroke="#E8835A" stroke-width="2.4" stroke-linejoin="round" stroke-linecap="round" points="56,229.15 63.33,232.31 70.65,238.94 77.97,244 85.3,235.49 92.62,232.81 99.95,250.28 107.28,243.38 114.6,241.66 121.92,231.14 136.57,234.04 143.9,244.32 151.23,228.71 158.55,246.08 165.88,242.18 173.2,235.58 180.52,242.32 187.85,244.55 195.17,246.98 202.5,240.71 209.83,250.83 217.15,244.26 224.47,241.33 231.8,245.63 239.12,245.02 246.45,240.82 253.78,243.78 261.1,243.28 268.42,240.2 275.75,242.69 283.08,215.59 290.4,241.79 297.73,238.64 305.05,243.45 312.38,243.86 319.7,234.8 327.03,244.51 334.35,244.64"></polyline><circle cx="56" cy="229.15" r="2.6" fill="#E8835A"></circle><circle cx="63.33" cy="232.31" r="2.6" fill="#E8835A"></circle><circle cx="70.65" cy="238.94" r="2.6" fill="#E8835A"></circle><circle cx="77.97" cy="244" r="2.6" fill="#E8835A"></circle><circle cx="85.3" cy="235.49" r="2.6" fill="#E8835A"></circle><circle cx="92.62" cy="232.81" r="2.6" fill="#E8835A"></circle><circle cx="99.95" cy="250.28" r="2.6" fill="#E8835A"></circle><circle cx="107.28" cy="243.38" r="2.6" fill="#E8835A"></circle><circle cx="114.6" cy="241.66" r="2.6" fill="#E8835A"></circle><circle cx="121.92" cy="231.14" r="2.6" fill="#E8835A"></circle><circle cx="136.57" cy="234.04" r="2.6" fill="#E8835A"></circle><circle cx="143.9" cy="244.32" r="2.6" fill="#E8835A"></circle><circle cx="151.23" cy="228.71" r="2.6" fill="#E8835A"></circle><circle cx="158.55" cy="246.08" r="2.6" fill="#E8835A"></circle><circle cx="165.88" cy="242.18" r="2.6" fill="#E8835A"></circle><circle cx="173.2" cy="235.58" r="2.6" fill="#E8835A"></circle><circle cx="180.52" cy="242.32" r="2.6" fill="#E8835A"></circle><circle cx="187.85" cy="244.55" r="2.6" fill="#E8835A"></circle><circle cx="195.17" cy="246.98" r="2.6" fill="#E8835A"></circle><circle cx="202.5" cy="240.71" r="2.6" fill="#E8835A"></circle><circle cx="209.83" cy="250.83" r="2.6" fill="#E8835A"></circle><circle cx="217.15" cy="244.26" r="2.6" fill="#E8835A"></circle><circle cx="224.47" cy="241.33" r="2.6" fill="#E8835A"></circle><circle cx="231.8" cy="245.63" r="2.6" fill="#E8835A"></circle><circle cx="239.12" cy="245.02" r="2.6" fill="#E8835A"></circle><circle cx="246.45" cy="240.82" r="2.6" fill="#E8835A"></circle><circle cx="253.78" cy="243.78" r="2.6" fill="#E8835A"></circle><circle cx="261.1" cy="243.28" r="2.6" fill="#E8835A"></circle><circle cx="268.42" cy="240.2" r="2.6" fill="#E8835A"></circle><circle cx="275.75" cy="242.69" r="2.6" fill="#E8835A"></circle><circle cx="283.08" cy="215.59" r="2.6" fill="#E8835A"></circle><circle cx="290.4" cy="241.79" r="2.6" fill="#E8835A"></circle><circle cx="297.73" cy="238.64" r="2.6" fill="#E8835A"></circle><circle cx="305.05" cy="243.45" r="2.6" fill="#E8835A"></circle><circle cx="312.38" cy="243.86" r="2.6" fill="#E8835A"></circle><circle cx="319.7" cy="234.8" r="2.6" fill="#E8835A"></circle><circle cx="327.03" cy="244.51" r="2.6" fill="#E8835A"></circle><circle cx="334.35" cy="244.64" r="2.6" fill="#E8835A"></circle><polyline fill="none" stroke="#6366F1" stroke-width="2.4" stroke-linejoin="round" stroke-linecap="round" points="63.33,247.24 70.65,242.4 77.97,249.98 85.3,230.48 92.62,260.21 99.95,260.34 107.28,270.44 114.6,248.92 121.92,245.19 129.25,247.83 136.57,256.22 143.9,248.72 151.23,261.47 158.55,243.58 165.88,210.49 173.2,266.33 180.52,232.33 187.85,232.27 195.17,199.16 202.5,237.91 209.83,252.97 217.15,266.11 224.47,215.25 231.8,265.97 239.12,258.25 246.45,265.82 253.78,246.69 261.1,244.53 275.75,240.91 283.08,255.51 290.4,252.51 297.73,237.2 305.05,258.24 312.38,235.84 319.7,252.87 327.03,243.73 334.35,249.01 349,263.05 356.32,262.95 363.65,250.85 370.97,238.76 378.3,245.84 385.62,240.49 392.95,244.58 400.28,238.25 407.6,266.43 414.93,219.91 422.25,256.77 436.9,250.11 444.22,264.15 451.55,249.18 458.88,252.64 466.2,236.94 473.53,257.91 480.85,245.05 488.18,245.47 495.5,251.25 502.82,250.75 510.15,249.01 517.47,257.36 524.8,265.15 532.12,253.64 539.45,262.66 546.78,253.56 554.1,247.85 561.42,241.21 568.75,265.06 576.07,257.2 583.4,265.73 590.73,265.31 598.05,250.21 605.38,257.28 612.7,263.83 620.02,234.88 627.35,237.89 634.68,243.4 642,250.16"></polyline><circle cx="63.33" cy="247.24" r="2.6" fill="#6366F1"></circle><circle cx="70.65" cy="242.4" r="2.6" fill="#6366F1"></circle><circle cx="77.97" cy="249.98" r="2.6" fill="#6366F1"></circle><circle cx="85.3" cy="230.48" r="2.6" fill="#6366F1"></circle><circle cx="92.62" cy="260.21" r="2.6" fill="#6366F1"></circle><circle cx="99.95" cy="260.34" r="2.6" fill="#6366F1"></circle><circle cx="107.28" cy="270.44" r="2.6" fill="#6366F1"></circle><circle cx="114.6" cy="248.92" r="2.6" fill="#6366F1"></circle><circle cx="121.92" cy="245.19" r="2.6" fill="#6366F1"></circle><circle cx="129.25" cy="247.83" r="2.6" fill="#6366F1"></circle><circle cx="136.57" cy="256.22" r="2.6" fill="#6366F1"></circle><circle cx="143.9" cy="248.72" r="2.6" fill="#6366F1"></circle><circle cx="151.23" cy="261.47" r="2.6" fill="#6366F1"></circle><circle cx="158.55" cy="243.58" r="2.6" fill="#6366F1"></circle><circle cx="165.88" cy="210.49" r="2.6" fill="#6366F1"></circle><circle cx="173.2" cy="266.33" r="2.6" fill="#6366F1"></circle><circle cx="180.52" cy="232.33" r="2.6" fill="#6366F1"></circle><circle cx="187.85" cy="232.27" r="2.6" fill="#6366F1"></circle><circle cx="195.17" cy="199.16" r="2.6" fill="#6366F1"></circle><circle cx="202.5" cy="237.91" r="2.6" fill="#6366F1"></circle><circle cx="209.83" cy="252.97" r="2.6" fill="#6366F1"></circle><circle cx="217.15" cy="266.11" r="2.6" fill="#6366F1"></circle><circle cx="224.47" cy="215.25" r="2.6" fill="#6366F1"></circle><circle cx="231.8" cy="265.97" r="2.6" fill="#6366F1"></circle><circle cx="239.12" cy="258.25" r="2.6" fill="#6366F1"></circle><circle cx="246.45" cy="265.82" r="2.6" fill="#6366F1"></circle><circle cx="253.78" cy="246.69" r="2.6" fill="#6366F1"></circle><circle cx="261.1" cy="244.53" r="2.6" fill="#6366F1"></circle><circle cx="275.75" cy="240.91" r="2.6" fill="#6366F1"></circle><circle cx="283.08" cy="255.51" r="2.6" fill="#6366F1"></circle><circle cx="290.4" cy="252.51" r="2.6" fill="#6366F1"></circle><circle cx="297.73" cy="237.2" r="2.6" fill="#6366F1"></circle><circle cx="305.05" cy="258.24" r="2.6" fill="#6366F1"></circle><circle cx="312.38" cy="235.84" r="2.6" fill="#6366F1"></circle><circle cx="319.7" cy="252.87" r="2.6" fill="#6366F1"></circle><circle cx="327.03" cy="243.73" r="2.6" fill="#6366F1"></circle><circle cx="334.35" cy="249.01" r="2.6" fill="#6366F1"></circle><circle cx="349" cy="263.05" r="2.6" fill="#6366F1"></circle><circle cx="356.32" cy="262.95" r="2.6" fill="#6366F1"></circle><circle cx="363.65" cy="250.85" r="2.6" fill="#6366F1"></circle><circle cx="370.97" cy="238.76" r="2.6" fill="#6366F1"></circle><circle cx="378.3" cy="245.84" r="2.6" fill="#6366F1"></circle><circle cx="385.62" cy="240.49" r="2.6" fill="#6366F1"></circle><circle cx="392.95" cy="244.58" r="2.6" fill="#6366F1"></circle><circle cx="400.28" cy="238.25" r="2.6" fill="#6366F1"></circle><circle cx="407.6" cy="266.43" r="2.6" fill="#6366F1"></circle><circle cx="414.93" cy="219.91" r="2.6" fill="#6366F1"></circle><circle cx="422.25" cy="256.77" r="2.6" fill="#6366F1"></circle><circle cx="436.9" cy="250.11" r="2.6" fill="#6366F1"></circle><circle cx="444.22" cy="264.15" r="2.6" fill="#6366F1"></circle><circle cx="451.55" cy="249.18" r="2.6" fill="#6366F1"></circle><circle cx="458.88" cy="252.64" r="2.6" fill="#6366F1"></circle><circle cx="466.2" cy="236.94" r="2.6" fill="#6366F1"></circle><circle cx="473.53" cy="257.91" r="2.6" fill="#6366F1"></circle><circle cx="480.85" cy="245.05" r="2.6" fill="#6366F1"></circle><circle cx="488.18" cy="245.47" r="2.6" fill="#6366F1"></circle><circle cx="495.5" cy="251.25" r="2.6" fill="#6366F1"></circle><circle cx="502.82" cy="250.75" r="2.6" fill="#6366F1"></circle><circle cx="510.15" cy="249.01" r="2.6" fill="#6366F1"></circle><circle cx="517.47" cy="257.36" r="2.6" fill="#6366F1"></circle><circle cx="524.8" cy="265.15" r="2.6" fill="#6366F1"></circle><circle cx="532.12" cy="253.64" r="2.6" fill="#6366F1"></circle><circle cx="539.45" cy="262.66" r="2.6" fill="#6366F1"></circle><circle cx="546.78" cy="253.56" r="2.6" fill="#6366F1"></circle><circle cx="554.1" cy="247.85" r="2.6" fill="#6366F1"></circle><circle cx="561.42" cy="241.21" r="2.6" fill="#6366F1"></circle><circle cx="568.75" cy="265.06" r="2.6" fill="#6366F1"></circle><circle cx="576.07" cy="257.2" r="2.6" fill="#6366F1"></circle><circle cx="583.4" cy="265.73" r="2.6" fill="#6366F1"></circle><circle cx="590.73" cy="265.31" r="2.6" fill="#6366F1"></circle><circle cx="598.05" cy="250.21" r="2.6" fill="#6366F1"></circle><circle cx="605.38" cy="257.28" r="2.6" fill="#6366F1"></circle><circle cx="612.7" cy="263.83" r="2.6" fill="#6366F1"></circle><circle cx="620.02" cy="234.88" r="2.6" fill="#6366F1"></circle><circle cx="627.35" cy="237.89" r="2.6" fill="#6366F1"></circle><circle cx="634.68" cy="243.4" r="2.6" fill="#6366F1"></circle><circle cx="642" cy="250.16" r="2.6" fill="#6366F1"></circle><polyline fill="none" stroke="#2DA98C" stroke-width="2.4" stroke-linejoin="round" stroke-linecap="round" points="56,205.26 63.33,215.39 70.65,174.15 77.97,217.56 85.3,218.68 92.62,227.57 99.95,203.76 107.28,192.14 114.6,215.35 121.92,194.78 129.25,194.92 136.57,141.5 143.9,148.87 151.23,194.84 158.55,180.85 165.88,202.09 173.2,169.08 180.52,211.29 187.85,193.77 195.17,192.04 202.5,206.61 275.75,221.15 283.08,190.23 290.4,183.33 297.73,225.15 305.05,184.37 312.38,182.1 319.7,210.86 327.03,161.53 334.35,210.56 349,182.01 356.32,172.32 363.65,181.93 370.97,186.76 378.3,217.59 385.62,171.76 392.95,211.13 400.28,171.55 407.6,181.17 414.93,189.96 422.25,191.02 436.9,212.98 444.22,170.09 451.55,127.97 458.88,222.7 466.2,200.4 473.53,155.75 480.85,184.88 488.18,176.48 495.5,167.89 502.82,205.24 510.15,167.24 517.47,154.57 524.8,196.61 532.12,154.13 539.45,196.6 546.78,203.92 554.1,125.1 561.42,151.41 568.75,176.39 576.07,198.69"></polyline><circle cx="56" cy="205.26" r="2.6" fill="#2DA98C"></circle><circle cx="63.33" cy="215.39" r="2.6" fill="#2DA98C"></circle><circle cx="70.65" cy="174.15" r="2.6" fill="#2DA98C"></circle><circle cx="77.97" cy="217.56" r="2.6" fill="#2DA98C"></circle><circle cx="85.3" cy="218.68" r="2.6" fill="#2DA98C"></circle><circle cx="92.62" cy="227.57" r="2.6" fill="#2DA98C"></circle><circle cx="99.95" cy="203.76" r="2.6" fill="#2DA98C"></circle><circle cx="107.28" cy="192.14" r="2.6" fill="#2DA98C"></circle><circle cx="114.6" cy="215.35" r="2.6" fill="#2DA98C"></circle><circle cx="121.92" cy="194.78" r="2.6" fill="#2DA98C"></circle><circle cx="129.25" cy="194.92" r="2.6" fill="#2DA98C"></circle><circle cx="136.57" cy="141.5" r="2.6" fill="#2DA98C"></circle><circle cx="143.9" cy="148.87" r="2.6" fill="#2DA98C"></circle><circle cx="151.23" cy="194.84" r="2.6" fill="#2DA98C"></circle><circle cx="158.55" cy="180.85" r="2.6" fill="#2DA98C"></circle><circle cx="165.88" cy="202.09" r="2.6" fill="#2DA98C"></circle><circle cx="173.2" cy="169.08" r="2.6" fill="#2DA98C"></circle><circle cx="180.52" cy="211.29" r="2.6" fill="#2DA98C"></circle><circle cx="187.85" cy="193.77" r="2.6" fill="#2DA98C"></circle><circle cx="195.17" cy="192.04" r="2.6" fill="#2DA98C"></circle><circle cx="202.5" cy="206.61" r="2.6" fill="#2DA98C"></circle><circle cx="275.75" cy="221.15" r="2.6" fill="#2DA98C"></circle><circle cx="283.08" cy="190.23" r="2.6" fill="#2DA98C"></circle><circle cx="290.4" cy="183.33" r="2.6" fill="#2DA98C"></circle><circle cx="297.73" cy="225.15" r="2.6" fill="#2DA98C"></circle><circle cx="305.05" cy="184.37" r="2.6" fill="#2DA98C"></circle><circle cx="312.38" cy="182.1" r="2.6" fill="#2DA98C"></circle><circle cx="319.7" cy="210.86" r="2.6" fill="#2DA98C"></circle><circle cx="327.03" cy="161.53" r="2.6" fill="#2DA98C"></circle><circle cx="334.35" cy="210.56" r="2.6" fill="#2DA98C"></circle><circle cx="349" cy="182.01" r="2.6" fill="#2DA98C"></circle><circle cx="356.32" cy="172.32" r="2.6" fill="#2DA98C"></circle><circle cx="363.65" cy="181.93" r="2.6" fill="#2DA98C"></circle><circle cx="370.97" cy="186.76" r="2.6" fill="#2DA98C"></circle><circle cx="378.3" cy="217.59" r="2.6" fill="#2DA98C"></circle><circle cx="385.62" cy="171.76" r="2.6" fill="#2DA98C"></circle><circle cx="392.95" cy="211.13" r="2.6" fill="#2DA98C"></circle><circle cx="400.28" cy="171.55" r="2.6" fill="#2DA98C"></circle><circle cx="407.6" cy="181.17" r="2.6" fill="#2DA98C"></circle><circle cx="414.93" cy="189.96" r="2.6" fill="#2DA98C"></circle><circle cx="422.25" cy="191.02" r="2.6" fill="#2DA98C"></circle><circle cx="436.9" cy="212.98" r="2.6" fill="#2DA98C"></circle><circle cx="444.22" cy="170.09" r="2.6" fill="#2DA98C"></circle><circle cx="451.55" cy="127.97" r="2.6" fill="#2DA98C"></circle><circle cx="458.88" cy="222.7" r="2.6" fill="#2DA98C"></circle><circle cx="466.2" cy="200.4" r="2.6" fill="#2DA98C"></circle><circle cx="473.53" cy="155.75" r="2.6" fill="#2DA98C"></circle><circle cx="480.85" cy="184.88" r="2.6" fill="#2DA98C"></circle><circle cx="488.18" cy="176.48" r="2.6" fill="#2DA98C"></circle><circle cx="495.5" cy="167.89" r="2.6" fill="#2DA98C"></circle><circle cx="502.82" cy="205.24" r="2.6" fill="#2DA98C"></circle><circle cx="510.15" cy="167.24" r="2.6" fill="#2DA98C"></circle><circle cx="517.47" cy="154.57" r="2.6" fill="#2DA98C"></circle><circle cx="524.8" cy="196.61" r="2.6" fill="#2DA98C"></circle><circle cx="532.12" cy="154.13" r="2.6" fill="#2DA98C"></circle><circle cx="539.45" cy="196.6" r="2.6" fill="#2DA98C"></circle><circle cx="546.78" cy="203.92" r="2.6" fill="#2DA98C"></circle><circle cx="554.1" cy="125.1" r="2.6" fill="#2DA98C"></circle><circle cx="561.42" cy="151.41" r="2.6" fill="#2DA98C"></circle><circle cx="568.75" cy="176.39" r="2.6" fill="#2DA98C"></circle><circle cx="576.07" cy="198.69" r="2.6" fill="#2DA98C"></circle><polyline fill="none" stroke="#A371F7" stroke-width="2.4" stroke-linejoin="round" stroke-linecap="round" points="56,127.86 63.33,149.85 70.65,181.76 77.97,139.24 85.3,107.36 92.62,219.97 99.95,116.3 107.28,182.89 114.6,193.78 121.92,197.11 129.25,105.85 136.57,146.07 143.9,181.42 151.23,202.88 158.55,134.79 165.88,219.07 173.2,58.83 180.52,197.05 187.85,167.66 195.17,75.26 202.5,128.5 209.83,152.23 217.15,166.9 224.47,183.57 231.8,162.79 239.12,148.18 246.45,52.43 253.78,96.59 261.1,191.76 275.75,151.86 283.08,169.19 290.4,135.22 305.05,206.77 312.38,167.88 319.7,189.32 327.03,143.76 334.35,142.49 341.68,163.7 349,128.52 356.32,144.9 363.65,92.3 370.97,157.36 378.3,160.21 385.62,176.32 392.95,116.21 400.28,165.98 407.6,136.47 422.25,155.12 436.9,134.62 451.55,114.6 458.88,127.72 466.2,219.84 473.53,170.06 480.85,154.88 488.18,189.66 495.5,162.21 502.82,183.03 510.15,165.52 517.47,176.75 524.8,155.74 539.45,148.44 546.78,196.35 554.1,143.94 561.42,112.27 568.75,149.32 576.07,161.5 583.4,199.8 590.73,197.27 598.05,116.93 605.38,119.32 612.7,194.29 620.02,111.88 627.35,156.63 642,203.96"></polyline><circle cx="56" cy="127.86" r="2.6" fill="#A371F7"></circle><circle cx="63.33" cy="149.85" r="2.6" fill="#A371F7"></circle><circle cx="70.65" cy="181.76" r="2.6" fill="#A371F7"></circle><circle cx="77.97" cy="139.24" r="2.6" fill="#A371F7"></circle><circle cx="85.3" cy="107.36" r="2.6" fill="#A371F7"></circle><circle cx="92.62" cy="219.97" r="2.6" fill="#A371F7"></circle><circle cx="99.95" cy="116.3" r="2.6" fill="#A371F7"></circle><circle cx="107.28" cy="182.89" r="2.6" fill="#A371F7"></circle><circle cx="114.6" cy="193.78" r="2.6" fill="#A371F7"></circle><circle cx="121.92" cy="197.11" r="2.6" fill="#A371F7"></circle><circle cx="129.25" cy="105.85" r="2.6" fill="#A371F7"></circle><circle cx="136.57" cy="146.07" r="2.6" fill="#A371F7"></circle><circle cx="143.9" cy="181.42" r="2.6" fill="#A371F7"></circle><circle cx="151.23" cy="202.88" r="2.6" fill="#A371F7"></circle><circle cx="158.55" cy="134.79" r="2.6" fill="#A371F7"></circle><circle cx="165.88" cy="219.07" r="2.6" fill="#A371F7"></circle><circle cx="173.2" cy="58.83" r="2.6" fill="#A371F7"></circle><circle cx="180.52" cy="197.05" r="2.6" fill="#A371F7"></circle><circle cx="187.85" cy="167.66" r="2.6" fill="#A371F7"></circle><circle cx="195.17" cy="75.26" r="2.6" fill="#A371F7"></circle><circle cx="202.5" cy="128.5" r="2.6" fill="#A371F7"></circle><circle cx="209.83" cy="152.23" r="2.6" fill="#A371F7"></circle><circle cx="217.15" cy="166.9" r="2.6" fill="#A371F7"></circle><circle cx="224.47" cy="183.57" r="2.6" fill="#A371F7"></circle><circle cx="231.8" cy="162.79" r="2.6" fill="#A371F7"></circle><circle cx="239.12" cy="148.18" r="2.6" fill="#A371F7"></circle><circle cx="246.45" cy="52.43" r="2.6" fill="#A371F7"></circle><circle cx="253.78" cy="96.59" r="2.6" fill="#A371F7"></circle><circle cx="261.1" cy="191.76" r="2.6" fill="#A371F7"></circle><circle cx="275.75" cy="151.86" r="2.6" fill="#A371F7"></circle><circle cx="283.08" cy="169.19" r="2.6" fill="#A371F7"></circle><circle cx="290.4" cy="135.22" r="2.6" fill="#A371F7"></circle><circle cx="305.05" cy="206.77" r="2.6" fill="#A371F7"></circle><circle cx="312.38" cy="167.88" r="2.6" fill="#A371F7"></circle><circle cx="319.7" cy="189.32" r="2.6" fill="#A371F7"></circle><circle cx="327.03" cy="143.76" r="2.6" fill="#A371F7"></circle><circle cx="334.35" cy="142.49" r="2.6" fill="#A371F7"></circle><circle cx="341.68" cy="163.7" r="2.6" fill="#A371F7"></circle><circle cx="349" cy="128.52" r="2.6" fill="#A371F7"></circle><circle cx="356.32" cy="144.9" r="2.6" fill="#A371F7"></circle><circle cx="363.65" cy="92.3" r="2.6" fill="#A371F7"></circle><circle cx="370.97" cy="157.36" r="2.6" fill="#A371F7"></circle><circle cx="378.3" cy="160.21" r="2.6" fill="#A371F7"></circle><circle cx="385.62" cy="176.32" r="2.6" fill="#A371F7"></circle><circle cx="392.95" cy="116.21" r="2.6" fill="#A371F7"></circle><circle cx="400.28" cy="165.98" r="2.6" fill="#A371F7"></circle><circle cx="407.6" cy="136.47" r="2.6" fill="#A371F7"></circle><circle cx="422.25" cy="155.12" r="2.6" fill="#A371F7"></circle><circle cx="436.9" cy="134.62" r="2.6" fill="#A371F7"></circle><circle cx="451.55" cy="114.6" r="2.6" fill="#A371F7"></circle><circle cx="458.88" cy="127.72" r="2.6" fill="#A371F7"></circle><circle cx="466.2" cy="219.84" r="2.6" fill="#A371F7"></circle><circle cx="473.53" cy="170.06" r="2.6" fill="#A371F7"></circle><circle cx="480.85" cy="154.88" r="2.6" fill="#A371F7"></circle><circle cx="488.18" cy="189.66" r="2.6" fill="#A371F7"></circle><circle cx="495.5" cy="162.21" r="2.6" fill="#A371F7"></circle><circle cx="502.82" cy="183.03" r="2.6" fill="#A371F7"></circle><circle cx="510.15" cy="165.52" r="2.6" fill="#A371F7"></circle><circle cx="517.47" cy="176.75" r="2.6" fill="#A371F7"></circle><circle cx="524.8" cy="155.74" r="2.6" fill="#A371F7"></circle><circle cx="539.45" cy="148.44" r="2.6" fill="#A371F7"></circle><circle cx="546.78" cy="196.35" r="2.6" fill="#A371F7"></circle><circle cx="554.1" cy="143.94" r="2.6" fill="#A371F7"></circle><circle cx="561.42" cy="112.27" r="2.6" fill="#A371F7"></circle><circle cx="568.75" cy="149.32" r="2.6" fill="#A371F7"></circle><circle cx="576.07" cy="161.5" r="2.6" fill="#A371F7"></circle><circle cx="583.4" cy="199.8" r="2.6" fill="#A371F7"></circle><circle cx="590.73" cy="197.27" r="2.6" fill="#A371F7"></circle><circle cx="598.05" cy="116.93" r="2.6" fill="#A371F7"></circle><circle cx="605.38" cy="119.32" r="2.6" fill="#A371F7"></circle><circle cx="612.7" cy="194.29" r="2.6" fill="#A371F7"></circle><circle cx="620.02" cy="111.88" r="2.6" fill="#A371F7"></circle><circle cx="627.35" cy="156.63" r="2.6" fill="#A371F7"></circle><circle cx="642" cy="203.96" r="2.6" fill="#A371F7"></circle><polyline fill="none" stroke="#F0A23B" stroke-width="2.4" stroke-linejoin="round" stroke-linecap="round" points="56,170.6 63.33,150.62 70.65,187.27 77.97,153.33 85.3,137.4 92.62,187.39 99.95,202.98 107.28,219.57 114.6,187.3 121.92,163.64 129.25,218.54 136.57,247.9 143.9,222.75 151.23,249.71 158.55,224.7 165.88,243.69 173.2,245.81 180.52,211.84 187.85,236.21 195.17,257.78 202.5,248.63 209.83,234.2 217.15,247.57 224.47,243.66 231.8,258.59 239.12,253.94 246.45,235.44 253.78,209.7 261.1,229.87 268.42,229.74 275.75,242.74 283.08,219.28 290.4,218.69 297.73,248.17 305.05,252.02 312.38,241.64 319.7,202.83 327.03,191.16 334.35,236.21 341.68,247.47 349,237.91 356.32,227.46 363.65,241.35 370.97,249.73 378.3,234.66 385.62,250 392.95,253.94 400.28,252.42 407.6,245.42 414.93,237.98 422.25,238.85 436.9,257.8 444.22,233.33 451.55,238.96 458.88,252.16 466.2,246.34 473.53,221.3 480.85,228.03 488.18,249.57 495.5,236.95 502.82,243.86 510.15,246.88 517.47,238.45 524.8,247.92 539.45,235.92 546.78,214.9 554.1,201.77 561.42,219.97 568.75,238.65 576.07,232.47 583.4,220.62 590.73,227.53 598.05,228.6 605.38,243.21 612.7,241.59 620.02,193.22 627.35,249 642,229.2"></polyline><circle cx="56" cy="170.6" r="2.6" fill="#F0A23B"></circle><circle cx="63.33" cy="150.62" r="2.6" fill="#F0A23B"></circle><circle cx="70.65" cy="187.27" r="2.6" fill="#F0A23B"></circle><circle cx="77.97" cy="153.33" r="2.6" fill="#F0A23B"></circle><circle cx="85.3" cy="137.4" r="2.6" fill="#F0A23B"></circle><circle cx="92.62" cy="187.39" r="2.6" fill="#F0A23B"></circle><circle cx="99.95" cy="202.98" r="2.6" fill="#F0A23B"></circle><circle cx="107.28" cy="219.57" r="2.6" fill="#F0A23B"></circle><circle cx="114.6" cy="187.3" r="2.6" fill="#F0A23B"></circle><circle cx="121.92" cy="163.64" r="2.6" fill="#F0A23B"></circle><circle cx="129.25" cy="218.54" r="2.6" fill="#F0A23B"></circle><circle cx="136.57" cy="247.9" r="2.6" fill="#F0A23B"></circle><circle cx="143.9" cy="222.75" r="2.6" fill="#F0A23B"></circle><circle cx="151.23" cy="249.71" r="2.6" fill="#F0A23B"></circle><circle cx="158.55" cy="224.7" r="2.6" fill="#F0A23B"></circle><circle cx="165.88" cy="243.69" r="2.6" fill="#F0A23B"></circle><circle cx="173.2" cy="245.81" r="2.6" fill="#F0A23B"></circle><circle cx="180.52" cy="211.84" r="2.6" fill="#F0A23B"></circle><circle cx="187.85" cy="236.21" r="2.6" fill="#F0A23B"></circle><circle cx="195.17" cy="257.78" r="2.6" fill="#F0A23B"></circle><circle cx="202.5" cy="248.63" r="2.6" fill="#F0A23B"></circle><circle cx="209.83" cy="234.2" r="2.6" fill="#F0A23B"></circle><circle cx="217.15" cy="247.57" r="2.6" fill="#F0A23B"></circle><circle cx="224.47" cy="243.66" r="2.6" fill="#F0A23B"></circle><circle cx="231.8" cy="258.59" r="2.6" fill="#F0A23B"></circle><circle cx="239.12" cy="253.94" r="2.6" fill="#F0A23B"></circle><circle cx="246.45" cy="235.44" r="2.6" fill="#F0A23B"></circle><circle cx="253.78" cy="209.7" r="2.6" fill="#F0A23B"></circle><circle cx="261.1" cy="229.87" r="2.6" fill="#F0A23B"></circle><circle cx="268.42" cy="229.74" r="2.6" fill="#F0A23B"></circle><circle cx="275.75" cy="242.74" r="2.6" fill="#F0A23B"></circle><circle cx="283.08" cy="219.28" r="2.6" fill="#F0A23B"></circle><circle cx="290.4" cy="218.69" r="2.6" fill="#F0A23B"></circle><circle cx="297.73" cy="248.17" r="2.6" fill="#F0A23B"></circle><circle cx="305.05" cy="252.02" r="2.6" fill="#F0A23B"></circle><circle cx="312.38" cy="241.64" r="2.6" fill="#F0A23B"></circle><circle cx="319.7" cy="202.83" r="2.6" fill="#F0A23B"></circle><circle cx="327.03" cy="191.16" r="2.6" fill="#F0A23B"></circle><circle cx="334.35" cy="236.21" r="2.6" fill="#F0A23B"></circle><circle cx="341.68" cy="247.47" r="2.6" fill="#F0A23B"></circle><circle cx="349" cy="237.91" r="2.6" fill="#F0A23B"></circle><circle cx="356.32" cy="227.46" r="2.6" fill="#F0A23B"></circle><circle cx="363.65" cy="241.35" r="2.6" fill="#F0A23B"></circle><circle cx="370.97" cy="249.73" r="2.6" fill="#F0A23B"></circle><circle cx="378.3" cy="234.66" r="2.6" fill="#F0A23B"></circle><circle cx="385.62" cy="250" r="2.6" fill="#F0A23B"></circle><circle cx="392.95" cy="253.94" r="2.6" fill="#F0A23B"></circle><circle cx="400.28" cy="252.42" r="2.6" fill="#F0A23B"></circle><circle cx="407.6" cy="245.42" r="2.6" fill="#F0A23B"></circle><circle cx="414.93" cy="237.98" r="2.6" fill="#F0A23B"></circle><circle cx="422.25" cy="238.85" r="2.6" fill="#F0A23B"></circle><circle cx="436.9" cy="257.8" r="2.6" fill="#F0A23B"></circle><circle cx="444.22" cy="233.33" r="2.6" fill="#F0A23B"></circle><circle cx="451.55" cy="238.96" r="2.6" fill="#F0A23B"></circle><circle cx="458.88" cy="252.16" r="2.6" fill="#F0A23B"></circle><circle cx="466.2" cy="246.34" r="2.6" fill="#F0A23B"></circle><circle cx="473.53" cy="221.3" r="2.6" fill="#F0A23B"></circle><circle cx="480.85" cy="228.03" r="2.6" fill="#F0A23B"></circle><circle cx="488.18" cy="249.57" r="2.6" fill="#F0A23B"></circle><circle cx="495.5" cy="236.95" r="2.6" fill="#F0A23B"></circle><circle cx="502.82" cy="243.86" r="2.6" fill="#F0A23B"></circle><circle cx="510.15" cy="246.88" r="2.6" fill="#F0A23B"></circle><circle cx="517.47" cy="238.45" r="2.6" fill="#F0A23B"></circle><circle cx="524.8" cy="247.92" r="2.6" fill="#F0A23B"></circle><circle cx="539.45" cy="235.92" r="2.6" fill="#F0A23B"></circle><circle cx="546.78" cy="214.9" r="2.6" fill="#F0A23B"></circle><circle cx="554.1" cy="201.77" r="2.6" fill="#F0A23B"></circle><circle cx="561.42" cy="219.97" r="2.6" fill="#F0A23B"></circle><circle cx="568.75" cy="238.65" r="2.6" fill="#F0A23B"></circle><circle cx="576.07" cy="232.47" r="2.6" fill="#F0A23B"></circle><circle cx="583.4" cy="220.62" r="2.6" fill="#F0A23B"></circle><circle cx="590.73" cy="227.53" r="2.6" fill="#F0A23B"></circle><circle cx="598.05" cy="228.6" r="2.6" fill="#F0A23B"></circle><circle cx="605.38" cy="243.21" r="2.6" fill="#F0A23B"></circle><circle cx="612.7" cy="241.59" r="2.6" fill="#F0A23B"></circle><circle cx="620.02" cy="193.22" r="2.6" fill="#F0A23B"></circle><circle cx="627.35" cy="249" r="2.6" fill="#F0A23B"></circle><circle cx="642" cy="229.2" r="2.6" fill="#F0A23B"></circle><polyline fill="none" stroke="#1F9CF0" stroke-width="2.4" stroke-linejoin="round" stroke-linecap="round" points="56,198.31 63.33,224.59 70.65,214.73 77.97,247.97 85.3,236.75 92.62,219.64 99.95,238.79 107.28,207.95 114.6,201.38 121.92,239.3 129.25,242.33 136.57,177.25 143.9,218.95 151.23,232.82 158.55,248.48 165.88,252.97 173.2,230.93 180.52,242.47 187.85,240.12 195.17,248.48 202.5,256.65 209.83,261.44 217.15,262.41 224.47,264.75 231.8,261.4 239.12,262.76 246.45,244.65 253.78,230.98 261.1,234.56 268.42,260.01 275.75,254.76 283.08,238.53 290.4,231.76 297.73,226.22 305.05,247.36 312.38,238.78 319.7,250.58 327.03,256.4 334.35,243.61 341.68,265.98 349,253.29 356.32,225.25 363.65,246.45 370.97,252.36 378.3,241.14 385.62,253.3 392.95,245.06 400.28,205.73 407.6,260.99 414.93,265.11 422.25,263.66 429.57,270.45 436.9,265.53 444.22,248.25 451.55,259.3 458.88,255.01 517.47,259.54 524.8,255.12 532.12,241.05 539.45,228.97 546.78,234.99 554.1,233 561.42,242.76 568.75,238.49 576.07,251.01 583.4,203.87 590.73,219.17 598.05,100.57 605.38,239.75 612.7,232.97 620.02,241.63 627.35,251.46 634.68,254.09 642,215.86"></polyline><circle cx="56" cy="198.31" r="2.6" fill="#1F9CF0"></circle><circle cx="63.33" cy="224.59" r="2.6" fill="#1F9CF0"></circle><circle cx="70.65" cy="214.73" r="2.6" fill="#1F9CF0"></circle><circle cx="77.97" cy="247.97" r="2.6" fill="#1F9CF0"></circle><circle cx="85.3" cy="236.75" r="2.6" fill="#1F9CF0"></circle><circle cx="92.62" cy="219.64" r="2.6" fill="#1F9CF0"></circle><circle cx="99.95" cy="238.79" r="2.6" fill="#1F9CF0"></circle><circle cx="107.28" cy="207.95" r="2.6" fill="#1F9CF0"></circle><circle cx="114.6" cy="201.38" r="2.6" fill="#1F9CF0"></circle><circle cx="121.92" cy="239.3" r="2.6" fill="#1F9CF0"></circle><circle cx="129.25" cy="242.33" r="2.6" fill="#1F9CF0"></circle><circle cx="136.57" cy="177.25" r="2.6" fill="#1F9CF0"></circle><circle cx="143.9" cy="218.95" r="2.6" fill="#1F9CF0"></circle><circle cx="151.23" cy="232.82" r="2.6" fill="#1F9CF0"></circle><circle cx="158.55" cy="248.48" r="2.6" fill="#1F9CF0"></circle><circle cx="165.88" cy="252.97" r="2.6" fill="#1F9CF0"></circle><circle cx="173.2" cy="230.93" r="2.6" fill="#1F9CF0"></circle><circle cx="180.52" cy="242.47" r="2.6" fill="#1F9CF0"></circle><circle cx="187.85" cy="240.12" r="2.6" fill="#1F9CF0"></circle><circle cx="195.17" cy="248.48" r="2.6" fill="#1F9CF0"></circle><circle cx="202.5" cy="256.65" r="2.6" fill="#1F9CF0"></circle><circle cx="209.83" cy="261.44" r="2.6" fill="#1F9CF0"></circle><circle cx="217.15" cy="262.41" r="2.6" fill="#1F9CF0"></circle><circle cx="224.47" cy="264.75" r="2.6" fill="#1F9CF0"></circle><circle cx="231.8" cy="261.4" r="2.6" fill="#1F9CF0"></circle><circle cx="239.12" cy="262.76" r="2.6" fill="#1F9CF0"></circle><circle cx="246.45" cy="244.65" r="2.6" fill="#1F9CF0"></circle><circle cx="253.78" cy="230.98" r="2.6" fill="#1F9CF0"></circle><circle cx="261.1" cy="234.56" r="2.6" fill="#1F9CF0"></circle><circle cx="268.42" cy="260.01" r="2.6" fill="#1F9CF0"></circle><circle cx="275.75" cy="254.76" r="2.6" fill="#1F9CF0"></circle><circle cx="283.08" cy="238.53" r="2.6" fill="#1F9CF0"></circle><circle cx="290.4" cy="231.76" r="2.6" fill="#1F9CF0"></circle><circle cx="297.73" cy="226.22" r="2.6" fill="#1F9CF0"></circle><circle cx="305.05" cy="247.36" r="2.6" fill="#1F9CF0"></circle><circle cx="312.38" cy="238.78" r="2.6" fill="#1F9CF0"></circle><circle cx="319.7" cy="250.58" r="2.6" fill="#1F9CF0"></circle><circle cx="327.03" cy="256.4" r="2.6" fill="#1F9CF0"></circle><circle cx="334.35" cy="243.61" r="2.6" fill="#1F9CF0"></circle><circle cx="341.68" cy="265.98" r="2.6" fill="#1F9CF0"></circle><circle cx="349" cy="253.29" r="2.6" fill="#1F9CF0"></circle><circle cx="356.32" cy="225.25" r="2.6" fill="#1F9CF0"></circle><circle cx="363.65" cy="246.45" r="2.6" fill="#1F9CF0"></circle><circle cx="370.97" cy="252.36" r="2.6" fill="#1F9CF0"></circle><circle cx="378.3" cy="241.14" r="2.6" fill="#1F9CF0"></circle><circle cx="385.62" cy="253.3" r="2.6" fill="#1F9CF0"></circle><circle cx="392.95" cy="245.06" r="2.6" fill="#1F9CF0"></circle><circle cx="400.28" cy="205.73" r="2.6" fill="#1F9CF0"></circle><circle cx="407.6" cy="260.99" r="2.6" fill="#1F9CF0"></circle><circle cx="414.93" cy="265.11" r="2.6" fill="#1F9CF0"></circle><circle cx="422.25" cy="263.66" r="2.6" fill="#1F9CF0"></circle><circle cx="429.57" cy="270.45" r="2.6" fill="#1F9CF0"></circle><circle cx="436.9" cy="265.53" r="2.6" fill="#1F9CF0"></circle><circle cx="444.22" cy="248.25" r="2.6" fill="#1F9CF0"></circle><circle cx="451.55" cy="259.3" r="2.6" fill="#1F9CF0"></circle><circle cx="458.88" cy="255.01" r="2.6" fill="#1F9CF0"></circle><circle cx="517.47" cy="259.54" r="2.6" fill="#1F9CF0"></circle><circle cx="524.8" cy="255.12" r="2.6" fill="#1F9CF0"></circle><circle cx="532.12" cy="241.05" r="2.6" fill="#1F9CF0"></circle><circle cx="539.45" cy="228.97" r="2.6" fill="#1F9CF0"></circle><circle cx="546.78" cy="234.99" r="2.6" fill="#1F9CF0"></circle><circle cx="554.1" cy="233" r="2.6" fill="#1F9CF0"></circle><circle cx="561.42" cy="242.76" r="2.6" fill="#1F9CF0"></circle><circle cx="568.75" cy="238.49" r="2.6" fill="#1F9CF0"></circle><circle cx="576.07" cy="251.01" r="2.6" fill="#1F9CF0"></circle><circle cx="583.4" cy="203.87" r="2.6" fill="#1F9CF0"></circle><circle cx="590.73" cy="219.17" r="2.6" fill="#1F9CF0"></circle><circle cx="598.05" cy="100.57" r="2.6" fill="#1F9CF0"></circle><circle cx="605.38" cy="239.75" r="2.6" fill="#1F9CF0"></circle><circle cx="612.7" cy="232.97" r="2.6" fill="#1F9CF0"></circle><circle cx="620.02" cy="241.63" r="2.6" fill="#1F9CF0"></circle><circle cx="627.35" cy="251.46" r="2.6" fill="#1F9CF0"></circle><circle cx="634.68" cy="254.09" r="2.6" fill="#1F9CF0"></circle><circle cx="642" cy="215.86" r="2.6" fill="#1F9CF0"></circle><line x1="656" y1="27" x2="672" y2="27" stroke="#E8835A" stroke-width="3" stroke-linecap="round"></line><text x="678" y="30" font-size="11" font-weight="400" text-anchor="start" fill="#1f2328">anthropic</text><line x1="656" y1="47" x2="672" y2="47" stroke="#6366F1" stroke-width="3" stroke-linecap="round"></line><text x="678" y="50" font-size="11" font-weight="400" text-anchor="start" fill="#1f2328">deepseek</text><line x1="656" y1="67" x2="672" y2="67" stroke="#2DA98C" stroke-width="3" stroke-linecap="round"></line><text x="678" y="70" font-size="11" font-weight="400" text-anchor="start" fill="#1f2328">gemini</text><line x1="656" y1="87" x2="672" y2="87" stroke="#A371F7" stroke-width="3" stroke-linecap="round"></line><text x="678" y="90" font-size="11" font-weight="400" text-anchor="start" fill="#1f2328">llama</text><line x1="656" y1="107" x2="672" y2="107" stroke="#F0A23B" stroke-width="3" stroke-linecap="round"></line><text x="678" y="110" font-size="11" font-weight="400" text-anchor="start" fill="#1f2328">mistral</text><line x1="656" y1="127" x2="672" y2="127" stroke="#1F9CF0" stroke-width="3" stroke-linecap="round"></line><text x="678" y="130" font-size="11" font-weight="400" text-anchor="start" fill="#1f2328">openai</text></svg>
