<svg xmlns="http://www.w3.org/2000/svg" viewBox="0 0 760 348" width="760" height="348" role="img" aria-label="Average LLM latency by provider over runs — llama highest, deepseek lowest" font-family="-apple-system,BlinkMacSystemFont,'Segoe UI',system-ui,sans-serif"><line x1="56" y1="306" x2="642" y2="306" stroke="#30363d" stroke-width="1"></line><text x="46" y="310" font-size="9.5" font-weight="400" text-anchor="end" fill="#8b949e" font-family="ui-monospace,SFMono-Regular,Menlo,monospace">0.0s</text><line x1="56" y1="235" x2="642" y2="235" stroke="#30363d" stroke-width="1"></line><text x="46" y="239" font-size="9.5" font-weight="400" text-anchor="end" fill="#8b949e" font-family="ui-monospace,SFMono-Regular,Menlo,monospace">82.5s</text><line x1="56" y1="164" x2="642" y2="164" stroke="#30363d" stroke-width="1"></line><text x="46" y="168" font-size="9.5" font-weight="400" text-anchor="end" fill="#8b949e" font-family="ui-monospace,SFMono-Regular,Menlo,monospace">165.1s</text><line x1="56" y1="93" x2="642" y2="93" stroke="#30363d" stroke-width="1"></line><text x="46" y="97" font-size="9.5" font-weight="400" text-anchor="end" fill="#8b949e" font-family="ui-monospace,SFMono-Regular,Menlo,monospace">247.6s</text><line x1="56" y1="22" x2="642" y2="22" stroke="#30363d" stroke-width="1"></line><text x="46" y="26" font-size="9.5" font-weight="400" text-anchor="end" fill="#8b949e" font-family="ui-monospace,SFMono-Regular,Menlo,monospace">330.2s</text><text x="56" y="324" font-size="9.5" font-weight="400" text-anchor="middle" fill="#8b949e" font-family="ui-monospace,SFMono-Regular,Menlo,monospace">06/08</text><text x="115.8" y="324" font-size="9.5" font-weight="400" text-anchor="middle" fill="#8b949e" font-family="ui-monospace,SFMono-Regular,Menlo,monospace">06/08</text><text x="175.59" y="324" font-size="9.5" font-weight="400" text-anchor="middle" fill="#8b949e" font-family="ui-monospace,SFMono-Regular,Menlo,monospace">06/09</text><text x="235.39" y="324" font-size="9.5" font-weight="400" text-anchor="middle" fill="#8b949e" font-family="ui-monospace,SFMono-Regular,Menlo,monospace">06/12</text><text x="295.18" y="324" font-size="9.5" font-weight="400" text-anchor="middle" fill="#8b949e" font-family="ui-monospace,SFMono-Regular,Menlo,monospace">06/13</text><text x="354.98" y="324" font-size="9.5" font-weight="400" text-anchor="middle" fill="#8b949e" font-family="ui-monospace,SFMono-Regular,Menlo,monospace">06/14</text><text x="414.78" y="324" font-size="9.5" font-weight="400" text-anchor="middle" fill="#8b949e" font-family="ui-monospace,SFMono-Regular,Menlo,monospace">06/15</text><text x="474.57" y="324" font-size="9.5" font-weight="400" text-anchor="middle" fill="#8b949e" font-family="ui-monospace,SFMono-Regular,Menlo,monospace">06/16</text><text x="534.37" y="324" font-size="9.5" font-weight="400" text-anchor="middle" fill="#8b949e" font-family="ui-monospace,SFMono-Regular,Menlo,monospace">06/17</text><text x="594.16" y="324" font-size="9.5" font-weight="400" text-anchor="middle" fill="#8b949e" font-family="ui-monospace,SFMono-Regular,Menlo,monospace">06/19</text><text x="642" y="324" font-size="9.5" font-weight="400" text-anchor="middle" fill="#8b949e" font-family="ui-monospace,SFMono-Regular,Menlo,monospace">06/20</text><polyline fill="none" stroke="#E8835A" stroke-width="2.4" stroke-linejoin="round" stroke-linecap="round" points="56,229.15 67.96,232.31 79.92,238.94 91.88,244 103.84,235.49 115.8,232.81 127.76,250.28 139.71,243.38 151.67,241.66 163.63,231.14 187.55,234.04 199.51,244.32 211.47,228.71 223.43,246.08 235.39,242.18 247.35,235.58 259.31,242.32 271.27,244.55 283.22,246.98 295.18,240.71 307.14,250.83 319.1,244.26 331.06,241.33 343.02,245.63 354.98,245.02 366.94,240.82 378.9,243.78 390.86,243.28 402.82,240.2 414.78,242.69 426.73,215.59 438.69,241.79 450.65,238.64 462.61,243.45 474.57,243.86 486.53,234.8 498.49,244.51 510.45,244.64"></polyline><circle cx="56" cy="229.15" r="2.6" fill="#E8835A"></circle><circle cx="67.96" cy="232.31" r="2.6" fill="#E8835A"></circle><circle cx="79.92" cy="238.94" r="2.6" fill="#E8835A"></circle><circle cx="91.88" cy="244" r="2.6" fill="#E8835A"></circle><circle cx="103.84" cy="235.49" r="2.6" fill="#E8835A"></circle><circle cx="115.8" cy="232.81" r="2.6" fill="#E8835A"></circle><circle cx="127.76" cy="250.28" r="2.6" fill="#E8835A"></circle><circle cx="139.71" cy="243.38" r="2.6" fill="#E8835A"></circle><circle cx="151.67" cy="241.66" r="2.6" fill="#E8835A"></circle><circle cx="163.63" cy="231.14" r="2.6" fill="#E8835A"></circle><circle cx="187.55" cy="234.04" r="2.6" fill="#E8835A"></circle><circle cx="199.51" cy="244.32" r="2.6" fill="#E8835A"></circle><circle cx="211.47" cy="228.71" r="2.6" fill="#E8835A"></circle><circle cx="223.43" cy="246.08" r="2.6" fill="#E8835A"></circle><circle cx="235.39" cy="242.18" r="2.6" fill="#E8835A"></circle><circle cx="247.35" cy="235.58" r="2.6" fill="#E8835A"></circle><circle cx="259.31" cy="242.32" r="2.6" fill="#E8835A"></circle><circle cx="271.27" cy="244.55" r="2.6" fill="#E8835A"></circle><circle cx="283.22" cy="246.98" r="2.6" fill="#E8835A"></circle><circle cx="295.18" cy="240.71" r="2.6" fill="#E8835A"></circle><circle cx="307.14" cy="250.83" r="2.6" fill="#E8835A"></circle><circle cx="319.1" cy="244.26" r="2.6" fill="#E8835A"></circle><circle cx="331.06" cy="241.33" r="2.6" fill="#E8835A"></circle><circle cx="343.02" cy="245.63" r="2.6" fill="#E8835A"></circle><circle cx="354.98" cy="245.02" r="2.6" fill="#E8835A"></circle><circle cx="366.94" cy="240.82" r="2.6" fill="#E8835A"></circle><circle cx="378.9" cy="243.78" r="2.6" fill="#E8835A"></circle><circle cx="390.86" cy="243.28" r="2.6" fill="#E8835A"></circle><circle cx="402.82" cy="240.2" r="2.6" fill="#E8835A"></circle><circle cx="414.78" cy="242.69" r="2.6" fill="#E8835A"></circle><circle cx="426.73" cy="215.59" r="2.6" fill="#E8835A"></circle><circle cx="438.69" cy="241.79" r="2.6" fill="#E8835A"></circle><circle cx="450.65" cy="238.64" r="2.6" fill="#E8835A"></circle><circle cx="462.61" cy="243.45" r="2.6" fill="#E8835A"></circle><circle cx="474.57" cy="243.86" r="2.6" fill="#E8835A"></circle><circle cx="486.53" cy="234.8" r="2.6" fill="#E8835A"></circle><circle cx="498.49" cy="244.51" r="2.6" fill="#E8835A"></circle><circle cx="510.45" cy="244.64" r="2.6" fill="#E8835A"></circle><polyline fill="none" stroke="#6366F1" stroke-width="2.4" stroke-linejoin="round" stroke-linecap="round" points="67.96,247.24 79.92,242.4 91.88,249.98 103.84,230.48 115.8,260.21 127.76,260.34 139.71,270.44 151.67,248.92 163.63,245.19 175.59,247.83 187.55,256.22 199.51,248.72 211.47,261.47 223.43,243.58 235.39,210.49 247.35,266.33 259.31,232.33 271.27,232.27 283.22,199.16 295.18,237.91 307.14,252.97 319.1,266.11 331.06,215.25 343.02,265.97 354.98,258.25 366.94,265.82 378.9,246.69 390.86,244.53 414.78,240.91 426.73,255.51 438.69,252.51 450.65,237.2 462.61,258.24 474.57,235.84 486.53,252.87 498.49,243.73 510.45,249.01 534.37,263.05 546.33,262.95 558.29,250.85 570.24,238.76 582.2,245.84 594.16,240.49 606.12,244.58 618.08,238.25 630.04,266.43 642,219.91"></polyline><circle cx="67.96" cy="247.24" r="2.6" fill="#6366F1"></circle><circle cx="79.92" cy="242.4" r="2.6" fill="#6366F1"></circle><circle cx="91.88" cy="249.98" r="2.6" fill="#6366F1"></circle><circle cx="103.84" cy="230.48" r="2.6" fill="#6366F1"></circle><circle cx="115.8" cy="260.21" r="2.6" fill="#6366F1"></circle><circle cx="127.76" cy="260.34" r="2.6" fill="#6366F1"></circle><circle cx="139.71" cy="270.44" r="2.6" fill="#6366F1"></circle><circle cx="151.67" cy="248.92" r="2.6" fill="#6366F1"></circle><circle cx="163.63" cy="245.19" r="2.6" fill="#6366F1"></circle><circle cx="175.59" cy="247.83" r="2.6" fill="#6366F1"></circle><circle cx="187.55" cy="256.22" r="2.6" fill="#6366F1"></circle><circle cx="199.51" cy="248.72" r="2.6" fill="#6366F1"></circle><circle cx="211.47" cy="261.47" r="2.6" fill="#6366F1"></circle><circle cx="223.43" cy="243.58" r="2.6" fill="#6366F1"></circle><circle cx="235.39" cy="210.49" r="2.6" fill="#6366F1"></circle><circle cx="247.35" cy="266.33" r="2.6" fill="#6366F1"></circle><circle cx="259.31" cy="232.33" r="2.6" fill="#6366F1"></circle><circle cx="271.27" cy="232.27" r="2.6" fill="#6366F1"></circle><circle cx="283.22" cy="199.16" r="2.6" fill="#6366F1"></circle><circle cx="295.18" cy="237.91" r="2.6" fill="#6366F1"></circle><circle cx="307.14" cy="252.97" r="2.6" fill="#6366F1"></circle><circle cx="319.1" cy="266.11" r="2.6" fill="#6366F1"></circle><circle cx="331.06" cy="215.25" r="2.6" fill="#6366F1"></circle><circle cx="343.02" cy="265.97" r="2.6" fill="#6366F1"></circle><circle cx="354.98" cy="258.25" r="2.6" fill="#6366F1"></circle><circle cx="366.94" cy="265.82" r="2.6" fill="#6366F1"></circle><circle cx="378.9" cy="246.69" r="2.6" fill="#6366F1"></circle><circle cx="390.86" cy="244.53" r="2.6" fill="#6366F1"></circle><circle cx="414.78" cy="240.91" r="2.6" fill="#6366F1"></circle><circle cx="426.73" cy="255.51" r="2.6" fill="#6366F1"></circle><circle cx="438.69" cy="252.51" r="2.6" fill="#6366F1"></circle><circle cx="450.65" cy="237.2" r="2.6" fill="#6366F1"></circle><circle cx="462.61" cy="258.24" r="2.6" fill="#6366F1"></circle><circle cx="474.57" cy="235.84" r="2.6" fill="#6366F1"></circle><circle cx="486.53" cy="252.87" r="2.6" fill="#6366F1"></circle><circle cx="498.49" cy="243.73" r="2.6" fill="#6366F1"></circle><circle cx="510.45" cy="249.01" r="2.6" fill="#6366F1"></circle><circle cx="534.37" cy="263.05" r="2.6" fill="#6366F1"></circle><circle cx="546.33" cy="262.95" r="2.6" fill="#6366F1"></circle><circle cx="558.29" cy="250.85" r="2.6" fill="#6366F1"></circle><circle cx="570.24" cy="238.76" r="2.6" fill="#6366F1"></circle><circle cx="582.2" cy="245.84" r="2.6" fill="#6366F1"></circle><circle cx="594.16" cy="240.49" r="2.6" fill="#6366F1"></circle><circle cx="606.12" cy="244.58" r="2.6" fill="#6366F1"></circle><circle cx="618.08" cy="238.25" r="2.6" fill="#6366F1"></circle><circle cx="630.04" cy="266.43" r="2.6" fill="#6366F1"></circle><circle cx="642" cy="219.91" r="2.6" fill="#6366F1"></circle><polyline fill="none" stroke="#2DA98C" stroke-width="2.4" stroke-linejoin="round" stroke-linecap="round" points="56,205.26 67.96,215.39 79.92,174.15 91.88,217.56 103.84,218.68 115.8,227.57 127.76,203.76 139.71,192.14 151.67,215.35 163.63,194.78 175.59,194.92 187.55,141.5 199.51,148.87 211.47,194.84 223.43,180.85 235.39,202.09 247.35,169.08 259.31,211.29 271.27,193.77 283.22,192.04 295.18,206.61 414.78,221.15 426.73,190.23 438.69,183.33 450.65,225.15 462.61,184.37 474.57,182.1 486.53,210.86 498.49,161.53 510.45,210.56 534.37,182.01 546.33,172.32 558.29,181.93 570.24,186.76 582.2,217.59 594.16,171.76 606.12,211.13 618.08,171.55 630.04,181.17 642,189.96"></polyline><circle cx="56" cy="205.26" r="2.6" fill="#2DA98C"></circle><circle cx="67.96" cy="215.39" r="2.6" fill="#2DA98C"></circle><circle cx="79.92" cy="174.15" r="2.6" fill="#2DA98C"></circle><circle cx="91.88" cy="217.56" r="2.6" fill="#2DA98C"></circle><circle cx="103.84" cy="218.68" r="2.6" fill="#2DA98C"></circle><circle cx="115.8" cy="227.57" r="2.6" fill="#2DA98C"></circle><circle cx="127.76" cy="203.76" r="2.6" fill="#2DA98C"></circle><circle cx="139.71" cy="192.14" r="2.6" fill="#2DA98C"></circle><circle cx="151.67" cy="215.35" r="2.6" fill="#2DA98C"></circle><circle cx="163.63" cy="194.78" r="2.6" fill="#2DA98C"></circle><circle cx="175.59" cy="194.92" r="2.6" fill="#2DA98C"></circle><circle cx="187.55" cy="141.5" r="2.6" fill="#2DA98C"></circle><circle cx="199.51" cy="148.87" r="2.6" fill="#2DA98C"></circle><circle cx="211.47" cy="194.84" r="2.6" fill="#2DA98C"></circle><circle cx="223.43" cy="180.85" r="2.6" fill="#2DA98C"></circle><circle cx="235.39" cy="202.09" r="2.6" fill="#2DA98C"></circle><circle cx="247.35" cy="169.08" r="2.6" fill="#2DA98C"></circle><circle cx="259.31" cy="211.29" r="2.6" fill="#2DA98C"></circle><circle cx="271.27" cy="193.77" r="2.6" fill="#2DA98C"></circle><circle cx="283.22" cy="192.04" r="2.6" fill="#2DA98C"></circle><circle cx="295.18" cy="206.61" r="2.6" fill="#2DA98C"></circle><circle cx="414.78" cy="221.15" r="2.6" fill="#2DA98C"></circle><circle cx="426.73" cy="190.23" r="2.6" fill="#2DA98C"></circle><circle cx="438.69" cy="183.33" r="2.6" fill="#2DA98C"></circle><circle cx="450.65" cy="225.15" r="2.6" fill="#2DA98C"></circle><circle cx="462.61" cy="184.37" r="2.6" fill="#2DA98C"></circle><circle cx="474.57" cy="182.1" r="2.6" fill="#2DA98C"></circle><circle cx="486.53" cy="210.86" r="2.6" fill="#2DA98C"></circle><circle cx="498.49" cy="161.53" r="2.6" fill="#2DA98C"></circle><circle cx="510.45" cy="210.56" r="2.6" fill="#2DA98C"></circle><circle cx="534.37" cy="182.01" r="2.6" fill="#2DA98C"></circle><circle cx="546.33" cy="172.32" r="2.6" fill="#2DA98C"></circle><circle cx="558.29" cy="181.93" r="2.6" fill="#2DA98C"></circle><circle cx="570.24" cy="186.76" r="2.6" fill="#2DA98C"></circle><circle cx="582.2" cy="217.59" r="2.6" fill="#2DA98C"></circle><circle cx="594.16" cy="171.76" r="2.6" fill="#2DA98C"></circle><circle cx="606.12" cy="211.13" r="2.6" fill="#2DA98C"></circle><circle cx="618.08" cy="171.55" r="2.6" fill="#2DA98C"></circle><circle cx="630.04" cy="181.17" r="2.6" fill="#2DA98C"></circle><circle cx="642" cy="189.96" r="2.6" fill="#2DA98C"></circle><polyline fill="none" stroke="#A371F7" stroke-width="2.4" stroke-linejoin="round" stroke-linecap="round" points="56,127.86 67.96,149.85 79.92,181.76 91.88,139.24 103.84,107.36 115.8,219.97 127.76,116.3 139.71,182.89 151.67,193.78 163.63,197.11 175.59,105.85 187.55,146.07 199.51,181.42 211.47,202.88 223.43,134.79 235.39,219.07 247.35,58.83 259.31,197.05 271.27,167.66 283.22,75.26 295.18,128.5 307.14,152.23 319.1,166.9 331.06,183.57 343.02,162.79 354.98,148.18 366.94,52.43 378.9,96.59 390.86,191.76 414.78,151.86 426.73,169.19 438.69,135.22 462.61,206.77 474.57,167.88 486.53,189.32 498.49,143.76 510.45,142.49 522.41,163.7 534.37,128.52 546.33,144.9 558.29,92.3 570.24,157.36 582.2,160.21 594.16,176.32 606.12,116.21 618.08,165.98 630.04,136.47"></polyline><circle cx="56" cy="127.86" r="2.6" fill="#A371F7"></circle><circle cx="67.96" cy="149.85" r="2.6" fill="#A371F7"></circle><circle cx="79.92" cy="181.76" r="2.6" fill="#A371F7"></circle><circle cx="91.88" cy="139.24" r="2.6" fill="#A371F7"></circle><circle cx="103.84" cy="107.36" r="2.6" fill="#A371F7"></circle><circle cx="115.8" cy="219.97" r="2.6" fill="#A371F7"></circle><circle cx="127.76" cy="116.3" r="2.6" fill="#A371F7"></circle><circle cx="139.71" cy="182.89" r="2.6" fill="#A371F7"></circle><circle cx="151.67" cy="193.78" r="2.6" fill="#A371F7"></circle><circle cx="163.63" cy="197.11" r="2.6" fill="#A371F7"></circle><circle cx="175.59" cy="105.85" r="2.6" fill="#A371F7"></circle><circle cx="187.55" cy="146.07" r="2.6" fill="#A371F7"></circle><circle cx="199.51" cy="181.42" r="2.6" fill="#A371F7"></circle><circle cx="211.47" cy="202.88" r="2.6" fill="#A371F7"></circle><circle cx="223.43" cy="134.79" r="2.6" fill="#A371F7"></circle><circle cx="235.39" cy="219.07" r="2.6" fill="#A371F7"></circle><circle cx="247.35" cy="58.83" r="2.6" fill="#A371F7"></circle><circle cx="259.31" cy="197.05" r="2.6" fill="#A371F7"></circle><circle cx="271.27" cy="167.66" r="2.6" fill="#A371F7"></circle><circle cx="283.22" cy="75.26" r="2.6" fill="#A371F7"></circle><circle cx="295.18" cy="128.5" r="2.6" fill="#A371F7"></circle><circle cx="307.14" cy="152.23" r="2.6" fill="#A371F7"></circle><circle cx="319.1" cy="166.9" r="2.6" fill="#A371F7"></circle><circle cx="331.06" cy="183.57" r="2.6" fill="#A371F7"></circle><circle cx="343.02" cy="162.79" r="2.6" fill="#A371F7"></circle><circle cx="354.98" cy="148.18" r="2.6" fill="#A371F7"></circle><circle cx="366.94" cy="52.43" r="2.6" fill="#A371F7"></circle><circle cx="378.9" cy="96.59" r="2.6" fill="#A371F7"></circle><circle cx="390.86" cy="191.76" r="2.6" fill="#A371F7"></circle><circle cx="414.78" cy="151.86" r="2.6" fill="#A371F7"></circle><circle cx="426.73" cy="169.19" r="2.6" fill="#A371F7"></circle><circle cx="438.69" cy="135.22" r="2.6" fill="#A371F7"></circle><circle cx="462.61" cy="206.77" r="2.6" fill="#A371F7"></circle><circle cx="474.57" cy="167.88" r="2.6" fill="#A371F7"></circle><circle cx="486.53" cy="189.32" r="2.6" fill="#A371F7"></circle><circle cx="498.49" cy="143.76" r="2.6" fill="#A371F7"></circle><circle cx="510.45" cy="142.49" r="2.6" fill="#A371F7"></circle><circle cx="522.41" cy="163.7" r="2.6" fill="#A371F7"></circle><circle cx="534.37" cy="128.52" r="2.6" fill="#A371F7"></circle><circle cx="546.33" cy="144.9" r="2.6" fill="#A371F7"></circle><circle cx="558.29" cy="92.3" r="2.6" fill="#A371F7"></circle><circle cx="570.24" cy="157.36" r="2.6" fill="#A371F7"></circle><circle cx="582.2" cy="160.21" r="2.6" fill="#A371F7"></circle><circle cx="594.16" cy="176.32" r="2.6" fill="#A371F7"></circle><circle cx="606.12" cy="116.21" r="2.6" fill="#A371F7"></circle><circle cx="618.08" cy="165.98" r="2.6" fill="#A371F7"></circle><circle cx="630.04" cy="136.47" r="2.6" fill="#A371F7"></circle><polyline fill="none" stroke="#F0A23B" stroke-width="2.4" stroke-linejoin="round" stroke-linecap="round" points="56,170.6 67.96,150.62 79.92,187.27 91.88,153.33 103.84,137.4 115.8,187.39 127.76,202.98 139.71,219.57 151.67,187.3 163.63,163.64 175.59,218.54 187.55,247.9 199.51,222.75 211.47,249.71 223.43,224.7 235.39,243.69 247.35,245.81 259.31,211.84 271.27,236.21 283.22,257.78 295.18,248.63 307.14,234.2 319.1,247.57 331.06,243.66 343.02,258.59 354.98,253.94 366.94,235.44 378.9,209.7 390.86,229.87 402.82,229.74 414.78,242.74 426.73,219.28 438.69,218.69 450.65,248.17 462.61,252.02 474.57,241.64 486.53,202.83 498.49,191.16 510.45,236.21 522.41,247.47 534.37,237.91 546.33,227.46 558.29,241.35 570.24,249.73 582.2,234.66 594.16,250 606.12,253.94 618.08,252.42 630.04,245.42 642,237.98"></polyline><circle cx="56" cy="170.6" r="2.6" fill="#F0A23B"></circle><circle cx="67.96" cy="150.62" r="2.6" fill="#F0A23B"></circle><circle cx="79.92" cy="187.27" r="2.6" fill="#F0A23B"></circle><circle cx="91.88" cy="153.33" r="2.6" fill="#F0A23B"></circle><circle cx="103.84" cy="137.4" r="2.6" fill="#F0A23B"></circle><circle cx="115.8" cy="187.39" r="2.6" fill="#F0A23B"></circle><circle cx="127.76" cy="202.98" r="2.6" fill="#F0A23B"></circle><circle cx="139.71" cy="219.57" r="2.6" fill="#F0A23B"></circle><circle cx="151.67" cy="187.3" r="2.6" fill="#F0A23B"></circle><circle cx="163.63" cy="163.64" r="2.6" fill="#F0A23B"></circle><circle cx="175.59" cy="218.54" r="2.6" fill="#F0A23B"></circle><circle cx="187.55" cy="247.9" r="2.6" fill="#F0A23B"></circle><circle cx="199.51" cy="222.75" r="2.6" fill="#F0A23B"></circle><circle cx="211.47" cy="249.71" r="2.6" fill="#F0A23B"></circle><circle cx="223.43" cy="224.7" r="2.6" fill="#F0A23B"></circle><circle cx="235.39" cy="243.69" r="2.6" fill="#F0A23B"></circle><circle cx="247.35" cy="245.81" r="2.6" fill="#F0A23B"></circle><circle cx="259.31" cy="211.84" r="2.6" fill="#F0A23B"></circle><circle cx="271.27" cy="236.21" r="2.6" fill="#F0A23B"></circle><circle cx="283.22" cy="257.78" r="2.6" fill="#F0A23B"></circle><circle cx="295.18" cy="248.63" r="2.6" fill="#F0A23B"></circle><circle cx="307.14" cy="234.2" r="2.6" fill="#F0A23B"></circle><circle cx="319.1" cy="247.57" r="2.6" fill="#F0A23B"></circle><circle cx="331.06" cy="243.66" r="2.6" fill="#F0A23B"></circle><circle cx="343.02" cy="258.59" r="2.6" fill="#F0A23B"></circle><circle cx="354.98" cy="253.94" r="2.6" fill="#F0A23B"></circle><circle cx="366.94" cy="235.44" r="2.6" fill="#F0A23B"></circle><circle cx="378.9" cy="209.7" r="2.6" fill="#F0A23B"></circle><circle cx="390.86" cy="229.87" r="2.6" fill="#F0A23B"></circle><circle cx="402.82" cy="229.74" r="2.6" fill="#F0A23B"></circle><circle cx="414.78" cy="242.74" r="2.6" fill="#F0A23B"></circle><circle cx="426.73" cy="219.28" r="2.6" fill="#F0A23B"></circle><circle cx="438.69" cy="218.69" r="2.6" fill="#F0A23B"></circle><circle cx="450.65" cy="248.17" r="2.6" fill="#F0A23B"></circle><circle cx="462.61" cy="252.02" r="2.6" fill="#F0A23B"></circle><circle cx="474.57" cy="241.64" r="2.6" fill="#F0A23B"></circle><circle cx="486.53" cy="202.83" r="2.6" fill="#F0A23B"></circle><circle cx="498.49" cy="191.16" r="2.6" fill="#F0A23B"></circle><circle cx="510.45" cy="236.21" r="2.6" fill="#F0A23B"></circle><circle cx="522.41" cy="247.47" r="2.6" fill="#F0A23B"></circle><circle cx="534.37" cy="237.91" r="2.6" fill="#F0A23B"></circle><circle cx="546.33" cy="227.46" r="2.6" fill="#F0A23B"></circle><circle cx="558.29" cy="241.35" r="2.6" fill="#F0A23B"></circle><circle cx="570.24" cy="249.73" r="2.6" fill="#F0A23B"></circle><circle cx="582.2" cy="234.66" r="2.6" fill="#F0A23B"></circle><circle cx="594.16" cy="250" r="2.6" fill="#F0A23B"></circle><circle cx="606.12" cy="253.94" r="2.6" fill="#F0A23B"></circle><circle cx="618.08" cy="252.42" r="2.6" fill="#F0A23B"></circle><circle cx="630.04" cy="245.42" r="2.6" fill="#F0A23B"></circle><circle cx="642" cy="237.98" r="2.6" fill="#F0A23B"></circle><polyline fill="none" stroke="#1F9CF0" stroke-width="2.4" stroke-linejoin="round" stroke-linecap="round" points="56,198.31 67.96,224.59 79.92,214.73 91.88,247.97 103.84,236.75 115.8,219.64 127.76,238.79 139.71,207.95 151.67,201.38 163.63,239.3 175.59,242.33 187.55,177.25 199.51,218.95 211.47,232.82 223.43,248.48 235.39,252.97 247.35,230.93 259.31,242.47 271.27,240.12 283.22,248.48 295.18,256.65 307.14,261.44 319.1,262.41 331.06,264.75 343.02,261.4 354.98,262.76 366.94,244.65 378.9,230.98 390.86,234.56 402.82,260.01 414.78,254.76 426.73,238.53 438.69,231.76 450.65,226.22 462.61,247.36 474.57,238.78 486.53,250.58 498.49,256.4 510.45,243.61 522.41,265.98 534.37,253.29 546.33,225.25 558.29,246.45 570.24,252.36 582.2,241.14 594.16,253.3 606.12,245.06 618.08,205.73 630.04,260.99 642,265.11"></polyline><circle cx="56" cy="198.31" r="2.6" fill="#1F9CF0"></circle><circle cx="67.96" cy="224.59" r="2.6" fill="#1F9CF0"></circle><circle cx="79.92" cy="214.73" r="2.6" fill="#1F9CF0"></circle><circle cx="91.88" cy="247.97" r="2.6" fill="#1F9CF0"></circle><circle cx="103.84" cy="236.75" r="2.6" fill="#1F9CF0"></circle><circle cx="115.8" cy="219.64" r="2.6" fill="#1F9CF0"></circle><circle cx="127.76" cy="238.79" r="2.6" fill="#1F9CF0"></circle><circle cx="139.71" cy="207.95" r="2.6" fill="#1F9CF0"></circle><circle cx="151.67" cy="201.38" r="2.6" fill="#1F9CF0"></circle><circle cx="163.63" cy="239.3" r="2.6" fill="#1F9CF0"></circle><circle cx="175.59" cy="242.33" r="2.6" fill="#1F9CF0"></circle><circle cx="187.55" cy="177.25" r="2.6" fill="#1F9CF0"></circle><circle cx="199.51" cy="218.95" r="2.6" fill="#1F9CF0"></circle><circle cx="211.47" cy="232.82" r="2.6" fill="#1F9CF0"></circle><circle cx="223.43" cy="248.48" r="2.6" fill="#1F9CF0"></circle><circle cx="235.39" cy="252.97" r="2.6" fill="#1F9CF0"></circle><circle cx="247.35" cy="230.93" r="2.6" fill="#1F9CF0"></circle><circle cx="259.31" cy="242.47" r="2.6" fill="#1F9CF0"></circle><circle cx="271.27" cy="240.12" r="2.6" fill="#1F9CF0"></circle><circle cx="283.22" cy="248.48" r="2.6" fill="#1F9CF0"></circle><circle cx="295.18" cy="256.65" r="2.6" fill="#1F9CF0"></circle><circle cx="307.14" cy="261.44" r="2.6" fill="#1F9CF0"></circle><circle cx="319.1" cy="262.41" r="2.6" fill="#1F9CF0"></circle><circle cx="331.06" cy="264.75" r="2.6" fill="#1F9CF0"></circle><circle cx="343.02" cy="261.4" r="2.6" fill="#1F9CF0"></circle><circle cx="354.98" cy="262.76" r="2.6" fill="#1F9CF0"></circle><circle cx="366.94" cy="244.65" r="2.6" fill="#1F9CF0"></circle><circle cx="378.9" cy="230.98" r="2.6" fill="#1F9CF0"></circle><circle cx="390.86" cy="234.56" r="2.6" fill="#1F9CF0"></circle><circle cx="402.82" cy="260.01" r="2.6" fill="#1F9CF0"></circle><circle cx="414.78" cy="254.76" r="2.6" fill="#1F9CF0"></circle><circle cx="426.73" cy="238.53" r="2.6" fill="#1F9CF0"></circle><circle cx="438.69" cy="231.76" r="2.6" fill="#1F9CF0"></circle><circle cx="450.65" cy="226.22" r="2.6" fill="#1F9CF0"></circle><circle cx="462.61" cy="247.36" r="2.6" fill="#1F9CF0"></circle><circle cx="474.57" cy="238.78" r="2.6" fill="#1F9CF0"></circle><circle cx="486.53" cy="250.58" r="2.6" fill="#1F9CF0"></circle><circle cx="498.49" cy="256.4" r="2.6" fill="#1F9CF0"></circle><circle cx="510.45" cy="243.61" r="2.6" fill="#1F9CF0"></circle><circle cx="522.41" cy="265.98" r="2.6" fill="#1F9CF0"></circle><circle cx="534.37" cy="253.29" r="2.6" fill="#1F9CF0"></circle><circle cx="546.33" cy="225.25" r="2.6" fill="#1F9CF0"></circle><circle cx="558.29" cy="246.45" r="2.6" fill="#1F9CF0"></circle><circle cx="570.24" cy="252.36" r="2.6" fill="#1F9CF0"></circle><circle cx="582.2" cy="241.14" r="2.6" fill="#1F9CF0"></circle><circle cx="594.16" cy="253.3" r="2.6" fill="#1F9CF0"></circle><circle cx="606.12" cy="245.06" r="2.6" fill="#1F9CF0"></circle><circle cx="618.08" cy="205.73" r="2.6" fill="#1F9CF0"></circle><circle cx="630.04" cy="260.99" r="2.6" fill="#1F9CF0"></circle><circle cx="642" cy="265.11" r="2.6" fill="#1F9CF0"></circle><line x1="656" y1="27" x2="672" y2="27" stroke="#E8835A" stroke-width="3" stroke-linecap="round"></line><text x="678" y="30" font-size="11" font-weight="400" text-anchor="start" fill="#e6edf3">anthropic</text><line x1="656" y1="47" x2="672" y2="47" stroke="#6366F1" stroke-width="3" stroke-linecap="round"></line><text x="678" y="50" font-size="11" font-weight="400" text-anchor="start" fill="#e6edf3">deepseek</text><line x1="656" y1="67" x2="672" y2="67" stroke="#2DA98C" stroke-width="3" stroke-linecap="round"></line><text x="678" y="70" font-size="11" font-weight="400" text-anchor="start" fill="#e6edf3">gemini</text><line x1="656" y1="87" x2="672" y2="87" stroke="#A371F7" stroke-width="3" stroke-linecap="round"></line><text x="678" y="90" font-size="11" font-weight="400" text-anchor="start" fill="#e6edf3">llama</text><line x1="656" y1="107" x2="672" y2="107" stroke="#F0A23B" stroke-width="3" stroke-linecap="round"></line><text x="678" y="110" font-size="11" font-weight="400" text-anchor="start" fill="#e6edf3">mistral</text><line x1="656" y1="127" x2="672" y2="127" stroke="#1F9CF0" stroke-width="3" stroke-linecap="round"></line><text x="678" y="130" font-size="11" font-weight="400" text-anchor="start" fill="#e6edf3">openai</text></svg>
