<svg xmlns="http://www.w3.org/2000/svg" viewBox="0 0 600 300" width="600" height="300" role="img" aria-label="Avg LLM latency by provider over runs (s)"><text x="300.0" y="24" text-anchor="middle" font-family="system-ui, -apple-system, sans-serif" font-size="14" font-weight="600" fill="#333">Avg LLM latency by provider over runs (s)</text><line x1="60" y1="240.0" x2="480" y2="240.0" stroke="#eee" stroke-width="1"/><text x="54" y="244.0" text-anchor="end" font-family="system-ui, -apple-system, sans-serif" font-size="9" fill="#999">41.35</text><line x1="60" y1="140.0" x2="480" y2="140.0" stroke="#eee" stroke-width="1"/><text x="54" y="144.0" text-anchor="end" font-family="system-ui, -apple-system, sans-serif" font-size="9" fill="#999">164.3</text><line x1="60" y1="40.0" x2="480" y2="40.0" stroke="#eee" stroke-width="1"/><text x="54" y="44.0" text-anchor="end" font-family="system-ui, -apple-system, sans-serif" font-size="9" fill="#999">287.4</text><polyline fill="none" stroke="#4CAF50" stroke-width="2" points="60.0,171.8 78.3,196.7 96.5,187.4 114.8,218.8 133.0,208.2 151.3,192.0 169.6,210.1 187.8,180.9 206.1,174.7 224.3,210.6 242.6,213.4 260.9,151.9 279.1,191.3 297.4,204.4 315.7,219.2 333.9,223.5 352.2,202.7 370.4,213.6 388.7,211.3 407.0,219.2 425.2,227.0 443.5,231.5 461.7,232.4 480.0,234.6"/><circle cx="60.0" cy="171.8" r="3" fill="#4CAF50"/><circle cx="78.3" cy="196.7" r="3" fill="#4CAF50"/><circle cx="96.5" cy="187.4" r="3" fill="#4CAF50"/><circle cx="114.8" cy="218.8" r="3" fill="#4CAF50"/><circle cx="133.0" cy="208.2" r="3" fill="#4CAF50"/><circle cx="151.3" cy="192.0" r="3" fill="#4CAF50"/><circle cx="169.6" cy="210.1" r="3" fill="#4CAF50"/><circle cx="187.8" cy="180.9" r="3" fill="#4CAF50"/><circle cx="206.1" cy="174.7" r="3" fill="#4CAF50"/><circle cx="224.3" cy="210.6" r="3" fill="#4CAF50"/><circle cx="242.6" cy="213.4" r="3" fill="#4CAF50"/><circle cx="260.9" cy="151.9" r="3" fill="#4CAF50"/><circle cx="279.1" cy="191.3" r="3" fill="#4CAF50"/><circle cx="297.4" cy="204.4" r="3" fill="#4CAF50"/><circle cx="315.7" cy="219.2" r="3" fill="#4CAF50"/><circle cx="333.9" cy="223.5" r="3" fill="#4CAF50"/><circle cx="352.2" cy="202.7" r="3" fill="#4CAF50"/><circle cx="370.4" cy="213.6" r="3" fill="#4CAF50"/><circle cx="388.7" cy="211.3" r="3" fill="#4CAF50"/><circle cx="407.0" cy="219.2" r="3" fill="#4CAF50"/><circle cx="425.2" cy="227.0" r="3" fill="#4CAF50"/><circle cx="443.5" cy="231.5" r="3" fill="#4CAF50"/><circle cx="461.7" cy="232.4" r="3" fill="#4CAF50"/><circle cx="480.0" cy="234.6" r="3" fill="#4CAF50"/><rect x="490" y="44" width="10" height="10" fill="#4CAF50"/><text x="504" y="53" font-family="system-ui, -apple-system, sans-serif" font-size="10" fill="#333">openai</text><polyline fill="none" stroke="#2196F3" stroke-width="2" points="60.0,201.0 78.3,204.0 96.5,210.2 114.8,215.0 133.0,207.0 151.3,204.4 169.6,220.9 187.8,214.4 206.1,212.8 224.3,202.9 260.9,205.6 279.1,215.3 297.4,200.6 315.7,217.0 333.9,213.3 352.2,207.1 370.4,213.4 388.7,215.5 407.0,217.8 425.2,211.9 443.5,221.5 461.7,215.3 480.0,212.5"/><circle cx="60.0" cy="201.0" r="3" fill="#2196F3"/><circle cx="78.3" cy="204.0" r="3" fill="#2196F3"/><circle cx="96.5" cy="210.2" r="3" fill="#2196F3"/><circle cx="114.8" cy="215.0" r="3" fill="#2196F3"/><circle cx="133.0" cy="207.0" r="3" fill="#2196F3"/><circle cx="151.3" cy="204.4" r="3" fill="#2196F3"/><circle cx="169.6" cy="220.9" r="3" fill="#2196F3"/><circle cx="187.8" cy="214.4" r="3" fill="#2196F3"/><circle cx="206.1" cy="212.8" r="3" fill="#2196F3"/><circle cx="224.3" cy="202.9" r="3" fill="#2196F3"/><circle cx="260.9" cy="205.6" r="3" fill="#2196F3"/><circle cx="279.1" cy="215.3" r="3" fill="#2196F3"/><circle cx="297.4" cy="200.6" r="3" fill="#2196F3"/><circle cx="315.7" cy="217.0" r="3" fill="#2196F3"/><circle cx="333.9" cy="213.3" r="3" fill="#2196F3"/><circle cx="352.2" cy="207.1" r="3" fill="#2196F3"/><circle cx="370.4" cy="213.4" r="3" fill="#2196F3"/><circle cx="388.7" cy="215.5" r="3" fill="#2196F3"/><circle cx="407.0" cy="217.8" r="3" fill="#2196F3"/><circle cx="425.2" cy="211.9" r="3" fill="#2196F3"/><circle cx="443.5" cy="221.5" r="3" fill="#2196F3"/><circle cx="461.7" cy="215.3" r="3" fill="#2196F3"/><circle cx="480.0" cy="212.5" r="3" fill="#2196F3"/><rect x="490" y="62" width="10" height="10" fill="#2196F3"/><text x="504" y="71" font-family="system-ui, -apple-system, sans-serif" font-size="10" fill="#333">anthropic</text><polyline fill="none" stroke="#FF9800" stroke-width="2" points="60.0,178.4 78.3,188.0 96.5,149.0 114.8,190.0 133.0,191.1 151.3,199.5 169.6,177.0 187.8,166.0 206.1,187.9 224.3,168.5 242.6,168.6 260.9,118.1 279.1,125.1 297.4,168.6 315.7,155.3 333.9,175.4 352.2,144.2 370.4,184.1 388.7,167.5 407.0,165.9 425.2,179.7"/><circle cx="60.0" cy="178.4" r="3" fill="#FF9800"/><circle cx="78.3" cy="188.0" r="3" fill="#FF9800"/><circle cx="96.5" cy="149.0" r="3" fill="#FF9800"/><circle cx="114.8" cy="190.0" r="3" fill="#FF9800"/><circle cx="133.0" cy="191.1" r="3" fill="#FF9800"/><circle cx="151.3" cy="199.5" r="3" fill="#FF9800"/><circle cx="169.6" cy="177.0" r="3" fill="#FF9800"/><circle cx="187.8" cy="166.0" r="3" fill="#FF9800"/><circle cx="206.1" cy="187.9" r="3" fill="#FF9800"/><circle cx="224.3" cy="168.5" r="3" fill="#FF9800"/><circle cx="242.6" cy="168.6" r="3" fill="#FF9800"/><circle cx="260.9" cy="118.1" r="3" fill="#FF9800"/><circle cx="279.1" cy="125.1" r="3" fill="#FF9800"/><circle cx="297.4" cy="168.6" r="3" fill="#FF9800"/><circle cx="315.7" cy="155.3" r="3" fill="#FF9800"/><circle cx="333.9" cy="175.4" r="3" fill="#FF9800"/><circle cx="352.2" cy="144.2" r="3" fill="#FF9800"/><circle cx="370.4" cy="184.1" r="3" fill="#FF9800"/><circle cx="388.7" cy="167.5" r="3" fill="#FF9800"/><circle cx="407.0" cy="165.9" r="3" fill="#FF9800"/><circle cx="425.2" cy="179.7" r="3" fill="#FF9800"/><rect x="490" y="80" width="10" height="10" fill="#FF9800"/><text x="504" y="89" font-family="system-ui, -apple-system, sans-serif" font-size="10" fill="#333">gemini</text><polyline fill="none" stroke="#E91E63" stroke-width="2" points="60.0,105.2 78.3,126.0 96.5,156.2 114.8,116.0 133.0,85.9 151.3,192.3 169.6,94.3 187.8,157.3 206.1,167.5 224.3,170.7 242.6,84.4 260.9,122.5 279.1,155.9 297.4,176.1 315.7,111.8 333.9,191.5 352.2,40.0 370.4,170.6 388.7,142.9 407.0,55.5 425.2,105.8 443.5,128.3 461.7,142.1 480.0,157.9"/><circle cx="60.0" cy="105.2" r="3" fill="#E91E63"/><circle cx="78.3" cy="126.0" r="3" fill="#E91E63"/><circle cx="96.5" cy="156.2" r="3" fill="#E91E63"/><circle cx="114.8" cy="116.0" r="3" fill="#E91E63"/><circle cx="133.0" cy="85.9" r="3" fill="#E91E63"/><circle cx="151.3" cy="192.3" r="3" fill="#E91E63"/><circle cx="169.6" cy="94.3" r="3" fill="#E91E63"/><circle cx="187.8" cy="157.3" r="3" fill="#E91E63"/><circle cx="206.1" cy="167.5" r="3" fill="#E91E63"/><circle cx="224.3" cy="170.7" r="3" fill="#E91E63"/><circle cx="242.6" cy="84.4" r="3" fill="#E91E63"/><circle cx="260.9" cy="122.5" r="3" fill="#E91E63"/><circle cx="279.1" cy="155.9" r="3" fill="#E91E63"/><circle cx="297.4" cy="176.1" r="3" fill="#E91E63"/><circle cx="315.7" cy="111.8" r="3" fill="#E91E63"/><circle cx="333.9" cy="191.5" r="3" fill="#E91E63"/><circle cx="352.2" cy="40.0" r="3" fill="#E91E63"/><circle cx="370.4" cy="170.6" r="3" fill="#E91E63"/><circle cx="388.7" cy="142.9" r="3" fill="#E91E63"/><circle cx="407.0" cy="55.5" r="3" fill="#E91E63"/><circle cx="425.2" cy="105.8" r="3" fill="#E91E63"/><circle cx="443.5" cy="128.3" r="3" fill="#E91E63"/><circle cx="461.7" cy="142.1" r="3" fill="#E91E63"/><circle cx="480.0" cy="157.9" r="3" fill="#E91E63"/><rect x="490" y="98" width="10" height="10" fill="#E91E63"/><text x="504" y="107" font-family="system-ui, -apple-system, sans-serif" font-size="10" fill="#333">llama</text><polyline fill="none" stroke="#9C27B0" stroke-width="2" points="60.0,145.6 78.3,126.8 96.5,161.4 114.8,129.3 133.0,114.3 151.3,161.5 169.6,176.2 187.8,191.9 206.1,161.4 224.3,139.1 242.6,191.0 260.9,218.7 279.1,194.9 297.4,220.4 315.7,196.8 333.9,214.7 352.2,216.7 370.4,184.6 388.7,207.7 407.0,228.0 425.2,219.4 443.5,205.8 461.7,218.4 480.0,214.7"/><circle cx="60.0" cy="145.6" r="3" fill="#9C27B0"/><circle cx="78.3" cy="126.8" r="3" fill="#9C27B0"/><circle cx="96.5" cy="161.4" r="3" fill="#9C27B0"/><circle cx="114.8" cy="129.3" r="3" fill="#9C27B0"/><circle cx="133.0" cy="114.3" r="3" fill="#9C27B0"/><circle cx="151.3" cy="161.5" r="3" fill="#9C27B0"/><circle cx="169.6" cy="176.2" r="3" fill="#9C27B0"/><circle cx="187.8" cy="191.9" r="3" fill="#9C27B0"/><circle cx="206.1" cy="161.4" r="3" fill="#9C27B0"/><circle cx="224.3" cy="139.1" r="3" fill="#9C27B0"/><circle cx="242.6" cy="191.0" r="3" fill="#9C27B0"/><circle cx="260.9" cy="218.7" r="3" fill="#9C27B0"/><circle cx="279.1" cy="194.9" r="3" fill="#9C27B0"/><circle cx="297.4" cy="220.4" r="3" fill="#9C27B0"/><circle cx="315.7" cy="196.8" r="3" fill="#9C27B0"/><circle cx="333.9" cy="214.7" r="3" fill="#9C27B0"/><circle cx="352.2" cy="216.7" r="3" fill="#9C27B0"/><circle cx="370.4" cy="184.6" r="3" fill="#9C27B0"/><circle cx="388.7" cy="207.7" r="3" fill="#9C27B0"/><circle cx="407.0" cy="228.0" r="3" fill="#9C27B0"/><circle cx="425.2" cy="219.4" r="3" fill="#9C27B0"/><circle cx="443.5" cy="205.8" r="3" fill="#9C27B0"/><circle cx="461.7" cy="218.4" r="3" fill="#9C27B0"/><circle cx="480.0" cy="214.7" r="3" fill="#9C27B0"/><rect x="490" y="116" width="10" height="10" fill="#9C27B0"/><text x="504" y="125" font-family="system-ui, -apple-system, sans-serif" font-size="10" fill="#333">mistral</text><polyline fill="none" stroke="#00BCD4" stroke-width="2" points="78.3,218.1 96.5,213.5 114.8,220.7 133.0,202.2 151.3,230.3 169.6,230.5 187.8,240.0 206.1,219.7 224.3,216.1 242.6,218.6 260.9,226.6 279.1,219.5 297.4,231.5 315.7,214.6 333.9,183.3 352.2,236.1 370.4,204.0 388.7,203.9 407.0,172.6 425.2,209.3 443.5,223.5 461.7,235.9 480.0,187.8"/><circle cx="78.3" cy="218.1" r="3" fill="#00BCD4"/><circle cx="96.5" cy="213.5" r="3" fill="#00BCD4"/><circle cx="114.8" cy="220.7" r="3" fill="#00BCD4"/><circle cx="133.0" cy="202.2" r="3" fill="#00BCD4"/><circle cx="151.3" cy="230.3" r="3" fill="#00BCD4"/><circle cx="169.6" cy="230.5" r="3" fill="#00BCD4"/><circle cx="187.8" cy="240.0" r="3" fill="#00BCD4"/><circle cx="206.1" cy="219.7" r="3" fill="#00BCD4"/><circle cx="224.3" cy="216.1" r="3" fill="#00BCD4"/><circle cx="242.6" cy="218.6" r="3" fill="#00BCD4"/><circle cx="260.9" cy="226.6" r="3" fill="#00BCD4"/><circle cx="279.1" cy="219.5" r="3" fill="#00BCD4"/><circle cx="297.4" cy="231.5" r="3" fill="#00BCD4"/><circle cx="315.7" cy="214.6" r="3" fill="#00BCD4"/><circle cx="333.9" cy="183.3" r="3" fill="#00BCD4"/><circle cx="352.2" cy="236.1" r="3" fill="#00BCD4"/><circle cx="370.4" cy="204.0" r="3" fill="#00BCD4"/><circle cx="388.7" cy="203.9" r="3" fill="#00BCD4"/><circle cx="407.0" cy="172.6" r="3" fill="#00BCD4"/><circle cx="425.2" cy="209.3" r="3" fill="#00BCD4"/><circle cx="443.5" cy="223.5" r="3" fill="#00BCD4"/><circle cx="461.7" cy="235.9" r="3" fill="#00BCD4"/><circle cx="480.0" cy="187.8" r="3" fill="#00BCD4"/><rect x="490" y="134" width="10" height="10" fill="#00BCD4"/><text x="504" y="143" font-family="system-ui, -apple-system, sans-serif" font-size="10" fill="#333">deepseek</text><text x="60.0" y="256.0" text-anchor="middle" font-family="system-ui, -apple-system, sans-serif" font-size="9" fill="#666">33376499</text><text x="96.5" y="256.0" text-anchor="middle" font-family="system-ui, -apple-system, sans-serif" font-size="9" fill="#666">51938981</text><text x="133.0" y="256.0" text-anchor="middle" font-family="system-ui, -apple-system, sans-serif" font-size="9" fill="#666">54994841</text><text x="169.6" y="256.0" text-anchor="middle" font-family="system-ui, -apple-system, sans-serif" font-size="9" fill="#666">74446787</text><text x="206.1" y="256.0" text-anchor="middle" font-family="system-ui, -apple-system, sans-serif" font-size="9" fill="#666">75757458</text><text x="242.6" y="256.0" text-anchor="middle" font-family="system-ui, -apple-system, sans-serif" font-size="9" fill="#666">37885074</text><text x="279.1" y="256.0" text-anchor="middle" font-family="system-ui, -apple-system, sans-serif" font-size="9" fill="#666">41073326</text><text x="315.7" y="256.0" text-anchor="middle" font-family="system-ui, -apple-system, sans-serif" font-size="9" fill="#666">04094958</text><text x="352.2" y="256.0" text-anchor="middle" font-family="system-ui, -apple-system, sans-serif" font-size="9" fill="#666">12682497</text><text x="388.7" y="256.0" text-anchor="middle" font-family="system-ui, -apple-system, sans-serif" font-size="9" fill="#666">39004208</text><text x="425.2" y="256.0" text-anchor="middle" font-family="system-ui, -apple-system, sans-serif" font-size="9" fill="#666">68748512</text><text x="461.7" y="256.0" text-anchor="middle" font-family="system-ui, -apple-system, sans-serif" font-size="9" fill="#666">99652631</text></svg>
