<svg xmlns="http://www.w3.org/2000/svg" viewBox="0 0 760 348" width="760" height="348" role="img" aria-label="Average LLM latency by provider over runs — llama highest, deepseek lowest" font-family="-apple-system,BlinkMacSystemFont,'Segoe UI',system-ui,sans-serif"><line x1="56" y1="306" x2="642" y2="306" stroke="#30363d" stroke-width="1"></line><text x="46" y="310" font-size="9.5" font-weight="400" text-anchor="end" fill="#8b949e" font-family="ui-monospace,SFMono-Regular,Menlo,monospace">0.0s</text><line x1="56" y1="235" x2="642" y2="235" stroke="#30363d" stroke-width="1"></line><text x="46" y="239" font-size="9.5" font-weight="400" text-anchor="end" fill="#8b949e" font-family="ui-monospace,SFMono-Regular,Menlo,monospace">82.5s</text><line x1="56" y1="164" x2="642" y2="164" stroke="#30363d" stroke-width="1"></line><text x="46" y="168" font-size="9.5" font-weight="400" text-anchor="end" fill="#8b949e" font-family="ui-monospace,SFMono-Regular,Menlo,monospace">165.1s</text><line x1="56" y1="93" x2="642" y2="93" stroke="#30363d" stroke-width="1"></line><text x="46" y="97" font-size="9.5" font-weight="400" text-anchor="end" fill="#8b949e" font-family="ui-monospace,SFMono-Regular,Menlo,monospace">247.6s</text><line x1="56" y1="22" x2="642" y2="22" stroke="#30363d" stroke-width="1"></line><text x="46" y="26" font-size="9.5" font-weight="400" text-anchor="end" fill="#8b949e" font-family="ui-monospace,SFMono-Regular,Menlo,monospace">330.2s</text><text x="56" y="324" font-size="9.5" font-weight="400" text-anchor="middle" fill="#8b949e" font-family="ui-monospace,SFMono-Regular,Menlo,monospace">06/08</text><text x="111.43" y="324" font-size="9.5" font-weight="400" text-anchor="middle" fill="#8b949e" font-family="ui-monospace,SFMono-Regular,Menlo,monospace">06/09</text><text x="166.86" y="324" font-size="9.5" font-weight="400" text-anchor="middle" fill="#8b949e" font-family="ui-monospace,SFMono-Regular,Menlo,monospace">06/10</text><text x="222.3" y="324" font-size="9.5" font-weight="400" text-anchor="middle" fill="#8b949e" font-family="ui-monospace,SFMono-Regular,Menlo,monospace">06/14</text><text x="277.73" y="324" font-size="9.5" font-weight="400" text-anchor="middle" fill="#8b949e" font-family="ui-monospace,SFMono-Regular,Menlo,monospace">06/15</text><text x="333.16" y="324" font-size="9.5" font-weight="400" text-anchor="middle" fill="#8b949e" font-family="ui-monospace,SFMono-Regular,Menlo,monospace">06/16</text><text x="388.59" y="324" font-size="9.5" font-weight="400" text-anchor="middle" fill="#8b949e" font-family="ui-monospace,SFMono-Regular,Menlo,monospace">06/18</text><text x="444.03" y="324" font-size="9.5" font-weight="400" text-anchor="middle" fill="#8b949e" font-family="ui-monospace,SFMono-Regular,Menlo,monospace">06/20</text><text x="499.46" y="324" font-size="9.5" font-weight="400" text-anchor="middle" fill="#8b949e" font-family="ui-monospace,SFMono-Regular,Menlo,monospace">06/21</text><text x="554.89" y="324" font-size="9.5" font-weight="400" text-anchor="middle" fill="#8b949e" font-family="ui-monospace,SFMono-Regular,Menlo,monospace">06/23</text><text x="610.32" y="324" font-size="9.5" font-weight="400" text-anchor="middle" fill="#8b949e" font-family="ui-monospace,SFMono-Regular,Menlo,monospace">06/24</text><text x="642" y="324" font-size="9.5" font-weight="400" text-anchor="middle" fill="#8b949e" font-family="ui-monospace,SFMono-Regular,Menlo,monospace">06/25</text><polyline fill="none" stroke="#E8835A" stroke-width="2.4" stroke-linejoin="round" stroke-linecap="round" points="56,229.15 63.92,232.31 71.84,238.94 79.76,244 87.68,235.49 95.59,232.81 103.51,250.28 111.43,243.38 119.35,241.66 127.27,231.14 143.11,234.04 151.03,244.32 158.95,228.71 166.86,246.08 174.78,242.18 182.7,235.58 190.62,242.32 198.54,244.55 206.46,246.98 214.38,240.71 222.3,250.83 230.22,244.26 238.14,241.33 246.05,245.63 253.97,245.02 261.89,240.82 269.81,243.78 277.73,243.28 285.65,240.2 293.57,242.69 301.49,215.59 309.41,241.79 317.32,238.64 325.24,243.45 333.16,243.86 341.08,234.8 349,244.51 356.92,244.64"></polyline><circle cx="56" cy="229.15" r="2.6" fill="#E8835A"></circle><circle cx="63.92" cy="232.31" r="2.6" fill="#E8835A"></circle><circle cx="71.84" cy="238.94" r="2.6" fill="#E8835A"></circle><circle cx="79.76" cy="244" r="2.6" fill="#E8835A"></circle><circle cx="87.68" cy="235.49" r="2.6" fill="#E8835A"></circle><circle cx="95.59" cy="232.81" r="2.6" fill="#E8835A"></circle><circle cx="103.51" cy="250.28" r="2.6" fill="#E8835A"></circle><circle cx="111.43" cy="243.38" r="2.6" fill="#E8835A"></circle><circle cx="119.35" cy="241.66" r="2.6" fill="#E8835A"></circle><circle cx="127.27" cy="231.14" r="2.6" fill="#E8835A"></circle><circle cx="143.11" cy="234.04" r="2.6" fill="#E8835A"></circle><circle cx="151.03" cy="244.32" r="2.6" fill="#E8835A"></circle><circle cx="158.95" cy="228.71" r="2.6" fill="#E8835A"></circle><circle cx="166.86" cy="246.08" r="2.6" fill="#E8835A"></circle><circle cx="174.78" cy="242.18" r="2.6" fill="#E8835A"></circle><circle cx="182.7" cy="235.58" r="2.6" fill="#E8835A"></circle><circle cx="190.62" cy="242.32" r="2.6" fill="#E8835A"></circle><circle cx="198.54" cy="244.55" r="2.6" fill="#E8835A"></circle><circle cx="206.46" cy="246.98" r="2.6" fill="#E8835A"></circle><circle cx="214.38" cy="240.71" r="2.6" fill="#E8835A"></circle><circle cx="222.3" cy="250.83" r="2.6" fill="#E8835A"></circle><circle cx="230.22" cy="244.26" r="2.6" fill="#E8835A"></circle><circle cx="238.14" cy="241.33" r="2.6" fill="#E8835A"></circle><circle cx="246.05" cy="245.63" r="2.6" fill="#E8835A"></circle><circle cx="253.97" cy="245.02" r="2.6" fill="#E8835A"></circle><circle cx="261.89" cy="240.82" r="2.6" fill="#E8835A"></circle><circle cx="269.81" cy="243.78" r="2.6" fill="#E8835A"></circle><circle cx="277.73" cy="243.28" r="2.6" fill="#E8835A"></circle><circle cx="285.65" cy="240.2" r="2.6" fill="#E8835A"></circle><circle cx="293.57" cy="242.69" r="2.6" fill="#E8835A"></circle><circle cx="301.49" cy="215.59" r="2.6" fill="#E8835A"></circle><circle cx="309.41" cy="241.79" r="2.6" fill="#E8835A"></circle><circle cx="317.32" cy="238.64" r="2.6" fill="#E8835A"></circle><circle cx="325.24" cy="243.45" r="2.6" fill="#E8835A"></circle><circle cx="333.16" cy="243.86" r="2.6" fill="#E8835A"></circle><circle cx="341.08" cy="234.8" r="2.6" fill="#E8835A"></circle><circle cx="349" cy="244.51" r="2.6" fill="#E8835A"></circle><circle cx="356.92" cy="244.64" r="2.6" fill="#E8835A"></circle><polyline fill="none" stroke="#6366F1" stroke-width="2.4" stroke-linejoin="round" stroke-linecap="round" points="63.92,247.24 71.84,242.4 79.76,249.98 87.68,230.48 95.59,260.21 103.51,260.34 111.43,270.44 119.35,248.92 127.27,245.19 135.19,247.83 143.11,256.22 151.03,248.72 158.95,261.47 166.86,243.58 174.78,210.49 182.7,266.33 190.62,232.33 198.54,232.27 206.46,199.16 214.38,237.91 222.3,252.97 230.22,266.11 238.14,215.25 246.05,265.97 253.97,258.25 261.89,265.82 269.81,246.69 277.73,244.53 293.57,240.91 301.49,255.51 309.41,252.51 317.32,237.2 325.24,258.24 333.16,235.84 341.08,252.87 349,243.73 356.92,249.01 372.76,263.05 380.68,262.95 388.59,250.85 396.51,238.76 404.43,245.84 412.35,240.49 420.27,244.58 428.19,238.25 436.11,266.43 444.03,219.91 451.95,256.77 467.78,250.11 475.7,264.15 483.62,249.18 491.54,252.64 499.46,236.94 507.38,257.91 515.3,245.05 523.22,245.47 531.14,251.25 539.05,250.75 546.97,249.01 554.89,257.36 562.81,265.15 570.73,253.64 578.65,262.66 586.57,253.56 594.49,247.85 602.41,241.21 610.32,265.06 618.24,257.2 626.16,265.73 634.08,265.31 642,250.21"></polyline><circle cx="63.92" cy="247.24" r="2.6" fill="#6366F1"></circle><circle cx="71.84" cy="242.4" r="2.6" fill="#6366F1"></circle><circle cx="79.76" cy="249.98" r="2.6" fill="#6366F1"></circle><circle cx="87.68" cy="230.48" r="2.6" fill="#6366F1"></circle><circle cx="95.59" cy="260.21" r="2.6" fill="#6366F1"></circle><circle cx="103.51" cy="260.34" r="2.6" fill="#6366F1"></circle><circle cx="111.43" cy="270.44" r="2.6" fill="#6366F1"></circle><circle cx="119.35" cy="248.92" r="2.6" fill="#6366F1"></circle><circle cx="127.27" cy="245.19" r="2.6" fill="#6366F1"></circle><circle cx="135.19" cy="247.83" r="2.6" fill="#6366F1"></circle><circle cx="143.11" cy="256.22" r="2.6" fill="#6366F1"></circle><circle cx="151.03" cy="248.72" r="2.6" fill="#6366F1"></circle><circle cx="158.95" cy="261.47" r="2.6" fill="#6366F1"></circle><circle cx="166.86" cy="243.58" r="2.6" fill="#6366F1"></circle><circle cx="174.78" cy="210.49" r="2.6" fill="#6366F1"></circle><circle cx="182.7" cy="266.33" r="2.6" fill="#6366F1"></circle><circle cx="190.62" cy="232.33" r="2.6" fill="#6366F1"></circle><circle cx="198.54" cy="232.27" r="2.6" fill="#6366F1"></circle><circle cx="206.46" cy="199.16" r="2.6" fill="#6366F1"></circle><circle cx="214.38" cy="237.91" r="2.6" fill="#6366F1"></circle><circle cx="222.3" cy="252.97" r="2.6" fill="#6366F1"></circle><circle cx="230.22" cy="266.11" r="2.6" fill="#6366F1"></circle><circle cx="238.14" cy="215.25" r="2.6" fill="#6366F1"></circle><circle cx="246.05" cy="265.97" r="2.6" fill="#6366F1"></circle><circle cx="253.97" cy="258.25" r="2.6" fill="#6366F1"></circle><circle cx="261.89" cy="265.82" r="2.6" fill="#6366F1"></circle><circle cx="269.81" cy="246.69" r="2.6" fill="#6366F1"></circle><circle cx="277.73" cy="244.53" r="2.6" fill="#6366F1"></circle><circle cx="293.57" cy="240.91" r="2.6" fill="#6366F1"></circle><circle cx="301.49" cy="255.51" r="2.6" fill="#6366F1"></circle><circle cx="309.41" cy="252.51" r="2.6" fill="#6366F1"></circle><circle cx="317.32" cy="237.2" r="2.6" fill="#6366F1"></circle><circle cx="325.24" cy="258.24" r="2.6" fill="#6366F1"></circle><circle cx="333.16" cy="235.84" r="2.6" fill="#6366F1"></circle><circle cx="341.08" cy="252.87" r="2.6" fill="#6366F1"></circle><circle cx="349" cy="243.73" r="2.6" fill="#6366F1"></circle><circle cx="356.92" cy="249.01" r="2.6" fill="#6366F1"></circle><circle cx="372.76" cy="263.05" r="2.6" fill="#6366F1"></circle><circle cx="380.68" cy="262.95" r="2.6" fill="#6366F1"></circle><circle cx="388.59" cy="250.85" r="2.6" fill="#6366F1"></circle><circle cx="396.51" cy="238.76" r="2.6" fill="#6366F1"></circle><circle cx="404.43" cy="245.84" r="2.6" fill="#6366F1"></circle><circle cx="412.35" cy="240.49" r="2.6" fill="#6366F1"></circle><circle cx="420.27" cy="244.58" r="2.6" fill="#6366F1"></circle><circle cx="428.19" cy="238.25" r="2.6" fill="#6366F1"></circle><circle cx="436.11" cy="266.43" r="2.6" fill="#6366F1"></circle><circle cx="444.03" cy="219.91" r="2.6" fill="#6366F1"></circle><circle cx="451.95" cy="256.77" r="2.6" fill="#6366F1"></circle><circle cx="467.78" cy="250.11" r="2.6" fill="#6366F1"></circle><circle cx="475.7" cy="264.15" r="2.6" fill="#6366F1"></circle><circle cx="483.62" cy="249.18" r="2.6" fill="#6366F1"></circle><circle cx="491.54" cy="252.64" r="2.6" fill="#6366F1"></circle><circle cx="499.46" cy="236.94" r="2.6" fill="#6366F1"></circle><circle cx="507.38" cy="257.91" r="2.6" fill="#6366F1"></circle><circle cx="515.3" cy="245.05" r="2.6" fill="#6366F1"></circle><circle cx="523.22" cy="245.47" r="2.6" fill="#6366F1"></circle><circle cx="531.14" cy="251.25" r="2.6" fill="#6366F1"></circle><circle cx="539.05" cy="250.75" r="2.6" fill="#6366F1"></circle><circle cx="546.97" cy="249.01" r="2.6" fill="#6366F1"></circle><circle cx="554.89" cy="257.36" r="2.6" fill="#6366F1"></circle><circle cx="562.81" cy="265.15" r="2.6" fill="#6366F1"></circle><circle cx="570.73" cy="253.64" r="2.6" fill="#6366F1"></circle><circle cx="578.65" cy="262.66" r="2.6" fill="#6366F1"></circle><circle cx="586.57" cy="253.56" r="2.6" fill="#6366F1"></circle><circle cx="594.49" cy="247.85" r="2.6" fill="#6366F1"></circle><circle cx="602.41" cy="241.21" r="2.6" fill="#6366F1"></circle><circle cx="610.32" cy="265.06" r="2.6" fill="#6366F1"></circle><circle cx="618.24" cy="257.2" r="2.6" fill="#6366F1"></circle><circle cx="626.16" cy="265.73" r="2.6" fill="#6366F1"></circle><circle cx="634.08" cy="265.31" r="2.6" fill="#6366F1"></circle><circle cx="642" cy="250.21" r="2.6" fill="#6366F1"></circle><polyline fill="none" stroke="#2DA98C" stroke-width="2.4" stroke-linejoin="round" stroke-linecap="round" points="56,205.26 63.92,215.39 71.84,174.15 79.76,217.56 87.68,218.68 95.59,227.57 103.51,203.76 111.43,192.14 119.35,215.35 127.27,194.78 135.19,194.92 143.11,141.5 151.03,148.87 158.95,194.84 166.86,180.85 174.78,202.09 182.7,169.08 190.62,211.29 198.54,193.77 206.46,192.04 214.38,206.61 293.57,221.15 301.49,190.23 309.41,183.33 317.32,225.15 325.24,184.37 333.16,182.1 341.08,210.86 349,161.53 356.92,210.56 372.76,182.01 380.68,172.32 388.59,181.93 396.51,186.76 404.43,217.59 412.35,171.76 420.27,211.13 428.19,171.55 436.11,181.17 444.03,189.96 451.95,191.02 467.78,212.98 475.7,170.09 483.62,127.97 491.54,222.7 499.46,200.4 507.38,155.75 515.3,184.88 523.22,176.48 531.14,167.89 539.05,205.24 546.97,167.24 554.89,154.57 562.81,196.61 570.73,154.13 578.65,196.6 586.57,203.92 594.49,125.1 602.41,151.41 610.32,176.39 618.24,198.69"></polyline><circle cx="56" cy="205.26" r="2.6" fill="#2DA98C"></circle><circle cx="63.92" cy="215.39" r="2.6" fill="#2DA98C"></circle><circle cx="71.84" cy="174.15" r="2.6" fill="#2DA98C"></circle><circle cx="79.76" cy="217.56" r="2.6" fill="#2DA98C"></circle><circle cx="87.68" cy="218.68" r="2.6" fill="#2DA98C"></circle><circle cx="95.59" cy="227.57" r="2.6" fill="#2DA98C"></circle><circle cx="103.51" cy="203.76" r="2.6" fill="#2DA98C"></circle><circle cx="111.43" cy="192.14" r="2.6" fill="#2DA98C"></circle><circle cx="119.35" cy="215.35" r="2.6" fill="#2DA98C"></circle><circle cx="127.27" cy="194.78" r="2.6" fill="#2DA98C"></circle><circle cx="135.19" cy="194.92" r="2.6" fill="#2DA98C"></circle><circle cx="143.11" cy="141.5" r="2.6" fill="#2DA98C"></circle><circle cx="151.03" cy="148.87" r="2.6" fill="#2DA98C"></circle><circle cx="158.95" cy="194.84" r="2.6" fill="#2DA98C"></circle><circle cx="166.86" cy="180.85" r="2.6" fill="#2DA98C"></circle><circle cx="174.78" cy="202.09" r="2.6" fill="#2DA98C"></circle><circle cx="182.7" cy="169.08" r="2.6" fill="#2DA98C"></circle><circle cx="190.62" cy="211.29" r="2.6" fill="#2DA98C"></circle><circle cx="198.54" cy="193.77" r="2.6" fill="#2DA98C"></circle><circle cx="206.46" cy="192.04" r="2.6" fill="#2DA98C"></circle><circle cx="214.38" cy="206.61" r="2.6" fill="#2DA98C"></circle><circle cx="293.57" cy="221.15" r="2.6" fill="#2DA98C"></circle><circle cx="301.49" cy="190.23" r="2.6" fill="#2DA98C"></circle><circle cx="309.41" cy="183.33" r="2.6" fill="#2DA98C"></circle><circle cx="317.32" cy="225.15" r="2.6" fill="#2DA98C"></circle><circle cx="325.24" cy="184.37" r="2.6" fill="#2DA98C"></circle><circle cx="333.16" cy="182.1" r="2.6" fill="#2DA98C"></circle><circle cx="341.08" cy="210.86" r="2.6" fill="#2DA98C"></circle><circle cx="349" cy="161.53" r="2.6" fill="#2DA98C"></circle><circle cx="356.92" cy="210.56" r="2.6" fill="#2DA98C"></circle><circle cx="372.76" cy="182.01" r="2.6" fill="#2DA98C"></circle><circle cx="380.68" cy="172.32" r="2.6" fill="#2DA98C"></circle><circle cx="388.59" cy="181.93" r="2.6" fill="#2DA98C"></circle><circle cx="396.51" cy="186.76" r="2.6" fill="#2DA98C"></circle><circle cx="404.43" cy="217.59" r="2.6" fill="#2DA98C"></circle><circle cx="412.35" cy="171.76" r="2.6" fill="#2DA98C"></circle><circle cx="420.27" cy="211.13" r="2.6" fill="#2DA98C"></circle><circle cx="428.19" cy="171.55" r="2.6" fill="#2DA98C"></circle><circle cx="436.11" cy="181.17" r="2.6" fill="#2DA98C"></circle><circle cx="444.03" cy="189.96" r="2.6" fill="#2DA98C"></circle><circle cx="451.95" cy="191.02" r="2.6" fill="#2DA98C"></circle><circle cx="467.78" cy="212.98" r="2.6" fill="#2DA98C"></circle><circle cx="475.7" cy="170.09" r="2.6" fill="#2DA98C"></circle><circle cx="483.62" cy="127.97" r="2.6" fill="#2DA98C"></circle><circle cx="491.54" cy="222.7" r="2.6" fill="#2DA98C"></circle><circle cx="499.46" cy="200.4" r="2.6" fill="#2DA98C"></circle><circle cx="507.38" cy="155.75" r="2.6" fill="#2DA98C"></circle><circle cx="515.3" cy="184.88" r="2.6" fill="#2DA98C"></circle><circle cx="523.22" cy="176.48" r="2.6" fill="#2DA98C"></circle><circle cx="531.14" cy="167.89" r="2.6" fill="#2DA98C"></circle><circle cx="539.05" cy="205.24" r="2.6" fill="#2DA98C"></circle><circle cx="546.97" cy="167.24" r="2.6" fill="#2DA98C"></circle><circle cx="554.89" cy="154.57" r="2.6" fill="#2DA98C"></circle><circle cx="562.81" cy="196.61" r="2.6" fill="#2DA98C"></circle><circle cx="570.73" cy="154.13" r="2.6" fill="#2DA98C"></circle><circle cx="578.65" cy="196.6" r="2.6" fill="#2DA98C"></circle><circle cx="586.57" cy="203.92" r="2.6" fill="#2DA98C"></circle><circle cx="594.49" cy="125.1" r="2.6" fill="#2DA98C"></circle><circle cx="602.41" cy="151.41" r="2.6" fill="#2DA98C"></circle><circle cx="610.32" cy="176.39" r="2.6" fill="#2DA98C"></circle><circle cx="618.24" cy="198.69" r="2.6" fill="#2DA98C"></circle><polyline fill="none" stroke="#A371F7" stroke-width="2.4" stroke-linejoin="round" stroke-linecap="round" points="56,127.86 63.92,149.85 71.84,181.76 79.76,139.24 87.68,107.36 95.59,219.97 103.51,116.3 111.43,182.89 119.35,193.78 127.27,197.11 135.19,105.85 143.11,146.07 151.03,181.42 158.95,202.88 166.86,134.79 174.78,219.07 182.7,58.83 190.62,197.05 198.54,167.66 206.46,75.26 214.38,128.5 222.3,152.23 230.22,166.9 238.14,183.57 246.05,162.79 253.97,148.18 261.89,52.43 269.81,96.59 277.73,191.76 293.57,151.86 301.49,169.19 309.41,135.22 325.24,206.77 333.16,167.88 341.08,189.32 349,143.76 356.92,142.49 364.84,163.7 372.76,128.52 380.68,144.9 388.59,92.3 396.51,157.36 404.43,160.21 412.35,176.32 420.27,116.21 428.19,165.98 436.11,136.47 451.95,155.12 467.78,134.62 483.62,114.6 491.54,127.72 499.46,219.84 507.38,170.06 515.3,154.88 523.22,189.66 531.14,162.21 539.05,183.03 546.97,165.52 554.89,176.75 562.81,155.74 578.65,148.44 586.57,196.35 594.49,143.94 602.41,112.27 610.32,149.32 618.24,161.5 626.16,199.8 634.08,197.27 642,116.93"></polyline><circle cx="56" cy="127.86" r="2.6" fill="#A371F7"></circle><circle cx="63.92" cy="149.85" r="2.6" fill="#A371F7"></circle><circle cx="71.84" cy="181.76" r="2.6" fill="#A371F7"></circle><circle cx="79.76" cy="139.24" r="2.6" fill="#A371F7"></circle><circle cx="87.68" cy="107.36" r="2.6" fill="#A371F7"></circle><circle cx="95.59" cy="219.97" r="2.6" fill="#A371F7"></circle><circle cx="103.51" cy="116.3" r="2.6" fill="#A371F7"></circle><circle cx="111.43" cy="182.89" r="2.6" fill="#A371F7"></circle><circle cx="119.35" cy="193.78" r="2.6" fill="#A371F7"></circle><circle cx="127.27" cy="197.11" r="2.6" fill="#A371F7"></circle><circle cx="135.19" cy="105.85" r="2.6" fill="#A371F7"></circle><circle cx="143.11" cy="146.07" r="2.6" fill="#A371F7"></circle><circle cx="151.03" cy="181.42" r="2.6" fill="#A371F7"></circle><circle cx="158.95" cy="202.88" r="2.6" fill="#A371F7"></circle><circle cx="166.86" cy="134.79" r="2.6" fill="#A371F7"></circle><circle cx="174.78" cy="219.07" r="2.6" fill="#A371F7"></circle><circle cx="182.7" cy="58.83" r="2.6" fill="#A371F7"></circle><circle cx="190.62" cy="197.05" r="2.6" fill="#A371F7"></circle><circle cx="198.54" cy="167.66" r="2.6" fill="#A371F7"></circle><circle cx="206.46" cy="75.26" r="2.6" fill="#A371F7"></circle><circle cx="214.38" cy="128.5" r="2.6" fill="#A371F7"></circle><circle cx="222.3" cy="152.23" r="2.6" fill="#A371F7"></circle><circle cx="230.22" cy="166.9" r="2.6" fill="#A371F7"></circle><circle cx="238.14" cy="183.57" r="2.6" fill="#A371F7"></circle><circle cx="246.05" cy="162.79" r="2.6" fill="#A371F7"></circle><circle cx="253.97" cy="148.18" r="2.6" fill="#A371F7"></circle><circle cx="261.89" cy="52.43" r="2.6" fill="#A371F7"></circle><circle cx="269.81" cy="96.59" r="2.6" fill="#A371F7"></circle><circle cx="277.73" cy="191.76" r="2.6" fill="#A371F7"></circle><circle cx="293.57" cy="151.86" r="2.6" fill="#A371F7"></circle><circle cx="301.49" cy="169.19" r="2.6" fill="#A371F7"></circle><circle cx="309.41" cy="135.22" r="2.6" fill="#A371F7"></circle><circle cx="325.24" cy="206.77" r="2.6" fill="#A371F7"></circle><circle cx="333.16" cy="167.88" r="2.6" fill="#A371F7"></circle><circle cx="341.08" cy="189.32" r="2.6" fill="#A371F7"></circle><circle cx="349" cy="143.76" r="2.6" fill="#A371F7"></circle><circle cx="356.92" cy="142.49" r="2.6" fill="#A371F7"></circle><circle cx="364.84" cy="163.7" r="2.6" fill="#A371F7"></circle><circle cx="372.76" cy="128.52" r="2.6" fill="#A371F7"></circle><circle cx="380.68" cy="144.9" r="2.6" fill="#A371F7"></circle><circle cx="388.59" cy="92.3" r="2.6" fill="#A371F7"></circle><circle cx="396.51" cy="157.36" r="2.6" fill="#A371F7"></circle><circle cx="404.43" cy="160.21" r="2.6" fill="#A371F7"></circle><circle cx="412.35" cy="176.32" r="2.6" fill="#A371F7"></circle><circle cx="420.27" cy="116.21" r="2.6" fill="#A371F7"></circle><circle cx="428.19" cy="165.98" r="2.6" fill="#A371F7"></circle><circle cx="436.11" cy="136.47" r="2.6" fill="#A371F7"></circle><circle cx="451.95" cy="155.12" r="2.6" fill="#A371F7"></circle><circle cx="467.78" cy="134.62" r="2.6" fill="#A371F7"></circle><circle cx="483.62" cy="114.6" r="2.6" fill="#A371F7"></circle><circle cx="491.54" cy="127.72" r="2.6" fill="#A371F7"></circle><circle cx="499.46" cy="219.84" r="2.6" fill="#A371F7"></circle><circle cx="507.38" cy="170.06" r="2.6" fill="#A371F7"></circle><circle cx="515.3" cy="154.88" r="2.6" fill="#A371F7"></circle><circle cx="523.22" cy="189.66" r="2.6" fill="#A371F7"></circle><circle cx="531.14" cy="162.21" r="2.6" fill="#A371F7"></circle><circle cx="539.05" cy="183.03" r="2.6" fill="#A371F7"></circle><circle cx="546.97" cy="165.52" r="2.6" fill="#A371F7"></circle><circle cx="554.89" cy="176.75" r="2.6" fill="#A371F7"></circle><circle cx="562.81" cy="155.74" r="2.6" fill="#A371F7"></circle><circle cx="578.65" cy="148.44" r="2.6" fill="#A371F7"></circle><circle cx="586.57" cy="196.35" r="2.6" fill="#A371F7"></circle><circle cx="594.49" cy="143.94" r="2.6" fill="#A371F7"></circle><circle cx="602.41" cy="112.27" r="2.6" fill="#A371F7"></circle><circle cx="610.32" cy="149.32" r="2.6" fill="#A371F7"></circle><circle cx="618.24" cy="161.5" r="2.6" fill="#A371F7"></circle><circle cx="626.16" cy="199.8" r="2.6" fill="#A371F7"></circle><circle cx="634.08" cy="197.27" r="2.6" fill="#A371F7"></circle><circle cx="642" cy="116.93" r="2.6" fill="#A371F7"></circle><polyline fill="none" stroke="#F0A23B" stroke-width="2.4" stroke-linejoin="round" stroke-linecap="round" points="56,170.6 63.92,150.62 71.84,187.27 79.76,153.33 87.68,137.4 95.59,187.39 103.51,202.98 111.43,219.57 119.35,187.3 127.27,163.64 135.19,218.54 143.11,247.9 151.03,222.75 158.95,249.71 166.86,224.7 174.78,243.69 182.7,245.81 190.62,211.84 198.54,236.21 206.46,257.78 214.38,248.63 222.3,234.2 230.22,247.57 238.14,243.66 246.05,258.59 253.97,253.94 261.89,235.44 269.81,209.7 277.73,229.87 285.65,229.74 293.57,242.74 301.49,219.28 309.41,218.69 317.32,248.17 325.24,252.02 333.16,241.64 341.08,202.83 349,191.16 356.92,236.21 364.84,247.47 372.76,237.91 380.68,227.46 388.59,241.35 396.51,249.73 404.43,234.66 412.35,250 420.27,253.94 428.19,252.42 436.11,245.42 444.03,237.98 451.95,238.85 467.78,257.8 475.7,233.33 483.62,238.96 491.54,252.16 499.46,246.34 507.38,221.3 515.3,228.03 523.22,249.57 531.14,236.95 539.05,243.86 546.97,246.88 554.89,238.45 562.81,247.92 578.65,235.92 586.57,214.9 594.49,201.77 602.41,219.97 610.32,238.65 618.24,232.47 626.16,220.62 634.08,227.53 642,228.6"></polyline><circle cx="56" cy="170.6" r="2.6" fill="#F0A23B"></circle><circle cx="63.92" cy="150.62" r="2.6" fill="#F0A23B"></circle><circle cx="71.84" cy="187.27" r="2.6" fill="#F0A23B"></circle><circle cx="79.76" cy="153.33" r="2.6" fill="#F0A23B"></circle><circle cx="87.68" cy="137.4" r="2.6" fill="#F0A23B"></circle><circle cx="95.59" cy="187.39" r="2.6" fill="#F0A23B"></circle><circle cx="103.51" cy="202.98" r="2.6" fill="#F0A23B"></circle><circle cx="111.43" cy="219.57" r="2.6" fill="#F0A23B"></circle><circle cx="119.35" cy="187.3" r="2.6" fill="#F0A23B"></circle><circle cx="127.27" cy="163.64" r="2.6" fill="#F0A23B"></circle><circle cx="135.19" cy="218.54" r="2.6" fill="#F0A23B"></circle><circle cx="143.11" cy="247.9" r="2.6" fill="#F0A23B"></circle><circle cx="151.03" cy="222.75" r="2.6" fill="#F0A23B"></circle><circle cx="158.95" cy="249.71" r="2.6" fill="#F0A23B"></circle><circle cx="166.86" cy="224.7" r="2.6" fill="#F0A23B"></circle><circle cx="174.78" cy="243.69" r="2.6" fill="#F0A23B"></circle><circle cx="182.7" cy="245.81" r="2.6" fill="#F0A23B"></circle><circle cx="190.62" cy="211.84" r="2.6" fill="#F0A23B"></circle><circle cx="198.54" cy="236.21" r="2.6" fill="#F0A23B"></circle><circle cx="206.46" cy="257.78" r="2.6" fill="#F0A23B"></circle><circle cx="214.38" cy="248.63" r="2.6" fill="#F0A23B"></circle><circle cx="222.3" cy="234.2" r="2.6" fill="#F0A23B"></circle><circle cx="230.22" cy="247.57" r="2.6" fill="#F0A23B"></circle><circle cx="238.14" cy="243.66" r="2.6" fill="#F0A23B"></circle><circle cx="246.05" cy="258.59" r="2.6" fill="#F0A23B"></circle><circle cx="253.97" cy="253.94" r="2.6" fill="#F0A23B"></circle><circle cx="261.89" cy="235.44" r="2.6" fill="#F0A23B"></circle><circle cx="269.81" cy="209.7" r="2.6" fill="#F0A23B"></circle><circle cx="277.73" cy="229.87" r="2.6" fill="#F0A23B"></circle><circle cx="285.65" cy="229.74" r="2.6" fill="#F0A23B"></circle><circle cx="293.57" cy="242.74" r="2.6" fill="#F0A23B"></circle><circle cx="301.49" cy="219.28" r="2.6" fill="#F0A23B"></circle><circle cx="309.41" cy="218.69" r="2.6" fill="#F0A23B"></circle><circle cx="317.32" cy="248.17" r="2.6" fill="#F0A23B"></circle><circle cx="325.24" cy="252.02" r="2.6" fill="#F0A23B"></circle><circle cx="333.16" cy="241.64" r="2.6" fill="#F0A23B"></circle><circle cx="341.08" cy="202.83" r="2.6" fill="#F0A23B"></circle><circle cx="349" cy="191.16" r="2.6" fill="#F0A23B"></circle><circle cx="356.92" cy="236.21" r="2.6" fill="#F0A23B"></circle><circle cx="364.84" cy="247.47" r="2.6" fill="#F0A23B"></circle><circle cx="372.76" cy="237.91" r="2.6" fill="#F0A23B"></circle><circle cx="380.68" cy="227.46" r="2.6" fill="#F0A23B"></circle><circle cx="388.59" cy="241.35" r="2.6" fill="#F0A23B"></circle><circle cx="396.51" cy="249.73" r="2.6" fill="#F0A23B"></circle><circle cx="404.43" cy="234.66" r="2.6" fill="#F0A23B"></circle><circle cx="412.35" cy="250" r="2.6" fill="#F0A23B"></circle><circle cx="420.27" cy="253.94" r="2.6" fill="#F0A23B"></circle><circle cx="428.19" cy="252.42" r="2.6" fill="#F0A23B"></circle><circle cx="436.11" cy="245.42" r="2.6" fill="#F0A23B"></circle><circle cx="444.03" cy="237.98" r="2.6" fill="#F0A23B"></circle><circle cx="451.95" cy="238.85" r="2.6" fill="#F0A23B"></circle><circle cx="467.78" cy="257.8" r="2.6" fill="#F0A23B"></circle><circle cx="475.7" cy="233.33" r="2.6" fill="#F0A23B"></circle><circle cx="483.62" cy="238.96" r="2.6" fill="#F0A23B"></circle><circle cx="491.54" cy="252.16" r="2.6" fill="#F0A23B"></circle><circle cx="499.46" cy="246.34" r="2.6" fill="#F0A23B"></circle><circle cx="507.38" cy="221.3" r="2.6" fill="#F0A23B"></circle><circle cx="515.3" cy="228.03" r="2.6" fill="#F0A23B"></circle><circle cx="523.22" cy="249.57" r="2.6" fill="#F0A23B"></circle><circle cx="531.14" cy="236.95" r="2.6" fill="#F0A23B"></circle><circle cx="539.05" cy="243.86" r="2.6" fill="#F0A23B"></circle><circle cx="546.97" cy="246.88" r="2.6" fill="#F0A23B"></circle><circle cx="554.89" cy="238.45" r="2.6" fill="#F0A23B"></circle><circle cx="562.81" cy="247.92" r="2.6" fill="#F0A23B"></circle><circle cx="578.65" cy="235.92" r="2.6" fill="#F0A23B"></circle><circle cx="586.57" cy="214.9" r="2.6" fill="#F0A23B"></circle><circle cx="594.49" cy="201.77" r="2.6" fill="#F0A23B"></circle><circle cx="602.41" cy="219.97" r="2.6" fill="#F0A23B"></circle><circle cx="610.32" cy="238.65" r="2.6" fill="#F0A23B"></circle><circle cx="618.24" cy="232.47" r="2.6" fill="#F0A23B"></circle><circle cx="626.16" cy="220.62" r="2.6" fill="#F0A23B"></circle><circle cx="634.08" cy="227.53" r="2.6" fill="#F0A23B"></circle><circle cx="642" cy="228.6" r="2.6" fill="#F0A23B"></circle><polyline fill="none" stroke="#1F9CF0" stroke-width="2.4" stroke-linejoin="round" stroke-linecap="round" points="56,198.31 63.92,224.59 71.84,214.73 79.76,247.97 87.68,236.75 95.59,219.64 103.51,238.79 111.43,207.95 119.35,201.38 127.27,239.3 135.19,242.33 143.11,177.25 151.03,218.95 158.95,232.82 166.86,248.48 174.78,252.97 182.7,230.93 190.62,242.47 198.54,240.12 206.46,248.48 214.38,256.65 222.3,261.44 230.22,262.41 238.14,264.75 246.05,261.4 253.97,262.76 261.89,244.65 269.81,230.98 277.73,234.56 285.65,260.01 293.57,254.76 301.49,238.53 309.41,231.76 317.32,226.22 325.24,247.36 333.16,238.78 341.08,250.58 349,256.4 356.92,243.61 364.84,265.98 372.76,253.29 380.68,225.25 388.59,246.45 396.51,252.36 404.43,241.14 412.35,253.3 420.27,245.06 428.19,205.73 436.11,260.99 444.03,265.11 451.95,263.66 459.86,270.45 467.78,265.53 475.7,248.25 483.62,259.3 491.54,255.01 554.89,259.54 562.81,255.12 570.73,241.05 578.65,228.97 586.57,234.99 594.49,233 602.41,242.76 610.32,238.49 618.24,251.01 626.16,203.87 634.08,219.17 642,100.57"></polyline><circle cx="56" cy="198.31" r="2.6" fill="#1F9CF0"></circle><circle cx="63.92" cy="224.59" r="2.6" fill="#1F9CF0"></circle><circle cx="71.84" cy="214.73" r="2.6" fill="#1F9CF0"></circle><circle cx="79.76" cy="247.97" r="2.6" fill="#1F9CF0"></circle><circle cx="87.68" cy="236.75" r="2.6" fill="#1F9CF0"></circle><circle cx="95.59" cy="219.64" r="2.6" fill="#1F9CF0"></circle><circle cx="103.51" cy="238.79" r="2.6" fill="#1F9CF0"></circle><circle cx="111.43" cy="207.95" r="2.6" fill="#1F9CF0"></circle><circle cx="119.35" cy="201.38" r="2.6" fill="#1F9CF0"></circle><circle cx="127.27" cy="239.3" r="2.6" fill="#1F9CF0"></circle><circle cx="135.19" cy="242.33" r="2.6" fill="#1F9CF0"></circle><circle cx="143.11" cy="177.25" r="2.6" fill="#1F9CF0"></circle><circle cx="151.03" cy="218.95" r="2.6" fill="#1F9CF0"></circle><circle cx="158.95" cy="232.82" r="2.6" fill="#1F9CF0"></circle><circle cx="166.86" cy="248.48" r="2.6" fill="#1F9CF0"></circle><circle cx="174.78" cy="252.97" r="2.6" fill="#1F9CF0"></circle><circle cx="182.7" cy="230.93" r="2.6" fill="#1F9CF0"></circle><circle cx="190.62" cy="242.47" r="2.6" fill="#1F9CF0"></circle><circle cx="198.54" cy="240.12" r="2.6" fill="#1F9CF0"></circle><circle cx="206.46" cy="248.48" r="2.6" fill="#1F9CF0"></circle><circle cx="214.38" cy="256.65" r="2.6" fill="#1F9CF0"></circle><circle cx="222.3" cy="261.44" r="2.6" fill="#1F9CF0"></circle><circle cx="230.22" cy="262.41" r="2.6" fill="#1F9CF0"></circle><circle cx="238.14" cy="264.75" r="2.6" fill="#1F9CF0"></circle><circle cx="246.05" cy="261.4" r="2.6" fill="#1F9CF0"></circle><circle cx="253.97" cy="262.76" r="2.6" fill="#1F9CF0"></circle><circle cx="261.89" cy="244.65" r="2.6" fill="#1F9CF0"></circle><circle cx="269.81" cy="230.98" r="2.6" fill="#1F9CF0"></circle><circle cx="277.73" cy="234.56" r="2.6" fill="#1F9CF0"></circle><circle cx="285.65" cy="260.01" r="2.6" fill="#1F9CF0"></circle><circle cx="293.57" cy="254.76" r="2.6" fill="#1F9CF0"></circle><circle cx="301.49" cy="238.53" r="2.6" fill="#1F9CF0"></circle><circle cx="309.41" cy="231.76" r="2.6" fill="#1F9CF0"></circle><circle cx="317.32" cy="226.22" r="2.6" fill="#1F9CF0"></circle><circle cx="325.24" cy="247.36" r="2.6" fill="#1F9CF0"></circle><circle cx="333.16" cy="238.78" r="2.6" fill="#1F9CF0"></circle><circle cx="341.08" cy="250.58" r="2.6" fill="#1F9CF0"></circle><circle cx="349" cy="256.4" r="2.6" fill="#1F9CF0"></circle><circle cx="356.92" cy="243.61" r="2.6" fill="#1F9CF0"></circle><circle cx="364.84" cy="265.98" r="2.6" fill="#1F9CF0"></circle><circle cx="372.76" cy="253.29" r="2.6" fill="#1F9CF0"></circle><circle cx="380.68" cy="225.25" r="2.6" fill="#1F9CF0"></circle><circle cx="388.59" cy="246.45" r="2.6" fill="#1F9CF0"></circle><circle cx="396.51" cy="252.36" r="2.6" fill="#1F9CF0"></circle><circle cx="404.43" cy="241.14" r="2.6" fill="#1F9CF0"></circle><circle cx="412.35" cy="253.3" r="2.6" fill="#1F9CF0"></circle><circle cx="420.27" cy="245.06" r="2.6" fill="#1F9CF0"></circle><circle cx="428.19" cy="205.73" r="2.6" fill="#1F9CF0"></circle><circle cx="436.11" cy="260.99" r="2.6" fill="#1F9CF0"></circle><circle cx="444.03" cy="265.11" r="2.6" fill="#1F9CF0"></circle><circle cx="451.95" cy="263.66" r="2.6" fill="#1F9CF0"></circle><circle cx="459.86" cy="270.45" r="2.6" fill="#1F9CF0"></circle><circle cx="467.78" cy="265.53" r="2.6" fill="#1F9CF0"></circle><circle cx="475.7" cy="248.25" r="2.6" fill="#1F9CF0"></circle><circle cx="483.62" cy="259.3" r="2.6" fill="#1F9CF0"></circle><circle cx="491.54" cy="255.01" r="2.6" fill="#1F9CF0"></circle><circle cx="554.89" cy="259.54" r="2.6" fill="#1F9CF0"></circle><circle cx="562.81" cy="255.12" r="2.6" fill="#1F9CF0"></circle><circle cx="570.73" cy="241.05" r="2.6" fill="#1F9CF0"></circle><circle cx="578.65" cy="228.97" r="2.6" fill="#1F9CF0"></circle><circle cx="586.57" cy="234.99" r="2.6" fill="#1F9CF0"></circle><circle cx="594.49" cy="233" r="2.6" fill="#1F9CF0"></circle><circle cx="602.41" cy="242.76" r="2.6" fill="#1F9CF0"></circle><circle cx="610.32" cy="238.49" r="2.6" fill="#1F9CF0"></circle><circle cx="618.24" cy="251.01" r="2.6" fill="#1F9CF0"></circle><circle cx="626.16" cy="203.87" r="2.6" fill="#1F9CF0"></circle><circle cx="634.08" cy="219.17" r="2.6" fill="#1F9CF0"></circle><circle cx="642" cy="100.57" r="2.6" fill="#1F9CF0"></circle><line x1="656" y1="27" x2="672" y2="27" stroke="#E8835A" stroke-width="3" stroke-linecap="round"></line><text x="678" y="30" font-size="11" font-weight="400" text-anchor="start" fill="#e6edf3">anthropic</text><line x1="656" y1="47" x2="672" y2="47" stroke="#6366F1" stroke-width="3" stroke-linecap="round"></line><text x="678" y="50" font-size="11" font-weight="400" text-anchor="start" fill="#e6edf3">deepseek</text><line x1="656" y1="67" x2="672" y2="67" stroke="#2DA98C" stroke-width="3" stroke-linecap="round"></line><text x="678" y="70" font-size="11" font-weight="400" text-anchor="start" fill="#e6edf3">gemini</text><line x1="656" y1="87" x2="672" y2="87" stroke="#A371F7" stroke-width="3" stroke-linecap="round"></line><text x="678" y="90" font-size="11" font-weight="400" text-anchor="start" fill="#e6edf3">llama</text><line x1="656" y1="107" x2="672" y2="107" stroke="#F0A23B" stroke-width="3" stroke-linecap="round"></line><text x="678" y="110" font-size="11" font-weight="400" text-anchor="start" fill="#e6edf3">mistral</text><line x1="656" y1="127" x2="672" y2="127" stroke="#1F9CF0" stroke-width="3" stroke-linecap="round"></line><text x="678" y="130" font-size="11" font-weight="400" text-anchor="start" fill="#e6edf3">openai</text></svg>
