<svg xmlns="http://www.w3.org/2000/svg" viewBox="0 0 600 300" width="600" height="300" role="img" aria-label="Avg LLM latency by provider over runs (s)"><text x="300.0" y="24" text-anchor="middle" font-family="system-ui, -apple-system, sans-serif" font-size="14" font-weight="600" fill="#333">Avg LLM latency by provider over runs (s)</text><line x1="60" y1="240.0" x2="480" y2="240.0" stroke="#eee" stroke-width="1"/><text x="54" y="244.0" text-anchor="end" font-family="system-ui, -apple-system, sans-serif" font-size="9" fill="#999">41.35</text><line x1="60" y1="140.0" x2="480" y2="140.0" stroke="#eee" stroke-width="1"/><text x="54" y="144.0" text-anchor="end" font-family="system-ui, -apple-system, sans-serif" font-size="9" fill="#999">168.1</text><line x1="60" y1="40.0" x2="480" y2="40.0" stroke="#eee" stroke-width="1"/><text x="54" y="44.0" text-anchor="end" font-family="system-ui, -apple-system, sans-serif" font-size="9" fill="#999">294.8</text><polyline fill="none" stroke="#4CAF50" stroke-width="2" points="60.0,173.8 74.0,197.9 88.0,188.9 102.0,219.4 116.0,209.1 130.0,193.4 144.0,211.0 158.0,182.7 172.0,176.6 186.0,211.4 200.0,214.2 214.0,154.5 228.0,192.8 242.0,205.5 256.0,219.9 270.0,224.0 284.0,203.8 298.0,214.3 312.0,212.2 326.0,219.9 340.0,227.4 354.0,231.8 368.0,232.6 382.0,234.8 396.0,231.7 410.0,233.0 424.0,216.3 438.0,203.8 452.0,207.1 466.0,230.4 480.0,225.6"/><circle cx="60.0" cy="173.8" r="3" fill="#4CAF50"/><circle cx="74.0" cy="197.9" r="3" fill="#4CAF50"/><circle cx="88.0" cy="188.9" r="3" fill="#4CAF50"/><circle cx="102.0" cy="219.4" r="3" fill="#4CAF50"/><circle cx="116.0" cy="209.1" r="3" fill="#4CAF50"/><circle cx="130.0" cy="193.4" r="3" fill="#4CAF50"/><circle cx="144.0" cy="211.0" r="3" fill="#4CAF50"/><circle cx="158.0" cy="182.7" r="3" fill="#4CAF50"/><circle cx="172.0" cy="176.6" r="3" fill="#4CAF50"/><circle cx="186.0" cy="211.4" r="3" fill="#4CAF50"/><circle cx="200.0" cy="214.2" r="3" fill="#4CAF50"/><circle cx="214.0" cy="154.5" r="3" fill="#4CAF50"/><circle cx="228.0" cy="192.8" r="3" fill="#4CAF50"/><circle cx="242.0" cy="205.5" r="3" fill="#4CAF50"/><circle cx="256.0" cy="219.9" r="3" fill="#4CAF50"/><circle cx="270.0" cy="224.0" r="3" fill="#4CAF50"/><circle cx="284.0" cy="203.8" r="3" fill="#4CAF50"/><circle cx="298.0" cy="214.3" r="3" fill="#4CAF50"/><circle cx="312.0" cy="212.2" r="3" fill="#4CAF50"/><circle cx="326.0" cy="219.9" r="3" fill="#4CAF50"/><circle cx="340.0" cy="227.4" r="3" fill="#4CAF50"/><circle cx="354.0" cy="231.8" r="3" fill="#4CAF50"/><circle cx="368.0" cy="232.6" r="3" fill="#4CAF50"/><circle cx="382.0" cy="234.8" r="3" fill="#4CAF50"/><circle cx="396.0" cy="231.7" r="3" fill="#4CAF50"/><circle cx="410.0" cy="233.0" r="3" fill="#4CAF50"/><circle cx="424.0" cy="216.3" r="3" fill="#4CAF50"/><circle cx="438.0" cy="203.8" r="3" fill="#4CAF50"/><circle cx="452.0" cy="207.1" r="3" fill="#4CAF50"/><circle cx="466.0" cy="230.4" r="3" fill="#4CAF50"/><circle cx="480.0" cy="225.6" r="3" fill="#4CAF50"/><rect x="490" y="44" width="10" height="10" fill="#4CAF50"/><text x="504" y="53" font-family="system-ui, -apple-system, sans-serif" font-size="10" fill="#333">openai</text><polyline fill="none" stroke="#2196F3" stroke-width="2" points="60.0,202.1 74.0,205.0 88.0,211.1 102.0,215.7 116.0,207.9 130.0,205.5 144.0,221.5 158.0,215.2 172.0,213.6 186.0,204.0 214.0,206.6 228.0,216.0 242.0,201.7 256.0,217.7 270.0,214.1 284.0,208.0 298.0,214.2 312.0,216.2 326.0,218.5 340.0,212.7 354.0,222.0 368.0,216.0 382.0,213.3 396.0,217.2 410.0,216.7 424.0,212.8 438.0,215.5 452.0,215.1 466.0,212.3 480.0,214.5"/><circle cx="60.0" cy="202.1" r="3" fill="#2196F3"/><circle cx="74.0" cy="205.0" r="3" fill="#2196F3"/><circle cx="88.0" cy="211.1" r="3" fill="#2196F3"/><circle cx="102.0" cy="215.7" r="3" fill="#2196F3"/><circle cx="116.0" cy="207.9" r="3" fill="#2196F3"/><circle cx="130.0" cy="205.5" r="3" fill="#2196F3"/><circle cx="144.0" cy="221.5" r="3" fill="#2196F3"/><circle cx="158.0" cy="215.2" r="3" fill="#2196F3"/><circle cx="172.0" cy="213.6" r="3" fill="#2196F3"/><circle cx="186.0" cy="204.0" r="3" fill="#2196F3"/><circle cx="214.0" cy="206.6" r="3" fill="#2196F3"/><circle cx="228.0" cy="216.0" r="3" fill="#2196F3"/><circle cx="242.0" cy="201.7" r="3" fill="#2196F3"/><circle cx="256.0" cy="217.7" r="3" fill="#2196F3"/><circle cx="270.0" cy="214.1" r="3" fill="#2196F3"/><circle cx="284.0" cy="208.0" r="3" fill="#2196F3"/><circle cx="298.0" cy="214.2" r="3" fill="#2196F3"/><circle cx="312.0" cy="216.2" r="3" fill="#2196F3"/><circle cx="326.0" cy="218.5" r="3" fill="#2196F3"/><circle cx="340.0" cy="212.7" r="3" fill="#2196F3"/><circle cx="354.0" cy="222.0" r="3" fill="#2196F3"/><circle cx="368.0" cy="216.0" r="3" fill="#2196F3"/><circle cx="382.0" cy="213.3" r="3" fill="#2196F3"/><circle cx="396.0" cy="217.2" r="3" fill="#2196F3"/><circle cx="410.0" cy="216.7" r="3" fill="#2196F3"/><circle cx="424.0" cy="212.8" r="3" fill="#2196F3"/><circle cx="438.0" cy="215.5" r="3" fill="#2196F3"/><circle cx="452.0" cy="215.1" r="3" fill="#2196F3"/><circle cx="466.0" cy="212.3" r="3" fill="#2196F3"/><circle cx="480.0" cy="214.5" r="3" fill="#2196F3"/><rect x="490" y="62" width="10" height="10" fill="#2196F3"/><text x="504" y="71" font-family="system-ui, -apple-system, sans-serif" font-size="10" fill="#333">anthropic</text><polyline fill="none" stroke="#FF9800" stroke-width="2" points="60.0,180.2 74.0,189.5 88.0,151.7 102.0,191.5 116.0,192.5 130.0,200.7 144.0,178.8 158.0,168.2 172.0,189.5 186.0,170.6 200.0,170.7 214.0,121.7 228.0,128.5 242.0,170.7 256.0,157.8 270.0,177.3 284.0,147.0 298.0,185.7 312.0,169.7 326.0,168.1 340.0,181.5 480.0,194.8"/><circle cx="60.0" cy="180.2" r="3" fill="#FF9800"/><circle cx="74.0" cy="189.5" r="3" fill="#FF9800"/><circle cx="88.0" cy="151.7" r="3" fill="#FF9800"/><circle cx="102.0" cy="191.5" r="3" fill="#FF9800"/><circle cx="116.0" cy="192.5" r="3" fill="#FF9800"/><circle cx="130.0" cy="200.7" r="3" fill="#FF9800"/><circle cx="144.0" cy="178.8" r="3" fill="#FF9800"/><circle cx="158.0" cy="168.2" r="3" fill="#FF9800"/><circle cx="172.0" cy="189.5" r="3" fill="#FF9800"/><circle cx="186.0" cy="170.6" r="3" fill="#FF9800"/><circle cx="200.0" cy="170.7" r="3" fill="#FF9800"/><circle cx="214.0" cy="121.7" r="3" fill="#FF9800"/><circle cx="228.0" cy="128.5" r="3" fill="#FF9800"/><circle cx="242.0" cy="170.7" r="3" fill="#FF9800"/><circle cx="256.0" cy="157.8" r="3" fill="#FF9800"/><circle cx="270.0" cy="177.3" r="3" fill="#FF9800"/><circle cx="284.0" cy="147.0" r="3" fill="#FF9800"/><circle cx="298.0" cy="185.7" r="3" fill="#FF9800"/><circle cx="312.0" cy="169.7" r="3" fill="#FF9800"/><circle cx="326.0" cy="168.1" r="3" fill="#FF9800"/><circle cx="340.0" cy="181.5" r="3" fill="#FF9800"/><circle cx="480.0" cy="194.8" r="3" fill="#FF9800"/><rect x="490" y="80" width="10" height="10" fill="#FF9800"/><text x="504" y="89" font-family="system-ui, -apple-system, sans-serif" font-size="10" fill="#333">gemini</text><polyline fill="none" stroke="#E91E63" stroke-width="2" points="60.0,109.2 74.0,129.4 88.0,158.6 102.0,119.6 116.0,90.4 130.0,193.7 144.0,98.6 158.0,159.7 172.0,169.7 186.0,172.7 200.0,89.0 214.0,125.9 228.0,158.3 242.0,178.0 256.0,115.6 270.0,192.9 284.0,45.9 298.0,172.7 312.0,145.7 326.0,60.9 340.0,109.8 354.0,131.6 368.0,145.0 382.0,160.3 396.0,141.2 410.0,127.8 424.0,40.0 438.0,80.5 452.0,167.8 480.0,131.2"/><circle cx="60.0" cy="109.2" r="3" fill="#E91E63"/><circle cx="74.0" cy="129.4" r="3" fill="#E91E63"/><circle cx="88.0" cy="158.6" r="3" fill="#E91E63"/><circle cx="102.0" cy="119.6" r="3" fill="#E91E63"/><circle cx="116.0" cy="90.4" r="3" fill="#E91E63"/><circle cx="130.0" cy="193.7" r="3" fill="#E91E63"/><circle cx="144.0" cy="98.6" r="3" fill="#E91E63"/><circle cx="158.0" cy="159.7" r="3" fill="#E91E63"/><circle cx="172.0" cy="169.7" r="3" fill="#E91E63"/><circle cx="186.0" cy="172.7" r="3" fill="#E91E63"/><circle cx="200.0" cy="89.0" r="3" fill="#E91E63"/><circle cx="214.0" cy="125.9" r="3" fill="#E91E63"/><circle cx="228.0" cy="158.3" r="3" fill="#E91E63"/><circle cx="242.0" cy="178.0" r="3" fill="#E91E63"/><circle cx="256.0" cy="115.6" r="3" fill="#E91E63"/><circle cx="270.0" cy="192.9" r="3" fill="#E91E63"/><circle cx="284.0" cy="45.9" r="3" fill="#E91E63"/><circle cx="298.0" cy="172.7" r="3" fill="#E91E63"/><circle cx="312.0" cy="145.7" r="3" fill="#E91E63"/><circle cx="326.0" cy="60.9" r="3" fill="#E91E63"/><circle cx="340.0" cy="109.8" r="3" fill="#E91E63"/><circle cx="354.0" cy="131.6" r="3" fill="#E91E63"/><circle cx="368.0" cy="145.0" r="3" fill="#E91E63"/><circle cx="382.0" cy="160.3" r="3" fill="#E91E63"/><circle cx="396.0" cy="141.2" r="3" fill="#E91E63"/><circle cx="410.0" cy="127.8" r="3" fill="#E91E63"/><circle cx="424.0" cy="40.0" r="3" fill="#E91E63"/><circle cx="438.0" cy="80.5" r="3" fill="#E91E63"/><circle cx="452.0" cy="167.8" r="3" fill="#E91E63"/><circle cx="480.0" cy="131.2" r="3" fill="#E91E63"/><rect x="490" y="98" width="10" height="10" fill="#E91E63"/><text x="504" y="107" font-family="system-ui, -apple-system, sans-serif" font-size="10" fill="#333">llama</text><polyline fill="none" stroke="#9C27B0" stroke-width="2" points="60.0,148.4 74.0,130.1 88.0,163.7 102.0,132.6 116.0,118.0 130.0,163.8 144.0,178.1 158.0,193.3 172.0,163.7 186.0,142.0 200.0,192.4 214.0,219.3 228.0,196.3 242.0,221.0 256.0,198.0 270.0,215.5 284.0,217.4 298.0,186.2 312.0,208.6 326.0,228.4 340.0,220.0 354.0,206.8 368.0,219.0 382.0,215.4 396.0,229.1 410.0,224.9 424.0,207.9 438.0,184.3 452.0,202.8 466.0,202.7 480.0,214.6"/><circle cx="60.0" cy="148.4" r="3" fill="#9C27B0"/><circle cx="74.0" cy="130.1" r="3" fill="#9C27B0"/><circle cx="88.0" cy="163.7" r="3" fill="#9C27B0"/><circle cx="102.0" cy="132.6" r="3" fill="#9C27B0"/><circle cx="116.0" cy="118.0" r="3" fill="#9C27B0"/><circle cx="130.0" cy="163.8" r="3" fill="#9C27B0"/><circle cx="144.0" cy="178.1" r="3" fill="#9C27B0"/><circle cx="158.0" cy="193.3" r="3" fill="#9C27B0"/><circle cx="172.0" cy="163.7" r="3" fill="#9C27B0"/><circle cx="186.0" cy="142.0" r="3" fill="#9C27B0"/><circle cx="200.0" cy="192.4" r="3" fill="#9C27B0"/><circle cx="214.0" cy="219.3" r="3" fill="#9C27B0"/><circle cx="228.0" cy="196.3" r="3" fill="#9C27B0"/><circle cx="242.0" cy="221.0" r="3" fill="#9C27B0"/><circle cx="256.0" cy="198.0" r="3" fill="#9C27B0"/><circle cx="270.0" cy="215.5" r="3" fill="#9C27B0"/><circle cx="284.0" cy="217.4" r="3" fill="#9C27B0"/><circle cx="298.0" cy="186.2" r="3" fill="#9C27B0"/><circle cx="312.0" cy="208.6" r="3" fill="#9C27B0"/><circle cx="326.0" cy="228.4" r="3" fill="#9C27B0"/><circle cx="340.0" cy="220.0" r="3" fill="#9C27B0"/><circle cx="354.0" cy="206.8" r="3" fill="#9C27B0"/><circle cx="368.0" cy="219.0" r="3" fill="#9C27B0"/><circle cx="382.0" cy="215.4" r="3" fill="#9C27B0"/><circle cx="396.0" cy="229.1" r="3" fill="#9C27B0"/><circle cx="410.0" cy="224.9" r="3" fill="#9C27B0"/><circle cx="424.0" cy="207.9" r="3" fill="#9C27B0"/><circle cx="438.0" cy="184.3" r="3" fill="#9C27B0"/><circle cx="452.0" cy="202.8" r="3" fill="#9C27B0"/><circle cx="466.0" cy="202.7" r="3" fill="#9C27B0"/><circle cx="480.0" cy="214.6" r="3" fill="#9C27B0"/><rect x="490" y="116" width="10" height="10" fill="#9C27B0"/><text x="504" y="125" font-family="system-ui, -apple-system, sans-serif" font-size="10" fill="#333">mistral</text><polyline fill="none" stroke="#00BCD4" stroke-width="2" points="74.0,218.7 88.0,214.3 102.0,221.2 116.0,203.3 130.0,230.6 144.0,230.7 158.0,240.0 172.0,220.3 186.0,216.8 200.0,219.3 214.0,227.0 228.0,220.1 242.0,231.8 256.0,215.4 270.0,185.0 284.0,236.2 298.0,205.0 312.0,205.0 326.0,174.6 340.0,210.2 354.0,224.0 368.0,236.0 382.0,189.4 396.0,235.9 410.0,228.8 424.0,235.8 438.0,218.2 452.0,216.2 480.0,212.9"/><circle cx="74.0" cy="218.7" r="3" fill="#00BCD4"/><circle cx="88.0" cy="214.3" r="3" fill="#00BCD4"/><circle cx="102.0" cy="221.2" r="3" fill="#00BCD4"/><circle cx="116.0" cy="203.3" r="3" fill="#00BCD4"/><circle cx="130.0" cy="230.6" r="3" fill="#00BCD4"/><circle cx="144.0" cy="230.7" r="3" fill="#00BCD4"/><circle cx="158.0" cy="240.0" r="3" fill="#00BCD4"/><circle cx="172.0" cy="220.3" r="3" fill="#00BCD4"/><circle cx="186.0" cy="216.8" r="3" fill="#00BCD4"/><circle cx="200.0" cy="219.3" r="3" fill="#00BCD4"/><circle cx="214.0" cy="227.0" r="3" fill="#00BCD4"/><circle cx="228.0" cy="220.1" r="3" fill="#00BCD4"/><circle cx="242.0" cy="231.8" r="3" fill="#00BCD4"/><circle cx="256.0" cy="215.4" r="3" fill="#00BCD4"/><circle cx="270.0" cy="185.0" r="3" fill="#00BCD4"/><circle cx="284.0" cy="236.2" r="3" fill="#00BCD4"/><circle cx="298.0" cy="205.0" r="3" fill="#00BCD4"/><circle cx="312.0" cy="205.0" r="3" fill="#00BCD4"/><circle cx="326.0" cy="174.6" r="3" fill="#00BCD4"/><circle cx="340.0" cy="210.2" r="3" fill="#00BCD4"/><circle cx="354.0" cy="224.0" r="3" fill="#00BCD4"/><circle cx="368.0" cy="236.0" r="3" fill="#00BCD4"/><circle cx="382.0" cy="189.4" r="3" fill="#00BCD4"/><circle cx="396.0" cy="235.9" r="3" fill="#00BCD4"/><circle cx="410.0" cy="228.8" r="3" fill="#00BCD4"/><circle cx="424.0" cy="235.8" r="3" fill="#00BCD4"/><circle cx="438.0" cy="218.2" r="3" fill="#00BCD4"/><circle cx="452.0" cy="216.2" r="3" fill="#00BCD4"/><circle cx="480.0" cy="212.9" r="3" fill="#00BCD4"/><rect x="490" y="134" width="10" height="10" fill="#00BCD4"/><text x="504" y="143" font-family="system-ui, -apple-system, sans-serif" font-size="10" fill="#333">deepseek</text><text x="60.0" y="256.0" text-anchor="middle" font-family="system-ui, -apple-system, sans-serif" font-size="9" fill="#666">33376499</text><text x="102.0" y="256.0" text-anchor="middle" font-family="system-ui, -apple-system, sans-serif" font-size="9" fill="#666">53749546</text><text x="144.0" y="256.0" text-anchor="middle" font-family="system-ui, -apple-system, sans-serif" font-size="9" fill="#666">74446787</text><text x="186.0" y="256.0" text-anchor="middle" font-family="system-ui, -apple-system, sans-serif" font-size="9" fill="#666">76005435</text><text x="228.0" y="256.0" text-anchor="middle" font-family="system-ui, -apple-system, sans-serif" font-size="9" fill="#666">41073326</text><text x="270.0" y="256.0" text-anchor="middle" font-family="system-ui, -apple-system, sans-serif" font-size="9" fill="#666">11556178</text><text x="312.0" y="256.0" text-anchor="middle" font-family="system-ui, -apple-system, sans-serif" font-size="9" fill="#666">39004208</text><text x="354.0" y="256.0" text-anchor="middle" font-family="system-ui, -apple-system, sans-serif" font-size="9" fill="#666">99128981</text><text x="396.0" y="256.0" text-anchor="middle" font-family="system-ui, -apple-system, sans-serif" font-size="9" fill="#666">10405855</text><text x="438.0" y="256.0" text-anchor="middle" font-family="system-ui, -apple-system, sans-serif" font-size="9" fill="#666">65286172</text><text x="480.0" y="256.0" text-anchor="middle" font-family="system-ui, -apple-system, sans-serif" font-size="9" fill="#666">77617281</text></svg>
