<svg xmlns="http://www.w3.org/2000/svg" viewBox="0 0 760 348" width="760" height="348" role="img" aria-label="Average LLM latency by provider over runs — llama highest, deepseek lowest" font-family="-apple-system,BlinkMacSystemFont,'Segoe UI',system-ui,sans-serif"><line x1="56" y1="306" x2="642" y2="306" stroke="#d8dee4" stroke-width="1"></line><text x="46" y="310" font-size="9.5" font-weight="400" text-anchor="end" fill="#656d76" font-family="ui-monospace,SFMono-Regular,Menlo,monospace">0.0s</text><line x1="56" y1="235" x2="642" y2="235" stroke="#d8dee4" stroke-width="1"></line><text x="46" y="239" font-size="9.5" font-weight="400" text-anchor="end" fill="#656d76" font-family="ui-monospace,SFMono-Regular,Menlo,monospace">82.5s</text><line x1="56" y1="164" x2="642" y2="164" stroke="#d8dee4" stroke-width="1"></line><text x="46" y="168" font-size="9.5" font-weight="400" text-anchor="end" fill="#656d76" font-family="ui-monospace,SFMono-Regular,Menlo,monospace">165.1s</text><line x1="56" y1="93" x2="642" y2="93" stroke="#d8dee4" stroke-width="1"></line><text x="46" y="97" font-size="9.5" font-weight="400" text-anchor="end" fill="#656d76" font-family="ui-monospace,SFMono-Regular,Menlo,monospace">247.6s</text><line x1="56" y1="22" x2="642" y2="22" stroke="#d8dee4" stroke-width="1"></line><text x="46" y="26" font-size="9.5" font-weight="400" text-anchor="end" fill="#656d76" font-family="ui-monospace,SFMono-Regular,Menlo,monospace">330.2s</text><text x="56" y="324" font-size="9.5" font-weight="400" text-anchor="middle" fill="#656d76" font-family="ui-monospace,SFMono-Regular,Menlo,monospace">06/08</text><text x="109.27" y="324" font-size="9.5" font-weight="400" text-anchor="middle" fill="#656d76" font-family="ui-monospace,SFMono-Regular,Menlo,monospace">06/09</text><text x="162.55" y="324" font-size="9.5" font-weight="400" text-anchor="middle" fill="#656d76" font-family="ui-monospace,SFMono-Regular,Menlo,monospace">06/10</text><text x="215.82" y="324" font-size="9.5" font-weight="400" text-anchor="middle" fill="#656d76" font-family="ui-monospace,SFMono-Regular,Menlo,monospace">06/14</text><text x="269.09" y="324" font-size="9.5" font-weight="400" text-anchor="middle" fill="#656d76" font-family="ui-monospace,SFMono-Regular,Menlo,monospace">06/15</text><text x="322.36" y="324" font-size="9.5" font-weight="400" text-anchor="middle" fill="#656d76" font-family="ui-monospace,SFMono-Regular,Menlo,monospace">06/16</text><text x="375.64" y="324" font-size="9.5" font-weight="400" text-anchor="middle" fill="#656d76" font-family="ui-monospace,SFMono-Regular,Menlo,monospace">06/18</text><text x="428.91" y="324" font-size="9.5" font-weight="400" text-anchor="middle" fill="#656d76" font-family="ui-monospace,SFMono-Regular,Menlo,monospace">06/20</text><text x="482.18" y="324" font-size="9.5" font-weight="400" text-anchor="middle" fill="#656d76" font-family="ui-monospace,SFMono-Regular,Menlo,monospace">06/21</text><text x="535.45" y="324" font-size="9.5" font-weight="400" text-anchor="middle" fill="#656d76" font-family="ui-monospace,SFMono-Regular,Menlo,monospace">06/23</text><text x="588.73" y="324" font-size="9.5" font-weight="400" text-anchor="middle" fill="#656d76" font-family="ui-monospace,SFMono-Regular,Menlo,monospace">06/24</text><text x="642" y="324" font-size="9.5" font-weight="400" text-anchor="middle" fill="#656d76" font-family="ui-monospace,SFMono-Regular,Menlo,monospace">06/25</text><polyline fill="none" stroke="#E8835A" stroke-width="2.4" stroke-linejoin="round" stroke-linecap="round" points="56,229.15 63.61,232.31 71.22,238.94 78.83,244 86.44,235.49 94.05,232.81 101.66,250.28 109.27,243.38 116.88,241.66 124.49,231.14 139.71,234.04 147.32,244.32 154.94,228.71 162.55,246.08 170.16,242.18 177.77,235.58 185.38,242.32 192.99,244.55 200.6,246.98 208.21,240.71 215.82,250.83 223.43,244.26 231.04,241.33 238.65,245.63 246.26,245.02 253.87,240.82 261.48,243.78 269.09,243.28 276.7,240.2 284.31,242.69 291.92,215.59 299.53,241.79 307.14,238.64 314.75,243.45 322.36,243.86 329.97,234.8 337.58,244.51 345.19,244.64"></polyline><circle cx="56" cy="229.15" r="2.6" fill="#E8835A"></circle><circle cx="63.61" cy="232.31" r="2.6" fill="#E8835A"></circle><circle cx="71.22" cy="238.94" r="2.6" fill="#E8835A"></circle><circle cx="78.83" cy="244" r="2.6" fill="#E8835A"></circle><circle cx="86.44" cy="235.49" r="2.6" fill="#E8835A"></circle><circle cx="94.05" cy="232.81" r="2.6" fill="#E8835A"></circle><circle cx="101.66" cy="250.28" r="2.6" fill="#E8835A"></circle><circle cx="109.27" cy="243.38" r="2.6" fill="#E8835A"></circle><circle cx="116.88" cy="241.66" r="2.6" fill="#E8835A"></circle><circle cx="124.49" cy="231.14" r="2.6" fill="#E8835A"></circle><circle cx="139.71" cy="234.04" r="2.6" fill="#E8835A"></circle><circle cx="147.32" cy="244.32" r="2.6" fill="#E8835A"></circle><circle cx="154.94" cy="228.71" r="2.6" fill="#E8835A"></circle><circle cx="162.55" cy="246.08" r="2.6" fill="#E8835A"></circle><circle cx="170.16" cy="242.18" r="2.6" fill="#E8835A"></circle><circle cx="177.77" cy="235.58" r="2.6" fill="#E8835A"></circle><circle cx="185.38" cy="242.32" r="2.6" fill="#E8835A"></circle><circle cx="192.99" cy="244.55" r="2.6" fill="#E8835A"></circle><circle cx="200.6" cy="246.98" r="2.6" fill="#E8835A"></circle><circle cx="208.21" cy="240.71" r="2.6" fill="#E8835A"></circle><circle cx="215.82" cy="250.83" r="2.6" fill="#E8835A"></circle><circle cx="223.43" cy="244.26" r="2.6" fill="#E8835A"></circle><circle cx="231.04" cy="241.33" r="2.6" fill="#E8835A"></circle><circle cx="238.65" cy="245.63" r="2.6" fill="#E8835A"></circle><circle cx="246.26" cy="245.02" r="2.6" fill="#E8835A"></circle><circle cx="253.87" cy="240.82" r="2.6" fill="#E8835A"></circle><circle cx="261.48" cy="243.78" r="2.6" fill="#E8835A"></circle><circle cx="269.09" cy="243.28" r="2.6" fill="#E8835A"></circle><circle cx="276.7" cy="240.2" r="2.6" fill="#E8835A"></circle><circle cx="284.31" cy="242.69" r="2.6" fill="#E8835A"></circle><circle cx="291.92" cy="215.59" r="2.6" fill="#E8835A"></circle><circle cx="299.53" cy="241.79" r="2.6" fill="#E8835A"></circle><circle cx="307.14" cy="238.64" r="2.6" fill="#E8835A"></circle><circle cx="314.75" cy="243.45" r="2.6" fill="#E8835A"></circle><circle cx="322.36" cy="243.86" r="2.6" fill="#E8835A"></circle><circle cx="329.97" cy="234.8" r="2.6" fill="#E8835A"></circle><circle cx="337.58" cy="244.51" r="2.6" fill="#E8835A"></circle><circle cx="345.19" cy="244.64" r="2.6" fill="#E8835A"></circle><polyline fill="none" stroke="#6366F1" stroke-width="2.4" stroke-linejoin="round" stroke-linecap="round" points="63.61,247.24 71.22,242.4 78.83,249.98 86.44,230.48 94.05,260.21 101.66,260.34 109.27,270.44 116.88,248.92 124.49,245.19 132.1,247.83 139.71,256.22 147.32,248.72 154.94,261.47 162.55,243.58 170.16,210.49 177.77,266.33 185.38,232.33 192.99,232.27 200.6,199.16 208.21,237.91 215.82,252.97 223.43,266.11 231.04,215.25 238.65,265.97 246.26,258.25 253.87,265.82 261.48,246.69 269.09,244.53 284.31,240.91 291.92,255.51 299.53,252.51 307.14,237.2 314.75,258.24 322.36,235.84 329.97,252.87 337.58,243.73 345.19,249.01 360.42,263.05 368.03,262.95 375.64,250.85 383.25,238.76 390.86,245.84 398.47,240.49 406.08,244.58 413.69,238.25 421.3,266.43 428.91,219.91 436.52,256.77 451.74,250.11 459.35,264.15 466.96,249.18 474.57,252.64 482.18,236.94 489.79,257.91 497.4,245.05 505.01,245.47 512.62,251.25 520.23,250.75 527.84,249.01 535.45,257.36 543.06,265.15 550.68,253.64 558.29,262.66 565.9,253.56 573.51,247.85 581.12,241.21 588.73,265.06 596.34,257.2 603.95,265.73 611.56,265.31 619.17,250.21 626.78,257.28 634.39,263.83 642,234.88"></polyline><circle cx="63.61" cy="247.24" r="2.6" fill="#6366F1"></circle><circle cx="71.22" cy="242.4" r="2.6" fill="#6366F1"></circle><circle cx="78.83" cy="249.98" r="2.6" fill="#6366F1"></circle><circle cx="86.44" cy="230.48" r="2.6" fill="#6366F1"></circle><circle cx="94.05" cy="260.21" r="2.6" fill="#6366F1"></circle><circle cx="101.66" cy="260.34" r="2.6" fill="#6366F1"></circle><circle cx="109.27" cy="270.44" r="2.6" fill="#6366F1"></circle><circle cx="116.88" cy="248.92" r="2.6" fill="#6366F1"></circle><circle cx="124.49" cy="245.19" r="2.6" fill="#6366F1"></circle><circle cx="132.1" cy="247.83" r="2.6" fill="#6366F1"></circle><circle cx="139.71" cy="256.22" r="2.6" fill="#6366F1"></circle><circle cx="147.32" cy="248.72" r="2.6" fill="#6366F1"></circle><circle cx="154.94" cy="261.47" r="2.6" fill="#6366F1"></circle><circle cx="162.55" cy="243.58" r="2.6" fill="#6366F1"></circle><circle cx="170.16" cy="210.49" r="2.6" fill="#6366F1"></circle><circle cx="177.77" cy="266.33" r="2.6" fill="#6366F1"></circle><circle cx="185.38" cy="232.33" r="2.6" fill="#6366F1"></circle><circle cx="192.99" cy="232.27" r="2.6" fill="#6366F1"></circle><circle cx="200.6" cy="199.16" r="2.6" fill="#6366F1"></circle><circle cx="208.21" cy="237.91" r="2.6" fill="#6366F1"></circle><circle cx="215.82" cy="252.97" r="2.6" fill="#6366F1"></circle><circle cx="223.43" cy="266.11" r="2.6" fill="#6366F1"></circle><circle cx="231.04" cy="215.25" r="2.6" fill="#6366F1"></circle><circle cx="238.65" cy="265.97" r="2.6" fill="#6366F1"></circle><circle cx="246.26" cy="258.25" r="2.6" fill="#6366F1"></circle><circle cx="253.87" cy="265.82" r="2.6" fill="#6366F1"></circle><circle cx="261.48" cy="246.69" r="2.6" fill="#6366F1"></circle><circle cx="269.09" cy="244.53" r="2.6" fill="#6366F1"></circle><circle cx="284.31" cy="240.91" r="2.6" fill="#6366F1"></circle><circle cx="291.92" cy="255.51" r="2.6" fill="#6366F1"></circle><circle cx="299.53" cy="252.51" r="2.6" fill="#6366F1"></circle><circle cx="307.14" cy="237.2" r="2.6" fill="#6366F1"></circle><circle cx="314.75" cy="258.24" r="2.6" fill="#6366F1"></circle><circle cx="322.36" cy="235.84" r="2.6" fill="#6366F1"></circle><circle cx="329.97" cy="252.87" r="2.6" fill="#6366F1"></circle><circle cx="337.58" cy="243.73" r="2.6" fill="#6366F1"></circle><circle cx="345.19" cy="249.01" r="2.6" fill="#6366F1"></circle><circle cx="360.42" cy="263.05" r="2.6" fill="#6366F1"></circle><circle cx="368.03" cy="262.95" r="2.6" fill="#6366F1"></circle><circle cx="375.64" cy="250.85" r="2.6" fill="#6366F1"></circle><circle cx="383.25" cy="238.76" r="2.6" fill="#6366F1"></circle><circle cx="390.86" cy="245.84" r="2.6" fill="#6366F1"></circle><circle cx="398.47" cy="240.49" r="2.6" fill="#6366F1"></circle><circle cx="406.08" cy="244.58" r="2.6" fill="#6366F1"></circle><circle cx="413.69" cy="238.25" r="2.6" fill="#6366F1"></circle><circle cx="421.3" cy="266.43" r="2.6" fill="#6366F1"></circle><circle cx="428.91" cy="219.91" r="2.6" fill="#6366F1"></circle><circle cx="436.52" cy="256.77" r="2.6" fill="#6366F1"></circle><circle cx="451.74" cy="250.11" r="2.6" fill="#6366F1"></circle><circle cx="459.35" cy="264.15" r="2.6" fill="#6366F1"></circle><circle cx="466.96" cy="249.18" r="2.6" fill="#6366F1"></circle><circle cx="474.57" cy="252.64" r="2.6" fill="#6366F1"></circle><circle cx="482.18" cy="236.94" r="2.6" fill="#6366F1"></circle><circle cx="489.79" cy="257.91" r="2.6" fill="#6366F1"></circle><circle cx="497.4" cy="245.05" r="2.6" fill="#6366F1"></circle><circle cx="505.01" cy="245.47" r="2.6" fill="#6366F1"></circle><circle cx="512.62" cy="251.25" r="2.6" fill="#6366F1"></circle><circle cx="520.23" cy="250.75" r="2.6" fill="#6366F1"></circle><circle cx="527.84" cy="249.01" r="2.6" fill="#6366F1"></circle><circle cx="535.45" cy="257.36" r="2.6" fill="#6366F1"></circle><circle cx="543.06" cy="265.15" r="2.6" fill="#6366F1"></circle><circle cx="550.68" cy="253.64" r="2.6" fill="#6366F1"></circle><circle cx="558.29" cy="262.66" r="2.6" fill="#6366F1"></circle><circle cx="565.9" cy="253.56" r="2.6" fill="#6366F1"></circle><circle cx="573.51" cy="247.85" r="2.6" fill="#6366F1"></circle><circle cx="581.12" cy="241.21" r="2.6" fill="#6366F1"></circle><circle cx="588.73" cy="265.06" r="2.6" fill="#6366F1"></circle><circle cx="596.34" cy="257.2" r="2.6" fill="#6366F1"></circle><circle cx="603.95" cy="265.73" r="2.6" fill="#6366F1"></circle><circle cx="611.56" cy="265.31" r="2.6" fill="#6366F1"></circle><circle cx="619.17" cy="250.21" r="2.6" fill="#6366F1"></circle><circle cx="626.78" cy="257.28" r="2.6" fill="#6366F1"></circle><circle cx="634.39" cy="263.83" r="2.6" fill="#6366F1"></circle><circle cx="642" cy="234.88" r="2.6" fill="#6366F1"></circle><polyline fill="none" stroke="#2DA98C" stroke-width="2.4" stroke-linejoin="round" stroke-linecap="round" points="56,205.26 63.61,215.39 71.22,174.15 78.83,217.56 86.44,218.68 94.05,227.57 101.66,203.76 109.27,192.14 116.88,215.35 124.49,194.78 132.1,194.92 139.71,141.5 147.32,148.87 154.94,194.84 162.55,180.85 170.16,202.09 177.77,169.08 185.38,211.29 192.99,193.77 200.6,192.04 208.21,206.61 284.31,221.15 291.92,190.23 299.53,183.33 307.14,225.15 314.75,184.37 322.36,182.1 329.97,210.86 337.58,161.53 345.19,210.56 360.42,182.01 368.03,172.32 375.64,181.93 383.25,186.76 390.86,217.59 398.47,171.76 406.08,211.13 413.69,171.55 421.3,181.17 428.91,189.96 436.52,191.02 451.74,212.98 459.35,170.09 466.96,127.97 474.57,222.7 482.18,200.4 489.79,155.75 497.4,184.88 505.01,176.48 512.62,167.89 520.23,205.24 527.84,167.24 535.45,154.57 543.06,196.61 550.68,154.13 558.29,196.6 565.9,203.92 573.51,125.1 581.12,151.41 588.73,176.39 596.34,198.69"></polyline><circle cx="56" cy="205.26" r="2.6" fill="#2DA98C"></circle><circle cx="63.61" cy="215.39" r="2.6" fill="#2DA98C"></circle><circle cx="71.22" cy="174.15" r="2.6" fill="#2DA98C"></circle><circle cx="78.83" cy="217.56" r="2.6" fill="#2DA98C"></circle><circle cx="86.44" cy="218.68" r="2.6" fill="#2DA98C"></circle><circle cx="94.05" cy="227.57" r="2.6" fill="#2DA98C"></circle><circle cx="101.66" cy="203.76" r="2.6" fill="#2DA98C"></circle><circle cx="109.27" cy="192.14" r="2.6" fill="#2DA98C"></circle><circle cx="116.88" cy="215.35" r="2.6" fill="#2DA98C"></circle><circle cx="124.49" cy="194.78" r="2.6" fill="#2DA98C"></circle><circle cx="132.1" cy="194.92" r="2.6" fill="#2DA98C"></circle><circle cx="139.71" cy="141.5" r="2.6" fill="#2DA98C"></circle><circle cx="147.32" cy="148.87" r="2.6" fill="#2DA98C"></circle><circle cx="154.94" cy="194.84" r="2.6" fill="#2DA98C"></circle><circle cx="162.55" cy="180.85" r="2.6" fill="#2DA98C"></circle><circle cx="170.16" cy="202.09" r="2.6" fill="#2DA98C"></circle><circle cx="177.77" cy="169.08" r="2.6" fill="#2DA98C"></circle><circle cx="185.38" cy="211.29" r="2.6" fill="#2DA98C"></circle><circle cx="192.99" cy="193.77" r="2.6" fill="#2DA98C"></circle><circle cx="200.6" cy="192.04" r="2.6" fill="#2DA98C"></circle><circle cx="208.21" cy="206.61" r="2.6" fill="#2DA98C"></circle><circle cx="284.31" cy="221.15" r="2.6" fill="#2DA98C"></circle><circle cx="291.92" cy="190.23" r="2.6" fill="#2DA98C"></circle><circle cx="299.53" cy="183.33" r="2.6" fill="#2DA98C"></circle><circle cx="307.14" cy="225.15" r="2.6" fill="#2DA98C"></circle><circle cx="314.75" cy="184.37" r="2.6" fill="#2DA98C"></circle><circle cx="322.36" cy="182.1" r="2.6" fill="#2DA98C"></circle><circle cx="329.97" cy="210.86" r="2.6" fill="#2DA98C"></circle><circle cx="337.58" cy="161.53" r="2.6" fill="#2DA98C"></circle><circle cx="345.19" cy="210.56" r="2.6" fill="#2DA98C"></circle><circle cx="360.42" cy="182.01" r="2.6" fill="#2DA98C"></circle><circle cx="368.03" cy="172.32" r="2.6" fill="#2DA98C"></circle><circle cx="375.64" cy="181.93" r="2.6" fill="#2DA98C"></circle><circle cx="383.25" cy="186.76" r="2.6" fill="#2DA98C"></circle><circle cx="390.86" cy="217.59" r="2.6" fill="#2DA98C"></circle><circle cx="398.47" cy="171.76" r="2.6" fill="#2DA98C"></circle><circle cx="406.08" cy="211.13" r="2.6" fill="#2DA98C"></circle><circle cx="413.69" cy="171.55" r="2.6" fill="#2DA98C"></circle><circle cx="421.3" cy="181.17" r="2.6" fill="#2DA98C"></circle><circle cx="428.91" cy="189.96" r="2.6" fill="#2DA98C"></circle><circle cx="436.52" cy="191.02" r="2.6" fill="#2DA98C"></circle><circle cx="451.74" cy="212.98" r="2.6" fill="#2DA98C"></circle><circle cx="459.35" cy="170.09" r="2.6" fill="#2DA98C"></circle><circle cx="466.96" cy="127.97" r="2.6" fill="#2DA98C"></circle><circle cx="474.57" cy="222.7" r="2.6" fill="#2DA98C"></circle><circle cx="482.18" cy="200.4" r="2.6" fill="#2DA98C"></circle><circle cx="489.79" cy="155.75" r="2.6" fill="#2DA98C"></circle><circle cx="497.4" cy="184.88" r="2.6" fill="#2DA98C"></circle><circle cx="505.01" cy="176.48" r="2.6" fill="#2DA98C"></circle><circle cx="512.62" cy="167.89" r="2.6" fill="#2DA98C"></circle><circle cx="520.23" cy="205.24" r="2.6" fill="#2DA98C"></circle><circle cx="527.84" cy="167.24" r="2.6" fill="#2DA98C"></circle><circle cx="535.45" cy="154.57" r="2.6" fill="#2DA98C"></circle><circle cx="543.06" cy="196.61" r="2.6" fill="#2DA98C"></circle><circle cx="550.68" cy="154.13" r="2.6" fill="#2DA98C"></circle><circle cx="558.29" cy="196.6" r="2.6" fill="#2DA98C"></circle><circle cx="565.9" cy="203.92" r="2.6" fill="#2DA98C"></circle><circle cx="573.51" cy="125.1" r="2.6" fill="#2DA98C"></circle><circle cx="581.12" cy="151.41" r="2.6" fill="#2DA98C"></circle><circle cx="588.73" cy="176.39" r="2.6" fill="#2DA98C"></circle><circle cx="596.34" cy="198.69" r="2.6" fill="#2DA98C"></circle><polyline fill="none" stroke="#A371F7" stroke-width="2.4" stroke-linejoin="round" stroke-linecap="round" points="56,127.86 63.61,149.85 71.22,181.76 78.83,139.24 86.44,107.36 94.05,219.97 101.66,116.3 109.27,182.89 116.88,193.78 124.49,197.11 132.1,105.85 139.71,146.07 147.32,181.42 154.94,202.88 162.55,134.79 170.16,219.07 177.77,58.83 185.38,197.05 192.99,167.66 200.6,75.26 208.21,128.5 215.82,152.23 223.43,166.9 231.04,183.57 238.65,162.79 246.26,148.18 253.87,52.43 261.48,96.59 269.09,191.76 284.31,151.86 291.92,169.19 299.53,135.22 314.75,206.77 322.36,167.88 329.97,189.32 337.58,143.76 345.19,142.49 352.81,163.7 360.42,128.52 368.03,144.9 375.64,92.3 383.25,157.36 390.86,160.21 398.47,176.32 406.08,116.21 413.69,165.98 421.3,136.47 436.52,155.12 451.74,134.62 466.96,114.6 474.57,127.72 482.18,219.84 489.79,170.06 497.4,154.88 505.01,189.66 512.62,162.21 520.23,183.03 527.84,165.52 535.45,176.75 543.06,155.74 558.29,148.44 565.9,196.35 573.51,143.94 581.12,112.27 588.73,149.32 596.34,161.5 603.95,199.8 611.56,197.27 619.17,116.93 626.78,119.32 634.39,194.29 642,111.88"></polyline><circle cx="56" cy="127.86" r="2.6" fill="#A371F7"></circle><circle cx="63.61" cy="149.85" r="2.6" fill="#A371F7"></circle><circle cx="71.22" cy="181.76" r="2.6" fill="#A371F7"></circle><circle cx="78.83" cy="139.24" r="2.6" fill="#A371F7"></circle><circle cx="86.44" cy="107.36" r="2.6" fill="#A371F7"></circle><circle cx="94.05" cy="219.97" r="2.6" fill="#A371F7"></circle><circle cx="101.66" cy="116.3" r="2.6" fill="#A371F7"></circle><circle cx="109.27" cy="182.89" r="2.6" fill="#A371F7"></circle><circle cx="116.88" cy="193.78" r="2.6" fill="#A371F7"></circle><circle cx="124.49" cy="197.11" r="2.6" fill="#A371F7"></circle><circle cx="132.1" cy="105.85" r="2.6" fill="#A371F7"></circle><circle cx="139.71" cy="146.07" r="2.6" fill="#A371F7"></circle><circle cx="147.32" cy="181.42" r="2.6" fill="#A371F7"></circle><circle cx="154.94" cy="202.88" r="2.6" fill="#A371F7"></circle><circle cx="162.55" cy="134.79" r="2.6" fill="#A371F7"></circle><circle cx="170.16" cy="219.07" r="2.6" fill="#A371F7"></circle><circle cx="177.77" cy="58.83" r="2.6" fill="#A371F7"></circle><circle cx="185.38" cy="197.05" r="2.6" fill="#A371F7"></circle><circle cx="192.99" cy="167.66" r="2.6" fill="#A371F7"></circle><circle cx="200.6" cy="75.26" r="2.6" fill="#A371F7"></circle><circle cx="208.21" cy="128.5" r="2.6" fill="#A371F7"></circle><circle cx="215.82" cy="152.23" r="2.6" fill="#A371F7"></circle><circle cx="223.43" cy="166.9" r="2.6" fill="#A371F7"></circle><circle cx="231.04" cy="183.57" r="2.6" fill="#A371F7"></circle><circle cx="238.65" cy="162.79" r="2.6" fill="#A371F7"></circle><circle cx="246.26" cy="148.18" r="2.6" fill="#A371F7"></circle><circle cx="253.87" cy="52.43" r="2.6" fill="#A371F7"></circle><circle cx="261.48" cy="96.59" r="2.6" fill="#A371F7"></circle><circle cx="269.09" cy="191.76" r="2.6" fill="#A371F7"></circle><circle cx="284.31" cy="151.86" r="2.6" fill="#A371F7"></circle><circle cx="291.92" cy="169.19" r="2.6" fill="#A371F7"></circle><circle cx="299.53" cy="135.22" r="2.6" fill="#A371F7"></circle><circle cx="314.75" cy="206.77" r="2.6" fill="#A371F7"></circle><circle cx="322.36" cy="167.88" r="2.6" fill="#A371F7"></circle><circle cx="329.97" cy="189.32" r="2.6" fill="#A371F7"></circle><circle cx="337.58" cy="143.76" r="2.6" fill="#A371F7"></circle><circle cx="345.19" cy="142.49" r="2.6" fill="#A371F7"></circle><circle cx="352.81" cy="163.7" r="2.6" fill="#A371F7"></circle><circle cx="360.42" cy="128.52" r="2.6" fill="#A371F7"></circle><circle cx="368.03" cy="144.9" r="2.6" fill="#A371F7"></circle><circle cx="375.64" cy="92.3" r="2.6" fill="#A371F7"></circle><circle cx="383.25" cy="157.36" r="2.6" fill="#A371F7"></circle><circle cx="390.86" cy="160.21" r="2.6" fill="#A371F7"></circle><circle cx="398.47" cy="176.32" r="2.6" fill="#A371F7"></circle><circle cx="406.08" cy="116.21" r="2.6" fill="#A371F7"></circle><circle cx="413.69" cy="165.98" r="2.6" fill="#A371F7"></circle><circle cx="421.3" cy="136.47" r="2.6" fill="#A371F7"></circle><circle cx="436.52" cy="155.12" r="2.6" fill="#A371F7"></circle><circle cx="451.74" cy="134.62" r="2.6" fill="#A371F7"></circle><circle cx="466.96" cy="114.6" r="2.6" fill="#A371F7"></circle><circle cx="474.57" cy="127.72" r="2.6" fill="#A371F7"></circle><circle cx="482.18" cy="219.84" r="2.6" fill="#A371F7"></circle><circle cx="489.79" cy="170.06" r="2.6" fill="#A371F7"></circle><circle cx="497.4" cy="154.88" r="2.6" fill="#A371F7"></circle><circle cx="505.01" cy="189.66" r="2.6" fill="#A371F7"></circle><circle cx="512.62" cy="162.21" r="2.6" fill="#A371F7"></circle><circle cx="520.23" cy="183.03" r="2.6" fill="#A371F7"></circle><circle cx="527.84" cy="165.52" r="2.6" fill="#A371F7"></circle><circle cx="535.45" cy="176.75" r="2.6" fill="#A371F7"></circle><circle cx="543.06" cy="155.74" r="2.6" fill="#A371F7"></circle><circle cx="558.29" cy="148.44" r="2.6" fill="#A371F7"></circle><circle cx="565.9" cy="196.35" r="2.6" fill="#A371F7"></circle><circle cx="573.51" cy="143.94" r="2.6" fill="#A371F7"></circle><circle cx="581.12" cy="112.27" r="2.6" fill="#A371F7"></circle><circle cx="588.73" cy="149.32" r="2.6" fill="#A371F7"></circle><circle cx="596.34" cy="161.5" r="2.6" fill="#A371F7"></circle><circle cx="603.95" cy="199.8" r="2.6" fill="#A371F7"></circle><circle cx="611.56" cy="197.27" r="2.6" fill="#A371F7"></circle><circle cx="619.17" cy="116.93" r="2.6" fill="#A371F7"></circle><circle cx="626.78" cy="119.32" r="2.6" fill="#A371F7"></circle><circle cx="634.39" cy="194.29" r="2.6" fill="#A371F7"></circle><circle cx="642" cy="111.88" r="2.6" fill="#A371F7"></circle><polyline fill="none" stroke="#F0A23B" stroke-width="2.4" stroke-linejoin="round" stroke-linecap="round" points="56,170.6 63.61,150.62 71.22,187.27 78.83,153.33 86.44,137.4 94.05,187.39 101.66,202.98 109.27,219.57 116.88,187.3 124.49,163.64 132.1,218.54 139.71,247.9 147.32,222.75 154.94,249.71 162.55,224.7 170.16,243.69 177.77,245.81 185.38,211.84 192.99,236.21 200.6,257.78 208.21,248.63 215.82,234.2 223.43,247.57 231.04,243.66 238.65,258.59 246.26,253.94 253.87,235.44 261.48,209.7 269.09,229.87 276.7,229.74 284.31,242.74 291.92,219.28 299.53,218.69 307.14,248.17 314.75,252.02 322.36,241.64 329.97,202.83 337.58,191.16 345.19,236.21 352.81,247.47 360.42,237.91 368.03,227.46 375.64,241.35 383.25,249.73 390.86,234.66 398.47,250 406.08,253.94 413.69,252.42 421.3,245.42 428.91,237.98 436.52,238.85 451.74,257.8 459.35,233.33 466.96,238.96 474.57,252.16 482.18,246.34 489.79,221.3 497.4,228.03 505.01,249.57 512.62,236.95 520.23,243.86 527.84,246.88 535.45,238.45 543.06,247.92 558.29,235.92 565.9,214.9 573.51,201.77 581.12,219.97 588.73,238.65 596.34,232.47 603.95,220.62 611.56,227.53 619.17,228.6 626.78,243.21 634.39,241.59 642,193.22"></polyline><circle cx="56" cy="170.6" r="2.6" fill="#F0A23B"></circle><circle cx="63.61" cy="150.62" r="2.6" fill="#F0A23B"></circle><circle cx="71.22" cy="187.27" r="2.6" fill="#F0A23B"></circle><circle cx="78.83" cy="153.33" r="2.6" fill="#F0A23B"></circle><circle cx="86.44" cy="137.4" r="2.6" fill="#F0A23B"></circle><circle cx="94.05" cy="187.39" r="2.6" fill="#F0A23B"></circle><circle cx="101.66" cy="202.98" r="2.6" fill="#F0A23B"></circle><circle cx="109.27" cy="219.57" r="2.6" fill="#F0A23B"></circle><circle cx="116.88" cy="187.3" r="2.6" fill="#F0A23B"></circle><circle cx="124.49" cy="163.64" r="2.6" fill="#F0A23B"></circle><circle cx="132.1" cy="218.54" r="2.6" fill="#F0A23B"></circle><circle cx="139.71" cy="247.9" r="2.6" fill="#F0A23B"></circle><circle cx="147.32" cy="222.75" r="2.6" fill="#F0A23B"></circle><circle cx="154.94" cy="249.71" r="2.6" fill="#F0A23B"></circle><circle cx="162.55" cy="224.7" r="2.6" fill="#F0A23B"></circle><circle cx="170.16" cy="243.69" r="2.6" fill="#F0A23B"></circle><circle cx="177.77" cy="245.81" r="2.6" fill="#F0A23B"></circle><circle cx="185.38" cy="211.84" r="2.6" fill="#F0A23B"></circle><circle cx="192.99" cy="236.21" r="2.6" fill="#F0A23B"></circle><circle cx="200.6" cy="257.78" r="2.6" fill="#F0A23B"></circle><circle cx="208.21" cy="248.63" r="2.6" fill="#F0A23B"></circle><circle cx="215.82" cy="234.2" r="2.6" fill="#F0A23B"></circle><circle cx="223.43" cy="247.57" r="2.6" fill="#F0A23B"></circle><circle cx="231.04" cy="243.66" r="2.6" fill="#F0A23B"></circle><circle cx="238.65" cy="258.59" r="2.6" fill="#F0A23B"></circle><circle cx="246.26" cy="253.94" r="2.6" fill="#F0A23B"></circle><circle cx="253.87" cy="235.44" r="2.6" fill="#F0A23B"></circle><circle cx="261.48" cy="209.7" r="2.6" fill="#F0A23B"></circle><circle cx="269.09" cy="229.87" r="2.6" fill="#F0A23B"></circle><circle cx="276.7" cy="229.74" r="2.6" fill="#F0A23B"></circle><circle cx="284.31" cy="242.74" r="2.6" fill="#F0A23B"></circle><circle cx="291.92" cy="219.28" r="2.6" fill="#F0A23B"></circle><circle cx="299.53" cy="218.69" r="2.6" fill="#F0A23B"></circle><circle cx="307.14" cy="248.17" r="2.6" fill="#F0A23B"></circle><circle cx="314.75" cy="252.02" r="2.6" fill="#F0A23B"></circle><circle cx="322.36" cy="241.64" r="2.6" fill="#F0A23B"></circle><circle cx="329.97" cy="202.83" r="2.6" fill="#F0A23B"></circle><circle cx="337.58" cy="191.16" r="2.6" fill="#F0A23B"></circle><circle cx="345.19" cy="236.21" r="2.6" fill="#F0A23B"></circle><circle cx="352.81" cy="247.47" r="2.6" fill="#F0A23B"></circle><circle cx="360.42" cy="237.91" r="2.6" fill="#F0A23B"></circle><circle cx="368.03" cy="227.46" r="2.6" fill="#F0A23B"></circle><circle cx="375.64" cy="241.35" r="2.6" fill="#F0A23B"></circle><circle cx="383.25" cy="249.73" r="2.6" fill="#F0A23B"></circle><circle cx="390.86" cy="234.66" r="2.6" fill="#F0A23B"></circle><circle cx="398.47" cy="250" r="2.6" fill="#F0A23B"></circle><circle cx="406.08" cy="253.94" r="2.6" fill="#F0A23B"></circle><circle cx="413.69" cy="252.42" r="2.6" fill="#F0A23B"></circle><circle cx="421.3" cy="245.42" r="2.6" fill="#F0A23B"></circle><circle cx="428.91" cy="237.98" r="2.6" fill="#F0A23B"></circle><circle cx="436.52" cy="238.85" r="2.6" fill="#F0A23B"></circle><circle cx="451.74" cy="257.8" r="2.6" fill="#F0A23B"></circle><circle cx="459.35" cy="233.33" r="2.6" fill="#F0A23B"></circle><circle cx="466.96" cy="238.96" r="2.6" fill="#F0A23B"></circle><circle cx="474.57" cy="252.16" r="2.6" fill="#F0A23B"></circle><circle cx="482.18" cy="246.34" r="2.6" fill="#F0A23B"></circle><circle cx="489.79" cy="221.3" r="2.6" fill="#F0A23B"></circle><circle cx="497.4" cy="228.03" r="2.6" fill="#F0A23B"></circle><circle cx="505.01" cy="249.57" r="2.6" fill="#F0A23B"></circle><circle cx="512.62" cy="236.95" r="2.6" fill="#F0A23B"></circle><circle cx="520.23" cy="243.86" r="2.6" fill="#F0A23B"></circle><circle cx="527.84" cy="246.88" r="2.6" fill="#F0A23B"></circle><circle cx="535.45" cy="238.45" r="2.6" fill="#F0A23B"></circle><circle cx="543.06" cy="247.92" r="2.6" fill="#F0A23B"></circle><circle cx="558.29" cy="235.92" r="2.6" fill="#F0A23B"></circle><circle cx="565.9" cy="214.9" r="2.6" fill="#F0A23B"></circle><circle cx="573.51" cy="201.77" r="2.6" fill="#F0A23B"></circle><circle cx="581.12" cy="219.97" r="2.6" fill="#F0A23B"></circle><circle cx="588.73" cy="238.65" r="2.6" fill="#F0A23B"></circle><circle cx="596.34" cy="232.47" r="2.6" fill="#F0A23B"></circle><circle cx="603.95" cy="220.62" r="2.6" fill="#F0A23B"></circle><circle cx="611.56" cy="227.53" r="2.6" fill="#F0A23B"></circle><circle cx="619.17" cy="228.6" r="2.6" fill="#F0A23B"></circle><circle cx="626.78" cy="243.21" r="2.6" fill="#F0A23B"></circle><circle cx="634.39" cy="241.59" r="2.6" fill="#F0A23B"></circle><circle cx="642" cy="193.22" r="2.6" fill="#F0A23B"></circle><polyline fill="none" stroke="#1F9CF0" stroke-width="2.4" stroke-linejoin="round" stroke-linecap="round" points="56,198.31 63.61,224.59 71.22,214.73 78.83,247.97 86.44,236.75 94.05,219.64 101.66,238.79 109.27,207.95 116.88,201.38 124.49,239.3 132.1,242.33 139.71,177.25 147.32,218.95 154.94,232.82 162.55,248.48 170.16,252.97 177.77,230.93 185.38,242.47 192.99,240.12 200.6,248.48 208.21,256.65 215.82,261.44 223.43,262.41 231.04,264.75 238.65,261.4 246.26,262.76 253.87,244.65 261.48,230.98 269.09,234.56 276.7,260.01 284.31,254.76 291.92,238.53 299.53,231.76 307.14,226.22 314.75,247.36 322.36,238.78 329.97,250.58 337.58,256.4 345.19,243.61 352.81,265.98 360.42,253.29 368.03,225.25 375.64,246.45 383.25,252.36 390.86,241.14 398.47,253.3 406.08,245.06 413.69,205.73 421.3,260.99 428.91,265.11 436.52,263.66 444.13,270.45 451.74,265.53 459.35,248.25 466.96,259.3 474.57,255.01 535.45,259.54 543.06,255.12 550.68,241.05 558.29,228.97 565.9,234.99 573.51,233 581.12,242.76 588.73,238.49 596.34,251.01 603.95,203.87 611.56,219.17 619.17,100.57 626.78,239.75 634.39,232.97 642,241.63"></polyline><circle cx="56" cy="198.31" r="2.6" fill="#1F9CF0"></circle><circle cx="63.61" cy="224.59" r="2.6" fill="#1F9CF0"></circle><circle cx="71.22" cy="214.73" r="2.6" fill="#1F9CF0"></circle><circle cx="78.83" cy="247.97" r="2.6" fill="#1F9CF0"></circle><circle cx="86.44" cy="236.75" r="2.6" fill="#1F9CF0"></circle><circle cx="94.05" cy="219.64" r="2.6" fill="#1F9CF0"></circle><circle cx="101.66" cy="238.79" r="2.6" fill="#1F9CF0"></circle><circle cx="109.27" cy="207.95" r="2.6" fill="#1F9CF0"></circle><circle cx="116.88" cy="201.38" r="2.6" fill="#1F9CF0"></circle><circle cx="124.49" cy="239.3" r="2.6" fill="#1F9CF0"></circle><circle cx="132.1" cy="242.33" r="2.6" fill="#1F9CF0"></circle><circle cx="139.71" cy="177.25" r="2.6" fill="#1F9CF0"></circle><circle cx="147.32" cy="218.95" r="2.6" fill="#1F9CF0"></circle><circle cx="154.94" cy="232.82" r="2.6" fill="#1F9CF0"></circle><circle cx="162.55" cy="248.48" r="2.6" fill="#1F9CF0"></circle><circle cx="170.16" cy="252.97" r="2.6" fill="#1F9CF0"></circle><circle cx="177.77" cy="230.93" r="2.6" fill="#1F9CF0"></circle><circle cx="185.38" cy="242.47" r="2.6" fill="#1F9CF0"></circle><circle cx="192.99" cy="240.12" r="2.6" fill="#1F9CF0"></circle><circle cx="200.6" cy="248.48" r="2.6" fill="#1F9CF0"></circle><circle cx="208.21" cy="256.65" r="2.6" fill="#1F9CF0"></circle><circle cx="215.82" cy="261.44" r="2.6" fill="#1F9CF0"></circle><circle cx="223.43" cy="262.41" r="2.6" fill="#1F9CF0"></circle><circle cx="231.04" cy="264.75" r="2.6" fill="#1F9CF0"></circle><circle cx="238.65" cy="261.4" r="2.6" fill="#1F9CF0"></circle><circle cx="246.26" cy="262.76" r="2.6" fill="#1F9CF0"></circle><circle cx="253.87" cy="244.65" r="2.6" fill="#1F9CF0"></circle><circle cx="261.48" cy="230.98" r="2.6" fill="#1F9CF0"></circle><circle cx="269.09" cy="234.56" r="2.6" fill="#1F9CF0"></circle><circle cx="276.7" cy="260.01" r="2.6" fill="#1F9CF0"></circle><circle cx="284.31" cy="254.76" r="2.6" fill="#1F9CF0"></circle><circle cx="291.92" cy="238.53" r="2.6" fill="#1F9CF0"></circle><circle cx="299.53" cy="231.76" r="2.6" fill="#1F9CF0"></circle><circle cx="307.14" cy="226.22" r="2.6" fill="#1F9CF0"></circle><circle cx="314.75" cy="247.36" r="2.6" fill="#1F9CF0"></circle><circle cx="322.36" cy="238.78" r="2.6" fill="#1F9CF0"></circle><circle cx="329.97" cy="250.58" r="2.6" fill="#1F9CF0"></circle><circle cx="337.58" cy="256.4" r="2.6" fill="#1F9CF0"></circle><circle cx="345.19" cy="243.61" r="2.6" fill="#1F9CF0"></circle><circle cx="352.81" cy="265.98" r="2.6" fill="#1F9CF0"></circle><circle cx="360.42" cy="253.29" r="2.6" fill="#1F9CF0"></circle><circle cx="368.03" cy="225.25" r="2.6" fill="#1F9CF0"></circle><circle cx="375.64" cy="246.45" r="2.6" fill="#1F9CF0"></circle><circle cx="383.25" cy="252.36" r="2.6" fill="#1F9CF0"></circle><circle cx="390.86" cy="241.14" r="2.6" fill="#1F9CF0"></circle><circle cx="398.47" cy="253.3" r="2.6" fill="#1F9CF0"></circle><circle cx="406.08" cy="245.06" r="2.6" fill="#1F9CF0"></circle><circle cx="413.69" cy="205.73" r="2.6" fill="#1F9CF0"></circle><circle cx="421.3" cy="260.99" r="2.6" fill="#1F9CF0"></circle><circle cx="428.91" cy="265.11" r="2.6" fill="#1F9CF0"></circle><circle cx="436.52" cy="263.66" r="2.6" fill="#1F9CF0"></circle><circle cx="444.13" cy="270.45" r="2.6" fill="#1F9CF0"></circle><circle cx="451.74" cy="265.53" r="2.6" fill="#1F9CF0"></circle><circle cx="459.35" cy="248.25" r="2.6" fill="#1F9CF0"></circle><circle cx="466.96" cy="259.3" r="2.6" fill="#1F9CF0"></circle><circle cx="474.57" cy="255.01" r="2.6" fill="#1F9CF0"></circle><circle cx="535.45" cy="259.54" r="2.6" fill="#1F9CF0"></circle><circle cx="543.06" cy="255.12" r="2.6" fill="#1F9CF0"></circle><circle cx="550.68" cy="241.05" r="2.6" fill="#1F9CF0"></circle><circle cx="558.29" cy="228.97" r="2.6" fill="#1F9CF0"></circle><circle cx="565.9" cy="234.99" r="2.6" fill="#1F9CF0"></circle><circle cx="573.51" cy="233" r="2.6" fill="#1F9CF0"></circle><circle cx="581.12" cy="242.76" r="2.6" fill="#1F9CF0"></circle><circle cx="588.73" cy="238.49" r="2.6" fill="#1F9CF0"></circle><circle cx="596.34" cy="251.01" r="2.6" fill="#1F9CF0"></circle><circle cx="603.95" cy="203.87" r="2.6" fill="#1F9CF0"></circle><circle cx="611.56" cy="219.17" r="2.6" fill="#1F9CF0"></circle><circle cx="619.17" cy="100.57" r="2.6" fill="#1F9CF0"></circle><circle cx="626.78" cy="239.75" r="2.6" fill="#1F9CF0"></circle><circle cx="634.39" cy="232.97" r="2.6" fill="#1F9CF0"></circle><circle cx="642" cy="241.63" r="2.6" fill="#1F9CF0"></circle><line x1="656" y1="27" x2="672" y2="27" stroke="#E8835A" stroke-width="3" stroke-linecap="round"></line><text x="678" y="30" font-size="11" font-weight="400" text-anchor="start" fill="#1f2328">anthropic</text><line x1="656" y1="47" x2="672" y2="47" stroke="#6366F1" stroke-width="3" stroke-linecap="round"></line><text x="678" y="50" font-size="11" font-weight="400" text-anchor="start" fill="#1f2328">deepseek</text><line x1="656" y1="67" x2="672" y2="67" stroke="#2DA98C" stroke-width="3" stroke-linecap="round"></line><text x="678" y="70" font-size="11" font-weight="400" text-anchor="start" fill="#1f2328">gemini</text><line x1="656" y1="87" x2="672" y2="87" stroke="#A371F7" stroke-width="3" stroke-linecap="round"></line><text x="678" y="90" font-size="11" font-weight="400" text-anchor="start" fill="#1f2328">llama</text><line x1="656" y1="107" x2="672" y2="107" stroke="#F0A23B" stroke-width="3" stroke-linecap="round"></line><text x="678" y="110" font-size="11" font-weight="400" text-anchor="start" fill="#1f2328">mistral</text><line x1="656" y1="127" x2="672" y2="127" stroke="#1F9CF0" stroke-width="3" stroke-linecap="round"></line><text x="678" y="130" font-size="11" font-weight="400" text-anchor="start" fill="#1f2328">openai</text></svg>
