<svg xmlns="http://www.w3.org/2000/svg" viewBox="0 0 600 300" width="600" height="300" role="img" aria-label="Avg LLM latency by provider over runs (s)"><text x="300.0" y="24" text-anchor="middle" font-family="system-ui, -apple-system, sans-serif" font-size="14" font-weight="600" fill="#333">Avg LLM latency by provider over runs (s)</text><line x1="60" y1="240.0" x2="480" y2="240.0" stroke="#eee" stroke-width="1"/><text x="54" y="244.0" text-anchor="end" font-family="system-ui, -apple-system, sans-serif" font-size="9" fill="#999">53.24</text><line x1="60" y1="140.0" x2="480" y2="140.0" stroke="#eee" stroke-width="1"/><text x="54" y="144.0" text-anchor="end" font-family="system-ui, -apple-system, sans-serif" font-size="9" fill="#999">142.1</text><line x1="60" y1="40.0" x2="480" y2="40.0" stroke="#eee" stroke-width="1"/><text x="54" y="44.0" text-anchor="end" font-family="system-ui, -apple-system, sans-serif" font-size="9" fill="#999">230.9</text><polyline fill="none" stroke="#4CAF50" stroke-width="2" points="60.0,159.0 144.0,193.4 228.0,180.5 312.0,224.0 396.0,209.3 480.0,186.9"/><circle cx="60.0" cy="159.0" r="3" fill="#4CAF50"/><circle cx="144.0" cy="193.4" r="3" fill="#4CAF50"/><circle cx="228.0" cy="180.5" r="3" fill="#4CAF50"/><circle cx="312.0" cy="224.0" r="3" fill="#4CAF50"/><circle cx="396.0" cy="209.3" r="3" fill="#4CAF50"/><circle cx="480.0" cy="186.9" r="3" fill="#4CAF50"/><rect x="490" y="44" width="10" height="10" fill="#4CAF50"/><text x="504" y="53" font-family="system-ui, -apple-system, sans-serif" font-size="10" fill="#333">openai</text><polyline fill="none" stroke="#2196F3" stroke-width="2" points="60.0,199.4 144.0,203.5 228.0,212.2 312.0,218.8 396.0,207.7 480.0,204.1"/><circle cx="60.0" cy="199.4" r="3" fill="#2196F3"/><circle cx="144.0" cy="203.5" r="3" fill="#2196F3"/><circle cx="228.0" cy="212.2" r="3" fill="#2196F3"/><circle cx="312.0" cy="218.8" r="3" fill="#2196F3"/><circle cx="396.0" cy="207.7" r="3" fill="#2196F3"/><circle cx="480.0" cy="204.1" r="3" fill="#2196F3"/><rect x="490" y="62" width="10" height="10" fill="#2196F3"/><text x="504" y="71" font-family="system-ui, -apple-system, sans-serif" font-size="10" fill="#333">anthropic</text><polyline fill="none" stroke="#FF9800" stroke-width="2" points="60.0,168.1 144.0,181.4 228.0,127.4 312.0,184.2 396.0,185.7 480.0,197.3"/><circle cx="60.0" cy="168.1" r="3" fill="#FF9800"/><circle cx="144.0" cy="181.4" r="3" fill="#FF9800"/><circle cx="228.0" cy="127.4" r="3" fill="#FF9800"/><circle cx="312.0" cy="184.2" r="3" fill="#FF9800"/><circle cx="396.0" cy="185.7" r="3" fill="#FF9800"/><circle cx="480.0" cy="197.3" r="3" fill="#FF9800"/><rect x="490" y="80" width="10" height="10" fill="#FF9800"/><text x="504" y="89" font-family="system-ui, -apple-system, sans-serif" font-size="10" fill="#333">gemini</text><polyline fill="none" stroke="#E91E63" stroke-width="2" points="60.0,66.8 144.0,95.6 228.0,137.3 312.0,81.7 396.0,40.0 480.0,187.4"/><circle cx="60.0" cy="66.8" r="3" fill="#E91E63"/><circle cx="144.0" cy="95.6" r="3" fill="#E91E63"/><circle cx="228.0" cy="137.3" r="3" fill="#E91E63"/><circle cx="312.0" cy="81.7" r="3" fill="#E91E63"/><circle cx="396.0" cy="40.0" r="3" fill="#E91E63"/><circle cx="480.0" cy="187.4" r="3" fill="#E91E63"/><rect x="490" y="98" width="10" height="10" fill="#E91E63"/><text x="504" y="107" font-family="system-ui, -apple-system, sans-serif" font-size="10" fill="#333">llama</text><polyline fill="none" stroke="#9C27B0" stroke-width="2" points="60.0,122.8 144.0,96.6 228.0,144.6 312.0,100.1 396.0,79.3 480.0,144.7"/><circle cx="60.0" cy="122.8" r="3" fill="#9C27B0"/><circle cx="144.0" cy="96.6" r="3" fill="#9C27B0"/><circle cx="228.0" cy="144.6" r="3" fill="#9C27B0"/><circle cx="312.0" cy="100.1" r="3" fill="#9C27B0"/><circle cx="396.0" cy="79.3" r="3" fill="#9C27B0"/><circle cx="480.0" cy="144.7" r="3" fill="#9C27B0"/><rect x="490" y="116" width="10" height="10" fill="#9C27B0"/><text x="504" y="125" font-family="system-ui, -apple-system, sans-serif" font-size="10" fill="#333">mistral</text><polyline fill="none" stroke="#00BCD4" stroke-width="2" points="144.0,223.0 228.0,216.7 312.0,226.6 396.0,201.1 480.0,240.0"/><circle cx="144.0" cy="223.0" r="3" fill="#00BCD4"/><circle cx="228.0" cy="216.7" r="3" fill="#00BCD4"/><circle cx="312.0" cy="226.6" r="3" fill="#00BCD4"/><circle cx="396.0" cy="201.1" r="3" fill="#00BCD4"/><circle cx="480.0" cy="240.0" r="3" fill="#00BCD4"/><rect x="490" y="134" width="10" height="10" fill="#00BCD4"/><text x="504" y="143" font-family="system-ui, -apple-system, sans-serif" font-size="10" fill="#333">deepseek</text><text x="60.0" y="256.0" text-anchor="middle" font-family="system-ui, -apple-system, sans-serif" font-size="9" fill="#666">33376499</text><text x="144.0" y="256.0" text-anchor="middle" font-family="system-ui, -apple-system, sans-serif" font-size="9" fill="#666">49559976</text><text x="228.0" y="256.0" text-anchor="middle" font-family="system-ui, -apple-system, sans-serif" font-size="9" fill="#666">51938981</text><text x="312.0" y="256.0" text-anchor="middle" font-family="system-ui, -apple-system, sans-serif" font-size="9" fill="#666">53749546</text><text x="396.0" y="256.0" text-anchor="middle" font-family="system-ui, -apple-system, sans-serif" font-size="9" fill="#666">54994841</text><text x="480.0" y="256.0" text-anchor="middle" font-family="system-ui, -apple-system, sans-serif" font-size="9" fill="#666">73723278</text></svg>
