<svg xmlns="http://www.w3.org/2000/svg" viewBox="0 0 600 300" width="600" height="300" role="img" aria-label="Avg LLM latency by provider over runs (s)"><text x="300.0" y="24" text-anchor="middle" font-family="system-ui, -apple-system, sans-serif" font-size="14" font-weight="600" fill="#333">Avg LLM latency by provider over runs (s)</text><line x1="60" y1="240.0" x2="480" y2="240.0" stroke="#eee" stroke-width="1"/><text x="54" y="244.0" text-anchor="end" font-family="system-ui, -apple-system, sans-serif" font-size="9" fill="#999">65.13</text><line x1="60" y1="140.0" x2="480" y2="140.0" stroke="#eee" stroke-width="1"/><text x="54" y="144.0" text-anchor="end" font-family="system-ui, -apple-system, sans-serif" font-size="9" fill="#999">148</text><line x1="60" y1="40.0" x2="480" y2="40.0" stroke="#eee" stroke-width="1"/><text x="54" y="44.0" text-anchor="end" font-family="system-ui, -apple-system, sans-serif" font-size="9" fill="#999">230.9</text><polyline fill="none" stroke="#4CAF50" stroke-width="2" points="60.0,167.5 165.0,204.4 270.0,190.6 375.0,237.2 480.0,221.4"/><circle cx="60.0" cy="167.5" r="3" fill="#4CAF50"/><circle cx="165.0" cy="204.4" r="3" fill="#4CAF50"/><circle cx="270.0" cy="190.6" r="3" fill="#4CAF50"/><circle cx="375.0" cy="237.2" r="3" fill="#4CAF50"/><circle cx="480.0" cy="221.4" r="3" fill="#4CAF50"/><rect x="490" y="44" width="10" height="10" fill="#4CAF50"/><text x="504" y="53" font-family="system-ui, -apple-system, sans-serif" font-size="10" fill="#333">openai</text><polyline fill="none" stroke="#2196F3" stroke-width="2" points="60.0,210.8 165.0,215.2 270.0,224.5 375.0,231.6 480.0,219.7"/><circle cx="60.0" cy="210.8" r="3" fill="#2196F3"/><circle cx="165.0" cy="215.2" r="3" fill="#2196F3"/><circle cx="270.0" cy="224.5" r="3" fill="#2196F3"/><circle cx="375.0" cy="231.6" r="3" fill="#2196F3"/><circle cx="480.0" cy="219.7" r="3" fill="#2196F3"/><rect x="490" y="62" width="10" height="10" fill="#2196F3"/><text x="504" y="71" font-family="system-ui, -apple-system, sans-serif" font-size="10" fill="#333">anthropic</text><polyline fill="none" stroke="#FF9800" stroke-width="2" points="60.0,177.3 165.0,191.5 270.0,133.7 375.0,194.5 480.0,196.1"/><circle cx="60.0" cy="177.3" r="3" fill="#FF9800"/><circle cx="165.0" cy="191.5" r="3" fill="#FF9800"/><circle cx="270.0" cy="133.7" r="3" fill="#FF9800"/><circle cx="375.0" cy="194.5" r="3" fill="#FF9800"/><circle cx="480.0" cy="196.1" r="3" fill="#FF9800"/><rect x="490" y="80" width="10" height="10" fill="#FF9800"/><text x="504" y="89" font-family="system-ui, -apple-system, sans-serif" font-size="10" fill="#333">gemini</text><polyline fill="none" stroke="#E91E63" stroke-width="2" points="60.0,68.7 165.0,99.6 270.0,144.3 375.0,84.7 480.0,40.0"/><circle cx="60.0" cy="68.7" r="3" fill="#E91E63"/><circle cx="165.0" cy="99.6" r="3" fill="#E91E63"/><circle cx="270.0" cy="144.3" r="3" fill="#E91E63"/><circle cx="375.0" cy="84.7" r="3" fill="#E91E63"/><circle cx="480.0" cy="40.0" r="3" fill="#E91E63"/><rect x="490" y="98" width="10" height="10" fill="#E91E63"/><text x="504" y="107" font-family="system-ui, -apple-system, sans-serif" font-size="10" fill="#333">llama</text><polyline fill="none" stroke="#9C27B0" stroke-width="2" points="60.0,128.7 165.0,100.7 270.0,152.1 375.0,104.5 480.0,82.1"/><circle cx="60.0" cy="128.7" r="3" fill="#9C27B0"/><circle cx="165.0" cy="100.7" r="3" fill="#9C27B0"/><circle cx="270.0" cy="152.1" r="3" fill="#9C27B0"/><circle cx="375.0" cy="104.5" r="3" fill="#9C27B0"/><circle cx="480.0" cy="82.1" r="3" fill="#9C27B0"/><rect x="490" y="116" width="10" height="10" fill="#9C27B0"/><text x="504" y="125" font-family="system-ui, -apple-system, sans-serif" font-size="10" fill="#333">mistral</text><polyline fill="none" stroke="#00BCD4" stroke-width="2" points="165.0,236.2 270.0,229.4 375.0,240.0 480.0,212.7"/><circle cx="165.0" cy="236.2" r="3" fill="#00BCD4"/><circle cx="270.0" cy="229.4" r="3" fill="#00BCD4"/><circle cx="375.0" cy="240.0" r="3" fill="#00BCD4"/><circle cx="480.0" cy="212.7" r="3" fill="#00BCD4"/><rect x="490" y="134" width="10" height="10" fill="#00BCD4"/><text x="504" y="143" font-family="system-ui, -apple-system, sans-serif" font-size="10" fill="#333">deepseek</text><text x="60.0" y="256.0" text-anchor="middle" font-family="system-ui, -apple-system, sans-serif" font-size="9" fill="#666">33376499</text><text x="165.0" y="256.0" text-anchor="middle" font-family="system-ui, -apple-system, sans-serif" font-size="9" fill="#666">49559976</text><text x="270.0" y="256.0" text-anchor="middle" font-family="system-ui, -apple-system, sans-serif" font-size="9" fill="#666">51938981</text><text x="375.0" y="256.0" text-anchor="middle" font-family="system-ui, -apple-system, sans-serif" font-size="9" fill="#666">53749546</text><text x="480.0" y="256.0" text-anchor="middle" font-family="system-ui, -apple-system, sans-serif" font-size="9" fill="#666">54994841</text></svg>
