<svg xmlns="http://www.w3.org/2000/svg" viewBox="0 0 760 348" width="760" height="348" role="img" aria-label="Average LLM latency by provider over runs — llama highest, deepseek lowest" font-family="-apple-system,BlinkMacSystemFont,'Segoe UI',system-ui,sans-serif"><line x1="56" y1="306" x2="642" y2="306" stroke="#30363d" stroke-width="1"></line><text x="46" y="310" font-size="9.5" font-weight="400" text-anchor="end" fill="#8b949e" font-family="ui-monospace,SFMono-Regular,Menlo,monospace">0.0s</text><line x1="56" y1="235" x2="642" y2="235" stroke="#30363d" stroke-width="1"></line><text x="46" y="239" font-size="9.5" font-weight="400" text-anchor="end" fill="#8b949e" font-family="ui-monospace,SFMono-Regular,Menlo,monospace">82.5s</text><line x1="56" y1="164" x2="642" y2="164" stroke="#30363d" stroke-width="1"></line><text x="46" y="168" font-size="9.5" font-weight="400" text-anchor="end" fill="#8b949e" font-family="ui-monospace,SFMono-Regular,Menlo,monospace">165.1s</text><line x1="56" y1="93" x2="642" y2="93" stroke="#30363d" stroke-width="1"></line><text x="46" y="97" font-size="9.5" font-weight="400" text-anchor="end" fill="#8b949e" font-family="ui-monospace,SFMono-Regular,Menlo,monospace">247.6s</text><line x1="56" y1="22" x2="642" y2="22" stroke="#30363d" stroke-width="1"></line><text x="46" y="26" font-size="9.5" font-weight="400" text-anchor="end" fill="#8b949e" font-family="ui-monospace,SFMono-Regular,Menlo,monospace">330.2s</text><text x="56" y="324" font-size="9.5" font-weight="400" text-anchor="middle" fill="#8b949e" font-family="ui-monospace,SFMono-Regular,Menlo,monospace">06/08</text><text x="110.94" y="324" font-size="9.5" font-weight="400" text-anchor="middle" fill="#8b949e" font-family="ui-monospace,SFMono-Regular,Menlo,monospace">06/08</text><text x="165.88" y="324" font-size="9.5" font-weight="400" text-anchor="middle" fill="#8b949e" font-family="ui-monospace,SFMono-Regular,Menlo,monospace">06/08</text><text x="220.81" y="324" font-size="9.5" font-weight="400" text-anchor="middle" fill="#8b949e" font-family="ui-monospace,SFMono-Regular,Menlo,monospace">06/09</text><text x="275.75" y="324" font-size="9.5" font-weight="400" text-anchor="middle" fill="#8b949e" font-family="ui-monospace,SFMono-Regular,Menlo,monospace">06/09</text><text x="330.69" y="324" font-size="9.5" font-weight="400" text-anchor="middle" fill="#8b949e" font-family="ui-monospace,SFMono-Regular,Menlo,monospace">06/12</text><text x="385.62" y="324" font-size="9.5" font-weight="400" text-anchor="middle" fill="#8b949e" font-family="ui-monospace,SFMono-Regular,Menlo,monospace">06/12</text><text x="440.56" y="324" font-size="9.5" font-weight="400" text-anchor="middle" fill="#8b949e" font-family="ui-monospace,SFMono-Regular,Menlo,monospace">06/14</text><text x="495.5" y="324" font-size="9.5" font-weight="400" text-anchor="middle" fill="#8b949e" font-family="ui-monospace,SFMono-Regular,Menlo,monospace">06/14</text><text x="550.44" y="324" font-size="9.5" font-weight="400" text-anchor="middle" fill="#8b949e" font-family="ui-monospace,SFMono-Regular,Menlo,monospace">06/15</text><text x="605.38" y="324" font-size="9.5" font-weight="400" text-anchor="middle" fill="#8b949e" font-family="ui-monospace,SFMono-Regular,Menlo,monospace">06/15</text><text x="642" y="324" font-size="9.5" font-weight="400" text-anchor="middle" fill="#8b949e" font-family="ui-monospace,SFMono-Regular,Menlo,monospace">06/16</text><polyline fill="none" stroke="#E8835A" stroke-width="2.4" stroke-linejoin="round" stroke-linecap="round" points="56,229.15 74.31,232.31 92.62,238.94 110.94,244 129.25,235.49 147.56,232.81 165.88,250.28 184.19,243.38 202.5,241.66 220.81,231.14 257.44,234.04 275.75,244.32 294.06,228.71 312.38,246.08 330.69,242.18 349,235.58 367.31,242.32 385.62,244.55 403.94,246.98 422.25,240.71 440.56,250.83 458.88,244.26 477.19,241.33 495.5,245.63 513.81,245.02 532.12,240.82 550.44,243.78 568.75,243.28 587.06,240.2 605.38,242.69 623.69,215.59 642,241.79"></polyline><circle cx="56" cy="229.15" r="2.6" fill="#E8835A"></circle><circle cx="74.31" cy="232.31" r="2.6" fill="#E8835A"></circle><circle cx="92.62" cy="238.94" r="2.6" fill="#E8835A"></circle><circle cx="110.94" cy="244" r="2.6" fill="#E8835A"></circle><circle cx="129.25" cy="235.49" r="2.6" fill="#E8835A"></circle><circle cx="147.56" cy="232.81" r="2.6" fill="#E8835A"></circle><circle cx="165.88" cy="250.28" r="2.6" fill="#E8835A"></circle><circle cx="184.19" cy="243.38" r="2.6" fill="#E8835A"></circle><circle cx="202.5" cy="241.66" r="2.6" fill="#E8835A"></circle><circle cx="220.81" cy="231.14" r="2.6" fill="#E8835A"></circle><circle cx="257.44" cy="234.04" r="2.6" fill="#E8835A"></circle><circle cx="275.75" cy="244.32" r="2.6" fill="#E8835A"></circle><circle cx="294.06" cy="228.71" r="2.6" fill="#E8835A"></circle><circle cx="312.38" cy="246.08" r="2.6" fill="#E8835A"></circle><circle cx="330.69" cy="242.18" r="2.6" fill="#E8835A"></circle><circle cx="349" cy="235.58" r="2.6" fill="#E8835A"></circle><circle cx="367.31" cy="242.32" r="2.6" fill="#E8835A"></circle><circle cx="385.62" cy="244.55" r="2.6" fill="#E8835A"></circle><circle cx="403.94" cy="246.98" r="2.6" fill="#E8835A"></circle><circle cx="422.25" cy="240.71" r="2.6" fill="#E8835A"></circle><circle cx="440.56" cy="250.83" r="2.6" fill="#E8835A"></circle><circle cx="458.88" cy="244.26" r="2.6" fill="#E8835A"></circle><circle cx="477.19" cy="241.33" r="2.6" fill="#E8835A"></circle><circle cx="495.5" cy="245.63" r="2.6" fill="#E8835A"></circle><circle cx="513.81" cy="245.02" r="2.6" fill="#E8835A"></circle><circle cx="532.12" cy="240.82" r="2.6" fill="#E8835A"></circle><circle cx="550.44" cy="243.78" r="2.6" fill="#E8835A"></circle><circle cx="568.75" cy="243.28" r="2.6" fill="#E8835A"></circle><circle cx="587.06" cy="240.2" r="2.6" fill="#E8835A"></circle><circle cx="605.38" cy="242.69" r="2.6" fill="#E8835A"></circle><circle cx="623.69" cy="215.59" r="2.6" fill="#E8835A"></circle><circle cx="642" cy="241.79" r="2.6" fill="#E8835A"></circle><polyline fill="none" stroke="#6366F1" stroke-width="2.4" stroke-linejoin="round" stroke-linecap="round" points="74.31,247.24 92.62,242.4 110.94,249.98 129.25,230.48 147.56,260.21 165.88,260.34 184.19,270.44 202.5,248.92 220.81,245.19 239.12,247.83 257.44,256.22 275.75,248.72 294.06,261.47 312.38,243.58 330.69,210.49 349,266.33 367.31,232.33 385.62,232.27 403.94,199.16 422.25,237.91 440.56,252.97 458.88,266.11 477.19,215.25 495.5,265.97 513.81,258.25 532.12,265.82 550.44,246.69 568.75,244.53 605.38,240.91 623.69,255.51 642,252.51"></polyline><circle cx="74.31" cy="247.24" r="2.6" fill="#6366F1"></circle><circle cx="92.62" cy="242.4" r="2.6" fill="#6366F1"></circle><circle cx="110.94" cy="249.98" r="2.6" fill="#6366F1"></circle><circle cx="129.25" cy="230.48" r="2.6" fill="#6366F1"></circle><circle cx="147.56" cy="260.21" r="2.6" fill="#6366F1"></circle><circle cx="165.88" cy="260.34" r="2.6" fill="#6366F1"></circle><circle cx="184.19" cy="270.44" r="2.6" fill="#6366F1"></circle><circle cx="202.5" cy="248.92" r="2.6" fill="#6366F1"></circle><circle cx="220.81" cy="245.19" r="2.6" fill="#6366F1"></circle><circle cx="239.12" cy="247.83" r="2.6" fill="#6366F1"></circle><circle cx="257.44" cy="256.22" r="2.6" fill="#6366F1"></circle><circle cx="275.75" cy="248.72" r="2.6" fill="#6366F1"></circle><circle cx="294.06" cy="261.47" r="2.6" fill="#6366F1"></circle><circle cx="312.38" cy="243.58" r="2.6" fill="#6366F1"></circle><circle cx="330.69" cy="210.49" r="2.6" fill="#6366F1"></circle><circle cx="349" cy="266.33" r="2.6" fill="#6366F1"></circle><circle cx="367.31" cy="232.33" r="2.6" fill="#6366F1"></circle><circle cx="385.62" cy="232.27" r="2.6" fill="#6366F1"></circle><circle cx="403.94" cy="199.16" r="2.6" fill="#6366F1"></circle><circle cx="422.25" cy="237.91" r="2.6" fill="#6366F1"></circle><circle cx="440.56" cy="252.97" r="2.6" fill="#6366F1"></circle><circle cx="458.88" cy="266.11" r="2.6" fill="#6366F1"></circle><circle cx="477.19" cy="215.25" r="2.6" fill="#6366F1"></circle><circle cx="495.5" cy="265.97" r="2.6" fill="#6366F1"></circle><circle cx="513.81" cy="258.25" r="2.6" fill="#6366F1"></circle><circle cx="532.12" cy="265.82" r="2.6" fill="#6366F1"></circle><circle cx="550.44" cy="246.69" r="2.6" fill="#6366F1"></circle><circle cx="568.75" cy="244.53" r="2.6" fill="#6366F1"></circle><circle cx="605.38" cy="240.91" r="2.6" fill="#6366F1"></circle><circle cx="623.69" cy="255.51" r="2.6" fill="#6366F1"></circle><circle cx="642" cy="252.51" r="2.6" fill="#6366F1"></circle><polyline fill="none" stroke="#2DA98C" stroke-width="2.4" stroke-linejoin="round" stroke-linecap="round" points="56,205.26 74.31,215.39 92.62,174.15 110.94,217.56 129.25,218.68 147.56,227.57 165.88,203.76 184.19,192.14 202.5,215.35 220.81,194.78 239.12,194.92 257.44,141.5 275.75,148.87 294.06,194.84 312.38,180.85 330.69,202.09 349,169.08 367.31,211.29 385.62,193.77 403.94,192.04 422.25,206.61 605.38,221.15 623.69,190.23 642,183.33"></polyline><circle cx="56" cy="205.26" r="2.6" fill="#2DA98C"></circle><circle cx="74.31" cy="215.39" r="2.6" fill="#2DA98C"></circle><circle cx="92.62" cy="174.15" r="2.6" fill="#2DA98C"></circle><circle cx="110.94" cy="217.56" r="2.6" fill="#2DA98C"></circle><circle cx="129.25" cy="218.68" r="2.6" fill="#2DA98C"></circle><circle cx="147.56" cy="227.57" r="2.6" fill="#2DA98C"></circle><circle cx="165.88" cy="203.76" r="2.6" fill="#2DA98C"></circle><circle cx="184.19" cy="192.14" r="2.6" fill="#2DA98C"></circle><circle cx="202.5" cy="215.35" r="2.6" fill="#2DA98C"></circle><circle cx="220.81" cy="194.78" r="2.6" fill="#2DA98C"></circle><circle cx="239.12" cy="194.92" r="2.6" fill="#2DA98C"></circle><circle cx="257.44" cy="141.5" r="2.6" fill="#2DA98C"></circle><circle cx="275.75" cy="148.87" r="2.6" fill="#2DA98C"></circle><circle cx="294.06" cy="194.84" r="2.6" fill="#2DA98C"></circle><circle cx="312.38" cy="180.85" r="2.6" fill="#2DA98C"></circle><circle cx="330.69" cy="202.09" r="2.6" fill="#2DA98C"></circle><circle cx="349" cy="169.08" r="2.6" fill="#2DA98C"></circle><circle cx="367.31" cy="211.29" r="2.6" fill="#2DA98C"></circle><circle cx="385.62" cy="193.77" r="2.6" fill="#2DA98C"></circle><circle cx="403.94" cy="192.04" r="2.6" fill="#2DA98C"></circle><circle cx="422.25" cy="206.61" r="2.6" fill="#2DA98C"></circle><circle cx="605.38" cy="221.15" r="2.6" fill="#2DA98C"></circle><circle cx="623.69" cy="190.23" r="2.6" fill="#2DA98C"></circle><circle cx="642" cy="183.33" r="2.6" fill="#2DA98C"></circle><polyline fill="none" stroke="#A371F7" stroke-width="2.4" stroke-linejoin="round" stroke-linecap="round" points="56,127.86 74.31,149.85 92.62,181.76 110.94,139.24 129.25,107.36 147.56,219.97 165.88,116.3 184.19,182.89 202.5,193.78 220.81,197.11 239.12,105.85 257.44,146.07 275.75,181.42 294.06,202.88 312.38,134.79 330.69,219.07 349,58.83 367.31,197.05 385.62,167.66 403.94,75.26 422.25,128.5 440.56,152.23 458.88,166.9 477.19,183.57 495.5,162.79 513.81,148.18 532.12,52.43 550.44,96.59 568.75,191.76 605.38,151.86 623.69,169.19 642,135.22"></polyline><circle cx="56" cy="127.86" r="2.6" fill="#A371F7"></circle><circle cx="74.31" cy="149.85" r="2.6" fill="#A371F7"></circle><circle cx="92.62" cy="181.76" r="2.6" fill="#A371F7"></circle><circle cx="110.94" cy="139.24" r="2.6" fill="#A371F7"></circle><circle cx="129.25" cy="107.36" r="2.6" fill="#A371F7"></circle><circle cx="147.56" cy="219.97" r="2.6" fill="#A371F7"></circle><circle cx="165.88" cy="116.3" r="2.6" fill="#A371F7"></circle><circle cx="184.19" cy="182.89" r="2.6" fill="#A371F7"></circle><circle cx="202.5" cy="193.78" r="2.6" fill="#A371F7"></circle><circle cx="220.81" cy="197.11" r="2.6" fill="#A371F7"></circle><circle cx="239.12" cy="105.85" r="2.6" fill="#A371F7"></circle><circle cx="257.44" cy="146.07" r="2.6" fill="#A371F7"></circle><circle cx="275.75" cy="181.42" r="2.6" fill="#A371F7"></circle><circle cx="294.06" cy="202.88" r="2.6" fill="#A371F7"></circle><circle cx="312.38" cy="134.79" r="2.6" fill="#A371F7"></circle><circle cx="330.69" cy="219.07" r="2.6" fill="#A371F7"></circle><circle cx="349" cy="58.83" r="2.6" fill="#A371F7"></circle><circle cx="367.31" cy="197.05" r="2.6" fill="#A371F7"></circle><circle cx="385.62" cy="167.66" r="2.6" fill="#A371F7"></circle><circle cx="403.94" cy="75.26" r="2.6" fill="#A371F7"></circle><circle cx="422.25" cy="128.5" r="2.6" fill="#A371F7"></circle><circle cx="440.56" cy="152.23" r="2.6" fill="#A371F7"></circle><circle cx="458.88" cy="166.9" r="2.6" fill="#A371F7"></circle><circle cx="477.19" cy="183.57" r="2.6" fill="#A371F7"></circle><circle cx="495.5" cy="162.79" r="2.6" fill="#A371F7"></circle><circle cx="513.81" cy="148.18" r="2.6" fill="#A371F7"></circle><circle cx="532.12" cy="52.43" r="2.6" fill="#A371F7"></circle><circle cx="550.44" cy="96.59" r="2.6" fill="#A371F7"></circle><circle cx="568.75" cy="191.76" r="2.6" fill="#A371F7"></circle><circle cx="605.38" cy="151.86" r="2.6" fill="#A371F7"></circle><circle cx="623.69" cy="169.19" r="2.6" fill="#A371F7"></circle><circle cx="642" cy="135.22" r="2.6" fill="#A371F7"></circle><polyline fill="none" stroke="#F0A23B" stroke-width="2.4" stroke-linejoin="round" stroke-linecap="round" points="56,170.6 74.31,150.62 92.62,187.27 110.94,153.33 129.25,137.4 147.56,187.39 165.88,202.98 184.19,219.57 202.5,187.3 220.81,163.64 239.12,218.54 257.44,247.9 275.75,222.75 294.06,249.71 312.38,224.7 330.69,243.69 349,245.81 367.31,211.84 385.62,236.21 403.94,257.78 422.25,248.63 440.56,234.2 458.88,247.57 477.19,243.66 495.5,258.59 513.81,253.94 532.12,235.44 550.44,209.7 568.75,229.87 587.06,229.74 605.38,242.74 623.69,219.28 642,218.69"></polyline><circle cx="56" cy="170.6" r="2.6" fill="#F0A23B"></circle><circle cx="74.31" cy="150.62" r="2.6" fill="#F0A23B"></circle><circle cx="92.62" cy="187.27" r="2.6" fill="#F0A23B"></circle><circle cx="110.94" cy="153.33" r="2.6" fill="#F0A23B"></circle><circle cx="129.25" cy="137.4" r="2.6" fill="#F0A23B"></circle><circle cx="147.56" cy="187.39" r="2.6" fill="#F0A23B"></circle><circle cx="165.88" cy="202.98" r="2.6" fill="#F0A23B"></circle><circle cx="184.19" cy="219.57" r="2.6" fill="#F0A23B"></circle><circle cx="202.5" cy="187.3" r="2.6" fill="#F0A23B"></circle><circle cx="220.81" cy="163.64" r="2.6" fill="#F0A23B"></circle><circle cx="239.12" cy="218.54" r="2.6" fill="#F0A23B"></circle><circle cx="257.44" cy="247.9" r="2.6" fill="#F0A23B"></circle><circle cx="275.75" cy="222.75" r="2.6" fill="#F0A23B"></circle><circle cx="294.06" cy="249.71" r="2.6" fill="#F0A23B"></circle><circle cx="312.38" cy="224.7" r="2.6" fill="#F0A23B"></circle><circle cx="330.69" cy="243.69" r="2.6" fill="#F0A23B"></circle><circle cx="349" cy="245.81" r="2.6" fill="#F0A23B"></circle><circle cx="367.31" cy="211.84" r="2.6" fill="#F0A23B"></circle><circle cx="385.62" cy="236.21" r="2.6" fill="#F0A23B"></circle><circle cx="403.94" cy="257.78" r="2.6" fill="#F0A23B"></circle><circle cx="422.25" cy="248.63" r="2.6" fill="#F0A23B"></circle><circle cx="440.56" cy="234.2" r="2.6" fill="#F0A23B"></circle><circle cx="458.88" cy="247.57" r="2.6" fill="#F0A23B"></circle><circle cx="477.19" cy="243.66" r="2.6" fill="#F0A23B"></circle><circle cx="495.5" cy="258.59" r="2.6" fill="#F0A23B"></circle><circle cx="513.81" cy="253.94" r="2.6" fill="#F0A23B"></circle><circle cx="532.12" cy="235.44" r="2.6" fill="#F0A23B"></circle><circle cx="550.44" cy="209.7" r="2.6" fill="#F0A23B"></circle><circle cx="568.75" cy="229.87" r="2.6" fill="#F0A23B"></circle><circle cx="587.06" cy="229.74" r="2.6" fill="#F0A23B"></circle><circle cx="605.38" cy="242.74" r="2.6" fill="#F0A23B"></circle><circle cx="623.69" cy="219.28" r="2.6" fill="#F0A23B"></circle><circle cx="642" cy="218.69" r="2.6" fill="#F0A23B"></circle><polyline fill="none" stroke="#1F9CF0" stroke-width="2.4" stroke-linejoin="round" stroke-linecap="round" points="56,198.31 74.31,224.59 92.62,214.73 110.94,247.97 129.25,236.75 147.56,219.64 165.88,238.79 184.19,207.95 202.5,201.38 220.81,239.3 239.12,242.33 257.44,177.25 275.75,218.95 294.06,232.82 312.38,248.48 330.69,252.97 349,230.93 367.31,242.47 385.62,240.12 403.94,248.48 422.25,256.65 440.56,261.44 458.88,262.41 477.19,264.75 495.5,261.4 513.81,262.76 532.12,244.65 550.44,230.98 568.75,234.56 587.06,260.01 605.38,254.76 623.69,238.53 642,231.76"></polyline><circle cx="56" cy="198.31" r="2.6" fill="#1F9CF0"></circle><circle cx="74.31" cy="224.59" r="2.6" fill="#1F9CF0"></circle><circle cx="92.62" cy="214.73" r="2.6" fill="#1F9CF0"></circle><circle cx="110.94" cy="247.97" r="2.6" fill="#1F9CF0"></circle><circle cx="129.25" cy="236.75" r="2.6" fill="#1F9CF0"></circle><circle cx="147.56" cy="219.64" r="2.6" fill="#1F9CF0"></circle><circle cx="165.88" cy="238.79" r="2.6" fill="#1F9CF0"></circle><circle cx="184.19" cy="207.95" r="2.6" fill="#1F9CF0"></circle><circle cx="202.5" cy="201.38" r="2.6" fill="#1F9CF0"></circle><circle cx="220.81" cy="239.3" r="2.6" fill="#1F9CF0"></circle><circle cx="239.12" cy="242.33" r="2.6" fill="#1F9CF0"></circle><circle cx="257.44" cy="177.25" r="2.6" fill="#1F9CF0"></circle><circle cx="275.75" cy="218.95" r="2.6" fill="#1F9CF0"></circle><circle cx="294.06" cy="232.82" r="2.6" fill="#1F9CF0"></circle><circle cx="312.38" cy="248.48" r="2.6" fill="#1F9CF0"></circle><circle cx="330.69" cy="252.97" r="2.6" fill="#1F9CF0"></circle><circle cx="349" cy="230.93" r="2.6" fill="#1F9CF0"></circle><circle cx="367.31" cy="242.47" r="2.6" fill="#1F9CF0"></circle><circle cx="385.62" cy="240.12" r="2.6" fill="#1F9CF0"></circle><circle cx="403.94" cy="248.48" r="2.6" fill="#1F9CF0"></circle><circle cx="422.25" cy="256.65" r="2.6" fill="#1F9CF0"></circle><circle cx="440.56" cy="261.44" r="2.6" fill="#1F9CF0"></circle><circle cx="458.88" cy="262.41" r="2.6" fill="#1F9CF0"></circle><circle cx="477.19" cy="264.75" r="2.6" fill="#1F9CF0"></circle><circle cx="495.5" cy="261.4" r="2.6" fill="#1F9CF0"></circle><circle cx="513.81" cy="262.76" r="2.6" fill="#1F9CF0"></circle><circle cx="532.12" cy="244.65" r="2.6" fill="#1F9CF0"></circle><circle cx="550.44" cy="230.98" r="2.6" fill="#1F9CF0"></circle><circle cx="568.75" cy="234.56" r="2.6" fill="#1F9CF0"></circle><circle cx="587.06" cy="260.01" r="2.6" fill="#1F9CF0"></circle><circle cx="605.38" cy="254.76" r="2.6" fill="#1F9CF0"></circle><circle cx="623.69" cy="238.53" r="2.6" fill="#1F9CF0"></circle><circle cx="642" cy="231.76" r="2.6" fill="#1F9CF0"></circle><line x1="656" y1="27" x2="672" y2="27" stroke="#E8835A" stroke-width="3" stroke-linecap="round"></line><text x="678" y="30" font-size="11" font-weight="400" text-anchor="start" fill="#e6edf3">anthropic</text><line x1="656" y1="47" x2="672" y2="47" stroke="#6366F1" stroke-width="3" stroke-linecap="round"></line><text x="678" y="50" font-size="11" font-weight="400" text-anchor="start" fill="#e6edf3">deepseek</text><line x1="656" y1="67" x2="672" y2="67" stroke="#2DA98C" stroke-width="3" stroke-linecap="round"></line><text x="678" y="70" font-size="11" font-weight="400" text-anchor="start" fill="#e6edf3">gemini</text><line x1="656" y1="87" x2="672" y2="87" stroke="#A371F7" stroke-width="3" stroke-linecap="round"></line><text x="678" y="90" font-size="11" font-weight="400" text-anchor="start" fill="#e6edf3">llama</text><line x1="656" y1="107" x2="672" y2="107" stroke="#F0A23B" stroke-width="3" stroke-linecap="round"></line><text x="678" y="110" font-size="11" font-weight="400" text-anchor="start" fill="#e6edf3">mistral</text><line x1="656" y1="127" x2="672" y2="127" stroke="#1F9CF0" stroke-width="3" stroke-linecap="round"></line><text x="678" y="130" font-size="11" font-weight="400" text-anchor="start" fill="#e6edf3">openai</text></svg>
