<svg xmlns="http://www.w3.org/2000/svg" viewBox="0 0 600 300" width="600" height="300" role="img" aria-label="Avg LLM latency by provider over runs (s)"><text x="300.0" y="24" text-anchor="middle" font-family="system-ui, -apple-system, sans-serif" font-size="14" font-weight="600" fill="#333">Avg LLM latency by provider over runs (s)</text><line x1="60" y1="240.0" x2="480" y2="240.0" stroke="#eee" stroke-width="1"/><text x="54" y="244.0" text-anchor="end" font-family="system-ui, -apple-system, sans-serif" font-size="9" fill="#999">41.35</text><line x1="60" y1="140.0" x2="480" y2="140.0" stroke="#eee" stroke-width="1"/><text x="54" y="144.0" text-anchor="end" font-family="system-ui, -apple-system, sans-serif" font-size="9" fill="#999">137</text><line x1="60" y1="40.0" x2="480" y2="40.0" stroke="#eee" stroke-width="1"/><text x="54" y="44.0" text-anchor="end" font-family="system-ui, -apple-system, sans-serif" font-size="9" fill="#999">232.7</text><polyline fill="none" stroke="#4CAF50" stroke-width="2" points="60.0,152.3 92.3,184.3 124.6,172.3 156.9,212.7 189.2,199.1 221.5,178.3 253.8,201.5 286.2,164.1 318.5,156.1 350.8,202.2 383.1,205.8 415.4,126.8 447.7,177.4 480.0,194.3"/><circle cx="60.0" cy="152.3" r="3" fill="#4CAF50"/><circle cx="92.3" cy="184.3" r="3" fill="#4CAF50"/><circle cx="124.6" cy="172.3" r="3" fill="#4CAF50"/><circle cx="156.9" cy="212.7" r="3" fill="#4CAF50"/><circle cx="189.2" cy="199.1" r="3" fill="#4CAF50"/><circle cx="221.5" cy="178.3" r="3" fill="#4CAF50"/><circle cx="253.8" cy="201.5" r="3" fill="#4CAF50"/><circle cx="286.2" cy="164.1" r="3" fill="#4CAF50"/><circle cx="318.5" cy="156.1" r="3" fill="#4CAF50"/><circle cx="350.8" cy="202.2" r="3" fill="#4CAF50"/><circle cx="383.1" cy="205.8" r="3" fill="#4CAF50"/><circle cx="415.4" cy="126.8" r="3" fill="#4CAF50"/><circle cx="447.7" cy="177.4" r="3" fill="#4CAF50"/><circle cx="480.0" cy="194.3" r="3" fill="#4CAF50"/><rect x="490" y="44" width="10" height="10" fill="#4CAF50"/><text x="504" y="53" font-family="system-ui, -apple-system, sans-serif" font-size="10" fill="#333">openai</text><polyline fill="none" stroke="#2196F3" stroke-width="2" points="60.0,189.8 92.3,193.7 124.6,201.7 156.9,207.9 189.2,197.5 221.5,194.3 253.8,215.5 286.2,207.1 318.5,205.0 350.8,192.2 415.4,195.8 447.7,208.3 480.0,189.3"/><circle cx="60.0" cy="189.8" r="3" fill="#2196F3"/><circle cx="92.3" cy="193.7" r="3" fill="#2196F3"/><circle cx="124.6" cy="201.7" r="3" fill="#2196F3"/><circle cx="156.9" cy="207.9" r="3" fill="#2196F3"/><circle cx="189.2" cy="197.5" r="3" fill="#2196F3"/><circle cx="221.5" cy="194.3" r="3" fill="#2196F3"/><circle cx="253.8" cy="215.5" r="3" fill="#2196F3"/><circle cx="286.2" cy="207.1" r="3" fill="#2196F3"/><circle cx="318.5" cy="205.0" r="3" fill="#2196F3"/><circle cx="350.8" cy="192.2" r="3" fill="#2196F3"/><circle cx="415.4" cy="195.8" r="3" fill="#2196F3"/><circle cx="447.7" cy="208.3" r="3" fill="#2196F3"/><circle cx="480.0" cy="189.3" r="3" fill="#2196F3"/><rect x="490" y="62" width="10" height="10" fill="#2196F3"/><text x="504" y="71" font-family="system-ui, -apple-system, sans-serif" font-size="10" fill="#333">anthropic</text><polyline fill="none" stroke="#FF9800" stroke-width="2" points="60.0,160.8 92.3,173.1 124.6,123.0 156.9,175.7 189.2,177.1 221.5,187.9 253.8,159.0 286.2,144.9 318.5,173.1 350.8,148.1 383.1,148.2 415.4,83.3 447.7,92.3 480.0,148.1"/><circle cx="60.0" cy="160.8" r="3" fill="#FF9800"/><circle cx="92.3" cy="173.1" r="3" fill="#FF9800"/><circle cx="124.6" cy="123.0" r="3" fill="#FF9800"/><circle cx="156.9" cy="175.7" r="3" fill="#FF9800"/><circle cx="189.2" cy="177.1" r="3" fill="#FF9800"/><circle cx="221.5" cy="187.9" r="3" fill="#FF9800"/><circle cx="253.8" cy="159.0" r="3" fill="#FF9800"/><circle cx="286.2" cy="144.9" r="3" fill="#FF9800"/><circle cx="318.5" cy="173.1" r="3" fill="#FF9800"/><circle cx="350.8" cy="148.1" r="3" fill="#FF9800"/><circle cx="383.1" cy="148.2" r="3" fill="#FF9800"/><circle cx="415.4" cy="83.3" r="3" fill="#FF9800"/><circle cx="447.7" cy="92.3" r="3" fill="#FF9800"/><circle cx="480.0" cy="148.1" r="3" fill="#FF9800"/><rect x="490" y="80" width="10" height="10" fill="#FF9800"/><text x="504" y="89" font-family="system-ui, -apple-system, sans-serif" font-size="10" fill="#333">gemini</text><polyline fill="none" stroke="#E91E63" stroke-width="2" points="60.0,66.7 92.3,93.5 124.6,132.2 156.9,80.6 189.2,41.8 221.5,178.7 253.8,52.7 286.2,133.6 318.5,146.8 350.8,150.9 383.1,40.0 415.4,88.9 447.7,131.8 480.0,157.9"/><circle cx="60.0" cy="66.7" r="3" fill="#E91E63"/><circle cx="92.3" cy="93.5" r="3" fill="#E91E63"/><circle cx="124.6" cy="132.2" r="3" fill="#E91E63"/><circle cx="156.9" cy="80.6" r="3" fill="#E91E63"/><circle cx="189.2" cy="41.8" r="3" fill="#E91E63"/><circle cx="221.5" cy="178.7" r="3" fill="#E91E63"/><circle cx="253.8" cy="52.7" r="3" fill="#E91E63"/><circle cx="286.2" cy="133.6" r="3" fill="#E91E63"/><circle cx="318.5" cy="146.8" r="3" fill="#E91E63"/><circle cx="350.8" cy="150.9" r="3" fill="#E91E63"/><circle cx="383.1" cy="40.0" r="3" fill="#E91E63"/><circle cx="415.4" cy="88.9" r="3" fill="#E91E63"/><circle cx="447.7" cy="131.8" r="3" fill="#E91E63"/><circle cx="480.0" cy="157.9" r="3" fill="#E91E63"/><rect x="490" y="98" width="10" height="10" fill="#E91E63"/><text x="504" y="107" font-family="system-ui, -apple-system, sans-serif" font-size="10" fill="#333">llama</text><polyline fill="none" stroke="#9C27B0" stroke-width="2" points="60.0,118.7 92.3,94.4 124.6,138.9 156.9,97.7 189.2,78.3 221.5,139.1 253.8,158.0 286.2,178.2 318.5,139.0 350.8,110.2 383.1,176.9 415.4,212.6 447.7,182.1 480.0,214.8"/><circle cx="60.0" cy="118.7" r="3" fill="#9C27B0"/><circle cx="92.3" cy="94.4" r="3" fill="#9C27B0"/><circle cx="124.6" cy="138.9" r="3" fill="#9C27B0"/><circle cx="156.9" cy="97.7" r="3" fill="#9C27B0"/><circle cx="189.2" cy="78.3" r="3" fill="#9C27B0"/><circle cx="221.5" cy="139.1" r="3" fill="#9C27B0"/><circle cx="253.8" cy="158.0" r="3" fill="#9C27B0"/><circle cx="286.2" cy="178.2" r="3" fill="#9C27B0"/><circle cx="318.5" cy="139.0" r="3" fill="#9C27B0"/><circle cx="350.8" cy="110.2" r="3" fill="#9C27B0"/><circle cx="383.1" cy="176.9" r="3" fill="#9C27B0"/><circle cx="415.4" cy="212.6" r="3" fill="#9C27B0"/><circle cx="447.7" cy="182.1" r="3" fill="#9C27B0"/><circle cx="480.0" cy="214.8" r="3" fill="#9C27B0"/><rect x="490" y="116" width="10" height="10" fill="#9C27B0"/><text x="504" y="125" font-family="system-ui, -apple-system, sans-serif" font-size="10" fill="#333">mistral</text><polyline fill="none" stroke="#00BCD4" stroke-width="2" points="92.3,211.8 124.6,205.9 156.9,215.1 189.2,191.4 221.5,227.6 253.8,227.7 286.2,240.0 318.5,213.9 350.8,209.3 383.1,212.5 415.4,222.7 447.7,213.6 480.0,229.1"/><circle cx="92.3" cy="211.8" r="3" fill="#00BCD4"/><circle cx="124.6" cy="205.9" r="3" fill="#00BCD4"/><circle cx="156.9" cy="215.1" r="3" fill="#00BCD4"/><circle cx="189.2" cy="191.4" r="3" fill="#00BCD4"/><circle cx="221.5" cy="227.6" r="3" fill="#00BCD4"/><circle cx="253.8" cy="227.7" r="3" fill="#00BCD4"/><circle cx="286.2" cy="240.0" r="3" fill="#00BCD4"/><circle cx="318.5" cy="213.9" r="3" fill="#00BCD4"/><circle cx="350.8" cy="209.3" r="3" fill="#00BCD4"/><circle cx="383.1" cy="212.5" r="3" fill="#00BCD4"/><circle cx="415.4" cy="222.7" r="3" fill="#00BCD4"/><circle cx="447.7" cy="213.6" r="3" fill="#00BCD4"/><circle cx="480.0" cy="229.1" r="3" fill="#00BCD4"/><rect x="490" y="134" width="10" height="10" fill="#00BCD4"/><text x="504" y="143" font-family="system-ui, -apple-system, sans-serif" font-size="10" fill="#333">deepseek</text><text x="60.0" y="256.0" text-anchor="middle" font-family="system-ui, -apple-system, sans-serif" font-size="9" fill="#666">33376499</text><text x="92.3" y="256.0" text-anchor="middle" font-family="system-ui, -apple-system, sans-serif" font-size="9" fill="#666">49559976</text><text x="124.6" y="256.0" text-anchor="middle" font-family="system-ui, -apple-system, sans-serif" font-size="9" fill="#666">51938981</text><text x="156.9" y="256.0" text-anchor="middle" font-family="system-ui, -apple-system, sans-serif" font-size="9" fill="#666">53749546</text><text x="189.2" y="256.0" text-anchor="middle" font-family="system-ui, -apple-system, sans-serif" font-size="9" fill="#666">54994841</text><text x="221.5" y="256.0" text-anchor="middle" font-family="system-ui, -apple-system, sans-serif" font-size="9" fill="#666">73723278</text><text x="253.8" y="256.0" text-anchor="middle" font-family="system-ui, -apple-system, sans-serif" font-size="9" fill="#666">74446787</text><text x="286.2" y="256.0" text-anchor="middle" font-family="system-ui, -apple-system, sans-serif" font-size="9" fill="#666">75063969</text><text x="318.5" y="256.0" text-anchor="middle" font-family="system-ui, -apple-system, sans-serif" font-size="9" fill="#666">75757458</text><text x="350.8" y="256.0" text-anchor="middle" font-family="system-ui, -apple-system, sans-serif" font-size="9" fill="#666">76005435</text><text x="383.1" y="256.0" text-anchor="middle" font-family="system-ui, -apple-system, sans-serif" font-size="9" fill="#666">37885074</text><text x="415.4" y="256.0" text-anchor="middle" font-family="system-ui, -apple-system, sans-serif" font-size="9" fill="#666">39719442</text><text x="447.7" y="256.0" text-anchor="middle" font-family="system-ui, -apple-system, sans-serif" font-size="9" fill="#666">41073326</text><text x="480.0" y="256.0" text-anchor="middle" font-family="system-ui, -apple-system, sans-serif" font-size="9" fill="#666">41747041</text></svg>
