<svg xmlns="http://www.w3.org/2000/svg" viewBox="0 0 760 348" width="760" height="348" role="img" aria-label="Average LLM latency by provider over runs — llama highest, deepseek lowest" font-family="-apple-system,BlinkMacSystemFont,'Segoe UI',system-ui,sans-serif"><line x1="56" y1="306" x2="642" y2="306" stroke="#30363d" stroke-width="1"></line><text x="46" y="310" font-size="9.5" font-weight="400" text-anchor="end" fill="#8b949e" font-family="ui-monospace,SFMono-Regular,Menlo,monospace">0.0s</text><line x1="56" y1="235" x2="642" y2="235" stroke="#30363d" stroke-width="1"></line><text x="46" y="239" font-size="9.5" font-weight="400" text-anchor="end" fill="#8b949e" font-family="ui-monospace,SFMono-Regular,Menlo,monospace">82.5s</text><line x1="56" y1="164" x2="642" y2="164" stroke="#30363d" stroke-width="1"></line><text x="46" y="168" font-size="9.5" font-weight="400" text-anchor="end" fill="#8b949e" font-family="ui-monospace,SFMono-Regular,Menlo,monospace">165.1s</text><line x1="56" y1="93" x2="642" y2="93" stroke="#30363d" stroke-width="1"></line><text x="46" y="97" font-size="9.5" font-weight="400" text-anchor="end" fill="#8b949e" font-family="ui-monospace,SFMono-Regular,Menlo,monospace">247.6s</text><line x1="56" y1="22" x2="642" y2="22" stroke="#30363d" stroke-width="1"></line><text x="46" y="26" font-size="9.5" font-weight="400" text-anchor="end" fill="#8b949e" font-family="ui-monospace,SFMono-Regular,Menlo,monospace">330.2s</text><text x="56" y="324" font-size="9.5" font-weight="400" text-anchor="middle" fill="#8b949e" font-family="ui-monospace,SFMono-Regular,Menlo,monospace">06/08</text><text x="113.64" y="324" font-size="9.5" font-weight="400" text-anchor="middle" fill="#8b949e" font-family="ui-monospace,SFMono-Regular,Menlo,monospace">06/08</text><text x="171.28" y="324" font-size="9.5" font-weight="400" text-anchor="middle" fill="#8b949e" font-family="ui-monospace,SFMono-Regular,Menlo,monospace">06/09</text><text x="228.92" y="324" font-size="9.5" font-weight="400" text-anchor="middle" fill="#8b949e" font-family="ui-monospace,SFMono-Regular,Menlo,monospace">06/12</text><text x="286.56" y="324" font-size="9.5" font-weight="400" text-anchor="middle" fill="#8b949e" font-family="ui-monospace,SFMono-Regular,Menlo,monospace">06/14</text><text x="344.2" y="324" font-size="9.5" font-weight="400" text-anchor="middle" fill="#8b949e" font-family="ui-monospace,SFMono-Regular,Menlo,monospace">06/15</text><text x="401.84" y="324" font-size="9.5" font-weight="400" text-anchor="middle" fill="#8b949e" font-family="ui-monospace,SFMono-Regular,Menlo,monospace">06/16</text><text x="459.48" y="324" font-size="9.5" font-weight="400" text-anchor="middle" fill="#8b949e" font-family="ui-monospace,SFMono-Regular,Menlo,monospace">06/18</text><text x="517.11" y="324" font-size="9.5" font-weight="400" text-anchor="middle" fill="#8b949e" font-family="ui-monospace,SFMono-Regular,Menlo,monospace">06/20</text><text x="574.75" y="324" font-size="9.5" font-weight="400" text-anchor="middle" fill="#8b949e" font-family="ui-monospace,SFMono-Regular,Menlo,monospace">06/21</text><text x="632.39" y="324" font-size="9.5" font-weight="400" text-anchor="middle" fill="#8b949e" font-family="ui-monospace,SFMono-Regular,Menlo,monospace">06/22</text><text x="642" y="324" font-size="9.5" font-weight="400" text-anchor="middle" fill="#8b949e" font-family="ui-monospace,SFMono-Regular,Menlo,monospace">06/22</text><polyline fill="none" stroke="#E8835A" stroke-width="2.4" stroke-linejoin="round" stroke-linecap="round" points="56,229.15 65.61,232.31 75.21,238.94 84.82,244 94.43,235.49 104.03,232.81 113.64,250.28 123.25,243.38 132.85,241.66 142.46,231.14 161.67,234.04 171.28,244.32 180.89,228.71 190.49,246.08 200.1,242.18 209.7,235.58 219.31,242.32 228.92,244.55 238.52,246.98 248.13,240.71 257.74,250.83 267.34,244.26 276.95,241.33 286.56,245.63 296.16,245.02 305.77,240.82 315.38,243.78 324.98,243.28 334.59,240.2 344.2,242.69 353.8,215.59 363.41,241.79 373.02,238.64 382.62,243.45 392.23,243.86 401.84,234.8 411.44,244.51 421.05,244.64"></polyline><circle cx="56" cy="229.15" r="2.6" fill="#E8835A"></circle><circle cx="65.61" cy="232.31" r="2.6" fill="#E8835A"></circle><circle cx="75.21" cy="238.94" r="2.6" fill="#E8835A"></circle><circle cx="84.82" cy="244" r="2.6" fill="#E8835A"></circle><circle cx="94.43" cy="235.49" r="2.6" fill="#E8835A"></circle><circle cx="104.03" cy="232.81" r="2.6" fill="#E8835A"></circle><circle cx="113.64" cy="250.28" r="2.6" fill="#E8835A"></circle><circle cx="123.25" cy="243.38" r="2.6" fill="#E8835A"></circle><circle cx="132.85" cy="241.66" r="2.6" fill="#E8835A"></circle><circle cx="142.46" cy="231.14" r="2.6" fill="#E8835A"></circle><circle cx="161.67" cy="234.04" r="2.6" fill="#E8835A"></circle><circle cx="171.28" cy="244.32" r="2.6" fill="#E8835A"></circle><circle cx="180.89" cy="228.71" r="2.6" fill="#E8835A"></circle><circle cx="190.49" cy="246.08" r="2.6" fill="#E8835A"></circle><circle cx="200.1" cy="242.18" r="2.6" fill="#E8835A"></circle><circle cx="209.7" cy="235.58" r="2.6" fill="#E8835A"></circle><circle cx="219.31" cy="242.32" r="2.6" fill="#E8835A"></circle><circle cx="228.92" cy="244.55" r="2.6" fill="#E8835A"></circle><circle cx="238.52" cy="246.98" r="2.6" fill="#E8835A"></circle><circle cx="248.13" cy="240.71" r="2.6" fill="#E8835A"></circle><circle cx="257.74" cy="250.83" r="2.6" fill="#E8835A"></circle><circle cx="267.34" cy="244.26" r="2.6" fill="#E8835A"></circle><circle cx="276.95" cy="241.33" r="2.6" fill="#E8835A"></circle><circle cx="286.56" cy="245.63" r="2.6" fill="#E8835A"></circle><circle cx="296.16" cy="245.02" r="2.6" fill="#E8835A"></circle><circle cx="305.77" cy="240.82" r="2.6" fill="#E8835A"></circle><circle cx="315.38" cy="243.78" r="2.6" fill="#E8835A"></circle><circle cx="324.98" cy="243.28" r="2.6" fill="#E8835A"></circle><circle cx="334.59" cy="240.2" r="2.6" fill="#E8835A"></circle><circle cx="344.2" cy="242.69" r="2.6" fill="#E8835A"></circle><circle cx="353.8" cy="215.59" r="2.6" fill="#E8835A"></circle><circle cx="363.41" cy="241.79" r="2.6" fill="#E8835A"></circle><circle cx="373.02" cy="238.64" r="2.6" fill="#E8835A"></circle><circle cx="382.62" cy="243.45" r="2.6" fill="#E8835A"></circle><circle cx="392.23" cy="243.86" r="2.6" fill="#E8835A"></circle><circle cx="401.84" cy="234.8" r="2.6" fill="#E8835A"></circle><circle cx="411.44" cy="244.51" r="2.6" fill="#E8835A"></circle><circle cx="421.05" cy="244.64" r="2.6" fill="#E8835A"></circle><polyline fill="none" stroke="#6366F1" stroke-width="2.4" stroke-linejoin="round" stroke-linecap="round" points="65.61,247.24 75.21,242.4 84.82,249.98 94.43,230.48 104.03,260.21 113.64,260.34 123.25,270.44 132.85,248.92 142.46,245.19 152.07,247.83 161.67,256.22 171.28,248.72 180.89,261.47 190.49,243.58 200.1,210.49 209.7,266.33 219.31,232.33 228.92,232.27 238.52,199.16 248.13,237.91 257.74,252.97 267.34,266.11 276.95,215.25 286.56,265.97 296.16,258.25 305.77,265.82 315.38,246.69 324.98,244.53 344.2,240.91 353.8,255.51 363.41,252.51 373.02,237.2 382.62,258.24 392.23,235.84 401.84,252.87 411.44,243.73 421.05,249.01 440.26,263.05 449.87,262.95 459.48,250.85 469.08,238.76 478.69,245.84 488.3,240.49 497.9,244.58 507.51,238.25 517.11,266.43 526.72,219.91 536.33,256.77 555.54,250.11 565.15,264.15 574.75,249.18 584.36,252.64 593.97,236.94 603.57,257.91 613.18,245.05 622.79,245.47 632.39,251.25 642,250.75"></polyline><circle cx="65.61" cy="247.24" r="2.6" fill="#6366F1"></circle><circle cx="75.21" cy="242.4" r="2.6" fill="#6366F1"></circle><circle cx="84.82" cy="249.98" r="2.6" fill="#6366F1"></circle><circle cx="94.43" cy="230.48" r="2.6" fill="#6366F1"></circle><circle cx="104.03" cy="260.21" r="2.6" fill="#6366F1"></circle><circle cx="113.64" cy="260.34" r="2.6" fill="#6366F1"></circle><circle cx="123.25" cy="270.44" r="2.6" fill="#6366F1"></circle><circle cx="132.85" cy="248.92" r="2.6" fill="#6366F1"></circle><circle cx="142.46" cy="245.19" r="2.6" fill="#6366F1"></circle><circle cx="152.07" cy="247.83" r="2.6" fill="#6366F1"></circle><circle cx="161.67" cy="256.22" r="2.6" fill="#6366F1"></circle><circle cx="171.28" cy="248.72" r="2.6" fill="#6366F1"></circle><circle cx="180.89" cy="261.47" r="2.6" fill="#6366F1"></circle><circle cx="190.49" cy="243.58" r="2.6" fill="#6366F1"></circle><circle cx="200.1" cy="210.49" r="2.6" fill="#6366F1"></circle><circle cx="209.7" cy="266.33" r="2.6" fill="#6366F1"></circle><circle cx="219.31" cy="232.33" r="2.6" fill="#6366F1"></circle><circle cx="228.92" cy="232.27" r="2.6" fill="#6366F1"></circle><circle cx="238.52" cy="199.16" r="2.6" fill="#6366F1"></circle><circle cx="248.13" cy="237.91" r="2.6" fill="#6366F1"></circle><circle cx="257.74" cy="252.97" r="2.6" fill="#6366F1"></circle><circle cx="267.34" cy="266.11" r="2.6" fill="#6366F1"></circle><circle cx="276.95" cy="215.25" r="2.6" fill="#6366F1"></circle><circle cx="286.56" cy="265.97" r="2.6" fill="#6366F1"></circle><circle cx="296.16" cy="258.25" r="2.6" fill="#6366F1"></circle><circle cx="305.77" cy="265.82" r="2.6" fill="#6366F1"></circle><circle cx="315.38" cy="246.69" r="2.6" fill="#6366F1"></circle><circle cx="324.98" cy="244.53" r="2.6" fill="#6366F1"></circle><circle cx="344.2" cy="240.91" r="2.6" fill="#6366F1"></circle><circle cx="353.8" cy="255.51" r="2.6" fill="#6366F1"></circle><circle cx="363.41" cy="252.51" r="2.6" fill="#6366F1"></circle><circle cx="373.02" cy="237.2" r="2.6" fill="#6366F1"></circle><circle cx="382.62" cy="258.24" r="2.6" fill="#6366F1"></circle><circle cx="392.23" cy="235.84" r="2.6" fill="#6366F1"></circle><circle cx="401.84" cy="252.87" r="2.6" fill="#6366F1"></circle><circle cx="411.44" cy="243.73" r="2.6" fill="#6366F1"></circle><circle cx="421.05" cy="249.01" r="2.6" fill="#6366F1"></circle><circle cx="440.26" cy="263.05" r="2.6" fill="#6366F1"></circle><circle cx="449.87" cy="262.95" r="2.6" fill="#6366F1"></circle><circle cx="459.48" cy="250.85" r="2.6" fill="#6366F1"></circle><circle cx="469.08" cy="238.76" r="2.6" fill="#6366F1"></circle><circle cx="478.69" cy="245.84" r="2.6" fill="#6366F1"></circle><circle cx="488.3" cy="240.49" r="2.6" fill="#6366F1"></circle><circle cx="497.9" cy="244.58" r="2.6" fill="#6366F1"></circle><circle cx="507.51" cy="238.25" r="2.6" fill="#6366F1"></circle><circle cx="517.11" cy="266.43" r="2.6" fill="#6366F1"></circle><circle cx="526.72" cy="219.91" r="2.6" fill="#6366F1"></circle><circle cx="536.33" cy="256.77" r="2.6" fill="#6366F1"></circle><circle cx="555.54" cy="250.11" r="2.6" fill="#6366F1"></circle><circle cx="565.15" cy="264.15" r="2.6" fill="#6366F1"></circle><circle cx="574.75" cy="249.18" r="2.6" fill="#6366F1"></circle><circle cx="584.36" cy="252.64" r="2.6" fill="#6366F1"></circle><circle cx="593.97" cy="236.94" r="2.6" fill="#6366F1"></circle><circle cx="603.57" cy="257.91" r="2.6" fill="#6366F1"></circle><circle cx="613.18" cy="245.05" r="2.6" fill="#6366F1"></circle><circle cx="622.79" cy="245.47" r="2.6" fill="#6366F1"></circle><circle cx="632.39" cy="251.25" r="2.6" fill="#6366F1"></circle><circle cx="642" cy="250.75" r="2.6" fill="#6366F1"></circle><polyline fill="none" stroke="#2DA98C" stroke-width="2.4" stroke-linejoin="round" stroke-linecap="round" points="56,205.26 65.61,215.39 75.21,174.15 84.82,217.56 94.43,218.68 104.03,227.57 113.64,203.76 123.25,192.14 132.85,215.35 142.46,194.78 152.07,194.92 161.67,141.5 171.28,148.87 180.89,194.84 190.49,180.85 200.1,202.09 209.7,169.08 219.31,211.29 228.92,193.77 238.52,192.04 248.13,206.61 344.2,221.15 353.8,190.23 363.41,183.33 373.02,225.15 382.62,184.37 392.23,182.1 401.84,210.86 411.44,161.53 421.05,210.56 440.26,182.01 449.87,172.32 459.48,181.93 469.08,186.76 478.69,217.59 488.3,171.76 497.9,211.13 507.51,171.55 517.11,181.17 526.72,189.96 536.33,191.02 555.54,212.98 565.15,170.09 574.75,127.97 584.36,222.7 593.97,200.4 603.57,155.75 613.18,184.88 622.79,176.48 632.39,167.89 642,205.24"></polyline><circle cx="56" cy="205.26" r="2.6" fill="#2DA98C"></circle><circle cx="65.61" cy="215.39" r="2.6" fill="#2DA98C"></circle><circle cx="75.21" cy="174.15" r="2.6" fill="#2DA98C"></circle><circle cx="84.82" cy="217.56" r="2.6" fill="#2DA98C"></circle><circle cx="94.43" cy="218.68" r="2.6" fill="#2DA98C"></circle><circle cx="104.03" cy="227.57" r="2.6" fill="#2DA98C"></circle><circle cx="113.64" cy="203.76" r="2.6" fill="#2DA98C"></circle><circle cx="123.25" cy="192.14" r="2.6" fill="#2DA98C"></circle><circle cx="132.85" cy="215.35" r="2.6" fill="#2DA98C"></circle><circle cx="142.46" cy="194.78" r="2.6" fill="#2DA98C"></circle><circle cx="152.07" cy="194.92" r="2.6" fill="#2DA98C"></circle><circle cx="161.67" cy="141.5" r="2.6" fill="#2DA98C"></circle><circle cx="171.28" cy="148.87" r="2.6" fill="#2DA98C"></circle><circle cx="180.89" cy="194.84" r="2.6" fill="#2DA98C"></circle><circle cx="190.49" cy="180.85" r="2.6" fill="#2DA98C"></circle><circle cx="200.1" cy="202.09" r="2.6" fill="#2DA98C"></circle><circle cx="209.7" cy="169.08" r="2.6" fill="#2DA98C"></circle><circle cx="219.31" cy="211.29" r="2.6" fill="#2DA98C"></circle><circle cx="228.92" cy="193.77" r="2.6" fill="#2DA98C"></circle><circle cx="238.52" cy="192.04" r="2.6" fill="#2DA98C"></circle><circle cx="248.13" cy="206.61" r="2.6" fill="#2DA98C"></circle><circle cx="344.2" cy="221.15" r="2.6" fill="#2DA98C"></circle><circle cx="353.8" cy="190.23" r="2.6" fill="#2DA98C"></circle><circle cx="363.41" cy="183.33" r="2.6" fill="#2DA98C"></circle><circle cx="373.02" cy="225.15" r="2.6" fill="#2DA98C"></circle><circle cx="382.62" cy="184.37" r="2.6" fill="#2DA98C"></circle><circle cx="392.23" cy="182.1" r="2.6" fill="#2DA98C"></circle><circle cx="401.84" cy="210.86" r="2.6" fill="#2DA98C"></circle><circle cx="411.44" cy="161.53" r="2.6" fill="#2DA98C"></circle><circle cx="421.05" cy="210.56" r="2.6" fill="#2DA98C"></circle><circle cx="440.26" cy="182.01" r="2.6" fill="#2DA98C"></circle><circle cx="449.87" cy="172.32" r="2.6" fill="#2DA98C"></circle><circle cx="459.48" cy="181.93" r="2.6" fill="#2DA98C"></circle><circle cx="469.08" cy="186.76" r="2.6" fill="#2DA98C"></circle><circle cx="478.69" cy="217.59" r="2.6" fill="#2DA98C"></circle><circle cx="488.3" cy="171.76" r="2.6" fill="#2DA98C"></circle><circle cx="497.9" cy="211.13" r="2.6" fill="#2DA98C"></circle><circle cx="507.51" cy="171.55" r="2.6" fill="#2DA98C"></circle><circle cx="517.11" cy="181.17" r="2.6" fill="#2DA98C"></circle><circle cx="526.72" cy="189.96" r="2.6" fill="#2DA98C"></circle><circle cx="536.33" cy="191.02" r="2.6" fill="#2DA98C"></circle><circle cx="555.54" cy="212.98" r="2.6" fill="#2DA98C"></circle><circle cx="565.15" cy="170.09" r="2.6" fill="#2DA98C"></circle><circle cx="574.75" cy="127.97" r="2.6" fill="#2DA98C"></circle><circle cx="584.36" cy="222.7" r="2.6" fill="#2DA98C"></circle><circle cx="593.97" cy="200.4" r="2.6" fill="#2DA98C"></circle><circle cx="603.57" cy="155.75" r="2.6" fill="#2DA98C"></circle><circle cx="613.18" cy="184.88" r="2.6" fill="#2DA98C"></circle><circle cx="622.79" cy="176.48" r="2.6" fill="#2DA98C"></circle><circle cx="632.39" cy="167.89" r="2.6" fill="#2DA98C"></circle><circle cx="642" cy="205.24" r="2.6" fill="#2DA98C"></circle><polyline fill="none" stroke="#A371F7" stroke-width="2.4" stroke-linejoin="round" stroke-linecap="round" points="56,127.86 65.61,149.85 75.21,181.76 84.82,139.24 94.43,107.36 104.03,219.97 113.64,116.3 123.25,182.89 132.85,193.78 142.46,197.11 152.07,105.85 161.67,146.07 171.28,181.42 180.89,202.88 190.49,134.79 200.1,219.07 209.7,58.83 219.31,197.05 228.92,167.66 238.52,75.26 248.13,128.5 257.74,152.23 267.34,166.9 276.95,183.57 286.56,162.79 296.16,148.18 305.77,52.43 315.38,96.59 324.98,191.76 344.2,151.86 353.8,169.19 363.41,135.22 382.62,206.77 392.23,167.88 401.84,189.32 411.44,143.76 421.05,142.49 430.66,163.7 440.26,128.52 449.87,144.9 459.48,92.3 469.08,157.36 478.69,160.21 488.3,176.32 497.9,116.21 507.51,165.98 517.11,136.47 536.33,155.12 555.54,134.62 574.75,114.6 584.36,127.72 593.97,219.84 603.57,170.06 613.18,154.88 622.79,189.66 632.39,162.21 642,183.03"></polyline><circle cx="56" cy="127.86" r="2.6" fill="#A371F7"></circle><circle cx="65.61" cy="149.85" r="2.6" fill="#A371F7"></circle><circle cx="75.21" cy="181.76" r="2.6" fill="#A371F7"></circle><circle cx="84.82" cy="139.24" r="2.6" fill="#A371F7"></circle><circle cx="94.43" cy="107.36" r="2.6" fill="#A371F7"></circle><circle cx="104.03" cy="219.97" r="2.6" fill="#A371F7"></circle><circle cx="113.64" cy="116.3" r="2.6" fill="#A371F7"></circle><circle cx="123.25" cy="182.89" r="2.6" fill="#A371F7"></circle><circle cx="132.85" cy="193.78" r="2.6" fill="#A371F7"></circle><circle cx="142.46" cy="197.11" r="2.6" fill="#A371F7"></circle><circle cx="152.07" cy="105.85" r="2.6" fill="#A371F7"></circle><circle cx="161.67" cy="146.07" r="2.6" fill="#A371F7"></circle><circle cx="171.28" cy="181.42" r="2.6" fill="#A371F7"></circle><circle cx="180.89" cy="202.88" r="2.6" fill="#A371F7"></circle><circle cx="190.49" cy="134.79" r="2.6" fill="#A371F7"></circle><circle cx="200.1" cy="219.07" r="2.6" fill="#A371F7"></circle><circle cx="209.7" cy="58.83" r="2.6" fill="#A371F7"></circle><circle cx="219.31" cy="197.05" r="2.6" fill="#A371F7"></circle><circle cx="228.92" cy="167.66" r="2.6" fill="#A371F7"></circle><circle cx="238.52" cy="75.26" r="2.6" fill="#A371F7"></circle><circle cx="248.13" cy="128.5" r="2.6" fill="#A371F7"></circle><circle cx="257.74" cy="152.23" r="2.6" fill="#A371F7"></circle><circle cx="267.34" cy="166.9" r="2.6" fill="#A371F7"></circle><circle cx="276.95" cy="183.57" r="2.6" fill="#A371F7"></circle><circle cx="286.56" cy="162.79" r="2.6" fill="#A371F7"></circle><circle cx="296.16" cy="148.18" r="2.6" fill="#A371F7"></circle><circle cx="305.77" cy="52.43" r="2.6" fill="#A371F7"></circle><circle cx="315.38" cy="96.59" r="2.6" fill="#A371F7"></circle><circle cx="324.98" cy="191.76" r="2.6" fill="#A371F7"></circle><circle cx="344.2" cy="151.86" r="2.6" fill="#A371F7"></circle><circle cx="353.8" cy="169.19" r="2.6" fill="#A371F7"></circle><circle cx="363.41" cy="135.22" r="2.6" fill="#A371F7"></circle><circle cx="382.62" cy="206.77" r="2.6" fill="#A371F7"></circle><circle cx="392.23" cy="167.88" r="2.6" fill="#A371F7"></circle><circle cx="401.84" cy="189.32" r="2.6" fill="#A371F7"></circle><circle cx="411.44" cy="143.76" r="2.6" fill="#A371F7"></circle><circle cx="421.05" cy="142.49" r="2.6" fill="#A371F7"></circle><circle cx="430.66" cy="163.7" r="2.6" fill="#A371F7"></circle><circle cx="440.26" cy="128.52" r="2.6" fill="#A371F7"></circle><circle cx="449.87" cy="144.9" r="2.6" fill="#A371F7"></circle><circle cx="459.48" cy="92.3" r="2.6" fill="#A371F7"></circle><circle cx="469.08" cy="157.36" r="2.6" fill="#A371F7"></circle><circle cx="478.69" cy="160.21" r="2.6" fill="#A371F7"></circle><circle cx="488.3" cy="176.32" r="2.6" fill="#A371F7"></circle><circle cx="497.9" cy="116.21" r="2.6" fill="#A371F7"></circle><circle cx="507.51" cy="165.98" r="2.6" fill="#A371F7"></circle><circle cx="517.11" cy="136.47" r="2.6" fill="#A371F7"></circle><circle cx="536.33" cy="155.12" r="2.6" fill="#A371F7"></circle><circle cx="555.54" cy="134.62" r="2.6" fill="#A371F7"></circle><circle cx="574.75" cy="114.6" r="2.6" fill="#A371F7"></circle><circle cx="584.36" cy="127.72" r="2.6" fill="#A371F7"></circle><circle cx="593.97" cy="219.84" r="2.6" fill="#A371F7"></circle><circle cx="603.57" cy="170.06" r="2.6" fill="#A371F7"></circle><circle cx="613.18" cy="154.88" r="2.6" fill="#A371F7"></circle><circle cx="622.79" cy="189.66" r="2.6" fill="#A371F7"></circle><circle cx="632.39" cy="162.21" r="2.6" fill="#A371F7"></circle><circle cx="642" cy="183.03" r="2.6" fill="#A371F7"></circle><polyline fill="none" stroke="#F0A23B" stroke-width="2.4" stroke-linejoin="round" stroke-linecap="round" points="56,170.6 65.61,150.62 75.21,187.27 84.82,153.33 94.43,137.4 104.03,187.39 113.64,202.98 123.25,219.57 132.85,187.3 142.46,163.64 152.07,218.54 161.67,247.9 171.28,222.75 180.89,249.71 190.49,224.7 200.1,243.69 209.7,245.81 219.31,211.84 228.92,236.21 238.52,257.78 248.13,248.63 257.74,234.2 267.34,247.57 276.95,243.66 286.56,258.59 296.16,253.94 305.77,235.44 315.38,209.7 324.98,229.87 334.59,229.74 344.2,242.74 353.8,219.28 363.41,218.69 373.02,248.17 382.62,252.02 392.23,241.64 401.84,202.83 411.44,191.16 421.05,236.21 430.66,247.47 440.26,237.91 449.87,227.46 459.48,241.35 469.08,249.73 478.69,234.66 488.3,250 497.9,253.94 507.51,252.42 517.11,245.42 526.72,237.98 536.33,238.85 555.54,257.8 565.15,233.33 574.75,238.96 584.36,252.16 593.97,246.34 603.57,221.3 613.18,228.03 622.79,249.57 632.39,236.95 642,243.86"></polyline><circle cx="56" cy="170.6" r="2.6" fill="#F0A23B"></circle><circle cx="65.61" cy="150.62" r="2.6" fill="#F0A23B"></circle><circle cx="75.21" cy="187.27" r="2.6" fill="#F0A23B"></circle><circle cx="84.82" cy="153.33" r="2.6" fill="#F0A23B"></circle><circle cx="94.43" cy="137.4" r="2.6" fill="#F0A23B"></circle><circle cx="104.03" cy="187.39" r="2.6" fill="#F0A23B"></circle><circle cx="113.64" cy="202.98" r="2.6" fill="#F0A23B"></circle><circle cx="123.25" cy="219.57" r="2.6" fill="#F0A23B"></circle><circle cx="132.85" cy="187.3" r="2.6" fill="#F0A23B"></circle><circle cx="142.46" cy="163.64" r="2.6" fill="#F0A23B"></circle><circle cx="152.07" cy="218.54" r="2.6" fill="#F0A23B"></circle><circle cx="161.67" cy="247.9" r="2.6" fill="#F0A23B"></circle><circle cx="171.28" cy="222.75" r="2.6" fill="#F0A23B"></circle><circle cx="180.89" cy="249.71" r="2.6" fill="#F0A23B"></circle><circle cx="190.49" cy="224.7" r="2.6" fill="#F0A23B"></circle><circle cx="200.1" cy="243.69" r="2.6" fill="#F0A23B"></circle><circle cx="209.7" cy="245.81" r="2.6" fill="#F0A23B"></circle><circle cx="219.31" cy="211.84" r="2.6" fill="#F0A23B"></circle><circle cx="228.92" cy="236.21" r="2.6" fill="#F0A23B"></circle><circle cx="238.52" cy="257.78" r="2.6" fill="#F0A23B"></circle><circle cx="248.13" cy="248.63" r="2.6" fill="#F0A23B"></circle><circle cx="257.74" cy="234.2" r="2.6" fill="#F0A23B"></circle><circle cx="267.34" cy="247.57" r="2.6" fill="#F0A23B"></circle><circle cx="276.95" cy="243.66" r="2.6" fill="#F0A23B"></circle><circle cx="286.56" cy="258.59" r="2.6" fill="#F0A23B"></circle><circle cx="296.16" cy="253.94" r="2.6" fill="#F0A23B"></circle><circle cx="305.77" cy="235.44" r="2.6" fill="#F0A23B"></circle><circle cx="315.38" cy="209.7" r="2.6" fill="#F0A23B"></circle><circle cx="324.98" cy="229.87" r="2.6" fill="#F0A23B"></circle><circle cx="334.59" cy="229.74" r="2.6" fill="#F0A23B"></circle><circle cx="344.2" cy="242.74" r="2.6" fill="#F0A23B"></circle><circle cx="353.8" cy="219.28" r="2.6" fill="#F0A23B"></circle><circle cx="363.41" cy="218.69" r="2.6" fill="#F0A23B"></circle><circle cx="373.02" cy="248.17" r="2.6" fill="#F0A23B"></circle><circle cx="382.62" cy="252.02" r="2.6" fill="#F0A23B"></circle><circle cx="392.23" cy="241.64" r="2.6" fill="#F0A23B"></circle><circle cx="401.84" cy="202.83" r="2.6" fill="#F0A23B"></circle><circle cx="411.44" cy="191.16" r="2.6" fill="#F0A23B"></circle><circle cx="421.05" cy="236.21" r="2.6" fill="#F0A23B"></circle><circle cx="430.66" cy="247.47" r="2.6" fill="#F0A23B"></circle><circle cx="440.26" cy="237.91" r="2.6" fill="#F0A23B"></circle><circle cx="449.87" cy="227.46" r="2.6" fill="#F0A23B"></circle><circle cx="459.48" cy="241.35" r="2.6" fill="#F0A23B"></circle><circle cx="469.08" cy="249.73" r="2.6" fill="#F0A23B"></circle><circle cx="478.69" cy="234.66" r="2.6" fill="#F0A23B"></circle><circle cx="488.3" cy="250" r="2.6" fill="#F0A23B"></circle><circle cx="497.9" cy="253.94" r="2.6" fill="#F0A23B"></circle><circle cx="507.51" cy="252.42" r="2.6" fill="#F0A23B"></circle><circle cx="517.11" cy="245.42" r="2.6" fill="#F0A23B"></circle><circle cx="526.72" cy="237.98" r="2.6" fill="#F0A23B"></circle><circle cx="536.33" cy="238.85" r="2.6" fill="#F0A23B"></circle><circle cx="555.54" cy="257.8" r="2.6" fill="#F0A23B"></circle><circle cx="565.15" cy="233.33" r="2.6" fill="#F0A23B"></circle><circle cx="574.75" cy="238.96" r="2.6" fill="#F0A23B"></circle><circle cx="584.36" cy="252.16" r="2.6" fill="#F0A23B"></circle><circle cx="593.97" cy="246.34" r="2.6" fill="#F0A23B"></circle><circle cx="603.57" cy="221.3" r="2.6" fill="#F0A23B"></circle><circle cx="613.18" cy="228.03" r="2.6" fill="#F0A23B"></circle><circle cx="622.79" cy="249.57" r="2.6" fill="#F0A23B"></circle><circle cx="632.39" cy="236.95" r="2.6" fill="#F0A23B"></circle><circle cx="642" cy="243.86" r="2.6" fill="#F0A23B"></circle><polyline fill="none" stroke="#1F9CF0" stroke-width="2.4" stroke-linejoin="round" stroke-linecap="round" points="56,198.31 65.61,224.59 75.21,214.73 84.82,247.97 94.43,236.75 104.03,219.64 113.64,238.79 123.25,207.95 132.85,201.38 142.46,239.3 152.07,242.33 161.67,177.25 171.28,218.95 180.89,232.82 190.49,248.48 200.1,252.97 209.7,230.93 219.31,242.47 228.92,240.12 238.52,248.48 248.13,256.65 257.74,261.44 267.34,262.41 276.95,264.75 286.56,261.4 296.16,262.76 305.77,244.65 315.38,230.98 324.98,234.56 334.59,260.01 344.2,254.76 353.8,238.53 363.41,231.76 373.02,226.22 382.62,247.36 392.23,238.78 401.84,250.58 411.44,256.4 421.05,243.61 430.66,265.98 440.26,253.29 449.87,225.25 459.48,246.45 469.08,252.36 478.69,241.14 488.3,253.3 497.9,245.06 507.51,205.73 517.11,260.99 526.72,265.11 536.33,263.66 545.93,270.45 555.54,265.53 565.15,248.25 574.75,259.3 584.36,255.01"></polyline><circle cx="56" cy="198.31" r="2.6" fill="#1F9CF0"></circle><circle cx="65.61" cy="224.59" r="2.6" fill="#1F9CF0"></circle><circle cx="75.21" cy="214.73" r="2.6" fill="#1F9CF0"></circle><circle cx="84.82" cy="247.97" r="2.6" fill="#1F9CF0"></circle><circle cx="94.43" cy="236.75" r="2.6" fill="#1F9CF0"></circle><circle cx="104.03" cy="219.64" r="2.6" fill="#1F9CF0"></circle><circle cx="113.64" cy="238.79" r="2.6" fill="#1F9CF0"></circle><circle cx="123.25" cy="207.95" r="2.6" fill="#1F9CF0"></circle><circle cx="132.85" cy="201.38" r="2.6" fill="#1F9CF0"></circle><circle cx="142.46" cy="239.3" r="2.6" fill="#1F9CF0"></circle><circle cx="152.07" cy="242.33" r="2.6" fill="#1F9CF0"></circle><circle cx="161.67" cy="177.25" r="2.6" fill="#1F9CF0"></circle><circle cx="171.28" cy="218.95" r="2.6" fill="#1F9CF0"></circle><circle cx="180.89" cy="232.82" r="2.6" fill="#1F9CF0"></circle><circle cx="190.49" cy="248.48" r="2.6" fill="#1F9CF0"></circle><circle cx="200.1" cy="252.97" r="2.6" fill="#1F9CF0"></circle><circle cx="209.7" cy="230.93" r="2.6" fill="#1F9CF0"></circle><circle cx="219.31" cy="242.47" r="2.6" fill="#1F9CF0"></circle><circle cx="228.92" cy="240.12" r="2.6" fill="#1F9CF0"></circle><circle cx="238.52" cy="248.48" r="2.6" fill="#1F9CF0"></circle><circle cx="248.13" cy="256.65" r="2.6" fill="#1F9CF0"></circle><circle cx="257.74" cy="261.44" r="2.6" fill="#1F9CF0"></circle><circle cx="267.34" cy="262.41" r="2.6" fill="#1F9CF0"></circle><circle cx="276.95" cy="264.75" r="2.6" fill="#1F9CF0"></circle><circle cx="286.56" cy="261.4" r="2.6" fill="#1F9CF0"></circle><circle cx="296.16" cy="262.76" r="2.6" fill="#1F9CF0"></circle><circle cx="305.77" cy="244.65" r="2.6" fill="#1F9CF0"></circle><circle cx="315.38" cy="230.98" r="2.6" fill="#1F9CF0"></circle><circle cx="324.98" cy="234.56" r="2.6" fill="#1F9CF0"></circle><circle cx="334.59" cy="260.01" r="2.6" fill="#1F9CF0"></circle><circle cx="344.2" cy="254.76" r="2.6" fill="#1F9CF0"></circle><circle cx="353.8" cy="238.53" r="2.6" fill="#1F9CF0"></circle><circle cx="363.41" cy="231.76" r="2.6" fill="#1F9CF0"></circle><circle cx="373.02" cy="226.22" r="2.6" fill="#1F9CF0"></circle><circle cx="382.62" cy="247.36" r="2.6" fill="#1F9CF0"></circle><circle cx="392.23" cy="238.78" r="2.6" fill="#1F9CF0"></circle><circle cx="401.84" cy="250.58" r="2.6" fill="#1F9CF0"></circle><circle cx="411.44" cy="256.4" r="2.6" fill="#1F9CF0"></circle><circle cx="421.05" cy="243.61" r="2.6" fill="#1F9CF0"></circle><circle cx="430.66" cy="265.98" r="2.6" fill="#1F9CF0"></circle><circle cx="440.26" cy="253.29" r="2.6" fill="#1F9CF0"></circle><circle cx="449.87" cy="225.25" r="2.6" fill="#1F9CF0"></circle><circle cx="459.48" cy="246.45" r="2.6" fill="#1F9CF0"></circle><circle cx="469.08" cy="252.36" r="2.6" fill="#1F9CF0"></circle><circle cx="478.69" cy="241.14" r="2.6" fill="#1F9CF0"></circle><circle cx="488.3" cy="253.3" r="2.6" fill="#1F9CF0"></circle><circle cx="497.9" cy="245.06" r="2.6" fill="#1F9CF0"></circle><circle cx="507.51" cy="205.73" r="2.6" fill="#1F9CF0"></circle><circle cx="517.11" cy="260.99" r="2.6" fill="#1F9CF0"></circle><circle cx="526.72" cy="265.11" r="2.6" fill="#1F9CF0"></circle><circle cx="536.33" cy="263.66" r="2.6" fill="#1F9CF0"></circle><circle cx="545.93" cy="270.45" r="2.6" fill="#1F9CF0"></circle><circle cx="555.54" cy="265.53" r="2.6" fill="#1F9CF0"></circle><circle cx="565.15" cy="248.25" r="2.6" fill="#1F9CF0"></circle><circle cx="574.75" cy="259.3" r="2.6" fill="#1F9CF0"></circle><circle cx="584.36" cy="255.01" r="2.6" fill="#1F9CF0"></circle><line x1="656" y1="27" x2="672" y2="27" stroke="#E8835A" stroke-width="3" stroke-linecap="round"></line><text x="678" y="30" font-size="11" font-weight="400" text-anchor="start" fill="#e6edf3">anthropic</text><line x1="656" y1="47" x2="672" y2="47" stroke="#6366F1" stroke-width="3" stroke-linecap="round"></line><text x="678" y="50" font-size="11" font-weight="400" text-anchor="start" fill="#e6edf3">deepseek</text><line x1="656" y1="67" x2="672" y2="67" stroke="#2DA98C" stroke-width="3" stroke-linecap="round"></line><text x="678" y="70" font-size="11" font-weight="400" text-anchor="start" fill="#e6edf3">gemini</text><line x1="656" y1="87" x2="672" y2="87" stroke="#A371F7" stroke-width="3" stroke-linecap="round"></line><text x="678" y="90" font-size="11" font-weight="400" text-anchor="start" fill="#e6edf3">llama</text><line x1="656" y1="107" x2="672" y2="107" stroke="#F0A23B" stroke-width="3" stroke-linecap="round"></line><text x="678" y="110" font-size="11" font-weight="400" text-anchor="start" fill="#e6edf3">mistral</text><line x1="656" y1="127" x2="672" y2="127" stroke="#1F9CF0" stroke-width="3" stroke-linecap="round"></line><text x="678" y="130" font-size="11" font-weight="400" text-anchor="start" fill="#e6edf3">openai</text></svg>
