<svg xmlns="http://www.w3.org/2000/svg" viewBox="0 0 760 348" width="760" height="348" role="img" aria-label="Average LLM latency by provider over runs — llama highest, deepseek lowest" font-family="-apple-system,BlinkMacSystemFont,'Segoe UI',system-ui,sans-serif"><line x1="56" y1="306" x2="642" y2="306" stroke="#d8dee4" stroke-width="1"></line><text x="46" y="310" font-size="9.5" font-weight="400" text-anchor="end" fill="#656d76" font-family="ui-monospace,SFMono-Regular,Menlo,monospace">0.0s</text><line x1="56" y1="235" x2="642" y2="235" stroke="#d8dee4" stroke-width="1"></line><text x="46" y="239" font-size="9.5" font-weight="400" text-anchor="end" fill="#656d76" font-family="ui-monospace,SFMono-Regular,Menlo,monospace">82.5s</text><line x1="56" y1="164" x2="642" y2="164" stroke="#d8dee4" stroke-width="1"></line><text x="46" y="168" font-size="9.5" font-weight="400" text-anchor="end" fill="#656d76" font-family="ui-monospace,SFMono-Regular,Menlo,monospace">165.1s</text><line x1="56" y1="93" x2="642" y2="93" stroke="#d8dee4" stroke-width="1"></line><text x="46" y="97" font-size="9.5" font-weight="400" text-anchor="end" fill="#656d76" font-family="ui-monospace,SFMono-Regular,Menlo,monospace">247.6s</text><line x1="56" y1="22" x2="642" y2="22" stroke="#d8dee4" stroke-width="1"></line><text x="46" y="26" font-size="9.5" font-weight="400" text-anchor="end" fill="#656d76" font-family="ui-monospace,SFMono-Regular,Menlo,monospace">330.2s</text><text x="56" y="324" font-size="9.5" font-weight="400" text-anchor="middle" fill="#656d76" font-family="ui-monospace,SFMono-Regular,Menlo,monospace">06/08</text><text x="109.27" y="324" font-size="9.5" font-weight="400" text-anchor="middle" fill="#656d76" font-family="ui-monospace,SFMono-Regular,Menlo,monospace">06/08</text><text x="162.55" y="324" font-size="9.5" font-weight="400" text-anchor="middle" fill="#656d76" font-family="ui-monospace,SFMono-Regular,Menlo,monospace">06/09</text><text x="215.82" y="324" font-size="9.5" font-weight="400" text-anchor="middle" fill="#656d76" font-family="ui-monospace,SFMono-Regular,Menlo,monospace">06/12</text><text x="269.09" y="324" font-size="9.5" font-weight="400" text-anchor="middle" fill="#656d76" font-family="ui-monospace,SFMono-Regular,Menlo,monospace">06/14</text><text x="322.36" y="324" font-size="9.5" font-weight="400" text-anchor="middle" fill="#656d76" font-family="ui-monospace,SFMono-Regular,Menlo,monospace">06/15</text><text x="375.64" y="324" font-size="9.5" font-weight="400" text-anchor="middle" fill="#656d76" font-family="ui-monospace,SFMono-Regular,Menlo,monospace">06/16</text><text x="428.91" y="324" font-size="9.5" font-weight="400" text-anchor="middle" fill="#656d76" font-family="ui-monospace,SFMono-Regular,Menlo,monospace">06/18</text><text x="482.18" y="324" font-size="9.5" font-weight="400" text-anchor="middle" fill="#656d76" font-family="ui-monospace,SFMono-Regular,Menlo,monospace">06/20</text><text x="535.45" y="324" font-size="9.5" font-weight="400" text-anchor="middle" fill="#656d76" font-family="ui-monospace,SFMono-Regular,Menlo,monospace">06/21</text><text x="588.73" y="324" font-size="9.5" font-weight="400" text-anchor="middle" fill="#656d76" font-family="ui-monospace,SFMono-Regular,Menlo,monospace">06/22</text><text x="642" y="324" font-size="9.5" font-weight="400" text-anchor="middle" fill="#656d76" font-family="ui-monospace,SFMono-Regular,Menlo,monospace">06/24</text><polyline fill="none" stroke="#E8835A" stroke-width="2.4" stroke-linejoin="round" stroke-linecap="round" points="56,229.15 64.88,232.31 73.76,238.94 82.64,244 91.52,235.49 100.39,232.81 109.27,250.28 118.15,243.38 127.03,241.66 135.91,231.14 153.67,234.04 162.55,244.32 171.42,228.71 180.3,246.08 189.18,242.18 198.06,235.58 206.94,242.32 215.82,244.55 224.7,246.98 233.58,240.71 242.45,250.83 251.33,244.26 260.21,241.33 269.09,245.63 277.97,245.02 286.85,240.82 295.73,243.78 304.61,243.28 313.48,240.2 322.36,242.69 331.24,215.59 340.12,241.79 349,238.64 357.88,243.45 366.76,243.86 375.64,234.8 384.52,244.51 393.39,244.64"></polyline><circle cx="56" cy="229.15" r="2.6" fill="#E8835A"></circle><circle cx="64.88" cy="232.31" r="2.6" fill="#E8835A"></circle><circle cx="73.76" cy="238.94" r="2.6" fill="#E8835A"></circle><circle cx="82.64" cy="244" r="2.6" fill="#E8835A"></circle><circle cx="91.52" cy="235.49" r="2.6" fill="#E8835A"></circle><circle cx="100.39" cy="232.81" r="2.6" fill="#E8835A"></circle><circle cx="109.27" cy="250.28" r="2.6" fill="#E8835A"></circle><circle cx="118.15" cy="243.38" r="2.6" fill="#E8835A"></circle><circle cx="127.03" cy="241.66" r="2.6" fill="#E8835A"></circle><circle cx="135.91" cy="231.14" r="2.6" fill="#E8835A"></circle><circle cx="153.67" cy="234.04" r="2.6" fill="#E8835A"></circle><circle cx="162.55" cy="244.32" r="2.6" fill="#E8835A"></circle><circle cx="171.42" cy="228.71" r="2.6" fill="#E8835A"></circle><circle cx="180.3" cy="246.08" r="2.6" fill="#E8835A"></circle><circle cx="189.18" cy="242.18" r="2.6" fill="#E8835A"></circle><circle cx="198.06" cy="235.58" r="2.6" fill="#E8835A"></circle><circle cx="206.94" cy="242.32" r="2.6" fill="#E8835A"></circle><circle cx="215.82" cy="244.55" r="2.6" fill="#E8835A"></circle><circle cx="224.7" cy="246.98" r="2.6" fill="#E8835A"></circle><circle cx="233.58" cy="240.71" r="2.6" fill="#E8835A"></circle><circle cx="242.45" cy="250.83" r="2.6" fill="#E8835A"></circle><circle cx="251.33" cy="244.26" r="2.6" fill="#E8835A"></circle><circle cx="260.21" cy="241.33" r="2.6" fill="#E8835A"></circle><circle cx="269.09" cy="245.63" r="2.6" fill="#E8835A"></circle><circle cx="277.97" cy="245.02" r="2.6" fill="#E8835A"></circle><circle cx="286.85" cy="240.82" r="2.6" fill="#E8835A"></circle><circle cx="295.73" cy="243.78" r="2.6" fill="#E8835A"></circle><circle cx="304.61" cy="243.28" r="2.6" fill="#E8835A"></circle><circle cx="313.48" cy="240.2" r="2.6" fill="#E8835A"></circle><circle cx="322.36" cy="242.69" r="2.6" fill="#E8835A"></circle><circle cx="331.24" cy="215.59" r="2.6" fill="#E8835A"></circle><circle cx="340.12" cy="241.79" r="2.6" fill="#E8835A"></circle><circle cx="349" cy="238.64" r="2.6" fill="#E8835A"></circle><circle cx="357.88" cy="243.45" r="2.6" fill="#E8835A"></circle><circle cx="366.76" cy="243.86" r="2.6" fill="#E8835A"></circle><circle cx="375.64" cy="234.8" r="2.6" fill="#E8835A"></circle><circle cx="384.52" cy="244.51" r="2.6" fill="#E8835A"></circle><circle cx="393.39" cy="244.64" r="2.6" fill="#E8835A"></circle><polyline fill="none" stroke="#6366F1" stroke-width="2.4" stroke-linejoin="round" stroke-linecap="round" points="64.88,247.24 73.76,242.4 82.64,249.98 91.52,230.48 100.39,260.21 109.27,260.34 118.15,270.44 127.03,248.92 135.91,245.19 144.79,247.83 153.67,256.22 162.55,248.72 171.42,261.47 180.3,243.58 189.18,210.49 198.06,266.33 206.94,232.33 215.82,232.27 224.7,199.16 233.58,237.91 242.45,252.97 251.33,266.11 260.21,215.25 269.09,265.97 277.97,258.25 286.85,265.82 295.73,246.69 304.61,244.53 322.36,240.91 331.24,255.51 340.12,252.51 349,237.2 357.88,258.24 366.76,235.84 375.64,252.87 384.52,243.73 393.39,249.01 411.15,263.05 420.03,262.95 428.91,250.85 437.79,238.76 446.67,245.84 455.55,240.49 464.42,244.58 473.3,238.25 482.18,266.43 491.06,219.91 499.94,256.77 517.7,250.11 526.58,264.15 535.45,249.18 544.33,252.64 553.21,236.94 562.09,257.91 570.97,245.05 579.85,245.47 588.73,251.25 597.61,250.75 606.48,249.01 615.36,257.36 624.24,265.15 633.12,253.64 642,262.66"></polyline><circle cx="64.88" cy="247.24" r="2.6" fill="#6366F1"></circle><circle cx="73.76" cy="242.4" r="2.6" fill="#6366F1"></circle><circle cx="82.64" cy="249.98" r="2.6" fill="#6366F1"></circle><circle cx="91.52" cy="230.48" r="2.6" fill="#6366F1"></circle><circle cx="100.39" cy="260.21" r="2.6" fill="#6366F1"></circle><circle cx="109.27" cy="260.34" r="2.6" fill="#6366F1"></circle><circle cx="118.15" cy="270.44" r="2.6" fill="#6366F1"></circle><circle cx="127.03" cy="248.92" r="2.6" fill="#6366F1"></circle><circle cx="135.91" cy="245.19" r="2.6" fill="#6366F1"></circle><circle cx="144.79" cy="247.83" r="2.6" fill="#6366F1"></circle><circle cx="153.67" cy="256.22" r="2.6" fill="#6366F1"></circle><circle cx="162.55" cy="248.72" r="2.6" fill="#6366F1"></circle><circle cx="171.42" cy="261.47" r="2.6" fill="#6366F1"></circle><circle cx="180.3" cy="243.58" r="2.6" fill="#6366F1"></circle><circle cx="189.18" cy="210.49" r="2.6" fill="#6366F1"></circle><circle cx="198.06" cy="266.33" r="2.6" fill="#6366F1"></circle><circle cx="206.94" cy="232.33" r="2.6" fill="#6366F1"></circle><circle cx="215.82" cy="232.27" r="2.6" fill="#6366F1"></circle><circle cx="224.7" cy="199.16" r="2.6" fill="#6366F1"></circle><circle cx="233.58" cy="237.91" r="2.6" fill="#6366F1"></circle><circle cx="242.45" cy="252.97" r="2.6" fill="#6366F1"></circle><circle cx="251.33" cy="266.11" r="2.6" fill="#6366F1"></circle><circle cx="260.21" cy="215.25" r="2.6" fill="#6366F1"></circle><circle cx="269.09" cy="265.97" r="2.6" fill="#6366F1"></circle><circle cx="277.97" cy="258.25" r="2.6" fill="#6366F1"></circle><circle cx="286.85" cy="265.82" r="2.6" fill="#6366F1"></circle><circle cx="295.73" cy="246.69" r="2.6" fill="#6366F1"></circle><circle cx="304.61" cy="244.53" r="2.6" fill="#6366F1"></circle><circle cx="322.36" cy="240.91" r="2.6" fill="#6366F1"></circle><circle cx="331.24" cy="255.51" r="2.6" fill="#6366F1"></circle><circle cx="340.12" cy="252.51" r="2.6" fill="#6366F1"></circle><circle cx="349" cy="237.2" r="2.6" fill="#6366F1"></circle><circle cx="357.88" cy="258.24" r="2.6" fill="#6366F1"></circle><circle cx="366.76" cy="235.84" r="2.6" fill="#6366F1"></circle><circle cx="375.64" cy="252.87" r="2.6" fill="#6366F1"></circle><circle cx="384.52" cy="243.73" r="2.6" fill="#6366F1"></circle><circle cx="393.39" cy="249.01" r="2.6" fill="#6366F1"></circle><circle cx="411.15" cy="263.05" r="2.6" fill="#6366F1"></circle><circle cx="420.03" cy="262.95" r="2.6" fill="#6366F1"></circle><circle cx="428.91" cy="250.85" r="2.6" fill="#6366F1"></circle><circle cx="437.79" cy="238.76" r="2.6" fill="#6366F1"></circle><circle cx="446.67" cy="245.84" r="2.6" fill="#6366F1"></circle><circle cx="455.55" cy="240.49" r="2.6" fill="#6366F1"></circle><circle cx="464.42" cy="244.58" r="2.6" fill="#6366F1"></circle><circle cx="473.3" cy="238.25" r="2.6" fill="#6366F1"></circle><circle cx="482.18" cy="266.43" r="2.6" fill="#6366F1"></circle><circle cx="491.06" cy="219.91" r="2.6" fill="#6366F1"></circle><circle cx="499.94" cy="256.77" r="2.6" fill="#6366F1"></circle><circle cx="517.7" cy="250.11" r="2.6" fill="#6366F1"></circle><circle cx="526.58" cy="264.15" r="2.6" fill="#6366F1"></circle><circle cx="535.45" cy="249.18" r="2.6" fill="#6366F1"></circle><circle cx="544.33" cy="252.64" r="2.6" fill="#6366F1"></circle><circle cx="553.21" cy="236.94" r="2.6" fill="#6366F1"></circle><circle cx="562.09" cy="257.91" r="2.6" fill="#6366F1"></circle><circle cx="570.97" cy="245.05" r="2.6" fill="#6366F1"></circle><circle cx="579.85" cy="245.47" r="2.6" fill="#6366F1"></circle><circle cx="588.73" cy="251.25" r="2.6" fill="#6366F1"></circle><circle cx="597.61" cy="250.75" r="2.6" fill="#6366F1"></circle><circle cx="606.48" cy="249.01" r="2.6" fill="#6366F1"></circle><circle cx="615.36" cy="257.36" r="2.6" fill="#6366F1"></circle><circle cx="624.24" cy="265.15" r="2.6" fill="#6366F1"></circle><circle cx="633.12" cy="253.64" r="2.6" fill="#6366F1"></circle><circle cx="642" cy="262.66" r="2.6" fill="#6366F1"></circle><polyline fill="none" stroke="#2DA98C" stroke-width="2.4" stroke-linejoin="round" stroke-linecap="round" points="56,205.26 64.88,215.39 73.76,174.15 82.64,217.56 91.52,218.68 100.39,227.57 109.27,203.76 118.15,192.14 127.03,215.35 135.91,194.78 144.79,194.92 153.67,141.5 162.55,148.87 171.42,194.84 180.3,180.85 189.18,202.09 198.06,169.08 206.94,211.29 215.82,193.77 224.7,192.04 233.58,206.61 322.36,221.15 331.24,190.23 340.12,183.33 349,225.15 357.88,184.37 366.76,182.1 375.64,210.86 384.52,161.53 393.39,210.56 411.15,182.01 420.03,172.32 428.91,181.93 437.79,186.76 446.67,217.59 455.55,171.76 464.42,211.13 473.3,171.55 482.18,181.17 491.06,189.96 499.94,191.02 517.7,212.98 526.58,170.09 535.45,127.97 544.33,222.7 553.21,200.4 562.09,155.75 570.97,184.88 579.85,176.48 588.73,167.89 597.61,205.24 606.48,167.24 615.36,154.57 624.24,196.61 633.12,154.13 642,196.6"></polyline><circle cx="56" cy="205.26" r="2.6" fill="#2DA98C"></circle><circle cx="64.88" cy="215.39" r="2.6" fill="#2DA98C"></circle><circle cx="73.76" cy="174.15" r="2.6" fill="#2DA98C"></circle><circle cx="82.64" cy="217.56" r="2.6" fill="#2DA98C"></circle><circle cx="91.52" cy="218.68" r="2.6" fill="#2DA98C"></circle><circle cx="100.39" cy="227.57" r="2.6" fill="#2DA98C"></circle><circle cx="109.27" cy="203.76" r="2.6" fill="#2DA98C"></circle><circle cx="118.15" cy="192.14" r="2.6" fill="#2DA98C"></circle><circle cx="127.03" cy="215.35" r="2.6" fill="#2DA98C"></circle><circle cx="135.91" cy="194.78" r="2.6" fill="#2DA98C"></circle><circle cx="144.79" cy="194.92" r="2.6" fill="#2DA98C"></circle><circle cx="153.67" cy="141.5" r="2.6" fill="#2DA98C"></circle><circle cx="162.55" cy="148.87" r="2.6" fill="#2DA98C"></circle><circle cx="171.42" cy="194.84" r="2.6" fill="#2DA98C"></circle><circle cx="180.3" cy="180.85" r="2.6" fill="#2DA98C"></circle><circle cx="189.18" cy="202.09" r="2.6" fill="#2DA98C"></circle><circle cx="198.06" cy="169.08" r="2.6" fill="#2DA98C"></circle><circle cx="206.94" cy="211.29" r="2.6" fill="#2DA98C"></circle><circle cx="215.82" cy="193.77" r="2.6" fill="#2DA98C"></circle><circle cx="224.7" cy="192.04" r="2.6" fill="#2DA98C"></circle><circle cx="233.58" cy="206.61" r="2.6" fill="#2DA98C"></circle><circle cx="322.36" cy="221.15" r="2.6" fill="#2DA98C"></circle><circle cx="331.24" cy="190.23" r="2.6" fill="#2DA98C"></circle><circle cx="340.12" cy="183.33" r="2.6" fill="#2DA98C"></circle><circle cx="349" cy="225.15" r="2.6" fill="#2DA98C"></circle><circle cx="357.88" cy="184.37" r="2.6" fill="#2DA98C"></circle><circle cx="366.76" cy="182.1" r="2.6" fill="#2DA98C"></circle><circle cx="375.64" cy="210.86" r="2.6" fill="#2DA98C"></circle><circle cx="384.52" cy="161.53" r="2.6" fill="#2DA98C"></circle><circle cx="393.39" cy="210.56" r="2.6" fill="#2DA98C"></circle><circle cx="411.15" cy="182.01" r="2.6" fill="#2DA98C"></circle><circle cx="420.03" cy="172.32" r="2.6" fill="#2DA98C"></circle><circle cx="428.91" cy="181.93" r="2.6" fill="#2DA98C"></circle><circle cx="437.79" cy="186.76" r="2.6" fill="#2DA98C"></circle><circle cx="446.67" cy="217.59" r="2.6" fill="#2DA98C"></circle><circle cx="455.55" cy="171.76" r="2.6" fill="#2DA98C"></circle><circle cx="464.42" cy="211.13" r="2.6" fill="#2DA98C"></circle><circle cx="473.3" cy="171.55" r="2.6" fill="#2DA98C"></circle><circle cx="482.18" cy="181.17" r="2.6" fill="#2DA98C"></circle><circle cx="491.06" cy="189.96" r="2.6" fill="#2DA98C"></circle><circle cx="499.94" cy="191.02" r="2.6" fill="#2DA98C"></circle><circle cx="517.7" cy="212.98" r="2.6" fill="#2DA98C"></circle><circle cx="526.58" cy="170.09" r="2.6" fill="#2DA98C"></circle><circle cx="535.45" cy="127.97" r="2.6" fill="#2DA98C"></circle><circle cx="544.33" cy="222.7" r="2.6" fill="#2DA98C"></circle><circle cx="553.21" cy="200.4" r="2.6" fill="#2DA98C"></circle><circle cx="562.09" cy="155.75" r="2.6" fill="#2DA98C"></circle><circle cx="570.97" cy="184.88" r="2.6" fill="#2DA98C"></circle><circle cx="579.85" cy="176.48" r="2.6" fill="#2DA98C"></circle><circle cx="588.73" cy="167.89" r="2.6" fill="#2DA98C"></circle><circle cx="597.61" cy="205.24" r="2.6" fill="#2DA98C"></circle><circle cx="606.48" cy="167.24" r="2.6" fill="#2DA98C"></circle><circle cx="615.36" cy="154.57" r="2.6" fill="#2DA98C"></circle><circle cx="624.24" cy="196.61" r="2.6" fill="#2DA98C"></circle><circle cx="633.12" cy="154.13" r="2.6" fill="#2DA98C"></circle><circle cx="642" cy="196.6" r="2.6" fill="#2DA98C"></circle><polyline fill="none" stroke="#A371F7" stroke-width="2.4" stroke-linejoin="round" stroke-linecap="round" points="56,127.86 64.88,149.85 73.76,181.76 82.64,139.24 91.52,107.36 100.39,219.97 109.27,116.3 118.15,182.89 127.03,193.78 135.91,197.11 144.79,105.85 153.67,146.07 162.55,181.42 171.42,202.88 180.3,134.79 189.18,219.07 198.06,58.83 206.94,197.05 215.82,167.66 224.7,75.26 233.58,128.5 242.45,152.23 251.33,166.9 260.21,183.57 269.09,162.79 277.97,148.18 286.85,52.43 295.73,96.59 304.61,191.76 322.36,151.86 331.24,169.19 340.12,135.22 357.88,206.77 366.76,167.88 375.64,189.32 384.52,143.76 393.39,142.49 402.27,163.7 411.15,128.52 420.03,144.9 428.91,92.3 437.79,157.36 446.67,160.21 455.55,176.32 464.42,116.21 473.3,165.98 482.18,136.47 499.94,155.12 517.7,134.62 535.45,114.6 544.33,127.72 553.21,219.84 562.09,170.06 570.97,154.88 579.85,189.66 588.73,162.21 597.61,183.03 606.48,165.52 615.36,176.75 624.24,155.74 642,148.44"></polyline><circle cx="56" cy="127.86" r="2.6" fill="#A371F7"></circle><circle cx="64.88" cy="149.85" r="2.6" fill="#A371F7"></circle><circle cx="73.76" cy="181.76" r="2.6" fill="#A371F7"></circle><circle cx="82.64" cy="139.24" r="2.6" fill="#A371F7"></circle><circle cx="91.52" cy="107.36" r="2.6" fill="#A371F7"></circle><circle cx="100.39" cy="219.97" r="2.6" fill="#A371F7"></circle><circle cx="109.27" cy="116.3" r="2.6" fill="#A371F7"></circle><circle cx="118.15" cy="182.89" r="2.6" fill="#A371F7"></circle><circle cx="127.03" cy="193.78" r="2.6" fill="#A371F7"></circle><circle cx="135.91" cy="197.11" r="2.6" fill="#A371F7"></circle><circle cx="144.79" cy="105.85" r="2.6" fill="#A371F7"></circle><circle cx="153.67" cy="146.07" r="2.6" fill="#A371F7"></circle><circle cx="162.55" cy="181.42" r="2.6" fill="#A371F7"></circle><circle cx="171.42" cy="202.88" r="2.6" fill="#A371F7"></circle><circle cx="180.3" cy="134.79" r="2.6" fill="#A371F7"></circle><circle cx="189.18" cy="219.07" r="2.6" fill="#A371F7"></circle><circle cx="198.06" cy="58.83" r="2.6" fill="#A371F7"></circle><circle cx="206.94" cy="197.05" r="2.6" fill="#A371F7"></circle><circle cx="215.82" cy="167.66" r="2.6" fill="#A371F7"></circle><circle cx="224.7" cy="75.26" r="2.6" fill="#A371F7"></circle><circle cx="233.58" cy="128.5" r="2.6" fill="#A371F7"></circle><circle cx="242.45" cy="152.23" r="2.6" fill="#A371F7"></circle><circle cx="251.33" cy="166.9" r="2.6" fill="#A371F7"></circle><circle cx="260.21" cy="183.57" r="2.6" fill="#A371F7"></circle><circle cx="269.09" cy="162.79" r="2.6" fill="#A371F7"></circle><circle cx="277.97" cy="148.18" r="2.6" fill="#A371F7"></circle><circle cx="286.85" cy="52.43" r="2.6" fill="#A371F7"></circle><circle cx="295.73" cy="96.59" r="2.6" fill="#A371F7"></circle><circle cx="304.61" cy="191.76" r="2.6" fill="#A371F7"></circle><circle cx="322.36" cy="151.86" r="2.6" fill="#A371F7"></circle><circle cx="331.24" cy="169.19" r="2.6" fill="#A371F7"></circle><circle cx="340.12" cy="135.22" r="2.6" fill="#A371F7"></circle><circle cx="357.88" cy="206.77" r="2.6" fill="#A371F7"></circle><circle cx="366.76" cy="167.88" r="2.6" fill="#A371F7"></circle><circle cx="375.64" cy="189.32" r="2.6" fill="#A371F7"></circle><circle cx="384.52" cy="143.76" r="2.6" fill="#A371F7"></circle><circle cx="393.39" cy="142.49" r="2.6" fill="#A371F7"></circle><circle cx="402.27" cy="163.7" r="2.6" fill="#A371F7"></circle><circle cx="411.15" cy="128.52" r="2.6" fill="#A371F7"></circle><circle cx="420.03" cy="144.9" r="2.6" fill="#A371F7"></circle><circle cx="428.91" cy="92.3" r="2.6" fill="#A371F7"></circle><circle cx="437.79" cy="157.36" r="2.6" fill="#A371F7"></circle><circle cx="446.67" cy="160.21" r="2.6" fill="#A371F7"></circle><circle cx="455.55" cy="176.32" r="2.6" fill="#A371F7"></circle><circle cx="464.42" cy="116.21" r="2.6" fill="#A371F7"></circle><circle cx="473.3" cy="165.98" r="2.6" fill="#A371F7"></circle><circle cx="482.18" cy="136.47" r="2.6" fill="#A371F7"></circle><circle cx="499.94" cy="155.12" r="2.6" fill="#A371F7"></circle><circle cx="517.7" cy="134.62" r="2.6" fill="#A371F7"></circle><circle cx="535.45" cy="114.6" r="2.6" fill="#A371F7"></circle><circle cx="544.33" cy="127.72" r="2.6" fill="#A371F7"></circle><circle cx="553.21" cy="219.84" r="2.6" fill="#A371F7"></circle><circle cx="562.09" cy="170.06" r="2.6" fill="#A371F7"></circle><circle cx="570.97" cy="154.88" r="2.6" fill="#A371F7"></circle><circle cx="579.85" cy="189.66" r="2.6" fill="#A371F7"></circle><circle cx="588.73" cy="162.21" r="2.6" fill="#A371F7"></circle><circle cx="597.61" cy="183.03" r="2.6" fill="#A371F7"></circle><circle cx="606.48" cy="165.52" r="2.6" fill="#A371F7"></circle><circle cx="615.36" cy="176.75" r="2.6" fill="#A371F7"></circle><circle cx="624.24" cy="155.74" r="2.6" fill="#A371F7"></circle><circle cx="642" cy="148.44" r="2.6" fill="#A371F7"></circle><polyline fill="none" stroke="#F0A23B" stroke-width="2.4" stroke-linejoin="round" stroke-linecap="round" points="56,170.6 64.88,150.62 73.76,187.27 82.64,153.33 91.52,137.4 100.39,187.39 109.27,202.98 118.15,219.57 127.03,187.3 135.91,163.64 144.79,218.54 153.67,247.9 162.55,222.75 171.42,249.71 180.3,224.7 189.18,243.69 198.06,245.81 206.94,211.84 215.82,236.21 224.7,257.78 233.58,248.63 242.45,234.2 251.33,247.57 260.21,243.66 269.09,258.59 277.97,253.94 286.85,235.44 295.73,209.7 304.61,229.87 313.48,229.74 322.36,242.74 331.24,219.28 340.12,218.69 349,248.17 357.88,252.02 366.76,241.64 375.64,202.83 384.52,191.16 393.39,236.21 402.27,247.47 411.15,237.91 420.03,227.46 428.91,241.35 437.79,249.73 446.67,234.66 455.55,250 464.42,253.94 473.3,252.42 482.18,245.42 491.06,237.98 499.94,238.85 517.7,257.8 526.58,233.33 535.45,238.96 544.33,252.16 553.21,246.34 562.09,221.3 570.97,228.03 579.85,249.57 588.73,236.95 597.61,243.86 606.48,246.88 615.36,238.45 624.24,247.92 642,235.92"></polyline><circle cx="56" cy="170.6" r="2.6" fill="#F0A23B"></circle><circle cx="64.88" cy="150.62" r="2.6" fill="#F0A23B"></circle><circle cx="73.76" cy="187.27" r="2.6" fill="#F0A23B"></circle><circle cx="82.64" cy="153.33" r="2.6" fill="#F0A23B"></circle><circle cx="91.52" cy="137.4" r="2.6" fill="#F0A23B"></circle><circle cx="100.39" cy="187.39" r="2.6" fill="#F0A23B"></circle><circle cx="109.27" cy="202.98" r="2.6" fill="#F0A23B"></circle><circle cx="118.15" cy="219.57" r="2.6" fill="#F0A23B"></circle><circle cx="127.03" cy="187.3" r="2.6" fill="#F0A23B"></circle><circle cx="135.91" cy="163.64" r="2.6" fill="#F0A23B"></circle><circle cx="144.79" cy="218.54" r="2.6" fill="#F0A23B"></circle><circle cx="153.67" cy="247.9" r="2.6" fill="#F0A23B"></circle><circle cx="162.55" cy="222.75" r="2.6" fill="#F0A23B"></circle><circle cx="171.42" cy="249.71" r="2.6" fill="#F0A23B"></circle><circle cx="180.3" cy="224.7" r="2.6" fill="#F0A23B"></circle><circle cx="189.18" cy="243.69" r="2.6" fill="#F0A23B"></circle><circle cx="198.06" cy="245.81" r="2.6" fill="#F0A23B"></circle><circle cx="206.94" cy="211.84" r="2.6" fill="#F0A23B"></circle><circle cx="215.82" cy="236.21" r="2.6" fill="#F0A23B"></circle><circle cx="224.7" cy="257.78" r="2.6" fill="#F0A23B"></circle><circle cx="233.58" cy="248.63" r="2.6" fill="#F0A23B"></circle><circle cx="242.45" cy="234.2" r="2.6" fill="#F0A23B"></circle><circle cx="251.33" cy="247.57" r="2.6" fill="#F0A23B"></circle><circle cx="260.21" cy="243.66" r="2.6" fill="#F0A23B"></circle><circle cx="269.09" cy="258.59" r="2.6" fill="#F0A23B"></circle><circle cx="277.97" cy="253.94" r="2.6" fill="#F0A23B"></circle><circle cx="286.85" cy="235.44" r="2.6" fill="#F0A23B"></circle><circle cx="295.73" cy="209.7" r="2.6" fill="#F0A23B"></circle><circle cx="304.61" cy="229.87" r="2.6" fill="#F0A23B"></circle><circle cx="313.48" cy="229.74" r="2.6" fill="#F0A23B"></circle><circle cx="322.36" cy="242.74" r="2.6" fill="#F0A23B"></circle><circle cx="331.24" cy="219.28" r="2.6" fill="#F0A23B"></circle><circle cx="340.12" cy="218.69" r="2.6" fill="#F0A23B"></circle><circle cx="349" cy="248.17" r="2.6" fill="#F0A23B"></circle><circle cx="357.88" cy="252.02" r="2.6" fill="#F0A23B"></circle><circle cx="366.76" cy="241.64" r="2.6" fill="#F0A23B"></circle><circle cx="375.64" cy="202.83" r="2.6" fill="#F0A23B"></circle><circle cx="384.52" cy="191.16" r="2.6" fill="#F0A23B"></circle><circle cx="393.39" cy="236.21" r="2.6" fill="#F0A23B"></circle><circle cx="402.27" cy="247.47" r="2.6" fill="#F0A23B"></circle><circle cx="411.15" cy="237.91" r="2.6" fill="#F0A23B"></circle><circle cx="420.03" cy="227.46" r="2.6" fill="#F0A23B"></circle><circle cx="428.91" cy="241.35" r="2.6" fill="#F0A23B"></circle><circle cx="437.79" cy="249.73" r="2.6" fill="#F0A23B"></circle><circle cx="446.67" cy="234.66" r="2.6" fill="#F0A23B"></circle><circle cx="455.55" cy="250" r="2.6" fill="#F0A23B"></circle><circle cx="464.42" cy="253.94" r="2.6" fill="#F0A23B"></circle><circle cx="473.3" cy="252.42" r="2.6" fill="#F0A23B"></circle><circle cx="482.18" cy="245.42" r="2.6" fill="#F0A23B"></circle><circle cx="491.06" cy="237.98" r="2.6" fill="#F0A23B"></circle><circle cx="499.94" cy="238.85" r="2.6" fill="#F0A23B"></circle><circle cx="517.7" cy="257.8" r="2.6" fill="#F0A23B"></circle><circle cx="526.58" cy="233.33" r="2.6" fill="#F0A23B"></circle><circle cx="535.45" cy="238.96" r="2.6" fill="#F0A23B"></circle><circle cx="544.33" cy="252.16" r="2.6" fill="#F0A23B"></circle><circle cx="553.21" cy="246.34" r="2.6" fill="#F0A23B"></circle><circle cx="562.09" cy="221.3" r="2.6" fill="#F0A23B"></circle><circle cx="570.97" cy="228.03" r="2.6" fill="#F0A23B"></circle><circle cx="579.85" cy="249.57" r="2.6" fill="#F0A23B"></circle><circle cx="588.73" cy="236.95" r="2.6" fill="#F0A23B"></circle><circle cx="597.61" cy="243.86" r="2.6" fill="#F0A23B"></circle><circle cx="606.48" cy="246.88" r="2.6" fill="#F0A23B"></circle><circle cx="615.36" cy="238.45" r="2.6" fill="#F0A23B"></circle><circle cx="624.24" cy="247.92" r="2.6" fill="#F0A23B"></circle><circle cx="642" cy="235.92" r="2.6" fill="#F0A23B"></circle><polyline fill="none" stroke="#1F9CF0" stroke-width="2.4" stroke-linejoin="round" stroke-linecap="round" points="56,198.31 64.88,224.59 73.76,214.73 82.64,247.97 91.52,236.75 100.39,219.64 109.27,238.79 118.15,207.95 127.03,201.38 135.91,239.3 144.79,242.33 153.67,177.25 162.55,218.95 171.42,232.82 180.3,248.48 189.18,252.97 198.06,230.93 206.94,242.47 215.82,240.12 224.7,248.48 233.58,256.65 242.45,261.44 251.33,262.41 260.21,264.75 269.09,261.4 277.97,262.76 286.85,244.65 295.73,230.98 304.61,234.56 313.48,260.01 322.36,254.76 331.24,238.53 340.12,231.76 349,226.22 357.88,247.36 366.76,238.78 375.64,250.58 384.52,256.4 393.39,243.61 402.27,265.98 411.15,253.29 420.03,225.25 428.91,246.45 437.79,252.36 446.67,241.14 455.55,253.3 464.42,245.06 473.3,205.73 482.18,260.99 491.06,265.11 499.94,263.66 508.82,270.45 517.7,265.53 526.58,248.25 535.45,259.3 544.33,255.01 615.36,259.54 624.24,255.12 633.12,241.05 642,228.97"></polyline><circle cx="56" cy="198.31" r="2.6" fill="#1F9CF0"></circle><circle cx="64.88" cy="224.59" r="2.6" fill="#1F9CF0"></circle><circle cx="73.76" cy="214.73" r="2.6" fill="#1F9CF0"></circle><circle cx="82.64" cy="247.97" r="2.6" fill="#1F9CF0"></circle><circle cx="91.52" cy="236.75" r="2.6" fill="#1F9CF0"></circle><circle cx="100.39" cy="219.64" r="2.6" fill="#1F9CF0"></circle><circle cx="109.27" cy="238.79" r="2.6" fill="#1F9CF0"></circle><circle cx="118.15" cy="207.95" r="2.6" fill="#1F9CF0"></circle><circle cx="127.03" cy="201.38" r="2.6" fill="#1F9CF0"></circle><circle cx="135.91" cy="239.3" r="2.6" fill="#1F9CF0"></circle><circle cx="144.79" cy="242.33" r="2.6" fill="#1F9CF0"></circle><circle cx="153.67" cy="177.25" r="2.6" fill="#1F9CF0"></circle><circle cx="162.55" cy="218.95" r="2.6" fill="#1F9CF0"></circle><circle cx="171.42" cy="232.82" r="2.6" fill="#1F9CF0"></circle><circle cx="180.3" cy="248.48" r="2.6" fill="#1F9CF0"></circle><circle cx="189.18" cy="252.97" r="2.6" fill="#1F9CF0"></circle><circle cx="198.06" cy="230.93" r="2.6" fill="#1F9CF0"></circle><circle cx="206.94" cy="242.47" r="2.6" fill="#1F9CF0"></circle><circle cx="215.82" cy="240.12" r="2.6" fill="#1F9CF0"></circle><circle cx="224.7" cy="248.48" r="2.6" fill="#1F9CF0"></circle><circle cx="233.58" cy="256.65" r="2.6" fill="#1F9CF0"></circle><circle cx="242.45" cy="261.44" r="2.6" fill="#1F9CF0"></circle><circle cx="251.33" cy="262.41" r="2.6" fill="#1F9CF0"></circle><circle cx="260.21" cy="264.75" r="2.6" fill="#1F9CF0"></circle><circle cx="269.09" cy="261.4" r="2.6" fill="#1F9CF0"></circle><circle cx="277.97" cy="262.76" r="2.6" fill="#1F9CF0"></circle><circle cx="286.85" cy="244.65" r="2.6" fill="#1F9CF0"></circle><circle cx="295.73" cy="230.98" r="2.6" fill="#1F9CF0"></circle><circle cx="304.61" cy="234.56" r="2.6" fill="#1F9CF0"></circle><circle cx="313.48" cy="260.01" r="2.6" fill="#1F9CF0"></circle><circle cx="322.36" cy="254.76" r="2.6" fill="#1F9CF0"></circle><circle cx="331.24" cy="238.53" r="2.6" fill="#1F9CF0"></circle><circle cx="340.12" cy="231.76" r="2.6" fill="#1F9CF0"></circle><circle cx="349" cy="226.22" r="2.6" fill="#1F9CF0"></circle><circle cx="357.88" cy="247.36" r="2.6" fill="#1F9CF0"></circle><circle cx="366.76" cy="238.78" r="2.6" fill="#1F9CF0"></circle><circle cx="375.64" cy="250.58" r="2.6" fill="#1F9CF0"></circle><circle cx="384.52" cy="256.4" r="2.6" fill="#1F9CF0"></circle><circle cx="393.39" cy="243.61" r="2.6" fill="#1F9CF0"></circle><circle cx="402.27" cy="265.98" r="2.6" fill="#1F9CF0"></circle><circle cx="411.15" cy="253.29" r="2.6" fill="#1F9CF0"></circle><circle cx="420.03" cy="225.25" r="2.6" fill="#1F9CF0"></circle><circle cx="428.91" cy="246.45" r="2.6" fill="#1F9CF0"></circle><circle cx="437.79" cy="252.36" r="2.6" fill="#1F9CF0"></circle><circle cx="446.67" cy="241.14" r="2.6" fill="#1F9CF0"></circle><circle cx="455.55" cy="253.3" r="2.6" fill="#1F9CF0"></circle><circle cx="464.42" cy="245.06" r="2.6" fill="#1F9CF0"></circle><circle cx="473.3" cy="205.73" r="2.6" fill="#1F9CF0"></circle><circle cx="482.18" cy="260.99" r="2.6" fill="#1F9CF0"></circle><circle cx="491.06" cy="265.11" r="2.6" fill="#1F9CF0"></circle><circle cx="499.94" cy="263.66" r="2.6" fill="#1F9CF0"></circle><circle cx="508.82" cy="270.45" r="2.6" fill="#1F9CF0"></circle><circle cx="517.7" cy="265.53" r="2.6" fill="#1F9CF0"></circle><circle cx="526.58" cy="248.25" r="2.6" fill="#1F9CF0"></circle><circle cx="535.45" cy="259.3" r="2.6" fill="#1F9CF0"></circle><circle cx="544.33" cy="255.01" r="2.6" fill="#1F9CF0"></circle><circle cx="615.36" cy="259.54" r="2.6" fill="#1F9CF0"></circle><circle cx="624.24" cy="255.12" r="2.6" fill="#1F9CF0"></circle><circle cx="633.12" cy="241.05" r="2.6" fill="#1F9CF0"></circle><circle cx="642" cy="228.97" r="2.6" fill="#1F9CF0"></circle><line x1="656" y1="27" x2="672" y2="27" stroke="#E8835A" stroke-width="3" stroke-linecap="round"></line><text x="678" y="30" font-size="11" font-weight="400" text-anchor="start" fill="#1f2328">anthropic</text><line x1="656" y1="47" x2="672" y2="47" stroke="#6366F1" stroke-width="3" stroke-linecap="round"></line><text x="678" y="50" font-size="11" font-weight="400" text-anchor="start" fill="#1f2328">deepseek</text><line x1="656" y1="67" x2="672" y2="67" stroke="#2DA98C" stroke-width="3" stroke-linecap="round"></line><text x="678" y="70" font-size="11" font-weight="400" text-anchor="start" fill="#1f2328">gemini</text><line x1="656" y1="87" x2="672" y2="87" stroke="#A371F7" stroke-width="3" stroke-linecap="round"></line><text x="678" y="90" font-size="11" font-weight="400" text-anchor="start" fill="#1f2328">llama</text><line x1="656" y1="107" x2="672" y2="107" stroke="#F0A23B" stroke-width="3" stroke-linecap="round"></line><text x="678" y="110" font-size="11" font-weight="400" text-anchor="start" fill="#1f2328">mistral</text><line x1="656" y1="127" x2="672" y2="127" stroke="#1F9CF0" stroke-width="3" stroke-linecap="round"></line><text x="678" y="130" font-size="11" font-weight="400" text-anchor="start" fill="#1f2328">openai</text></svg>
