<svg xmlns="http://www.w3.org/2000/svg" viewBox="0 0 760 348" width="760" height="348" role="img" aria-label="Average LLM latency by provider over runs — llama highest, deepseek lowest" font-family="-apple-system,BlinkMacSystemFont,'Segoe UI',system-ui,sans-serif"><line x1="56" y1="306" x2="642" y2="306" stroke="#d8dee4" stroke-width="1"></line><text x="46" y="310" font-size="9.5" font-weight="400" text-anchor="end" fill="#656d76" font-family="ui-monospace,SFMono-Regular,Menlo,monospace">0.0s</text><line x1="56" y1="235" x2="642" y2="235" stroke="#d8dee4" stroke-width="1"></line><text x="46" y="239" font-size="9.5" font-weight="400" text-anchor="end" fill="#656d76" font-family="ui-monospace,SFMono-Regular,Menlo,monospace">82.5s</text><line x1="56" y1="164" x2="642" y2="164" stroke="#d8dee4" stroke-width="1"></line><text x="46" y="168" font-size="9.5" font-weight="400" text-anchor="end" fill="#656d76" font-family="ui-monospace,SFMono-Regular,Menlo,monospace">165.1s</text><line x1="56" y1="93" x2="642" y2="93" stroke="#d8dee4" stroke-width="1"></line><text x="46" y="97" font-size="9.5" font-weight="400" text-anchor="end" fill="#656d76" font-family="ui-monospace,SFMono-Regular,Menlo,monospace">247.6s</text><line x1="56" y1="22" x2="642" y2="22" stroke="#d8dee4" stroke-width="1"></line><text x="46" y="26" font-size="9.5" font-weight="400" text-anchor="end" fill="#656d76" font-family="ui-monospace,SFMono-Regular,Menlo,monospace">330.2s</text><text x="56" y="324" font-size="9.5" font-weight="400" text-anchor="middle" fill="#656d76" font-family="ui-monospace,SFMono-Regular,Menlo,monospace">06/08</text><text x="112.71" y="324" font-size="9.5" font-weight="400" text-anchor="middle" fill="#656d76" font-family="ui-monospace,SFMono-Regular,Menlo,monospace">06/08</text><text x="169.42" y="324" font-size="9.5" font-weight="400" text-anchor="middle" fill="#656d76" font-family="ui-monospace,SFMono-Regular,Menlo,monospace">06/08</text><text x="226.13" y="324" font-size="9.5" font-weight="400" text-anchor="middle" fill="#656d76" font-family="ui-monospace,SFMono-Regular,Menlo,monospace">06/09</text><text x="282.84" y="324" font-size="9.5" font-weight="400" text-anchor="middle" fill="#656d76" font-family="ui-monospace,SFMono-Regular,Menlo,monospace">06/09</text><text x="339.55" y="324" font-size="9.5" font-weight="400" text-anchor="middle" fill="#656d76" font-family="ui-monospace,SFMono-Regular,Menlo,monospace">06/12</text><text x="396.26" y="324" font-size="9.5" font-weight="400" text-anchor="middle" fill="#656d76" font-family="ui-monospace,SFMono-Regular,Menlo,monospace">06/12</text><text x="452.97" y="324" font-size="9.5" font-weight="400" text-anchor="middle" fill="#656d76" font-family="ui-monospace,SFMono-Regular,Menlo,monospace">06/14</text><text x="509.68" y="324" font-size="9.5" font-weight="400" text-anchor="middle" fill="#656d76" font-family="ui-monospace,SFMono-Regular,Menlo,monospace">06/14</text><text x="566.39" y="324" font-size="9.5" font-weight="400" text-anchor="middle" fill="#656d76" font-family="ui-monospace,SFMono-Regular,Menlo,monospace">06/15</text><text x="623.1" y="324" font-size="9.5" font-weight="400" text-anchor="middle" fill="#656d76" font-family="ui-monospace,SFMono-Regular,Menlo,monospace">06/15</text><text x="642" y="324" font-size="9.5" font-weight="400" text-anchor="middle" fill="#656d76" font-family="ui-monospace,SFMono-Regular,Menlo,monospace">06/16</text><polyline fill="none" stroke="#E8835A" stroke-width="2.4" stroke-linejoin="round" stroke-linecap="round" points="56,229.15 74.9,232.31 93.81,238.94 112.71,244 131.61,235.49 150.52,232.81 169.42,250.28 188.32,243.38 207.23,241.66 226.13,231.14 263.94,234.04 282.84,244.32 301.74,228.71 320.65,246.08 339.55,242.18 358.45,235.58 377.35,242.32 396.26,244.55 415.16,246.98 434.06,240.71 452.97,250.83 471.87,244.26 490.77,241.33 509.68,245.63 528.58,245.02 547.48,240.82 566.39,243.78 585.29,243.28 604.19,240.2 623.1,242.69 642,215.59"></polyline><circle cx="56" cy="229.15" r="2.6" fill="#E8835A"></circle><circle cx="74.9" cy="232.31" r="2.6" fill="#E8835A"></circle><circle cx="93.81" cy="238.94" r="2.6" fill="#E8835A"></circle><circle cx="112.71" cy="244" r="2.6" fill="#E8835A"></circle><circle cx="131.61" cy="235.49" r="2.6" fill="#E8835A"></circle><circle cx="150.52" cy="232.81" r="2.6" fill="#E8835A"></circle><circle cx="169.42" cy="250.28" r="2.6" fill="#E8835A"></circle><circle cx="188.32" cy="243.38" r="2.6" fill="#E8835A"></circle><circle cx="207.23" cy="241.66" r="2.6" fill="#E8835A"></circle><circle cx="226.13" cy="231.14" r="2.6" fill="#E8835A"></circle><circle cx="263.94" cy="234.04" r="2.6" fill="#E8835A"></circle><circle cx="282.84" cy="244.32" r="2.6" fill="#E8835A"></circle><circle cx="301.74" cy="228.71" r="2.6" fill="#E8835A"></circle><circle cx="320.65" cy="246.08" r="2.6" fill="#E8835A"></circle><circle cx="339.55" cy="242.18" r="2.6" fill="#E8835A"></circle><circle cx="358.45" cy="235.58" r="2.6" fill="#E8835A"></circle><circle cx="377.35" cy="242.32" r="2.6" fill="#E8835A"></circle><circle cx="396.26" cy="244.55" r="2.6" fill="#E8835A"></circle><circle cx="415.16" cy="246.98" r="2.6" fill="#E8835A"></circle><circle cx="434.06" cy="240.71" r="2.6" fill="#E8835A"></circle><circle cx="452.97" cy="250.83" r="2.6" fill="#E8835A"></circle><circle cx="471.87" cy="244.26" r="2.6" fill="#E8835A"></circle><circle cx="490.77" cy="241.33" r="2.6" fill="#E8835A"></circle><circle cx="509.68" cy="245.63" r="2.6" fill="#E8835A"></circle><circle cx="528.58" cy="245.02" r="2.6" fill="#E8835A"></circle><circle cx="547.48" cy="240.82" r="2.6" fill="#E8835A"></circle><circle cx="566.39" cy="243.78" r="2.6" fill="#E8835A"></circle><circle cx="585.29" cy="243.28" r="2.6" fill="#E8835A"></circle><circle cx="604.19" cy="240.2" r="2.6" fill="#E8835A"></circle><circle cx="623.1" cy="242.69" r="2.6" fill="#E8835A"></circle><circle cx="642" cy="215.59" r="2.6" fill="#E8835A"></circle><polyline fill="none" stroke="#6366F1" stroke-width="2.4" stroke-linejoin="round" stroke-linecap="round" points="74.9,247.24 93.81,242.4 112.71,249.98 131.61,230.48 150.52,260.21 169.42,260.34 188.32,270.44 207.23,248.92 226.13,245.19 245.03,247.83 263.94,256.22 282.84,248.72 301.74,261.47 320.65,243.58 339.55,210.49 358.45,266.33 377.35,232.33 396.26,232.27 415.16,199.16 434.06,237.91 452.97,252.97 471.87,266.11 490.77,215.25 509.68,265.97 528.58,258.25 547.48,265.82 566.39,246.69 585.29,244.53 623.1,240.91 642,255.51"></polyline><circle cx="74.9" cy="247.24" r="2.6" fill="#6366F1"></circle><circle cx="93.81" cy="242.4" r="2.6" fill="#6366F1"></circle><circle cx="112.71" cy="249.98" r="2.6" fill="#6366F1"></circle><circle cx="131.61" cy="230.48" r="2.6" fill="#6366F1"></circle><circle cx="150.52" cy="260.21" r="2.6" fill="#6366F1"></circle><circle cx="169.42" cy="260.34" r="2.6" fill="#6366F1"></circle><circle cx="188.32" cy="270.44" r="2.6" fill="#6366F1"></circle><circle cx="207.23" cy="248.92" r="2.6" fill="#6366F1"></circle><circle cx="226.13" cy="245.19" r="2.6" fill="#6366F1"></circle><circle cx="245.03" cy="247.83" r="2.6" fill="#6366F1"></circle><circle cx="263.94" cy="256.22" r="2.6" fill="#6366F1"></circle><circle cx="282.84" cy="248.72" r="2.6" fill="#6366F1"></circle><circle cx="301.74" cy="261.47" r="2.6" fill="#6366F1"></circle><circle cx="320.65" cy="243.58" r="2.6" fill="#6366F1"></circle><circle cx="339.55" cy="210.49" r="2.6" fill="#6366F1"></circle><circle cx="358.45" cy="266.33" r="2.6" fill="#6366F1"></circle><circle cx="377.35" cy="232.33" r="2.6" fill="#6366F1"></circle><circle cx="396.26" cy="232.27" r="2.6" fill="#6366F1"></circle><circle cx="415.16" cy="199.16" r="2.6" fill="#6366F1"></circle><circle cx="434.06" cy="237.91" r="2.6" fill="#6366F1"></circle><circle cx="452.97" cy="252.97" r="2.6" fill="#6366F1"></circle><circle cx="471.87" cy="266.11" r="2.6" fill="#6366F1"></circle><circle cx="490.77" cy="215.25" r="2.6" fill="#6366F1"></circle><circle cx="509.68" cy="265.97" r="2.6" fill="#6366F1"></circle><circle cx="528.58" cy="258.25" r="2.6" fill="#6366F1"></circle><circle cx="547.48" cy="265.82" r="2.6" fill="#6366F1"></circle><circle cx="566.39" cy="246.69" r="2.6" fill="#6366F1"></circle><circle cx="585.29" cy="244.53" r="2.6" fill="#6366F1"></circle><circle cx="623.1" cy="240.91" r="2.6" fill="#6366F1"></circle><circle cx="642" cy="255.51" r="2.6" fill="#6366F1"></circle><polyline fill="none" stroke="#2DA98C" stroke-width="2.4" stroke-linejoin="round" stroke-linecap="round" points="56,205.26 74.9,215.39 93.81,174.15 112.71,217.56 131.61,218.68 150.52,227.57 169.42,203.76 188.32,192.14 207.23,215.35 226.13,194.78 245.03,194.92 263.94,141.5 282.84,148.87 301.74,194.84 320.65,180.85 339.55,202.09 358.45,169.08 377.35,211.29 396.26,193.77 415.16,192.04 434.06,206.61 623.1,221.15 642,190.23"></polyline><circle cx="56" cy="205.26" r="2.6" fill="#2DA98C"></circle><circle cx="74.9" cy="215.39" r="2.6" fill="#2DA98C"></circle><circle cx="93.81" cy="174.15" r="2.6" fill="#2DA98C"></circle><circle cx="112.71" cy="217.56" r="2.6" fill="#2DA98C"></circle><circle cx="131.61" cy="218.68" r="2.6" fill="#2DA98C"></circle><circle cx="150.52" cy="227.57" r="2.6" fill="#2DA98C"></circle><circle cx="169.42" cy="203.76" r="2.6" fill="#2DA98C"></circle><circle cx="188.32" cy="192.14" r="2.6" fill="#2DA98C"></circle><circle cx="207.23" cy="215.35" r="2.6" fill="#2DA98C"></circle><circle cx="226.13" cy="194.78" r="2.6" fill="#2DA98C"></circle><circle cx="245.03" cy="194.92" r="2.6" fill="#2DA98C"></circle><circle cx="263.94" cy="141.5" r="2.6" fill="#2DA98C"></circle><circle cx="282.84" cy="148.87" r="2.6" fill="#2DA98C"></circle><circle cx="301.74" cy="194.84" r="2.6" fill="#2DA98C"></circle><circle cx="320.65" cy="180.85" r="2.6" fill="#2DA98C"></circle><circle cx="339.55" cy="202.09" r="2.6" fill="#2DA98C"></circle><circle cx="358.45" cy="169.08" r="2.6" fill="#2DA98C"></circle><circle cx="377.35" cy="211.29" r="2.6" fill="#2DA98C"></circle><circle cx="396.26" cy="193.77" r="2.6" fill="#2DA98C"></circle><circle cx="415.16" cy="192.04" r="2.6" fill="#2DA98C"></circle><circle cx="434.06" cy="206.61" r="2.6" fill="#2DA98C"></circle><circle cx="623.1" cy="221.15" r="2.6" fill="#2DA98C"></circle><circle cx="642" cy="190.23" r="2.6" fill="#2DA98C"></circle><polyline fill="none" stroke="#A371F7" stroke-width="2.4" stroke-linejoin="round" stroke-linecap="round" points="56,127.86 74.9,149.85 93.81,181.76 112.71,139.24 131.61,107.36 150.52,219.97 169.42,116.3 188.32,182.89 207.23,193.78 226.13,197.11 245.03,105.85 263.94,146.07 282.84,181.42 301.74,202.88 320.65,134.79 339.55,219.07 358.45,58.83 377.35,197.05 396.26,167.66 415.16,75.26 434.06,128.5 452.97,152.23 471.87,166.9 490.77,183.57 509.68,162.79 528.58,148.18 547.48,52.43 566.39,96.59 585.29,191.76 623.1,151.86 642,169.19"></polyline><circle cx="56" cy="127.86" r="2.6" fill="#A371F7"></circle><circle cx="74.9" cy="149.85" r="2.6" fill="#A371F7"></circle><circle cx="93.81" cy="181.76" r="2.6" fill="#A371F7"></circle><circle cx="112.71" cy="139.24" r="2.6" fill="#A371F7"></circle><circle cx="131.61" cy="107.36" r="2.6" fill="#A371F7"></circle><circle cx="150.52" cy="219.97" r="2.6" fill="#A371F7"></circle><circle cx="169.42" cy="116.3" r="2.6" fill="#A371F7"></circle><circle cx="188.32" cy="182.89" r="2.6" fill="#A371F7"></circle><circle cx="207.23" cy="193.78" r="2.6" fill="#A371F7"></circle><circle cx="226.13" cy="197.11" r="2.6" fill="#A371F7"></circle><circle cx="245.03" cy="105.85" r="2.6" fill="#A371F7"></circle><circle cx="263.94" cy="146.07" r="2.6" fill="#A371F7"></circle><circle cx="282.84" cy="181.42" r="2.6" fill="#A371F7"></circle><circle cx="301.74" cy="202.88" r="2.6" fill="#A371F7"></circle><circle cx="320.65" cy="134.79" r="2.6" fill="#A371F7"></circle><circle cx="339.55" cy="219.07" r="2.6" fill="#A371F7"></circle><circle cx="358.45" cy="58.83" r="2.6" fill="#A371F7"></circle><circle cx="377.35" cy="197.05" r="2.6" fill="#A371F7"></circle><circle cx="396.26" cy="167.66" r="2.6" fill="#A371F7"></circle><circle cx="415.16" cy="75.26" r="2.6" fill="#A371F7"></circle><circle cx="434.06" cy="128.5" r="2.6" fill="#A371F7"></circle><circle cx="452.97" cy="152.23" r="2.6" fill="#A371F7"></circle><circle cx="471.87" cy="166.9" r="2.6" fill="#A371F7"></circle><circle cx="490.77" cy="183.57" r="2.6" fill="#A371F7"></circle><circle cx="509.68" cy="162.79" r="2.6" fill="#A371F7"></circle><circle cx="528.58" cy="148.18" r="2.6" fill="#A371F7"></circle><circle cx="547.48" cy="52.43" r="2.6" fill="#A371F7"></circle><circle cx="566.39" cy="96.59" r="2.6" fill="#A371F7"></circle><circle cx="585.29" cy="191.76" r="2.6" fill="#A371F7"></circle><circle cx="623.1" cy="151.86" r="2.6" fill="#A371F7"></circle><circle cx="642" cy="169.19" r="2.6" fill="#A371F7"></circle><polyline fill="none" stroke="#F0A23B" stroke-width="2.4" stroke-linejoin="round" stroke-linecap="round" points="56,170.6 74.9,150.62 93.81,187.27 112.71,153.33 131.61,137.4 150.52,187.39 169.42,202.98 188.32,219.57 207.23,187.3 226.13,163.64 245.03,218.54 263.94,247.9 282.84,222.75 301.74,249.71 320.65,224.7 339.55,243.69 358.45,245.81 377.35,211.84 396.26,236.21 415.16,257.78 434.06,248.63 452.97,234.2 471.87,247.57 490.77,243.66 509.68,258.59 528.58,253.94 547.48,235.44 566.39,209.7 585.29,229.87 604.19,229.74 623.1,242.74 642,219.28"></polyline><circle cx="56" cy="170.6" r="2.6" fill="#F0A23B"></circle><circle cx="74.9" cy="150.62" r="2.6" fill="#F0A23B"></circle><circle cx="93.81" cy="187.27" r="2.6" fill="#F0A23B"></circle><circle cx="112.71" cy="153.33" r="2.6" fill="#F0A23B"></circle><circle cx="131.61" cy="137.4" r="2.6" fill="#F0A23B"></circle><circle cx="150.52" cy="187.39" r="2.6" fill="#F0A23B"></circle><circle cx="169.42" cy="202.98" r="2.6" fill="#F0A23B"></circle><circle cx="188.32" cy="219.57" r="2.6" fill="#F0A23B"></circle><circle cx="207.23" cy="187.3" r="2.6" fill="#F0A23B"></circle><circle cx="226.13" cy="163.64" r="2.6" fill="#F0A23B"></circle><circle cx="245.03" cy="218.54" r="2.6" fill="#F0A23B"></circle><circle cx="263.94" cy="247.9" r="2.6" fill="#F0A23B"></circle><circle cx="282.84" cy="222.75" r="2.6" fill="#F0A23B"></circle><circle cx="301.74" cy="249.71" r="2.6" fill="#F0A23B"></circle><circle cx="320.65" cy="224.7" r="2.6" fill="#F0A23B"></circle><circle cx="339.55" cy="243.69" r="2.6" fill="#F0A23B"></circle><circle cx="358.45" cy="245.81" r="2.6" fill="#F0A23B"></circle><circle cx="377.35" cy="211.84" r="2.6" fill="#F0A23B"></circle><circle cx="396.26" cy="236.21" r="2.6" fill="#F0A23B"></circle><circle cx="415.16" cy="257.78" r="2.6" fill="#F0A23B"></circle><circle cx="434.06" cy="248.63" r="2.6" fill="#F0A23B"></circle><circle cx="452.97" cy="234.2" r="2.6" fill="#F0A23B"></circle><circle cx="471.87" cy="247.57" r="2.6" fill="#F0A23B"></circle><circle cx="490.77" cy="243.66" r="2.6" fill="#F0A23B"></circle><circle cx="509.68" cy="258.59" r="2.6" fill="#F0A23B"></circle><circle cx="528.58" cy="253.94" r="2.6" fill="#F0A23B"></circle><circle cx="547.48" cy="235.44" r="2.6" fill="#F0A23B"></circle><circle cx="566.39" cy="209.7" r="2.6" fill="#F0A23B"></circle><circle cx="585.29" cy="229.87" r="2.6" fill="#F0A23B"></circle><circle cx="604.19" cy="229.74" r="2.6" fill="#F0A23B"></circle><circle cx="623.1" cy="242.74" r="2.6" fill="#F0A23B"></circle><circle cx="642" cy="219.28" r="2.6" fill="#F0A23B"></circle><polyline fill="none" stroke="#1F9CF0" stroke-width="2.4" stroke-linejoin="round" stroke-linecap="round" points="56,198.31 74.9,224.59 93.81,214.73 112.71,247.97 131.61,236.75 150.52,219.64 169.42,238.79 188.32,207.95 207.23,201.38 226.13,239.3 245.03,242.33 263.94,177.25 282.84,218.95 301.74,232.82 320.65,248.48 339.55,252.97 358.45,230.93 377.35,242.47 396.26,240.12 415.16,248.48 434.06,256.65 452.97,261.44 471.87,262.41 490.77,264.75 509.68,261.4 528.58,262.76 547.48,244.65 566.39,230.98 585.29,234.56 604.19,260.01 623.1,254.76 642,238.53"></polyline><circle cx="56" cy="198.31" r="2.6" fill="#1F9CF0"></circle><circle cx="74.9" cy="224.59" r="2.6" fill="#1F9CF0"></circle><circle cx="93.81" cy="214.73" r="2.6" fill="#1F9CF0"></circle><circle cx="112.71" cy="247.97" r="2.6" fill="#1F9CF0"></circle><circle cx="131.61" cy="236.75" r="2.6" fill="#1F9CF0"></circle><circle cx="150.52" cy="219.64" r="2.6" fill="#1F9CF0"></circle><circle cx="169.42" cy="238.79" r="2.6" fill="#1F9CF0"></circle><circle cx="188.32" cy="207.95" r="2.6" fill="#1F9CF0"></circle><circle cx="207.23" cy="201.38" r="2.6" fill="#1F9CF0"></circle><circle cx="226.13" cy="239.3" r="2.6" fill="#1F9CF0"></circle><circle cx="245.03" cy="242.33" r="2.6" fill="#1F9CF0"></circle><circle cx="263.94" cy="177.25" r="2.6" fill="#1F9CF0"></circle><circle cx="282.84" cy="218.95" r="2.6" fill="#1F9CF0"></circle><circle cx="301.74" cy="232.82" r="2.6" fill="#1F9CF0"></circle><circle cx="320.65" cy="248.48" r="2.6" fill="#1F9CF0"></circle><circle cx="339.55" cy="252.97" r="2.6" fill="#1F9CF0"></circle><circle cx="358.45" cy="230.93" r="2.6" fill="#1F9CF0"></circle><circle cx="377.35" cy="242.47" r="2.6" fill="#1F9CF0"></circle><circle cx="396.26" cy="240.12" r="2.6" fill="#1F9CF0"></circle><circle cx="415.16" cy="248.48" r="2.6" fill="#1F9CF0"></circle><circle cx="434.06" cy="256.65" r="2.6" fill="#1F9CF0"></circle><circle cx="452.97" cy="261.44" r="2.6" fill="#1F9CF0"></circle><circle cx="471.87" cy="262.41" r="2.6" fill="#1F9CF0"></circle><circle cx="490.77" cy="264.75" r="2.6" fill="#1F9CF0"></circle><circle cx="509.68" cy="261.4" r="2.6" fill="#1F9CF0"></circle><circle cx="528.58" cy="262.76" r="2.6" fill="#1F9CF0"></circle><circle cx="547.48" cy="244.65" r="2.6" fill="#1F9CF0"></circle><circle cx="566.39" cy="230.98" r="2.6" fill="#1F9CF0"></circle><circle cx="585.29" cy="234.56" r="2.6" fill="#1F9CF0"></circle><circle cx="604.19" cy="260.01" r="2.6" fill="#1F9CF0"></circle><circle cx="623.1" cy="254.76" r="2.6" fill="#1F9CF0"></circle><circle cx="642" cy="238.53" r="2.6" fill="#1F9CF0"></circle><line x1="656" y1="27" x2="672" y2="27" stroke="#E8835A" stroke-width="3" stroke-linecap="round"></line><text x="678" y="30" font-size="11" font-weight="400" text-anchor="start" fill="#1f2328">anthropic</text><line x1="656" y1="47" x2="672" y2="47" stroke="#6366F1" stroke-width="3" stroke-linecap="round"></line><text x="678" y="50" font-size="11" font-weight="400" text-anchor="start" fill="#1f2328">deepseek</text><line x1="656" y1="67" x2="672" y2="67" stroke="#2DA98C" stroke-width="3" stroke-linecap="round"></line><text x="678" y="70" font-size="11" font-weight="400" text-anchor="start" fill="#1f2328">gemini</text><line x1="656" y1="87" x2="672" y2="87" stroke="#A371F7" stroke-width="3" stroke-linecap="round"></line><text x="678" y="90" font-size="11" font-weight="400" text-anchor="start" fill="#1f2328">llama</text><line x1="656" y1="107" x2="672" y2="107" stroke="#F0A23B" stroke-width="3" stroke-linecap="round"></line><text x="678" y="110" font-size="11" font-weight="400" text-anchor="start" fill="#1f2328">mistral</text><line x1="656" y1="127" x2="672" y2="127" stroke="#1F9CF0" stroke-width="3" stroke-linecap="round"></line><text x="678" y="130" font-size="11" font-weight="400" text-anchor="start" fill="#1f2328">openai</text></svg>
