<svg xmlns="http://www.w3.org/2000/svg" viewBox="0 0 760 348" width="760" height="348" role="img" aria-label="Average LLM latency by provider over runs — llama highest, deepseek lowest" font-family="-apple-system,BlinkMacSystemFont,'Segoe UI',system-ui,sans-serif"><line x1="56" y1="306" x2="642" y2="306" stroke="#30363d" stroke-width="1"></line><text x="46" y="310" font-size="9.5" font-weight="400" text-anchor="end" fill="#8b949e" font-family="ui-monospace,SFMono-Regular,Menlo,monospace">0.0s</text><line x1="56" y1="235" x2="642" y2="235" stroke="#30363d" stroke-width="1"></line><text x="46" y="239" font-size="9.5" font-weight="400" text-anchor="end" fill="#8b949e" font-family="ui-monospace,SFMono-Regular,Menlo,monospace">82.5s</text><line x1="56" y1="164" x2="642" y2="164" stroke="#30363d" stroke-width="1"></line><text x="46" y="168" font-size="9.5" font-weight="400" text-anchor="end" fill="#8b949e" font-family="ui-monospace,SFMono-Regular,Menlo,monospace">165.1s</text><line x1="56" y1="93" x2="642" y2="93" stroke="#30363d" stroke-width="1"></line><text x="46" y="97" font-size="9.5" font-weight="400" text-anchor="end" fill="#8b949e" font-family="ui-monospace,SFMono-Regular,Menlo,monospace">247.6s</text><line x1="56" y1="22" x2="642" y2="22" stroke="#30363d" stroke-width="1"></line><text x="46" y="26" font-size="9.5" font-weight="400" text-anchor="end" fill="#8b949e" font-family="ui-monospace,SFMono-Regular,Menlo,monospace">330.2s</text><text x="56" y="324" font-size="9.5" font-weight="400" text-anchor="middle" fill="#8b949e" font-family="ui-monospace,SFMono-Regular,Menlo,monospace">06/08</text><text x="106.96" y="324" font-size="9.5" font-weight="400" text-anchor="middle" fill="#8b949e" font-family="ui-monospace,SFMono-Regular,Menlo,monospace">06/08</text><text x="157.91" y="324" font-size="9.5" font-weight="400" text-anchor="middle" fill="#8b949e" font-family="ui-monospace,SFMono-Regular,Menlo,monospace">06/09</text><text x="208.87" y="324" font-size="9.5" font-weight="400" text-anchor="middle" fill="#8b949e" font-family="ui-monospace,SFMono-Regular,Menlo,monospace">06/12</text><text x="259.83" y="324" font-size="9.5" font-weight="400" text-anchor="middle" fill="#8b949e" font-family="ui-monospace,SFMono-Regular,Menlo,monospace">06/14</text><text x="310.78" y="324" font-size="9.5" font-weight="400" text-anchor="middle" fill="#8b949e" font-family="ui-monospace,SFMono-Regular,Menlo,monospace">06/15</text><text x="361.74" y="324" font-size="9.5" font-weight="400" text-anchor="middle" fill="#8b949e" font-family="ui-monospace,SFMono-Regular,Menlo,monospace">06/16</text><text x="412.7" y="324" font-size="9.5" font-weight="400" text-anchor="middle" fill="#8b949e" font-family="ui-monospace,SFMono-Regular,Menlo,monospace">06/18</text><text x="463.65" y="324" font-size="9.5" font-weight="400" text-anchor="middle" fill="#8b949e" font-family="ui-monospace,SFMono-Regular,Menlo,monospace">06/20</text><text x="514.61" y="324" font-size="9.5" font-weight="400" text-anchor="middle" fill="#8b949e" font-family="ui-monospace,SFMono-Regular,Menlo,monospace">06/21</text><text x="565.57" y="324" font-size="9.5" font-weight="400" text-anchor="middle" fill="#8b949e" font-family="ui-monospace,SFMono-Regular,Menlo,monospace">06/22</text><text x="616.52" y="324" font-size="9.5" font-weight="400" text-anchor="middle" fill="#8b949e" font-family="ui-monospace,SFMono-Regular,Menlo,monospace">06/24</text><text x="642" y="324" font-size="9.5" font-weight="400" text-anchor="middle" fill="#8b949e" font-family="ui-monospace,SFMono-Regular,Menlo,monospace">06/24</text><polyline fill="none" stroke="#E8835A" stroke-width="2.4" stroke-linejoin="round" stroke-linecap="round" points="56,229.15 64.49,232.31 72.99,238.94 81.48,244 89.97,235.49 98.46,232.81 106.96,250.28 115.45,243.38 123.94,241.66 132.43,231.14 149.42,234.04 157.91,244.32 166.41,228.71 174.9,246.08 183.39,242.18 191.88,235.58 200.38,242.32 208.87,244.55 217.36,246.98 225.86,240.71 234.35,250.83 242.84,244.26 251.33,241.33 259.83,245.63 268.32,245.02 276.81,240.82 285.3,243.78 293.8,243.28 302.29,240.2 310.78,242.69 319.28,215.59 327.77,241.79 336.26,238.64 344.75,243.45 353.25,243.86 361.74,234.8 370.23,244.51 378.72,244.64"></polyline><circle cx="56" cy="229.15" r="2.6" fill="#E8835A"></circle><circle cx="64.49" cy="232.31" r="2.6" fill="#E8835A"></circle><circle cx="72.99" cy="238.94" r="2.6" fill="#E8835A"></circle><circle cx="81.48" cy="244" r="2.6" fill="#E8835A"></circle><circle cx="89.97" cy="235.49" r="2.6" fill="#E8835A"></circle><circle cx="98.46" cy="232.81" r="2.6" fill="#E8835A"></circle><circle cx="106.96" cy="250.28" r="2.6" fill="#E8835A"></circle><circle cx="115.45" cy="243.38" r="2.6" fill="#E8835A"></circle><circle cx="123.94" cy="241.66" r="2.6" fill="#E8835A"></circle><circle cx="132.43" cy="231.14" r="2.6" fill="#E8835A"></circle><circle cx="149.42" cy="234.04" r="2.6" fill="#E8835A"></circle><circle cx="157.91" cy="244.32" r="2.6" fill="#E8835A"></circle><circle cx="166.41" cy="228.71" r="2.6" fill="#E8835A"></circle><circle cx="174.9" cy="246.08" r="2.6" fill="#E8835A"></circle><circle cx="183.39" cy="242.18" r="2.6" fill="#E8835A"></circle><circle cx="191.88" cy="235.58" r="2.6" fill="#E8835A"></circle><circle cx="200.38" cy="242.32" r="2.6" fill="#E8835A"></circle><circle cx="208.87" cy="244.55" r="2.6" fill="#E8835A"></circle><circle cx="217.36" cy="246.98" r="2.6" fill="#E8835A"></circle><circle cx="225.86" cy="240.71" r="2.6" fill="#E8835A"></circle><circle cx="234.35" cy="250.83" r="2.6" fill="#E8835A"></circle><circle cx="242.84" cy="244.26" r="2.6" fill="#E8835A"></circle><circle cx="251.33" cy="241.33" r="2.6" fill="#E8835A"></circle><circle cx="259.83" cy="245.63" r="2.6" fill="#E8835A"></circle><circle cx="268.32" cy="245.02" r="2.6" fill="#E8835A"></circle><circle cx="276.81" cy="240.82" r="2.6" fill="#E8835A"></circle><circle cx="285.3" cy="243.78" r="2.6" fill="#E8835A"></circle><circle cx="293.8" cy="243.28" r="2.6" fill="#E8835A"></circle><circle cx="302.29" cy="240.2" r="2.6" fill="#E8835A"></circle><circle cx="310.78" cy="242.69" r="2.6" fill="#E8835A"></circle><circle cx="319.28" cy="215.59" r="2.6" fill="#E8835A"></circle><circle cx="327.77" cy="241.79" r="2.6" fill="#E8835A"></circle><circle cx="336.26" cy="238.64" r="2.6" fill="#E8835A"></circle><circle cx="344.75" cy="243.45" r="2.6" fill="#E8835A"></circle><circle cx="353.25" cy="243.86" r="2.6" fill="#E8835A"></circle><circle cx="361.74" cy="234.8" r="2.6" fill="#E8835A"></circle><circle cx="370.23" cy="244.51" r="2.6" fill="#E8835A"></circle><circle cx="378.72" cy="244.64" r="2.6" fill="#E8835A"></circle><polyline fill="none" stroke="#6366F1" stroke-width="2.4" stroke-linejoin="round" stroke-linecap="round" points="64.49,247.24 72.99,242.4 81.48,249.98 89.97,230.48 98.46,260.21 106.96,260.34 115.45,270.44 123.94,248.92 132.43,245.19 140.93,247.83 149.42,256.22 157.91,248.72 166.41,261.47 174.9,243.58 183.39,210.49 191.88,266.33 200.38,232.33 208.87,232.27 217.36,199.16 225.86,237.91 234.35,252.97 242.84,266.11 251.33,215.25 259.83,265.97 268.32,258.25 276.81,265.82 285.3,246.69 293.8,244.53 310.78,240.91 319.28,255.51 327.77,252.51 336.26,237.2 344.75,258.24 353.25,235.84 361.74,252.87 370.23,243.73 378.72,249.01 395.71,263.05 404.2,262.95 412.7,250.85 421.19,238.76 429.68,245.84 438.17,240.49 446.67,244.58 455.16,238.25 463.65,266.43 472.14,219.91 480.64,256.77 497.62,250.11 506.12,264.15 514.61,249.18 523.1,252.64 531.59,236.94 540.09,257.91 548.58,245.05 557.07,245.47 565.57,251.25 574.06,250.75 582.55,249.01 591.04,257.36 599.54,265.15 608.03,253.64 616.52,262.66 625.01,253.56 633.51,247.85 642,241.21"></polyline><circle cx="64.49" cy="247.24" r="2.6" fill="#6366F1"></circle><circle cx="72.99" cy="242.4" r="2.6" fill="#6366F1"></circle><circle cx="81.48" cy="249.98" r="2.6" fill="#6366F1"></circle><circle cx="89.97" cy="230.48" r="2.6" fill="#6366F1"></circle><circle cx="98.46" cy="260.21" r="2.6" fill="#6366F1"></circle><circle cx="106.96" cy="260.34" r="2.6" fill="#6366F1"></circle><circle cx="115.45" cy="270.44" r="2.6" fill="#6366F1"></circle><circle cx="123.94" cy="248.92" r="2.6" fill="#6366F1"></circle><circle cx="132.43" cy="245.19" r="2.6" fill="#6366F1"></circle><circle cx="140.93" cy="247.83" r="2.6" fill="#6366F1"></circle><circle cx="149.42" cy="256.22" r="2.6" fill="#6366F1"></circle><circle cx="157.91" cy="248.72" r="2.6" fill="#6366F1"></circle><circle cx="166.41" cy="261.47" r="2.6" fill="#6366F1"></circle><circle cx="174.9" cy="243.58" r="2.6" fill="#6366F1"></circle><circle cx="183.39" cy="210.49" r="2.6" fill="#6366F1"></circle><circle cx="191.88" cy="266.33" r="2.6" fill="#6366F1"></circle><circle cx="200.38" cy="232.33" r="2.6" fill="#6366F1"></circle><circle cx="208.87" cy="232.27" r="2.6" fill="#6366F1"></circle><circle cx="217.36" cy="199.16" r="2.6" fill="#6366F1"></circle><circle cx="225.86" cy="237.91" r="2.6" fill="#6366F1"></circle><circle cx="234.35" cy="252.97" r="2.6" fill="#6366F1"></circle><circle cx="242.84" cy="266.11" r="2.6" fill="#6366F1"></circle><circle cx="251.33" cy="215.25" r="2.6" fill="#6366F1"></circle><circle cx="259.83" cy="265.97" r="2.6" fill="#6366F1"></circle><circle cx="268.32" cy="258.25" r="2.6" fill="#6366F1"></circle><circle cx="276.81" cy="265.82" r="2.6" fill="#6366F1"></circle><circle cx="285.3" cy="246.69" r="2.6" fill="#6366F1"></circle><circle cx="293.8" cy="244.53" r="2.6" fill="#6366F1"></circle><circle cx="310.78" cy="240.91" r="2.6" fill="#6366F1"></circle><circle cx="319.28" cy="255.51" r="2.6" fill="#6366F1"></circle><circle cx="327.77" cy="252.51" r="2.6" fill="#6366F1"></circle><circle cx="336.26" cy="237.2" r="2.6" fill="#6366F1"></circle><circle cx="344.75" cy="258.24" r="2.6" fill="#6366F1"></circle><circle cx="353.25" cy="235.84" r="2.6" fill="#6366F1"></circle><circle cx="361.74" cy="252.87" r="2.6" fill="#6366F1"></circle><circle cx="370.23" cy="243.73" r="2.6" fill="#6366F1"></circle><circle cx="378.72" cy="249.01" r="2.6" fill="#6366F1"></circle><circle cx="395.71" cy="263.05" r="2.6" fill="#6366F1"></circle><circle cx="404.2" cy="262.95" r="2.6" fill="#6366F1"></circle><circle cx="412.7" cy="250.85" r="2.6" fill="#6366F1"></circle><circle cx="421.19" cy="238.76" r="2.6" fill="#6366F1"></circle><circle cx="429.68" cy="245.84" r="2.6" fill="#6366F1"></circle><circle cx="438.17" cy="240.49" r="2.6" fill="#6366F1"></circle><circle cx="446.67" cy="244.58" r="2.6" fill="#6366F1"></circle><circle cx="455.16" cy="238.25" r="2.6" fill="#6366F1"></circle><circle cx="463.65" cy="266.43" r="2.6" fill="#6366F1"></circle><circle cx="472.14" cy="219.91" r="2.6" fill="#6366F1"></circle><circle cx="480.64" cy="256.77" r="2.6" fill="#6366F1"></circle><circle cx="497.62" cy="250.11" r="2.6" fill="#6366F1"></circle><circle cx="506.12" cy="264.15" r="2.6" fill="#6366F1"></circle><circle cx="514.61" cy="249.18" r="2.6" fill="#6366F1"></circle><circle cx="523.1" cy="252.64" r="2.6" fill="#6366F1"></circle><circle cx="531.59" cy="236.94" r="2.6" fill="#6366F1"></circle><circle cx="540.09" cy="257.91" r="2.6" fill="#6366F1"></circle><circle cx="548.58" cy="245.05" r="2.6" fill="#6366F1"></circle><circle cx="557.07" cy="245.47" r="2.6" fill="#6366F1"></circle><circle cx="565.57" cy="251.25" r="2.6" fill="#6366F1"></circle><circle cx="574.06" cy="250.75" r="2.6" fill="#6366F1"></circle><circle cx="582.55" cy="249.01" r="2.6" fill="#6366F1"></circle><circle cx="591.04" cy="257.36" r="2.6" fill="#6366F1"></circle><circle cx="599.54" cy="265.15" r="2.6" fill="#6366F1"></circle><circle cx="608.03" cy="253.64" r="2.6" fill="#6366F1"></circle><circle cx="616.52" cy="262.66" r="2.6" fill="#6366F1"></circle><circle cx="625.01" cy="253.56" r="2.6" fill="#6366F1"></circle><circle cx="633.51" cy="247.85" r="2.6" fill="#6366F1"></circle><circle cx="642" cy="241.21" r="2.6" fill="#6366F1"></circle><polyline fill="none" stroke="#2DA98C" stroke-width="2.4" stroke-linejoin="round" stroke-linecap="round" points="56,205.26 64.49,215.39 72.99,174.15 81.48,217.56 89.97,218.68 98.46,227.57 106.96,203.76 115.45,192.14 123.94,215.35 132.43,194.78 140.93,194.92 149.42,141.5 157.91,148.87 166.41,194.84 174.9,180.85 183.39,202.09 191.88,169.08 200.38,211.29 208.87,193.77 217.36,192.04 225.86,206.61 310.78,221.15 319.28,190.23 327.77,183.33 336.26,225.15 344.75,184.37 353.25,182.1 361.74,210.86 370.23,161.53 378.72,210.56 395.71,182.01 404.2,172.32 412.7,181.93 421.19,186.76 429.68,217.59 438.17,171.76 446.67,211.13 455.16,171.55 463.65,181.17 472.14,189.96 480.64,191.02 497.62,212.98 506.12,170.09 514.61,127.97 523.1,222.7 531.59,200.4 540.09,155.75 548.58,184.88 557.07,176.48 565.57,167.89 574.06,205.24 582.55,167.24 591.04,154.57 599.54,196.61 608.03,154.13 616.52,196.6 625.01,203.92 633.51,125.1 642,151.41"></polyline><circle cx="56" cy="205.26" r="2.6" fill="#2DA98C"></circle><circle cx="64.49" cy="215.39" r="2.6" fill="#2DA98C"></circle><circle cx="72.99" cy="174.15" r="2.6" fill="#2DA98C"></circle><circle cx="81.48" cy="217.56" r="2.6" fill="#2DA98C"></circle><circle cx="89.97" cy="218.68" r="2.6" fill="#2DA98C"></circle><circle cx="98.46" cy="227.57" r="2.6" fill="#2DA98C"></circle><circle cx="106.96" cy="203.76" r="2.6" fill="#2DA98C"></circle><circle cx="115.45" cy="192.14" r="2.6" fill="#2DA98C"></circle><circle cx="123.94" cy="215.35" r="2.6" fill="#2DA98C"></circle><circle cx="132.43" cy="194.78" r="2.6" fill="#2DA98C"></circle><circle cx="140.93" cy="194.92" r="2.6" fill="#2DA98C"></circle><circle cx="149.42" cy="141.5" r="2.6" fill="#2DA98C"></circle><circle cx="157.91" cy="148.87" r="2.6" fill="#2DA98C"></circle><circle cx="166.41" cy="194.84" r="2.6" fill="#2DA98C"></circle><circle cx="174.9" cy="180.85" r="2.6" fill="#2DA98C"></circle><circle cx="183.39" cy="202.09" r="2.6" fill="#2DA98C"></circle><circle cx="191.88" cy="169.08" r="2.6" fill="#2DA98C"></circle><circle cx="200.38" cy="211.29" r="2.6" fill="#2DA98C"></circle><circle cx="208.87" cy="193.77" r="2.6" fill="#2DA98C"></circle><circle cx="217.36" cy="192.04" r="2.6" fill="#2DA98C"></circle><circle cx="225.86" cy="206.61" r="2.6" fill="#2DA98C"></circle><circle cx="310.78" cy="221.15" r="2.6" fill="#2DA98C"></circle><circle cx="319.28" cy="190.23" r="2.6" fill="#2DA98C"></circle><circle cx="327.77" cy="183.33" r="2.6" fill="#2DA98C"></circle><circle cx="336.26" cy="225.15" r="2.6" fill="#2DA98C"></circle><circle cx="344.75" cy="184.37" r="2.6" fill="#2DA98C"></circle><circle cx="353.25" cy="182.1" r="2.6" fill="#2DA98C"></circle><circle cx="361.74" cy="210.86" r="2.6" fill="#2DA98C"></circle><circle cx="370.23" cy="161.53" r="2.6" fill="#2DA98C"></circle><circle cx="378.72" cy="210.56" r="2.6" fill="#2DA98C"></circle><circle cx="395.71" cy="182.01" r="2.6" fill="#2DA98C"></circle><circle cx="404.2" cy="172.32" r="2.6" fill="#2DA98C"></circle><circle cx="412.7" cy="181.93" r="2.6" fill="#2DA98C"></circle><circle cx="421.19" cy="186.76" r="2.6" fill="#2DA98C"></circle><circle cx="429.68" cy="217.59" r="2.6" fill="#2DA98C"></circle><circle cx="438.17" cy="171.76" r="2.6" fill="#2DA98C"></circle><circle cx="446.67" cy="211.13" r="2.6" fill="#2DA98C"></circle><circle cx="455.16" cy="171.55" r="2.6" fill="#2DA98C"></circle><circle cx="463.65" cy="181.17" r="2.6" fill="#2DA98C"></circle><circle cx="472.14" cy="189.96" r="2.6" fill="#2DA98C"></circle><circle cx="480.64" cy="191.02" r="2.6" fill="#2DA98C"></circle><circle cx="497.62" cy="212.98" r="2.6" fill="#2DA98C"></circle><circle cx="506.12" cy="170.09" r="2.6" fill="#2DA98C"></circle><circle cx="514.61" cy="127.97" r="2.6" fill="#2DA98C"></circle><circle cx="523.1" cy="222.7" r="2.6" fill="#2DA98C"></circle><circle cx="531.59" cy="200.4" r="2.6" fill="#2DA98C"></circle><circle cx="540.09" cy="155.75" r="2.6" fill="#2DA98C"></circle><circle cx="548.58" cy="184.88" r="2.6" fill="#2DA98C"></circle><circle cx="557.07" cy="176.48" r="2.6" fill="#2DA98C"></circle><circle cx="565.57" cy="167.89" r="2.6" fill="#2DA98C"></circle><circle cx="574.06" cy="205.24" r="2.6" fill="#2DA98C"></circle><circle cx="582.55" cy="167.24" r="2.6" fill="#2DA98C"></circle><circle cx="591.04" cy="154.57" r="2.6" fill="#2DA98C"></circle><circle cx="599.54" cy="196.61" r="2.6" fill="#2DA98C"></circle><circle cx="608.03" cy="154.13" r="2.6" fill="#2DA98C"></circle><circle cx="616.52" cy="196.6" r="2.6" fill="#2DA98C"></circle><circle cx="625.01" cy="203.92" r="2.6" fill="#2DA98C"></circle><circle cx="633.51" cy="125.1" r="2.6" fill="#2DA98C"></circle><circle cx="642" cy="151.41" r="2.6" fill="#2DA98C"></circle><polyline fill="none" stroke="#A371F7" stroke-width="2.4" stroke-linejoin="round" stroke-linecap="round" points="56,127.86 64.49,149.85 72.99,181.76 81.48,139.24 89.97,107.36 98.46,219.97 106.96,116.3 115.45,182.89 123.94,193.78 132.43,197.11 140.93,105.85 149.42,146.07 157.91,181.42 166.41,202.88 174.9,134.79 183.39,219.07 191.88,58.83 200.38,197.05 208.87,167.66 217.36,75.26 225.86,128.5 234.35,152.23 242.84,166.9 251.33,183.57 259.83,162.79 268.32,148.18 276.81,52.43 285.3,96.59 293.8,191.76 310.78,151.86 319.28,169.19 327.77,135.22 344.75,206.77 353.25,167.88 361.74,189.32 370.23,143.76 378.72,142.49 387.22,163.7 395.71,128.52 404.2,144.9 412.7,92.3 421.19,157.36 429.68,160.21 438.17,176.32 446.67,116.21 455.16,165.98 463.65,136.47 480.64,155.12 497.62,134.62 514.61,114.6 523.1,127.72 531.59,219.84 540.09,170.06 548.58,154.88 557.07,189.66 565.57,162.21 574.06,183.03 582.55,165.52 591.04,176.75 599.54,155.74 616.52,148.44 625.01,196.35 633.51,143.94 642,112.27"></polyline><circle cx="56" cy="127.86" r="2.6" fill="#A371F7"></circle><circle cx="64.49" cy="149.85" r="2.6" fill="#A371F7"></circle><circle cx="72.99" cy="181.76" r="2.6" fill="#A371F7"></circle><circle cx="81.48" cy="139.24" r="2.6" fill="#A371F7"></circle><circle cx="89.97" cy="107.36" r="2.6" fill="#A371F7"></circle><circle cx="98.46" cy="219.97" r="2.6" fill="#A371F7"></circle><circle cx="106.96" cy="116.3" r="2.6" fill="#A371F7"></circle><circle cx="115.45" cy="182.89" r="2.6" fill="#A371F7"></circle><circle cx="123.94" cy="193.78" r="2.6" fill="#A371F7"></circle><circle cx="132.43" cy="197.11" r="2.6" fill="#A371F7"></circle><circle cx="140.93" cy="105.85" r="2.6" fill="#A371F7"></circle><circle cx="149.42" cy="146.07" r="2.6" fill="#A371F7"></circle><circle cx="157.91" cy="181.42" r="2.6" fill="#A371F7"></circle><circle cx="166.41" cy="202.88" r="2.6" fill="#A371F7"></circle><circle cx="174.9" cy="134.79" r="2.6" fill="#A371F7"></circle><circle cx="183.39" cy="219.07" r="2.6" fill="#A371F7"></circle><circle cx="191.88" cy="58.83" r="2.6" fill="#A371F7"></circle><circle cx="200.38" cy="197.05" r="2.6" fill="#A371F7"></circle><circle cx="208.87" cy="167.66" r="2.6" fill="#A371F7"></circle><circle cx="217.36" cy="75.26" r="2.6" fill="#A371F7"></circle><circle cx="225.86" cy="128.5" r="2.6" fill="#A371F7"></circle><circle cx="234.35" cy="152.23" r="2.6" fill="#A371F7"></circle><circle cx="242.84" cy="166.9" r="2.6" fill="#A371F7"></circle><circle cx="251.33" cy="183.57" r="2.6" fill="#A371F7"></circle><circle cx="259.83" cy="162.79" r="2.6" fill="#A371F7"></circle><circle cx="268.32" cy="148.18" r="2.6" fill="#A371F7"></circle><circle cx="276.81" cy="52.43" r="2.6" fill="#A371F7"></circle><circle cx="285.3" cy="96.59" r="2.6" fill="#A371F7"></circle><circle cx="293.8" cy="191.76" r="2.6" fill="#A371F7"></circle><circle cx="310.78" cy="151.86" r="2.6" fill="#A371F7"></circle><circle cx="319.28" cy="169.19" r="2.6" fill="#A371F7"></circle><circle cx="327.77" cy="135.22" r="2.6" fill="#A371F7"></circle><circle cx="344.75" cy="206.77" r="2.6" fill="#A371F7"></circle><circle cx="353.25" cy="167.88" r="2.6" fill="#A371F7"></circle><circle cx="361.74" cy="189.32" r="2.6" fill="#A371F7"></circle><circle cx="370.23" cy="143.76" r="2.6" fill="#A371F7"></circle><circle cx="378.72" cy="142.49" r="2.6" fill="#A371F7"></circle><circle cx="387.22" cy="163.7" r="2.6" fill="#A371F7"></circle><circle cx="395.71" cy="128.52" r="2.6" fill="#A371F7"></circle><circle cx="404.2" cy="144.9" r="2.6" fill="#A371F7"></circle><circle cx="412.7" cy="92.3" r="2.6" fill="#A371F7"></circle><circle cx="421.19" cy="157.36" r="2.6" fill="#A371F7"></circle><circle cx="429.68" cy="160.21" r="2.6" fill="#A371F7"></circle><circle cx="438.17" cy="176.32" r="2.6" fill="#A371F7"></circle><circle cx="446.67" cy="116.21" r="2.6" fill="#A371F7"></circle><circle cx="455.16" cy="165.98" r="2.6" fill="#A371F7"></circle><circle cx="463.65" cy="136.47" r="2.6" fill="#A371F7"></circle><circle cx="480.64" cy="155.12" r="2.6" fill="#A371F7"></circle><circle cx="497.62" cy="134.62" r="2.6" fill="#A371F7"></circle><circle cx="514.61" cy="114.6" r="2.6" fill="#A371F7"></circle><circle cx="523.1" cy="127.72" r="2.6" fill="#A371F7"></circle><circle cx="531.59" cy="219.84" r="2.6" fill="#A371F7"></circle><circle cx="540.09" cy="170.06" r="2.6" fill="#A371F7"></circle><circle cx="548.58" cy="154.88" r="2.6" fill="#A371F7"></circle><circle cx="557.07" cy="189.66" r="2.6" fill="#A371F7"></circle><circle cx="565.57" cy="162.21" r="2.6" fill="#A371F7"></circle><circle cx="574.06" cy="183.03" r="2.6" fill="#A371F7"></circle><circle cx="582.55" cy="165.52" r="2.6" fill="#A371F7"></circle><circle cx="591.04" cy="176.75" r="2.6" fill="#A371F7"></circle><circle cx="599.54" cy="155.74" r="2.6" fill="#A371F7"></circle><circle cx="616.52" cy="148.44" r="2.6" fill="#A371F7"></circle><circle cx="625.01" cy="196.35" r="2.6" fill="#A371F7"></circle><circle cx="633.51" cy="143.94" r="2.6" fill="#A371F7"></circle><circle cx="642" cy="112.27" r="2.6" fill="#A371F7"></circle><polyline fill="none" stroke="#F0A23B" stroke-width="2.4" stroke-linejoin="round" stroke-linecap="round" points="56,170.6 64.49,150.62 72.99,187.27 81.48,153.33 89.97,137.4 98.46,187.39 106.96,202.98 115.45,219.57 123.94,187.3 132.43,163.64 140.93,218.54 149.42,247.9 157.91,222.75 166.41,249.71 174.9,224.7 183.39,243.69 191.88,245.81 200.38,211.84 208.87,236.21 217.36,257.78 225.86,248.63 234.35,234.2 242.84,247.57 251.33,243.66 259.83,258.59 268.32,253.94 276.81,235.44 285.3,209.7 293.8,229.87 302.29,229.74 310.78,242.74 319.28,219.28 327.77,218.69 336.26,248.17 344.75,252.02 353.25,241.64 361.74,202.83 370.23,191.16 378.72,236.21 387.22,247.47 395.71,237.91 404.2,227.46 412.7,241.35 421.19,249.73 429.68,234.66 438.17,250 446.67,253.94 455.16,252.42 463.65,245.42 472.14,237.98 480.64,238.85 497.62,257.8 506.12,233.33 514.61,238.96 523.1,252.16 531.59,246.34 540.09,221.3 548.58,228.03 557.07,249.57 565.57,236.95 574.06,243.86 582.55,246.88 591.04,238.45 599.54,247.92 616.52,235.92 625.01,214.9 633.51,201.77 642,219.97"></polyline><circle cx="56" cy="170.6" r="2.6" fill="#F0A23B"></circle><circle cx="64.49" cy="150.62" r="2.6" fill="#F0A23B"></circle><circle cx="72.99" cy="187.27" r="2.6" fill="#F0A23B"></circle><circle cx="81.48" cy="153.33" r="2.6" fill="#F0A23B"></circle><circle cx="89.97" cy="137.4" r="2.6" fill="#F0A23B"></circle><circle cx="98.46" cy="187.39" r="2.6" fill="#F0A23B"></circle><circle cx="106.96" cy="202.98" r="2.6" fill="#F0A23B"></circle><circle cx="115.45" cy="219.57" r="2.6" fill="#F0A23B"></circle><circle cx="123.94" cy="187.3" r="2.6" fill="#F0A23B"></circle><circle cx="132.43" cy="163.64" r="2.6" fill="#F0A23B"></circle><circle cx="140.93" cy="218.54" r="2.6" fill="#F0A23B"></circle><circle cx="149.42" cy="247.9" r="2.6" fill="#F0A23B"></circle><circle cx="157.91" cy="222.75" r="2.6" fill="#F0A23B"></circle><circle cx="166.41" cy="249.71" r="2.6" fill="#F0A23B"></circle><circle cx="174.9" cy="224.7" r="2.6" fill="#F0A23B"></circle><circle cx="183.39" cy="243.69" r="2.6" fill="#F0A23B"></circle><circle cx="191.88" cy="245.81" r="2.6" fill="#F0A23B"></circle><circle cx="200.38" cy="211.84" r="2.6" fill="#F0A23B"></circle><circle cx="208.87" cy="236.21" r="2.6" fill="#F0A23B"></circle><circle cx="217.36" cy="257.78" r="2.6" fill="#F0A23B"></circle><circle cx="225.86" cy="248.63" r="2.6" fill="#F0A23B"></circle><circle cx="234.35" cy="234.2" r="2.6" fill="#F0A23B"></circle><circle cx="242.84" cy="247.57" r="2.6" fill="#F0A23B"></circle><circle cx="251.33" cy="243.66" r="2.6" fill="#F0A23B"></circle><circle cx="259.83" cy="258.59" r="2.6" fill="#F0A23B"></circle><circle cx="268.32" cy="253.94" r="2.6" fill="#F0A23B"></circle><circle cx="276.81" cy="235.44" r="2.6" fill="#F0A23B"></circle><circle cx="285.3" cy="209.7" r="2.6" fill="#F0A23B"></circle><circle cx="293.8" cy="229.87" r="2.6" fill="#F0A23B"></circle><circle cx="302.29" cy="229.74" r="2.6" fill="#F0A23B"></circle><circle cx="310.78" cy="242.74" r="2.6" fill="#F0A23B"></circle><circle cx="319.28" cy="219.28" r="2.6" fill="#F0A23B"></circle><circle cx="327.77" cy="218.69" r="2.6" fill="#F0A23B"></circle><circle cx="336.26" cy="248.17" r="2.6" fill="#F0A23B"></circle><circle cx="344.75" cy="252.02" r="2.6" fill="#F0A23B"></circle><circle cx="353.25" cy="241.64" r="2.6" fill="#F0A23B"></circle><circle cx="361.74" cy="202.83" r="2.6" fill="#F0A23B"></circle><circle cx="370.23" cy="191.16" r="2.6" fill="#F0A23B"></circle><circle cx="378.72" cy="236.21" r="2.6" fill="#F0A23B"></circle><circle cx="387.22" cy="247.47" r="2.6" fill="#F0A23B"></circle><circle cx="395.71" cy="237.91" r="2.6" fill="#F0A23B"></circle><circle cx="404.2" cy="227.46" r="2.6" fill="#F0A23B"></circle><circle cx="412.7" cy="241.35" r="2.6" fill="#F0A23B"></circle><circle cx="421.19" cy="249.73" r="2.6" fill="#F0A23B"></circle><circle cx="429.68" cy="234.66" r="2.6" fill="#F0A23B"></circle><circle cx="438.17" cy="250" r="2.6" fill="#F0A23B"></circle><circle cx="446.67" cy="253.94" r="2.6" fill="#F0A23B"></circle><circle cx="455.16" cy="252.42" r="2.6" fill="#F0A23B"></circle><circle cx="463.65" cy="245.42" r="2.6" fill="#F0A23B"></circle><circle cx="472.14" cy="237.98" r="2.6" fill="#F0A23B"></circle><circle cx="480.64" cy="238.85" r="2.6" fill="#F0A23B"></circle><circle cx="497.62" cy="257.8" r="2.6" fill="#F0A23B"></circle><circle cx="506.12" cy="233.33" r="2.6" fill="#F0A23B"></circle><circle cx="514.61" cy="238.96" r="2.6" fill="#F0A23B"></circle><circle cx="523.1" cy="252.16" r="2.6" fill="#F0A23B"></circle><circle cx="531.59" cy="246.34" r="2.6" fill="#F0A23B"></circle><circle cx="540.09" cy="221.3" r="2.6" fill="#F0A23B"></circle><circle cx="548.58" cy="228.03" r="2.6" fill="#F0A23B"></circle><circle cx="557.07" cy="249.57" r="2.6" fill="#F0A23B"></circle><circle cx="565.57" cy="236.95" r="2.6" fill="#F0A23B"></circle><circle cx="574.06" cy="243.86" r="2.6" fill="#F0A23B"></circle><circle cx="582.55" cy="246.88" r="2.6" fill="#F0A23B"></circle><circle cx="591.04" cy="238.45" r="2.6" fill="#F0A23B"></circle><circle cx="599.54" cy="247.92" r="2.6" fill="#F0A23B"></circle><circle cx="616.52" cy="235.92" r="2.6" fill="#F0A23B"></circle><circle cx="625.01" cy="214.9" r="2.6" fill="#F0A23B"></circle><circle cx="633.51" cy="201.77" r="2.6" fill="#F0A23B"></circle><circle cx="642" cy="219.97" r="2.6" fill="#F0A23B"></circle><polyline fill="none" stroke="#1F9CF0" stroke-width="2.4" stroke-linejoin="round" stroke-linecap="round" points="56,198.31 64.49,224.59 72.99,214.73 81.48,247.97 89.97,236.75 98.46,219.64 106.96,238.79 115.45,207.95 123.94,201.38 132.43,239.3 140.93,242.33 149.42,177.25 157.91,218.95 166.41,232.82 174.9,248.48 183.39,252.97 191.88,230.93 200.38,242.47 208.87,240.12 217.36,248.48 225.86,256.65 234.35,261.44 242.84,262.41 251.33,264.75 259.83,261.4 268.32,262.76 276.81,244.65 285.3,230.98 293.8,234.56 302.29,260.01 310.78,254.76 319.28,238.53 327.77,231.76 336.26,226.22 344.75,247.36 353.25,238.78 361.74,250.58 370.23,256.4 378.72,243.61 387.22,265.98 395.71,253.29 404.2,225.25 412.7,246.45 421.19,252.36 429.68,241.14 438.17,253.3 446.67,245.06 455.16,205.73 463.65,260.99 472.14,265.11 480.64,263.66 489.13,270.45 497.62,265.53 506.12,248.25 514.61,259.3 523.1,255.01 591.04,259.54 599.54,255.12 608.03,241.05 616.52,228.97 625.01,234.99 633.51,233 642,242.76"></polyline><circle cx="56" cy="198.31" r="2.6" fill="#1F9CF0"></circle><circle cx="64.49" cy="224.59" r="2.6" fill="#1F9CF0"></circle><circle cx="72.99" cy="214.73" r="2.6" fill="#1F9CF0"></circle><circle cx="81.48" cy="247.97" r="2.6" fill="#1F9CF0"></circle><circle cx="89.97" cy="236.75" r="2.6" fill="#1F9CF0"></circle><circle cx="98.46" cy="219.64" r="2.6" fill="#1F9CF0"></circle><circle cx="106.96" cy="238.79" r="2.6" fill="#1F9CF0"></circle><circle cx="115.45" cy="207.95" r="2.6" fill="#1F9CF0"></circle><circle cx="123.94" cy="201.38" r="2.6" fill="#1F9CF0"></circle><circle cx="132.43" cy="239.3" r="2.6" fill="#1F9CF0"></circle><circle cx="140.93" cy="242.33" r="2.6" fill="#1F9CF0"></circle><circle cx="149.42" cy="177.25" r="2.6" fill="#1F9CF0"></circle><circle cx="157.91" cy="218.95" r="2.6" fill="#1F9CF0"></circle><circle cx="166.41" cy="232.82" r="2.6" fill="#1F9CF0"></circle><circle cx="174.9" cy="248.48" r="2.6" fill="#1F9CF0"></circle><circle cx="183.39" cy="252.97" r="2.6" fill="#1F9CF0"></circle><circle cx="191.88" cy="230.93" r="2.6" fill="#1F9CF0"></circle><circle cx="200.38" cy="242.47" r="2.6" fill="#1F9CF0"></circle><circle cx="208.87" cy="240.12" r="2.6" fill="#1F9CF0"></circle><circle cx="217.36" cy="248.48" r="2.6" fill="#1F9CF0"></circle><circle cx="225.86" cy="256.65" r="2.6" fill="#1F9CF0"></circle><circle cx="234.35" cy="261.44" r="2.6" fill="#1F9CF0"></circle><circle cx="242.84" cy="262.41" r="2.6" fill="#1F9CF0"></circle><circle cx="251.33" cy="264.75" r="2.6" fill="#1F9CF0"></circle><circle cx="259.83" cy="261.4" r="2.6" fill="#1F9CF0"></circle><circle cx="268.32" cy="262.76" r="2.6" fill="#1F9CF0"></circle><circle cx="276.81" cy="244.65" r="2.6" fill="#1F9CF0"></circle><circle cx="285.3" cy="230.98" r="2.6" fill="#1F9CF0"></circle><circle cx="293.8" cy="234.56" r="2.6" fill="#1F9CF0"></circle><circle cx="302.29" cy="260.01" r="2.6" fill="#1F9CF0"></circle><circle cx="310.78" cy="254.76" r="2.6" fill="#1F9CF0"></circle><circle cx="319.28" cy="238.53" r="2.6" fill="#1F9CF0"></circle><circle cx="327.77" cy="231.76" r="2.6" fill="#1F9CF0"></circle><circle cx="336.26" cy="226.22" r="2.6" fill="#1F9CF0"></circle><circle cx="344.75" cy="247.36" r="2.6" fill="#1F9CF0"></circle><circle cx="353.25" cy="238.78" r="2.6" fill="#1F9CF0"></circle><circle cx="361.74" cy="250.58" r="2.6" fill="#1F9CF0"></circle><circle cx="370.23" cy="256.4" r="2.6" fill="#1F9CF0"></circle><circle cx="378.72" cy="243.61" r="2.6" fill="#1F9CF0"></circle><circle cx="387.22" cy="265.98" r="2.6" fill="#1F9CF0"></circle><circle cx="395.71" cy="253.29" r="2.6" fill="#1F9CF0"></circle><circle cx="404.2" cy="225.25" r="2.6" fill="#1F9CF0"></circle><circle cx="412.7" cy="246.45" r="2.6" fill="#1F9CF0"></circle><circle cx="421.19" cy="252.36" r="2.6" fill="#1F9CF0"></circle><circle cx="429.68" cy="241.14" r="2.6" fill="#1F9CF0"></circle><circle cx="438.17" cy="253.3" r="2.6" fill="#1F9CF0"></circle><circle cx="446.67" cy="245.06" r="2.6" fill="#1F9CF0"></circle><circle cx="455.16" cy="205.73" r="2.6" fill="#1F9CF0"></circle><circle cx="463.65" cy="260.99" r="2.6" fill="#1F9CF0"></circle><circle cx="472.14" cy="265.11" r="2.6" fill="#1F9CF0"></circle><circle cx="480.64" cy="263.66" r="2.6" fill="#1F9CF0"></circle><circle cx="489.13" cy="270.45" r="2.6" fill="#1F9CF0"></circle><circle cx="497.62" cy="265.53" r="2.6" fill="#1F9CF0"></circle><circle cx="506.12" cy="248.25" r="2.6" fill="#1F9CF0"></circle><circle cx="514.61" cy="259.3" r="2.6" fill="#1F9CF0"></circle><circle cx="523.1" cy="255.01" r="2.6" fill="#1F9CF0"></circle><circle cx="591.04" cy="259.54" r="2.6" fill="#1F9CF0"></circle><circle cx="599.54" cy="255.12" r="2.6" fill="#1F9CF0"></circle><circle cx="608.03" cy="241.05" r="2.6" fill="#1F9CF0"></circle><circle cx="616.52" cy="228.97" r="2.6" fill="#1F9CF0"></circle><circle cx="625.01" cy="234.99" r="2.6" fill="#1F9CF0"></circle><circle cx="633.51" cy="233" r="2.6" fill="#1F9CF0"></circle><circle cx="642" cy="242.76" r="2.6" fill="#1F9CF0"></circle><line x1="656" y1="27" x2="672" y2="27" stroke="#E8835A" stroke-width="3" stroke-linecap="round"></line><text x="678" y="30" font-size="11" font-weight="400" text-anchor="start" fill="#e6edf3">anthropic</text><line x1="656" y1="47" x2="672" y2="47" stroke="#6366F1" stroke-width="3" stroke-linecap="round"></line><text x="678" y="50" font-size="11" font-weight="400" text-anchor="start" fill="#e6edf3">deepseek</text><line x1="656" y1="67" x2="672" y2="67" stroke="#2DA98C" stroke-width="3" stroke-linecap="round"></line><text x="678" y="70" font-size="11" font-weight="400" text-anchor="start" fill="#e6edf3">gemini</text><line x1="656" y1="87" x2="672" y2="87" stroke="#A371F7" stroke-width="3" stroke-linecap="round"></line><text x="678" y="90" font-size="11" font-weight="400" text-anchor="start" fill="#e6edf3">llama</text><line x1="656" y1="107" x2="672" y2="107" stroke="#F0A23B" stroke-width="3" stroke-linecap="round"></line><text x="678" y="110" font-size="11" font-weight="400" text-anchor="start" fill="#e6edf3">mistral</text><line x1="656" y1="127" x2="672" y2="127" stroke="#1F9CF0" stroke-width="3" stroke-linecap="round"></line><text x="678" y="130" font-size="11" font-weight="400" text-anchor="start" fill="#e6edf3">openai</text></svg>
