<svg xmlns="http://www.w3.org/2000/svg" viewBox="0 0 760 348" width="760" height="348" role="img" aria-label="Average LLM latency by provider over runs — llama highest, deepseek lowest" font-family="-apple-system,BlinkMacSystemFont,'Segoe UI',system-ui,sans-serif"><line x1="56" y1="306" x2="642" y2="306" stroke="#30363d" stroke-width="1"></line><text x="46" y="310" font-size="9.5" font-weight="400" text-anchor="end" fill="#8b949e" font-family="ui-monospace,SFMono-Regular,Menlo,monospace">0.0s</text><line x1="56" y1="235" x2="642" y2="235" stroke="#30363d" stroke-width="1"></line><text x="46" y="239" font-size="9.5" font-weight="400" text-anchor="end" fill="#8b949e" font-family="ui-monospace,SFMono-Regular,Menlo,monospace">82.5s</text><line x1="56" y1="164" x2="642" y2="164" stroke="#30363d" stroke-width="1"></line><text x="46" y="168" font-size="9.5" font-weight="400" text-anchor="end" fill="#8b949e" font-family="ui-monospace,SFMono-Regular,Menlo,monospace">165.1s</text><line x1="56" y1="93" x2="642" y2="93" stroke="#30363d" stroke-width="1"></line><text x="46" y="97" font-size="9.5" font-weight="400" text-anchor="end" fill="#8b949e" font-family="ui-monospace,SFMono-Regular,Menlo,monospace">247.6s</text><line x1="56" y1="22" x2="642" y2="22" stroke="#30363d" stroke-width="1"></line><text x="46" y="26" font-size="9.5" font-weight="400" text-anchor="end" fill="#8b949e" font-family="ui-monospace,SFMono-Regular,Menlo,monospace">330.2s</text><text x="56" y="324" font-size="9.5" font-weight="400" text-anchor="middle" fill="#8b949e" font-family="ui-monospace,SFMono-Regular,Menlo,monospace">06/08</text><text x="105.52" y="324" font-size="9.5" font-weight="400" text-anchor="middle" fill="#8b949e" font-family="ui-monospace,SFMono-Regular,Menlo,monospace">06/08</text><text x="155.04" y="324" font-size="9.5" font-weight="400" text-anchor="middle" fill="#8b949e" font-family="ui-monospace,SFMono-Regular,Menlo,monospace">06/09</text><text x="204.56" y="324" font-size="9.5" font-weight="400" text-anchor="middle" fill="#8b949e" font-family="ui-monospace,SFMono-Regular,Menlo,monospace">06/12</text><text x="254.08" y="324" font-size="9.5" font-weight="400" text-anchor="middle" fill="#8b949e" font-family="ui-monospace,SFMono-Regular,Menlo,monospace">06/14</text><text x="303.61" y="324" font-size="9.5" font-weight="400" text-anchor="middle" fill="#8b949e" font-family="ui-monospace,SFMono-Regular,Menlo,monospace">06/15</text><text x="353.13" y="324" font-size="9.5" font-weight="400" text-anchor="middle" fill="#8b949e" font-family="ui-monospace,SFMono-Regular,Menlo,monospace">06/16</text><text x="402.65" y="324" font-size="9.5" font-weight="400" text-anchor="middle" fill="#8b949e" font-family="ui-monospace,SFMono-Regular,Menlo,monospace">06/18</text><text x="452.17" y="324" font-size="9.5" font-weight="400" text-anchor="middle" fill="#8b949e" font-family="ui-monospace,SFMono-Regular,Menlo,monospace">06/20</text><text x="501.69" y="324" font-size="9.5" font-weight="400" text-anchor="middle" fill="#8b949e" font-family="ui-monospace,SFMono-Regular,Menlo,monospace">06/21</text><text x="551.21" y="324" font-size="9.5" font-weight="400" text-anchor="middle" fill="#8b949e" font-family="ui-monospace,SFMono-Regular,Menlo,monospace">06/22</text><text x="600.73" y="324" font-size="9.5" font-weight="400" text-anchor="middle" fill="#8b949e" font-family="ui-monospace,SFMono-Regular,Menlo,monospace">06/24</text><text x="642" y="324" font-size="9.5" font-weight="400" text-anchor="middle" fill="#8b949e" font-family="ui-monospace,SFMono-Regular,Menlo,monospace">06/24</text><polyline fill="none" stroke="#E8835A" stroke-width="2.4" stroke-linejoin="round" stroke-linecap="round" points="56,229.15 64.25,232.31 72.51,238.94 80.76,244 89.01,235.49 97.27,232.81 105.52,250.28 113.77,243.38 122.03,241.66 130.28,231.14 146.79,234.04 155.04,244.32 163.3,228.71 171.55,246.08 179.8,242.18 188.06,235.58 196.31,242.32 204.56,244.55 212.82,246.98 221.07,240.71 229.32,250.83 237.58,244.26 245.83,241.33 254.08,245.63 262.34,245.02 270.59,240.82 278.85,243.78 287.1,243.28 295.35,240.2 303.61,242.69 311.86,215.59 320.11,241.79 328.37,238.64 336.62,243.45 344.87,243.86 353.13,234.8 361.38,244.51 369.63,244.64"></polyline><circle cx="56" cy="229.15" r="2.6" fill="#E8835A"></circle><circle cx="64.25" cy="232.31" r="2.6" fill="#E8835A"></circle><circle cx="72.51" cy="238.94" r="2.6" fill="#E8835A"></circle><circle cx="80.76" cy="244" r="2.6" fill="#E8835A"></circle><circle cx="89.01" cy="235.49" r="2.6" fill="#E8835A"></circle><circle cx="97.27" cy="232.81" r="2.6" fill="#E8835A"></circle><circle cx="105.52" cy="250.28" r="2.6" fill="#E8835A"></circle><circle cx="113.77" cy="243.38" r="2.6" fill="#E8835A"></circle><circle cx="122.03" cy="241.66" r="2.6" fill="#E8835A"></circle><circle cx="130.28" cy="231.14" r="2.6" fill="#E8835A"></circle><circle cx="146.79" cy="234.04" r="2.6" fill="#E8835A"></circle><circle cx="155.04" cy="244.32" r="2.6" fill="#E8835A"></circle><circle cx="163.3" cy="228.71" r="2.6" fill="#E8835A"></circle><circle cx="171.55" cy="246.08" r="2.6" fill="#E8835A"></circle><circle cx="179.8" cy="242.18" r="2.6" fill="#E8835A"></circle><circle cx="188.06" cy="235.58" r="2.6" fill="#E8835A"></circle><circle cx="196.31" cy="242.32" r="2.6" fill="#E8835A"></circle><circle cx="204.56" cy="244.55" r="2.6" fill="#E8835A"></circle><circle cx="212.82" cy="246.98" r="2.6" fill="#E8835A"></circle><circle cx="221.07" cy="240.71" r="2.6" fill="#E8835A"></circle><circle cx="229.32" cy="250.83" r="2.6" fill="#E8835A"></circle><circle cx="237.58" cy="244.26" r="2.6" fill="#E8835A"></circle><circle cx="245.83" cy="241.33" r="2.6" fill="#E8835A"></circle><circle cx="254.08" cy="245.63" r="2.6" fill="#E8835A"></circle><circle cx="262.34" cy="245.02" r="2.6" fill="#E8835A"></circle><circle cx="270.59" cy="240.82" r="2.6" fill="#E8835A"></circle><circle cx="278.85" cy="243.78" r="2.6" fill="#E8835A"></circle><circle cx="287.1" cy="243.28" r="2.6" fill="#E8835A"></circle><circle cx="295.35" cy="240.2" r="2.6" fill="#E8835A"></circle><circle cx="303.61" cy="242.69" r="2.6" fill="#E8835A"></circle><circle cx="311.86" cy="215.59" r="2.6" fill="#E8835A"></circle><circle cx="320.11" cy="241.79" r="2.6" fill="#E8835A"></circle><circle cx="328.37" cy="238.64" r="2.6" fill="#E8835A"></circle><circle cx="336.62" cy="243.45" r="2.6" fill="#E8835A"></circle><circle cx="344.87" cy="243.86" r="2.6" fill="#E8835A"></circle><circle cx="353.13" cy="234.8" r="2.6" fill="#E8835A"></circle><circle cx="361.38" cy="244.51" r="2.6" fill="#E8835A"></circle><circle cx="369.63" cy="244.64" r="2.6" fill="#E8835A"></circle><polyline fill="none" stroke="#6366F1" stroke-width="2.4" stroke-linejoin="round" stroke-linecap="round" points="64.25,247.24 72.51,242.4 80.76,249.98 89.01,230.48 97.27,260.21 105.52,260.34 113.77,270.44 122.03,248.92 130.28,245.19 138.54,247.83 146.79,256.22 155.04,248.72 163.3,261.47 171.55,243.58 179.8,210.49 188.06,266.33 196.31,232.33 204.56,232.27 212.82,199.16 221.07,237.91 229.32,252.97 237.58,266.11 245.83,215.25 254.08,265.97 262.34,258.25 270.59,265.82 278.85,246.69 287.1,244.53 303.61,240.91 311.86,255.51 320.11,252.51 328.37,237.2 336.62,258.24 344.87,235.84 353.13,252.87 361.38,243.73 369.63,249.01 386.14,263.05 394.39,262.95 402.65,250.85 410.9,238.76 419.15,245.84 427.41,240.49 435.66,244.58 443.92,238.25 452.17,266.43 460.42,219.91 468.68,256.77 485.18,250.11 493.44,264.15 501.69,249.18 509.94,252.64 518.2,236.94 526.45,257.91 534.7,245.05 542.96,245.47 551.21,251.25 559.46,250.75 567.72,249.01 575.97,257.36 584.23,265.15 592.48,253.64 600.73,262.66 608.99,253.56 617.24,247.85 625.49,241.21 633.75,265.06 642,257.2"></polyline><circle cx="64.25" cy="247.24" r="2.6" fill="#6366F1"></circle><circle cx="72.51" cy="242.4" r="2.6" fill="#6366F1"></circle><circle cx="80.76" cy="249.98" r="2.6" fill="#6366F1"></circle><circle cx="89.01" cy="230.48" r="2.6" fill="#6366F1"></circle><circle cx="97.27" cy="260.21" r="2.6" fill="#6366F1"></circle><circle cx="105.52" cy="260.34" r="2.6" fill="#6366F1"></circle><circle cx="113.77" cy="270.44" r="2.6" fill="#6366F1"></circle><circle cx="122.03" cy="248.92" r="2.6" fill="#6366F1"></circle><circle cx="130.28" cy="245.19" r="2.6" fill="#6366F1"></circle><circle cx="138.54" cy="247.83" r="2.6" fill="#6366F1"></circle><circle cx="146.79" cy="256.22" r="2.6" fill="#6366F1"></circle><circle cx="155.04" cy="248.72" r="2.6" fill="#6366F1"></circle><circle cx="163.3" cy="261.47" r="2.6" fill="#6366F1"></circle><circle cx="171.55" cy="243.58" r="2.6" fill="#6366F1"></circle><circle cx="179.8" cy="210.49" r="2.6" fill="#6366F1"></circle><circle cx="188.06" cy="266.33" r="2.6" fill="#6366F1"></circle><circle cx="196.31" cy="232.33" r="2.6" fill="#6366F1"></circle><circle cx="204.56" cy="232.27" r="2.6" fill="#6366F1"></circle><circle cx="212.82" cy="199.16" r="2.6" fill="#6366F1"></circle><circle cx="221.07" cy="237.91" r="2.6" fill="#6366F1"></circle><circle cx="229.32" cy="252.97" r="2.6" fill="#6366F1"></circle><circle cx="237.58" cy="266.11" r="2.6" fill="#6366F1"></circle><circle cx="245.83" cy="215.25" r="2.6" fill="#6366F1"></circle><circle cx="254.08" cy="265.97" r="2.6" fill="#6366F1"></circle><circle cx="262.34" cy="258.25" r="2.6" fill="#6366F1"></circle><circle cx="270.59" cy="265.82" r="2.6" fill="#6366F1"></circle><circle cx="278.85" cy="246.69" r="2.6" fill="#6366F1"></circle><circle cx="287.1" cy="244.53" r="2.6" fill="#6366F1"></circle><circle cx="303.61" cy="240.91" r="2.6" fill="#6366F1"></circle><circle cx="311.86" cy="255.51" r="2.6" fill="#6366F1"></circle><circle cx="320.11" cy="252.51" r="2.6" fill="#6366F1"></circle><circle cx="328.37" cy="237.2" r="2.6" fill="#6366F1"></circle><circle cx="336.62" cy="258.24" r="2.6" fill="#6366F1"></circle><circle cx="344.87" cy="235.84" r="2.6" fill="#6366F1"></circle><circle cx="353.13" cy="252.87" r="2.6" fill="#6366F1"></circle><circle cx="361.38" cy="243.73" r="2.6" fill="#6366F1"></circle><circle cx="369.63" cy="249.01" r="2.6" fill="#6366F1"></circle><circle cx="386.14" cy="263.05" r="2.6" fill="#6366F1"></circle><circle cx="394.39" cy="262.95" r="2.6" fill="#6366F1"></circle><circle cx="402.65" cy="250.85" r="2.6" fill="#6366F1"></circle><circle cx="410.9" cy="238.76" r="2.6" fill="#6366F1"></circle><circle cx="419.15" cy="245.84" r="2.6" fill="#6366F1"></circle><circle cx="427.41" cy="240.49" r="2.6" fill="#6366F1"></circle><circle cx="435.66" cy="244.58" r="2.6" fill="#6366F1"></circle><circle cx="443.92" cy="238.25" r="2.6" fill="#6366F1"></circle><circle cx="452.17" cy="266.43" r="2.6" fill="#6366F1"></circle><circle cx="460.42" cy="219.91" r="2.6" fill="#6366F1"></circle><circle cx="468.68" cy="256.77" r="2.6" fill="#6366F1"></circle><circle cx="485.18" cy="250.11" r="2.6" fill="#6366F1"></circle><circle cx="493.44" cy="264.15" r="2.6" fill="#6366F1"></circle><circle cx="501.69" cy="249.18" r="2.6" fill="#6366F1"></circle><circle cx="509.94" cy="252.64" r="2.6" fill="#6366F1"></circle><circle cx="518.2" cy="236.94" r="2.6" fill="#6366F1"></circle><circle cx="526.45" cy="257.91" r="2.6" fill="#6366F1"></circle><circle cx="534.7" cy="245.05" r="2.6" fill="#6366F1"></circle><circle cx="542.96" cy="245.47" r="2.6" fill="#6366F1"></circle><circle cx="551.21" cy="251.25" r="2.6" fill="#6366F1"></circle><circle cx="559.46" cy="250.75" r="2.6" fill="#6366F1"></circle><circle cx="567.72" cy="249.01" r="2.6" fill="#6366F1"></circle><circle cx="575.97" cy="257.36" r="2.6" fill="#6366F1"></circle><circle cx="584.23" cy="265.15" r="2.6" fill="#6366F1"></circle><circle cx="592.48" cy="253.64" r="2.6" fill="#6366F1"></circle><circle cx="600.73" cy="262.66" r="2.6" fill="#6366F1"></circle><circle cx="608.99" cy="253.56" r="2.6" fill="#6366F1"></circle><circle cx="617.24" cy="247.85" r="2.6" fill="#6366F1"></circle><circle cx="625.49" cy="241.21" r="2.6" fill="#6366F1"></circle><circle cx="633.75" cy="265.06" r="2.6" fill="#6366F1"></circle><circle cx="642" cy="257.2" r="2.6" fill="#6366F1"></circle><polyline fill="none" stroke="#2DA98C" stroke-width="2.4" stroke-linejoin="round" stroke-linecap="round" points="56,205.26 64.25,215.39 72.51,174.15 80.76,217.56 89.01,218.68 97.27,227.57 105.52,203.76 113.77,192.14 122.03,215.35 130.28,194.78 138.54,194.92 146.79,141.5 155.04,148.87 163.3,194.84 171.55,180.85 179.8,202.09 188.06,169.08 196.31,211.29 204.56,193.77 212.82,192.04 221.07,206.61 303.61,221.15 311.86,190.23 320.11,183.33 328.37,225.15 336.62,184.37 344.87,182.1 353.13,210.86 361.38,161.53 369.63,210.56 386.14,182.01 394.39,172.32 402.65,181.93 410.9,186.76 419.15,217.59 427.41,171.76 435.66,211.13 443.92,171.55 452.17,181.17 460.42,189.96 468.68,191.02 485.18,212.98 493.44,170.09 501.69,127.97 509.94,222.7 518.2,200.4 526.45,155.75 534.7,184.88 542.96,176.48 551.21,167.89 559.46,205.24 567.72,167.24 575.97,154.57 584.23,196.61 592.48,154.13 600.73,196.6 608.99,203.92 617.24,125.1 625.49,151.41 633.75,176.39 642,198.69"></polyline><circle cx="56" cy="205.26" r="2.6" fill="#2DA98C"></circle><circle cx="64.25" cy="215.39" r="2.6" fill="#2DA98C"></circle><circle cx="72.51" cy="174.15" r="2.6" fill="#2DA98C"></circle><circle cx="80.76" cy="217.56" r="2.6" fill="#2DA98C"></circle><circle cx="89.01" cy="218.68" r="2.6" fill="#2DA98C"></circle><circle cx="97.27" cy="227.57" r="2.6" fill="#2DA98C"></circle><circle cx="105.52" cy="203.76" r="2.6" fill="#2DA98C"></circle><circle cx="113.77" cy="192.14" r="2.6" fill="#2DA98C"></circle><circle cx="122.03" cy="215.35" r="2.6" fill="#2DA98C"></circle><circle cx="130.28" cy="194.78" r="2.6" fill="#2DA98C"></circle><circle cx="138.54" cy="194.92" r="2.6" fill="#2DA98C"></circle><circle cx="146.79" cy="141.5" r="2.6" fill="#2DA98C"></circle><circle cx="155.04" cy="148.87" r="2.6" fill="#2DA98C"></circle><circle cx="163.3" cy="194.84" r="2.6" fill="#2DA98C"></circle><circle cx="171.55" cy="180.85" r="2.6" fill="#2DA98C"></circle><circle cx="179.8" cy="202.09" r="2.6" fill="#2DA98C"></circle><circle cx="188.06" cy="169.08" r="2.6" fill="#2DA98C"></circle><circle cx="196.31" cy="211.29" r="2.6" fill="#2DA98C"></circle><circle cx="204.56" cy="193.77" r="2.6" fill="#2DA98C"></circle><circle cx="212.82" cy="192.04" r="2.6" fill="#2DA98C"></circle><circle cx="221.07" cy="206.61" r="2.6" fill="#2DA98C"></circle><circle cx="303.61" cy="221.15" r="2.6" fill="#2DA98C"></circle><circle cx="311.86" cy="190.23" r="2.6" fill="#2DA98C"></circle><circle cx="320.11" cy="183.33" r="2.6" fill="#2DA98C"></circle><circle cx="328.37" cy="225.15" r="2.6" fill="#2DA98C"></circle><circle cx="336.62" cy="184.37" r="2.6" fill="#2DA98C"></circle><circle cx="344.87" cy="182.1" r="2.6" fill="#2DA98C"></circle><circle cx="353.13" cy="210.86" r="2.6" fill="#2DA98C"></circle><circle cx="361.38" cy="161.53" r="2.6" fill="#2DA98C"></circle><circle cx="369.63" cy="210.56" r="2.6" fill="#2DA98C"></circle><circle cx="386.14" cy="182.01" r="2.6" fill="#2DA98C"></circle><circle cx="394.39" cy="172.32" r="2.6" fill="#2DA98C"></circle><circle cx="402.65" cy="181.93" r="2.6" fill="#2DA98C"></circle><circle cx="410.9" cy="186.76" r="2.6" fill="#2DA98C"></circle><circle cx="419.15" cy="217.59" r="2.6" fill="#2DA98C"></circle><circle cx="427.41" cy="171.76" r="2.6" fill="#2DA98C"></circle><circle cx="435.66" cy="211.13" r="2.6" fill="#2DA98C"></circle><circle cx="443.92" cy="171.55" r="2.6" fill="#2DA98C"></circle><circle cx="452.17" cy="181.17" r="2.6" fill="#2DA98C"></circle><circle cx="460.42" cy="189.96" r="2.6" fill="#2DA98C"></circle><circle cx="468.68" cy="191.02" r="2.6" fill="#2DA98C"></circle><circle cx="485.18" cy="212.98" r="2.6" fill="#2DA98C"></circle><circle cx="493.44" cy="170.09" r="2.6" fill="#2DA98C"></circle><circle cx="501.69" cy="127.97" r="2.6" fill="#2DA98C"></circle><circle cx="509.94" cy="222.7" r="2.6" fill="#2DA98C"></circle><circle cx="518.2" cy="200.4" r="2.6" fill="#2DA98C"></circle><circle cx="526.45" cy="155.75" r="2.6" fill="#2DA98C"></circle><circle cx="534.7" cy="184.88" r="2.6" fill="#2DA98C"></circle><circle cx="542.96" cy="176.48" r="2.6" fill="#2DA98C"></circle><circle cx="551.21" cy="167.89" r="2.6" fill="#2DA98C"></circle><circle cx="559.46" cy="205.24" r="2.6" fill="#2DA98C"></circle><circle cx="567.72" cy="167.24" r="2.6" fill="#2DA98C"></circle><circle cx="575.97" cy="154.57" r="2.6" fill="#2DA98C"></circle><circle cx="584.23" cy="196.61" r="2.6" fill="#2DA98C"></circle><circle cx="592.48" cy="154.13" r="2.6" fill="#2DA98C"></circle><circle cx="600.73" cy="196.6" r="2.6" fill="#2DA98C"></circle><circle cx="608.99" cy="203.92" r="2.6" fill="#2DA98C"></circle><circle cx="617.24" cy="125.1" r="2.6" fill="#2DA98C"></circle><circle cx="625.49" cy="151.41" r="2.6" fill="#2DA98C"></circle><circle cx="633.75" cy="176.39" r="2.6" fill="#2DA98C"></circle><circle cx="642" cy="198.69" r="2.6" fill="#2DA98C"></circle><polyline fill="none" stroke="#A371F7" stroke-width="2.4" stroke-linejoin="round" stroke-linecap="round" points="56,127.86 64.25,149.85 72.51,181.76 80.76,139.24 89.01,107.36 97.27,219.97 105.52,116.3 113.77,182.89 122.03,193.78 130.28,197.11 138.54,105.85 146.79,146.07 155.04,181.42 163.3,202.88 171.55,134.79 179.8,219.07 188.06,58.83 196.31,197.05 204.56,167.66 212.82,75.26 221.07,128.5 229.32,152.23 237.58,166.9 245.83,183.57 254.08,162.79 262.34,148.18 270.59,52.43 278.85,96.59 287.1,191.76 303.61,151.86 311.86,169.19 320.11,135.22 336.62,206.77 344.87,167.88 353.13,189.32 361.38,143.76 369.63,142.49 377.89,163.7 386.14,128.52 394.39,144.9 402.65,92.3 410.9,157.36 419.15,160.21 427.41,176.32 435.66,116.21 443.92,165.98 452.17,136.47 468.68,155.12 485.18,134.62 501.69,114.6 509.94,127.72 518.2,219.84 526.45,170.06 534.7,154.88 542.96,189.66 551.21,162.21 559.46,183.03 567.72,165.52 575.97,176.75 584.23,155.74 600.73,148.44 608.99,196.35 617.24,143.94 625.49,112.27 633.75,149.32 642,161.5"></polyline><circle cx="56" cy="127.86" r="2.6" fill="#A371F7"></circle><circle cx="64.25" cy="149.85" r="2.6" fill="#A371F7"></circle><circle cx="72.51" cy="181.76" r="2.6" fill="#A371F7"></circle><circle cx="80.76" cy="139.24" r="2.6" fill="#A371F7"></circle><circle cx="89.01" cy="107.36" r="2.6" fill="#A371F7"></circle><circle cx="97.27" cy="219.97" r="2.6" fill="#A371F7"></circle><circle cx="105.52" cy="116.3" r="2.6" fill="#A371F7"></circle><circle cx="113.77" cy="182.89" r="2.6" fill="#A371F7"></circle><circle cx="122.03" cy="193.78" r="2.6" fill="#A371F7"></circle><circle cx="130.28" cy="197.11" r="2.6" fill="#A371F7"></circle><circle cx="138.54" cy="105.85" r="2.6" fill="#A371F7"></circle><circle cx="146.79" cy="146.07" r="2.6" fill="#A371F7"></circle><circle cx="155.04" cy="181.42" r="2.6" fill="#A371F7"></circle><circle cx="163.3" cy="202.88" r="2.6" fill="#A371F7"></circle><circle cx="171.55" cy="134.79" r="2.6" fill="#A371F7"></circle><circle cx="179.8" cy="219.07" r="2.6" fill="#A371F7"></circle><circle cx="188.06" cy="58.83" r="2.6" fill="#A371F7"></circle><circle cx="196.31" cy="197.05" r="2.6" fill="#A371F7"></circle><circle cx="204.56" cy="167.66" r="2.6" fill="#A371F7"></circle><circle cx="212.82" cy="75.26" r="2.6" fill="#A371F7"></circle><circle cx="221.07" cy="128.5" r="2.6" fill="#A371F7"></circle><circle cx="229.32" cy="152.23" r="2.6" fill="#A371F7"></circle><circle cx="237.58" cy="166.9" r="2.6" fill="#A371F7"></circle><circle cx="245.83" cy="183.57" r="2.6" fill="#A371F7"></circle><circle cx="254.08" cy="162.79" r="2.6" fill="#A371F7"></circle><circle cx="262.34" cy="148.18" r="2.6" fill="#A371F7"></circle><circle cx="270.59" cy="52.43" r="2.6" fill="#A371F7"></circle><circle cx="278.85" cy="96.59" r="2.6" fill="#A371F7"></circle><circle cx="287.1" cy="191.76" r="2.6" fill="#A371F7"></circle><circle cx="303.61" cy="151.86" r="2.6" fill="#A371F7"></circle><circle cx="311.86" cy="169.19" r="2.6" fill="#A371F7"></circle><circle cx="320.11" cy="135.22" r="2.6" fill="#A371F7"></circle><circle cx="336.62" cy="206.77" r="2.6" fill="#A371F7"></circle><circle cx="344.87" cy="167.88" r="2.6" fill="#A371F7"></circle><circle cx="353.13" cy="189.32" r="2.6" fill="#A371F7"></circle><circle cx="361.38" cy="143.76" r="2.6" fill="#A371F7"></circle><circle cx="369.63" cy="142.49" r="2.6" fill="#A371F7"></circle><circle cx="377.89" cy="163.7" r="2.6" fill="#A371F7"></circle><circle cx="386.14" cy="128.52" r="2.6" fill="#A371F7"></circle><circle cx="394.39" cy="144.9" r="2.6" fill="#A371F7"></circle><circle cx="402.65" cy="92.3" r="2.6" fill="#A371F7"></circle><circle cx="410.9" cy="157.36" r="2.6" fill="#A371F7"></circle><circle cx="419.15" cy="160.21" r="2.6" fill="#A371F7"></circle><circle cx="427.41" cy="176.32" r="2.6" fill="#A371F7"></circle><circle cx="435.66" cy="116.21" r="2.6" fill="#A371F7"></circle><circle cx="443.92" cy="165.98" r="2.6" fill="#A371F7"></circle><circle cx="452.17" cy="136.47" r="2.6" fill="#A371F7"></circle><circle cx="468.68" cy="155.12" r="2.6" fill="#A371F7"></circle><circle cx="485.18" cy="134.62" r="2.6" fill="#A371F7"></circle><circle cx="501.69" cy="114.6" r="2.6" fill="#A371F7"></circle><circle cx="509.94" cy="127.72" r="2.6" fill="#A371F7"></circle><circle cx="518.2" cy="219.84" r="2.6" fill="#A371F7"></circle><circle cx="526.45" cy="170.06" r="2.6" fill="#A371F7"></circle><circle cx="534.7" cy="154.88" r="2.6" fill="#A371F7"></circle><circle cx="542.96" cy="189.66" r="2.6" fill="#A371F7"></circle><circle cx="551.21" cy="162.21" r="2.6" fill="#A371F7"></circle><circle cx="559.46" cy="183.03" r="2.6" fill="#A371F7"></circle><circle cx="567.72" cy="165.52" r="2.6" fill="#A371F7"></circle><circle cx="575.97" cy="176.75" r="2.6" fill="#A371F7"></circle><circle cx="584.23" cy="155.74" r="2.6" fill="#A371F7"></circle><circle cx="600.73" cy="148.44" r="2.6" fill="#A371F7"></circle><circle cx="608.99" cy="196.35" r="2.6" fill="#A371F7"></circle><circle cx="617.24" cy="143.94" r="2.6" fill="#A371F7"></circle><circle cx="625.49" cy="112.27" r="2.6" fill="#A371F7"></circle><circle cx="633.75" cy="149.32" r="2.6" fill="#A371F7"></circle><circle cx="642" cy="161.5" r="2.6" fill="#A371F7"></circle><polyline fill="none" stroke="#F0A23B" stroke-width="2.4" stroke-linejoin="round" stroke-linecap="round" points="56,170.6 64.25,150.62 72.51,187.27 80.76,153.33 89.01,137.4 97.27,187.39 105.52,202.98 113.77,219.57 122.03,187.3 130.28,163.64 138.54,218.54 146.79,247.9 155.04,222.75 163.3,249.71 171.55,224.7 179.8,243.69 188.06,245.81 196.31,211.84 204.56,236.21 212.82,257.78 221.07,248.63 229.32,234.2 237.58,247.57 245.83,243.66 254.08,258.59 262.34,253.94 270.59,235.44 278.85,209.7 287.1,229.87 295.35,229.74 303.61,242.74 311.86,219.28 320.11,218.69 328.37,248.17 336.62,252.02 344.87,241.64 353.13,202.83 361.38,191.16 369.63,236.21 377.89,247.47 386.14,237.91 394.39,227.46 402.65,241.35 410.9,249.73 419.15,234.66 427.41,250 435.66,253.94 443.92,252.42 452.17,245.42 460.42,237.98 468.68,238.85 485.18,257.8 493.44,233.33 501.69,238.96 509.94,252.16 518.2,246.34 526.45,221.3 534.7,228.03 542.96,249.57 551.21,236.95 559.46,243.86 567.72,246.88 575.97,238.45 584.23,247.92 600.73,235.92 608.99,214.9 617.24,201.77 625.49,219.97 633.75,238.65 642,232.47"></polyline><circle cx="56" cy="170.6" r="2.6" fill="#F0A23B"></circle><circle cx="64.25" cy="150.62" r="2.6" fill="#F0A23B"></circle><circle cx="72.51" cy="187.27" r="2.6" fill="#F0A23B"></circle><circle cx="80.76" cy="153.33" r="2.6" fill="#F0A23B"></circle><circle cx="89.01" cy="137.4" r="2.6" fill="#F0A23B"></circle><circle cx="97.27" cy="187.39" r="2.6" fill="#F0A23B"></circle><circle cx="105.52" cy="202.98" r="2.6" fill="#F0A23B"></circle><circle cx="113.77" cy="219.57" r="2.6" fill="#F0A23B"></circle><circle cx="122.03" cy="187.3" r="2.6" fill="#F0A23B"></circle><circle cx="130.28" cy="163.64" r="2.6" fill="#F0A23B"></circle><circle cx="138.54" cy="218.54" r="2.6" fill="#F0A23B"></circle><circle cx="146.79" cy="247.9" r="2.6" fill="#F0A23B"></circle><circle cx="155.04" cy="222.75" r="2.6" fill="#F0A23B"></circle><circle cx="163.3" cy="249.71" r="2.6" fill="#F0A23B"></circle><circle cx="171.55" cy="224.7" r="2.6" fill="#F0A23B"></circle><circle cx="179.8" cy="243.69" r="2.6" fill="#F0A23B"></circle><circle cx="188.06" cy="245.81" r="2.6" fill="#F0A23B"></circle><circle cx="196.31" cy="211.84" r="2.6" fill="#F0A23B"></circle><circle cx="204.56" cy="236.21" r="2.6" fill="#F0A23B"></circle><circle cx="212.82" cy="257.78" r="2.6" fill="#F0A23B"></circle><circle cx="221.07" cy="248.63" r="2.6" fill="#F0A23B"></circle><circle cx="229.32" cy="234.2" r="2.6" fill="#F0A23B"></circle><circle cx="237.58" cy="247.57" r="2.6" fill="#F0A23B"></circle><circle cx="245.83" cy="243.66" r="2.6" fill="#F0A23B"></circle><circle cx="254.08" cy="258.59" r="2.6" fill="#F0A23B"></circle><circle cx="262.34" cy="253.94" r="2.6" fill="#F0A23B"></circle><circle cx="270.59" cy="235.44" r="2.6" fill="#F0A23B"></circle><circle cx="278.85" cy="209.7" r="2.6" fill="#F0A23B"></circle><circle cx="287.1" cy="229.87" r="2.6" fill="#F0A23B"></circle><circle cx="295.35" cy="229.74" r="2.6" fill="#F0A23B"></circle><circle cx="303.61" cy="242.74" r="2.6" fill="#F0A23B"></circle><circle cx="311.86" cy="219.28" r="2.6" fill="#F0A23B"></circle><circle cx="320.11" cy="218.69" r="2.6" fill="#F0A23B"></circle><circle cx="328.37" cy="248.17" r="2.6" fill="#F0A23B"></circle><circle cx="336.62" cy="252.02" r="2.6" fill="#F0A23B"></circle><circle cx="344.87" cy="241.64" r="2.6" fill="#F0A23B"></circle><circle cx="353.13" cy="202.83" r="2.6" fill="#F0A23B"></circle><circle cx="361.38" cy="191.16" r="2.6" fill="#F0A23B"></circle><circle cx="369.63" cy="236.21" r="2.6" fill="#F0A23B"></circle><circle cx="377.89" cy="247.47" r="2.6" fill="#F0A23B"></circle><circle cx="386.14" cy="237.91" r="2.6" fill="#F0A23B"></circle><circle cx="394.39" cy="227.46" r="2.6" fill="#F0A23B"></circle><circle cx="402.65" cy="241.35" r="2.6" fill="#F0A23B"></circle><circle cx="410.9" cy="249.73" r="2.6" fill="#F0A23B"></circle><circle cx="419.15" cy="234.66" r="2.6" fill="#F0A23B"></circle><circle cx="427.41" cy="250" r="2.6" fill="#F0A23B"></circle><circle cx="435.66" cy="253.94" r="2.6" fill="#F0A23B"></circle><circle cx="443.92" cy="252.42" r="2.6" fill="#F0A23B"></circle><circle cx="452.17" cy="245.42" r="2.6" fill="#F0A23B"></circle><circle cx="460.42" cy="237.98" r="2.6" fill="#F0A23B"></circle><circle cx="468.68" cy="238.85" r="2.6" fill="#F0A23B"></circle><circle cx="485.18" cy="257.8" r="2.6" fill="#F0A23B"></circle><circle cx="493.44" cy="233.33" r="2.6" fill="#F0A23B"></circle><circle cx="501.69" cy="238.96" r="2.6" fill="#F0A23B"></circle><circle cx="509.94" cy="252.16" r="2.6" fill="#F0A23B"></circle><circle cx="518.2" cy="246.34" r="2.6" fill="#F0A23B"></circle><circle cx="526.45" cy="221.3" r="2.6" fill="#F0A23B"></circle><circle cx="534.7" cy="228.03" r="2.6" fill="#F0A23B"></circle><circle cx="542.96" cy="249.57" r="2.6" fill="#F0A23B"></circle><circle cx="551.21" cy="236.95" r="2.6" fill="#F0A23B"></circle><circle cx="559.46" cy="243.86" r="2.6" fill="#F0A23B"></circle><circle cx="567.72" cy="246.88" r="2.6" fill="#F0A23B"></circle><circle cx="575.97" cy="238.45" r="2.6" fill="#F0A23B"></circle><circle cx="584.23" cy="247.92" r="2.6" fill="#F0A23B"></circle><circle cx="600.73" cy="235.92" r="2.6" fill="#F0A23B"></circle><circle cx="608.99" cy="214.9" r="2.6" fill="#F0A23B"></circle><circle cx="617.24" cy="201.77" r="2.6" fill="#F0A23B"></circle><circle cx="625.49" cy="219.97" r="2.6" fill="#F0A23B"></circle><circle cx="633.75" cy="238.65" r="2.6" fill="#F0A23B"></circle><circle cx="642" cy="232.47" r="2.6" fill="#F0A23B"></circle><polyline fill="none" stroke="#1F9CF0" stroke-width="2.4" stroke-linejoin="round" stroke-linecap="round" points="56,198.31 64.25,224.59 72.51,214.73 80.76,247.97 89.01,236.75 97.27,219.64 105.52,238.79 113.77,207.95 122.03,201.38 130.28,239.3 138.54,242.33 146.79,177.25 155.04,218.95 163.3,232.82 171.55,248.48 179.8,252.97 188.06,230.93 196.31,242.47 204.56,240.12 212.82,248.48 221.07,256.65 229.32,261.44 237.58,262.41 245.83,264.75 254.08,261.4 262.34,262.76 270.59,244.65 278.85,230.98 287.1,234.56 295.35,260.01 303.61,254.76 311.86,238.53 320.11,231.76 328.37,226.22 336.62,247.36 344.87,238.78 353.13,250.58 361.38,256.4 369.63,243.61 377.89,265.98 386.14,253.29 394.39,225.25 402.65,246.45 410.9,252.36 419.15,241.14 427.41,253.3 435.66,245.06 443.92,205.73 452.17,260.99 460.42,265.11 468.68,263.66 476.93,270.45 485.18,265.53 493.44,248.25 501.69,259.3 509.94,255.01 575.97,259.54 584.23,255.12 592.48,241.05 600.73,228.97 608.99,234.99 617.24,233 625.49,242.76 633.75,238.49 642,251.01"></polyline><circle cx="56" cy="198.31" r="2.6" fill="#1F9CF0"></circle><circle cx="64.25" cy="224.59" r="2.6" fill="#1F9CF0"></circle><circle cx="72.51" cy="214.73" r="2.6" fill="#1F9CF0"></circle><circle cx="80.76" cy="247.97" r="2.6" fill="#1F9CF0"></circle><circle cx="89.01" cy="236.75" r="2.6" fill="#1F9CF0"></circle><circle cx="97.27" cy="219.64" r="2.6" fill="#1F9CF0"></circle><circle cx="105.52" cy="238.79" r="2.6" fill="#1F9CF0"></circle><circle cx="113.77" cy="207.95" r="2.6" fill="#1F9CF0"></circle><circle cx="122.03" cy="201.38" r="2.6" fill="#1F9CF0"></circle><circle cx="130.28" cy="239.3" r="2.6" fill="#1F9CF0"></circle><circle cx="138.54" cy="242.33" r="2.6" fill="#1F9CF0"></circle><circle cx="146.79" cy="177.25" r="2.6" fill="#1F9CF0"></circle><circle cx="155.04" cy="218.95" r="2.6" fill="#1F9CF0"></circle><circle cx="163.3" cy="232.82" r="2.6" fill="#1F9CF0"></circle><circle cx="171.55" cy="248.48" r="2.6" fill="#1F9CF0"></circle><circle cx="179.8" cy="252.97" r="2.6" fill="#1F9CF0"></circle><circle cx="188.06" cy="230.93" r="2.6" fill="#1F9CF0"></circle><circle cx="196.31" cy="242.47" r="2.6" fill="#1F9CF0"></circle><circle cx="204.56" cy="240.12" r="2.6" fill="#1F9CF0"></circle><circle cx="212.82" cy="248.48" r="2.6" fill="#1F9CF0"></circle><circle cx="221.07" cy="256.65" r="2.6" fill="#1F9CF0"></circle><circle cx="229.32" cy="261.44" r="2.6" fill="#1F9CF0"></circle><circle cx="237.58" cy="262.41" r="2.6" fill="#1F9CF0"></circle><circle cx="245.83" cy="264.75" r="2.6" fill="#1F9CF0"></circle><circle cx="254.08" cy="261.4" r="2.6" fill="#1F9CF0"></circle><circle cx="262.34" cy="262.76" r="2.6" fill="#1F9CF0"></circle><circle cx="270.59" cy="244.65" r="2.6" fill="#1F9CF0"></circle><circle cx="278.85" cy="230.98" r="2.6" fill="#1F9CF0"></circle><circle cx="287.1" cy="234.56" r="2.6" fill="#1F9CF0"></circle><circle cx="295.35" cy="260.01" r="2.6" fill="#1F9CF0"></circle><circle cx="303.61" cy="254.76" r="2.6" fill="#1F9CF0"></circle><circle cx="311.86" cy="238.53" r="2.6" fill="#1F9CF0"></circle><circle cx="320.11" cy="231.76" r="2.6" fill="#1F9CF0"></circle><circle cx="328.37" cy="226.22" r="2.6" fill="#1F9CF0"></circle><circle cx="336.62" cy="247.36" r="2.6" fill="#1F9CF0"></circle><circle cx="344.87" cy="238.78" r="2.6" fill="#1F9CF0"></circle><circle cx="353.13" cy="250.58" r="2.6" fill="#1F9CF0"></circle><circle cx="361.38" cy="256.4" r="2.6" fill="#1F9CF0"></circle><circle cx="369.63" cy="243.61" r="2.6" fill="#1F9CF0"></circle><circle cx="377.89" cy="265.98" r="2.6" fill="#1F9CF0"></circle><circle cx="386.14" cy="253.29" r="2.6" fill="#1F9CF0"></circle><circle cx="394.39" cy="225.25" r="2.6" fill="#1F9CF0"></circle><circle cx="402.65" cy="246.45" r="2.6" fill="#1F9CF0"></circle><circle cx="410.9" cy="252.36" r="2.6" fill="#1F9CF0"></circle><circle cx="419.15" cy="241.14" r="2.6" fill="#1F9CF0"></circle><circle cx="427.41" cy="253.3" r="2.6" fill="#1F9CF0"></circle><circle cx="435.66" cy="245.06" r="2.6" fill="#1F9CF0"></circle><circle cx="443.92" cy="205.73" r="2.6" fill="#1F9CF0"></circle><circle cx="452.17" cy="260.99" r="2.6" fill="#1F9CF0"></circle><circle cx="460.42" cy="265.11" r="2.6" fill="#1F9CF0"></circle><circle cx="468.68" cy="263.66" r="2.6" fill="#1F9CF0"></circle><circle cx="476.93" cy="270.45" r="2.6" fill="#1F9CF0"></circle><circle cx="485.18" cy="265.53" r="2.6" fill="#1F9CF0"></circle><circle cx="493.44" cy="248.25" r="2.6" fill="#1F9CF0"></circle><circle cx="501.69" cy="259.3" r="2.6" fill="#1F9CF0"></circle><circle cx="509.94" cy="255.01" r="2.6" fill="#1F9CF0"></circle><circle cx="575.97" cy="259.54" r="2.6" fill="#1F9CF0"></circle><circle cx="584.23" cy="255.12" r="2.6" fill="#1F9CF0"></circle><circle cx="592.48" cy="241.05" r="2.6" fill="#1F9CF0"></circle><circle cx="600.73" cy="228.97" r="2.6" fill="#1F9CF0"></circle><circle cx="608.99" cy="234.99" r="2.6" fill="#1F9CF0"></circle><circle cx="617.24" cy="233" r="2.6" fill="#1F9CF0"></circle><circle cx="625.49" cy="242.76" r="2.6" fill="#1F9CF0"></circle><circle cx="633.75" cy="238.49" r="2.6" fill="#1F9CF0"></circle><circle cx="642" cy="251.01" r="2.6" fill="#1F9CF0"></circle><line x1="656" y1="27" x2="672" y2="27" stroke="#E8835A" stroke-width="3" stroke-linecap="round"></line><text x="678" y="30" font-size="11" font-weight="400" text-anchor="start" fill="#e6edf3">anthropic</text><line x1="656" y1="47" x2="672" y2="47" stroke="#6366F1" stroke-width="3" stroke-linecap="round"></line><text x="678" y="50" font-size="11" font-weight="400" text-anchor="start" fill="#e6edf3">deepseek</text><line x1="656" y1="67" x2="672" y2="67" stroke="#2DA98C" stroke-width="3" stroke-linecap="round"></line><text x="678" y="70" font-size="11" font-weight="400" text-anchor="start" fill="#e6edf3">gemini</text><line x1="656" y1="87" x2="672" y2="87" stroke="#A371F7" stroke-width="3" stroke-linecap="round"></line><text x="678" y="90" font-size="11" font-weight="400" text-anchor="start" fill="#e6edf3">llama</text><line x1="656" y1="107" x2="672" y2="107" stroke="#F0A23B" stroke-width="3" stroke-linecap="round"></line><text x="678" y="110" font-size="11" font-weight="400" text-anchor="start" fill="#e6edf3">mistral</text><line x1="656" y1="127" x2="672" y2="127" stroke="#1F9CF0" stroke-width="3" stroke-linecap="round"></line><text x="678" y="130" font-size="11" font-weight="400" text-anchor="start" fill="#e6edf3">openai</text></svg>
