<svg xmlns="http://www.w3.org/2000/svg" viewBox="0 0 760 348" width="760" height="348" role="img" aria-label="Average LLM latency by provider over runs — llama highest, deepseek lowest" font-family="-apple-system,BlinkMacSystemFont,'Segoe UI',system-ui,sans-serif"><line x1="56" y1="306" x2="642" y2="306" stroke="#d8dee4" stroke-width="1"></line><text x="46" y="310" font-size="9.5" font-weight="400" text-anchor="end" fill="#656d76" font-family="ui-monospace,SFMono-Regular,Menlo,monospace">0.0s</text><line x1="56" y1="235" x2="642" y2="235" stroke="#d8dee4" stroke-width="1"></line><text x="46" y="239" font-size="9.5" font-weight="400" text-anchor="end" fill="#656d76" font-family="ui-monospace,SFMono-Regular,Menlo,monospace">82.5s</text><line x1="56" y1="164" x2="642" y2="164" stroke="#d8dee4" stroke-width="1"></line><text x="46" y="168" font-size="9.5" font-weight="400" text-anchor="end" fill="#656d76" font-family="ui-monospace,SFMono-Regular,Menlo,monospace">165.1s</text><line x1="56" y1="93" x2="642" y2="93" stroke="#d8dee4" stroke-width="1"></line><text x="46" y="97" font-size="9.5" font-weight="400" text-anchor="end" fill="#656d76" font-family="ui-monospace,SFMono-Regular,Menlo,monospace">247.6s</text><line x1="56" y1="22" x2="642" y2="22" stroke="#d8dee4" stroke-width="1"></line><text x="46" y="26" font-size="9.5" font-weight="400" text-anchor="end" fill="#656d76" font-family="ui-monospace,SFMono-Regular,Menlo,monospace">330.2s</text><text x="56" y="324" font-size="9.5" font-weight="400" text-anchor="middle" fill="#656d76" font-family="ui-monospace,SFMono-Regular,Menlo,monospace">06/08</text><text x="114.6" y="324" font-size="9.5" font-weight="400" text-anchor="middle" fill="#656d76" font-family="ui-monospace,SFMono-Regular,Menlo,monospace">06/08</text><text x="173.2" y="324" font-size="9.5" font-weight="400" text-anchor="middle" fill="#656d76" font-family="ui-monospace,SFMono-Regular,Menlo,monospace">06/08</text><text x="231.8" y="324" font-size="9.5" font-weight="400" text-anchor="middle" fill="#656d76" font-family="ui-monospace,SFMono-Regular,Menlo,monospace">06/09</text><text x="290.4" y="324" font-size="9.5" font-weight="400" text-anchor="middle" fill="#656d76" font-family="ui-monospace,SFMono-Regular,Menlo,monospace">06/09</text><text x="349" y="324" font-size="9.5" font-weight="400" text-anchor="middle" fill="#656d76" font-family="ui-monospace,SFMono-Regular,Menlo,monospace">06/12</text><text x="407.6" y="324" font-size="9.5" font-weight="400" text-anchor="middle" fill="#656d76" font-family="ui-monospace,SFMono-Regular,Menlo,monospace">06/12</text><text x="466.2" y="324" font-size="9.5" font-weight="400" text-anchor="middle" fill="#656d76" font-family="ui-monospace,SFMono-Regular,Menlo,monospace">06/14</text><text x="524.8" y="324" font-size="9.5" font-weight="400" text-anchor="middle" fill="#656d76" font-family="ui-monospace,SFMono-Regular,Menlo,monospace">06/14</text><text x="583.4" y="324" font-size="9.5" font-weight="400" text-anchor="middle" fill="#656d76" font-family="ui-monospace,SFMono-Regular,Menlo,monospace">06/15</text><text x="642" y="324" font-size="9.5" font-weight="400" text-anchor="middle" fill="#656d76" font-family="ui-monospace,SFMono-Regular,Menlo,monospace">06/15</text><polyline fill="none" stroke="#E8835A" stroke-width="2.4" stroke-linejoin="round" stroke-linecap="round" points="56,229.15 75.53,232.31 95.07,238.94 114.6,244 134.13,235.49 153.67,232.81 173.2,250.28 192.73,243.38 212.27,241.66 231.8,231.14 270.87,234.04 290.4,244.32 309.93,228.71 329.47,246.08 349,242.18 368.53,235.58 388.07,242.32 407.6,244.55 427.13,246.98 446.67,240.71 466.2,250.83 485.73,244.26 505.27,241.33 524.8,245.63 544.33,245.02 563.87,240.82 583.4,243.78 602.93,243.28 622.47,240.2 642,242.69"></polyline><circle cx="56" cy="229.15" r="2.6" fill="#E8835A"></circle><circle cx="75.53" cy="232.31" r="2.6" fill="#E8835A"></circle><circle cx="95.07" cy="238.94" r="2.6" fill="#E8835A"></circle><circle cx="114.6" cy="244" r="2.6" fill="#E8835A"></circle><circle cx="134.13" cy="235.49" r="2.6" fill="#E8835A"></circle><circle cx="153.67" cy="232.81" r="2.6" fill="#E8835A"></circle><circle cx="173.2" cy="250.28" r="2.6" fill="#E8835A"></circle><circle cx="192.73" cy="243.38" r="2.6" fill="#E8835A"></circle><circle cx="212.27" cy="241.66" r="2.6" fill="#E8835A"></circle><circle cx="231.8" cy="231.14" r="2.6" fill="#E8835A"></circle><circle cx="270.87" cy="234.04" r="2.6" fill="#E8835A"></circle><circle cx="290.4" cy="244.32" r="2.6" fill="#E8835A"></circle><circle cx="309.93" cy="228.71" r="2.6" fill="#E8835A"></circle><circle cx="329.47" cy="246.08" r="2.6" fill="#E8835A"></circle><circle cx="349" cy="242.18" r="2.6" fill="#E8835A"></circle><circle cx="368.53" cy="235.58" r="2.6" fill="#E8835A"></circle><circle cx="388.07" cy="242.32" r="2.6" fill="#E8835A"></circle><circle cx="407.6" cy="244.55" r="2.6" fill="#E8835A"></circle><circle cx="427.13" cy="246.98" r="2.6" fill="#E8835A"></circle><circle cx="446.67" cy="240.71" r="2.6" fill="#E8835A"></circle><circle cx="466.2" cy="250.83" r="2.6" fill="#E8835A"></circle><circle cx="485.73" cy="244.26" r="2.6" fill="#E8835A"></circle><circle cx="505.27" cy="241.33" r="2.6" fill="#E8835A"></circle><circle cx="524.8" cy="245.63" r="2.6" fill="#E8835A"></circle><circle cx="544.33" cy="245.02" r="2.6" fill="#E8835A"></circle><circle cx="563.87" cy="240.82" r="2.6" fill="#E8835A"></circle><circle cx="583.4" cy="243.78" r="2.6" fill="#E8835A"></circle><circle cx="602.93" cy="243.28" r="2.6" fill="#E8835A"></circle><circle cx="622.47" cy="240.2" r="2.6" fill="#E8835A"></circle><circle cx="642" cy="242.69" r="2.6" fill="#E8835A"></circle><polyline fill="none" stroke="#6366F1" stroke-width="2.4" stroke-linejoin="round" stroke-linecap="round" points="75.53,247.24 95.07,242.4 114.6,249.98 134.13,230.48 153.67,260.21 173.2,260.34 192.73,270.44 212.27,248.92 231.8,245.19 251.33,247.83 270.87,256.22 290.4,248.72 309.93,261.47 329.47,243.58 349,210.49 368.53,266.33 388.07,232.33 407.6,232.27 427.13,199.16 446.67,237.91 466.2,252.97 485.73,266.11 505.27,215.25 524.8,265.97 544.33,258.25 563.87,265.82 583.4,246.69 602.93,244.53 642,240.91"></polyline><circle cx="75.53" cy="247.24" r="2.6" fill="#6366F1"></circle><circle cx="95.07" cy="242.4" r="2.6" fill="#6366F1"></circle><circle cx="114.6" cy="249.98" r="2.6" fill="#6366F1"></circle><circle cx="134.13" cy="230.48" r="2.6" fill="#6366F1"></circle><circle cx="153.67" cy="260.21" r="2.6" fill="#6366F1"></circle><circle cx="173.2" cy="260.34" r="2.6" fill="#6366F1"></circle><circle cx="192.73" cy="270.44" r="2.6" fill="#6366F1"></circle><circle cx="212.27" cy="248.92" r="2.6" fill="#6366F1"></circle><circle cx="231.8" cy="245.19" r="2.6" fill="#6366F1"></circle><circle cx="251.33" cy="247.83" r="2.6" fill="#6366F1"></circle><circle cx="270.87" cy="256.22" r="2.6" fill="#6366F1"></circle><circle cx="290.4" cy="248.72" r="2.6" fill="#6366F1"></circle><circle cx="309.93" cy="261.47" r="2.6" fill="#6366F1"></circle><circle cx="329.47" cy="243.58" r="2.6" fill="#6366F1"></circle><circle cx="349" cy="210.49" r="2.6" fill="#6366F1"></circle><circle cx="368.53" cy="266.33" r="2.6" fill="#6366F1"></circle><circle cx="388.07" cy="232.33" r="2.6" fill="#6366F1"></circle><circle cx="407.6" cy="232.27" r="2.6" fill="#6366F1"></circle><circle cx="427.13" cy="199.16" r="2.6" fill="#6366F1"></circle><circle cx="446.67" cy="237.91" r="2.6" fill="#6366F1"></circle><circle cx="466.2" cy="252.97" r="2.6" fill="#6366F1"></circle><circle cx="485.73" cy="266.11" r="2.6" fill="#6366F1"></circle><circle cx="505.27" cy="215.25" r="2.6" fill="#6366F1"></circle><circle cx="524.8" cy="265.97" r="2.6" fill="#6366F1"></circle><circle cx="544.33" cy="258.25" r="2.6" fill="#6366F1"></circle><circle cx="563.87" cy="265.82" r="2.6" fill="#6366F1"></circle><circle cx="583.4" cy="246.69" r="2.6" fill="#6366F1"></circle><circle cx="602.93" cy="244.53" r="2.6" fill="#6366F1"></circle><circle cx="642" cy="240.91" r="2.6" fill="#6366F1"></circle><polyline fill="none" stroke="#2DA98C" stroke-width="2.4" stroke-linejoin="round" stroke-linecap="round" points="56,205.26 75.53,215.39 95.07,174.15 114.6,217.56 134.13,218.68 153.67,227.57 173.2,203.76 192.73,192.14 212.27,215.35 231.8,194.78 251.33,194.92 270.87,141.5 290.4,148.87 309.93,194.84 329.47,180.85 349,202.09 368.53,169.08 388.07,211.29 407.6,193.77 427.13,192.04 446.67,206.61 642,221.15"></polyline><circle cx="56" cy="205.26" r="2.6" fill="#2DA98C"></circle><circle cx="75.53" cy="215.39" r="2.6" fill="#2DA98C"></circle><circle cx="95.07" cy="174.15" r="2.6" fill="#2DA98C"></circle><circle cx="114.6" cy="217.56" r="2.6" fill="#2DA98C"></circle><circle cx="134.13" cy="218.68" r="2.6" fill="#2DA98C"></circle><circle cx="153.67" cy="227.57" r="2.6" fill="#2DA98C"></circle><circle cx="173.2" cy="203.76" r="2.6" fill="#2DA98C"></circle><circle cx="192.73" cy="192.14" r="2.6" fill="#2DA98C"></circle><circle cx="212.27" cy="215.35" r="2.6" fill="#2DA98C"></circle><circle cx="231.8" cy="194.78" r="2.6" fill="#2DA98C"></circle><circle cx="251.33" cy="194.92" r="2.6" fill="#2DA98C"></circle><circle cx="270.87" cy="141.5" r="2.6" fill="#2DA98C"></circle><circle cx="290.4" cy="148.87" r="2.6" fill="#2DA98C"></circle><circle cx="309.93" cy="194.84" r="2.6" fill="#2DA98C"></circle><circle cx="329.47" cy="180.85" r="2.6" fill="#2DA98C"></circle><circle cx="349" cy="202.09" r="2.6" fill="#2DA98C"></circle><circle cx="368.53" cy="169.08" r="2.6" fill="#2DA98C"></circle><circle cx="388.07" cy="211.29" r="2.6" fill="#2DA98C"></circle><circle cx="407.6" cy="193.77" r="2.6" fill="#2DA98C"></circle><circle cx="427.13" cy="192.04" r="2.6" fill="#2DA98C"></circle><circle cx="446.67" cy="206.61" r="2.6" fill="#2DA98C"></circle><circle cx="642" cy="221.15" r="2.6" fill="#2DA98C"></circle><polyline fill="none" stroke="#A371F7" stroke-width="2.4" stroke-linejoin="round" stroke-linecap="round" points="56,127.86 75.53,149.85 95.07,181.76 114.6,139.24 134.13,107.36 153.67,219.97 173.2,116.3 192.73,182.89 212.27,193.78 231.8,197.11 251.33,105.85 270.87,146.07 290.4,181.42 309.93,202.88 329.47,134.79 349,219.07 368.53,58.83 388.07,197.05 407.6,167.66 427.13,75.26 446.67,128.5 466.2,152.23 485.73,166.9 505.27,183.57 524.8,162.79 544.33,148.18 563.87,52.43 583.4,96.59 602.93,191.76 642,151.86"></polyline><circle cx="56" cy="127.86" r="2.6" fill="#A371F7"></circle><circle cx="75.53" cy="149.85" r="2.6" fill="#A371F7"></circle><circle cx="95.07" cy="181.76" r="2.6" fill="#A371F7"></circle><circle cx="114.6" cy="139.24" r="2.6" fill="#A371F7"></circle><circle cx="134.13" cy="107.36" r="2.6" fill="#A371F7"></circle><circle cx="153.67" cy="219.97" r="2.6" fill="#A371F7"></circle><circle cx="173.2" cy="116.3" r="2.6" fill="#A371F7"></circle><circle cx="192.73" cy="182.89" r="2.6" fill="#A371F7"></circle><circle cx="212.27" cy="193.78" r="2.6" fill="#A371F7"></circle><circle cx="231.8" cy="197.11" r="2.6" fill="#A371F7"></circle><circle cx="251.33" cy="105.85" r="2.6" fill="#A371F7"></circle><circle cx="270.87" cy="146.07" r="2.6" fill="#A371F7"></circle><circle cx="290.4" cy="181.42" r="2.6" fill="#A371F7"></circle><circle cx="309.93" cy="202.88" r="2.6" fill="#A371F7"></circle><circle cx="329.47" cy="134.79" r="2.6" fill="#A371F7"></circle><circle cx="349" cy="219.07" r="2.6" fill="#A371F7"></circle><circle cx="368.53" cy="58.83" r="2.6" fill="#A371F7"></circle><circle cx="388.07" cy="197.05" r="2.6" fill="#A371F7"></circle><circle cx="407.6" cy="167.66" r="2.6" fill="#A371F7"></circle><circle cx="427.13" cy="75.26" r="2.6" fill="#A371F7"></circle><circle cx="446.67" cy="128.5" r="2.6" fill="#A371F7"></circle><circle cx="466.2" cy="152.23" r="2.6" fill="#A371F7"></circle><circle cx="485.73" cy="166.9" r="2.6" fill="#A371F7"></circle><circle cx="505.27" cy="183.57" r="2.6" fill="#A371F7"></circle><circle cx="524.8" cy="162.79" r="2.6" fill="#A371F7"></circle><circle cx="544.33" cy="148.18" r="2.6" fill="#A371F7"></circle><circle cx="563.87" cy="52.43" r="2.6" fill="#A371F7"></circle><circle cx="583.4" cy="96.59" r="2.6" fill="#A371F7"></circle><circle cx="602.93" cy="191.76" r="2.6" fill="#A371F7"></circle><circle cx="642" cy="151.86" r="2.6" fill="#A371F7"></circle><polyline fill="none" stroke="#F0A23B" stroke-width="2.4" stroke-linejoin="round" stroke-linecap="round" points="56,170.6 75.53,150.62 95.07,187.27 114.6,153.33 134.13,137.4 153.67,187.39 173.2,202.98 192.73,219.57 212.27,187.3 231.8,163.64 251.33,218.54 270.87,247.9 290.4,222.75 309.93,249.71 329.47,224.7 349,243.69 368.53,245.81 388.07,211.84 407.6,236.21 427.13,257.78 446.67,248.63 466.2,234.2 485.73,247.57 505.27,243.66 524.8,258.59 544.33,253.94 563.87,235.44 583.4,209.7 602.93,229.87 622.47,229.74 642,242.74"></polyline><circle cx="56" cy="170.6" r="2.6" fill="#F0A23B"></circle><circle cx="75.53" cy="150.62" r="2.6" fill="#F0A23B"></circle><circle cx="95.07" cy="187.27" r="2.6" fill="#F0A23B"></circle><circle cx="114.6" cy="153.33" r="2.6" fill="#F0A23B"></circle><circle cx="134.13" cy="137.4" r="2.6" fill="#F0A23B"></circle><circle cx="153.67" cy="187.39" r="2.6" fill="#F0A23B"></circle><circle cx="173.2" cy="202.98" r="2.6" fill="#F0A23B"></circle><circle cx="192.73" cy="219.57" r="2.6" fill="#F0A23B"></circle><circle cx="212.27" cy="187.3" r="2.6" fill="#F0A23B"></circle><circle cx="231.8" cy="163.64" r="2.6" fill="#F0A23B"></circle><circle cx="251.33" cy="218.54" r="2.6" fill="#F0A23B"></circle><circle cx="270.87" cy="247.9" r="2.6" fill="#F0A23B"></circle><circle cx="290.4" cy="222.75" r="2.6" fill="#F0A23B"></circle><circle cx="309.93" cy="249.71" r="2.6" fill="#F0A23B"></circle><circle cx="329.47" cy="224.7" r="2.6" fill="#F0A23B"></circle><circle cx="349" cy="243.69" r="2.6" fill="#F0A23B"></circle><circle cx="368.53" cy="245.81" r="2.6" fill="#F0A23B"></circle><circle cx="388.07" cy="211.84" r="2.6" fill="#F0A23B"></circle><circle cx="407.6" cy="236.21" r="2.6" fill="#F0A23B"></circle><circle cx="427.13" cy="257.78" r="2.6" fill="#F0A23B"></circle><circle cx="446.67" cy="248.63" r="2.6" fill="#F0A23B"></circle><circle cx="466.2" cy="234.2" r="2.6" fill="#F0A23B"></circle><circle cx="485.73" cy="247.57" r="2.6" fill="#F0A23B"></circle><circle cx="505.27" cy="243.66" r="2.6" fill="#F0A23B"></circle><circle cx="524.8" cy="258.59" r="2.6" fill="#F0A23B"></circle><circle cx="544.33" cy="253.94" r="2.6" fill="#F0A23B"></circle><circle cx="563.87" cy="235.44" r="2.6" fill="#F0A23B"></circle><circle cx="583.4" cy="209.7" r="2.6" fill="#F0A23B"></circle><circle cx="602.93" cy="229.87" r="2.6" fill="#F0A23B"></circle><circle cx="622.47" cy="229.74" r="2.6" fill="#F0A23B"></circle><circle cx="642" cy="242.74" r="2.6" fill="#F0A23B"></circle><polyline fill="none" stroke="#1F9CF0" stroke-width="2.4" stroke-linejoin="round" stroke-linecap="round" points="56,198.31 75.53,224.59 95.07,214.73 114.6,247.97 134.13,236.75 153.67,219.64 173.2,238.79 192.73,207.95 212.27,201.38 231.8,239.3 251.33,242.33 270.87,177.25 290.4,218.95 309.93,232.82 329.47,248.48 349,252.97 368.53,230.93 388.07,242.47 407.6,240.12 427.13,248.48 446.67,256.65 466.2,261.44 485.73,262.41 505.27,264.75 524.8,261.4 544.33,262.76 563.87,244.65 583.4,230.98 602.93,234.56 622.47,260.01 642,254.76"></polyline><circle cx="56" cy="198.31" r="2.6" fill="#1F9CF0"></circle><circle cx="75.53" cy="224.59" r="2.6" fill="#1F9CF0"></circle><circle cx="95.07" cy="214.73" r="2.6" fill="#1F9CF0"></circle><circle cx="114.6" cy="247.97" r="2.6" fill="#1F9CF0"></circle><circle cx="134.13" cy="236.75" r="2.6" fill="#1F9CF0"></circle><circle cx="153.67" cy="219.64" r="2.6" fill="#1F9CF0"></circle><circle cx="173.2" cy="238.79" r="2.6" fill="#1F9CF0"></circle><circle cx="192.73" cy="207.95" r="2.6" fill="#1F9CF0"></circle><circle cx="212.27" cy="201.38" r="2.6" fill="#1F9CF0"></circle><circle cx="231.8" cy="239.3" r="2.6" fill="#1F9CF0"></circle><circle cx="251.33" cy="242.33" r="2.6" fill="#1F9CF0"></circle><circle cx="270.87" cy="177.25" r="2.6" fill="#1F9CF0"></circle><circle cx="290.4" cy="218.95" r="2.6" fill="#1F9CF0"></circle><circle cx="309.93" cy="232.82" r="2.6" fill="#1F9CF0"></circle><circle cx="329.47" cy="248.48" r="2.6" fill="#1F9CF0"></circle><circle cx="349" cy="252.97" r="2.6" fill="#1F9CF0"></circle><circle cx="368.53" cy="230.93" r="2.6" fill="#1F9CF0"></circle><circle cx="388.07" cy="242.47" r="2.6" fill="#1F9CF0"></circle><circle cx="407.6" cy="240.12" r="2.6" fill="#1F9CF0"></circle><circle cx="427.13" cy="248.48" r="2.6" fill="#1F9CF0"></circle><circle cx="446.67" cy="256.65" r="2.6" fill="#1F9CF0"></circle><circle cx="466.2" cy="261.44" r="2.6" fill="#1F9CF0"></circle><circle cx="485.73" cy="262.41" r="2.6" fill="#1F9CF0"></circle><circle cx="505.27" cy="264.75" r="2.6" fill="#1F9CF0"></circle><circle cx="524.8" cy="261.4" r="2.6" fill="#1F9CF0"></circle><circle cx="544.33" cy="262.76" r="2.6" fill="#1F9CF0"></circle><circle cx="563.87" cy="244.65" r="2.6" fill="#1F9CF0"></circle><circle cx="583.4" cy="230.98" r="2.6" fill="#1F9CF0"></circle><circle cx="602.93" cy="234.56" r="2.6" fill="#1F9CF0"></circle><circle cx="622.47" cy="260.01" r="2.6" fill="#1F9CF0"></circle><circle cx="642" cy="254.76" r="2.6" fill="#1F9CF0"></circle><line x1="656" y1="27" x2="672" y2="27" stroke="#E8835A" stroke-width="3" stroke-linecap="round"></line><text x="678" y="30" font-size="11" font-weight="400" text-anchor="start" fill="#1f2328">anthropic</text><line x1="656" y1="47" x2="672" y2="47" stroke="#6366F1" stroke-width="3" stroke-linecap="round"></line><text x="678" y="50" font-size="11" font-weight="400" text-anchor="start" fill="#1f2328">deepseek</text><line x1="656" y1="67" x2="672" y2="67" stroke="#2DA98C" stroke-width="3" stroke-linecap="round"></line><text x="678" y="70" font-size="11" font-weight="400" text-anchor="start" fill="#1f2328">gemini</text><line x1="656" y1="87" x2="672" y2="87" stroke="#A371F7" stroke-width="3" stroke-linecap="round"></line><text x="678" y="90" font-size="11" font-weight="400" text-anchor="start" fill="#1f2328">llama</text><line x1="656" y1="107" x2="672" y2="107" stroke="#F0A23B" stroke-width="3" stroke-linecap="round"></line><text x="678" y="110" font-size="11" font-weight="400" text-anchor="start" fill="#1f2328">mistral</text><line x1="656" y1="127" x2="672" y2="127" stroke="#1F9CF0" stroke-width="3" stroke-linecap="round"></line><text x="678" y="130" font-size="11" font-weight="400" text-anchor="start" fill="#1f2328">openai</text></svg>
