<svg xmlns="http://www.w3.org/2000/svg" viewBox="0 0 600 300" width="600" height="300" role="img" aria-label="Avg LLM latency by provider over runs (s)"><text x="300.0" y="24" text-anchor="middle" font-family="system-ui, -apple-system, sans-serif" font-size="14" font-weight="600" fill="#333">Avg LLM latency by provider over runs (s)</text><line x1="60" y1="240.0" x2="480" y2="240.0" stroke="#eee" stroke-width="1"/><text x="54" y="244.0" text-anchor="end" font-family="system-ui, -apple-system, sans-serif" font-size="9" fill="#999">41.35</text><line x1="60" y1="140.0" x2="480" y2="140.0" stroke="#eee" stroke-width="1"/><text x="54" y="144.0" text-anchor="end" font-family="system-ui, -apple-system, sans-serif" font-size="9" fill="#999">164.3</text><line x1="60" y1="40.0" x2="480" y2="40.0" stroke="#eee" stroke-width="1"/><text x="54" y="44.0" text-anchor="end" font-family="system-ui, -apple-system, sans-serif" font-size="9" fill="#999">287.4</text><polyline fill="none" stroke="#4CAF50" stroke-width="2" points="60.0,171.8 86.2,196.7 112.5,187.4 138.8,218.8 165.0,208.2 191.2,192.0 217.5,210.1 243.8,180.9 270.0,174.7 296.2,210.6 322.5,213.4 348.8,151.9 375.0,191.3 401.2,204.4 427.5,219.2 453.8,223.5 480.0,202.7"/><circle cx="60.0" cy="171.8" r="3" fill="#4CAF50"/><circle cx="86.2" cy="196.7" r="3" fill="#4CAF50"/><circle cx="112.5" cy="187.4" r="3" fill="#4CAF50"/><circle cx="138.8" cy="218.8" r="3" fill="#4CAF50"/><circle cx="165.0" cy="208.2" r="3" fill="#4CAF50"/><circle cx="191.2" cy="192.0" r="3" fill="#4CAF50"/><circle cx="217.5" cy="210.1" r="3" fill="#4CAF50"/><circle cx="243.8" cy="180.9" r="3" fill="#4CAF50"/><circle cx="270.0" cy="174.7" r="3" fill="#4CAF50"/><circle cx="296.2" cy="210.6" r="3" fill="#4CAF50"/><circle cx="322.5" cy="213.4" r="3" fill="#4CAF50"/><circle cx="348.8" cy="151.9" r="3" fill="#4CAF50"/><circle cx="375.0" cy="191.3" r="3" fill="#4CAF50"/><circle cx="401.2" cy="204.4" r="3" fill="#4CAF50"/><circle cx="427.5" cy="219.2" r="3" fill="#4CAF50"/><circle cx="453.8" cy="223.5" r="3" fill="#4CAF50"/><circle cx="480.0" cy="202.7" r="3" fill="#4CAF50"/><rect x="490" y="44" width="10" height="10" fill="#4CAF50"/><text x="504" y="53" font-family="system-ui, -apple-system, sans-serif" font-size="10" fill="#333">openai</text><polyline fill="none" stroke="#2196F3" stroke-width="2" points="60.0,201.0 86.2,204.0 112.5,210.2 138.8,215.0 165.0,207.0 191.2,204.4 217.5,220.9 243.8,214.4 270.0,212.8 296.2,202.9 348.8,205.6 375.0,215.3 401.2,200.6 427.5,217.0 453.8,213.3 480.0,207.1"/><circle cx="60.0" cy="201.0" r="3" fill="#2196F3"/><circle cx="86.2" cy="204.0" r="3" fill="#2196F3"/><circle cx="112.5" cy="210.2" r="3" fill="#2196F3"/><circle cx="138.8" cy="215.0" r="3" fill="#2196F3"/><circle cx="165.0" cy="207.0" r="3" fill="#2196F3"/><circle cx="191.2" cy="204.4" r="3" fill="#2196F3"/><circle cx="217.5" cy="220.9" r="3" fill="#2196F3"/><circle cx="243.8" cy="214.4" r="3" fill="#2196F3"/><circle cx="270.0" cy="212.8" r="3" fill="#2196F3"/><circle cx="296.2" cy="202.9" r="3" fill="#2196F3"/><circle cx="348.8" cy="205.6" r="3" fill="#2196F3"/><circle cx="375.0" cy="215.3" r="3" fill="#2196F3"/><circle cx="401.2" cy="200.6" r="3" fill="#2196F3"/><circle cx="427.5" cy="217.0" r="3" fill="#2196F3"/><circle cx="453.8" cy="213.3" r="3" fill="#2196F3"/><circle cx="480.0" cy="207.1" r="3" fill="#2196F3"/><rect x="490" y="62" width="10" height="10" fill="#2196F3"/><text x="504" y="71" font-family="system-ui, -apple-system, sans-serif" font-size="10" fill="#333">anthropic</text><polyline fill="none" stroke="#FF9800" stroke-width="2" points="60.0,178.4 86.2,188.0 112.5,149.0 138.8,190.0 165.0,191.1 191.2,199.5 217.5,177.0 243.8,166.0 270.0,187.9 296.2,168.5 322.5,168.6 348.8,118.1 375.0,125.1 401.2,168.6 427.5,155.3 453.8,175.4 480.0,144.2"/><circle cx="60.0" cy="178.4" r="3" fill="#FF9800"/><circle cx="86.2" cy="188.0" r="3" fill="#FF9800"/><circle cx="112.5" cy="149.0" r="3" fill="#FF9800"/><circle cx="138.8" cy="190.0" r="3" fill="#FF9800"/><circle cx="165.0" cy="191.1" r="3" fill="#FF9800"/><circle cx="191.2" cy="199.5" r="3" fill="#FF9800"/><circle cx="217.5" cy="177.0" r="3" fill="#FF9800"/><circle cx="243.8" cy="166.0" r="3" fill="#FF9800"/><circle cx="270.0" cy="187.9" r="3" fill="#FF9800"/><circle cx="296.2" cy="168.5" r="3" fill="#FF9800"/><circle cx="322.5" cy="168.6" r="3" fill="#FF9800"/><circle cx="348.8" cy="118.1" r="3" fill="#FF9800"/><circle cx="375.0" cy="125.1" r="3" fill="#FF9800"/><circle cx="401.2" cy="168.6" r="3" fill="#FF9800"/><circle cx="427.5" cy="155.3" r="3" fill="#FF9800"/><circle cx="453.8" cy="175.4" r="3" fill="#FF9800"/><circle cx="480.0" cy="144.2" r="3" fill="#FF9800"/><rect x="490" y="80" width="10" height="10" fill="#FF9800"/><text x="504" y="89" font-family="system-ui, -apple-system, sans-serif" font-size="10" fill="#333">gemini</text><polyline fill="none" stroke="#E91E63" stroke-width="2" points="60.0,105.2 86.2,126.0 112.5,156.2 138.8,116.0 165.0,85.9 191.2,192.3 217.5,94.3 243.8,157.3 270.0,167.5 296.2,170.7 322.5,84.4 348.8,122.5 375.0,155.9 401.2,176.1 427.5,111.8 453.8,191.5 480.0,40.0"/><circle cx="60.0" cy="105.2" r="3" fill="#E91E63"/><circle cx="86.2" cy="126.0" r="3" fill="#E91E63"/><circle cx="112.5" cy="156.2" r="3" fill="#E91E63"/><circle cx="138.8" cy="116.0" r="3" fill="#E91E63"/><circle cx="165.0" cy="85.9" r="3" fill="#E91E63"/><circle cx="191.2" cy="192.3" r="3" fill="#E91E63"/><circle cx="217.5" cy="94.3" r="3" fill="#E91E63"/><circle cx="243.8" cy="157.3" r="3" fill="#E91E63"/><circle cx="270.0" cy="167.5" r="3" fill="#E91E63"/><circle cx="296.2" cy="170.7" r="3" fill="#E91E63"/><circle cx="322.5" cy="84.4" r="3" fill="#E91E63"/><circle cx="348.8" cy="122.5" r="3" fill="#E91E63"/><circle cx="375.0" cy="155.9" r="3" fill="#E91E63"/><circle cx="401.2" cy="176.1" r="3" fill="#E91E63"/><circle cx="427.5" cy="111.8" r="3" fill="#E91E63"/><circle cx="453.8" cy="191.5" r="3" fill="#E91E63"/><circle cx="480.0" cy="40.0" r="3" fill="#E91E63"/><rect x="490" y="98" width="10" height="10" fill="#E91E63"/><text x="504" y="107" font-family="system-ui, -apple-system, sans-serif" font-size="10" fill="#333">llama</text><polyline fill="none" stroke="#9C27B0" stroke-width="2" points="60.0,145.6 86.2,126.8 112.5,161.4 138.8,129.3 165.0,114.3 191.2,161.5 217.5,176.2 243.8,191.9 270.0,161.4 296.2,139.1 322.5,191.0 348.8,218.7 375.0,194.9 401.2,220.4 427.5,196.8 453.8,214.7 480.0,216.7"/><circle cx="60.0" cy="145.6" r="3" fill="#9C27B0"/><circle cx="86.2" cy="126.8" r="3" fill="#9C27B0"/><circle cx="112.5" cy="161.4" r="3" fill="#9C27B0"/><circle cx="138.8" cy="129.3" r="3" fill="#9C27B0"/><circle cx="165.0" cy="114.3" r="3" fill="#9C27B0"/><circle cx="191.2" cy="161.5" r="3" fill="#9C27B0"/><circle cx="217.5" cy="176.2" r="3" fill="#9C27B0"/><circle cx="243.8" cy="191.9" r="3" fill="#9C27B0"/><circle cx="270.0" cy="161.4" r="3" fill="#9C27B0"/><circle cx="296.2" cy="139.1" r="3" fill="#9C27B0"/><circle cx="322.5" cy="191.0" r="3" fill="#9C27B0"/><circle cx="348.8" cy="218.7" r="3" fill="#9C27B0"/><circle cx="375.0" cy="194.9" r="3" fill="#9C27B0"/><circle cx="401.2" cy="220.4" r="3" fill="#9C27B0"/><circle cx="427.5" cy="196.8" r="3" fill="#9C27B0"/><circle cx="453.8" cy="214.7" r="3" fill="#9C27B0"/><circle cx="480.0" cy="216.7" r="3" fill="#9C27B0"/><rect x="490" y="116" width="10" height="10" fill="#9C27B0"/><text x="504" y="125" font-family="system-ui, -apple-system, sans-serif" font-size="10" fill="#333">mistral</text><polyline fill="none" stroke="#00BCD4" stroke-width="2" points="86.2,218.1 112.5,213.5 138.8,220.7 165.0,202.2 191.2,230.3 217.5,230.5 243.8,240.0 270.0,219.7 296.2,216.1 322.5,218.6 348.8,226.6 375.0,219.5 401.2,231.5 427.5,214.6 453.8,183.3 480.0,236.1"/><circle cx="86.2" cy="218.1" r="3" fill="#00BCD4"/><circle cx="112.5" cy="213.5" r="3" fill="#00BCD4"/><circle cx="138.8" cy="220.7" r="3" fill="#00BCD4"/><circle cx="165.0" cy="202.2" r="3" fill="#00BCD4"/><circle cx="191.2" cy="230.3" r="3" fill="#00BCD4"/><circle cx="217.5" cy="230.5" r="3" fill="#00BCD4"/><circle cx="243.8" cy="240.0" r="3" fill="#00BCD4"/><circle cx="270.0" cy="219.7" r="3" fill="#00BCD4"/><circle cx="296.2" cy="216.1" r="3" fill="#00BCD4"/><circle cx="322.5" cy="218.6" r="3" fill="#00BCD4"/><circle cx="348.8" cy="226.6" r="3" fill="#00BCD4"/><circle cx="375.0" cy="219.5" r="3" fill="#00BCD4"/><circle cx="401.2" cy="231.5" r="3" fill="#00BCD4"/><circle cx="427.5" cy="214.6" r="3" fill="#00BCD4"/><circle cx="453.8" cy="183.3" r="3" fill="#00BCD4"/><circle cx="480.0" cy="236.1" r="3" fill="#00BCD4"/><rect x="490" y="134" width="10" height="10" fill="#00BCD4"/><text x="504" y="143" font-family="system-ui, -apple-system, sans-serif" font-size="10" fill="#333">deepseek</text><text x="60.0" y="256.0" text-anchor="middle" font-family="system-ui, -apple-system, sans-serif" font-size="9" fill="#666">33376499</text><text x="86.2" y="256.0" text-anchor="middle" font-family="system-ui, -apple-system, sans-serif" font-size="9" fill="#666">49559976</text><text x="112.5" y="256.0" text-anchor="middle" font-family="system-ui, -apple-system, sans-serif" font-size="9" fill="#666">51938981</text><text x="138.8" y="256.0" text-anchor="middle" font-family="system-ui, -apple-system, sans-serif" font-size="9" fill="#666">53749546</text><text x="165.0" y="256.0" text-anchor="middle" font-family="system-ui, -apple-system, sans-serif" font-size="9" fill="#666">54994841</text><text x="191.2" y="256.0" text-anchor="middle" font-family="system-ui, -apple-system, sans-serif" font-size="9" fill="#666">73723278</text><text x="217.5" y="256.0" text-anchor="middle" font-family="system-ui, -apple-system, sans-serif" font-size="9" fill="#666">74446787</text><text x="243.8" y="256.0" text-anchor="middle" font-family="system-ui, -apple-system, sans-serif" font-size="9" fill="#666">75063969</text><text x="270.0" y="256.0" text-anchor="middle" font-family="system-ui, -apple-system, sans-serif" font-size="9" fill="#666">75757458</text><text x="296.2" y="256.0" text-anchor="middle" font-family="system-ui, -apple-system, sans-serif" font-size="9" fill="#666">76005435</text><text x="322.5" y="256.0" text-anchor="middle" font-family="system-ui, -apple-system, sans-serif" font-size="9" fill="#666">37885074</text><text x="348.8" y="256.0" text-anchor="middle" font-family="system-ui, -apple-system, sans-serif" font-size="9" fill="#666">39719442</text><text x="375.0" y="256.0" text-anchor="middle" font-family="system-ui, -apple-system, sans-serif" font-size="9" fill="#666">41073326</text><text x="401.2" y="256.0" text-anchor="middle" font-family="system-ui, -apple-system, sans-serif" font-size="9" fill="#666">41747041</text><text x="427.5" y="256.0" text-anchor="middle" font-family="system-ui, -apple-system, sans-serif" font-size="9" fill="#666">04094958</text><text x="453.8" y="256.0" text-anchor="middle" font-family="system-ui, -apple-system, sans-serif" font-size="9" fill="#666">11556178</text><text x="480.0" y="256.0" text-anchor="middle" font-family="system-ui, -apple-system, sans-serif" font-size="9" fill="#666">12682497</text></svg>
