<svg xmlns="http://www.w3.org/2000/svg" viewBox="0 0 760 348" width="760" height="348" role="img" aria-label="Average LLM latency by provider over runs — llama highest, deepseek lowest" font-family="-apple-system,BlinkMacSystemFont,'Segoe UI',system-ui,sans-serif"><line x1="56" y1="306" x2="642" y2="306" stroke="#30363d" stroke-width="1"></line><text x="46" y="310" font-size="9.5" font-weight="400" text-anchor="end" fill="#8b949e" font-family="ui-monospace,SFMono-Regular,Menlo,monospace">0.0s</text><line x1="56" y1="235" x2="642" y2="235" stroke="#30363d" stroke-width="1"></line><text x="46" y="239" font-size="9.5" font-weight="400" text-anchor="end" fill="#8b949e" font-family="ui-monospace,SFMono-Regular,Menlo,monospace">82.5s</text><line x1="56" y1="164" x2="642" y2="164" stroke="#30363d" stroke-width="1"></line><text x="46" y="168" font-size="9.5" font-weight="400" text-anchor="end" fill="#8b949e" font-family="ui-monospace,SFMono-Regular,Menlo,monospace">165.1s</text><line x1="56" y1="93" x2="642" y2="93" stroke="#30363d" stroke-width="1"></line><text x="46" y="97" font-size="9.5" font-weight="400" text-anchor="end" fill="#8b949e" font-family="ui-monospace,SFMono-Regular,Menlo,monospace">247.6s</text><line x1="56" y1="22" x2="642" y2="22" stroke="#30363d" stroke-width="1"></line><text x="46" y="26" font-size="9.5" font-weight="400" text-anchor="end" fill="#8b949e" font-family="ui-monospace,SFMono-Regular,Menlo,monospace">330.2s</text><text x="56" y="324" font-size="9.5" font-weight="400" text-anchor="middle" fill="#8b949e" font-family="ui-monospace,SFMono-Regular,Menlo,monospace">06/08</text><text x="109.27" y="324" font-size="9.5" font-weight="400" text-anchor="middle" fill="#8b949e" font-family="ui-monospace,SFMono-Regular,Menlo,monospace">06/08</text><text x="162.55" y="324" font-size="9.5" font-weight="400" text-anchor="middle" fill="#8b949e" font-family="ui-monospace,SFMono-Regular,Menlo,monospace">06/09</text><text x="215.82" y="324" font-size="9.5" font-weight="400" text-anchor="middle" fill="#8b949e" font-family="ui-monospace,SFMono-Regular,Menlo,monospace">06/09</text><text x="269.09" y="324" font-size="9.5" font-weight="400" text-anchor="middle" fill="#8b949e" font-family="ui-monospace,SFMono-Regular,Menlo,monospace">06/12</text><text x="322.36" y="324" font-size="9.5" font-weight="400" text-anchor="middle" fill="#8b949e" font-family="ui-monospace,SFMono-Regular,Menlo,monospace">06/13</text><text x="375.64" y="324" font-size="9.5" font-weight="400" text-anchor="middle" fill="#8b949e" font-family="ui-monospace,SFMono-Regular,Menlo,monospace">06/14</text><text x="428.91" y="324" font-size="9.5" font-weight="400" text-anchor="middle" fill="#8b949e" font-family="ui-monospace,SFMono-Regular,Menlo,monospace">06/15</text><text x="482.18" y="324" font-size="9.5" font-weight="400" text-anchor="middle" fill="#8b949e" font-family="ui-monospace,SFMono-Regular,Menlo,monospace">06/16</text><text x="535.45" y="324" font-size="9.5" font-weight="400" text-anchor="middle" fill="#8b949e" font-family="ui-monospace,SFMono-Regular,Menlo,monospace">06/16</text><text x="588.73" y="324" font-size="9.5" font-weight="400" text-anchor="middle" fill="#8b949e" font-family="ui-monospace,SFMono-Regular,Menlo,monospace">06/17</text><text x="642" y="324" font-size="9.5" font-weight="400" text-anchor="middle" fill="#8b949e" font-family="ui-monospace,SFMono-Regular,Menlo,monospace">06/19</text><polyline fill="none" stroke="#E8835A" stroke-width="2.4" stroke-linejoin="round" stroke-linecap="round" points="56,229.15 69.32,232.31 82.64,238.94 95.95,244 109.27,235.49 122.59,232.81 135.91,250.28 149.23,243.38 162.55,241.66 175.86,231.14 202.5,234.04 215.82,244.32 229.14,228.71 242.45,246.08 255.77,242.18 269.09,235.58 282.41,242.32 295.73,244.55 309.05,246.98 322.36,240.71 335.68,250.83 349,244.26 362.32,241.33 375.64,245.63 388.95,245.02 402.27,240.82 415.59,243.78 428.91,243.28 442.23,240.2 455.55,242.69 468.86,215.59 482.18,241.79 495.5,238.64 508.82,243.45 522.14,243.86 535.45,234.8 548.77,244.51 562.09,244.64"></polyline><circle cx="56" cy="229.15" r="2.6" fill="#E8835A"></circle><circle cx="69.32" cy="232.31" r="2.6" fill="#E8835A"></circle><circle cx="82.64" cy="238.94" r="2.6" fill="#E8835A"></circle><circle cx="95.95" cy="244" r="2.6" fill="#E8835A"></circle><circle cx="109.27" cy="235.49" r="2.6" fill="#E8835A"></circle><circle cx="122.59" cy="232.81" r="2.6" fill="#E8835A"></circle><circle cx="135.91" cy="250.28" r="2.6" fill="#E8835A"></circle><circle cx="149.23" cy="243.38" r="2.6" fill="#E8835A"></circle><circle cx="162.55" cy="241.66" r="2.6" fill="#E8835A"></circle><circle cx="175.86" cy="231.14" r="2.6" fill="#E8835A"></circle><circle cx="202.5" cy="234.04" r="2.6" fill="#E8835A"></circle><circle cx="215.82" cy="244.32" r="2.6" fill="#E8835A"></circle><circle cx="229.14" cy="228.71" r="2.6" fill="#E8835A"></circle><circle cx="242.45" cy="246.08" r="2.6" fill="#E8835A"></circle><circle cx="255.77" cy="242.18" r="2.6" fill="#E8835A"></circle><circle cx="269.09" cy="235.58" r="2.6" fill="#E8835A"></circle><circle cx="282.41" cy="242.32" r="2.6" fill="#E8835A"></circle><circle cx="295.73" cy="244.55" r="2.6" fill="#E8835A"></circle><circle cx="309.05" cy="246.98" r="2.6" fill="#E8835A"></circle><circle cx="322.36" cy="240.71" r="2.6" fill="#E8835A"></circle><circle cx="335.68" cy="250.83" r="2.6" fill="#E8835A"></circle><circle cx="349" cy="244.26" r="2.6" fill="#E8835A"></circle><circle cx="362.32" cy="241.33" r="2.6" fill="#E8835A"></circle><circle cx="375.64" cy="245.63" r="2.6" fill="#E8835A"></circle><circle cx="388.95" cy="245.02" r="2.6" fill="#E8835A"></circle><circle cx="402.27" cy="240.82" r="2.6" fill="#E8835A"></circle><circle cx="415.59" cy="243.78" r="2.6" fill="#E8835A"></circle><circle cx="428.91" cy="243.28" r="2.6" fill="#E8835A"></circle><circle cx="442.23" cy="240.2" r="2.6" fill="#E8835A"></circle><circle cx="455.55" cy="242.69" r="2.6" fill="#E8835A"></circle><circle cx="468.86" cy="215.59" r="2.6" fill="#E8835A"></circle><circle cx="482.18" cy="241.79" r="2.6" fill="#E8835A"></circle><circle cx="495.5" cy="238.64" r="2.6" fill="#E8835A"></circle><circle cx="508.82" cy="243.45" r="2.6" fill="#E8835A"></circle><circle cx="522.14" cy="243.86" r="2.6" fill="#E8835A"></circle><circle cx="535.45" cy="234.8" r="2.6" fill="#E8835A"></circle><circle cx="548.77" cy="244.51" r="2.6" fill="#E8835A"></circle><circle cx="562.09" cy="244.64" r="2.6" fill="#E8835A"></circle><polyline fill="none" stroke="#6366F1" stroke-width="2.4" stroke-linejoin="round" stroke-linecap="round" points="69.32,247.24 82.64,242.4 95.95,249.98 109.27,230.48 122.59,260.21 135.91,260.34 149.23,270.44 162.55,248.92 175.86,245.19 189.18,247.83 202.5,256.22 215.82,248.72 229.14,261.47 242.45,243.58 255.77,210.49 269.09,266.33 282.41,232.33 295.73,232.27 309.05,199.16 322.36,237.91 335.68,252.97 349,266.11 362.32,215.25 375.64,265.97 388.95,258.25 402.27,265.82 415.59,246.69 428.91,244.53 455.55,240.91 468.86,255.51 482.18,252.51 495.5,237.2 508.82,258.24 522.14,235.84 535.45,252.87 548.77,243.73 562.09,249.01 588.73,263.05 602.05,262.95 615.36,250.85 628.68,238.76 642,245.84"></polyline><circle cx="69.32" cy="247.24" r="2.6" fill="#6366F1"></circle><circle cx="82.64" cy="242.4" r="2.6" fill="#6366F1"></circle><circle cx="95.95" cy="249.98" r="2.6" fill="#6366F1"></circle><circle cx="109.27" cy="230.48" r="2.6" fill="#6366F1"></circle><circle cx="122.59" cy="260.21" r="2.6" fill="#6366F1"></circle><circle cx="135.91" cy="260.34" r="2.6" fill="#6366F1"></circle><circle cx="149.23" cy="270.44" r="2.6" fill="#6366F1"></circle><circle cx="162.55" cy="248.92" r="2.6" fill="#6366F1"></circle><circle cx="175.86" cy="245.19" r="2.6" fill="#6366F1"></circle><circle cx="189.18" cy="247.83" r="2.6" fill="#6366F1"></circle><circle cx="202.5" cy="256.22" r="2.6" fill="#6366F1"></circle><circle cx="215.82" cy="248.72" r="2.6" fill="#6366F1"></circle><circle cx="229.14" cy="261.47" r="2.6" fill="#6366F1"></circle><circle cx="242.45" cy="243.58" r="2.6" fill="#6366F1"></circle><circle cx="255.77" cy="210.49" r="2.6" fill="#6366F1"></circle><circle cx="269.09" cy="266.33" r="2.6" fill="#6366F1"></circle><circle cx="282.41" cy="232.33" r="2.6" fill="#6366F1"></circle><circle cx="295.73" cy="232.27" r="2.6" fill="#6366F1"></circle><circle cx="309.05" cy="199.16" r="2.6" fill="#6366F1"></circle><circle cx="322.36" cy="237.91" r="2.6" fill="#6366F1"></circle><circle cx="335.68" cy="252.97" r="2.6" fill="#6366F1"></circle><circle cx="349" cy="266.11" r="2.6" fill="#6366F1"></circle><circle cx="362.32" cy="215.25" r="2.6" fill="#6366F1"></circle><circle cx="375.64" cy="265.97" r="2.6" fill="#6366F1"></circle><circle cx="388.95" cy="258.25" r="2.6" fill="#6366F1"></circle><circle cx="402.27" cy="265.82" r="2.6" fill="#6366F1"></circle><circle cx="415.59" cy="246.69" r="2.6" fill="#6366F1"></circle><circle cx="428.91" cy="244.53" r="2.6" fill="#6366F1"></circle><circle cx="455.55" cy="240.91" r="2.6" fill="#6366F1"></circle><circle cx="468.86" cy="255.51" r="2.6" fill="#6366F1"></circle><circle cx="482.18" cy="252.51" r="2.6" fill="#6366F1"></circle><circle cx="495.5" cy="237.2" r="2.6" fill="#6366F1"></circle><circle cx="508.82" cy="258.24" r="2.6" fill="#6366F1"></circle><circle cx="522.14" cy="235.84" r="2.6" fill="#6366F1"></circle><circle cx="535.45" cy="252.87" r="2.6" fill="#6366F1"></circle><circle cx="548.77" cy="243.73" r="2.6" fill="#6366F1"></circle><circle cx="562.09" cy="249.01" r="2.6" fill="#6366F1"></circle><circle cx="588.73" cy="263.05" r="2.6" fill="#6366F1"></circle><circle cx="602.05" cy="262.95" r="2.6" fill="#6366F1"></circle><circle cx="615.36" cy="250.85" r="2.6" fill="#6366F1"></circle><circle cx="628.68" cy="238.76" r="2.6" fill="#6366F1"></circle><circle cx="642" cy="245.84" r="2.6" fill="#6366F1"></circle><polyline fill="none" stroke="#2DA98C" stroke-width="2.4" stroke-linejoin="round" stroke-linecap="round" points="56,205.26 69.32,215.39 82.64,174.15 95.95,217.56 109.27,218.68 122.59,227.57 135.91,203.76 149.23,192.14 162.55,215.35 175.86,194.78 189.18,194.92 202.5,141.5 215.82,148.87 229.14,194.84 242.45,180.85 255.77,202.09 269.09,169.08 282.41,211.29 295.73,193.77 309.05,192.04 322.36,206.61 455.55,221.15 468.86,190.23 482.18,183.33 495.5,225.15 508.82,184.37 522.14,182.1 535.45,210.86 548.77,161.53 562.09,210.56 588.73,182.01 602.05,172.32 615.36,181.93 628.68,186.76 642,217.59"></polyline><circle cx="56" cy="205.26" r="2.6" fill="#2DA98C"></circle><circle cx="69.32" cy="215.39" r="2.6" fill="#2DA98C"></circle><circle cx="82.64" cy="174.15" r="2.6" fill="#2DA98C"></circle><circle cx="95.95" cy="217.56" r="2.6" fill="#2DA98C"></circle><circle cx="109.27" cy="218.68" r="2.6" fill="#2DA98C"></circle><circle cx="122.59" cy="227.57" r="2.6" fill="#2DA98C"></circle><circle cx="135.91" cy="203.76" r="2.6" fill="#2DA98C"></circle><circle cx="149.23" cy="192.14" r="2.6" fill="#2DA98C"></circle><circle cx="162.55" cy="215.35" r="2.6" fill="#2DA98C"></circle><circle cx="175.86" cy="194.78" r="2.6" fill="#2DA98C"></circle><circle cx="189.18" cy="194.92" r="2.6" fill="#2DA98C"></circle><circle cx="202.5" cy="141.5" r="2.6" fill="#2DA98C"></circle><circle cx="215.82" cy="148.87" r="2.6" fill="#2DA98C"></circle><circle cx="229.14" cy="194.84" r="2.6" fill="#2DA98C"></circle><circle cx="242.45" cy="180.85" r="2.6" fill="#2DA98C"></circle><circle cx="255.77" cy="202.09" r="2.6" fill="#2DA98C"></circle><circle cx="269.09" cy="169.08" r="2.6" fill="#2DA98C"></circle><circle cx="282.41" cy="211.29" r="2.6" fill="#2DA98C"></circle><circle cx="295.73" cy="193.77" r="2.6" fill="#2DA98C"></circle><circle cx="309.05" cy="192.04" r="2.6" fill="#2DA98C"></circle><circle cx="322.36" cy="206.61" r="2.6" fill="#2DA98C"></circle><circle cx="455.55" cy="221.15" r="2.6" fill="#2DA98C"></circle><circle cx="468.86" cy="190.23" r="2.6" fill="#2DA98C"></circle><circle cx="482.18" cy="183.33" r="2.6" fill="#2DA98C"></circle><circle cx="495.5" cy="225.15" r="2.6" fill="#2DA98C"></circle><circle cx="508.82" cy="184.37" r="2.6" fill="#2DA98C"></circle><circle cx="522.14" cy="182.1" r="2.6" fill="#2DA98C"></circle><circle cx="535.45" cy="210.86" r="2.6" fill="#2DA98C"></circle><circle cx="548.77" cy="161.53" r="2.6" fill="#2DA98C"></circle><circle cx="562.09" cy="210.56" r="2.6" fill="#2DA98C"></circle><circle cx="588.73" cy="182.01" r="2.6" fill="#2DA98C"></circle><circle cx="602.05" cy="172.32" r="2.6" fill="#2DA98C"></circle><circle cx="615.36" cy="181.93" r="2.6" fill="#2DA98C"></circle><circle cx="628.68" cy="186.76" r="2.6" fill="#2DA98C"></circle><circle cx="642" cy="217.59" r="2.6" fill="#2DA98C"></circle><polyline fill="none" stroke="#A371F7" stroke-width="2.4" stroke-linejoin="round" stroke-linecap="round" points="56,127.86 69.32,149.85 82.64,181.76 95.95,139.24 109.27,107.36 122.59,219.97 135.91,116.3 149.23,182.89 162.55,193.78 175.86,197.11 189.18,105.85 202.5,146.07 215.82,181.42 229.14,202.88 242.45,134.79 255.77,219.07 269.09,58.83 282.41,197.05 295.73,167.66 309.05,75.26 322.36,128.5 335.68,152.23 349,166.9 362.32,183.57 375.64,162.79 388.95,148.18 402.27,52.43 415.59,96.59 428.91,191.76 455.55,151.86 468.86,169.19 482.18,135.22 508.82,206.77 522.14,167.88 535.45,189.32 548.77,143.76 562.09,142.49 575.41,163.7 588.73,128.52 602.05,144.9 615.36,92.3 628.68,157.36 642,160.21"></polyline><circle cx="56" cy="127.86" r="2.6" fill="#A371F7"></circle><circle cx="69.32" cy="149.85" r="2.6" fill="#A371F7"></circle><circle cx="82.64" cy="181.76" r="2.6" fill="#A371F7"></circle><circle cx="95.95" cy="139.24" r="2.6" fill="#A371F7"></circle><circle cx="109.27" cy="107.36" r="2.6" fill="#A371F7"></circle><circle cx="122.59" cy="219.97" r="2.6" fill="#A371F7"></circle><circle cx="135.91" cy="116.3" r="2.6" fill="#A371F7"></circle><circle cx="149.23" cy="182.89" r="2.6" fill="#A371F7"></circle><circle cx="162.55" cy="193.78" r="2.6" fill="#A371F7"></circle><circle cx="175.86" cy="197.11" r="2.6" fill="#A371F7"></circle><circle cx="189.18" cy="105.85" r="2.6" fill="#A371F7"></circle><circle cx="202.5" cy="146.07" r="2.6" fill="#A371F7"></circle><circle cx="215.82" cy="181.42" r="2.6" fill="#A371F7"></circle><circle cx="229.14" cy="202.88" r="2.6" fill="#A371F7"></circle><circle cx="242.45" cy="134.79" r="2.6" fill="#A371F7"></circle><circle cx="255.77" cy="219.07" r="2.6" fill="#A371F7"></circle><circle cx="269.09" cy="58.83" r="2.6" fill="#A371F7"></circle><circle cx="282.41" cy="197.05" r="2.6" fill="#A371F7"></circle><circle cx="295.73" cy="167.66" r="2.6" fill="#A371F7"></circle><circle cx="309.05" cy="75.26" r="2.6" fill="#A371F7"></circle><circle cx="322.36" cy="128.5" r="2.6" fill="#A371F7"></circle><circle cx="335.68" cy="152.23" r="2.6" fill="#A371F7"></circle><circle cx="349" cy="166.9" r="2.6" fill="#A371F7"></circle><circle cx="362.32" cy="183.57" r="2.6" fill="#A371F7"></circle><circle cx="375.64" cy="162.79" r="2.6" fill="#A371F7"></circle><circle cx="388.95" cy="148.18" r="2.6" fill="#A371F7"></circle><circle cx="402.27" cy="52.43" r="2.6" fill="#A371F7"></circle><circle cx="415.59" cy="96.59" r="2.6" fill="#A371F7"></circle><circle cx="428.91" cy="191.76" r="2.6" fill="#A371F7"></circle><circle cx="455.55" cy="151.86" r="2.6" fill="#A371F7"></circle><circle cx="468.86" cy="169.19" r="2.6" fill="#A371F7"></circle><circle cx="482.18" cy="135.22" r="2.6" fill="#A371F7"></circle><circle cx="508.82" cy="206.77" r="2.6" fill="#A371F7"></circle><circle cx="522.14" cy="167.88" r="2.6" fill="#A371F7"></circle><circle cx="535.45" cy="189.32" r="2.6" fill="#A371F7"></circle><circle cx="548.77" cy="143.76" r="2.6" fill="#A371F7"></circle><circle cx="562.09" cy="142.49" r="2.6" fill="#A371F7"></circle><circle cx="575.41" cy="163.7" r="2.6" fill="#A371F7"></circle><circle cx="588.73" cy="128.52" r="2.6" fill="#A371F7"></circle><circle cx="602.05" cy="144.9" r="2.6" fill="#A371F7"></circle><circle cx="615.36" cy="92.3" r="2.6" fill="#A371F7"></circle><circle cx="628.68" cy="157.36" r="2.6" fill="#A371F7"></circle><circle cx="642" cy="160.21" r="2.6" fill="#A371F7"></circle><polyline fill="none" stroke="#F0A23B" stroke-width="2.4" stroke-linejoin="round" stroke-linecap="round" points="56,170.6 69.32,150.62 82.64,187.27 95.95,153.33 109.27,137.4 122.59,187.39 135.91,202.98 149.23,219.57 162.55,187.3 175.86,163.64 189.18,218.54 202.5,247.9 215.82,222.75 229.14,249.71 242.45,224.7 255.77,243.69 269.09,245.81 282.41,211.84 295.73,236.21 309.05,257.78 322.36,248.63 335.68,234.2 349,247.57 362.32,243.66 375.64,258.59 388.95,253.94 402.27,235.44 415.59,209.7 428.91,229.87 442.23,229.74 455.55,242.74 468.86,219.28 482.18,218.69 495.5,248.17 508.82,252.02 522.14,241.64 535.45,202.83 548.77,191.16 562.09,236.21 575.41,247.47 588.73,237.91 602.05,227.46 615.36,241.35 628.68,249.73 642,234.66"></polyline><circle cx="56" cy="170.6" r="2.6" fill="#F0A23B"></circle><circle cx="69.32" cy="150.62" r="2.6" fill="#F0A23B"></circle><circle cx="82.64" cy="187.27" r="2.6" fill="#F0A23B"></circle><circle cx="95.95" cy="153.33" r="2.6" fill="#F0A23B"></circle><circle cx="109.27" cy="137.4" r="2.6" fill="#F0A23B"></circle><circle cx="122.59" cy="187.39" r="2.6" fill="#F0A23B"></circle><circle cx="135.91" cy="202.98" r="2.6" fill="#F0A23B"></circle><circle cx="149.23" cy="219.57" r="2.6" fill="#F0A23B"></circle><circle cx="162.55" cy="187.3" r="2.6" fill="#F0A23B"></circle><circle cx="175.86" cy="163.64" r="2.6" fill="#F0A23B"></circle><circle cx="189.18" cy="218.54" r="2.6" fill="#F0A23B"></circle><circle cx="202.5" cy="247.9" r="2.6" fill="#F0A23B"></circle><circle cx="215.82" cy="222.75" r="2.6" fill="#F0A23B"></circle><circle cx="229.14" cy="249.71" r="2.6" fill="#F0A23B"></circle><circle cx="242.45" cy="224.7" r="2.6" fill="#F0A23B"></circle><circle cx="255.77" cy="243.69" r="2.6" fill="#F0A23B"></circle><circle cx="269.09" cy="245.81" r="2.6" fill="#F0A23B"></circle><circle cx="282.41" cy="211.84" r="2.6" fill="#F0A23B"></circle><circle cx="295.73" cy="236.21" r="2.6" fill="#F0A23B"></circle><circle cx="309.05" cy="257.78" r="2.6" fill="#F0A23B"></circle><circle cx="322.36" cy="248.63" r="2.6" fill="#F0A23B"></circle><circle cx="335.68" cy="234.2" r="2.6" fill="#F0A23B"></circle><circle cx="349" cy="247.57" r="2.6" fill="#F0A23B"></circle><circle cx="362.32" cy="243.66" r="2.6" fill="#F0A23B"></circle><circle cx="375.64" cy="258.59" r="2.6" fill="#F0A23B"></circle><circle cx="388.95" cy="253.94" r="2.6" fill="#F0A23B"></circle><circle cx="402.27" cy="235.44" r="2.6" fill="#F0A23B"></circle><circle cx="415.59" cy="209.7" r="2.6" fill="#F0A23B"></circle><circle cx="428.91" cy="229.87" r="2.6" fill="#F0A23B"></circle><circle cx="442.23" cy="229.74" r="2.6" fill="#F0A23B"></circle><circle cx="455.55" cy="242.74" r="2.6" fill="#F0A23B"></circle><circle cx="468.86" cy="219.28" r="2.6" fill="#F0A23B"></circle><circle cx="482.18" cy="218.69" r="2.6" fill="#F0A23B"></circle><circle cx="495.5" cy="248.17" r="2.6" fill="#F0A23B"></circle><circle cx="508.82" cy="252.02" r="2.6" fill="#F0A23B"></circle><circle cx="522.14" cy="241.64" r="2.6" fill="#F0A23B"></circle><circle cx="535.45" cy="202.83" r="2.6" fill="#F0A23B"></circle><circle cx="548.77" cy="191.16" r="2.6" fill="#F0A23B"></circle><circle cx="562.09" cy="236.21" r="2.6" fill="#F0A23B"></circle><circle cx="575.41" cy="247.47" r="2.6" fill="#F0A23B"></circle><circle cx="588.73" cy="237.91" r="2.6" fill="#F0A23B"></circle><circle cx="602.05" cy="227.46" r="2.6" fill="#F0A23B"></circle><circle cx="615.36" cy="241.35" r="2.6" fill="#F0A23B"></circle><circle cx="628.68" cy="249.73" r="2.6" fill="#F0A23B"></circle><circle cx="642" cy="234.66" r="2.6" fill="#F0A23B"></circle><polyline fill="none" stroke="#1F9CF0" stroke-width="2.4" stroke-linejoin="round" stroke-linecap="round" points="56,198.31 69.32,224.59 82.64,214.73 95.95,247.97 109.27,236.75 122.59,219.64 135.91,238.79 149.23,207.95 162.55,201.38 175.86,239.3 189.18,242.33 202.5,177.25 215.82,218.95 229.14,232.82 242.45,248.48 255.77,252.97 269.09,230.93 282.41,242.47 295.73,240.12 309.05,248.48 322.36,256.65 335.68,261.44 349,262.41 362.32,264.75 375.64,261.4 388.95,262.76 402.27,244.65 415.59,230.98 428.91,234.56 442.23,260.01 455.55,254.76 468.86,238.53 482.18,231.76 495.5,226.22 508.82,247.36 522.14,238.78 535.45,250.58 548.77,256.4 562.09,243.61 575.41,265.98 588.73,253.29 602.05,225.25 615.36,246.45 628.68,252.36 642,241.14"></polyline><circle cx="56" cy="198.31" r="2.6" fill="#1F9CF0"></circle><circle cx="69.32" cy="224.59" r="2.6" fill="#1F9CF0"></circle><circle cx="82.64" cy="214.73" r="2.6" fill="#1F9CF0"></circle><circle cx="95.95" cy="247.97" r="2.6" fill="#1F9CF0"></circle><circle cx="109.27" cy="236.75" r="2.6" fill="#1F9CF0"></circle><circle cx="122.59" cy="219.64" r="2.6" fill="#1F9CF0"></circle><circle cx="135.91" cy="238.79" r="2.6" fill="#1F9CF0"></circle><circle cx="149.23" cy="207.95" r="2.6" fill="#1F9CF0"></circle><circle cx="162.55" cy="201.38" r="2.6" fill="#1F9CF0"></circle><circle cx="175.86" cy="239.3" r="2.6" fill="#1F9CF0"></circle><circle cx="189.18" cy="242.33" r="2.6" fill="#1F9CF0"></circle><circle cx="202.5" cy="177.25" r="2.6" fill="#1F9CF0"></circle><circle cx="215.82" cy="218.95" r="2.6" fill="#1F9CF0"></circle><circle cx="229.14" cy="232.82" r="2.6" fill="#1F9CF0"></circle><circle cx="242.45" cy="248.48" r="2.6" fill="#1F9CF0"></circle><circle cx="255.77" cy="252.97" r="2.6" fill="#1F9CF0"></circle><circle cx="269.09" cy="230.93" r="2.6" fill="#1F9CF0"></circle><circle cx="282.41" cy="242.47" r="2.6" fill="#1F9CF0"></circle><circle cx="295.73" cy="240.12" r="2.6" fill="#1F9CF0"></circle><circle cx="309.05" cy="248.48" r="2.6" fill="#1F9CF0"></circle><circle cx="322.36" cy="256.65" r="2.6" fill="#1F9CF0"></circle><circle cx="335.68" cy="261.44" r="2.6" fill="#1F9CF0"></circle><circle cx="349" cy="262.41" r="2.6" fill="#1F9CF0"></circle><circle cx="362.32" cy="264.75" r="2.6" fill="#1F9CF0"></circle><circle cx="375.64" cy="261.4" r="2.6" fill="#1F9CF0"></circle><circle cx="388.95" cy="262.76" r="2.6" fill="#1F9CF0"></circle><circle cx="402.27" cy="244.65" r="2.6" fill="#1F9CF0"></circle><circle cx="415.59" cy="230.98" r="2.6" fill="#1F9CF0"></circle><circle cx="428.91" cy="234.56" r="2.6" fill="#1F9CF0"></circle><circle cx="442.23" cy="260.01" r="2.6" fill="#1F9CF0"></circle><circle cx="455.55" cy="254.76" r="2.6" fill="#1F9CF0"></circle><circle cx="468.86" cy="238.53" r="2.6" fill="#1F9CF0"></circle><circle cx="482.18" cy="231.76" r="2.6" fill="#1F9CF0"></circle><circle cx="495.5" cy="226.22" r="2.6" fill="#1F9CF0"></circle><circle cx="508.82" cy="247.36" r="2.6" fill="#1F9CF0"></circle><circle cx="522.14" cy="238.78" r="2.6" fill="#1F9CF0"></circle><circle cx="535.45" cy="250.58" r="2.6" fill="#1F9CF0"></circle><circle cx="548.77" cy="256.4" r="2.6" fill="#1F9CF0"></circle><circle cx="562.09" cy="243.61" r="2.6" fill="#1F9CF0"></circle><circle cx="575.41" cy="265.98" r="2.6" fill="#1F9CF0"></circle><circle cx="588.73" cy="253.29" r="2.6" fill="#1F9CF0"></circle><circle cx="602.05" cy="225.25" r="2.6" fill="#1F9CF0"></circle><circle cx="615.36" cy="246.45" r="2.6" fill="#1F9CF0"></circle><circle cx="628.68" cy="252.36" r="2.6" fill="#1F9CF0"></circle><circle cx="642" cy="241.14" r="2.6" fill="#1F9CF0"></circle><line x1="656" y1="27" x2="672" y2="27" stroke="#E8835A" stroke-width="3" stroke-linecap="round"></line><text x="678" y="30" font-size="11" font-weight="400" text-anchor="start" fill="#e6edf3">anthropic</text><line x1="656" y1="47" x2="672" y2="47" stroke="#6366F1" stroke-width="3" stroke-linecap="round"></line><text x="678" y="50" font-size="11" font-weight="400" text-anchor="start" fill="#e6edf3">deepseek</text><line x1="656" y1="67" x2="672" y2="67" stroke="#2DA98C" stroke-width="3" stroke-linecap="round"></line><text x="678" y="70" font-size="11" font-weight="400" text-anchor="start" fill="#e6edf3">gemini</text><line x1="656" y1="87" x2="672" y2="87" stroke="#A371F7" stroke-width="3" stroke-linecap="round"></line><text x="678" y="90" font-size="11" font-weight="400" text-anchor="start" fill="#e6edf3">llama</text><line x1="656" y1="107" x2="672" y2="107" stroke="#F0A23B" stroke-width="3" stroke-linecap="round"></line><text x="678" y="110" font-size="11" font-weight="400" text-anchor="start" fill="#e6edf3">mistral</text><line x1="656" y1="127" x2="672" y2="127" stroke="#1F9CF0" stroke-width="3" stroke-linecap="round"></line><text x="678" y="130" font-size="11" font-weight="400" text-anchor="start" fill="#e6edf3">openai</text></svg>
