<svg xmlns="http://www.w3.org/2000/svg" viewBox="0 0 760 348" width="760" height="348" role="img" aria-label="Average LLM latency by provider over runs — llama highest, deepseek lowest" font-family="-apple-system,BlinkMacSystemFont,'Segoe UI',system-ui,sans-serif"><line x1="56" y1="306" x2="642" y2="306" stroke="#30363d" stroke-width="1"></line><text x="46" y="310" font-size="9.5" font-weight="400" text-anchor="end" fill="#8b949e" font-family="ui-monospace,SFMono-Regular,Menlo,monospace">0.0s</text><line x1="56" y1="235" x2="642" y2="235" stroke="#30363d" stroke-width="1"></line><text x="46" y="239" font-size="9.5" font-weight="400" text-anchor="end" fill="#8b949e" font-family="ui-monospace,SFMono-Regular,Menlo,monospace">82.5s</text><line x1="56" y1="164" x2="642" y2="164" stroke="#30363d" stroke-width="1"></line><text x="46" y="168" font-size="9.5" font-weight="400" text-anchor="end" fill="#8b949e" font-family="ui-monospace,SFMono-Regular,Menlo,monospace">165.1s</text><line x1="56" y1="93" x2="642" y2="93" stroke="#30363d" stroke-width="1"></line><text x="46" y="97" font-size="9.5" font-weight="400" text-anchor="end" fill="#8b949e" font-family="ui-monospace,SFMono-Regular,Menlo,monospace">247.6s</text><line x1="56" y1="22" x2="642" y2="22" stroke="#30363d" stroke-width="1"></line><text x="46" y="26" font-size="9.5" font-weight="400" text-anchor="end" fill="#8b949e" font-family="ui-monospace,SFMono-Regular,Menlo,monospace">330.2s</text><text x="56" y="324" font-size="9.5" font-weight="400" text-anchor="middle" fill="#8b949e" font-family="ui-monospace,SFMono-Regular,Menlo,monospace">06/08</text><text x="105.66" y="324" font-size="9.5" font-weight="400" text-anchor="middle" fill="#8b949e" font-family="ui-monospace,SFMono-Regular,Menlo,monospace">06/08</text><text x="155.32" y="324" font-size="9.5" font-weight="400" text-anchor="middle" fill="#8b949e" font-family="ui-monospace,SFMono-Regular,Menlo,monospace">06/09</text><text x="204.98" y="324" font-size="9.5" font-weight="400" text-anchor="middle" fill="#8b949e" font-family="ui-monospace,SFMono-Regular,Menlo,monospace">06/12</text><text x="254.64" y="324" font-size="9.5" font-weight="400" text-anchor="middle" fill="#8b949e" font-family="ui-monospace,SFMono-Regular,Menlo,monospace">06/13</text><text x="304.31" y="324" font-size="9.5" font-weight="400" text-anchor="middle" fill="#8b949e" font-family="ui-monospace,SFMono-Regular,Menlo,monospace">06/14</text><text x="353.97" y="324" font-size="9.5" font-weight="400" text-anchor="middle" fill="#8b949e" font-family="ui-monospace,SFMono-Regular,Menlo,monospace">06/15</text><text x="403.63" y="324" font-size="9.5" font-weight="400" text-anchor="middle" fill="#8b949e" font-family="ui-monospace,SFMono-Regular,Menlo,monospace">06/16</text><text x="453.29" y="324" font-size="9.5" font-weight="400" text-anchor="middle" fill="#8b949e" font-family="ui-monospace,SFMono-Regular,Menlo,monospace">06/17</text><text x="502.95" y="324" font-size="9.5" font-weight="400" text-anchor="middle" fill="#8b949e" font-family="ui-monospace,SFMono-Regular,Menlo,monospace">06/19</text><text x="552.61" y="324" font-size="9.5" font-weight="400" text-anchor="middle" fill="#8b949e" font-family="ui-monospace,SFMono-Regular,Menlo,monospace">06/20</text><text x="602.27" y="324" font-size="9.5" font-weight="400" text-anchor="middle" fill="#8b949e" font-family="ui-monospace,SFMono-Regular,Menlo,monospace">06/21</text><text x="642" y="324" font-size="9.5" font-weight="400" text-anchor="middle" fill="#8b949e" font-family="ui-monospace,SFMono-Regular,Menlo,monospace">06/22</text><polyline fill="none" stroke="#E8835A" stroke-width="2.4" stroke-linejoin="round" stroke-linecap="round" points="56,229.15 65.93,232.31 75.86,238.94 85.8,244 95.73,235.49 105.66,232.81 115.59,250.28 125.53,243.38 135.46,241.66 145.39,231.14 165.25,234.04 175.19,244.32 185.12,228.71 195.05,246.08 204.98,242.18 214.92,235.58 224.85,242.32 234.78,244.55 244.71,246.98 254.64,240.71 264.58,250.83 274.51,244.26 284.44,241.33 294.37,245.63 304.31,245.02 314.24,240.82 324.17,243.78 334.1,243.28 344.03,240.2 353.97,242.69 363.9,215.59 373.83,241.79 383.76,238.64 393.69,243.45 403.63,243.86 413.56,234.8 423.49,244.51 433.42,244.64"></polyline><circle cx="56" cy="229.15" r="2.6" fill="#E8835A"></circle><circle cx="65.93" cy="232.31" r="2.6" fill="#E8835A"></circle><circle cx="75.86" cy="238.94" r="2.6" fill="#E8835A"></circle><circle cx="85.8" cy="244" r="2.6" fill="#E8835A"></circle><circle cx="95.73" cy="235.49" r="2.6" fill="#E8835A"></circle><circle cx="105.66" cy="232.81" r="2.6" fill="#E8835A"></circle><circle cx="115.59" cy="250.28" r="2.6" fill="#E8835A"></circle><circle cx="125.53" cy="243.38" r="2.6" fill="#E8835A"></circle><circle cx="135.46" cy="241.66" r="2.6" fill="#E8835A"></circle><circle cx="145.39" cy="231.14" r="2.6" fill="#E8835A"></circle><circle cx="165.25" cy="234.04" r="2.6" fill="#E8835A"></circle><circle cx="175.19" cy="244.32" r="2.6" fill="#E8835A"></circle><circle cx="185.12" cy="228.71" r="2.6" fill="#E8835A"></circle><circle cx="195.05" cy="246.08" r="2.6" fill="#E8835A"></circle><circle cx="204.98" cy="242.18" r="2.6" fill="#E8835A"></circle><circle cx="214.92" cy="235.58" r="2.6" fill="#E8835A"></circle><circle cx="224.85" cy="242.32" r="2.6" fill="#E8835A"></circle><circle cx="234.78" cy="244.55" r="2.6" fill="#E8835A"></circle><circle cx="244.71" cy="246.98" r="2.6" fill="#E8835A"></circle><circle cx="254.64" cy="240.71" r="2.6" fill="#E8835A"></circle><circle cx="264.58" cy="250.83" r="2.6" fill="#E8835A"></circle><circle cx="274.51" cy="244.26" r="2.6" fill="#E8835A"></circle><circle cx="284.44" cy="241.33" r="2.6" fill="#E8835A"></circle><circle cx="294.37" cy="245.63" r="2.6" fill="#E8835A"></circle><circle cx="304.31" cy="245.02" r="2.6" fill="#E8835A"></circle><circle cx="314.24" cy="240.82" r="2.6" fill="#E8835A"></circle><circle cx="324.17" cy="243.78" r="2.6" fill="#E8835A"></circle><circle cx="334.1" cy="243.28" r="2.6" fill="#E8835A"></circle><circle cx="344.03" cy="240.2" r="2.6" fill="#E8835A"></circle><circle cx="353.97" cy="242.69" r="2.6" fill="#E8835A"></circle><circle cx="363.9" cy="215.59" r="2.6" fill="#E8835A"></circle><circle cx="373.83" cy="241.79" r="2.6" fill="#E8835A"></circle><circle cx="383.76" cy="238.64" r="2.6" fill="#E8835A"></circle><circle cx="393.69" cy="243.45" r="2.6" fill="#E8835A"></circle><circle cx="403.63" cy="243.86" r="2.6" fill="#E8835A"></circle><circle cx="413.56" cy="234.8" r="2.6" fill="#E8835A"></circle><circle cx="423.49" cy="244.51" r="2.6" fill="#E8835A"></circle><circle cx="433.42" cy="244.64" r="2.6" fill="#E8835A"></circle><polyline fill="none" stroke="#6366F1" stroke-width="2.4" stroke-linejoin="round" stroke-linecap="round" points="65.93,247.24 75.86,242.4 85.8,249.98 95.73,230.48 105.66,260.21 115.59,260.34 125.53,270.44 135.46,248.92 145.39,245.19 155.32,247.83 165.25,256.22 175.19,248.72 185.12,261.47 195.05,243.58 204.98,210.49 214.92,266.33 224.85,232.33 234.78,232.27 244.71,199.16 254.64,237.91 264.58,252.97 274.51,266.11 284.44,215.25 294.37,265.97 304.31,258.25 314.24,265.82 324.17,246.69 334.1,244.53 353.97,240.91 363.9,255.51 373.83,252.51 383.76,237.2 393.69,258.24 403.63,235.84 413.56,252.87 423.49,243.73 433.42,249.01 453.29,263.05 463.22,262.95 473.15,250.85 483.08,238.76 493.02,245.84 502.95,240.49 512.88,244.58 522.81,238.25 532.75,266.43 542.68,219.91 552.61,256.77 572.47,250.11 582.41,264.15 592.34,249.18 602.27,252.64 612.2,236.94 622.14,257.91 632.07,245.05 642,245.47"></polyline><circle cx="65.93" cy="247.24" r="2.6" fill="#6366F1"></circle><circle cx="75.86" cy="242.4" r="2.6" fill="#6366F1"></circle><circle cx="85.8" cy="249.98" r="2.6" fill="#6366F1"></circle><circle cx="95.73" cy="230.48" r="2.6" fill="#6366F1"></circle><circle cx="105.66" cy="260.21" r="2.6" fill="#6366F1"></circle><circle cx="115.59" cy="260.34" r="2.6" fill="#6366F1"></circle><circle cx="125.53" cy="270.44" r="2.6" fill="#6366F1"></circle><circle cx="135.46" cy="248.92" r="2.6" fill="#6366F1"></circle><circle cx="145.39" cy="245.19" r="2.6" fill="#6366F1"></circle><circle cx="155.32" cy="247.83" r="2.6" fill="#6366F1"></circle><circle cx="165.25" cy="256.22" r="2.6" fill="#6366F1"></circle><circle cx="175.19" cy="248.72" r="2.6" fill="#6366F1"></circle><circle cx="185.12" cy="261.47" r="2.6" fill="#6366F1"></circle><circle cx="195.05" cy="243.58" r="2.6" fill="#6366F1"></circle><circle cx="204.98" cy="210.49" r="2.6" fill="#6366F1"></circle><circle cx="214.92" cy="266.33" r="2.6" fill="#6366F1"></circle><circle cx="224.85" cy="232.33" r="2.6" fill="#6366F1"></circle><circle cx="234.78" cy="232.27" r="2.6" fill="#6366F1"></circle><circle cx="244.71" cy="199.16" r="2.6" fill="#6366F1"></circle><circle cx="254.64" cy="237.91" r="2.6" fill="#6366F1"></circle><circle cx="264.58" cy="252.97" r="2.6" fill="#6366F1"></circle><circle cx="274.51" cy="266.11" r="2.6" fill="#6366F1"></circle><circle cx="284.44" cy="215.25" r="2.6" fill="#6366F1"></circle><circle cx="294.37" cy="265.97" r="2.6" fill="#6366F1"></circle><circle cx="304.31" cy="258.25" r="2.6" fill="#6366F1"></circle><circle cx="314.24" cy="265.82" r="2.6" fill="#6366F1"></circle><circle cx="324.17" cy="246.69" r="2.6" fill="#6366F1"></circle><circle cx="334.1" cy="244.53" r="2.6" fill="#6366F1"></circle><circle cx="353.97" cy="240.91" r="2.6" fill="#6366F1"></circle><circle cx="363.9" cy="255.51" r="2.6" fill="#6366F1"></circle><circle cx="373.83" cy="252.51" r="2.6" fill="#6366F1"></circle><circle cx="383.76" cy="237.2" r="2.6" fill="#6366F1"></circle><circle cx="393.69" cy="258.24" r="2.6" fill="#6366F1"></circle><circle cx="403.63" cy="235.84" r="2.6" fill="#6366F1"></circle><circle cx="413.56" cy="252.87" r="2.6" fill="#6366F1"></circle><circle cx="423.49" cy="243.73" r="2.6" fill="#6366F1"></circle><circle cx="433.42" cy="249.01" r="2.6" fill="#6366F1"></circle><circle cx="453.29" cy="263.05" r="2.6" fill="#6366F1"></circle><circle cx="463.22" cy="262.95" r="2.6" fill="#6366F1"></circle><circle cx="473.15" cy="250.85" r="2.6" fill="#6366F1"></circle><circle cx="483.08" cy="238.76" r="2.6" fill="#6366F1"></circle><circle cx="493.02" cy="245.84" r="2.6" fill="#6366F1"></circle><circle cx="502.95" cy="240.49" r="2.6" fill="#6366F1"></circle><circle cx="512.88" cy="244.58" r="2.6" fill="#6366F1"></circle><circle cx="522.81" cy="238.25" r="2.6" fill="#6366F1"></circle><circle cx="532.75" cy="266.43" r="2.6" fill="#6366F1"></circle><circle cx="542.68" cy="219.91" r="2.6" fill="#6366F1"></circle><circle cx="552.61" cy="256.77" r="2.6" fill="#6366F1"></circle><circle cx="572.47" cy="250.11" r="2.6" fill="#6366F1"></circle><circle cx="582.41" cy="264.15" r="2.6" fill="#6366F1"></circle><circle cx="592.34" cy="249.18" r="2.6" fill="#6366F1"></circle><circle cx="602.27" cy="252.64" r="2.6" fill="#6366F1"></circle><circle cx="612.2" cy="236.94" r="2.6" fill="#6366F1"></circle><circle cx="622.14" cy="257.91" r="2.6" fill="#6366F1"></circle><circle cx="632.07" cy="245.05" r="2.6" fill="#6366F1"></circle><circle cx="642" cy="245.47" r="2.6" fill="#6366F1"></circle><polyline fill="none" stroke="#2DA98C" stroke-width="2.4" stroke-linejoin="round" stroke-linecap="round" points="56,205.26 65.93,215.39 75.86,174.15 85.8,217.56 95.73,218.68 105.66,227.57 115.59,203.76 125.53,192.14 135.46,215.35 145.39,194.78 155.32,194.92 165.25,141.5 175.19,148.87 185.12,194.84 195.05,180.85 204.98,202.09 214.92,169.08 224.85,211.29 234.78,193.77 244.71,192.04 254.64,206.61 353.97,221.15 363.9,190.23 373.83,183.33 383.76,225.15 393.69,184.37 403.63,182.1 413.56,210.86 423.49,161.53 433.42,210.56 453.29,182.01 463.22,172.32 473.15,181.93 483.08,186.76 493.02,217.59 502.95,171.76 512.88,211.13 522.81,171.55 532.75,181.17 542.68,189.96 552.61,191.02 572.47,212.98 582.41,170.09 592.34,127.97 602.27,222.7 612.2,200.4 622.14,155.75 632.07,184.88 642,176.48"></polyline><circle cx="56" cy="205.26" r="2.6" fill="#2DA98C"></circle><circle cx="65.93" cy="215.39" r="2.6" fill="#2DA98C"></circle><circle cx="75.86" cy="174.15" r="2.6" fill="#2DA98C"></circle><circle cx="85.8" cy="217.56" r="2.6" fill="#2DA98C"></circle><circle cx="95.73" cy="218.68" r="2.6" fill="#2DA98C"></circle><circle cx="105.66" cy="227.57" r="2.6" fill="#2DA98C"></circle><circle cx="115.59" cy="203.76" r="2.6" fill="#2DA98C"></circle><circle cx="125.53" cy="192.14" r="2.6" fill="#2DA98C"></circle><circle cx="135.46" cy="215.35" r="2.6" fill="#2DA98C"></circle><circle cx="145.39" cy="194.78" r="2.6" fill="#2DA98C"></circle><circle cx="155.32" cy="194.92" r="2.6" fill="#2DA98C"></circle><circle cx="165.25" cy="141.5" r="2.6" fill="#2DA98C"></circle><circle cx="175.19" cy="148.87" r="2.6" fill="#2DA98C"></circle><circle cx="185.12" cy="194.84" r="2.6" fill="#2DA98C"></circle><circle cx="195.05" cy="180.85" r="2.6" fill="#2DA98C"></circle><circle cx="204.98" cy="202.09" r="2.6" fill="#2DA98C"></circle><circle cx="214.92" cy="169.08" r="2.6" fill="#2DA98C"></circle><circle cx="224.85" cy="211.29" r="2.6" fill="#2DA98C"></circle><circle cx="234.78" cy="193.77" r="2.6" fill="#2DA98C"></circle><circle cx="244.71" cy="192.04" r="2.6" fill="#2DA98C"></circle><circle cx="254.64" cy="206.61" r="2.6" fill="#2DA98C"></circle><circle cx="353.97" cy="221.15" r="2.6" fill="#2DA98C"></circle><circle cx="363.9" cy="190.23" r="2.6" fill="#2DA98C"></circle><circle cx="373.83" cy="183.33" r="2.6" fill="#2DA98C"></circle><circle cx="383.76" cy="225.15" r="2.6" fill="#2DA98C"></circle><circle cx="393.69" cy="184.37" r="2.6" fill="#2DA98C"></circle><circle cx="403.63" cy="182.1" r="2.6" fill="#2DA98C"></circle><circle cx="413.56" cy="210.86" r="2.6" fill="#2DA98C"></circle><circle cx="423.49" cy="161.53" r="2.6" fill="#2DA98C"></circle><circle cx="433.42" cy="210.56" r="2.6" fill="#2DA98C"></circle><circle cx="453.29" cy="182.01" r="2.6" fill="#2DA98C"></circle><circle cx="463.22" cy="172.32" r="2.6" fill="#2DA98C"></circle><circle cx="473.15" cy="181.93" r="2.6" fill="#2DA98C"></circle><circle cx="483.08" cy="186.76" r="2.6" fill="#2DA98C"></circle><circle cx="493.02" cy="217.59" r="2.6" fill="#2DA98C"></circle><circle cx="502.95" cy="171.76" r="2.6" fill="#2DA98C"></circle><circle cx="512.88" cy="211.13" r="2.6" fill="#2DA98C"></circle><circle cx="522.81" cy="171.55" r="2.6" fill="#2DA98C"></circle><circle cx="532.75" cy="181.17" r="2.6" fill="#2DA98C"></circle><circle cx="542.68" cy="189.96" r="2.6" fill="#2DA98C"></circle><circle cx="552.61" cy="191.02" r="2.6" fill="#2DA98C"></circle><circle cx="572.47" cy="212.98" r="2.6" fill="#2DA98C"></circle><circle cx="582.41" cy="170.09" r="2.6" fill="#2DA98C"></circle><circle cx="592.34" cy="127.97" r="2.6" fill="#2DA98C"></circle><circle cx="602.27" cy="222.7" r="2.6" fill="#2DA98C"></circle><circle cx="612.2" cy="200.4" r="2.6" fill="#2DA98C"></circle><circle cx="622.14" cy="155.75" r="2.6" fill="#2DA98C"></circle><circle cx="632.07" cy="184.88" r="2.6" fill="#2DA98C"></circle><circle cx="642" cy="176.48" r="2.6" fill="#2DA98C"></circle><polyline fill="none" stroke="#A371F7" stroke-width="2.4" stroke-linejoin="round" stroke-linecap="round" points="56,127.86 65.93,149.85 75.86,181.76 85.8,139.24 95.73,107.36 105.66,219.97 115.59,116.3 125.53,182.89 135.46,193.78 145.39,197.11 155.32,105.85 165.25,146.07 175.19,181.42 185.12,202.88 195.05,134.79 204.98,219.07 214.92,58.83 224.85,197.05 234.78,167.66 244.71,75.26 254.64,128.5 264.58,152.23 274.51,166.9 284.44,183.57 294.37,162.79 304.31,148.18 314.24,52.43 324.17,96.59 334.1,191.76 353.97,151.86 363.9,169.19 373.83,135.22 393.69,206.77 403.63,167.88 413.56,189.32 423.49,143.76 433.42,142.49 443.36,163.7 453.29,128.52 463.22,144.9 473.15,92.3 483.08,157.36 493.02,160.21 502.95,176.32 512.88,116.21 522.81,165.98 532.75,136.47 552.61,155.12 572.47,134.62 592.34,114.6 602.27,127.72 612.2,219.84 622.14,170.06 632.07,154.88 642,189.66"></polyline><circle cx="56" cy="127.86" r="2.6" fill="#A371F7"></circle><circle cx="65.93" cy="149.85" r="2.6" fill="#A371F7"></circle><circle cx="75.86" cy="181.76" r="2.6" fill="#A371F7"></circle><circle cx="85.8" cy="139.24" r="2.6" fill="#A371F7"></circle><circle cx="95.73" cy="107.36" r="2.6" fill="#A371F7"></circle><circle cx="105.66" cy="219.97" r="2.6" fill="#A371F7"></circle><circle cx="115.59" cy="116.3" r="2.6" fill="#A371F7"></circle><circle cx="125.53" cy="182.89" r="2.6" fill="#A371F7"></circle><circle cx="135.46" cy="193.78" r="2.6" fill="#A371F7"></circle><circle cx="145.39" cy="197.11" r="2.6" fill="#A371F7"></circle><circle cx="155.32" cy="105.85" r="2.6" fill="#A371F7"></circle><circle cx="165.25" cy="146.07" r="2.6" fill="#A371F7"></circle><circle cx="175.19" cy="181.42" r="2.6" fill="#A371F7"></circle><circle cx="185.12" cy="202.88" r="2.6" fill="#A371F7"></circle><circle cx="195.05" cy="134.79" r="2.6" fill="#A371F7"></circle><circle cx="204.98" cy="219.07" r="2.6" fill="#A371F7"></circle><circle cx="214.92" cy="58.83" r="2.6" fill="#A371F7"></circle><circle cx="224.85" cy="197.05" r="2.6" fill="#A371F7"></circle><circle cx="234.78" cy="167.66" r="2.6" fill="#A371F7"></circle><circle cx="244.71" cy="75.26" r="2.6" fill="#A371F7"></circle><circle cx="254.64" cy="128.5" r="2.6" fill="#A371F7"></circle><circle cx="264.58" cy="152.23" r="2.6" fill="#A371F7"></circle><circle cx="274.51" cy="166.9" r="2.6" fill="#A371F7"></circle><circle cx="284.44" cy="183.57" r="2.6" fill="#A371F7"></circle><circle cx="294.37" cy="162.79" r="2.6" fill="#A371F7"></circle><circle cx="304.31" cy="148.18" r="2.6" fill="#A371F7"></circle><circle cx="314.24" cy="52.43" r="2.6" fill="#A371F7"></circle><circle cx="324.17" cy="96.59" r="2.6" fill="#A371F7"></circle><circle cx="334.1" cy="191.76" r="2.6" fill="#A371F7"></circle><circle cx="353.97" cy="151.86" r="2.6" fill="#A371F7"></circle><circle cx="363.9" cy="169.19" r="2.6" fill="#A371F7"></circle><circle cx="373.83" cy="135.22" r="2.6" fill="#A371F7"></circle><circle cx="393.69" cy="206.77" r="2.6" fill="#A371F7"></circle><circle cx="403.63" cy="167.88" r="2.6" fill="#A371F7"></circle><circle cx="413.56" cy="189.32" r="2.6" fill="#A371F7"></circle><circle cx="423.49" cy="143.76" r="2.6" fill="#A371F7"></circle><circle cx="433.42" cy="142.49" r="2.6" fill="#A371F7"></circle><circle cx="443.36" cy="163.7" r="2.6" fill="#A371F7"></circle><circle cx="453.29" cy="128.52" r="2.6" fill="#A371F7"></circle><circle cx="463.22" cy="144.9" r="2.6" fill="#A371F7"></circle><circle cx="473.15" cy="92.3" r="2.6" fill="#A371F7"></circle><circle cx="483.08" cy="157.36" r="2.6" fill="#A371F7"></circle><circle cx="493.02" cy="160.21" r="2.6" fill="#A371F7"></circle><circle cx="502.95" cy="176.32" r="2.6" fill="#A371F7"></circle><circle cx="512.88" cy="116.21" r="2.6" fill="#A371F7"></circle><circle cx="522.81" cy="165.98" r="2.6" fill="#A371F7"></circle><circle cx="532.75" cy="136.47" r="2.6" fill="#A371F7"></circle><circle cx="552.61" cy="155.12" r="2.6" fill="#A371F7"></circle><circle cx="572.47" cy="134.62" r="2.6" fill="#A371F7"></circle><circle cx="592.34" cy="114.6" r="2.6" fill="#A371F7"></circle><circle cx="602.27" cy="127.72" r="2.6" fill="#A371F7"></circle><circle cx="612.2" cy="219.84" r="2.6" fill="#A371F7"></circle><circle cx="622.14" cy="170.06" r="2.6" fill="#A371F7"></circle><circle cx="632.07" cy="154.88" r="2.6" fill="#A371F7"></circle><circle cx="642" cy="189.66" r="2.6" fill="#A371F7"></circle><polyline fill="none" stroke="#F0A23B" stroke-width="2.4" stroke-linejoin="round" stroke-linecap="round" points="56,170.6 65.93,150.62 75.86,187.27 85.8,153.33 95.73,137.4 105.66,187.39 115.59,202.98 125.53,219.57 135.46,187.3 145.39,163.64 155.32,218.54 165.25,247.9 175.19,222.75 185.12,249.71 195.05,224.7 204.98,243.69 214.92,245.81 224.85,211.84 234.78,236.21 244.71,257.78 254.64,248.63 264.58,234.2 274.51,247.57 284.44,243.66 294.37,258.59 304.31,253.94 314.24,235.44 324.17,209.7 334.1,229.87 344.03,229.74 353.97,242.74 363.9,219.28 373.83,218.69 383.76,248.17 393.69,252.02 403.63,241.64 413.56,202.83 423.49,191.16 433.42,236.21 443.36,247.47 453.29,237.91 463.22,227.46 473.15,241.35 483.08,249.73 493.02,234.66 502.95,250 512.88,253.94 522.81,252.42 532.75,245.42 542.68,237.98 552.61,238.85 572.47,257.8 582.41,233.33 592.34,238.96 602.27,252.16 612.2,246.34 622.14,221.3 632.07,228.03 642,249.57"></polyline><circle cx="56" cy="170.6" r="2.6" fill="#F0A23B"></circle><circle cx="65.93" cy="150.62" r="2.6" fill="#F0A23B"></circle><circle cx="75.86" cy="187.27" r="2.6" fill="#F0A23B"></circle><circle cx="85.8" cy="153.33" r="2.6" fill="#F0A23B"></circle><circle cx="95.73" cy="137.4" r="2.6" fill="#F0A23B"></circle><circle cx="105.66" cy="187.39" r="2.6" fill="#F0A23B"></circle><circle cx="115.59" cy="202.98" r="2.6" fill="#F0A23B"></circle><circle cx="125.53" cy="219.57" r="2.6" fill="#F0A23B"></circle><circle cx="135.46" cy="187.3" r="2.6" fill="#F0A23B"></circle><circle cx="145.39" cy="163.64" r="2.6" fill="#F0A23B"></circle><circle cx="155.32" cy="218.54" r="2.6" fill="#F0A23B"></circle><circle cx="165.25" cy="247.9" r="2.6" fill="#F0A23B"></circle><circle cx="175.19" cy="222.75" r="2.6" fill="#F0A23B"></circle><circle cx="185.12" cy="249.71" r="2.6" fill="#F0A23B"></circle><circle cx="195.05" cy="224.7" r="2.6" fill="#F0A23B"></circle><circle cx="204.98" cy="243.69" r="2.6" fill="#F0A23B"></circle><circle cx="214.92" cy="245.81" r="2.6" fill="#F0A23B"></circle><circle cx="224.85" cy="211.84" r="2.6" fill="#F0A23B"></circle><circle cx="234.78" cy="236.21" r="2.6" fill="#F0A23B"></circle><circle cx="244.71" cy="257.78" r="2.6" fill="#F0A23B"></circle><circle cx="254.64" cy="248.63" r="2.6" fill="#F0A23B"></circle><circle cx="264.58" cy="234.2" r="2.6" fill="#F0A23B"></circle><circle cx="274.51" cy="247.57" r="2.6" fill="#F0A23B"></circle><circle cx="284.44" cy="243.66" r="2.6" fill="#F0A23B"></circle><circle cx="294.37" cy="258.59" r="2.6" fill="#F0A23B"></circle><circle cx="304.31" cy="253.94" r="2.6" fill="#F0A23B"></circle><circle cx="314.24" cy="235.44" r="2.6" fill="#F0A23B"></circle><circle cx="324.17" cy="209.7" r="2.6" fill="#F0A23B"></circle><circle cx="334.1" cy="229.87" r="2.6" fill="#F0A23B"></circle><circle cx="344.03" cy="229.74" r="2.6" fill="#F0A23B"></circle><circle cx="353.97" cy="242.74" r="2.6" fill="#F0A23B"></circle><circle cx="363.9" cy="219.28" r="2.6" fill="#F0A23B"></circle><circle cx="373.83" cy="218.69" r="2.6" fill="#F0A23B"></circle><circle cx="383.76" cy="248.17" r="2.6" fill="#F0A23B"></circle><circle cx="393.69" cy="252.02" r="2.6" fill="#F0A23B"></circle><circle cx="403.63" cy="241.64" r="2.6" fill="#F0A23B"></circle><circle cx="413.56" cy="202.83" r="2.6" fill="#F0A23B"></circle><circle cx="423.49" cy="191.16" r="2.6" fill="#F0A23B"></circle><circle cx="433.42" cy="236.21" r="2.6" fill="#F0A23B"></circle><circle cx="443.36" cy="247.47" r="2.6" fill="#F0A23B"></circle><circle cx="453.29" cy="237.91" r="2.6" fill="#F0A23B"></circle><circle cx="463.22" cy="227.46" r="2.6" fill="#F0A23B"></circle><circle cx="473.15" cy="241.35" r="2.6" fill="#F0A23B"></circle><circle cx="483.08" cy="249.73" r="2.6" fill="#F0A23B"></circle><circle cx="493.02" cy="234.66" r="2.6" fill="#F0A23B"></circle><circle cx="502.95" cy="250" r="2.6" fill="#F0A23B"></circle><circle cx="512.88" cy="253.94" r="2.6" fill="#F0A23B"></circle><circle cx="522.81" cy="252.42" r="2.6" fill="#F0A23B"></circle><circle cx="532.75" cy="245.42" r="2.6" fill="#F0A23B"></circle><circle cx="542.68" cy="237.98" r="2.6" fill="#F0A23B"></circle><circle cx="552.61" cy="238.85" r="2.6" fill="#F0A23B"></circle><circle cx="572.47" cy="257.8" r="2.6" fill="#F0A23B"></circle><circle cx="582.41" cy="233.33" r="2.6" fill="#F0A23B"></circle><circle cx="592.34" cy="238.96" r="2.6" fill="#F0A23B"></circle><circle cx="602.27" cy="252.16" r="2.6" fill="#F0A23B"></circle><circle cx="612.2" cy="246.34" r="2.6" fill="#F0A23B"></circle><circle cx="622.14" cy="221.3" r="2.6" fill="#F0A23B"></circle><circle cx="632.07" cy="228.03" r="2.6" fill="#F0A23B"></circle><circle cx="642" cy="249.57" r="2.6" fill="#F0A23B"></circle><polyline fill="none" stroke="#1F9CF0" stroke-width="2.4" stroke-linejoin="round" stroke-linecap="round" points="56,198.31 65.93,224.59 75.86,214.73 85.8,247.97 95.73,236.75 105.66,219.64 115.59,238.79 125.53,207.95 135.46,201.38 145.39,239.3 155.32,242.33 165.25,177.25 175.19,218.95 185.12,232.82 195.05,248.48 204.98,252.97 214.92,230.93 224.85,242.47 234.78,240.12 244.71,248.48 254.64,256.65 264.58,261.44 274.51,262.41 284.44,264.75 294.37,261.4 304.31,262.76 314.24,244.65 324.17,230.98 334.1,234.56 344.03,260.01 353.97,254.76 363.9,238.53 373.83,231.76 383.76,226.22 393.69,247.36 403.63,238.78 413.56,250.58 423.49,256.4 433.42,243.61 443.36,265.98 453.29,253.29 463.22,225.25 473.15,246.45 483.08,252.36 493.02,241.14 502.95,253.3 512.88,245.06 522.81,205.73 532.75,260.99 542.68,265.11 552.61,263.66 562.54,270.45 572.47,265.53 582.41,248.25 592.34,259.3 602.27,255.01"></polyline><circle cx="56" cy="198.31" r="2.6" fill="#1F9CF0"></circle><circle cx="65.93" cy="224.59" r="2.6" fill="#1F9CF0"></circle><circle cx="75.86" cy="214.73" r="2.6" fill="#1F9CF0"></circle><circle cx="85.8" cy="247.97" r="2.6" fill="#1F9CF0"></circle><circle cx="95.73" cy="236.75" r="2.6" fill="#1F9CF0"></circle><circle cx="105.66" cy="219.64" r="2.6" fill="#1F9CF0"></circle><circle cx="115.59" cy="238.79" r="2.6" fill="#1F9CF0"></circle><circle cx="125.53" cy="207.95" r="2.6" fill="#1F9CF0"></circle><circle cx="135.46" cy="201.38" r="2.6" fill="#1F9CF0"></circle><circle cx="145.39" cy="239.3" r="2.6" fill="#1F9CF0"></circle><circle cx="155.32" cy="242.33" r="2.6" fill="#1F9CF0"></circle><circle cx="165.25" cy="177.25" r="2.6" fill="#1F9CF0"></circle><circle cx="175.19" cy="218.95" r="2.6" fill="#1F9CF0"></circle><circle cx="185.12" cy="232.82" r="2.6" fill="#1F9CF0"></circle><circle cx="195.05" cy="248.48" r="2.6" fill="#1F9CF0"></circle><circle cx="204.98" cy="252.97" r="2.6" fill="#1F9CF0"></circle><circle cx="214.92" cy="230.93" r="2.6" fill="#1F9CF0"></circle><circle cx="224.85" cy="242.47" r="2.6" fill="#1F9CF0"></circle><circle cx="234.78" cy="240.12" r="2.6" fill="#1F9CF0"></circle><circle cx="244.71" cy="248.48" r="2.6" fill="#1F9CF0"></circle><circle cx="254.64" cy="256.65" r="2.6" fill="#1F9CF0"></circle><circle cx="264.58" cy="261.44" r="2.6" fill="#1F9CF0"></circle><circle cx="274.51" cy="262.41" r="2.6" fill="#1F9CF0"></circle><circle cx="284.44" cy="264.75" r="2.6" fill="#1F9CF0"></circle><circle cx="294.37" cy="261.4" r="2.6" fill="#1F9CF0"></circle><circle cx="304.31" cy="262.76" r="2.6" fill="#1F9CF0"></circle><circle cx="314.24" cy="244.65" r="2.6" fill="#1F9CF0"></circle><circle cx="324.17" cy="230.98" r="2.6" fill="#1F9CF0"></circle><circle cx="334.1" cy="234.56" r="2.6" fill="#1F9CF0"></circle><circle cx="344.03" cy="260.01" r="2.6" fill="#1F9CF0"></circle><circle cx="353.97" cy="254.76" r="2.6" fill="#1F9CF0"></circle><circle cx="363.9" cy="238.53" r="2.6" fill="#1F9CF0"></circle><circle cx="373.83" cy="231.76" r="2.6" fill="#1F9CF0"></circle><circle cx="383.76" cy="226.22" r="2.6" fill="#1F9CF0"></circle><circle cx="393.69" cy="247.36" r="2.6" fill="#1F9CF0"></circle><circle cx="403.63" cy="238.78" r="2.6" fill="#1F9CF0"></circle><circle cx="413.56" cy="250.58" r="2.6" fill="#1F9CF0"></circle><circle cx="423.49" cy="256.4" r="2.6" fill="#1F9CF0"></circle><circle cx="433.42" cy="243.61" r="2.6" fill="#1F9CF0"></circle><circle cx="443.36" cy="265.98" r="2.6" fill="#1F9CF0"></circle><circle cx="453.29" cy="253.29" r="2.6" fill="#1F9CF0"></circle><circle cx="463.22" cy="225.25" r="2.6" fill="#1F9CF0"></circle><circle cx="473.15" cy="246.45" r="2.6" fill="#1F9CF0"></circle><circle cx="483.08" cy="252.36" r="2.6" fill="#1F9CF0"></circle><circle cx="493.02" cy="241.14" r="2.6" fill="#1F9CF0"></circle><circle cx="502.95" cy="253.3" r="2.6" fill="#1F9CF0"></circle><circle cx="512.88" cy="245.06" r="2.6" fill="#1F9CF0"></circle><circle cx="522.81" cy="205.73" r="2.6" fill="#1F9CF0"></circle><circle cx="532.75" cy="260.99" r="2.6" fill="#1F9CF0"></circle><circle cx="542.68" cy="265.11" r="2.6" fill="#1F9CF0"></circle><circle cx="552.61" cy="263.66" r="2.6" fill="#1F9CF0"></circle><circle cx="562.54" cy="270.45" r="2.6" fill="#1F9CF0"></circle><circle cx="572.47" cy="265.53" r="2.6" fill="#1F9CF0"></circle><circle cx="582.41" cy="248.25" r="2.6" fill="#1F9CF0"></circle><circle cx="592.34" cy="259.3" r="2.6" fill="#1F9CF0"></circle><circle cx="602.27" cy="255.01" r="2.6" fill="#1F9CF0"></circle><line x1="656" y1="27" x2="672" y2="27" stroke="#E8835A" stroke-width="3" stroke-linecap="round"></line><text x="678" y="30" font-size="11" font-weight="400" text-anchor="start" fill="#e6edf3">anthropic</text><line x1="656" y1="47" x2="672" y2="47" stroke="#6366F1" stroke-width="3" stroke-linecap="round"></line><text x="678" y="50" font-size="11" font-weight="400" text-anchor="start" fill="#e6edf3">deepseek</text><line x1="656" y1="67" x2="672" y2="67" stroke="#2DA98C" stroke-width="3" stroke-linecap="round"></line><text x="678" y="70" font-size="11" font-weight="400" text-anchor="start" fill="#e6edf3">gemini</text><line x1="656" y1="87" x2="672" y2="87" stroke="#A371F7" stroke-width="3" stroke-linecap="round"></line><text x="678" y="90" font-size="11" font-weight="400" text-anchor="start" fill="#e6edf3">llama</text><line x1="656" y1="107" x2="672" y2="107" stroke="#F0A23B" stroke-width="3" stroke-linecap="round"></line><text x="678" y="110" font-size="11" font-weight="400" text-anchor="start" fill="#e6edf3">mistral</text><line x1="656" y1="127" x2="672" y2="127" stroke="#1F9CF0" stroke-width="3" stroke-linecap="round"></line><text x="678" y="130" font-size="11" font-weight="400" text-anchor="start" fill="#e6edf3">openai</text></svg>
