<svg xmlns="http://www.w3.org/2000/svg" viewBox="0 0 760 256" width="760" height="256" role="img" aria-label="Pass rate by provider" font-family="-apple-system,BlinkMacSystemFont,'Segoe UI',system-ui,sans-serif"><line x1="553.2" y1="14" x2="553.2" y2="240" stroke="#d8dee4" stroke-width="1" stroke-dasharray="2 4"></line><text x="553.2" y="10" font-size="9" font-weight="400" text-anchor="middle" fill="#656d76">90%</text><line x1="576.6" y1="14" x2="576.6" y2="240" stroke="#d8dee4" stroke-width="1" stroke-dasharray="2 4"></line><text x="576.6" y="10" font-size="9" font-weight="400" text-anchor="middle" fill="#656d76">95%</text><line x1="600" y1="14" x2="600" y2="240" stroke="#d8dee4" stroke-width="1" stroke-dasharray="2 4"></line><text x="600" y="10" font-size="9" font-weight="400" text-anchor="middle" fill="#656d76">100%</text><text x="8" y="41" font-size="13" font-weight="600" text-anchor="start" fill="#1f2328">mistral</text><rect x="132" y="31" width="468" height="12" rx="6" fill="#eaeef2"></rect><rect x="132" y="31" width="465.19" height="12" rx="6" fill="#39a44c"></rect><text x="614" y="41" font-size="12.5" font-weight="700" text-anchor="start" fill="#1f2328" font-family="ui-monospace,SFMono-Regular,Menlo,monospace">99.4%</text><text x="692" y="41" font-size="11" font-weight="400" text-anchor="start" fill="#656d76">2 fails</text><text x="8" y="79" font-size="13" font-weight="600" text-anchor="start" fill="#1f2328">openai</text><rect x="132" y="69" width="468" height="12" rx="6" fill="#eaeef2"></rect><rect x="132" y="69" width="459.58" height="12" rx="6" fill="#50a547"></rect><text x="614" y="79" font-size="12.5" font-weight="700" text-anchor="start" fill="#1f2328" font-family="ui-monospace,SFMono-Regular,Menlo,monospace">98.2%</text><text x="692" y="79" font-size="11" font-weight="400" text-anchor="start" fill="#656d76">6 fails</text><text x="8" y="117" font-size="13" font-weight="600" text-anchor="start" fill="#1f2328">llama</text><rect x="132" y="107" width="468" height="12" rx="6" fill="#eaeef2"></rect><rect x="132" y="107" width="440.86" height="12" rx="6" fill="#baa731"></rect><text x="614" y="117" font-size="12.5" font-weight="700" text-anchor="start" fill="#1f2328" font-family="ui-monospace,SFMono-Regular,Menlo,monospace">94.2%</text><text x="692" y="117" font-size="11" font-weight="400" text-anchor="start" fill="#656d76">18 fails</text><text x="8" y="155" font-size="13" font-weight="600" text-anchor="start" fill="#1f2328">deepseek</text><rect x="132" y="145" width="468" height="12" rx="6" fill="#eaeef2"></rect><rect x="132" y="145" width="426.35" height="12" rx="6" fill="#d77a3e"></rect><text x="614" y="155" font-size="12.5" font-weight="700" text-anchor="start" fill="#1f2328" font-family="ui-monospace,SFMono-Regular,Menlo,monospace">91.1%</text><text x="692" y="155" font-size="11" font-weight="400" text-anchor="start" fill="#656d76">24 fails</text><text x="8" y="193" font-size="13" font-weight="600" text-anchor="start" fill="#1f2328">gemini</text><rect x="132" y="183" width="468" height="12" rx="6" fill="#eaeef2"></rect><rect x="132" y="183" width="381.42" height="12" rx="6" fill="#e06744"></rect><text x="614" y="193" font-size="12.5" font-weight="700" text-anchor="start" fill="#1f2328" font-family="ui-monospace,SFMono-Regular,Menlo,monospace">81.5%</text><text x="692" y="193" font-size="11" font-weight="400" text-anchor="start" fill="#656d76">58 fails</text><text x="8" y="231" font-size="13" font-weight="600" text-anchor="start" fill="#1f2328">anthropic</text><rect x="132" y="221" width="468" height="12" rx="6" fill="#eaeef2"></rect><rect x="132" y="221" width="357.55" height="12" rx="6" fill="#e16644"></rect><text x="614" y="231" font-size="12.5" font-weight="700" text-anchor="start" fill="#1f2328" font-family="ui-monospace,SFMono-Regular,Menlo,monospace">76.4%</text><text x="692" y="231" font-size="11" font-weight="400" text-anchor="start" fill="#656d76">83 fails</text></svg>
