<svg xmlns="http://www.w3.org/2000/svg" viewBox="0 0 760 256" width="760" height="256" role="img" aria-label="Pass rate by provider" font-family="-apple-system,BlinkMacSystemFont,'Segoe UI',system-ui,sans-serif"><line x1="553.2" y1="14" x2="553.2" y2="240" stroke="#30363d" stroke-width="1" stroke-dasharray="2 4"></line><text x="553.2" y="10" font-size="9" font-weight="400" text-anchor="middle" fill="#8b949e">90%</text><line x1="576.6" y1="14" x2="576.6" y2="240" stroke="#30363d" stroke-width="1" stroke-dasharray="2 4"></line><text x="576.6" y="10" font-size="9" font-weight="400" text-anchor="middle" fill="#8b949e">95%</text><line x1="600" y1="14" x2="600" y2="240" stroke="#30363d" stroke-width="1" stroke-dasharray="2 4"></line><text x="600" y="10" font-size="9" font-weight="400" text-anchor="middle" fill="#8b949e">100%</text><text x="8" y="41" font-size="13" font-weight="600" text-anchor="start" fill="#e6edf3">mistral</text><rect x="132" y="31" width="468" height="12" rx="6" fill="#21262d"></rect><rect x="132" y="31" width="463.79" height="12" rx="6" fill="#3ea44a"></rect><text x="614" y="41" font-size="12.5" font-weight="700" text-anchor="start" fill="#e6edf3" font-family="ui-monospace,SFMono-Regular,Menlo,monospace">99.1%</text><text x="692" y="41" font-size="11" font-weight="400" text-anchor="start" fill="#8b949e">2 fails</text><text x="8" y="79" font-size="13" font-weight="600" text-anchor="start" fill="#e6edf3">openai</text><rect x="132" y="69" width="468" height="12" rx="6" fill="#21262d"></rect><rect x="132" y="69" width="458.17" height="12" rx="6" fill="#56a546"></rect><text x="614" y="79" font-size="12.5" font-weight="700" text-anchor="start" fill="#e6edf3" font-family="ui-monospace,SFMono-Regular,Menlo,monospace">97.9%</text><text x="692" y="79" font-size="11" font-weight="400" text-anchor="start" fill="#8b949e">5 fails</text><text x="8" y="117" font-size="13" font-weight="600" text-anchor="start" fill="#e6edf3">anthropic</text><rect x="132" y="107" width="468" height="12" rx="6" fill="#21262d"></rect><rect x="132" y="107" width="451.15" height="12" rx="6" fill="#79a53e"></rect><text x="614" y="117" font-size="12.5" font-weight="700" text-anchor="start" fill="#e6edf3" font-family="ui-monospace,SFMono-Regular,Menlo,monospace">96.4%</text><text x="692" y="117" font-size="11" font-weight="400" text-anchor="start" fill="#8b949e">9 fails</text><text x="8" y="155" font-size="13" font-weight="600" text-anchor="start" fill="#e6edf3">llama</text><rect x="132" y="145" width="468" height="12" rx="6" fill="#21262d"></rect><rect x="132" y="145" width="438.52" height="12" rx="6" fill="#c2a231"></rect><text x="614" y="155" font-size="12.5" font-weight="700" text-anchor="start" fill="#e6edf3" font-family="ui-monospace,SFMono-Regular,Menlo,monospace">93.7%</text><text x="692" y="155" font-size="11" font-weight="400" text-anchor="start" fill="#8b949e">14 fails</text><text x="8" y="193" font-size="13" font-weight="600" text-anchor="start" fill="#e6edf3">deepseek</text><rect x="132" y="183" width="468" height="12" rx="6" fill="#21262d"></rect><rect x="132" y="183" width="429.16" height="12" rx="6" fill="#d2833b"></rect><text x="614" y="193" font-size="12.5" font-weight="700" text-anchor="start" fill="#e6edf3" font-family="ui-monospace,SFMono-Regular,Menlo,monospace">91.7%</text><text x="692" y="193" font-size="11" font-weight="400" text-anchor="start" fill="#8b949e">15 fails</text><text x="8" y="231" font-size="13" font-weight="600" text-anchor="start" fill="#e6edf3">gemini</text><rect x="132" y="221" width="468" height="12" rx="6" fill="#21262d"></rect><rect x="132" y="221" width="353.81" height="12" rx="6" fill="#e16544"></rect><text x="614" y="231" font-size="12.5" font-weight="700" text-anchor="start" fill="#e6edf3" font-family="ui-monospace,SFMono-Regular,Menlo,monospace">75.6%</text><text x="692" y="231" font-size="11" font-weight="400" text-anchor="start" fill="#8b949e">57 fails</text></svg>
