<svg xmlns="http://www.w3.org/2000/svg" viewBox="0 0 760 254" width="760" height="254" role="img" aria-label="Token split readiness vs extraction" font-family="-apple-system,BlinkMacSystemFont,'Segoe UI',system-ui,sans-serif"><rect x="110" y="18" width="11" height="11" rx="2.5" fill="#7C8BA5"></rect><text x="127" y="28" font-size="11" font-weight="400" text-anchor="start" fill="#656d76">Readiness (assessment)</text><rect x="300" y="18" width="11" height="11" rx="2.5" fill="#6E6BE8"></rect><text x="317" y="28" font-size="11" font-weight="400" text-anchor="start" fill="#656d76">Extraction (contract)</text><text x="8" y="63" font-size="12.5" font-weight="600" text-anchor="start" fill="#1f2328">mistral</text><rect x="110" y="51" width="156.43" height="16" rx="3" fill="#7C8BA5"></rect><rect x="266.43" y="51" width="357.57" height="16" rx="3" fill="#6E6BE8"></rect><text x="445.22" y="63" font-size="10.5" font-weight="600" text-anchor="middle" fill="#fff">70%</text><text x="636" y="63" font-size="11.5" font-weight="600" text-anchor="start" fill="#1f2328" font-family="ui-monospace,SFMono-Regular,Menlo,monospace">15.1M</text><text x="8" y="97" font-size="12.5" font-weight="600" text-anchor="start" fill="#1f2328">openai</text><rect x="110" y="85" width="57.25" height="16" rx="3" fill="#7C8BA5"></rect><rect x="167.25" y="85" width="357.84" height="16" rx="3" fill="#6E6BE8"></rect><text x="346.17" y="97" font-size="10.5" font-weight="600" text-anchor="middle" fill="#fff">86%</text><text x="636" y="97" font-size="11.5" font-weight="600" text-anchor="start" fill="#1f2328" font-family="ui-monospace,SFMono-Regular,Menlo,monospace">12.2M</text><text x="8" y="131" font-size="12.5" font-weight="600" text-anchor="start" fill="#1f2328">llama</text><rect x="110" y="119" width="46.43" height="16" rx="3" fill="#7C8BA5"></rect><rect x="156.43" y="119" width="340.64" height="16" rx="3" fill="#6E6BE8"></rect><text x="326.75" y="131" font-size="10.5" font-weight="600" text-anchor="middle" fill="#fff">88%</text><text x="636" y="131" font-size="11.5" font-weight="600" text-anchor="start" fill="#1f2328" font-family="ui-monospace,SFMono-Regular,Menlo,monospace">11.4M</text><text x="8" y="165" font-size="12.5" font-weight="600" text-anchor="start" fill="#1f2328">deepseek</text><rect x="110" y="153" width="39.51" height="16" rx="3" fill="#7C8BA5"></rect><rect x="149.51" y="153" width="313.13" height="16" rx="3" fill="#6E6BE8"></rect><text x="306.08" y="165" font-size="10.5" font-weight="600" text-anchor="middle" fill="#fff">89%</text><text x="636" y="165" font-size="11.5" font-weight="600" text-anchor="start" fill="#1f2328" font-family="ui-monospace,SFMono-Regular,Menlo,monospace">10.4M</text><text x="8" y="199" font-size="12.5" font-weight="600" text-anchor="start" fill="#1f2328">gemini</text><rect x="110" y="187" width="61.92" height="16" rx="3" fill="#7C8BA5"></rect><rect x="171.92" y="187" width="283.17" height="16" rx="3" fill="#6E6BE8"></rect><text x="313.5" y="199" font-size="10.5" font-weight="600" text-anchor="middle" fill="#fff">82%</text><text x="636" y="199" font-size="11.5" font-weight="600" text-anchor="start" fill="#1f2328" font-family="ui-monospace,SFMono-Regular,Menlo,monospace">10.1M</text><text x="8" y="233" font-size="12.5" font-weight="600" text-anchor="start" fill="#1f2328">anthropic</text><rect x="110" y="221" width="70.26" height="16" rx="3" fill="#7C8BA5"></rect><rect x="180.26" y="221" width="97.83" height="16" rx="3" fill="#6E6BE8"></rect><text x="229.17" y="233" font-size="10.5" font-weight="600" text-anchor="middle" fill="#fff">58%</text><text x="636" y="233" font-size="11.5" font-weight="600" text-anchor="start" fill="#1f2328" font-family="ui-monospace,SFMono-Regular,Menlo,monospace">4.9M</text></svg>
