<svg xmlns="http://www.w3.org/2000/svg" viewBox="0 0 760 254" width="760" height="254" role="img" aria-label="Token split readiness vs extraction" font-family="-apple-system,BlinkMacSystemFont,'Segoe UI',system-ui,sans-serif"><rect x="110" y="18" width="11" height="11" rx="2.5" fill="#7C8BA5"></rect><text x="127" y="28" font-size="11" font-weight="400" text-anchor="start" fill="#656d76">Readiness (assessment)</text><rect x="300" y="18" width="11" height="11" rx="2.5" fill="#6E6BE8"></rect><text x="317" y="28" font-size="11" font-weight="400" text-anchor="start" fill="#656d76">Extraction (contract)</text><text x="8" y="63" font-size="12.5" font-weight="600" text-anchor="start" fill="#1f2328">mistral</text><rect x="110" y="51" width="122.24" height="16" rx="3" fill="#7C8BA5"></rect><rect x="232.24" y="51" width="391.76" height="16" rx="3" fill="#6E6BE8"></rect><text x="428.12" y="63" font-size="10.5" font-weight="600" text-anchor="middle" fill="#fff">76%</text><text x="636" y="63" font-size="11.5" font-weight="600" text-anchor="start" fill="#1f2328" font-family="ui-monospace,SFMono-Regular,Menlo,monospace">19.3M</text><text x="8" y="97" font-size="12.5" font-weight="600" text-anchor="start" fill="#1f2328">deepseek</text><rect x="110" y="85" width="30.88" height="16" rx="3" fill="#7C8BA5"></rect><rect x="140.88" y="85" width="372.52" height="16" rx="3" fill="#6E6BE8"></rect><text x="327.14" y="97" font-size="10.5" font-weight="600" text-anchor="middle" fill="#fff">92%</text><text x="636" y="97" font-size="11.5" font-weight="600" text-anchor="start" fill="#1f2328" font-family="ui-monospace,SFMono-Regular,Menlo,monospace">15.2M</text><text x="8" y="131" font-size="12.5" font-weight="600" text-anchor="start" fill="#1f2328">llama</text><rect x="110" y="119" width="36.28" height="16" rx="3" fill="#7C8BA5"></rect><rect x="146.28" y="119" width="360.38" height="16" rx="3" fill="#6E6BE8"></rect><text x="326.48" y="131" font-size="10.5" font-weight="600" text-anchor="middle" fill="#fff">91%</text><text x="636" y="131" font-size="11.5" font-weight="600" text-anchor="start" fill="#1f2328" font-family="ui-monospace,SFMono-Regular,Menlo,monospace">14.9M</text><text x="8" y="165" font-size="12.5" font-weight="600" text-anchor="start" fill="#1f2328">openai</text><rect x="110" y="153" width="44.74" height="16" rx="3" fill="#7C8BA5"></rect><rect x="154.74" y="153" width="347.62" height="16" rx="3" fill="#6E6BE8"></rect><text x="328.55" y="165" font-size="10.5" font-weight="600" text-anchor="middle" fill="#fff">89%</text><text x="636" y="165" font-size="11.5" font-weight="600" text-anchor="start" fill="#1f2328" font-family="ui-monospace,SFMono-Regular,Menlo,monospace">14.8M</text><text x="8" y="199" font-size="12.5" font-weight="600" text-anchor="start" fill="#1f2328">gemini</text><rect x="110" y="187" width="48.39" height="16" rx="3" fill="#7C8BA5"></rect><rect x="158.39" y="187" width="324.81" height="16" rx="3" fill="#6E6BE8"></rect><text x="320.79" y="199" font-size="10.5" font-weight="600" text-anchor="middle" fill="#fff">87%</text><text x="636" y="199" font-size="11.5" font-weight="600" text-anchor="start" fill="#1f2328" font-family="ui-monospace,SFMono-Regular,Menlo,monospace">14.0M</text><text x="8" y="233" font-size="12.5" font-weight="600" text-anchor="start" fill="#1f2328">anthropic</text><rect x="110" y="221" width="54.9" height="16" rx="3" fill="#7C8BA5"></rect><rect x="164.9" y="221" width="76.45" height="16" rx="3" fill="#6E6BE8"></rect><text x="203.13" y="233" font-size="10.5" font-weight="600" text-anchor="middle" fill="#fff">58%</text><text x="636" y="233" font-size="11.5" font-weight="600" text-anchor="start" fill="#1f2328" font-family="ui-monospace,SFMono-Regular,Menlo,monospace">4.9M</text></svg>
