<svg xmlns="http://www.w3.org/2000/svg" viewBox="0 0 760 254" width="760" height="254" role="img" aria-label="Token split readiness vs extraction" font-family="-apple-system,BlinkMacSystemFont,'Segoe UI',system-ui,sans-serif"><rect x="110" y="18" width="11" height="11" rx="2.5" fill="#7C8BA5"></rect><text x="127" y="28" font-size="11" font-weight="400" text-anchor="start" fill="#8b949e">Readiness (assessment)</text><rect x="300" y="18" width="11" height="11" rx="2.5" fill="#6E6BE8"></rect><text x="317" y="28" font-size="11" font-weight="400" text-anchor="start" fill="#8b949e">Extraction (contract)</text><text x="8" y="63" font-size="12.5" font-weight="600" text-anchor="start" fill="#e6edf3">mistral</text><rect x="110" y="51" width="119.73" height="16" rx="3" fill="#7C8BA5"></rect><rect x="229.73" y="51" width="394.27" height="16" rx="3" fill="#6E6BE8"></rect><text x="426.86" y="63" font-size="10.5" font-weight="600" text-anchor="middle" fill="#fff">77%</text><text x="636" y="63" font-size="11.5" font-weight="600" text-anchor="start" fill="#e6edf3" font-family="ui-monospace,SFMono-Regular,Menlo,monospace">19.7M</text><text x="8" y="97" font-size="12.5" font-weight="600" text-anchor="start" fill="#e6edf3">deepseek</text><rect x="110" y="85" width="30.24" height="16" rx="3" fill="#7C8BA5"></rect><rect x="140.24" y="85" width="377.09" height="16" rx="3" fill="#6E6BE8"></rect><text x="328.79" y="97" font-size="10.5" font-weight="600" text-anchor="middle" fill="#fff">93%</text><text x="636" y="97" font-size="11.5" font-weight="600" text-anchor="start" fill="#e6edf3" font-family="ui-monospace,SFMono-Regular,Menlo,monospace">15.6M</text><text x="8" y="131" font-size="12.5" font-weight="600" text-anchor="start" fill="#e6edf3">llama</text><rect x="110" y="119" width="35.54" height="16" rx="3" fill="#7C8BA5"></rect><rect x="145.54" y="119" width="362.16" height="16" rx="3" fill="#6E6BE8"></rect><text x="326.62" y="131" font-size="10.5" font-weight="600" text-anchor="middle" fill="#fff">91%</text><text x="636" y="131" font-size="11.5" font-weight="600" text-anchor="start" fill="#e6edf3" font-family="ui-monospace,SFMono-Regular,Menlo,monospace">15.3M</text><text x="8" y="165" font-size="12.5" font-weight="600" text-anchor="start" fill="#e6edf3">openai</text><rect x="110" y="153" width="43.82" height="16" rx="3" fill="#7C8BA5"></rect><rect x="153.82" y="153" width="350.58" height="16" rx="3" fill="#6E6BE8"></rect><text x="329.11" y="165" font-size="10.5" font-weight="600" text-anchor="middle" fill="#fff">89%</text><text x="636" y="165" font-size="11.5" font-weight="600" text-anchor="start" fill="#e6edf3" font-family="ui-monospace,SFMono-Regular,Menlo,monospace">15.2M</text><text x="8" y="199" font-size="12.5" font-weight="600" text-anchor="start" fill="#e6edf3">gemini</text><rect x="110" y="187" width="47.39" height="16" rx="3" fill="#7C8BA5"></rect><rect x="157.39" y="187" width="327.46" height="16" rx="3" fill="#6E6BE8"></rect><text x="321.12" y="199" font-size="10.5" font-weight="600" text-anchor="middle" fill="#fff">87%</text><text x="636" y="199" font-size="11.5" font-weight="600" text-anchor="start" fill="#e6edf3" font-family="ui-monospace,SFMono-Regular,Menlo,monospace">14.4M</text><text x="8" y="233" font-size="12.5" font-weight="600" text-anchor="start" fill="#e6edf3">anthropic</text><rect x="110" y="221" width="53.77" height="16" rx="3" fill="#7C8BA5"></rect><rect x="163.77" y="221" width="74.88" height="16" rx="3" fill="#6E6BE8"></rect><text x="201.21" y="233" font-size="10.5" font-weight="600" text-anchor="middle" fill="#fff">58%</text><text x="636" y="233" font-size="11.5" font-weight="600" text-anchor="start" fill="#e6edf3" font-family="ui-monospace,SFMono-Regular,Menlo,monospace">4.9M</text></svg>
