<svg xmlns="http://www.w3.org/2000/svg" viewBox="0 0 760 254" width="760" height="254" role="img" aria-label="Token split readiness vs extraction" font-family="-apple-system,BlinkMacSystemFont,'Segoe UI',system-ui,sans-serif"><rect x="110" y="18" width="11" height="11" rx="2.5" fill="#7C8BA5"></rect><text x="127" y="28" font-size="11" font-weight="400" text-anchor="start" fill="#656d76">Readiness (assessment)</text><rect x="300" y="18" width="11" height="11" rx="2.5" fill="#6E6BE8"></rect><text x="317" y="28" font-size="11" font-weight="400" text-anchor="start" fill="#656d76">Extraction (contract)</text><text x="8" y="63" font-size="12.5" font-weight="600" text-anchor="start" fill="#1f2328">mistral</text><rect x="110" y="51" width="135.54" height="16" rx="3" fill="#7C8BA5"></rect><rect x="245.54" y="51" width="378.46" height="16" rx="3" fill="#6E6BE8"></rect><text x="434.77" y="63" font-size="10.5" font-weight="600" text-anchor="middle" fill="#fff">74%</text><text x="636" y="63" font-size="11.5" font-weight="600" text-anchor="start" fill="#1f2328" font-family="ui-monospace,SFMono-Regular,Menlo,monospace">17.4M</text><text x="8" y="97" font-size="12.5" font-weight="600" text-anchor="start" fill="#1f2328">openai</text><rect x="110" y="85" width="49.61" height="16" rx="3" fill="#7C8BA5"></rect><rect x="159.61" y="85" width="364.42" height="16" rx="3" fill="#6E6BE8"></rect><text x="341.81" y="97" font-size="10.5" font-weight="600" text-anchor="middle" fill="#fff">88%</text><text x="636" y="97" font-size="11.5" font-weight="600" text-anchor="start" fill="#1f2328" font-family="ui-monospace,SFMono-Regular,Menlo,monospace">14.0M</text><text x="8" y="131" font-size="12.5" font-weight="600" text-anchor="start" fill="#1f2328">llama</text><rect x="110" y="119" width="40.23" height="16" rx="3" fill="#7C8BA5"></rect><rect x="150.23" y="119" width="346.14" height="16" rx="3" fill="#6E6BE8"></rect><text x="323.3" y="131" font-size="10.5" font-weight="600" text-anchor="middle" fill="#fff">90%</text><text x="636" y="131" font-size="11.5" font-weight="600" text-anchor="start" fill="#1f2328" font-family="ui-monospace,SFMono-Regular,Menlo,monospace">13.1M</text><text x="8" y="165" font-size="12.5" font-weight="600" text-anchor="start" fill="#1f2328">deepseek</text><rect x="110" y="153" width="34.24" height="16" rx="3" fill="#7C8BA5"></rect><rect x="144.24" y="153" width="343.11" height="16" rx="3" fill="#6E6BE8"></rect><text x="315.79" y="165" font-size="10.5" font-weight="600" text-anchor="middle" fill="#fff">91%</text><text x="636" y="165" font-size="11.5" font-weight="600" text-anchor="start" fill="#1f2328" font-family="ui-monospace,SFMono-Regular,Menlo,monospace">12.8M</text><text x="8" y="199" font-size="12.5" font-weight="600" text-anchor="start" fill="#1f2328">gemini</text><rect x="110" y="187" width="53.65" height="16" rx="3" fill="#7C8BA5"></rect><rect x="163.65" y="187" width="296.98" height="16" rx="3" fill="#6E6BE8"></rect><text x="312.14" y="199" font-size="10.5" font-weight="600" text-anchor="middle" fill="#fff">85%</text><text x="636" y="199" font-size="11.5" font-weight="600" text-anchor="start" fill="#1f2328" font-family="ui-monospace,SFMono-Regular,Menlo,monospace">11.9M</text><text x="8" y="233" font-size="12.5" font-weight="600" text-anchor="start" fill="#1f2328">anthropic</text><rect x="110" y="221" width="60.87" height="16" rx="3" fill="#7C8BA5"></rect><rect x="170.87" y="221" width="84.76" height="16" rx="3" fill="#6E6BE8"></rect><text x="213.25" y="233" font-size="10.5" font-weight="600" text-anchor="middle" fill="#fff">58%</text><text x="636" y="233" font-size="11.5" font-weight="600" text-anchor="start" fill="#1f2328" font-family="ui-monospace,SFMono-Regular,Menlo,monospace">4.9M</text></svg>
