<svg xmlns="http://www.w3.org/2000/svg" viewBox="0 0 760 254" width="760" height="254" role="img" aria-label="Token split readiness vs extraction" font-family="-apple-system,BlinkMacSystemFont,'Segoe UI',system-ui,sans-serif"><rect x="110" y="18" width="11" height="11" rx="2.5" fill="#7C8BA5"></rect><text x="127" y="28" font-size="11" font-weight="400" text-anchor="start" fill="#656d76">Readiness (assessment)</text><rect x="300" y="18" width="11" height="11" rx="2.5" fill="#6E6BE8"></rect><text x="317" y="28" font-size="11" font-weight="400" text-anchor="start" fill="#656d76">Extraction (contract)</text><text x="8" y="63" font-size="12.5" font-weight="600" text-anchor="start" fill="#1f2328">mistral</text><rect x="110" y="51" width="168.11" height="16" rx="3" fill="#7C8BA5"></rect><rect x="278.11" y="51" width="345.89" height="16" rx="3" fill="#6E6BE8"></rect><text x="451.05" y="63" font-size="10.5" font-weight="600" text-anchor="middle" fill="#fff">67%</text><text x="636" y="63" font-size="11.5" font-weight="600" text-anchor="start" fill="#1f2328" font-family="ui-monospace,SFMono-Regular,Menlo,monospace">14.1M</text><text x="8" y="97" font-size="12.5" font-weight="600" text-anchor="start" fill="#1f2328">openai</text><rect x="110" y="85" width="61.53" height="16" rx="3" fill="#7C8BA5"></rect><rect x="171.53" y="85" width="352.64" height="16" rx="3" fill="#6E6BE8"></rect><text x="347.85" y="97" font-size="10.5" font-weight="600" text-anchor="middle" fill="#fff">85%</text><text x="636" y="97" font-size="11.5" font-weight="600" text-anchor="start" fill="#1f2328" font-family="ui-monospace,SFMono-Regular,Menlo,monospace">11.3M</text><text x="8" y="131" font-size="12.5" font-weight="600" text-anchor="start" fill="#1f2328">llama</text><rect x="110" y="119" width="49.9" height="16" rx="3" fill="#7C8BA5"></rect><rect x="159.9" y="119" width="327.6" height="16" rx="3" fill="#6E6BE8"></rect><text x="323.7" y="131" font-size="10.5" font-weight="600" text-anchor="middle" fill="#fff">87%</text><text x="636" y="131" font-size="11.5" font-weight="600" text-anchor="start" fill="#1f2328" font-family="ui-monospace,SFMono-Regular,Menlo,monospace">10.3M</text><text x="8" y="165" font-size="12.5" font-weight="600" text-anchor="start" fill="#1f2328">gemini</text><rect x="110" y="153" width="66.54" height="16" rx="3" fill="#7C8BA5"></rect><rect x="176.54" y="153" width="270.19" height="16" rx="3" fill="#6E6BE8"></rect><text x="311.63" y="165" font-size="10.5" font-weight="600" text-anchor="middle" fill="#fff">80%</text><text x="636" y="165" font-size="11.5" font-weight="600" text-anchor="start" fill="#1f2328" font-family="ui-monospace,SFMono-Regular,Menlo,monospace">9.2M</text><text x="8" y="199" font-size="12.5" font-weight="600" text-anchor="start" fill="#1f2328">deepseek</text><rect x="110" y="187" width="42.46" height="16" rx="3" fill="#7C8BA5"></rect><rect x="152.46" y="187" width="285.33" height="16" rx="3" fill="#6E6BE8"></rect><text x="295.13" y="199" font-size="10.5" font-weight="600" text-anchor="middle" fill="#fff">87%</text><text x="636" y="199" font-size="11.5" font-weight="600" text-anchor="start" fill="#1f2328" font-family="ui-monospace,SFMono-Regular,Menlo,monospace">9.0M</text><text x="8" y="233" font-size="12.5" font-weight="600" text-anchor="start" fill="#1f2328">anthropic</text><rect x="110" y="221" width="75.5" height="16" rx="3" fill="#7C8BA5"></rect><rect x="185.5" y="221" width="105.13" height="16" rx="3" fill="#6E6BE8"></rect><text x="238.07" y="233" font-size="10.5" font-weight="600" text-anchor="middle" fill="#fff">58%</text><text x="636" y="233" font-size="11.5" font-weight="600" text-anchor="start" fill="#1f2328" font-family="ui-monospace,SFMono-Regular,Menlo,monospace">4.9M</text></svg>
