<svg xmlns="http://www.w3.org/2000/svg" viewBox="0 0 760 254" width="760" height="254" role="img" aria-label="Token split readiness vs extraction" font-family="-apple-system,BlinkMacSystemFont,'Segoe UI',system-ui,sans-serif"><rect x="110" y="18" width="11" height="11" rx="2.5" fill="#7C8BA5"></rect><text x="127" y="28" font-size="11" font-weight="400" text-anchor="start" fill="#8b949e">Readiness (assessment)</text><rect x="300" y="18" width="11" height="11" rx="2.5" fill="#6E6BE8"></rect><text x="317" y="28" font-size="11" font-weight="400" text-anchor="start" fill="#8b949e">Extraction (contract)</text><text x="8" y="63" font-size="12.5" font-weight="600" text-anchor="start" fill="#e6edf3">mistral</text><rect x="110" y="51" width="189.56" height="16" rx="3" fill="#7C8BA5"></rect><rect x="299.56" y="51" width="324.44" height="16" rx="3" fill="#6E6BE8"></rect><text x="461.78" y="63" font-size="10.5" font-weight="600" text-anchor="middle" fill="#fff">63%</text><text x="636" y="63" font-size="11.5" font-weight="600" text-anchor="start" fill="#e6edf3" font-family="ui-monospace,SFMono-Regular,Menlo,monospace">12.5M</text><text x="8" y="97" font-size="12.5" font-weight="600" text-anchor="start" fill="#e6edf3">openai</text><rect x="110" y="85" width="69.38" height="16" rx="3" fill="#7C8BA5"></rect><rect x="179.38" y="85" width="336.55" height="16" rx="3" fill="#6E6BE8"></rect><text x="347.65" y="97" font-size="10.5" font-weight="600" text-anchor="middle" fill="#fff">83%</text><text x="636" y="97" font-size="11.5" font-weight="600" text-anchor="start" fill="#e6edf3" font-family="ui-monospace,SFMono-Regular,Menlo,monospace">9.8M</text><text x="8" y="131" font-size="12.5" font-weight="600" text-anchor="start" fill="#e6edf3">llama</text><rect x="110" y="119" width="56.26" height="16" rx="3" fill="#7C8BA5"></rect><rect x="166.26" y="119" width="316.91" height="16" rx="3" fill="#6E6BE8"></rect><text x="324.72" y="131" font-size="10.5" font-weight="600" text-anchor="middle" fill="#fff">85%</text><text x="636" y="131" font-size="11.5" font-weight="600" text-anchor="start" fill="#e6edf3" font-family="ui-monospace,SFMono-Regular,Menlo,monospace">9.1M</text><text x="8" y="165" font-size="12.5" font-weight="600" text-anchor="start" fill="#e6edf3">gemini</text><rect x="110" y="153" width="75.03" height="16" rx="3" fill="#7C8BA5"></rect><rect x="185.03" y="153" width="248.64" height="16" rx="3" fill="#6E6BE8"></rect><text x="309.35" y="165" font-size="10.5" font-weight="600" text-anchor="middle" fill="#fff">77%</text><text x="636" y="165" font-size="11.5" font-weight="600" text-anchor="start" fill="#e6edf3" font-family="ui-monospace,SFMono-Regular,Menlo,monospace">7.9M</text><text x="8" y="199" font-size="12.5" font-weight="600" text-anchor="start" fill="#e6edf3">deepseek</text><rect x="110" y="187" width="47.88" height="16" rx="3" fill="#7C8BA5"></rect><rect x="157.88" y="187" width="262.37" height="16" rx="3" fill="#6E6BE8"></rect><text x="289.07" y="199" font-size="10.5" font-weight="600" text-anchor="middle" fill="#fff">85%</text><text x="636" y="199" font-size="11.5" font-weight="600" text-anchor="start" fill="#e6edf3" font-family="ui-monospace,SFMono-Regular,Menlo,monospace">7.5M</text><text x="8" y="233" font-size="12.5" font-weight="600" text-anchor="start" fill="#e6edf3">anthropic</text><rect x="110" y="221" width="85.14" height="16" rx="3" fill="#7C8BA5"></rect><rect x="195.14" y="221" width="101.3" height="16" rx="3" fill="#6E6BE8"></rect><text x="245.79" y="233" font-size="10.5" font-weight="600" text-anchor="middle" fill="#fff">54%</text><text x="636" y="233" font-size="11.5" font-weight="600" text-anchor="start" fill="#e6edf3" font-family="ui-monospace,SFMono-Regular,Menlo,monospace">4.5M</text></svg>
