<svg xmlns="http://www.w3.org/2000/svg" viewBox="0 0 760 254" width="760" height="254" role="img" aria-label="Token split readiness vs extraction" font-family="-apple-system,BlinkMacSystemFont,'Segoe UI',system-ui,sans-serif"><rect x="110" y="18" width="11" height="11" rx="2.5" fill="#7C8BA5"></rect><text x="127" y="28" font-size="11" font-weight="400" text-anchor="start" fill="#656d76">Readiness (assessment)</text><rect x="300" y="18" width="11" height="11" rx="2.5" fill="#6E6BE8"></rect><text x="317" y="28" font-size="11" font-weight="400" text-anchor="start" fill="#656d76">Extraction (contract)</text><text x="8" y="63" font-size="12.5" font-weight="600" text-anchor="start" fill="#1f2328">mistral</text><rect x="110" y="51" width="160.01" height="16" rx="3" fill="#7C8BA5"></rect><rect x="270.01" y="51" width="353.99" height="16" rx="3" fill="#6E6BE8"></rect><text x="447" y="63" font-size="10.5" font-weight="600" text-anchor="middle" fill="#fff">69%</text><text x="636" y="63" font-size="11.5" font-weight="600" text-anchor="start" fill="#1f2328" font-family="ui-monospace,SFMono-Regular,Menlo,monospace">14.8M</text><text x="8" y="97" font-size="12.5" font-weight="600" text-anchor="start" fill="#1f2328">openai</text><rect x="110" y="85" width="58.56" height="16" rx="3" fill="#7C8BA5"></rect><rect x="168.56" y="85" width="359.21" height="16" rx="3" fill="#6E6BE8"></rect><text x="348.17" y="97" font-size="10.5" font-weight="600" text-anchor="middle" fill="#fff">86%</text><text x="636" y="97" font-size="11.5" font-weight="600" text-anchor="start" fill="#1f2328" font-family="ui-monospace,SFMono-Regular,Menlo,monospace">12.0M</text><text x="8" y="131" font-size="12.5" font-weight="600" text-anchor="start" fill="#1f2328">llama</text><rect x="110" y="119" width="47.49" height="16" rx="3" fill="#7C8BA5"></rect><rect x="157.49" y="119" width="342.83" height="16" rx="3" fill="#6E6BE8"></rect><text x="328.91" y="131" font-size="10.5" font-weight="600" text-anchor="middle" fill="#fff">88%</text><text x="636" y="131" font-size="11.5" font-weight="600" text-anchor="start" fill="#1f2328" font-family="ui-monospace,SFMono-Regular,Menlo,monospace">11.2M</text><text x="8" y="165" font-size="12.5" font-weight="600" text-anchor="start" fill="#1f2328">deepseek</text><rect x="110" y="153" width="40.42" height="16" rx="3" fill="#7C8BA5"></rect><rect x="150.42" y="153" width="306.45" height="16" rx="3" fill="#6E6BE8"></rect><text x="303.64" y="165" font-size="10.5" font-weight="600" text-anchor="middle" fill="#fff">88%</text><text x="636" y="165" font-size="11.5" font-weight="600" text-anchor="start" fill="#1f2328" font-family="ui-monospace,SFMono-Regular,Menlo,monospace">10.0M</text><text x="8" y="199" font-size="12.5" font-weight="600" text-anchor="start" fill="#1f2328">gemini</text><rect x="110" y="187" width="63.33" height="16" rx="3" fill="#7C8BA5"></rect><rect x="173.33" y="187" width="283.41" height="16" rx="3" fill="#6E6BE8"></rect><text x="315.04" y="199" font-size="10.5" font-weight="600" text-anchor="middle" fill="#fff">82%</text><text x="636" y="199" font-size="11.5" font-weight="600" text-anchor="start" fill="#1f2328" font-family="ui-monospace,SFMono-Regular,Menlo,monospace">10.0M</text><text x="8" y="233" font-size="12.5" font-weight="600" text-anchor="start" fill="#1f2328">anthropic</text><rect x="110" y="221" width="71.86" height="16" rx="3" fill="#7C8BA5"></rect><rect x="181.86" y="221" width="100.07" height="16" rx="3" fill="#6E6BE8"></rect><text x="231.9" y="233" font-size="10.5" font-weight="600" text-anchor="middle" fill="#fff">58%</text><text x="636" y="233" font-size="11.5" font-weight="600" text-anchor="start" fill="#1f2328" font-family="ui-monospace,SFMono-Regular,Menlo,monospace">4.9M</text></svg>
