<svg xmlns="http://www.w3.org/2000/svg" viewBox="0 0 760 254" width="760" height="254" role="img" aria-label="Token split readiness vs extraction" font-family="-apple-system,BlinkMacSystemFont,'Segoe UI',system-ui,sans-serif"><rect x="110" y="18" width="11" height="11" rx="2.5" fill="#7C8BA5"></rect><text x="127" y="28" font-size="11" font-weight="400" text-anchor="start" fill="#656d76">Readiness (assessment)</text><rect x="300" y="18" width="11" height="11" rx="2.5" fill="#6E6BE8"></rect><text x="317" y="28" font-size="11" font-weight="400" text-anchor="start" fill="#656d76">Extraction (contract)</text><text x="8" y="63" font-size="12.5" font-weight="600" text-anchor="start" fill="#1f2328">mistral</text><rect x="110" y="51" width="151.06" height="16" rx="3" fill="#7C8BA5"></rect><rect x="261.06" y="51" width="362.94" height="16" rx="3" fill="#6E6BE8"></rect><text x="442.53" y="63" font-size="10.5" font-weight="600" text-anchor="middle" fill="#fff">71%</text><text x="636" y="63" font-size="11.5" font-weight="600" text-anchor="start" fill="#1f2328" font-family="ui-monospace,SFMono-Regular,Menlo,monospace">15.7M</text><text x="8" y="97" font-size="12.5" font-weight="600" text-anchor="start" fill="#1f2328">openai</text><rect x="110" y="85" width="55.29" height="16" rx="3" fill="#7C8BA5"></rect><rect x="165.29" y="85" width="356.12" height="16" rx="3" fill="#6E6BE8"></rect><text x="343.35" y="97" font-size="10.5" font-weight="600" text-anchor="middle" fill="#fff">87%</text><text x="636" y="97" font-size="11.5" font-weight="600" text-anchor="start" fill="#1f2328" font-family="ui-monospace,SFMono-Regular,Menlo,monospace">12.5M</text><text x="8" y="131" font-size="12.5" font-weight="600" text-anchor="start" fill="#1f2328">llama</text><rect x="110" y="119" width="44.84" height="16" rx="3" fill="#7C8BA5"></rect><rect x="154.84" y="119" width="340.56" height="16" rx="3" fill="#6E6BE8"></rect><text x="325.12" y="131" font-size="10.5" font-weight="600" text-anchor="middle" fill="#fff">88%</text><text x="636" y="131" font-size="11.5" font-weight="600" text-anchor="start" fill="#1f2328" font-family="ui-monospace,SFMono-Regular,Menlo,monospace">11.7M</text><text x="8" y="165" font-size="12.5" font-weight="600" text-anchor="start" fill="#1f2328">deepseek</text><rect x="110" y="153" width="38.16" height="16" rx="3" fill="#7C8BA5"></rect><rect x="148.16" y="153" width="322.1" height="16" rx="3" fill="#6E6BE8"></rect><text x="309.21" y="165" font-size="10.5" font-weight="600" text-anchor="middle" fill="#fff">89%</text><text x="636" y="165" font-size="11.5" font-weight="600" text-anchor="start" fill="#1f2328" font-family="ui-monospace,SFMono-Regular,Menlo,monospace">11.0M</text><text x="8" y="199" font-size="12.5" font-weight="600" text-anchor="start" fill="#1f2328">gemini</text><rect x="110" y="187" width="59.79" height="16" rx="3" fill="#7C8BA5"></rect><rect x="169.79" y="187" width="286.46" height="16" rx="3" fill="#6E6BE8"></rect><text x="313.02" y="199" font-size="10.5" font-weight="600" text-anchor="middle" fill="#fff">83%</text><text x="636" y="199" font-size="11.5" font-weight="600" text-anchor="start" fill="#1f2328" font-family="ui-monospace,SFMono-Regular,Menlo,monospace">10.5M</text><text x="8" y="233" font-size="12.5" font-weight="600" text-anchor="start" fill="#1f2328">anthropic</text><rect x="110" y="221" width="67.84" height="16" rx="3" fill="#7C8BA5"></rect><rect x="177.84" y="221" width="94.47" height="16" rx="3" fill="#6E6BE8"></rect><text x="225.08" y="233" font-size="10.5" font-weight="600" text-anchor="middle" fill="#fff">58%</text><text x="636" y="233" font-size="11.5" font-weight="600" text-anchor="start" fill="#1f2328" font-family="ui-monospace,SFMono-Regular,Menlo,monospace">4.9M</text></svg>
