<svg xmlns="http://www.w3.org/2000/svg" viewBox="0 0 760 254" width="760" height="254" role="img" aria-label="Token split readiness vs extraction" font-family="-apple-system,BlinkMacSystemFont,'Segoe UI',system-ui,sans-serif"><rect x="110" y="18" width="11" height="11" rx="2.5" fill="#7C8BA5"></rect><text x="127" y="28" font-size="11" font-weight="400" text-anchor="start" fill="#8b949e">Readiness (assessment)</text><rect x="300" y="18" width="11" height="11" rx="2.5" fill="#6E6BE8"></rect><text x="317" y="28" font-size="11" font-weight="400" text-anchor="start" fill="#8b949e">Extraction (contract)</text><text x="8" y="63" font-size="12.5" font-weight="600" text-anchor="start" fill="#e6edf3">mistral</text><rect x="110" y="51" width="164.17" height="16" rx="3" fill="#7C8BA5"></rect><rect x="274.17" y="51" width="349.83" height="16" rx="3" fill="#6E6BE8"></rect><text x="449.08" y="63" font-size="10.5" font-weight="600" text-anchor="middle" fill="#fff">68%</text><text x="636" y="63" font-size="11.5" font-weight="600" text-anchor="start" fill="#e6edf3" font-family="ui-monospace,SFMono-Regular,Menlo,monospace">14.4M</text><text x="8" y="97" font-size="12.5" font-weight="600" text-anchor="start" fill="#e6edf3">openai</text><rect x="110" y="85" width="60.09" height="16" rx="3" fill="#7C8BA5"></rect><rect x="170.09" y="85" width="358.14" height="16" rx="3" fill="#6E6BE8"></rect><text x="349.15" y="97" font-size="10.5" font-weight="600" text-anchor="middle" fill="#fff">86%</text><text x="636" y="97" font-size="11.5" font-weight="600" text-anchor="start" fill="#e6edf3" font-family="ui-monospace,SFMono-Regular,Menlo,monospace">11.7M</text><text x="8" y="131" font-size="12.5" font-weight="600" text-anchor="start" fill="#e6edf3">llama</text><rect x="110" y="119" width="48.73" height="16" rx="3" fill="#7C8BA5"></rect><rect x="158.73" y="119" width="333.59" height="16" rx="3" fill="#6E6BE8"></rect><text x="325.52" y="131" font-size="10.5" font-weight="600" text-anchor="middle" fill="#fff">87%</text><text x="636" y="131" font-size="11.5" font-weight="600" text-anchor="start" fill="#e6edf3" font-family="ui-monospace,SFMono-Regular,Menlo,monospace">10.7M</text><text x="8" y="165" font-size="12.5" font-weight="600" text-anchor="start" fill="#e6edf3">gemini</text><rect x="110" y="153" width="64.98" height="16" rx="3" fill="#7C8BA5"></rect><rect x="174.98" y="153" width="278.08" height="16" rx="3" fill="#6E6BE8"></rect><text x="314.02" y="165" font-size="10.5" font-weight="600" text-anchor="middle" fill="#fff">81%</text><text x="636" y="165" font-size="11.5" font-weight="600" text-anchor="start" fill="#e6edf3" font-family="ui-monospace,SFMono-Regular,Menlo,monospace">9.6M</text><text x="8" y="199" font-size="12.5" font-weight="600" text-anchor="start" fill="#e6edf3">deepseek</text><rect x="110" y="187" width="41.47" height="16" rx="3" fill="#7C8BA5"></rect><rect x="151.47" y="187" width="296.54" height="16" rx="3" fill="#6E6BE8"></rect><text x="299.74" y="199" font-size="10.5" font-weight="600" text-anchor="middle" fill="#fff">88%</text><text x="636" y="199" font-size="11.5" font-weight="600" text-anchor="start" fill="#e6edf3" font-family="ui-monospace,SFMono-Regular,Menlo,monospace">9.5M</text><text x="8" y="233" font-size="12.5" font-weight="600" text-anchor="start" fill="#e6edf3">anthropic</text><rect x="110" y="221" width="73.73" height="16" rx="3" fill="#7C8BA5"></rect><rect x="183.73" y="221" width="102.67" height="16" rx="3" fill="#6E6BE8"></rect><text x="235.07" y="233" font-size="10.5" font-weight="600" text-anchor="middle" fill="#fff">58%</text><text x="636" y="233" font-size="11.5" font-weight="600" text-anchor="start" fill="#e6edf3" font-family="ui-monospace,SFMono-Regular,Menlo,monospace">4.9M</text></svg>
