<svg xmlns="http://www.w3.org/2000/svg" viewBox="0 0 760 254" width="760" height="254" role="img" aria-label="Token split readiness vs extraction" font-family="-apple-system,BlinkMacSystemFont,'Segoe UI',system-ui,sans-serif"><rect x="110" y="18" width="11" height="11" rx="2.5" fill="#7C8BA5"></rect><text x="127" y="28" font-size="11" font-weight="400" text-anchor="start" fill="#656d76">Readiness (assessment)</text><rect x="300" y="18" width="11" height="11" rx="2.5" fill="#6E6BE8"></rect><text x="317" y="28" font-size="11" font-weight="400" text-anchor="start" fill="#656d76">Extraction (contract)</text><text x="8" y="63" font-size="12.5" font-weight="600" text-anchor="start" fill="#1f2328">mistral</text><rect x="110" y="51" width="124.88" height="16" rx="3" fill="#7C8BA5"></rect><rect x="234.88" y="51" width="389.12" height="16" rx="3" fill="#6E6BE8"></rect><text x="429.44" y="63" font-size="10.5" font-weight="600" text-anchor="middle" fill="#fff">76%</text><text x="636" y="63" font-size="11.5" font-weight="600" text-anchor="start" fill="#1f2328" font-family="ui-monospace,SFMono-Regular,Menlo,monospace">18.9M</text><text x="8" y="97" font-size="12.5" font-weight="600" text-anchor="start" fill="#1f2328">llama</text><rect x="110" y="85" width="37.07" height="16" rx="3" fill="#7C8BA5"></rect><rect x="147.07" y="85" width="357.79" height="16" rx="3" fill="#6E6BE8"></rect><text x="325.96" y="97" font-size="10.5" font-weight="600" text-anchor="middle" fill="#fff">91%</text><text x="636" y="97" font-size="11.5" font-weight="600" text-anchor="start" fill="#1f2328" font-family="ui-monospace,SFMono-Regular,Menlo,monospace">14.5M</text><text x="8" y="131" font-size="12.5" font-weight="600" text-anchor="start" fill="#1f2328">deepseek</text><rect x="110" y="119" width="31.54" height="16" rx="3" fill="#7C8BA5"></rect><rect x="141.54" y="119" width="359.75" height="16" rx="3" fill="#6E6BE8"></rect><text x="321.42" y="131" font-size="10.5" font-weight="600" text-anchor="middle" fill="#fff">92%</text><text x="636" y="131" font-size="11.5" font-weight="600" text-anchor="start" fill="#1f2328" font-family="ui-monospace,SFMono-Regular,Menlo,monospace">14.4M</text><text x="8" y="165" font-size="12.5" font-weight="600" text-anchor="start" fill="#1f2328">openai</text><rect x="110" y="153" width="45.7" height="16" rx="3" fill="#7C8BA5"></rect><rect x="155.7" y="153" width="340.19" height="16" rx="3" fill="#6E6BE8"></rect><text x="325.8" y="165" font-size="10.5" font-weight="600" text-anchor="middle" fill="#fff">88%</text><text x="636" y="165" font-size="11.5" font-weight="600" text-anchor="start" fill="#1f2328" font-family="ui-monospace,SFMono-Regular,Menlo,monospace">14.2M</text><text x="8" y="199" font-size="12.5" font-weight="600" text-anchor="start" fill="#1f2328">gemini</text><rect x="110" y="187" width="49.43" height="16" rx="3" fill="#7C8BA5"></rect><rect x="159.43" y="187" width="315.4" height="16" rx="3" fill="#6E6BE8"></rect><text x="317.13" y="199" font-size="10.5" font-weight="600" text-anchor="middle" fill="#fff">86%</text><text x="636" y="199" font-size="11.5" font-weight="600" text-anchor="start" fill="#1f2328" font-family="ui-monospace,SFMono-Regular,Menlo,monospace">13.4M</text><text x="8" y="233" font-size="12.5" font-weight="600" text-anchor="start" fill="#1f2328">anthropic</text><rect x="110" y="221" width="56.09" height="16" rx="3" fill="#7C8BA5"></rect><rect x="166.09" y="221" width="78.1" height="16" rx="3" fill="#6E6BE8"></rect><text x="205.13" y="233" font-size="10.5" font-weight="600" text-anchor="middle" fill="#fff">58%</text><text x="636" y="233" font-size="11.5" font-weight="600" text-anchor="start" fill="#1f2328" font-family="ui-monospace,SFMono-Regular,Menlo,monospace">4.9M</text></svg>
