<svg xmlns="http://www.w3.org/2000/svg" viewBox="0 0 760 254" width="760" height="254" role="img" aria-label="Token split readiness vs extraction" font-family="-apple-system,BlinkMacSystemFont,'Segoe UI',system-ui,sans-serif"><rect x="110" y="18" width="11" height="11" rx="2.5" fill="#7C8BA5"></rect><text x="127" y="28" font-size="11" font-weight="400" text-anchor="start" fill="#8b949e">Readiness (assessment)</text><rect x="300" y="18" width="11" height="11" rx="2.5" fill="#6E6BE8"></rect><text x="317" y="28" font-size="11" font-weight="400" text-anchor="start" fill="#8b949e">Extraction (contract)</text><text x="8" y="63" font-size="12.5" font-weight="600" text-anchor="start" fill="#e6edf3">mistral</text><rect x="110" y="51" width="127.38" height="16" rx="3" fill="#7C8BA5"></rect><rect x="237.38" y="51" width="386.62" height="16" rx="3" fill="#6E6BE8"></rect><text x="430.69" y="63" font-size="10.5" font-weight="600" text-anchor="middle" fill="#fff">75%</text><text x="636" y="63" font-size="11.5" font-weight="600" text-anchor="start" fill="#e6edf3" font-family="ui-monospace,SFMono-Regular,Menlo,monospace">18.6M</text><text x="8" y="97" font-size="12.5" font-weight="600" text-anchor="start" fill="#e6edf3">openai</text><rect x="110" y="85" width="46.62" height="16" rx="3" fill="#7C8BA5"></rect><rect x="156.62" y="85" width="342.5" height="16" rx="3" fill="#6E6BE8"></rect><text x="327.87" y="97" font-size="10.5" font-weight="600" text-anchor="middle" fill="#fff">88%</text><text x="636" y="97" font-size="11.5" font-weight="600" text-anchor="start" fill="#e6edf3" font-family="ui-monospace,SFMono-Regular,Menlo,monospace">14.0M</text><text x="8" y="131" font-size="12.5" font-weight="600" text-anchor="start" fill="#e6edf3">llama</text><rect x="110" y="119" width="37.81" height="16" rx="3" fill="#7C8BA5"></rect><rect x="147.81" y="119" width="350.9" height="16" rx="3" fill="#6E6BE8"></rect><text x="323.26" y="131" font-size="10.5" font-weight="600" text-anchor="middle" fill="#fff">90%</text><text x="636" y="131" font-size="11.5" font-weight="600" text-anchor="start" fill="#e6edf3" font-family="ui-monospace,SFMono-Regular,Menlo,monospace">14.0M</text><text x="8" y="165" font-size="12.5" font-weight="600" text-anchor="start" fill="#e6edf3">deepseek</text><rect x="110" y="153" width="32.18" height="16" rx="3" fill="#7C8BA5"></rect><rect x="142.18" y="153" width="353.96" height="16" rx="3" fill="#6E6BE8"></rect><text x="319.16" y="165" font-size="10.5" font-weight="600" text-anchor="middle" fill="#fff">92%</text><text x="636" y="165" font-size="11.5" font-weight="600" text-anchor="start" fill="#e6edf3" font-family="ui-monospace,SFMono-Regular,Menlo,monospace">13.9M</text><text x="8" y="199" font-size="12.5" font-weight="600" text-anchor="start" fill="#e6edf3">gemini</text><rect x="110" y="187" width="50.42" height="16" rx="3" fill="#7C8BA5"></rect><rect x="160.42" y="187" width="311.84" height="16" rx="3" fill="#6E6BE8"></rect><text x="316.34" y="199" font-size="10.5" font-weight="600" text-anchor="middle" fill="#fff">86%</text><text x="636" y="199" font-size="11.5" font-weight="600" text-anchor="start" fill="#e6edf3" font-family="ui-monospace,SFMono-Regular,Menlo,monospace">13.1M</text><text x="8" y="233" font-size="12.5" font-weight="600" text-anchor="start" fill="#e6edf3">anthropic</text><rect x="110" y="221" width="57.21" height="16" rx="3" fill="#7C8BA5"></rect><rect x="167.21" y="221" width="79.66" height="16" rx="3" fill="#6E6BE8"></rect><text x="207.04" y="233" font-size="10.5" font-weight="600" text-anchor="middle" fill="#fff">58%</text><text x="636" y="233" font-size="11.5" font-weight="600" text-anchor="start" fill="#e6edf3" font-family="ui-monospace,SFMono-Regular,Menlo,monospace">4.9M</text></svg>
