<svg xmlns="http://www.w3.org/2000/svg" viewBox="0 0 760 254" width="760" height="254" role="img" aria-label="Token split readiness vs extraction" font-family="-apple-system,BlinkMacSystemFont,'Segoe UI',system-ui,sans-serif"><rect x="110" y="18" width="11" height="11" rx="2.5" fill="#7C8BA5"></rect><text x="127" y="28" font-size="11" font-weight="400" text-anchor="start" fill="#8b949e">Readiness (assessment)</text><rect x="300" y="18" width="11" height="11" rx="2.5" fill="#6E6BE8"></rect><text x="317" y="28" font-size="11" font-weight="400" text-anchor="start" fill="#8b949e">Extraction (contract)</text><text x="8" y="63" font-size="12.5" font-weight="600" text-anchor="start" fill="#e6edf3">mistral</text><rect x="110" y="51" width="143.63" height="16" rx="3" fill="#7C8BA5"></rect><rect x="253.63" y="51" width="370.37" height="16" rx="3" fill="#6E6BE8"></rect><text x="438.81" y="63" font-size="10.5" font-weight="600" text-anchor="middle" fill="#fff">72%</text><text x="636" y="63" font-size="11.5" font-weight="600" text-anchor="start" fill="#e6edf3" font-family="ui-monospace,SFMono-Regular,Menlo,monospace">16.5M</text><text x="8" y="97" font-size="12.5" font-weight="600" text-anchor="start" fill="#e6edf3">openai</text><rect x="110" y="85" width="52.57" height="16" rx="3" fill="#7C8BA5"></rect><rect x="162.57" y="85" width="369.91" height="16" rx="3" fill="#6E6BE8"></rect><text x="347.52" y="97" font-size="10.5" font-weight="600" text-anchor="middle" fill="#fff">88%</text><text x="636" y="97" font-size="11.5" font-weight="600" text-anchor="start" fill="#e6edf3" font-family="ui-monospace,SFMono-Regular,Menlo,monospace">13.5M</text><text x="8" y="131" font-size="12.5" font-weight="600" text-anchor="start" fill="#e6edf3">llama</text><rect x="110" y="119" width="42.63" height="16" rx="3" fill="#7C8BA5"></rect><rect x="152.63" y="119" width="345.76" height="16" rx="3" fill="#6E6BE8"></rect><text x="325.51" y="131" font-size="10.5" font-weight="600" text-anchor="middle" fill="#fff">89%</text><text x="636" y="131" font-size="11.5" font-weight="600" text-anchor="start" fill="#e6edf3" font-family="ui-monospace,SFMono-Regular,Menlo,monospace">12.4M</text><text x="8" y="165" font-size="12.5" font-weight="600" text-anchor="start" fill="#e6edf3">deepseek</text><rect x="110" y="153" width="36.28" height="16" rx="3" fill="#7C8BA5"></rect><rect x="146.28" y="153" width="334.48" height="16" rx="3" fill="#6E6BE8"></rect><text x="313.52" y="165" font-size="10.5" font-weight="600" text-anchor="middle" fill="#fff">90%</text><text x="636" y="165" font-size="11.5" font-weight="600" text-anchor="start" fill="#e6edf3" font-family="ui-monospace,SFMono-Regular,Menlo,monospace">11.9M</text><text x="8" y="199" font-size="12.5" font-weight="600" text-anchor="start" fill="#e6edf3">gemini</text><rect x="110" y="187" width="56.85" height="16" rx="3" fill="#7C8BA5"></rect><rect x="166.85" y="187" width="292.39" height="16" rx="3" fill="#6E6BE8"></rect><text x="313.04" y="199" font-size="10.5" font-weight="600" text-anchor="middle" fill="#fff">84%</text><text x="636" y="199" font-size="11.5" font-weight="600" text-anchor="start" fill="#e6edf3" font-family="ui-monospace,SFMono-Regular,Menlo,monospace">11.2M</text><text x="8" y="233" font-size="12.5" font-weight="600" text-anchor="start" fill="#e6edf3">anthropic</text><rect x="110" y="221" width="64.51" height="16" rx="3" fill="#7C8BA5"></rect><rect x="174.51" y="221" width="89.82" height="16" rx="3" fill="#6E6BE8"></rect><text x="219.42" y="233" font-size="10.5" font-weight="600" text-anchor="middle" fill="#fff">58%</text><text x="636" y="233" font-size="11.5" font-weight="600" text-anchor="start" fill="#e6edf3" font-family="ui-monospace,SFMono-Regular,Menlo,monospace">4.9M</text></svg>
