<svg xmlns="http://www.w3.org/2000/svg" viewBox="0 0 760 254" width="760" height="254" role="img" aria-label="Token split readiness vs extraction" font-family="-apple-system,BlinkMacSystemFont,'Segoe UI',system-ui,sans-serif"><rect x="110" y="18" width="11" height="11" rx="2.5" fill="#7C8BA5"></rect><text x="127" y="28" font-size="11" font-weight="400" text-anchor="start" fill="#656d76">Readiness (assessment)</text><rect x="300" y="18" width="11" height="11" rx="2.5" fill="#6E6BE8"></rect><text x="317" y="28" font-size="11" font-weight="400" text-anchor="start" fill="#656d76">Extraction (contract)</text><text x="8" y="63" font-size="12.5" font-weight="600" text-anchor="start" fill="#1f2328">mistral</text><rect x="110" y="51" width="178.42" height="16" rx="3" fill="#7C8BA5"></rect><rect x="288.42" y="51" width="335.58" height="16" rx="3" fill="#6E6BE8"></rect><text x="456.21" y="63" font-size="10.5" font-weight="600" text-anchor="middle" fill="#fff">65%</text><text x="636" y="63" font-size="11.5" font-weight="600" text-anchor="start" fill="#1f2328" font-family="ui-monospace,SFMono-Regular,Menlo,monospace">13.3M</text><text x="8" y="97" font-size="12.5" font-weight="600" text-anchor="start" fill="#1f2328">openai</text><rect x="110" y="85" width="65.3" height="16" rx="3" fill="#7C8BA5"></rect><rect x="175.3" y="85" width="344.28" height="16" rx="3" fill="#6E6BE8"></rect><text x="347.44" y="97" font-size="10.5" font-weight="600" text-anchor="middle" fill="#fff">84%</text><text x="636" y="97" font-size="11.5" font-weight="600" text-anchor="start" fill="#1f2328" font-family="ui-monospace,SFMono-Regular,Menlo,monospace">10.6M</text><text x="8" y="131" font-size="12.5" font-weight="600" text-anchor="start" fill="#1f2328">llama</text><rect x="110" y="119" width="52.96" height="16" rx="3" fill="#7C8BA5"></rect><rect x="162.96" y="119" width="318.02" height="16" rx="3" fill="#6E6BE8"></rect><text x="321.97" y="131" font-size="10.5" font-weight="600" text-anchor="middle" fill="#fff">86%</text><text x="636" y="131" font-size="11.5" font-weight="600" text-anchor="start" fill="#1f2328" font-family="ui-monospace,SFMono-Regular,Menlo,monospace">9.6M</text><text x="8" y="165" font-size="12.5" font-weight="600" text-anchor="start" fill="#1f2328">gemini</text><rect x="110" y="153" width="70.62" height="16" rx="3" fill="#7C8BA5"></rect><rect x="180.62" y="153" width="265.99" height="16" rx="3" fill="#6E6BE8"></rect><text x="313.62" y="165" font-size="10.5" font-weight="600" text-anchor="middle" fill="#fff">79%</text><text x="636" y="165" font-size="11.5" font-weight="600" text-anchor="start" fill="#1f2328" font-family="ui-monospace,SFMono-Regular,Menlo,monospace">8.7M</text><text x="8" y="199" font-size="12.5" font-weight="600" text-anchor="start" fill="#1f2328">deepseek</text><rect x="110" y="187" width="45.07" height="16" rx="3" fill="#7C8BA5"></rect><rect x="155.07" y="187" width="283.39" height="16" rx="3" fill="#6E6BE8"></rect><text x="296.76" y="199" font-size="10.5" font-weight="600" text-anchor="middle" fill="#fff">86%</text><text x="636" y="199" font-size="11.5" font-weight="600" text-anchor="start" fill="#1f2328" font-family="ui-monospace,SFMono-Regular,Menlo,monospace">8.5M</text><text x="8" y="233" font-size="12.5" font-weight="600" text-anchor="start" fill="#1f2328">anthropic</text><rect x="110" y="221" width="80.13" height="16" rx="3" fill="#7C8BA5"></rect><rect x="190.13" y="221" width="105.81" height="16" rx="3" fill="#6E6BE8"></rect><text x="243.04" y="233" font-size="10.5" font-weight="600" text-anchor="middle" fill="#fff">57%</text><text x="636" y="233" font-size="11.5" font-weight="600" text-anchor="start" fill="#1f2328" font-family="ui-monospace,SFMono-Regular,Menlo,monospace">4.8M</text></svg>
