<svg xmlns="http://www.w3.org/2000/svg" viewBox="0 0 760 254" width="760" height="254" role="img" aria-label="Token split readiness vs extraction" font-family="-apple-system,BlinkMacSystemFont,'Segoe UI',system-ui,sans-serif"><rect x="110" y="18" width="11" height="11" rx="2.5" fill="#7C8BA5"></rect><text x="127" y="28" font-size="11" font-weight="400" text-anchor="start" fill="#656d76">Readiness (assessment)</text><rect x="300" y="18" width="11" height="11" rx="2.5" fill="#6E6BE8"></rect><text x="317" y="28" font-size="11" font-weight="400" text-anchor="start" fill="#656d76">Extraction (contract)</text><text x="8" y="63" font-size="12.5" font-weight="600" text-anchor="start" fill="#1f2328">mistral</text><rect x="110" y="51" width="113.84" height="16" rx="3" fill="#7C8BA5"></rect><rect x="223.84" y="51" width="400.16" height="16" rx="3" fill="#6E6BE8"></rect><text x="423.92" y="63" font-size="10.5" font-weight="600" text-anchor="middle" fill="#fff">78%</text><text x="636" y="63" font-size="11.5" font-weight="600" text-anchor="start" fill="#1f2328" font-family="ui-monospace,SFMono-Regular,Menlo,monospace">20.8M</text><text x="8" y="97" font-size="12.5" font-weight="600" text-anchor="start" fill="#1f2328">deepseek</text><rect x="110" y="85" width="28.76" height="16" rx="3" fill="#7C8BA5"></rect><rect x="138.76" y="85" width="380.05" height="16" rx="3" fill="#6E6BE8"></rect><text x="328.78" y="97" font-size="10.5" font-weight="600" text-anchor="middle" fill="#fff">93%</text><text x="636" y="97" font-size="11.5" font-weight="600" text-anchor="start" fill="#1f2328" font-family="ui-monospace,SFMono-Regular,Menlo,monospace">16.5M</text><text x="8" y="131" font-size="12.5" font-weight="600" text-anchor="start" fill="#1f2328">llama</text><rect x="110" y="119" width="33.79" height="16" rx="3" fill="#7C8BA5"></rect><rect x="143.79" y="119" width="370.54" height="16" rx="3" fill="#6E6BE8"></rect><text x="329.06" y="131" font-size="10.5" font-weight="600" text-anchor="middle" fill="#fff">92%</text><text x="636" y="131" font-size="11.5" font-weight="600" text-anchor="start" fill="#1f2328" font-family="ui-monospace,SFMono-Regular,Menlo,monospace">16.3M</text><text x="8" y="165" font-size="12.5" font-weight="600" text-anchor="start" fill="#1f2328">openai</text><rect x="110" y="153" width="41.67" height="16" rx="3" fill="#7C8BA5"></rect><rect x="151.67" y="153" width="358.99" height="16" rx="3" fill="#6E6BE8"></rect><text x="331.16" y="165" font-size="10.5" font-weight="600" text-anchor="middle" fill="#fff">90%</text><text x="636" y="165" font-size="11.5" font-weight="600" text-anchor="start" fill="#1f2328" font-family="ui-monospace,SFMono-Regular,Menlo,monospace">16.2M</text><text x="8" y="199" font-size="12.5" font-weight="600" text-anchor="start" fill="#1f2328">gemini</text><rect x="110" y="187" width="45.06" height="16" rx="3" fill="#7C8BA5"></rect><rect x="155.06" y="187" width="324.6" height="16" rx="3" fill="#6E6BE8"></rect><text x="317.36" y="199" font-size="10.5" font-weight="600" text-anchor="middle" fill="#fff">88%</text><text x="636" y="199" font-size="11.5" font-weight="600" text-anchor="start" fill="#1f2328" font-family="ui-monospace,SFMono-Regular,Menlo,monospace">14.9M</text><text x="8" y="233" font-size="12.5" font-weight="600" text-anchor="start" fill="#1f2328">anthropic</text><rect x="110" y="221" width="51.13" height="16" rx="3" fill="#7C8BA5"></rect><rect x="161.13" y="221" width="71.2" height="16" rx="3" fill="#6E6BE8"></rect><text x="196.73" y="233" font-size="10.5" font-weight="600" text-anchor="middle" fill="#fff">58%</text><text x="636" y="233" font-size="11.5" font-weight="600" text-anchor="start" fill="#1f2328" font-family="ui-monospace,SFMono-Regular,Menlo,monospace">4.9M</text></svg>
