<svg xmlns="http://www.w3.org/2000/svg" viewBox="0 0 760 254" width="760" height="254" role="img" aria-label="Token split readiness vs extraction" font-family="-apple-system,BlinkMacSystemFont,'Segoe UI',system-ui,sans-serif"><rect x="110" y="18" width="11" height="11" rx="2.5" fill="#7C8BA5"></rect><text x="127" y="28" font-size="11" font-weight="400" text-anchor="start" fill="#8b949e">Readiness (assessment)</text><rect x="300" y="18" width="11" height="11" rx="2.5" fill="#6E6BE8"></rect><text x="317" y="28" font-size="11" font-weight="400" text-anchor="start" fill="#8b949e">Extraction (contract)</text><text x="8" y="63" font-size="12.5" font-weight="600" text-anchor="start" fill="#e6edf3">mistral</text><rect x="110" y="51" width="105.58" height="16" rx="3" fill="#7C8BA5"></rect><rect x="215.58" y="51" width="408.42" height="16" rx="3" fill="#6E6BE8"></rect><text x="419.79" y="63" font-size="10.5" font-weight="600" text-anchor="middle" fill="#fff">79%</text><text x="636" y="63" font-size="11.5" font-weight="600" text-anchor="start" fill="#e6edf3" font-family="ui-monospace,SFMono-Regular,Menlo,monospace">22.4M</text><text x="8" y="97" font-size="12.5" font-weight="600" text-anchor="start" fill="#e6edf3">openai</text><rect x="110" y="85" width="38.64" height="16" rx="3" fill="#7C8BA5"></rect><rect x="148.64" y="85" width="378.13" height="16" rx="3" fill="#6E6BE8"></rect><text x="337.71" y="97" font-size="10.5" font-weight="600" text-anchor="middle" fill="#fff">91%</text><text x="636" y="97" font-size="11.5" font-weight="600" text-anchor="start" fill="#e6edf3" font-family="ui-monospace,SFMono-Regular,Menlo,monospace">18.2M</text><text x="8" y="131" font-size="12.5" font-weight="600" text-anchor="start" fill="#e6edf3">deepseek</text><rect x="110" y="119" width="26.67" height="16" rx="3" fill="#7C8BA5"></rect><rect x="136.67" y="119" width="388.73" height="16" rx="3" fill="#6E6BE8"></rect><text x="331.03" y="131" font-size="10.5" font-weight="600" text-anchor="middle" fill="#fff">94%</text><text x="636" y="131" font-size="11.5" font-weight="600" text-anchor="start" fill="#e6edf3" font-family="ui-monospace,SFMono-Regular,Menlo,monospace">18.1M</text><text x="8" y="165" font-size="12.5" font-weight="600" text-anchor="start" fill="#e6edf3">llama</text><rect x="110" y="153" width="31.34" height="16" rx="3" fill="#7C8BA5"></rect><rect x="141.34" y="153" width="375.25" height="16" rx="3" fill="#6E6BE8"></rect><text x="328.96" y="165" font-size="10.5" font-weight="600" text-anchor="middle" fill="#fff">92%</text><text x="636" y="165" font-size="11.5" font-weight="600" text-anchor="start" fill="#e6edf3" font-family="ui-monospace,SFMono-Regular,Menlo,monospace">17.7M</text><text x="8" y="199" font-size="12.5" font-weight="600" text-anchor="start" fill="#e6edf3">gemini</text><rect x="110" y="187" width="41.79" height="16" rx="3" fill="#7C8BA5"></rect><rect x="151.79" y="187" width="301.04" height="16" rx="3" fill="#6E6BE8"></rect><text x="302.31" y="199" font-size="10.5" font-weight="600" text-anchor="middle" fill="#fff">88%</text><text x="636" y="199" font-size="11.5" font-weight="600" text-anchor="start" fill="#e6edf3" font-family="ui-monospace,SFMono-Regular,Menlo,monospace">14.9M</text><text x="8" y="233" font-size="12.5" font-weight="600" text-anchor="start" fill="#e6edf3">anthropic</text><rect x="110" y="221" width="47.42" height="16" rx="3" fill="#7C8BA5"></rect><rect x="157.42" y="221" width="66.03" height="16" rx="3" fill="#6E6BE8"></rect><text x="190.43" y="233" font-size="10.5" font-weight="600" text-anchor="middle" fill="#fff">58%</text><text x="636" y="233" font-size="11.5" font-weight="600" text-anchor="start" fill="#e6edf3" font-family="ui-monospace,SFMono-Regular,Menlo,monospace">4.9M</text></svg>
