<svg xmlns="http://www.w3.org/2000/svg" viewBox="0 0 760 254" width="760" height="254" role="img" aria-label="Token split readiness vs extraction" font-family="-apple-system,BlinkMacSystemFont,'Segoe UI',system-ui,sans-serif"><rect x="110" y="18" width="11" height="11" rx="2.5" fill="#7C8BA5"></rect><text x="127" y="28" font-size="11" font-weight="400" text-anchor="start" fill="#8b949e">Readiness (assessment)</text><rect x="300" y="18" width="11" height="11" rx="2.5" fill="#6E6BE8"></rect><text x="317" y="28" font-size="11" font-weight="400" text-anchor="start" fill="#8b949e">Extraction (contract)</text><text x="8" y="63" font-size="12.5" font-weight="600" text-anchor="start" fill="#e6edf3">mistral</text><rect x="110" y="51" width="173.99" height="16" rx="3" fill="#7C8BA5"></rect><rect x="283.99" y="51" width="340.01" height="16" rx="3" fill="#6E6BE8"></rect><text x="454" y="63" font-size="10.5" font-weight="600" text-anchor="middle" fill="#fff">66%</text><text x="636" y="63" font-size="11.5" font-weight="600" text-anchor="start" fill="#e6edf3" font-family="ui-monospace,SFMono-Regular,Menlo,monospace">13.6M</text><text x="8" y="97" font-size="12.5" font-weight="600" text-anchor="start" fill="#e6edf3">openai</text><rect x="110" y="85" width="63.68" height="16" rx="3" fill="#7C8BA5"></rect><rect x="173.68" y="85" width="349.19" height="16" rx="3" fill="#6E6BE8"></rect><text x="348.27" y="97" font-size="10.5" font-weight="600" text-anchor="middle" fill="#fff">85%</text><text x="636" y="97" font-size="11.5" font-weight="600" text-anchor="start" fill="#e6edf3" font-family="ui-monospace,SFMono-Regular,Menlo,monospace">10.9M</text><text x="8" y="131" font-size="12.5" font-weight="600" text-anchor="start" fill="#e6edf3">llama</text><rect x="110" y="119" width="51.64" height="16" rx="3" fill="#7C8BA5"></rect><rect x="161.64" y="119" width="326.99" height="16" rx="3" fill="#6E6BE8"></rect><text x="325.14" y="131" font-size="10.5" font-weight="600" text-anchor="middle" fill="#fff">86%</text><text x="636" y="131" font-size="11.5" font-weight="600" text-anchor="start" fill="#e6edf3" font-family="ui-monospace,SFMono-Regular,Menlo,monospace">10.0M</text><text x="8" y="165" font-size="12.5" font-weight="600" text-anchor="start" fill="#e6edf3">gemini</text><rect x="110" y="153" width="68.87" height="16" rx="3" fill="#7C8BA5"></rect><rect x="178.87" y="153" width="271.54" height="16" rx="3" fill="#6E6BE8"></rect><text x="314.64" y="165" font-size="10.5" font-weight="600" text-anchor="middle" fill="#fff">80%</text><text x="636" y="165" font-size="11.5" font-weight="600" text-anchor="start" fill="#e6edf3" font-family="ui-monospace,SFMono-Regular,Menlo,monospace">9.0M</text><text x="8" y="199" font-size="12.5" font-weight="600" text-anchor="start" fill="#e6edf3">deepseek</text><rect x="110" y="187" width="43.95" height="16" rx="3" fill="#7C8BA5"></rect><rect x="153.95" y="187" width="290.31" height="16" rx="3" fill="#6E6BE8"></rect><text x="299.1" y="199" font-size="10.5" font-weight="600" text-anchor="middle" fill="#fff">87%</text><text x="636" y="199" font-size="11.5" font-weight="600" text-anchor="start" fill="#e6edf3" font-family="ui-monospace,SFMono-Regular,Menlo,monospace">8.8M</text><text x="8" y="233" font-size="12.5" font-weight="600" text-anchor="start" fill="#e6edf3">anthropic</text><rect x="110" y="221" width="78.14" height="16" rx="3" fill="#7C8BA5"></rect><rect x="188.14" y="221" width="108.81" height="16" rx="3" fill="#6E6BE8"></rect><text x="242.55" y="233" font-size="10.5" font-weight="600" text-anchor="middle" fill="#fff">58%</text><text x="636" y="233" font-size="11.5" font-weight="600" text-anchor="start" fill="#e6edf3" font-family="ui-monospace,SFMono-Regular,Menlo,monospace">4.9M</text></svg>
