<svg xmlns="http://www.w3.org/2000/svg" viewBox="0 0 760 254" width="760" height="254" role="img" aria-label="Token split readiness vs extraction" font-family="-apple-system,BlinkMacSystemFont,'Segoe UI',system-ui,sans-serif"><rect x="110" y="18" width="11" height="11" rx="2.5" fill="#7C8BA5"></rect><text x="127" y="28" font-size="11" font-weight="400" text-anchor="start" fill="#8b949e">Readiness (assessment)</text><rect x="300" y="18" width="11" height="11" rx="2.5" fill="#6E6BE8"></rect><text x="317" y="28" font-size="11" font-weight="400" text-anchor="start" fill="#8b949e">Extraction (contract)</text><text x="8" y="63" font-size="12.5" font-weight="600" text-anchor="start" fill="#e6edf3">mistral</text><rect x="110" y="51" width="184.06" height="16" rx="3" fill="#7C8BA5"></rect><rect x="294.06" y="51" width="329.94" height="16" rx="3" fill="#6E6BE8"></rect><text x="459.03" y="63" font-size="10.5" font-weight="600" text-anchor="middle" fill="#fff">64%</text><text x="636" y="63" font-size="11.5" font-weight="600" text-anchor="start" fill="#e6edf3" font-family="ui-monospace,SFMono-Regular,Menlo,monospace">12.8M</text><text x="8" y="97" font-size="12.5" font-weight="600" text-anchor="start" fill="#e6edf3">openai</text><rect x="110" y="85" width="67.37" height="16" rx="3" fill="#7C8BA5"></rect><rect x="177.37" y="85" width="338.4" height="16" rx="3" fill="#6E6BE8"></rect><text x="346.57" y="97" font-size="10.5" font-weight="600" text-anchor="middle" fill="#fff">83%</text><text x="636" y="97" font-size="11.5" font-weight="600" text-anchor="start" fill="#e6edf3" font-family="ui-monospace,SFMono-Regular,Menlo,monospace">10.1M</text><text x="8" y="131" font-size="12.5" font-weight="600" text-anchor="start" fill="#e6edf3">llama</text><rect x="110" y="119" width="54.63" height="16" rx="3" fill="#7C8BA5"></rect><rect x="164.63" y="119" width="316.6" height="16" rx="3" fill="#6E6BE8"></rect><text x="322.93" y="131" font-size="10.5" font-weight="600" text-anchor="middle" fill="#fff">85%</text><text x="636" y="131" font-size="11.5" font-weight="600" text-anchor="start" fill="#e6edf3" font-family="ui-monospace,SFMono-Regular,Menlo,monospace">9.3M</text><text x="8" y="165" font-size="12.5" font-weight="600" text-anchor="start" fill="#e6edf3">gemini</text><rect x="110" y="153" width="72.85" height="16" rx="3" fill="#7C8BA5"></rect><rect x="182.85" y="153" width="255.75" height="16" rx="3" fill="#6E6BE8"></rect><text x="310.73" y="165" font-size="10.5" font-weight="600" text-anchor="middle" fill="#fff">78%</text><text x="636" y="165" font-size="11.5" font-weight="600" text-anchor="start" fill="#e6edf3" font-family="ui-monospace,SFMono-Regular,Menlo,monospace">8.2M</text><text x="8" y="199" font-size="12.5" font-weight="600" text-anchor="start" fill="#e6edf3">deepseek</text><rect x="110" y="187" width="46.49" height="16" rx="3" fill="#7C8BA5"></rect><rect x="156.49" y="187" width="277.49" height="16" rx="3" fill="#6E6BE8"></rect><text x="295.24" y="199" font-size="10.5" font-weight="600" text-anchor="middle" fill="#fff">86%</text><text x="636" y="199" font-size="11.5" font-weight="600" text-anchor="start" fill="#e6edf3" font-family="ui-monospace,SFMono-Regular,Menlo,monospace">8.1M</text><text x="8" y="233" font-size="12.5" font-weight="600" text-anchor="start" fill="#e6edf3">anthropic</text><rect x="110" y="221" width="82.67" height="16" rx="3" fill="#7C8BA5"></rect><rect x="192.67" y="221" width="103.18" height="16" rx="3" fill="#6E6BE8"></rect><text x="244.26" y="233" font-size="10.5" font-weight="600" text-anchor="middle" fill="#fff">56%</text><text x="636" y="233" font-size="11.5" font-weight="600" text-anchor="start" fill="#e6edf3" font-family="ui-monospace,SFMono-Regular,Menlo,monospace">4.6M</text></svg>
