<svg xmlns="http://www.w3.org/2000/svg" viewBox="0 0 760 254" width="760" height="254" role="img" aria-label="Token split readiness vs extraction" font-family="-apple-system,BlinkMacSystemFont,'Segoe UI',system-ui,sans-serif"><rect x="110" y="18" width="11" height="11" rx="2.5" fill="#7C8BA5"></rect><text x="127" y="28" font-size="11" font-weight="400" text-anchor="start" fill="#656d76">Readiness (assessment)</text><rect x="300" y="18" width="11" height="11" rx="2.5" fill="#6E6BE8"></rect><text x="317" y="28" font-size="11" font-weight="400" text-anchor="start" fill="#656d76">Extraction (contract)</text><text x="8" y="63" font-size="12.5" font-weight="600" text-anchor="start" fill="#1f2328">mistral</text><rect x="110" y="51" width="126.23" height="16" rx="3" fill="#7C8BA5"></rect><rect x="236.23" y="51" width="387.77" height="16" rx="3" fill="#6E6BE8"></rect><text x="430.12" y="63" font-size="10.5" font-weight="600" text-anchor="middle" fill="#fff">75%</text><text x="636" y="63" font-size="11.5" font-weight="600" text-anchor="start" fill="#1f2328" font-family="ui-monospace,SFMono-Regular,Menlo,monospace">18.7M</text><text x="8" y="97" font-size="12.5" font-weight="600" text-anchor="start" fill="#1f2328">llama</text><rect x="110" y="85" width="37.47" height="16" rx="3" fill="#7C8BA5"></rect><rect x="147.47" y="85" width="353.83" height="16" rx="3" fill="#6E6BE8"></rect><text x="324.38" y="97" font-size="10.5" font-weight="600" text-anchor="middle" fill="#fff">90%</text><text x="636" y="97" font-size="11.5" font-weight="600" text-anchor="start" fill="#1f2328" font-family="ui-monospace,SFMono-Regular,Menlo,monospace">14.3M</text><text x="8" y="131" font-size="12.5" font-weight="600" text-anchor="start" fill="#1f2328">deepseek</text><rect x="110" y="119" width="31.89" height="16" rx="3" fill="#7C8BA5"></rect><rect x="141.89" y="119" width="358.12" height="16" rx="3" fill="#6E6BE8"></rect><text x="320.95" y="131" font-size="10.5" font-weight="600" text-anchor="middle" fill="#fff">92%</text><text x="636" y="131" font-size="11.5" font-weight="600" text-anchor="start" fill="#1f2328" font-family="ui-monospace,SFMono-Regular,Menlo,monospace">14.2M</text><text x="8" y="165" font-size="12.5" font-weight="600" text-anchor="start" fill="#1f2328">openai</text><rect x="110" y="153" width="46.2" height="16" rx="3" fill="#7C8BA5"></rect><rect x="156.2" y="153" width="339.4" height="16" rx="3" fill="#6E6BE8"></rect><text x="325.9" y="165" font-size="10.5" font-weight="600" text-anchor="middle" fill="#fff">88%</text><text x="636" y="165" font-size="11.5" font-weight="600" text-anchor="start" fill="#1f2328" font-family="ui-monospace,SFMono-Regular,Menlo,monospace">14.0M</text><text x="8" y="199" font-size="12.5" font-weight="600" text-anchor="start" fill="#1f2328">gemini</text><rect x="110" y="187" width="49.96" height="16" rx="3" fill="#7C8BA5"></rect><rect x="159.96" y="187" width="314.94" height="16" rx="3" fill="#6E6BE8"></rect><text x="317.43" y="199" font-size="10.5" font-weight="600" text-anchor="middle" fill="#fff">86%</text><text x="636" y="199" font-size="11.5" font-weight="600" text-anchor="start" fill="#1f2328" font-family="ui-monospace,SFMono-Regular,Menlo,monospace">13.3M</text><text x="8" y="233" font-size="12.5" font-weight="600" text-anchor="start" fill="#1f2328">anthropic</text><rect x="110" y="221" width="56.69" height="16" rx="3" fill="#7C8BA5"></rect><rect x="166.69" y="221" width="78.94" height="16" rx="3" fill="#6E6BE8"></rect><text x="206.16" y="233" font-size="10.5" font-weight="600" text-anchor="middle" fill="#fff">58%</text><text x="636" y="233" font-size="11.5" font-weight="600" text-anchor="start" fill="#1f2328" font-family="ui-monospace,SFMono-Regular,Menlo,monospace">4.9M</text></svg>
