<svg xmlns="http://www.w3.org/2000/svg" viewBox="0 0 760 254" width="760" height="254" role="img" aria-label="Token split readiness vs extraction" font-family="-apple-system,BlinkMacSystemFont,'Segoe UI',system-ui,sans-serif"><rect x="110" y="18" width="11" height="11" rx="2.5" fill="#7C8BA5"></rect><text x="127" y="28" font-size="11" font-weight="400" text-anchor="start" fill="#8b949e">Readiness (assessment)</text><rect x="300" y="18" width="11" height="11" rx="2.5" fill="#6E6BE8"></rect><text x="317" y="28" font-size="11" font-weight="400" text-anchor="start" fill="#8b949e">Extraction (contract)</text><text x="8" y="63" font-size="12.5" font-weight="600" text-anchor="start" fill="#e6edf3">mistral</text><rect x="110" y="51" width="191.65" height="16" rx="3" fill="#7C8BA5"></rect><rect x="301.65" y="51" width="322.35" height="16" rx="3" fill="#6E6BE8"></rect><text x="462.82" y="63" font-size="10.5" font-weight="600" text-anchor="middle" fill="#fff">63%</text><text x="636" y="63" font-size="11.5" font-weight="600" text-anchor="start" fill="#e6edf3" font-family="ui-monospace,SFMono-Regular,Menlo,monospace">12.3M</text><text x="8" y="97" font-size="12.5" font-weight="600" text-anchor="start" fill="#e6edf3">openai</text><rect x="110" y="85" width="70.14" height="16" rx="3" fill="#7C8BA5"></rect><rect x="180.14" y="85" width="328.18" height="16" rx="3" fill="#6E6BE8"></rect><text x="344.23" y="97" font-size="10.5" font-weight="600" text-anchor="middle" fill="#fff">82%</text><text x="636" y="97" font-size="11.5" font-weight="600" text-anchor="start" fill="#e6edf3" font-family="ui-monospace,SFMono-Regular,Menlo,monospace">9.6M</text><text x="8" y="131" font-size="12.5" font-weight="600" text-anchor="start" fill="#e6edf3">llama</text><rect x="110" y="119" width="56.88" height="16" rx="3" fill="#7C8BA5"></rect><rect x="166.88" y="119" width="312.4" height="16" rx="3" fill="#6E6BE8"></rect><text x="323.09" y="131" font-size="10.5" font-weight="600" text-anchor="middle" fill="#fff">85%</text><text x="636" y="131" font-size="11.5" font-weight="600" text-anchor="start" fill="#e6edf3" font-family="ui-monospace,SFMono-Regular,Menlo,monospace">8.9M</text><text x="8" y="165" font-size="12.5" font-weight="600" text-anchor="start" fill="#e6edf3">gemini</text><rect x="110" y="153" width="75.86" height="16" rx="3" fill="#7C8BA5"></rect><rect x="185.86" y="153" width="243.81" height="16" rx="3" fill="#6E6BE8"></rect><text x="307.76" y="165" font-size="10.5" font-weight="600" text-anchor="middle" fill="#fff">76%</text><text x="636" y="165" font-size="11.5" font-weight="600" text-anchor="start" fill="#e6edf3" font-family="ui-monospace,SFMono-Regular,Menlo,monospace">7.7M</text><text x="8" y="199" font-size="12.5" font-weight="600" text-anchor="start" fill="#e6edf3">deepseek</text><rect x="110" y="187" width="48.41" height="16" rx="3" fill="#7C8BA5"></rect><rect x="158.41" y="187" width="256.82" height="16" rx="3" fill="#6E6BE8"></rect><text x="286.82" y="199" font-size="10.5" font-weight="600" text-anchor="middle" fill="#fff">84%</text><text x="636" y="199" font-size="11.5" font-weight="600" text-anchor="start" fill="#e6edf3" font-family="ui-monospace,SFMono-Regular,Menlo,monospace">7.3M</text><text x="8" y="233" font-size="12.5" font-weight="600" text-anchor="start" fill="#e6edf3">anthropic</text><rect x="110" y="221" width="86.07" height="16" rx="3" fill="#7C8BA5"></rect><rect x="196.07" y="221" width="98.88" height="16" rx="3" fill="#6E6BE8"></rect><text x="245.51" y="233" font-size="10.5" font-weight="600" text-anchor="middle" fill="#fff">53%</text><text x="636" y="233" font-size="11.5" font-weight="600" text-anchor="start" fill="#e6edf3" font-family="ui-monospace,SFMono-Regular,Menlo,monospace">4.4M</text></svg>
