<svg xmlns="http://www.w3.org/2000/svg" viewBox="0 0 760 254" width="760" height="254" role="img" aria-label="Token split readiness vs extraction" font-family="-apple-system,BlinkMacSystemFont,'Segoe UI',system-ui,sans-serif"><rect x="110" y="18" width="11" height="11" rx="2.5" fill="#7C8BA5"></rect><text x="127" y="28" font-size="11" font-weight="400" text-anchor="start" fill="#8b949e">Readiness (assessment)</text><rect x="300" y="18" width="11" height="11" rx="2.5" fill="#6E6BE8"></rect><text x="317" y="28" font-size="11" font-weight="400" text-anchor="start" fill="#8b949e">Extraction (contract)</text><text x="8" y="63" font-size="12.5" font-weight="600" text-anchor="start" fill="#e6edf3">mistral</text><rect x="110" y="51" width="147.27" height="16" rx="3" fill="#7C8BA5"></rect><rect x="257.27" y="51" width="366.73" height="16" rx="3" fill="#6E6BE8"></rect><text x="440.63" y="63" font-size="10.5" font-weight="600" text-anchor="middle" fill="#fff">71%</text><text x="636" y="63" font-size="11.5" font-weight="600" text-anchor="start" fill="#e6edf3" font-family="ui-monospace,SFMono-Regular,Menlo,monospace">16.1M</text><text x="8" y="97" font-size="12.5" font-weight="600" text-anchor="start" fill="#e6edf3">openai</text><rect x="110" y="85" width="53.9" height="16" rx="3" fill="#7C8BA5"></rect><rect x="163.9" y="85" width="361.63" height="16" rx="3" fill="#6E6BE8"></rect><text x="344.71" y="97" font-size="10.5" font-weight="600" text-anchor="middle" fill="#fff">87%</text><text x="636" y="97" font-size="11.5" font-weight="600" text-anchor="start" fill="#e6edf3" font-family="ui-monospace,SFMono-Regular,Menlo,monospace">13.0M</text><text x="8" y="131" font-size="12.5" font-weight="600" text-anchor="start" fill="#e6edf3">llama</text><rect x="110" y="119" width="43.71" height="16" rx="3" fill="#7C8BA5"></rect><rect x="153.71" y="119" width="337.17" height="16" rx="3" fill="#6E6BE8"></rect><text x="322.29" y="131" font-size="10.5" font-weight="600" text-anchor="middle" fill="#fff">89%</text><text x="636" y="131" font-size="11.5" font-weight="600" text-anchor="start" fill="#e6edf3" font-family="ui-monospace,SFMono-Regular,Menlo,monospace">11.9M</text><text x="8" y="165" font-size="12.5" font-weight="600" text-anchor="start" fill="#e6edf3">deepseek</text><rect x="110" y="153" width="37.2" height="16" rx="3" fill="#7C8BA5"></rect><rect x="147.2" y="153" width="331.14" height="16" rx="3" fill="#6E6BE8"></rect><text x="312.77" y="165" font-size="10.5" font-weight="600" text-anchor="middle" fill="#fff">90%</text><text x="636" y="165" font-size="11.5" font-weight="600" text-anchor="start" fill="#e6edf3" font-family="ui-monospace,SFMono-Regular,Menlo,monospace">11.5M</text><text x="8" y="199" font-size="12.5" font-weight="600" text-anchor="start" fill="#e6edf3">gemini</text><rect x="110" y="187" width="58.29" height="16" rx="3" fill="#7C8BA5"></rect><rect x="168.29" y="187" width="290.74" height="16" rx="3" fill="#6E6BE8"></rect><text x="313.66" y="199" font-size="10.5" font-weight="600" text-anchor="middle" fill="#fff">83%</text><text x="636" y="199" font-size="11.5" font-weight="600" text-anchor="start" fill="#e6edf3" font-family="ui-monospace,SFMono-Regular,Menlo,monospace">10.9M</text><text x="8" y="233" font-size="12.5" font-weight="600" text-anchor="start" fill="#e6edf3">anthropic</text><rect x="110" y="221" width="66.14" height="16" rx="3" fill="#7C8BA5"></rect><rect x="176.14" y="221" width="92.1" height="16" rx="3" fill="#6E6BE8"></rect><text x="222.19" y="233" font-size="10.5" font-weight="600" text-anchor="middle" fill="#fff">58%</text><text x="636" y="233" font-size="11.5" font-weight="600" text-anchor="start" fill="#e6edf3" font-family="ui-monospace,SFMono-Regular,Menlo,monospace">4.9M</text></svg>
