<svg xmlns="http://www.w3.org/2000/svg" viewBox="0 0 760 254" width="760" height="254" role="img" aria-label="Token split readiness vs extraction" font-family="-apple-system,BlinkMacSystemFont,'Segoe UI',system-ui,sans-serif"><rect x="110" y="18" width="11" height="11" rx="2.5" fill="#7C8BA5"></rect><text x="127" y="28" font-size="11" font-weight="400" text-anchor="start" fill="#656d76">Readiness (assessment)</text><rect x="300" y="18" width="11" height="11" rx="2.5" fill="#6E6BE8"></rect><text x="317" y="28" font-size="11" font-weight="400" text-anchor="start" fill="#656d76">Extraction (contract)</text><text x="8" y="63" font-size="12.5" font-weight="600" text-anchor="start" fill="#1f2328">mistral</text><rect x="110" y="51" width="104.62" height="16" rx="3" fill="#7C8BA5"></rect><rect x="214.62" y="51" width="409.38" height="16" rx="3" fill="#6E6BE8"></rect><text x="419.31" y="63" font-size="10.5" font-weight="600" text-anchor="middle" fill="#fff">80%</text><text x="636" y="63" font-size="11.5" font-weight="600" text-anchor="start" fill="#1f2328" font-family="ui-monospace,SFMono-Regular,Menlo,monospace">22.6M</text><text x="8" y="97" font-size="12.5" font-weight="600" text-anchor="start" fill="#1f2328">openai</text><rect x="110" y="85" width="38.29" height="16" rx="3" fill="#7C8BA5"></rect><rect x="148.29" y="85" width="378.41" height="16" rx="3" fill="#6E6BE8"></rect><text x="337.5" y="97" font-size="10.5" font-weight="600" text-anchor="middle" fill="#fff">91%</text><text x="636" y="97" font-size="11.5" font-weight="600" text-anchor="start" fill="#1f2328" font-family="ui-monospace,SFMono-Regular,Menlo,monospace">18.3M</text><text x="8" y="131" font-size="12.5" font-weight="600" text-anchor="start" fill="#1f2328">deepseek</text><rect x="110" y="119" width="26.43" height="16" rx="3" fill="#7C8BA5"></rect><rect x="136.43" y="119" width="389.01" height="16" rx="3" fill="#6E6BE8"></rect><text x="330.93" y="131" font-size="10.5" font-weight="600" text-anchor="middle" fill="#fff">94%</text><text x="636" y="131" font-size="11.5" font-weight="600" text-anchor="start" fill="#1f2328" font-family="ui-monospace,SFMono-Regular,Menlo,monospace">18.3M</text><text x="8" y="165" font-size="12.5" font-weight="600" text-anchor="start" fill="#1f2328">llama</text><rect x="110" y="153" width="31.05" height="16" rx="3" fill="#7C8BA5"></rect><rect x="141.05" y="153" width="377.65" height="16" rx="3" fill="#6E6BE8"></rect><text x="329.88" y="165" font-size="10.5" font-weight="600" text-anchor="middle" fill="#fff">92%</text><text x="636" y="165" font-size="11.5" font-weight="600" text-anchor="start" fill="#1f2328" font-family="ui-monospace,SFMono-Regular,Menlo,monospace">18.0M</text><text x="8" y="199" font-size="12.5" font-weight="600" text-anchor="start" fill="#1f2328">gemini</text><rect x="110" y="187" width="41.41" height="16" rx="3" fill="#7C8BA5"></rect><rect x="151.41" y="187" width="298.32" height="16" rx="3" fill="#6E6BE8"></rect><text x="300.57" y="199" font-size="10.5" font-weight="600" text-anchor="middle" fill="#fff">88%</text><text x="636" y="199" font-size="11.5" font-weight="600" text-anchor="start" fill="#1f2328" font-family="ui-monospace,SFMono-Regular,Menlo,monospace">14.9M</text><text x="8" y="233" font-size="12.5" font-weight="600" text-anchor="start" fill="#1f2328">anthropic</text><rect x="110" y="221" width="46.99" height="16" rx="3" fill="#7C8BA5"></rect><rect x="156.99" y="221" width="65.43" height="16" rx="3" fill="#6E6BE8"></rect><text x="189.7" y="233" font-size="10.5" font-weight="600" text-anchor="middle" fill="#fff">58%</text><text x="636" y="233" font-size="11.5" font-weight="600" text-anchor="start" fill="#1f2328" font-family="ui-monospace,SFMono-Regular,Menlo,monospace">4.9M</text></svg>
