<svg xmlns="http://www.w3.org/2000/svg" viewBox="0 0 760 254" width="760" height="254" role="img" aria-label="Token split readiness vs extraction" font-family="-apple-system,BlinkMacSystemFont,'Segoe UI',system-ui,sans-serif"><rect x="110" y="18" width="11" height="11" rx="2.5" fill="#7C8BA5"></rect><text x="127" y="28" font-size="11" font-weight="400" text-anchor="start" fill="#8b949e">Readiness (assessment)</text><rect x="300" y="18" width="11" height="11" rx="2.5" fill="#6E6BE8"></rect><text x="317" y="28" font-size="11" font-weight="400" text-anchor="start" fill="#8b949e">Extraction (contract)</text><text x="8" y="63" font-size="12.5" font-weight="600" text-anchor="start" fill="#e6edf3">mistral</text><rect x="110" y="51" width="114.97" height="16" rx="3" fill="#7C8BA5"></rect><rect x="224.97" y="51" width="399.03" height="16" rx="3" fill="#6E6BE8"></rect><text x="424.48" y="63" font-size="10.5" font-weight="600" text-anchor="middle" fill="#fff">78%</text><text x="636" y="63" font-size="11.5" font-weight="600" text-anchor="start" fill="#e6edf3" font-family="ui-monospace,SFMono-Regular,Menlo,monospace">20.6M</text><text x="8" y="97" font-size="12.5" font-weight="600" text-anchor="start" fill="#e6edf3">deepseek</text><rect x="110" y="85" width="29.04" height="16" rx="3" fill="#7C8BA5"></rect><rect x="139.04" y="85" width="379.62" height="16" rx="3" fill="#6E6BE8"></rect><text x="328.85" y="97" font-size="10.5" font-weight="600" text-anchor="middle" fill="#fff">93%</text><text x="636" y="97" font-size="11.5" font-weight="600" text-anchor="start" fill="#e6edf3" font-family="ui-monospace,SFMono-Regular,Menlo,monospace">16.3M</text><text x="8" y="131" font-size="12.5" font-weight="600" text-anchor="start" fill="#e6edf3">llama</text><rect x="110" y="119" width="34.12" height="16" rx="3" fill="#7C8BA5"></rect><rect x="144.12" y="119" width="367.84" height="16" rx="3" fill="#6E6BE8"></rect><text x="328.04" y="131" font-size="10.5" font-weight="600" text-anchor="middle" fill="#fff">92%</text><text x="636" y="131" font-size="11.5" font-weight="600" text-anchor="start" fill="#e6edf3" font-family="ui-monospace,SFMono-Regular,Menlo,monospace">16.1M</text><text x="8" y="165" font-size="12.5" font-weight="600" text-anchor="start" fill="#e6edf3">openai</text><rect x="110" y="153" width="42.08" height="16" rx="3" fill="#7C8BA5"></rect><rect x="152.08" y="153" width="358.45" height="16" rx="3" fill="#6E6BE8"></rect><text x="331.3" y="165" font-size="10.5" font-weight="600" text-anchor="middle" fill="#fff">89%</text><text x="636" y="165" font-size="11.5" font-weight="600" text-anchor="start" fill="#e6edf3" font-family="ui-monospace,SFMono-Regular,Menlo,monospace">16.0M</text><text x="8" y="199" font-size="12.5" font-weight="600" text-anchor="start" fill="#e6edf3">gemini</text><rect x="110" y="187" width="45.51" height="16" rx="3" fill="#7C8BA5"></rect><rect x="155.51" y="187" width="327.81" height="16" rx="3" fill="#6E6BE8"></rect><text x="319.41" y="199" font-size="10.5" font-weight="600" text-anchor="middle" fill="#fff">88%</text><text x="636" y="199" font-size="11.5" font-weight="600" text-anchor="start" fill="#e6edf3" font-family="ui-monospace,SFMono-Regular,Menlo,monospace">14.9M</text><text x="8" y="233" font-size="12.5" font-weight="600" text-anchor="start" fill="#e6edf3">anthropic</text><rect x="110" y="221" width="51.63" height="16" rx="3" fill="#7C8BA5"></rect><rect x="161.63" y="221" width="71.9" height="16" rx="3" fill="#6E6BE8"></rect><text x="197.58" y="233" font-size="10.5" font-weight="600" text-anchor="middle" fill="#fff">58%</text><text x="636" y="233" font-size="11.5" font-weight="600" text-anchor="start" fill="#e6edf3" font-family="ui-monospace,SFMono-Regular,Menlo,monospace">4.9M</text></svg>
