<svg xmlns="http://www.w3.org/2000/svg" viewBox="0 0 760 254" width="760" height="254" role="img" aria-label="Token split readiness vs extraction" font-family="-apple-system,BlinkMacSystemFont,'Segoe UI',system-ui,sans-serif"><rect x="110" y="18" width="11" height="11" rx="2.5" fill="#7C8BA5"></rect><text x="127" y="28" font-size="11" font-weight="400" text-anchor="start" fill="#8b949e">Readiness (assessment)</text><rect x="300" y="18" width="11" height="11" rx="2.5" fill="#6E6BE8"></rect><text x="317" y="28" font-size="11" font-weight="400" text-anchor="start" fill="#8b949e">Extraction (contract)</text><text x="8" y="63" font-size="12.5" font-weight="600" text-anchor="start" fill="#e6edf3">mistral</text><rect x="110" y="51" width="186.5" height="16" rx="3" fill="#7C8BA5"></rect><rect x="296.5" y="51" width="327.5" height="16" rx="3" fill="#6E6BE8"></rect><text x="460.25" y="63" font-size="10.5" font-weight="600" text-anchor="middle" fill="#fff">64%</text><text x="636" y="63" font-size="11.5" font-weight="600" text-anchor="start" fill="#e6edf3" font-family="ui-monospace,SFMono-Regular,Menlo,monospace">12.7M</text><text x="8" y="97" font-size="12.5" font-weight="600" text-anchor="start" fill="#e6edf3">openai</text><rect x="110" y="85" width="68.26" height="16" rx="3" fill="#7C8BA5"></rect><rect x="178.26" y="85" width="337.68" height="16" rx="3" fill="#6E6BE8"></rect><text x="347.1" y="97" font-size="10.5" font-weight="600" text-anchor="middle" fill="#fff">83%</text><text x="636" y="97" font-size="11.5" font-weight="600" text-anchor="start" fill="#e6edf3" font-family="ui-monospace,SFMono-Regular,Menlo,monospace">10.0M</text><text x="8" y="131" font-size="12.5" font-weight="600" text-anchor="start" fill="#e6edf3">llama</text><rect x="110" y="119" width="55.36" height="16" rx="3" fill="#7C8BA5"></rect><rect x="165.36" y="119" width="311.79" height="16" rx="3" fill="#6E6BE8"></rect><text x="321.25" y="131" font-size="10.5" font-weight="600" text-anchor="middle" fill="#fff">85%</text><text x="636" y="131" font-size="11.5" font-weight="600" text-anchor="start" fill="#e6edf3" font-family="ui-monospace,SFMono-Regular,Menlo,monospace">9.1M</text><text x="8" y="165" font-size="12.5" font-weight="600" text-anchor="start" fill="#e6edf3">gemini</text><rect x="110" y="153" width="73.82" height="16" rx="3" fill="#7C8BA5"></rect><rect x="183.82" y="153" width="250.39" height="16" rx="3" fill="#6E6BE8"></rect><text x="309.01" y="165" font-size="10.5" font-weight="600" text-anchor="middle" fill="#fff">77%</text><text x="636" y="165" font-size="11.5" font-weight="600" text-anchor="start" fill="#e6edf3" font-family="ui-monospace,SFMono-Regular,Menlo,monospace">8.0M</text><text x="8" y="199" font-size="12.5" font-weight="600" text-anchor="start" fill="#e6edf3">deepseek</text><rect x="110" y="187" width="47.11" height="16" rx="3" fill="#7C8BA5"></rect><rect x="157.11" y="187" width="266.33" height="16" rx="3" fill="#6E6BE8"></rect><text x="290.27" y="199" font-size="10.5" font-weight="600" text-anchor="middle" fill="#fff">85%</text><text x="636" y="199" font-size="11.5" font-weight="600" text-anchor="start" fill="#e6edf3" font-family="ui-monospace,SFMono-Regular,Menlo,monospace">7.7M</text><text x="8" y="233" font-size="12.5" font-weight="600" text-anchor="start" fill="#e6edf3">anthropic</text><rect x="110" y="221" width="83.76" height="16" rx="3" fill="#7C8BA5"></rect><rect x="193.76" y="221" width="102.31" height="16" rx="3" fill="#6E6BE8"></rect><text x="244.92" y="233" font-size="10.5" font-weight="600" text-anchor="middle" fill="#fff">55%</text><text x="636" y="233" font-size="11.5" font-weight="600" text-anchor="start" fill="#e6edf3" font-family="ui-monospace,SFMono-Regular,Menlo,monospace">4.6M</text></svg>
