<svg xmlns="http://www.w3.org/2000/svg" viewBox="0 0 760 254" width="760" height="254" role="img" aria-label="Token split readiness vs extraction" font-family="-apple-system,BlinkMacSystemFont,'Segoe UI',system-ui,sans-serif"><rect x="110" y="18" width="11" height="11" rx="2.5" fill="#7C8BA5"></rect><text x="127" y="28" font-size="11" font-weight="400" text-anchor="start" fill="#8b949e">Readiness (assessment)</text><rect x="300" y="18" width="11" height="11" rx="2.5" fill="#6E6BE8"></rect><text x="317" y="28" font-size="11" font-weight="400" text-anchor="start" fill="#8b949e">Extraction (contract)</text><text x="8" y="63" font-size="12.5" font-weight="600" text-anchor="start" fill="#e6edf3">mistral</text><rect x="110" y="51" width="129.99" height="16" rx="3" fill="#7C8BA5"></rect><rect x="239.99" y="51" width="384.01" height="16" rx="3" fill="#6E6BE8"></rect><text x="432" y="63" font-size="10.5" font-weight="600" text-anchor="middle" fill="#fff">75%</text><text x="636" y="63" font-size="11.5" font-weight="600" text-anchor="start" fill="#e6edf3" font-family="ui-monospace,SFMono-Regular,Menlo,monospace">18.2M</text><text x="8" y="97" font-size="12.5" font-weight="600" text-anchor="start" fill="#e6edf3">openai</text><rect x="110" y="85" width="47.58" height="16" rx="3" fill="#7C8BA5"></rect><rect x="157.58" y="85" width="349.51" height="16" rx="3" fill="#6E6BE8"></rect><text x="332.33" y="97" font-size="10.5" font-weight="600" text-anchor="middle" fill="#fff">88%</text><text x="636" y="97" font-size="11.5" font-weight="600" text-anchor="start" fill="#e6edf3" font-family="ui-monospace,SFMono-Regular,Menlo,monospace">14.0M</text><text x="8" y="131" font-size="12.5" font-weight="600" text-anchor="start" fill="#e6edf3">llama</text><rect x="110" y="119" width="38.58" height="16" rx="3" fill="#7C8BA5"></rect><rect x="148.58" y="119" width="354.49" height="16" rx="3" fill="#6E6BE8"></rect><text x="325.83" y="131" font-size="10.5" font-weight="600" text-anchor="middle" fill="#fff">90%</text><text x="636" y="131" font-size="11.5" font-weight="600" text-anchor="start" fill="#e6edf3" font-family="ui-monospace,SFMono-Regular,Menlo,monospace">13.9M</text><text x="8" y="165" font-size="12.5" font-weight="600" text-anchor="start" fill="#e6edf3">deepseek</text><rect x="110" y="153" width="32.84" height="16" rx="3" fill="#7C8BA5"></rect><rect x="142.84" y="153" width="356.46" height="16" rx="3" fill="#6E6BE8"></rect><text x="321.07" y="165" font-size="10.5" font-weight="600" text-anchor="middle" fill="#fff">92%</text><text x="636" y="165" font-size="11.5" font-weight="600" text-anchor="start" fill="#e6edf3" font-family="ui-monospace,SFMono-Regular,Menlo,monospace">13.8M</text><text x="8" y="199" font-size="12.5" font-weight="600" text-anchor="start" fill="#e6edf3">gemini</text><rect x="110" y="187" width="51.45" height="16" rx="3" fill="#7C8BA5"></rect><rect x="161.45" y="187" width="307.24" height="16" rx="3" fill="#6E6BE8"></rect><text x="315.07" y="199" font-size="10.5" font-weight="600" text-anchor="middle" fill="#fff">86%</text><text x="636" y="199" font-size="11.5" font-weight="600" text-anchor="start" fill="#e6edf3" font-family="ui-monospace,SFMono-Regular,Menlo,monospace">12.7M</text><text x="8" y="233" font-size="12.5" font-weight="600" text-anchor="start" fill="#e6edf3">anthropic</text><rect x="110" y="221" width="58.38" height="16" rx="3" fill="#7C8BA5"></rect><rect x="168.38" y="221" width="81.3" height="16" rx="3" fill="#6E6BE8"></rect><text x="209.03" y="233" font-size="10.5" font-weight="600" text-anchor="middle" fill="#fff">58%</text><text x="636" y="233" font-size="11.5" font-weight="600" text-anchor="start" fill="#e6edf3" font-family="ui-monospace,SFMono-Regular,Menlo,monospace">4.9M</text></svg>
