<svg xmlns="http://www.w3.org/2000/svg" viewBox="0 0 760 254" width="760" height="254" role="img" aria-label="Token split readiness vs extraction" font-family="-apple-system,BlinkMacSystemFont,'Segoe UI',system-ui,sans-serif"><rect x="110" y="18" width="11" height="11" rx="2.5" fill="#7C8BA5"></rect><text x="127" y="28" font-size="11" font-weight="400" text-anchor="start" fill="#8b949e">Readiness (assessment)</text><rect x="300" y="18" width="11" height="11" rx="2.5" fill="#6E6BE8"></rect><text x="317" y="28" font-size="11" font-weight="400" text-anchor="start" fill="#8b949e">Extraction (contract)</text><text x="8" y="63" font-size="12.5" font-weight="600" text-anchor="start" fill="#e6edf3">mistral</text><rect x="110" y="51" width="165.72" height="16" rx="3" fill="#7C8BA5"></rect><rect x="275.72" y="51" width="348.28" height="16" rx="3" fill="#6E6BE8"></rect><text x="449.86" y="63" font-size="10.5" font-weight="600" text-anchor="middle" fill="#fff">68%</text><text x="636" y="63" font-size="11.5" font-weight="600" text-anchor="start" fill="#e6edf3" font-family="ui-monospace,SFMono-Regular,Menlo,monospace">14.3M</text><text x="8" y="97" font-size="12.5" font-weight="600" text-anchor="start" fill="#e6edf3">openai</text><rect x="110" y="85" width="60.65" height="16" rx="3" fill="#7C8BA5"></rect><rect x="170.65" y="85" width="352.28" height="16" rx="3" fill="#6E6BE8"></rect><text x="346.79" y="97" font-size="10.5" font-weight="600" text-anchor="middle" fill="#fff">85%</text><text x="636" y="97" font-size="11.5" font-weight="600" text-anchor="start" fill="#e6edf3" font-family="ui-monospace,SFMono-Regular,Menlo,monospace">11.5M</text><text x="8" y="131" font-size="12.5" font-weight="600" text-anchor="start" fill="#e6edf3">llama</text><rect x="110" y="119" width="49.19" height="16" rx="3" fill="#7C8BA5"></rect><rect x="159.19" y="119" width="329.85" height="16" rx="3" fill="#6E6BE8"></rect><text x="324.11" y="131" font-size="10.5" font-weight="600" text-anchor="middle" fill="#fff">87%</text><text x="636" y="131" font-size="11.5" font-weight="600" text-anchor="start" fill="#e6edf3" font-family="ui-monospace,SFMono-Regular,Menlo,monospace">10.5M</text><text x="8" y="165" font-size="12.5" font-weight="600" text-anchor="start" fill="#e6edf3">gemini</text><rect x="110" y="153" width="65.59" height="16" rx="3" fill="#7C8BA5"></rect><rect x="175.59" y="153" width="274.13" height="16" rx="3" fill="#6E6BE8"></rect><text x="312.66" y="165" font-size="10.5" font-weight="600" text-anchor="middle" fill="#fff">81%</text><text x="636" y="165" font-size="11.5" font-weight="600" text-anchor="start" fill="#e6edf3" font-family="ui-monospace,SFMono-Regular,Menlo,monospace">9.4M</text><text x="8" y="199" font-size="12.5" font-weight="600" text-anchor="start" fill="#e6edf3">deepseek</text><rect x="110" y="187" width="41.86" height="16" rx="3" fill="#7C8BA5"></rect><rect x="151.86" y="187" width="290.9" height="16" rx="3" fill="#6E6BE8"></rect><text x="297.31" y="199" font-size="10.5" font-weight="600" text-anchor="middle" fill="#fff">87%</text><text x="636" y="199" font-size="11.5" font-weight="600" text-anchor="start" fill="#e6edf3" font-family="ui-monospace,SFMono-Regular,Menlo,monospace">9.2M</text><text x="8" y="233" font-size="12.5" font-weight="600" text-anchor="start" fill="#e6edf3">anthropic</text><rect x="110" y="221" width="74.43" height="16" rx="3" fill="#7C8BA5"></rect><rect x="184.43" y="221" width="103.64" height="16" rx="3" fill="#6E6BE8"></rect><text x="236.25" y="233" font-size="10.5" font-weight="600" text-anchor="middle" fill="#fff">58%</text><text x="636" y="233" font-size="11.5" font-weight="600" text-anchor="start" fill="#e6edf3" font-family="ui-monospace,SFMono-Regular,Menlo,monospace">4.9M</text></svg>
