<svg xmlns="http://www.w3.org/2000/svg" viewBox="0 0 760 254" width="760" height="254" role="img" aria-label="Token split readiness vs extraction" font-family="-apple-system,BlinkMacSystemFont,'Segoe UI',system-ui,sans-serif"><rect x="110" y="18" width="11" height="11" rx="2.5" fill="#7C8BA5"></rect><text x="127" y="28" font-size="11" font-weight="400" text-anchor="start" fill="#656d76">Readiness (assessment)</text><rect x="300" y="18" width="11" height="11" rx="2.5" fill="#6E6BE8"></rect><text x="317" y="28" font-size="11" font-weight="400" text-anchor="start" fill="#656d76">Extraction (contract)</text><text x="8" y="63" font-size="12.5" font-weight="600" text-anchor="start" fill="#1f2328">mistral</text><rect x="110" y="51" width="123.55" height="16" rx="3" fill="#7C8BA5"></rect><rect x="233.55" y="51" width="390.45" height="16" rx="3" fill="#6E6BE8"></rect><text x="428.77" y="63" font-size="10.5" font-weight="600" text-anchor="middle" fill="#fff">76%</text><text x="636" y="63" font-size="11.5" font-weight="600" text-anchor="start" fill="#1f2328" font-family="ui-monospace,SFMono-Regular,Menlo,monospace">19.1M</text><text x="8" y="97" font-size="12.5" font-weight="600" text-anchor="start" fill="#1f2328">deepseek</text><rect x="110" y="85" width="31.21" height="16" rx="3" fill="#7C8BA5"></rect><rect x="141.21" y="85" width="372" height="16" rx="3" fill="#6E6BE8"></rect><text x="327.21" y="97" font-size="10.5" font-weight="600" text-anchor="middle" fill="#fff">92%</text><text x="636" y="97" font-size="11.5" font-weight="600" text-anchor="start" fill="#1f2328" font-family="ui-monospace,SFMono-Regular,Menlo,monospace">15.0M</text><text x="8" y="131" font-size="12.5" font-weight="600" text-anchor="start" fill="#1f2328">llama</text><rect x="110" y="119" width="36.67" height="16" rx="3" fill="#7C8BA5"></rect><rect x="146.67" y="119" width="360.82" height="16" rx="3" fill="#6E6BE8"></rect><text x="327.08" y="131" font-size="10.5" font-weight="600" text-anchor="middle" fill="#fff">91%</text><text x="636" y="131" font-size="11.5" font-weight="600" text-anchor="start" fill="#1f2328" font-family="ui-monospace,SFMono-Regular,Menlo,monospace">14.8M</text><text x="8" y="165" font-size="12.5" font-weight="600" text-anchor="start" fill="#1f2328">openai</text><rect x="110" y="153" width="45.22" height="16" rx="3" fill="#7C8BA5"></rect><rect x="155.22" y="153" width="346.15" height="16" rx="3" fill="#6E6BE8"></rect><text x="328.29" y="165" font-size="10.5" font-weight="600" text-anchor="middle" fill="#fff">88%</text><text x="636" y="165" font-size="11.5" font-weight="600" text-anchor="start" fill="#1f2328" font-family="ui-monospace,SFMono-Regular,Menlo,monospace">14.6M</text><text x="8" y="199" font-size="12.5" font-weight="600" text-anchor="start" fill="#1f2328">gemini</text><rect x="110" y="187" width="48.9" height="16" rx="3" fill="#7C8BA5"></rect><rect x="158.9" y="187" width="320.62" height="16" rx="3" fill="#6E6BE8"></rect><text x="319.21" y="199" font-size="10.5" font-weight="600" text-anchor="middle" fill="#fff">87%</text><text x="636" y="199" font-size="11.5" font-weight="600" text-anchor="start" fill="#1f2328" font-family="ui-monospace,SFMono-Regular,Menlo,monospace">13.8M</text><text x="8" y="233" font-size="12.5" font-weight="600" text-anchor="start" fill="#1f2328">anthropic</text><rect x="110" y="221" width="55.49" height="16" rx="3" fill="#7C8BA5"></rect><rect x="165.49" y="221" width="77.26" height="16" rx="3" fill="#6E6BE8"></rect><text x="204.12" y="233" font-size="10.5" font-weight="600" text-anchor="middle" fill="#fff">58%</text><text x="636" y="233" font-size="11.5" font-weight="600" text-anchor="start" fill="#1f2328" font-family="ui-monospace,SFMono-Regular,Menlo,monospace">4.9M</text></svg>
