<svg xmlns="http://www.w3.org/2000/svg" viewBox="0 0 760 254" width="760" height="254" role="img" aria-label="Token split readiness vs extraction" font-family="-apple-system,BlinkMacSystemFont,'Segoe UI',system-ui,sans-serif"><rect x="110" y="18" width="11" height="11" rx="2.5" fill="#7C8BA5"></rect><text x="127" y="28" font-size="11" font-weight="400" text-anchor="start" fill="#656d76">Readiness (assessment)</text><rect x="300" y="18" width="11" height="11" rx="2.5" fill="#6E6BE8"></rect><text x="317" y="28" font-size="11" font-weight="400" text-anchor="start" fill="#656d76">Extraction (contract)</text><text x="8" y="63" font-size="12.5" font-weight="600" text-anchor="start" fill="#1f2328">mistral</text><rect x="110" y="51" width="118.7" height="16" rx="3" fill="#7C8BA5"></rect><rect x="228.7" y="51" width="395.3" height="16" rx="3" fill="#6E6BE8"></rect><text x="426.35" y="63" font-size="10.5" font-weight="600" text-anchor="middle" fill="#fff">77%</text><text x="636" y="63" font-size="11.5" font-weight="600" text-anchor="start" fill="#1f2328" font-family="ui-monospace,SFMono-Regular,Menlo,monospace">19.9M</text><text x="8" y="97" font-size="12.5" font-weight="600" text-anchor="start" fill="#1f2328">deepseek</text><rect x="110" y="85" width="29.98" height="16" rx="3" fill="#7C8BA5"></rect><rect x="139.98" y="85" width="377.34" height="16" rx="3" fill="#6E6BE8"></rect><text x="328.65" y="97" font-size="10.5" font-weight="600" text-anchor="middle" fill="#fff">93%</text><text x="636" y="97" font-size="11.5" font-weight="600" text-anchor="start" fill="#1f2328" font-family="ui-monospace,SFMono-Regular,Menlo,monospace">15.8M</text><text x="8" y="131" font-size="12.5" font-weight="600" text-anchor="start" fill="#1f2328">llama</text><rect x="110" y="119" width="35.23" height="16" rx="3" fill="#7C8BA5"></rect><rect x="145.23" y="119" width="364.05" height="16" rx="3" fill="#6E6BE8"></rect><text x="327.26" y="131" font-size="10.5" font-weight="600" text-anchor="middle" fill="#fff">91%</text><text x="636" y="131" font-size="11.5" font-weight="600" text-anchor="start" fill="#1f2328" font-family="ui-monospace,SFMono-Regular,Menlo,monospace">15.5M</text><text x="8" y="165" font-size="12.5" font-weight="600" text-anchor="start" fill="#1f2328">openai</text><rect x="110" y="153" width="43.44" height="16" rx="3" fill="#7C8BA5"></rect><rect x="153.44" y="153" width="354.24" height="16" rx="3" fill="#6E6BE8"></rect><text x="330.57" y="165" font-size="10.5" font-weight="600" text-anchor="middle" fill="#fff">89%</text><text x="636" y="165" font-size="11.5" font-weight="600" text-anchor="start" fill="#1f2328" font-family="ui-monospace,SFMono-Regular,Menlo,monospace">15.4M</text><text x="8" y="199" font-size="12.5" font-weight="600" text-anchor="start" fill="#1f2328">gemini</text><rect x="110" y="187" width="46.98" height="16" rx="3" fill="#7C8BA5"></rect><rect x="156.98" y="187" width="330.2" height="16" rx="3" fill="#6E6BE8"></rect><text x="322.08" y="199" font-size="10.5" font-weight="600" text-anchor="middle" fill="#fff">88%</text><text x="636" y="199" font-size="11.5" font-weight="600" text-anchor="start" fill="#1f2328" font-family="ui-monospace,SFMono-Regular,Menlo,monospace">14.6M</text><text x="8" y="233" font-size="12.5" font-weight="600" text-anchor="start" fill="#1f2328">anthropic</text><rect x="110" y="221" width="53.31" height="16" rx="3" fill="#7C8BA5"></rect><rect x="163.31" y="221" width="74.24" height="16" rx="3" fill="#6E6BE8"></rect><text x="200.43" y="233" font-size="10.5" font-weight="600" text-anchor="middle" fill="#fff">58%</text><text x="636" y="233" font-size="11.5" font-weight="600" text-anchor="start" fill="#1f2328" font-family="ui-monospace,SFMono-Regular,Menlo,monospace">4.9M</text></svg>
