<svg xmlns="http://www.w3.org/2000/svg" viewBox="0 0 760 254" width="760" height="254" role="img" aria-label="Token split readiness vs extraction" font-family="-apple-system,BlinkMacSystemFont,'Segoe UI',system-ui,sans-serif"><rect x="110" y="18" width="11" height="11" rx="2.5" fill="#7C8BA5"></rect><text x="127" y="28" font-size="11" font-weight="400" text-anchor="start" fill="#656d76">Readiness (assessment)</text><rect x="300" y="18" width="11" height="11" rx="2.5" fill="#6E6BE8"></rect><text x="317" y="28" font-size="11" font-weight="400" text-anchor="start" fill="#656d76">Extraction (contract)</text><text x="8" y="63" font-size="12.5" font-weight="600" text-anchor="start" fill="#1f2328">mistral</text><rect x="110" y="51" width="106.87" height="16" rx="3" fill="#7C8BA5"></rect><rect x="216.87" y="51" width="407.13" height="16" rx="3" fill="#6E6BE8"></rect><text x="420.43" y="63" font-size="10.5" font-weight="600" text-anchor="middle" fill="#fff">79%</text><text x="636" y="63" font-size="11.5" font-weight="600" text-anchor="start" fill="#1f2328" font-family="ui-monospace,SFMono-Regular,Menlo,monospace">22.1M</text><text x="8" y="97" font-size="12.5" font-weight="600" text-anchor="start" fill="#1f2328">openai</text><rect x="110" y="85" width="39.11" height="16" rx="3" fill="#7C8BA5"></rect><rect x="149.11" y="85" width="378.24" height="16" rx="3" fill="#6E6BE8"></rect><text x="338.23" y="97" font-size="10.5" font-weight="600" text-anchor="middle" fill="#fff">91%</text><text x="636" y="97" font-size="11.5" font-weight="600" text-anchor="start" fill="#1f2328" font-family="ui-monospace,SFMono-Regular,Menlo,monospace">18.0M</text><text x="8" y="131" font-size="12.5" font-weight="600" text-anchor="start" fill="#1f2328">deepseek</text><rect x="110" y="119" width="26.99" height="16" rx="3" fill="#7C8BA5"></rect><rect x="136.99" y="119" width="388.8" height="16" rx="3" fill="#6E6BE8"></rect><text x="331.4" y="131" font-size="10.5" font-weight="600" text-anchor="middle" fill="#fff">94%</text><text x="636" y="131" font-size="11.5" font-weight="600" text-anchor="start" fill="#1f2328" font-family="ui-monospace,SFMono-Regular,Menlo,monospace">17.9M</text><text x="8" y="165" font-size="12.5" font-weight="600" text-anchor="start" fill="#1f2328">llama</text><rect x="110" y="153" width="31.72" height="16" rx="3" fill="#7C8BA5"></rect><rect x="141.72" y="153" width="375.33" height="16" rx="3" fill="#6E6BE8"></rect><text x="329.38" y="165" font-size="10.5" font-weight="600" text-anchor="middle" fill="#fff">92%</text><text x="636" y="165" font-size="11.5" font-weight="600" text-anchor="start" fill="#1f2328" font-family="ui-monospace,SFMono-Regular,Menlo,monospace">17.5M</text><text x="8" y="199" font-size="12.5" font-weight="600" text-anchor="start" fill="#1f2328">gemini</text><rect x="110" y="187" width="42.3" height="16" rx="3" fill="#7C8BA5"></rect><rect x="152.3" y="187" width="304.72" height="16" rx="3" fill="#6E6BE8"></rect><text x="304.66" y="199" font-size="10.5" font-weight="600" text-anchor="middle" fill="#fff">88%</text><text x="636" y="199" font-size="11.5" font-weight="600" text-anchor="start" fill="#1f2328" font-family="ui-monospace,SFMono-Regular,Menlo,monospace">14.9M</text><text x="8" y="233" font-size="12.5" font-weight="600" text-anchor="start" fill="#1f2328">anthropic</text><rect x="110" y="221" width="48" height="16" rx="3" fill="#7C8BA5"></rect><rect x="158" y="221" width="66.83" height="16" rx="3" fill="#6E6BE8"></rect><text x="191.41" y="233" font-size="10.5" font-weight="600" text-anchor="middle" fill="#fff">58%</text><text x="636" y="233" font-size="11.5" font-weight="600" text-anchor="start" fill="#1f2328" font-family="ui-monospace,SFMono-Regular,Menlo,monospace">4.9M</text></svg>
