<svg xmlns="http://www.w3.org/2000/svg" viewBox="0 0 760 254" width="760" height="254" role="img" aria-label="Token split readiness vs extraction" font-family="-apple-system,BlinkMacSystemFont,'Segoe UI',system-ui,sans-serif"><rect x="110" y="18" width="11" height="11" rx="2.5" fill="#7C8BA5"></rect><text x="127" y="28" font-size="11" font-weight="400" text-anchor="start" fill="#8b949e">Readiness (assessment)</text><rect x="300" y="18" width="11" height="11" rx="2.5" fill="#6E6BE8"></rect><text x="317" y="28" font-size="11" font-weight="400" text-anchor="start" fill="#8b949e">Extraction (contract)</text><text x="8" y="63" font-size="12.5" font-weight="600" text-anchor="start" fill="#e6edf3">mistral</text><rect x="110" y="51" width="170.17" height="16" rx="3" fill="#7C8BA5"></rect><rect x="280.17" y="51" width="343.83" height="16" rx="3" fill="#6E6BE8"></rect><text x="452.09" y="63" font-size="10.5" font-weight="600" text-anchor="middle" fill="#fff">67%</text><text x="636" y="63" font-size="11.5" font-weight="600" text-anchor="start" fill="#e6edf3" font-family="ui-monospace,SFMono-Regular,Menlo,monospace">13.9M</text><text x="8" y="97" font-size="12.5" font-weight="600" text-anchor="start" fill="#e6edf3">openai</text><rect x="110" y="85" width="62.28" height="16" rx="3" fill="#7C8BA5"></rect><rect x="172.28" y="85" width="347.46" height="16" rx="3" fill="#6E6BE8"></rect><text x="346.01" y="97" font-size="10.5" font-weight="600" text-anchor="middle" fill="#fff">85%</text><text x="636" y="97" font-size="11.5" font-weight="600" text-anchor="start" fill="#e6edf3" font-family="ui-monospace,SFMono-Regular,Menlo,monospace">11.1M</text><text x="8" y="131" font-size="12.5" font-weight="600" text-anchor="start" fill="#e6edf3">llama</text><rect x="110" y="119" width="50.51" height="16" rx="3" fill="#7C8BA5"></rect><rect x="160.51" y="119" width="324.5" height="16" rx="3" fill="#6E6BE8"></rect><text x="322.76" y="131" font-size="10.5" font-weight="600" text-anchor="middle" fill="#fff">87%</text><text x="636" y="131" font-size="11.5" font-weight="600" text-anchor="start" fill="#e6edf3" font-family="ui-monospace,SFMono-Regular,Menlo,monospace">10.1M</text><text x="8" y="165" font-size="12.5" font-weight="600" text-anchor="start" fill="#e6edf3">gemini</text><rect x="110" y="153" width="67.36" height="16" rx="3" fill="#7C8BA5"></rect><rect x="177.36" y="153" width="265.58" height="16" rx="3" fill="#6E6BE8"></rect><text x="310.15" y="165" font-size="10.5" font-weight="600" text-anchor="middle" fill="#fff">80%</text><text x="636" y="165" font-size="11.5" font-weight="600" text-anchor="start" fill="#e6edf3" font-family="ui-monospace,SFMono-Regular,Menlo,monospace">9.0M</text><text x="8" y="199" font-size="12.5" font-weight="600" text-anchor="start" fill="#e6edf3">deepseek</text><rect x="110" y="187" width="42.98" height="16" rx="3" fill="#7C8BA5"></rect><rect x="152.98" y="187" width="283.94" height="16" rx="3" fill="#6E6BE8"></rect><text x="294.95" y="199" font-size="10.5" font-weight="600" text-anchor="middle" fill="#fff">87%</text><text x="636" y="199" font-size="11.5" font-weight="600" text-anchor="start" fill="#e6edf3" font-family="ui-monospace,SFMono-Regular,Menlo,monospace">8.8M</text><text x="8" y="233" font-size="12.5" font-weight="600" text-anchor="start" fill="#e6edf3">anthropic</text><rect x="110" y="221" width="76.43" height="16" rx="3" fill="#7C8BA5"></rect><rect x="186.43" y="221" width="106.42" height="16" rx="3" fill="#6E6BE8"></rect><text x="239.64" y="233" font-size="10.5" font-weight="600" text-anchor="middle" fill="#fff">58%</text><text x="636" y="233" font-size="11.5" font-weight="600" text-anchor="start" fill="#e6edf3" font-family="ui-monospace,SFMono-Regular,Menlo,monospace">4.9M</text></svg>
