<svg xmlns="http://www.w3.org/2000/svg" viewBox="0 0 600 300" width="600" height="300" role="img" aria-label="Token split: readiness vs extraction"><text x="300.0" y="24" text-anchor="middle" font-family="system-ui, -apple-system, sans-serif" font-size="14" font-weight="600" fill="#333">Token split: readiness vs extraction</text><rect x="70.5" y="192.6" width="49.0" height="47.4" fill="#4CAF50"/><rect x="70.5" y="164.3" width="49.0" height="28.4" fill="#2196F3"/><text x="95.0" y="256.0" text-anchor="middle" font-family="system-ui, -apple-system, sans-serif" font-size="10" fill="#666">anthropic</text><rect x="140.5" y="225.1" width="49.0" height="14.9" fill="#4CAF50"/><rect x="140.5" y="185.9" width="49.0" height="39.1" fill="#2196F3"/><text x="165.0" y="256.0" text-anchor="middle" font-family="system-ui, -apple-system, sans-serif" font-size="10" fill="#666">deepseek</text><rect x="210.5" y="205.3" width="49.0" height="34.7" fill="#4CAF50"/><rect x="210.5" y="114.7" width="49.0" height="90.6" fill="#2196F3"/><text x="235.0" y="256.0" text-anchor="middle" font-family="system-ui, -apple-system, sans-serif" font-size="10" fill="#666">gemini</text><rect x="280.5" y="210.2" width="49.0" height="29.8" fill="#4CAF50"/><rect x="280.5" y="116.6" width="49.0" height="93.5" fill="#2196F3"/><text x="305.0" y="256.0" text-anchor="middle" font-family="system-ui, -apple-system, sans-serif" font-size="10" fill="#666">llama</text><rect x="350.5" y="130.6" width="49.0" height="109.4" fill="#4CAF50"/><rect x="350.5" y="40.0" width="49.0" height="90.6" fill="#2196F3"/><text x="375.0" y="256.0" text-anchor="middle" font-family="system-ui, -apple-system, sans-serif" font-size="10" fill="#666">mistral</text><rect x="420.5" y="207.6" width="49.0" height="32.4" fill="#4CAF50"/><rect x="420.5" y="118.4" width="49.0" height="89.2" fill="#2196F3"/><text x="445.0" y="256.0" text-anchor="middle" font-family="system-ui, -apple-system, sans-serif" font-size="10" fill="#666">openai</text><rect x="490" y="44" width="10" height="10" fill="#4CAF50"/><text x="504" y="53" font-family="system-ui, -apple-system, sans-serif" font-size="10" fill="#333">Readiness (assessment)</text><rect x="490" y="62" width="10" height="10" fill="#2196F3"/><text x="504" y="71" font-family="system-ui, -apple-system, sans-serif" font-size="10" fill="#333">Extraction (contract)</text><line x1="60" y1="240" x2="480" y2="240" stroke="#ccc" stroke-width="1"/></svg>
