<svg xmlns="http://www.w3.org/2000/svg" viewBox="0 0 760 254" width="760" height="254" role="img" aria-label="Token split readiness vs extraction" font-family="-apple-system,BlinkMacSystemFont,'Segoe UI',system-ui,sans-serif"><rect x="110" y="18" width="11" height="11" rx="2.5" fill="#7C8BA5"></rect><text x="127" y="28" font-size="11" font-weight="400" text-anchor="start" fill="#656d76">Readiness (assessment)</text><rect x="300" y="18" width="11" height="11" rx="2.5" fill="#6E6BE8"></rect><text x="317" y="28" font-size="11" font-weight="400" text-anchor="start" fill="#656d76">Extraction (contract)</text><text x="8" y="63" font-size="12.5" font-weight="600" text-anchor="start" fill="#1f2328">mistral</text><rect x="110" y="51" width="117.5" height="16" rx="3" fill="#7C8BA5"></rect><rect x="227.5" y="51" width="396.5" height="16" rx="3" fill="#6E6BE8"></rect><text x="425.75" y="63" font-size="10.5" font-weight="600" text-anchor="middle" fill="#fff">77%</text><text x="636" y="63" font-size="11.5" font-weight="600" text-anchor="start" fill="#1f2328" font-family="ui-monospace,SFMono-Regular,Menlo,monospace">20.1M</text><text x="8" y="97" font-size="12.5" font-weight="600" text-anchor="start" fill="#1f2328">deepseek</text><rect x="110" y="85" width="29.68" height="16" rx="3" fill="#7C8BA5"></rect><rect x="139.68" y="85" width="377.8" height="16" rx="3" fill="#6E6BE8"></rect><text x="328.58" y="97" font-size="10.5" font-weight="600" text-anchor="middle" fill="#fff">93%</text><text x="636" y="97" font-size="11.5" font-weight="600" text-anchor="start" fill="#1f2328" font-family="ui-monospace,SFMono-Regular,Menlo,monospace">16.0M</text><text x="8" y="131" font-size="12.5" font-weight="600" text-anchor="start" fill="#1f2328">llama</text><rect x="110" y="119" width="34.87" height="16" rx="3" fill="#7C8BA5"></rect><rect x="144.87" y="119" width="366.89" height="16" rx="3" fill="#6E6BE8"></rect><text x="328.32" y="131" font-size="10.5" font-weight="600" text-anchor="middle" fill="#fff">91%</text><text x="636" y="131" font-size="11.5" font-weight="600" text-anchor="start" fill="#1f2328" font-family="ui-monospace,SFMono-Regular,Menlo,monospace">15.7M</text><text x="8" y="165" font-size="12.5" font-weight="600" text-anchor="start" fill="#1f2328">openai</text><rect x="110" y="153" width="43" height="16" rx="3" fill="#7C8BA5"></rect><rect x="153" y="153" width="354.79" height="16" rx="3" fill="#6E6BE8"></rect><text x="330.4" y="165" font-size="10.5" font-weight="600" text-anchor="middle" fill="#fff">89%</text><text x="636" y="165" font-size="11.5" font-weight="600" text-anchor="start" fill="#1f2328" font-family="ui-monospace,SFMono-Regular,Menlo,monospace">15.6M</text><text x="8" y="199" font-size="12.5" font-weight="600" text-anchor="start" fill="#1f2328">gemini</text><rect x="110" y="187" width="46.51" height="16" rx="3" fill="#7C8BA5"></rect><rect x="156.51" y="187" width="330.46" height="16" rx="3" fill="#6E6BE8"></rect><text x="321.73" y="199" font-size="10.5" font-weight="600" text-anchor="middle" fill="#fff">88%</text><text x="636" y="199" font-size="11.5" font-weight="600" text-anchor="start" fill="#1f2328" font-family="ui-monospace,SFMono-Regular,Menlo,monospace">14.8M</text><text x="8" y="233" font-size="12.5" font-weight="600" text-anchor="start" fill="#1f2328">anthropic</text><rect x="110" y="221" width="52.77" height="16" rx="3" fill="#7C8BA5"></rect><rect x="162.77" y="221" width="73.48" height="16" rx="3" fill="#6E6BE8"></rect><text x="199.51" y="233" font-size="10.5" font-weight="600" text-anchor="middle" fill="#fff">58%</text><text x="636" y="233" font-size="11.5" font-weight="600" text-anchor="start" fill="#1f2328" font-family="ui-monospace,SFMono-Regular,Menlo,monospace">4.9M</text></svg>
