<svg xmlns="http://www.w3.org/2000/svg" viewBox="0 0 760 254" width="760" height="254" role="img" aria-label="Token split readiness vs extraction" font-family="-apple-system,BlinkMacSystemFont,'Segoe UI',system-ui,sans-serif"><rect x="110" y="18" width="11" height="11" rx="2.5" fill="#7C8BA5"></rect><text x="127" y="28" font-size="11" font-weight="400" text-anchor="start" fill="#8b949e">Readiness (assessment)</text><rect x="300" y="18" width="11" height="11" rx="2.5" fill="#6E6BE8"></rect><text x="317" y="28" font-size="11" font-weight="400" text-anchor="start" fill="#8b949e">Extraction (contract)</text><text x="8" y="63" font-size="12.5" font-weight="600" text-anchor="start" fill="#e6edf3">mistral</text><rect x="110" y="51" width="109.39" height="16" rx="3" fill="#7C8BA5"></rect><rect x="219.39" y="51" width="404.61" height="16" rx="3" fill="#6E6BE8"></rect><text x="421.69" y="63" font-size="10.5" font-weight="600" text-anchor="middle" fill="#fff">79%</text><text x="636" y="63" font-size="11.5" font-weight="600" text-anchor="start" fill="#e6edf3" font-family="ui-monospace,SFMono-Regular,Menlo,monospace">21.6M</text><text x="8" y="97" font-size="12.5" font-weight="600" text-anchor="start" fill="#e6edf3">deepseek</text><rect x="110" y="85" width="27.63" height="16" rx="3" fill="#7C8BA5"></rect><rect x="137.63" y="85" width="385.12" height="16" rx="3" fill="#6E6BE8"></rect><text x="330.19" y="97" font-size="10.5" font-weight="600" text-anchor="middle" fill="#fff">93%</text><text x="636" y="97" font-size="11.5" font-weight="600" text-anchor="start" fill="#e6edf3" font-family="ui-monospace,SFMono-Regular,Menlo,monospace">17.4M</text><text x="8" y="131" font-size="12.5" font-weight="600" text-anchor="start" fill="#e6edf3">llama</text><rect x="110" y="119" width="32.47" height="16" rx="3" fill="#7C8BA5"></rect><rect x="142.47" y="119" width="376.55" height="16" rx="3" fill="#6E6BE8"></rect><text x="330.74" y="131" font-size="10.5" font-weight="600" text-anchor="middle" fill="#fff">92%</text><text x="636" y="131" font-size="11.5" font-weight="600" text-anchor="start" fill="#e6edf3" font-family="ui-monospace,SFMono-Regular,Menlo,monospace">17.2M</text><text x="8" y="165" font-size="12.5" font-weight="600" text-anchor="start" fill="#e6edf3">openai</text><rect x="110" y="153" width="40.03" height="16" rx="3" fill="#7C8BA5"></rect><rect x="150.03" y="153" width="365.74" height="16" rx="3" fill="#6E6BE8"></rect><text x="332.9" y="165" font-size="10.5" font-weight="600" text-anchor="middle" fill="#fff">90%</text><text x="636" y="165" font-size="11.5" font-weight="600" text-anchor="start" fill="#e6edf3" font-family="ui-monospace,SFMono-Regular,Menlo,monospace">17.1M</text><text x="8" y="199" font-size="12.5" font-weight="600" text-anchor="start" fill="#e6edf3">gemini</text><rect x="110" y="187" width="43.3" height="16" rx="3" fill="#7C8BA5"></rect><rect x="153.3" y="187" width="311.9" height="16" rx="3" fill="#6E6BE8"></rect><text x="309.24" y="199" font-size="10.5" font-weight="600" text-anchor="middle" fill="#fff">88%</text><text x="636" y="199" font-size="11.5" font-weight="600" text-anchor="start" fill="#e6edf3" font-family="ui-monospace,SFMono-Regular,Menlo,monospace">14.9M</text><text x="8" y="233" font-size="12.5" font-weight="600" text-anchor="start" fill="#e6edf3">anthropic</text><rect x="110" y="221" width="49.13" height="16" rx="3" fill="#7C8BA5"></rect><rect x="159.13" y="221" width="68.41" height="16" rx="3" fill="#6E6BE8"></rect><text x="193.33" y="233" font-size="10.5" font-weight="600" text-anchor="middle" fill="#fff">58%</text><text x="636" y="233" font-size="11.5" font-weight="600" text-anchor="start" fill="#e6edf3" font-family="ui-monospace,SFMono-Regular,Menlo,monospace">4.9M</text></svg>
