<svg xmlns="http://www.w3.org/2000/svg" viewBox="0 0 760 254" width="760" height="254" role="img" aria-label="Token split readiness vs extraction" font-family="-apple-system,BlinkMacSystemFont,'Segoe UI',system-ui,sans-serif"><rect x="110" y="18" width="11" height="11" rx="2.5" fill="#7C8BA5"></rect><text x="127" y="28" font-size="11" font-weight="400" text-anchor="start" fill="#656d76">Readiness (assessment)</text><rect x="300" y="18" width="11" height="11" rx="2.5" fill="#6E6BE8"></rect><text x="317" y="28" font-size="11" font-weight="400" text-anchor="start" fill="#656d76">Extraction (contract)</text><text x="8" y="63" font-size="12.5" font-weight="600" text-anchor="start" fill="#1f2328">mistral</text><rect x="110" y="51" width="133.47" height="16" rx="3" fill="#7C8BA5"></rect><rect x="243.47" y="51" width="380.53" height="16" rx="3" fill="#6E6BE8"></rect><text x="433.74" y="63" font-size="10.5" font-weight="600" text-anchor="middle" fill="#fff">74%</text><text x="636" y="63" font-size="11.5" font-weight="600" text-anchor="start" fill="#1f2328" font-family="ui-monospace,SFMono-Regular,Menlo,monospace">17.7M</text><text x="8" y="97" font-size="12.5" font-weight="600" text-anchor="start" fill="#1f2328">openai</text><rect x="110" y="85" width="48.85" height="16" rx="3" fill="#7C8BA5"></rect><rect x="158.85" y="85" width="358.87" height="16" rx="3" fill="#6E6BE8"></rect><text x="338.29" y="97" font-size="10.5" font-weight="600" text-anchor="middle" fill="#fff">88%</text><text x="636" y="97" font-size="11.5" font-weight="600" text-anchor="start" fill="#1f2328" font-family="ui-monospace,SFMono-Regular,Menlo,monospace">14.0M</text><text x="8" y="131" font-size="12.5" font-weight="600" text-anchor="start" fill="#1f2328">llama</text><rect x="110" y="119" width="39.62" height="16" rx="3" fill="#7C8BA5"></rect><rect x="149.62" y="119" width="345.52" height="16" rx="3" fill="#6E6BE8"></rect><text x="322.38" y="131" font-size="10.5" font-weight="600" text-anchor="middle" fill="#fff">90%</text><text x="636" y="131" font-size="11.5" font-weight="600" text-anchor="start" fill="#1f2328" font-family="ui-monospace,SFMono-Regular,Menlo,monospace">13.3M</text><text x="8" y="165" font-size="12.5" font-weight="600" text-anchor="start" fill="#1f2328">deepseek</text><rect x="110" y="153" width="33.71" height="16" rx="3" fill="#7C8BA5"></rect><rect x="143.71" y="153" width="347.53" height="16" rx="3" fill="#6E6BE8"></rect><text x="317.48" y="165" font-size="10.5" font-weight="600" text-anchor="middle" fill="#fff">91%</text><text x="636" y="165" font-size="11.5" font-weight="600" text-anchor="start" fill="#1f2328" font-family="ui-monospace,SFMono-Regular,Menlo,monospace">13.1M</text><text x="8" y="199" font-size="12.5" font-weight="600" text-anchor="start" fill="#1f2328">gemini</text><rect x="110" y="187" width="52.83" height="16" rx="3" fill="#7C8BA5"></rect><rect x="162.83" y="187" width="297.68" height="16" rx="3" fill="#6E6BE8"></rect><text x="311.67" y="199" font-size="10.5" font-weight="600" text-anchor="middle" fill="#fff">85%</text><text x="636" y="199" font-size="11.5" font-weight="600" text-anchor="start" fill="#1f2328" font-family="ui-monospace,SFMono-Regular,Menlo,monospace">12.1M</text><text x="8" y="233" font-size="12.5" font-weight="600" text-anchor="start" fill="#1f2328">anthropic</text><rect x="110" y="221" width="59.95" height="16" rx="3" fill="#7C8BA5"></rect><rect x="169.95" y="221" width="83.47" height="16" rx="3" fill="#6E6BE8"></rect><text x="211.68" y="233" font-size="10.5" font-weight="600" text-anchor="middle" fill="#fff">58%</text><text x="636" y="233" font-size="11.5" font-weight="600" text-anchor="start" fill="#1f2328" font-family="ui-monospace,SFMono-Regular,Menlo,monospace">4.9M</text></svg>
