<svg xmlns="http://www.w3.org/2000/svg" viewBox="0 0 760 254" width="760" height="254" role="img" aria-label="Token split readiness vs extraction" font-family="-apple-system,BlinkMacSystemFont,'Segoe UI',system-ui,sans-serif"><rect x="110" y="18" width="11" height="11" rx="2.5" fill="#7C8BA5"></rect><text x="127" y="28" font-size="11" font-weight="400" text-anchor="start" fill="#656d76">Readiness (assessment)</text><rect x="300" y="18" width="11" height="11" rx="2.5" fill="#6E6BE8"></rect><text x="317" y="28" font-size="11" font-weight="400" text-anchor="start" fill="#656d76">Extraction (contract)</text><text x="8" y="63" font-size="12.5" font-weight="600" text-anchor="start" fill="#1f2328">mistral</text><rect x="110" y="51" width="138.51" height="16" rx="3" fill="#7C8BA5"></rect><rect x="248.51" y="51" width="375.49" height="16" rx="3" fill="#6E6BE8"></rect><text x="436.26" y="63" font-size="10.5" font-weight="600" text-anchor="middle" fill="#fff">73%</text><text x="636" y="63" font-size="11.5" font-weight="600" text-anchor="start" fill="#1f2328" font-family="ui-monospace,SFMono-Regular,Menlo,monospace">17.1M</text><text x="8" y="97" font-size="12.5" font-weight="600" text-anchor="start" fill="#1f2328">openai</text><rect x="110" y="85" width="50.69" height="16" rx="3" fill="#7C8BA5"></rect><rect x="160.69" y="85" width="367.51" height="16" rx="3" fill="#6E6BE8"></rect><text x="344.45" y="97" font-size="10.5" font-weight="600" text-anchor="middle" fill="#fff">88%</text><text x="636" y="97" font-size="11.5" font-weight="600" text-anchor="start" fill="#1f2328" font-family="ui-monospace,SFMono-Regular,Menlo,monospace">13.9M</text><text x="8" y="131" font-size="12.5" font-weight="600" text-anchor="start" fill="#1f2328">llama</text><rect x="110" y="119" width="41.11" height="16" rx="3" fill="#7C8BA5"></rect><rect x="151.11" y="119" width="339.26" height="16" rx="3" fill="#6E6BE8"></rect><text x="320.74" y="131" font-size="10.5" font-weight="600" text-anchor="middle" fill="#fff">89%</text><text x="636" y="131" font-size="11.5" font-weight="600" text-anchor="start" fill="#1f2328" font-family="ui-monospace,SFMono-Regular,Menlo,monospace">12.6M</text><text x="8" y="165" font-size="12.5" font-weight="600" text-anchor="start" fill="#1f2328">deepseek</text><rect x="110" y="153" width="34.99" height="16" rx="3" fill="#7C8BA5"></rect><rect x="144.99" y="153" width="341.58" height="16" rx="3" fill="#6E6BE8"></rect><text x="315.78" y="165" font-size="10.5" font-weight="600" text-anchor="middle" fill="#fff">91%</text><text x="636" y="165" font-size="11.5" font-weight="600" text-anchor="start" fill="#1f2328" font-family="ui-monospace,SFMono-Regular,Menlo,monospace">12.5M</text><text x="8" y="199" font-size="12.5" font-weight="600" text-anchor="start" fill="#1f2328">gemini</text><rect x="110" y="187" width="54.82" height="16" rx="3" fill="#7C8BA5"></rect><rect x="164.82" y="187" width="292.72" height="16" rx="3" fill="#6E6BE8"></rect><text x="311.18" y="199" font-size="10.5" font-weight="600" text-anchor="middle" fill="#fff">84%</text><text x="636" y="199" font-size="11.5" font-weight="600" text-anchor="start" fill="#1f2328" font-family="ui-monospace,SFMono-Regular,Menlo,monospace">11.5M</text><text x="8" y="233" font-size="12.5" font-weight="600" text-anchor="start" fill="#1f2328">anthropic</text><rect x="110" y="221" width="62.21" height="16" rx="3" fill="#7C8BA5"></rect><rect x="172.21" y="221" width="86.62" height="16" rx="3" fill="#6E6BE8"></rect><text x="215.52" y="233" font-size="10.5" font-weight="600" text-anchor="middle" fill="#fff">58%</text><text x="636" y="233" font-size="11.5" font-weight="600" text-anchor="start" fill="#1f2328" font-family="ui-monospace,SFMono-Regular,Menlo,monospace">4.9M</text></svg>
