<svg xmlns="http://www.w3.org/2000/svg" viewBox="0 0 760 254" width="760" height="254" role="img" aria-label="Token split readiness vs extraction" font-family="-apple-system,BlinkMacSystemFont,'Segoe UI',system-ui,sans-serif"><rect x="110" y="18" width="11" height="11" rx="2.5" fill="#7C8BA5"></rect><text x="127" y="28" font-size="11" font-weight="400" text-anchor="start" fill="#656d76">Readiness (assessment)</text><rect x="300" y="18" width="11" height="11" rx="2.5" fill="#6E6BE8"></rect><text x="317" y="28" font-size="11" font-weight="400" text-anchor="start" fill="#656d76">Extraction (contract)</text><text x="8" y="63" font-size="12.5" font-weight="600" text-anchor="start" fill="#1f2328">mistral</text><rect x="110" y="51" width="161.86" height="16" rx="3" fill="#7C8BA5"></rect><rect x="271.86" y="51" width="352.14" height="16" rx="3" fill="#6E6BE8"></rect><text x="447.93" y="63" font-size="10.5" font-weight="600" text-anchor="middle" fill="#fff">69%</text><text x="636" y="63" font-size="11.5" font-weight="600" text-anchor="start" fill="#1f2328" font-family="ui-monospace,SFMono-Regular,Menlo,monospace">14.6M</text><text x="8" y="97" font-size="12.5" font-weight="600" text-anchor="start" fill="#1f2328">openai</text><rect x="110" y="85" width="59.24" height="16" rx="3" fill="#7C8BA5"></rect><rect x="169.24" y="85" width="358.86" height="16" rx="3" fill="#6E6BE8"></rect><text x="348.67" y="97" font-size="10.5" font-weight="600" text-anchor="middle" fill="#fff">86%</text><text x="636" y="97" font-size="11.5" font-weight="600" text-anchor="start" fill="#1f2328" font-family="ui-monospace,SFMono-Regular,Menlo,monospace">11.9M</text><text x="8" y="131" font-size="12.5" font-weight="600" text-anchor="start" fill="#1f2328">llama</text><rect x="110" y="119" width="48.04" height="16" rx="3" fill="#7C8BA5"></rect><rect x="158.04" y="119" width="338.96" height="16" rx="3" fill="#6E6BE8"></rect><text x="327.52" y="131" font-size="10.5" font-weight="600" text-anchor="middle" fill="#fff">88%</text><text x="636" y="131" font-size="11.5" font-weight="600" text-anchor="start" fill="#1f2328" font-family="ui-monospace,SFMono-Regular,Menlo,monospace">11.0M</text><text x="8" y="165" font-size="12.5" font-weight="600" text-anchor="start" fill="#1f2328">gemini</text><rect x="110" y="153" width="64.07" height="16" rx="3" fill="#7C8BA5"></rect><rect x="174.07" y="153" width="279.14" height="16" rx="3" fill="#6E6BE8"></rect><text x="313.64" y="165" font-size="10.5" font-weight="600" text-anchor="middle" fill="#fff">81%</text><text x="636" y="165" font-size="11.5" font-weight="600" text-anchor="start" fill="#1f2328" font-family="ui-monospace,SFMono-Regular,Menlo,monospace">9.8M</text><text x="8" y="199" font-size="12.5" font-weight="600" text-anchor="start" fill="#1f2328">deepseek</text><rect x="110" y="187" width="40.89" height="16" rx="3" fill="#7C8BA5"></rect><rect x="150.89" y="187" width="299.48" height="16" rx="3" fill="#6E6BE8"></rect><text x="300.63" y="199" font-size="10.5" font-weight="600" text-anchor="middle" fill="#fff">88%</text><text x="636" y="199" font-size="11.5" font-weight="600" text-anchor="start" fill="#1f2328" font-family="ui-monospace,SFMono-Regular,Menlo,monospace">9.7M</text><text x="8" y="233" font-size="12.5" font-weight="600" text-anchor="start" fill="#1f2328">anthropic</text><rect x="110" y="221" width="72.7" height="16" rx="3" fill="#7C8BA5"></rect><rect x="182.7" y="221" width="101.23" height="16" rx="3" fill="#6E6BE8"></rect><text x="233.31" y="233" font-size="10.5" font-weight="600" text-anchor="middle" fill="#fff">58%</text><text x="636" y="233" font-size="11.5" font-weight="600" text-anchor="start" fill="#1f2328" font-family="ui-monospace,SFMono-Regular,Menlo,monospace">4.9M</text></svg>
