<svg xmlns="http://www.w3.org/2000/svg" viewBox="0 0 760 254" width="760" height="254" role="img" aria-label="Token split readiness vs extraction" font-family="-apple-system,BlinkMacSystemFont,'Segoe UI',system-ui,sans-serif"><rect x="110" y="18" width="11" height="11" rx="2.5" fill="#7C8BA5"></rect><text x="127" y="28" font-size="11" font-weight="400" text-anchor="start" fill="#656d76">Readiness (assessment)</text><rect x="300" y="18" width="11" height="11" rx="2.5" fill="#6E6BE8"></rect><text x="317" y="28" font-size="11" font-weight="400" text-anchor="start" fill="#656d76">Extraction (contract)</text><text x="8" y="63" font-size="12.5" font-weight="600" text-anchor="start" fill="#1f2328">mistral</text><rect x="110" y="51" width="193.76" height="16" rx="3" fill="#7C8BA5"></rect><rect x="303.76" y="51" width="320.24" height="16" rx="3" fill="#6E6BE8"></rect><text x="463.88" y="63" font-size="10.5" font-weight="600" text-anchor="middle" fill="#fff">62%</text><text x="636" y="63" font-size="11.5" font-weight="600" text-anchor="start" fill="#1f2328" font-family="ui-monospace,SFMono-Regular,Menlo,monospace">12.2M</text><text x="8" y="97" font-size="12.5" font-weight="600" text-anchor="start" fill="#1f2328">openai</text><rect x="110" y="85" width="70.92" height="16" rx="3" fill="#7C8BA5"></rect><rect x="180.92" y="85" width="320.98" height="16" rx="3" fill="#6E6BE8"></rect><text x="341.41" y="97" font-size="10.5" font-weight="600" text-anchor="middle" fill="#fff">82%</text><text x="636" y="97" font-size="11.5" font-weight="600" text-anchor="start" fill="#1f2328" font-family="ui-monospace,SFMono-Regular,Menlo,monospace">9.3M</text><text x="8" y="131" font-size="12.5" font-weight="600" text-anchor="start" fill="#1f2328">llama</text><rect x="110" y="119" width="57.51" height="16" rx="3" fill="#7C8BA5"></rect><rect x="167.51" y="119" width="309.11" height="16" rx="3" fill="#6E6BE8"></rect><text x="322.06" y="131" font-size="10.5" font-weight="600" text-anchor="middle" fill="#fff">84%</text><text x="636" y="131" font-size="11.5" font-weight="600" text-anchor="start" fill="#1f2328" font-family="ui-monospace,SFMono-Regular,Menlo,monospace">8.7M</text><text x="8" y="165" font-size="12.5" font-weight="600" text-anchor="start" fill="#1f2328">gemini</text><rect x="110" y="153" width="76.69" height="16" rx="3" fill="#7C8BA5"></rect><rect x="186.69" y="153" width="238.91" height="16" rx="3" fill="#6E6BE8"></rect><text x="306.15" y="165" font-size="10.5" font-weight="600" text-anchor="middle" fill="#fff">76%</text><text x="636" y="165" font-size="11.5" font-weight="600" text-anchor="start" fill="#1f2328" font-family="ui-monospace,SFMono-Regular,Menlo,monospace">7.5M</text><text x="8" y="199" font-size="12.5" font-weight="600" text-anchor="start" fill="#1f2328">deepseek</text><rect x="110" y="187" width="48.94" height="16" rx="3" fill="#7C8BA5"></rect><rect x="158.94" y="187" width="251.13" height="16" rx="3" fill="#6E6BE8"></rect><text x="284.51" y="199" font-size="10.5" font-weight="600" text-anchor="middle" fill="#fff">84%</text><text x="636" y="199" font-size="11.5" font-weight="600" text-anchor="start" fill="#1f2328" font-family="ui-monospace,SFMono-Regular,Menlo,monospace">7.1M</text><text x="8" y="233" font-size="12.5" font-weight="600" text-anchor="start" fill="#1f2328">anthropic</text><rect x="110" y="221" width="87.02" height="16" rx="3" fill="#7C8BA5"></rect><rect x="197.02" y="221" width="96.76" height="16" rx="3" fill="#6E6BE8"></rect><text x="245.4" y="233" font-size="10.5" font-weight="600" text-anchor="middle" fill="#fff">53%</text><text x="636" y="233" font-size="11.5" font-weight="600" text-anchor="start" fill="#1f2328" font-family="ui-monospace,SFMono-Regular,Menlo,monospace">4.4M</text></svg>
