<svg xmlns="http://www.w3.org/2000/svg" viewBox="0 0 760 254" width="760" height="254" role="img" aria-label="Token split readiness vs extraction" font-family="-apple-system,BlinkMacSystemFont,'Segoe UI',system-ui,sans-serif"><rect x="110" y="18" width="11" height="11" rx="2.5" fill="#7C8BA5"></rect><text x="127" y="28" font-size="11" font-weight="400" text-anchor="start" fill="#8b949e">Readiness (assessment)</text><rect x="300" y="18" width="11" height="11" rx="2.5" fill="#6E6BE8"></rect><text x="317" y="28" font-size="11" font-weight="400" text-anchor="start" fill="#8b949e">Extraction (contract)</text><text x="8" y="63" font-size="12.5" font-weight="600" text-anchor="start" fill="#e6edf3">mistral</text><rect x="110" y="51" width="182.16" height="16" rx="3" fill="#7C8BA5"></rect><rect x="292.16" y="51" width="331.84" height="16" rx="3" fill="#6E6BE8"></rect><text x="458.08" y="63" font-size="10.5" font-weight="600" text-anchor="middle" fill="#fff">65%</text><text x="636" y="63" font-size="11.5" font-weight="600" text-anchor="start" fill="#e6edf3" font-family="ui-monospace,SFMono-Regular,Menlo,monospace">13.0M</text><text x="8" y="97" font-size="12.5" font-weight="600" text-anchor="start" fill="#e6edf3">openai</text><rect x="110" y="85" width="66.67" height="16" rx="3" fill="#7C8BA5"></rect><rect x="176.67" y="85" width="345.1" height="16" rx="3" fill="#6E6BE8"></rect><text x="349.22" y="97" font-size="10.5" font-weight="600" text-anchor="middle" fill="#fff">84%</text><text x="636" y="97" font-size="11.5" font-weight="600" text-anchor="start" fill="#e6edf3" font-family="ui-monospace,SFMono-Regular,Menlo,monospace">10.4M</text><text x="8" y="131" font-size="12.5" font-weight="600" text-anchor="start" fill="#e6edf3">llama</text><rect x="110" y="119" width="54.07" height="16" rx="3" fill="#7C8BA5"></rect><rect x="164.07" y="119" width="319.66" height="16" rx="3" fill="#6E6BE8"></rect><text x="323.9" y="131" font-size="10.5" font-weight="600" text-anchor="middle" fill="#fff">86%</text><text x="636" y="131" font-size="11.5" font-weight="600" text-anchor="start" fill="#e6edf3" font-family="ui-monospace,SFMono-Regular,Menlo,monospace">9.4M</text><text x="8" y="165" font-size="12.5" font-weight="600" text-anchor="start" fill="#e6edf3">gemini</text><rect x="110" y="153" width="72.1" height="16" rx="3" fill="#7C8BA5"></rect><rect x="182.1" y="153" width="260.27" height="16" rx="3" fill="#6E6BE8"></rect><text x="312.24" y="165" font-size="10.5" font-weight="600" text-anchor="middle" fill="#fff">78%</text><text x="636" y="165" font-size="11.5" font-weight="600" text-anchor="start" fill="#e6edf3" font-family="ui-monospace,SFMono-Regular,Menlo,monospace">8.4M</text><text x="8" y="199" font-size="12.5" font-weight="600" text-anchor="start" fill="#e6edf3">deepseek</text><rect x="110" y="187" width="46.01" height="16" rx="3" fill="#7C8BA5"></rect><rect x="156.01" y="187" width="282.67" height="16" rx="3" fill="#6E6BE8"></rect><text x="297.35" y="199" font-size="10.5" font-weight="600" text-anchor="middle" fill="#fff">86%</text><text x="636" y="199" font-size="11.5" font-weight="600" text-anchor="start" fill="#e6edf3" font-family="ui-monospace,SFMono-Regular,Menlo,monospace">8.3M</text><text x="8" y="233" font-size="12.5" font-weight="600" text-anchor="start" fill="#e6edf3">anthropic</text><rect x="110" y="221" width="81.81" height="16" rx="3" fill="#7C8BA5"></rect><rect x="191.81" y="221" width="105.48" height="16" rx="3" fill="#6E6BE8"></rect><text x="244.55" y="233" font-size="10.5" font-weight="600" text-anchor="middle" fill="#fff">56%</text><text x="636" y="233" font-size="11.5" font-weight="600" text-anchor="start" fill="#e6edf3" font-family="ui-monospace,SFMono-Regular,Menlo,monospace">4.7M</text></svg>
