<svg xmlns="http://www.w3.org/2000/svg" viewBox="0 0 760 254" width="760" height="254" role="img" aria-label="Token split readiness vs extraction" font-family="-apple-system,BlinkMacSystemFont,'Segoe UI',system-ui,sans-serif"><rect x="110" y="18" width="11" height="11" rx="2.5" fill="#7C8BA5"></rect><text x="127" y="28" font-size="11" font-weight="400" text-anchor="start" fill="#8b949e">Readiness (assessment)</text><rect x="300" y="18" width="11" height="11" rx="2.5" fill="#6E6BE8"></rect><text x="317" y="28" font-size="11" font-weight="400" text-anchor="start" fill="#8b949e">Extraction (contract)</text><text x="8" y="63" font-size="12.5" font-weight="600" text-anchor="start" fill="#e6edf3">mistral</text><rect x="110" y="51" width="103.38" height="16" rx="3" fill="#7C8BA5"></rect><rect x="213.38" y="51" width="410.62" height="16" rx="3" fill="#6E6BE8"></rect><text x="418.69" y="63" font-size="10.5" font-weight="600" text-anchor="middle" fill="#fff">80%</text><text x="636" y="63" font-size="11.5" font-weight="600" text-anchor="start" fill="#e6edf3" font-family="ui-monospace,SFMono-Regular,Menlo,monospace">22.9M</text><text x="8" y="97" font-size="12.5" font-weight="600" text-anchor="start" fill="#e6edf3">openai</text><rect x="110" y="85" width="37.84" height="16" rx="3" fill="#7C8BA5"></rect><rect x="147.84" y="85" width="378.24" height="16" rx="3" fill="#6E6BE8"></rect><text x="336.96" y="97" font-size="10.5" font-weight="600" text-anchor="middle" fill="#fff">91%</text><text x="636" y="97" font-size="11.5" font-weight="600" text-anchor="start" fill="#e6edf3" font-family="ui-monospace,SFMono-Regular,Menlo,monospace">18.5M</text><text x="8" y="131" font-size="12.5" font-weight="600" text-anchor="start" fill="#e6edf3">deepseek</text><rect x="110" y="119" width="26.11" height="16" rx="3" fill="#7C8BA5"></rect><rect x="136.11" y="119" width="388.23" height="16" rx="3" fill="#6E6BE8"></rect><text x="330.23" y="131" font-size="10.5" font-weight="600" text-anchor="middle" fill="#fff">94%</text><text x="636" y="131" font-size="11.5" font-weight="600" text-anchor="start" fill="#e6edf3" font-family="ui-monospace,SFMono-Regular,Menlo,monospace">18.4M</text><text x="8" y="165" font-size="12.5" font-weight="600" text-anchor="start" fill="#e6edf3">llama</text><rect x="110" y="153" width="30.68" height="16" rx="3" fill="#7C8BA5"></rect><rect x="140.68" y="153" width="376.01" height="16" rx="3" fill="#6E6BE8"></rect><text x="328.69" y="165" font-size="10.5" font-weight="600" text-anchor="middle" fill="#fff">92%</text><text x="636" y="165" font-size="11.5" font-weight="600" text-anchor="start" fill="#e6edf3" font-family="ui-monospace,SFMono-Regular,Menlo,monospace">18.1M</text><text x="8" y="199" font-size="12.5" font-weight="600" text-anchor="start" fill="#e6edf3">gemini</text><rect x="110" y="187" width="40.92" height="16" rx="3" fill="#7C8BA5"></rect><rect x="150.92" y="187" width="294.78" height="16" rx="3" fill="#6E6BE8"></rect><text x="298.31" y="199" font-size="10.5" font-weight="600" text-anchor="middle" fill="#fff">88%</text><text x="636" y="199" font-size="11.5" font-weight="600" text-anchor="start" fill="#e6edf3" font-family="ui-monospace,SFMono-Regular,Menlo,monospace">14.9M</text><text x="8" y="233" font-size="12.5" font-weight="600" text-anchor="start" fill="#e6edf3">anthropic</text><rect x="110" y="221" width="46.43" height="16" rx="3" fill="#7C8BA5"></rect><rect x="156.43" y="221" width="64.65" height="16" rx="3" fill="#6E6BE8"></rect><text x="188.76" y="233" font-size="10.5" font-weight="600" text-anchor="middle" fill="#fff">58%</text><text x="636" y="233" font-size="11.5" font-weight="600" text-anchor="start" fill="#e6edf3" font-family="ui-monospace,SFMono-Regular,Menlo,monospace">4.9M</text></svg>
