<svg xmlns="http://www.w3.org/2000/svg" viewBox="0 0 760 254" width="760" height="254" role="img" aria-label="Token split readiness vs extraction" font-family="-apple-system,BlinkMacSystemFont,'Segoe UI',system-ui,sans-serif"><rect x="110" y="18" width="11" height="11" rx="2.5" fill="#7C8BA5"></rect><text x="127" y="28" font-size="11" font-weight="400" text-anchor="start" fill="#656d76">Readiness (assessment)</text><rect x="300" y="18" width="11" height="11" rx="2.5" fill="#6E6BE8"></rect><text x="317" y="28" font-size="11" font-weight="400" text-anchor="start" fill="#656d76">Extraction (contract)</text><text x="8" y="63" font-size="12.5" font-weight="600" text-anchor="start" fill="#1f2328">mistral</text><rect x="110" y="51" width="132.21" height="16" rx="3" fill="#7C8BA5"></rect><rect x="242.21" y="51" width="381.79" height="16" rx="3" fill="#6E6BE8"></rect><text x="433.1" y="63" font-size="10.5" font-weight="600" text-anchor="middle" fill="#fff">74%</text><text x="636" y="63" font-size="11.5" font-weight="600" text-anchor="start" fill="#1f2328" font-family="ui-monospace,SFMono-Regular,Menlo,monospace">17.9M</text><text x="8" y="97" font-size="12.5" font-weight="600" text-anchor="start" fill="#1f2328">openai</text><rect x="110" y="85" width="48.39" height="16" rx="3" fill="#7C8BA5"></rect><rect x="158.39" y="85" width="355.47" height="16" rx="3" fill="#6E6BE8"></rect><text x="336.12" y="97" font-size="10.5" font-weight="600" text-anchor="middle" fill="#fff">88%</text><text x="636" y="97" font-size="11.5" font-weight="600" text-anchor="start" fill="#1f2328" font-family="ui-monospace,SFMono-Regular,Menlo,monospace">14.0M</text><text x="8" y="131" font-size="12.5" font-weight="600" text-anchor="start" fill="#1f2328">llama</text><rect x="110" y="119" width="39.24" height="16" rx="3" fill="#7C8BA5"></rect><rect x="149.24" y="119" width="350.43" height="16" rx="3" fill="#6E6BE8"></rect><text x="324.45" y="131" font-size="10.5" font-weight="600" text-anchor="middle" fill="#fff">90%</text><text x="636" y="131" font-size="11.5" font-weight="600" text-anchor="start" fill="#1f2328" font-family="ui-monospace,SFMono-Regular,Menlo,monospace">13.6M</text><text x="8" y="165" font-size="12.5" font-weight="600" text-anchor="start" fill="#1f2328">deepseek</text><rect x="110" y="153" width="33.39" height="16" rx="3" fill="#7C8BA5"></rect><rect x="143.39" y="153" width="352.92" height="16" rx="3" fill="#6E6BE8"></rect><text x="319.85" y="165" font-size="10.5" font-weight="600" text-anchor="middle" fill="#fff">91%</text><text x="636" y="165" font-size="11.5" font-weight="600" text-anchor="start" fill="#1f2328" font-family="ui-monospace,SFMono-Regular,Menlo,monospace">13.4M</text><text x="8" y="199" font-size="12.5" font-weight="600" text-anchor="start" fill="#1f2328">gemini</text><rect x="110" y="187" width="52.33" height="16" rx="3" fill="#7C8BA5"></rect><rect x="162.33" y="187" width="301.06" height="16" rx="3" fill="#6E6BE8"></rect><text x="312.86" y="199" font-size="10.5" font-weight="600" text-anchor="middle" fill="#fff">85%</text><text x="636" y="199" font-size="11.5" font-weight="600" text-anchor="start" fill="#1f2328" font-family="ui-monospace,SFMono-Regular,Menlo,monospace">12.3M</text><text x="8" y="233" font-size="12.5" font-weight="600" text-anchor="start" fill="#1f2328">anthropic</text><rect x="110" y="221" width="59.38" height="16" rx="3" fill="#7C8BA5"></rect><rect x="169.38" y="221" width="82.68" height="16" rx="3" fill="#6E6BE8"></rect><text x="210.72" y="233" font-size="10.5" font-weight="600" text-anchor="middle" fill="#fff">58%</text><text x="636" y="233" font-size="11.5" font-weight="600" text-anchor="start" fill="#1f2328" font-family="ui-monospace,SFMono-Regular,Menlo,monospace">4.9M</text></svg>
