<svg xmlns="http://www.w3.org/2000/svg" viewBox="0 0 760 254" width="760" height="254" role="img" aria-label="Token split readiness vs extraction" font-family="-apple-system,BlinkMacSystemFont,'Segoe UI',system-ui,sans-serif"><rect x="110" y="18" width="11" height="11" rx="2.5" fill="#7C8BA5"></rect><text x="127" y="28" font-size="11" font-weight="400" text-anchor="start" fill="#8b949e">Readiness (assessment)</text><rect x="300" y="18" width="11" height="11" rx="2.5" fill="#6E6BE8"></rect><text x="317" y="28" font-size="11" font-weight="400" text-anchor="start" fill="#8b949e">Extraction (contract)</text><text x="8" y="63" font-size="12.5" font-weight="600" text-anchor="start" fill="#e6edf3">mistral</text><rect x="110" y="51" width="152.7" height="16" rx="3" fill="#7C8BA5"></rect><rect x="262.7" y="51" width="361.3" height="16" rx="3" fill="#6E6BE8"></rect><text x="443.35" y="63" font-size="10.5" font-weight="600" text-anchor="middle" fill="#fff">70%</text><text x="636" y="63" font-size="11.5" font-weight="600" text-anchor="start" fill="#e6edf3" font-family="ui-monospace,SFMono-Regular,Menlo,monospace">15.5M</text><text x="8" y="97" font-size="12.5" font-weight="600" text-anchor="start" fill="#e6edf3">openai</text><rect x="110" y="85" width="55.89" height="16" rx="3" fill="#7C8BA5"></rect><rect x="165.89" y="85" width="355.75" height="16" rx="3" fill="#6E6BE8"></rect><text x="343.76" y="97" font-size="10.5" font-weight="600" text-anchor="middle" fill="#fff">86%</text><text x="636" y="97" font-size="11.5" font-weight="600" text-anchor="start" fill="#e6edf3" font-family="ui-monospace,SFMono-Regular,Menlo,monospace">12.4M</text><text x="8" y="131" font-size="12.5" font-weight="600" text-anchor="start" fill="#e6edf3">llama</text><rect x="110" y="119" width="45.32" height="16" rx="3" fill="#7C8BA5"></rect><rect x="155.32" y="119" width="337.88" height="16" rx="3" fill="#6E6BE8"></rect><text x="324.26" y="131" font-size="10.5" font-weight="600" text-anchor="middle" fill="#fff">88%</text><text x="636" y="131" font-size="11.5" font-weight="600" text-anchor="start" fill="#e6edf3" font-family="ui-monospace,SFMono-Regular,Menlo,monospace">11.5M</text><text x="8" y="165" font-size="12.5" font-weight="600" text-anchor="start" fill="#e6edf3">deepseek</text><rect x="110" y="153" width="38.57" height="16" rx="3" fill="#7C8BA5"></rect><rect x="148.57" y="153" width="313.42" height="16" rx="3" fill="#6E6BE8"></rect><text x="305.28" y="165" font-size="10.5" font-weight="600" text-anchor="middle" fill="#fff">89%</text><text x="636" y="165" font-size="11.5" font-weight="600" text-anchor="start" fill="#e6edf3" font-family="ui-monospace,SFMono-Regular,Menlo,monospace">10.6M</text><text x="8" y="199" font-size="12.5" font-weight="600" text-anchor="start" fill="#e6edf3">gemini</text><rect x="110" y="187" width="60.44" height="16" rx="3" fill="#7C8BA5"></rect><rect x="170.44" y="187" width="282.34" height="16" rx="3" fill="#6E6BE8"></rect><text x="311.61" y="199" font-size="10.5" font-weight="600" text-anchor="middle" fill="#fff">82%</text><text x="636" y="199" font-size="11.5" font-weight="600" text-anchor="start" fill="#e6edf3" font-family="ui-monospace,SFMono-Regular,Menlo,monospace">10.3M</text><text x="8" y="233" font-size="12.5" font-weight="600" text-anchor="start" fill="#e6edf3">anthropic</text><rect x="110" y="221" width="68.58" height="16" rx="3" fill="#7C8BA5"></rect><rect x="178.58" y="221" width="95.5" height="16" rx="3" fill="#6E6BE8"></rect><text x="226.33" y="233" font-size="10.5" font-weight="600" text-anchor="middle" fill="#fff">58%</text><text x="636" y="233" font-size="11.5" font-weight="600" text-anchor="start" fill="#e6edf3" font-family="ui-monospace,SFMono-Regular,Menlo,monospace">4.9M</text></svg>
