<svg xmlns="http://www.w3.org/2000/svg" viewBox="0 0 760 254" width="760" height="254" role="img" aria-label="Token split readiness vs extraction" font-family="-apple-system,BlinkMacSystemFont,'Segoe UI',system-ui,sans-serif"><rect x="110" y="18" width="11" height="11" rx="2.5" fill="#7C8BA5"></rect><text x="127" y="28" font-size="11" font-weight="400" text-anchor="start" fill="#656d76">Readiness (assessment)</text><rect x="300" y="18" width="11" height="11" rx="2.5" fill="#6E6BE8"></rect><text x="317" y="28" font-size="11" font-weight="400" text-anchor="start" fill="#656d76">Extraction (contract)</text><text x="8" y="63" font-size="12.5" font-weight="600" text-anchor="start" fill="#1f2328">mistral</text><rect x="110" y="51" width="148.5" height="16" rx="3" fill="#7C8BA5"></rect><rect x="258.5" y="51" width="365.5" height="16" rx="3" fill="#6E6BE8"></rect><text x="441.25" y="63" font-size="10.5" font-weight="600" text-anchor="middle" fill="#fff">71%</text><text x="636" y="63" font-size="11.5" font-weight="600" text-anchor="start" fill="#1f2328" font-family="ui-monospace,SFMono-Regular,Menlo,monospace">15.9M</text><text x="8" y="97" font-size="12.5" font-weight="600" text-anchor="start" fill="#1f2328">openai</text><rect x="110" y="85" width="54.35" height="16" rx="3" fill="#7C8BA5"></rect><rect x="164.35" y="85" width="356.35" height="16" rx="3" fill="#6E6BE8"></rect><text x="342.52" y="97" font-size="10.5" font-weight="600" text-anchor="middle" fill="#fff">87%</text><text x="636" y="97" font-size="11.5" font-weight="600" text-anchor="start" fill="#1f2328" font-family="ui-monospace,SFMono-Regular,Menlo,monospace">12.7M</text><text x="8" y="131" font-size="12.5" font-weight="600" text-anchor="start" fill="#1f2328">llama</text><rect x="110" y="119" width="44.08" height="16" rx="3" fill="#7C8BA5"></rect><rect x="154.08" y="119" width="339.98" height="16" rx="3" fill="#6E6BE8"></rect><text x="324.07" y="131" font-size="10.5" font-weight="600" text-anchor="middle" fill="#fff">89%</text><text x="636" y="131" font-size="11.5" font-weight="600" text-anchor="start" fill="#1f2328" font-family="ui-monospace,SFMono-Regular,Menlo,monospace">11.9M</text><text x="8" y="165" font-size="12.5" font-weight="600" text-anchor="start" fill="#1f2328">deepseek</text><rect x="110" y="153" width="37.51" height="16" rx="3" fill="#7C8BA5"></rect><rect x="147.51" y="153" width="326.28" height="16" rx="3" fill="#6E6BE8"></rect><text x="310.65" y="165" font-size="10.5" font-weight="600" text-anchor="middle" fill="#fff">90%</text><text x="636" y="165" font-size="11.5" font-weight="600" text-anchor="start" fill="#1f2328" font-family="ui-monospace,SFMono-Regular,Menlo,monospace">11.3M</text><text x="8" y="199" font-size="12.5" font-weight="600" text-anchor="start" fill="#1f2328">gemini</text><rect x="110" y="187" width="58.78" height="16" rx="3" fill="#7C8BA5"></rect><rect x="168.78" y="187" width="287.37" height="16" rx="3" fill="#6E6BE8"></rect><text x="312.46" y="199" font-size="10.5" font-weight="600" text-anchor="middle" fill="#fff">83%</text><text x="636" y="199" font-size="11.5" font-weight="600" text-anchor="start" fill="#1f2328" font-family="ui-monospace,SFMono-Regular,Menlo,monospace">10.7M</text><text x="8" y="233" font-size="12.5" font-weight="600" text-anchor="start" fill="#1f2328">anthropic</text><rect x="110" y="221" width="66.69" height="16" rx="3" fill="#7C8BA5"></rect><rect x="176.69" y="221" width="92.87" height="16" rx="3" fill="#6E6BE8"></rect><text x="223.13" y="233" font-size="10.5" font-weight="600" text-anchor="middle" fill="#fff">58%</text><text x="636" y="233" font-size="11.5" font-weight="600" text-anchor="start" fill="#1f2328" font-family="ui-monospace,SFMono-Regular,Menlo,monospace">4.9M</text></svg>
