<svg xmlns="http://www.w3.org/2000/svg" viewBox="0 0 760 254" width="760" height="254" role="img" aria-label="Token split readiness vs extraction" font-family="-apple-system,BlinkMacSystemFont,'Segoe UI',system-ui,sans-serif"><rect x="110" y="18" width="11" height="11" rx="2.5" fill="#7C8BA5"></rect><text x="127" y="28" font-size="11" font-weight="400" text-anchor="start" fill="#656d76">Readiness (assessment)</text><rect x="300" y="18" width="11" height="11" rx="2.5" fill="#6E6BE8"></rect><text x="317" y="28" font-size="11" font-weight="400" text-anchor="start" fill="#656d76">Extraction (contract)</text><text x="8" y="63" font-size="12.5" font-weight="600" text-anchor="start" fill="#1f2328">mistral</text><rect x="110" y="51" width="176.64" height="16" rx="3" fill="#7C8BA5"></rect><rect x="286.64" y="51" width="337.36" height="16" rx="3" fill="#6E6BE8"></rect><text x="455.32" y="63" font-size="10.5" font-weight="600" text-anchor="middle" fill="#fff">66%</text><text x="636" y="63" font-size="11.5" font-weight="600" text-anchor="start" fill="#1f2328" font-family="ui-monospace,SFMono-Regular,Menlo,monospace">13.4M</text><text x="8" y="97" font-size="12.5" font-weight="600" text-anchor="start" fill="#1f2328">openai</text><rect x="110" y="85" width="64.65" height="16" rx="3" fill="#7C8BA5"></rect><rect x="174.65" y="85" width="348.26" height="16" rx="3" fill="#6E6BE8"></rect><text x="348.78" y="97" font-size="10.5" font-weight="600" text-anchor="middle" fill="#fff">84%</text><text x="636" y="97" font-size="11.5" font-weight="600" text-anchor="start" fill="#1f2328" font-family="ui-monospace,SFMono-Regular,Menlo,monospace">10.8M</text><text x="8" y="131" font-size="12.5" font-weight="600" text-anchor="start" fill="#1f2328">llama</text><rect x="110" y="119" width="52.43" height="16" rx="3" fill="#7C8BA5"></rect><rect x="162.43" y="119" width="320.98" height="16" rx="3" fill="#6E6BE8"></rect><text x="322.92" y="131" font-size="10.5" font-weight="600" text-anchor="middle" fill="#fff">86%</text><text x="636" y="131" font-size="11.5" font-weight="600" text-anchor="start" fill="#1f2328" font-family="ui-monospace,SFMono-Regular,Menlo,monospace">9.7M</text><text x="8" y="165" font-size="12.5" font-weight="600" text-anchor="start" fill="#1f2328">gemini</text><rect x="110" y="153" width="69.92" height="16" rx="3" fill="#7C8BA5"></rect><rect x="179.92" y="153" width="270.25" height="16" rx="3" fill="#6E6BE8"></rect><text x="315.04" y="165" font-size="10.5" font-weight="600" text-anchor="middle" fill="#fff">79%</text><text x="636" y="165" font-size="11.5" font-weight="600" text-anchor="start" fill="#1f2328" font-family="ui-monospace,SFMono-Regular,Menlo,monospace">8.9M</text><text x="8" y="199" font-size="12.5" font-weight="600" text-anchor="start" fill="#1f2328">deepseek</text><rect x="110" y="187" width="44.62" height="16" rx="3" fill="#7C8BA5"></rect><rect x="154.62" y="187" width="288.33" height="16" rx="3" fill="#6E6BE8"></rect><text x="298.78" y="199" font-size="10.5" font-weight="600" text-anchor="middle" fill="#fff">87%</text><text x="636" y="199" font-size="11.5" font-weight="600" text-anchor="start" fill="#1f2328" font-family="ui-monospace,SFMono-Regular,Menlo,monospace">8.7M</text><text x="8" y="233" font-size="12.5" font-weight="600" text-anchor="start" fill="#1f2328">anthropic</text><rect x="110" y="221" width="79.33" height="16" rx="3" fill="#7C8BA5"></rect><rect x="189.33" y="221" width="108.03" height="16" rx="3" fill="#6E6BE8"></rect><text x="243.35" y="233" font-size="10.5" font-weight="600" text-anchor="middle" fill="#fff">58%</text><text x="636" y="233" font-size="11.5" font-weight="600" text-anchor="start" fill="#1f2328" font-family="ui-monospace,SFMono-Regular,Menlo,monospace">4.9M</text></svg>
