<svg xmlns="http://www.w3.org/2000/svg" viewBox="0 0 760 254" width="760" height="254" role="img" aria-label="Token split readiness vs extraction" font-family="-apple-system,BlinkMacSystemFont,'Segoe UI',system-ui,sans-serif"><rect x="110" y="18" width="11" height="11" rx="2.5" fill="#7C8BA5"></rect><text x="127" y="28" font-size="11" font-weight="400" text-anchor="start" fill="#656d76">Readiness (assessment)</text><rect x="300" y="18" width="11" height="11" rx="2.5" fill="#6E6BE8"></rect><text x="317" y="28" font-size="11" font-weight="400" text-anchor="start" fill="#656d76">Extraction (contract)</text><text x="8" y="63" font-size="12.5" font-weight="600" text-anchor="start" fill="#1f2328">mistral</text><rect x="110" y="51" width="145.42" height="16" rx="3" fill="#7C8BA5"></rect><rect x="255.42" y="51" width="368.58" height="16" rx="3" fill="#6E6BE8"></rect><text x="439.71" y="63" font-size="10.5" font-weight="600" text-anchor="middle" fill="#fff">72%</text><text x="636" y="63" font-size="11.5" font-weight="600" text-anchor="start" fill="#1f2328" font-family="ui-monospace,SFMono-Regular,Menlo,monospace">16.3M</text><text x="8" y="97" font-size="12.5" font-weight="600" text-anchor="start" fill="#1f2328">openai</text><rect x="110" y="85" width="53.22" height="16" rx="3" fill="#7C8BA5"></rect><rect x="163.22" y="85" width="369.37" height="16" rx="3" fill="#6E6BE8"></rect><text x="347.91" y="97" font-size="10.5" font-weight="600" text-anchor="middle" fill="#fff">87%</text><text x="636" y="97" font-size="11.5" font-weight="600" text-anchor="start" fill="#1f2328" font-family="ui-monospace,SFMono-Regular,Menlo,monospace">13.4M</text><text x="8" y="131" font-size="12.5" font-weight="600" text-anchor="start" fill="#1f2328">llama</text><rect x="110" y="119" width="43.16" height="16" rx="3" fill="#7C8BA5"></rect><rect x="153.16" y="119" width="341.02" height="16" rx="3" fill="#6E6BE8"></rect><text x="323.67" y="131" font-size="10.5" font-weight="600" text-anchor="middle" fill="#fff">89%</text><text x="636" y="131" font-size="11.5" font-weight="600" text-anchor="start" fill="#1f2328" font-family="ui-monospace,SFMono-Regular,Menlo,monospace">12.2M</text><text x="8" y="165" font-size="12.5" font-weight="600" text-anchor="start" fill="#1f2328">deepseek</text><rect x="110" y="153" width="36.73" height="16" rx="3" fill="#7C8BA5"></rect><rect x="146.73" y="153" width="333.32" height="16" rx="3" fill="#6E6BE8"></rect><text x="313.39" y="165" font-size="10.5" font-weight="600" text-anchor="middle" fill="#fff">90%</text><text x="636" y="165" font-size="11.5" font-weight="600" text-anchor="start" fill="#1f2328" font-family="ui-monospace,SFMono-Regular,Menlo,monospace">11.7M</text><text x="8" y="199" font-size="12.5" font-weight="600" text-anchor="start" fill="#1f2328">gemini</text><rect x="110" y="187" width="57.56" height="16" rx="3" fill="#7C8BA5"></rect><rect x="167.56" y="187" width="291.56" height="16" rx="3" fill="#6E6BE8"></rect><text x="313.34" y="199" font-size="10.5" font-weight="600" text-anchor="middle" fill="#fff">84%</text><text x="636" y="199" font-size="11.5" font-weight="600" text-anchor="start" fill="#1f2328" font-family="ui-monospace,SFMono-Regular,Menlo,monospace">11.0M</text><text x="8" y="233" font-size="12.5" font-weight="600" text-anchor="start" fill="#1f2328">anthropic</text><rect x="110" y="221" width="65.31" height="16" rx="3" fill="#7C8BA5"></rect><rect x="175.31" y="221" width="90.94" height="16" rx="3" fill="#6E6BE8"></rect><text x="220.78" y="233" font-size="10.5" font-weight="600" text-anchor="middle" fill="#fff">58%</text><text x="636" y="233" font-size="11.5" font-weight="600" text-anchor="start" fill="#1f2328" font-family="ui-monospace,SFMono-Regular,Menlo,monospace">4.9M</text></svg>
