<svg xmlns="http://www.w3.org/2000/svg" viewBox="0 0 600 300" width="600" height="300" role="img" aria-label="Token split: readiness vs extraction"><text x="300.0" y="24" text-anchor="middle" font-family="system-ui, -apple-system, sans-serif" font-size="14" font-weight="600" fill="#333">Token split: readiness vs extraction</text><rect x="70.5" y="197.0" width="49.0" height="43.0" fill="#4CAF50"/><rect x="70.5" y="163.4" width="49.0" height="33.6" fill="#2196F3"/><text x="95.0" y="256.0" text-anchor="middle" font-family="system-ui, -apple-system, sans-serif" font-size="10" fill="#666">anthropic</text><rect x="140.5" y="215.8" width="49.0" height="24.2" fill="#4CAF50"/><rect x="140.5" y="141.0" width="49.0" height="74.8" fill="#2196F3"/><text x="165.0" y="256.0" text-anchor="middle" font-family="system-ui, -apple-system, sans-serif" font-size="10" fill="#666">deepseek</text><rect x="210.5" y="202.1" width="49.0" height="37.9" fill="#4CAF50"/><rect x="210.5" y="92.1" width="49.0" height="109.9" fill="#2196F3"/><text x="235.0" y="256.0" text-anchor="middle" font-family="system-ui, -apple-system, sans-serif" font-size="10" fill="#666">gemini</text><rect x="280.5" y="211.6" width="49.0" height="28.4" fill="#4CAF50"/><rect x="280.5" y="94.6" width="49.0" height="117.0" fill="#2196F3"/><text x="305.0" y="256.0" text-anchor="middle" font-family="system-ui, -apple-system, sans-serif" font-size="10" fill="#666">llama</text><rect x="350.5" y="144.2" width="49.0" height="95.8" fill="#4CAF50"/><rect x="350.5" y="40.0" width="49.0" height="104.2" fill="#2196F3"/><text x="375.0" y="256.0" text-anchor="middle" font-family="system-ui, -apple-system, sans-serif" font-size="10" fill="#666">mistral</text><rect x="420.5" y="204.9" width="49.0" height="35.1" fill="#4CAF50"/><rect x="420.5" y="88.5" width="49.0" height="116.4" fill="#2196F3"/><text x="445.0" y="256.0" text-anchor="middle" font-family="system-ui, -apple-system, sans-serif" font-size="10" fill="#666">openai</text><rect x="490" y="44" width="10" height="10" fill="#4CAF50"/><text x="504" y="53" font-family="system-ui, -apple-system, sans-serif" font-size="10" fill="#333">Readiness (assessment)</text><rect x="490" y="62" width="10" height="10" fill="#2196F3"/><text x="504" y="71" font-family="system-ui, -apple-system, sans-serif" font-size="10" fill="#333">Extraction (contract)</text><line x1="60" y1="240" x2="480" y2="240" stroke="#ccc" stroke-width="1"/></svg>
